<?xml version="1.0" encoding="us-ascii" standalone="no"?><svg xmlns="http://www.w3.org/2000/svg" xmlns:xlink="http://www.w3.org/1999/xlink" contentStyleType="text/css" height="395px" preserveAspectRatio="none" style="width:328px;height:395px;background:#FFFFFF;" version="1.1" viewBox="0 0 328 395" width="328px" zoomAndPan="magnify"><defs/><g><text fill="#000000" font-family="sans-serif" font-size="14" font-weight="bold" lengthAdjust="spacing" textLength="300" x="10" y="28.5352">System Sequence Diagram (SSD) - US 001</text><rect fill="#FFFFFF" height="176.8633" style="stroke:#181818;stroke-width:1.0;" width="10" x="41.25" y="128.9766"/><rect fill="#FFFFFF" height="29.3105" style="stroke:#181818;stroke-width:1.0;" width="10" x="255.25" y="150.2871"/><rect fill="#FFFFFF" height="29.3105" style="stroke:#181818;stroke-width:1.0;" width="10" x="255.25" y="208.9082"/><rect fill="#FFFFFF" height="29.3105" style="stroke:#181818;stroke-width:1.0;" width="10" x="255.25" y="267.5293"/><line style="stroke:#181818;stroke-width:0.5;stroke-dasharray:5.0,5.0;" x1="45.75" x2="45.75" y1="118.9766" y2="314.8398"/><line style="stroke:#181818;stroke-width:0.5;stroke-dasharray:5.0,5.0;" x1="260.25" x2="260.25" y1="118.9766" y2="314.8398"/><text fill="#000000" font-family="sans-serif" font-size="14" lengthAdjust="spacing" textLength="31" x="27.75" y="116.0234">HRM</text><ellipse cx="46.25" cy="50.9883" fill="#E3E3E3" rx="8" ry="8" style="stroke:#181818;stroke-width:0.5;"/><path d="M46.25,58.9883 L46.25,85.9883 M33.25,66.9883 L59.25,66.9883 M46.25,85.9883 L33.25,100.9883 M46.25,85.9883 L59.25,100.9883 " fill="none" style="stroke:#181818;stroke-width:0.5;"/><text fill="#000000" font-family="sans-serif" font-size="14" lengthAdjust="spacing" textLength="31" x="27.75" y="327.375">HRM</text><ellipse cx="46.25" cy="338.8281" fill="#E3E3E3" rx="8" ry="8" style="stroke:#181818;stroke-width:0.5;"/><path d="M46.25,346.8281 L46.25,373.8281 M33.25,354.8281 L59.25,354.8281 M46.25,373.8281 L33.25,388.8281 M46.25,373.8281 L59.25,388.8281 " fill="none" style="stroke:#181818;stroke-width:0.5;"/><rect fill="#E3E3E3" height="30.4883" rx="2.5" ry="2.5" style="stroke:#181818;stroke-width:0.5;" width="66" x="227.25" y="87.4883"/><text fill="#000000" font-family="sans-serif" font-size="14" lengthAdjust="spacing" textLength="52" x="234.25" y="108.0234">:System</text><rect fill="#E3E3E3" height="30.4883" rx="2.5" ry="2.5" style="stroke:#181818;stroke-width:0.5;" width="66" x="227.25" y="313.8398"/><text fill="#000000" font-family="sans-serif" font-size="14" lengthAdjust="spacing" textLength="52" x="234.25" y="334.375">:System</text><rect fill="#FFFFFF" height="176.8633" style="stroke:#181818;stroke-width:1.0;" width="10" x="41.25" y="128.9766"/><rect fill="#FFFFFF" height="29.3105" style="stroke:#181818;stroke-width:1.0;" width="10" x="255.25" y="150.2871"/><rect fill="#FFFFFF" height="29.3105" style="stroke:#181818;stroke-width:1.0;" width="10" x="255.25" y="208.9082"/><rect fill="#FFFFFF" height="29.3105" style="stroke:#181818;stroke-width:1.0;" width="10" x="255.25" y="267.5293"/><polygon fill="#181818" points="243.25,146.2871,253.25,150.2871,243.25,154.2871,247.25,150.2871" style="stroke:#181818;stroke-width:1.0;"/><line style="stroke:#181818;stroke-width:1.0;" x1="51.25" x2="249.25" y1="150.2871" y2="150.2871"/><text fill="#000000" font-family="sans-serif" font-size="13" font-weight="bold" lengthAdjust="spacing" textLength="9" x="58.25" y="145.5449">1</text><text fill="#000000" font-family="sans-serif" font-size="13" lengthAdjust="spacing" textLength="172" x="71.25" y="145.5449">selects "create skill" option</text><polygon fill="#181818" points="62.25,175.5977,52.25,179.5977,62.25,183.5977,58.25,179.5977" style="stroke:#181818;stroke-width:1.0;"/><line style="stroke:#181818;stroke-width:1.0;stroke-dasharray:2.0,2.0;" x1="56.25" x2="259.25" y1="179.5977" y2="179.5977"/><text fill="#000000" font-family="sans-serif" font-size="13" font-weight="bold" lengthAdjust="spacing" textLength="9" x="68.25" y="174.8555">2</text><text fill="#000000" font-family="sans-serif" font-size="13" lengthAdjust="spacing" textLength="116" x="81.25" y="174.8555">request skill name</text><polygon fill="#181818" points="243.25,204.9082,253.25,208.9082,243.25,212.9082,247.25,208.9082" style="stroke:#181818;stroke-width:1.0;"/><line style="stroke:#181818;stroke-width:1.0;" x1="51.25" x2="249.25" y1="208.9082" y2="208.9082"/><text fill="#000000" font-family="sans-serif" font-size="13" font-weight="bold" lengthAdjust="spacing" textLength="9" x="58.25" y="204.166">3</text><text fill="#000000" font-family="sans-serif" font-size="13" lengthAdjust="spacing" textLength="108" x="71.25" y="204.166">enters skill name</text><polygon fill="#181818" points="62.25,234.2188,52.25,238.2188,62.25,242.2188,58.25,238.2188" style="stroke:#181818;stroke-width:1.0;"/><line style="stroke:#181818;stroke-width:1.0;stroke-dasharray:2.0,2.0;" x1="56.25" x2="259.25" y1="238.2188" y2="238.2188"/><text fill="#000000" font-family="sans-serif" font-size="13" font-weight="bold" lengthAdjust="spacing" textLength="9" x="68.25" y="233.4766">4</text><text fill="#000000" font-family="sans-serif" font-size="13" lengthAdjust="spacing" textLength="165" x="81.25" y="233.4766">asks for validation of skill</text><polygon fill="#181818" points="243.25,263.5293,253.25,267.5293,243.25,271.5293,247.25,267.5293" style="stroke:#181818;stroke-width:1.0;"/><line style="stroke:#181818;stroke-width:1.0;" x1="51.25" x2="249.25" y1="267.5293" y2="267.5293"/><text fill="#000000" font-family="sans-serif" font-size="13" font-weight="bold" lengthAdjust="spacing" textLength="9" x="58.25" y="262.7871">5</text><text fill="#000000" font-family="sans-serif" font-size="13" lengthAdjust="spacing" textLength="87" x="71.25" y="262.7871">validates skill</text><polygon fill="#181818" points="62.25,292.8398,52.25,296.8398,62.25,300.8398,58.25,296.8398" style="stroke:#181818;stroke-width:1.0;"/><line style="stroke:#181818;stroke-width:1.0;stroke-dasharray:2.0,2.0;" x1="56.25" x2="259.25" y1="296.8398" y2="296.8398"/><text fill="#000000" font-family="sans-serif" font-size="13" font-weight="bold" lengthAdjust="spacing" textLength="9" x="68.25" y="292.0977">6</text><text fill="#000000" font-family="sans-serif" font-size="13" lengthAdjust="spacing" textLength="158" x="81.25" y="292.0977">shows operation success</text><!--SRC=[hLAxRiCm3Dpr5OIdTZ2GhXuwPUZIfKO_W5KOMx0UhaWdoD-NiPsqC62ahrj4GAVZtK7SkTXZnW0XnMJRd0A1v84CNszwj1qsLCl94sIoWh7nNmdSuYuTNMnWZvx9676YrFh4GW5gUXyeMeAjm-PClwlhxJsKy5h3PlDW30wIuX3UAEji9MKedbwU2q06FOtk46TTZr6Wg2RHyN8QnpVkW48Zsu121oWVPq85J5vTCnGsqvcdphql8FNYKXmVN2Kkcd317A9KELMjDB-cOPaq86AWJwvYHqifM63XZQ9GvZMv2sw9hfX5xXZsMkW1lTlXEIwa_RHiJUC7KMvX4NKsGVnD0tyeuZTObiTjEh9-4ifJSJnOIyp_kNAzwmy0]--></g></svg>