<?xml version="1.0" encoding="us-ascii" standalone="no"?><svg xmlns="http://www.w3.org/2000/svg" xmlns:xlink="http://www.w3.org/1999/xlink" contentStyleType="text/css" height="635px" preserveAspectRatio="none" style="width:315px;height:635px;background:#FFFFFF;" version="1.1" viewBox="0 0 315 635" width="315px" zoomAndPan="magnify"><defs/><g><!--class RegisterCheckUpController--><g id="elem_RegisterCheckUpController"><rect codeLine="11" fill="#F1F1F1" height="64.4883" id="RegisterCheckUpController" rx="2.5" ry="2.5" style="stroke:#181818;stroke-width:0.5;" width="301" x="7" y="116"/><ellipse cx="59.75" cy="132" fill="#ADD1B2" rx="11" ry="11" style="stroke:#181818;stroke-width:1.0;"/><path d="M62.7231,137.6431 Q62.1421,137.9419 61.5029,138.0913 Q60.8638,138.2407 60.1582,138.2407 Q57.6514,138.2407 56.3315,136.5889 Q55.0117,134.937 55.0117,131.8159 Q55.0117,128.6865 56.3315,127.0347 Q57.6514,125.3828 60.1582,125.3828 Q60.8638,125.3828 61.5112,125.5322 Q62.1587,125.6816 62.7231,125.9805 L62.7231,128.7031 Q62.0923,128.1221 61.4988,127.8523 Q60.9053,127.5825 60.2744,127.5825 Q58.9297,127.5825 58.2449,128.6492 Q57.5601,129.7158 57.5601,131.8159 Q57.5601,133.9077 58.2449,134.9744 Q58.9297,136.041 60.2744,136.041 Q60.9053,136.041 61.4988,135.7712 Q62.0923,135.5015 62.7231,134.9204 Z " fill="#000000"/><text fill="#000000" font-family="sans-serif" font-size="14" lengthAdjust="spacing" textLength="187" x="80.25" y="137.291">RegisterCheckUpController</text><line style="stroke:#181818;stroke-width:0.5;" x1="8" x2="307" y1="148" y2="148"/><line style="stroke:#181818;stroke-width:0.5;" x1="8" x2="307" y1="156" y2="156"/><text fill="#000000" font-family="sans-serif" font-size="14" lengthAdjust="spacing" textLength="289" x="13" y="173.5352">+registerCheckUp(vehiclePlate, date, kms)</text></g><!--class RegisterCheckUpUI--><g id="elem_RegisterCheckUpUI"><rect codeLine="16" fill="#F1F1F1" height="48" id="RegisterCheckUpUI" rx="2.5" ry="2.5" style="stroke:#181818;stroke-width:0.5;" width="163" x="76" y="7"/><ellipse cx="91" cy="23" fill="#ADD1B2" rx="11" ry="11" style="stroke:#181818;stroke-width:1.0;"/><path d="M93.9731,28.6431 Q93.3921,28.9419 92.7529,29.0913 Q92.1138,29.2407 91.4082,29.2407 Q88.9014,29.2407 87.5815,27.5889 Q86.2617,25.937 86.2617,22.8159 Q86.2617,19.6865 87.5815,18.0347 Q88.9014,16.3828 91.4082,16.3828 Q92.1138,16.3828 92.7612,16.5322 Q93.4087,16.6816 93.9731,16.9805 L93.9731,19.7031 Q93.3423,19.1221 92.7488,18.8523 Q92.1553,18.5825 91.5244,18.5825 Q90.1797,18.5825 89.4949,19.6492 Q88.8101,20.7158 88.8101,22.8159 Q88.8101,24.9077 89.4949,25.9744 Q90.1797,27.041 91.5244,27.041 Q92.1553,27.041 92.7488,26.7712 Q93.3423,26.5015 93.9731,25.9204 Z " fill="#000000"/><text fill="#000000" font-family="sans-serif" font-size="14" lengthAdjust="spacing" textLength="131" x="105" y="28.291">RegisterCheckUpUI</text><line style="stroke:#181818;stroke-width:0.5;" x1="77" x2="238" y1="39" y2="39"/><line style="stroke:#181818;stroke-width:0.5;" x1="77" x2="238" y1="47" y2="47"/></g><!--class Vehicle--><g id="elem_Vehicle"><rect codeLine="19" fill="#F1F1F1" height="212.8828" id="Vehicle" rx="2.5" ry="2.5" style="stroke:#181818;stroke-width:0.5;" width="202" x="56.5" y="241"/><ellipse cx="128.75" cy="257" fill="#ADD1B2" rx="11" ry="11" style="stroke:#181818;stroke-width:1.0;"/><path d="M131.7231,262.6431 Q131.1421,262.9419 130.5029,263.0913 Q129.8638,263.2407 129.1582,263.2407 Q126.6514,263.2407 125.3315,261.5889 Q124.0117,259.937 124.0117,256.8159 Q124.0117,253.6865 125.3315,252.0347 Q126.6514,250.3828 129.1582,250.3828 Q129.8638,250.3828 130.5112,250.5322 Q131.1587,250.6816 131.7231,250.9805 L131.7231,253.7031 Q131.0923,253.1221 130.4988,252.8523 Q129.9053,252.5825 129.2744,252.5825 Q127.9297,252.5825 127.2449,253.6492 Q126.5601,254.7158 126.5601,256.8159 Q126.5601,258.9077 127.2449,259.9744 Q127.9297,261.041 129.2744,261.041 Q129.9053,261.041 130.4988,260.7712 Q131.0923,260.5015 131.7231,259.9204 Z " fill="#000000"/><text fill="#000000" font-family="sans-serif" font-size="14" lengthAdjust="spacing" textLength="49" x="149.25" y="262.291">Vehicle</text><line style="stroke:#181818;stroke-width:0.5;" x1="57.5" x2="257.5" y1="273" y2="273"/><text fill="#000000" font-family="sans-serif" font-size="14" lengthAdjust="spacing" textLength="133" x="62.5" y="290.5352">-String vehiclePlate</text><text fill="#000000" font-family="sans-serif" font-size="14" lengthAdjust="spacing" textLength="94" x="62.5" y="307.0234">-String brand</text><text fill="#000000" font-family="sans-serif" font-size="14" lengthAdjust="spacing" textLength="96" x="62.5" y="323.5117">-String model</text><text fill="#000000" font-family="sans-serif" font-size="14" lengthAdjust="spacing" textLength="82" x="62.5" y="340">-String type</text><text fill="#000000" font-family="sans-serif" font-size="14" lengthAdjust="spacing" textLength="88" x="62.5" y="356.4883">-Integer tare</text><text fill="#000000" font-family="sans-serif" font-size="14" lengthAdjust="spacing" textLength="146" x="62.5" y="372.9766">-Integer grossWeight</text><text fill="#000000" font-family="sans-serif" font-size="14" lengthAdjust="spacing" textLength="140" x="62.5" y="389.4648">-Integer currentKms</text><text fill="#000000" font-family="sans-serif" font-size="14" lengthAdjust="spacing" textLength="190" x="62.5" y="405.9531">-Integer checkUpFrequency</text><text fill="#000000" font-family="sans-serif" font-size="14" lengthAdjust="spacing" textLength="127" x="62.5" y="422.4414">-Date registerDate</text><text fill="#000000" font-family="sans-serif" font-size="14" lengthAdjust="spacing" textLength="149" x="62.5" y="438.9297">-Date acquisitionDate</text><line style="stroke:#181818;stroke-width:0.5;" x1="57.5" x2="257.5" y1="445.8828" y2="445.8828"/></g><!--class CheckUp--><g id="elem_CheckUp"><rect codeLine="35" fill="#F1F1F1" height="97.4648" id="CheckUp" rx="2.5" ry="2.5" style="stroke:#181818;stroke-width:0.5;" width="145" x="85" y="531"/><ellipse cx="123.4" cy="547" fill="#ADD1B2" rx="11" ry="11" style="stroke:#181818;stroke-width:1.0;"/><path d="M126.3731,552.6431 Q125.7921,552.9419 125.1529,553.0913 Q124.5138,553.2407 123.8082,553.2407 Q121.3014,553.2407 119.9815,551.5889 Q118.6617,549.937 118.6617,546.8159 Q118.6617,543.6865 119.9815,542.0347 Q121.3014,540.3828 123.8082,540.3828 Q124.5138,540.3828 125.1612,540.5322 Q125.8087,540.6816 126.3731,540.9805 L126.3731,543.7031 Q125.7423,543.1221 125.1488,542.8523 Q124.5553,542.5825 123.9244,542.5825 Q122.5797,542.5825 121.8949,543.6492 Q121.2101,544.7158 121.2101,546.8159 Q121.2101,548.9077 121.8949,549.9744 Q122.5797,551.041 123.9244,551.041 Q124.5553,551.041 125.1488,550.7712 Q125.7423,550.5015 126.3731,549.9204 Z " fill="#000000"/><text fill="#000000" font-family="sans-serif" font-size="14" lengthAdjust="spacing" textLength="61" x="142.6" y="552.291">CheckUp</text><line style="stroke:#181818;stroke-width:0.5;" x1="86" x2="229" y1="563" y2="563"/><text fill="#000000" font-family="sans-serif" font-size="14" lengthAdjust="spacing" textLength="133" x="91" y="580.5352">-String vehiclePlate</text><text fill="#000000" font-family="sans-serif" font-size="14" lengthAdjust="spacing" textLength="73" x="91" y="597.0234">-Date date</text><text fill="#000000" font-family="sans-serif" font-size="14" lengthAdjust="spacing" textLength="89" x="91" y="613.5117">-Integer kms</text><line style="stroke:#181818;stroke-width:0.5;" x1="86" x2="229" y1="620.4648" y2="620.4648"/></g><!--link RegisterCheckUpUI to RegisterCheckUpController--><g id="link_RegisterCheckUpUI_RegisterCheckUpController"><path codeLine="42" d="M157.5,55.27 C157.5,72.73 157.5,90.81 157.5,109.91 " fill="none" id="RegisterCheckUpUI-to-RegisterCheckUpController" style="stroke:#181818;stroke-width:1.0;stroke-dasharray:7.0,7.0;"/><polygon fill="#181818" points="157.5,115.91,161.5,106.91,157.5,110.91,153.5,106.91,157.5,115.91" style="stroke:#181818;stroke-width:1.0;"/></g><!--link RegisterCheckUpController to Vehicle--><g id="link_RegisterCheckUpController_Vehicle"><path codeLine="43" d="M157.5,180.29 C157.5,197.04 157.5,212.76 157.5,234.93 " fill="none" id="RegisterCheckUpController-to-Vehicle" style="stroke:#181818;stroke-width:1.0;stroke-dasharray:7.0,7.0;"/><polygon fill="#181818" points="157.5,240.93,161.5,231.93,157.5,235.93,153.5,231.93,157.5,240.93" style="stroke:#181818;stroke-width:1.0;"/></g><!--link Vehicle to CheckUp--><g id="link_Vehicle_CheckUp"><path codeLine="44" d="M157.5,454.41 C157.5,481.06 157.5,502.36 157.5,524.54 " fill="none" id="Vehicle-to-CheckUp" style="stroke:#181818;stroke-width:1.0;"/><polygon fill="#181818" points="157.5,530.54,161.5,521.54,157.5,525.54,153.5,521.54,157.5,530.54" style="stroke:#181818;stroke-width:1.0;"/><text fill="#000000" font-family="sans-serif" font-size="13" lengthAdjust="spacing" textLength="22" x="158.5" y="497.5684">has</text><text fill="#000000" font-family="sans-serif" font-size="13" lengthAdjust="spacing" textLength="8" x="149.2438" y="474.3215">1</text><text fill="#000000" font-family="sans-serif" font-size="13" lengthAdjust="spacing" textLength="6" x="151.0781" y="520.1578">*</text></g><!--SRC=[VP5DJyCm38Rl-HNMBkDh4rmvJ4ARa2OkY6bmpbAlZPecdUE22jf_9ytQKLP63bNgrtvZFnxxNDjIaYoWSDQfZ5o1m5IX-55AgNAPuefhWq2eMDhKz1Dy9XFteMqAMsbyNp7Q8jSbGkbCtVo8yH-Y8tQYLwMCzFw1cVIcObmgPrVw4-5MYB71BGCx89rc38bksj7E2X5hu0LJxHbfdg7Ar-NSMIPd319y2GZdcdudNBnZffN1PoCPRo29txpmbs8lpdYkby5htuclX_feFu5LQ3bGw9l6PtlQXgHDJeE5Iz2S1XiqnzZICgPX39Oq3ARal7_31ib0KnKHMdugV2iD4WvZFHBkAhIgFZeiGlVGyLhqHucALBjAUztGZs8arb9fKVr3fJL9uhrh9O2FBaFYq-di_6x5-QqtTUsAHBUgqTq89fCPZAv6nqRl8PC-lFmD]--></g></svg>