<?xml version="1.0" encoding="us-ascii" standalone="no"?><svg xmlns="http://www.w3.org/2000/svg" xmlns:xlink="http://www.w3.org/1999/xlink" contentStyleType="text/css" height="1044px" preserveAspectRatio="none" style="width:421px;height:1044px;background:#FFFFFF;" version="1.1" viewBox="0 0 421 1044" width="421px" zoomAndPan="magnify"><defs/><g><!--class RegisterMaintenanceController--><g id="elem_RegisterMaintenanceController"><rect codeLine="11" fill="#F1F1F1" height="64.4883" id="RegisterMaintenanceController" rx="2.5" ry="2.5" style="stroke:#181818;stroke-width:0.5;" width="327" x="69" y="116"/><ellipse cx="121.75" cy="132" fill="#ADD1B2" rx="11" ry="11" style="stroke:#181818;stroke-width:1.0;"/><path d="M124.7231,137.6431 Q124.1421,137.9419 123.5029,138.0913 Q122.8638,138.2407 122.1582,138.2407 Q119.6514,138.2407 118.3315,136.5889 Q117.0117,134.937 117.0117,131.8159 Q117.0117,128.6865 118.3315,127.0347 Q119.6514,125.3828 122.1582,125.3828 Q122.8638,125.3828 123.5112,125.5322 Q124.1587,125.6816 124.7231,125.9805 L124.7231,128.7031 Q124.0923,128.1221 123.4988,127.8523 Q122.9053,127.5825 122.2744,127.5825 Q120.9297,127.5825 120.2449,128.6492 Q119.5601,129.7158 119.5601,131.8159 Q119.5601,133.9077 120.2449,134.9744 Q120.9297,136.041 122.2744,136.041 Q122.9053,136.041 123.4988,135.7712 Q124.0923,135.5015 124.7231,134.9204 Z " fill="#000000"/><text fill="#000000" font-family="sans-serif" font-size="14" lengthAdjust="spacing" textLength="213" x="142.25" y="137.291">RegisterMaintenanceController</text><line style="stroke:#181818;stroke-width:0.5;" x1="70" x2="395" y1="148" y2="148"/><line style="stroke:#181818;stroke-width:0.5;" x1="70" x2="395" y1="156" y2="156"/><text fill="#000000" font-family="sans-serif" font-size="14" lengthAdjust="spacing" textLength="315" x="75" y="173.5352">+registerMaintenance(vehiclePlate, date, kms)</text></g><!--class RegisterMaintenanceUI--><g id="elem_RegisterMaintenanceUI"><rect codeLine="16" fill="#F1F1F1" height="48" id="RegisterMaintenanceUI" rx="2.5" ry="2.5" style="stroke:#181818;stroke-width:0.5;" width="189" x="138" y="7"/><ellipse cx="153" cy="23" fill="#ADD1B2" rx="11" ry="11" style="stroke:#181818;stroke-width:1.0;"/><path d="M155.9731,28.6431 Q155.3921,28.9419 154.7529,29.0913 Q154.1138,29.2407 153.4082,29.2407 Q150.9014,29.2407 149.5815,27.5889 Q148.2617,25.937 148.2617,22.8159 Q148.2617,19.6865 149.5815,18.0347 Q150.9014,16.3828 153.4082,16.3828 Q154.1138,16.3828 154.7612,16.5322 Q155.4087,16.6816 155.9731,16.9805 L155.9731,19.7031 Q155.3423,19.1221 154.7488,18.8523 Q154.1553,18.5825 153.5244,18.5825 Q152.1797,18.5825 151.4949,19.6492 Q150.8101,20.7158 150.8101,22.8159 Q150.8101,24.9077 151.4949,25.9744 Q152.1797,27.041 153.5244,27.041 Q154.1553,27.041 154.7488,26.7712 Q155.3423,26.5015 155.9731,25.9204 Z " fill="#000000"/><text fill="#000000" font-family="sans-serif" font-size="14" lengthAdjust="spacing" textLength="157" x="167" y="28.291">RegisterMaintenanceUI</text><line style="stroke:#181818;stroke-width:0.5;" x1="139" x2="326" y1="39" y2="39"/><line style="stroke:#181818;stroke-width:0.5;" x1="139" x2="326" y1="47" y2="47"/></g><!--class Vehicle--><g id="elem_Vehicle"><rect codeLine="19" fill="#F1F1F1" height="212.8828" id="Vehicle" rx="2.5" ry="2.5" style="stroke:#181818;stroke-width:0.5;" width="202" x="131.5" y="650"/><ellipse cx="203.75" cy="666" fill="#ADD1B2" rx="11" ry="11" style="stroke:#181818;stroke-width:1.0;"/><path d="M206.7231,671.6431 Q206.1421,671.9419 205.5029,672.0913 Q204.8638,672.2407 204.1582,672.2407 Q201.6514,672.2407 200.3315,670.5889 Q199.0117,668.937 199.0117,665.8159 Q199.0117,662.6865 200.3315,661.0347 Q201.6514,659.3828 204.1582,659.3828 Q204.8638,659.3828 205.5112,659.5322 Q206.1587,659.6816 206.7231,659.9805 L206.7231,662.7031 Q206.0923,662.1221 205.4988,661.8523 Q204.9053,661.5825 204.2744,661.5825 Q202.9297,661.5825 202.2449,662.6492 Q201.5601,663.7158 201.5601,665.8159 Q201.5601,667.9077 202.2449,668.9744 Q202.9297,670.041 204.2744,670.041 Q204.9053,670.041 205.4988,669.7712 Q206.0923,669.5015 206.7231,668.9204 Z " fill="#000000"/><text fill="#000000" font-family="sans-serif" font-size="14" lengthAdjust="spacing" textLength="49" x="224.25" y="671.291">Vehicle</text><line style="stroke:#181818;stroke-width:0.5;" x1="132.5" x2="332.5" y1="682" y2="682"/><text fill="#000000" font-family="sans-serif" font-size="14" lengthAdjust="spacing" textLength="133" x="137.5" y="699.5352">-String vehiclePlate</text><text fill="#000000" font-family="sans-serif" font-size="14" lengthAdjust="spacing" textLength="94" x="137.5" y="716.0234">-String brand</text><text fill="#000000" font-family="sans-serif" font-size="14" lengthAdjust="spacing" textLength="96" x="137.5" y="732.5117">-String model</text><text fill="#000000" font-family="sans-serif" font-size="14" lengthAdjust="spacing" textLength="82" x="137.5" y="749">-String type</text><text fill="#000000" font-family="sans-serif" font-size="14" lengthAdjust="spacing" textLength="88" x="137.5" y="765.4883">-Integer tare</text><text fill="#000000" font-family="sans-serif" font-size="14" lengthAdjust="spacing" textLength="146" x="137.5" y="781.9766">-Integer grossWeight</text><text fill="#000000" font-family="sans-serif" font-size="14" lengthAdjust="spacing" textLength="140" x="137.5" y="798.4648">-Integer currentKms</text><text fill="#000000" font-family="sans-serif" font-size="14" lengthAdjust="spacing" textLength="190" x="137.5" y="814.9531">-Integer checkUpFrequency</text><text fill="#000000" font-family="sans-serif" font-size="14" lengthAdjust="spacing" textLength="127" x="137.5" y="831.4414">-Date registerDate</text><text fill="#000000" font-family="sans-serif" font-size="14" lengthAdjust="spacing" textLength="149" x="137.5" y="847.9297">-Date acquisitionDate</text><line style="stroke:#181818;stroke-width:0.5;" x1="132.5" x2="332.5" y1="854.8828" y2="854.8828"/></g><!--class Repositories--><g id="elem_Repositories"><rect codeLine="32" fill="#F1F1F1" height="97.4648" id="Repositories" rx="2.5" ry="2.5" style="stroke:#181818;stroke-width:0.5;" width="209" x="7" y="335"/><ellipse cx="64.75" cy="351" fill="#ADD1B2" rx="11" ry="11" style="stroke:#181818;stroke-width:1.0;"/><path d="M67.7231,356.6431 Q67.1421,356.9419 66.5029,357.0913 Q65.8638,357.2407 65.1582,357.2407 Q62.6514,357.2407 61.3315,355.5889 Q60.0117,353.937 60.0117,350.8159 Q60.0117,347.6865 61.3315,346.0347 Q62.6514,344.3828 65.1582,344.3828 Q65.8638,344.3828 66.5112,344.5322 Q67.1587,344.6816 67.7231,344.9805 L67.7231,347.7031 Q67.0923,347.1221 66.4988,346.8523 Q65.9053,346.5825 65.2744,346.5825 Q63.9297,346.5825 63.2449,347.6492 Q62.5601,348.7158 62.5601,350.8159 Q62.5601,352.9077 63.2449,353.9744 Q63.9297,355.041 65.2744,355.041 Q65.9053,355.041 66.4988,354.7712 Q67.0923,354.5015 67.7231,353.9204 Z " fill="#000000"/><text fill="#000000" font-family="sans-serif" font-size="14" lengthAdjust="spacing" textLength="85" x="85.25" y="356.291">Repositories</text><line style="stroke:#181818;stroke-width:0.5;" x1="8" x2="215" y1="367" y2="367"/><line style="stroke:#181818;stroke-width:0.5;" x1="8" x2="215" y1="375" y2="375"/><text fill="#000000" font-family="sans-serif" font-size="14" lengthAdjust="spacing" textLength="103" x="13" y="392.5352">-Repositories()</text><text fill="#000000" font-family="sans-serif" font-size="14" lengthAdjust="spacing" textLength="197" x="13" y="409.0234">+getInstance() : Repositories</text><text fill="#000000" font-family="sans-serif" font-size="14" lengthAdjust="spacing" textLength="165" x="13" y="425.5117">+getVehicleRepository()</text></g><!--class Maintenance--><g id="elem_Maintenance"><rect codeLine="39" fill="#F1F1F1" height="97.4648" id="Maintenance" rx="2.5" ry="2.5" style="stroke:#181818;stroke-width:0.5;" width="145" x="160" y="940"/><ellipse cx="186.7" cy="956" fill="#ADD1B2" rx="11" ry="11" style="stroke:#181818;stroke-width:1.0;"/><path d="M189.6731,961.6431 Q189.0921,961.9419 188.4529,962.0913 Q187.8138,962.2407 187.1082,962.2407 Q184.6014,962.2407 183.2815,960.5889 Q181.9617,958.937 181.9617,955.8159 Q181.9617,952.6865 183.2815,951.0347 Q184.6014,949.3828 187.1082,949.3828 Q187.8138,949.3828 188.4612,949.5322 Q189.1087,949.6816 189.6731,949.9805 L189.6731,952.7031 Q189.0423,952.1221 188.4488,951.8523 Q187.8553,951.5825 187.2244,951.5825 Q185.8797,951.5825 185.1949,952.6492 Q184.5101,953.7158 184.5101,955.8159 Q184.5101,957.9077 185.1949,958.9744 Q185.8797,960.041 187.2244,960.041 Q187.8553,960.041 188.4488,959.7712 Q189.0423,959.5015 189.6731,958.9204 Z " fill="#000000"/><text fill="#000000" font-family="sans-serif" font-size="14" lengthAdjust="spacing" textLength="87" x="203.3" y="961.291">Maintenance</text><line style="stroke:#181818;stroke-width:0.5;" x1="161" x2="304" y1="972" y2="972"/><text fill="#000000" font-family="sans-serif" font-size="14" lengthAdjust="spacing" textLength="133" x="166" y="989.5352">-String vehiclePlate</text><text fill="#000000" font-family="sans-serif" font-size="14" lengthAdjust="spacing" textLength="73" x="166" y="1006.0234">-Date date</text><text fill="#000000" font-family="sans-serif" font-size="14" lengthAdjust="spacing" textLength="89" x="166" y="1022.5117">-Integer kms</text><line style="stroke:#181818;stroke-width:0.5;" x1="161" x2="304" y1="1029.4648" y2="1029.4648"/></g><!--class VehicleRepository--><g id="elem_VehicleRepository"><rect codeLine="44" fill="#F1F1F1" height="64.4883" id="VehicleRepository" rx="2.5" ry="2.5" style="stroke:#181818;stroke-width:0.5;" width="162" x="151.5" y="509"/><ellipse cx="170.1" cy="525" fill="#ADD1B2" rx="11" ry="11" style="stroke:#181818;stroke-width:1.0;"/><path d="M173.0731,530.6431 Q172.4921,530.9419 171.8529,531.0913 Q171.2138,531.2407 170.5082,531.2407 Q168.0014,531.2407 166.6815,529.5889 Q165.3617,527.937 165.3617,524.8159 Q165.3617,521.6865 166.6815,520.0347 Q168.0014,518.3828 170.5082,518.3828 Q171.2138,518.3828 171.8612,518.5322 Q172.5087,518.6816 173.0731,518.9805 L173.0731,521.7031 Q172.4423,521.1221 171.8488,520.8523 Q171.2553,520.5825 170.6244,520.5825 Q169.2797,520.5825 168.5949,521.6492 Q167.9101,522.7158 167.9101,524.8159 Q167.9101,526.9077 168.5949,527.9744 Q169.2797,529.041 170.6244,529.041 Q171.2553,529.041 171.8488,528.7712 Q172.4423,528.5015 173.0731,527.9204 Z " fill="#000000"/><text fill="#000000" font-family="sans-serif" font-size="14" lengthAdjust="spacing" textLength="122" x="184.9" y="530.291">VehicleRepository</text><line style="stroke:#181818;stroke-width:0.5;" x1="152.5" x2="312.5" y1="541" y2="541"/><line style="stroke:#181818;stroke-width:0.5;" x1="152.5" x2="312.5" y1="549" y2="549"/><text fill="#000000" font-family="sans-serif" font-size="14" lengthAdjust="spacing" textLength="150" x="157.5" y="566.5352">+createMaintenance()</text></g><!--link Repositories to Repositories--><g id="link_Repositories_Repositories"><path codeLine="48" d="M216.44,367.94 C236.67,369.77 251,374.96 251,383.5 C251,392.04 242.6456,396.6894 222.4156,398.5194 " fill="none" id="Repositories-to-Repositories" style="stroke:#181818;stroke-width:1.0;"/><polygon fill="#181818" points="216.44,399.06,225.7638,402.2329,221.4197,398.6095,225.043,394.2654,216.44,399.06" style="stroke:#181818;stroke-width:1.0;"/><text fill="#000000" font-family="sans-serif" font-size="13" lengthAdjust="spacing" textLength="53" x="257" y="388.5684">instance</text></g><!--link RegisterMaintenanceUI to RegisterMaintenanceController--><g id="link_RegisterMaintenanceUI_RegisterMaintenanceController"><path codeLine="49" d="M232.5,55.27 C232.5,72.73 232.5,90.81 232.5,109.91 " fill="none" id="RegisterMaintenanceUI-to-RegisterMaintenanceController" style="stroke:#181818;stroke-width:1.0;stroke-dasharray:7.0,7.0;"/><polygon fill="#181818" points="232.5,115.91,236.5,106.91,232.5,110.91,228.5,106.91,232.5,115.91" style="stroke:#181818;stroke-width:1.0;"/></g><!--link Vehicle to Maintenance--><g id="link_Vehicle_Maintenance"><path codeLine="50" d="M232.5,863.41 C232.5,890.06 232.5,911.36 232.5,933.54 " fill="none" id="Vehicle-to-Maintenance" style="stroke:#181818;stroke-width:1.0;"/><polygon fill="#181818" points="232.5,939.54,236.5,930.54,232.5,934.54,228.5,930.54,232.5,939.54" style="stroke:#181818;stroke-width:1.0;"/><text fill="#000000" font-family="sans-serif" font-size="13" lengthAdjust="spacing" textLength="22" x="233.5" y="906.5684">has</text><text fill="#000000" font-family="sans-serif" font-size="13" lengthAdjust="spacing" textLength="8" x="224.2438" y="883.3215">1</text><text fill="#000000" font-family="sans-serif" font-size="13" lengthAdjust="spacing" textLength="6" x="226.0781" y="929.1578">*</text></g><!--link RegisterMaintenanceController to Repositories--><g id="link_RegisterMaintenanceController_Repositories"><path codeLine="51" d="M216.18,180.49 C195.67,220.08 163.0107,283.0928 139.1207,329.1928 " fill="none" id="RegisterMaintenanceController-to-Repositories" style="stroke:#181818;stroke-width:1.0;stroke-dasharray:7.0,7.0;"/><polygon fill="#181818" points="136.36,334.52,144.0524,328.3697,138.6605,330.0807,136.9495,324.6888,136.36,334.52" style="stroke:#181818;stroke-width:1.0;"/><text fill="#000000" font-family="sans-serif" font-size="13" lengthAdjust="spacing" textLength="75" x="186.5" y="254.5684">repositories</text></g><!--link Repositories to VehicleRepository--><g id="link_Repositories_VehicleRepository"><path codeLine="52" d="M148.79,432.42 C168.1,457.23 187.4243,482.0855 204.4343,503.9355 " fill="none" id="Repositories-to-VehicleRepository" style="stroke:#181818;stroke-width:1.0;"/><polygon fill="#181818" points="208.12,508.67,205.7477,499.1111,205.0485,504.7246,199.4351,504.0254,208.12,508.67" style="stroke:#181818;stroke-width:1.0;"/><text fill="#000000" font-family="sans-serif" font-size="13" lengthAdjust="spacing" textLength="111" x="184.5" y="475.5684">vehicleRepository</text><text fill="#000000" font-family="sans-serif" font-size="13" lengthAdjust="spacing" textLength="8" x="194.5327" y="498.3793">1</text></g><!--link RegisterMaintenanceController to VehicleRepository--><g id="link_RegisterMaintenanceController_VehicleRepository"><path codeLine="53" d="M246.56,180.13 C270.47,233.08 316.5,335 316.5,335 C316.5,335 316.5,432 316.5,432 C316.5,432 304.5,479 304.5,479 C304.5,479 291.6383,489.9019 273.9183,504.9119 " fill="none" id="RegisterMaintenanceController-to-VehicleRepository" style="stroke:#181818;stroke-width:1.0;stroke-dasharray:7.0,7.0;"/><polygon fill="#181818" points="269.34,508.79,278.7928,506.025,273.1552,505.5583,273.622,499.9207,269.34,508.79" style="stroke:#181818;stroke-width:1.0;"/><text fill="#000000" font-family="sans-serif" font-size="13" lengthAdjust="spacing" textLength="111" x="302.5" y="301.5684">vehicleRepository</text></g><!--link VehicleRepository to Vehicle--><g id="link_VehicleRepository_Vehicle"><path codeLine="54" d="M232.5,573.04 C232.5,593.52 232.5,615.64 232.5,643.67 " fill="none" id="VehicleRepository-to-Vehicle" style="stroke:#181818;stroke-width:1.0;"/><polygon fill="#181818" points="232.5,649.67,236.5,640.67,232.5,644.67,228.5,640.67,232.5,649.67" style="stroke:#181818;stroke-width:1.0;"/><text fill="#000000" font-family="sans-serif" font-size="13" lengthAdjust="spacing" textLength="51" x="233.5" y="616.5684">vehicles</text><text fill="#000000" font-family="sans-serif" font-size="13" lengthAdjust="spacing" textLength="8" x="223.625" y="594.2383">1</text><text fill="#000000" font-family="sans-serif" font-size="13" lengthAdjust="spacing" textLength="6" x="226.2891" y="639.2146">*</text></g><!--SRC=[ZLDDRzim3BthLn2v95cROBtw461OKI0e2WmDsfrLcRM5o99BqIkyeVzzikCFkUwo-c30V2GV-Hwzz4TjIqcoWC9Pft9o1G9JXM94IgcECiC3rmQ1KB6qcOaJV2vJzwfj1i_I-1WnsYBN9KBfJDryYEK7e2Ds8gfIHdh_ZPdqKyMuLyuUz6-4hq8i3Jupi0FIMSwGwcOSxQmGRGtSOwOz8zr9RHcjj0g_EylaZ462FmB2Sq7pfDKlpBKo-CD8naj8s_Uny6ln9ixqVjY7dczzmkEfHqkpWKCOFoWIDsxf8-o9f4tV1mkNedaVR6GQOlj0duLrMD8yc97p_YSsyimmLH6XvTl2Tz0i8KTrV2Xl25ygjAeUEbo7wQ7NxJfUfKMaUgcqruqJBHWqwJKhNOWxqkWx-JUJu6fzyWGovBtrt9gnXcIIDAPq4WzWlOeTYfmPoFvbGpTvEdxt8WJRX_bdVFqDWI8CfV49jPDC5jxifW8aeBiLnSV7jDtkpf-mw6ziSRM0JUY_-BAOh9r0Bhqu_njiJpJZO4cmDb9xkaD34iXcIYIzfcFelxoxpxMPgnwlsqimLFfm0E8l]--></g></svg>