<?xml version="1.0" encoding="us-ascii" standalone="no"?><svg xmlns="http://www.w3.org/2000/svg" xmlns:xlink="http://www.w3.org/1999/xlink" contentStyleType="text/css" height="558px" preserveAspectRatio="none" style="width:831px;height:558px;background:#FFFFFF;" version="1.1" viewBox="0 0 831 558" width="831px" zoomAndPan="magnify"><defs/><g><rect fill="#FFFFFF" height="377.416" style="stroke:#181818;stroke-width:1.0;" width="10" x="17.5" y="91.4883"/><rect fill="#FFFFFF" height="29.3105" style="stroke:#181818;stroke-width:1.0;" width="10" x="305.5" y="112.7988"/><rect fill="#FFFFFF" height="288.4844" style="stroke:#181818;stroke-width:1.0;" width="10" x="305.5" y="171.4199"/><rect fill="#FFFFFF" height="229.8633" style="stroke:#181818;stroke-width:1.0;" width="10" x="607.5" y="200.7305"/><rect fill="#FFFFFF" height="124.9316" style="stroke:#181818;stroke-width:1.0;" width="10" x="612.5" y="262.3516"/><rect fill="#FFFFFF" height="40.3105" style="stroke:#181818;stroke-width:1.0;" width="10" x="617.5" y="304.6621"/><rect fill="none" height="186.5527" style="stroke:#000000;stroke-width:1.5;" width="325.5" x="500" y="215.7305"/><line style="stroke:#181818;stroke-width:0.5;stroke-dasharray:5.0,5.0;" x1="22" x2="22" y1="81.4883" y2="477.9043"/><line style="stroke:#181818;stroke-width:0.5;stroke-dasharray:5.0,5.0;" x1="310" x2="310" y1="81.4883" y2="477.9043"/><line style="stroke:#181818;stroke-width:0.5;stroke-dasharray:5.0,5.0;" x1="612" x2="612" y1="81.4883" y2="477.9043"/><text fill="#000000" font-family="sans-serif" font-size="14" lengthAdjust="spacing" textLength="29" x="5" y="78.5352">VFM</text><ellipse cx="22.5" cy="13.5" fill="#E3E3E3" rx="8" ry="8" style="stroke:#181818;stroke-width:0.5;"/><path d="M22.5,21.5 L22.5,48.5 M9.5,29.5 L35.5,29.5 M22.5,48.5 L9.5,63.5 M22.5,48.5 L35.5,63.5 " fill="none" style="stroke:#181818;stroke-width:0.5;"/><text fill="#000000" font-family="sans-serif" font-size="14" lengthAdjust="spacing" textLength="29" x="5" y="490.4395">VFM</text><ellipse cx="22.5" cy="501.8926" fill="#E3E3E3" rx="8" ry="8" style="stroke:#181818;stroke-width:0.5;"/><path d="M22.5,509.8926 L22.5,536.8926 M9.5,517.8926 L35.5,517.8926 M22.5,536.8926 L9.5,551.8926 M22.5,536.8926 L35.5,551.8926 " fill="none" style="stroke:#181818;stroke-width:0.5;"/><rect fill="#E3E3E3" height="30.4883" rx="2.5" ry="2.5" style="stroke:#181818;stroke-width:0.5;" width="149" x="236" y="50"/><text fill="#000000" font-family="sans-serif" font-size="14" lengthAdjust="spacing" textLength="135" x="243" y="70.5352">:RegisterCheckUpUI</text><rect fill="#E3E3E3" height="30.4883" rx="2.5" ry="2.5" style="stroke:#181818;stroke-width:0.5;" width="149" x="236" y="476.9043"/><text fill="#000000" font-family="sans-serif" font-size="14" lengthAdjust="spacing" textLength="135" x="243" y="497.4395">:RegisterCheckUpUI</text><rect fill="#E3E3E3" height="30.4883" rx="2.5" ry="2.5" style="stroke:#181818;stroke-width:0.5;" width="205" x="510" y="50"/><text fill="#000000" font-family="sans-serif" font-size="14" lengthAdjust="spacing" textLength="191" x="517" y="70.5352">:RegisterCheckUpController</text><rect fill="#E3E3E3" height="30.4883" rx="2.5" ry="2.5" style="stroke:#181818;stroke-width:0.5;" width="205" x="510" y="476.9043"/><text fill="#000000" font-family="sans-serif" font-size="14" lengthAdjust="spacing" textLength="191" x="517" y="497.4395">:RegisterCheckUpController</text><rect fill="#FFFFFF" height="377.416" style="stroke:#181818;stroke-width:1.0;" width="10" x="17.5" y="91.4883"/><rect fill="#FFFFFF" height="29.3105" style="stroke:#181818;stroke-width:1.0;" width="10" x="305.5" y="112.7988"/><rect fill="#FFFFFF" height="288.4844" style="stroke:#181818;stroke-width:1.0;" width="10" x="305.5" y="171.4199"/><rect fill="#FFFFFF" height="229.8633" style="stroke:#181818;stroke-width:1.0;" width="10" x="607.5" y="200.7305"/><rect fill="#FFFFFF" height="124.9316" style="stroke:#181818;stroke-width:1.0;" width="10" x="612.5" y="262.3516"/><rect fill="#FFFFFF" height="40.3105" style="stroke:#181818;stroke-width:1.0;" width="10" x="617.5" y="304.6621"/><polygon fill="#181818" points="293.5,108.7988,303.5,112.7988,293.5,116.7988,297.5,112.7988" style="stroke:#181818;stroke-width:1.0;"/><line style="stroke:#181818;stroke-width:1.0;" x1="27.5" x2="299.5" y1="112.7988" y2="112.7988"/><text fill="#000000" font-family="sans-serif" font-size="13" font-weight="bold" lengthAdjust="spacing" textLength="9" x="34.5" y="108.0566">1</text><text fill="#000000" font-family="sans-serif" font-size="13" lengthAdjust="spacing" textLength="222" x="47.5" y="108.0566">asks to register a vehicle check-up</text><polygon fill="#181818" points="38.5,138.1094,28.5,142.1094,38.5,146.1094,34.5,142.1094" style="stroke:#181818;stroke-width:1.0;"/><line style="stroke:#181818;stroke-width:1.0;stroke-dasharray:2.0,2.0;" x1="32.5" x2="309.5" y1="142.1094" y2="142.1094"/><text fill="#000000" font-family="sans-serif" font-size="13" font-weight="bold" lengthAdjust="spacing" textLength="9" x="44.5" y="137.3672">2</text><text fill="#000000" font-family="sans-serif" font-size="13" lengthAdjust="spacing" textLength="241" x="57.5" y="137.3672">requests data (vehiclePlate, date, kms)</text><polygon fill="#181818" points="293.5,167.4199,303.5,171.4199,293.5,175.4199,297.5,171.4199" style="stroke:#181818;stroke-width:1.0;"/><line style="stroke:#181818;stroke-width:1.0;" x1="27.5" x2="299.5" y1="171.4199" y2="171.4199"/><text fill="#000000" font-family="sans-serif" font-size="13" font-weight="bold" lengthAdjust="spacing" textLength="9" x="34.5" y="166.6777">3</text><text fill="#000000" font-family="sans-serif" font-size="13" lengthAdjust="spacing" textLength="162" x="47.5" y="166.6777">confirm and submits data</text><polygon fill="#181818" points="595.5,196.7305,605.5,200.7305,595.5,204.7305,599.5,200.7305" style="stroke:#181818;stroke-width:1.0;"/><line style="stroke:#181818;stroke-width:1.0;" x1="315.5" x2="601.5" y1="200.7305" y2="200.7305"/><text fill="#000000" font-family="sans-serif" font-size="13" font-weight="bold" lengthAdjust="spacing" textLength="9" x="322.5" y="195.9883">4</text><text fill="#000000" font-family="sans-serif" font-size="13" lengthAdjust="spacing" textLength="260" x="335.5" y="195.9883">registerCheckUp (vehiclePlate, date, kms)</text><path d="M500,215.7305 L670,215.7305 L670,223.041 L660,233.041 L500,233.041 L500,215.7305 " fill="#EEEEEE" style="stroke:#000000;stroke-width:1.5;"/><rect fill="none" height="186.5527" style="stroke:#000000;stroke-width:1.5;" width="325.5" x="500" y="215.7305"/><text fill="#000000" font-family="sans-serif" font-size="13" font-weight="bold" lengthAdjust="spacing" textLength="125" x="515" y="229.2988">Schedule CheckUp</text><line style="stroke:#181818;stroke-width:1.0;" x1="617.5" x2="664.5" y1="249.3516" y2="249.3516"/><line style="stroke:#181818;stroke-width:1.0;" x1="664.5" x2="664.5" y1="249.3516" y2="262.3516"/><line style="stroke:#181818;stroke-width:1.0;" x1="623.5" x2="664.5" y1="262.3516" y2="262.3516"/><polygon fill="#181818" points="633.5,258.3516,623.5,262.3516,633.5,266.3516,629.5,262.3516" style="stroke:#181818;stroke-width:1.0;"/><text fill="#000000" font-family="sans-serif" font-size="13" font-weight="bold" lengthAdjust="spacing" textLength="9" x="629.5" y="244.6094">5</text><text fill="#000000" font-family="sans-serif" font-size="13" lengthAdjust="spacing" textLength="140" x="642.5" y="244.6094">addCheckUp(checkup)</text><line style="stroke:#181818;stroke-width:1.0;" x1="622.5" x2="669.5" y1="291.6621" y2="291.6621"/><line style="stroke:#181818;stroke-width:1.0;" x1="669.5" x2="669.5" y1="291.6621" y2="304.6621"/><line style="stroke:#181818;stroke-width:1.0;" x1="628.5" x2="669.5" y1="304.6621" y2="304.6621"/><polygon fill="#181818" points="638.5,300.6621,628.5,304.6621,638.5,308.6621,634.5,304.6621" style="stroke:#181818;stroke-width:1.0;"/><text fill="#000000" font-family="sans-serif" font-size="13" font-weight="bold" lengthAdjust="spacing" textLength="9" x="634.5" y="286.9199">6</text><text fill="#000000" font-family="sans-serif" font-size="13" lengthAdjust="spacing" textLength="166" x="647.5" y="286.9199">validateCheckUp(checkup)</text><line style="stroke:#181818;stroke-width:1.0;stroke-dasharray:2.0,2.0;" x1="627.5" x2="669.5" y1="343.9727" y2="343.9727"/><line style="stroke:#181818;stroke-width:1.0;stroke-dasharray:2.0,2.0;" x1="669.5" x2="669.5" y1="343.9727" y2="356.9727"/><line style="stroke:#181818;stroke-width:1.0;stroke-dasharray:2.0,2.0;" x1="622.5" x2="669.5" y1="356.9727" y2="356.9727"/><polygon fill="#181818" points="632.5,352.9727,622.5,356.9727,632.5,360.9727,628.5,356.9727" style="stroke:#181818;stroke-width:1.0;"/><text fill="#000000" font-family="sans-serif" font-size="13" font-weight="bold" lengthAdjust="spacing" textLength="9" x="634.5" y="339.2305">7</text><text fill="#000000" font-family="sans-serif" font-size="13" lengthAdjust="spacing" textLength="4" x="647.5" y="339.2305">&#160;</text><line style="stroke:#181818;stroke-width:1.0;stroke-dasharray:2.0,2.0;" x1="622.5" x2="664.5" y1="386.2832" y2="386.2832"/><line style="stroke:#181818;stroke-width:1.0;stroke-dasharray:2.0,2.0;" x1="664.5" x2="664.5" y1="386.2832" y2="399.2832"/><line style="stroke:#181818;stroke-width:1.0;stroke-dasharray:2.0,2.0;" x1="617.5" x2="664.5" y1="399.2832" y2="399.2832"/><polygon fill="#181818" points="627.5,395.2832,617.5,399.2832,627.5,403.2832,623.5,399.2832" style="stroke:#181818;stroke-width:1.0;"/><text fill="#000000" font-family="sans-serif" font-size="13" font-weight="bold" lengthAdjust="spacing" textLength="9" x="629.5" y="381.541">8</text><text fill="#000000" font-family="sans-serif" font-size="13" lengthAdjust="spacing" textLength="4" x="642.5" y="381.541">&#160;</text><polygon fill="#181818" points="326.5,426.5938,316.5,430.5938,326.5,434.5938,322.5,430.5938" style="stroke:#181818;stroke-width:1.0;"/><line style="stroke:#181818;stroke-width:1.0;stroke-dasharray:2.0,2.0;" x1="320.5" x2="611.5" y1="430.5938" y2="430.5938"/><text fill="#000000" font-family="sans-serif" font-size="13" font-weight="bold" lengthAdjust="spacing" textLength="9" x="332.5" y="425.8516">9</text><text fill="#000000" font-family="sans-serif" font-size="13" lengthAdjust="spacing" textLength="56" x="345.5" y="425.8516">CheckUp</text><polygon fill="#181818" points="38.5,455.9043,28.5,459.9043,38.5,463.9043,34.5,459.9043" style="stroke:#181818;stroke-width:1.0;"/><line style="stroke:#181818;stroke-width:1.0;stroke-dasharray:2.0,2.0;" x1="32.5" x2="309.5" y1="459.9043" y2="459.9043"/><text fill="#000000" font-family="sans-serif" font-size="13" font-weight="bold" lengthAdjust="spacing" textLength="18" x="44.5" y="455.1621">10</text><text fill="#000000" font-family="sans-serif" font-size="13" lengthAdjust="spacing" textLength="170" x="66.5" y="455.1621">displays operation success</text><!--SRC=[rPJFJiCm3CRlUGfh5vZ4Nc07BfEG9e64DiRTIxmsQfk4_1dmzhYXT1rZQ8Tom8TMJUsVFtzg7Ifj77fieB76ojBRXY3wH2BqRnpA2WjQn_UQm9ECQ8fwc11ALFPLcm9sM0SI0bEq9ZLRya9SbLeHxAoDM_icK4RhOV9yzp013C1tmOoefNPe8apcAofqYEGN9SbgupRBdBTP_fwsi2PwMzVaS_hYQNKlsbvwZv5o5m5Ty0FCRfa8Sqwj0aJBGttI065FfPOyfsp1i-GE5DRGGxXwnf2MDUVgbqGX1b0O4QuxmcFDHJVj6L-h9apxOb1q0XsgajRij6y0ZOAGjetkq3tWHqb3QRVPWIpjoAPBn0tvsSVsfF0sELYpAIgnEHtkjFcvo78wMMoxKXtXEjkStFHor0Lngd_4E1vbZxLkNJoPP-IkVphIOQnkhh4R33xupr_pFuiV6Kz67VlH3vENmTUlzgkTuli2w7UJqi7L-1x0El8OjJMyKgIa4CIPRIJ41m00]--></g></svg>