<?xml version="1.0" encoding="us-ascii" standalone="no"?><svg xmlns="http://www.w3.org/2000/svg" xmlns:xlink="http://www.w3.org/1999/xlink" contentStyleType="text/css" height="831px" preserveAspectRatio="none" style="width:1063px;height:831px;background:#FFFFFF;" version="1.1" viewBox="0 0 1063 831" width="1063px" zoomAndPan="magnify"><defs/><g><!--class GreenSpace--><g id="elem_GreenSpace"><rect codeLine="11" fill="#F1F1F1" height="141.1055" id="GreenSpace" rx="2.5" ry="2.5" style="stroke:#181818;stroke-width:0.5;" width="112" x="575" y="683"/><ellipse cx="590" cy="699" fill="#ADD1B2" rx="11" ry="11" style="stroke:#181818;stroke-width:1.0;"/><path d="M592.7656,694.875 Q592.9219,694.6563 593.1094,694.5469 Q593.2969,694.4375 593.5156,694.4375 Q593.8906,694.4375 594.125,694.7031 Q594.3594,694.9531 594.3594,695.5625 L594.3594,697.0156 Q594.3594,697.625 594.125,697.8906 Q593.8906,698.1563 593.5156,698.1563 Q593.1719,698.1563 592.9688,697.9531 Q592.7656,697.7656 592.6563,697.25 Q592.6094,696.8906 592.4219,696.7031 Q592.0938,696.3281 591.4844,696.1094 Q590.875,695.8906 590.25,695.8906 Q589.4844,695.8906 588.8438,696.2188 Q588.2188,696.5469 587.7188,697.2969 Q587.2344,698.0469 587.2344,699.0781 L587.2344,700.1719 Q587.2344,701.4063 588.125,702.2344 Q589.0156,703.0469 590.6094,703.0469 Q591.5469,703.0469 592.2031,702.7969 Q592.5938,702.6406 593.0156,702.2031 Q593.2813,701.9375 593.4219,701.8594 Q593.5781,701.7813 593.7813,701.7813 Q594.1094,701.7813 594.3594,702.0469 Q594.625,702.2969 594.625,702.6406 Q594.625,702.9844 594.2813,703.3906 Q593.7813,703.9688 592.9844,704.2969 Q591.9063,704.75 590.6094,704.75 Q589.0938,704.75 587.8906,704.125 Q586.9063,703.625 586.2188,702.5625 Q585.5313,701.4844 585.5313,700.2031 L585.5313,699.0469 Q585.5313,697.7188 586.1406,696.5781 Q586.7656,695.4219 587.8594,694.8125 Q588.9531,694.1875 590.1875,694.1875 Q590.9219,694.1875 591.5625,694.3594 Q592.2188,694.5156 592.7656,694.875 Z " fill="#000000"/><text fill="#000000" font-family="sans-serif" font-size="14" lengthAdjust="spacing" textLength="80" x="604" y="704.7969">GreenSpace</text><line style="stroke:#181818;stroke-width:0.5;" x1="576" x2="686" y1="715" y2="715"/><text fill="#000000" font-family="sans-serif" font-size="14" lengthAdjust="spacing" textLength="81" x="581" y="734.1074">-String name</text><text fill="#000000" font-family="sans-serif" font-size="14" lengthAdjust="spacing" textLength="89" x="581" y="752.7285">-String adress</text><text fill="#000000" font-family="sans-serif" font-size="14" lengthAdjust="spacing" textLength="73" x="581" y="771.3496">-String type</text><text fill="#000000" font-family="sans-serif" font-size="14" lengthAdjust="spacing" textLength="53" x="581" y="789.9707">-Int area</text><text fill="#000000" font-family="sans-serif" font-size="14" lengthAdjust="spacing" textLength="76" x="581" y="808.5918">-Email email</text><line style="stroke:#181818;stroke-width:0.5;" x1="576" x2="686" y1="816.1055" y2="816.1055"/></g><!--class ApplicationSession--><g id="elem_ApplicationSession"><rect codeLine="18" fill="#F1F1F1" height="85.2422" id="ApplicationSession" rx="2.5" ry="2.5" style="stroke:#181818;stroke-width:0.5;" width="151" x="390.5" y="299"/><ellipse cx="405.5" cy="315" fill="#ADD1B2" rx="11" ry="11" style="stroke:#181818;stroke-width:1.0;"/><path d="M408.2656,310.875 Q408.4219,310.6563 408.6094,310.5469 Q408.7969,310.4375 409.0156,310.4375 Q409.3906,310.4375 409.625,310.7031 Q409.8594,310.9531 409.8594,311.5625 L409.8594,313.0156 Q409.8594,313.625 409.625,313.8906 Q409.3906,314.1563 409.0156,314.1563 Q408.6719,314.1563 408.4688,313.9531 Q408.2656,313.7656 408.1563,313.25 Q408.1094,312.8906 407.9219,312.7031 Q407.5938,312.3281 406.9844,312.1094 Q406.375,311.8906 405.75,311.8906 Q404.9844,311.8906 404.3438,312.2188 Q403.7188,312.5469 403.2188,313.2969 Q402.7344,314.0469 402.7344,315.0781 L402.7344,316.1719 Q402.7344,317.4063 403.625,318.2344 Q404.5156,319.0469 406.1094,319.0469 Q407.0469,319.0469 407.7031,318.7969 Q408.0938,318.6406 408.5156,318.2031 Q408.7813,317.9375 408.9219,317.8594 Q409.0781,317.7813 409.2813,317.7813 Q409.6094,317.7813 409.8594,318.0469 Q410.125,318.2969 410.125,318.6406 Q410.125,318.9844 409.7813,319.3906 Q409.2813,319.9688 408.4844,320.2969 Q407.4063,320.75 406.1094,320.75 Q404.5938,320.75 403.3906,320.125 Q402.4063,319.625 401.7188,318.5625 Q401.0313,317.4844 401.0313,316.2031 L401.0313,315.0469 Q401.0313,313.7188 401.6406,312.5781 Q402.2656,311.4219 403.3594,310.8125 Q404.4531,310.1875 405.6875,310.1875 Q406.4219,310.1875 407.0625,310.3594 Q407.7188,310.5156 408.2656,310.875 Z " fill="#000000"/><text fill="#000000" font-family="sans-serif" font-size="14" lengthAdjust="spacing" textLength="119" x="419.5" y="320.7969">ApplicationSession</text><line style="stroke:#181818;stroke-width:0.5;" x1="391.5" x2="540.5" y1="331" y2="331"/><line style="stroke:#181818;stroke-width:0.5;" x1="391.5" x2="540.5" y1="339" y2="339"/><text fill="#000000" font-family="sans-serif" font-size="14" lengthAdjust="spacing" textLength="128" x="396.5" y="358.1074">+static getInstance()</text><text fill="#000000" font-family="sans-serif" font-size="14" lengthAdjust="spacing" textLength="136" x="396.5" y="376.7285">+getCurrentSession()</text></g><!--class GreenSpacedto--><g id="elem_GreenSpacedto"><rect codeLine="24" fill="#F1F1F1" height="141.1055" id="GreenSpacedto" rx="2.5" ry="2.5" style="stroke:#181818;stroke-width:0.5;" width="132" x="799" y="463"/><ellipse cx="814" cy="479" fill="#ADD1B2" rx="11" ry="11" style="stroke:#181818;stroke-width:1.0;"/><path d="M816.7656,474.875 Q816.9219,474.6563 817.1094,474.5469 Q817.2969,474.4375 817.5156,474.4375 Q817.8906,474.4375 818.125,474.7031 Q818.3594,474.9531 818.3594,475.5625 L818.3594,477.0156 Q818.3594,477.625 818.125,477.8906 Q817.8906,478.1563 817.5156,478.1563 Q817.1719,478.1563 816.9688,477.9531 Q816.7656,477.7656 816.6563,477.25 Q816.6094,476.8906 816.4219,476.7031 Q816.0938,476.3281 815.4844,476.1094 Q814.875,475.8906 814.25,475.8906 Q813.4844,475.8906 812.8438,476.2188 Q812.2188,476.5469 811.7188,477.2969 Q811.2344,478.0469 811.2344,479.0781 L811.2344,480.1719 Q811.2344,481.4063 812.125,482.2344 Q813.0156,483.0469 814.6094,483.0469 Q815.5469,483.0469 816.2031,482.7969 Q816.5938,482.6406 817.0156,482.2031 Q817.2813,481.9375 817.4219,481.8594 Q817.5781,481.7813 817.7813,481.7813 Q818.1094,481.7813 818.3594,482.0469 Q818.625,482.2969 818.625,482.6406 Q818.625,482.9844 818.2813,483.3906 Q817.7813,483.9688 816.9844,484.2969 Q815.9063,484.75 814.6094,484.75 Q813.0938,484.75 811.8906,484.125 Q810.9063,483.625 810.2188,482.5625 Q809.5313,481.4844 809.5313,480.2031 L809.5313,479.0469 Q809.5313,477.7188 810.1406,476.5781 Q810.7656,475.4219 811.8594,474.8125 Q812.9531,474.1875 814.1875,474.1875 Q814.9219,474.1875 815.5625,474.3594 Q816.2188,474.5156 816.7656,474.875 Z " fill="#000000"/><text fill="#000000" font-family="sans-serif" font-size="14" lengthAdjust="spacing" textLength="100" x="828" y="484.7969">GreenSpacedto</text><line style="stroke:#181818;stroke-width:0.5;" x1="800" x2="930" y1="495" y2="495"/><text fill="#000000" font-family="sans-serif" font-size="14" lengthAdjust="spacing" textLength="81" x="805" y="514.1074">-String name</text><text fill="#000000" font-family="sans-serif" font-size="14" lengthAdjust="spacing" textLength="89" x="805" y="532.7285">-String adress</text><text fill="#000000" font-family="sans-serif" font-size="14" lengthAdjust="spacing" textLength="73" x="805" y="551.3496">-String type</text><text fill="#000000" font-family="sans-serif" font-size="14" lengthAdjust="spacing" textLength="53" x="805" y="569.9707">-Int area</text><text fill="#000000" font-family="sans-serif" font-size="14" lengthAdjust="spacing" textLength="76" x="805" y="588.5918">-Email email</text><line style="stroke:#181818;stroke-width:0.5;" x1="800" x2="930" y1="596.1055" y2="596.1055"/></g><!--class GreenSpaceMapper--><g id="elem_GreenSpaceMapper"><rect codeLine="32" fill="#F1F1F1" height="85.2422" id="GreenSpaceMapper" rx="2.5" ry="2.5" style="stroke:#181818;stroke-width:0.5;" width="382" x="674" y="299"/><ellipse cx="796.75" cy="315" fill="#ADD1B2" rx="11" ry="11" style="stroke:#181818;stroke-width:1.0;"/><path d="M799.5156,310.875 Q799.6719,310.6563 799.8594,310.5469 Q800.0469,310.4375 800.2656,310.4375 Q800.6406,310.4375 800.875,310.7031 Q801.1094,310.9531 801.1094,311.5625 L801.1094,313.0156 Q801.1094,313.625 800.875,313.8906 Q800.6406,314.1563 800.2656,314.1563 Q799.9219,314.1563 799.7188,313.9531 Q799.5156,313.7656 799.4063,313.25 Q799.3594,312.8906 799.1719,312.7031 Q798.8438,312.3281 798.2344,312.1094 Q797.625,311.8906 797,311.8906 Q796.2344,311.8906 795.5938,312.2188 Q794.9688,312.5469 794.4688,313.2969 Q793.9844,314.0469 793.9844,315.0781 L793.9844,316.1719 Q793.9844,317.4063 794.875,318.2344 Q795.7656,319.0469 797.3594,319.0469 Q798.2969,319.0469 798.9531,318.7969 Q799.3438,318.6406 799.7656,318.2031 Q800.0313,317.9375 800.1719,317.8594 Q800.3281,317.7813 800.5313,317.7813 Q800.8594,317.7813 801.1094,318.0469 Q801.375,318.2969 801.375,318.6406 Q801.375,318.9844 801.0313,319.3906 Q800.5313,319.9688 799.7344,320.2969 Q798.6563,320.75 797.3594,320.75 Q795.8438,320.75 794.6406,320.125 Q793.6563,319.625 792.9688,318.5625 Q792.2813,317.4844 792.2813,316.2031 L792.2813,315.0469 Q792.2813,313.7188 792.8906,312.5781 Q793.5156,311.4219 794.6094,310.8125 Q795.7031,310.1875 796.9375,310.1875 Q797.6719,310.1875 798.3125,310.3594 Q798.9688,310.5156 799.5156,310.875 Z " fill="#000000"/><text fill="#000000" font-family="sans-serif" font-size="14" lengthAdjust="spacing" textLength="128" x="817.25" y="320.7969">GreenSpaceMapper</text><line style="stroke:#181818;stroke-width:0.5;" x1="675" x2="1055" y1="331" y2="331"/><line style="stroke:#181818;stroke-width:0.5;" x1="675" x2="1055" y1="339" y2="339"/><text fill="#000000" font-family="sans-serif" font-size="14" lengthAdjust="spacing" textLength="335" x="680" y="358.1074">+GreenSpaceDTO toDTO(GreenSpace greenSpace)</text><text fill="#000000" font-family="sans-serif" font-size="14" lengthAdjust="spacing" textLength="370" x="680" y="376.7285">+GreenSpace toEntity(GreenSpaceDTO greenSpaceDTO)</text></g><!--class ListGreenSpacesUI--><g id="elem_ListGreenSpacesUI"><rect codeLine="39" fill="#F1F1F1" height="48" id="ListGreenSpacesUI" rx="2.5" ry="2.5" style="stroke:#181818;stroke-width:0.5;" width="153" x="302.5" y="7"/><ellipse cx="317.5" cy="23" fill="#ADD1B2" rx="11" ry="11" style="stroke:#181818;stroke-width:1.0;"/><path d="M320.2656,18.875 Q320.4219,18.6563 320.6094,18.5469 Q320.7969,18.4375 321.0156,18.4375 Q321.3906,18.4375 321.625,18.7031 Q321.8594,18.9531 321.8594,19.5625 L321.8594,21.0156 Q321.8594,21.625 321.625,21.8906 Q321.3906,22.1563 321.0156,22.1563 Q320.6719,22.1563 320.4688,21.9531 Q320.2656,21.7656 320.1563,21.25 Q320.1094,20.8906 319.9219,20.7031 Q319.5938,20.3281 318.9844,20.1094 Q318.375,19.8906 317.75,19.8906 Q316.9844,19.8906 316.3438,20.2188 Q315.7188,20.5469 315.2188,21.2969 Q314.7344,22.0469 314.7344,23.0781 L314.7344,24.1719 Q314.7344,25.4063 315.625,26.2344 Q316.5156,27.0469 318.1094,27.0469 Q319.0469,27.0469 319.7031,26.7969 Q320.0938,26.6406 320.5156,26.2031 Q320.7813,25.9375 320.9219,25.8594 Q321.0781,25.7813 321.2813,25.7813 Q321.6094,25.7813 321.8594,26.0469 Q322.125,26.2969 322.125,26.6406 Q322.125,26.9844 321.7813,27.3906 Q321.2813,27.9688 320.4844,28.2969 Q319.4063,28.75 318.1094,28.75 Q316.5938,28.75 315.3906,28.125 Q314.4063,27.625 313.7188,26.5625 Q313.0313,25.4844 313.0313,24.2031 L313.0313,23.0469 Q313.0313,21.7188 313.6406,20.5781 Q314.2656,19.4219 315.3594,18.8125 Q316.4531,18.1875 317.6875,18.1875 Q318.4219,18.1875 319.0625,18.3594 Q319.7188,18.5156 320.2656,18.875 Z " fill="#000000"/><text fill="#000000" font-family="sans-serif" font-size="14" lengthAdjust="spacing" textLength="121" x="331.5" y="28.7969">ListGreenSpacesUI</text><line style="stroke:#181818;stroke-width:0.5;" x1="303.5" x2="454.5" y1="39" y2="39"/><line style="stroke:#181818;stroke-width:0.5;" x1="303.5" x2="454.5" y1="47" y2="47"/></g><!--class ListGreenSpacesController--><g id="elem_ListGreenSpacesController"><rect codeLine="42" fill="#F1F1F1" height="103.8633" id="ListGreenSpacesController" rx="2.5" ry="2.5" style="stroke:#181818;stroke-width:0.5;" width="349" x="204.5" y="116"/><ellipse cx="289.25" cy="132" fill="#ADD1B2" rx="11" ry="11" style="stroke:#181818;stroke-width:1.0;"/><path d="M292.0156,127.875 Q292.1719,127.6563 292.3594,127.5469 Q292.5469,127.4375 292.7656,127.4375 Q293.1406,127.4375 293.375,127.7031 Q293.6094,127.9531 293.6094,128.5625 L293.6094,130.0156 Q293.6094,130.625 293.375,130.8906 Q293.1406,131.1563 292.7656,131.1563 Q292.4219,131.1563 292.2188,130.9531 Q292.0156,130.7656 291.9063,130.25 Q291.8594,129.8906 291.6719,129.7031 Q291.3438,129.3281 290.7344,129.1094 Q290.125,128.8906 289.5,128.8906 Q288.7344,128.8906 288.0938,129.2188 Q287.4688,129.5469 286.9688,130.2969 Q286.4844,131.0469 286.4844,132.0781 L286.4844,133.1719 Q286.4844,134.4063 287.375,135.2344 Q288.2656,136.0469 289.8594,136.0469 Q290.7969,136.0469 291.4531,135.7969 Q291.8438,135.6406 292.2656,135.2031 Q292.5313,134.9375 292.6719,134.8594 Q292.8281,134.7813 293.0313,134.7813 Q293.3594,134.7813 293.6094,135.0469 Q293.875,135.2969 293.875,135.6406 Q293.875,135.9844 293.5313,136.3906 Q293.0313,136.9688 292.2344,137.2969 Q291.1563,137.75 289.8594,137.75 Q288.3438,137.75 287.1406,137.125 Q286.1563,136.625 285.4688,135.5625 Q284.7813,134.4844 284.7813,133.2031 L284.7813,132.0469 Q284.7813,130.7188 285.3906,129.5781 Q286.0156,128.4219 287.1094,127.8125 Q288.2031,127.1875 289.4375,127.1875 Q290.1719,127.1875 290.8125,127.3594 Q291.4688,127.5156 292.0156,127.875 Z " fill="#000000"/><text fill="#000000" font-family="sans-serif" font-size="14" lengthAdjust="spacing" textLength="171" x="309.75" y="137.7969">ListGreenSpacesController</text><line style="stroke:#181818;stroke-width:0.5;" x1="205.5" x2="552.5" y1="148" y2="148"/><line style="stroke:#181818;stroke-width:0.5;" x1="205.5" x2="552.5" y1="156" y2="156"/><text fill="#000000" font-family="sans-serif" font-size="14" lengthAdjust="spacing" textLength="337" x="210.5" y="175.1074">+ListGreenSpacesController(GreenSpaceRepository)</text><text fill="#000000" font-family="sans-serif" font-size="14" lengthAdjust="spacing" textLength="140" x="210.5" y="193.7285">+getGreenSpaceList()</text><text fill="#000000" font-family="sans-serif" font-size="14" lengthAdjust="spacing" textLength="241" x="210.5" y="212.3496">+addGreenSpaceToList(GreenSpace)</text></g><!--class Repositories--><g id="elem_Repositories"><rect codeLine="49" fill="#F1F1F1" height="103.8633" id="Repositories" rx="2.5" ry="2.5" style="stroke:#181818;stroke-width:0.5;" width="198" x="7" y="481.5"/><ellipse cx="62.25" cy="497.5" fill="#ADD1B2" rx="11" ry="11" style="stroke:#181818;stroke-width:1.0;"/><path d="M65.0156,493.375 Q65.1719,493.1563 65.3594,493.0469 Q65.5469,492.9375 65.7656,492.9375 Q66.1406,492.9375 66.375,493.2031 Q66.6094,493.4531 66.6094,494.0625 L66.6094,495.5156 Q66.6094,496.125 66.375,496.3906 Q66.1406,496.6563 65.7656,496.6563 Q65.4219,496.6563 65.2188,496.4531 Q65.0156,496.2656 64.9063,495.75 Q64.8594,495.3906 64.6719,495.2031 Q64.3438,494.8281 63.7344,494.6094 Q63.125,494.3906 62.5,494.3906 Q61.7344,494.3906 61.0938,494.7188 Q60.4688,495.0469 59.9688,495.7969 Q59.4844,496.5469 59.4844,497.5781 L59.4844,498.6719 Q59.4844,499.9063 60.375,500.7344 Q61.2656,501.5469 62.8594,501.5469 Q63.7969,501.5469 64.4531,501.2969 Q64.8438,501.1406 65.2656,500.7031 Q65.5313,500.4375 65.6719,500.3594 Q65.8281,500.2813 66.0313,500.2813 Q66.3594,500.2813 66.6094,500.5469 Q66.875,500.7969 66.875,501.1406 Q66.875,501.4844 66.5313,501.8906 Q66.0313,502.4688 65.2344,502.7969 Q64.1563,503.25 62.8594,503.25 Q61.3438,503.25 60.1406,502.625 Q59.1563,502.125 58.4688,501.0625 Q57.7813,499.9844 57.7813,498.7031 L57.7813,497.5469 Q57.7813,496.2188 58.3906,495.0781 Q59.0156,493.9219 60.1094,493.3125 Q61.2031,492.6875 62.4375,492.6875 Q63.1719,492.6875 63.8125,492.8594 Q64.4688,493.0156 65.0156,493.375 Z " fill="#000000"/><text fill="#000000" font-family="sans-serif" font-size="14" lengthAdjust="spacing" textLength="79" x="82.75" y="503.2969">Repositories</text><line style="stroke:#181818;stroke-width:0.5;" x1="8" x2="204" y1="513.5" y2="513.5"/><line style="stroke:#181818;stroke-width:0.5;" x1="8" x2="204" y1="521.5" y2="521.5"/><text fill="#000000" font-family="sans-serif" font-size="14" lengthAdjust="spacing" textLength="94" x="13" y="540.6074">-Repositories()</text><text fill="#000000" font-family="sans-serif" font-size="14" lengthAdjust="spacing" textLength="182" x="13" y="559.2285">+getInstance() : Repositories</text><text fill="#000000" font-family="sans-serif" font-size="14" lengthAdjust="spacing" textLength="186" x="13" y="577.8496">+getGreenSpaceRepository()</text></g><!--class GreenSpaceRepository--><g id="elem_GreenSpaceRepository"><rect codeLine="55" fill="#F1F1F1" height="66.6211" id="GreenSpaceRepository" rx="2.5" ry="2.5" style="stroke:#181818;stroke-width:0.5;" width="180" x="247" y="720"/><ellipse cx="262" cy="736" fill="#ADD1B2" rx="11" ry="11" style="stroke:#181818;stroke-width:1.0;"/><path d="M264.7656,731.875 Q264.9219,731.6563 265.1094,731.5469 Q265.2969,731.4375 265.5156,731.4375 Q265.8906,731.4375 266.125,731.7031 Q266.3594,731.9531 266.3594,732.5625 L266.3594,734.0156 Q266.3594,734.625 266.125,734.8906 Q265.8906,735.1563 265.5156,735.1563 Q265.1719,735.1563 264.9688,734.9531 Q264.7656,734.7656 264.6563,734.25 Q264.6094,733.8906 264.4219,733.7031 Q264.0938,733.3281 263.4844,733.1094 Q262.875,732.8906 262.25,732.8906 Q261.4844,732.8906 260.8438,733.2188 Q260.2188,733.5469 259.7188,734.2969 Q259.2344,735.0469 259.2344,736.0781 L259.2344,737.1719 Q259.2344,738.4063 260.125,739.2344 Q261.0156,740.0469 262.6094,740.0469 Q263.5469,740.0469 264.2031,739.7969 Q264.5938,739.6406 265.0156,739.2031 Q265.2813,738.9375 265.4219,738.8594 Q265.5781,738.7813 265.7813,738.7813 Q266.1094,738.7813 266.3594,739.0469 Q266.625,739.2969 266.625,739.6406 Q266.625,739.9844 266.2813,740.3906 Q265.7813,740.9688 264.9844,741.2969 Q263.9063,741.75 262.6094,741.75 Q261.0938,741.75 259.8906,741.125 Q258.9063,740.625 258.2188,739.5625 Q257.5313,738.4844 257.5313,737.2031 L257.5313,736.0469 Q257.5313,734.7188 258.1406,733.5781 Q258.7656,732.4219 259.8594,731.8125 Q260.9531,731.1875 262.1875,731.1875 Q262.9219,731.1875 263.5625,731.3594 Q264.2188,731.5156 264.7656,731.875 Z " fill="#000000"/><text fill="#000000" font-family="sans-serif" font-size="14" lengthAdjust="spacing" textLength="148" x="276" y="741.7969">GreenSpaceRepository</text><line style="stroke:#181818;stroke-width:0.5;" x1="248" x2="426" y1="752" y2="752"/><line style="stroke:#181818;stroke-width:0.5;" x1="248" x2="426" y1="760" y2="760"/><text fill="#000000" font-family="sans-serif" font-size="14" lengthAdjust="spacing" textLength="140" x="253" y="779.1074">+getGreenSpaceList()</text></g><!--link Repositories to Repositories--><g id="link_Repositories_Repositories"><path codeLine="61" d="M205.05,513.63 C225.4,515.76 240,522.38 240,533.5 C240,544.62 231.3674,550.6154 211.0174,552.7454 " fill="none" id="Repositories-to-Repositories" style="stroke:#181818;stroke-width:1.0;"/><polygon fill="#181818" points="205.05,553.37,214.4175,556.4114,210.0228,552.8495,213.5847,548.4548,205.05,553.37" style="stroke:#181818;stroke-width:1.0;"/><text fill="#000000" font-family="sans-serif" font-size="13" lengthAdjust="spacing" textLength="49" x="246" y="539.0283">instance</text></g><!--link Repositories to GreenSpaceRepository--><g id="link_Repositories_GreenSpaceRepository"><path codeLine="62" d="M135.86,585.79 C154.51,617.81 175,653 175,653 C175,653 231.5973,687.7599 278.8473,716.7799 " fill="none" id="Repositories-to-GreenSpaceRepository" style="stroke:#181818;stroke-width:1.0;"/><polygon fill="#181818" points="283.96,719.92,278.3844,711.8014,279.6994,717.3032,274.1975,718.6183,283.96,719.92" style="stroke:#181818;stroke-width:1.0;"/><text fill="#000000" font-family="sans-serif" font-size="13" lengthAdjust="spacing" textLength="134" x="176" y="649.0283">GreenSpaceRepository</text><text fill="#000000" font-family="sans-serif" font-size="13" lengthAdjust="spacing" textLength="7" x="265.8287" y="708.7298">1</text></g><!--link ListGreenSpacesController to Repositories--><g id="link_ListGreenSpacesController_Repositories"><path codeLine="63" d="M325.25,220.01 C286.87,256.43 242,299 242,299 C242,299 178.8994,407.3351 138.8694,476.0751 " fill="none" id="ListGreenSpacesController-to-Repositories" style="stroke:#181818;stroke-width:1.0;stroke-dasharray:7.0,7.0;"/><polygon fill="#181818" points="135.85,481.26,143.8357,475.4955,138.3661,476.9392,136.9225,471.4697,135.85,481.26" style="stroke:#181818;stroke-width:1.0;"/><text fill="#000000" font-family="sans-serif" font-size="13" lengthAdjust="spacing" textLength="67" x="243" y="347.0283">repositories</text></g><!--link ListGreenSpacesController to GreenSpaceRepository--><g id="link_ListGreenSpacesController_GreenSpaceRepository"><path codeLine="64" d="M375.33,220.02 C366.89,337.2 346.7613,616.9655 339.7813,713.8055 " fill="none" id="ListGreenSpacesController-to-GreenSpaceRepository" style="stroke:#181818;stroke-width:1.0;stroke-dasharray:7.0,7.0;"/><polygon fill="#181818" points="339.35,719.79,343.9867,711.1009,339.7095,714.8029,336.0074,710.5257,339.35,719.79" style="stroke:#181818;stroke-width:1.0;"/><text fill="#000000" font-family="sans-serif" font-size="13" lengthAdjust="spacing" textLength="134" x="362" y="429.0283">GreenSpaceRepository</text></g><!--link ListGreenSpacesUI to ListGreenSpacesController--><g id="link_ListGreenSpacesUI_ListGreenSpacesController"><path codeLine="66" d="M379,55.21 C379,71.87 379,88.97 379,109.86 " fill="none" id="ListGreenSpacesUI-to-ListGreenSpacesController" style="stroke:#181818;stroke-width:1.0;stroke-dasharray:7.0,7.0;"/><polygon fill="#181818" points="379,115.86,383,106.86,379,110.86,375,106.86,379,115.86" style="stroke:#181818;stroke-width:1.0;"/></g><!--link GreenSpaceRepository to GreenSpace--><g id="link_GreenSpaceRepository_GreenSpace"><path codeLine="68" d="M427.21,753.5 C475.31,753.5 527.01,753.5 568.71,753.5 " fill="none" id="GreenSpaceRepository-to-GreenSpace" style="stroke:#181818;stroke-width:1.0;"/><polygon fill="#181818" points="574.71,753.5,565.71,749.5,569.71,753.5,565.71,757.5,574.71,753.5" style="stroke:#181818;stroke-width:1.0;"/><text fill="#000000" font-family="sans-serif" font-size="13" lengthAdjust="spacing" textLength="72" x="465" y="746.5283">GreenSpace</text><text fill="#000000" font-family="sans-serif" font-size="13" lengthAdjust="spacing" textLength="7" x="434.9704" y="749.8522">1</text><text fill="#000000" font-family="sans-serif" font-size="13" lengthAdjust="spacing" textLength="5" x="562.1775" y="749.4511">*</text></g><!--link ListGreenSpacesController to GreenSpaceMapper--><g id="link_ListGreenSpacesController_GreenSpaceMapper"><path codeLine="69" d="M523.83,220.11 C595.17,245.28 674.412,273.2433 741.682,296.9833 " fill="none" id="ListGreenSpacesController-to-GreenSpaceMapper" style="stroke:#181818;stroke-width:1.0;stroke-dasharray:7.0,7.0;"/><polygon fill="#181818" points="747.34,298.98,740.1842,292.2129,742.625,297.316,737.5218,299.7569,747.34,298.98" style="stroke:#181818;stroke-width:1.0;"/><text fill="#000000" font-family="sans-serif" font-size="13" lengthAdjust="spacing" textLength="112" x="652" y="265.0283">greenSpaceMapper</text></g><!--link GreenSpaceMapper to GreenSpacedto--><g id="link_GreenSpaceMapper_GreenSpacedto"><path codeLine="70" d="M865,384.2 C865,407.25 865,430.48 865,456.9 " fill="none" id="GreenSpaceMapper-to-GreenSpacedto" style="stroke:#181818;stroke-width:1.0;stroke-dasharray:7.0,7.0;"/><polygon fill="#181818" points="865,462.9,869,453.9,865,457.9,861,453.9,865,462.9" style="stroke:#181818;stroke-width:1.0;"/></g><!--link GreenSpaceMapper to GreenSpace--><g id="link_GreenSpaceMapper_GreenSpace"><path codeLine="71" d="M836.2,384.31 C812.23,419.11 782,463 782,463 C782,463 714.8148,591.8102 670.1348,677.4702 " fill="none" id="GreenSpaceMapper-to-GreenSpace" style="stroke:#181818;stroke-width:1.0;stroke-dasharray:7.0,7.0;"/><polygon fill="#181818" points="667.36,682.79,675.0687,676.6601,669.6723,678.3568,667.9757,672.9604,667.36,682.79" style="stroke:#181818;stroke-width:1.0;"/></g><!--link ListGreenSpacesController to ApplicationSession--><g id="link_ListGreenSpacesController_ApplicationSession"><path codeLine="72" d="M405.1,220.46 C417.82,245.52 430.1841,269.9099 442.1641,293.5099 " fill="none" id="ListGreenSpacesController-to-ApplicationSession" style="stroke:#181818;stroke-width:1.0;stroke-dasharray:7.0,7.0;"/><polygon fill="#181818" points="444.88,298.86,444.3729,289.0242,442.6168,294.4015,437.2394,292.6454,444.88,298.86" style="stroke:#181818;stroke-width:1.0;"/></g><!--link ApplicationSession to ApplicationSession--><g id="link_ApplicationSession_ApplicationSession"><path codeLine="73" d="M541.66,326.27 C561.5,327.17 576.5,332.25 576.5,341.5 C576.5,350.75 567.4938,355.5581 547.6538,356.4581 " fill="none" id="ApplicationSession-to-ApplicationSession" style="stroke:#181818;stroke-width:1.0;stroke-dasharray:7.0,7.0;"/><polygon fill="#181818" points="541.66,356.73,550.832,360.318,546.6549,356.5034,550.4695,352.3263,541.66,356.73" style="stroke:#181818;stroke-width:1.0;"/><text fill="#000000" font-family="sans-serif" font-size="13" lengthAdjust="spacing" textLength="67" x="582.5" y="347.0283">getinstance</text></g><!--SRC=[jLJ1JiCm3BtdAomk6w1DSEq12OrfcWH2el01eJLTH9f4YITKqFwTf9GsfIqJ1ovLxMVxFJjEPkvLACCjBw7KIcSxgqi4idja7M9uzieBJAcI21OpuggGSO3RyLo_2LN02vSkHgHGI9L1C5fMmM2p4L1RqYpAoYHtxfh8YkSzuJRJAXNl21UCpII-4906AueTGIw27A4LOtKER2oYIhrWX0y6i83K5_6w52ynjdbkqRdO4uJKzbOHS8kyDjOb5n8mVDcXuRWsHegC1zhK5mdiWGlW71nvTmO5qbRvVvNX_BI1l6-rjnOLDKaUEGnbvxwtVr0-uBdZng2jgSuZzytZlP-k_ywZIHRjx-cFS1-xLYIeclTB5B5Lz_cju5OuwcBTqzPBE4o0Awt8QYaRdO5wCY8Iy816Eq7QLj7iEpYKQ4-5vtc7FEeQsqJjTjhQgW9T8sVHSyOdtPq-9BsWCK6Ttl6LwF1s36CDrKFkgLnSzLKd81fTF-9yuCdboIXbCkfbqoUrN2xxj8b_Cg817CdyWmOstALGOPA0iT6PXix30CxY0K3C-Qlcgy6bIgBr__AmmRthv_bBVopaY8QHDsdeceXCmZgrcy7O9m00]--></g></svg>