<?xml version="1.0" encoding="us-ascii" standalone="no"?><svg xmlns="http://www.w3.org/2000/svg" xmlns:xlink="http://www.w3.org/1999/xlink" contentStyleType="text/css" height="739px" preserveAspectRatio="none" style="width:617px;height:739px;background:#FFFFFF;" version="1.1" viewBox="0 0 617 739" width="617px" zoomAndPan="magnify"><defs/><g><!--cluster GreenSpaceManagement--><g id="cluster_GreenSpaceManagement"><rect fill="none" height="726" rx="2.5" ry="2.5" style="stroke:#181818;stroke-width:1.0;" width="320" x="291" y="7"/><text fill="#000000" font-family="sans-serif" font-size="14" font-weight="bold" lengthAdjust="spacing" textLength="178" x="362" y="24.1074">GreenSpaceManagement</text></g><g id="elem_UC 001 - Register skills"><ellipse cx="450.7711" cy="65.9542" fill="#F1F1F1" rx="95.2711" ry="21.4542" style="stroke:#181818;stroke-width:0.5;"/><text fill="#000000" font-family="sans-serif" font-size="14" lengthAdjust="spacing" textLength="147" x="374.6672" y="70.6405">UC 001 - Register skills</text></g><g id="elem_UC 002 - Register a job"><ellipse cx="451.1884" cy="144.0377" fill="#F1F1F1" rx="95.6884" ry="21.5377" style="stroke:#181818;stroke-width:0.5;"/><text fill="#000000" font-family="sans-serif" font-size="14" lengthAdjust="spacing" textLength="148" x="374.7253" y="148.6811">UC 002 - Register a job</text></g><g id="elem_UC 003 - Register a collaborator"><ellipse cx="451.1059" cy="227.0212" fill="#F1F1F1" rx="120.6059" ry="26.5212" style="stroke:#181818;stroke-width:0.5;"/><text fill="#000000" font-family="sans-serif" font-size="14" lengthAdjust="spacing" textLength="204" x="349.1059" y="230.8181">UC 003 - Register a collaborator</text></g><g id="elem_UC 004 - Assign skills to a collaborator"><ellipse cx="451.2329" cy="319.1466" fill="#F1F1F1" rx="138.7329" ry="30.1466" style="stroke:#181818;stroke-width:0.5;"/><text fill="#000000" font-family="sans-serif" font-size="14" lengthAdjust="spacing" textLength="243" x="329.7329" y="322.9434">UC 004 - Assign skills to a collaborator</text></g><g id="elem_UC 005 - Generate a team proposal"><ellipse cx="450.7817" cy="413.0563" fill="#F1F1F1" rx="130.7817" ry="28.5563" style="stroke:#181818;stroke-width:0.5;"/><text fill="#000000" font-family="sans-serif" font-size="14" lengthAdjust="spacing" textLength="226" x="337.7817" y="416.8532">UC 005 - Generate a team proposal</text></g><g id="elem_UC 006 - Register a vehicle"><ellipse cx="451.0539" cy="500.2108" fill="#F1F1F1" rx="106.5539" ry="23.7108" style="stroke:#181818;stroke-width:0.5;"/><text fill="#000000" font-family="sans-serif" font-size="14" lengthAdjust="spacing" textLength="173" x="364.5539" y="504.0077">UC 006 - Register a vehicle</text></g><g id="elem_UC 007 - Register a vehicle&#8217;s check-up"><ellipse cx="451.1726" cy="588.8345" fill="#F1F1F1" rx="139.6726" ry="30.3345" style="stroke:#181818;stroke-width:0.5;"/><text fill="#000000" font-family="sans-serif" font-size="14" lengthAdjust="spacing" textLength="245" x="328.6726" y="592.6314">UC 007 - Register a vehicle&#8217;s check-up</text></g><g id="elem_UC 008 - List vehicles needing check-up"><ellipse cx="450.9119" cy="686.1824" fill="#F1F1F1" rx="143.9119" ry="31.1824" style="stroke:#181818;stroke-width:0.5;"/><text fill="#000000" font-family="sans-serif" font-size="14" lengthAdjust="spacing" textLength="254" x="323.9119" y="689.9793">UC 008 - List vehicles needing check-up</text></g><!--entity HRM--><g id="elem_HRM"><ellipse cx="126.5" cy="196" fill="#F1F1F1" rx="8" ry="8" style="stroke:#181818;stroke-width:0.5;"/><path d="M126.5,204 L126.5,231 M113.5,212 L139.5,212 M126.5,231 L113.5,246 M126.5,231 L139.5,246 " fill="none" style="stroke:#181818;stroke-width:0.5;"/><text fill="#000000" font-family="sans-serif" font-size="14" lengthAdjust="spacing" textLength="176" x="38.5" y="262.6074">Human Resources Manager</text></g><!--entity VFM--><g id="elem_VFM"><ellipse cx="126.5" cy="558" fill="#F1F1F1" rx="8" ry="8" style="stroke:#181818;stroke-width:0.5;"/><path d="M126.5,566 L126.5,593 M113.5,574 L139.5,574 M126.5,593 L113.5,608 M126.5,593 L139.5,608 " fill="none" style="stroke:#181818;stroke-width:0.5;"/><text fill="#000000" font-family="sans-serif" font-size="14" lengthAdjust="spacing" textLength="241" x="6" y="624.6074">Vehicle and Equipment Fleet Manager</text></g><!--link HRM to UC 001 - Register skills--><g id="link_HRM_UC 001 - Register skills"><path d="M167.67,187.35 C197.24,160.32 239.69,125.78 283,105 C309.98,92.06 335.6362,84.4941 363.9962,78.5841 " fill="none" id="HRM-to-UC 001 - Register skills" style="stroke:#181818;stroke-width:1.0;"/><polygon fill="#181818" points="369.87,77.36,360.2432,75.2802,364.9752,78.38,361.8753,83.112,369.87,77.36" style="stroke:#181818;stroke-width:1.0;"/></g><!--link HRM to UC 002 - Register a job--><g id="link_HRM_UC 002 - Register a job"><path d="M214.89,201.5 C237.06,195.25 260.86,188.71 283,183 C315.58,174.59 346.0813,167.3488 376.5313,160.3788 " fill="none" id="HRM-to-UC 002 - Register a job" style="stroke:#181818;stroke-width:1.0;"/><polygon fill="#181818" points="382.38,159.04,372.7144,157.149,377.5061,160.1556,374.4994,164.9473,382.38,159.04" style="stroke:#181818;stroke-width:1.0;"/></g><!--link HRM to UC 003 - Register a collaborator--><g id="link_HRM_UC 003 - Register a collaborator"><path d="M214.77,227 C250.31,227 285.97,227 324.27,227 " fill="none" id="HRM-to-UC 003 - Register a collaborator" style="stroke:#181818;stroke-width:1.0;"/><polygon fill="#181818" points="330.27,227,321.27,223,325.27,227,321.27,231,330.27,227" style="stroke:#181818;stroke-width:1.0;"/></g><!--link HRM to UC 004 - Assign skills to a collaborator--><g id="link_HRM_UC 004 - Assign skills to a collaborator"><path d="M214.77,251.9 C261.97,265.36 314.1902,280.2541 360.7802,293.5441 " fill="none" id="HRM-to-UC 004 - Assign skills to a collaborator" style="stroke:#181818;stroke-width:1.0;"/><polygon fill="#181818" points="366.55,295.19,358.9925,288.8746,361.7418,293.8184,356.798,296.5678,366.55,295.19" style="stroke:#181818;stroke-width:1.0;"/></g><!--link HRM to UC 005 - Generate a team proposal--><g id="link_HRM_UC 005 - Generate a team proposal"><path d="M162.09,266.58 C191.39,297.79 236.02,340.22 283,366 C304.65,377.88 323.8042,385.3099 347.6642,392.1799 " fill="none" id="HRM-to-UC 005 - Generate a team proposal" style="stroke:#181818;stroke-width:1.0;"/><polygon fill="#181818" points="353.43,393.84,345.8881,387.506,348.6252,392.4566,343.6746,395.1936,353.43,393.84" style="stroke:#181818;stroke-width:1.0;"/></g><!--link VFM to UC 006 - Register a vehicle--><g id="link_VFM_UC 006 - Register a vehicle"><path d="M247.42,551.21 C259.41,547.67 271.43,544.2 283,541 C313.64,532.52 341.8567,525.4046 371.1767,518.3446 " fill="none" id="VFM-to-UC 006 - Register a vehicle" style="stroke:#181818;stroke-width:1.0;"/><polygon fill="#181818" points="377.01,516.94,367.3237,515.1581,372.1489,518.1105,369.1965,522.9358,377.01,516.94" style="stroke:#181818;stroke-width:1.0;"/></g><!--link VFM to UC 007 - Register a vehicle?s check-up--><g id="link_VFM_UC 007 - Register a vehicle&#8217;s check-up"><path d="M247.13,589 C268.01,589 283.9,589 305.24,589 " fill="none" id="VFM-to-UC 007 - Register a vehicle&#8217;s check-up" style="stroke:#181818;stroke-width:1.0;"/><polygon fill="#181818" points="311.24,589,302.24,585,306.24,589,302.24,593,311.24,589" style="stroke:#181818;stroke-width:1.0;"/></g><!--link VFM to UC 008 - List vehicles needing check-up--><g id="link_VFM_UC 008 - List vehicles needing check-up"><path d="M247.15,626.12 C259.25,629.82 271.37,633.5 283,637 C309.47,644.97 332.6024,651.8116 358.7924,659.4916 " fill="none" id="VFM-to-UC 008 - List vehicles needing check-up" style="stroke:#181818;stroke-width:1.0;"/><polygon fill="#181818" points="364.55,661.18,357.0392,654.8091,359.752,659.773,354.7881,662.4858,364.55,661.18" style="stroke:#181818;stroke-width:1.0;"/></g><!--SRC=[XT2_JiCm4CVntK_nKoSO8fN_J4W8qNOWIn7ThyxXc3fsy3ai28dNuFLu4XnAfKP1wkpFrsUVu-U4512jgHCg6rad6xnIf5E8c2owXZoMBA6BcWKbUJ8S9o31Obdks8fhgns3V8Nxryws3Vk4cMDEWsGrAvLI_H3o9ljvPFQFBMdUgj_iNQ6_6qLnWwEdEqod9oZo6uoLn16oiSx9yGYTxYF2IrYFpTdGwE0ShKEa_8anFi_uLiGQ_pUpNzIXw297S_QSZ_Cwa9WQj36qGSZrEczWJryEt_EsNUFONVthlZ-_1BfclIcwTXnTv-WX9pikyCoLzMQl-L0_]--></g></svg>