<?xml version="1.0" encoding="us-ascii" standalone="no"?><svg xmlns="http://www.w3.org/2000/svg" xmlns:xlink="http://www.w3.org/1999/xlink" contentStyleType="text/css" height="738px" preserveAspectRatio="none" style="width:616px;height:738px;background:#FFFFFF;" version="1.1" viewBox="0 0 616 738" width="616px" zoomAndPan="magnify"><defs/><g><!--cluster GreenSpaceManagement--><g id="cluster_GreenSpaceManagement"><rect fill="none" height="725" rx="2.5" ry="2.5" style="stroke:#181818;stroke-width:1.0;" width="319" x="291" y="7"/><text fill="#000000" font-family="sans-serif" font-size="14" font-weight="bold" lengthAdjust="spacing" textLength="178" x="361.5" y="24.1074">GreenSpaceManagement</text></g><g id="elem_US 001 - Register skills"><ellipse cx="450.3554" cy="65.8711" fill="#F1F1F1" rx="94.8554" ry="21.3711" style="stroke:#181818;stroke-width:0.5;"/><text fill="#000000" font-family="sans-serif" font-size="14" lengthAdjust="spacing" textLength="146" x="374.6093" y="70.6">US 001 - Register skills</text></g><g id="elem_US 002 - Register a job"><ellipse cx="450.2711" cy="143.9542" fill="#F1F1F1" rx="95.2711" ry="21.4542" style="stroke:#181818;stroke-width:0.5;"/><text fill="#000000" font-family="sans-serif" font-size="14" lengthAdjust="spacing" textLength="147" x="374.1672" y="148.6405">US 002 - Register a job</text></g><g id="elem_US 003 - Register a collaborator"><ellipse cx="450.6469" cy="226.9294" fill="#F1F1F1" rx="120.1469" ry="26.4294" style="stroke:#181818;stroke-width:0.5;"/><text fill="#000000" font-family="sans-serif" font-size="14" lengthAdjust="spacing" textLength="203" x="349.1469" y="230.7263">US 003 - Register a collaborator</text></g><g id="elem_US 004 - Assign skills to a collaborator"><ellipse cx="450.2633" cy="319.0527" fill="#F1F1F1" rx="138.2633" ry="30.0527" style="stroke:#181818;stroke-width:0.5;"/><text fill="#000000" font-family="sans-serif" font-size="14" lengthAdjust="spacing" textLength="242" x="329.2633" y="322.8495">US 004 - Assign skills to a collaborator</text></g><g id="elem_US 005 - Generate a team proposal"><ellipse cx="450.3162" cy="412.9632" fill="#F1F1F1" rx="130.3162" ry="28.4632" style="stroke:#181818;stroke-width:0.5;"/><text fill="#000000" font-family="sans-serif" font-size="14" lengthAdjust="spacing" textLength="225" x="337.8162" y="416.7601">US 005 - Generate a team proposal</text></g><g id="elem_US 006 - Register a vehicle"><ellipse cx="450.6075" cy="500.1215" fill="#F1F1F1" rx="106.1075" ry="23.6215" style="stroke:#181818;stroke-width:0.5;"/><text fill="#000000" font-family="sans-serif" font-size="14" lengthAdjust="spacing" textLength="172" x="364.6075" y="503.9184">US 006 - Register a vehicle</text></g><g id="elem_US 007 - Register a vehicle&#8217;s check-up"><ellipse cx="450.7026" cy="589.2405" fill="#F1F1F1" rx="139.2026" ry="30.2405" style="stroke:#181818;stroke-width:0.5;"/><text fill="#000000" font-family="sans-serif" font-size="14" lengthAdjust="spacing" textLength="244" x="328.7026" y="593.0374">US 007 - Register a vehicle&#8217;s check-up</text></g><g id="elem_US 008 - List vehicles needing check-up"><ellipse cx="450.44" cy="685.088" fill="#F1F1F1" rx="143.44" ry="31.088" style="stroke:#181818;stroke-width:0.5;"/><text fill="#000000" font-family="sans-serif" font-size="14" lengthAdjust="spacing" textLength="253" x="323.94" y="688.8849">US 008 - List vehicles needing check-up</text></g><!--entity HRM--><g id="elem_HRM"><ellipse cx="126.5" cy="196" fill="#F1F1F1" rx="8" ry="8" style="stroke:#181818;stroke-width:0.5;"/><path d="M126.5,204 L126.5,231 M113.5,212 L139.5,212 M126.5,231 L113.5,246 M126.5,231 L139.5,246 " fill="none" style="stroke:#181818;stroke-width:0.5;"/><text fill="#000000" font-family="sans-serif" font-size="14" lengthAdjust="spacing" textLength="176" x="38.5" y="262.6074">Human Resources Manager</text></g><!--entity VFM--><g id="elem_VFM"><ellipse cx="126.5" cy="558" fill="#F1F1F1" rx="8" ry="8" style="stroke:#181818;stroke-width:0.5;"/><path d="M126.5,566 L126.5,593 M113.5,574 L139.5,574 M126.5,593 L113.5,608 M126.5,593 L139.5,608 " fill="none" style="stroke:#181818;stroke-width:0.5;"/><text fill="#000000" font-family="sans-serif" font-size="14" lengthAdjust="spacing" textLength="241" x="6" y="624.6074">Vehicle and Equipment Fleet Manager</text></g><!--link HRM to US 001 - Register skills--><g id="link_HRM_US 001 - Register skills"><path d="M167.67,187.36 C197.25,160.33 239.69,125.79 283,105 C309.9,92.08 335.467,84.5278 363.737,78.6178 " fill="none" id="HRM-to-US 001 - Register skills" style="stroke:#181818;stroke-width:1.0;"/><polygon fill="#181818" points="369.61,77.39,359.9819,75.3163,364.7158,78.4132,361.619,83.147,369.61,77.39" style="stroke:#181818;stroke-width:1.0;"/></g><!--link HRM to US 002 - Register a job--><g id="link_HRM_US 002 - Register a job"><path d="M214.89,201.51 C237.06,195.26 260.86,188.72 283,183 C315.48,174.61 345.8821,167.3625 376.2421,160.3925 " fill="none" id="HRM-to-US 002 - Register a job" style="stroke:#181818;stroke-width:1.0;"/><polygon fill="#181818" points="382.09,159.05,372.4232,157.1652,377.2168,160.1688,374.2132,164.9624,382.09,159.05" style="stroke:#181818;stroke-width:1.0;"/></g><!--link HRM to US 003 - Register a collaborator--><g id="link_HRM_US 003 - Register a collaborator"><path d="M214.64,227 C250.21,227 285.93,227 324.25,227 " fill="none" id="HRM-to-US 003 - Register a collaborator" style="stroke:#181818;stroke-width:1.0;"/><polygon fill="#181818" points="330.25,227,321.25,223,325.25,227,321.25,231,330.25,227" style="stroke:#181818;stroke-width:1.0;"/></g><!--link HRM to US 004 - Assign skills to a collaborator--><g id="link_HRM_US 004 - Assign skills to a collaborator"><path d="M214.64,251.9 C261.76,265.36 313.8908,280.2518 360.4108,293.5418 " fill="none" id="HRM-to-US 004 - Assign skills to a collaborator" style="stroke:#181818;stroke-width:1.0;"/><polygon fill="#181818" points="366.18,295.19,358.625,288.8716,361.3723,293.8165,356.4274,296.5639,366.18,295.19" style="stroke:#181818;stroke-width:1.0;"/></g><!--link HRM to US 005 - Generate a team proposal--><g id="link_HRM_US 005 - Generate a team proposal"><path d="M162.1,266.57 C191.4,297.77 236.03,340.2 283,366 C304.59,377.86 323.6655,385.2754 347.4555,392.1454 " fill="none" id="HRM-to-US 005 - Generate a team proposal" style="stroke:#181818;stroke-width:1.0;"/><polygon fill="#181818" points="353.22,393.81,345.6831,387.4701,348.4163,392.4228,343.4636,395.156,353.22,393.81" style="stroke:#181818;stroke-width:1.0;"/></g><!--link VFM to US 006 - Register a vehicle--><g id="link_VFM_US 006 - Register a vehicle"><path d="M247.42,551.22 C259.41,547.67 271.43,544.21 283,541 C313.55,532.53 341.6677,525.4187 370.8977,518.3587 " fill="none" id="VFM-to-US 006 - Register a vehicle" style="stroke:#181818;stroke-width:1.0;"/><polygon fill="#181818" points="376.73,516.95,367.0424,515.1748,371.8698,518.1239,368.9207,522.9512,376.73,516.95" style="stroke:#181818;stroke-width:1.0;"/></g><!--link VFM to US 007 - Register a vehicle?s check-up--><g id="link_VFM_US 007 - Register a vehicle&#8217;s check-up"><path d="M247.4,589 C268.23,589 284.05,589 305.32,589 " fill="none" id="VFM-to-US 007 - Register a vehicle&#8217;s check-up" style="stroke:#181818;stroke-width:1.0;"/><polygon fill="#181818" points="311.32,589,302.32,585,306.32,589,302.32,593,311.32,589" style="stroke:#181818;stroke-width:1.0;"/></g><!--link VFM to US 008 - List vehicles needing check-up--><g id="link_VFM_US 008 - List vehicles needing check-up"><path d="M247.18,625.27 C259.27,628.91 271.38,632.53 283,636 C309.42,643.88 332.474,650.6963 358.574,658.3763 " fill="none" id="VFM-to-US 008 - List vehicles needing check-up" style="stroke:#181818;stroke-width:1.0;"/><polygon fill="#181818" points="364.33,660.07,356.8252,653.6921,359.5333,658.6586,354.5669,661.3668,364.33,660.07" style="stroke:#181818;stroke-width:1.0;"/></g><!--SRC=[XT2_JiCm4CVntK_nKoSO8fN_J4WCj1t8qehkL_TmJ1qx-1mMXCHhy7ey2GwbKg9KOlRdwxFFyND22eZML0bR6rad6xnIf5E8c2pQcZoMBA6DcWKbUJ8S9o31ObaUs9ehgns3_1OFhwrjQlO9CyUS1ibwLYgbkY7aJVRpoEnN3MdUgz_iNQ6x6qLnXvEd5QRJCnJv3SPAuWZPMUVaT8JE-uZm4ZPZSp4qEZX7cn0fVsACBpE-5x76_yti5lLVT9MZENlEntaTI4mrcXYQ8EGwdJVGqzV3zxpjrpXsDqVTz-UNG5UiTqNRZAFR73tcvC05ddbhlUar7-e7]--></g></svg>