<?xml version="1.0" encoding="us-ascii" standalone="no"?><svg xmlns="http://www.w3.org/2000/svg" xmlns:xlink="http://www.w3.org/1999/xlink" contentStyleType="text/css" height="738px" preserveAspectRatio="none" style="width:551px;height:738px;background:#FFFFFF;" version="1.1" viewBox="0 0 551 738" width="551px" zoomAndPan="magnify"><defs/><g><!--cluster GreenSpaceManagement--><g id="cluster_GreenSpaceManagement"><rect fill="none" height="725" rx="2.5" ry="2.5" style="stroke:#181818;stroke-width:1.0;" width="319" x="226" y="7"/><text fill="#000000" font-family="sans-serif" font-size="14" font-weight="bold" lengthAdjust="spacing" textLength="178" x="296.5" y="24.1074">GreenSpaceManagement</text></g><g id="elem_US 001 - Register skills"><ellipse cx="385.3554" cy="65.8711" fill="#F1F1F1" rx="94.8554" ry="21.3711" style="stroke:#181818;stroke-width:0.5;"/><text fill="#000000" font-family="sans-serif" font-size="14" lengthAdjust="spacing" textLength="146" x="309.6093" y="70.6">US 001 - Register skills</text></g><g id="elem_US 002 - Register a job"><ellipse cx="385.2711" cy="143.9542" fill="#F1F1F1" rx="95.2711" ry="21.4542" style="stroke:#181818;stroke-width:0.5;"/><text fill="#000000" font-family="sans-serif" font-size="14" lengthAdjust="spacing" textLength="147" x="309.1672" y="148.6405">US 002 - Register a job</text></g><g id="elem_US 003 - Register a collaborator"><ellipse cx="385.6469" cy="226.9294" fill="#F1F1F1" rx="120.1469" ry="26.4294" style="stroke:#181818;stroke-width:0.5;"/><text fill="#000000" font-family="sans-serif" font-size="14" lengthAdjust="spacing" textLength="203" x="284.1469" y="230.7263">US 003 - Register a collaborator</text></g><g id="elem_US 004 - Assign skills to a collaborator"><ellipse cx="385.2633" cy="319.0527" fill="#F1F1F1" rx="138.2633" ry="30.0527" style="stroke:#181818;stroke-width:0.5;"/><text fill="#000000" font-family="sans-serif" font-size="14" lengthAdjust="spacing" textLength="242" x="264.2633" y="322.8495">US 004 - Assign skills to a collaborator</text></g><g id="elem_US 005 - Generate a team proposal"><ellipse cx="385.3162" cy="412.9632" fill="#F1F1F1" rx="130.3162" ry="28.4632" style="stroke:#181818;stroke-width:0.5;"/><text fill="#000000" font-family="sans-serif" font-size="14" lengthAdjust="spacing" textLength="225" x="272.8162" y="416.7601">US 005 - Generate a team proposal</text></g><g id="elem_US 006 - Register a vehicle"><ellipse cx="385.6075" cy="500.1215" fill="#F1F1F1" rx="106.1075" ry="23.6215" style="stroke:#181818;stroke-width:0.5;"/><text fill="#000000" font-family="sans-serif" font-size="14" lengthAdjust="spacing" textLength="172" x="299.6075" y="503.9184">US 006 - Register a vehicle</text></g><g id="elem_US 007 - Register a vehicle&#8217;s check-up"><ellipse cx="385.7026" cy="589.2405" fill="#F1F1F1" rx="139.2026" ry="30.2405" style="stroke:#181818;stroke-width:0.5;"/><text fill="#000000" font-family="sans-serif" font-size="14" lengthAdjust="spacing" textLength="244" x="263.7026" y="593.0374">US 007 - Register a vehicle&#8217;s check-up</text></g><g id="elem_US 008 - List vehicles needing check-up"><ellipse cx="385.44" cy="685.088" fill="#F1F1F1" rx="143.44" ry="31.088" style="stroke:#181818;stroke-width:0.5;"/><text fill="#000000" font-family="sans-serif" font-size="14" lengthAdjust="spacing" textLength="253" x="258.94" y="688.8849">US 008 - List vehicles needing check-up</text></g><!--entity HRM--><g id="elem_HRM"><ellipse cx="94" cy="196" fill="#F1F1F1" rx="8" ry="8" style="stroke:#181818;stroke-width:0.5;"/><path d="M94,204 L94,231 M81,212 L107,212 M94,231 L81,246 M94,231 L107,246 " fill="none" style="stroke:#181818;stroke-width:0.5;"/><text fill="#000000" font-family="sans-serif" font-size="14" lengthAdjust="spacing" textLength="176" x="6" y="262.6074">Human Resources Manager</text></g><!--entity FM--><g id="elem_FM"><ellipse cx="94" cy="558" fill="#F1F1F1" rx="8" ry="8" style="stroke:#181818;stroke-width:0.5;"/><path d="M94,566 L94,593 M81,574 L107,574 M94,593 L81,608 M94,593 L107,608 " fill="none" style="stroke:#181818;stroke-width:0.5;"/><text fill="#000000" font-family="sans-serif" font-size="14" lengthAdjust="spacing" textLength="92" x="48" y="624.6074">Fleet Manager</text></g><!--link HRM to US 001 - Register skills--><g id="link_HRM_US 001 - Register skills"><path d="M124.94,187.41 C147.59,160.22 181.03,125.47 218,105 C243.45,90.91 267.9453,83.1098 295.7353,77.3398 " fill="none" id="HRM-to-US 001 - Register skills" style="stroke:#181818;stroke-width:1.0;"/><polygon fill="#181818" points="301.61,76.12,291.9848,74.0332,296.7144,77.1365,293.6111,81.8661,301.61,76.12" style="stroke:#181818;stroke-width:1.0;"/></g><!--link HRM to US 002 - Register a job--><g id="link_HRM_US 002 - Register a job"><path d="M182.28,194.41 C194.22,190.35 206.36,186.43 218,183 C249.47,173.72 278.9344,166.4882 308.9244,159.7882 " fill="none" id="HRM-to-US 002 - Register a job" style="stroke:#181818;stroke-width:1.0;"/><polygon fill="#181818" points="314.78,158.48,305.1244,156.5385,309.9003,159.5702,306.8687,164.3461,314.78,158.48" style="stroke:#181818;stroke-width:1.0;"/></g><!--link HRM to US 003 - Register a collaborator--><g id="link_HRM_US 003 - Register a collaborator"><path d="M182.25,227 C208.39,227 231.52,227 259.34,227 " fill="none" id="HRM-to-US 003 - Register a collaborator" style="stroke:#181818;stroke-width:1.0;"/><polygon fill="#181818" points="265.34,227,256.34,223,260.34,227,256.34,231,265.34,227" style="stroke:#181818;stroke-width:1.0;"/></g><!--link HRM to US 004 - Assign skills to a collaborator--><g id="link_HRM_US 004 - Assign skills to a collaborator"><path d="M182.12,258.93 C194.13,263.11 206.34,267.24 218,271 C244.2,279.45 267.1724,286.3361 293.2924,293.8261 " fill="none" id="HRM-to-US 004 - Assign skills to a collaborator" style="stroke:#181818;stroke-width:1.0;"/><polygon fill="#181818" points="299.06,295.48,291.5112,289.1542,294.2537,294.1018,289.3061,296.8442,299.06,295.48" style="stroke:#181818;stroke-width:1.0;"/></g><!--link HRM to US 005 - Generate a team proposal--><g id="link_HRM_US 005 - Generate a team proposal"><path d="M120.64,266.8 C142.81,298.14 177.61,340.64 218,366 C238.09,378.62 255.8891,386.2192 278.8491,393.0492 " fill="none" id="HRM-to-US 005 - Generate a team proposal" style="stroke:#181818;stroke-width:1.0;"/><polygon fill="#181818" points="284.6,394.76,277.1141,388.3599,279.8075,393.3344,274.8331,396.0278,284.6,394.76" style="stroke:#181818;stroke-width:1.0;"/></g><!--link FM to US 006 - Register a vehicle--><g id="link_FM_US 006 - Register a vehicle"><path d="M140.06,569.79 C163.11,560.37 191.78,549.31 218,541 C247.37,531.7 274.3716,524.5933 303.0716,517.7933 " fill="none" id="FM-to-US 006 - Register a vehicle" style="stroke:#181818;stroke-width:1.0;"/><polygon fill="#181818" points="308.91,516.41,299.2303,514.5927,304.0447,517.5628,301.0747,522.3772,308.91,516.41" style="stroke:#181818;stroke-width:1.0;"/></g><!--link FM to US 007 - Register a vehicle?s check-up--><g id="link_FM_US 007 - Register a vehicle&#8217;s check-up"><path d="M140.23,589 C169.02,589 201.98,589 240.32,589 " fill="none" id="FM-to-US 007 - Register a vehicle&#8217;s check-up" style="stroke:#181818;stroke-width:1.0;"/><polygon fill="#181818" points="246.32,589,237.32,585,241.32,589,237.32,593,246.32,589" style="stroke:#181818;stroke-width:1.0;"/></g><!--link FM to US 008 - List vehicles needing check-up--><g id="link_FM_US 008 - List vehicles needing check-up"><path d="M140.25,607.27 C163.36,616.35 192.01,627.23 218,636 C243.41,644.58 265.5123,651.4221 291.0623,658.9121 " fill="none" id="FM-to-US 008 - List vehicles needing check-up" style="stroke:#181818;stroke-width:1.0;"/><polygon fill="#181818" points="296.82,660.6,289.3087,654.2297,292.0219,659.1934,287.0582,661.9067,296.82,660.6" style="stroke:#181818;stroke-width:1.0;"/></g><!--SRC=[XT1DJiCm48RXlKynwWeMaSe_gqfiqYx8fXK7cBeVZgbZHnw73KBY6boFa-08AYKo4ci_xyp83i-9Kg1eJPleO2Dqii4hnJg5I8lDqB6dBIGCKKEeOSy6SK4ijDas9rOx8CqUwqOfDKvZRnne7G6_wrdZ1tNmYTuKZKEegbPqzhIZvVA2ghpCM4c894Vhd9mNw7AAc5x2lZHNSwE3SxmFaVEr9RxE-4746l-xS_oH_wAR7AtXaP-HSG9trCVG1s4twdgAR-VdlAArsg5WTt-ohuzF8Tr27wkXBvhxt3pcugI5F72mtaoIT_KD]--></g></svg>