<?xml version="1.0" encoding="us-ascii" standalone="no"?><svg xmlns="http://www.w3.org/2000/svg" xmlns:xlink="http://www.w3.org/1999/xlink" contentStyleType="text/css" height="659px" preserveAspectRatio="none" style="width:401px;height:659px;background:#FFFFFF;" version="1.1" viewBox="0 0 401 659" width="401px" zoomAndPan="magnify"><defs/><g><!--class CreateSkillController--><g id="elem_CreateSkillController"><rect codeLine="3" fill="#F1F1F1" height="64.4883" id="CreateSkillController" rx="2.5" ry="2.5" style="stroke:#181818;stroke-width:0.5;" width="175" x="102" y="132"/><ellipse cx="117" cy="148" fill="#ADD1B2" rx="11" ry="11" style="stroke:#181818;stroke-width:1.0;"/><path d="M119.9731,153.6431 Q119.3921,153.9419 118.7529,154.0913 Q118.1138,154.2407 117.4082,154.2407 Q114.9014,154.2407 113.5815,152.5889 Q112.2617,150.937 112.2617,147.8159 Q112.2617,144.6865 113.5815,143.0347 Q114.9014,141.3828 117.4082,141.3828 Q118.1138,141.3828 118.7612,141.5322 Q119.4087,141.6816 119.9731,141.9805 L119.9731,144.7031 Q119.3423,144.1221 118.7488,143.8523 Q118.1553,143.5825 117.5244,143.5825 Q116.1797,143.5825 115.4949,144.6492 Q114.8101,145.7158 114.8101,147.8159 Q114.8101,149.9077 115.4949,150.9744 Q116.1797,152.041 117.5244,152.041 Q118.1553,152.041 118.7488,151.7712 Q119.3423,151.5015 119.9731,150.9204 Z " fill="#000000"/><text fill="#000000" font-family="sans-serif" font-size="14" lengthAdjust="spacing" textLength="143" x="131" y="153.291">CreateSkillController</text><line style="stroke:#181818;stroke-width:0.5;" x1="103" x2="276" y1="164" y2="164"/><line style="stroke:#181818;stroke-width:0.5;" x1="103" x2="276" y1="172" y2="172"/><text fill="#000000" font-family="sans-serif" font-size="14" lengthAdjust="spacing" textLength="129" x="108" y="189.5352">+createSkill(name)</text></g><!--class CreateSkillUI--><g id="elem_CreateSkillUI"><rect codeLine="8" fill="#F1F1F1" height="48" id="CreateSkillUI" rx="2.5" ry="2.5" style="stroke:#181818;stroke-width:0.5;" width="119" x="130" y="7"/><ellipse cx="145" cy="23" fill="#ADD1B2" rx="11" ry="11" style="stroke:#181818;stroke-width:1.0;"/><path d="M147.9731,28.6431 Q147.3921,28.9419 146.7529,29.0913 Q146.1138,29.2407 145.4082,29.2407 Q142.9014,29.2407 141.5815,27.5889 Q140.2617,25.937 140.2617,22.8159 Q140.2617,19.6865 141.5815,18.0347 Q142.9014,16.3828 145.4082,16.3828 Q146.1138,16.3828 146.7612,16.5322 Q147.4087,16.6816 147.9731,16.9805 L147.9731,19.7031 Q147.3423,19.1221 146.7488,18.8523 Q146.1553,18.5825 145.5244,18.5825 Q144.1797,18.5825 143.4949,19.6492 Q142.8101,20.7158 142.8101,22.8159 Q142.8101,24.9077 143.4949,25.9744 Q144.1797,27.041 145.5244,27.041 Q146.1553,27.041 146.7488,26.7712 Q147.3423,26.5015 147.9731,25.9204 Z " fill="#000000"/><text fill="#000000" font-family="sans-serif" font-size="14" lengthAdjust="spacing" textLength="87" x="159" y="28.291">CreateSkillUI</text><line style="stroke:#181818;stroke-width:0.5;" x1="131" x2="248" y1="39" y2="39"/><line style="stroke:#181818;stroke-width:0.5;" x1="131" x2="248" y1="47" y2="47"/></g><!--class Skill--><g id="elem_Skill"><rect codeLine="12" fill="#F1F1F1" height="64.4883" id="Skill" rx="2.5" ry="2.5" style="stroke:#181818;stroke-width:0.5;" width="106" x="180.5" y="588"/><ellipse cx="216.2" cy="604" fill="#ADD1B2" rx="11" ry="11" style="stroke:#181818;stroke-width:1.0;"/><path d="M219.1731,609.6431 Q218.5921,609.9419 217.9529,610.0913 Q217.3138,610.2407 216.6082,610.2407 Q214.1014,610.2407 212.7815,608.5889 Q211.4617,606.937 211.4617,603.8159 Q211.4617,600.6865 212.7815,599.0347 Q214.1014,597.3828 216.6082,597.3828 Q217.3138,597.3828 217.9612,597.5322 Q218.6087,597.6816 219.1731,597.9805 L219.1731,600.7031 Q218.5423,600.1221 217.9488,599.8523 Q217.3553,599.5825 216.7244,599.5825 Q215.3797,599.5825 214.6949,600.6492 Q214.0101,601.7158 214.0101,603.8159 Q214.0101,605.9077 214.6949,606.9744 Q215.3797,608.041 216.7244,608.041 Q217.3553,608.041 217.9488,607.7712 Q218.5423,607.5015 219.1731,606.9204 Z " fill="#000000"/><text fill="#000000" font-family="sans-serif" font-size="14" lengthAdjust="spacing" textLength="28" x="234.8" y="609.291">Skill</text><line style="stroke:#181818;stroke-width:0.5;" x1="181.5" x2="285.5" y1="620" y2="620"/><text fill="#000000" font-family="sans-serif" font-size="14" lengthAdjust="spacing" textLength="94" x="186.5" y="637.5352">+String name</text><line style="stroke:#181818;stroke-width:0.5;" x1="181.5" x2="285.5" y1="644.4883" y2="644.4883"/></g><!--class Repositories--><g id="elem_Repositories"><rect codeLine="17" fill="#F1F1F1" height="97.4648" id="Repositories" rx="2.5" ry="2.5" style="stroke:#181818;stroke-width:0.5;" width="209" x="7" y="273"/><ellipse cx="64.75" cy="289" fill="#ADD1B2" rx="11" ry="11" style="stroke:#181818;stroke-width:1.0;"/><path d="M67.7231,294.6431 Q67.1421,294.9419 66.5029,295.0913 Q65.8638,295.2407 65.1582,295.2407 Q62.6514,295.2407 61.3315,293.5889 Q60.0117,291.937 60.0117,288.8159 Q60.0117,285.6865 61.3315,284.0347 Q62.6514,282.3828 65.1582,282.3828 Q65.8638,282.3828 66.5112,282.5322 Q67.1587,282.6816 67.7231,282.9805 L67.7231,285.7031 Q67.0923,285.1221 66.4988,284.8523 Q65.9053,284.5825 65.2744,284.5825 Q63.9297,284.5825 63.2449,285.6492 Q62.5601,286.7158 62.5601,288.8159 Q62.5601,290.9077 63.2449,291.9744 Q63.9297,293.041 65.2744,293.041 Q65.9053,293.041 66.4988,292.7712 Q67.0923,292.5015 67.7231,291.9204 Z " fill="#000000"/><text fill="#000000" font-family="sans-serif" font-size="14" lengthAdjust="spacing" textLength="85" x="85.25" y="294.291">Repositories</text><line style="stroke:#181818;stroke-width:0.5;" x1="8" x2="215" y1="305" y2="305"/><line style="stroke:#181818;stroke-width:0.5;" x1="8" x2="215" y1="313" y2="313"/><text fill="#000000" font-family="sans-serif" font-size="14" lengthAdjust="spacing" textLength="103" x="13" y="330.5352">-Repositories()</text><text fill="#000000" font-family="sans-serif" font-size="14" lengthAdjust="spacing" textLength="197" x="13" y="347.0234">+getInstance() : Repositories</text><text fill="#000000" font-family="sans-serif" font-size="14" lengthAdjust="spacing" textLength="148" x="13" y="363.5117">+getSkillRepository();</text></g><!--class SkillRepository--><g id="elem_SkillRepository"><rect codeLine="23" fill="#F1F1F1" height="64.4883" id="SkillRepository" rx="2.5" ry="2.5" style="stroke:#181818;stroke-width:0.5;" width="133" x="98" y="447"/><ellipse cx="113" cy="463" fill="#ADD1B2" rx="11" ry="11" style="stroke:#181818;stroke-width:1.0;"/><path d="M115.9731,468.6431 Q115.3921,468.9419 114.7529,469.0913 Q114.1138,469.2407 113.4082,469.2407 Q110.9014,469.2407 109.5815,467.5889 Q108.2617,465.937 108.2617,462.8159 Q108.2617,459.6865 109.5815,458.0347 Q110.9014,456.3828 113.4082,456.3828 Q114.1138,456.3828 114.7612,456.5322 Q115.4087,456.6816 115.9731,456.9805 L115.9731,459.7031 Q115.3423,459.1221 114.7488,458.8523 Q114.1553,458.5825 113.5244,458.5825 Q112.1797,458.5825 111.4949,459.6492 Q110.8101,460.7158 110.8101,462.8159 Q110.8101,464.9077 111.4949,465.9744 Q112.1797,467.041 113.5244,467.041 Q114.1553,467.041 114.7488,466.7712 Q115.3423,466.5015 115.9731,465.9204 Z " fill="#000000"/><text fill="#000000" font-family="sans-serif" font-size="14" lengthAdjust="spacing" textLength="101" x="127" y="468.291">SkillRepository</text><line style="stroke:#181818;stroke-width:0.5;" x1="99" x2="230" y1="479" y2="479"/><line style="stroke:#181818;stroke-width:0.5;" x1="99" x2="230" y1="487" y2="487"/><text fill="#000000" font-family="sans-serif" font-size="14" lengthAdjust="spacing" textLength="101" x="104" y="504.5352">+getSkillsList()</text></g><!--link CreateSkillUI to CreateSkillController--><g id="link_CreateSkillUI_CreateSkillController"><path codeLine="26" d="M189.5,55.42 C189.5,76.76 189.5,102.44 189.5,125.9 " fill="none" id="CreateSkillUI-to-CreateSkillController" style="stroke:#181818;stroke-width:1.0;stroke-dasharray:7.0,7.0;"/><polygon fill="#181818" points="189.5,131.9,193.5,122.9,189.5,126.9,185.5,122.9,189.5,131.9" style="stroke:#181818;stroke-width:1.0;"/><text fill="#000000" font-family="sans-serif" font-size="13" lengthAdjust="spacing" textLength="120" x="190.5" y="98.5684">inputs wanted data</text></g><!--link CreateSkillController to Repositories--><g id="link_CreateSkillController_Repositories"><path codeLine="27" d="M111.81,196.43 C100.49,204.39 90.36,214.14 83.5,226 C75.28,240.22 75.1341,251.4124 80.6941,266.9124 " fill="none" id="CreateSkillController-to-Repositories" style="stroke:#181818;stroke-width:1.0;stroke-dasharray:7.0,7.0;"/><polygon fill="#181818" points="82.72,272.56,83.4463,262.738,81.0318,267.8536,75.9161,265.4391,82.72,272.56" style="stroke:#181818;stroke-width:1.0;"/><text fill="#000000" font-family="sans-serif" font-size="13" lengthAdjust="spacing" textLength="182" x="84.5" y="239.5684">inserts skill in the repository</text></g><!--link Repositories to SkillRepository--><g id="link_Repositories_SkillRepository"><path codeLine="28" d="M127.83,370.42 C136.29,395.23 144.4337,419.141 151.8837,440.991 " fill="none" id="Repositories-to-SkillRepository" style="stroke:#181818;stroke-width:1.0;stroke-dasharray:7.0,7.0;"/><polygon fill="#181818" points="153.82,446.67,154.7015,436.8607,152.2064,441.9375,147.1296,439.4424,153.82,446.67" style="stroke:#181818;stroke-width:1.0;"/><text fill="#000000" font-family="sans-serif" font-size="13" lengthAdjust="spacing" textLength="31" x="144.5" y="413.5684">Have</text></g><!--link SkillRepository to Skill--><g id="link_SkillRepository_Skill"><path codeLine="29" d="M179.98,511.19 C191.35,534.09 204.0527,559.6655 215.4027,582.5355 " fill="none" id="SkillRepository-to-Skill" style="stroke:#181818;stroke-width:1.0;stroke-dasharray:7.0,7.0;"/><polygon fill="#181818" points="218.07,587.91,217.6521,578.07,215.8473,583.4312,210.486,581.6264,218.07,587.91" style="stroke:#181818;stroke-width:1.0;"/><text fill="#000000" font-family="sans-serif" font-size="13" lengthAdjust="spacing" textLength="31" x="204.5" y="554.5684">Have</text></g><!--link Skill to CreateSkillController--><g id="link_Skill_CreateSkillController"><path codeLine="30" d="M247.31,587.62 C275.67,518.18 332.82,348.04 271.5,226 C265.68,214.43 261.1674,208.2849 251.0274,200.0049 " fill="none" id="Skill-to-CreateSkillController" style="stroke:#181818;stroke-width:1.0;stroke-dasharray:7.0,7.0;"/><polygon fill="#181818" points="246.38,196.21,250.8212,205.0007,250.2528,199.3724,255.8811,198.8041,246.38,196.21" style="stroke:#181818;stroke-width:1.0;"/><text fill="#000000" font-family="sans-serif" font-size="13" lengthAdjust="spacing" textLength="96" x="297.5" y="413.5684">will be inserted</text></g><!--SRC=[TP31QiCm38RlUWeT4yhApXaCHYyBzBJG1r0JqPccTh7KbctatMSdJJg7p3Vh_txzakHex9aydR1kIUHDrPlzHRcidQtCD-CpGA_WnZCfLqVJjXjdrRksPOy_WE6jweUOMJfn3Xqi67TbC4HfKFeQZ3sg46qF6Eq0sC4m4NxmsObHvmtB7SMdf9hbGtM51zRIYfAjESknIAW_J9yxQLzP_XBpni2PEcO-dB8reZ6qWtItzVfr-Km5XYjVLF16Lhd1XfHW-Q2nHx9oz0hxO9Q8XX_g9wEV1eG4Z_xv1WM-qvLXNfxG1FX_Yu3T8h3d-qZSm2y0]--></g></svg>