<?xml version="1.0" encoding="us-ascii" standalone="no"?><svg xmlns="http://www.w3.org/2000/svg" xmlns:xlink="http://www.w3.org/1999/xlink" contentStyleType="text/css" height="442px" preserveAspectRatio="none" style="width:241px;height:442px;background:#FFFFFF;" version="1.1" viewBox="0 0 241 442" width="241px" zoomAndPan="magnify"><defs/><g><!--class RegisterSkillController--><g id="elem_RegisterSkillController"><rect codeLine="3" fill="#F1F1F1" height="64.4883" id="RegisterSkillController" rx="2.5" ry="2.5" style="stroke:#181818;stroke-width:0.5;" width="186" x="27.5" y="115"/><ellipse cx="42.5" cy="131" fill="#ADD1B2" rx="11" ry="11" style="stroke:#181818;stroke-width:1.0;"/><path d="M45.4731,136.6431 Q44.8921,136.9419 44.2529,137.0913 Q43.6138,137.2407 42.9082,137.2407 Q40.4014,137.2407 39.0815,135.5889 Q37.7617,133.937 37.7617,130.8159 Q37.7617,127.6865 39.0815,126.0347 Q40.4014,124.3828 42.9082,124.3828 Q43.6138,124.3828 44.2612,124.5322 Q44.9087,124.6816 45.4731,124.9805 L45.4731,127.7031 Q44.8423,127.1221 44.2488,126.8523 Q43.6553,126.5825 43.0244,126.5825 Q41.6797,126.5825 40.9949,127.6492 Q40.3101,128.7158 40.3101,130.8159 Q40.3101,132.9077 40.9949,133.9744 Q41.6797,135.041 43.0244,135.041 Q43.6553,135.041 44.2488,134.7712 Q44.8423,134.5015 45.4731,133.9204 Z " fill="#000000"/><text fill="#000000" font-family="sans-serif" font-size="14" lengthAdjust="spacing" textLength="154" x="56.5" y="136.291">RegisterSkillController</text><line style="stroke:#181818;stroke-width:0.5;" x1="28.5" x2="212.5" y1="147" y2="147"/><line style="stroke:#181818;stroke-width:0.5;" x1="28.5" x2="212.5" y1="155" y2="155"/><text fill="#000000" font-family="sans-serif" font-size="14" lengthAdjust="spacing" textLength="140" x="33.5" y="172.5352">+registerSkill(name)</text></g><!--class RegisterSkillUI--><g id="elem_RegisterSkillUI"><rect codeLine="8" fill="#F1F1F1" height="48" id="RegisterSkillUI" rx="2.5" ry="2.5" style="stroke:#181818;stroke-width:0.5;" width="130" x="55.5" y="7"/><ellipse cx="70.5" cy="23" fill="#ADD1B2" rx="11" ry="11" style="stroke:#181818;stroke-width:1.0;"/><path d="M73.4731,28.6431 Q72.8921,28.9419 72.2529,29.0913 Q71.6138,29.2407 70.9082,29.2407 Q68.4014,29.2407 67.0815,27.5889 Q65.7617,25.937 65.7617,22.8159 Q65.7617,19.6865 67.0815,18.0347 Q68.4014,16.3828 70.9082,16.3828 Q71.6138,16.3828 72.2612,16.5322 Q72.9087,16.6816 73.4731,16.9805 L73.4731,19.7031 Q72.8423,19.1221 72.2488,18.8523 Q71.6553,18.5825 71.0244,18.5825 Q69.6797,18.5825 68.9949,19.6492 Q68.3101,20.7158 68.3101,22.8159 Q68.3101,24.9077 68.9949,25.9744 Q69.6797,27.041 71.0244,27.041 Q71.6553,27.041 72.2488,26.7712 Q72.8423,26.5015 73.4731,25.9204 Z " fill="#000000"/><text fill="#000000" font-family="sans-serif" font-size="14" lengthAdjust="spacing" textLength="98" x="84.5" y="28.291">RegisterSkillUI</text><line style="stroke:#181818;stroke-width:0.5;" x1="56.5" x2="184.5" y1="39" y2="39"/><line style="stroke:#181818;stroke-width:0.5;" x1="56.5" x2="184.5" y1="47" y2="47"/></g><!--class Collaborator--><g id="elem_Collaborator"><rect codeLine="10" fill="#F1F1F1" height="196.3945" id="Collaborator" rx="2.5" ry="2.5" style="stroke:#181818;stroke-width:0.5;" width="227" x="7" y="239"/><ellipse cx="72.75" cy="255" fill="#ADD1B2" rx="11" ry="11" style="stroke:#181818;stroke-width:1.0;"/><path d="M75.7231,260.6431 Q75.1421,260.9419 74.5029,261.0913 Q73.8638,261.2407 73.1582,261.2407 Q70.6514,261.2407 69.3315,259.5889 Q68.0117,257.937 68.0117,254.8159 Q68.0117,251.6865 69.3315,250.0347 Q70.6514,248.3828 73.1582,248.3828 Q73.8638,248.3828 74.5112,248.5322 Q75.1587,248.6816 75.7231,248.9805 L75.7231,251.7031 Q75.0923,251.1221 74.4988,250.8523 Q73.9053,250.5825 73.2744,250.5825 Q71.9297,250.5825 71.2449,251.6492 Q70.5601,252.7158 70.5601,254.8159 Q70.5601,256.9077 71.2449,257.9744 Q71.9297,259.041 73.2744,259.041 Q73.9053,259.041 74.4988,258.7712 Q75.0923,258.5015 75.7231,257.9204 Z " fill="#000000"/><text fill="#000000" font-family="sans-serif" font-size="14" lengthAdjust="spacing" textLength="87" x="93.25" y="260.291">Collaborator</text><line style="stroke:#181818;stroke-width:0.5;" x1="8" x2="233" y1="271" y2="271"/><text fill="#000000" font-family="sans-serif" font-size="14" lengthAdjust="spacing" textLength="91" x="13" y="288.5352">-String name</text><text fill="#000000" font-family="sans-serif" font-size="14" lengthAdjust="spacing" textLength="106" x="13" y="305.0234">-Date birthdate</text><text fill="#000000" font-family="sans-serif" font-size="14" lengthAdjust="spacing" textLength="144" x="13" y="321.5117">-Date admissionDate</text><text fill="#000000" font-family="sans-serif" font-size="14" lengthAdjust="spacing" textLength="62" x="13" y="338">-address</text><text fill="#000000" font-family="sans-serif" font-size="14" lengthAdjust="spacing" textLength="99" x="13" y="354.4883">phoneNumber</text><text fill="#000000" font-family="sans-serif" font-size="14" lengthAdjust="spacing" textLength="37" x="13" y="370.9766">email</text><text fill="#000000" font-family="sans-serif" font-size="14" lengthAdjust="spacing" textLength="115" x="13" y="387.4648">taxpayerNumber</text><text fill="#000000" font-family="sans-serif" font-size="14" lengthAdjust="spacing" textLength="193" x="13" y="403.9531">identificationDocumentType</text><text fill="#000000" font-family="sans-serif" font-size="14" lengthAdjust="spacing" textLength="215" x="13" y="420.4414">identificationDocumentNumber</text><line style="stroke:#181818;stroke-width:0.5;" x1="8" x2="233" y1="427.3945" y2="427.3945"/></g><!--link RegisterSkillUI to RegisterSkillController--><g id="link_RegisterSkillUI_RegisterSkillController"><path codeLine="21" d="M120.5,55.34 C120.5,72.54 120.5,90.11 120.5,108.9 " fill="none" id="RegisterSkillUI-to-RegisterSkillController" style="stroke:#181818;stroke-width:1.0;stroke-dasharray:7.0,7.0;"/><polygon fill="#181818" points="120.5,114.9,124.5,105.9,120.5,109.9,116.5,105.9,120.5,114.9" style="stroke:#181818;stroke-width:1.0;"/></g><!--link RegisterSkillController to Collaborator--><g id="link_RegisterSkillController_Collaborator"><path codeLine="22" d="M120.5,179.47 C120.5,195.98 120.5,211.21 120.5,232.67 " fill="none" id="RegisterSkillController-to-Collaborator" style="stroke:#181818;stroke-width:1.0;stroke-dasharray:7.0,7.0;"/><polygon fill="#181818" points="120.5,238.67,124.5,229.67,120.5,233.67,116.5,229.67,120.5,238.67" style="stroke:#181818;stroke-width:1.0;"/></g><!--SRC=[VL3B2i8m4BpdAt9KHF4B1D6B5mzMFs3RhBgOHzbimGVzTzDOf8YwfvqPPfATU25V0uFJbOKObo9CPIEugO8lw8vwhbHMz0vF50Mvk92rg-25WxN8-g5qcWaFvP47XsFLgg_cmoQPsbvPfHGe0uE4FcjQf3_ua-uoCbw3e2w9vMpIbfzxSM0SnKZ1hzyy6CCOOmRrENZSDgv4pXWTaCsRmBM66_9098DUw4WLI1SOgiObOd-hyO_S-rlrUTzijlXLcFfLPESPjl44]--></g></svg>