<?xml version="1.0" encoding="us-ascii" standalone="no"?><svg xmlns="http://www.w3.org/2000/svg" xmlns:xlink="http://www.w3.org/1999/xlink" contentStyleType="text/css" height="1093px" preserveAspectRatio="none" style="width:296px;height:1093px;background:#FFFFFF;" version="1.1" viewBox="0 0 296 1093" width="296px" zoomAndPan="magnify"><defs/><g><text fill="#000000" font-family="sans-serif" font-size="14" font-weight="bold" lengthAdjust="spacing" textLength="161" x="60.75" y="25.1074">Register a new vehicle</text><!--class RegisterNewVehicleController--><g id="elem_RegisterNewVehicleController"><rect codeLine="6" fill="#F1F1F1" height="271.4531" id="RegisterNewVehicleController" rx="2.5" ry="2.5" style="stroke:#181818;stroke-width:0.5;" width="253" x="33.5" y="192.6211"/><ellipse cx="63.8" cy="208.6211" fill="#ADD1B2" rx="11" ry="11" style="stroke:#181818;stroke-width:1.0;"/><path d="M66.5656,204.4961 Q66.7219,204.2773 66.9094,204.168 Q67.0969,204.0586 67.3156,204.0586 Q67.6906,204.0586 67.925,204.3242 Q68.1594,204.5742 68.1594,205.1836 L68.1594,206.6367 Q68.1594,207.2461 67.925,207.5117 Q67.6906,207.7773 67.3156,207.7773 Q66.9719,207.7773 66.7688,207.5742 Q66.5656,207.3867 66.4563,206.8711 Q66.4094,206.5117 66.2219,206.3242 Q65.8938,205.9492 65.2844,205.7305 Q64.675,205.5117 64.05,205.5117 Q63.2844,205.5117 62.6438,205.8398 Q62.0188,206.168 61.5188,206.918 Q61.0344,207.668 61.0344,208.6992 L61.0344,209.793 Q61.0344,211.0273 61.925,211.8555 Q62.8156,212.668 64.4094,212.668 Q65.3469,212.668 66.0031,212.418 Q66.3938,212.2617 66.8156,211.8242 Q67.0813,211.5586 67.2219,211.4805 Q67.3781,211.4023 67.5813,211.4023 Q67.9094,211.4023 68.1594,211.668 Q68.425,211.918 68.425,212.2617 Q68.425,212.6055 68.0813,213.0117 Q67.5813,213.5898 66.7844,213.918 Q65.7063,214.3711 64.4094,214.3711 Q62.8938,214.3711 61.6906,213.7461 Q60.7063,213.2461 60.0188,212.1836 Q59.3313,211.1055 59.3313,209.8242 L59.3313,208.668 Q59.3313,207.3398 59.9406,206.1992 Q60.5656,205.043 61.6594,204.4336 Q62.7531,203.8086 63.9875,203.8086 Q64.7219,203.8086 65.3625,203.9805 Q66.0188,204.1367 66.5656,204.4961 Z " fill="#000000"/><text fill="#000000" font-family="sans-serif" font-size="14" lengthAdjust="spacing" textLength="187" x="81.2" y="214.418">RegisterNewVehicleController</text><line style="stroke:#181818;stroke-width:0.5;" x1="34.5" x2="285.5" y1="224.6211" y2="224.6211"/><text fill="#000000" font-family="sans-serif" font-size="14" lengthAdjust="spacing" textLength="129" x="39.5" y="243.7285">vehiclePlate : String,</text><text fill="#000000" font-family="sans-serif" font-size="14" lengthAdjust="spacing" textLength="91" x="39.5" y="262.3496">model : String,</text><text fill="#000000" font-family="sans-serif" font-size="14" lengthAdjust="spacing" textLength="80" x="39.5" y="280.9707">type : String,</text><text fill="#000000" font-family="sans-serif" font-size="14" lengthAdjust="spacing" textLength="61" x="39.5" y="299.5918">Tare : int,</text><text fill="#000000" font-family="sans-serif" font-size="14" lengthAdjust="spacing" textLength="113" x="39.5" y="318.2129">GrossWeight : int,</text><text fill="#000000" font-family="sans-serif" font-size="14" lengthAdjust="spacing" textLength="99" x="39.5" y="336.834">CurrentKm : int,</text><text fill="#000000" font-family="sans-serif" font-size="14" lengthAdjust="spacing" textLength="129" x="39.5" y="355.4551">RegisterDate : Date,</text><text fill="#000000" font-family="sans-serif" font-size="14" lengthAdjust="spacing" textLength="144" x="39.5" y="374.0762">AcquisitionDate : Date,</text><line style="stroke:#181818;stroke-width:0.5;" x1="34.5" x2="285.5" y1="381.5898" y2="381.5898"/><text fill="#000000" font-family="sans-serif" font-size="14" lengthAdjust="spacing" textLength="197" x="39.5" y="400.6973">+registerVehicle(brand : String,</text><text fill="#000000" font-family="sans-serif" font-size="14" lengthAdjust="spacing" textLength="241" x="39.5" y="419.3184">MaintenanceCheckupFrequency : int,)</text><text fill="#000000" font-family="sans-serif" font-size="14" lengthAdjust="spacing" textLength="4" x="39.5" y="437.9395">&#160;</text><text fill="#000000" font-family="sans-serif" font-size="14" lengthAdjust="spacing" textLength="205" x="39.5" y="456.5605">+RegisterNewVehicleController()</text></g><!--class RegisterNewVehicleUI--><g id="elem_RegisterNewVehicleUI"><rect codeLine="21" fill="#F1F1F1" height="66.6211" id="RegisterNewVehicleUI" rx="2.5" ry="2.5" style="stroke:#181818;stroke-width:0.5;" width="175" x="72.5" y="46.6211"/><ellipse cx="90.2" cy="62.6211" fill="#ADD1B2" rx="11" ry="11" style="stroke:#181818;stroke-width:1.0;"/><path d="M92.9656,58.4961 Q93.1219,58.2773 93.3094,58.168 Q93.4969,58.0586 93.7156,58.0586 Q94.0906,58.0586 94.325,58.3242 Q94.5594,58.5742 94.5594,59.1836 L94.5594,60.6367 Q94.5594,61.2461 94.325,61.5117 Q94.0906,61.7773 93.7156,61.7773 Q93.3719,61.7773 93.1688,61.5742 Q92.9656,61.3867 92.8563,60.8711 Q92.8094,60.5117 92.6219,60.3242 Q92.2938,59.9492 91.6844,59.7305 Q91.075,59.5117 90.45,59.5117 Q89.6844,59.5117 89.0438,59.8398 Q88.4188,60.168 87.9188,60.918 Q87.4344,61.668 87.4344,62.6992 L87.4344,63.793 Q87.4344,65.0273 88.325,65.8555 Q89.2156,66.668 90.8094,66.668 Q91.7469,66.668 92.4031,66.418 Q92.7938,66.2617 93.2156,65.8242 Q93.4813,65.5586 93.6219,65.4805 Q93.7781,65.4023 93.9813,65.4023 Q94.3094,65.4023 94.5594,65.668 Q94.825,65.918 94.825,66.2617 Q94.825,66.6055 94.4813,67.0117 Q93.9813,67.5898 93.1844,67.918 Q92.1063,68.3711 90.8094,68.3711 Q89.2938,68.3711 88.0906,67.7461 Q87.1063,67.2461 86.4188,66.1836 Q85.7313,65.1055 85.7313,63.8242 L85.7313,62.668 Q85.7313,61.3398 86.3406,60.1992 Q86.9656,59.043 88.0594,58.4336 Q89.1531,57.8086 90.3875,57.8086 Q91.1219,57.8086 91.7625,57.9805 Q92.4188,58.1367 92.9656,58.4961 Z " fill="#000000"/><text fill="#000000" font-family="sans-serif" font-size="14" lengthAdjust="spacing" textLength="137" x="104.8" y="68.418">RegisterNewVehicleUI</text><line style="stroke:#181818;stroke-width:0.5;" x1="73.5" x2="246.5" y1="78.6211" y2="78.6211"/><line style="stroke:#181818;stroke-width:0.5;" x1="73.5" x2="246.5" y1="86.6211" y2="86.6211"/><text fill="#000000" font-family="sans-serif" font-size="14" lengthAdjust="spacing" textLength="163" x="78.5" y="105.7285">+main(args: String[]): void</text></g><!--class Repositories--><g id="elem_Repositories"><rect codeLine="25" fill="#F1F1F1" height="85.2422" id="Repositories" rx="2.5" ry="2.5" style="stroke:#181818;stroke-width:0.5;" width="168" x="7" y="542.6211"/><ellipse cx="47.65" cy="558.6211" fill="#ADD1B2" rx="11" ry="11" style="stroke:#181818;stroke-width:1.0;"/><path d="M50.4156,554.4961 Q50.5719,554.2773 50.7594,554.168 Q50.9469,554.0586 51.1656,554.0586 Q51.5406,554.0586 51.775,554.3242 Q52.0094,554.5742 52.0094,555.1836 L52.0094,556.6367 Q52.0094,557.2461 51.775,557.5117 Q51.5406,557.7773 51.1656,557.7773 Q50.8219,557.7773 50.6188,557.5742 Q50.4156,557.3867 50.3063,556.8711 Q50.2594,556.5117 50.0719,556.3242 Q49.7438,555.9492 49.1344,555.7305 Q48.525,555.5117 47.9,555.5117 Q47.1344,555.5117 46.4938,555.8398 Q45.8688,556.168 45.3688,556.918 Q44.8844,557.668 44.8844,558.6992 L44.8844,559.793 Q44.8844,561.0273 45.775,561.8555 Q46.6656,562.668 48.2594,562.668 Q49.1969,562.668 49.8531,562.418 Q50.2438,562.2617 50.6656,561.8242 Q50.9313,561.5586 51.0719,561.4805 Q51.2281,561.4023 51.4313,561.4023 Q51.7594,561.4023 52.0094,561.668 Q52.275,561.918 52.275,562.2617 Q52.275,562.6055 51.9313,563.0117 Q51.4313,563.5898 50.6344,563.918 Q49.5563,564.3711 48.2594,564.3711 Q46.7438,564.3711 45.5406,563.7461 Q44.5563,563.2461 43.8688,562.1836 Q43.1813,561.1055 43.1813,559.8242 L43.1813,558.668 Q43.1813,557.3398 43.7906,556.1992 Q44.4156,555.043 45.5094,554.4336 Q46.6031,553.8086 47.8375,553.8086 Q48.5719,553.8086 49.2125,553.9805 Q49.8688,554.1367 50.4156,554.4961 Z " fill="#000000"/><text fill="#000000" font-family="sans-serif" font-size="14" lengthAdjust="spacing" textLength="79" x="67.35" y="564.418">Repositories</text><line style="stroke:#181818;stroke-width:0.5;" x1="8" x2="174" y1="574.6211" y2="574.6211"/><line style="stroke:#181818;stroke-width:0.5;" x1="8" x2="174" y1="582.6211" y2="582.6211"/><text fill="#000000" font-family="sans-serif" font-size="14" lengthAdjust="spacing" textLength="156" x="13" y="601.7285">+getVehicleRepository();</text><text fill="#000000" font-family="sans-serif" font-size="14" lengthAdjust="spacing" textLength="101" x="13" y="620.3496">+Repositories();</text></g><!--class VehicleRepository--><g id="elem_VehicleRepository"><rect codeLine="30" fill="#F1F1F1" height="66.6211" id="VehicleRepository" rx="2.5" ry="2.5" style="stroke:#181818;stroke-width:0.5;" width="148" x="25" y="706.6211"/><ellipse cx="40.9" cy="722.6211" fill="#ADD1B2" rx="11" ry="11" style="stroke:#181818;stroke-width:1.0;"/><path d="M43.6656,718.4961 Q43.8219,718.2773 44.0094,718.168 Q44.1969,718.0586 44.4156,718.0586 Q44.7906,718.0586 45.025,718.3242 Q45.2594,718.5742 45.2594,719.1836 L45.2594,720.6367 Q45.2594,721.2461 45.025,721.5117 Q44.7906,721.7773 44.4156,721.7773 Q44.0719,721.7773 43.8688,721.5742 Q43.6656,721.3867 43.5563,720.8711 Q43.5094,720.5117 43.3219,720.3242 Q42.9938,719.9492 42.3844,719.7305 Q41.775,719.5117 41.15,719.5117 Q40.3844,719.5117 39.7438,719.8398 Q39.1188,720.168 38.6188,720.918 Q38.1344,721.668 38.1344,722.6992 L38.1344,723.793 Q38.1344,725.0273 39.025,725.8555 Q39.9156,726.668 41.5094,726.668 Q42.4469,726.668 43.1031,726.418 Q43.4938,726.2617 43.9156,725.8242 Q44.1813,725.5586 44.3219,725.4805 Q44.4781,725.4023 44.6813,725.4023 Q45.0094,725.4023 45.2594,725.668 Q45.525,725.918 45.525,726.2617 Q45.525,726.6055 45.1813,727.0117 Q44.6813,727.5898 43.8844,727.918 Q42.8063,728.3711 41.5094,728.3711 Q39.9938,728.3711 38.7906,727.7461 Q37.8063,727.2461 37.1188,726.1836 Q36.4313,725.1055 36.4313,723.8242 L36.4313,722.668 Q36.4313,721.3398 37.0406,720.1992 Q37.6656,719.043 38.7594,718.4336 Q39.8531,717.8086 41.0875,717.8086 Q41.8219,717.8086 42.4625,717.9805 Q43.1188,718.1367 43.6656,718.4961 Z " fill="#000000"/><text fill="#000000" font-family="sans-serif" font-size="14" lengthAdjust="spacing" textLength="114" x="55.1" y="728.418">VehicleRepository</text><line style="stroke:#181818;stroke-width:0.5;" x1="26" x2="172" y1="738.6211" y2="738.6211"/><line style="stroke:#181818;stroke-width:0.5;" x1="26" x2="172" y1="746.6211" y2="746.6211"/><text fill="#000000" font-family="sans-serif" font-size="14" lengthAdjust="spacing" textLength="136" x="31" y="765.7285">+VehicleRepository();</text></g><!--class Vehicle--><g id="elem_Vehicle"><rect codeLine="34" fill="#F1F1F1" height="234.2109" id="Vehicle" rx="2.5" ry="2.5" style="stroke:#181818;stroke-width:0.5;" width="251" x="38.5" y="852.6211"/><ellipse cx="136.75" cy="868.6211" fill="#ADD1B2" rx="11" ry="11" style="stroke:#181818;stroke-width:1.0;"/><path d="M139.5156,864.4961 Q139.6719,864.2773 139.8594,864.168 Q140.0469,864.0586 140.2656,864.0586 Q140.6406,864.0586 140.875,864.3242 Q141.1094,864.5742 141.1094,865.1836 L141.1094,866.6367 Q141.1094,867.2461 140.875,867.5117 Q140.6406,867.7773 140.2656,867.7773 Q139.9219,867.7773 139.7188,867.5742 Q139.5156,867.3867 139.4063,866.8711 Q139.3594,866.5117 139.1719,866.3242 Q138.8438,865.9492 138.2344,865.7305 Q137.625,865.5117 137,865.5117 Q136.2344,865.5117 135.5938,865.8398 Q134.9688,866.168 134.4688,866.918 Q133.9844,867.668 133.9844,868.6992 L133.9844,869.793 Q133.9844,871.0273 134.875,871.8555 Q135.7656,872.668 137.3594,872.668 Q138.2969,872.668 138.9531,872.418 Q139.3438,872.2617 139.7656,871.8242 Q140.0313,871.5586 140.1719,871.4805 Q140.3281,871.4023 140.5313,871.4023 Q140.8594,871.4023 141.1094,871.668 Q141.375,871.918 141.375,872.2617 Q141.375,872.6055 141.0313,873.0117 Q140.5313,873.5898 139.7344,873.918 Q138.6563,874.3711 137.3594,874.3711 Q135.8438,874.3711 134.6406,873.7461 Q133.6563,873.2461 132.9688,872.1836 Q132.2813,871.1055 132.2813,869.8242 L132.2813,868.668 Q132.2813,867.3398 132.8906,866.1992 Q133.5156,865.043 134.6094,864.4336 Q135.7031,863.8086 136.9375,863.8086 Q137.6719,863.8086 138.3125,863.9805 Q138.9688,864.1367 139.5156,864.4961 Z " fill="#000000"/><text fill="#000000" font-family="sans-serif" font-size="14" lengthAdjust="spacing" textLength="46" x="157.25" y="874.418">Vehicle</text><line style="stroke:#181818;stroke-width:0.5;" x1="39.5" x2="288.5" y1="884.6211" y2="884.6211"/><text fill="#000000" font-family="sans-serif" font-size="14" lengthAdjust="spacing" textLength="70" x="44.5" y="903.7285">Strin brand</text><text fill="#000000" font-family="sans-serif" font-size="14" lengthAdjust="spacing" textLength="117" x="44.5" y="922.3496">String vehiclePlate</text><text fill="#000000" font-family="sans-serif" font-size="14" lengthAdjust="spacing" textLength="79" x="44.5" y="940.9707">String model</text><text fill="#000000" font-family="sans-serif" font-size="14" lengthAdjust="spacing" textLength="68" x="44.5" y="959.5918">String type</text><text fill="#000000" font-family="sans-serif" font-size="14" lengthAdjust="spacing" textLength="49" x="44.5" y="978.2129">int Tare</text><text fill="#000000" font-family="sans-serif" font-size="14" lengthAdjust="spacing" textLength="101" x="44.5" y="996.834">int GrossWeight</text><text fill="#000000" font-family="sans-serif" font-size="14" lengthAdjust="spacing" textLength="87" x="44.5" y="1015.4551">int CurrentKm</text><text fill="#000000" font-family="sans-serif" font-size="14" lengthAdjust="spacing" textLength="117" x="44.5" y="1034.0762">Date RegisterDate</text><text fill="#000000" font-family="sans-serif" font-size="14" lengthAdjust="spacing" textLength="132" x="44.5" y="1052.6973">Date AcquisitionDate</text><text fill="#000000" font-family="sans-serif" font-size="14" lengthAdjust="spacing" textLength="239" x="44.5" y="1071.3184">Date MaintenanceCheckupFrequency</text><line style="stroke:#181818;stroke-width:0.5;" x1="39.5" x2="288.5" y1="1078.832" y2="1078.832"/></g><!--link RegisterNewVehicleUI to RegisterNewVehicleController--><g id="link_RegisterNewVehicleUI_RegisterNewVehicleController"><path codeLine="47" d="M160,113.7911 C160,134.5711 160,157.0211 160,186.3611 " fill="none" id="RegisterNewVehicleUI-to-RegisterNewVehicleController" style="stroke:#181818;stroke-width:1.0;stroke-dasharray:7.0,7.0;"/><polygon fill="#181818" points="160,192.3611,164,183.3611,160,187.3611,156,183.3611,160,192.3611" style="stroke:#181818;stroke-width:1.0;"/><text fill="#000000" font-family="sans-serif" font-size="13" lengthAdjust="spacing" textLength="109" x="161" y="158.6494">inputs wanted data</text></g><!--link RegisterNewVehicleController to Repositories--><g id="link_RegisterNewVehicleController_Repositories"><path codeLine="48" d="M123.58,463.7111 C115.81,492.4511 109.7275,514.9095 103.7975,536.8195 " fill="none" id="RegisterNewVehicleController-to-Repositories" style="stroke:#181818;stroke-width:1.0;stroke-dasharray:7.0,7.0;"/><polygon fill="#181818" points="102.23,542.6111,108.4424,534.9687,103.5363,537.7847,100.7202,532.8786,102.23,542.6111" style="stroke:#181818;stroke-width:1.0;"/><text fill="#000000" font-family="sans-serif" font-size="13" lengthAdjust="spacing" textLength="47" x="117" y="508.6494">saves in</text></g><!--link Vehicle to RegisterNewVehicleController--><g id="link_Vehicle_RegisterNewVehicleController"><path codeLine="49" d="M182.47,852.6111 C185.92,826.6811 189.06,799.2611 191,773.6211 C192.23,757.3711 195.57,576.0811 193,542.6211 C191.03,517.0011 188.6014,495.7504 184.8614,469.6604 " fill="none" id="Vehicle-to-RegisterNewVehicleController" style="stroke:#181818;stroke-width:1.0;stroke-dasharray:7.0,7.0;"/><polygon fill="#181818" points="184.01,463.7211,181.3276,473.1976,184.7195,468.6705,189.2466,472.0624,184.01,463.7211" style="stroke:#181818;stroke-width:1.0;"/><text fill="#000000" font-family="sans-serif" font-size="13" lengthAdjust="spacing" textLength="82" x="194" y="672.6494">will be used in</text></g><!--link Repositories to VehicleRepository--><g id="link_Repositories_VehicleRepository"><path codeLine="50" d="M93.19,627.9311 C94.48,652.7011 95.7867,677.6393 96.9867,700.5893 " fill="none" id="Repositories-to-VehicleRepository" style="stroke:#181818;stroke-width:1.0;stroke-dasharray:7.0,7.0;"/><polygon fill="#181818" points="97.3,706.5811,100.8246,697.3845,97.0389,701.5879,92.8355,697.8022,97.3,706.5811" style="stroke:#181818;stroke-width:1.0;"/><text fill="#000000" font-family="sans-serif" font-size="13" lengthAdjust="spacing" textLength="26" x="97" y="672.6494">have</text></g><!--link VehicleRepository to Vehicle--><g id="link_VehicleRepository_Vehicle"><path codeLine="51" d="M108.31,773.7211 C114.32,794.7211 120.8709,817.6722 129.1409,846.6022 " fill="none" id="VehicleRepository-to-Vehicle" style="stroke:#181818;stroke-width:1.0;stroke-dasharray:7.0,7.0;"/><polygon fill="#181818" points="130.79,852.3711,132.1623,842.6183,129.4157,847.5637,124.4704,844.8171,130.79,852.3711" style="stroke:#181818;stroke-width:1.0;"/><text fill="#000000" font-family="sans-serif" font-size="13" lengthAdjust="spacing" textLength="26" x="123" y="818.6494">have</text></g><!--SRC=[ZLFBJiCm4BpxAtniL8Gu5mcfAW9L28GeZmFYu2QhP5N7JcsdKK5y4P_0hL-6upYFqZQABubtPyRhtR51mu4-GOpQWAAC2YZe1X8CEH2YLoWofbXAGywqdXgZS9aRc8TIBF0Jw0KXnAKQYGSeNYlwJ0gZ9ETMzejGkyPKUP17Z9QAYOXEwCBgYlZCeKuiNzCZPmQ6CL8P0Hy6DTjieEWpKoKIXUc5tIgfzHjWd9W1w5ck50Xpbmx0rds-hlfGVdhnqt2TeqQ3KWobt3DR10WcGfWb4Axox4R1EWSHRds10UdZZtlDC0egxlTfvxpCQyUajfGHKx6kX_F-4KpeHc94ElnCsWjAXQ1heyLWl5QJtOw2oohR9PH1ArKf7L1gkQDQJG4-wsjsTLBdx7OVx_ct6tSkxGPABxgzRRIpMxFfcAg9DTPn4JVXhaFQw3yVj8cUQPTNF3gTy_Eh_WTVsYJBZQO5i-8HZPXXf9THIRQ3iHAx7yqszW_5xfVKJHvmT86SqoNGNDkJKP0zsP9_C4vBIknHv33HWNlG7m00]--></g></svg>