<?xml version="1.0" encoding="us-ascii" standalone="no"?><svg xmlns="http://www.w3.org/2000/svg" xmlns:xlink="http://www.w3.org/1999/xlink" contentStyleType="text/css" height="732px" preserveAspectRatio="none" style="width:1441px;height:732px;background:#FFFFFF;" version="1.1" viewBox="0 0 1441 732" width="1441px" zoomAndPan="magnify"><defs/><g><rect fill="#FFFFFF" height="567.6074" style="stroke:#181818;stroke-width:1.0;" width="10" x="229" y="90.5332"/><rect fill="#FFFFFF" height="31.291" style="stroke:#181818;stroke-width:1.0;" width="10" x="375.5" y="148.1152"/><rect fill="#FFFFFF" height="31.291" style="stroke:#181818;stroke-width:1.0;" width="10" x="482.5" y="210.6973"/><rect fill="#FFFFFF" height="31.291" style="stroke:#181818;stroke-width:1.0;" width="10" x="482.5" y="398.1035"/><rect fill="#FFFFFF" height="93.5332" style="stroke:#181818;stroke-width:1.0;" width="10" x="621.5" y="273.2793"/><rect fill="#FFFFFF" height="167.1641" style="stroke:#181818;stroke-width:1.0;" width="10" x="771" y="460.6855"/><rect fill="#FFFFFF" height="102.582" style="stroke:#181818;stroke-width:1.0;" width="10" x="1145" y="518.2676"/><rect fill="#FFFFFF" height="30" style="stroke:#181818;stroke-width:1.0;" width="10" x="1326" y="575.8496"/><rect fill="none" height="522.3164" style="stroke:#000000;stroke-width:1.5;" width="1299.5" x="136" y="105.5332"/><rect fill="none" height="145.1641" style="stroke:#000000;stroke-width:1.5;" width="718.5" x="707" y="475.6855"/><rect fill="none" height="80.582" style="stroke:#000000;stroke-width:1.5;" width="302.5" x="1113" y="533.2676"/><line style="stroke:#181818;stroke-width:0.5;stroke-dasharray:5.0,5.0;" x1="234" x2="234" y1="57.2422" y2="676.1406"/><line style="stroke:#181818;stroke-width:0.5;stroke-dasharray:5.0,5.0;" x1="380" x2="380" y1="57.2422" y2="676.1406"/><line style="stroke:#181818;stroke-width:0.5;stroke-dasharray:5.0,5.0;" x1="487" x2="487" y1="57.2422" y2="676.1406"/><line style="stroke:#181818;stroke-width:0.5;stroke-dasharray:5.0,5.0;" x1="626" x2="626" y1="57.2422" y2="676.1406"/><line style="stroke:#181818;stroke-width:0.5;stroke-dasharray:5.0,5.0;" x1="776" x2="776" y1="57.2422" y2="676.1406"/><line style="stroke:#181818;stroke-width:0.5;stroke-dasharray:5.0,5.0;" x1="1150" x2="1150" y1="57.2422" y2="676.1406"/><line style="stroke:#181818;stroke-width:0.5;stroke-dasharray:5.0,5.0;" x1="1330.5" x2="1330.5" y1="322.4004" y2="676.1406"/><rect fill="#E3E3E3" height="32.6211" rx="2.5" ry="2.5" style="stroke:#181818;stroke-width:0.5;" width="176" x="146" y="23.6211"/><text fill="#000000" font-family="sans-serif" font-size="14" lengthAdjust="spacing" textLength="162" x="153" y="45.7285">:GenerateTeamController</text><rect fill="#E3E3E3" height="32.6211" rx="2.5" ry="2.5" style="stroke:#181818;stroke-width:0.5;" width="176" x="146" y="675.1406"/><text fill="#000000" font-family="sans-serif" font-size="14" lengthAdjust="spacing" textLength="162" x="153" y="697.248">:GenerateTeamController</text><rect fill="#E3E3E3" height="32.6211" rx="2.5" ry="2.5" style="stroke:#181818;stroke-width:0.5;" width="97" x="332" y="23.6211"/><text fill="#000000" font-family="sans-serif" font-size="14" lengthAdjust="spacing" textLength="83" x="339" y="45.7285">:Repositories</text><rect fill="#E3E3E3" height="32.6211" rx="2.5" ry="2.5" style="stroke:#181818;stroke-width:0.5;" width="97" x="332" y="675.1406"/><text fill="#000000" font-family="sans-serif" font-size="14" lengthAdjust="spacing" textLength="83" x="339" y="697.248">:Repositories</text><rect fill="#E3E3E3" height="51.2422" rx="2.5" ry="2.5" style="stroke:#181818;stroke-width:0.5;" width="97" x="439" y="5"/><text fill="#000000" font-family="sans-serif" font-size="14" lengthAdjust="spacing" textLength="74" x="450.5" y="27.1074">repositories</text><text fill="#000000" font-family="sans-serif" font-size="14" lengthAdjust="spacing" textLength="83" x="446" y="45.7285">:Repositories</text><rect fill="#E3E3E3" height="51.2422" rx="2.5" ry="2.5" style="stroke:#181818;stroke-width:0.5;" width="97" x="439" y="675.1406"/><text fill="#000000" font-family="sans-serif" font-size="14" lengthAdjust="spacing" textLength="74" x="450.5" y="697.248">repositories</text><text fill="#000000" font-family="sans-serif" font-size="14" lengthAdjust="spacing" textLength="83" x="446" y="715.8691">:Repositories</text><rect fill="#E3E3E3" height="51.2422" rx="2.5" ry="2.5" style="stroke:#181818;stroke-width:0.5;" width="161" x="546" y="5"/><text fill="#000000" font-family="sans-serif" font-size="14" lengthAdjust="spacing" textLength="147" x="553" y="27.1074">collaboratorRepository:</text><text fill="#000000" font-family="sans-serif" font-size="14" lengthAdjust="spacing" textLength="146" x="553.5" y="45.7285">CollaboratorRepository</text><rect fill="#E3E3E3" height="51.2422" rx="2.5" ry="2.5" style="stroke:#181818;stroke-width:0.5;" width="161" x="546" y="675.1406"/><text fill="#000000" font-family="sans-serif" font-size="14" lengthAdjust="spacing" textLength="147" x="553" y="697.248">collaboratorRepository:</text><text fill="#000000" font-family="sans-serif" font-size="14" lengthAdjust="spacing" textLength="146" x="553.5" y="715.8691">CollaboratorRepository</text><rect fill="#E3E3E3" height="51.2422" rx="2.5" ry="2.5" style="stroke:#181818;stroke-width:0.5;" width="118" x="717" y="5"/><text fill="#000000" font-family="sans-serif" font-size="14" lengthAdjust="spacing" textLength="103" x="724.5" y="27.1074">teamRepository:</text><text fill="#000000" font-family="sans-serif" font-size="14" lengthAdjust="spacing" textLength="104" x="724" y="45.7285">TeamRepository</text><rect fill="#E3E3E3" height="51.2422" rx="2.5" ry="2.5" style="stroke:#181818;stroke-width:0.5;" width="118" x="717" y="675.1406"/><text fill="#000000" font-family="sans-serif" font-size="14" lengthAdjust="spacing" textLength="103" x="724.5" y="697.248">teamRepository:</text><text fill="#000000" font-family="sans-serif" font-size="14" lengthAdjust="spacing" textLength="104" x="724" y="715.8691">TeamRepository</text><rect fill="#E3E3E3" height="51.2422" rx="2.5" ry="2.5" style="stroke:#181818;stroke-width:0.5;" width="54" x="1123" y="5"/><text fill="#000000" font-family="sans-serif" font-size="14" lengthAdjust="spacing" textLength="31" x="1134.5" y="27.1074">team</text><text fill="#000000" font-family="sans-serif" font-size="14" lengthAdjust="spacing" textLength="40" x="1130" y="45.7285">:Team</text><rect fill="#E3E3E3" height="51.2422" rx="2.5" ry="2.5" style="stroke:#181818;stroke-width:0.5;" width="54" x="1123" y="675.1406"/><text fill="#000000" font-family="sans-serif" font-size="14" lengthAdjust="spacing" textLength="31" x="1134.5" y="697.248">team</text><text fill="#000000" font-family="sans-serif" font-size="14" lengthAdjust="spacing" textLength="40" x="1130" y="715.8691">:Team</text><rect fill="#E3E3E3" height="51.2422" rx="2.5" ry="2.5" style="stroke:#181818;stroke-width:0.5;" width="149" x="1256.5" y="675.1406"/><text fill="#000000" font-family="sans-serif" font-size="14" lengthAdjust="spacing" textLength="135" x="1263.5" y="697.248">tempCollaboratorList:</text><text fill="#000000" font-family="sans-serif" font-size="14" lengthAdjust="spacing" textLength="116" x="1273" y="715.8691">List&lt;Collaborator&gt;</text><rect fill="#FFFFFF" height="567.6074" style="stroke:#181818;stroke-width:1.0;" width="10" x="229" y="90.5332"/><rect fill="#FFFFFF" height="31.291" style="stroke:#181818;stroke-width:1.0;" width="10" x="375.5" y="148.1152"/><rect fill="#FFFFFF" height="31.291" style="stroke:#181818;stroke-width:1.0;" width="10" x="482.5" y="210.6973"/><rect fill="#FFFFFF" height="31.291" style="stroke:#181818;stroke-width:1.0;" width="10" x="482.5" y="398.1035"/><rect fill="#FFFFFF" height="93.5332" style="stroke:#181818;stroke-width:1.0;" width="10" x="621.5" y="273.2793"/><rect fill="#FFFFFF" height="167.1641" style="stroke:#181818;stroke-width:1.0;" width="10" x="771" y="460.6855"/><rect fill="#FFFFFF" height="102.582" style="stroke:#181818;stroke-width:1.0;" width="10" x="1145" y="518.2676"/><rect fill="#FFFFFF" height="30" style="stroke:#181818;stroke-width:1.0;" width="10" x="1326" y="575.8496"/><polygon fill="#181818" points="217,86.5332,227,90.5332,217,94.5332,221,90.5332" style="stroke:#181818;stroke-width:1.0;"/><line style="stroke:#181818;stroke-width:1.0;" x1="0" x2="223" y1="90.5332" y2="90.5332"/><text fill="#000000" font-family="sans-serif" font-size="13" font-weight="bold" lengthAdjust="spacing" textLength="14" x="7" y="85.2705">19</text><text fill="#000000" font-family="sans-serif" font-size="13" lengthAdjust="spacing" textLength="192" x="25" y="85.2705">createAvailableCollaboratorsList()</text><path d="M136,105.5332 L402,105.5332 L402,114.8242 L392,124.8242 L136,124.8242 L136,105.5332 " fill="#EEEEEE" style="stroke:#000000;stroke-width:1.5;"/><rect fill="none" height="522.3164" style="stroke:#000000;stroke-width:1.5;" width="1299.5" x="136" y="105.5332"/><text fill="#000000" font-family="sans-serif" font-size="13" font-weight="bold" lengthAdjust="spacing" textLength="221" x="151" y="120.5615">Create Available Collaborators List</text><polygon fill="#181818" points="363.5,144.1152,373.5,148.1152,363.5,152.1152,367.5,148.1152" style="stroke:#181818;stroke-width:1.0;"/><line style="stroke:#181818;stroke-width:1.0;" x1="239" x2="369.5" y1="148.1152" y2="148.1152"/><text fill="#000000" font-family="sans-serif" font-size="13" font-weight="bold" lengthAdjust="spacing" textLength="25" x="246" y="142.8525">19.1</text><text fill="#000000" font-family="sans-serif" font-size="13" lengthAdjust="spacing" textLength="75" x="275" y="142.8525">getInstance()</text><polygon fill="#181818" points="250,175.4063,240,179.4063,250,183.4063,246,179.4063" style="stroke:#181818;stroke-width:1.0;"/><line style="stroke:#181818;stroke-width:1.0;stroke-dasharray:2.0,2.0;" x1="244" x2="379.5" y1="179.4063" y2="179.4063"/><text fill="#000000" font-family="sans-serif" font-size="13" font-weight="bold" lengthAdjust="spacing" textLength="25" x="256" y="174.1436">19.2</text><text fill="#000000" font-family="sans-serif" font-size="13" lengthAdjust="spacing" textLength="67" x="285" y="174.1436">repositories</text><polygon fill="#181818" points="470.5,206.6973,480.5,210.6973,470.5,214.6973,474.5,210.6973" style="stroke:#181818;stroke-width:1.0;"/><line style="stroke:#181818;stroke-width:1.0;" x1="239" x2="476.5" y1="210.6973" y2="210.6973"/><text fill="#000000" font-family="sans-serif" font-size="13" font-weight="bold" lengthAdjust="spacing" textLength="25" x="246" y="205.4346">19.3</text><text fill="#000000" font-family="sans-serif" font-size="13" lengthAdjust="spacing" textLength="157" x="275" y="205.4346">getCollaboratorRepository()</text><polygon fill="#181818" points="250,237.9883,240,241.9883,250,245.9883,246,241.9883" style="stroke:#181818;stroke-width:1.0;"/><line style="stroke:#181818;stroke-width:1.0;stroke-dasharray:2.0,2.0;" x1="244" x2="486.5" y1="241.9883" y2="241.9883"/><text fill="#000000" font-family="sans-serif" font-size="13" font-weight="bold" lengthAdjust="spacing" textLength="25" x="256" y="236.7256">19.4</text><text fill="#000000" font-family="sans-serif" font-size="13" lengthAdjust="spacing" textLength="129" x="285" y="236.7256">collaboratorRepository</text><polygon fill="#181818" points="609.5,269.2793,619.5,273.2793,609.5,277.2793,613.5,273.2793" style="stroke:#181818;stroke-width:1.0;"/><line style="stroke:#181818;stroke-width:1.0;" x1="239" x2="615.5" y1="273.2793" y2="273.2793"/><text fill="#000000" font-family="sans-serif" font-size="13" font-weight="bold" lengthAdjust="spacing" textLength="25" x="246" y="268.0166">19.5</text><text fill="#000000" font-family="sans-serif" font-size="13" lengthAdjust="spacing" textLength="166" x="275" y="268.0166">createTempCollaboratorList()</text><polygon fill="#181818" points="1244.5,300.5703,1254.5,304.5703,1244.5,308.5703,1248.5,304.5703" style="stroke:#181818;stroke-width:1.0;"/><line style="stroke:#181818;stroke-width:1.0;" x1="631.5" x2="1250.5" y1="304.5703" y2="304.5703"/><text fill="#000000" font-family="sans-serif" font-size="13" font-weight="bold" lengthAdjust="spacing" textLength="25" x="638.5" y="299.3076">19.6</text><text fill="#000000" font-family="sans-serif" font-size="13" lengthAdjust="spacing" textLength="127" x="667.5" y="299.3076">clone(collaboratorList)</text><rect fill="#E3E3E3" height="51.2422" rx="2.5" ry="2.5" style="stroke:#181818;stroke-width:0.5;" width="149" x="1256.5" y="281.2793"/><text fill="#000000" font-family="sans-serif" font-size="14" lengthAdjust="spacing" textLength="135" x="1263.5" y="303.3867">tempCollaboratorList:</text><text fill="#000000" font-family="sans-serif" font-size="14" lengthAdjust="spacing" textLength="116" x="1273" y="322.0078">List&lt;Collaborator&gt;</text><polygon fill="#181818" points="250,362.8125,240,366.8125,250,370.8125,246,366.8125" style="stroke:#181818;stroke-width:1.0;"/><line style="stroke:#181818;stroke-width:1.0;stroke-dasharray:2.0,2.0;" x1="244" x2="625.5" y1="366.8125" y2="366.8125"/><text fill="#000000" font-family="sans-serif" font-size="13" font-weight="bold" lengthAdjust="spacing" textLength="25" x="256" y="361.5498">19.7</text><text fill="#000000" font-family="sans-serif" font-size="13" lengthAdjust="spacing" textLength="119" x="285" y="361.5498">tempCollaboratorList</text><polygon fill="#181818" points="470.5,394.1035,480.5,398.1035,470.5,402.1035,474.5,398.1035" style="stroke:#181818;stroke-width:1.0;"/><line style="stroke:#181818;stroke-width:1.0;" x1="239" x2="476.5" y1="398.1035" y2="398.1035"/><text fill="#000000" font-family="sans-serif" font-size="13" font-weight="bold" lengthAdjust="spacing" textLength="25" x="246" y="392.8408">19.8</text><text fill="#000000" font-family="sans-serif" font-size="13" lengthAdjust="spacing" textLength="120" x="275" y="392.8408">getTeamRepository()</text><polygon fill="#181818" points="250,425.3945,240,429.3945,250,433.3945,246,429.3945" style="stroke:#181818;stroke-width:1.0;"/><line style="stroke:#181818;stroke-width:1.0;stroke-dasharray:2.0,2.0;" x1="244" x2="486.5" y1="429.3945" y2="429.3945"/><text fill="#000000" font-family="sans-serif" font-size="13" font-weight="bold" lengthAdjust="spacing" textLength="25" x="256" y="424.1318">19.9</text><text fill="#000000" font-family="sans-serif" font-size="13" lengthAdjust="spacing" textLength="91" x="285" y="424.1318">teamRepository</text><polygon fill="#181818" points="759,456.6855,769,460.6855,759,464.6855,763,460.6855" style="stroke:#181818;stroke-width:1.0;"/><line style="stroke:#181818;stroke-width:1.0;" x1="239" x2="765" y1="460.6855" y2="460.6855"/><text fill="#000000" font-family="sans-serif" font-size="13" font-weight="bold" lengthAdjust="spacing" textLength="32" x="246" y="455.4229">19.10</text><text fill="#000000" font-family="sans-serif" font-size="13" lengthAdjust="spacing" textLength="309" x="282" y="455.4229">removeUnavailableCollaborators(tempCollaboratorList)</text><path d="M707,475.6855 L780,475.6855 L780,484.9766 L770,494.9766 L707,494.9766 L707,475.6855 " fill="#EEEEEE" style="stroke:#000000;stroke-width:1.5;"/><rect fill="none" height="145.1641" style="stroke:#000000;stroke-width:1.5;" width="718.5" x="707" y="475.6855"/><text fill="#000000" font-family="sans-serif" font-size="13" font-weight="bold" lengthAdjust="spacing" textLength="28" x="722" y="490.7139">loop</text><text fill="#000000" font-family="sans-serif" font-size="11" font-weight="bold" lengthAdjust="spacing" textLength="84" x="795" y="489.5557">[for each team]</text><polygon fill="#181818" points="1133,514.2676,1143,518.2676,1133,522.2676,1137,518.2676" style="stroke:#181818;stroke-width:1.0;"/><line style="stroke:#181818;stroke-width:1.0;" x1="781" x2="1139" y1="518.2676" y2="518.2676"/><text fill="#000000" font-family="sans-serif" font-size="13" font-weight="bold" lengthAdjust="spacing" textLength="32" x="788" y="513.0049">19.11</text><text fill="#000000" font-family="sans-serif" font-size="13" lengthAdjust="spacing" textLength="309" x="824" y="513.0049">removeUnavailableCollaborators(tempCollaboratorList)</text><path d="M1113,533.2676 L1186,533.2676 L1186,542.5586 L1176,552.5586 L1113,552.5586 L1113,533.2676 " fill="#EEEEEE" style="stroke:#000000;stroke-width:1.5;"/><rect fill="none" height="80.582" style="stroke:#000000;stroke-width:1.5;" width="302.5" x="1113" y="533.2676"/><text fill="#000000" font-family="sans-serif" font-size="13" font-weight="bold" lengthAdjust="spacing" textLength="28" x="1128" y="548.2959">loop</text><text fill="#000000" font-family="sans-serif" font-size="11" font-weight="bold" lengthAdjust="spacing" textLength="188" x="1201" y="547.1377">[for each collaborator of the team]</text><polygon fill="#181818" points="1314,571.8496,1324,575.8496,1314,579.8496,1318,575.8496" style="stroke:#181818;stroke-width:1.0;"/><line style="stroke:#181818;stroke-width:1.0;" x1="1155" x2="1320" y1="575.8496" y2="575.8496"/><text fill="#000000" font-family="sans-serif" font-size="13" font-weight="bold" lengthAdjust="spacing" textLength="32" x="1162" y="570.5869">19.12</text><text fill="#000000" font-family="sans-serif" font-size="13" lengthAdjust="spacing" textLength="116" x="1198" y="570.5869">remove(collaborator)</text><polygon fill="#181818" points="11,654.1406,1,658.1406,11,662.1406,7,658.1406" style="stroke:#181818;stroke-width:1.0;"/><line style="stroke:#181818;stroke-width:1.0;stroke-dasharray:2.0,2.0;" x1="5" x2="233" y1="658.1406" y2="658.1406"/><text fill="#000000" font-family="sans-serif" font-size="13" font-weight="bold" lengthAdjust="spacing" textLength="14" x="17" y="652.8779">20</text><text fill="#000000" font-family="sans-serif" font-size="13" lengthAdjust="spacing" textLength="4" x="35" y="652.8779">&#160;</text><!--SRC=[hLL1RziW6BtpApxrigHIfdMtHLMbAeTfKWvJwzrw8SwN6DK62qYs_li1IMmmdzrqcY-Mu7kFz_WUO5w5RBdc3JHAghBIga6m-e3CT3CjBr_v7f_jMusWiRHSxkkum5HygtuBkOSThmqonWzMoKEpGStOfqfi4NPAsOtwmvX3M56AbaiBDyllA55pYmNoPgMarQgkKTy0Dx0gdjQ3wYTibH5MQO4cr7G3Ry_2QtAhfX0T8LvaJl1p_LYaYD8fu1lbH2dTqozVv8gSE4abfr9UwnmcV4Ko47ZIeHpl7FYIhdPOqRInahKmrgtZV_Vn-4F0KzLnu-3k6sFWliL3Q0KieTJeMlLuvCAXQepHniDdym2uV0dNvxjaRg_LeOLL88IECTb80oT92MLfnT53GZXOqENq4J5mSlTeVqZZmbhYG5b2HMKeg_OVjShYl3jBY9EMmRVuiUKkndmyJqxeY4tv2j4cZPneU-bqvDc8WPptefRMs0Md818tZ4pNNrfIlb7qaauCbU_RMo-cLX9dvM1gVZrtVo3eCpJH_AjjPVrFhuP_wtlIzY0_kMucT8_tFDK5_XmqweY_92UlYHcrPHDc1ZSYQQjMgdNlYmQdjmgcwBg1rBFu_wGuKproz3AzSH11xS1MEE7XucCiuLq3ae3FHxawoTT5cOZ6nu0ejy4_NH7HZczXJy7UmSV1OHHDU8NoyFNlrjSlAV1-iJWVdh7RqS_-1G00]--></g></svg>