<?xml version="1.0" encoding="us-ascii" standalone="no"?><svg xmlns="http://www.w3.org/2000/svg" xmlns:xlink="http://www.w3.org/1999/xlink" contentStyleType="text/css" height="1537px" preserveAspectRatio="none" style="width:1064px;height:1537px;background:#FFFFFF;" version="1.1" viewBox="0 0 1064 1537" width="1064px" zoomAndPan="magnify"><defs/><g><!--class GenerateTeamUI--><g id="elem_GenerateTeamUI"><rect codeLine="11" fill="#F1F1F1" height="48" id="GenerateTeamUI" rx="2.5" ry="2.5" style="stroke:#181818;stroke-width:0.5;" width="140" x="520.5" y="7"/><ellipse cx="535.5" cy="23" fill="#ADD1B2" rx="11" ry="11" style="stroke:#181818;stroke-width:1.0;"/><path d="M538.2656,18.875 Q538.4219,18.6563 538.6094,18.5469 Q538.7969,18.4375 539.0156,18.4375 Q539.3906,18.4375 539.625,18.7031 Q539.8594,18.9531 539.8594,19.5625 L539.8594,21.0156 Q539.8594,21.625 539.625,21.8906 Q539.3906,22.1563 539.0156,22.1563 Q538.6719,22.1563 538.4688,21.9531 Q538.2656,21.7656 538.1563,21.25 Q538.1094,20.8906 537.9219,20.7031 Q537.5938,20.3281 536.9844,20.1094 Q536.375,19.8906 535.75,19.8906 Q534.9844,19.8906 534.3438,20.2188 Q533.7188,20.5469 533.2188,21.2969 Q532.7344,22.0469 532.7344,23.0781 L532.7344,24.1719 Q532.7344,25.4063 533.625,26.2344 Q534.5156,27.0469 536.1094,27.0469 Q537.0469,27.0469 537.7031,26.7969 Q538.0938,26.6406 538.5156,26.2031 Q538.7813,25.9375 538.9219,25.8594 Q539.0781,25.7813 539.2813,25.7813 Q539.6094,25.7813 539.8594,26.0469 Q540.125,26.2969 540.125,26.6406 Q540.125,26.9844 539.7813,27.3906 Q539.2813,27.9688 538.4844,28.2969 Q537.4063,28.75 536.1094,28.75 Q534.5938,28.75 533.3906,28.125 Q532.4063,27.625 531.7188,26.5625 Q531.0313,25.4844 531.0313,24.2031 L531.0313,23.0469 Q531.0313,21.7188 531.6406,20.5781 Q532.2656,19.4219 533.3594,18.8125 Q534.4531,18.1875 535.6875,18.1875 Q536.4219,18.1875 537.0625,18.3594 Q537.7188,18.5156 538.2656,18.875 Z " fill="#000000"/><text fill="#000000" font-family="sans-serif" font-size="14" lengthAdjust="spacing" textLength="108" x="549.5" y="28.7969">GenerateTeamUI</text><line style="stroke:#181818;stroke-width:0.5;" x1="521.5" x2="659.5" y1="39" y2="39"/><line style="stroke:#181818;stroke-width:0.5;" x1="521.5" x2="659.5" y1="47" y2="47"/></g><!--class GenerateTeamController--><g id="elem_GenerateTeamController"><rect codeLine="16" fill="#F1F1F1" height="196.9688" id="GenerateTeamController" rx="2.5" ry="2.5" style="stroke:#181818;stroke-width:0.5;" width="457" x="362" y="116"/><ellipse cx="507.25" cy="132" fill="#ADD1B2" rx="11" ry="11" style="stroke:#181818;stroke-width:1.0;"/><path d="M510.0156,127.875 Q510.1719,127.6563 510.3594,127.5469 Q510.5469,127.4375 510.7656,127.4375 Q511.1406,127.4375 511.375,127.7031 Q511.6094,127.9531 511.6094,128.5625 L511.6094,130.0156 Q511.6094,130.625 511.375,130.8906 Q511.1406,131.1563 510.7656,131.1563 Q510.4219,131.1563 510.2188,130.9531 Q510.0156,130.7656 509.9063,130.25 Q509.8594,129.8906 509.6719,129.7031 Q509.3438,129.3281 508.7344,129.1094 Q508.125,128.8906 507.5,128.8906 Q506.7344,128.8906 506.0938,129.2188 Q505.4688,129.5469 504.9688,130.2969 Q504.4844,131.0469 504.4844,132.0781 L504.4844,133.1719 Q504.4844,134.4063 505.375,135.2344 Q506.2656,136.0469 507.8594,136.0469 Q508.7969,136.0469 509.4531,135.7969 Q509.8438,135.6406 510.2656,135.2031 Q510.5313,134.9375 510.6719,134.8594 Q510.8281,134.7813 511.0313,134.7813 Q511.3594,134.7813 511.6094,135.0469 Q511.875,135.2969 511.875,135.6406 Q511.875,135.9844 511.5313,136.3906 Q511.0313,136.9688 510.2344,137.2969 Q509.1563,137.75 507.8594,137.75 Q506.3438,137.75 505.1406,137.125 Q504.1563,136.625 503.4688,135.5625 Q502.7813,134.4844 502.7813,133.2031 L502.7813,132.0469 Q502.7813,130.7188 503.3906,129.5781 Q504.0156,128.4219 505.1094,127.8125 Q506.2031,127.1875 507.4375,127.1875 Q508.1719,127.1875 508.8125,127.3594 Q509.4688,127.5156 510.0156,127.875 Z " fill="#000000"/><text fill="#000000" font-family="sans-serif" font-size="14" lengthAdjust="spacing" textLength="158" x="527.75" y="137.7969">GenerateTeamController</text><line style="stroke:#181818;stroke-width:0.5;" x1="363" x2="818" y1="148" y2="148"/><line style="stroke:#181818;stroke-width:0.5;" x1="363" x2="818" y1="156" y2="156"/><text fill="#000000" font-family="sans-serif" font-size="14" lengthAdjust="spacing" textLength="176" x="368" y="175.1074">+GenerateTeamController()</text><text fill="#000000" font-family="sans-serif" font-size="14" lengthAdjust="spacing" textLength="70" x="368" y="193.7285">+getSkills()</text><text fill="#000000" font-family="sans-serif" font-size="14" lengthAdjust="spacing" textLength="217" x="368" y="212.3496">+addSelectedSkillName(skillName)</text><text fill="#000000" font-family="sans-serif" font-size="14" lengthAdjust="spacing" textLength="302" x="368" y="230.9707">+generateTeamProposal(minCollab, maxCollab)</text><text fill="#000000" font-family="sans-serif" font-size="14" lengthAdjust="spacing" textLength="189" x="368" y="249.5918">+registerTeam(teamProposal)</text><text fill="#000000" font-family="sans-serif" font-size="14" lengthAdjust="spacing" textLength="144" x="368" y="268.2129">-getSelectedSkillsList()</text><text fill="#000000" font-family="sans-serif" font-size="14" lengthAdjust="spacing" textLength="219" x="368" y="286.834">-createAvailableCollaboratorsList()</text><text fill="#000000" font-family="sans-serif" font-size="14" lengthAdjust="spacing" textLength="445" x="368" y="305.4551">-selectCollaboratorsForTeam(selectedSkillsList, minCollab, maxCollab)</text></g><!--class Repositories--><g id="elem_Repositories"><rect codeLine="31" fill="#F1F1F1" height="141.1055" id="Repositories" rx="2.5" ry="2.5" style="stroke:#181818;stroke-width:0.5;" width="196" x="323.5" y="472"/><ellipse cx="377.75" cy="488" fill="#ADD1B2" rx="11" ry="11" style="stroke:#181818;stroke-width:1.0;"/><path d="M380.5156,483.875 Q380.6719,483.6563 380.8594,483.5469 Q381.0469,483.4375 381.2656,483.4375 Q381.6406,483.4375 381.875,483.7031 Q382.1094,483.9531 382.1094,484.5625 L382.1094,486.0156 Q382.1094,486.625 381.875,486.8906 Q381.6406,487.1563 381.2656,487.1563 Q380.9219,487.1563 380.7188,486.9531 Q380.5156,486.7656 380.4063,486.25 Q380.3594,485.8906 380.1719,485.7031 Q379.8438,485.3281 379.2344,485.1094 Q378.625,484.8906 378,484.8906 Q377.2344,484.8906 376.5938,485.2188 Q375.9688,485.5469 375.4688,486.2969 Q374.9844,487.0469 374.9844,488.0781 L374.9844,489.1719 Q374.9844,490.4063 375.875,491.2344 Q376.7656,492.0469 378.3594,492.0469 Q379.2969,492.0469 379.9531,491.7969 Q380.3438,491.6406 380.7656,491.2031 Q381.0313,490.9375 381.1719,490.8594 Q381.3281,490.7813 381.5313,490.7813 Q381.8594,490.7813 382.1094,491.0469 Q382.375,491.2969 382.375,491.6406 Q382.375,491.9844 382.0313,492.3906 Q381.5313,492.9688 380.7344,493.2969 Q379.6563,493.75 378.3594,493.75 Q376.8438,493.75 375.6406,493.125 Q374.6563,492.625 373.9688,491.5625 Q373.2813,490.4844 373.2813,489.2031 L373.2813,488.0469 Q373.2813,486.7188 373.8906,485.5781 Q374.5156,484.4219 375.6094,483.8125 Q376.7031,483.1875 377.9375,483.1875 Q378.6719,483.1875 379.3125,483.3594 Q379.9688,483.5156 380.5156,483.875 Z " fill="#000000"/><text fill="#000000" font-family="sans-serif" font-size="14" lengthAdjust="spacing" textLength="79" x="398.25" y="493.7969">Repositories</text><line style="stroke:#181818;stroke-width:0.5;" x1="324.5" x2="518.5" y1="504" y2="504"/><line style="stroke:#181818;stroke-width:0.5;" x1="324.5" x2="518.5" y1="512" y2="512"/><text fill="#000000" font-family="sans-serif" font-size="14" lengthAdjust="spacing" textLength="94" x="329.5" y="531.1074">-Repositories()</text><text fill="#000000" font-family="sans-serif" font-size="14" lengthAdjust="spacing" textLength="182" x="329.5" y="549.7285">+getInstance() : Repositories</text><text fill="#000000" font-family="sans-serif" font-size="14" lengthAdjust="spacing" textLength="131" x="329.5" y="568.3496">+getSkillRepository()</text><text fill="#000000" font-family="sans-serif" font-size="14" lengthAdjust="spacing" textLength="184" x="329.5" y="586.9707">+getCollaboratorRepository()</text><text fill="#000000" font-family="sans-serif" font-size="14" lengthAdjust="spacing" textLength="142" x="329.5" y="605.5918">+getTeamRepository()</text></g><!--class SkillRepository--><g id="elem_SkillRepository"><rect codeLine="42" fill="#F1F1F1" height="141.1055" id="SkillRepository" rx="2.5" ry="2.5" style="stroke:#181818;stroke-width:0.5;" width="241" x="7" y="674"/><ellipse cx="76.75" cy="690" fill="#ADD1B2" rx="11" ry="11" style="stroke:#181818;stroke-width:1.0;"/><path d="M79.5156,685.875 Q79.6719,685.6563 79.8594,685.5469 Q80.0469,685.4375 80.2656,685.4375 Q80.6406,685.4375 80.875,685.7031 Q81.1094,685.9531 81.1094,686.5625 L81.1094,688.0156 Q81.1094,688.625 80.875,688.8906 Q80.6406,689.1563 80.2656,689.1563 Q79.9219,689.1563 79.7188,688.9531 Q79.5156,688.7656 79.4063,688.25 Q79.3594,687.8906 79.1719,687.7031 Q78.8438,687.3281 78.2344,687.1094 Q77.625,686.8906 77,686.8906 Q76.2344,686.8906 75.5938,687.2188 Q74.9688,687.5469 74.4688,688.2969 Q73.9844,689.0469 73.9844,690.0781 L73.9844,691.1719 Q73.9844,692.4063 74.875,693.2344 Q75.7656,694.0469 77.3594,694.0469 Q78.2969,694.0469 78.9531,693.7969 Q79.3438,693.6406 79.7656,693.2031 Q80.0313,692.9375 80.1719,692.8594 Q80.3281,692.7813 80.5313,692.7813 Q80.8594,692.7813 81.1094,693.0469 Q81.375,693.2969 81.375,693.6406 Q81.375,693.9844 81.0313,694.3906 Q80.5313,694.9688 79.7344,695.2969 Q78.6563,695.75 77.3594,695.75 Q75.8438,695.75 74.6406,695.125 Q73.6563,694.625 72.9688,693.5625 Q72.2813,692.4844 72.2813,691.2031 L72.2813,690.0469 Q72.2813,688.7188 72.8906,687.5781 Q73.5156,686.4219 74.6094,685.8125 Q75.7031,685.1875 76.9375,685.1875 Q77.6719,685.1875 78.3125,685.3594 Q78.9688,685.5156 79.5156,685.875 Z " fill="#000000"/><text fill="#000000" font-family="sans-serif" font-size="14" lengthAdjust="spacing" textLength="93" x="97.25" y="695.7969">SkillRepository</text><line style="stroke:#181818;stroke-width:0.5;" x1="8" x2="247" y1="706" y2="706"/><line style="stroke:#181818;stroke-width:0.5;" x1="8" x2="247" y1="714" y2="714"/><text fill="#000000" font-family="sans-serif" font-size="14" lengthAdjust="spacing" textLength="70" x="13" y="733.1074">+getSkills()</text><text fill="#000000" font-family="sans-serif" font-size="14" lengthAdjust="spacing" textLength="167" x="13" y="751.7285">+createSelectedSkillsList()</text><text fill="#000000" font-family="sans-serif" font-size="14" lengthAdjust="spacing" textLength="181" x="13" y="770.3496">+addSelectedSkill(skillName)</text><text fill="#000000" font-family="sans-serif" font-size="14" lengthAdjust="spacing" textLength="229" x="13" y="788.9707">+getSkillByName(selectedSkillName)</text><text fill="#000000" font-family="sans-serif" font-size="14" lengthAdjust="spacing" textLength="147" x="13" y="807.5918">+getSelectedSkillsList()</text></g><!--class CollaboratorRepository--><g id="elem_CollaboratorRepository"><rect codeLine="51" fill="#F1F1F1" height="85.2422" id="CollaboratorRepository" rx="2.5" ry="2.5" style="stroke:#181818;stroke-width:0.5;" width="373" x="283" y="702"/><ellipse cx="392.25" cy="718" fill="#ADD1B2" rx="11" ry="11" style="stroke:#181818;stroke-width:1.0;"/><path d="M395.0156,713.875 Q395.1719,713.6563 395.3594,713.5469 Q395.5469,713.4375 395.7656,713.4375 Q396.1406,713.4375 396.375,713.7031 Q396.6094,713.9531 396.6094,714.5625 L396.6094,716.0156 Q396.6094,716.625 396.375,716.8906 Q396.1406,717.1563 395.7656,717.1563 Q395.4219,717.1563 395.2188,716.9531 Q395.0156,716.7656 394.9063,716.25 Q394.8594,715.8906 394.6719,715.7031 Q394.3438,715.3281 393.7344,715.1094 Q393.125,714.8906 392.5,714.8906 Q391.7344,714.8906 391.0938,715.2188 Q390.4688,715.5469 389.9688,716.2969 Q389.4844,717.0469 389.4844,718.0781 L389.4844,719.1719 Q389.4844,720.4063 390.375,721.2344 Q391.2656,722.0469 392.8594,722.0469 Q393.7969,722.0469 394.4531,721.7969 Q394.8438,721.6406 395.2656,721.2031 Q395.5313,720.9375 395.6719,720.8594 Q395.8281,720.7813 396.0313,720.7813 Q396.3594,720.7813 396.6094,721.0469 Q396.875,721.2969 396.875,721.6406 Q396.875,721.9844 396.5313,722.3906 Q396.0313,722.9688 395.2344,723.2969 Q394.1563,723.75 392.8594,723.75 Q391.3438,723.75 390.1406,723.125 Q389.1563,722.625 388.4688,721.5625 Q387.7813,720.4844 387.7813,719.2031 L387.7813,718.0469 Q387.7813,716.7188 388.3906,715.5781 Q389.0156,714.4219 390.1094,713.8125 Q391.2031,713.1875 392.4375,713.1875 Q393.1719,713.1875 393.8125,713.3594 Q394.4688,713.5156 395.0156,713.875 Z " fill="#000000"/><text fill="#000000" font-family="sans-serif" font-size="14" lengthAdjust="spacing" textLength="146" x="412.75" y="723.7969">CollaboratorRepository</text><line style="stroke:#181818;stroke-width:0.5;" x1="284" x2="655" y1="734" y2="734"/><line style="stroke:#181818;stroke-width:0.5;" x1="284" x2="655" y1="742" y2="742"/><text fill="#000000" font-family="sans-serif" font-size="14" lengthAdjust="spacing" textLength="194" x="289" y="761.1074">+createTempCollaboratorList()</text><text fill="#000000" font-family="sans-serif" font-size="14" lengthAdjust="spacing" textLength="361" x="289" y="779.7285">+generateTeam(selectedSkillsList, minCollab, maxCollab)</text></g><!--class TeamRepository--><g id="elem_TeamRepository"><rect codeLine="57" fill="#F1F1F1" height="103.8633" id="TeamRepository" rx="2.5" ry="2.5" style="stroke:#181818;stroke-width:0.5;" width="366" x="691.5" y="692.5"/><ellipse cx="818.25" cy="708.5" fill="#ADD1B2" rx="11" ry="11" style="stroke:#181818;stroke-width:1.0;"/><path d="M821.0156,704.375 Q821.1719,704.1563 821.3594,704.0469 Q821.5469,703.9375 821.7656,703.9375 Q822.1406,703.9375 822.375,704.2031 Q822.6094,704.4531 822.6094,705.0625 L822.6094,706.5156 Q822.6094,707.125 822.375,707.3906 Q822.1406,707.6563 821.7656,707.6563 Q821.4219,707.6563 821.2188,707.4531 Q821.0156,707.2656 820.9063,706.75 Q820.8594,706.3906 820.6719,706.2031 Q820.3438,705.8281 819.7344,705.6094 Q819.125,705.3906 818.5,705.3906 Q817.7344,705.3906 817.0938,705.7188 Q816.4688,706.0469 815.9688,706.7969 Q815.4844,707.5469 815.4844,708.5781 L815.4844,709.6719 Q815.4844,710.9063 816.375,711.7344 Q817.2656,712.5469 818.8594,712.5469 Q819.7969,712.5469 820.4531,712.2969 Q820.8438,712.1406 821.2656,711.7031 Q821.5313,711.4375 821.6719,711.3594 Q821.8281,711.2813 822.0313,711.2813 Q822.3594,711.2813 822.6094,711.5469 Q822.875,711.7969 822.875,712.1406 Q822.875,712.4844 822.5313,712.8906 Q822.0313,713.4688 821.2344,713.7969 Q820.1563,714.25 818.8594,714.25 Q817.3438,714.25 816.1406,713.625 Q815.1563,713.125 814.4688,712.0625 Q813.7813,710.9844 813.7813,709.7031 L813.7813,708.5469 Q813.7813,707.2188 814.3906,706.0781 Q815.0156,704.9219 816.1094,704.3125 Q817.2031,703.6875 818.4375,703.6875 Q819.1719,703.6875 819.8125,703.8594 Q820.4688,704.0156 821.0156,704.375 Z " fill="#000000"/><text fill="#000000" font-family="sans-serif" font-size="14" lengthAdjust="spacing" textLength="104" x="838.75" y="714.2969">TeamRepository</text><line style="stroke:#181818;stroke-width:0.5;" x1="692.5" x2="1056.5" y1="724.5" y2="724.5"/><line style="stroke:#181818;stroke-width:0.5;" x1="692.5" x2="1056.5" y1="732.5" y2="732.5"/><text fill="#000000" font-family="sans-serif" font-size="14" lengthAdjust="spacing" textLength="354" x="697.5" y="751.6074">+removeUnavailableCollaborators(tempCollaboratorList)</text><text fill="#000000" font-family="sans-serif" font-size="14" lengthAdjust="spacing" textLength="189" x="697.5" y="770.2285">+registerTeam(teamProposal)</text><text fill="#000000" font-family="sans-serif" font-size="14" lengthAdjust="spacing" textLength="106" x="697.5" y="788.8496">-addTeam(team)</text></g><!--class Collaborator--><g id="elem_Collaborator"><rect codeLine="64" fill="#F1F1F1" height="290.0742" id="Collaborator" rx="2.5" ry="2.5" style="stroke:#181818;stroke-width:0.5;" width="343" x="298" y="1058"/><ellipse cx="426.25" cy="1074" fill="#ADD1B2" rx="11" ry="11" style="stroke:#181818;stroke-width:1.0;"/><path d="M429.0156,1069.875 Q429.1719,1069.6563 429.3594,1069.5469 Q429.5469,1069.4375 429.7656,1069.4375 Q430.1406,1069.4375 430.375,1069.7031 Q430.6094,1069.9531 430.6094,1070.5625 L430.6094,1072.0156 Q430.6094,1072.625 430.375,1072.8906 Q430.1406,1073.1563 429.7656,1073.1563 Q429.4219,1073.1563 429.2188,1072.9531 Q429.0156,1072.7656 428.9063,1072.25 Q428.8594,1071.8906 428.6719,1071.7031 Q428.3438,1071.3281 427.7344,1071.1094 Q427.125,1070.8906 426.5,1070.8906 Q425.7344,1070.8906 425.0938,1071.2188 Q424.4688,1071.5469 423.9688,1072.2969 Q423.4844,1073.0469 423.4844,1074.0781 L423.4844,1075.1719 Q423.4844,1076.4063 424.375,1077.2344 Q425.2656,1078.0469 426.8594,1078.0469 Q427.7969,1078.0469 428.4531,1077.7969 Q428.8438,1077.6406 429.2656,1077.2031 Q429.5313,1076.9375 429.6719,1076.8594 Q429.8281,1076.7813 430.0313,1076.7813 Q430.3594,1076.7813 430.6094,1077.0469 Q430.875,1077.2969 430.875,1077.6406 Q430.875,1077.9844 430.5313,1078.3906 Q430.0313,1078.9688 429.2344,1079.2969 Q428.1563,1079.75 426.8594,1079.75 Q425.3438,1079.75 424.1406,1079.125 Q423.1563,1078.625 422.4688,1077.5625 Q421.7813,1076.4844 421.7813,1075.2031 L421.7813,1074.0469 Q421.7813,1072.7188 422.3906,1071.5781 Q423.0156,1070.4219 424.1094,1069.8125 Q425.2031,1069.1875 426.4375,1069.1875 Q427.1719,1069.1875 427.8125,1069.3594 Q428.4688,1069.5156 429.0156,1069.875 Z " fill="#000000"/><text fill="#000000" font-family="sans-serif" font-size="14" lengthAdjust="spacing" textLength="78" x="446.75" y="1079.7969">Collaborator</text><line style="stroke:#181818;stroke-width:0.5;" x1="299" x2="640" y1="1090" y2="1090"/><text fill="#000000" font-family="sans-serif" font-size="14" lengthAdjust="spacing" textLength="81" x="304" y="1109.1074">-String name</text><text fill="#000000" font-family="sans-serif" font-size="14" lengthAdjust="spacing" textLength="123" x="304" y="1127.7285">-Calendar birthdate</text><text fill="#000000" font-family="sans-serif" font-size="14" lengthAdjust="spacing" textLength="160" x="304" y="1146.3496">-Calendar admissionDate</text><text fill="#000000" font-family="sans-serif" font-size="14" lengthAdjust="spacing" textLength="97" x="304" y="1164.9707">-String address</text><text fill="#000000" font-family="sans-serif" font-size="14" lengthAdjust="spacing" textLength="142" x="304" y="1183.5918">-Integer phoneNumber</text><text fill="#000000" font-family="sans-serif" font-size="14" lengthAdjust="spacing" textLength="79" x="304" y="1202.2129">-String email</text><text fill="#000000" font-family="sans-serif" font-size="14" lengthAdjust="spacing" textLength="156" x="304" y="1220.834">-Integer taxpayerNumber</text><text fill="#000000" font-family="sans-serif" font-size="14" lengthAdjust="spacing" textLength="238" x="304" y="1239.4551">-String identificationDocumentNumber</text><line style="stroke:#181818;stroke-width:0.5;" x1="299" x2="640" y1="1246.9688" y2="1246.9688"/><text fill="#000000" font-family="sans-serif" font-size="14" lengthAdjust="spacing" textLength="194" x="304" y="1266.0762">+Collaborator(name, birthdate,</text><text fill="#000000" font-family="sans-serif" font-size="14" lengthAdjust="spacing" textLength="253" x="304" y="1284.6973">admissionDate, address, phoneNumber,</text><text fill="#000000" font-family="sans-serif" font-size="14" lengthAdjust="spacing" textLength="331" x="304" y="1303.3184">email, taxpayerNumber, identificationDocumentType,</text><text fill="#000000" font-family="sans-serif" font-size="14" lengthAdjust="spacing" textLength="224" x="304" y="1321.9395">identificationDocumentNumber, job)</text><text fill="#000000" font-family="sans-serif" font-size="14" lengthAdjust="spacing" textLength="70" x="304" y="1340.5605">+getSkills()</text></g><!--class DocType--><g id="elem_DocType"><rect codeLine="78" fill="#F1F1F1" height="103.8633" id="DocType" rx="2.5" ry="2.5" style="stroke:#181818;stroke-width:0.5;" width="89" x="425" y="1427"/><ellipse cx="440" cy="1443" fill="#EB937F" rx="11" ry="11" style="stroke:#181818;stroke-width:1.0;"/><path d="M438.8594,1443.7969 L438.8594,1446.2969 L443.1875,1446.2969 L443.1875,1445.375 Q443.1875,1444.7656 443.4219,1444.5 Q443.6719,1444.2344 444.0469,1444.2344 Q444.4219,1444.2344 444.6563,1444.5 Q444.8906,1444.7656 444.8906,1445.375 L444.8906,1448 L436.8906,1448 Q436.2656,1448 436,1447.7656 Q435.75,1447.5313 435.75,1447.1406 Q435.75,1446.7656 436.0156,1446.5313 Q436.2813,1446.2969 436.8906,1446.2969 L437.1563,1446.2969 L437.1563,1439.6406 L436.8906,1439.6406 Q436.2656,1439.6406 436,1439.4063 Q435.75,1439.1719 435.75,1438.7813 Q435.75,1438.4063 436,1438.1719 Q436.2656,1437.9375 436.8906,1437.9375 L444.5156,1437.9375 L444.5156,1440.5313 Q444.5156,1441.1406 444.2813,1441.4063 Q444.0625,1441.6563 443.6719,1441.6563 Q443.2969,1441.6563 443.0625,1441.4063 Q442.8281,1441.1406 442.8281,1440.5313 L442.8281,1439.6406 L438.8594,1439.6406 L438.8594,1442.0938 L440.3438,1442.0938 Q440.3438,1441.4375 440.4688,1441.25 Q440.7344,1440.8438 441.2031,1440.8438 Q441.5781,1440.8438 441.8125,1441.1094 Q442.0469,1441.3594 442.0469,1441.9688 L442.0469,1443.9375 Q442.0469,1444.4844 441.9219,1444.6719 Q441.6563,1445.0625 441.2031,1445.0625 Q440.7344,1445.0625 440.4688,1444.6563 Q440.3438,1444.4688 440.3438,1443.7969 L438.8594,1443.7969 Z " fill="#000000"/><text fill="#000000" font-family="sans-serif" font-size="14" lengthAdjust="spacing" textLength="57" x="454" y="1448.7969">DocType</text><line style="stroke:#181818;stroke-width:0.5;" x1="426" x2="513" y1="1459" y2="1459"/><text fill="#000000" font-family="sans-serif" font-size="14" lengthAdjust="spacing" textLength="20" x="431" y="1478.1074">CC</text><text fill="#000000" font-family="sans-serif" font-size="14" lengthAdjust="spacing" textLength="12" x="431" y="1496.7285">BI</text><text fill="#000000" font-family="sans-serif" font-size="14" lengthAdjust="spacing" textLength="56" x="431" y="1515.3496">Passport</text><line style="stroke:#181818;stroke-width:0.5;" x1="426" x2="513" y1="1522.8633" y2="1522.8633"/></g><!--class Skill--><g id="elem_Skill"><rect codeLine="85" fill="#F1F1F1" height="66.6211" id="Skill" rx="2.5" ry="2.5" style="stroke:#181818;stroke-width:0.5;" width="93" x="248" y="1445.5"/><ellipse cx="279.2" cy="1461.5" fill="#ADD1B2" rx="11" ry="11" style="stroke:#181818;stroke-width:1.0;"/><path d="M281.9656,1457.375 Q282.1219,1457.1563 282.3094,1457.0469 Q282.4969,1456.9375 282.7156,1456.9375 Q283.0906,1456.9375 283.325,1457.2031 Q283.5594,1457.4531 283.5594,1458.0625 L283.5594,1459.5156 Q283.5594,1460.125 283.325,1460.3906 Q283.0906,1460.6563 282.7156,1460.6563 Q282.3719,1460.6563 282.1688,1460.4531 Q281.9656,1460.2656 281.8563,1459.75 Q281.8094,1459.3906 281.6219,1459.2031 Q281.2938,1458.8281 280.6844,1458.6094 Q280.075,1458.3906 279.45,1458.3906 Q278.6844,1458.3906 278.0438,1458.7188 Q277.4188,1459.0469 276.9188,1459.7969 Q276.4344,1460.5469 276.4344,1461.5781 L276.4344,1462.6719 Q276.4344,1463.9063 277.325,1464.7344 Q278.2156,1465.5469 279.8094,1465.5469 Q280.7469,1465.5469 281.4031,1465.2969 Q281.7938,1465.1406 282.2156,1464.7031 Q282.4813,1464.4375 282.6219,1464.3594 Q282.7781,1464.2813 282.9813,1464.2813 Q283.3094,1464.2813 283.5594,1464.5469 Q283.825,1464.7969 283.825,1465.1406 Q283.825,1465.4844 283.4813,1465.8906 Q282.9813,1466.4688 282.1844,1466.7969 Q281.1063,1467.25 279.8094,1467.25 Q278.2938,1467.25 277.0906,1466.625 Q276.1063,1466.125 275.4188,1465.0625 Q274.7313,1463.9844 274.7313,1462.7031 L274.7313,1461.5469 Q274.7313,1460.2188 275.3406,1459.0781 Q275.9656,1457.9219 277.0594,1457.3125 Q278.1531,1456.6875 279.3875,1456.6875 Q280.1219,1456.6875 280.7625,1456.8594 Q281.4188,1457.0156 281.9656,1457.375 Z " fill="#000000"/><text fill="#000000" font-family="sans-serif" font-size="14" lengthAdjust="spacing" textLength="25" x="296.8" y="1467.2969">Skill</text><line style="stroke:#181818;stroke-width:0.5;" x1="249" x2="340" y1="1477.5" y2="1477.5"/><text fill="#000000" font-family="sans-serif" font-size="14" lengthAdjust="spacing" textLength="81" x="254" y="1496.6074">-String name</text><line style="stroke:#181818;stroke-width:0.5;" x1="249" x2="340" y1="1504.1211" y2="1504.1211"/></g><!--class Team--><g id="elem_Team"><rect codeLine="90" fill="#F1F1F1" height="85.2422" id="Team" rx="2.5" ry="2.5" style="stroke:#181818;stroke-width:0.5;" width="366" x="632.5" y="894"/><ellipse cx="793.25" cy="910" fill="#ADD1B2" rx="11" ry="11" style="stroke:#181818;stroke-width:1.0;"/><path d="M796.0156,905.875 Q796.1719,905.6563 796.3594,905.5469 Q796.5469,905.4375 796.7656,905.4375 Q797.1406,905.4375 797.375,905.7031 Q797.6094,905.9531 797.6094,906.5625 L797.6094,908.0156 Q797.6094,908.625 797.375,908.8906 Q797.1406,909.1563 796.7656,909.1563 Q796.4219,909.1563 796.2188,908.9531 Q796.0156,908.7656 795.9063,908.25 Q795.8594,907.8906 795.6719,907.7031 Q795.3438,907.3281 794.7344,907.1094 Q794.125,906.8906 793.5,906.8906 Q792.7344,906.8906 792.0938,907.2188 Q791.4688,907.5469 790.9688,908.2969 Q790.4844,909.0469 790.4844,910.0781 L790.4844,911.1719 Q790.4844,912.4063 791.375,913.2344 Q792.2656,914.0469 793.8594,914.0469 Q794.7969,914.0469 795.4531,913.7969 Q795.8438,913.6406 796.2656,913.2031 Q796.5313,912.9375 796.6719,912.8594 Q796.8281,912.7813 797.0313,912.7813 Q797.3594,912.7813 797.6094,913.0469 Q797.875,913.2969 797.875,913.6406 Q797.875,913.9844 797.5313,914.3906 Q797.0313,914.9688 796.2344,915.2969 Q795.1563,915.75 793.8594,915.75 Q792.3438,915.75 791.1406,915.125 Q790.1563,914.625 789.4688,913.5625 Q788.7813,912.4844 788.7813,911.2031 L788.7813,910.0469 Q788.7813,908.7188 789.3906,907.5781 Q790.0156,906.4219 791.1094,905.8125 Q792.2031,905.1875 793.4375,905.1875 Q794.1719,905.1875 794.8125,905.3594 Q795.4688,905.5156 796.0156,905.875 Z " fill="#000000"/><text fill="#000000" font-family="sans-serif" font-size="14" lengthAdjust="spacing" textLength="36" x="813.75" y="915.7969">Team</text><line style="stroke:#181818;stroke-width:0.5;" x1="633.5" x2="997.5" y1="926" y2="926"/><line style="stroke:#181818;stroke-width:0.5;" x1="633.5" x2="997.5" y1="934" y2="934"/><text fill="#000000" font-family="sans-serif" font-size="14" lengthAdjust="spacing" textLength="141" x="638.5" y="953.1074">+Team(teamProposal)</text><text fill="#000000" font-family="sans-serif" font-size="14" lengthAdjust="spacing" textLength="354" x="638.5" y="971.7285">+removeUnavailableCollaborators(tempCollaboratorList)</text></g><!--link Repositories to Repositories--><g id="link_Repositories_Repositories"><path codeLine="96" d="M519.52,524.41 C539.87,526.31 554.5,532.34 554.5,542.5 C554.5,552.66 545.844,558.1322 525.494,560.0322 " fill="none" id="Repositories-to-Repositories" style="stroke:#181818;stroke-width:1.0;"/><polygon fill="#181818" points="519.52,560.59,528.8529,563.736,524.4983,560.1252,528.1092,555.7707,519.52,560.59" style="stroke:#181818;stroke-width:1.0;"/><text fill="#000000" font-family="sans-serif" font-size="13" lengthAdjust="spacing" textLength="49" x="560.5" y="548.0283">instance</text></g><!--link GenerateTeamUI to GenerateTeamController--><g id="link_GenerateTeamUI_GenerateTeamController"><path codeLine="98" d="M590.5,55.36 C590.5,71.15 590.5,87.19 590.5,109.81 " fill="none" id="GenerateTeamUI-to-GenerateTeamController" style="stroke:#181818;stroke-width:1.0;stroke-dasharray:7.0,7.0;"/><polygon fill="#181818" points="590.5,115.81,594.5,106.81,590.5,110.81,586.5,106.81,590.5,115.81" style="stroke:#181818;stroke-width:1.0;"/></g><!--link GenerateTeamController to Repositories--><g id="link_GenerateTeamController_Repositories"><path codeLine="100" d="M539.79,313.31 C513.3,364.42 484.2609,420.433 460.3109,466.643 " fill="none" id="GenerateTeamController-to-Repositories" style="stroke:#181818;stroke-width:1.0;stroke-dasharray:7.0,7.0;"/><polygon fill="#181818" points="457.55,471.97,465.2427,465.8201,459.8508,467.5308,458.14,462.1388,457.55,471.97" style="stroke:#181818;stroke-width:1.0;"/><text fill="#000000" font-family="sans-serif" font-size="13" lengthAdjust="spacing" textLength="67" x="508.5" y="389.0283">repositories</text></g><!--link GenerateTeamController to CollaboratorRepository--><g id="link_GenerateTeamController_CollaboratorRepository"><path codeLine="102" d="M600.02,313.2 C607.09,385.69 615.5,472 615.5,472 C615.5,472 615.5,613 615.5,613 C615.5,613 563.2932,659.6612 520.5732,697.8512 " fill="none" id="GenerateTeamController-to-CollaboratorRepository" style="stroke:#181818;stroke-width:1.0;stroke-dasharray:7.0,7.0;"/><polygon fill="#181818" points="516.1,701.85,525.4757,698.8339,519.8276,698.5176,520.1439,692.8696,516.1,701.85" style="stroke:#181818;stroke-width:1.0;"/><text fill="#000000" font-family="sans-serif" font-size="13" lengthAdjust="spacing" textLength="129" x="614.5" y="438.0283">collaboratorRepository</text></g><!--link GenerateTeamController to SkillRepository--><g id="link_GenerateTeamController_SkillRepository"><path codeLine="103" d="M481.94,313.2 C401.4,385.69 305.5,472 305.5,472 C305.5,472 229.1398,588.4723 176.3998,668.9123 " fill="none" id="GenerateTeamController-to-SkillRepository" style="stroke:#181818;stroke-width:1.0;stroke-dasharray:7.0,7.0;"/><polygon fill="#181818" points="173.11,673.93,181.3898,668.5967,175.8515,669.7486,174.6996,664.2103,173.11,673.93" style="stroke:#181818;stroke-width:1.0;"/><text fill="#000000" font-family="sans-serif" font-size="13" lengthAdjust="spacing" textLength="85" x="360.5" y="438.0283">skillRepository</text></g><!--link GenerateTeamController to TeamRepository--><g id="link_GenerateTeamController_TeamRepository"><path codeLine="104" d="M666.76,313.17 C708.77,366.99 752.5,423 752.5,423 C752.5,423 818.4556,596.2725 852.8956,686.7525 " fill="none" id="GenerateTeamController-to-TeamRepository" style="stroke:#181818;stroke-width:1.0;stroke-dasharray:7.0,7.0;"/><polygon fill="#181818" points="855.03,692.36,855.5667,682.5258,853.2513,687.6871,848.09,685.3717,855.03,692.36" style="stroke:#181818;stroke-width:1.0;"/><text fill="#000000" font-family="sans-serif" font-size="13" lengthAdjust="spacing" textLength="91" x="760.5" y="438.0283">teamRepository</text></g><!--link Repositories to SkillRepository--><g id="link_Repositories_SkillRepository"><path codeLine="106" d="M323.19,610.38 C293.15,630.82 265.0011,649.9655 234.7011,670.5755 " fill="none" id="Repositories-to-SkillRepository" style="stroke:#181818;stroke-width:1.0;"/><polygon fill="#181818" points="229.74,673.95,239.4313,672.1956,233.8743,671.1379,234.932,665.5808,229.74,673.95" style="stroke:#181818;stroke-width:1.0;"/><text fill="#000000" font-family="sans-serif" font-size="13" lengthAdjust="spacing" textLength="7" x="232.9226" y="662.8359">1</text></g><!--link Repositories to CollaboratorRepository--><g id="link_Repositories_CollaboratorRepository"><path codeLine="107" d="M438.22,613.17 C445.31,642.71 451.929,670.3059 458.079,695.9159 " fill="none" id="Repositories-to-CollaboratorRepository" style="stroke:#181818;stroke-width:1.0;"/><polygon fill="#181818" points="459.48,701.75,461.2679,692.0648,458.3125,696.8882,453.4891,693.9328,459.48,701.75" style="stroke:#181818;stroke-width:1.0;"/><text fill="#000000" font-family="sans-serif" font-size="13" lengthAdjust="spacing" textLength="7" x="450.3253" y="690.6142">1</text></g><!--link Repositories to TeamRepository--><g id="link_Repositories_TeamRepository"><path codeLine="108" d="M519.52,586.77 C589.76,617.79 679.1411,657.2467 753.1411,689.9167 " fill="none" id="Repositories-to-TeamRepository" style="stroke:#181818;stroke-width:1.0;"/><polygon fill="#181818" points="758.63,692.34,752.0122,685.0458,754.0559,690.3206,748.7812,692.3644,758.63,692.34" style="stroke:#181818;stroke-width:1.0;"/><text fill="#000000" font-family="sans-serif" font-size="13" lengthAdjust="spacing" textLength="7" x="735.5897" y="681.2459">1</text></g><!--link SkillRepository to Skill--><g id="link_SkillRepository_Skill"><path codeLine="110" d="M143.36,815.07 C178.49,969.17 260.4266,1328.53 285.7366,1439.57 " fill="none" id="SkillRepository-to-Skill" style="stroke:#181818;stroke-width:1.0;"/><polygon fill="#181818" points="287.07,1445.42,288.9698,1435.7561,285.9588,1440.545,281.1699,1437.534,287.07,1445.42" style="stroke:#181818;stroke-width:1.0;"/><text fill="#000000" font-family="sans-serif" font-size="13" lengthAdjust="spacing" textLength="23" x="193.5" y="1024.0283">skill</text><text fill="#000000" font-family="sans-serif" font-size="13" lengthAdjust="spacing" textLength="7" x="137.6346" y="837.262">1</text><text fill="#000000" font-family="sans-serif" font-size="13" lengthAdjust="spacing" textLength="5" x="280.115" y="1434.2298">*</text></g><!--link CollaboratorRepository to Collaborator--><g id="link_CollaboratorRepository_Collaborator"><path codeLine="111" d="M469.5,787.22 C469.5,848.02 469.5,957.96 469.5,1051.84 " fill="none" id="CollaboratorRepository-to-Collaborator" style="stroke:#181818;stroke-width:1.0;"/><polygon fill="#181818" points="469.5,1057.84,473.5,1048.84,469.5,1052.84,465.5,1048.84,469.5,1057.84" style="stroke:#181818;stroke-width:1.0;"/><text fill="#000000" font-family="sans-serif" font-size="13" lengthAdjust="spacing" textLength="67" x="470.5" y="942.0283">collaborator</text><text fill="#000000" font-family="sans-serif" font-size="13" lengthAdjust="spacing" textLength="7" x="461.9422" y="809.4154">1</text><text fill="#000000" font-family="sans-serif" font-size="13" lengthAdjust="spacing" textLength="5" x="464.3711" y="1046.9508">*</text></g><!--link TeamRepository to Team--><g id="link_TeamRepository_Team"><path codeLine="112" d="M858.61,796.67 C849.16,827.11 839.0892,859.5198 830.2092,888.1198 " fill="none" id="TeamRepository-to-Team" style="stroke:#181818;stroke-width:1.0;"/><polygon fill="#181818" points="828.43,893.85,834.9188,886.4409,829.9126,889.0749,827.2786,884.0687,828.43,893.85" style="stroke:#181818;stroke-width:1.0;"/><text fill="#000000" font-family="sans-serif" font-size="13" lengthAdjust="spacing" textLength="29" x="843.5" y="860.0283">team</text><text fill="#000000" font-family="sans-serif" font-size="13" lengthAdjust="spacing" textLength="7" x="849.1257" y="818.4991">1</text><text fill="#000000" font-family="sans-serif" font-size="13" lengthAdjust="spacing" textLength="5" x="825.0923" y="882.7302">*</text></g><!--link Collaborator to Skill--><g id="link_Collaborator_Skill"><path codeLine="114" d="M377.39,1348.22 C354,1384.84 334.2894,1415.7033 318.4894,1440.4433 " fill="none" id="Collaborator-to-Skill" style="stroke:#181818;stroke-width:1.0;"/><polygon fill="#181818" points="315.26,1445.5,323.4753,1440.0678,317.9512,1441.286,316.733,1435.7619,315.26,1445.5" style="stroke:#181818;stroke-width:1.0;"/><text fill="#000000" font-family="sans-serif" font-size="13" lengthAdjust="spacing" textLength="21" x="357.5" y="1393.0283">has</text><text fill="#000000" font-family="sans-serif" font-size="13" lengthAdjust="spacing" textLength="7" x="365.4601" y="1370.1801">1</text><text fill="#000000" font-family="sans-serif" font-size="13" lengthAdjust="spacing" textLength="5" x="313.8549" y="1434.3255">*</text></g><!--link Team to Collaborator--><g id="link_Team_Collaborator"><path codeLine="115" d="M761.06,979.12 C728.32,1004.14 689.4471,1033.8665 645.9171,1067.1365 " fill="none" id="Team-to-Collaborator" style="stroke:#181818;stroke-width:1.0;"/><polygon fill="#181818" points="641.15,1070.78,650.7296,1068.4928,645.1226,1067.7438,645.8716,1062.1367,641.15,1070.78" style="stroke:#181818;stroke-width:1.0;"/><text fill="#000000" font-family="sans-serif" font-size="13" lengthAdjust="spacing" textLength="21" x="713.5" y="1024.0283">has</text><text fill="#000000" font-family="sans-serif" font-size="13" lengthAdjust="spacing" textLength="7" x="744.8258" y="1001.2995">1</text><text fill="#000000" font-family="sans-serif" font-size="13" lengthAdjust="spacing" textLength="20" x="648.8134" y="1061.8763">1..*</text></g><!--reverse link Collaborator to DocType--><g id="link_Collaborator_DocType"><path codeLine="117" d="M469.5,1364.22 C469.5,1392.46 469.5,1404.28 469.5,1426.88 " fill="none" id="Collaborator-backto-DocType" style="stroke:#181818;stroke-width:1.0;"/><ellipse cx="469.5" cy="1356.22" fill="#FFFFFF" rx="8" ry="8" style="stroke:#181818;stroke-width:1.0;"/><line style="stroke:#181818;stroke-width:1.0;" x1="469.5" x2="469.5" y1="1364.22" y2="1348.22"/><line style="stroke:#181818;stroke-width:1.0;" x1="461.5" x2="477.5" y1="1356.22" y2="1356.22"/></g><!--SRC=[dLLBRjim4Dtp54Iwi9B8HhFj8a3Ye8M18WZgPDSDBOrbDloe99t6BNAg7g4Nw-XZYPGfewusbZblPjvy-3InproLp319fLOwsnWjWJgp1T9RIfOzimAMRYU06iWSKuNm0NR3Sls3guAkcR2-HN05RbS2BRNOLN_896BKncdYUMM2MNlZdE6hhOD5fjMI_mJwdf29WBMZJbF3YusZEQ_eSAq8gNte9r1Wc8D7OF9fGNuHyXOppRLoHWi11Y4KdyiHStBUcWjmosSkXErEM9ulGM1wo6lBFPEGsFrRxzU7VJ2wr9Q9H78rn_1ibLB9NflNlOE1Wbi7fd98dEVL0AOr4p-l_OpuP6_D362scnV6CQQ09hP61jg4G5l72EmVTPFL7eH7db7ARsJoxhI7JB2vQsuaCrJJyZlDDSNvMbmvf42nSAejDW5BvkxFRyFndz8KNa6MGf-UhXt-boQWDXniE_9fSEWFUe5qcCeWEQSVGizm5phJplVsMnf7L4qEBBYZUwA3mDrw7kvVC-dHLJXSqDXoDa5lTyto3jVPnyNoT7ShNdD7lg7wY2FqWG5P_vwSj80jWx2dNMO3Kh_0asBH2u7twv3IFrz4x6zd6-b5jsfBr3AKHuLDRK_cJ83AyHQik76R74iV6bWkkRKeRdUziOs3gGrOsnukb8C2BqwvqGhkjtA5iXR0GMBr0x1ZhoNRWOdXUGxAyJNFMAMjTphRIZpma9T1bKbLLjeNadvL0VTqppVrAIAgvfKEgAGZwH_nIu4-nxYbz9jUnHGRXmDgAod2gp3jMERp-kTsKVyyuF1A_1BrawpTeoCCrgvRjf5D-Syjn1o-zj3fTQ15A4syrIb2miyUdSsknpvt97wEBhE3-CQNlgEEyVkF8RAuC1oBDL103687cdZCEzG1T7QXC0nwYaqzkpexKDqeQ4JaejY1795XKHMcnbwqoTigoKWdVRmF6RIO3ChttIfJqmuIP8bnsJ1RX-fjLxFP87M32aDTJgVT7ViB]--></g></svg>