<?xml version="1.0" encoding="us-ascii" standalone="no"?><svg xmlns="http://www.w3.org/2000/svg" xmlns:xlink="http://www.w3.org/1999/xlink" contentStyleType="text/css" height="2214px" preserveAspectRatio="none" style="width:1878px;height:2214px;background:#FFFFFF;" version="1.1" viewBox="0 0 1878 2214" width="1878px" zoomAndPan="magnify"><defs/><g><text fill="#000000" font-family="sans-serif" font-size="14" font-weight="bold" lengthAdjust="spacing" textLength="352" x="764.5" y="30.1074">US004 - Assign one or more skills to a collaborator</text><rect fill="#FFFFFF" height="1980.4512" style="stroke:#181818;stroke-width:1.0;" width="10" x="33" y="133.2422"/><rect fill="#FFFFFF" height="325.2402" style="stroke:#181818;stroke-width:1.0;" width="10" x="370" y="156.5332"/><rect fill="#FFFFFF" height="401.4434" style="stroke:#181818;stroke-width:1.0;" width="10" x="370" y="513.0645"/><rect fill="#FFFFFF" height="243.7461" style="stroke:#181818;stroke-width:1.0;" width="10" x="370" y="945.7988"/><rect fill="#FFFFFF" height="38.291" style="stroke:#181818;stroke-width:1.0;" width="10" x="370" y="1220.8359"/><rect fill="#FFFFFF" height="823.2754" style="stroke:#181818;stroke-width:1.0;" width="10" x="370" y="1290.418"/><rect fill="#FFFFFF" height="219.0371" style="stroke:#181818;stroke-width:1.0;" width="10" x="613" y="231.4453"/><rect fill="#FFFFFF" height="312.5703" style="stroke:#181818;stroke-width:1.0;" width="10" x="613" y="544.3555"/><rect fill="#FFFFFF" height="181.1641" style="stroke:#181818;stroke-width:1.0;" width="10" x="613" y="977.0898"/><rect fill="#FFFFFF" height="760.6934" style="stroke:#181818;stroke-width:1.0;" width="10" x="613" y="1321.709"/><rect fill="#FFFFFF" height="67.582" style="stroke:#181818;stroke-width:1.0;" width="10" x="618" y="1361"/><rect fill="#FFFFFF" height="325.9102" style="stroke:#181818;stroke-width:1.0;" width="10" x="618" y="1467.873"/><rect fill="#FFFFFF" height="31.291" style="stroke:#181818;stroke-width:1.0;" width="10" x="943" y="262.7363"/><rect fill="#FFFFFF" height="31.291" style="stroke:#181818;stroke-width:1.0;" width="10" x="943" y="575.6465"/><rect fill="#FFFFFF" height="31.291" style="stroke:#181818;stroke-width:1.0;" width="10" x="943" y="1504.1641"/><rect fill="#FFFFFF" height="31.291" style="stroke:#181818;stroke-width:1.0;" width="10" x="943" y="1832.0742"/><rect fill="#FFFFFF" height="31.291" style="stroke:#181818;stroke-width:1.0;" width="10" x="1050" y="325.3184"/><rect fill="#FFFFFF" height="31.291" style="stroke:#181818;stroke-width:1.0;" width="10" x="1050" y="638.2285"/><rect fill="#FFFFFF" height="31.291" style="stroke:#181818;stroke-width:1.0;" width="10" x="1050" y="1566.7461"/><rect fill="#FFFFFF" height="31.291" style="stroke:#181818;stroke-width:1.0;" width="10" x="1050" y="1894.6563"/><rect fill="#FFFFFF" height="31.291" style="stroke:#181818;stroke-width:1.0;" width="10" x="1163" y="700.8105"/><rect fill="#FFFFFF" height="31.291" style="stroke:#181818;stroke-width:1.0;" width="10" x="1163" y="763.3926"/><rect fill="#FFFFFF" height="149.873" style="stroke:#181818;stroke-width:1.0;" width="10" x="1163" y="1008.3809"/><rect fill="#FFFFFF" height="42.291" style="stroke:#181818;stroke-width:1.0;" width="10" x="1168" y="1047.6719"/><rect fill="#FFFFFF" height="31.291" style="stroke:#181818;stroke-width:1.0;" width="10" x="1163" y="1397.291"/><rect fill="#FFFFFF" height="30" style="stroke:#181818;stroke-width:1.0;" width="10" x="1363" y="1128.2539"/><rect fill="#FFFFFF" height="31.291" style="stroke:#181818;stroke-width:1.0;" width="10" x="1514" y="387.9004"/><rect fill="#FFFFFF" height="127.1641" style="stroke:#181818;stroke-width:1.0;" width="10" x="1514" y="1629.3281"/><rect fill="#FFFFFF" height="93.873" style="stroke:#181818;stroke-width:1.0;" width="10" x="1514" y="1957.2383"/><rect fill="#FFFFFF" height="31.291" style="stroke:#181818;stroke-width:1.0;" width="10" x="1809" y="1686.9102"/><rect fill="#FFFFFF" height="31.291" style="stroke:#181818;stroke-width:1.0;" width="10" x="1809" y="1988.5293"/><rect fill="none" height="356.9102" style="stroke:#000000;stroke-width:1.5;" width="1428.5" x="10" y="871.9258"/><rect fill="none" height="81.873" style="stroke:#000000;stroke-width:1.5;" width="443.5" x="1428.5" y="1644.3281"/><line style="stroke:#181818;stroke-width:0.5;stroke-dasharray:5.0,5.0;" x1="38" x2="38" y1="123.2422" y2="2131.6934"/><line style="stroke:#181818;stroke-width:0.5;stroke-dasharray:5.0,5.0;" x1="375" x2="375" y1="123.2422" y2="2131.6934"/><line style="stroke:#181818;stroke-width:0.5;stroke-dasharray:5.0,5.0;" x1="618" x2="618" y1="196.3438" y2="2131.6934"/><line style="stroke:#181818;stroke-width:0.5;stroke-dasharray:5.0,5.0;" x1="947.5" x2="947.5" y1="123.2422" y2="2131.6934"/><line style="stroke:#181818;stroke-width:0.5;stroke-dasharray:5.0,5.0;" x1="1054.5" x2="1054.5" y1="123.2422" y2="2131.6934"/><line style="stroke:#181818;stroke-width:0.5;stroke-dasharray:5.0,5.0;" x1="1167.5" x2="1167.5" y1="123.2422" y2="2131.6934"/><line style="stroke:#181818;stroke-width:0.5;stroke-dasharray:5.0,5.0;" x1="1367.5" x2="1367.5" y1="812.5137" y2="2131.6934"/><line style="stroke:#181818;stroke-width:0.5;stroke-dasharray:5.0,5.0;" x1="1518.5" x2="1518.5" y1="123.2422" y2="2131.6934"/><line style="stroke:#181818;stroke-width:0.5;stroke-dasharray:5.0,5.0;" x1="1814" x2="1814" y1="123.2422" y2="2131.6934"/><text fill="#000000" font-family="sans-serif" font-size="14" lengthAdjust="spacing" textLength="30" x="20" y="119.7285">HRM</text><ellipse cx="38" cy="53.1211" fill="#E3E3E3" rx="8" ry="8" style="stroke:#181818;stroke-width:0.5;"/><path d="M38,61.1211 L38,88.1211 M25,69.1211 L51,69.1211 M38,88.1211 L25,103.1211 M38,88.1211 L51,103.1211 " fill="none" style="stroke:#181818;stroke-width:0.5;"/><text fill="#000000" font-family="sans-serif" font-size="14" lengthAdjust="spacing" textLength="30" x="20" y="2145.8008">HRM</text><ellipse cx="38" cy="2157.8145" fill="#E3E3E3" rx="8" ry="8" style="stroke:#181818;stroke-width:0.5;"/><path d="M38,2165.8145 L38,2192.8145 M25,2173.8145 L51,2173.8145 M38,2192.8145 L25,2207.8145 M38,2192.8145 L51,2207.8145 " fill="none" style="stroke:#181818;stroke-width:0.5;"/><rect fill="#E3E3E3" height="32.6211" rx="2.5" ry="2.5" style="stroke:#181818;stroke-width:0.5;" width="104" x="323" y="89.6211"/><text fill="#000000" font-family="sans-serif" font-size="14" lengthAdjust="spacing" textLength="90" x="330" y="111.7285">:AssignSkillsUI</text><rect fill="#E3E3E3" height="32.6211" rx="2.5" ry="2.5" style="stroke:#181818;stroke-width:0.5;" width="104" x="323" y="2130.6934"/><text fill="#000000" font-family="sans-serif" font-size="14" lengthAdjust="spacing" textLength="90" x="330" y="2152.8008">:AssignSkillsUI</text><rect fill="#E3E3E3" height="32.6211" rx="2.5" ry="2.5" style="stroke:#181818;stroke-width:0.5;" width="154" x="541" y="2130.6934"/><text fill="#000000" font-family="sans-serif" font-size="14" lengthAdjust="spacing" textLength="140" x="548" y="2152.8008">:AssignSkillsController</text><rect fill="#E3E3E3" height="32.6211" rx="2.5" ry="2.5" style="stroke:#181818;stroke-width:0.5;" width="97" x="899.5" y="89.6211"/><text fill="#000000" font-family="sans-serif" font-size="14" lengthAdjust="spacing" textLength="83" x="906.5" y="111.7285">:Repositories</text><rect fill="#E3E3E3" height="32.6211" rx="2.5" ry="2.5" style="stroke:#181818;stroke-width:0.5;" width="97" x="899.5" y="2130.6934"/><text fill="#000000" font-family="sans-serif" font-size="14" lengthAdjust="spacing" textLength="83" x="906.5" y="2152.8008">:Repositories</text><rect fill="#E3E3E3" height="51.2422" rx="2.5" ry="2.5" style="stroke:#181818;stroke-width:0.5;" width="97" x="1006.5" y="71"/><text fill="#000000" font-family="sans-serif" font-size="14" lengthAdjust="spacing" textLength="74" x="1018" y="93.1074">repositories</text><text fill="#000000" font-family="sans-serif" font-size="14" lengthAdjust="spacing" textLength="83" x="1013.5" y="111.7285">:Repositories</text><rect fill="#E3E3E3" height="51.2422" rx="2.5" ry="2.5" style="stroke:#181818;stroke-width:0.5;" width="97" x="1006.5" y="2130.6934"/><text fill="#000000" font-family="sans-serif" font-size="14" lengthAdjust="spacing" textLength="74" x="1018" y="2152.8008">repositories</text><text fill="#000000" font-family="sans-serif" font-size="14" lengthAdjust="spacing" textLength="83" x="1013.5" y="2171.4219">:Repositories</text><rect fill="#E3E3E3" height="51.2422" rx="2.5" ry="2.5" style="stroke:#181818;stroke-width:0.5;" width="109" x="1113.5" y="71"/><text fill="#000000" font-family="sans-serif" font-size="14" lengthAdjust="spacing" textLength="95" x="1120.5" y="93.1074">skillRepository:</text><text fill="#000000" font-family="sans-serif" font-size="14" lengthAdjust="spacing" textLength="93" x="1121.5" y="111.7285">SkillRepository</text><rect fill="#E3E3E3" height="51.2422" rx="2.5" ry="2.5" style="stroke:#181818;stroke-width:0.5;" width="109" x="1113.5" y="2130.6934"/><text fill="#000000" font-family="sans-serif" font-size="14" lengthAdjust="spacing" textLength="95" x="1120.5" y="2152.8008">skillRepository:</text><text fill="#000000" font-family="sans-serif" font-size="14" lengthAdjust="spacing" textLength="93" x="1121.5" y="2171.4219">SkillRepository</text><rect fill="#E3E3E3" height="51.2422" rx="2.5" ry="2.5" style="stroke:#181818;stroke-width:0.5;" width="121" x="1307.5" y="2130.6934"/><text fill="#000000" font-family="sans-serif" font-size="14" lengthAdjust="spacing" textLength="107" x="1314.5" y="2152.8008">selectedSkillsList</text><text fill="#000000" font-family="sans-serif" font-size="14" lengthAdjust="spacing" textLength="63" x="1336.5" y="2171.4219">List&lt;Skill&gt;</text><rect fill="#E3E3E3" height="51.2422" rx="2.5" ry="2.5" style="stroke:#181818;stroke-width:0.5;" width="161" x="1438.5" y="71"/><text fill="#000000" font-family="sans-serif" font-size="14" lengthAdjust="spacing" textLength="147" x="1445.5" y="93.1074">collaboratorRepository:</text><text fill="#000000" font-family="sans-serif" font-size="14" lengthAdjust="spacing" textLength="146" x="1446" y="111.7285">CollaboratorRepository</text><rect fill="#E3E3E3" height="51.2422" rx="2.5" ry="2.5" style="stroke:#181818;stroke-width:0.5;" width="161" x="1438.5" y="2130.6934"/><text fill="#000000" font-family="sans-serif" font-size="14" lengthAdjust="spacing" textLength="147" x="1445.5" y="2152.8008">collaboratorRepository:</text><text fill="#000000" font-family="sans-serif" font-size="14" lengthAdjust="spacing" textLength="146" x="1446" y="2171.4219">CollaboratorRepository</text><rect fill="#E3E3E3" height="51.2422" rx="2.5" ry="2.5" style="stroke:#181818;stroke-width:0.5;" width="96" x="1766" y="71"/><text fill="#000000" font-family="sans-serif" font-size="14" lengthAdjust="spacing" textLength="75" x="1776.5" y="93.1074">collaborator</text><text fill="#000000" font-family="sans-serif" font-size="14" lengthAdjust="spacing" textLength="82" x="1773" y="111.7285">:Collaborator</text><rect fill="#E3E3E3" height="51.2422" rx="2.5" ry="2.5" style="stroke:#181818;stroke-width:0.5;" width="96" x="1766" y="2130.6934"/><text fill="#000000" font-family="sans-serif" font-size="14" lengthAdjust="spacing" textLength="75" x="1776.5" y="2152.8008">collaborator</text><text fill="#000000" font-family="sans-serif" font-size="14" lengthAdjust="spacing" textLength="82" x="1773" y="2171.4219">:Collaborator</text><rect fill="#FFFFFF" height="1980.4512" style="stroke:#181818;stroke-width:1.0;" width="10" x="33" y="133.2422"/><rect fill="#FFFFFF" height="325.2402" style="stroke:#181818;stroke-width:1.0;" width="10" x="370" y="156.5332"/><rect fill="#FFFFFF" height="401.4434" style="stroke:#181818;stroke-width:1.0;" width="10" x="370" y="513.0645"/><rect fill="#FFFFFF" height="243.7461" style="stroke:#181818;stroke-width:1.0;" width="10" x="370" y="945.7988"/><rect fill="#FFFFFF" height="38.291" style="stroke:#181818;stroke-width:1.0;" width="10" x="370" y="1220.8359"/><rect fill="#FFFFFF" height="823.2754" style="stroke:#181818;stroke-width:1.0;" width="10" x="370" y="1290.418"/><rect fill="#FFFFFF" height="219.0371" style="stroke:#181818;stroke-width:1.0;" width="10" x="613" y="231.4453"/><rect fill="#FFFFFF" height="312.5703" style="stroke:#181818;stroke-width:1.0;" width="10" x="613" y="544.3555"/><rect fill="#FFFFFF" height="181.1641" style="stroke:#181818;stroke-width:1.0;" width="10" x="613" y="977.0898"/><rect fill="#FFFFFF" height="760.6934" style="stroke:#181818;stroke-width:1.0;" width="10" x="613" y="1321.709"/><rect fill="#FFFFFF" height="67.582" style="stroke:#181818;stroke-width:1.0;" width="10" x="618" y="1361"/><rect fill="#FFFFFF" height="325.9102" style="stroke:#181818;stroke-width:1.0;" width="10" x="618" y="1467.873"/><rect fill="#FFFFFF" height="31.291" style="stroke:#181818;stroke-width:1.0;" width="10" x="943" y="262.7363"/><rect fill="#FFFFFF" height="31.291" style="stroke:#181818;stroke-width:1.0;" width="10" x="943" y="575.6465"/><rect fill="#FFFFFF" height="31.291" style="stroke:#181818;stroke-width:1.0;" width="10" x="943" y="1504.1641"/><rect fill="#FFFFFF" height="31.291" style="stroke:#181818;stroke-width:1.0;" width="10" x="943" y="1832.0742"/><rect fill="#FFFFFF" height="31.291" style="stroke:#181818;stroke-width:1.0;" width="10" x="1050" y="325.3184"/><rect fill="#FFFFFF" height="31.291" style="stroke:#181818;stroke-width:1.0;" width="10" x="1050" y="638.2285"/><rect fill="#FFFFFF" height="31.291" style="stroke:#181818;stroke-width:1.0;" width="10" x="1050" y="1566.7461"/><rect fill="#FFFFFF" height="31.291" style="stroke:#181818;stroke-width:1.0;" width="10" x="1050" y="1894.6563"/><rect fill="#FFFFFF" height="31.291" style="stroke:#181818;stroke-width:1.0;" width="10" x="1163" y="700.8105"/><rect fill="#FFFFFF" height="31.291" style="stroke:#181818;stroke-width:1.0;" width="10" x="1163" y="763.3926"/><rect fill="#FFFFFF" height="149.873" style="stroke:#181818;stroke-width:1.0;" width="10" x="1163" y="1008.3809"/><rect fill="#FFFFFF" height="42.291" style="stroke:#181818;stroke-width:1.0;" width="10" x="1168" y="1047.6719"/><rect fill="#FFFFFF" height="31.291" style="stroke:#181818;stroke-width:1.0;" width="10" x="1163" y="1397.291"/><rect fill="#FFFFFF" height="30" style="stroke:#181818;stroke-width:1.0;" width="10" x="1363" y="1128.2539"/><rect fill="#FFFFFF" height="31.291" style="stroke:#181818;stroke-width:1.0;" width="10" x="1514" y="387.9004"/><rect fill="#FFFFFF" height="127.1641" style="stroke:#181818;stroke-width:1.0;" width="10" x="1514" y="1629.3281"/><rect fill="#FFFFFF" height="93.873" style="stroke:#181818;stroke-width:1.0;" width="10" x="1514" y="1957.2383"/><rect fill="#FFFFFF" height="31.291" style="stroke:#181818;stroke-width:1.0;" width="10" x="1809" y="1686.9102"/><rect fill="#FFFFFF" height="31.291" style="stroke:#181818;stroke-width:1.0;" width="10" x="1809" y="1988.5293"/><polygon fill="#181818" points="358,152.5332,368,156.5332,358,160.5332,362,156.5332" style="stroke:#181818;stroke-width:1.0;"/><line style="stroke:#181818;stroke-width:1.0;" x1="43" x2="364" y1="156.5332" y2="156.5332"/><text fill="#000000" font-family="sans-serif" font-size="13" font-weight="bold" lengthAdjust="spacing" textLength="7" x="50" y="151.2705">1</text><text fill="#000000" font-family="sans-serif" font-size="13" lengthAdjust="spacing" textLength="224" x="61" y="151.2705">asks to assign skill(s) to a collaborator</text><polygon fill="#181818" points="529,183.8242,539,187.8242,529,191.8242,533,187.8242" style="stroke:#181818;stroke-width:1.0;"/><line style="stroke:#181818;stroke-width:1.0;" x1="380" x2="535" y1="187.8242" y2="187.8242"/><text fill="#000000" font-family="sans-serif" font-size="13" font-weight="bold" lengthAdjust="spacing" textLength="7" x="387" y="182.5615">2</text><text fill="#000000" font-family="sans-serif" font-size="13" lengthAdjust="spacing" textLength="36" x="398" y="182.5615">create</text><rect fill="#E3E3E3" height="32.6211" rx="2.5" ry="2.5" style="stroke:#181818;stroke-width:0.5;" width="154" x="541" y="164.5332"/><text fill="#000000" font-family="sans-serif" font-size="14" lengthAdjust="spacing" textLength="140" x="548" y="186.6406">:AssignSkillsController</text><polygon fill="#181818" points="601,227.4453,611,231.4453,601,235.4453,605,231.4453" style="stroke:#181818;stroke-width:1.0;"/><line style="stroke:#181818;stroke-width:1.0;" x1="380" x2="607" y1="231.4453" y2="231.4453"/><text fill="#000000" font-family="sans-serif" font-size="13" font-weight="bold" lengthAdjust="spacing" textLength="7" x="387" y="226.1826">3</text><text fill="#000000" font-family="sans-serif" font-size="13" lengthAdjust="spacing" textLength="102" x="398" y="226.1826">getCollaborators()</text><polygon fill="#181818" points="931,258.7363,941,262.7363,931,266.7363,935,262.7363" style="stroke:#181818;stroke-width:1.0;"/><line style="stroke:#181818;stroke-width:1.0;" x1="623" x2="937" y1="262.7363" y2="262.7363"/><text fill="#000000" font-family="sans-serif" font-size="13" font-weight="bold" lengthAdjust="spacing" textLength="7" x="630" y="257.4736">4</text><text fill="#000000" font-family="sans-serif" font-size="13" lengthAdjust="spacing" textLength="75" x="641" y="257.4736">getInstance()</text><polygon fill="#181818" points="634,290.0273,624,294.0273,634,298.0273,630,294.0273" style="stroke:#181818;stroke-width:1.0;"/><line style="stroke:#181818;stroke-width:1.0;stroke-dasharray:2.0,2.0;" x1="628" x2="947" y1="294.0273" y2="294.0273"/><text fill="#000000" font-family="sans-serif" font-size="13" font-weight="bold" lengthAdjust="spacing" textLength="7" x="640" y="288.7646">5</text><text fill="#000000" font-family="sans-serif" font-size="13" lengthAdjust="spacing" textLength="67" x="651" y="288.7646">repositories</text><polygon fill="#181818" points="1038,321.3184,1048,325.3184,1038,329.3184,1042,325.3184" style="stroke:#181818;stroke-width:1.0;"/><line style="stroke:#181818;stroke-width:1.0;" x1="623" x2="1044" y1="325.3184" y2="325.3184"/><text fill="#000000" font-family="sans-serif" font-size="13" font-weight="bold" lengthAdjust="spacing" textLength="7" x="630" y="320.0557">6</text><text fill="#000000" font-family="sans-serif" font-size="13" lengthAdjust="spacing" textLength="157" x="641" y="320.0557">getCollaboratorRepository()</text><polygon fill="#181818" points="634,352.6094,624,356.6094,634,360.6094,630,356.6094" style="stroke:#181818;stroke-width:1.0;"/><line style="stroke:#181818;stroke-width:1.0;stroke-dasharray:2.0,2.0;" x1="628" x2="1054" y1="356.6094" y2="356.6094"/><text fill="#000000" font-family="sans-serif" font-size="13" font-weight="bold" lengthAdjust="spacing" textLength="7" x="640" y="351.3467">7</text><text fill="#000000" font-family="sans-serif" font-size="13" lengthAdjust="spacing" textLength="129" x="651" y="351.3467">collaboratorRepository</text><polygon fill="#181818" points="1502,383.9004,1512,387.9004,1502,391.9004,1506,387.9004" style="stroke:#181818;stroke-width:1.0;"/><line style="stroke:#181818;stroke-width:1.0;" x1="623" x2="1508" y1="387.9004" y2="387.9004"/><text fill="#000000" font-family="sans-serif" font-size="13" font-weight="bold" lengthAdjust="spacing" textLength="7" x="630" y="382.6377">8</text><text fill="#000000" font-family="sans-serif" font-size="13" lengthAdjust="spacing" textLength="102" x="641" y="382.6377">getCollaborators()</text><polygon fill="#181818" points="634,415.1914,624,419.1914,634,423.1914,630,419.1914" style="stroke:#181818;stroke-width:1.0;"/><line style="stroke:#181818;stroke-width:1.0;stroke-dasharray:2.0,2.0;" x1="628" x2="1518" y1="419.1914" y2="419.1914"/><text fill="#000000" font-family="sans-serif" font-size="13" font-weight="bold" lengthAdjust="spacing" textLength="7" x="640" y="413.9287">9</text><text fill="#000000" font-family="sans-serif" font-size="13" lengthAdjust="spacing" textLength="95" x="651" y="413.9287">collaboratorsList</text><polygon fill="#181818" points="391,446.4824,381,450.4824,391,454.4824,387,450.4824" style="stroke:#181818;stroke-width:1.0;"/><line style="stroke:#181818;stroke-width:1.0;stroke-dasharray:2.0,2.0;" x1="385" x2="617" y1="450.4824" y2="450.4824"/><text fill="#000000" font-family="sans-serif" font-size="13" font-weight="bold" lengthAdjust="spacing" textLength="14" x="397" y="445.2197">10</text><text fill="#000000" font-family="sans-serif" font-size="13" lengthAdjust="spacing" textLength="95" x="415" y="445.2197">collaboratorsList</text><polygon fill="#181818" points="54,477.7734,44,481.7734,54,485.7734,50,481.7734" style="stroke:#181818;stroke-width:1.0;"/><line style="stroke:#181818;stroke-width:1.0;stroke-dasharray:2.0,2.0;" x1="48" x2="374" y1="481.7734" y2="481.7734"/><text fill="#000000" font-family="sans-serif" font-size="13" font-weight="bold" lengthAdjust="spacing" textLength="14" x="60" y="476.5107">11</text><text fill="#000000" font-family="sans-serif" font-size="13" lengthAdjust="spacing" textLength="180" x="78" y="476.5107">shows list with all collaborators</text><polygon fill="#181818" points="358,509.0645,368,513.0645,358,517.0645,362,513.0645" style="stroke:#181818;stroke-width:1.0;"/><line style="stroke:#181818;stroke-width:1.0;" x1="43" x2="364" y1="513.0645" y2="513.0645"/><text fill="#000000" font-family="sans-serif" font-size="13" font-weight="bold" lengthAdjust="spacing" textLength="14" x="50" y="507.8018">12</text><text fill="#000000" font-family="sans-serif" font-size="13" lengthAdjust="spacing" textLength="135" x="68" y="507.8018">selects the collaborator</text><polygon fill="#181818" points="601,540.3555,611,544.3555,601,548.3555,605,544.3555" style="stroke:#181818;stroke-width:1.0;"/><line style="stroke:#181818;stroke-width:1.0;" x1="380" x2="607" y1="544.3555" y2="544.3555"/><text fill="#000000" font-family="sans-serif" font-size="13" font-weight="bold" lengthAdjust="spacing" textLength="14" x="387" y="539.0928">13</text><text fill="#000000" font-family="sans-serif" font-size="13" lengthAdjust="spacing" textLength="79" x="405" y="539.0928">getSkillsList()</text><polygon fill="#181818" points="931,571.6465,941,575.6465,931,579.6465,935,575.6465" style="stroke:#181818;stroke-width:1.0;"/><line style="stroke:#181818;stroke-width:1.0;" x1="623" x2="937" y1="575.6465" y2="575.6465"/><text fill="#000000" font-family="sans-serif" font-size="13" font-weight="bold" lengthAdjust="spacing" textLength="14" x="630" y="570.3838">14</text><text fill="#000000" font-family="sans-serif" font-size="13" lengthAdjust="spacing" textLength="75" x="648" y="570.3838">getInstance()</text><polygon fill="#181818" points="634,602.9375,624,606.9375,634,610.9375,630,606.9375" style="stroke:#181818;stroke-width:1.0;"/><line style="stroke:#181818;stroke-width:1.0;stroke-dasharray:2.0,2.0;" x1="628" x2="947" y1="606.9375" y2="606.9375"/><text fill="#000000" font-family="sans-serif" font-size="13" font-weight="bold" lengthAdjust="spacing" textLength="14" x="640" y="601.6748">15</text><text fill="#000000" font-family="sans-serif" font-size="13" lengthAdjust="spacing" textLength="67" x="658" y="601.6748">repositories</text><polygon fill="#181818" points="1038,634.2285,1048,638.2285,1038,642.2285,1042,638.2285" style="stroke:#181818;stroke-width:1.0;"/><line style="stroke:#181818;stroke-width:1.0;" x1="623" x2="1044" y1="638.2285" y2="638.2285"/><text fill="#000000" font-family="sans-serif" font-size="13" font-weight="bold" lengthAdjust="spacing" textLength="14" x="630" y="632.9658">16</text><text fill="#000000" font-family="sans-serif" font-size="13" lengthAdjust="spacing" textLength="113" x="648" y="632.9658">getSkillRepository()</text><polygon fill="#181818" points="634,665.5195,624,669.5195,634,673.5195,630,669.5195" style="stroke:#181818;stroke-width:1.0;"/><line style="stroke:#181818;stroke-width:1.0;stroke-dasharray:2.0,2.0;" x1="628" x2="1054" y1="669.5195" y2="669.5195"/><text fill="#000000" font-family="sans-serif" font-size="13" font-weight="bold" lengthAdjust="spacing" textLength="14" x="640" y="664.2568">17</text><text fill="#000000" font-family="sans-serif" font-size="13" lengthAdjust="spacing" textLength="85" x="658" y="664.2568">skillRepository</text><polygon fill="#181818" points="1151,696.8105,1161,700.8105,1151,704.8105,1155,700.8105" style="stroke:#181818;stroke-width:1.0;"/><line style="stroke:#181818;stroke-width:1.0;" x1="623" x2="1157" y1="700.8105" y2="700.8105"/><text fill="#000000" font-family="sans-serif" font-size="13" font-weight="bold" lengthAdjust="spacing" textLength="14" x="630" y="695.5479">18</text><text fill="#000000" font-family="sans-serif" font-size="13" lengthAdjust="spacing" textLength="58" x="648" y="695.5479">getSkills()</text><polygon fill="#181818" points="634,728.1016,624,732.1016,634,736.1016,630,732.1016" style="stroke:#181818;stroke-width:1.0;"/><line style="stroke:#181818;stroke-width:1.0;stroke-dasharray:2.0,2.0;" x1="628" x2="1167" y1="732.1016" y2="732.1016"/><text fill="#000000" font-family="sans-serif" font-size="13" font-weight="bold" lengthAdjust="spacing" textLength="14" x="640" y="726.8389">19</text><text fill="#000000" font-family="sans-serif" font-size="13" lengthAdjust="spacing" textLength="51" x="658" y="726.8389">skillsList</text><polygon fill="#181818" points="1151,759.3926,1161,763.3926,1151,767.3926,1155,763.3926" style="stroke:#181818;stroke-width:1.0;"/><line style="stroke:#181818;stroke-width:1.0;" x1="623" x2="1157" y1="763.3926" y2="763.3926"/><text fill="#000000" font-family="sans-serif" font-size="13" font-weight="bold" lengthAdjust="spacing" textLength="14" x="630" y="758.1299">20</text><text fill="#000000" font-family="sans-serif" font-size="13" lengthAdjust="spacing" textLength="148" x="648" y="758.1299">createSelectedSkillsList()</text><polygon fill="#181818" points="1295.5,790.6836,1305.5,794.6836,1295.5,798.6836,1299.5,794.6836" style="stroke:#181818;stroke-width:1.0;"/><line style="stroke:#181818;stroke-width:1.0;" x1="1168" x2="1301.5" y1="794.6836" y2="794.6836"/><text fill="#000000" font-family="sans-serif" font-size="13" font-weight="bold" lengthAdjust="spacing" textLength="14" x="1175" y="789.4209">21</text><text fill="#000000" font-family="sans-serif" font-size="13" lengthAdjust="spacing" textLength="44" x="1193" y="789.4209">create()</text><rect fill="#E3E3E3" height="51.2422" rx="2.5" ry="2.5" style="stroke:#181818;stroke-width:0.5;" width="121" x="1307.5" y="771.3926"/><text fill="#000000" font-family="sans-serif" font-size="14" lengthAdjust="spacing" textLength="107" x="1314.5" y="793.5">selectedSkillsList</text><text fill="#000000" font-family="sans-serif" font-size="14" lengthAdjust="spacing" textLength="63" x="1336.5" y="812.1211">List&lt;Skill&gt;</text><polygon fill="#181818" points="391,852.9258,381,856.9258,391,860.9258,387,856.9258" style="stroke:#181818;stroke-width:1.0;"/><line style="stroke:#181818;stroke-width:1.0;stroke-dasharray:2.0,2.0;" x1="385" x2="617" y1="856.9258" y2="856.9258"/><text fill="#000000" font-family="sans-serif" font-size="13" font-weight="bold" lengthAdjust="spacing" textLength="14" x="397" y="851.6631">22</text><text fill="#000000" font-family="sans-serif" font-size="13" lengthAdjust="spacing" textLength="51" x="415" y="851.6631">skillsList</text><path d="M10,871.9258 L83,871.9258 L83,881.2168 L73,891.2168 L10,891.2168 L10,871.9258 " fill="#EEEEEE" style="stroke:#000000;stroke-width:1.5;"/><rect fill="none" height="356.9102" style="stroke:#000000;stroke-width:1.5;" width="1428.5" x="10" y="871.9258"/><text fill="#000000" font-family="sans-serif" font-size="13" font-weight="bold" lengthAdjust="spacing" textLength="28" x="25" y="886.9541">loop</text><text fill="#000000" font-family="sans-serif" font-size="11" font-weight="bold" lengthAdjust="spacing" textLength="167" x="98" y="885.7959">[while HRM wants to continue]</text><polygon fill="#181818" points="54,910.5078,44,914.5078,54,918.5078,50,914.5078" style="stroke:#181818;stroke-width:1.0;"/><line style="stroke:#181818;stroke-width:1.0;stroke-dasharray:2.0,2.0;" x1="48" x2="374" y1="914.5078" y2="914.5078"/><text fill="#000000" font-family="sans-serif" font-size="13" font-weight="bold" lengthAdjust="spacing" textLength="14" x="60" y="909.2451">23</text><text fill="#000000" font-family="sans-serif" font-size="13" lengthAdjust="spacing" textLength="250" x="78" y="909.2451">shows skills list and requests to select one</text><polygon fill="#181818" points="358,941.7988,368,945.7988,358,949.7988,362,945.7988" style="stroke:#181818;stroke-width:1.0;"/><line style="stroke:#181818;stroke-width:1.0;" x1="43" x2="364" y1="945.7988" y2="945.7988"/><text fill="#000000" font-family="sans-serif" font-size="13" font-weight="bold" lengthAdjust="spacing" textLength="14" x="50" y="940.5361">24</text><text fill="#000000" font-family="sans-serif" font-size="13" lengthAdjust="spacing" textLength="94" x="68" y="940.5361">selects one skill</text><polygon fill="#181818" points="601,973.0898,611,977.0898,601,981.0898,605,977.0898" style="stroke:#181818;stroke-width:1.0;"/><line style="stroke:#181818;stroke-width:1.0;" x1="380" x2="607" y1="977.0898" y2="977.0898"/><text fill="#000000" font-family="sans-serif" font-size="13" font-weight="bold" lengthAdjust="spacing" textLength="14" x="387" y="971.8271">25</text><text fill="#000000" font-family="sans-serif" font-size="13" lengthAdjust="spacing" textLength="196" x="405" y="971.8271">addSelectedSkillName(skillName)</text><polygon fill="#181818" points="1151,1004.3809,1161,1008.3809,1151,1012.3809,1155,1008.3809" style="stroke:#181818;stroke-width:1.0;"/><line style="stroke:#181818;stroke-width:1.0;" x1="623" x2="1157" y1="1008.3809" y2="1008.3809"/><text fill="#000000" font-family="sans-serif" font-size="13" font-weight="bold" lengthAdjust="spacing" textLength="14" x="630" y="1003.1182">26</text><text fill="#000000" font-family="sans-serif" font-size="13" lengthAdjust="spacing" textLength="162" x="648" y="1003.1182">addSelectedSkill(skillName)</text><line style="stroke:#181818;stroke-width:1.0;" x1="1173" x2="1220" y1="1034.6719" y2="1034.6719"/><line style="stroke:#181818;stroke-width:1.0;" x1="1220" x2="1220" y1="1034.6719" y2="1047.6719"/><line style="stroke:#181818;stroke-width:1.0;" x1="1179" x2="1220" y1="1047.6719" y2="1047.6719"/><polygon fill="#181818" points="1189,1043.6719,1179,1047.6719,1189,1051.6719,1185,1047.6719" style="stroke:#181818;stroke-width:1.0;"/><text fill="#000000" font-family="sans-serif" font-size="13" font-weight="bold" lengthAdjust="spacing" textLength="14" x="1185" y="1029.4092">27</text><text fill="#000000" font-family="sans-serif" font-size="13" lengthAdjust="spacing" textLength="158" x="1203" y="1029.4092">getSkillByName(skillName)</text><line style="stroke:#181818;stroke-width:1.0;stroke-dasharray:2.0,2.0;" x1="1178" x2="1220" y1="1088.9629" y2="1088.9629"/><line style="stroke:#181818;stroke-width:1.0;stroke-dasharray:2.0,2.0;" x1="1220" x2="1220" y1="1088.9629" y2="1101.9629"/><line style="stroke:#181818;stroke-width:1.0;stroke-dasharray:2.0,2.0;" x1="1173" x2="1220" y1="1101.9629" y2="1101.9629"/><polygon fill="#181818" points="1183,1097.9629,1173,1101.9629,1183,1105.9629,1179,1101.9629" style="stroke:#181818;stroke-width:1.0;"/><text fill="#000000" font-family="sans-serif" font-size="13" font-weight="bold" lengthAdjust="spacing" textLength="14" x="1185" y="1083.7002">28</text><text fill="#000000" font-family="sans-serif" font-size="13" lengthAdjust="spacing" textLength="23" x="1203" y="1083.7002">skill</text><polygon fill="#181818" points="1351,1124.2539,1361,1128.2539,1351,1132.2539,1355,1128.2539" style="stroke:#181818;stroke-width:1.0;"/><line style="stroke:#181818;stroke-width:1.0;" x1="1173" x2="1357" y1="1128.2539" y2="1128.2539"/><text fill="#000000" font-family="sans-serif" font-size="13" font-weight="bold" lengthAdjust="spacing" textLength="14" x="1180" y="1122.9912">29</text><text fill="#000000" font-family="sans-serif" font-size="13" lengthAdjust="spacing" textLength="52" x="1198" y="1122.9912">add(skill)</text><polygon fill="#181818" points="54,1185.5449,44,1189.5449,54,1193.5449,50,1189.5449" style="stroke:#181818;stroke-width:1.0;"/><line style="stroke:#181818;stroke-width:1.0;stroke-dasharray:2.0,2.0;" x1="48" x2="374" y1="1189.5449" y2="1189.5449"/><text fill="#000000" font-family="sans-serif" font-size="13" font-weight="bold" lengthAdjust="spacing" textLength="14" x="60" y="1184.2822">30</text><text fill="#000000" font-family="sans-serif" font-size="13" lengthAdjust="spacing" textLength="96" x="78" y="1184.2822">asks to continue</text><polygon fill="#181818" points="358,1216.8359,368,1220.8359,358,1224.8359,362,1220.8359" style="stroke:#181818;stroke-width:1.0;"/><line style="stroke:#181818;stroke-width:1.0;" x1="43" x2="364" y1="1220.8359" y2="1220.8359"/><text fill="#000000" font-family="sans-serif" font-size="13" font-weight="bold" lengthAdjust="spacing" textLength="14" x="50" y="1215.5732">31</text><text fill="#000000" font-family="sans-serif" font-size="13" lengthAdjust="spacing" textLength="111" x="68" y="1215.5732">responds yes or no</text><polygon fill="#181818" points="54,1255.127,44,1259.127,54,1263.127,50,1259.127" style="stroke:#181818;stroke-width:1.0;"/><line style="stroke:#181818;stroke-width:1.0;stroke-dasharray:2.0,2.0;" x1="48" x2="374" y1="1259.127" y2="1259.127"/><text fill="#000000" font-family="sans-serif" font-size="13" font-weight="bold" lengthAdjust="spacing" textLength="14" x="60" y="1253.8643">32</text><text fill="#000000" font-family="sans-serif" font-size="13" lengthAdjust="spacing" textLength="285" x="78" y="1253.8643">shows skill(s) selected and requests confirmation</text><polygon fill="#181818" points="358,1286.418,368,1290.418,358,1294.418,362,1290.418" style="stroke:#181818;stroke-width:1.0;"/><line style="stroke:#181818;stroke-width:1.0;" x1="43" x2="364" y1="1290.418" y2="1290.418"/><text fill="#000000" font-family="sans-serif" font-size="13" font-weight="bold" lengthAdjust="spacing" textLength="14" x="50" y="1285.1553">33</text><text fill="#000000" font-family="sans-serif" font-size="13" lengthAdjust="spacing" textLength="78" x="68" y="1285.1553">confirms data</text><polygon fill="#181818" points="601,1317.709,611,1321.709,601,1325.709,605,1321.709" style="stroke:#181818;stroke-width:1.0;"/><line style="stroke:#181818;stroke-width:1.0;" x1="380" x2="607" y1="1321.709" y2="1321.709"/><text fill="#000000" font-family="sans-serif" font-size="13" font-weight="bold" lengthAdjust="spacing" textLength="14" x="387" y="1316.4463">34</text><text fill="#000000" font-family="sans-serif" font-size="13" lengthAdjust="spacing" textLength="193" x="405" y="1316.4463">assignSkill(collaboratorIdNumber)</text><line style="stroke:#181818;stroke-width:1.0;" x1="623" x2="670" y1="1348" y2="1348"/><line style="stroke:#181818;stroke-width:1.0;" x1="670" x2="670" y1="1348" y2="1361"/><line style="stroke:#181818;stroke-width:1.0;" x1="629" x2="670" y1="1361" y2="1361"/><polygon fill="#181818" points="639,1357,629,1361,639,1365,635,1361" style="stroke:#181818;stroke-width:1.0;"/><text fill="#000000" font-family="sans-serif" font-size="13" font-weight="bold" lengthAdjust="spacing" textLength="14" x="635" y="1342.7373">35</text><text fill="#000000" font-family="sans-serif" font-size="13" lengthAdjust="spacing" textLength="130" x="653" y="1342.7373">getSelectedSkillsList()</text><polygon fill="#181818" points="1151,1393.291,1161,1397.291,1151,1401.291,1155,1397.291" style="stroke:#181818;stroke-width:1.0;"/><line style="stroke:#181818;stroke-width:1.0;" x1="628" x2="1157" y1="1397.291" y2="1397.291"/><text fill="#000000" font-family="sans-serif" font-size="13" font-weight="bold" lengthAdjust="spacing" textLength="14" x="635" y="1392.0283">36</text><text fill="#000000" font-family="sans-serif" font-size="13" lengthAdjust="spacing" textLength="130" x="653" y="1392.0283">getSelectedSkillsList()</text><polygon fill="#181818" points="634,1424.582,624,1428.582,634,1432.582,630,1428.582" style="stroke:#181818;stroke-width:1.0;"/><line style="stroke:#181818;stroke-width:1.0;stroke-dasharray:2.0,2.0;" x1="628" x2="1167" y1="1428.582" y2="1428.582"/><text fill="#000000" font-family="sans-serif" font-size="13" font-weight="bold" lengthAdjust="spacing" textLength="14" x="640" y="1423.3193">37</text><text fill="#000000" font-family="sans-serif" font-size="13" lengthAdjust="spacing" textLength="102" x="658" y="1423.3193">selectedSkillsList</text><line style="stroke:#181818;stroke-width:1.0;" x1="623" x2="670" y1="1454.873" y2="1454.873"/><line style="stroke:#181818;stroke-width:1.0;" x1="670" x2="670" y1="1454.873" y2="1467.873"/><line style="stroke:#181818;stroke-width:1.0;" x1="629" x2="670" y1="1467.873" y2="1467.873"/><polygon fill="#181818" points="639,1463.873,629,1467.873,639,1471.873,635,1467.873" style="stroke:#181818;stroke-width:1.0;"/><text fill="#000000" font-family="sans-serif" font-size="13" font-weight="bold" lengthAdjust="spacing" textLength="14" x="635" y="1449.6104">38</text><text fill="#000000" font-family="sans-serif" font-size="13" lengthAdjust="spacing" textLength="288" x="653" y="1449.6104">getCollaboratorByIdNumber(collaboratorIdNumber)</text><polygon fill="#181818" points="931,1500.1641,941,1504.1641,931,1508.1641,935,1504.1641" style="stroke:#181818;stroke-width:1.0;"/><line style="stroke:#181818;stroke-width:1.0;" x1="628" x2="937" y1="1504.1641" y2="1504.1641"/><text fill="#000000" font-family="sans-serif" font-size="13" font-weight="bold" lengthAdjust="spacing" textLength="14" x="635" y="1498.9014">39</text><text fill="#000000" font-family="sans-serif" font-size="13" lengthAdjust="spacing" textLength="75" x="653" y="1498.9014">getInstance()</text><polygon fill="#181818" points="639,1531.4551,629,1535.4551,639,1539.4551,635,1535.4551" style="stroke:#181818;stroke-width:1.0;"/><line style="stroke:#181818;stroke-width:1.0;stroke-dasharray:2.0,2.0;" x1="633" x2="947" y1="1535.4551" y2="1535.4551"/><text fill="#000000" font-family="sans-serif" font-size="13" font-weight="bold" lengthAdjust="spacing" textLength="14" x="645" y="1530.1924">40</text><text fill="#000000" font-family="sans-serif" font-size="13" lengthAdjust="spacing" textLength="67" x="663" y="1530.1924">repositories</text><polygon fill="#181818" points="1038,1562.7461,1048,1566.7461,1038,1570.7461,1042,1566.7461" style="stroke:#181818;stroke-width:1.0;"/><line style="stroke:#181818;stroke-width:1.0;" x1="628" x2="1044" y1="1566.7461" y2="1566.7461"/><text fill="#000000" font-family="sans-serif" font-size="13" font-weight="bold" lengthAdjust="spacing" textLength="14" x="635" y="1561.4834">41</text><text fill="#000000" font-family="sans-serif" font-size="13" lengthAdjust="spacing" textLength="157" x="653" y="1561.4834">getCollaboratorRepository()</text><polygon fill="#181818" points="639,1594.0371,629,1598.0371,639,1602.0371,635,1598.0371" style="stroke:#181818;stroke-width:1.0;"/><line style="stroke:#181818;stroke-width:1.0;" x1="633" x2="1054" y1="1598.0371" y2="1598.0371"/><text fill="#000000" font-family="sans-serif" font-size="13" font-weight="bold" lengthAdjust="spacing" textLength="14" x="645" y="1592.7744">42</text><text fill="#000000" font-family="sans-serif" font-size="13" lengthAdjust="spacing" textLength="129" x="663" y="1592.7744">collaboratorRepository</text><polygon fill="#181818" points="1502,1625.3281,1512,1629.3281,1502,1633.3281,1506,1629.3281" style="stroke:#181818;stroke-width:1.0;"/><line style="stroke:#181818;stroke-width:1.0;" x1="628" x2="1508" y1="1629.3281" y2="1629.3281"/><text fill="#000000" font-family="sans-serif" font-size="13" font-weight="bold" lengthAdjust="spacing" textLength="14" x="635" y="1624.0654">43</text><text fill="#000000" font-family="sans-serif" font-size="13" lengthAdjust="spacing" textLength="288" x="653" y="1624.0654">getCollaboratorByIdNumber(collaboratorIdNumber)</text><path d="M1428.5,1644.3281 L1501.5,1644.3281 L1501.5,1653.6191 L1491.5,1663.6191 L1428.5,1663.6191 L1428.5,1644.3281 " fill="#EEEEEE" style="stroke:#000000;stroke-width:1.5;"/><rect fill="none" height="81.873" style="stroke:#000000;stroke-width:1.5;" width="443.5" x="1428.5" y="1644.3281"/><text fill="#000000" font-family="sans-serif" font-size="13" font-weight="bold" lengthAdjust="spacing" textLength="28" x="1443.5" y="1659.3564">loop</text><text fill="#000000" font-family="sans-serif" font-size="11" font-weight="bold" lengthAdjust="spacing" textLength="68" x="1516.5" y="1658.1982">[while false]</text><polygon fill="#181818" points="1797,1682.9102,1807,1686.9102,1797,1690.9102,1801,1686.9102" style="stroke:#181818;stroke-width:1.0;"/><line style="stroke:#181818;stroke-width:1.0;" x1="1524" x2="1803" y1="1686.9102" y2="1686.9102"/><text fill="#000000" font-family="sans-serif" font-size="13" font-weight="bold" lengthAdjust="spacing" textLength="14" x="1531" y="1681.6475">44</text><text fill="#000000" font-family="sans-serif" font-size="13" lengthAdjust="spacing" textLength="217" x="1549" y="1681.6475">sameIdNumber(collaboratorIdNumber)</text><polygon fill="#181818" points="1535,1714.2012,1525,1718.2012,1535,1722.2012,1531,1718.2012" style="stroke:#181818;stroke-width:1.0;"/><line style="stroke:#181818;stroke-width:1.0;stroke-dasharray:2.0,2.0;" x1="1529" x2="1813" y1="1718.2012" y2="1718.2012"/><text fill="#000000" font-family="sans-serif" font-size="13" font-weight="bold" lengthAdjust="spacing" textLength="14" x="1541" y="1712.9385">45</text><text fill="#000000" font-family="sans-serif" font-size="13" lengthAdjust="spacing" textLength="53" x="1559" y="1712.9385">true/false</text><polygon fill="#181818" points="639,1752.4922,629,1756.4922,639,1760.4922,635,1756.4922" style="stroke:#181818;stroke-width:1.0;"/><line style="stroke:#181818;stroke-width:1.0;stroke-dasharray:2.0,2.0;" x1="633" x2="1518" y1="1756.4922" y2="1756.4922"/><text fill="#000000" font-family="sans-serif" font-size="13" font-weight="bold" lengthAdjust="spacing" textLength="14" x="645" y="1751.2295">46</text><text fill="#000000" font-family="sans-serif" font-size="13" lengthAdjust="spacing" textLength="67" x="663" y="1751.2295">collaborator</text><line style="stroke:#181818;stroke-width:1.0;stroke-dasharray:2.0,2.0;" x1="628" x2="670" y1="1792.7832" y2="1792.7832"/><line style="stroke:#181818;stroke-width:1.0;stroke-dasharray:2.0,2.0;" x1="670" x2="670" y1="1792.7832" y2="1805.7832"/><line style="stroke:#181818;stroke-width:1.0;stroke-dasharray:2.0,2.0;" x1="623" x2="670" y1="1805.7832" y2="1805.7832"/><polygon fill="#181818" points="633,1801.7832,623,1805.7832,633,1809.7832,629,1805.7832" style="stroke:#181818;stroke-width:1.0;"/><text fill="#000000" font-family="sans-serif" font-size="13" font-weight="bold" lengthAdjust="spacing" textLength="14" x="635" y="1787.5205">47</text><text fill="#000000" font-family="sans-serif" font-size="13" lengthAdjust="spacing" textLength="67" x="653" y="1787.5205">collaborator</text><polygon fill="#181818" points="931,1828.0742,941,1832.0742,931,1836.0742,935,1832.0742" style="stroke:#181818;stroke-width:1.0;"/><line style="stroke:#181818;stroke-width:1.0;" x1="623" x2="937" y1="1832.0742" y2="1832.0742"/><text fill="#000000" font-family="sans-serif" font-size="13" font-weight="bold" lengthAdjust="spacing" textLength="14" x="630" y="1826.8115">48</text><text fill="#000000" font-family="sans-serif" font-size="13" lengthAdjust="spacing" textLength="75" x="648" y="1826.8115">getInstance()</text><polygon fill="#181818" points="634,1859.3652,624,1863.3652,634,1867.3652,630,1863.3652" style="stroke:#181818;stroke-width:1.0;"/><line style="stroke:#181818;stroke-width:1.0;stroke-dasharray:2.0,2.0;" x1="628" x2="947" y1="1863.3652" y2="1863.3652"/><text fill="#000000" font-family="sans-serif" font-size="13" font-weight="bold" lengthAdjust="spacing" textLength="14" x="640" y="1858.1025">49</text><text fill="#000000" font-family="sans-serif" font-size="13" lengthAdjust="spacing" textLength="67" x="658" y="1858.1025">repositories</text><polygon fill="#181818" points="1038,1890.6563,1048,1894.6563,1038,1898.6563,1042,1894.6563" style="stroke:#181818;stroke-width:1.0;"/><line style="stroke:#181818;stroke-width:1.0;" x1="623" x2="1044" y1="1894.6563" y2="1894.6563"/><text fill="#000000" font-family="sans-serif" font-size="13" font-weight="bold" lengthAdjust="spacing" textLength="14" x="630" y="1889.3936">50</text><text fill="#000000" font-family="sans-serif" font-size="13" lengthAdjust="spacing" textLength="157" x="648" y="1889.3936">getCollaboratorRepository()</text><polygon fill="#181818" points="634,1921.9473,624,1925.9473,634,1929.9473,630,1925.9473" style="stroke:#181818;stroke-width:1.0;"/><line style="stroke:#181818;stroke-width:1.0;stroke-dasharray:2.0,2.0;" x1="628" x2="1054" y1="1925.9473" y2="1925.9473"/><text fill="#000000" font-family="sans-serif" font-size="13" font-weight="bold" lengthAdjust="spacing" textLength="14" x="640" y="1920.6846">51</text><text fill="#000000" font-family="sans-serif" font-size="13" lengthAdjust="spacing" textLength="129" x="658" y="1920.6846">collaboratorRepository</text><polygon fill="#181818" points="1502,1953.2383,1512,1957.2383,1502,1961.2383,1506,1957.2383" style="stroke:#181818;stroke-width:1.0;"/><line style="stroke:#181818;stroke-width:1.0;" x1="623" x2="1508" y1="1957.2383" y2="1957.2383"/><text fill="#000000" font-family="sans-serif" font-size="13" font-weight="bold" lengthAdjust="spacing" textLength="14" x="630" y="1951.9756">52</text><text fill="#000000" font-family="sans-serif" font-size="13" lengthAdjust="spacing" textLength="248" x="648" y="1951.9756">assignSkill(collaborator, selectedSkillsList)</text><polygon fill="#181818" points="1797,1984.5293,1807,1988.5293,1797,1992.5293,1801,1988.5293" style="stroke:#181818;stroke-width:1.0;"/><line style="stroke:#181818;stroke-width:1.0;" x1="1524" x2="1803" y1="1988.5293" y2="1988.5293"/><text fill="#000000" font-family="sans-serif" font-size="13" font-weight="bold" lengthAdjust="spacing" textLength="14" x="1531" y="1983.2666">53</text><text fill="#000000" font-family="sans-serif" font-size="13" lengthAdjust="spacing" textLength="248" x="1549" y="1983.2666">assignSkill(collaborator, skillsSelectedList)</text><polygon fill="#181818" points="1535,2015.8203,1525,2019.8203,1535,2023.8203,1531,2019.8203" style="stroke:#181818;stroke-width:1.0;"/><line style="stroke:#181818;stroke-width:1.0;stroke-dasharray:2.0,2.0;" x1="1529" x2="1813" y1="2019.8203" y2="2019.8203"/><text fill="#000000" font-family="sans-serif" font-size="13" font-weight="bold" lengthAdjust="spacing" textLength="14" x="1541" y="2014.5576">54</text><text fill="#000000" font-family="sans-serif" font-size="13" lengthAdjust="spacing" textLength="67" x="1559" y="2014.5576">collaborator</text><polygon fill="#181818" points="634,2047.1113,624,2051.1113,634,2055.1113,630,2051.1113" style="stroke:#181818;stroke-width:1.0;"/><line style="stroke:#181818;stroke-width:1.0;stroke-dasharray:2.0,2.0;" x1="628" x2="1518" y1="2051.1113" y2="2051.1113"/><text fill="#000000" font-family="sans-serif" font-size="13" font-weight="bold" lengthAdjust="spacing" textLength="14" x="640" y="2045.8486">55</text><text fill="#000000" font-family="sans-serif" font-size="13" lengthAdjust="spacing" textLength="67" x="658" y="2045.8486">collaborator</text><polygon fill="#181818" points="391,2078.4023,381,2082.4023,391,2086.4023,387,2082.4023" style="stroke:#181818;stroke-width:1.0;"/><line style="stroke:#181818;stroke-width:1.0;stroke-dasharray:2.0,2.0;" x1="385" x2="617" y1="2082.4023" y2="2082.4023"/><text fill="#000000" font-family="sans-serif" font-size="13" font-weight="bold" lengthAdjust="spacing" textLength="14" x="397" y="2077.1396">56</text><text fill="#000000" font-family="sans-serif" font-size="13" lengthAdjust="spacing" textLength="67" x="415" y="2077.1396">collaborator</text><polygon fill="#181818" points="49,2109.6934,39,2113.6934,49,2117.6934,45,2113.6934" style="stroke:#181818;stroke-width:1.0;"/><line style="stroke:#181818;stroke-width:1.0;stroke-dasharray:2.0,2.0;" x1="43" x2="374" y1="2113.6934" y2="2113.6934"/><text fill="#000000" font-family="sans-serif" font-size="13" font-weight="bold" lengthAdjust="spacing" textLength="14" x="55" y="2108.4307">57</text><text fill="#000000" font-family="sans-serif" font-size="13" lengthAdjust="spacing" textLength="158" x="73" y="2108.4307">displays operation success</text><!--SRC=[hLXDRziW6BxxLw2UqchHUjWfcYgjrQH5wggfQM-zK9icg3PuXYpAlzyBn3OsO6CdFbID3S_xmVky7uXFoafSuG8LdF5qL_6285djIIAQBoLEF_6MREGn9wWYgSHicziBn0vd_43P5dtWN90aaLJ2qjVDxUqtj4G_XA1RXZWZY5SWfo88zkQvG98ZZ5AUv_YTLrZoAadmNdAsBzw9-Z-5L-Zgr_FlAuG5-bcKEJyIae1KILDQOYRHrSh0RpJYwrglV5qFh7dWJ5OWarHwxSFBysDlzJCfkQ0WcnAXrpGlZXkgR0SLkrigQySRSm7-FFvuwUxG7cXnLsz6k_QDtjTxruCWEHm6oOnPZrJ8DwR-VjSlxZI0kwQBOJk_eys3zuFncFTJ61SSOcznCFH1qtzOalQ84mHF_Gijx-18qGesVfgWCH6bVRWGrvuuKjiRL0W7_G8m04aT-CqDeAKLWQ_ca_sqos3HbaXRLx6uTjOtSdGeEP_Ley40r1D8HiQQ2Q1LIZpm7H6-IFJkK8zFsl9asWhPCUk5oCXqiRMXAk1TxxKmOtPgmWGDq-Yj9VuW7hCfBA8smgzwN51q0yElOD2-WE1b6vQsoORM8zPEKS7ONvDkN9Gjfg60OX50D1nUGPdW1u5oG407AdS8vtaNFEc1rRnrye39Qf0ATYI2zZvEj_dGEhi18iybS3o3Pf9r2abTSlRgIqXvboez1lQgMH9DkLgbdYBs8OMKwjV6pge-daKTqPR2W9g3o66DJJtPE1LtbW5U8-uyzTmgPJr1qongkEMwnylldFCI7NOK6ZreqD01ohwkpIcqLvH10pcK14xzdyu5c6KGtd_tH1W0Ow9g5oVd0zLYQkYn-gzwYIph7DKJBiX2rFzT9mC98H02BcOVxupuzKYh6N9_zEb-FbySWQrhfuPOL2IRGp5s16pmjBCXVIOi3QeUMTZgjhG9_UZ0hOWeESi4EXAXXYF6dSXLlmdBad4-gKwujhhBAb3iWrO5bhGk2J7AdNO9b669OnZL3baBkoglioSzq0KvrVHRRNaE9T61tVuICWhaFVoXyk76rKWu1IF9RxlTgTqVQ-SDU7J6F7A9cMJ-N7A1sMJkV7A16MN2dD9sIjx6VMHMYPvNvimiioBhhA76QXXErqH3RWkDG5qB5H-Xuiqq9MZEi6fzzKpSXlokBjE-6eF7G0FZMbWRg0lQhVDSwG_APA9s4K7SQJ9ZHGOpvYNorxJ4SKQkcfgZpiXD8ubYtft9QFuPpJkXhk2Bfv8EtQr5Pfkul36ebbQdRXmcg3Mip72M6AH3T5uua-aHrqL9_5rHaaneeJCgoXmVeGakIQNxL2JsQKg4zrB8-bbZ_0S0]--></g></svg>