<?xml version="1.0" encoding="us-ascii" standalone="no"?><svg xmlns="http://www.w3.org/2000/svg" xmlns:xlink="http://www.w3.org/1999/xlink" contentStyleType="text/css" height="1420px" preserveAspectRatio="none" style="width:1756px;height:1420px;background:#FFFFFF;" version="1.1" viewBox="0 0 1756 1420" width="1756px" zoomAndPan="magnify"><defs/><g><text fill="#000000" font-family="sans-serif" font-size="14" font-weight="bold" lengthAdjust="spacing" textLength="376" x="692.25" y="28.5352">US004 - Assign one or more skills to a collaborator</text><rect fill="#FFFFFF" height="1192.9102" style="stroke:#181818;stroke-width:1.0;" width="10" x="33.5" y="128.9766"/><rect fill="#FFFFFF" height="305.2832" style="stroke:#181818;stroke-width:1.0;" width="10" x="401.5" y="150.2871"/><rect fill="#FFFFFF" height="288.1055" style="stroke:#181818;stroke-width:1.0;" width="10" x="401.5" y="484.8809"/><rect fill="#FFFFFF" height="29.3105" style="stroke:#181818;stroke-width:1.0;" width="10" x="401.5" y="802.2969"/><rect fill="#FFFFFF" height="36.3105" style="stroke:#181818;stroke-width:1.0;" width="10" x="401.5" y="860.918"/><rect fill="#FFFFFF" height="395.3477" style="stroke:#181818;stroke-width:1.0;" width="10" x="401.5" y="926.5391"/><rect fill="#FFFFFF" height="205.1738" style="stroke:#181818;stroke-width:1.0;" width="10" x="721.5" y="221.0859"/><rect fill="#FFFFFF" height="205.1738" style="stroke:#181818;stroke-width:1.0;" width="10" x="721.5" y="514.1914"/><rect fill="#FFFFFF" height="336.7266" style="stroke:#181818;stroke-width:1.0;" width="10" x="721.5" y="955.8496"/><rect fill="#FFFFFF" height="29.3105" style="stroke:#181818;stroke-width:1.0;" width="10" x="867.5" y="250.3965"/><rect fill="#FFFFFF" height="29.3105" style="stroke:#181818;stroke-width:1.0;" width="10" x="867.5" y="543.502"/><rect fill="#FFFFFF" height="29.3105" style="stroke:#181818;stroke-width:1.0;" width="10" x="867.5" y="985.1602"/><rect fill="#FFFFFF" height="29.3105" style="stroke:#181818;stroke-width:1.0;" width="10" x="980.5" y="309.0176"/><rect fill="#FFFFFF" height="29.3105" style="stroke:#181818;stroke-width:1.0;" width="10" x="980.5" y="602.123"/><rect fill="#FFFFFF" height="29.3105" style="stroke:#181818;stroke-width:1.0;" width="10" x="980.5" y="1043.7813"/><rect fill="#FFFFFF" height="29.3105" style="stroke:#181818;stroke-width:1.0;" width="10" x="1101" y="660.7441"/><rect fill="#FFFFFF" height="29.3105" style="stroke:#181818;stroke-width:1.0;" width="10" x="1257.5" y="367.6387"/><rect fill="#FFFFFF" height="160.8633" style="stroke:#181818;stroke-width:1.0;" width="10" x="1257.5" y="1102.4023"/><rect fill="#FFFFFF" height="86.9316" style="stroke:#181818;stroke-width:1.0;" width="10" x="1509.5" y="1147.0234"/><rect fill="none" height="134.5527" style="stroke:#000000;stroke-width:1.5;" width="463" x="10" y="734.3652"/><line style="stroke:#181818;stroke-width:0.5;stroke-dasharray:5.0,5.0;" x1="38" x2="38" y1="118.9766" y2="1339.8867"/><line style="stroke:#181818;stroke-width:0.5;stroke-dasharray:5.0,5.0;" x1="406" x2="406" y1="118.9766" y2="1339.8867"/><line style="stroke:#181818;stroke-width:0.5;stroke-dasharray:5.0,5.0;" x1="726" x2="726" y1="189.0313" y2="1339.8867"/><line style="stroke:#181818;stroke-width:0.5;stroke-dasharray:5.0,5.0;" x1="872" x2="872" y1="118.9766" y2="1339.8867"/><line style="stroke:#181818;stroke-width:0.5;stroke-dasharray:5.0,5.0;" x1="985" x2="985" y1="118.9766" y2="1339.8867"/><line style="stroke:#181818;stroke-width:0.5;stroke-dasharray:5.0,5.0;" x1="1106" x2="1106" y1="118.9766" y2="1339.8867"/><line style="stroke:#181818;stroke-width:0.5;stroke-dasharray:5.0,5.0;" x1="1262" x2="1262" y1="118.9766" y2="1339.8867"/><line style="stroke:#181818;stroke-width:0.5;stroke-dasharray:5.0,5.0;" x1="1514" x2="1514" y1="118.9766" y2="1339.8867"/><text fill="#000000" font-family="sans-serif" font-size="14" lengthAdjust="spacing" textLength="31" x="20" y="116.0234">HRM</text><ellipse cx="38.5" cy="50.9883" fill="#E3E3E3" rx="8" ry="8" style="stroke:#181818;stroke-width:0.5;"/><path d="M38.5,58.9883 L38.5,85.9883 M25.5,66.9883 L51.5,66.9883 M38.5,85.9883 L25.5,100.9883 M38.5,85.9883 L51.5,100.9883 " fill="none" style="stroke:#181818;stroke-width:0.5;"/><text fill="#000000" font-family="sans-serif" font-size="14" lengthAdjust="spacing" textLength="31" x="20" y="1352.4219">HRM</text><ellipse cx="38.5" cy="1363.875" fill="#E3E3E3" rx="8" ry="8" style="stroke:#181818;stroke-width:0.5;"/><path d="M38.5,1371.875 L38.5,1398.875 M25.5,1379.875 L51.5,1379.875 M38.5,1398.875 L25.5,1413.875 M38.5,1398.875 L51.5,1413.875 " fill="none" style="stroke:#181818;stroke-width:0.5;"/><rect fill="#E3E3E3" height="30.4883" rx="2.5" ry="2.5" style="stroke:#181818;stroke-width:0.5;" width="113" x="350" y="87.4883"/><text fill="#000000" font-family="sans-serif" font-size="14" lengthAdjust="spacing" textLength="99" x="357" y="108.0234">:AssignSkillsUI</text><rect fill="#E3E3E3" height="30.4883" rx="2.5" ry="2.5" style="stroke:#181818;stroke-width:0.5;" width="113" x="350" y="1338.8867"/><text fill="#000000" font-family="sans-serif" font-size="14" lengthAdjust="spacing" textLength="99" x="357" y="1359.4219">:AssignSkillsUI</text><rect fill="#E3E3E3" height="30.4883" rx="2.5" ry="2.5" style="stroke:#181818;stroke-width:0.5;" width="169" x="642" y="1338.8867"/><text fill="#000000" font-family="sans-serif" font-size="14" lengthAdjust="spacing" textLength="155" x="649" y="1359.4219">:AssignSkillsController</text><rect fill="#E3E3E3" height="30.4883" rx="2.5" ry="2.5" style="stroke:#181818;stroke-width:0.5;" width="103" x="821" y="87.4883"/><text fill="#000000" font-family="sans-serif" font-size="14" lengthAdjust="spacing" textLength="89" x="828" y="108.0234">:Repositories</text><rect fill="#E3E3E3" height="30.4883" rx="2.5" ry="2.5" style="stroke:#181818;stroke-width:0.5;" width="103" x="821" y="1338.8867"/><text fill="#000000" font-family="sans-serif" font-size="14" lengthAdjust="spacing" textLength="89" x="828" y="1359.4219">:Repositories</text><rect fill="#E3E3E3" height="46.9766" rx="2.5" ry="2.5" style="stroke:#181818;stroke-width:0.5;" width="103" x="934" y="71"/><text fill="#000000" font-family="sans-serif" font-size="14" lengthAdjust="spacing" textLength="82" x="944.5" y="91.5352">repositories</text><text fill="#000000" font-family="sans-serif" font-size="14" lengthAdjust="spacing" textLength="89" x="941" y="108.0234">:Repositories</text><rect fill="#E3E3E3" height="46.9766" rx="2.5" ry="2.5" style="stroke:#181818;stroke-width:0.5;" width="103" x="934" y="1338.8867"/><text fill="#000000" font-family="sans-serif" font-size="14" lengthAdjust="spacing" textLength="82" x="944.5" y="1359.4219">repositories</text><text fill="#000000" font-family="sans-serif" font-size="14" lengthAdjust="spacing" textLength="89" x="941" y="1375.9102">:Repositories</text><rect fill="#E3E3E3" height="46.9766" rx="2.5" ry="2.5" style="stroke:#181818;stroke-width:0.5;" width="118" x="1047" y="71"/><text fill="#000000" font-family="sans-serif" font-size="14" lengthAdjust="spacing" textLength="104" x="1054" y="91.5352">skillRepository:</text><text fill="#000000" font-family="sans-serif" font-size="14" lengthAdjust="spacing" textLength="101" x="1055.5" y="108.0234">SkillRepository</text><rect fill="#E3E3E3" height="46.9766" rx="2.5" ry="2.5" style="stroke:#181818;stroke-width:0.5;" width="118" x="1047" y="1338.8867"/><text fill="#000000" font-family="sans-serif" font-size="14" lengthAdjust="spacing" textLength="104" x="1054" y="1359.4219">skillRepository:</text><text fill="#000000" font-family="sans-serif" font-size="14" lengthAdjust="spacing" textLength="101" x="1055.5" y="1375.9102">SkillRepository</text><rect fill="#E3E3E3" height="46.9766" rx="2.5" ry="2.5" style="stroke:#181818;stroke-width:0.5;" width="175" x="1175" y="71"/><text fill="#000000" font-family="sans-serif" font-size="14" lengthAdjust="spacing" textLength="161" x="1182" y="91.5352">collaboratorRepository:</text><text fill="#000000" font-family="sans-serif" font-size="14" lengthAdjust="spacing" textLength="160" x="1182.5" y="108.0234">CollaboratorRepository</text><rect fill="#E3E3E3" height="46.9766" rx="2.5" ry="2.5" style="stroke:#181818;stroke-width:0.5;" width="175" x="1175" y="1338.8867"/><text fill="#000000" font-family="sans-serif" font-size="14" lengthAdjust="spacing" textLength="161" x="1182" y="1359.4219">collaboratorRepository:</text><text fill="#000000" font-family="sans-serif" font-size="14" lengthAdjust="spacing" textLength="160" x="1182.5" y="1375.9102">CollaboratorRepository</text><rect fill="#E3E3E3" height="46.9766" rx="2.5" ry="2.5" style="stroke:#181818;stroke-width:0.5;" width="105" x="1462" y="71"/><text fill="#000000" font-family="sans-serif" font-size="14" lengthAdjust="spacing" textLength="84" x="1472.5" y="91.5352">collaborator</text><text fill="#000000" font-family="sans-serif" font-size="14" lengthAdjust="spacing" textLength="91" x="1469" y="108.0234">:Collaborator</text><rect fill="#E3E3E3" height="46.9766" rx="2.5" ry="2.5" style="stroke:#181818;stroke-width:0.5;" width="105" x="1462" y="1338.8867"/><text fill="#000000" font-family="sans-serif" font-size="14" lengthAdjust="spacing" textLength="84" x="1472.5" y="1359.4219">collaborator</text><text fill="#000000" font-family="sans-serif" font-size="14" lengthAdjust="spacing" textLength="91" x="1469" y="1375.9102">:Collaborator</text><rect fill="#FFFFFF" height="1192.9102" style="stroke:#181818;stroke-width:1.0;" width="10" x="33.5" y="128.9766"/><rect fill="#FFFFFF" height="305.2832" style="stroke:#181818;stroke-width:1.0;" width="10" x="401.5" y="150.2871"/><rect fill="#FFFFFF" height="288.1055" style="stroke:#181818;stroke-width:1.0;" width="10" x="401.5" y="484.8809"/><rect fill="#FFFFFF" height="29.3105" style="stroke:#181818;stroke-width:1.0;" width="10" x="401.5" y="802.2969"/><rect fill="#FFFFFF" height="36.3105" style="stroke:#181818;stroke-width:1.0;" width="10" x="401.5" y="860.918"/><rect fill="#FFFFFF" height="395.3477" style="stroke:#181818;stroke-width:1.0;" width="10" x="401.5" y="926.5391"/><rect fill="#FFFFFF" height="205.1738" style="stroke:#181818;stroke-width:1.0;" width="10" x="721.5" y="221.0859"/><rect fill="#FFFFFF" height="205.1738" style="stroke:#181818;stroke-width:1.0;" width="10" x="721.5" y="514.1914"/><rect fill="#FFFFFF" height="336.7266" style="stroke:#181818;stroke-width:1.0;" width="10" x="721.5" y="955.8496"/><rect fill="#FFFFFF" height="29.3105" style="stroke:#181818;stroke-width:1.0;" width="10" x="867.5" y="250.3965"/><rect fill="#FFFFFF" height="29.3105" style="stroke:#181818;stroke-width:1.0;" width="10" x="867.5" y="543.502"/><rect fill="#FFFFFF" height="29.3105" style="stroke:#181818;stroke-width:1.0;" width="10" x="867.5" y="985.1602"/><rect fill="#FFFFFF" height="29.3105" style="stroke:#181818;stroke-width:1.0;" width="10" x="980.5" y="309.0176"/><rect fill="#FFFFFF" height="29.3105" style="stroke:#181818;stroke-width:1.0;" width="10" x="980.5" y="602.123"/><rect fill="#FFFFFF" height="29.3105" style="stroke:#181818;stroke-width:1.0;" width="10" x="980.5" y="1043.7813"/><rect fill="#FFFFFF" height="29.3105" style="stroke:#181818;stroke-width:1.0;" width="10" x="1101" y="660.7441"/><rect fill="#FFFFFF" height="29.3105" style="stroke:#181818;stroke-width:1.0;" width="10" x="1257.5" y="367.6387"/><rect fill="#FFFFFF" height="160.8633" style="stroke:#181818;stroke-width:1.0;" width="10" x="1257.5" y="1102.4023"/><rect fill="#FFFFFF" height="86.9316" style="stroke:#181818;stroke-width:1.0;" width="10" x="1509.5" y="1147.0234"/><polygon fill="#181818" points="389.5,146.2871,399.5,150.2871,389.5,154.2871,393.5,150.2871" style="stroke:#181818;stroke-width:1.0;"/><line style="stroke:#181818;stroke-width:1.0;" x1="43.5" x2="395.5" y1="150.2871" y2="150.2871"/><text fill="#000000" font-family="sans-serif" font-size="13" font-weight="bold" lengthAdjust="spacing" textLength="9" x="50.5" y="145.5449">1</text><text fill="#000000" font-family="sans-serif" font-size="13" lengthAdjust="spacing" textLength="245" x="63.5" y="145.5449">asks to assign skill(s) to a collaborator</text><polygon fill="#181818" points="630,175.5977,640,179.5977,630,183.5977,634,179.5977" style="stroke:#181818;stroke-width:1.0;"/><line style="stroke:#181818;stroke-width:1.0;" x1="411.5" x2="636" y1="179.5977" y2="179.5977"/><text fill="#000000" font-family="sans-serif" font-size="13" font-weight="bold" lengthAdjust="spacing" textLength="9" x="418.5" y="174.8555">2</text><text fill="#000000" font-family="sans-serif" font-size="13" lengthAdjust="spacing" textLength="38" x="431.5" y="174.8555">create</text><rect fill="#E3E3E3" height="30.4883" rx="2.5" ry="2.5" style="stroke:#181818;stroke-width:0.5;" width="169" x="642" y="158.2871"/><text fill="#000000" font-family="sans-serif" font-size="14" lengthAdjust="spacing" textLength="155" x="649" y="178.8223">:AssignSkillsController</text><polygon fill="#181818" points="709.5,217.0859,719.5,221.0859,709.5,225.0859,713.5,221.0859" style="stroke:#181818;stroke-width:1.0;"/><line style="stroke:#181818;stroke-width:1.0;" x1="411.5" x2="715.5" y1="221.0859" y2="221.0859"/><text fill="#000000" font-family="sans-serif" font-size="13" font-weight="bold" lengthAdjust="spacing" textLength="9" x="418.5" y="216.3438">3</text><text fill="#000000" font-family="sans-serif" font-size="13" lengthAdjust="spacing" textLength="113" x="431.5" y="216.3438">getCollaborators()</text><polygon fill="#181818" points="855.5,246.3965,865.5,250.3965,855.5,254.3965,859.5,250.3965" style="stroke:#181818;stroke-width:1.0;"/><line style="stroke:#181818;stroke-width:1.0;" x1="731.5" x2="861.5" y1="250.3965" y2="250.3965"/><text fill="#000000" font-family="sans-serif" font-size="13" font-weight="bold" lengthAdjust="spacing" textLength="9" x="738.5" y="245.6543">4</text><text fill="#000000" font-family="sans-serif" font-size="13" lengthAdjust="spacing" textLength="81" x="751.5" y="245.6543">getInstance()</text><polygon fill="#181818" points="742.5,275.707,732.5,279.707,742.5,283.707,738.5,279.707" style="stroke:#181818;stroke-width:1.0;"/><line style="stroke:#181818;stroke-width:1.0;stroke-dasharray:2.0,2.0;" x1="736.5" x2="871.5" y1="279.707" y2="279.707"/><text fill="#000000" font-family="sans-serif" font-size="13" font-weight="bold" lengthAdjust="spacing" textLength="9" x="748.5" y="274.9648">5</text><text fill="#000000" font-family="sans-serif" font-size="13" lengthAdjust="spacing" textLength="75" x="761.5" y="274.9648">repositories</text><polygon fill="#181818" points="968.5,305.0176,978.5,309.0176,968.5,313.0176,972.5,309.0176" style="stroke:#181818;stroke-width:1.0;"/><line style="stroke:#181818;stroke-width:1.0;" x1="731.5" x2="974.5" y1="309.0176" y2="309.0176"/><text fill="#000000" font-family="sans-serif" font-size="13" font-weight="bold" lengthAdjust="spacing" textLength="9" x="738.5" y="304.2754">6</text><text fill="#000000" font-family="sans-serif" font-size="13" lengthAdjust="spacing" textLength="173" x="751.5" y="304.2754">getCollaboratorRepository()</text><polygon fill="#181818" points="742.5,334.3281,732.5,338.3281,742.5,342.3281,738.5,338.3281" style="stroke:#181818;stroke-width:1.0;"/><line style="stroke:#181818;stroke-width:1.0;stroke-dasharray:2.0,2.0;" x1="736.5" x2="984.5" y1="338.3281" y2="338.3281"/><text fill="#000000" font-family="sans-serif" font-size="13" font-weight="bold" lengthAdjust="spacing" textLength="9" x="748.5" y="333.5859">7</text><text fill="#000000" font-family="sans-serif" font-size="13" lengthAdjust="spacing" textLength="143" x="761.5" y="333.5859">collaboratorRepository</text><polygon fill="#181818" points="1245.5,363.6387,1255.5,367.6387,1245.5,371.6387,1249.5,367.6387" style="stroke:#181818;stroke-width:1.0;"/><line style="stroke:#181818;stroke-width:1.0;" x1="731.5" x2="1251.5" y1="367.6387" y2="367.6387"/><text fill="#000000" font-family="sans-serif" font-size="13" font-weight="bold" lengthAdjust="spacing" textLength="9" x="738.5" y="362.8965">8</text><text fill="#000000" font-family="sans-serif" font-size="13" lengthAdjust="spacing" textLength="113" x="751.5" y="362.8965">getCollaborators()</text><polygon fill="#181818" points="742.5,392.9492,732.5,396.9492,742.5,400.9492,738.5,396.9492" style="stroke:#181818;stroke-width:1.0;"/><line style="stroke:#181818;stroke-width:1.0;stroke-dasharray:2.0,2.0;" x1="736.5" x2="1261.5" y1="396.9492" y2="396.9492"/><text fill="#000000" font-family="sans-serif" font-size="13" font-weight="bold" lengthAdjust="spacing" textLength="9" x="748.5" y="392.207">9</text><text fill="#000000" font-family="sans-serif" font-size="13" lengthAdjust="spacing" textLength="106" x="761.5" y="392.207">collaboratorsList</text><polygon fill="#181818" points="422.5,422.2598,412.5,426.2598,422.5,430.2598,418.5,426.2598" style="stroke:#181818;stroke-width:1.0;"/><line style="stroke:#181818;stroke-width:1.0;stroke-dasharray:2.0,2.0;" x1="416.5" x2="725.5" y1="426.2598" y2="426.2598"/><text fill="#000000" font-family="sans-serif" font-size="13" font-weight="bold" lengthAdjust="spacing" textLength="18" x="428.5" y="421.5176">10</text><text fill="#000000" font-family="sans-serif" font-size="13" lengthAdjust="spacing" textLength="106" x="450.5" y="421.5176">collaboratorsList</text><polygon fill="#181818" points="54.5,451.5703,44.5,455.5703,54.5,459.5703,50.5,455.5703" style="stroke:#181818;stroke-width:1.0;"/><line style="stroke:#181818;stroke-width:1.0;stroke-dasharray:2.0,2.0;" x1="48.5" x2="405.5" y1="455.5703" y2="455.5703"/><text fill="#000000" font-family="sans-serif" font-size="13" font-weight="bold" lengthAdjust="spacing" textLength="18" x="60.5" y="450.8281">11</text><text fill="#000000" font-family="sans-serif" font-size="13" lengthAdjust="spacing" textLength="201" x="82.5" y="450.8281">shows list with all collaborators</text><polygon fill="#181818" points="389.5,480.8809,399.5,484.8809,389.5,488.8809,393.5,484.8809" style="stroke:#181818;stroke-width:1.0;"/><line style="stroke:#181818;stroke-width:1.0;" x1="43.5" x2="395.5" y1="484.8809" y2="484.8809"/><text fill="#000000" font-family="sans-serif" font-size="13" font-weight="bold" lengthAdjust="spacing" textLength="18" x="50.5" y="480.1387">12</text><text fill="#000000" font-family="sans-serif" font-size="13" lengthAdjust="spacing" textLength="148" x="72.5" y="480.1387">selects the collaborator</text><polygon fill="#181818" points="709.5,510.1914,719.5,514.1914,709.5,518.1914,713.5,514.1914" style="stroke:#181818;stroke-width:1.0;"/><line style="stroke:#181818;stroke-width:1.0;" x1="411.5" x2="715.5" y1="514.1914" y2="514.1914"/><text fill="#000000" font-family="sans-serif" font-size="13" font-weight="bold" lengthAdjust="spacing" textLength="18" x="418.5" y="509.4492">13</text><text fill="#000000" font-family="sans-serif" font-size="13" lengthAdjust="spacing" textLength="85" x="440.5" y="509.4492">getSkillsList()</text><polygon fill="#181818" points="855.5,539.502,865.5,543.502,855.5,547.502,859.5,543.502" style="stroke:#181818;stroke-width:1.0;"/><line style="stroke:#181818;stroke-width:1.0;" x1="731.5" x2="861.5" y1="543.502" y2="543.502"/><text fill="#000000" font-family="sans-serif" font-size="13" font-weight="bold" lengthAdjust="spacing" textLength="18" x="738.5" y="538.7598">14</text><text fill="#000000" font-family="sans-serif" font-size="13" lengthAdjust="spacing" textLength="81" x="760.5" y="538.7598">getInstance()</text><polygon fill="#181818" points="742.5,568.8125,732.5,572.8125,742.5,576.8125,738.5,572.8125" style="stroke:#181818;stroke-width:1.0;"/><line style="stroke:#181818;stroke-width:1.0;stroke-dasharray:2.0,2.0;" x1="736.5" x2="871.5" y1="572.8125" y2="572.8125"/><text fill="#000000" font-family="sans-serif" font-size="13" font-weight="bold" lengthAdjust="spacing" textLength="18" x="748.5" y="568.0703">15</text><text fill="#000000" font-family="sans-serif" font-size="13" lengthAdjust="spacing" textLength="75" x="770.5" y="568.0703">repositories</text><polygon fill="#181818" points="968.5,598.123,978.5,602.123,968.5,606.123,972.5,602.123" style="stroke:#181818;stroke-width:1.0;"/><line style="stroke:#181818;stroke-width:1.0;" x1="731.5" x2="974.5" y1="602.123" y2="602.123"/><text fill="#000000" font-family="sans-serif" font-size="13" font-weight="bold" lengthAdjust="spacing" textLength="18" x="738.5" y="597.3809">16</text><text fill="#000000" font-family="sans-serif" font-size="13" lengthAdjust="spacing" textLength="122" x="760.5" y="597.3809">getSkillRepository()</text><polygon fill="#181818" points="742.5,627.4336,732.5,631.4336,742.5,635.4336,738.5,631.4336" style="stroke:#181818;stroke-width:1.0;"/><line style="stroke:#181818;stroke-width:1.0;stroke-dasharray:2.0,2.0;" x1="736.5" x2="984.5" y1="631.4336" y2="631.4336"/><text fill="#000000" font-family="sans-serif" font-size="13" font-weight="bold" lengthAdjust="spacing" textLength="18" x="748.5" y="626.6914">17</text><text fill="#000000" font-family="sans-serif" font-size="13" lengthAdjust="spacing" textLength="94" x="770.5" y="626.6914">skillRepository</text><polygon fill="#181818" points="1089,656.7441,1099,660.7441,1089,664.7441,1093,660.7441" style="stroke:#181818;stroke-width:1.0;"/><line style="stroke:#181818;stroke-width:1.0;" x1="731.5" x2="1095" y1="660.7441" y2="660.7441"/><text fill="#000000" font-family="sans-serif" font-size="13" font-weight="bold" lengthAdjust="spacing" textLength="18" x="738.5" y="656.002">18</text><text fill="#000000" font-family="sans-serif" font-size="13" lengthAdjust="spacing" textLength="62" x="760.5" y="656.002">getSkills()</text><polygon fill="#181818" points="742.5,686.0547,732.5,690.0547,742.5,694.0547,738.5,690.0547" style="stroke:#181818;stroke-width:1.0;"/><line style="stroke:#181818;stroke-width:1.0;stroke-dasharray:2.0,2.0;" x1="736.5" x2="1105" y1="690.0547" y2="690.0547"/><text fill="#000000" font-family="sans-serif" font-size="13" font-weight="bold" lengthAdjust="spacing" textLength="18" x="748.5" y="685.3125">19</text><text fill="#000000" font-family="sans-serif" font-size="13" lengthAdjust="spacing" textLength="57" x="770.5" y="685.3125">skillsList</text><polygon fill="#181818" points="422.5,715.3652,412.5,719.3652,422.5,723.3652,418.5,719.3652" style="stroke:#181818;stroke-width:1.0;"/><line style="stroke:#181818;stroke-width:1.0;stroke-dasharray:2.0,2.0;" x1="416.5" x2="725.5" y1="719.3652" y2="719.3652"/><text fill="#000000" font-family="sans-serif" font-size="13" font-weight="bold" lengthAdjust="spacing" textLength="18" x="428.5" y="714.623">20</text><text fill="#000000" font-family="sans-serif" font-size="13" lengthAdjust="spacing" textLength="57" x="450.5" y="714.623">skillsList</text><path d="M10,734.3652 L84,734.3652 L84,741.6758 L74,751.6758 L10,751.6758 L10,734.3652 " fill="#EEEEEE" style="stroke:#000000;stroke-width:1.5;"/><rect fill="none" height="134.5527" style="stroke:#000000;stroke-width:1.5;" width="463" x="10" y="734.3652"/><text fill="#000000" font-family="sans-serif" font-size="13" font-weight="bold" lengthAdjust="spacing" textLength="29" x="25" y="747.9336">loop</text><text fill="#000000" font-family="sans-serif" font-size="11" font-weight="bold" lengthAdjust="spacing" textLength="172" x="99" y="747">[while HRM wants to continue]</text><polygon fill="#181818" points="54.5,768.9863,44.5,772.9863,54.5,776.9863,50.5,772.9863" style="stroke:#181818;stroke-width:1.0;"/><line style="stroke:#181818;stroke-width:1.0;stroke-dasharray:2.0,2.0;" x1="48.5" x2="405.5" y1="772.9863" y2="772.9863"/><text fill="#000000" font-family="sans-serif" font-size="13" font-weight="bold" lengthAdjust="spacing" textLength="18" x="60.5" y="768.2441">21</text><text fill="#000000" font-family="sans-serif" font-size="13" lengthAdjust="spacing" textLength="272" x="82.5" y="768.2441">shows skills list and requests to select one</text><polygon fill="#181818" points="389.5,798.2969,399.5,802.2969,389.5,806.2969,393.5,802.2969" style="stroke:#181818;stroke-width:1.0;"/><line style="stroke:#181818;stroke-width:1.0;" x1="43.5" x2="395.5" y1="802.2969" y2="802.2969"/><text fill="#000000" font-family="sans-serif" font-size="13" font-weight="bold" lengthAdjust="spacing" textLength="18" x="50.5" y="797.5547">22</text><text fill="#000000" font-family="sans-serif" font-size="13" lengthAdjust="spacing" textLength="102" x="72.5" y="797.5547">selects one skill</text><polygon fill="#181818" points="54.5,827.6074,44.5,831.6074,54.5,835.6074,50.5,831.6074" style="stroke:#181818;stroke-width:1.0;"/><line style="stroke:#181818;stroke-width:1.0;stroke-dasharray:2.0,2.0;" x1="48.5" x2="405.5" y1="831.6074" y2="831.6074"/><text fill="#000000" font-family="sans-serif" font-size="13" font-weight="bold" lengthAdjust="spacing" textLength="18" x="60.5" y="826.8652">23</text><text fill="#000000" font-family="sans-serif" font-size="13" lengthAdjust="spacing" textLength="105" x="82.5" y="826.8652">asks to continue</text><polygon fill="#181818" points="389.5,856.918,399.5,860.918,389.5,864.918,393.5,860.918" style="stroke:#181818;stroke-width:1.0;"/><line style="stroke:#181818;stroke-width:1.0;" x1="43.5" x2="395.5" y1="860.918" y2="860.918"/><text fill="#000000" font-family="sans-serif" font-size="13" font-weight="bold" lengthAdjust="spacing" textLength="18" x="50.5" y="856.1758">24</text><text fill="#000000" font-family="sans-serif" font-size="13" lengthAdjust="spacing" textLength="120" x="72.5" y="856.1758">responds yes or no</text><polygon fill="#181818" points="54.5,893.2285,44.5,897.2285,54.5,901.2285,50.5,897.2285" style="stroke:#181818;stroke-width:1.0;"/><line style="stroke:#181818;stroke-width:1.0;stroke-dasharray:2.0,2.0;" x1="48.5" x2="405.5" y1="897.2285" y2="897.2285"/><text fill="#000000" font-family="sans-serif" font-size="13" font-weight="bold" lengthAdjust="spacing" textLength="18" x="60.5" y="892.4863">25</text><text fill="#000000" font-family="sans-serif" font-size="13" lengthAdjust="spacing" textLength="312" x="82.5" y="892.4863">shows skill(s) selected and requests confirmation</text><polygon fill="#181818" points="389.5,922.5391,399.5,926.5391,389.5,930.5391,393.5,926.5391" style="stroke:#181818;stroke-width:1.0;"/><line style="stroke:#181818;stroke-width:1.0;" x1="43.5" x2="395.5" y1="926.5391" y2="926.5391"/><text fill="#000000" font-family="sans-serif" font-size="13" font-weight="bold" lengthAdjust="spacing" textLength="18" x="50.5" y="921.7969">26</text><text fill="#000000" font-family="sans-serif" font-size="13" lengthAdjust="spacing" textLength="87" x="72.5" y="921.7969">confirms data</text><polygon fill="#181818" points="709.5,951.8496,719.5,955.8496,709.5,959.8496,713.5,955.8496" style="stroke:#181818;stroke-width:1.0;"/><line style="stroke:#181818;stroke-width:1.0;" x1="411.5" x2="715.5" y1="955.8496" y2="955.8496"/><text fill="#000000" font-family="sans-serif" font-size="13" font-weight="bold" lengthAdjust="spacing" textLength="18" x="418.5" y="951.1074">27</text><text fill="#000000" font-family="sans-serif" font-size="13" lengthAdjust="spacing" textLength="269" x="440.5" y="951.1074">assignSkill(collaborator, skillsSelectedList)</text><polygon fill="#181818" points="855.5,981.1602,865.5,985.1602,855.5,989.1602,859.5,985.1602" style="stroke:#181818;stroke-width:1.0;"/><line style="stroke:#181818;stroke-width:1.0;" x1="731.5" x2="861.5" y1="985.1602" y2="985.1602"/><text fill="#000000" font-family="sans-serif" font-size="13" font-weight="bold" lengthAdjust="spacing" textLength="18" x="738.5" y="980.418">28</text><text fill="#000000" font-family="sans-serif" font-size="13" lengthAdjust="spacing" textLength="81" x="760.5" y="980.418">getInstance()</text><polygon fill="#181818" points="742.5,1010.4707,732.5,1014.4707,742.5,1018.4707,738.5,1014.4707" style="stroke:#181818;stroke-width:1.0;"/><line style="stroke:#181818;stroke-width:1.0;stroke-dasharray:2.0,2.0;" x1="736.5" x2="871.5" y1="1014.4707" y2="1014.4707"/><text fill="#000000" font-family="sans-serif" font-size="13" font-weight="bold" lengthAdjust="spacing" textLength="18" x="748.5" y="1009.7285">29</text><text fill="#000000" font-family="sans-serif" font-size="13" lengthAdjust="spacing" textLength="75" x="770.5" y="1009.7285">repositories</text><polygon fill="#181818" points="968.5,1039.7813,978.5,1043.7813,968.5,1047.7813,972.5,1043.7813" style="stroke:#181818;stroke-width:1.0;"/><line style="stroke:#181818;stroke-width:1.0;" x1="731.5" x2="974.5" y1="1043.7813" y2="1043.7813"/><text fill="#000000" font-family="sans-serif" font-size="13" font-weight="bold" lengthAdjust="spacing" textLength="18" x="738.5" y="1039.0391">30</text><text fill="#000000" font-family="sans-serif" font-size="13" lengthAdjust="spacing" textLength="173" x="760.5" y="1039.0391">getCollaboratorRepository()</text><polygon fill="#181818" points="742.5,1069.0918,732.5,1073.0918,742.5,1077.0918,738.5,1073.0918" style="stroke:#181818;stroke-width:1.0;"/><line style="stroke:#181818;stroke-width:1.0;stroke-dasharray:2.0,2.0;" x1="736.5" x2="984.5" y1="1073.0918" y2="1073.0918"/><text fill="#000000" font-family="sans-serif" font-size="13" font-weight="bold" lengthAdjust="spacing" textLength="18" x="748.5" y="1068.3496">31</text><text fill="#000000" font-family="sans-serif" font-size="13" lengthAdjust="spacing" textLength="143" x="770.5" y="1068.3496">collaboratorRepository</text><polygon fill="#181818" points="1245.5,1098.4023,1255.5,1102.4023,1245.5,1106.4023,1249.5,1102.4023" style="stroke:#181818;stroke-width:1.0;"/><line style="stroke:#181818;stroke-width:1.0;" x1="731.5" x2="1251.5" y1="1102.4023" y2="1102.4023"/><text fill="#000000" font-family="sans-serif" font-size="13" font-weight="bold" lengthAdjust="spacing" textLength="18" x="738.5" y="1097.6602">32</text><text fill="#000000" font-family="sans-serif" font-size="13" lengthAdjust="spacing" textLength="269" x="760.5" y="1097.6602">assignSkill(collaborator, skillsSelectedList)</text><polygon fill="#181818" points="1497.5,1143.0234,1507.5,1147.0234,1497.5,1151.0234,1501.5,1147.0234" style="stroke:#181818;stroke-width:1.0;"/><line style="stroke:#181818;stroke-width:1.0;" x1="1267.5" x2="1503.5" y1="1147.0234" y2="1147.0234"/><text fill="#000000" font-family="sans-serif" font-size="13" font-weight="bold" lengthAdjust="spacing" textLength="18" x="1274.5" y="1134.626">33</text><text fill="#000000" font-family="sans-serif" font-size="13" lengthAdjust="spacing" textLength="68" x="1296.5" y="1126.9707">assignSkill</text><text fill="#000000" font-family="sans-serif" font-size="13" lengthAdjust="spacing" textLength="201" x="1296.5" y="1142.2813">(collaborator, skillsSelectedList)</text><line style="stroke:#181818;stroke-width:1.0;" x1="1519.5" x2="1561.5" y1="1191.6445" y2="1191.6445"/><line style="stroke:#181818;stroke-width:1.0;" x1="1561.5" x2="1561.5" y1="1191.6445" y2="1204.6445"/><line style="stroke:#181818;stroke-width:1.0;" x1="1520.5" x2="1561.5" y1="1204.6445" y2="1204.6445"/><polygon fill="#181818" points="1530.5,1200.6445,1520.5,1204.6445,1530.5,1208.6445,1526.5,1204.6445" style="stroke:#181818;stroke-width:1.0;"/><text fill="#000000" font-family="sans-serif" font-size="13" font-weight="bold" lengthAdjust="spacing" textLength="18" x="1526.5" y="1179.2471">34</text><text fill="#000000" font-family="sans-serif" font-size="13" lengthAdjust="spacing" textLength="68" x="1548.5" y="1171.5918">assignSkill</text><text fill="#000000" font-family="sans-serif" font-size="13" lengthAdjust="spacing" textLength="201" x="1548.5" y="1186.9023">(collaborator, skillsSelectedList)</text><polygon fill="#181818" points="1278.5,1229.9551,1268.5,1233.9551,1278.5,1237.9551,1274.5,1233.9551" style="stroke:#181818;stroke-width:1.0;"/><line style="stroke:#181818;stroke-width:1.0;stroke-dasharray:2.0,2.0;" x1="1272.5" x2="1513.5" y1="1233.9551" y2="1233.9551"/><text fill="#000000" font-family="sans-serif" font-size="13" font-weight="bold" lengthAdjust="spacing" textLength="18" x="1284.5" y="1229.2129">35</text><text fill="#000000" font-family="sans-serif" font-size="13" lengthAdjust="spacing" textLength="76" x="1306.5" y="1229.2129">collaborator</text><polygon fill="#181818" points="742.5,1259.2656,732.5,1263.2656,742.5,1267.2656,738.5,1263.2656" style="stroke:#181818;stroke-width:1.0;"/><line style="stroke:#181818;stroke-width:1.0;stroke-dasharray:2.0,2.0;" x1="736.5" x2="1261.5" y1="1263.2656" y2="1263.2656"/><text fill="#000000" font-family="sans-serif" font-size="13" font-weight="bold" lengthAdjust="spacing" textLength="18" x="748.5" y="1258.5234">36</text><text fill="#000000" font-family="sans-serif" font-size="13" lengthAdjust="spacing" textLength="76" x="770.5" y="1258.5234">collaborator</text><polygon fill="#181818" points="422.5,1288.5762,412.5,1292.5762,422.5,1296.5762,418.5,1292.5762" style="stroke:#181818;stroke-width:1.0;"/><line style="stroke:#181818;stroke-width:1.0;stroke-dasharray:2.0,2.0;" x1="416.5" x2="725.5" y1="1292.5762" y2="1292.5762"/><text fill="#000000" font-family="sans-serif" font-size="13" font-weight="bold" lengthAdjust="spacing" textLength="18" x="428.5" y="1287.834">37</text><text fill="#000000" font-family="sans-serif" font-size="13" lengthAdjust="spacing" textLength="76" x="450.5" y="1287.834">collaborator</text><polygon fill="#181818" points="49.5,1317.8867,39.5,1321.8867,49.5,1325.8867,45.5,1321.8867" style="stroke:#181818;stroke-width:1.0;"/><line style="stroke:#181818;stroke-width:1.0;stroke-dasharray:2.0,2.0;" x1="43.5" x2="405.5" y1="1321.8867" y2="1321.8867"/><text fill="#000000" font-family="sans-serif" font-size="13" font-weight="bold" lengthAdjust="spacing" textLength="18" x="55.5" y="1317.1445">38</text><text fill="#000000" font-family="sans-serif" font-size="13" lengthAdjust="spacing" textLength="170" x="77.5" y="1317.1445">displays operation success</text><!--SRC=[hLPDRzim3BtxLn0zjSK2zB1J3WEAOa0BTC3GjBTUL9jDX2gI9oaBykz7oR4ZsV9NCfyIYNeaHJxncIykIwRP5hPAgdoZrHR1wXrcfjafMVx5rhYo1u6WCRTChaLeO3QiK7ikr_39XC4iizoIwTlgxkuxBE3U6BwMe2I2qkH78z1P8GnO1Gno9GJxK9fPfRECxQoIk-q7kjyvBS7LuyklAs06VcvBeGw86NcrFESbanQkbXNyoYE-FNdBjwS1cmSbhIQVgBtjm-lBSylw1KjbEFdcQBnDit1OSPSxXHWVqS69Tza5-Fry_ngVy3Tmmbs-Lz6TLlovrbeC4LvSXFIGtAYoJMxrur8ouP4EXYyI_yiidigJ0NtrFrZye7B0aWv-LGMlki7dVsrk4ZtWZZUeL4g_G1Y4v8frUqjekKRQhRR2xsH6HckqOQpc-gPZt_ZnRT3PTfy78z144rG-dgGXIkIOW8zSfBeeUS9zAM-BOsfB2Fij2L7WVBTregvPkxTtWXdBqpTxRs8U_PH9ked7SkftKIUH3drQKyIDaGwmDxyUnujJMuOfcsTkx5YsSqAeygz9D-ugTDDGmB6881eEB-c9Lti3WX1Wp-q6c10nUDO2gtdRUGSC2XeXz1HiS0BjKvokdd6NJL2x0IAVI-3f33gJh7D8sYLdQpRq1T-bIek1hKcKJQPS7L8haB18VK6rvrfarSOBg6EQqlU5EOWSaoC1bcI3KAg4_OQJf24f0diQadwIvIGak2IfD4IPezBnp66oe6RuiqDJ0LHKSC9eDdkScFBG_TCoZgOUlr7GKpngDAMIXO436gVVfEguTFzH5jduHRY1NwM0HNmT5DSdrrjcUTtvKu8xdZ9GCCl6X8E_XKO7NeUFpxTZdLR7s5nJt6GJ1C8buc3UXBv04CmL0nS8WP49VTxm7ntyeqD_VjqlqW9z6Y2EC0hhNVwlm8R3QGS1bqSHmm-LeJFl9mYUwRURLbZP6S8gcwwgEc_La8egk2a5Ez0xMgBsJnsONPwZISgdu6-DyGy0]--></g></svg>