<?xml version="1.0" encoding="us-ascii" standalone="no"?><svg xmlns="http://www.w3.org/2000/svg" xmlns:xlink="http://www.w3.org/1999/xlink" contentStyleType="text/css" height="1342px" preserveAspectRatio="none" style="width:682px;height:1342px;background:#FFFFFF;" version="1.1" viewBox="0 0 682 1342" width="682px" zoomAndPan="magnify"><defs/><g><!--class Skill--><g id="elem_Skill"><rect codeLine="11" fill="#F1F1F1" height="85.2422" id="Skill" rx="2.5" ry="2.5" style="stroke:#181818;stroke-width:0.5;" width="90" x="84" y="1250"/><ellipse cx="113.85" cy="1266" fill="#ADD1B2" rx="11" ry="11" style="stroke:#181818;stroke-width:1.0;"/><path d="M116.6156,1261.875 Q116.7719,1261.6563 116.9594,1261.5469 Q117.1469,1261.4375 117.3656,1261.4375 Q117.7406,1261.4375 117.975,1261.7031 Q118.2094,1261.9531 118.2094,1262.5625 L118.2094,1264.0156 Q118.2094,1264.625 117.975,1264.8906 Q117.7406,1265.1563 117.3656,1265.1563 Q117.0219,1265.1563 116.8188,1264.9531 Q116.6156,1264.7656 116.5063,1264.25 Q116.4594,1263.8906 116.2719,1263.7031 Q115.9438,1263.3281 115.3344,1263.1094 Q114.725,1262.8906 114.1,1262.8906 Q113.3344,1262.8906 112.6938,1263.2188 Q112.0688,1263.5469 111.5688,1264.2969 Q111.0844,1265.0469 111.0844,1266.0781 L111.0844,1267.1719 Q111.0844,1268.4063 111.975,1269.2344 Q112.8656,1270.0469 114.4594,1270.0469 Q115.3969,1270.0469 116.0531,1269.7969 Q116.4438,1269.6406 116.8656,1269.2031 Q117.1313,1268.9375 117.2719,1268.8594 Q117.4281,1268.7813 117.6313,1268.7813 Q117.9594,1268.7813 118.2094,1269.0469 Q118.475,1269.2969 118.475,1269.6406 Q118.475,1269.9844 118.1313,1270.3906 Q117.6313,1270.9688 116.8344,1271.2969 Q115.7563,1271.75 114.4594,1271.75 Q112.9438,1271.75 111.7406,1271.125 Q110.7563,1270.625 110.0688,1269.5625 Q109.3813,1268.4844 109.3813,1267.2031 L109.3813,1266.0469 Q109.3813,1264.7188 109.9906,1263.5781 Q110.6156,1262.4219 111.7094,1261.8125 Q112.8031,1261.1875 114.0375,1261.1875 Q114.7719,1261.1875 115.4125,1261.3594 Q116.0688,1261.5156 116.6156,1261.875 Z " fill="#000000"/><text fill="#000000" font-family="sans-serif" font-size="14" lengthAdjust="spacing" textLength="25" x="131.15" y="1271.7969">Skill</text><line style="stroke:#181818;stroke-width:0.5;" x1="85" x2="173" y1="1282" y2="1282"/><text fill="#000000" font-family="sans-serif" font-size="14" lengthAdjust="spacing" textLength="40" x="90" y="1301.1074">-name</text><line style="stroke:#181818;stroke-width:0.5;" x1="85" x2="173" y1="1308.6211" y2="1308.6211"/><text fill="#000000" font-family="sans-serif" font-size="14" lengthAdjust="spacing" textLength="78" x="90" y="1327.7285">+Skill(name)</text></g><!--class Collaborator--><g id="elem_Collaborator"><rect codeLine="17" fill="#F1F1F1" height="252.832" id="Collaborator" rx="2.5" ry="2.5" style="stroke:#181818;stroke-width:0.5;" width="508" x="167" y="918"/><ellipse cx="377.75" cy="934" fill="#ADD1B2" rx="11" ry="11" style="stroke:#181818;stroke-width:1.0;"/><path d="M380.5156,929.875 Q380.6719,929.6563 380.8594,929.5469 Q381.0469,929.4375 381.2656,929.4375 Q381.6406,929.4375 381.875,929.7031 Q382.1094,929.9531 382.1094,930.5625 L382.1094,932.0156 Q382.1094,932.625 381.875,932.8906 Q381.6406,933.1563 381.2656,933.1563 Q380.9219,933.1563 380.7188,932.9531 Q380.5156,932.7656 380.4063,932.25 Q380.3594,931.8906 380.1719,931.7031 Q379.8438,931.3281 379.2344,931.1094 Q378.625,930.8906 378,930.8906 Q377.2344,930.8906 376.5938,931.2188 Q375.9688,931.5469 375.4688,932.2969 Q374.9844,933.0469 374.9844,934.0781 L374.9844,935.1719 Q374.9844,936.4063 375.875,937.2344 Q376.7656,938.0469 378.3594,938.0469 Q379.2969,938.0469 379.9531,937.7969 Q380.3438,937.6406 380.7656,937.2031 Q381.0313,936.9375 381.1719,936.8594 Q381.3281,936.7813 381.5313,936.7813 Q381.8594,936.7813 382.1094,937.0469 Q382.375,937.2969 382.375,937.6406 Q382.375,937.9844 382.0313,938.3906 Q381.5313,938.9688 380.7344,939.2969 Q379.6563,939.75 378.3594,939.75 Q376.8438,939.75 375.6406,939.125 Q374.6563,938.625 373.9688,937.5625 Q373.2813,936.4844 373.2813,935.2031 L373.2813,934.0469 Q373.2813,932.7188 373.8906,931.5781 Q374.5156,930.4219 375.6094,929.8125 Q376.7031,929.1875 377.9375,929.1875 Q378.6719,929.1875 379.3125,929.3594 Q379.9688,929.5156 380.5156,929.875 Z " fill="#000000"/><text fill="#000000" font-family="sans-serif" font-size="14" lengthAdjust="spacing" textLength="78" x="398.25" y="939.7969">Collaborator</text><line style="stroke:#181818;stroke-width:0.5;" x1="168" x2="674" y1="950" y2="950"/><text fill="#000000" font-family="sans-serif" font-size="14" lengthAdjust="spacing" textLength="40" x="173" y="969.1074">-name</text><text fill="#000000" font-family="sans-serif" font-size="14" lengthAdjust="spacing" textLength="61" x="173" y="987.7285">-birthdate</text><text fill="#000000" font-family="sans-serif" font-size="14" lengthAdjust="spacing" textLength="98" x="173" y="1006.3496">-admissionDate</text><text fill="#000000" font-family="sans-serif" font-size="14" lengthAdjust="spacing" textLength="56" x="173" y="1024.9707">-address</text><text fill="#000000" font-family="sans-serif" font-size="14" lengthAdjust="spacing" textLength="94" x="173" y="1043.5918">-phoneNumber</text><text fill="#000000" font-family="sans-serif" font-size="14" lengthAdjust="spacing" textLength="38" x="173" y="1062.2129">-email</text><text fill="#000000" font-family="sans-serif" font-size="14" lengthAdjust="spacing" textLength="108" x="173" y="1080.834">-taxpayerNumber</text><text fill="#000000" font-family="sans-serif" font-size="14" lengthAdjust="spacing" textLength="180" x="173" y="1099.4551">-identificationDocumentType</text><text fill="#000000" font-family="sans-serif" font-size="14" lengthAdjust="spacing" textLength="197" x="173" y="1118.0762">-identificationDocumentNumber</text><line style="stroke:#181818;stroke-width:0.5;" x1="168" x2="674" y1="1125.5898" y2="1125.5898"/><text fill="#000000" font-family="sans-serif" font-size="14" lengthAdjust="spacing" textLength="492" x="173" y="1144.6973">+Collaborator(name, birthdate, admissionDate, address, phoneNumber, email,</text><text fill="#000000" font-family="sans-serif" font-size="14" lengthAdjust="spacing" textLength="491" x="173" y="1163.3184">taxpayerNumber, identificationDocumentType, identificationDocumentNumber)</text></g><!--class AssignSkillsController--><g id="elem_AssignSkillsController"><rect codeLine="31" fill="#F1F1F1" height="196.9688" id="AssignSkillsController" rx="2.5" ry="2.5" style="stroke:#181818;stroke-width:0.5;" width="407" x="81.5" y="116"/><ellipse cx="212.75" cy="132" fill="#ADD1B2" rx="11" ry="11" style="stroke:#181818;stroke-width:1.0;"/><path d="M215.5156,127.875 Q215.6719,127.6563 215.8594,127.5469 Q216.0469,127.4375 216.2656,127.4375 Q216.6406,127.4375 216.875,127.7031 Q217.1094,127.9531 217.1094,128.5625 L217.1094,130.0156 Q217.1094,130.625 216.875,130.8906 Q216.6406,131.1563 216.2656,131.1563 Q215.9219,131.1563 215.7188,130.9531 Q215.5156,130.7656 215.4063,130.25 Q215.3594,129.8906 215.1719,129.7031 Q214.8438,129.3281 214.2344,129.1094 Q213.625,128.8906 213,128.8906 Q212.2344,128.8906 211.5938,129.2188 Q210.9688,129.5469 210.4688,130.2969 Q209.9844,131.0469 209.9844,132.0781 L209.9844,133.1719 Q209.9844,134.4063 210.875,135.2344 Q211.7656,136.0469 213.3594,136.0469 Q214.2969,136.0469 214.9531,135.7969 Q215.3438,135.6406 215.7656,135.2031 Q216.0313,134.9375 216.1719,134.8594 Q216.3281,134.7813 216.5313,134.7813 Q216.8594,134.7813 217.1094,135.0469 Q217.375,135.2969 217.375,135.6406 Q217.375,135.9844 217.0313,136.3906 Q216.5313,136.9688 215.7344,137.2969 Q214.6563,137.75 213.3594,137.75 Q211.8438,137.75 210.6406,137.125 Q209.6563,136.625 208.9688,135.5625 Q208.2813,134.4844 208.2813,133.2031 L208.2813,132.0469 Q208.2813,130.7188 208.8906,129.5781 Q209.5156,128.4219 210.6094,127.8125 Q211.7031,127.1875 212.9375,127.1875 Q213.6719,127.1875 214.3125,127.3594 Q214.9688,127.5156 215.5156,127.875 Z " fill="#000000"/><text fill="#000000" font-family="sans-serif" font-size="14" lengthAdjust="spacing" textLength="136" x="233.25" y="137.7969">AssignSkillsController</text><line style="stroke:#181818;stroke-width:0.5;" x1="82.5" x2="487.5" y1="148" y2="148"/><line style="stroke:#181818;stroke-width:0.5;" x1="82.5" x2="487.5" y1="156" y2="156"/><text fill="#000000" font-family="sans-serif" font-size="14" lengthAdjust="spacing" textLength="395" x="87.5" y="175.1074">+assignSkillsController(collaboratorRepository, skillRepository)</text><text fill="#000000" font-family="sans-serif" font-size="14" lengthAdjust="spacing" textLength="123" x="87.5" y="193.7285">+getCollaborators()</text><text fill="#000000" font-family="sans-serif" font-size="14" lengthAdjust="spacing" textLength="70" x="87.5" y="212.3496">+getSkills()</text><text fill="#000000" font-family="sans-serif" font-size="14" lengthAdjust="spacing" textLength="167" x="87.5" y="230.9707">+createSelectedSkillsList()</text><text fill="#000000" font-family="sans-serif" font-size="14" lengthAdjust="spacing" textLength="181" x="87.5" y="249.5918">+addSelectedSkill(skillName)</text><text fill="#000000" font-family="sans-serif" font-size="14" lengthAdjust="spacing" textLength="147" x="87.5" y="268.2129">+getSelectedSkillsList()</text><text fill="#000000" font-family="sans-serif" font-size="14" lengthAdjust="spacing" textLength="327" x="87.5" y="286.834">+getCollaboratorByIdNumber(collaboratorIdNumber)</text><text fill="#000000" font-family="sans-serif" font-size="14" lengthAdjust="spacing" textLength="274" x="87.5" y="305.4551">+assignSkill(collaborator, selectedSkillsList)</text></g><!--class AssignSkillsUI--><g id="elem_AssignSkillsUI"><rect codeLine="42" fill="#F1F1F1" height="48" id="AssignSkillsUI" rx="2.5" ry="2.5" style="stroke:#181818;stroke-width:0.5;" width="118" x="226" y="7"/><ellipse cx="241" cy="23" fill="#ADD1B2" rx="11" ry="11" style="stroke:#181818;stroke-width:1.0;"/><path d="M243.7656,18.875 Q243.9219,18.6563 244.1094,18.5469 Q244.2969,18.4375 244.5156,18.4375 Q244.8906,18.4375 245.125,18.7031 Q245.3594,18.9531 245.3594,19.5625 L245.3594,21.0156 Q245.3594,21.625 245.125,21.8906 Q244.8906,22.1563 244.5156,22.1563 Q244.1719,22.1563 243.9688,21.9531 Q243.7656,21.7656 243.6563,21.25 Q243.6094,20.8906 243.4219,20.7031 Q243.0938,20.3281 242.4844,20.1094 Q241.875,19.8906 241.25,19.8906 Q240.4844,19.8906 239.8438,20.2188 Q239.2188,20.5469 238.7188,21.2969 Q238.2344,22.0469 238.2344,23.0781 L238.2344,24.1719 Q238.2344,25.4063 239.125,26.2344 Q240.0156,27.0469 241.6094,27.0469 Q242.5469,27.0469 243.2031,26.7969 Q243.5938,26.6406 244.0156,26.2031 Q244.2813,25.9375 244.4219,25.8594 Q244.5781,25.7813 244.7813,25.7813 Q245.1094,25.7813 245.3594,26.0469 Q245.625,26.2969 245.625,26.6406 Q245.625,26.9844 245.2813,27.3906 Q244.7813,27.9688 243.9844,28.2969 Q242.9063,28.75 241.6094,28.75 Q240.0938,28.75 238.8906,28.125 Q237.9063,27.625 237.2188,26.5625 Q236.5313,25.4844 236.5313,24.2031 L236.5313,23.0469 Q236.5313,21.7188 237.1406,20.5781 Q237.7656,19.4219 238.8594,18.8125 Q239.9531,18.1875 241.1875,18.1875 Q241.9219,18.1875 242.5625,18.3594 Q243.2188,18.5156 243.7656,18.875 Z " fill="#000000"/><text fill="#000000" font-family="sans-serif" font-size="14" lengthAdjust="spacing" textLength="86" x="255" y="28.7969">AssignSkillsUI</text><line style="stroke:#181818;stroke-width:0.5;" x1="227" x2="343" y1="39" y2="39"/><line style="stroke:#181818;stroke-width:0.5;" x1="227" x2="343" y1="47" y2="47"/></g><!--class Repositories--><g id="elem_Repositories"><rect codeLine="45" fill="#F1F1F1" height="122.4844" id="Repositories" rx="2.5" ry="2.5" style="stroke:#181818;stroke-width:0.5;" width="196" x="187" y="454"/><ellipse cx="241.25" cy="470" fill="#ADD1B2" rx="11" ry="11" style="stroke:#181818;stroke-width:1.0;"/><path d="M244.0156,465.875 Q244.1719,465.6563 244.3594,465.5469 Q244.5469,465.4375 244.7656,465.4375 Q245.1406,465.4375 245.375,465.7031 Q245.6094,465.9531 245.6094,466.5625 L245.6094,468.0156 Q245.6094,468.625 245.375,468.8906 Q245.1406,469.1563 244.7656,469.1563 Q244.4219,469.1563 244.2188,468.9531 Q244.0156,468.7656 243.9063,468.25 Q243.8594,467.8906 243.6719,467.7031 Q243.3438,467.3281 242.7344,467.1094 Q242.125,466.8906 241.5,466.8906 Q240.7344,466.8906 240.0938,467.2188 Q239.4688,467.5469 238.9688,468.2969 Q238.4844,469.0469 238.4844,470.0781 L238.4844,471.1719 Q238.4844,472.4063 239.375,473.2344 Q240.2656,474.0469 241.8594,474.0469 Q242.7969,474.0469 243.4531,473.7969 Q243.8438,473.6406 244.2656,473.2031 Q244.5313,472.9375 244.6719,472.8594 Q244.8281,472.7813 245.0313,472.7813 Q245.3594,472.7813 245.6094,473.0469 Q245.875,473.2969 245.875,473.6406 Q245.875,473.9844 245.5313,474.3906 Q245.0313,474.9688 244.2344,475.2969 Q243.1563,475.75 241.8594,475.75 Q240.3438,475.75 239.1406,475.125 Q238.1563,474.625 237.4688,473.5625 Q236.7813,472.4844 236.7813,471.2031 L236.7813,470.0469 Q236.7813,468.7188 237.3906,467.5781 Q238.0156,466.4219 239.1094,465.8125 Q240.2031,465.1875 241.4375,465.1875 Q242.1719,465.1875 242.8125,465.3594 Q243.4688,465.5156 244.0156,465.875 Z " fill="#000000"/><text fill="#000000" font-family="sans-serif" font-size="14" lengthAdjust="spacing" textLength="79" x="261.75" y="475.7969">Repositories</text><line style="stroke:#181818;stroke-width:0.5;" x1="188" x2="382" y1="486" y2="486"/><line style="stroke:#181818;stroke-width:0.5;" x1="188" x2="382" y1="494" y2="494"/><text fill="#000000" font-family="sans-serif" font-size="14" lengthAdjust="spacing" textLength="94" x="193" y="513.1074">-Repositories()</text><text fill="#000000" font-family="sans-serif" font-size="14" lengthAdjust="spacing" textLength="182" x="193" y="531.7285">+getInstance() : Repositories</text><text fill="#000000" font-family="sans-serif" font-size="14" lengthAdjust="spacing" textLength="131" x="193" y="550.3496">+getSkillRepository()</text><text fill="#000000" font-family="sans-serif" font-size="14" lengthAdjust="spacing" textLength="184" x="193" y="568.9707">+getCollaboratorRepository()</text></g><!--class SkillRepository--><g id="elem_SkillRepository"><rect codeLine="52" fill="#F1F1F1" height="122.4844" id="SkillRepository" rx="2.5" ry="2.5" style="stroke:#181818;stroke-width:0.5;" width="186" x="7" y="717"/><ellipse cx="49.45" cy="733" fill="#ADD1B2" rx="11" ry="11" style="stroke:#181818;stroke-width:1.0;"/><path d="M52.2156,728.875 Q52.3719,728.6563 52.5594,728.5469 Q52.7469,728.4375 52.9656,728.4375 Q53.3406,728.4375 53.575,728.7031 Q53.8094,728.9531 53.8094,729.5625 L53.8094,731.0156 Q53.8094,731.625 53.575,731.8906 Q53.3406,732.1563 52.9656,732.1563 Q52.6219,732.1563 52.4188,731.9531 Q52.2156,731.7656 52.1063,731.25 Q52.0594,730.8906 51.8719,730.7031 Q51.5438,730.3281 50.9344,730.1094 Q50.325,729.8906 49.7,729.8906 Q48.9344,729.8906 48.2938,730.2188 Q47.6688,730.5469 47.1688,731.2969 Q46.6844,732.0469 46.6844,733.0781 L46.6844,734.1719 Q46.6844,735.4063 47.575,736.2344 Q48.4656,737.0469 50.0594,737.0469 Q50.9969,737.0469 51.6531,736.7969 Q52.0438,736.6406 52.4656,736.2031 Q52.7313,735.9375 52.8719,735.8594 Q53.0281,735.7813 53.2313,735.7813 Q53.5594,735.7813 53.8094,736.0469 Q54.075,736.2969 54.075,736.6406 Q54.075,736.9844 53.7313,737.3906 Q53.2313,737.9688 52.4344,738.2969 Q51.3563,738.75 50.0594,738.75 Q48.5438,738.75 47.3406,738.125 Q46.3563,737.625 45.6688,736.5625 Q44.9813,735.4844 44.9813,734.2031 L44.9813,733.0469 Q44.9813,731.7188 45.5906,730.5781 Q46.2156,729.4219 47.3094,728.8125 Q48.4031,728.1875 49.6375,728.1875 Q50.3719,728.1875 51.0125,728.3594 Q51.6688,728.5156 52.2156,728.875 Z " fill="#000000"/><text fill="#000000" font-family="sans-serif" font-size="14" lengthAdjust="spacing" textLength="93" x="69.55" y="738.7969">SkillRepository</text><line style="stroke:#181818;stroke-width:0.5;" x1="8" x2="192" y1="749" y2="749"/><line style="stroke:#181818;stroke-width:0.5;" x1="8" x2="192" y1="757" y2="757"/><text fill="#000000" font-family="sans-serif" font-size="14" lengthAdjust="spacing" textLength="70" x="13" y="776.1074">+getSkills()</text><text fill="#000000" font-family="sans-serif" font-size="14" lengthAdjust="spacing" textLength="174" x="13" y="794.7285">+getSkillByName(skillName)</text><text fill="#000000" font-family="sans-serif" font-size="14" lengthAdjust="spacing" textLength="65" x="13" y="813.3496">+add(skill)</text><text fill="#000000" font-family="sans-serif" font-size="14" lengthAdjust="spacing" textLength="147" x="13" y="831.9707">+getSelectedSkillsList()</text></g><!--class CollaboratorRepository--><g id="elem_CollaboratorRepository"><rect codeLine="59" fill="#F1F1F1" height="103.8633" id="CollaboratorRepository" rx="2.5" ry="2.5" style="stroke:#181818;stroke-width:0.5;" width="339" x="251.5" y="726"/><ellipse cx="343.75" cy="742" fill="#ADD1B2" rx="11" ry="11" style="stroke:#181818;stroke-width:1.0;"/><path d="M346.5156,737.875 Q346.6719,737.6563 346.8594,737.5469 Q347.0469,737.4375 347.2656,737.4375 Q347.6406,737.4375 347.875,737.7031 Q348.1094,737.9531 348.1094,738.5625 L348.1094,740.0156 Q348.1094,740.625 347.875,740.8906 Q347.6406,741.1563 347.2656,741.1563 Q346.9219,741.1563 346.7188,740.9531 Q346.5156,740.7656 346.4063,740.25 Q346.3594,739.8906 346.1719,739.7031 Q345.8438,739.3281 345.2344,739.1094 Q344.625,738.8906 344,738.8906 Q343.2344,738.8906 342.5938,739.2188 Q341.9688,739.5469 341.4688,740.2969 Q340.9844,741.0469 340.9844,742.0781 L340.9844,743.1719 Q340.9844,744.4063 341.875,745.2344 Q342.7656,746.0469 344.3594,746.0469 Q345.2969,746.0469 345.9531,745.7969 Q346.3438,745.6406 346.7656,745.2031 Q347.0313,744.9375 347.1719,744.8594 Q347.3281,744.7813 347.5313,744.7813 Q347.8594,744.7813 348.1094,745.0469 Q348.375,745.2969 348.375,745.6406 Q348.375,745.9844 348.0313,746.3906 Q347.5313,746.9688 346.7344,747.2969 Q345.6563,747.75 344.3594,747.75 Q342.8438,747.75 341.6406,747.125 Q340.6563,746.625 339.9688,745.5625 Q339.2813,744.4844 339.2813,743.2031 L339.2813,742.0469 Q339.2813,740.7188 339.8906,739.5781 Q340.5156,738.4219 341.6094,737.8125 Q342.7031,737.1875 343.9375,737.1875 Q344.6719,737.1875 345.3125,737.3594 Q345.9688,737.5156 346.5156,737.875 Z " fill="#000000"/><text fill="#000000" font-family="sans-serif" font-size="14" lengthAdjust="spacing" textLength="146" x="364.25" y="747.7969">CollaboratorRepository</text><line style="stroke:#181818;stroke-width:0.5;" x1="252.5" x2="589.5" y1="758" y2="758"/><line style="stroke:#181818;stroke-width:0.5;" x1="252.5" x2="589.5" y1="766" y2="766"/><text fill="#000000" font-family="sans-serif" font-size="14" lengthAdjust="spacing" textLength="123" x="257.5" y="785.1074">+getCollaborators()</text><text fill="#000000" font-family="sans-serif" font-size="14" lengthAdjust="spacing" textLength="327" x="257.5" y="803.7285">+getCollaboratorByIdNumber(collaboratorIdNumber)</text><text fill="#000000" font-family="sans-serif" font-size="14" lengthAdjust="spacing" textLength="274" x="257.5" y="822.3496">+assignSkill(collaborator, selectedSkillsList)</text></g><!--link Collaborator to Skill--><g id="link_Collaborator_Skill"><path codeLine="66" d="M272.01,1171.02 C236.29,1201.11 205.4092,1227.1349 178.7292,1249.6049 " fill="none" id="Collaborator-to-Skill" style="stroke:#181818;stroke-width:1.0;"/><polygon fill="#181818" points="174.14,1253.47,183.6006,1250.7319,177.9644,1250.2491,178.4471,1244.6129,174.14,1253.47" style="stroke:#181818;stroke-width:1.0;"/><text fill="#000000" font-family="sans-serif" font-size="13" lengthAdjust="spacing" textLength="66" x="233" y="1216.0283">is assigned</text><text fill="#000000" font-family="sans-serif" font-size="13" lengthAdjust="spacing" textLength="7" x="256.1942" y="1192.8674">1</text><text fill="#000000" font-family="sans-serif" font-size="13" lengthAdjust="spacing" textLength="5" x="182.0304" y="1242.6302">*</text></g><!--link AssignSkillsUI to AssignSkillsController--><g id="link_AssignSkillsUI_AssignSkillsController"><path codeLine="67" d="M285,55.36 C285,71.15 285,87.19 285,109.81 " fill="none" id="AssignSkillsUI-to-AssignSkillsController" style="stroke:#181818;stroke-width:1.0;stroke-dasharray:7.0,7.0;"/><polygon fill="#181818" points="285,115.81,289,106.81,285,110.81,281,106.81,285,115.81" style="stroke:#181818;stroke-width:1.0;"/></g><!--link AssignSkillsController to Repositories--><g id="link_AssignSkillsController_Repositories"><path codeLine="68" d="M285,313.24 C285,359.66 285,407.65 285,447.95 " fill="none" id="AssignSkillsController-to-Repositories" style="stroke:#181818;stroke-width:1.0;stroke-dasharray:7.0,7.0;"/><polygon fill="#181818" points="285,453.95,289,444.95,285,448.95,281,444.95,285,453.95" style="stroke:#181818;stroke-width:1.0;"/><text fill="#000000" font-family="sans-serif" font-size="13" lengthAdjust="spacing" textLength="67" x="286" y="389.0283">repositories</text></g><!--link AssignSkillsController to SkillRepository--><g id="link_AssignSkillsController_SkillRepository"><path codeLine="69" d="M91.76,313.12 C75.43,332.76 65,355.77 65,382.5 C65,382.5 65,382.5 65,647.5 C65,670.67 68.5679,689.6525 75.0279,711.2125 " fill="none" id="AssignSkillsController-to-SkillRepository" style="stroke:#181818;stroke-width:1.0;stroke-dasharray:7.0,7.0;"/><polygon fill="#181818" points="76.75,716.96,77.9985,707.1906,75.3149,712.1704,70.3351,709.4868,76.75,716.96" style="stroke:#181818;stroke-width:1.0;"/><text fill="#000000" font-family="sans-serif" font-size="13" lengthAdjust="spacing" textLength="85" x="66" y="520.5283">skillRepository</text></g><!--link AssignSkillsController to CollaboratorRepository--><g id="link_AssignSkillsController_CollaboratorRepository"><path codeLine="70" d="M488.69,296.21 C514.44,318.81 532,347.17 532,382.5 C532,382.5 532,382.5 532,647.5 C532,677.85 518.4636,700.4283 497.1236,721.6583 " fill="none" id="AssignSkillsController-to-CollaboratorRepository" style="stroke:#181818;stroke-width:1.0;stroke-dasharray:7.0,7.0;"/><polygon fill="#181818" points="492.87,725.89,502.0715,722.3782,496.4147,722.3636,496.4293,716.7068,492.87,725.89" style="stroke:#181818;stroke-width:1.0;"/><text fill="#000000" font-family="sans-serif" font-size="13" lengthAdjust="spacing" textLength="129" x="533" y="520.5283">collaboratorRepository</text></g><!--link Repositories to Repositories--><g id="link_Repositories_Repositories"><path codeLine="72" d="M383.02,498.72 C403.37,500.43 418,505.86 418,515 C418,524.14 409.3489,529.0676 388.9989,530.7776 " fill="none" id="Repositories-to-Repositories" style="stroke:#181818;stroke-width:1.0;"/><polygon fill="#181818" points="383.02,531.28,392.3233,534.5123,388.0024,530.8613,391.6535,526.5404,383.02,531.28" style="stroke:#181818;stroke-width:1.0;"/><text fill="#000000" font-family="sans-serif" font-size="13" lengthAdjust="spacing" textLength="49" x="424" y="520.5283">instance</text></g><!--link Repositories to SkillRepository--><g id="link_Repositories_SkillRepository"><path codeLine="73" d="M242.32,576.21 C212.45,618.36 176.1498,669.5651 146.2498,711.7451 " fill="none" id="Repositories-to-SkillRepository" style="stroke:#181818;stroke-width:1.0;"/><polygon fill="#181818" points="142.78,716.64,151.248,711.6109,145.6715,712.5609,144.7215,706.9844,142.78,716.64" style="stroke:#181818;stroke-width:1.0;"/><text fill="#000000" font-family="sans-serif" font-size="13" lengthAdjust="spacing" textLength="85" x="200" y="652.0283">skillRepository</text><text fill="#000000" font-family="sans-serif" font-size="13" lengthAdjust="spacing" textLength="7" x="140.3218" y="705.5796">1</text></g><!--link Repositories to CollaboratorRepository--><g id="link_Repositories_CollaboratorRepository"><path codeLine="74" d="M316.37,576.21 C339.98,621.52 369.2169,677.6293 391.5969,720.5693 " fill="none" id="Repositories-to-CollaboratorRepository" style="stroke:#181818;stroke-width:1.0;"/><polygon fill="#181818" points="394.37,725.89,393.7575,716.0602,392.0591,721.4561,386.6632,719.7577,394.37,725.89" style="stroke:#181818;stroke-width:1.0;"/><text fill="#000000" font-family="sans-serif" font-size="13" lengthAdjust="spacing" textLength="129" x="358" y="652.0283">collaboratorRepository</text><text fill="#000000" font-family="sans-serif" font-size="13" lengthAdjust="spacing" textLength="7" x="383.3213" y="714.8026">1</text></g><!--link SkillRepository to Skill--><g id="link_SkillRepository_Skill"><path codeLine="76" d="M101.56,839.16 C103.81,916.16 108.62,1053.62 117,1171 C118.87,1197.21 121.1412,1220.5941 123.6212,1243.7541 " fill="none" id="SkillRepository-to-Skill" style="stroke:#181818;stroke-width:1.0;"/><polygon fill="#181818" points="124.26,1249.72,127.279,1240.3453,123.7276,1244.7484,119.3245,1241.197,124.26,1249.72" style="stroke:#181818;stroke-width:1.0;"/><text fill="#000000" font-family="sans-serif" font-size="13" lengthAdjust="spacing" textLength="30" x="118" y="1050.0283">skills</text></g><!--link CollaboratorRepository to Collaborator--><g id="link_CollaboratorRepository_Collaborator"><path codeLine="77" d="M421,830.31 C421,855.4 421,880.8 421,911.73 " fill="none" id="CollaboratorRepository-to-Collaborator" style="stroke:#181818;stroke-width:1.0;"/><polygon fill="#181818" points="421,917.73,425,908.73,421,912.73,417,908.73,421,917.73" style="stroke:#181818;stroke-width:1.0;"/><text fill="#000000" font-family="sans-serif" font-size="13" lengthAdjust="spacing" textLength="74" x="422" y="884.0283">collaborators</text></g><!--SRC=[lLGzZzim3DtrAmWl5pTEq5iz1BYF9K1nGzDkNHIPSOJ8aY4fQDtY_dlbRycnS-XIJn8VIJq-adum5ovBgca1XPAAdRKg4Ao-8XcHah8BpV5WAu6WaLagS-4xc3FDr4ykSpXHONn4S8csAX5A9QhwCeSfRHNn02QeCK_MQdwyMjmp9G_yDy9dGXu4dYnO1PhdPmiPhzbm9GbfOk1muKAGFmJSjm592soEwnPOrOQOlFVUBqe8UbIQMgNX9cW3HwxjEQEslzEiuCQuvrvzMwRHcEvMdfN4jsjnHDrPiA1ST6TBVvMqGXquy0obvIVEQ5t8gsBNmXc-ELtkEdWvra4XJP79o3q9QISzuyGdcxGy4_WXGvB97Nx9NMen6OL-Si_dikc1UL7IQiSNUydNG6VX5VEg-egbCjmTgWHCxJWQuYvBZjRNmQmyeCqzM9X69yK1XPiUp5hm2pTsS70Q1UYgUVEj6PynwNByXCjpjSzQLOAYUcDygqFWvqg-UIgUL_Vxtgaw88D87CqmuBxH9xoNnYqsmrKCQU0qaN5KVgdSmECzsCqH6hf_svxUybpLYjzgxxhJ6ZzgnkocprDO79t_qKSI_8cYnmWscnr4dw9Mj1IuwP9YHYRjtcvt2_j55jPkMuVu3KxTJzrhzsBORjh3TBgBzsBdUv32_9eJ4Wpl9cJi9fHtuphnQuHxZ3vcEX_shoIdGrtdwNhMF6Z8mkZLZZuKFc48-Gi0]--></g></svg>