<?xml version="1.0" encoding="us-ascii" standalone="no"?><svg xmlns="http://www.w3.org/2000/svg" xmlns:xlink="http://www.w3.org/1999/xlink" contentStyleType="text/css" height="388px" preserveAspectRatio="none" style="width:734px;height:388px;background:#FFFFFF;" version="1.1" viewBox="0 0 734 388" width="734px" zoomAndPan="magnify"><defs/><g><rect fill="#FFFFFF" height="233.8633" style="stroke:#181818;stroke-width:1.0;" width="10" x="205" y="84.2871"/><rect fill="#FFFFFF" height="143.9316" style="stroke:#181818;stroke-width:1.0;" width="10" x="432" y="137.9082"/><rect fill="#FFFFFF" height="40.3105" style="stroke:#181818;stroke-width:1.0;" width="10" x="437" y="175.2188"/><rect fill="#FFFFFF" height="30" style="stroke:#181818;stroke-width:1.0;" width="10" x="649" y="251.8398"/><rect fill="none" height="190.5527" style="stroke:#000000;stroke-width:1.5;" width="612.5" x="115.5" y="99.2871"/><line style="stroke:#181818;stroke-width:0.5;stroke-dasharray:5.0,5.0;" x1="209.5" x2="209.5" y1="52.9766" y2="336.1504"/><line style="stroke:#181818;stroke-width:0.5;stroke-dasharray:5.0,5.0;" x1="437" x2="437" y1="52.9766" y2="336.1504"/><line style="stroke:#181818;stroke-width:0.5;stroke-dasharray:5.0,5.0;" x1="654" x2="654" y1="52.9766" y2="336.1504"/><rect fill="#E3E3E3" height="30.4883" rx="2.5" ry="2.5" style="stroke:#181818;stroke-width:0.5;" width="169" x="125.5" y="21.4883"/><text fill="#000000" font-family="sans-serif" font-size="14" lengthAdjust="spacing" textLength="155" x="132.5" y="42.0234">:AssignSkillsController</text><rect fill="#E3E3E3" height="30.4883" rx="2.5" ry="2.5" style="stroke:#181818;stroke-width:0.5;" width="169" x="125.5" y="335.1504"/><text fill="#000000" font-family="sans-serif" font-size="14" lengthAdjust="spacing" textLength="155" x="132.5" y="355.6855">:AssignSkillsController</text><rect fill="#E3E3E3" height="46.9766" rx="2.5" ry="2.5" style="stroke:#181818;stroke-width:0.5;" width="118" x="378" y="5"/><text fill="#000000" font-family="sans-serif" font-size="14" lengthAdjust="spacing" textLength="104" x="385" y="25.5352">skillRepository:</text><text fill="#000000" font-family="sans-serif" font-size="14" lengthAdjust="spacing" textLength="101" x="386.5" y="42.0234">SkillRepository</text><rect fill="#E3E3E3" height="46.9766" rx="2.5" ry="2.5" style="stroke:#181818;stroke-width:0.5;" width="118" x="378" y="335.1504"/><text fill="#000000" font-family="sans-serif" font-size="14" lengthAdjust="spacing" textLength="104" x="385" y="355.6855">skillRepository:</text><text fill="#000000" font-family="sans-serif" font-size="14" lengthAdjust="spacing" textLength="101" x="386.5" y="372.1738">SkillRepository</text><rect fill="#E3E3E3" height="46.9766" rx="2.5" ry="2.5" style="stroke:#181818;stroke-width:0.5;" width="128" x="590" y="5"/><text fill="#000000" font-family="sans-serif" font-size="14" lengthAdjust="spacing" textLength="114" x="597" y="25.5352">selectedSkillsList</text><text fill="#000000" font-family="sans-serif" font-size="14" lengthAdjust="spacing" textLength="73" x="617.5" y="42.0234">List&lt;Skill&gt;</text><rect fill="#E3E3E3" height="46.9766" rx="2.5" ry="2.5" style="stroke:#181818;stroke-width:0.5;" width="128" x="590" y="335.1504"/><text fill="#000000" font-family="sans-serif" font-size="14" lengthAdjust="spacing" textLength="114" x="597" y="355.6855">selectedSkillsList</text><text fill="#000000" font-family="sans-serif" font-size="14" lengthAdjust="spacing" textLength="73" x="617.5" y="372.1738">List&lt;Skill&gt;</text><rect fill="#FFFFFF" height="233.8633" style="stroke:#181818;stroke-width:1.0;" width="10" x="205" y="84.2871"/><rect fill="#FFFFFF" height="143.9316" style="stroke:#181818;stroke-width:1.0;" width="10" x="432" y="137.9082"/><rect fill="#FFFFFF" height="40.3105" style="stroke:#181818;stroke-width:1.0;" width="10" x="437" y="175.2188"/><rect fill="#FFFFFF" height="30" style="stroke:#181818;stroke-width:1.0;" width="10" x="649" y="251.8398"/><polygon fill="#181818" points="193,80.2871,203,84.2871,193,88.2871,197,84.2871" style="stroke:#181818;stroke-width:1.0;"/><line style="stroke:#181818;stroke-width:1.0;" x1="0" x2="199" y1="84.2871" y2="84.2871"/><text fill="#000000" font-family="sans-serif" font-size="13" font-weight="bold" lengthAdjust="spacing" textLength="9" x="7" y="79.5449">3</text><text fill="#000000" font-family="sans-serif" font-size="13" lengthAdjust="spacing" textLength="173" x="20" y="79.5449">addSelectedSkill(skillName)</text><path d="M115.5,99.2871 L279.5,99.2871 L279.5,106.5977 L269.5,116.5977 L115.5,116.5977 L115.5,99.2871 " fill="#EEEEEE" style="stroke:#000000;stroke-width:1.5;"/><rect fill="none" height="190.5527" style="stroke:#000000;stroke-width:1.5;" width="612.5" x="115.5" y="99.2871"/><text fill="#000000" font-family="sans-serif" font-size="13" font-weight="bold" lengthAdjust="spacing" textLength="119" x="130.5" y="112.8555">Add Selected Skill</text><polygon fill="#181818" points="420,133.9082,430,137.9082,420,141.9082,424,137.9082" style="stroke:#181818;stroke-width:1.0;"/><line style="stroke:#181818;stroke-width:1.0;" x1="215" x2="426" y1="137.9082" y2="137.9082"/><text fill="#000000" font-family="sans-serif" font-size="13" font-weight="bold" lengthAdjust="spacing" textLength="21" x="222" y="133.166">3.1</text><text fill="#000000" font-family="sans-serif" font-size="13" lengthAdjust="spacing" textLength="173" x="247" y="133.166">addSelectedSkill(skillName)</text><line style="stroke:#181818;stroke-width:1.0;" x1="442" x2="489" y1="162.2188" y2="162.2188"/><line style="stroke:#181818;stroke-width:1.0;" x1="489" x2="489" y1="162.2188" y2="175.2188"/><line style="stroke:#181818;stroke-width:1.0;" x1="448" x2="489" y1="175.2188" y2="175.2188"/><polygon fill="#181818" points="458,171.2188,448,175.2188,458,179.2188,454,175.2188" style="stroke:#181818;stroke-width:1.0;"/><text fill="#000000" font-family="sans-serif" font-size="13" font-weight="bold" lengthAdjust="spacing" textLength="21" x="454" y="157.4766">3.2</text><text fill="#000000" font-family="sans-serif" font-size="13" lengthAdjust="spacing" textLength="168" x="479" y="157.4766">getSkillByName(skillName)</text><line style="stroke:#181818;stroke-width:1.0;stroke-dasharray:2.0,2.0;" x1="447" x2="489" y1="214.5293" y2="214.5293"/><line style="stroke:#181818;stroke-width:1.0;stroke-dasharray:2.0,2.0;" x1="489" x2="489" y1="214.5293" y2="227.5293"/><line style="stroke:#181818;stroke-width:1.0;stroke-dasharray:2.0,2.0;" x1="442" x2="489" y1="227.5293" y2="227.5293"/><polygon fill="#181818" points="452,223.5293,442,227.5293,452,231.5293,448,227.5293" style="stroke:#181818;stroke-width:1.0;"/><text fill="#000000" font-family="sans-serif" font-size="13" font-weight="bold" lengthAdjust="spacing" textLength="21" x="454" y="209.7871">3.3</text><text fill="#000000" font-family="sans-serif" font-size="13" lengthAdjust="spacing" textLength="27" x="479" y="209.7871">skill</text><polygon fill="#181818" points="637,247.8398,647,251.8398,637,255.8398,641,251.8398" style="stroke:#181818;stroke-width:1.0;"/><line style="stroke:#181818;stroke-width:1.0;" x1="442" x2="643" y1="251.8398" y2="251.8398"/><text fill="#000000" font-family="sans-serif" font-size="13" font-weight="bold" lengthAdjust="spacing" textLength="21" x="449" y="247.0977">3.4</text><text fill="#000000" font-family="sans-serif" font-size="13" lengthAdjust="spacing" textLength="58" x="474" y="247.0977">add(skill)</text><polygon fill="#181818" points="11,314.1504,1,318.1504,11,322.1504,7,318.1504" style="stroke:#181818;stroke-width:1.0;"/><line style="stroke:#181818;stroke-width:1.0;stroke-dasharray:2.0,2.0;" x1="5" x2="209" y1="318.1504" y2="318.1504"/><text fill="#000000" font-family="sans-serif" font-size="13" font-weight="bold" lengthAdjust="spacing" textLength="9" x="17" y="313.4082">4</text><text fill="#000000" font-family="sans-serif" font-size="13" lengthAdjust="spacing" textLength="105" x="30" y="313.4082">asks to continue</text><!--SRC=[dLF1JiCm3BtdAwoTu30a1ATfcZHsdJXi77SnZUcYfaaLkw3zFMcYbQuh2CYXKfwV_PvhXolZ6WnOG-sTBux1rmGIMbBSHneiAYnfBoTB4AWGTAKT4lY8sdyOLy8RMYQb8YocC0qwWTbYpMnAjw-CjRpnJeAtbi8Ca67pijjUihcZxQZnRCI7q-AG4x-Gb3V2HYN8HfEai-BMi1nSzrqcO9KAN7EKmbQyQ-jN2l2Wvgja3XQ0Mk-7x9jayHbhkhtCkRkFzqBCEmhbpY2UClYsWRNMSAwItQTWTv9Cb1lrzBFmERdN6_-HdZ4AJ2gL90bxEdNL_wJphSoK3byqhkbVxgz7buUKRKzOdfhrX8S9sc-TajDvplawM8h712pdytwRk68G3qLy2CR5TwO6nTFIg4y0]--></g></svg>