<?xml version="1.0" encoding="us-ascii" standalone="no"?><svg xmlns="http://www.w3.org/2000/svg" xmlns:xlink="http://www.w3.org/1999/xlink" contentStyleType="text/css" height="900px" preserveAspectRatio="none" style="width:1447px;height:900px;background:#FFFFFF;" version="1.1" viewBox="0 0 1447 900" width="1447px" zoomAndPan="magnify"><defs/><g><rect fill="#FFFFFF" height="746.4531" style="stroke:#181818;stroke-width:1.0;" width="10" x="255" y="84.2871"/><rect fill="#FFFFFF" height="63.6211" style="stroke:#181818;stroke-width:1.0;" width="10" x="260" y="145.9082"/><rect fill="#FFFFFF" height="306.1055" style="stroke:#181818;stroke-width:1.0;" width="10" x="260" y="246.8398"/><rect fill="#FFFFFF" height="29.3105" style="stroke:#181818;stroke-width:1.0;" width="10" x="633" y="281.1504"/><rect fill="#FFFFFF" height="29.3105" style="stroke:#181818;stroke-width:1.0;" width="10" x="633" y="589.2559"/><rect fill="#FFFFFF" height="29.3105" style="stroke:#181818;stroke-width:1.0;" width="10" x="746" y="339.7715"/><rect fill="#FFFFFF" height="29.3105" style="stroke:#181818;stroke-width:1.0;" width="10" x="746" y="647.877"/><rect fill="#FFFFFF" height="29.3105" style="stroke:#181818;stroke-width:1.0;" width="10" x="866.5" y="180.2188"/><rect fill="#FFFFFF" height="119.2422" style="stroke:#181818;stroke-width:1.0;" width="10" x="1023" y="398.3926"/><rect fill="#FFFFFF" height="87.9316" style="stroke:#181818;stroke-width:1.0;" width="10" x="1023" y="706.498"/><rect fill="#FFFFFF" height="29.3105" style="stroke:#181818;stroke-width:1.0;" width="10" x="1364" y="452.0137"/><rect fill="#FFFFFF" height="29.3105" style="stroke:#181818;stroke-width:1.0;" width="10" x="1364" y="735.8086"/><rect fill="none" height="703.1426" style="stroke:#000000;stroke-width:1.5;" width="1276" x="165.5" y="99.2871"/><rect fill="none" height="75.9316" style="stroke:#000000;stroke-width:1.5;" width="501" x="930.5" y="413.3926"/><line style="stroke:#181818;stroke-width:0.5;stroke-dasharray:5.0,5.0;" x1="259.5" x2="259.5" y1="52.9766" y2="848.7402"/><line style="stroke:#181818;stroke-width:0.5;stroke-dasharray:5.0,5.0;" x1="637.5" x2="637.5" y1="52.9766" y2="848.7402"/><line style="stroke:#181818;stroke-width:0.5;stroke-dasharray:5.0,5.0;" x1="750.5" x2="750.5" y1="52.9766" y2="848.7402"/><line style="stroke:#181818;stroke-width:0.5;stroke-dasharray:5.0,5.0;" x1="871.5" x2="871.5" y1="52.9766" y2="848.7402"/><line style="stroke:#181818;stroke-width:0.5;stroke-dasharray:5.0,5.0;" x1="1027.5" x2="1027.5" y1="52.9766" y2="848.7402"/><line style="stroke:#181818;stroke-width:0.5;stroke-dasharray:5.0,5.0;" x1="1368.5" x2="1368.5" y1="52.9766" y2="848.7402"/><rect fill="#E3E3E3" height="30.4883" rx="2.5" ry="2.5" style="stroke:#181818;stroke-width:0.5;" width="169" x="175.5" y="21.4883"/><text fill="#000000" font-family="sans-serif" font-size="14" lengthAdjust="spacing" textLength="155" x="182.5" y="42.0234">:AssignSkillsController</text><rect fill="#E3E3E3" height="30.4883" rx="2.5" ry="2.5" style="stroke:#181818;stroke-width:0.5;" width="169" x="175.5" y="847.7402"/><text fill="#000000" font-family="sans-serif" font-size="14" lengthAdjust="spacing" textLength="155" x="182.5" y="868.2754">:AssignSkillsController</text><rect fill="#E3E3E3" height="30.4883" rx="2.5" ry="2.5" style="stroke:#181818;stroke-width:0.5;" width="103" x="586.5" y="21.4883"/><text fill="#000000" font-family="sans-serif" font-size="14" lengthAdjust="spacing" textLength="89" x="593.5" y="42.0234">:Repositories</text><rect fill="#E3E3E3" height="30.4883" rx="2.5" ry="2.5" style="stroke:#181818;stroke-width:0.5;" width="103" x="586.5" y="847.7402"/><text fill="#000000" font-family="sans-serif" font-size="14" lengthAdjust="spacing" textLength="89" x="593.5" y="868.2754">:Repositories</text><rect fill="#E3E3E3" height="46.9766" rx="2.5" ry="2.5" style="stroke:#181818;stroke-width:0.5;" width="103" x="699.5" y="5"/><text fill="#000000" font-family="sans-serif" font-size="14" lengthAdjust="spacing" textLength="82" x="710" y="25.5352">repositories</text><text fill="#000000" font-family="sans-serif" font-size="14" lengthAdjust="spacing" textLength="89" x="706.5" y="42.0234">:Repositories</text><rect fill="#E3E3E3" height="46.9766" rx="2.5" ry="2.5" style="stroke:#181818;stroke-width:0.5;" width="103" x="699.5" y="847.7402"/><text fill="#000000" font-family="sans-serif" font-size="14" lengthAdjust="spacing" textLength="82" x="710" y="868.2754">repositories</text><text fill="#000000" font-family="sans-serif" font-size="14" lengthAdjust="spacing" textLength="89" x="706.5" y="884.7637">:Repositories</text><rect fill="#E3E3E3" height="46.9766" rx="2.5" ry="2.5" style="stroke:#181818;stroke-width:0.5;" width="118" x="812.5" y="5"/><text fill="#000000" font-family="sans-serif" font-size="14" lengthAdjust="spacing" textLength="104" x="819.5" y="25.5352">skillRepository:</text><text fill="#000000" font-family="sans-serif" font-size="14" lengthAdjust="spacing" textLength="101" x="821" y="42.0234">SkillRepository</text><rect fill="#E3E3E3" height="46.9766" rx="2.5" ry="2.5" style="stroke:#181818;stroke-width:0.5;" width="118" x="812.5" y="847.7402"/><text fill="#000000" font-family="sans-serif" font-size="14" lengthAdjust="spacing" textLength="104" x="819.5" y="868.2754">skillRepository:</text><text fill="#000000" font-family="sans-serif" font-size="14" lengthAdjust="spacing" textLength="101" x="821" y="884.7637">SkillRepository</text><rect fill="#E3E3E3" height="46.9766" rx="2.5" ry="2.5" style="stroke:#181818;stroke-width:0.5;" width="175" x="940.5" y="5"/><text fill="#000000" font-family="sans-serif" font-size="14" lengthAdjust="spacing" textLength="161" x="947.5" y="25.5352">collaboratorRepository:</text><text fill="#000000" font-family="sans-serif" font-size="14" lengthAdjust="spacing" textLength="160" x="948" y="42.0234">CollaboratorRepository</text><rect fill="#E3E3E3" height="46.9766" rx="2.5" ry="2.5" style="stroke:#181818;stroke-width:0.5;" width="175" x="940.5" y="847.7402"/><text fill="#000000" font-family="sans-serif" font-size="14" lengthAdjust="spacing" textLength="161" x="947.5" y="868.2754">collaboratorRepository:</text><text fill="#000000" font-family="sans-serif" font-size="14" lengthAdjust="spacing" textLength="160" x="948" y="884.7637">CollaboratorRepository</text><rect fill="#E3E3E3" height="46.9766" rx="2.5" ry="2.5" style="stroke:#181818;stroke-width:0.5;" width="105" x="1316.5" y="5"/><text fill="#000000" font-family="sans-serif" font-size="14" lengthAdjust="spacing" textLength="84" x="1327" y="25.5352">collaborator</text><text fill="#000000" font-family="sans-serif" font-size="14" lengthAdjust="spacing" textLength="91" x="1323.5" y="42.0234">:Collaborator</text><rect fill="#E3E3E3" height="46.9766" rx="2.5" ry="2.5" style="stroke:#181818;stroke-width:0.5;" width="105" x="1316.5" y="847.7402"/><text fill="#000000" font-family="sans-serif" font-size="14" lengthAdjust="spacing" textLength="84" x="1327" y="868.2754">collaborator</text><text fill="#000000" font-family="sans-serif" font-size="14" lengthAdjust="spacing" textLength="91" x="1323.5" y="884.7637">:Collaborator</text><rect fill="#FFFFFF" height="746.4531" style="stroke:#181818;stroke-width:1.0;" width="10" x="255" y="84.2871"/><rect fill="#FFFFFF" height="63.6211" style="stroke:#181818;stroke-width:1.0;" width="10" x="260" y="145.9082"/><rect fill="#FFFFFF" height="306.1055" style="stroke:#181818;stroke-width:1.0;" width="10" x="260" y="246.8398"/><rect fill="#FFFFFF" height="29.3105" style="stroke:#181818;stroke-width:1.0;" width="10" x="633" y="281.1504"/><rect fill="#FFFFFF" height="29.3105" style="stroke:#181818;stroke-width:1.0;" width="10" x="633" y="589.2559"/><rect fill="#FFFFFF" height="29.3105" style="stroke:#181818;stroke-width:1.0;" width="10" x="746" y="339.7715"/><rect fill="#FFFFFF" height="29.3105" style="stroke:#181818;stroke-width:1.0;" width="10" x="746" y="647.877"/><rect fill="#FFFFFF" height="29.3105" style="stroke:#181818;stroke-width:1.0;" width="10" x="866.5" y="180.2188"/><rect fill="#FFFFFF" height="119.2422" style="stroke:#181818;stroke-width:1.0;" width="10" x="1023" y="398.3926"/><rect fill="#FFFFFF" height="87.9316" style="stroke:#181818;stroke-width:1.0;" width="10" x="1023" y="706.498"/><rect fill="#FFFFFF" height="29.3105" style="stroke:#181818;stroke-width:1.0;" width="10" x="1364" y="452.0137"/><rect fill="#FFFFFF" height="29.3105" style="stroke:#181818;stroke-width:1.0;" width="10" x="1364" y="735.8086"/><polygon fill="#181818" points="243,80.2871,253,84.2871,243,88.2871,247,84.2871" style="stroke:#181818;stroke-width:1.0;"/><line style="stroke:#181818;stroke-width:1.0;" x1="0" x2="249" y1="84.2871" y2="84.2871"/><text fill="#000000" font-family="sans-serif" font-size="13" font-weight="bold" lengthAdjust="spacing" textLength="18" x="7" y="79.5449">27</text><text fill="#000000" font-family="sans-serif" font-size="13" lengthAdjust="spacing" textLength="214" x="29" y="79.5449">assignSkill(collaboratorIdNumber)</text><path d="M165.5,99.2871 L304.5,99.2871 L304.5,106.5977 L294.5,116.5977 L165.5,116.5977 L165.5,99.2871 " fill="#EEEEEE" style="stroke:#000000;stroke-width:1.5;"/><rect fill="none" height="703.1426" style="stroke:#000000;stroke-width:1.5;" width="1276" x="165.5" y="99.2871"/><text fill="#000000" font-family="sans-serif" font-size="13" font-weight="bold" lengthAdjust="spacing" textLength="94" x="180.5" y="112.8555">Assign Skill(s)</text><line style="stroke:#181818;stroke-width:1.0;" x1="265" x2="312" y1="132.9082" y2="132.9082"/><line style="stroke:#181818;stroke-width:1.0;" x1="312" x2="312" y1="132.9082" y2="145.9082"/><line style="stroke:#181818;stroke-width:1.0;" x1="271" x2="312" y1="145.9082" y2="145.9082"/><polygon fill="#181818" points="281,141.9082,271,145.9082,281,149.9082,277,145.9082" style="stroke:#181818;stroke-width:1.0;"/><text fill="#000000" font-family="sans-serif" font-size="13" font-weight="bold" lengthAdjust="spacing" textLength="30" x="277" y="128.166">27.1</text><text fill="#000000" font-family="sans-serif" font-size="13" lengthAdjust="spacing" textLength="137" x="311" y="128.166">getSelectedSkillsList()</text><polygon fill="#181818" points="854.5,176.2188,864.5,180.2188,854.5,184.2188,858.5,180.2188" style="stroke:#181818;stroke-width:1.0;"/><line style="stroke:#181818;stroke-width:1.0;" x1="270" x2="860.5" y1="180.2188" y2="180.2188"/><text fill="#000000" font-family="sans-serif" font-size="13" font-weight="bold" lengthAdjust="spacing" textLength="30" x="277" y="175.4766">27.2</text><text fill="#000000" font-family="sans-serif" font-size="13" lengthAdjust="spacing" textLength="137" x="311" y="175.4766">getSelectedSkillsList()</text><polygon fill="#181818" points="276,205.5293,266,209.5293,276,213.5293,272,209.5293" style="stroke:#181818;stroke-width:1.0;"/><line style="stroke:#181818;stroke-width:1.0;stroke-dasharray:2.0,2.0;" x1="270" x2="870.5" y1="209.5293" y2="209.5293"/><text fill="#000000" font-family="sans-serif" font-size="13" font-weight="bold" lengthAdjust="spacing" textLength="30" x="282" y="204.7871">27.3</text><text fill="#000000" font-family="sans-serif" font-size="13" lengthAdjust="spacing" textLength="109" x="316" y="204.7871">selectedSkillsList</text><line style="stroke:#181818;stroke-width:1.0;" x1="265" x2="312" y1="233.8398" y2="233.8398"/><line style="stroke:#181818;stroke-width:1.0;" x1="312" x2="312" y1="233.8398" y2="246.8398"/><line style="stroke:#181818;stroke-width:1.0;" x1="271" x2="312" y1="246.8398" y2="246.8398"/><polygon fill="#181818" points="281,242.8398,271,246.8398,281,250.8398,277,246.8398" style="stroke:#181818;stroke-width:1.0;"/><text fill="#000000" font-family="sans-serif" font-size="13" font-weight="bold" lengthAdjust="spacing" textLength="30" x="277" y="229.0977">27.4</text><text fill="#000000" font-family="sans-serif" font-size="13" lengthAdjust="spacing" textLength="320" x="311" y="229.0977">getCollaboratorByIdNumber(collaboratorIdNumber)</text><polygon fill="#181818" points="621,277.1504,631,281.1504,621,285.1504,625,281.1504" style="stroke:#181818;stroke-width:1.0;"/><line style="stroke:#181818;stroke-width:1.0;" x1="270" x2="627" y1="281.1504" y2="281.1504"/><text fill="#000000" font-family="sans-serif" font-size="13" font-weight="bold" lengthAdjust="spacing" textLength="30" x="277" y="276.4082">27.5</text><text fill="#000000" font-family="sans-serif" font-size="13" lengthAdjust="spacing" textLength="81" x="311" y="276.4082">getInstance()</text><polygon fill="#181818" points="281,306.4609,271,310.4609,281,314.4609,277,310.4609" style="stroke:#181818;stroke-width:1.0;"/><line style="stroke:#181818;stroke-width:1.0;stroke-dasharray:2.0,2.0;" x1="275" x2="637" y1="310.4609" y2="310.4609"/><text fill="#000000" font-family="sans-serif" font-size="13" font-weight="bold" lengthAdjust="spacing" textLength="30" x="287" y="305.7188">27.6</text><text fill="#000000" font-family="sans-serif" font-size="13" lengthAdjust="spacing" textLength="75" x="321" y="305.7188">repositories</text><polygon fill="#181818" points="734,335.7715,744,339.7715,734,343.7715,738,339.7715" style="stroke:#181818;stroke-width:1.0;"/><line style="stroke:#181818;stroke-width:1.0;" x1="270" x2="740" y1="339.7715" y2="339.7715"/><text fill="#000000" font-family="sans-serif" font-size="13" font-weight="bold" lengthAdjust="spacing" textLength="30" x="277" y="335.0293">27.7</text><text fill="#000000" font-family="sans-serif" font-size="13" lengthAdjust="spacing" textLength="173" x="311" y="335.0293">getCollaboratorRepository()</text><polygon fill="#181818" points="281,365.082,271,369.082,281,373.082,277,369.082" style="stroke:#181818;stroke-width:1.0;"/><line style="stroke:#181818;stroke-width:1.0;" x1="275" x2="750" y1="369.082" y2="369.082"/><text fill="#000000" font-family="sans-serif" font-size="13" font-weight="bold" lengthAdjust="spacing" textLength="30" x="287" y="364.3398">27.8</text><text fill="#000000" font-family="sans-serif" font-size="13" lengthAdjust="spacing" textLength="143" x="321" y="364.3398">collaboratorRepository</text><polygon fill="#181818" points="1011,394.3926,1021,398.3926,1011,402.3926,1015,398.3926" style="stroke:#181818;stroke-width:1.0;"/><line style="stroke:#181818;stroke-width:1.0;" x1="270" x2="1017" y1="398.3926" y2="398.3926"/><text fill="#000000" font-family="sans-serif" font-size="13" font-weight="bold" lengthAdjust="spacing" textLength="30" x="277" y="393.6504">27.9</text><text fill="#000000" font-family="sans-serif" font-size="13" lengthAdjust="spacing" textLength="320" x="311" y="393.6504">getCollaboratorByIdNumber(collaboratorIdNumber)</text><path d="M930.5,413.3926 L1004.5,413.3926 L1004.5,420.7031 L994.5,430.7031 L930.5,430.7031 L930.5,413.3926 " fill="#EEEEEE" style="stroke:#000000;stroke-width:1.5;"/><rect fill="none" height="75.9316" style="stroke:#000000;stroke-width:1.5;" width="501" x="930.5" y="413.3926"/><text fill="#000000" font-family="sans-serif" font-size="13" font-weight="bold" lengthAdjust="spacing" textLength="29" x="945.5" y="426.9609">loop</text><text fill="#000000" font-family="sans-serif" font-size="11" font-weight="bold" lengthAdjust="spacing" textLength="69" x="1019.5" y="426.0273">[while false]</text><polygon fill="#181818" points="1352,448.0137,1362,452.0137,1352,456.0137,1356,452.0137" style="stroke:#181818;stroke-width:1.0;"/><line style="stroke:#181818;stroke-width:1.0;" x1="1033" x2="1358" y1="452.0137" y2="452.0137"/><text fill="#000000" font-family="sans-serif" font-size="13" font-weight="bold" lengthAdjust="spacing" textLength="39" x="1040" y="447.2715">27.10</text><text fill="#000000" font-family="sans-serif" font-size="13" lengthAdjust="spacing" textLength="241" x="1083" y="447.2715">sameIdNumber(collaboratorIdNumber)</text><polygon fill="#181818" points="1044,477.3242,1034,481.3242,1044,485.3242,1040,481.3242" style="stroke:#181818;stroke-width:1.0;"/><line style="stroke:#181818;stroke-width:1.0;stroke-dasharray:2.0,2.0;" x1="1038" x2="1368" y1="481.3242" y2="481.3242"/><text fill="#000000" font-family="sans-serif" font-size="13" font-weight="bold" lengthAdjust="spacing" textLength="39" x="1050" y="476.582">27.11</text><text fill="#000000" font-family="sans-serif" font-size="13" lengthAdjust="spacing" textLength="62" x="1093" y="476.582">true/false</text><polygon fill="#181818" points="281,513.6348,271,517.6348,281,521.6348,277,517.6348" style="stroke:#181818;stroke-width:1.0;"/><line style="stroke:#181818;stroke-width:1.0;stroke-dasharray:2.0,2.0;" x1="275" x2="1027" y1="517.6348" y2="517.6348"/><text fill="#000000" font-family="sans-serif" font-size="13" font-weight="bold" lengthAdjust="spacing" textLength="39" x="287" y="512.8926">27.12</text><text fill="#000000" font-family="sans-serif" font-size="13" lengthAdjust="spacing" textLength="76" x="330" y="512.8926">collaborator</text><line style="stroke:#181818;stroke-width:1.0;stroke-dasharray:2.0,2.0;" x1="270" x2="312" y1="551.9453" y2="551.9453"/><line style="stroke:#181818;stroke-width:1.0;stroke-dasharray:2.0,2.0;" x1="312" x2="312" y1="551.9453" y2="564.9453"/><line style="stroke:#181818;stroke-width:1.0;stroke-dasharray:2.0,2.0;" x1="265" x2="312" y1="564.9453" y2="564.9453"/><polygon fill="#181818" points="275,560.9453,265,564.9453,275,568.9453,271,564.9453" style="stroke:#181818;stroke-width:1.0;"/><text fill="#000000" font-family="sans-serif" font-size="13" font-weight="bold" lengthAdjust="spacing" textLength="39" x="277" y="547.2031">27.13</text><text fill="#000000" font-family="sans-serif" font-size="13" lengthAdjust="spacing" textLength="76" x="320" y="547.2031">collaborator</text><polygon fill="#181818" points="621,585.2559,631,589.2559,621,593.2559,625,589.2559" style="stroke:#181818;stroke-width:1.0;"/><line style="stroke:#181818;stroke-width:1.0;" x1="265" x2="627" y1="589.2559" y2="589.2559"/><text fill="#000000" font-family="sans-serif" font-size="13" font-weight="bold" lengthAdjust="spacing" textLength="39" x="272" y="584.5137">27.14</text><text fill="#000000" font-family="sans-serif" font-size="13" lengthAdjust="spacing" textLength="81" x="315" y="584.5137">getInstance()</text><polygon fill="#181818" points="276,614.5664,266,618.5664,276,622.5664,272,618.5664" style="stroke:#181818;stroke-width:1.0;"/><line style="stroke:#181818;stroke-width:1.0;stroke-dasharray:2.0,2.0;" x1="270" x2="637" y1="618.5664" y2="618.5664"/><text fill="#000000" font-family="sans-serif" font-size="13" font-weight="bold" lengthAdjust="spacing" textLength="39" x="282" y="613.8242">27.15</text><text fill="#000000" font-family="sans-serif" font-size="13" lengthAdjust="spacing" textLength="75" x="325" y="613.8242">repositories</text><polygon fill="#181818" points="734,643.877,744,647.877,734,651.877,738,647.877" style="stroke:#181818;stroke-width:1.0;"/><line style="stroke:#181818;stroke-width:1.0;" x1="265" x2="740" y1="647.877" y2="647.877"/><text fill="#000000" font-family="sans-serif" font-size="13" font-weight="bold" lengthAdjust="spacing" textLength="39" x="272" y="643.1348">27.16</text><text fill="#000000" font-family="sans-serif" font-size="13" lengthAdjust="spacing" textLength="173" x="315" y="643.1348">getCollaboratorRepository()</text><polygon fill="#181818" points="276,673.1875,266,677.1875,276,681.1875,272,677.1875" style="stroke:#181818;stroke-width:1.0;"/><line style="stroke:#181818;stroke-width:1.0;stroke-dasharray:2.0,2.0;" x1="270" x2="750" y1="677.1875" y2="677.1875"/><text fill="#000000" font-family="sans-serif" font-size="13" font-weight="bold" lengthAdjust="spacing" textLength="39" x="282" y="672.4453">27.17</text><text fill="#000000" font-family="sans-serif" font-size="13" lengthAdjust="spacing" textLength="143" x="325" y="672.4453">collaboratorRepository</text><polygon fill="#181818" points="1011,702.498,1021,706.498,1011,710.498,1015,706.498" style="stroke:#181818;stroke-width:1.0;"/><line style="stroke:#181818;stroke-width:1.0;" x1="265" x2="1017" y1="706.498" y2="706.498"/><text fill="#000000" font-family="sans-serif" font-size="13" font-weight="bold" lengthAdjust="spacing" textLength="39" x="272" y="701.7559">27.18</text><text fill="#000000" font-family="sans-serif" font-size="13" lengthAdjust="spacing" textLength="269" x="315" y="701.7559">assignSkill(collaborator, selectedSkillsList)</text><polygon fill="#181818" points="1352,731.8086,1362,735.8086,1352,739.8086,1356,735.8086" style="stroke:#181818;stroke-width:1.0;"/><line style="stroke:#181818;stroke-width:1.0;" x1="1033" x2="1358" y1="735.8086" y2="735.8086"/><text fill="#000000" font-family="sans-serif" font-size="13" font-weight="bold" lengthAdjust="spacing" textLength="39" x="1040" y="731.0664">27.19</text><text fill="#000000" font-family="sans-serif" font-size="13" lengthAdjust="spacing" textLength="269" x="1083" y="731.0664">assignSkill(collaborator, skillsSelectedList)</text><polygon fill="#181818" points="1044,761.1191,1034,765.1191,1044,769.1191,1040,765.1191" style="stroke:#181818;stroke-width:1.0;"/><line style="stroke:#181818;stroke-width:1.0;stroke-dasharray:2.0,2.0;" x1="1038" x2="1368" y1="765.1191" y2="765.1191"/><text fill="#000000" font-family="sans-serif" font-size="13" font-weight="bold" lengthAdjust="spacing" textLength="39" x="1050" y="760.377">27.20</text><text fill="#000000" font-family="sans-serif" font-size="13" lengthAdjust="spacing" textLength="76" x="1093" y="760.377">collaborator</text><polygon fill="#181818" points="276,790.4297,266,794.4297,276,798.4297,272,794.4297" style="stroke:#181818;stroke-width:1.0;"/><line style="stroke:#181818;stroke-width:1.0;stroke-dasharray:2.0,2.0;" x1="270" x2="1027" y1="794.4297" y2="794.4297"/><text fill="#000000" font-family="sans-serif" font-size="13" font-weight="bold" lengthAdjust="spacing" textLength="39" x="282" y="789.6875">27.21</text><text fill="#000000" font-family="sans-serif" font-size="13" lengthAdjust="spacing" textLength="76" x="325" y="789.6875">collaborator</text><polygon fill="#181818" points="11,826.7402,1,830.7402,11,834.7402,7,830.7402" style="stroke:#181818;stroke-width:1.0;"/><line style="stroke:#181818;stroke-width:1.0;stroke-dasharray:2.0,2.0;" x1="5" x2="259" y1="830.7402" y2="830.7402"/><text fill="#000000" font-family="sans-serif" font-size="13" font-weight="bold" lengthAdjust="spacing" textLength="18" x="17" y="825.998">28</text><text fill="#000000" font-family="sans-serif" font-size="13" lengthAdjust="spacing" textLength="76" x="39" y="825.998">collaborator</text><!--SRC=[hLPDR-CW4BtpAr1FYRJPghrq5QrMwkPKALfLJO-zK9jrK31OGBRAlo-6jGqsnDWrDyFCcpSVF2DFX5L8e1AMdF7iA7Y9eH9d36HxKg7iX0fyK1UAeS2PGgoWhe4yefn_45R0luXA383ULYGZ5M8AtcmVfIG5Evm8fNB7cHASKYnk899mz_goxrc_u8fBehWWM1gRTkDo87LWnPdl8XoFDpO4UDu_lleUikRIuMxVBBjkn_Zrzdo8J2U1thb0-iX3sWKFRBR1epYkJiPr6M00WCww6kVo7Gju_m0slqn1uLORjYLVkOXF-HzZlUwvVh_J6vaY_v32jYbGhqBmSmLj-smrLd9jJkfbGdKX2wmEcEhfmBbjzPv8jUhCw-M7y8uQj5xHfmBtU-PPzR4t7NivYE1vvZWQ8M8sp31SCxUVlozDVo9DWrVMIEGOay3jiiIUcDGNFSEhzIXM6pfqLKUzwnLYqNHd2zqBFWhdz60MdQOmjMeCMzH1JgcBKQ2aGfYetO24LMPA3T92jtCPZBVmfFhJ6ivm581oNi6F8z6_fFy_dPJoHlBhPLxh0Ihn5rECffb6jK_NteTOV-fVzgqjH2guArQJs66Mc_9_hUJX8GSpMK-u7Dsypw0mgl1Bwkiy8Lj0I-Tgw0BQcIXSLYVRh2RgPB8-ZkfYxA7rBV2YI4XwgXgcwTbLcePUyy2QGJEDt7NrIhf-a_Lg8UKPLnnWETIwQ9xCzjDzOFymEpytcs1aC52LJm00]--></g></svg>