<?xml version="1.0" encoding="us-ascii" standalone="no"?><svg xmlns="http://www.w3.org/2000/svg" xmlns:xlink="http://www.w3.org/1999/xlink" contentStyleType="text/css" height="943px" preserveAspectRatio="none" style="width:1486px;height:943px;background:#FFFFFF;" version="1.1" viewBox="0 0 1486 943" width="1486px" zoomAndPan="magnify"><defs/><g><rect fill="#FFFFFF" height="788.7637" style="stroke:#181818;stroke-width:1.0;" width="10" x="255" y="84.2871"/><rect fill="#FFFFFF" height="105.9316" style="stroke:#181818;stroke-width:1.0;" width="10" x="260" y="145.9082"/><rect fill="#FFFFFF" height="306.1055" style="stroke:#181818;stroke-width:1.0;" width="10" x="260" y="289.1504"/><rect fill="#FFFFFF" height="29.3105" style="stroke:#181818;stroke-width:1.0;" width="10" x="633" y="323.4609"/><rect fill="#FFFFFF" height="29.3105" style="stroke:#181818;stroke-width:1.0;" width="10" x="633" y="631.5664"/><rect fill="#FFFFFF" height="29.3105" style="stroke:#181818;stroke-width:1.0;" width="10" x="746" y="382.082"/><rect fill="#FFFFFF" height="29.3105" style="stroke:#181818;stroke-width:1.0;" width="10" x="746" y="690.1875"/><rect fill="#FFFFFF" height="71.6211" style="stroke:#181818;stroke-width:1.0;" width="10" x="866.5" y="180.2188"/><rect fill="#FFFFFF" height="119.2422" style="stroke:#181818;stroke-width:1.0;" width="10" x="1061.5" y="440.7031"/><rect fill="#FFFFFF" height="87.9316" style="stroke:#181818;stroke-width:1.0;" width="10" x="1061.5" y="748.8086"/><rect fill="#FFFFFF" height="29.3105" style="stroke:#181818;stroke-width:1.0;" width="10" x="1402.5" y="494.3242"/><rect fill="#FFFFFF" height="29.3105" style="stroke:#181818;stroke-width:1.0;" width="10" x="1402.5" y="778.1191"/><rect fill="none" height="745.4531" style="stroke:#000000;stroke-width:1.5;" width="1314.5" x="165.5" y="99.2871"/><rect fill="none" height="75.9316" style="stroke:#000000;stroke-width:1.5;" width="501" x="969" y="455.7031"/><line style="stroke:#181818;stroke-width:0.5;stroke-dasharray:5.0,5.0;" x1="259.5" x2="259.5" y1="52.9766" y2="891.0508"/><line style="stroke:#181818;stroke-width:0.5;stroke-dasharray:5.0,5.0;" x1="637.5" x2="637.5" y1="52.9766" y2="891.0508"/><line style="stroke:#181818;stroke-width:0.5;stroke-dasharray:5.0,5.0;" x1="750.5" x2="750.5" y1="52.9766" y2="891.0508"/><line style="stroke:#181818;stroke-width:0.5;stroke-dasharray:5.0,5.0;" x1="871.5" x2="871.5" y1="52.9766" y2="891.0508"/><line style="stroke:#181818;stroke-width:0.5;stroke-dasharray:5.0,5.0;" x1="1066" x2="1066" y1="52.9766" y2="891.0508"/><line style="stroke:#181818;stroke-width:0.5;stroke-dasharray:5.0,5.0;" x1="1407" x2="1407" y1="52.9766" y2="891.0508"/><rect fill="#E3E3E3" height="30.4883" rx="2.5" ry="2.5" style="stroke:#181818;stroke-width:0.5;" width="169" x="175.5" y="21.4883"/><text fill="#000000" font-family="sans-serif" font-size="14" lengthAdjust="spacing" textLength="155" x="182.5" y="42.0234">:AssignSkillsController</text><rect fill="#E3E3E3" height="30.4883" rx="2.5" ry="2.5" style="stroke:#181818;stroke-width:0.5;" width="169" x="175.5" y="890.0508"/><text fill="#000000" font-family="sans-serif" font-size="14" lengthAdjust="spacing" textLength="155" x="182.5" y="910.5859">:AssignSkillsController</text><rect fill="#E3E3E3" height="30.4883" rx="2.5" ry="2.5" style="stroke:#181818;stroke-width:0.5;" width="103" x="586.5" y="21.4883"/><text fill="#000000" font-family="sans-serif" font-size="14" lengthAdjust="spacing" textLength="89" x="593.5" y="42.0234">:Repositories</text><rect fill="#E3E3E3" height="30.4883" rx="2.5" ry="2.5" style="stroke:#181818;stroke-width:0.5;" width="103" x="586.5" y="890.0508"/><text fill="#000000" font-family="sans-serif" font-size="14" lengthAdjust="spacing" textLength="89" x="593.5" y="910.5859">:Repositories</text><rect fill="#E3E3E3" height="46.9766" rx="2.5" ry="2.5" style="stroke:#181818;stroke-width:0.5;" width="103" x="699.5" y="5"/><text fill="#000000" font-family="sans-serif" font-size="14" lengthAdjust="spacing" textLength="82" x="710" y="25.5352">repositories</text><text fill="#000000" font-family="sans-serif" font-size="14" lengthAdjust="spacing" textLength="89" x="706.5" y="42.0234">:Repositories</text><rect fill="#E3E3E3" height="46.9766" rx="2.5" ry="2.5" style="stroke:#181818;stroke-width:0.5;" width="103" x="699.5" y="890.0508"/><text fill="#000000" font-family="sans-serif" font-size="14" lengthAdjust="spacing" textLength="82" x="710" y="910.5859">repositories</text><text fill="#000000" font-family="sans-serif" font-size="14" lengthAdjust="spacing" textLength="89" x="706.5" y="927.0742">:Repositories</text><rect fill="#E3E3E3" height="46.9766" rx="2.5" ry="2.5" style="stroke:#181818;stroke-width:0.5;" width="118" x="812.5" y="5"/><text fill="#000000" font-family="sans-serif" font-size="14" lengthAdjust="spacing" textLength="104" x="819.5" y="25.5352">skillRepository:</text><text fill="#000000" font-family="sans-serif" font-size="14" lengthAdjust="spacing" textLength="101" x="821" y="42.0234">SkillRepository</text><rect fill="#E3E3E3" height="46.9766" rx="2.5" ry="2.5" style="stroke:#181818;stroke-width:0.5;" width="118" x="812.5" y="890.0508"/><text fill="#000000" font-family="sans-serif" font-size="14" lengthAdjust="spacing" textLength="104" x="819.5" y="910.5859">skillRepository:</text><text fill="#000000" font-family="sans-serif" font-size="14" lengthAdjust="spacing" textLength="101" x="821" y="927.0742">SkillRepository</text><rect fill="#E3E3E3" height="46.9766" rx="2.5" ry="2.5" style="stroke:#181818;stroke-width:0.5;" width="175" x="979" y="5"/><text fill="#000000" font-family="sans-serif" font-size="14" lengthAdjust="spacing" textLength="161" x="986" y="25.5352">collaboratorRepository:</text><text fill="#000000" font-family="sans-serif" font-size="14" lengthAdjust="spacing" textLength="160" x="986.5" y="42.0234">CollaboratorRepository</text><rect fill="#E3E3E3" height="46.9766" rx="2.5" ry="2.5" style="stroke:#181818;stroke-width:0.5;" width="175" x="979" y="890.0508"/><text fill="#000000" font-family="sans-serif" font-size="14" lengthAdjust="spacing" textLength="161" x="986" y="910.5859">collaboratorRepository:</text><text fill="#000000" font-family="sans-serif" font-size="14" lengthAdjust="spacing" textLength="160" x="986.5" y="927.0742">CollaboratorRepository</text><rect fill="#E3E3E3" height="46.9766" rx="2.5" ry="2.5" style="stroke:#181818;stroke-width:0.5;" width="105" x="1355" y="5"/><text fill="#000000" font-family="sans-serif" font-size="14" lengthAdjust="spacing" textLength="84" x="1365.5" y="25.5352">collaborator</text><text fill="#000000" font-family="sans-serif" font-size="14" lengthAdjust="spacing" textLength="91" x="1362" y="42.0234">:Collaborator</text><rect fill="#E3E3E3" height="46.9766" rx="2.5" ry="2.5" style="stroke:#181818;stroke-width:0.5;" width="105" x="1355" y="890.0508"/><text fill="#000000" font-family="sans-serif" font-size="14" lengthAdjust="spacing" textLength="84" x="1365.5" y="910.5859">collaborator</text><text fill="#000000" font-family="sans-serif" font-size="14" lengthAdjust="spacing" textLength="91" x="1362" y="927.0742">:Collaborator</text><rect fill="#FFFFFF" height="788.7637" style="stroke:#181818;stroke-width:1.0;" width="10" x="255" y="84.2871"/><rect fill="#FFFFFF" height="105.9316" style="stroke:#181818;stroke-width:1.0;" width="10" x="260" y="145.9082"/><rect fill="#FFFFFF" height="306.1055" style="stroke:#181818;stroke-width:1.0;" width="10" x="260" y="289.1504"/><rect fill="#FFFFFF" height="29.3105" style="stroke:#181818;stroke-width:1.0;" width="10" x="633" y="323.4609"/><rect fill="#FFFFFF" height="29.3105" style="stroke:#181818;stroke-width:1.0;" width="10" x="633" y="631.5664"/><rect fill="#FFFFFF" height="29.3105" style="stroke:#181818;stroke-width:1.0;" width="10" x="746" y="382.082"/><rect fill="#FFFFFF" height="29.3105" style="stroke:#181818;stroke-width:1.0;" width="10" x="746" y="690.1875"/><rect fill="#FFFFFF" height="71.6211" style="stroke:#181818;stroke-width:1.0;" width="10" x="866.5" y="180.2188"/><rect fill="#FFFFFF" height="119.2422" style="stroke:#181818;stroke-width:1.0;" width="10" x="1061.5" y="440.7031"/><rect fill="#FFFFFF" height="87.9316" style="stroke:#181818;stroke-width:1.0;" width="10" x="1061.5" y="748.8086"/><rect fill="#FFFFFF" height="29.3105" style="stroke:#181818;stroke-width:1.0;" width="10" x="1402.5" y="494.3242"/><rect fill="#FFFFFF" height="29.3105" style="stroke:#181818;stroke-width:1.0;" width="10" x="1402.5" y="778.1191"/><polygon fill="#181818" points="243,80.2871,253,84.2871,243,88.2871,247,84.2871" style="stroke:#181818;stroke-width:1.0;"/><line style="stroke:#181818;stroke-width:1.0;" x1="0" x2="249" y1="84.2871" y2="84.2871"/><text fill="#000000" font-family="sans-serif" font-size="13" font-weight="bold" lengthAdjust="spacing" textLength="18" x="7" y="79.5449">27</text><text fill="#000000" font-family="sans-serif" font-size="13" lengthAdjust="spacing" textLength="214" x="29" y="79.5449">assignSkill(collaboratorIdNumber)</text><path d="M165.5,99.2871 L304.5,99.2871 L304.5,106.5977 L294.5,116.5977 L165.5,116.5977 L165.5,99.2871 " fill="#EEEEEE" style="stroke:#000000;stroke-width:1.5;"/><rect fill="none" height="745.4531" style="stroke:#000000;stroke-width:1.5;" width="1314.5" x="165.5" y="99.2871"/><text fill="#000000" font-family="sans-serif" font-size="13" font-weight="bold" lengthAdjust="spacing" textLength="94" x="180.5" y="112.8555">Assign Skill(s)</text><line style="stroke:#181818;stroke-width:1.0;" x1="265" x2="312" y1="132.9082" y2="132.9082"/><line style="stroke:#181818;stroke-width:1.0;" x1="312" x2="312" y1="132.9082" y2="145.9082"/><line style="stroke:#181818;stroke-width:1.0;" x1="271" x2="312" y1="145.9082" y2="145.9082"/><polygon fill="#181818" points="281,141.9082,271,145.9082,281,149.9082,277,145.9082" style="stroke:#181818;stroke-width:1.0;"/><text fill="#000000" font-family="sans-serif" font-size="13" font-weight="bold" lengthAdjust="spacing" textLength="30" x="277" y="128.166">27.1</text><text fill="#000000" font-family="sans-serif" font-size="13" lengthAdjust="spacing" textLength="137" x="311" y="128.166">getSelectedSkillsList()</text><polygon fill="#181818" points="854.5,176.2188,864.5,180.2188,854.5,184.2188,858.5,180.2188" style="stroke:#181818;stroke-width:1.0;"/><line style="stroke:#181818;stroke-width:1.0;" x1="270" x2="860.5" y1="180.2188" y2="180.2188"/><text fill="#000000" font-family="sans-serif" font-size="13" font-weight="bold" lengthAdjust="spacing" textLength="30" x="277" y="175.4766">27.2</text><text fill="#000000" font-family="sans-serif" font-size="13" lengthAdjust="spacing" textLength="137" x="311" y="175.4766">getSelectedSkillsList()</text><line style="stroke:#181818;stroke-width:1.0;" x1="876.5" x2="918.5" y1="209.5293" y2="209.5293"/><line style="stroke:#181818;stroke-width:1.0;" x1="918.5" x2="918.5" y1="209.5293" y2="222.5293"/><line style="stroke:#181818;stroke-width:1.0;" x1="877.5" x2="918.5" y1="222.5293" y2="222.5293"/><polygon fill="#181818" points="887.5,218.5293,877.5,222.5293,887.5,226.5293,883.5,222.5293" style="stroke:#181818;stroke-width:1.0;"/><text fill="#000000" font-family="sans-serif" font-size="13" font-weight="bold" lengthAdjust="spacing" textLength="30" x="883.5" y="204.7871">27.3</text><text fill="#000000" font-family="sans-serif" font-size="13" lengthAdjust="spacing" textLength="137" x="917.5" y="204.7871">getSelectedSkillsList()</text><polygon fill="#181818" points="276,247.8398,266,251.8398,276,255.8398,272,251.8398" style="stroke:#181818;stroke-width:1.0;"/><line style="stroke:#181818;stroke-width:1.0;stroke-dasharray:2.0,2.0;" x1="270" x2="870.5" y1="251.8398" y2="251.8398"/><text fill="#000000" font-family="sans-serif" font-size="13" font-weight="bold" lengthAdjust="spacing" textLength="30" x="282" y="247.0977">27.4</text><text fill="#000000" font-family="sans-serif" font-size="13" lengthAdjust="spacing" textLength="109" x="316" y="247.0977">selectedSkillsList</text><line style="stroke:#181818;stroke-width:1.0;" x1="265" x2="312" y1="276.1504" y2="276.1504"/><line style="stroke:#181818;stroke-width:1.0;" x1="312" x2="312" y1="276.1504" y2="289.1504"/><line style="stroke:#181818;stroke-width:1.0;" x1="271" x2="312" y1="289.1504" y2="289.1504"/><polygon fill="#181818" points="281,285.1504,271,289.1504,281,293.1504,277,289.1504" style="stroke:#181818;stroke-width:1.0;"/><text fill="#000000" font-family="sans-serif" font-size="13" font-weight="bold" lengthAdjust="spacing" textLength="30" x="277" y="271.4082">27.5</text><text fill="#000000" font-family="sans-serif" font-size="13" lengthAdjust="spacing" textLength="320" x="311" y="271.4082">getCollaboratorByIdNumber(collaboratorIdNumber)</text><polygon fill="#181818" points="621,319.4609,631,323.4609,621,327.4609,625,323.4609" style="stroke:#181818;stroke-width:1.0;"/><line style="stroke:#181818;stroke-width:1.0;" x1="270" x2="627" y1="323.4609" y2="323.4609"/><text fill="#000000" font-family="sans-serif" font-size="13" font-weight="bold" lengthAdjust="spacing" textLength="30" x="277" y="318.7188">27.6</text><text fill="#000000" font-family="sans-serif" font-size="13" lengthAdjust="spacing" textLength="81" x="311" y="318.7188">getInstance()</text><polygon fill="#181818" points="281,348.7715,271,352.7715,281,356.7715,277,352.7715" style="stroke:#181818;stroke-width:1.0;"/><line style="stroke:#181818;stroke-width:1.0;stroke-dasharray:2.0,2.0;" x1="275" x2="637" y1="352.7715" y2="352.7715"/><text fill="#000000" font-family="sans-serif" font-size="13" font-weight="bold" lengthAdjust="spacing" textLength="30" x="287" y="348.0293">27.7</text><text fill="#000000" font-family="sans-serif" font-size="13" lengthAdjust="spacing" textLength="75" x="321" y="348.0293">repositories</text><polygon fill="#181818" points="734,378.082,744,382.082,734,386.082,738,382.082" style="stroke:#181818;stroke-width:1.0;"/><line style="stroke:#181818;stroke-width:1.0;" x1="270" x2="740" y1="382.082" y2="382.082"/><text fill="#000000" font-family="sans-serif" font-size="13" font-weight="bold" lengthAdjust="spacing" textLength="30" x="277" y="377.3398">27.8</text><text fill="#000000" font-family="sans-serif" font-size="13" lengthAdjust="spacing" textLength="173" x="311" y="377.3398">getCollaboratorRepository()</text><polygon fill="#181818" points="281,407.3926,271,411.3926,281,415.3926,277,411.3926" style="stroke:#181818;stroke-width:1.0;"/><line style="stroke:#181818;stroke-width:1.0;" x1="275" x2="750" y1="411.3926" y2="411.3926"/><text fill="#000000" font-family="sans-serif" font-size="13" font-weight="bold" lengthAdjust="spacing" textLength="30" x="287" y="406.6504">27.9</text><text fill="#000000" font-family="sans-serif" font-size="13" lengthAdjust="spacing" textLength="143" x="321" y="406.6504">collaboratorRepository</text><polygon fill="#181818" points="1049.5,436.7031,1059.5,440.7031,1049.5,444.7031,1053.5,440.7031" style="stroke:#181818;stroke-width:1.0;"/><line style="stroke:#181818;stroke-width:1.0;" x1="270" x2="1055.5" y1="440.7031" y2="440.7031"/><text fill="#000000" font-family="sans-serif" font-size="13" font-weight="bold" lengthAdjust="spacing" textLength="39" x="277" y="435.9609">27.10</text><text fill="#000000" font-family="sans-serif" font-size="13" lengthAdjust="spacing" textLength="320" x="320" y="435.9609">getCollaboratorByIdNumber(collaboratorIdNumber)</text><path d="M969,455.7031 L1043,455.7031 L1043,463.0137 L1033,473.0137 L969,473.0137 L969,455.7031 " fill="#EEEEEE" style="stroke:#000000;stroke-width:1.5;"/><rect fill="none" height="75.9316" style="stroke:#000000;stroke-width:1.5;" width="501" x="969" y="455.7031"/><text fill="#000000" font-family="sans-serif" font-size="13" font-weight="bold" lengthAdjust="spacing" textLength="29" x="984" y="469.2715">loop</text><text fill="#000000" font-family="sans-serif" font-size="11" font-weight="bold" lengthAdjust="spacing" textLength="69" x="1058" y="468.3379">[while false]</text><polygon fill="#181818" points="1390.5,490.3242,1400.5,494.3242,1390.5,498.3242,1394.5,494.3242" style="stroke:#181818;stroke-width:1.0;"/><line style="stroke:#181818;stroke-width:1.0;" x1="1071.5" x2="1396.5" y1="494.3242" y2="494.3242"/><text fill="#000000" font-family="sans-serif" font-size="13" font-weight="bold" lengthAdjust="spacing" textLength="39" x="1078.5" y="489.582">27.11</text><text fill="#000000" font-family="sans-serif" font-size="13" lengthAdjust="spacing" textLength="241" x="1121.5" y="489.582">sameIdNumber(collaboratorIdNumber)</text><polygon fill="#181818" points="1082.5,519.6348,1072.5,523.6348,1082.5,527.6348,1078.5,523.6348" style="stroke:#181818;stroke-width:1.0;"/><line style="stroke:#181818;stroke-width:1.0;stroke-dasharray:2.0,2.0;" x1="1076.5" x2="1406.5" y1="523.6348" y2="523.6348"/><text fill="#000000" font-family="sans-serif" font-size="13" font-weight="bold" lengthAdjust="spacing" textLength="39" x="1088.5" y="518.8926">27.12</text><text fill="#000000" font-family="sans-serif" font-size="13" lengthAdjust="spacing" textLength="62" x="1131.5" y="518.8926">true/false</text><polygon fill="#181818" points="281,555.9453,271,559.9453,281,563.9453,277,559.9453" style="stroke:#181818;stroke-width:1.0;"/><line style="stroke:#181818;stroke-width:1.0;stroke-dasharray:2.0,2.0;" x1="275" x2="1065.5" y1="559.9453" y2="559.9453"/><text fill="#000000" font-family="sans-serif" font-size="13" font-weight="bold" lengthAdjust="spacing" textLength="39" x="287" y="555.2031">27.13</text><text fill="#000000" font-family="sans-serif" font-size="13" lengthAdjust="spacing" textLength="76" x="330" y="555.2031">collaborator</text><line style="stroke:#181818;stroke-width:1.0;stroke-dasharray:2.0,2.0;" x1="270" x2="312" y1="594.2559" y2="594.2559"/><line style="stroke:#181818;stroke-width:1.0;stroke-dasharray:2.0,2.0;" x1="312" x2="312" y1="594.2559" y2="607.2559"/><line style="stroke:#181818;stroke-width:1.0;stroke-dasharray:2.0,2.0;" x1="265" x2="312" y1="607.2559" y2="607.2559"/><polygon fill="#181818" points="275,603.2559,265,607.2559,275,611.2559,271,607.2559" style="stroke:#181818;stroke-width:1.0;"/><text fill="#000000" font-family="sans-serif" font-size="13" font-weight="bold" lengthAdjust="spacing" textLength="39" x="277" y="589.5137">27.14</text><text fill="#000000" font-family="sans-serif" font-size="13" lengthAdjust="spacing" textLength="76" x="320" y="589.5137">collaborator</text><polygon fill="#181818" points="621,627.5664,631,631.5664,621,635.5664,625,631.5664" style="stroke:#181818;stroke-width:1.0;"/><line style="stroke:#181818;stroke-width:1.0;" x1="265" x2="627" y1="631.5664" y2="631.5664"/><text fill="#000000" font-family="sans-serif" font-size="13" font-weight="bold" lengthAdjust="spacing" textLength="39" x="272" y="626.8242">27.15</text><text fill="#000000" font-family="sans-serif" font-size="13" lengthAdjust="spacing" textLength="81" x="315" y="626.8242">getInstance()</text><polygon fill="#181818" points="276,656.877,266,660.877,276,664.877,272,660.877" style="stroke:#181818;stroke-width:1.0;"/><line style="stroke:#181818;stroke-width:1.0;stroke-dasharray:2.0,2.0;" x1="270" x2="637" y1="660.877" y2="660.877"/><text fill="#000000" font-family="sans-serif" font-size="13" font-weight="bold" lengthAdjust="spacing" textLength="39" x="282" y="656.1348">27.16</text><text fill="#000000" font-family="sans-serif" font-size="13" lengthAdjust="spacing" textLength="75" x="325" y="656.1348">repositories</text><polygon fill="#181818" points="734,686.1875,744,690.1875,734,694.1875,738,690.1875" style="stroke:#181818;stroke-width:1.0;"/><line style="stroke:#181818;stroke-width:1.0;" x1="265" x2="740" y1="690.1875" y2="690.1875"/><text fill="#000000" font-family="sans-serif" font-size="13" font-weight="bold" lengthAdjust="spacing" textLength="39" x="272" y="685.4453">27.17</text><text fill="#000000" font-family="sans-serif" font-size="13" lengthAdjust="spacing" textLength="173" x="315" y="685.4453">getCollaboratorRepository()</text><polygon fill="#181818" points="276,715.498,266,719.498,276,723.498,272,719.498" style="stroke:#181818;stroke-width:1.0;"/><line style="stroke:#181818;stroke-width:1.0;stroke-dasharray:2.0,2.0;" x1="270" x2="750" y1="719.498" y2="719.498"/><text fill="#000000" font-family="sans-serif" font-size="13" font-weight="bold" lengthAdjust="spacing" textLength="39" x="282" y="714.7559">27.18</text><text fill="#000000" font-family="sans-serif" font-size="13" lengthAdjust="spacing" textLength="143" x="325" y="714.7559">collaboratorRepository</text><polygon fill="#181818" points="1049.5,744.8086,1059.5,748.8086,1049.5,752.8086,1053.5,748.8086" style="stroke:#181818;stroke-width:1.0;"/><line style="stroke:#181818;stroke-width:1.0;" x1="265" x2="1055.5" y1="748.8086" y2="748.8086"/><text fill="#000000" font-family="sans-serif" font-size="13" font-weight="bold" lengthAdjust="spacing" textLength="39" x="272" y="744.0664">27.19</text><text fill="#000000" font-family="sans-serif" font-size="13" lengthAdjust="spacing" textLength="269" x="315" y="744.0664">assignSkill(collaborator, selectedSkillsList)</text><polygon fill="#181818" points="1390.5,774.1191,1400.5,778.1191,1390.5,782.1191,1394.5,778.1191" style="stroke:#181818;stroke-width:1.0;"/><line style="stroke:#181818;stroke-width:1.0;" x1="1071.5" x2="1396.5" y1="778.1191" y2="778.1191"/><text fill="#000000" font-family="sans-serif" font-size="13" font-weight="bold" lengthAdjust="spacing" textLength="39" x="1078.5" y="773.377">27.20</text><text fill="#000000" font-family="sans-serif" font-size="13" lengthAdjust="spacing" textLength="269" x="1121.5" y="773.377">assignSkill(collaborator, skillsSelectedList)</text><polygon fill="#181818" points="1082.5,803.4297,1072.5,807.4297,1082.5,811.4297,1078.5,807.4297" style="stroke:#181818;stroke-width:1.0;"/><line style="stroke:#181818;stroke-width:1.0;stroke-dasharray:2.0,2.0;" x1="1076.5" x2="1406.5" y1="807.4297" y2="807.4297"/><text fill="#000000" font-family="sans-serif" font-size="13" font-weight="bold" lengthAdjust="spacing" textLength="39" x="1088.5" y="802.6875">27.21</text><text fill="#000000" font-family="sans-serif" font-size="13" lengthAdjust="spacing" textLength="76" x="1131.5" y="802.6875">collaborator</text><polygon fill="#181818" points="276,832.7402,266,836.7402,276,840.7402,272,836.7402" style="stroke:#181818;stroke-width:1.0;"/><line style="stroke:#181818;stroke-width:1.0;stroke-dasharray:2.0,2.0;" x1="270" x2="1065.5" y1="836.7402" y2="836.7402"/><text fill="#000000" font-family="sans-serif" font-size="13" font-weight="bold" lengthAdjust="spacing" textLength="39" x="282" y="831.998">27.22</text><text fill="#000000" font-family="sans-serif" font-size="13" lengthAdjust="spacing" textLength="76" x="325" y="831.998">collaborator</text><polygon fill="#181818" points="11,869.0508,1,873.0508,11,877.0508,7,873.0508" style="stroke:#181818;stroke-width:1.0;"/><line style="stroke:#181818;stroke-width:1.0;stroke-dasharray:2.0,2.0;" x1="5" x2="259" y1="873.0508" y2="873.0508"/><text fill="#000000" font-family="sans-serif" font-size="13" font-weight="bold" lengthAdjust="spacing" textLength="18" x="17" y="868.3086">28</text><text fill="#000000" font-family="sans-serif" font-size="13" lengthAdjust="spacing" textLength="76" x="39" y="868.3086">collaborator</text><!--SRC=[hLRBRkCW5Dtp5QYhH9fCrMuwYaOZTRAg58sgfijkgCquA3POGARAtvV7s0OROkoQdU7USyzzS8mu4LeZZYfOCSgo8sSLXfAVCH3jIOso4ohmGLvA33dE9A95wHg88yhP1w45_8jAWG5Gsv9af4PKmfljen2ae8SJAKknOrHoLfQOtq0auExrPT-pVi4r4qGoJh0mDkt6vK1qOCcexy8TZpSw17ZUFxxw7a9pwN2tRvPTjsFyUdi-HAQIGE-C8tNa8Us21pRRu54SLoNZkWmm041dLOrpzOuvl7y0cr-ce72h3DkIhrp4f_oFiLxtNB_VgOrCadz8OjiKg5R1sRc6jdss6YknDYTwcL1To0BB0oxLTE3SjdfFX5nrvdhv8RoZ1grNzAd0_PvvLdtisU46G5qPnC3Nyynnb6h4R5YgSF7TmVXzQHeTwJwyiaOYnvW4hgabzaI5KemChzQZM6teq9qVzTOhnABfpXQwIZ4Av_HW5fscC5f-XYtg8AVKnKXPKY5Cr6v0md8rfGPfeTkv3CPRU5BzQGrdE0fGCbR3ZoDH_xR_Vw-KyaRowsMkzG1L-8ifHjDCezgdQ-z3h3_wttzh2v4AxehL97QOvgRyNojvUCZ1JDOJBaStxpCeZ2hyalewJyWMqDAv6hg0TYOAbzN9Dgk9EfciZwEw67knVGkyA1AIdgg6QNfsbQQXrpoTPj1C8tTTlPAktsIzMaXvnXK7M0vQ5ytRstwwB_KVPkVdPXEC30QgyWa0]--></g></svg>