<?xml version="1.0" encoding="us-ascii" standalone="no"?><svg xmlns="http://www.w3.org/2000/svg" xmlns:xlink="http://www.w3.org/1999/xlink" contentStyleType="text/css" height="1141px" preserveAspectRatio="none" style="width:707px;height:1141px;background:#FFFFFF;" version="1.1" viewBox="0 0 707 1141" width="707px" zoomAndPan="magnify"><defs/><g><!--class Skill--><g id="elem_Skill"><rect codeLine="11" fill="#F1F1F1" height="80.9766" id="Skill" rx="2.5" ry="2.5" style="stroke:#181818;stroke-width:0.5;" width="99" x="53" y="1053.27"/><ellipse cx="85.55" cy="1069.27" fill="#ADD1B2" rx="11" ry="11" style="stroke:#181818;stroke-width:1.0;"/><path d="M88.5231,1074.9131 Q87.9421,1075.2119 87.3029,1075.3613 Q86.6638,1075.5107 85.9582,1075.5107 Q83.4514,1075.5107 82.1315,1073.8589 Q80.8117,1072.207 80.8117,1069.0859 Q80.8117,1065.9565 82.1315,1064.3047 Q83.4514,1062.6528 85.9582,1062.6528 Q86.6638,1062.6528 87.3112,1062.8022 Q87.9587,1062.9516 88.5231,1063.2505 L88.5231,1065.9731 Q87.8923,1065.3921 87.2988,1065.1223 Q86.7053,1064.8525 86.0744,1064.8525 Q84.7297,1064.8525 84.0449,1065.9192 Q83.3601,1066.9858 83.3601,1069.0859 Q83.3601,1071.1777 84.0449,1072.2444 Q84.7297,1073.311 86.0744,1073.311 Q86.7053,1073.311 87.2988,1073.0412 Q87.8923,1072.7715 88.5231,1072.1904 Z " fill="#000000"/><text fill="#000000" font-family="sans-serif" font-size="14" lengthAdjust="spacing" textLength="28" x="103.45" y="1074.561">Skill</text><line style="stroke:#181818;stroke-width:0.5;" x1="54" x2="151" y1="1085.27" y2="1085.27"/><text fill="#000000" font-family="sans-serif" font-size="14" lengthAdjust="spacing" textLength="46" x="59" y="1102.8052">-name</text><line style="stroke:#181818;stroke-width:0.5;" x1="54" x2="151" y1="1109.7583" y2="1109.7583"/><text fill="#000000" font-family="sans-serif" font-size="14" lengthAdjust="spacing" textLength="87" x="59" y="1127.2934">+Skill(name)</text></g><!--class Collaborator--><g id="elem_Collaborator"><rect codeLine="17" fill="#F1F1F1" height="229.3711" id="Collaborator" rx="2.5" ry="2.5" style="stroke:#181818;stroke-width:0.5;" width="556" x="144.5" y="746.9"/><ellipse cx="374.75" cy="762.9" fill="#ADD1B2" rx="11" ry="11" style="stroke:#181818;stroke-width:1.0;"/><path d="M377.7231,768.5431 Q377.1421,768.8419 376.5029,768.9913 Q375.8638,769.1407 375.1582,769.1407 Q372.6514,769.1407 371.3315,767.4889 Q370.0117,765.837 370.0117,762.7159 Q370.0117,759.5865 371.3315,757.9347 Q372.6514,756.2828 375.1582,756.2828 Q375.8638,756.2828 376.5112,756.4322 Q377.1587,756.5816 377.7231,756.8805 L377.7231,759.6031 Q377.0923,759.0221 376.4988,758.7523 Q375.9053,758.4825 375.2744,758.4825 Q373.9297,758.4825 373.2449,759.5492 Q372.5601,760.6158 372.5601,762.7159 Q372.5601,764.8077 373.2449,765.8744 Q373.9297,766.941 375.2744,766.941 Q375.9053,766.941 376.4988,766.6712 Q377.0923,766.4015 377.7231,765.8204 Z " fill="#000000"/><text fill="#000000" font-family="sans-serif" font-size="14" lengthAdjust="spacing" textLength="87" x="395.25" y="768.191">Collaborator</text><line style="stroke:#181818;stroke-width:0.5;" x1="145.5" x2="699.5" y1="778.9" y2="778.9"/><text fill="#000000" font-family="sans-serif" font-size="14" lengthAdjust="spacing" textLength="46" x="150.5" y="796.4352">-name</text><text fill="#000000" font-family="sans-serif" font-size="14" lengthAdjust="spacing" textLength="71" x="150.5" y="812.9234">-birthdate</text><text fill="#000000" font-family="sans-serif" font-size="14" lengthAdjust="spacing" textLength="109" x="150.5" y="829.4117">-admissionDate</text><text fill="#000000" font-family="sans-serif" font-size="14" lengthAdjust="spacing" textLength="62" x="150.5" y="845.9">-address</text><text fill="#000000" font-family="sans-serif" font-size="14" lengthAdjust="spacing" textLength="107" x="150.5" y="862.3883">-phoneNumber</text><text fill="#000000" font-family="sans-serif" font-size="14" lengthAdjust="spacing" textLength="45" x="150.5" y="878.8766">-email</text><text fill="#000000" font-family="sans-serif" font-size="14" lengthAdjust="spacing" textLength="123" x="150.5" y="895.3648">-taxpayerNumber</text><text fill="#000000" font-family="sans-serif" font-size="14" lengthAdjust="spacing" textLength="201" x="150.5" y="911.8531">-identificationDocumentType</text><text fill="#000000" font-family="sans-serif" font-size="14" lengthAdjust="spacing" textLength="223" x="150.5" y="928.3414">-identificationDocumentNumber</text><line style="stroke:#181818;stroke-width:0.5;" x1="145.5" x2="699.5" y1="935.2945" y2="935.2945"/><text fill="#000000" font-family="sans-serif" font-size="14" lengthAdjust="spacing" textLength="539" x="150.5" y="952.8297">+Collaborator(name, birthdate, admissionDate, address, phoneNumber, email,</text><text fill="#000000" font-family="sans-serif" font-size="14" lengthAdjust="spacing" textLength="544" x="150.5" y="969.318">taxpayerNumber, identificationDocumentType, identificationDocumentNumber)</text></g><!--class AssignSkillsController--><g id="elem_AssignSkillsController"><rect codeLine="31" fill="#F1F1F1" height="97.4648" id="AssignSkillsController" rx="2.5" ry="2.5" style="stroke:#181818;stroke-width:0.5;" width="449" x="54" y="116"/><ellipse cx="198.75" cy="132" fill="#ADD1B2" rx="11" ry="11" style="stroke:#181818;stroke-width:1.0;"/><path d="M201.7231,137.6431 Q201.1421,137.9419 200.5029,138.0913 Q199.8638,138.2407 199.1582,138.2407 Q196.6514,138.2407 195.3315,136.5889 Q194.0117,134.937 194.0117,131.8159 Q194.0117,128.6865 195.3315,127.0347 Q196.6514,125.3828 199.1582,125.3828 Q199.8638,125.3828 200.5112,125.5322 Q201.1587,125.6816 201.7231,125.9805 L201.7231,128.7031 Q201.0923,128.1221 200.4988,127.8523 Q199.9053,127.5825 199.2744,127.5825 Q197.9297,127.5825 197.2449,128.6492 Q196.5601,129.7158 196.5601,131.8159 Q196.5601,133.9077 197.2449,134.9744 Q197.9297,136.041 199.2744,136.041 Q199.9053,136.041 200.4988,135.7712 Q201.0923,135.5015 201.7231,134.9204 Z " fill="#000000"/><text fill="#000000" font-family="sans-serif" font-size="14" lengthAdjust="spacing" textLength="151" x="219.25" y="137.291">AssignSkillsController</text><line style="stroke:#181818;stroke-width:0.5;" x1="55" x2="502" y1="148" y2="148"/><line style="stroke:#181818;stroke-width:0.5;" x1="55" x2="502" y1="156" y2="156"/><text fill="#000000" font-family="sans-serif" font-size="14" lengthAdjust="spacing" textLength="437" x="60" y="173.5352">+AssignSkillsController(collaboratorRepository, skillRepository)</text><text fill="#000000" font-family="sans-serif" font-size="14" lengthAdjust="spacing" textLength="137" x="60" y="190.0234">+getCollaborators()</text><text fill="#000000" font-family="sans-serif" font-size="14" lengthAdjust="spacing" textLength="101" x="60" y="206.5117">+getSkillsList()</text></g><!--class AssignSkillsUI--><g id="elem_AssignSkillsUI"><rect codeLine="37" fill="#F1F1F1" height="48" id="AssignSkillsUI" rx="2.5" ry="2.5" style="stroke:#181818;stroke-width:0.5;" width="127" x="215" y="7"/><ellipse cx="230" cy="23" fill="#ADD1B2" rx="11" ry="11" style="stroke:#181818;stroke-width:1.0;"/><path d="M232.9731,28.6431 Q232.3921,28.9419 231.7529,29.0913 Q231.1138,29.2407 230.4082,29.2407 Q227.9014,29.2407 226.5815,27.5889 Q225.2617,25.937 225.2617,22.8159 Q225.2617,19.6865 226.5815,18.0347 Q227.9014,16.3828 230.4082,16.3828 Q231.1138,16.3828 231.7612,16.5322 Q232.4087,16.6816 232.9731,16.9805 L232.9731,19.7031 Q232.3423,19.1221 231.7488,18.8523 Q231.1553,18.5825 230.5244,18.5825 Q229.1797,18.5825 228.4949,19.6492 Q227.8101,20.7158 227.8101,22.8159 Q227.8101,24.9077 228.4949,25.9744 Q229.1797,27.041 230.5244,27.041 Q231.1553,27.041 231.7488,26.7712 Q232.3423,26.5015 232.9731,25.9204 Z " fill="#000000"/><text fill="#000000" font-family="sans-serif" font-size="14" lengthAdjust="spacing" textLength="95" x="244" y="28.291">AssignSkillsUI</text><line style="stroke:#181818;stroke-width:0.5;" x1="216" x2="341" y1="39" y2="39"/><line style="stroke:#181818;stroke-width:0.5;" x1="216" x2="341" y1="47" y2="47"/></g><!--class Repositories--><g id="elem_Repositories"><rect codeLine="40" fill="#F1F1F1" height="113.9531" id="Repositories" rx="2.5" ry="2.5" style="stroke:#181818;stroke-width:0.5;" width="215" x="171" y="352.46"/><ellipse cx="231.75" cy="368.46" fill="#ADD1B2" rx="11" ry="11" style="stroke:#181818;stroke-width:1.0;"/><path d="M234.7231,374.1031 Q234.1421,374.4019 233.5029,374.5513 Q232.8638,374.7007 232.1582,374.7007 Q229.6514,374.7007 228.3315,373.0489 Q227.0117,371.397 227.0117,368.2759 Q227.0117,365.1465 228.3315,363.4947 Q229.6514,361.8428 232.1582,361.8428 Q232.8638,361.8428 233.5112,361.9922 Q234.1587,362.1416 234.7231,362.4405 L234.7231,365.1631 Q234.0923,364.5821 233.4988,364.3123 Q232.9053,364.0425 232.2744,364.0425 Q230.9297,364.0425 230.2449,365.1092 Q229.5601,366.1758 229.5601,368.2759 Q229.5601,370.3677 230.2449,371.4344 Q230.9297,372.501 232.2744,372.501 Q232.9053,372.501 233.4988,372.2312 Q234.0923,371.9615 234.7231,371.3804 Z " fill="#000000"/><text fill="#000000" font-family="sans-serif" font-size="14" lengthAdjust="spacing" textLength="85" x="252.25" y="373.751">Repositories</text><line style="stroke:#181818;stroke-width:0.5;" x1="172" x2="385" y1="384.46" y2="384.46"/><line style="stroke:#181818;stroke-width:0.5;" x1="172" x2="385" y1="392.46" y2="392.46"/><text fill="#000000" font-family="sans-serif" font-size="14" lengthAdjust="spacing" textLength="103" x="177" y="409.9952">-Repositories()</text><text fill="#000000" font-family="sans-serif" font-size="14" lengthAdjust="spacing" textLength="197" x="177" y="426.4834">+getInstance() : Repositories</text><text fill="#000000" font-family="sans-serif" font-size="14" lengthAdjust="spacing" textLength="144" x="177" y="442.9717">+getSkillRepository()</text><text fill="#000000" font-family="sans-serif" font-size="14" lengthAdjust="spacing" textLength="203" x="177" y="459.46">+getCollaboratorRepository()</text></g><!--class SkillRepository--><g id="elem_SkillRepository"><rect codeLine="47" fill="#F1F1F1" height="64.4883" id="SkillRepository" rx="2.5" ry="2.5" style="stroke:#181818;stroke-width:0.5;" width="133" x="7" y="605.41"/><ellipse cx="22" cy="621.41" fill="#ADD1B2" rx="11" ry="11" style="stroke:#181818;stroke-width:1.0;"/><path d="M24.9731,627.0531 Q24.3921,627.3519 23.7529,627.5013 Q23.1138,627.6507 22.4082,627.6507 Q19.9014,627.6507 18.5815,625.9989 Q17.2617,624.347 17.2617,621.2259 Q17.2617,618.0965 18.5815,616.4447 Q19.9014,614.7928 22.4082,614.7928 Q23.1138,614.7928 23.7612,614.9422 Q24.4087,615.0916 24.9731,615.3905 L24.9731,618.1131 Q24.3423,617.5321 23.7488,617.2623 Q23.1553,616.9925 22.5244,616.9925 Q21.1797,616.9925 20.4949,618.0592 Q19.8101,619.1258 19.8101,621.2259 Q19.8101,623.3177 20.4949,624.3844 Q21.1797,625.451 22.5244,625.451 Q23.1553,625.451 23.7488,625.1812 Q24.3423,624.9115 24.9731,624.3304 Z " fill="#000000"/><text fill="#000000" font-family="sans-serif" font-size="14" lengthAdjust="spacing" textLength="101" x="36" y="626.701">SkillRepository</text><line style="stroke:#181818;stroke-width:0.5;" x1="8" x2="139" y1="637.41" y2="637.41"/><line style="stroke:#181818;stroke-width:0.5;" x1="8" x2="139" y1="645.41" y2="645.41"/><text fill="#000000" font-family="sans-serif" font-size="14" lengthAdjust="spacing" textLength="101" x="13" y="662.9452">+getSkillsList()</text></g><!--class CollaboratorRepository--><g id="elem_CollaboratorRepository"><rect codeLine="51" fill="#F1F1F1" height="64.4883" id="CollaboratorRepository" rx="2.5" ry="2.5" style="stroke:#181818;stroke-width:0.5;" width="192" x="326.5" y="605.41"/><ellipse cx="341.5" cy="621.41" fill="#ADD1B2" rx="11" ry="11" style="stroke:#181818;stroke-width:1.0;"/><path d="M344.4731,627.0531 Q343.8921,627.3519 343.2529,627.5013 Q342.6138,627.6507 341.9082,627.6507 Q339.4014,627.6507 338.0815,625.9989 Q336.7617,624.347 336.7617,621.2259 Q336.7617,618.0965 338.0815,616.4447 Q339.4014,614.7928 341.9082,614.7928 Q342.6138,614.7928 343.2612,614.9422 Q343.9087,615.0916 344.4731,615.3905 L344.4731,618.1131 Q343.8423,617.5321 343.2488,617.2623 Q342.6553,616.9925 342.0244,616.9925 Q340.6797,616.9925 339.9949,618.0592 Q339.3101,619.1258 339.3101,621.2259 Q339.3101,623.3177 339.9949,624.3844 Q340.6797,625.451 342.0244,625.451 Q342.6553,625.451 343.2488,625.1812 Q343.8423,624.9115 344.4731,624.3304 Z " fill="#000000"/><text fill="#000000" font-family="sans-serif" font-size="14" lengthAdjust="spacing" textLength="160" x="355.5" y="626.701">CollaboratorRepository</text><line style="stroke:#181818;stroke-width:0.5;" x1="327.5" x2="517.5" y1="637.41" y2="637.41"/><line style="stroke:#181818;stroke-width:0.5;" x1="327.5" x2="517.5" y1="645.41" y2="645.41"/><text fill="#000000" font-family="sans-serif" font-size="14" lengthAdjust="spacing" textLength="137" x="332.5" y="662.9452">+getCollaborators()</text></g><!--link Collaborator to Skill--><g id="link_Collaborator_Skill"><path codeLine="56" d="M263.91,976.66 C223.36,1005.83 187.5605,1031.5759 157.1905,1053.4259 " fill="none" id="Collaborator-to-Skill" style="stroke:#181818;stroke-width:1.0;"/><polygon fill="#181818" points="152.32,1056.93,161.9617,1054.9208,156.3787,1054.0099,157.2896,1048.4269,152.32,1056.93" style="stroke:#181818;stroke-width:1.0;"/><text fill="#000000" font-family="sans-serif" font-size="13" lengthAdjust="spacing" textLength="22" x="216.5" y="1019.8384">has</text><text fill="#000000" font-family="sans-serif" font-size="13" lengthAdjust="spacing" textLength="8" x="246.0022" y="996.7072">1</text><text fill="#000000" font-family="sans-serif" font-size="13" lengthAdjust="spacing" textLength="6" x="160.0779" y="1048.0104">*</text></g><!--link AssignSkillsUI to AssignSkillsController--><g id="link_AssignSkillsUI_AssignSkillsController"><path codeLine="57" d="M278.5,55.24 C278.5,71.94 278.5,89.03 278.5,109.62 " fill="none" id="AssignSkillsUI-to-AssignSkillsController" style="stroke:#181818;stroke-width:1.0;stroke-dasharray:7.0,7.0;"/><polygon fill="#181818" points="278.5,115.62,282.5,106.62,278.5,110.62,274.5,106.62,278.5,115.62" style="stroke:#181818;stroke-width:1.0;"/></g><!--link AssignSkillsController to Repositories--><g id="link_AssignSkillsController_Repositories"><path codeLine="58" d="M278.5,213.68 C278.5,253.47 278.5,304.12 278.5,346.07 " fill="none" id="AssignSkillsController-to-Repositories" style="stroke:#181818;stroke-width:1.0;stroke-dasharray:7.0,7.0;"/><polygon fill="#181818" points="278.5,352.07,282.5,343.07,278.5,347.07,274.5,343.07,278.5,352.07" style="stroke:#181818;stroke-width:1.0;"/><text fill="#000000" font-family="sans-serif" font-size="13" lengthAdjust="spacing" textLength="75" x="279.5" y="288.0284">repositories</text></g><!--link AssignSkillsController to SkillRepository--><g id="link_AssignSkillsController_SkillRepository"><path codeLine="59" d="M77.95,213.95 C55.49,230.38 40.5,252.42 40.5,281.96 C40.5,281.96 40.5,281.96 40.5,536.91 C40.5,560.63 46.6109,580.4805 54.9909,599.6905 " fill="none" id="AssignSkillsController-to-SkillRepository" style="stroke:#181818;stroke-width:1.0;stroke-dasharray:7.0,7.0;"/><polygon fill="#181818" points="57.39,605.19,57.4578,595.3414,55.3908,600.6071,50.1251,598.5401,57.39,605.19" style="stroke:#181818;stroke-width:1.0;"/><text fill="#000000" font-family="sans-serif" font-size="13" lengthAdjust="spacing" textLength="94" x="41.5" y="414.5084">skillRepository</text></g><!--link AssignSkillsController to CollaboratorRepository--><g id="link_AssignSkillsController_CollaboratorRepository"><path codeLine="60" d="M502.62,213.84 C524.34,230.33 538.5,252.42 538.5,281.96 C538.5,281.96 538.5,281.96 538.5,536.91 C538.5,566.26 521.8992,585.5572 497.3292,601.7572 " fill="none" id="AssignSkillsController-to-CollaboratorRepository" style="stroke:#181818;stroke-width:1.0;stroke-dasharray:7.0,7.0;"/><polygon fill="#181818" points="492.32,605.06,502.0356,603.4453,496.4943,602.3077,497.6319,596.7664,492.32,605.06" style="stroke:#181818;stroke-width:1.0;"/><text fill="#000000" font-family="sans-serif" font-size="13" lengthAdjust="spacing" textLength="143" x="539.5" y="414.5084">collaboratorRepository</text></g><!--link Repositories to Repositories--><g id="link_Repositories_Repositories"><path codeLine="62" d="M386.31,393.85 C406.65,395.74 421,400.94 421,409.44 C421,417.94 412.624,422.572 392.284,424.472 " fill="none" id="Repositories-to-Repositories" style="stroke:#181818;stroke-width:1.0;"/><polygon fill="#181818" points="386.31,425.03,395.643,428.1756,391.2883,424.565,394.899,420.2103,386.31,425.03" style="stroke:#181818;stroke-width:1.0;"/><text fill="#000000" font-family="sans-serif" font-size="13" lengthAdjust="spacing" textLength="53" x="427" y="414.5084">instance</text></g><!--link Repositories to SkillRepository--><g id="link_Repositories_SkillRepository"><path codeLine="63" d="M227.56,466.65 C187.96,510.35 138.4893,564.9442 106.0793,600.7042 " fill="none" id="Repositories-to-SkillRepository" style="stroke:#181818;stroke-width:1.0;"/><polygon fill="#181818" points="102.05,605.15,111.0578,601.1675,105.4077,601.4452,105.1301,595.7952,102.05,605.15" style="stroke:#181818;stroke-width:1.0;"/><text fill="#000000" font-family="sans-serif" font-size="13" lengthAdjust="spacing" textLength="94" x="170.5" y="540.9784">skillRepository</text><text fill="#000000" font-family="sans-serif" font-size="13" lengthAdjust="spacing" textLength="8" x="99.1134" y="594.4995">1</text></g><!--link Repositories to CollaboratorRepository--><g id="link_Repositories_CollaboratorRepository"><path codeLine="64" d="M314.28,466.65 C342.1,510.35 376.4584,564.3283 399.2184,600.0883 " fill="none" id="Repositories-to-CollaboratorRepository" style="stroke:#181818;stroke-width:1.0;"/><polygon fill="#181818" points="402.44,605.15,400.9821,595.4097,399.7553,600.9319,394.2331,599.7051,402.44,605.15" style="stroke:#181818;stroke-width:1.0;"/><text fill="#000000" font-family="sans-serif" font-size="13" lengthAdjust="spacing" textLength="143" x="362.5" y="540.9784">collaboratorRepository</text><text fill="#000000" font-family="sans-serif" font-size="13" lengthAdjust="spacing" textLength="8" x="389.4776" y="594.4995">1</text></g><!--link SkillRepository to Skill--><g id="link_SkillRepository_Skill"><path codeLine="66" d="M74.76,670.34 C77.23,730.17 83.2,863.88 91.5,976.27 C93.38,1001.8 95.4825,1024.4498 97.7325,1046.9298 " fill="none" id="SkillRepository-to-Skill" style="stroke:#181818;stroke-width:1.0;"/><polygon fill="#181818" points="98.33,1052.9,101.4138,1043.5464,97.832,1047.9249,93.4536,1044.3431,98.33,1052.9" style="stroke:#181818;stroke-width:1.0;"/><text fill="#000000" font-family="sans-serif" font-size="13" lengthAdjust="spacing" textLength="34" x="92.5" y="866.6584">skills</text></g><!--link CollaboratorRepository to Collaborator--><g id="link_CollaboratorRepository_Collaborator"><path codeLine="67" d="M422.5,669.98 C422.5,690.42 422.5,712.46 422.5,740.75 " fill="none" id="CollaboratorRepository-to-Collaborator" style="stroke:#181818;stroke-width:1.0;"/><polygon fill="#181818" points="422.5,746.75,426.5,737.75,422.5,741.75,418.5,737.75,422.5,746.75" style="stroke:#181818;stroke-width:1.0;"/><text fill="#000000" font-family="sans-serif" font-size="13" lengthAdjust="spacing" textLength="83" x="423.5" y="713.4684">collaborators</text></g><!--SRC=[bLHDZvim4BtxLuouB3GGTQyS8grsBv6g7fhsrei34x1YREHnrD9g_tiD8S6caAgSx7dpyURDc2Sw2zLomnjejD95RNI3OCq5sOIql3Zp2W-samW62yjL9Nq7gdcfVmXLmObByX4f5DgkHMYrxFhB4gQDrSm32ic9NgmrudYnk2-qEeXV21yPUv9uic0r657L5ahHin5QCJR4mE4if6I_6RWl0yKR78wRAn3tXeIztxnVjPJyg0stsi1VGHaSXR5roUtjpij64BboRxwjD4WqtjfQA_nyQOveHWisNCZnRFdFbdTe0WTHehBY90hUD_AcYqlZ35-TBWyTl1oRe96XoNJYdeQqqnlZr2URNdccy5s59DC7_DA7r18s2VtYobTgc06zQcMDuuitoJShS5nuNNt1LfDmXou5wXqdGp9cgT3wEb3i0TVSdmJPE5cczMtlwDoHUtQ1TDyCt-WdtojoBwB0E84yS9hLdoZ7Avm3Z_TWgIVeBjjgNyif_RYvK2wK1QyXUeuWotOGVOYkzNEeER6POjljRcLuR6Naspx4roXtFnHFiTMmtLo6VBu7ZsAN5SbXUSKO2-QVXOpTaCKuyPdV8DXpz6-cos7_ItA-5tsUSLP3GM8hYz0x-b1OWXZx0m00]--></g></svg>