<?xml version="1.0" encoding="us-ascii" standalone="no"?><svg xmlns="http://www.w3.org/2000/svg" xmlns:xlink="http://www.w3.org/1999/xlink" contentStyleType="text/css" height="1056px" preserveAspectRatio="none" style="width:1090px;height:1056px;background:#FFFFFF;" version="1.1" viewBox="0 0 1090 1056" width="1090px" zoomAndPan="magnify"><defs/><g><text fill="#000000" font-family="sans-serif" font-size="14" font-weight="bold" lengthAdjust="spacing" textLength="376" x="356.25" y="28.5352">US004 - Assign one or more skills to a collaborator</text><rect fill="#FFFFFF" height="828.1387" style="stroke:#181818;stroke-width:1.0;" width="10" x="33.5" y="128.9766"/><rect fill="#FFFFFF" height="173.8633" style="stroke:#181818;stroke-width:1.0;" width="10" x="401.5" y="150.2871"/><rect fill="#FFFFFF" height="243.9727" style="stroke:#181818;stroke-width:1.0;" width="10" x="401.5" y="353.4609"/><rect fill="#FFFFFF" height="103.0645" style="stroke:#181818;stroke-width:1.0;" width="10" x="401.5" y="626.7441"/><rect fill="#FFFFFF" height="36.3105" style="stroke:#181818;stroke-width:1.0;" width="10" x="401.5" y="759.1191"/><rect fill="#FFFFFF" height="132.375" style="stroke:#181818;stroke-width:1.0;" width="10" x="401.5" y="824.7402"/><rect fill="#FFFFFF" height="73.7539" style="stroke:#181818;stroke-width:1.0;" width="10" x="666.5" y="221.0859"/><rect fill="#FFFFFF" height="161.041" style="stroke:#181818;stroke-width:1.0;" width="10" x="666.5" y="382.7715"/><rect fill="#FFFFFF" height="73.7539" style="stroke:#181818;stroke-width:1.0;" width="10" x="666.5" y="656.0547"/><rect fill="#FFFFFF" height="73.7539" style="stroke:#181818;stroke-width:1.0;" width="10" x="666.5" y="854.0508"/><rect fill="#FFFFFF" height="29.3105" style="stroke:#181818;stroke-width:1.0;" width="10" x="863.5" y="456.5254"/><rect fill="none" height="208.3066" style="stroke:#000000;stroke-width:1.5;" width="756" x="10" y="558.8125"/><line style="stroke:#181818;stroke-width:0.5;stroke-dasharray:5.0,5.0;" x1="38" x2="38" y1="118.9766" y2="975.1152"/><line style="stroke:#181818;stroke-width:0.5;stroke-dasharray:5.0,5.0;" x1="406" x2="406" y1="118.9766" y2="975.1152"/><line style="stroke:#181818;stroke-width:0.5;stroke-dasharray:5.0,5.0;" x1="671" x2="671" y1="189.0313" y2="975.1152"/><line style="stroke:#181818;stroke-width:0.5;stroke-dasharray:5.0,5.0;" x1="868.5" x2="868.5" y1="118.9766" y2="975.1152"/><line style="stroke:#181818;stroke-width:0.5;stroke-dasharray:5.0,5.0;" x1="1020.5" x2="1020.5" y1="503.5137" y2="975.1152"/><text fill="#000000" font-family="sans-serif" font-size="14" lengthAdjust="spacing" textLength="31" x="20" y="116.0234">HRM</text><ellipse cx="38.5" cy="50.9883" fill="#E3E3E3" rx="8" ry="8" style="stroke:#181818;stroke-width:0.5;"/><path d="M38.5,58.9883 L38.5,85.9883 M25.5,66.9883 L51.5,66.9883 M38.5,85.9883 L25.5,100.9883 M38.5,85.9883 L51.5,100.9883 " fill="none" style="stroke:#181818;stroke-width:0.5;"/><text fill="#000000" font-family="sans-serif" font-size="14" lengthAdjust="spacing" textLength="31" x="20" y="987.6504">HRM</text><ellipse cx="38.5" cy="999.1035" fill="#E3E3E3" rx="8" ry="8" style="stroke:#181818;stroke-width:0.5;"/><path d="M38.5,1007.1035 L38.5,1034.1035 M25.5,1015.1035 L51.5,1015.1035 M38.5,1034.1035 L25.5,1049.1035 M38.5,1034.1035 L51.5,1049.1035 " fill="none" style="stroke:#181818;stroke-width:0.5;"/><rect fill="#E3E3E3" height="30.4883" rx="2.5" ry="2.5" style="stroke:#181818;stroke-width:0.5;" width="113" x="350" y="87.4883"/><text fill="#000000" font-family="sans-serif" font-size="14" lengthAdjust="spacing" textLength="99" x="357" y="108.0234">:AssignSkillsUI</text><rect fill="#E3E3E3" height="30.4883" rx="2.5" ry="2.5" style="stroke:#181818;stroke-width:0.5;" width="113" x="350" y="974.1152"/><text fill="#000000" font-family="sans-serif" font-size="14" lengthAdjust="spacing" textLength="99" x="357" y="994.6504">:AssignSkillsUI</text><rect fill="#E3E3E3" height="30.4883" rx="2.5" ry="2.5" style="stroke:#181818;stroke-width:0.5;" width="169" x="587" y="974.1152"/><text fill="#000000" font-family="sans-serif" font-size="14" lengthAdjust="spacing" textLength="155" x="594" y="994.6504">:AssignSkillsController</text><rect fill="#E3E3E3" height="46.9766" rx="2.5" ry="2.5" style="stroke:#181818;stroke-width:0.5;" width="118" x="809.5" y="71"/><text fill="#000000" font-family="sans-serif" font-size="14" lengthAdjust="spacing" textLength="104" x="816.5" y="91.5352">skillRepository:</text><text fill="#000000" font-family="sans-serif" font-size="14" lengthAdjust="spacing" textLength="101" x="818" y="108.0234">SkillRepository</text><rect fill="#E3E3E3" height="46.9766" rx="2.5" ry="2.5" style="stroke:#181818;stroke-width:0.5;" width="118" x="809.5" y="974.1152"/><text fill="#000000" font-family="sans-serif" font-size="14" lengthAdjust="spacing" textLength="104" x="816.5" y="994.6504">skillRepository:</text><text fill="#000000" font-family="sans-serif" font-size="14" lengthAdjust="spacing" textLength="101" x="818" y="1011.1387">SkillRepository</text><rect fill="#E3E3E3" height="46.9766" rx="2.5" ry="2.5" style="stroke:#181818;stroke-width:0.5;" width="128" x="956.5" y="974.1152"/><text fill="#000000" font-family="sans-serif" font-size="14" lengthAdjust="spacing" textLength="114" x="963.5" y="994.6504">selectedSkillsList</text><text fill="#000000" font-family="sans-serif" font-size="14" lengthAdjust="spacing" textLength="73" x="984" y="1011.1387">List&lt;Skill&gt;</text><rect fill="#FFFFFF" height="828.1387" style="stroke:#181818;stroke-width:1.0;" width="10" x="33.5" y="128.9766"/><rect fill="#FFFFFF" height="173.8633" style="stroke:#181818;stroke-width:1.0;" width="10" x="401.5" y="150.2871"/><rect fill="#FFFFFF" height="243.9727" style="stroke:#181818;stroke-width:1.0;" width="10" x="401.5" y="353.4609"/><rect fill="#FFFFFF" height="103.0645" style="stroke:#181818;stroke-width:1.0;" width="10" x="401.5" y="626.7441"/><rect fill="#FFFFFF" height="36.3105" style="stroke:#181818;stroke-width:1.0;" width="10" x="401.5" y="759.1191"/><rect fill="#FFFFFF" height="132.375" style="stroke:#181818;stroke-width:1.0;" width="10" x="401.5" y="824.7402"/><rect fill="#FFFFFF" height="73.7539" style="stroke:#181818;stroke-width:1.0;" width="10" x="666.5" y="221.0859"/><rect fill="#FFFFFF" height="161.041" style="stroke:#181818;stroke-width:1.0;" width="10" x="666.5" y="382.7715"/><rect fill="#FFFFFF" height="73.7539" style="stroke:#181818;stroke-width:1.0;" width="10" x="666.5" y="656.0547"/><rect fill="#FFFFFF" height="73.7539" style="stroke:#181818;stroke-width:1.0;" width="10" x="666.5" y="854.0508"/><rect fill="#FFFFFF" height="29.3105" style="stroke:#181818;stroke-width:1.0;" width="10" x="863.5" y="456.5254"/><polygon fill="#181818" points="389.5,146.2871,399.5,150.2871,389.5,154.2871,393.5,150.2871" style="stroke:#181818;stroke-width:1.0;"/><line style="stroke:#181818;stroke-width:1.0;" x1="43.5" x2="395.5" y1="150.2871" y2="150.2871"/><text fill="#000000" font-family="sans-serif" font-size="13" font-weight="bold" lengthAdjust="spacing" textLength="9" x="50.5" y="145.5449">1</text><text fill="#000000" font-family="sans-serif" font-size="13" lengthAdjust="spacing" textLength="245" x="63.5" y="145.5449">asks to assign skill(s) to a collaborator</text><polygon fill="#181818" points="575,175.5977,585,179.5977,575,183.5977,579,179.5977" style="stroke:#181818;stroke-width:1.0;"/><line style="stroke:#181818;stroke-width:1.0;" x1="411.5" x2="581" y1="179.5977" y2="179.5977"/><text fill="#000000" font-family="sans-serif" font-size="13" font-weight="bold" lengthAdjust="spacing" textLength="9" x="418.5" y="174.8555">2</text><text fill="#000000" font-family="sans-serif" font-size="13" lengthAdjust="spacing" textLength="38" x="431.5" y="174.8555">create</text><rect fill="#E3E3E3" height="30.4883" rx="2.5" ry="2.5" style="stroke:#181818;stroke-width:0.5;" width="169" x="587" y="158.2871"/><text fill="#000000" font-family="sans-serif" font-size="14" lengthAdjust="spacing" textLength="155" x="594" y="178.8223">:AssignSkillsController</text><polygon fill="#181818" points="654.5,217.0859,664.5,221.0859,654.5,225.0859,658.5,221.0859" style="stroke:#181818;stroke-width:1.0;"/><line style="stroke:#181818;stroke-width:1.0;" x1="411.5" x2="660.5" y1="221.0859" y2="221.0859"/><text fill="#000000" font-family="sans-serif" font-size="13" font-weight="bold" lengthAdjust="spacing" textLength="9" x="418.5" y="216.3438">3</text><text fill="#000000" font-family="sans-serif" font-size="13" lengthAdjust="spacing" textLength="113" x="431.5" y="216.3438">getCollaborators()</text><rect fill="none" height="39.4434" style="stroke:#000000;stroke-width:1.5;" width="175" x="584" y="229.0859"/><path d="M584,229.0859 L648,229.0859 L648,236.0859 L638,246.0859 L584,246.0859 L584,229.0859 " fill="#EEEEEE" style="stroke:#000000;stroke-width:2.0;"/><text fill="#000000" font-family="sans-serif" font-size="13" font-weight="bold" lengthAdjust="spacing" textLength="19" x="597" y="243.6543">ref</text><text fill="#000000" font-family="sans-serif" font-size="12" lengthAdjust="spacing" textLength="101" x="621" y="261.6875">Get Collaborators</text><polygon fill="#181818" points="422.5,290.8398,412.5,294.8398,422.5,298.8398,418.5,294.8398" style="stroke:#181818;stroke-width:1.0;"/><line style="stroke:#181818;stroke-width:1.0;stroke-dasharray:2.0,2.0;" x1="416.5" x2="670.5" y1="294.8398" y2="294.8398"/><text fill="#000000" font-family="sans-serif" font-size="13" font-weight="bold" lengthAdjust="spacing" textLength="9" x="428.5" y="290.0977">4</text><text fill="#000000" font-family="sans-serif" font-size="13" lengthAdjust="spacing" textLength="106" x="441.5" y="290.0977">collaboratorsList</text><polygon fill="#181818" points="54.5,320.1504,44.5,324.1504,54.5,328.1504,50.5,324.1504" style="stroke:#181818;stroke-width:1.0;"/><line style="stroke:#181818;stroke-width:1.0;stroke-dasharray:2.0,2.0;" x1="48.5" x2="405.5" y1="324.1504" y2="324.1504"/><text fill="#000000" font-family="sans-serif" font-size="13" font-weight="bold" lengthAdjust="spacing" textLength="9" x="60.5" y="319.4082">5</text><text fill="#000000" font-family="sans-serif" font-size="13" lengthAdjust="spacing" textLength="201" x="73.5" y="319.4082">shows list with all collaborators</text><polygon fill="#181818" points="389.5,349.4609,399.5,353.4609,389.5,357.4609,393.5,353.4609" style="stroke:#181818;stroke-width:1.0;"/><line style="stroke:#181818;stroke-width:1.0;" x1="43.5" x2="395.5" y1="353.4609" y2="353.4609"/><text fill="#000000" font-family="sans-serif" font-size="13" font-weight="bold" lengthAdjust="spacing" textLength="9" x="50.5" y="348.7188">6</text><text fill="#000000" font-family="sans-serif" font-size="13" lengthAdjust="spacing" textLength="148" x="63.5" y="348.7188">selects the collaborator</text><polygon fill="#181818" points="654.5,378.7715,664.5,382.7715,654.5,386.7715,658.5,382.7715" style="stroke:#181818;stroke-width:1.0;"/><line style="stroke:#181818;stroke-width:1.0;" x1="411.5" x2="660.5" y1="382.7715" y2="382.7715"/><text fill="#000000" font-family="sans-serif" font-size="13" font-weight="bold" lengthAdjust="spacing" textLength="9" x="418.5" y="378.0293">7</text><text fill="#000000" font-family="sans-serif" font-size="13" lengthAdjust="spacing" textLength="85" x="431.5" y="378.0293">getSkillsList()</text><rect fill="none" height="39.4434" style="stroke:#000000;stroke-width:1.5;" width="175" x="584" y="390.7715"/><path d="M584,390.7715 L648,390.7715 L648,397.7715 L638,407.7715 L584,407.7715 L584,390.7715 " fill="#EEEEEE" style="stroke:#000000;stroke-width:2.0;"/><text fill="#000000" font-family="sans-serif" font-size="13" font-weight="bold" lengthAdjust="spacing" textLength="19" x="597" y="405.3398">ref</text><text fill="#000000" font-family="sans-serif" font-size="12" lengthAdjust="spacing" textLength="52" x="645.5" y="423.373">Get Skills</text><polygon fill="#181818" points="851.5,452.5254,861.5,456.5254,851.5,460.5254,855.5,456.5254" style="stroke:#181818;stroke-width:1.0;"/><line style="stroke:#181818;stroke-width:1.0;" x1="676.5" x2="857.5" y1="456.5254" y2="456.5254"/><text fill="#000000" font-family="sans-serif" font-size="13" font-weight="bold" lengthAdjust="spacing" textLength="9" x="683.5" y="451.7832">8</text><text fill="#000000" font-family="sans-serif" font-size="13" lengthAdjust="spacing" textLength="155" x="696.5" y="451.7832">createSelectedSkillsList()</text><polygon fill="#181818" points="944.5,481.8359,954.5,485.8359,944.5,489.8359,948.5,485.8359" style="stroke:#181818;stroke-width:1.0;"/><line style="stroke:#181818;stroke-width:1.0;" x1="868.5" x2="950.5" y1="485.8359" y2="485.8359"/><text fill="#000000" font-family="sans-serif" font-size="13" font-weight="bold" lengthAdjust="spacing" textLength="9" x="875.5" y="481.0938">9</text><text fill="#000000" font-family="sans-serif" font-size="13" lengthAdjust="spacing" textLength="46" x="888.5" y="481.0938">create()</text><rect fill="#E3E3E3" height="46.9766" rx="2.5" ry="2.5" style="stroke:#181818;stroke-width:0.5;" width="128" x="956.5" y="464.5254"/><text fill="#000000" font-family="sans-serif" font-size="14" lengthAdjust="spacing" textLength="114" x="963.5" y="485.0605">selectedSkillsList</text><text fill="#000000" font-family="sans-serif" font-size="14" lengthAdjust="spacing" textLength="73" x="984" y="501.5488">List&lt;Skill&gt;</text><polygon fill="#181818" points="422.5,539.8125,412.5,543.8125,422.5,547.8125,418.5,543.8125" style="stroke:#181818;stroke-width:1.0;"/><line style="stroke:#181818;stroke-width:1.0;stroke-dasharray:2.0,2.0;" x1="416.5" x2="670.5" y1="543.8125" y2="543.8125"/><text fill="#000000" font-family="sans-serif" font-size="13" font-weight="bold" lengthAdjust="spacing" textLength="18" x="428.5" y="539.0703">10</text><text fill="#000000" font-family="sans-serif" font-size="13" lengthAdjust="spacing" textLength="57" x="450.5" y="539.0703">skillsList</text><path d="M10,558.8125 L84,558.8125 L84,566.123 L74,576.123 L10,576.123 L10,558.8125 " fill="#EEEEEE" style="stroke:#000000;stroke-width:1.5;"/><rect fill="none" height="208.3066" style="stroke:#000000;stroke-width:1.5;" width="756" x="10" y="558.8125"/><text fill="#000000" font-family="sans-serif" font-size="13" font-weight="bold" lengthAdjust="spacing" textLength="29" x="25" y="572.3809">loop</text><text fill="#000000" font-family="sans-serif" font-size="11" font-weight="bold" lengthAdjust="spacing" textLength="172" x="99" y="571.4473">[while HRM wants to continue]</text><polygon fill="#181818" points="54.5,593.4336,44.5,597.4336,54.5,601.4336,50.5,597.4336" style="stroke:#181818;stroke-width:1.0;"/><line style="stroke:#181818;stroke-width:1.0;stroke-dasharray:2.0,2.0;" x1="48.5" x2="405.5" y1="597.4336" y2="597.4336"/><text fill="#000000" font-family="sans-serif" font-size="13" font-weight="bold" lengthAdjust="spacing" textLength="18" x="60.5" y="592.6914">11</text><text fill="#000000" font-family="sans-serif" font-size="13" lengthAdjust="spacing" textLength="272" x="82.5" y="592.6914">shows skills list and requests to select one</text><polygon fill="#181818" points="389.5,622.7441,399.5,626.7441,389.5,630.7441,393.5,626.7441" style="stroke:#181818;stroke-width:1.0;"/><line style="stroke:#181818;stroke-width:1.0;" x1="43.5" x2="395.5" y1="626.7441" y2="626.7441"/><text fill="#000000" font-family="sans-serif" font-size="13" font-weight="bold" lengthAdjust="spacing" textLength="18" x="50.5" y="622.002">12</text><text fill="#000000" font-family="sans-serif" font-size="13" lengthAdjust="spacing" textLength="102" x="72.5" y="622.002">selects one skill</text><polygon fill="#181818" points="654.5,652.0547,664.5,656.0547,654.5,660.0547,658.5,656.0547" style="stroke:#181818;stroke-width:1.0;"/><line style="stroke:#181818;stroke-width:1.0;" x1="411.5" x2="660.5" y1="656.0547" y2="656.0547"/><text fill="#000000" font-family="sans-serif" font-size="13" font-weight="bold" lengthAdjust="spacing" textLength="18" x="418.5" y="651.3125">13</text><text fill="#000000" font-family="sans-serif" font-size="13" lengthAdjust="spacing" textLength="173" x="440.5" y="651.3125">addSelectedSkill(skillName)</text><rect fill="none" height="39.4434" style="stroke:#000000;stroke-width:1.5;" width="175" x="584" y="664.0547"/><path d="M584,664.0547 L648,664.0547 L648,671.0547 L638,681.0547 L584,681.0547 L584,664.0547 " fill="#EEEEEE" style="stroke:#000000;stroke-width:2.0;"/><text fill="#000000" font-family="sans-serif" font-size="13" font-weight="bold" lengthAdjust="spacing" textLength="19" x="597" y="678.623">ref</text><text fill="#000000" font-family="sans-serif" font-size="12" lengthAdjust="spacing" textLength="102" x="620.5" y="696.6563">Add Selected Skill</text><polygon fill="#181818" points="54.5,725.8086,44.5,729.8086,54.5,733.8086,50.5,729.8086" style="stroke:#181818;stroke-width:1.0;"/><line style="stroke:#181818;stroke-width:1.0;stroke-dasharray:2.0,2.0;" x1="48.5" x2="405.5" y1="729.8086" y2="729.8086"/><text fill="#000000" font-family="sans-serif" font-size="13" font-weight="bold" lengthAdjust="spacing" textLength="18" x="60.5" y="725.0664">14</text><text fill="#000000" font-family="sans-serif" font-size="13" lengthAdjust="spacing" textLength="105" x="82.5" y="725.0664">asks to continue</text><polygon fill="#181818" points="389.5,755.1191,399.5,759.1191,389.5,763.1191,393.5,759.1191" style="stroke:#181818;stroke-width:1.0;"/><line style="stroke:#181818;stroke-width:1.0;" x1="43.5" x2="395.5" y1="759.1191" y2="759.1191"/><text fill="#000000" font-family="sans-serif" font-size="13" font-weight="bold" lengthAdjust="spacing" textLength="18" x="50.5" y="754.377">15</text><text fill="#000000" font-family="sans-serif" font-size="13" lengthAdjust="spacing" textLength="120" x="72.5" y="754.377">responds yes or no</text><polygon fill="#181818" points="54.5,791.4297,44.5,795.4297,54.5,799.4297,50.5,795.4297" style="stroke:#181818;stroke-width:1.0;"/><line style="stroke:#181818;stroke-width:1.0;stroke-dasharray:2.0,2.0;" x1="48.5" x2="405.5" y1="795.4297" y2="795.4297"/><text fill="#000000" font-family="sans-serif" font-size="13" font-weight="bold" lengthAdjust="spacing" textLength="18" x="60.5" y="790.6875">16</text><text fill="#000000" font-family="sans-serif" font-size="13" lengthAdjust="spacing" textLength="312" x="82.5" y="790.6875">shows skill(s) selected and requests confirmation</text><polygon fill="#181818" points="389.5,820.7402,399.5,824.7402,389.5,828.7402,393.5,824.7402" style="stroke:#181818;stroke-width:1.0;"/><line style="stroke:#181818;stroke-width:1.0;" x1="43.5" x2="395.5" y1="824.7402" y2="824.7402"/><text fill="#000000" font-family="sans-serif" font-size="13" font-weight="bold" lengthAdjust="spacing" textLength="18" x="50.5" y="819.998">17</text><text fill="#000000" font-family="sans-serif" font-size="13" lengthAdjust="spacing" textLength="87" x="72.5" y="819.998">confirms data</text><polygon fill="#181818" points="654.5,850.0508,664.5,854.0508,654.5,858.0508,658.5,854.0508" style="stroke:#181818;stroke-width:1.0;"/><line style="stroke:#181818;stroke-width:1.0;" x1="411.5" x2="660.5" y1="854.0508" y2="854.0508"/><text fill="#000000" font-family="sans-serif" font-size="13" font-weight="bold" lengthAdjust="spacing" textLength="18" x="418.5" y="849.3086">18</text><text fill="#000000" font-family="sans-serif" font-size="13" lengthAdjust="spacing" textLength="214" x="440.5" y="849.3086">assignSkill(collaboratorIdNumber)</text><rect fill="none" height="39.4434" style="stroke:#000000;stroke-width:1.5;" width="175" x="584" y="862.0508"/><path d="M584,862.0508 L648,862.0508 L648,869.0508 L638,879.0508 L584,879.0508 L584,862.0508 " fill="#EEEEEE" style="stroke:#000000;stroke-width:2.0;"/><text fill="#000000" font-family="sans-serif" font-size="13" font-weight="bold" lengthAdjust="spacing" textLength="19" x="597" y="876.6191">ref</text><text fill="#000000" font-family="sans-serif" font-size="12" lengthAdjust="spacing" textLength="77" x="633" y="894.6523">Assign Skill(s)</text><polygon fill="#181818" points="422.5,923.8047,412.5,927.8047,422.5,931.8047,418.5,927.8047" style="stroke:#181818;stroke-width:1.0;"/><line style="stroke:#181818;stroke-width:1.0;stroke-dasharray:2.0,2.0;" x1="416.5" x2="670.5" y1="927.8047" y2="927.8047"/><text fill="#000000" font-family="sans-serif" font-size="13" font-weight="bold" lengthAdjust="spacing" textLength="18" x="428.5" y="923.0625">19</text><text fill="#000000" font-family="sans-serif" font-size="13" lengthAdjust="spacing" textLength="76" x="450.5" y="923.0625">collaborator</text><polygon fill="#181818" points="49.5,953.1152,39.5,957.1152,49.5,961.1152,45.5,957.1152" style="stroke:#181818;stroke-width:1.0;"/><line style="stroke:#181818;stroke-width:1.0;stroke-dasharray:2.0,2.0;" x1="43.5" x2="405.5" y1="957.1152" y2="957.1152"/><text fill="#000000" font-family="sans-serif" font-size="13" font-weight="bold" lengthAdjust="spacing" textLength="18" x="55.5" y="952.373">20</text><text fill="#000000" font-family="sans-serif" font-size="13" lengthAdjust="spacing" textLength="170" x="77.5" y="952.373">displays operation success</text><!--SRC=[bLLDZo8X4BtpAogUT1AJEUp9R4mcPhDhCZi7NMzpOPfIYJJq0exntsy1zdVRut8mDXIlYlSUXJj9NN3BSyYDDjdHcXp1spCoLwqKF3ln0sxzLI5Op3pN1zKCS4Skp4Ng0-ovSiYObvv2TzldvsymXnVdv463qGZ6KXwBG7kLSk0DSCYCKlp3MEwDPOoVlT7d_0F3_uocOF9hyti2tC6Fl53cYiWegvUPBBZsC5aa-6r4tArZv6uz4hCosblAYJR6hlviNjlHiRWD5iP9odzTlAUDzKpSrvdhGA0Ydb2aZA_I-NSTVh_7YMK4wCV44yjFxh4-AmCQvHVCbtGsMD3sKs8lKHihdhhP0A5XUuLAlCG9mY2aSFAd9qBBBD9gMcgEEeo23kXN3M0tdVNYgpoHqzvo61RtO3xHfX2uCtwYXrQomKZKOZX9h7XUSjMa8z7SZHSuK7auF45Kr2_8vkRYG142NAG_0bUg3SuwO2NTFVcIzAJW4HzGQqYAsZGD7KRu7-Szy9qGsIZ1YTXbr_kLXROzItTSKbNOlJszahefA6l_mZJSsqdKK64qLTighhwAezvGnXHmEKfgSjISu49tFbx7Z5gBrDGynmnqwttHHrmBakRl6Lq2I4SChVA_lHJQQuJ-wig7zY54IwfftFZ6Svon4IFTCz6B453Y9RfPpq9zDieULf76xlBz20yMNM6qS7155zuPRNf4V55GGvxGIqkxjKMYQlVIvjnBenylxhRBWU2UFo9G_LvDcmrYBTxYstXNfc69RY_mJUjPcuZxtN94aJvxGhf2yIjnNw2Dz80xPncwmRRO-2mn_W40]--></g></svg>