<?xml version="1.0" encoding="us-ascii" standalone="no"?><svg xmlns="http://www.w3.org/2000/svg" xmlns:xlink="http://www.w3.org/1999/xlink" contentStyleType="text/css" height="388px" preserveAspectRatio="none" style="width:770px;height:388px;background:#FFFFFF;" version="1.1" viewBox="0 0 770 388" width="770px" zoomAndPan="magnify"><defs/><g><rect fill="#FFFFFF" height="233.8633" style="stroke:#181818;stroke-width:1.0;" width="10" x="241" y="84.2871"/><rect fill="#FFFFFF" height="143.9316" style="stroke:#181818;stroke-width:1.0;" width="10" x="468" y="137.9082"/><rect fill="#FFFFFF" height="30" style="stroke:#181818;stroke-width:1.0;" width="10" x="685" y="251.8398"/><rect fill="none" height="190.5527" style="stroke:#000000;stroke-width:1.5;" width="612.5" x="151.5" y="99.2871"/><line style="stroke:#181818;stroke-width:0.5;stroke-dasharray:5.0,5.0;" x1="245.5" x2="245.5" y1="52.9766" y2="336.1504"/><line style="stroke:#181818;stroke-width:0.5;stroke-dasharray:5.0,5.0;" x1="473" x2="473" y1="52.9766" y2="336.1504"/><line style="stroke:#181818;stroke-width:0.5;stroke-dasharray:5.0,5.0;" x1="690" x2="690" y1="52.9766" y2="336.1504"/><rect fill="#E3E3E3" height="30.4883" rx="2.5" ry="2.5" style="stroke:#181818;stroke-width:0.5;" width="169" x="161.5" y="21.4883"/><text fill="#000000" font-family="sans-serif" font-size="14" lengthAdjust="spacing" textLength="155" x="168.5" y="42.0234">:AssignSkillsController</text><rect fill="#E3E3E3" height="30.4883" rx="2.5" ry="2.5" style="stroke:#181818;stroke-width:0.5;" width="169" x="161.5" y="335.1504"/><text fill="#000000" font-family="sans-serif" font-size="14" lengthAdjust="spacing" textLength="155" x="168.5" y="355.6855">:AssignSkillsController</text><rect fill="#E3E3E3" height="46.9766" rx="2.5" ry="2.5" style="stroke:#181818;stroke-width:0.5;" width="118" x="414" y="5"/><text fill="#000000" font-family="sans-serif" font-size="14" lengthAdjust="spacing" textLength="104" x="421" y="25.5352">skillRepository:</text><text fill="#000000" font-family="sans-serif" font-size="14" lengthAdjust="spacing" textLength="101" x="422.5" y="42.0234">SkillRepository</text><rect fill="#E3E3E3" height="46.9766" rx="2.5" ry="2.5" style="stroke:#181818;stroke-width:0.5;" width="118" x="414" y="335.1504"/><text fill="#000000" font-family="sans-serif" font-size="14" lengthAdjust="spacing" textLength="104" x="421" y="355.6855">skillRepository:</text><text fill="#000000" font-family="sans-serif" font-size="14" lengthAdjust="spacing" textLength="101" x="422.5" y="372.1738">SkillRepository</text><rect fill="#E3E3E3" height="46.9766" rx="2.5" ry="2.5" style="stroke:#181818;stroke-width:0.5;" width="128" x="626" y="5"/><text fill="#000000" font-family="sans-serif" font-size="14" lengthAdjust="spacing" textLength="114" x="633" y="25.5352">selectedSkillsList</text><text fill="#000000" font-family="sans-serif" font-size="14" lengthAdjust="spacing" textLength="73" x="653.5" y="42.0234">List&lt;Skill&gt;</text><rect fill="#E3E3E3" height="46.9766" rx="2.5" ry="2.5" style="stroke:#181818;stroke-width:0.5;" width="128" x="626" y="335.1504"/><text fill="#000000" font-family="sans-serif" font-size="14" lengthAdjust="spacing" textLength="114" x="633" y="355.6855">selectedSkillsList</text><text fill="#000000" font-family="sans-serif" font-size="14" lengthAdjust="spacing" textLength="73" x="653.5" y="372.1738">List&lt;Skill&gt;</text><rect fill="#FFFFFF" height="233.8633" style="stroke:#181818;stroke-width:1.0;" width="10" x="241" y="84.2871"/><rect fill="#FFFFFF" height="143.9316" style="stroke:#181818;stroke-width:1.0;" width="10" x="468" y="137.9082"/><rect fill="#FFFFFF" height="30" style="stroke:#181818;stroke-width:1.0;" width="10" x="685" y="251.8398"/><polygon fill="#181818" points="229,80.2871,239,84.2871,229,88.2871,233,84.2871" style="stroke:#181818;stroke-width:1.0;"/><line style="stroke:#181818;stroke-width:1.0;" x1="0" x2="235" y1="84.2871" y2="84.2871"/><text fill="#000000" font-family="sans-serif" font-size="13" font-weight="bold" lengthAdjust="spacing" textLength="9" x="7" y="79.5449">3</text><text fill="#000000" font-family="sans-serif" font-size="13" lengthAdjust="spacing" textLength="209" x="20" y="79.5449">addSelectedSkillName(skillName)</text><path d="M151.5,99.2871 L313.5,99.2871 L313.5,106.5977 L303.5,116.5977 L151.5,116.5977 L151.5,99.2871 " fill="#EEEEEE" style="stroke:#000000;stroke-width:1.5;"/><rect fill="none" height="190.5527" style="stroke:#000000;stroke-width:1.5;" width="612.5" x="151.5" y="99.2871"/><text fill="#000000" font-family="sans-serif" font-size="13" font-weight="bold" lengthAdjust="spacing" textLength="117" x="166.5" y="112.8555">Get Collaborators</text><polygon fill="#181818" points="456,133.9082,466,137.9082,456,141.9082,460,137.9082" style="stroke:#181818;stroke-width:1.0;"/><line style="stroke:#181818;stroke-width:1.0;" x1="251" x2="462" y1="137.9082" y2="137.9082"/><text fill="#000000" font-family="sans-serif" font-size="13" font-weight="bold" lengthAdjust="spacing" textLength="21" x="258" y="133.166">3.1</text><text fill="#000000" font-family="sans-serif" font-size="13" lengthAdjust="spacing" textLength="173" x="283" y="133.166">addSelectedSkill(skillName)</text><line style="stroke:#181818;stroke-width:1.0;" x1="478" x2="520" y1="167.2188" y2="167.2188"/><line style="stroke:#181818;stroke-width:1.0;" x1="520" x2="520" y1="167.2188" y2="180.2188"/><line style="stroke:#181818;stroke-width:1.0;" x1="479" x2="520" y1="180.2188" y2="180.2188"/><polygon fill="#181818" points="489,176.2188,479,180.2188,489,184.2188,485,180.2188" style="stroke:#181818;stroke-width:1.0;"/><text fill="#000000" font-family="sans-serif" font-size="13" font-weight="bold" lengthAdjust="spacing" textLength="21" x="485" y="162.4766">3.2</text><text fill="#000000" font-family="sans-serif" font-size="13" lengthAdjust="spacing" textLength="168" x="510" y="162.4766">getSkillByName(skillName)</text><line style="stroke:#181818;stroke-width:1.0;stroke-dasharray:2.0,2.0;" x1="478" x2="520" y1="209.5293" y2="209.5293"/><line style="stroke:#181818;stroke-width:1.0;stroke-dasharray:2.0,2.0;" x1="520" x2="520" y1="209.5293" y2="222.5293"/><line style="stroke:#181818;stroke-width:1.0;stroke-dasharray:2.0,2.0;" x1="479" x2="520" y1="222.5293" y2="222.5293"/><polygon fill="#181818" points="489,218.5293,479,222.5293,489,226.5293,485,222.5293" style="stroke:#181818;stroke-width:1.0;"/><text fill="#000000" font-family="sans-serif" font-size="13" font-weight="bold" lengthAdjust="spacing" textLength="21" x="485" y="204.7871">3.3</text><text fill="#000000" font-family="sans-serif" font-size="13" lengthAdjust="spacing" textLength="27" x="510" y="204.7871">skill</text><polygon fill="#181818" points="673,247.8398,683,251.8398,673,255.8398,677,251.8398" style="stroke:#181818;stroke-width:1.0;"/><line style="stroke:#181818;stroke-width:1.0;" x1="478" x2="679" y1="251.8398" y2="251.8398"/><text fill="#000000" font-family="sans-serif" font-size="13" font-weight="bold" lengthAdjust="spacing" textLength="21" x="485" y="247.0977">3.4</text><text fill="#000000" font-family="sans-serif" font-size="13" lengthAdjust="spacing" textLength="58" x="510" y="247.0977">add(skill)</text><polygon fill="#181818" points="11,314.1504,1,318.1504,11,322.1504,7,318.1504" style="stroke:#181818;stroke-width:1.0;"/><line style="stroke:#181818;stroke-width:1.0;stroke-dasharray:2.0,2.0;" x1="5" x2="245" y1="318.1504" y2="318.1504"/><text fill="#000000" font-family="sans-serif" font-size="13" font-weight="bold" lengthAdjust="spacing" textLength="9" x="17" y="313.4082">4</text><text fill="#000000" font-family="sans-serif" font-size="13" lengthAdjust="spacing" textLength="105" x="30" y="313.4082">asks to continue</text><!--SRC=[VLCzJyCm4DtzAqwTO2WIWYcgAa67BXL3ozZbcXof5SUEV1TG_ZskhOOq2VLWsU_UtRiFcojj6_HOG-sioy_UrGJYMrBSMnhCAopf89qXy9GBsj8C2Np6mlreMy8N6YQb0YmwrmrQWKNsngnBUwYqCRnnLhmpXlm2a67pkT_Tilb2srFZM8lpNNPCZdz8z1jXen1aGf9K9CMTPZdQoxwAm3e6c7AKmbQSRUiJUNXHotLC3ZB0eZWCsHzOqmDVJu-tVa_FuPwB_aQXL1s4LNhNDh0bWKse7K_EOqYRe-soeb9G79KrrHxgNfrxkN5JUiR8CAjKaaJilPlKzs-OkJZHyPxojFEfnqbofgovKLr91TsZpR1cUqIsI2DAry4yNoEmMYxxny0LWpZ8mplMDdmJDGWUvwr-0G00]--></g></svg>