<?xml version="1.0" encoding="us-ascii" standalone="no"?><svg xmlns="http://www.w3.org/2000/svg" xmlns:xlink="http://www.w3.org/1999/xlink" contentStyleType="text/css" height="1273px" preserveAspectRatio="none" style="width:742px;height:1273px;background:#FFFFFF;" version="1.1" viewBox="0 0 742 1273" width="742px" zoomAndPan="magnify"><defs/><g><!--class Skill--><g id="elem_Skill"><rect codeLine="11" fill="#F1F1F1" height="80.9766" id="Skill" rx="2.5" ry="2.5" style="stroke:#181818;stroke-width:0.5;" width="99" x="88" y="1185.18"/><ellipse cx="120.55" cy="1201.18" fill="#ADD1B2" rx="11" ry="11" style="stroke:#181818;stroke-width:1.0;"/><path d="M123.5231,1206.8231 Q122.9421,1207.1219 122.3029,1207.2713 Q121.6638,1207.4207 120.9582,1207.4207 Q118.4514,1207.4207 117.1315,1205.7689 Q115.8117,1204.117 115.8117,1200.9959 Q115.8117,1197.8665 117.1315,1196.2147 Q118.4514,1194.5628 120.9582,1194.5628 Q121.6638,1194.5628 122.3112,1194.7122 Q122.9587,1194.8616 123.5231,1195.1605 L123.5231,1197.8831 Q122.8923,1197.3021 122.2988,1197.0323 Q121.7053,1196.7625 121.0744,1196.7625 Q119.7297,1196.7625 119.0449,1197.8292 Q118.3601,1198.8958 118.3601,1200.9959 Q118.3601,1203.0877 119.0449,1204.1544 Q119.7297,1205.221 121.0744,1205.221 Q121.7053,1205.221 122.2988,1204.9512 Q122.8923,1204.6815 123.5231,1204.1004 Z " fill="#000000"/><text fill="#000000" font-family="sans-serif" font-size="14" lengthAdjust="spacing" textLength="28" x="138.45" y="1206.471">Skill</text><line style="stroke:#181818;stroke-width:0.5;" x1="89" x2="186" y1="1217.18" y2="1217.18"/><text fill="#000000" font-family="sans-serif" font-size="14" lengthAdjust="spacing" textLength="46" x="94" y="1234.7152">-name</text><line style="stroke:#181818;stroke-width:0.5;" x1="89" x2="186" y1="1241.6683" y2="1241.6683"/><text fill="#000000" font-family="sans-serif" font-size="14" lengthAdjust="spacing" textLength="87" x="94" y="1259.2034">+Skill(name)</text></g><!--class Collaborator--><g id="elem_Collaborator"><rect codeLine="17" fill="#F1F1F1" height="229.3711" id="Collaborator" rx="2.5" ry="2.5" style="stroke:#181818;stroke-width:0.5;" width="556" x="179.5" y="878.81"/><ellipse cx="409.75" cy="894.81" fill="#ADD1B2" rx="11" ry="11" style="stroke:#181818;stroke-width:1.0;"/><path d="M412.7231,900.4531 Q412.1421,900.7519 411.5029,900.9013 Q410.8638,901.0507 410.1582,901.0507 Q407.6514,901.0507 406.3315,899.3989 Q405.0117,897.747 405.0117,894.6259 Q405.0117,891.4965 406.3315,889.8447 Q407.6514,888.1928 410.1582,888.1928 Q410.8638,888.1928 411.5112,888.3422 Q412.1587,888.4916 412.7231,888.7905 L412.7231,891.5131 Q412.0923,890.9321 411.4988,890.6623 Q410.9053,890.3925 410.2744,890.3925 Q408.9297,890.3925 408.2449,891.4592 Q407.5601,892.5258 407.5601,894.6259 Q407.5601,896.7177 408.2449,897.7844 Q408.9297,898.851 410.2744,898.851 Q410.9053,898.851 411.4988,898.5812 Q412.0923,898.3115 412.7231,897.7304 Z " fill="#000000"/><text fill="#000000" font-family="sans-serif" font-size="14" lengthAdjust="spacing" textLength="87" x="430.25" y="900.101">Collaborator</text><line style="stroke:#181818;stroke-width:0.5;" x1="180.5" x2="734.5" y1="910.81" y2="910.81"/><text fill="#000000" font-family="sans-serif" font-size="14" lengthAdjust="spacing" textLength="46" x="185.5" y="928.3452">-name</text><text fill="#000000" font-family="sans-serif" font-size="14" lengthAdjust="spacing" textLength="71" x="185.5" y="944.8334">-birthdate</text><text fill="#000000" font-family="sans-serif" font-size="14" lengthAdjust="spacing" textLength="109" x="185.5" y="961.3217">-admissionDate</text><text fill="#000000" font-family="sans-serif" font-size="14" lengthAdjust="spacing" textLength="62" x="185.5" y="977.81">-address</text><text fill="#000000" font-family="sans-serif" font-size="14" lengthAdjust="spacing" textLength="107" x="185.5" y="994.2983">-phoneNumber</text><text fill="#000000" font-family="sans-serif" font-size="14" lengthAdjust="spacing" textLength="45" x="185.5" y="1010.7866">-email</text><text fill="#000000" font-family="sans-serif" font-size="14" lengthAdjust="spacing" textLength="123" x="185.5" y="1027.2748">-taxpayerNumber</text><text fill="#000000" font-family="sans-serif" font-size="14" lengthAdjust="spacing" textLength="201" x="185.5" y="1043.7631">-identificationDocumentType</text><text fill="#000000" font-family="sans-serif" font-size="14" lengthAdjust="spacing" textLength="223" x="185.5" y="1060.2514">-identificationDocumentNumber</text><line style="stroke:#181818;stroke-width:0.5;" x1="180.5" x2="734.5" y1="1067.2045" y2="1067.2045"/><text fill="#000000" font-family="sans-serif" font-size="14" lengthAdjust="spacing" textLength="539" x="185.5" y="1084.7397">+Collaborator(name, birthdate, admissionDate, address, phoneNumber, email,</text><text fill="#000000" font-family="sans-serif" font-size="14" lengthAdjust="spacing" textLength="544" x="185.5" y="1101.228">taxpayerNumber, identificationDocumentType, identificationDocumentNumber)</text></g><!--class AssignSkillsController--><g id="elem_AssignSkillsController"><rect codeLine="31" fill="#F1F1F1" height="179.9063" id="AssignSkillsController" rx="2.5" ry="2.5" style="stroke:#181818;stroke-width:0.5;" width="447" x="90" y="116"/><ellipse cx="233.75" cy="132" fill="#ADD1B2" rx="11" ry="11" style="stroke:#181818;stroke-width:1.0;"/><path d="M236.7231,137.6431 Q236.1421,137.9419 235.5029,138.0913 Q234.8638,138.2407 234.1582,138.2407 Q231.6514,138.2407 230.3315,136.5889 Q229.0117,134.937 229.0117,131.8159 Q229.0117,128.6865 230.3315,127.0347 Q231.6514,125.3828 234.1582,125.3828 Q234.8638,125.3828 235.5112,125.5322 Q236.1587,125.6816 236.7231,125.9805 L236.7231,128.7031 Q236.0923,128.1221 235.4988,127.8523 Q234.9053,127.5825 234.2744,127.5825 Q232.9297,127.5825 232.2449,128.6492 Q231.5601,129.7158 231.5601,131.8159 Q231.5601,133.9077 232.2449,134.9744 Q232.9297,136.041 234.2744,136.041 Q234.9053,136.041 235.4988,135.7712 Q236.0923,135.5015 236.7231,134.9204 Z " fill="#000000"/><text fill="#000000" font-family="sans-serif" font-size="14" lengthAdjust="spacing" textLength="151" x="254.25" y="137.291">AssignSkillsController</text><line style="stroke:#181818;stroke-width:0.5;" x1="91" x2="536" y1="148" y2="148"/><line style="stroke:#181818;stroke-width:0.5;" x1="91" x2="536" y1="156" y2="156"/><text fill="#000000" font-family="sans-serif" font-size="14" lengthAdjust="spacing" textLength="435" x="96" y="173.5352">+assignSkillsController(collaboratorRepository, skillRepository)</text><text fill="#000000" font-family="sans-serif" font-size="14" lengthAdjust="spacing" textLength="137" x="96" y="190.0234">+getCollaborators()</text><text fill="#000000" font-family="sans-serif" font-size="14" lengthAdjust="spacing" textLength="78" x="96" y="206.5117">+getSkills()</text><text fill="#000000" font-family="sans-serif" font-size="14" lengthAdjust="spacing" textLength="178" x="96" y="223">+createSelectedSkillsList()</text><text fill="#000000" font-family="sans-serif" font-size="14" lengthAdjust="spacing" textLength="198" x="96" y="239.4883">+addSelectedSkill(skillName)</text><text fill="#000000" font-family="sans-serif" font-size="14" lengthAdjust="spacing" textLength="158" x="96" y="255.9766">+getSelectedSkillsList()</text><text fill="#000000" font-family="sans-serif" font-size="14" lengthAdjust="spacing" textLength="365" x="96" y="272.4648">+getCollaboratorByIdNumber(collaboratorIdNumber)</text><text fill="#000000" font-family="sans-serif" font-size="14" lengthAdjust="spacing" textLength="299" x="96" y="288.9531">+assignSkill(collaborator, selectedSkillsList)</text></g><!--class AssignSkillsUI--><g id="elem_AssignSkillsUI"><rect codeLine="42" fill="#F1F1F1" height="48" id="AssignSkillsUI" rx="2.5" ry="2.5" style="stroke:#181818;stroke-width:0.5;" width="127" x="250" y="7"/><ellipse cx="265" cy="23" fill="#ADD1B2" rx="11" ry="11" style="stroke:#181818;stroke-width:1.0;"/><path d="M267.9731,28.6431 Q267.3921,28.9419 266.7529,29.0913 Q266.1138,29.2407 265.4082,29.2407 Q262.9014,29.2407 261.5815,27.5889 Q260.2617,25.937 260.2617,22.8159 Q260.2617,19.6865 261.5815,18.0347 Q262.9014,16.3828 265.4082,16.3828 Q266.1138,16.3828 266.7612,16.5322 Q267.4087,16.6816 267.9731,16.9805 L267.9731,19.7031 Q267.3423,19.1221 266.7488,18.8523 Q266.1553,18.5825 265.5244,18.5825 Q264.1797,18.5825 263.4949,19.6492 Q262.8101,20.7158 262.8101,22.8159 Q262.8101,24.9077 263.4949,25.9744 Q264.1797,27.041 265.5244,27.041 Q266.1553,27.041 266.7488,26.7712 Q267.3423,26.5015 267.9731,25.9204 Z " fill="#000000"/><text fill="#000000" font-family="sans-serif" font-size="14" lengthAdjust="spacing" textLength="95" x="279" y="28.291">AssignSkillsUI</text><line style="stroke:#181818;stroke-width:0.5;" x1="251" x2="376" y1="39" y2="39"/><line style="stroke:#181818;stroke-width:0.5;" x1="251" x2="376" y1="47" y2="47"/></g><!--class Repositories--><g id="elem_Repositories"><rect codeLine="45" fill="#F1F1F1" height="113.9531" id="Repositories" rx="2.5" ry="2.5" style="stroke:#181818;stroke-width:0.5;" width="215" x="206" y="434.91"/><ellipse cx="266.75" cy="450.91" fill="#ADD1B2" rx="11" ry="11" style="stroke:#181818;stroke-width:1.0;"/><path d="M269.7231,456.5531 Q269.1421,456.8519 268.5029,457.0013 Q267.8638,457.1507 267.1582,457.1507 Q264.6514,457.1507 263.3315,455.4989 Q262.0117,453.847 262.0117,450.7259 Q262.0117,447.5965 263.3315,445.9447 Q264.6514,444.2928 267.1582,444.2928 Q267.8638,444.2928 268.5112,444.4422 Q269.1587,444.5916 269.7231,444.8905 L269.7231,447.6131 Q269.0923,447.0321 268.4988,446.7623 Q267.9053,446.4925 267.2744,446.4925 Q265.9297,446.4925 265.2449,447.5592 Q264.5601,448.6258 264.5601,450.7259 Q264.5601,452.8177 265.2449,453.8844 Q265.9297,454.951 267.2744,454.951 Q267.9053,454.951 268.4988,454.6812 Q269.0923,454.4115 269.7231,453.8304 Z " fill="#000000"/><text fill="#000000" font-family="sans-serif" font-size="14" lengthAdjust="spacing" textLength="85" x="287.25" y="456.201">Repositories</text><line style="stroke:#181818;stroke-width:0.5;" x1="207" x2="420" y1="466.91" y2="466.91"/><line style="stroke:#181818;stroke-width:0.5;" x1="207" x2="420" y1="474.91" y2="474.91"/><text fill="#000000" font-family="sans-serif" font-size="14" lengthAdjust="spacing" textLength="103" x="212" y="492.4452">-Repositories()</text><text fill="#000000" font-family="sans-serif" font-size="14" lengthAdjust="spacing" textLength="197" x="212" y="508.9334">+getInstance() : Repositories</text><text fill="#000000" font-family="sans-serif" font-size="14" lengthAdjust="spacing" textLength="144" x="212" y="525.4217">+getSkillRepository()</text><text fill="#000000" font-family="sans-serif" font-size="14" lengthAdjust="spacing" textLength="203" x="212" y="541.91">+getCollaboratorRepository()</text></g><!--class SkillRepository--><g id="elem_SkillRepository"><rect codeLine="52" fill="#F1F1F1" height="113.9531" id="SkillRepository" rx="2.5" ry="2.5" style="stroke:#181818;stroke-width:0.5;" width="203" x="7" y="687.86"/><ellipse cx="53.75" cy="703.86" fill="#ADD1B2" rx="11" ry="11" style="stroke:#181818;stroke-width:1.0;"/><path d="M56.7231,709.5031 Q56.1421,709.8019 55.5029,709.9513 Q54.8638,710.1007 54.1582,710.1007 Q51.6514,710.1007 50.3315,708.4489 Q49.0117,706.797 49.0117,703.6759 Q49.0117,700.5465 50.3315,698.8947 Q51.6514,697.2428 54.1582,697.2428 Q54.8638,697.2428 55.5112,697.3922 Q56.1587,697.5416 56.7231,697.8405 L56.7231,700.5631 Q56.0923,699.9821 55.4988,699.7123 Q54.9053,699.4425 54.2744,699.4425 Q52.9297,699.4425 52.2449,700.5092 Q51.5601,701.5758 51.5601,703.6759 Q51.5601,705.7677 52.2449,706.8344 Q52.9297,707.901 54.2744,707.901 Q54.9053,707.901 55.4988,707.6312 Q56.0923,707.3615 56.7231,706.7804 Z " fill="#000000"/><text fill="#000000" font-family="sans-serif" font-size="14" lengthAdjust="spacing" textLength="101" x="74.25" y="709.151">SkillRepository</text><line style="stroke:#181818;stroke-width:0.5;" x1="8" x2="209" y1="719.86" y2="719.86"/><line style="stroke:#181818;stroke-width:0.5;" x1="8" x2="209" y1="727.86" y2="727.86"/><text fill="#000000" font-family="sans-serif" font-size="14" lengthAdjust="spacing" textLength="78" x="13" y="745.3952">+getSkills()</text><text fill="#000000" font-family="sans-serif" font-size="14" lengthAdjust="spacing" textLength="191" x="13" y="761.8834">+getSkillByName(skillName)</text><text fill="#000000" font-family="sans-serif" font-size="14" lengthAdjust="spacing" textLength="74" x="13" y="778.3717">+add(skill)</text><text fill="#000000" font-family="sans-serif" font-size="14" lengthAdjust="spacing" textLength="158" x="13" y="794.86">+getSelectedSkillsList()</text></g><!--class CollaboratorRepository--><g id="elem_CollaboratorRepository"><rect codeLine="59" fill="#F1F1F1" height="97.4648" id="CollaboratorRepository" rx="2.5" ry="2.5" style="stroke:#181818;stroke-width:0.5;" width="377" x="269" y="696.1"/><ellipse cx="373.25" cy="712.1" fill="#ADD1B2" rx="11" ry="11" style="stroke:#181818;stroke-width:1.0;"/><path d="M376.2231,717.7431 Q375.6421,718.0419 375.0029,718.1913 Q374.3638,718.3407 373.6582,718.3407 Q371.1514,718.3407 369.8315,716.6889 Q368.5117,715.037 368.5117,711.9159 Q368.5117,708.7865 369.8315,707.1347 Q371.1514,705.4828 373.6582,705.4828 Q374.3638,705.4828 375.0112,705.6322 Q375.6587,705.7816 376.2231,706.0805 L376.2231,708.8031 Q375.5923,708.2221 374.9988,707.9523 Q374.4053,707.6825 373.7744,707.6825 Q372.4297,707.6825 371.7449,708.7492 Q371.0601,709.8158 371.0601,711.9159 Q371.0601,714.0077 371.7449,715.0744 Q372.4297,716.141 373.7744,716.141 Q374.4053,716.141 374.9988,715.8712 Q375.5923,715.6015 376.2231,715.0204 Z " fill="#000000"/><text fill="#000000" font-family="sans-serif" font-size="14" lengthAdjust="spacing" textLength="160" x="393.75" y="717.391">CollaboratorRepository</text><line style="stroke:#181818;stroke-width:0.5;" x1="270" x2="645" y1="728.1" y2="728.1"/><line style="stroke:#181818;stroke-width:0.5;" x1="270" x2="645" y1="736.1" y2="736.1"/><text fill="#000000" font-family="sans-serif" font-size="14" lengthAdjust="spacing" textLength="137" x="275" y="753.6352">+getCollaborators()</text><text fill="#000000" font-family="sans-serif" font-size="14" lengthAdjust="spacing" textLength="365" x="275" y="770.1234">+getCollaboratorByIdNumber(collaboratorIdNumber)</text><text fill="#000000" font-family="sans-serif" font-size="14" lengthAdjust="spacing" textLength="299" x="275" y="786.6117">+assignSkill(collaborator, selectedSkillsList)</text></g><!--link Collaborator to Skill--><g id="link_Collaborator_Skill"><path codeLine="66" d="M298.91,1108.57 C258.36,1137.74 222.5605,1163.4859 192.1905,1185.3359 " fill="none" id="Collaborator-to-Skill" style="stroke:#181818;stroke-width:1.0;"/><polygon fill="#181818" points="187.32,1188.84,196.9617,1186.8308,191.3787,1185.9199,192.2896,1180.3369,187.32,1188.84" style="stroke:#181818;stroke-width:1.0;"/><text fill="#000000" font-family="sans-serif" font-size="13" lengthAdjust="spacing" textLength="71" x="251.5" y="1151.7484">is assigned</text><text fill="#000000" font-family="sans-serif" font-size="13" lengthAdjust="spacing" textLength="8" x="281.0022" y="1128.6172">1</text><text fill="#000000" font-family="sans-serif" font-size="13" lengthAdjust="spacing" textLength="6" x="195.0779" y="1179.9204">*</text></g><!--link AssignSkillsUI to AssignSkillsController--><g id="link_AssignSkillsUI_AssignSkillsController"><path codeLine="67" d="M313.5,55.33 C313.5,71.18 313.5,87.27 313.5,109.62 " fill="none" id="AssignSkillsUI-to-AssignSkillsController" style="stroke:#181818;stroke-width:1.0;stroke-dasharray:7.0,7.0;"/><polygon fill="#181818" points="313.5,115.62,317.5,106.62,313.5,110.62,309.5,106.62,313.5,115.62" style="stroke:#181818;stroke-width:1.0;"/></g><!--link AssignSkillsController to Repositories--><g id="link_AssignSkillsController_Repositories"><path codeLine="68" d="M313.5,296.4 C313.5,341.59 313.5,389.04 313.5,428.46 " fill="none" id="AssignSkillsController-to-Repositories" style="stroke:#181818;stroke-width:1.0;stroke-dasharray:7.0,7.0;"/><polygon fill="#181818" points="313.5,434.46,317.5,425.46,313.5,429.46,309.5,425.46,313.5,434.46" style="stroke:#181818;stroke-width:1.0;"/><text fill="#000000" font-family="sans-serif" font-size="13" lengthAdjust="spacing" textLength="75" x="314.5" y="370.4784">repositories</text></g><!--link AssignSkillsController to SkillRepository--><g id="link_AssignSkillsController_SkillRepository"><path codeLine="69" d="M102.8,296.37 C86.09,315.18 75.5,337.65 75.5,364.41 C75.5,364.41 75.5,364.41 75.5,619.36 C75.5,642.16 79.0227,660.811 85.3227,681.901 " fill="none" id="AssignSkillsController-to-SkillRepository" style="stroke:#181818;stroke-width:1.0;stroke-dasharray:7.0,7.0;"/><polygon fill="#181818" points="87.04,687.65,88.2967,677.8816,85.6089,682.8592,80.6313,680.1714,87.04,687.65" style="stroke:#181818;stroke-width:1.0;"/><text fill="#000000" font-family="sans-serif" font-size="13" lengthAdjust="spacing" textLength="94" x="76.5" y="496.9484">skillRepository</text></g><!--link AssignSkillsController to CollaboratorRepository--><g id="link_AssignSkillsController_CollaboratorRepository"><path codeLine="70" d="M537.35,286.83 C559.22,307.27 573.5,332.74 573.5,364.41 C573.5,364.41 573.5,364.41 573.5,619.36 C573.5,649.49 559.5093,671.3226 537.3593,691.5626 " fill="none" id="AssignSkillsController-to-CollaboratorRepository" style="stroke:#181818;stroke-width:1.0;stroke-dasharray:7.0,7.0;"/><polygon fill="#181818" points="532.93,695.61,542.2722,692.4918,536.6211,692.2372,536.8757,686.5861,532.93,695.61" style="stroke:#181818;stroke-width:1.0;"/><text fill="#000000" font-family="sans-serif" font-size="13" lengthAdjust="spacing" textLength="143" x="574.5" y="496.9484">collaboratorRepository</text></g><!--link Repositories to Repositories--><g id="link_Repositories_Repositories"><path codeLine="72" d="M421.31,476.29 C441.65,478.19 456,483.38 456,491.88 C456,500.38 447.6243,505.0249 427.2843,506.9149 " fill="none" id="Repositories-to-Repositories" style="stroke:#181818;stroke-width:1.0;"/><polygon fill="#181818" points="421.31,507.47,430.6415,510.6201,426.2886,507.0074,429.9013,502.6545,421.31,507.47" style="stroke:#181818;stroke-width:1.0;"/><text fill="#000000" font-family="sans-serif" font-size="13" lengthAdjust="spacing" textLength="53" x="462" y="496.9484">instance</text></g><!--link Repositories to SkillRepository--><g id="link_Repositories_SkillRepository"><path codeLine="73" d="M267.49,549.2 C233.73,590.53 191.8764,641.7738 158.1464,683.0538 " fill="none" id="Repositories-to-SkillRepository" style="stroke:#181818;stroke-width:1.0;"/><polygon fill="#181818" points="154.35,687.7,163.1421,683.2616,157.5137,683.8282,156.9472,678.1998,154.35,687.7" style="stroke:#181818;stroke-width:1.0;"/><text fill="#000000" font-family="sans-serif" font-size="13" lengthAdjust="spacing" textLength="94" x="219.5" y="623.4284">skillRepository</text><text fill="#000000" font-family="sans-serif" font-size="13" lengthAdjust="spacing" textLength="8" x="151.712" y="677.0067">1</text></g><!--link Repositories to CollaboratorRepository--><g id="link_Repositories_CollaboratorRepository"><path codeLine="74" d="M345.82,549.2 C371.11,593.28 402.9135,648.7061 426.9135,690.5261 " fill="none" id="Repositories-to-CollaboratorRepository" style="stroke:#181818;stroke-width:1.0;"/><polygon fill="#181818" points="429.9,695.73,428.8896,685.9331,427.4113,691.3934,421.951,689.9151,429.9,695.73" style="stroke:#181818;stroke-width:1.0;"/><text fill="#000000" font-family="sans-serif" font-size="13" lengthAdjust="spacing" textLength="143" x="390.5" y="623.4284">collaboratorRepository</text><text fill="#000000" font-family="sans-serif" font-size="13" lengthAdjust="spacing" textLength="8" x="417.4562" y="685.3605">1</text></g><!--link SkillRepository to Skill--><g id="link_SkillRepository_Skill"><path codeLine="76" d="M110.52,802.06 C113.25,873.34 118.71,999.97 126.5,1108.18 C128.34,1133.71 130.4298,1156.3601 132.6898,1178.8401 " fill="none" id="SkillRepository-to-Skill" style="stroke:#181818;stroke-width:1.0;"/><polygon fill="#181818" points="133.29,1184.81,136.3697,1175.455,132.7899,1179.8351,128.4098,1176.2553,133.29,1184.81" style="stroke:#181818;stroke-width:1.0;"/><text fill="#000000" font-family="sans-serif" font-size="13" lengthAdjust="spacing" textLength="34" x="127.5" y="998.5684">skills</text></g><!--link CollaboratorRepository to Collaborator--><g id="link_CollaboratorRepository_Collaborator"><path codeLine="77" d="M457.5,793.98 C457.5,818.24 457.5,842.76 457.5,872.56 " fill="none" id="CollaboratorRepository-to-Collaborator" style="stroke:#181818;stroke-width:1.0;"/><polygon fill="#181818" points="457.5,878.56,461.5,869.56,457.5,873.56,453.5,869.56,457.5,878.56" style="stroke:#181818;stroke-width:1.0;"/><text fill="#000000" font-family="sans-serif" font-size="13" lengthAdjust="spacing" textLength="83" x="458.5" y="845.3784">collaborators</text></g><!--SRC=[lLGzZzim3DtrAmWl5pTEq5iz1BYF9K1nGzDkNHIPSOJ8aY4fQDtY_dlbRycnS-XIJn8VIJq-adum5ovBgca1XPAAdRKg4Ao-8XcHah8BpV5WAu6WaLagS-4xc3FDr4ykSpXHONn4S8csAX5A9QhwCeSfRHNn02QeCK_MQdwyMjmp9G_yDy9dGXu4dYnO1PhdPmiPhzbm9GbfOk1muKAGFmJSjm592soEwnPOrOQOlFVUBqe8UbIQMgNX9cW3HwxjEQEslzEiuCQuvrvzMwRHcEvMdfN4jsjnHDrPiA1ST6TBVvMqGXquy0obvIVEQ5t8gsBNmXc-ELtkEdWvra4XJP79o3q9QISzuyGdcxGy4_WXGvB97Nx9NMen6OL-Si_dikc1UL7IQiSNUydNG6VX5VEg-egbCjmTgWHCxJWQuYvBZjRNmQmyeCqzM9X69yK1XPiUp5hm2pTsS70Q1UYgUVEj6PynwNByXCjpjSzQLOAYUcDygqFWvqg-UIgUL_Vxtgaw88D87CqmuBxH9xoNnYqsmrKCQU0qaN5KVgdSmECzsCqH6hf_svxUybpLYjzgxxhJ6ZzgnkocprDO79t_qKSI_8cYnmWscnr4dw9Mj1IuwP9YHYRjtcvt2_j55jPkMuVu3KxTJzrhzsBORjh3TBgBzsBdUv32_9eJ4Wpl9cJi9fHtuphnQuHxZ3vcEX_shoIdGrtdwNhMF6Z8mkZLZZuKFc48-Gi0]--></g></svg>