<?xml version="1.0" encoding="us-ascii" standalone="no"?><svg xmlns="http://www.w3.org/2000/svg" xmlns:xlink="http://www.w3.org/1999/xlink" contentStyleType="text/css" height="522px" preserveAspectRatio="none" style="width:1096px;height:522px;background:#FFFFFF;" version="1.1" viewBox="0 0 1096 522" width="1096px" zoomAndPan="magnify"><defs/><g><rect fill="#FFFFFF" height="368.0371" style="stroke:#181818;stroke-width:1.0;" width="10" x="154" y="84.2871"/><rect fill="#FFFFFF" height="29.3105" style="stroke:#181818;stroke-width:1.0;" width="10" x="300" y="137.9082"/><rect fill="#FFFFFF" height="29.3105" style="stroke:#181818;stroke-width:1.0;" width="10" x="413" y="196.5293"/><rect fill="#FFFFFF" height="160.8633" style="stroke:#181818;stroke-width:1.0;" width="10" x="562" y="255.1504"/><rect fill="#FFFFFF" height="86.9316" style="stroke:#181818;stroke-width:1.0;" width="10" x="826" y="299.7715"/><rect fill="none" height="324.7266" style="stroke:#000000;stroke-width:1.5;" width="1025.5" x="64.5" y="99.2871"/><line style="stroke:#181818;stroke-width:0.5;stroke-dasharray:5.0,5.0;" x1="158.5" x2="158.5" y1="52.9766" y2="470.3242"/><line style="stroke:#181818;stroke-width:0.5;stroke-dasharray:5.0,5.0;" x1="304.5" x2="304.5" y1="52.9766" y2="470.3242"/><line style="stroke:#181818;stroke-width:0.5;stroke-dasharray:5.0,5.0;" x1="417.5" x2="417.5" y1="52.9766" y2="470.3242"/><line style="stroke:#181818;stroke-width:0.5;stroke-dasharray:5.0,5.0;" x1="566.5" x2="566.5" y1="52.9766" y2="470.3242"/><line style="stroke:#181818;stroke-width:0.5;stroke-dasharray:5.0,5.0;" x1="830.5" x2="830.5" y1="52.9766" y2="470.3242"/><rect fill="#E3E3E3" height="30.4883" rx="2.5" ry="2.5" style="stroke:#181818;stroke-width:0.5;" width="169" x="74.5" y="21.4883"/><text fill="#000000" font-family="sans-serif" font-size="14" lengthAdjust="spacing" textLength="155" x="81.5" y="42.0234">:AssignSkillsController</text><rect fill="#E3E3E3" height="30.4883" rx="2.5" ry="2.5" style="stroke:#181818;stroke-width:0.5;" width="169" x="74.5" y="469.3242"/><text fill="#000000" font-family="sans-serif" font-size="14" lengthAdjust="spacing" textLength="155" x="81.5" y="489.8594">:AssignSkillsController</text><rect fill="#E3E3E3" height="30.4883" rx="2.5" ry="2.5" style="stroke:#181818;stroke-width:0.5;" width="103" x="253.5" y="21.4883"/><text fill="#000000" font-family="sans-serif" font-size="14" lengthAdjust="spacing" textLength="89" x="260.5" y="42.0234">:Repositories</text><rect fill="#E3E3E3" height="30.4883" rx="2.5" ry="2.5" style="stroke:#181818;stroke-width:0.5;" width="103" x="253.5" y="469.3242"/><text fill="#000000" font-family="sans-serif" font-size="14" lengthAdjust="spacing" textLength="89" x="260.5" y="489.8594">:Repositories</text><rect fill="#E3E3E3" height="46.9766" rx="2.5" ry="2.5" style="stroke:#181818;stroke-width:0.5;" width="103" x="366.5" y="5"/><text fill="#000000" font-family="sans-serif" font-size="14" lengthAdjust="spacing" textLength="82" x="377" y="25.5352">repositories</text><text fill="#000000" font-family="sans-serif" font-size="14" lengthAdjust="spacing" textLength="89" x="373.5" y="42.0234">:Repositories</text><rect fill="#E3E3E3" height="46.9766" rx="2.5" ry="2.5" style="stroke:#181818;stroke-width:0.5;" width="103" x="366.5" y="469.3242"/><text fill="#000000" font-family="sans-serif" font-size="14" lengthAdjust="spacing" textLength="82" x="377" y="489.8594">repositories</text><text fill="#000000" font-family="sans-serif" font-size="14" lengthAdjust="spacing" textLength="89" x="373.5" y="506.3477">:Repositories</text><rect fill="#E3E3E3" height="46.9766" rx="2.5" ry="2.5" style="stroke:#181818;stroke-width:0.5;" width="175" x="479.5" y="5"/><text fill="#000000" font-family="sans-serif" font-size="14" lengthAdjust="spacing" textLength="161" x="486.5" y="25.5352">collaboratorRepository:</text><text fill="#000000" font-family="sans-serif" font-size="14" lengthAdjust="spacing" textLength="160" x="487" y="42.0234">CollaboratorRepository</text><rect fill="#E3E3E3" height="46.9766" rx="2.5" ry="2.5" style="stroke:#181818;stroke-width:0.5;" width="175" x="479.5" y="469.3242"/><text fill="#000000" font-family="sans-serif" font-size="14" lengthAdjust="spacing" textLength="161" x="486.5" y="489.8594">collaboratorRepository:</text><text fill="#000000" font-family="sans-serif" font-size="14" lengthAdjust="spacing" textLength="160" x="487" y="506.3477">CollaboratorRepository</text><rect fill="#E3E3E3" height="30.4883" rx="2.5" ry="2.5" style="stroke:#181818;stroke-width:0.5;" width="101" x="780.5" y="21.4883"/><text fill="#000000" font-family="sans-serif" font-size="14" lengthAdjust="spacing" textLength="87" x="787.5" y="42.0234">Collaborator</text><rect fill="#E3E3E3" height="30.4883" rx="2.5" ry="2.5" style="stroke:#181818;stroke-width:0.5;" width="101" x="780.5" y="469.3242"/><text fill="#000000" font-family="sans-serif" font-size="14" lengthAdjust="spacing" textLength="87" x="787.5" y="489.8594">Collaborator</text><rect fill="#FFFFFF" height="368.0371" style="stroke:#181818;stroke-width:1.0;" width="10" x="154" y="84.2871"/><rect fill="#FFFFFF" height="29.3105" style="stroke:#181818;stroke-width:1.0;" width="10" x="300" y="137.9082"/><rect fill="#FFFFFF" height="29.3105" style="stroke:#181818;stroke-width:1.0;" width="10" x="413" y="196.5293"/><rect fill="#FFFFFF" height="160.8633" style="stroke:#181818;stroke-width:1.0;" width="10" x="562" y="255.1504"/><rect fill="#FFFFFF" height="86.9316" style="stroke:#181818;stroke-width:1.0;" width="10" x="826" y="299.7715"/><polygon fill="#181818" points="142,80.2871,152,84.2871,142,88.2871,146,84.2871" style="stroke:#181818;stroke-width:1.0;"/><line style="stroke:#181818;stroke-width:1.0;" x1="0" x2="148" y1="84.2871" y2="84.2871"/><text fill="#000000" font-family="sans-serif" font-size="13" font-weight="bold" lengthAdjust="spacing" textLength="18" x="7" y="79.5449">27</text><text fill="#000000" font-family="sans-serif" font-size="13" lengthAdjust="spacing" textLength="113" x="29" y="79.5449">getCollaborators()</text><path d="M64.5,99.2871 L203.5,99.2871 L203.5,106.5977 L193.5,116.5977 L64.5,116.5977 L64.5,99.2871 " fill="#EEEEEE" style="stroke:#000000;stroke-width:1.5;"/><rect fill="none" height="324.7266" style="stroke:#000000;stroke-width:1.5;" width="1025.5" x="64.5" y="99.2871"/><text fill="#000000" font-family="sans-serif" font-size="13" font-weight="bold" lengthAdjust="spacing" textLength="94" x="79.5" y="112.8555">Assign Skill(s)</text><polygon fill="#181818" points="288,133.9082,298,137.9082,288,141.9082,292,137.9082" style="stroke:#181818;stroke-width:1.0;"/><line style="stroke:#181818;stroke-width:1.0;" x1="164" x2="294" y1="137.9082" y2="137.9082"/><text fill="#000000" font-family="sans-serif" font-size="13" font-weight="bold" lengthAdjust="spacing" textLength="30" x="171" y="133.166">27.1</text><text fill="#000000" font-family="sans-serif" font-size="13" lengthAdjust="spacing" textLength="81" x="205" y="133.166">getInstance()</text><polygon fill="#181818" points="175,163.2188,165,167.2188,175,171.2188,171,167.2188" style="stroke:#181818;stroke-width:1.0;"/><line style="stroke:#181818;stroke-width:1.0;stroke-dasharray:2.0,2.0;" x1="169" x2="304" y1="167.2188" y2="167.2188"/><text fill="#000000" font-family="sans-serif" font-size="13" font-weight="bold" lengthAdjust="spacing" textLength="30" x="181" y="162.4766">27.2</text><text fill="#000000" font-family="sans-serif" font-size="13" lengthAdjust="spacing" textLength="75" x="215" y="162.4766">repositories</text><polygon fill="#181818" points="401,192.5293,411,196.5293,401,200.5293,405,196.5293" style="stroke:#181818;stroke-width:1.0;"/><line style="stroke:#181818;stroke-width:1.0;" x1="164" x2="407" y1="196.5293" y2="196.5293"/><text fill="#000000" font-family="sans-serif" font-size="13" font-weight="bold" lengthAdjust="spacing" textLength="30" x="171" y="191.7871">27.3</text><text fill="#000000" font-family="sans-serif" font-size="13" lengthAdjust="spacing" textLength="173" x="205" y="191.7871">getCollaboratorRepository()</text><polygon fill="#181818" points="175,221.8398,165,225.8398,175,229.8398,171,225.8398" style="stroke:#181818;stroke-width:1.0;"/><line style="stroke:#181818;stroke-width:1.0;stroke-dasharray:2.0,2.0;" x1="169" x2="417" y1="225.8398" y2="225.8398"/><text fill="#000000" font-family="sans-serif" font-size="13" font-weight="bold" lengthAdjust="spacing" textLength="30" x="181" y="221.0977">27.4</text><text fill="#000000" font-family="sans-serif" font-size="13" lengthAdjust="spacing" textLength="143" x="215" y="221.0977">collaboratorRepository</text><polygon fill="#181818" points="550,251.1504,560,255.1504,550,259.1504,554,255.1504" style="stroke:#181818;stroke-width:1.0;"/><line style="stroke:#181818;stroke-width:1.0;" x1="164" x2="556" y1="255.1504" y2="255.1504"/><text fill="#000000" font-family="sans-serif" font-size="13" font-weight="bold" lengthAdjust="spacing" textLength="30" x="171" y="250.4082">27.5</text><text fill="#000000" font-family="sans-serif" font-size="13" lengthAdjust="spacing" textLength="269" x="205" y="250.4082">assignSkill(collaborator, skillsSelectedList)</text><polygon fill="#181818" points="814,295.7715,824,299.7715,814,303.7715,818,299.7715" style="stroke:#181818;stroke-width:1.0;"/><line style="stroke:#181818;stroke-width:1.0;" x1="572" x2="820" y1="299.7715" y2="299.7715"/><text fill="#000000" font-family="sans-serif" font-size="13" font-weight="bold" lengthAdjust="spacing" textLength="30" x="579" y="287.374">27.6</text><text fill="#000000" font-family="sans-serif" font-size="13" lengthAdjust="spacing" textLength="68" x="613" y="279.7188">assignSkill</text><text fill="#000000" font-family="sans-serif" font-size="13" lengthAdjust="spacing" textLength="201" x="613" y="295.0293">(collaborator, skillsSelectedList)</text><line style="stroke:#181818;stroke-width:1.0;" x1="836" x2="878" y1="344.3926" y2="344.3926"/><line style="stroke:#181818;stroke-width:1.0;" x1="878" x2="878" y1="344.3926" y2="357.3926"/><line style="stroke:#181818;stroke-width:1.0;" x1="837" x2="878" y1="357.3926" y2="357.3926"/><polygon fill="#181818" points="847,353.3926,837,357.3926,847,361.3926,843,357.3926" style="stroke:#181818;stroke-width:1.0;"/><text fill="#000000" font-family="sans-serif" font-size="13" font-weight="bold" lengthAdjust="spacing" textLength="30" x="843" y="331.9951">27.7</text><text fill="#000000" font-family="sans-serif" font-size="13" lengthAdjust="spacing" textLength="68" x="877" y="324.3398">assignSkill</text><text fill="#000000" font-family="sans-serif" font-size="13" lengthAdjust="spacing" textLength="201" x="877" y="339.6504">(collaborator, skillsSelectedList)</text><polygon fill="#181818" points="583,382.7031,573,386.7031,583,390.7031,579,386.7031" style="stroke:#181818;stroke-width:1.0;"/><line style="stroke:#181818;stroke-width:1.0;stroke-dasharray:2.0,2.0;" x1="577" x2="830" y1="386.7031" y2="386.7031"/><text fill="#000000" font-family="sans-serif" font-size="13" font-weight="bold" lengthAdjust="spacing" textLength="30" x="589" y="381.9609">27.8</text><text fill="#000000" font-family="sans-serif" font-size="13" lengthAdjust="spacing" textLength="76" x="623" y="381.9609">collaborator</text><polygon fill="#181818" points="175,412.0137,165,416.0137,175,420.0137,171,416.0137" style="stroke:#181818;stroke-width:1.0;"/><line style="stroke:#181818;stroke-width:1.0;stroke-dasharray:2.0,2.0;" x1="169" x2="566" y1="416.0137" y2="416.0137"/><text fill="#000000" font-family="sans-serif" font-size="13" font-weight="bold" lengthAdjust="spacing" textLength="30" x="181" y="411.2715">27.9</text><text fill="#000000" font-family="sans-serif" font-size="13" lengthAdjust="spacing" textLength="76" x="215" y="411.2715">collaborator</text><polygon fill="#181818" points="11,448.3242,1,452.3242,11,456.3242,7,452.3242" style="stroke:#181818;stroke-width:1.0;"/><line style="stroke:#181818;stroke-width:1.0;stroke-dasharray:2.0,2.0;" x1="5" x2="158" y1="452.3242" y2="452.3242"/><text fill="#000000" font-family="sans-serif" font-size="13" font-weight="bold" lengthAdjust="spacing" textLength="18" x="17" y="447.582">28</text><text fill="#000000" font-family="sans-serif" font-size="13" lengthAdjust="spacing" textLength="76" x="39" y="447.582">collaborator</text><!--SRC=[fLFBQiCm4BphAvQS7AWBxQN5b4B8gP13YNFCHN6sZeWi6QtSah-lB3UsxAXltRIFcT6ibev2rTpm2YgjT74mkaAmfa56VQRcnP6NcDkJH31OMAvA6HRGWU_rcr0bl719o9WBMr68cYiBisn194gL7uMKjDJA6YqbcXbmWkLclPfKhx7M9Ams0idNz85JBbfYgzMunGGTMtK9yBnQRCOTXLF0TzfmLpN0PrkrZ2OwgT4KOxnnWffgXmPkxrZwwDy46PHemnPAvfFQwniNAAnuvHOx8y2TqkYcXiuoy9ubDFUPzdXinn7nfADyKkJ6Ks0ozFGSCIFxgXXY-l6Q34AB-vOz_WpwBBgTmwKnGsjCivzT7_O8Wwhu66FwnZ1dGN4PJY8VVcmIabm1-L-SetHhWFkL81iH_TbNwVdZl1D58nbRzLyXSVefAVoTTGpxbRqXPcnQtyiENHjMxZUuqxcWsdUxrrt3JRttaOSqZVAmaA3TOlOE]--></g></svg>