<?xml version="1.0" encoding="us-ascii" standalone="no"?><svg xmlns="http://www.w3.org/2000/svg" xmlns:xlink="http://www.w3.org/1999/xlink" contentStyleType="text/css" height="895px" preserveAspectRatio="none" style="width:820px;height:895px;background:#FFFFFF;" version="1.1" viewBox="0 0 820 895" width="820px" zoomAndPan="magnify"><defs/><g><text fill="#000000" font-family="sans-serif" font-size="14" font-weight="bold" lengthAdjust="spacing" textLength="376" x="219.5" y="28.5352">US004 - Assign one or more skills to a collaborator</text><rect fill="#FFFFFF" height="667.0977" style="stroke:#181818;stroke-width:1.0;" width="10" x="33.5" y="128.9766"/><rect fill="#FFFFFF" height="173.8633" style="stroke:#181818;stroke-width:1.0;" width="10" x="401.5" y="150.2871"/><rect fill="#FFFFFF" height="156.6855" style="stroke:#181818;stroke-width:1.0;" width="10" x="401.5" y="353.4609"/><rect fill="#FFFFFF" height="29.3105" style="stroke:#181818;stroke-width:1.0;" width="10" x="401.5" y="539.457"/><rect fill="#FFFFFF" height="36.3105" style="stroke:#181818;stroke-width:1.0;" width="10" x="401.5" y="598.0781"/><rect fill="#FFFFFF" height="132.375" style="stroke:#181818;stroke-width:1.0;" width="10" x="401.5" y="663.6992"/><rect fill="#FFFFFF" height="73.7539" style="stroke:#181818;stroke-width:1.0;" width="10" x="721.5" y="221.0859"/><rect fill="#FFFFFF" height="73.7539" style="stroke:#181818;stroke-width:1.0;" width="10" x="721.5" y="382.7715"/><rect fill="#FFFFFF" height="73.7539" style="stroke:#181818;stroke-width:1.0;" width="10" x="721.5" y="693.0098"/><rect fill="none" height="134.5527" style="stroke:#000000;stroke-width:1.5;" width="463" x="10" y="471.5254"/><line style="stroke:#181818;stroke-width:0.5;stroke-dasharray:5.0,5.0;" x1="38" x2="38" y1="118.9766" y2="814.0742"/><line style="stroke:#181818;stroke-width:0.5;stroke-dasharray:5.0,5.0;" x1="406" x2="406" y1="118.9766" y2="814.0742"/><line style="stroke:#181818;stroke-width:0.5;stroke-dasharray:5.0,5.0;" x1="726" x2="726" y1="189.0313" y2="814.0742"/><text fill="#000000" font-family="sans-serif" font-size="14" lengthAdjust="spacing" textLength="31" x="20" y="116.0234">HRM</text><ellipse cx="38.5" cy="50.9883" fill="#E3E3E3" rx="8" ry="8" style="stroke:#181818;stroke-width:0.5;"/><path d="M38.5,58.9883 L38.5,85.9883 M25.5,66.9883 L51.5,66.9883 M38.5,85.9883 L25.5,100.9883 M38.5,85.9883 L51.5,100.9883 " fill="none" style="stroke:#181818;stroke-width:0.5;"/><text fill="#000000" font-family="sans-serif" font-size="14" lengthAdjust="spacing" textLength="31" x="20" y="826.6094">HRM</text><ellipse cx="38.5" cy="838.0625" fill="#E3E3E3" rx="8" ry="8" style="stroke:#181818;stroke-width:0.5;"/><path d="M38.5,846.0625 L38.5,873.0625 M25.5,854.0625 L51.5,854.0625 M38.5,873.0625 L25.5,888.0625 M38.5,873.0625 L51.5,888.0625 " fill="none" style="stroke:#181818;stroke-width:0.5;"/><rect fill="#E3E3E3" height="30.4883" rx="2.5" ry="2.5" style="stroke:#181818;stroke-width:0.5;" width="113" x="350" y="87.4883"/><text fill="#000000" font-family="sans-serif" font-size="14" lengthAdjust="spacing" textLength="99" x="357" y="108.0234">:AssignSkillsUI</text><rect fill="#E3E3E3" height="30.4883" rx="2.5" ry="2.5" style="stroke:#181818;stroke-width:0.5;" width="113" x="350" y="813.0742"/><text fill="#000000" font-family="sans-serif" font-size="14" lengthAdjust="spacing" textLength="99" x="357" y="833.6094">:AssignSkillsUI</text><rect fill="#E3E3E3" height="30.4883" rx="2.5" ry="2.5" style="stroke:#181818;stroke-width:0.5;" width="169" x="642" y="813.0742"/><text fill="#000000" font-family="sans-serif" font-size="14" lengthAdjust="spacing" textLength="155" x="649" y="833.6094">:AssignSkillsController</text><rect fill="#FFFFFF" height="667.0977" style="stroke:#181818;stroke-width:1.0;" width="10" x="33.5" y="128.9766"/><rect fill="#FFFFFF" height="173.8633" style="stroke:#181818;stroke-width:1.0;" width="10" x="401.5" y="150.2871"/><rect fill="#FFFFFF" height="156.6855" style="stroke:#181818;stroke-width:1.0;" width="10" x="401.5" y="353.4609"/><rect fill="#FFFFFF" height="29.3105" style="stroke:#181818;stroke-width:1.0;" width="10" x="401.5" y="539.457"/><rect fill="#FFFFFF" height="36.3105" style="stroke:#181818;stroke-width:1.0;" width="10" x="401.5" y="598.0781"/><rect fill="#FFFFFF" height="132.375" style="stroke:#181818;stroke-width:1.0;" width="10" x="401.5" y="663.6992"/><rect fill="#FFFFFF" height="73.7539" style="stroke:#181818;stroke-width:1.0;" width="10" x="721.5" y="221.0859"/><rect fill="#FFFFFF" height="73.7539" style="stroke:#181818;stroke-width:1.0;" width="10" x="721.5" y="382.7715"/><rect fill="#FFFFFF" height="73.7539" style="stroke:#181818;stroke-width:1.0;" width="10" x="721.5" y="693.0098"/><polygon fill="#181818" points="389.5,146.2871,399.5,150.2871,389.5,154.2871,393.5,150.2871" style="stroke:#181818;stroke-width:1.0;"/><line style="stroke:#181818;stroke-width:1.0;" x1="43.5" x2="395.5" y1="150.2871" y2="150.2871"/><text fill="#000000" font-family="sans-serif" font-size="13" font-weight="bold" lengthAdjust="spacing" textLength="9" x="50.5" y="145.5449">1</text><text fill="#000000" font-family="sans-serif" font-size="13" lengthAdjust="spacing" textLength="245" x="63.5" y="145.5449">asks to assign skill(s) to a collaborator</text><polygon fill="#181818" points="630,175.5977,640,179.5977,630,183.5977,634,179.5977" style="stroke:#181818;stroke-width:1.0;"/><line style="stroke:#181818;stroke-width:1.0;" x1="411.5" x2="636" y1="179.5977" y2="179.5977"/><text fill="#000000" font-family="sans-serif" font-size="13" font-weight="bold" lengthAdjust="spacing" textLength="9" x="418.5" y="174.8555">2</text><text fill="#000000" font-family="sans-serif" font-size="13" lengthAdjust="spacing" textLength="38" x="431.5" y="174.8555">create</text><rect fill="#E3E3E3" height="30.4883" rx="2.5" ry="2.5" style="stroke:#181818;stroke-width:0.5;" width="169" x="642" y="158.2871"/><text fill="#000000" font-family="sans-serif" font-size="14" lengthAdjust="spacing" textLength="155" x="649" y="178.8223">:AssignSkillsController</text><polygon fill="#181818" points="709.5,217.0859,719.5,221.0859,709.5,225.0859,713.5,221.0859" style="stroke:#181818;stroke-width:1.0;"/><line style="stroke:#181818;stroke-width:1.0;" x1="411.5" x2="715.5" y1="221.0859" y2="221.0859"/><text fill="#000000" font-family="sans-serif" font-size="13" font-weight="bold" lengthAdjust="spacing" textLength="9" x="418.5" y="216.3438">3</text><text fill="#000000" font-family="sans-serif" font-size="13" lengthAdjust="spacing" textLength="113" x="431.5" y="216.3438">getCollaborators()</text><rect fill="none" height="39.4434" style="stroke:#000000;stroke-width:1.5;" width="175" x="639" y="229.0859"/><path d="M639,229.0859 L703,229.0859 L703,236.0859 L693,246.0859 L639,246.0859 L639,229.0859 " fill="#EEEEEE" style="stroke:#000000;stroke-width:2.0;"/><text fill="#000000" font-family="sans-serif" font-size="13" font-weight="bold" lengthAdjust="spacing" textLength="19" x="652" y="243.6543">ref</text><text fill="#000000" font-family="sans-serif" font-size="12" lengthAdjust="spacing" textLength="101" x="676" y="261.6875">Get Collaborators</text><polygon fill="#181818" points="422.5,290.8398,412.5,294.8398,422.5,298.8398,418.5,294.8398" style="stroke:#181818;stroke-width:1.0;"/><line style="stroke:#181818;stroke-width:1.0;stroke-dasharray:2.0,2.0;" x1="416.5" x2="725.5" y1="294.8398" y2="294.8398"/><text fill="#000000" font-family="sans-serif" font-size="13" font-weight="bold" lengthAdjust="spacing" textLength="9" x="428.5" y="290.0977">4</text><text fill="#000000" font-family="sans-serif" font-size="13" lengthAdjust="spacing" textLength="106" x="441.5" y="290.0977">collaboratorsList</text><polygon fill="#181818" points="54.5,320.1504,44.5,324.1504,54.5,328.1504,50.5,324.1504" style="stroke:#181818;stroke-width:1.0;"/><line style="stroke:#181818;stroke-width:1.0;stroke-dasharray:2.0,2.0;" x1="48.5" x2="405.5" y1="324.1504" y2="324.1504"/><text fill="#000000" font-family="sans-serif" font-size="13" font-weight="bold" lengthAdjust="spacing" textLength="9" x="60.5" y="319.4082">5</text><text fill="#000000" font-family="sans-serif" font-size="13" lengthAdjust="spacing" textLength="201" x="73.5" y="319.4082">shows list with all collaborators</text><polygon fill="#181818" points="389.5,349.4609,399.5,353.4609,389.5,357.4609,393.5,353.4609" style="stroke:#181818;stroke-width:1.0;"/><line style="stroke:#181818;stroke-width:1.0;" x1="43.5" x2="395.5" y1="353.4609" y2="353.4609"/><text fill="#000000" font-family="sans-serif" font-size="13" font-weight="bold" lengthAdjust="spacing" textLength="9" x="50.5" y="348.7188">6</text><text fill="#000000" font-family="sans-serif" font-size="13" lengthAdjust="spacing" textLength="148" x="63.5" y="348.7188">selects the collaborator</text><polygon fill="#181818" points="709.5,378.7715,719.5,382.7715,709.5,386.7715,713.5,382.7715" style="stroke:#181818;stroke-width:1.0;"/><line style="stroke:#181818;stroke-width:1.0;" x1="411.5" x2="715.5" y1="382.7715" y2="382.7715"/><text fill="#000000" font-family="sans-serif" font-size="13" font-weight="bold" lengthAdjust="spacing" textLength="9" x="418.5" y="378.0293">7</text><text fill="#000000" font-family="sans-serif" font-size="13" lengthAdjust="spacing" textLength="85" x="431.5" y="378.0293">getSkillsList()</text><rect fill="none" height="39.4434" style="stroke:#000000;stroke-width:1.5;" width="175" x="639" y="390.7715"/><path d="M639,390.7715 L703,390.7715 L703,397.7715 L693,407.7715 L639,407.7715 L639,390.7715 " fill="#EEEEEE" style="stroke:#000000;stroke-width:2.0;"/><text fill="#000000" font-family="sans-serif" font-size="13" font-weight="bold" lengthAdjust="spacing" textLength="19" x="652" y="405.3398">ref</text><text fill="#000000" font-family="sans-serif" font-size="12" lengthAdjust="spacing" textLength="52" x="700.5" y="423.373">Get Skills</text><polygon fill="#181818" points="422.5,452.5254,412.5,456.5254,422.5,460.5254,418.5,456.5254" style="stroke:#181818;stroke-width:1.0;"/><line style="stroke:#181818;stroke-width:1.0;stroke-dasharray:2.0,2.0;" x1="416.5" x2="725.5" y1="456.5254" y2="456.5254"/><text fill="#000000" font-family="sans-serif" font-size="13" font-weight="bold" lengthAdjust="spacing" textLength="9" x="428.5" y="451.7832">8</text><text fill="#000000" font-family="sans-serif" font-size="13" lengthAdjust="spacing" textLength="57" x="441.5" y="451.7832">skillsList</text><path d="M10,471.5254 L84,471.5254 L84,478.8359 L74,488.8359 L10,488.8359 L10,471.5254 " fill="#EEEEEE" style="stroke:#000000;stroke-width:1.5;"/><rect fill="none" height="134.5527" style="stroke:#000000;stroke-width:1.5;" width="463" x="10" y="471.5254"/><text fill="#000000" font-family="sans-serif" font-size="13" font-weight="bold" lengthAdjust="spacing" textLength="29" x="25" y="485.0938">loop</text><text fill="#000000" font-family="sans-serif" font-size="11" font-weight="bold" lengthAdjust="spacing" textLength="172" x="99" y="484.1602">[while HRM wants to continue]</text><polygon fill="#181818" points="54.5,506.1465,44.5,510.1465,54.5,514.1465,50.5,510.1465" style="stroke:#181818;stroke-width:1.0;"/><line style="stroke:#181818;stroke-width:1.0;stroke-dasharray:2.0,2.0;" x1="48.5" x2="405.5" y1="510.1465" y2="510.1465"/><text fill="#000000" font-family="sans-serif" font-size="13" font-weight="bold" lengthAdjust="spacing" textLength="9" x="60.5" y="505.4043">9</text><text fill="#000000" font-family="sans-serif" font-size="13" lengthAdjust="spacing" textLength="272" x="73.5" y="505.4043">shows skills list and requests to select one</text><polygon fill="#181818" points="389.5,535.457,399.5,539.457,389.5,543.457,393.5,539.457" style="stroke:#181818;stroke-width:1.0;"/><line style="stroke:#181818;stroke-width:1.0;" x1="43.5" x2="395.5" y1="539.457" y2="539.457"/><text fill="#000000" font-family="sans-serif" font-size="13" font-weight="bold" lengthAdjust="spacing" textLength="18" x="50.5" y="534.7148">10</text><text fill="#000000" font-family="sans-serif" font-size="13" lengthAdjust="spacing" textLength="102" x="72.5" y="534.7148">selects one skill</text><polygon fill="#181818" points="54.5,564.7676,44.5,568.7676,54.5,572.7676,50.5,568.7676" style="stroke:#181818;stroke-width:1.0;"/><line style="stroke:#181818;stroke-width:1.0;stroke-dasharray:2.0,2.0;" x1="48.5" x2="405.5" y1="568.7676" y2="568.7676"/><text fill="#000000" font-family="sans-serif" font-size="13" font-weight="bold" lengthAdjust="spacing" textLength="18" x="60.5" y="564.0254">11</text><text fill="#000000" font-family="sans-serif" font-size="13" lengthAdjust="spacing" textLength="105" x="82.5" y="564.0254">asks to continue</text><polygon fill="#181818" points="389.5,594.0781,399.5,598.0781,389.5,602.0781,393.5,598.0781" style="stroke:#181818;stroke-width:1.0;"/><line style="stroke:#181818;stroke-width:1.0;" x1="43.5" x2="395.5" y1="598.0781" y2="598.0781"/><text fill="#000000" font-family="sans-serif" font-size="13" font-weight="bold" lengthAdjust="spacing" textLength="18" x="50.5" y="593.3359">12</text><text fill="#000000" font-family="sans-serif" font-size="13" lengthAdjust="spacing" textLength="120" x="72.5" y="593.3359">responds yes or no</text><polygon fill="#181818" points="54.5,630.3887,44.5,634.3887,54.5,638.3887,50.5,634.3887" style="stroke:#181818;stroke-width:1.0;"/><line style="stroke:#181818;stroke-width:1.0;stroke-dasharray:2.0,2.0;" x1="48.5" x2="405.5" y1="634.3887" y2="634.3887"/><text fill="#000000" font-family="sans-serif" font-size="13" font-weight="bold" lengthAdjust="spacing" textLength="18" x="60.5" y="629.6465">13</text><text fill="#000000" font-family="sans-serif" font-size="13" lengthAdjust="spacing" textLength="312" x="82.5" y="629.6465">shows skill(s) selected and requests confirmation</text><polygon fill="#181818" points="389.5,659.6992,399.5,663.6992,389.5,667.6992,393.5,663.6992" style="stroke:#181818;stroke-width:1.0;"/><line style="stroke:#181818;stroke-width:1.0;" x1="43.5" x2="395.5" y1="663.6992" y2="663.6992"/><text fill="#000000" font-family="sans-serif" font-size="13" font-weight="bold" lengthAdjust="spacing" textLength="18" x="50.5" y="658.957">14</text><text fill="#000000" font-family="sans-serif" font-size="13" lengthAdjust="spacing" textLength="87" x="72.5" y="658.957">confirms data</text><polygon fill="#181818" points="709.5,689.0098,719.5,693.0098,709.5,697.0098,713.5,693.0098" style="stroke:#181818;stroke-width:1.0;"/><line style="stroke:#181818;stroke-width:1.0;" x1="411.5" x2="715.5" y1="693.0098" y2="693.0098"/><text fill="#000000" font-family="sans-serif" font-size="13" font-weight="bold" lengthAdjust="spacing" textLength="18" x="418.5" y="688.2676">15</text><text fill="#000000" font-family="sans-serif" font-size="13" lengthAdjust="spacing" textLength="269" x="440.5" y="688.2676">assignSkill(collaborator, skillsSelectedList)</text><rect fill="none" height="39.4434" style="stroke:#000000;stroke-width:1.5;" width="175" x="639" y="701.0098"/><path d="M639,701.0098 L703,701.0098 L703,708.0098 L693,718.0098 L639,718.0098 L639,701.0098 " fill="#EEEEEE" style="stroke:#000000;stroke-width:2.0;"/><text fill="#000000" font-family="sans-serif" font-size="13" font-weight="bold" lengthAdjust="spacing" textLength="19" x="652" y="715.5781">ref</text><text fill="#000000" font-family="sans-serif" font-size="12" lengthAdjust="spacing" textLength="77" x="688" y="733.6113">Assign Skill(s)</text><polygon fill="#181818" points="422.5,762.7637,412.5,766.7637,422.5,770.7637,418.5,766.7637" style="stroke:#181818;stroke-width:1.0;"/><line style="stroke:#181818;stroke-width:1.0;stroke-dasharray:2.0,2.0;" x1="416.5" x2="725.5" y1="766.7637" y2="766.7637"/><text fill="#000000" font-family="sans-serif" font-size="13" font-weight="bold" lengthAdjust="spacing" textLength="18" x="428.5" y="762.0215">16</text><text fill="#000000" font-family="sans-serif" font-size="13" lengthAdjust="spacing" textLength="76" x="450.5" y="762.0215">collaborator</text><polygon fill="#181818" points="49.5,792.0742,39.5,796.0742,49.5,800.0742,45.5,796.0742" style="stroke:#181818;stroke-width:1.0;"/><line style="stroke:#181818;stroke-width:1.0;stroke-dasharray:2.0,2.0;" x1="43.5" x2="405.5" y1="796.0742" y2="796.0742"/><text fill="#000000" font-family="sans-serif" font-size="13" font-weight="bold" lengthAdjust="spacing" textLength="18" x="55.5" y="791.332">17</text><text fill="#000000" font-family="sans-serif" font-size="13" lengthAdjust="spacing" textLength="170" x="77.5" y="791.332">displays operation success</text><!--SRC=[bLHDRzim3BthLn0v9SK2zB1J3WE6ODWAj9Tc-G6gpTX2PCaLvGRvzwCasxKNnqbryWVr7ld8HpegKqidAwYiiLdfR8NWNOE2-Z-rp8wom9q_QmI7cPUcqCC0AcLkJyeKS92QK0YlF8VkTu-Fts4DFubKOS0Q1EkOno7mNQq9l0K9cTLQlbadlNL2oCPRqrHl69up_WIBFwyl2v04lwfQspEYO5QlCbLBus6nIV2xYBX_Yf7xfvcOhJNUCIUw6Blz-_eSgTI7zFX98e1FzmRh7mmA6xvmJ6cdcc8TIrfDL1AkzwYSKFp068mKA1yU62rpo7_Jh-7v3EEW0lrs04pBrKLypvEAWOdZy03s0rqAcOhuZHv6H9DHQFA0DKqICrvtMWtbe6T5_k9EZXEPX-8PefT-m_DbJmIQ4U2aV0bIwp6u-0-ia_kYVOIQvvSxME8TtPfgHPgXKCsW3pFwNzSzw9tGn4s1ny9IduEOLL9RMyEfLEn5zX2Ss0jnU3DsW3BiyJcvMuj6rMNCwRr1IW19nk3eBoiVja24lcwGSJQTuqP9tyFea6fhSe8pKbWynbvGjdgBsq84ZwSIC1_BmNaTbAkaLzQ8kvDhRn7aqijRkoAgq2-mvN1mlxLzshMvXQ5OYJjsmlm-Q5VshYrTtBq5hc-02stc79yhghKySzzgT55Qe2RBa2QjFdZjCFu1]--></g></svg>