<?xml version="1.0" encoding="us-ascii" standalone="no"?><svg xmlns="http://www.w3.org/2000/svg" xmlns:xlink="http://www.w3.org/1999/xlink" contentStyleType="text/css" height="1422px" preserveAspectRatio="none" style="width:1545px;height:1422px;background:#FFFFFF;" version="1.1" viewBox="0 0 1545 1422" width="1545px" zoomAndPan="magnify"><defs/><g><rect fill="#FFFFFF" height="1232.4902" style="stroke:#181818;stroke-width:1.0;" width="10" x="92.5" y="91.4883"/><rect fill="#FFFFFF" height="173.8633" style="stroke:#181818;stroke-width:1.0;" width="10" x="482.5" y="112.7988"/><rect fill="#FFFFFF" height="132.375" style="stroke:#181818;stroke-width:1.0;" width="10" x="482.5" y="315.9727"/><rect fill="#FFFFFF" height="831.0098" style="stroke:#181818;stroke-width:1.0;" width="10" x="482.5" y="501.9688"/><rect fill="#FFFFFF" height="73.7539" style="stroke:#181818;stroke-width:1.0;" width="10" x="689.5" y="183.5977"/><rect fill="#FFFFFF" height="73.7539" style="stroke:#181818;stroke-width:1.0;" width="10" x="689.5" y="345.2832"/><rect fill="#FFFFFF" height="756.3887" style="stroke:#181818;stroke-width:1.0;" width="10" x="689.5" y="531.2793"/><rect fill="#FFFFFF" height="87.9316" style="stroke:#181818;stroke-width:1.0;" width="10" x="869.5" y="560.5898"/><rect fill="#FFFFFF" height="29.3105" style="stroke:#181818;stroke-width:1.0;" width="10" x="1042.5" y="589.9004"/><rect fill="#FFFFFF" height="439.9727" style="stroke:#181818;stroke-width:1.0;" width="10" x="1144.5" y="677.832"/><rect fill="#FFFFFF" height="87.9316" style="stroke:#181818;stroke-width:1.0;" width="10" x="1144.5" y="1163.4258"/><rect fill="#FFFFFF" height="30" style="stroke:#181818;stroke-width:1.0;" width="10" x="1303" y="915.873"/><rect fill="#FFFFFF" height="30" style="stroke:#181818;stroke-width:1.0;" width="10" x="1303" y="1013.4941"/><rect fill="#FFFFFF" height="30" style="stroke:#181818;stroke-width:1.0;" width="10" x="1416.5" y="772.9414"/><rect fill="#FFFFFF" height="30" style="stroke:#181818;stroke-width:1.0;" width="10" x="1491.5" y="832.252"/><rect fill="#FFFFFF" height="30" style="stroke:#181818;stroke-width:1.0;" width="10" x="1491.5" y="1072.8047"/><rect fill="#FFFFFF" height="29.3105" style="stroke:#181818;stroke-width:1.0;" width="10" x="1491.5" y="1192.7363"/><rect fill="none" height="832.3203" style="stroke:#000000;stroke-width:1.5;" width="1529.5" x="10" y="463.3477"/><rect fill="none" height="226.5527" style="stroke:#000000;stroke-width:1.5;" width="433.5" x="1096" y="734.3203"/><rect fill="none" height="76.6211" style="stroke:#000000;stroke-width:1.5;" width="273.5" x="1106" y="877.252"/><rect fill="none" height="135.9316" style="stroke:#000000;stroke-width:1.5;" width="423.5" x="1106" y="974.873"/><rect fill="none" height="134.5527" style="stroke:#000000;stroke-width:1.5;" width="931" x="598.5" y="1124.8047"/><line style="stroke:#181818;stroke-width:0.5;stroke-dasharray:5.0,5.0;" x1="97" x2="97" y1="81.4883" y2="1341.9785"/><line style="stroke:#181818;stroke-width:0.5;stroke-dasharray:5.0,5.0;" x1="487.5" x2="487.5" y1="81.4883" y2="1341.9785"/><line style="stroke:#181818;stroke-width:0.5;stroke-dasharray:5.0,5.0;" x1="694.5" x2="694.5" y1="151.543" y2="1341.9785"/><line style="stroke:#181818;stroke-width:0.5;stroke-dasharray:5.0,5.0;" x1="874.5" x2="874.5" y1="81.4883" y2="1341.9785"/><line style="stroke:#181818;stroke-width:0.5;stroke-dasharray:5.0,5.0;" x1="1047" x2="1047" y1="81.4883" y2="1341.9785"/><line style="stroke:#181818;stroke-width:0.5;stroke-dasharray:5.0,5.0;" x1="1149" x2="1149" y1="81.4883" y2="1341.9785"/><line style="stroke:#181818;stroke-width:0.5;stroke-dasharray:5.0,5.0;" x1="1307.5" x2="1307.5" y1="716.5762" y2="1341.9785"/><line style="stroke:#181818;stroke-width:0.5;stroke-dasharray:5.0,5.0;" x1="1421.5" x2="1421.5" y1="81.4883" y2="1341.9785"/><line style="stroke:#181818;stroke-width:0.5;stroke-dasharray:5.0,5.0;" x1="1496.5" x2="1496.5" y1="81.4883" y2="1341.9785"/><text fill="#000000" font-family="sans-serif" font-size="14" lengthAdjust="spacing" textLength="149" x="20" y="78.5352">Green Space Manager</text><ellipse cx="97.5" cy="13.5" fill="#E3E3E3" rx="8" ry="8" style="stroke:#181818;stroke-width:0.5;"/><path d="M97.5,21.5 L97.5,48.5 M84.5,29.5 L110.5,29.5 M97.5,48.5 L84.5,63.5 M97.5,48.5 L110.5,63.5 " fill="none" style="stroke:#181818;stroke-width:0.5;"/><text fill="#000000" font-family="sans-serif" font-size="14" lengthAdjust="spacing" textLength="149" x="20" y="1354.5137">Green Space Manager</text><ellipse cx="97.5" cy="1365.9668" fill="#E3E3E3" rx="8" ry="8" style="stroke:#181818;stroke-width:0.5;"/><path d="M97.5,1373.9668 L97.5,1400.9668 M84.5,1381.9668 L110.5,1381.9668 M97.5,1400.9668 L84.5,1415.9668 M97.5,1400.9668 L110.5,1415.9668 " fill="none" style="stroke:#181818;stroke-width:0.5;"/><rect fill="#E3E3E3" height="30.4883" rx="2.5" ry="2.5" style="stroke:#181818;stroke-width:0.5;" width="116" x="429.5" y="50"/><text fill="#000000" font-family="sans-serif" font-size="14" lengthAdjust="spacing" textLength="102" x="436.5" y="70.5352">:AssignTeamUI</text><rect fill="#E3E3E3" height="30.4883" rx="2.5" ry="2.5" style="stroke:#181818;stroke-width:0.5;" width="116" x="429.5" y="1340.9785"/><text fill="#000000" font-family="sans-serif" font-size="14" lengthAdjust="spacing" textLength="102" x="436.5" y="1361.5137">:AssignTeamUI</text><rect fill="#E3E3E3" height="30.4883" rx="2.5" ry="2.5" style="stroke:#181818;stroke-width:0.5;" width="172" x="608.5" y="1340.9785"/><text fill="#000000" font-family="sans-serif" font-size="14" lengthAdjust="spacing" textLength="158" x="615.5" y="1361.5137">:AssignTeamController</text><rect fill="#E3E3E3" height="30.4883" rx="2.5" ry="2.5" style="stroke:#181818;stroke-width:0.5;" width="136" x="806.5" y="50"/><text fill="#000000" font-family="sans-serif" font-size="14" lengthAdjust="spacing" textLength="122" x="813.5" y="70.5352">VehicleRepository</text><rect fill="#E3E3E3" height="30.4883" rx="2.5" ry="2.5" style="stroke:#181818;stroke-width:0.5;" width="136" x="806.5" y="1340.9785"/><text fill="#000000" font-family="sans-serif" font-size="14" lengthAdjust="spacing" textLength="122" x="813.5" y="1361.5137">VehicleRepository</text><rect fill="#E3E3E3" height="30.4883" rx="2.5" ry="2.5" style="stroke:#181818;stroke-width:0.5;" width="91" x="1002" y="50"/><text fill="#000000" font-family="sans-serif" font-size="14" lengthAdjust="spacing" textLength="77" x="1009" y="70.5352">vehiclesList</text><rect fill="#E3E3E3" height="30.4883" rx="2.5" ry="2.5" style="stroke:#181818;stroke-width:0.5;" width="91" x="1002" y="1340.9785"/><text fill="#000000" font-family="sans-serif" font-size="14" lengthAdjust="spacing" textLength="77" x="1009" y="1361.5137">vehiclesList</text><rect fill="#E3E3E3" height="30.4883" rx="2.5" ry="2.5" style="stroke:#181818;stroke-width:0.5;" width="67" x="1116" y="50"/><text fill="#000000" font-family="sans-serif" font-size="14" lengthAdjust="spacing" textLength="53" x="1123" y="70.5352">Agenda</text><rect fill="#E3E3E3" height="30.4883" rx="2.5" ry="2.5" style="stroke:#181818;stroke-width:0.5;" width="67" x="1116" y="1340.9785"/><text fill="#000000" font-family="sans-serif" font-size="14" lengthAdjust="spacing" textLength="53" x="1123" y="1361.5137">Agenda</text><rect fill="#E3E3E3" height="30.4883" rx="2.5" ry="2.5" style="stroke:#181818;stroke-width:0.5;" width="123" x="1246.5" y="1340.9785"/><text fill="#000000" font-family="sans-serif" font-size="14" lengthAdjust="spacing" textLength="109" x="1253.5" y="1361.5137">vehicleSchedule</text><rect fill="#E3E3E3" height="30.4883" rx="2.5" ry="2.5" style="stroke:#181818;stroke-width:0.5;" width="84" x="1379.5" y="50"/><text fill="#000000" font-family="sans-serif" font-size="14" lengthAdjust="spacing" textLength="70" x="1386.5" y="70.5352">EntriesList</text><rect fill="#E3E3E3" height="30.4883" rx="2.5" ry="2.5" style="stroke:#181818;stroke-width:0.5;" width="84" x="1379.5" y="1340.9785"/><text fill="#000000" font-family="sans-serif" font-size="14" lengthAdjust="spacing" textLength="70" x="1386.5" y="1361.5137">EntriesList</text><rect fill="#E3E3E3" height="30.4883" rx="2.5" ry="2.5" style="stroke:#181818;stroke-width:0.5;" width="46" x="1473.5" y="50"/><text fill="#000000" font-family="sans-serif" font-size="14" lengthAdjust="spacing" textLength="32" x="1480.5" y="70.5352">Task</text><rect fill="#E3E3E3" height="30.4883" rx="2.5" ry="2.5" style="stroke:#181818;stroke-width:0.5;" width="46" x="1473.5" y="1340.9785"/><text fill="#000000" font-family="sans-serif" font-size="14" lengthAdjust="spacing" textLength="32" x="1480.5" y="1361.5137">Task</text><rect fill="#FFFFFF" height="1232.4902" style="stroke:#181818;stroke-width:1.0;" width="10" x="92.5" y="91.4883"/><rect fill="#FFFFFF" height="173.8633" style="stroke:#181818;stroke-width:1.0;" width="10" x="482.5" y="112.7988"/><rect fill="#FFFFFF" height="132.375" style="stroke:#181818;stroke-width:1.0;" width="10" x="482.5" y="315.9727"/><rect fill="#FFFFFF" height="831.0098" style="stroke:#181818;stroke-width:1.0;" width="10" x="482.5" y="501.9688"/><rect fill="#FFFFFF" height="73.7539" style="stroke:#181818;stroke-width:1.0;" width="10" x="689.5" y="183.5977"/><rect fill="#FFFFFF" height="73.7539" style="stroke:#181818;stroke-width:1.0;" width="10" x="689.5" y="345.2832"/><rect fill="#FFFFFF" height="756.3887" style="stroke:#181818;stroke-width:1.0;" width="10" x="689.5" y="531.2793"/><rect fill="#FFFFFF" height="87.9316" style="stroke:#181818;stroke-width:1.0;" width="10" x="869.5" y="560.5898"/><rect fill="#FFFFFF" height="29.3105" style="stroke:#181818;stroke-width:1.0;" width="10" x="1042.5" y="589.9004"/><rect fill="#FFFFFF" height="439.9727" style="stroke:#181818;stroke-width:1.0;" width="10" x="1144.5" y="677.832"/><rect fill="#FFFFFF" height="87.9316" style="stroke:#181818;stroke-width:1.0;" width="10" x="1144.5" y="1163.4258"/><rect fill="#FFFFFF" height="30" style="stroke:#181818;stroke-width:1.0;" width="10" x="1303" y="915.873"/><rect fill="#FFFFFF" height="30" style="stroke:#181818;stroke-width:1.0;" width="10" x="1303" y="1013.4941"/><rect fill="#FFFFFF" height="30" style="stroke:#181818;stroke-width:1.0;" width="10" x="1416.5" y="772.9414"/><rect fill="#FFFFFF" height="30" style="stroke:#181818;stroke-width:1.0;" width="10" x="1491.5" y="832.252"/><rect fill="#FFFFFF" height="30" style="stroke:#181818;stroke-width:1.0;" width="10" x="1491.5" y="1072.8047"/><rect fill="#FFFFFF" height="29.3105" style="stroke:#181818;stroke-width:1.0;" width="10" x="1491.5" y="1192.7363"/><polygon fill="#181818" points="470.5,108.7988,480.5,112.7988,470.5,116.7988,474.5,112.7988" style="stroke:#181818;stroke-width:1.0;"/><line style="stroke:#181818;stroke-width:1.0;" x1="102.5" x2="476.5" y1="112.7988" y2="112.7988"/><text fill="#000000" font-family="sans-serif" font-size="13" font-weight="bold" lengthAdjust="spacing" textLength="9" x="109.5" y="108.0566">1</text><text fill="#000000" font-family="sans-serif" font-size="13" lengthAdjust="spacing" textLength="314" x="122.5" y="108.0566">asks to assign a Vehicle to an entry in the Agenda</text><polygon fill="#181818" points="596.5,138.1094,606.5,142.1094,596.5,146.1094,600.5,142.1094" style="stroke:#181818;stroke-width:1.0;"/><line style="stroke:#181818;stroke-width:1.0;stroke-dasharray:2.0,2.0;" x1="492.5" x2="602.5" y1="142.1094" y2="142.1094"/><text fill="#000000" font-family="sans-serif" font-size="13" font-weight="bold" lengthAdjust="spacing" textLength="9" x="499.5" y="137.3672">2</text><text fill="#000000" font-family="sans-serif" font-size="13" lengthAdjust="spacing" textLength="46" x="512.5" y="137.3672">create()</text><rect fill="#E3E3E3" height="30.4883" rx="2.5" ry="2.5" style="stroke:#181818;stroke-width:0.5;" width="172" x="608.5" y="120.7988"/><text fill="#000000" font-family="sans-serif" font-size="14" lengthAdjust="spacing" textLength="158" x="615.5" y="141.334">:AssignTeamController</text><polygon fill="#181818" points="677.5,179.5977,687.5,183.5977,677.5,187.5977,681.5,183.5977" style="stroke:#181818;stroke-width:1.0;"/><line style="stroke:#181818;stroke-width:1.0;" x1="492.5" x2="683.5" y1="183.5977" y2="183.5977"/><text fill="#000000" font-family="sans-serif" font-size="13" font-weight="bold" lengthAdjust="spacing" textLength="9" x="499.5" y="178.8555">3</text><text fill="#000000" font-family="sans-serif" font-size="13" lengthAdjust="spacing" textLength="118" x="512.5" y="178.8555">getAgendaEntries()</text><rect fill="none" height="39.4434" style="stroke:#000000;stroke-width:1.5;" width="178" x="605.5" y="191.5977"/><path d="M605.5,191.5977 L669.5,191.5977 L669.5,198.5977 L659.5,208.5977 L605.5,208.5977 L605.5,191.5977 " fill="#EEEEEE" style="stroke:#000000;stroke-width:2.0;"/><text fill="#000000" font-family="sans-serif" font-size="13" font-weight="bold" lengthAdjust="spacing" textLength="19" x="618.5" y="206.166">ref</text><text fill="#000000" font-family="sans-serif" font-size="12" lengthAdjust="spacing" textLength="111" x="639" y="224.1992">Get Agenda Entries</text><polygon fill="#181818" points="503.5,253.3516,493.5,257.3516,503.5,261.3516,499.5,257.3516" style="stroke:#181818;stroke-width:1.0;"/><line style="stroke:#181818;stroke-width:1.0;stroke-dasharray:2.0,2.0;" x1="497.5" x2="693.5" y1="257.3516" y2="257.3516"/><text fill="#000000" font-family="sans-serif" font-size="13" font-weight="bold" lengthAdjust="spacing" textLength="9" x="509.5" y="252.6094">4</text><text fill="#000000" font-family="sans-serif" font-size="13" lengthAdjust="spacing" textLength="160" x="522.5" y="252.6094">freeAgendaEntriesListDto</text><polygon fill="#181818" points="113.5,282.6621,103.5,286.6621,113.5,290.6621,109.5,286.6621" style="stroke:#181818;stroke-width:1.0;"/><line style="stroke:#181818;stroke-width:1.0;stroke-dasharray:2.0,2.0;" x1="107.5" x2="486.5" y1="286.6621" y2="286.6621"/><text fill="#000000" font-family="sans-serif" font-size="13" font-weight="bold" lengthAdjust="spacing" textLength="9" x="119.5" y="281.9199">5</text><text fill="#000000" font-family="sans-serif" font-size="13" lengthAdjust="spacing" textLength="341" x="132.5" y="281.9199">shows entries from the Agenda and asks to select one</text><polygon fill="#181818" points="470.5,311.9727,480.5,315.9727,470.5,319.9727,474.5,315.9727" style="stroke:#181818;stroke-width:1.0;"/><line style="stroke:#181818;stroke-width:1.0;" x1="102.5" x2="476.5" y1="315.9727" y2="315.9727"/><text fill="#000000" font-family="sans-serif" font-size="13" font-weight="bold" lengthAdjust="spacing" textLength="9" x="109.5" y="311.2305">6</text><text fill="#000000" font-family="sans-serif" font-size="13" lengthAdjust="spacing" textLength="99" x="122.5" y="311.2305">selects an entry</text><polygon fill="#181818" points="677.5,341.2832,687.5,345.2832,677.5,349.2832,681.5,345.2832" style="stroke:#181818;stroke-width:1.0;"/><line style="stroke:#181818;stroke-width:1.0;" x1="492.5" x2="683.5" y1="345.2832" y2="345.2832"/><text fill="#000000" font-family="sans-serif" font-size="13" font-weight="bold" lengthAdjust="spacing" textLength="9" x="499.5" y="340.541">7</text><text fill="#000000" font-family="sans-serif" font-size="13" lengthAdjust="spacing" textLength="114" x="512.5" y="340.541">getSelectedTask(i)</text><rect fill="none" height="39.4434" style="stroke:#000000;stroke-width:1.5;" width="178" x="605.5" y="353.2832"/><path d="M605.5,353.2832 L669.5,353.2832 L669.5,360.2832 L659.5,370.2832 L605.5,370.2832 L605.5,353.2832 " fill="#EEEEEE" style="stroke:#000000;stroke-width:2.0;"/><text fill="#000000" font-family="sans-serif" font-size="13" font-weight="bold" lengthAdjust="spacing" textLength="19" x="618.5" y="367.8516">ref</text><text fill="#000000" font-family="sans-serif" font-size="12" lengthAdjust="spacing" textLength="105" x="642" y="385.8848">Get Selected Entry</text><polygon fill="#181818" points="503.5,415.0371,493.5,419.0371,503.5,423.0371,499.5,419.0371" style="stroke:#181818;stroke-width:1.0;"/><line style="stroke:#181818;stroke-width:1.0;stroke-dasharray:2.0,2.0;" x1="497.5" x2="693.5" y1="419.0371" y2="419.0371"/><text fill="#000000" font-family="sans-serif" font-size="13" font-weight="bold" lengthAdjust="spacing" textLength="9" x="509.5" y="414.2949">8</text><text fill="#000000" font-family="sans-serif" font-size="13" lengthAdjust="spacing" textLength="97" x="522.5" y="414.2949">vehiclesListDto</text><polygon fill="#181818" points="113.5,444.3477,103.5,448.3477,113.5,452.3477,109.5,448.3477" style="stroke:#181818;stroke-width:1.0;"/><line style="stroke:#181818;stroke-width:1.0;stroke-dasharray:2.0,2.0;" x1="107.5" x2="486.5" y1="448.3477" y2="448.3477"/><text fill="#000000" font-family="sans-serif" font-size="13" font-weight="bold" lengthAdjust="spacing" textLength="9" x="119.5" y="443.6055">9</text><text fill="#000000" font-family="sans-serif" font-size="13" lengthAdjust="spacing" textLength="343" x="132.5" y="443.6055">shows Vehicles list and asks to select desired vehicles</text><path d="M10,463.3477 L84,463.3477 L84,470.6582 L74,480.6582 L10,480.6582 L10,463.3477 " fill="#EEEEEE" style="stroke:#000000;stroke-width:1.5;"/><rect fill="none" height="832.3203" style="stroke:#000000;stroke-width:1.5;" width="1529.5" x="10" y="463.3477"/><text fill="#000000" font-family="sans-serif" font-size="13" font-weight="bold" lengthAdjust="spacing" textLength="29" x="25" y="476.916">loop</text><text fill="#000000" font-family="sans-serif" font-size="11" font-weight="bold" lengthAdjust="spacing" textLength="155" x="99" y="475.9824">[until user selects option 0]</text><polygon fill="#181818" points="470.5,497.9688,480.5,501.9688,470.5,505.9688,474.5,501.9688" style="stroke:#181818;stroke-width:1.0;"/><line style="stroke:#181818;stroke-width:1.0;" x1="102.5" x2="476.5" y1="501.9688" y2="501.9688"/><text fill="#000000" font-family="sans-serif" font-size="13" font-weight="bold" lengthAdjust="spacing" textLength="18" x="109.5" y="497.2266">10</text><text fill="#000000" font-family="sans-serif" font-size="13" lengthAdjust="spacing" textLength="104" x="131.5" y="497.2266">selects a Vehicle</text><polygon fill="#181818" points="677.5,527.2793,687.5,531.2793,677.5,535.2793,681.5,531.2793" style="stroke:#181818;stroke-width:1.0;"/><line style="stroke:#181818;stroke-width:1.0;" x1="492.5" x2="683.5" y1="531.2793" y2="531.2793"/><text fill="#000000" font-family="sans-serif" font-size="13" font-weight="bold" lengthAdjust="spacing" textLength="18" x="499.5" y="526.5371">11</text><text fill="#000000" font-family="sans-serif" font-size="13" lengthAdjust="spacing" textLength="98" x="521.5" y="526.5371">assignVehicle(i)</text><polygon fill="#181818" points="857.5,556.5898,867.5,560.5898,857.5,564.5898,861.5,560.5898" style="stroke:#181818;stroke-width:1.0;"/><line style="stroke:#181818;stroke-width:1.0;" x1="699.5" x2="863.5" y1="560.5898" y2="560.5898"/><text fill="#000000" font-family="sans-serif" font-size="13" font-weight="bold" lengthAdjust="spacing" textLength="18" x="706.5" y="555.8477">12</text><text fill="#000000" font-family="sans-serif" font-size="13" lengthAdjust="spacing" textLength="129" x="728.5" y="555.8477">getSelectedVehicle(i)</text><polygon fill="#181818" points="1030.5,585.9004,1040.5,589.9004,1030.5,593.9004,1034.5,589.9004" style="stroke:#181818;stroke-width:1.0;"/><line style="stroke:#181818;stroke-width:1.0;" x1="879.5" x2="1036.5" y1="589.9004" y2="589.9004"/><text fill="#000000" font-family="sans-serif" font-size="13" font-weight="bold" lengthAdjust="spacing" textLength="18" x="886.5" y="585.1582">13</text><text fill="#000000" font-family="sans-serif" font-size="13" lengthAdjust="spacing" textLength="32" x="908.5" y="585.1582">get(i)</text><polygon fill="#181818" points="890.5,615.2109,880.5,619.2109,890.5,623.2109,886.5,619.2109" style="stroke:#181818;stroke-width:1.0;"/><line style="stroke:#181818;stroke-width:1.0;stroke-dasharray:2.0,2.0;" x1="884.5" x2="1046.5" y1="619.2109" y2="619.2109"/><text fill="#000000" font-family="sans-serif" font-size="13" font-weight="bold" lengthAdjust="spacing" textLength="18" x="896.5" y="614.4688">14</text><text fill="#000000" font-family="sans-serif" font-size="13" lengthAdjust="spacing" textLength="117" x="918.5" y="614.4688">getSelectedVehicle</text><polygon fill="#181818" points="710.5,644.5215,700.5,648.5215,710.5,652.5215,706.5,648.5215" style="stroke:#181818;stroke-width:1.0;"/><line style="stroke:#181818;stroke-width:1.0;stroke-dasharray:2.0,2.0;" x1="704.5" x2="873.5" y1="648.5215" y2="648.5215"/><text fill="#000000" font-family="sans-serif" font-size="13" font-weight="bold" lengthAdjust="spacing" textLength="18" x="716.5" y="643.7793">15</text><text fill="#000000" font-family="sans-serif" font-size="13" lengthAdjust="spacing" textLength="97" x="738.5" y="643.7793">selectedVehicle</text><polygon fill="#181818" points="1132.5,673.832,1142.5,677.832,1132.5,681.832,1136.5,677.832" style="stroke:#181818;stroke-width:1.0;"/><line style="stroke:#181818;stroke-width:1.0;" x1="699.5" x2="1138.5" y1="677.832" y2="677.832"/><text fill="#000000" font-family="sans-serif" font-size="13" font-weight="bold" lengthAdjust="spacing" textLength="18" x="706.5" y="673.0898">16</text><text fill="#000000" font-family="sans-serif" font-size="13" lengthAdjust="spacing" textLength="404" x="728.5" y="673.0898">possible = checkVehicleSchedule(selectedVehicle, selectedTask)</text><polygon fill="#181818" points="1234.5,703.1426,1244.5,707.1426,1234.5,711.1426,1238.5,707.1426" style="stroke:#181818;stroke-width:1.0;"/><line style="stroke:#181818;stroke-width:1.0;stroke-dasharray:2.0,2.0;" x1="1154.5" x2="1240.5" y1="707.1426" y2="707.1426"/><text fill="#000000" font-family="sans-serif" font-size="13" font-weight="bold" lengthAdjust="spacing" textLength="18" x="1161.5" y="702.4004">17</text><text fill="#000000" font-family="sans-serif" font-size="13" lengthAdjust="spacing" textLength="46" x="1183.5" y="702.4004">create()</text><rect fill="#E3E3E3" height="30.4883" rx="2.5" ry="2.5" style="stroke:#181818;stroke-width:0.5;" width="123" x="1246.5" y="685.832"/><text fill="#000000" font-family="sans-serif" font-size="14" lengthAdjust="spacing" textLength="109" x="1253.5" y="706.3672">vehicleSchedule</text><path d="M1096,734.3203 L1170,734.3203 L1170,741.6309 L1160,751.6309 L1096,751.6309 L1096,734.3203 " fill="#EEEEEE" style="stroke:#000000;stroke-width:1.5;"/><rect fill="none" height="226.5527" style="stroke:#000000;stroke-width:1.5;" width="433.5" x="1096" y="734.3203"/><text fill="#000000" font-family="sans-serif" font-size="13" font-weight="bold" lengthAdjust="spacing" textLength="29" x="1111" y="747.8887">loop</text><text fill="#000000" font-family="sans-serif" font-size="11" font-weight="bold" lengthAdjust="spacing" textLength="126" x="1185" y="746.9551">[for each known Task]</text><polygon fill="#181818" points="1404.5,768.9414,1414.5,772.9414,1404.5,776.9414,1408.5,772.9414" style="stroke:#181818;stroke-width:1.0;"/><line style="stroke:#181818;stroke-width:1.0;" x1="1154.5" x2="1410.5" y1="772.9414" y2="772.9414"/><text fill="#000000" font-family="sans-serif" font-size="13" font-weight="bold" lengthAdjust="spacing" textLength="18" x="1161.5" y="768.1992">18</text><text fill="#000000" font-family="sans-serif" font-size="13" lengthAdjust="spacing" textLength="82" x="1183.5" y="768.1992">entry = get(i)</text><polygon fill="#181818" points="1479.5,828.252,1489.5,832.252,1479.5,836.252,1483.5,832.252" style="stroke:#181818;stroke-width:1.0;"/><line style="stroke:#181818;stroke-width:1.0;" x1="1154.5" x2="1485.5" y1="832.252" y2="832.252"/><text fill="#000000" font-family="sans-serif" font-size="13" font-weight="bold" lengthAdjust="spacing" textLength="18" x="1161.5" y="827.5098">19</text><text fill="#000000" font-family="sans-serif" font-size="13" lengthAdjust="spacing" textLength="270" x="1183.5" y="827.5098">result = belongsToVehicle(selectedVehicle)</text><path d="M1106,877.252 L1173,877.252 L1173,884.5625 L1163,894.5625 L1106,894.5625 L1106,877.252 " fill="#EEEEEE" style="stroke:#000000;stroke-width:1.5;"/><rect fill="none" height="76.6211" style="stroke:#000000;stroke-width:1.5;" width="273.5" x="1106" y="877.252"/><text fill="#000000" font-family="sans-serif" font-size="13" font-weight="bold" lengthAdjust="spacing" textLength="22" x="1121" y="890.8203">opt</text><text fill="#000000" font-family="sans-serif" font-size="11" font-weight="bold" lengthAdjust="spacing" textLength="88" x="1188" y="889.8867">[result == true]</text><polygon fill="#181818" points="1291,911.873,1301,915.873,1291,919.873,1295,915.873" style="stroke:#181818;stroke-width:1.0;"/><line style="stroke:#181818;stroke-width:1.0;" x1="1154.5" x2="1297" y1="915.873" y2="915.873"/><text fill="#000000" font-family="sans-serif" font-size="13" font-weight="bold" lengthAdjust="spacing" textLength="18" x="1161.5" y="911.1309">20</text><text fill="#000000" font-family="sans-serif" font-size="13" lengthAdjust="spacing" textLength="63" x="1183.5" y="911.1309">add(entry)</text><path d="M1106,974.873 L1180,974.873 L1180,982.1836 L1170,992.1836 L1106,992.1836 L1106,974.873 " fill="#EEEEEE" style="stroke:#000000;stroke-width:1.5;"/><rect fill="none" height="135.9316" style="stroke:#000000;stroke-width:1.5;" width="423.5" x="1106" y="974.873"/><text fill="#000000" font-family="sans-serif" font-size="13" font-weight="bold" lengthAdjust="spacing" textLength="29" x="1121" y="988.4414">loop</text><text fill="#000000" font-family="sans-serif" font-size="11" font-weight="bold" lengthAdjust="spacing" textLength="200" x="1195" y="987.5078">[for each object in vehicleSchedule]</text><polygon fill="#181818" points="1291,1009.4941,1301,1013.4941,1291,1017.4941,1295,1013.4941" style="stroke:#181818;stroke-width:1.0;"/><line style="stroke:#181818;stroke-width:1.0;" x1="1154.5" x2="1297" y1="1013.4941" y2="1013.4941"/><text fill="#000000" font-family="sans-serif" font-size="13" font-weight="bold" lengthAdjust="spacing" textLength="18" x="1161.5" y="1008.752">21</text><text fill="#000000" font-family="sans-serif" font-size="13" lengthAdjust="spacing" textLength="70" x="1183.5" y="1008.752">obj = get(i)</text><polygon fill="#181818" points="1479.5,1068.8047,1489.5,1072.8047,1479.5,1076.8047,1483.5,1072.8047" style="stroke:#181818;stroke-width:1.0;"/><line style="stroke:#181818;stroke-width:1.0;" x1="1154.5" x2="1485.5" y1="1072.8047" y2="1072.8047"/><text fill="#000000" font-family="sans-serif" font-size="13" font-weight="bold" lengthAdjust="spacing" textLength="18" x="1161.5" y="1068.0625">22</text><text fill="#000000" font-family="sans-serif" font-size="13" lengthAdjust="spacing" textLength="186" x="1183.5" y="1068.0625">obj.hasConflict(selectedTask)</text><path d="M598.5,1124.8047 L665.5,1124.8047 L665.5,1132.1152 L655.5,1142.1152 L598.5,1142.1152 L598.5,1124.8047 " fill="#EEEEEE" style="stroke:#000000;stroke-width:1.5;"/><rect fill="none" height="134.5527" style="stroke:#000000;stroke-width:1.5;" width="931" x="598.5" y="1124.8047"/><text fill="#000000" font-family="sans-serif" font-size="13" font-weight="bold" lengthAdjust="spacing" textLength="22" x="613.5" y="1138.373">opt</text><text fill="#000000" font-family="sans-serif" font-size="11" font-weight="bold" lengthAdjust="spacing" textLength="103" x="680.5" y="1137.4395">[possible == true]</text><polygon fill="#181818" points="1132.5,1159.4258,1142.5,1163.4258,1132.5,1167.4258,1136.5,1163.4258" style="stroke:#181818;stroke-width:1.0;"/><line style="stroke:#181818;stroke-width:1.0;" x1="699.5" x2="1138.5" y1="1163.4258" y2="1163.4258"/><text fill="#000000" font-family="sans-serif" font-size="13" font-weight="bold" lengthAdjust="spacing" textLength="18" x="706.5" y="1158.6836">23</text><text fill="#000000" font-family="sans-serif" font-size="13" lengthAdjust="spacing" textLength="281" x="728.5" y="1158.6836">assignVehicle(selectedTask, selectedVehicle)</text><polygon fill="#181818" points="1479.5,1188.7363,1489.5,1192.7363,1479.5,1196.7363,1483.5,1192.7363" style="stroke:#181818;stroke-width:1.0;"/><line style="stroke:#181818;stroke-width:1.0;" x1="1154.5" x2="1485.5" y1="1192.7363" y2="1192.7363"/><text fill="#000000" font-family="sans-serif" font-size="13" font-weight="bold" lengthAdjust="spacing" textLength="18" x="1161.5" y="1187.9941">24</text><text fill="#000000" font-family="sans-serif" font-size="13" lengthAdjust="spacing" textLength="277" x="1183.5" y="1187.9941">selectedTask.assignVehicle(selectedVehicle)</text><polygon fill="#181818" points="1165.5,1218.0469,1155.5,1222.0469,1165.5,1226.0469,1161.5,1222.0469" style="stroke:#181818;stroke-width:1.0;"/><line style="stroke:#181818;stroke-width:1.0;stroke-dasharray:2.0,2.0;" x1="1159.5" x2="1495.5" y1="1222.0469" y2="1222.0469"/><text fill="#000000" font-family="sans-serif" font-size="13" font-weight="bold" lengthAdjust="spacing" textLength="18" x="1171.5" y="1217.3047">25</text><text fill="#000000" font-family="sans-serif" font-size="13" lengthAdjust="spacing" textLength="82" x="1193.5" y="1217.3047">selectedTask</text><polygon fill="#181818" points="710.5,1247.3574,700.5,1251.3574,710.5,1255.3574,706.5,1251.3574" style="stroke:#181818;stroke-width:1.0;"/><line style="stroke:#181818;stroke-width:1.0;stroke-dasharray:2.0,2.0;" x1="704.5" x2="1148.5" y1="1251.3574" y2="1251.3574"/><text fill="#000000" font-family="sans-serif" font-size="13" font-weight="bold" lengthAdjust="spacing" textLength="18" x="716.5" y="1246.6152">26</text><text fill="#000000" font-family="sans-serif" font-size="13" lengthAdjust="spacing" textLength="82" x="738.5" y="1246.6152">selectedTask</text><polygon fill="#181818" points="503.5,1283.668,493.5,1287.668,503.5,1291.668,499.5,1287.668" style="stroke:#181818;stroke-width:1.0;"/><line style="stroke:#181818;stroke-width:1.0;stroke-dasharray:2.0,2.0;" x1="497.5" x2="693.5" y1="1287.668" y2="1287.668"/><text fill="#000000" font-family="sans-serif" font-size="13" font-weight="bold" lengthAdjust="spacing" textLength="18" x="509.5" y="1282.9258">27</text><text fill="#000000" font-family="sans-serif" font-size="13" lengthAdjust="spacing" textLength="82" x="531.5" y="1282.9258">selectedTask</text><polygon fill="#181818" points="108.5,1319.9785,98.5,1323.9785,108.5,1327.9785,104.5,1323.9785" style="stroke:#181818;stroke-width:1.0;"/><line style="stroke:#181818;stroke-width:1.0;stroke-dasharray:2.0,2.0;" x1="102.5" x2="481.5" y1="1323.9785" y2="1323.9785"/><text fill="#000000" font-family="sans-serif" font-size="13" font-weight="bold" lengthAdjust="spacing" textLength="18" x="114.5" y="1319.2363">28</text><text fill="#000000" font-family="sans-serif" font-size="13" lengthAdjust="spacing" textLength="170" x="136.5" y="1319.2363">displays operation success</text><!--SRC=[jLTDJ-Cm4BtdLumu5KJHdYk1X625aE12ozxTP9fuczgHxO3wxtViV3aVpSTgrmTWavdtthon9rvzv29ZYftW98KC4oLF24Rb6EZwJSR28ujnQyufWiBGC16dVe1EM2I_kOZXm5ADGS1o8qL-sgEYlqCZ5LozA4G1My92U6U2yDGLC0qls_U0K0mFUSQ4WQlDezOy5ZjafyzN5_BvUZ7YIGgZP9gMO4-xZpV7oB-OGOSTq0zOFn08R2ZagC58-cq1WC4lJ7X8LTbd0f30pi05c0JXCKOHiGQCL0H0Yu3MX6UfRcu8CrH8hrVNzSlY7Rs9qHGWFmcNeovZQaIdrZvHU03vXQfvOjSBcb84b03k5JqeX3YMTLNQWVnjiRrnRPwDTA4HjadB6gmr6-gU_DQkTieY77dowYTRejesZIbr7wJ0m4EqnlWc5r6wDdJOGj-bhSl0Q4T4AxxSfIhV-NGUS-chwFTISyfjeY6bl25B8jHSaO0AlvRN8I07058fCyY5uIdackgf39EPuLB0ZwQs8LShCNLKpzvgjMmkjdoPMvdSWoWE47HMuU53nVo1cTISJlMvtRuBu2s27aIVpQu-4z7xpIkOXwXQT7xAC9DTBU3rx487yRncJvCFbDbqJ2zZc-birSloU6-0mZNVqmoyXp31y5ZYREaVKKxTxCYuhNNPqpfXVpb3BnfVYbWtpQreswFr8e0xIWVwlf0F2Ho5_1PWTLtEy6aVm9kLn5VC__kndTKhqKCOJV0wvQVCr6bh8e4ATPuQKhZ7L8fOxsHrvZfTcYdUMJLJzRIjDBzgXVV59M8qlbrYPmFOaHL5AzUIwqcOxfchK2OJ-yUrJXtD9TMstij1Di3kphbxL-v_smy9NJuMwHZpZo0NRkObxlsjSxrDJJBl4gRfAdT8UMXMq_FbF-xZyRPvC6EZpHw4PgoE7ONUD6v_fdqhRc7M6LyyU-i- -6Htmpecfyk2QU5Ortxjle1_qqtl-zBvg8vop6ppv1netpqdgRiNqGgx6zUwe4PSPoaxsziZAkOka3eFGzIwqUG1s_yI_G40]--></g></svg>