<?xml version="1.0" encoding="us-ascii" standalone="no"?><svg xmlns="http://www.w3.org/2000/svg" xmlns:xlink="http://www.w3.org/1999/xlink" contentStyleType="text/css" height="1481px" preserveAspectRatio="none" style="width:1543px;height:1481px;background:#FFFFFF;" version="1.1" viewBox="0 0 1543 1481" width="1543px" zoomAndPan="magnify"><defs/><g><rect fill="#FFFFFF" height="1291.1113" style="stroke:#181818;stroke-width:1.0;" width="10" x="92.5" y="91.4883"/><rect fill="#FFFFFF" height="173.8633" style="stroke:#181818;stroke-width:1.0;" width="10" x="480.5" y="112.7988"/><rect fill="#FFFFFF" height="132.375" style="stroke:#181818;stroke-width:1.0;" width="10" x="480.5" y="315.9727"/><rect fill="#FFFFFF" height="913.9414" style="stroke:#181818;stroke-width:1.0;" width="10" x="480.5" y="477.6582"/><rect fill="#FFFFFF" height="73.7539" style="stroke:#181818;stroke-width:1.0;" width="10" x="687.5" y="183.5977"/><rect fill="#FFFFFF" height="73.7539" style="stroke:#181818;stroke-width:1.0;" width="10" x="687.5" y="345.2832"/><rect fill="#FFFFFF" height="756.3887" style="stroke:#181818;stroke-width:1.0;" width="10" x="687.5" y="531.2793"/><rect fill="#FFFFFF" height="87.9316" style="stroke:#181818;stroke-width:1.0;" width="10" x="867.5" y="560.5898"/><rect fill="#FFFFFF" height="29.3105" style="stroke:#181818;stroke-width:1.0;" width="10" x="1040.5" y="589.9004"/><rect fill="#FFFFFF" height="439.9727" style="stroke:#181818;stroke-width:1.0;" width="10" x="1142.5" y="677.832"/><rect fill="#FFFFFF" height="87.9316" style="stroke:#181818;stroke-width:1.0;" width="10" x="1142.5" y="1163.4258"/><rect fill="#FFFFFF" height="30" style="stroke:#181818;stroke-width:1.0;" width="10" x="1301" y="915.873"/><rect fill="#FFFFFF" height="30" style="stroke:#181818;stroke-width:1.0;" width="10" x="1301" y="1013.4941"/><rect fill="#FFFFFF" height="30" style="stroke:#181818;stroke-width:1.0;" width="10" x="1414.5" y="772.9414"/><rect fill="#FFFFFF" height="30" style="stroke:#181818;stroke-width:1.0;" width="10" x="1489.5" y="832.252"/><rect fill="#FFFFFF" height="30" style="stroke:#181818;stroke-width:1.0;" width="10" x="1489.5" y="1072.8047"/><rect fill="#FFFFFF" height="29.3105" style="stroke:#181818;stroke-width:1.0;" width="10" x="1489.5" y="1192.7363"/><rect fill="none" height="861.6309" style="stroke:#000000;stroke-width:1.5;" width="1527.5" x="10" y="492.6582"/><rect fill="none" height="226.5527" style="stroke:#000000;stroke-width:1.5;" width="433.5" x="1094" y="734.3203"/><rect fill="none" height="76.6211" style="stroke:#000000;stroke-width:1.5;" width="273.5" x="1104" y="877.252"/><rect fill="none" height="135.9316" style="stroke:#000000;stroke-width:1.5;" width="423.5" x="1104" y="974.873"/><rect fill="none" height="134.5527" style="stroke:#000000;stroke-width:1.5;" width="931" x="596.5" y="1124.8047"/><line style="stroke:#181818;stroke-width:0.5;stroke-dasharray:5.0,5.0;" x1="97" x2="97" y1="81.4883" y2="1400.5996"/><line style="stroke:#181818;stroke-width:0.5;stroke-dasharray:5.0,5.0;" x1="485.5" x2="485.5" y1="81.4883" y2="1400.5996"/><line style="stroke:#181818;stroke-width:0.5;stroke-dasharray:5.0,5.0;" x1="692.5" x2="692.5" y1="151.543" y2="1400.5996"/><line style="stroke:#181818;stroke-width:0.5;stroke-dasharray:5.0,5.0;" x1="872.5" x2="872.5" y1="81.4883" y2="1400.5996"/><line style="stroke:#181818;stroke-width:0.5;stroke-dasharray:5.0,5.0;" x1="1045" x2="1045" y1="81.4883" y2="1400.5996"/><line style="stroke:#181818;stroke-width:0.5;stroke-dasharray:5.0,5.0;" x1="1147" x2="1147" y1="81.4883" y2="1400.5996"/><line style="stroke:#181818;stroke-width:0.5;stroke-dasharray:5.0,5.0;" x1="1305.5" x2="1305.5" y1="716.5762" y2="1400.5996"/><line style="stroke:#181818;stroke-width:0.5;stroke-dasharray:5.0,5.0;" x1="1419.5" x2="1419.5" y1="81.4883" y2="1400.5996"/><line style="stroke:#181818;stroke-width:0.5;stroke-dasharray:5.0,5.0;" x1="1494.5" x2="1494.5" y1="81.4883" y2="1400.5996"/><text fill="#000000" font-family="sans-serif" font-size="14" lengthAdjust="spacing" textLength="149" x="20" y="78.5352">Green Space Manager</text><ellipse cx="97.5" cy="13.5" fill="#E3E3E3" rx="8" ry="8" style="stroke:#181818;stroke-width:0.5;"/><path d="M97.5,21.5 L97.5,48.5 M84.5,29.5 L110.5,29.5 M97.5,48.5 L84.5,63.5 M97.5,48.5 L110.5,63.5 " fill="none" style="stroke:#181818;stroke-width:0.5;"/><text fill="#000000" font-family="sans-serif" font-size="14" lengthAdjust="spacing" textLength="149" x="20" y="1413.1348">Green Space Manager</text><ellipse cx="97.5" cy="1424.5879" fill="#E3E3E3" rx="8" ry="8" style="stroke:#181818;stroke-width:0.5;"/><path d="M97.5,1432.5879 L97.5,1459.5879 M84.5,1440.5879 L110.5,1440.5879 M97.5,1459.5879 L84.5,1474.5879 M97.5,1459.5879 L110.5,1474.5879 " fill="none" style="stroke:#181818;stroke-width:0.5;"/><rect fill="#E3E3E3" height="30.4883" rx="2.5" ry="2.5" style="stroke:#181818;stroke-width:0.5;" width="116" x="427.5" y="50"/><text fill="#000000" font-family="sans-serif" font-size="14" lengthAdjust="spacing" textLength="102" x="434.5" y="70.5352">:AssignTeamUI</text><rect fill="#E3E3E3" height="30.4883" rx="2.5" ry="2.5" style="stroke:#181818;stroke-width:0.5;" width="116" x="427.5" y="1399.5996"/><text fill="#000000" font-family="sans-serif" font-size="14" lengthAdjust="spacing" textLength="102" x="434.5" y="1420.1348">:AssignTeamUI</text><rect fill="#E3E3E3" height="30.4883" rx="2.5" ry="2.5" style="stroke:#181818;stroke-width:0.5;" width="172" x="606.5" y="1399.5996"/><text fill="#000000" font-family="sans-serif" font-size="14" lengthAdjust="spacing" textLength="158" x="613.5" y="1420.1348">:AssignTeamController</text><rect fill="#E3E3E3" height="30.4883" rx="2.5" ry="2.5" style="stroke:#181818;stroke-width:0.5;" width="136" x="804.5" y="50"/><text fill="#000000" font-family="sans-serif" font-size="14" lengthAdjust="spacing" textLength="122" x="811.5" y="70.5352">VehicleRepository</text><rect fill="#E3E3E3" height="30.4883" rx="2.5" ry="2.5" style="stroke:#181818;stroke-width:0.5;" width="136" x="804.5" y="1399.5996"/><text fill="#000000" font-family="sans-serif" font-size="14" lengthAdjust="spacing" textLength="122" x="811.5" y="1420.1348">VehicleRepository</text><rect fill="#E3E3E3" height="30.4883" rx="2.5" ry="2.5" style="stroke:#181818;stroke-width:0.5;" width="91" x="1000" y="50"/><text fill="#000000" font-family="sans-serif" font-size="14" lengthAdjust="spacing" textLength="77" x="1007" y="70.5352">vehiclesList</text><rect fill="#E3E3E3" height="30.4883" rx="2.5" ry="2.5" style="stroke:#181818;stroke-width:0.5;" width="91" x="1000" y="1399.5996"/><text fill="#000000" font-family="sans-serif" font-size="14" lengthAdjust="spacing" textLength="77" x="1007" y="1420.1348">vehiclesList</text><rect fill="#E3E3E3" height="30.4883" rx="2.5" ry="2.5" style="stroke:#181818;stroke-width:0.5;" width="67" x="1114" y="50"/><text fill="#000000" font-family="sans-serif" font-size="14" lengthAdjust="spacing" textLength="53" x="1121" y="70.5352">Agenda</text><rect fill="#E3E3E3" height="30.4883" rx="2.5" ry="2.5" style="stroke:#181818;stroke-width:0.5;" width="67" x="1114" y="1399.5996"/><text fill="#000000" font-family="sans-serif" font-size="14" lengthAdjust="spacing" textLength="53" x="1121" y="1420.1348">Agenda</text><rect fill="#E3E3E3" height="30.4883" rx="2.5" ry="2.5" style="stroke:#181818;stroke-width:0.5;" width="123" x="1244.5" y="1399.5996"/><text fill="#000000" font-family="sans-serif" font-size="14" lengthAdjust="spacing" textLength="109" x="1251.5" y="1420.1348">vehicleSchedule</text><rect fill="#E3E3E3" height="30.4883" rx="2.5" ry="2.5" style="stroke:#181818;stroke-width:0.5;" width="84" x="1377.5" y="50"/><text fill="#000000" font-family="sans-serif" font-size="14" lengthAdjust="spacing" textLength="70" x="1384.5" y="70.5352">EntriesList</text><rect fill="#E3E3E3" height="30.4883" rx="2.5" ry="2.5" style="stroke:#181818;stroke-width:0.5;" width="84" x="1377.5" y="1399.5996"/><text fill="#000000" font-family="sans-serif" font-size="14" lengthAdjust="spacing" textLength="70" x="1384.5" y="1420.1348">EntriesList</text><rect fill="#E3E3E3" height="30.4883" rx="2.5" ry="2.5" style="stroke:#181818;stroke-width:0.5;" width="46" x="1471.5" y="50"/><text fill="#000000" font-family="sans-serif" font-size="14" lengthAdjust="spacing" textLength="32" x="1478.5" y="70.5352">Task</text><rect fill="#E3E3E3" height="30.4883" rx="2.5" ry="2.5" style="stroke:#181818;stroke-width:0.5;" width="46" x="1471.5" y="1399.5996"/><text fill="#000000" font-family="sans-serif" font-size="14" lengthAdjust="spacing" textLength="32" x="1478.5" y="1420.1348">Task</text><rect fill="#FFFFFF" height="1291.1113" style="stroke:#181818;stroke-width:1.0;" width="10" x="92.5" y="91.4883"/><rect fill="#FFFFFF" height="173.8633" style="stroke:#181818;stroke-width:1.0;" width="10" x="480.5" y="112.7988"/><rect fill="#FFFFFF" height="132.375" style="stroke:#181818;stroke-width:1.0;" width="10" x="480.5" y="315.9727"/><rect fill="#FFFFFF" height="913.9414" style="stroke:#181818;stroke-width:1.0;" width="10" x="480.5" y="477.6582"/><rect fill="#FFFFFF" height="73.7539" style="stroke:#181818;stroke-width:1.0;" width="10" x="687.5" y="183.5977"/><rect fill="#FFFFFF" height="73.7539" style="stroke:#181818;stroke-width:1.0;" width="10" x="687.5" y="345.2832"/><rect fill="#FFFFFF" height="756.3887" style="stroke:#181818;stroke-width:1.0;" width="10" x="687.5" y="531.2793"/><rect fill="#FFFFFF" height="87.9316" style="stroke:#181818;stroke-width:1.0;" width="10" x="867.5" y="560.5898"/><rect fill="#FFFFFF" height="29.3105" style="stroke:#181818;stroke-width:1.0;" width="10" x="1040.5" y="589.9004"/><rect fill="#FFFFFF" height="439.9727" style="stroke:#181818;stroke-width:1.0;" width="10" x="1142.5" y="677.832"/><rect fill="#FFFFFF" height="87.9316" style="stroke:#181818;stroke-width:1.0;" width="10" x="1142.5" y="1163.4258"/><rect fill="#FFFFFF" height="30" style="stroke:#181818;stroke-width:1.0;" width="10" x="1301" y="915.873"/><rect fill="#FFFFFF" height="30" style="stroke:#181818;stroke-width:1.0;" width="10" x="1301" y="1013.4941"/><rect fill="#FFFFFF" height="30" style="stroke:#181818;stroke-width:1.0;" width="10" x="1414.5" y="772.9414"/><rect fill="#FFFFFF" height="30" style="stroke:#181818;stroke-width:1.0;" width="10" x="1489.5" y="832.252"/><rect fill="#FFFFFF" height="30" style="stroke:#181818;stroke-width:1.0;" width="10" x="1489.5" y="1072.8047"/><rect fill="#FFFFFF" height="29.3105" style="stroke:#181818;stroke-width:1.0;" width="10" x="1489.5" y="1192.7363"/><polygon fill="#181818" points="468.5,108.7988,478.5,112.7988,468.5,116.7988,472.5,112.7988" style="stroke:#181818;stroke-width:1.0;"/><line style="stroke:#181818;stroke-width:1.0;" x1="102.5" x2="474.5" y1="112.7988" y2="112.7988"/><text fill="#000000" font-family="sans-serif" font-size="13" font-weight="bold" lengthAdjust="spacing" textLength="9" x="109.5" y="108.0566">1</text><text fill="#000000" font-family="sans-serif" font-size="13" lengthAdjust="spacing" textLength="314" x="122.5" y="108.0566">asks to assign a Vehicle to an entry in the Agenda</text><polygon fill="#181818" points="594.5,138.1094,604.5,142.1094,594.5,146.1094,598.5,142.1094" style="stroke:#181818;stroke-width:1.0;"/><line style="stroke:#181818;stroke-width:1.0;stroke-dasharray:2.0,2.0;" x1="490.5" x2="600.5" y1="142.1094" y2="142.1094"/><text fill="#000000" font-family="sans-serif" font-size="13" font-weight="bold" lengthAdjust="spacing" textLength="9" x="497.5" y="137.3672">2</text><text fill="#000000" font-family="sans-serif" font-size="13" lengthAdjust="spacing" textLength="46" x="510.5" y="137.3672">create()</text><rect fill="#E3E3E3" height="30.4883" rx="2.5" ry="2.5" style="stroke:#181818;stroke-width:0.5;" width="172" x="606.5" y="120.7988"/><text fill="#000000" font-family="sans-serif" font-size="14" lengthAdjust="spacing" textLength="158" x="613.5" y="141.334">:AssignTeamController</text><polygon fill="#181818" points="675.5,179.5977,685.5,183.5977,675.5,187.5977,679.5,183.5977" style="stroke:#181818;stroke-width:1.0;"/><line style="stroke:#181818;stroke-width:1.0;" x1="490.5" x2="681.5" y1="183.5977" y2="183.5977"/><text fill="#000000" font-family="sans-serif" font-size="13" font-weight="bold" lengthAdjust="spacing" textLength="9" x="497.5" y="178.8555">3</text><text fill="#000000" font-family="sans-serif" font-size="13" lengthAdjust="spacing" textLength="118" x="510.5" y="178.8555">getAgendaEntries()</text><rect fill="none" height="39.4434" style="stroke:#000000;stroke-width:1.5;" width="178" x="603.5" y="191.5977"/><path d="M603.5,191.5977 L667.5,191.5977 L667.5,198.5977 L657.5,208.5977 L603.5,208.5977 L603.5,191.5977 " fill="#EEEEEE" style="stroke:#000000;stroke-width:2.0;"/><text fill="#000000" font-family="sans-serif" font-size="13" font-weight="bold" lengthAdjust="spacing" textLength="19" x="616.5" y="206.166">ref</text><text fill="#000000" font-family="sans-serif" font-size="12" lengthAdjust="spacing" textLength="111" x="637" y="224.1992">Get Agenda Entries</text><polygon fill="#181818" points="501.5,253.3516,491.5,257.3516,501.5,261.3516,497.5,257.3516" style="stroke:#181818;stroke-width:1.0;"/><line style="stroke:#181818;stroke-width:1.0;stroke-dasharray:2.0,2.0;" x1="495.5" x2="691.5" y1="257.3516" y2="257.3516"/><text fill="#000000" font-family="sans-serif" font-size="13" font-weight="bold" lengthAdjust="spacing" textLength="9" x="507.5" y="252.6094">4</text><text fill="#000000" font-family="sans-serif" font-size="13" lengthAdjust="spacing" textLength="160" x="520.5" y="252.6094">freeAgendaEntriesListDto</text><polygon fill="#181818" points="113.5,282.6621,103.5,286.6621,113.5,290.6621,109.5,286.6621" style="stroke:#181818;stroke-width:1.0;"/><line style="stroke:#181818;stroke-width:1.0;stroke-dasharray:2.0,2.0;" x1="107.5" x2="484.5" y1="286.6621" y2="286.6621"/><text fill="#000000" font-family="sans-serif" font-size="13" font-weight="bold" lengthAdjust="spacing" textLength="9" x="119.5" y="281.9199">5</text><text fill="#000000" font-family="sans-serif" font-size="13" lengthAdjust="spacing" textLength="341" x="132.5" y="281.9199">shows entries from the Agenda and asks to select one</text><polygon fill="#181818" points="468.5,311.9727,478.5,315.9727,468.5,319.9727,472.5,315.9727" style="stroke:#181818;stroke-width:1.0;"/><line style="stroke:#181818;stroke-width:1.0;" x1="102.5" x2="474.5" y1="315.9727" y2="315.9727"/><text fill="#000000" font-family="sans-serif" font-size="13" font-weight="bold" lengthAdjust="spacing" textLength="9" x="109.5" y="311.2305">6</text><text fill="#000000" font-family="sans-serif" font-size="13" lengthAdjust="spacing" textLength="99" x="122.5" y="311.2305">selects an entry</text><polygon fill="#181818" points="675.5,341.2832,685.5,345.2832,675.5,349.2832,679.5,345.2832" style="stroke:#181818;stroke-width:1.0;"/><line style="stroke:#181818;stroke-width:1.0;" x1="490.5" x2="681.5" y1="345.2832" y2="345.2832"/><text fill="#000000" font-family="sans-serif" font-size="13" font-weight="bold" lengthAdjust="spacing" textLength="9" x="497.5" y="340.541">7</text><text fill="#000000" font-family="sans-serif" font-size="13" lengthAdjust="spacing" textLength="114" x="510.5" y="340.541">getSelectedTask(i)</text><rect fill="none" height="39.4434" style="stroke:#000000;stroke-width:1.5;" width="178" x="603.5" y="353.2832"/><path d="M603.5,353.2832 L667.5,353.2832 L667.5,360.2832 L657.5,370.2832 L603.5,370.2832 L603.5,353.2832 " fill="#EEEEEE" style="stroke:#000000;stroke-width:2.0;"/><text fill="#000000" font-family="sans-serif" font-size="13" font-weight="bold" lengthAdjust="spacing" textLength="19" x="616.5" y="367.8516">ref</text><text fill="#000000" font-family="sans-serif" font-size="12" lengthAdjust="spacing" textLength="105" x="640" y="385.8848">Get Selected Entry</text><polygon fill="#181818" points="501.5,415.0371,491.5,419.0371,501.5,423.0371,497.5,419.0371" style="stroke:#181818;stroke-width:1.0;"/><line style="stroke:#181818;stroke-width:1.0;stroke-dasharray:2.0,2.0;" x1="495.5" x2="691.5" y1="419.0371" y2="419.0371"/><text fill="#000000" font-family="sans-serif" font-size="13" font-weight="bold" lengthAdjust="spacing" textLength="9" x="507.5" y="414.2949">8</text><text fill="#000000" font-family="sans-serif" font-size="13" lengthAdjust="spacing" textLength="97" x="520.5" y="414.2949">vehiclesListDto</text><polygon fill="#181818" points="113.5,444.3477,103.5,448.3477,113.5,452.3477,109.5,448.3477" style="stroke:#181818;stroke-width:1.0;"/><line style="stroke:#181818;stroke-width:1.0;stroke-dasharray:2.0,2.0;" x1="107.5" x2="484.5" y1="448.3477" y2="448.3477"/><text fill="#000000" font-family="sans-serif" font-size="13" font-weight="bold" lengthAdjust="spacing" textLength="9" x="119.5" y="443.6055">9</text><text fill="#000000" font-family="sans-serif" font-size="13" lengthAdjust="spacing" textLength="297" x="132.5" y="443.6055">shows Vehicles list and asks to select a vehicle</text><polygon fill="#181818" points="468.5,473.6582,478.5,477.6582,468.5,481.6582,472.5,477.6582" style="stroke:#181818;stroke-width:1.0;"/><line style="stroke:#181818;stroke-width:1.0;" x1="102.5" x2="474.5" y1="477.6582" y2="477.6582"/><text fill="#000000" font-family="sans-serif" font-size="13" font-weight="bold" lengthAdjust="spacing" textLength="18" x="109.5" y="472.916">10</text><text fill="#000000" font-family="sans-serif" font-size="13" lengthAdjust="spacing" textLength="104" x="131.5" y="472.916">selects a Vehicle</text><path d="M10,492.6582 L84,492.6582 L84,499.9688 L74,509.9688 L10,509.9688 L10,492.6582 " fill="#EEEEEE" style="stroke:#000000;stroke-width:1.5;"/><rect fill="none" height="861.6309" style="stroke:#000000;stroke-width:1.5;" width="1527.5" x="10" y="492.6582"/><text fill="#000000" font-family="sans-serif" font-size="13" font-weight="bold" lengthAdjust="spacing" textLength="29" x="25" y="506.2266">loop</text><text fill="#000000" font-family="sans-serif" font-size="11" font-weight="bold" lengthAdjust="spacing" textLength="122" x="99" y="505.293">[until user selects no]</text><polygon fill="#181818" points="675.5,527.2793,685.5,531.2793,675.5,535.2793,679.5,531.2793" style="stroke:#181818;stroke-width:1.0;"/><line style="stroke:#181818;stroke-width:1.0;" x1="490.5" x2="681.5" y1="531.2793" y2="531.2793"/><text fill="#000000" font-family="sans-serif" font-size="13" font-weight="bold" lengthAdjust="spacing" textLength="18" x="497.5" y="526.5371">11</text><text fill="#000000" font-family="sans-serif" font-size="13" lengthAdjust="spacing" textLength="98" x="519.5" y="526.5371">assignVehicle(i)</text><polygon fill="#181818" points="855.5,556.5898,865.5,560.5898,855.5,564.5898,859.5,560.5898" style="stroke:#181818;stroke-width:1.0;"/><line style="stroke:#181818;stroke-width:1.0;" x1="697.5" x2="861.5" y1="560.5898" y2="560.5898"/><text fill="#000000" font-family="sans-serif" font-size="13" font-weight="bold" lengthAdjust="spacing" textLength="18" x="704.5" y="555.8477">12</text><text fill="#000000" font-family="sans-serif" font-size="13" lengthAdjust="spacing" textLength="129" x="726.5" y="555.8477">getSelectedVehicle(i)</text><polygon fill="#181818" points="1028.5,585.9004,1038.5,589.9004,1028.5,593.9004,1032.5,589.9004" style="stroke:#181818;stroke-width:1.0;"/><line style="stroke:#181818;stroke-width:1.0;" x1="877.5" x2="1034.5" y1="589.9004" y2="589.9004"/><text fill="#000000" font-family="sans-serif" font-size="13" font-weight="bold" lengthAdjust="spacing" textLength="18" x="884.5" y="585.1582">13</text><text fill="#000000" font-family="sans-serif" font-size="13" lengthAdjust="spacing" textLength="32" x="906.5" y="585.1582">get(i)</text><polygon fill="#181818" points="888.5,615.2109,878.5,619.2109,888.5,623.2109,884.5,619.2109" style="stroke:#181818;stroke-width:1.0;"/><line style="stroke:#181818;stroke-width:1.0;stroke-dasharray:2.0,2.0;" x1="882.5" x2="1044.5" y1="619.2109" y2="619.2109"/><text fill="#000000" font-family="sans-serif" font-size="13" font-weight="bold" lengthAdjust="spacing" textLength="18" x="894.5" y="614.4688">14</text><text fill="#000000" font-family="sans-serif" font-size="13" lengthAdjust="spacing" textLength="117" x="916.5" y="614.4688">getSelectedVehicle</text><polygon fill="#181818" points="708.5,644.5215,698.5,648.5215,708.5,652.5215,704.5,648.5215" style="stroke:#181818;stroke-width:1.0;"/><line style="stroke:#181818;stroke-width:1.0;stroke-dasharray:2.0,2.0;" x1="702.5" x2="871.5" y1="648.5215" y2="648.5215"/><text fill="#000000" font-family="sans-serif" font-size="13" font-weight="bold" lengthAdjust="spacing" textLength="18" x="714.5" y="643.7793">15</text><text fill="#000000" font-family="sans-serif" font-size="13" lengthAdjust="spacing" textLength="97" x="736.5" y="643.7793">selectedVehicle</text><polygon fill="#181818" points="1130.5,673.832,1140.5,677.832,1130.5,681.832,1134.5,677.832" style="stroke:#181818;stroke-width:1.0;"/><line style="stroke:#181818;stroke-width:1.0;" x1="697.5" x2="1136.5" y1="677.832" y2="677.832"/><text fill="#000000" font-family="sans-serif" font-size="13" font-weight="bold" lengthAdjust="spacing" textLength="18" x="704.5" y="673.0898">16</text><text fill="#000000" font-family="sans-serif" font-size="13" lengthAdjust="spacing" textLength="404" x="726.5" y="673.0898">possible = checkVehicleSchedule(selectedVehicle, selectedTask)</text><polygon fill="#181818" points="1232.5,703.1426,1242.5,707.1426,1232.5,711.1426,1236.5,707.1426" style="stroke:#181818;stroke-width:1.0;"/><line style="stroke:#181818;stroke-width:1.0;stroke-dasharray:2.0,2.0;" x1="1152.5" x2="1238.5" y1="707.1426" y2="707.1426"/><text fill="#000000" font-family="sans-serif" font-size="13" font-weight="bold" lengthAdjust="spacing" textLength="18" x="1159.5" y="702.4004">17</text><text fill="#000000" font-family="sans-serif" font-size="13" lengthAdjust="spacing" textLength="46" x="1181.5" y="702.4004">create()</text><rect fill="#E3E3E3" height="30.4883" rx="2.5" ry="2.5" style="stroke:#181818;stroke-width:0.5;" width="123" x="1244.5" y="685.832"/><text fill="#000000" font-family="sans-serif" font-size="14" lengthAdjust="spacing" textLength="109" x="1251.5" y="706.3672">vehicleSchedule</text><path d="M1094,734.3203 L1168,734.3203 L1168,741.6309 L1158,751.6309 L1094,751.6309 L1094,734.3203 " fill="#EEEEEE" style="stroke:#000000;stroke-width:1.5;"/><rect fill="none" height="226.5527" style="stroke:#000000;stroke-width:1.5;" width="433.5" x="1094" y="734.3203"/><text fill="#000000" font-family="sans-serif" font-size="13" font-weight="bold" lengthAdjust="spacing" textLength="29" x="1109" y="747.8887">loop</text><text fill="#000000" font-family="sans-serif" font-size="11" font-weight="bold" lengthAdjust="spacing" textLength="126" x="1183" y="746.9551">[for each known Task]</text><polygon fill="#181818" points="1402.5,768.9414,1412.5,772.9414,1402.5,776.9414,1406.5,772.9414" style="stroke:#181818;stroke-width:1.0;"/><line style="stroke:#181818;stroke-width:1.0;" x1="1152.5" x2="1408.5" y1="772.9414" y2="772.9414"/><text fill="#000000" font-family="sans-serif" font-size="13" font-weight="bold" lengthAdjust="spacing" textLength="18" x="1159.5" y="768.1992">18</text><text fill="#000000" font-family="sans-serif" font-size="13" lengthAdjust="spacing" textLength="82" x="1181.5" y="768.1992">entry = get(i)</text><polygon fill="#181818" points="1477.5,828.252,1487.5,832.252,1477.5,836.252,1481.5,832.252" style="stroke:#181818;stroke-width:1.0;"/><line style="stroke:#181818;stroke-width:1.0;" x1="1152.5" x2="1483.5" y1="832.252" y2="832.252"/><text fill="#000000" font-family="sans-serif" font-size="13" font-weight="bold" lengthAdjust="spacing" textLength="18" x="1159.5" y="827.5098">19</text><text fill="#000000" font-family="sans-serif" font-size="13" lengthAdjust="spacing" textLength="270" x="1181.5" y="827.5098">result = belongsToVehicle(selectedVehicle)</text><path d="M1104,877.252 L1171,877.252 L1171,884.5625 L1161,894.5625 L1104,894.5625 L1104,877.252 " fill="#EEEEEE" style="stroke:#000000;stroke-width:1.5;"/><rect fill="none" height="76.6211" style="stroke:#000000;stroke-width:1.5;" width="273.5" x="1104" y="877.252"/><text fill="#000000" font-family="sans-serif" font-size="13" font-weight="bold" lengthAdjust="spacing" textLength="22" x="1119" y="890.8203">opt</text><text fill="#000000" font-family="sans-serif" font-size="11" font-weight="bold" lengthAdjust="spacing" textLength="88" x="1186" y="889.8867">[result == true]</text><polygon fill="#181818" points="1289,911.873,1299,915.873,1289,919.873,1293,915.873" style="stroke:#181818;stroke-width:1.0;"/><line style="stroke:#181818;stroke-width:1.0;" x1="1152.5" x2="1295" y1="915.873" y2="915.873"/><text fill="#000000" font-family="sans-serif" font-size="13" font-weight="bold" lengthAdjust="spacing" textLength="18" x="1159.5" y="911.1309">20</text><text fill="#000000" font-family="sans-serif" font-size="13" lengthAdjust="spacing" textLength="63" x="1181.5" y="911.1309">add(entry)</text><path d="M1104,974.873 L1178,974.873 L1178,982.1836 L1168,992.1836 L1104,992.1836 L1104,974.873 " fill="#EEEEEE" style="stroke:#000000;stroke-width:1.5;"/><rect fill="none" height="135.9316" style="stroke:#000000;stroke-width:1.5;" width="423.5" x="1104" y="974.873"/><text fill="#000000" font-family="sans-serif" font-size="13" font-weight="bold" lengthAdjust="spacing" textLength="29" x="1119" y="988.4414">loop</text><text fill="#000000" font-family="sans-serif" font-size="11" font-weight="bold" lengthAdjust="spacing" textLength="200" x="1193" y="987.5078">[for each object in vehicleSchedule]</text><polygon fill="#181818" points="1289,1009.4941,1299,1013.4941,1289,1017.4941,1293,1013.4941" style="stroke:#181818;stroke-width:1.0;"/><line style="stroke:#181818;stroke-width:1.0;" x1="1152.5" x2="1295" y1="1013.4941" y2="1013.4941"/><text fill="#000000" font-family="sans-serif" font-size="13" font-weight="bold" lengthAdjust="spacing" textLength="18" x="1159.5" y="1008.752">21</text><text fill="#000000" font-family="sans-serif" font-size="13" lengthAdjust="spacing" textLength="70" x="1181.5" y="1008.752">obj = get(i)</text><polygon fill="#181818" points="1477.5,1068.8047,1487.5,1072.8047,1477.5,1076.8047,1481.5,1072.8047" style="stroke:#181818;stroke-width:1.0;"/><line style="stroke:#181818;stroke-width:1.0;" x1="1152.5" x2="1483.5" y1="1072.8047" y2="1072.8047"/><text fill="#000000" font-family="sans-serif" font-size="13" font-weight="bold" lengthAdjust="spacing" textLength="18" x="1159.5" y="1068.0625">22</text><text fill="#000000" font-family="sans-serif" font-size="13" lengthAdjust="spacing" textLength="186" x="1181.5" y="1068.0625">obj.hasConflict(selectedTask)</text><path d="M596.5,1124.8047 L663.5,1124.8047 L663.5,1132.1152 L653.5,1142.1152 L596.5,1142.1152 L596.5,1124.8047 " fill="#EEEEEE" style="stroke:#000000;stroke-width:1.5;"/><rect fill="none" height="134.5527" style="stroke:#000000;stroke-width:1.5;" width="931" x="596.5" y="1124.8047"/><text fill="#000000" font-family="sans-serif" font-size="13" font-weight="bold" lengthAdjust="spacing" textLength="22" x="611.5" y="1138.373">opt</text><text fill="#000000" font-family="sans-serif" font-size="11" font-weight="bold" lengthAdjust="spacing" textLength="103" x="678.5" y="1137.4395">[possible == true]</text><polygon fill="#181818" points="1130.5,1159.4258,1140.5,1163.4258,1130.5,1167.4258,1134.5,1163.4258" style="stroke:#181818;stroke-width:1.0;"/><line style="stroke:#181818;stroke-width:1.0;" x1="697.5" x2="1136.5" y1="1163.4258" y2="1163.4258"/><text fill="#000000" font-family="sans-serif" font-size="13" font-weight="bold" lengthAdjust="spacing" textLength="18" x="704.5" y="1158.6836">23</text><text fill="#000000" font-family="sans-serif" font-size="13" lengthAdjust="spacing" textLength="281" x="726.5" y="1158.6836">assignVehicle(selectedTask, selectedVehicle)</text><polygon fill="#181818" points="1477.5,1188.7363,1487.5,1192.7363,1477.5,1196.7363,1481.5,1192.7363" style="stroke:#181818;stroke-width:1.0;"/><line style="stroke:#181818;stroke-width:1.0;" x1="1152.5" x2="1483.5" y1="1192.7363" y2="1192.7363"/><text fill="#000000" font-family="sans-serif" font-size="13" font-weight="bold" lengthAdjust="spacing" textLength="18" x="1159.5" y="1187.9941">24</text><text fill="#000000" font-family="sans-serif" font-size="13" lengthAdjust="spacing" textLength="277" x="1181.5" y="1187.9941">selectedTask.assignVehicle(selectedVehicle)</text><polygon fill="#181818" points="1163.5,1218.0469,1153.5,1222.0469,1163.5,1226.0469,1159.5,1222.0469" style="stroke:#181818;stroke-width:1.0;"/><line style="stroke:#181818;stroke-width:1.0;stroke-dasharray:2.0,2.0;" x1="1157.5" x2="1493.5" y1="1222.0469" y2="1222.0469"/><text fill="#000000" font-family="sans-serif" font-size="13" font-weight="bold" lengthAdjust="spacing" textLength="18" x="1169.5" y="1217.3047">25</text><text fill="#000000" font-family="sans-serif" font-size="13" lengthAdjust="spacing" textLength="82" x="1191.5" y="1217.3047">selectedTask</text><polygon fill="#181818" points="708.5,1247.3574,698.5,1251.3574,708.5,1255.3574,704.5,1251.3574" style="stroke:#181818;stroke-width:1.0;"/><line style="stroke:#181818;stroke-width:1.0;stroke-dasharray:2.0,2.0;" x1="702.5" x2="1146.5" y1="1251.3574" y2="1251.3574"/><text fill="#000000" font-family="sans-serif" font-size="13" font-weight="bold" lengthAdjust="spacing" textLength="18" x="714.5" y="1246.6152">26</text><text fill="#000000" font-family="sans-serif" font-size="13" lengthAdjust="spacing" textLength="82" x="736.5" y="1246.6152">selectedTask</text><polygon fill="#181818" points="501.5,1283.668,491.5,1287.668,501.5,1291.668,497.5,1287.668" style="stroke:#181818;stroke-width:1.0;"/><line style="stroke:#181818;stroke-width:1.0;stroke-dasharray:2.0,2.0;" x1="495.5" x2="691.5" y1="1287.668" y2="1287.668"/><text fill="#000000" font-family="sans-serif" font-size="13" font-weight="bold" lengthAdjust="spacing" textLength="18" x="507.5" y="1282.9258">27</text><text fill="#000000" font-family="sans-serif" font-size="13" lengthAdjust="spacing" textLength="82" x="529.5" y="1282.9258">selectedTask</text><polygon fill="#181818" points="113.5,1312.9785,103.5,1316.9785,113.5,1320.9785,109.5,1316.9785" style="stroke:#181818;stroke-width:1.0;"/><line style="stroke:#181818;stroke-width:1.0;stroke-dasharray:2.0,2.0;" x1="107.5" x2="479.5" y1="1316.9785" y2="1316.9785"/><text fill="#000000" font-family="sans-serif" font-size="13" font-weight="bold" lengthAdjust="spacing" textLength="18" x="119.5" y="1312.2363">28</text><text fill="#000000" font-family="sans-serif" font-size="13" lengthAdjust="spacing" textLength="277" x="141.5" y="1312.2363">Ask user if they want to add another vehicle</text><polygon fill="#181818" points="468.5,1342.2891,478.5,1346.2891,468.5,1350.2891,472.5,1346.2891" style="stroke:#181818;stroke-width:1.0;"/><line style="stroke:#181818;stroke-width:1.0;" x1="102.5" x2="474.5" y1="1346.2891" y2="1346.2891"/><text fill="#000000" font-family="sans-serif" font-size="13" font-weight="bold" lengthAdjust="spacing" textLength="18" x="109.5" y="1341.5469">29</text><text fill="#000000" font-family="sans-serif" font-size="13" lengthAdjust="spacing" textLength="145" x="131.5" y="1341.5469">User response (yes/no)</text><polygon fill="#181818" points="108.5,1378.5996,98.5,1382.5996,108.5,1386.5996,104.5,1382.5996" style="stroke:#181818;stroke-width:1.0;"/><line style="stroke:#181818;stroke-width:1.0;stroke-dasharray:2.0,2.0;" x1="102.5" x2="479.5" y1="1382.5996" y2="1382.5996"/><text fill="#000000" font-family="sans-serif" font-size="13" font-weight="bold" lengthAdjust="spacing" textLength="18" x="114.5" y="1377.8574">30</text><text fill="#000000" font-family="sans-serif" font-size="13" lengthAdjust="spacing" textLength="170" x="136.5" y="1377.8574">displays operation success</text><!--SRC=[jLTBR-CW4BxxLunwIgkcUu_KIbLt5LLgBqswTs9FR3OEM80RvT_lW1-1sB6TVN3e0vZlc_a6Xh7USL4mnVQmbqB6cP9x1ADAZ7IxKh1unr9ScMEEe30sJAIvlq5dB947BbBOibnZ5B7II57kDwZexzX81JTBXIXWHLW8xqmGdhe1fc6vUey8nV2O5qmOk5ayQyrJiKQs_tnrMpvVB-vuaS8ecUSrsClwuyqnyYzcq657z0FcJmG22zgoqs0a_RO0mE0dPZocgEoS02Im8t019aDuJb4ax0H6NaH0Wu3cX6Ufxku8CrP8oxFRTh5QevKKJGNoWt0vwdfFY-YyjJCAjo2_K9rcx5YYgPs06i0jqKJbY6EPDw5jIT-0xOrhyzr8jpN1aBIEmKgpeEp9WtQnanNXoBqNFycIjB9fp2dx80L67g8LnXUvsgLRGVibz5LQEGjCraGquzUhrDWxdOv3AdrL-HuKfqsnBqzzK3JaPDad2ckmMyz2Q8hTM-ZLgo7nDtQqgqSkPG6bC3o7KfCc3OYGmRQEsjN9huaQhVluggi4tL49-jGu-u65r9ok-37CvMMAWAQ3qijfHvUFdF3pMV5V80n8VQkBV7O4yFF9GL-2z8x391TwGZvbKb_DELth9iTr3LW0MMY-eKBv2766yQw6Mj4_IKbPFdFcllNENkdnXDIrTYWLjIlpKz8Ryh0A3s6uIxEbruWqoM0dv460TN3Go2T_0g-u4clrO3oEdBjEk1x8c8sNFjzgkiCsFl9KeIvpGwvkC9SYrMlPND2pr4sFmYattVr9Gil2jAu-Ldt8c4aOxjdPi1KlIMOkJxTJaCulQ0CqnRPxlLlhCNDotyO-kC_kiIVuYYCkDx_isqGTpRKE3IbAgDUV-Ilr_0ijEsUV_7t8cAPUSPlpsCmcrQR_Vjn7q-c1ZTH7UsjE5NhatdHgUzWI-EBSmzJYy2ULlCsFJ_dGxysKudHTfN7SSry7tur_cMZlvJfxkiUOff-0eVeHTi1ZtEVTS2zaq20_av2k1-LR- -5mX8FzIhDVL0broKBIdEfhZljwuK-BGmz08OL6c1rHVnCoVDJRUpESeS35XEiYPqTD6g5YXai1kenZr3gwqAwJtMy0]--></g></svg>