<?xml version="1.0" encoding="us-ascii" standalone="no"?><svg xmlns="http://www.w3.org/2000/svg" xmlns:xlink="http://www.w3.org/1999/xlink" contentStyleType="text/css" height="594px" preserveAspectRatio="none" style="width:471px;height:594px;background:#FFFFFF;" version="1.1" viewBox="0 0 471 594" width="471px" zoomAndPan="magnify"><defs/><g><text fill="#000000" font-family="sans-serif" font-size="14" font-weight="bold" lengthAdjust="spacing" textLength="339" x="59" y="25.1074">Register a job  that a collaborator needs to have</text><!--class Repositories--><g id="elem_Repositories"><rect codeLine="5" fill="#F1F1F1" height="85.2422" id="Repositories" rx="2.5" ry="2.5" style="stroke:#181818;stroke-width:0.5;" width="136" x="96.5" y="46.6211"/><ellipse cx="122.75" cy="62.6211" fill="#ADD1B2" rx="11" ry="11" style="stroke:#181818;stroke-width:1.0;"/><path d="M125.5156,58.4961 Q125.6719,58.2773 125.8594,58.168 Q126.0469,58.0586 126.2656,58.0586 Q126.6406,58.0586 126.875,58.3242 Q127.1094,58.5742 127.1094,59.1836 L127.1094,60.6367 Q127.1094,61.2461 126.875,61.5117 Q126.6406,61.7773 126.2656,61.7773 Q125.9219,61.7773 125.7188,61.5742 Q125.5156,61.3867 125.4063,60.8711 Q125.3594,60.5117 125.1719,60.3242 Q124.8438,59.9492 124.2344,59.7305 Q123.625,59.5117 123,59.5117 Q122.2344,59.5117 121.5938,59.8398 Q120.9688,60.168 120.4688,60.918 Q119.9844,61.668 119.9844,62.6992 L119.9844,63.793 Q119.9844,65.0273 120.875,65.8555 Q121.7656,66.668 123.3594,66.668 Q124.2969,66.668 124.9531,66.418 Q125.3438,66.2617 125.7656,65.8242 Q126.0313,65.5586 126.1719,65.4805 Q126.3281,65.4023 126.5313,65.4023 Q126.8594,65.4023 127.1094,65.668 Q127.375,65.918 127.375,66.2617 Q127.375,66.6055 127.0313,67.0117 Q126.5313,67.5898 125.7344,67.918 Q124.6563,68.3711 123.3594,68.3711 Q121.8438,68.3711 120.6406,67.7461 Q119.6563,67.2461 118.9688,66.1836 Q118.2813,65.1055 118.2813,63.8242 L118.2813,62.668 Q118.2813,61.3398 118.8906,60.1992 Q119.5156,59.043 120.6094,58.4336 Q121.7031,57.8086 122.9375,57.8086 Q123.6719,57.8086 124.3125,57.9805 Q124.9688,58.1367 125.5156,58.4961 Z " fill="#000000"/><text fill="#000000" font-family="sans-serif" font-size="14" lengthAdjust="spacing" textLength="79" x="139.25" y="68.418">Repositories</text><line style="stroke:#181818;stroke-width:0.5;" x1="97.5" x2="231.5" y1="78.6211" y2="78.6211"/><line style="stroke:#181818;stroke-width:0.5;" x1="97.5" x2="231.5" y1="86.6211" y2="86.6211"/><text fill="#000000" font-family="sans-serif" font-size="14" lengthAdjust="spacing" textLength="124" x="102.5" y="105.7285">getJobRepository();</text><text fill="#000000" font-family="sans-serif" font-size="14" lengthAdjust="spacing" textLength="93" x="102.5" y="124.3496">Repositories();</text></g><!--class RegisterJobController--><g id="elem_RegisterJobController"><rect codeLine="9" fill="#F1F1F1" height="85.2422" id="RegisterJobController" rx="2.5" ry="2.5" style="stroke:#181818;stroke-width:0.5;" width="200" x="135.5" y="502.6211"/><ellipse cx="164.45" cy="518.6211" fill="#ADD1B2" rx="11" ry="11" style="stroke:#181818;stroke-width:1.0;"/><path d="M167.2156,514.4961 Q167.3719,514.2773 167.5594,514.168 Q167.7469,514.0586 167.9656,514.0586 Q168.3406,514.0586 168.575,514.3242 Q168.8094,514.5742 168.8094,515.1836 L168.8094,516.6367 Q168.8094,517.2461 168.575,517.5117 Q168.3406,517.7773 167.9656,517.7773 Q167.6219,517.7773 167.4188,517.5742 Q167.2156,517.3867 167.1063,516.8711 Q167.0594,516.5117 166.8719,516.3242 Q166.5438,515.9492 165.9344,515.7305 Q165.325,515.5117 164.7,515.5117 Q163.9344,515.5117 163.2938,515.8398 Q162.6688,516.168 162.1688,516.918 Q161.6844,517.668 161.6844,518.6992 L161.6844,519.793 Q161.6844,521.0273 162.575,521.8555 Q163.4656,522.668 165.0594,522.668 Q165.9969,522.668 166.6531,522.418 Q167.0438,522.2617 167.4656,521.8242 Q167.7313,521.5586 167.8719,521.4805 Q168.0281,521.4023 168.2313,521.4023 Q168.5594,521.4023 168.8094,521.668 Q169.075,521.918 169.075,522.2617 Q169.075,522.6055 168.7313,523.0117 Q168.2313,523.5898 167.4344,523.918 Q166.3563,524.3711 165.0594,524.3711 Q163.5438,524.3711 162.3406,523.7461 Q161.3563,523.2461 160.6688,522.1836 Q159.9813,521.1055 159.9813,519.8242 L159.9813,518.668 Q159.9813,517.3398 160.5906,516.1992 Q161.2156,515.043 162.3094,514.4336 Q163.4031,513.8086 164.6375,513.8086 Q165.3719,513.8086 166.0125,513.9805 Q166.6688,514.1367 167.2156,514.4961 Z " fill="#000000"/><text fill="#000000" font-family="sans-serif" font-size="14" lengthAdjust="spacing" textLength="137" x="181.55" y="524.418">RegisterJobController</text><line style="stroke:#181818;stroke-width:0.5;" x1="136.5" x2="334.5" y1="534.6211" y2="534.6211"/><line style="stroke:#181818;stroke-width:0.5;" x1="136.5" x2="334.5" y1="542.6211" y2="542.6211"/><text fill="#000000" font-family="sans-serif" font-size="14" lengthAdjust="spacing" textLength="155" x="141.5" y="561.7285">+RegisterJobController()</text><text fill="#000000" font-family="sans-serif" font-size="14" lengthAdjust="spacing" textLength="188" x="141.5" y="580.3496">+registerJob(jobName: String)</text></g><!--class RegisterJobUI--><g id="elem_RegisterJobUI"><rect codeLine="15" fill="#F1F1F1" height="66.6211" id="RegisterJobUI" rx="2.5" ry="2.5" style="stroke:#181818;stroke-width:0.5;" width="175" x="289" y="356.6211"/><ellipse cx="329.2" cy="372.6211" fill="#ADD1B2" rx="11" ry="11" style="stroke:#181818;stroke-width:1.0;"/><path d="M331.9656,368.4961 Q332.1219,368.2773 332.3094,368.168 Q332.4969,368.0586 332.7156,368.0586 Q333.0906,368.0586 333.325,368.3242 Q333.5594,368.5742 333.5594,369.1836 L333.5594,370.6367 Q333.5594,371.2461 333.325,371.5117 Q333.0906,371.7773 332.7156,371.7773 Q332.3719,371.7773 332.1688,371.5742 Q331.9656,371.3867 331.8563,370.8711 Q331.8094,370.5117 331.6219,370.3242 Q331.2938,369.9492 330.6844,369.7305 Q330.075,369.5117 329.45,369.5117 Q328.6844,369.5117 328.0438,369.8398 Q327.4188,370.168 326.9188,370.918 Q326.4344,371.668 326.4344,372.6992 L326.4344,373.793 Q326.4344,375.0273 327.325,375.8555 Q328.2156,376.668 329.8094,376.668 Q330.7469,376.668 331.4031,376.418 Q331.7938,376.2617 332.2156,375.8242 Q332.4813,375.5586 332.6219,375.4805 Q332.7781,375.4023 332.9813,375.4023 Q333.3094,375.4023 333.5594,375.668 Q333.825,375.918 333.825,376.2617 Q333.825,376.6055 333.4813,377.0117 Q332.9813,377.5898 332.1844,377.918 Q331.1063,378.3711 329.8094,378.3711 Q328.2938,378.3711 327.0906,377.7461 Q326.1063,377.2461 325.4188,376.1836 Q324.7313,375.1055 324.7313,373.8242 L324.7313,372.668 Q324.7313,371.3398 325.3406,370.1992 Q325.9656,369.043 327.0594,368.4336 Q328.1531,367.8086 329.3875,367.8086 Q330.1219,367.8086 330.7625,367.9805 Q331.4188,368.1367 331.9656,368.4961 Z " fill="#000000"/><text fill="#000000" font-family="sans-serif" font-size="14" lengthAdjust="spacing" textLength="87" x="348.8" y="378.418">RegisterJobUI</text><line style="stroke:#181818;stroke-width:0.5;" x1="290" x2="463" y1="388.6211" y2="388.6211"/><line style="stroke:#181818;stroke-width:0.5;" x1="290" x2="463" y1="396.6211" y2="396.6211"/><text fill="#000000" font-family="sans-serif" font-size="14" lengthAdjust="spacing" textLength="163" x="295" y="415.7285">+main(args: String[]): void</text></g><!--class RegisterJobRepository--><g id="elem_RegisterJobRepository"><rect codeLine="19" fill="#F1F1F1" height="66.6211" id="RegisterJobRepository" rx="2.5" ry="2.5" style="stroke:#181818;stroke-width:0.5;" width="175" x="7" y="210.6211"/><ellipse cx="22" cy="226.6211" fill="#ADD1B2" rx="11" ry="11" style="stroke:#181818;stroke-width:1.0;"/><path d="M24.7656,222.4961 Q24.9219,222.2773 25.1094,222.168 Q25.2969,222.0586 25.5156,222.0586 Q25.8906,222.0586 26.125,222.3242 Q26.3594,222.5742 26.3594,223.1836 L26.3594,224.6367 Q26.3594,225.2461 26.125,225.5117 Q25.8906,225.7773 25.5156,225.7773 Q25.1719,225.7773 24.9688,225.5742 Q24.7656,225.3867 24.6563,224.8711 Q24.6094,224.5117 24.4219,224.3242 Q24.0938,223.9492 23.4844,223.7305 Q22.875,223.5117 22.25,223.5117 Q21.4844,223.5117 20.8438,223.8398 Q20.2188,224.168 19.7188,224.918 Q19.2344,225.668 19.2344,226.6992 L19.2344,227.793 Q19.2344,229.0273 20.125,229.8555 Q21.0156,230.668 22.6094,230.668 Q23.5469,230.668 24.2031,230.418 Q24.5938,230.2617 25.0156,229.8242 Q25.2813,229.5586 25.4219,229.4805 Q25.5781,229.4023 25.7813,229.4023 Q26.1094,229.4023 26.3594,229.668 Q26.625,229.918 26.625,230.2617 Q26.625,230.6055 26.2813,231.0117 Q25.7813,231.5898 24.9844,231.918 Q23.9063,232.3711 22.6094,232.3711 Q21.0938,232.3711 19.8906,231.7461 Q18.9063,231.2461 18.2188,230.1836 Q17.5313,229.1055 17.5313,227.8242 L17.5313,226.668 Q17.5313,225.3398 18.1406,224.1992 Q18.7656,223.043 19.8594,222.4336 Q20.9531,221.8086 22.1875,221.8086 Q22.9219,221.8086 23.5625,221.9805 Q24.2188,222.1367 24.7656,222.4961 Z " fill="#000000"/><text fill="#000000" font-family="sans-serif" font-size="14" lengthAdjust="spacing" textLength="143" x="36" y="232.418">RegisterJobRepository</text><line style="stroke:#181818;stroke-width:0.5;" x1="8" x2="181" y1="242.6211" y2="242.6211"/><line style="stroke:#181818;stroke-width:0.5;" x1="8" x2="181" y1="250.6211" y2="250.6211"/><text fill="#000000" font-family="sans-serif" font-size="14" lengthAdjust="spacing" textLength="153" x="13" y="269.7285">RegisterJobRepository()</text></g><!--class job--><g id="elem_job"><rect codeLine="22" fill="#F1F1F1" height="66.6211" id="job" rx="2.5" ry="2.5" style="stroke:#181818;stroke-width:0.5;" width="96" x="68.5" y="356.6211"/><ellipse cx="103.75" cy="372.6211" fill="#ADD1B2" rx="11" ry="11" style="stroke:#181818;stroke-width:1.0;"/><path d="M106.5156,368.4961 Q106.6719,368.2773 106.8594,368.168 Q107.0469,368.0586 107.2656,368.0586 Q107.6406,368.0586 107.875,368.3242 Q108.1094,368.5742 108.1094,369.1836 L108.1094,370.6367 Q108.1094,371.2461 107.875,371.5117 Q107.6406,371.7773 107.2656,371.7773 Q106.9219,371.7773 106.7188,371.5742 Q106.5156,371.3867 106.4063,370.8711 Q106.3594,370.5117 106.1719,370.3242 Q105.8438,369.9492 105.2344,369.7305 Q104.625,369.5117 104,369.5117 Q103.2344,369.5117 102.5938,369.8398 Q101.9688,370.168 101.4688,370.918 Q100.9844,371.668 100.9844,372.6992 L100.9844,373.793 Q100.9844,375.0273 101.875,375.8555 Q102.7656,376.668 104.3594,376.668 Q105.2969,376.668 105.9531,376.418 Q106.3438,376.2617 106.7656,375.8242 Q107.0313,375.5586 107.1719,375.4805 Q107.3281,375.4023 107.5313,375.4023 Q107.8594,375.4023 108.1094,375.668 Q108.375,375.918 108.375,376.2617 Q108.375,376.6055 108.0313,377.0117 Q107.5313,377.5898 106.7344,377.918 Q105.6563,378.3711 104.3594,378.3711 Q102.8438,378.3711 101.6406,377.7461 Q100.6563,377.2461 99.9688,376.1836 Q99.2813,375.1055 99.2813,373.8242 L99.2813,372.668 Q99.2813,371.3398 99.8906,370.1992 Q100.5156,369.043 101.6094,368.4336 Q102.7031,367.8086 103.9375,367.8086 Q104.6719,367.8086 105.3125,367.9805 Q105.9688,368.1367 106.5156,368.4961 Z " fill="#000000"/><text fill="#000000" font-family="sans-serif" font-size="14" lengthAdjust="spacing" textLength="19" x="122.25" y="378.418">job</text><line style="stroke:#181818;stroke-width:0.5;" x1="69.5" x2="163.5" y1="388.6211" y2="388.6211"/><text fill="#000000" font-family="sans-serif" font-size="14" lengthAdjust="spacing" textLength="84" x="74.5" y="407.7285">+String name</text><line style="stroke:#181818;stroke-width:0.5;" x1="69.5" x2="163.5" y1="415.2422" y2="415.2422"/></g><!--link RegisterJobUI to RegisterJobController--><g id="link_RegisterJobUI_RegisterJobController"><path codeLine="27" d="M346.25,423.9411 C325.05,446.9511 300.616,473.4689 277.836,498.1889 " fill="none" id="RegisterJobUI-to-RegisterJobController" style="stroke:#181818;stroke-width:1.0;stroke-dasharray:7.0,7.0;"/><polygon fill="#181818" points="273.77,502.6011,282.8105,498.6934,277.1583,498.9242,276.9275,493.2721,273.77,502.6011" style="stroke:#181818;stroke-width:1.0;"/><text fill="#000000" font-family="sans-serif" font-size="13" lengthAdjust="spacing" textLength="109" x="319.5" y="468.6494">inputs wanted data</text></g><!--link RegisterJobController to Repositories--><g id="link_RegisterJobController_Repositories"><path codeLine="28" d="M233.35,502.4311 C229.55,438.9511 220.02,314.4611 199.5,210.6211 C194.24,184.0111 187.6261,160.5028 180.3661,137.5028 " fill="none" id="RegisterJobController-to-Repositories" style="stroke:#181818;stroke-width:1.0;stroke-dasharray:7.0,7.0;"/><polygon fill="#181818" points="178.56,131.7811,177.4546,141.5677,180.0651,136.5492,185.0836,139.1596,178.56,131.7811" style="stroke:#181818;stroke-width:1.0;"/><text fill="#000000" font-family="sans-serif" font-size="13" lengthAdjust="spacing" textLength="157" x="218.5" y="322.6494">inserts job in the repository</text></g><!--link Repositories to RegisterJobRepository--><g id="link_Repositories_RegisterJobRepository"><path codeLine="29" d="M145.37,131.9311 C134.04,156.7011 122.3862,182.175 111.8862,205.125 " fill="none" id="Repositories-to-RegisterJobRepository" style="stroke:#181818;stroke-width:1.0;stroke-dasharray:7.0,7.0;"/><polygon fill="#181818" points="109.39,210.5811,116.7717,204.0611,111.4702,206.0344,109.497,200.7328,109.39,210.5811" style="stroke:#181818;stroke-width:1.0;"/><text fill="#000000" font-family="sans-serif" font-size="13" lengthAdjust="spacing" textLength="28" x="133.5" y="176.6494">Have</text></g><!--link RegisterJobRepository to job--><g id="link_RegisterJobRepository_job"><path codeLine="30" d="M99.49,277.8011 C103.09,301.3611 107.0226,327.1101 110.6226,350.6401 " fill="none" id="RegisterJobRepository-to-job" style="stroke:#181818;stroke-width:1.0;stroke-dasharray:7.0,7.0;"/><polygon fill="#181818" points="111.53,356.5711,114.1229,347.0697,110.7738,351.6286,106.2149,348.2796,111.53,356.5711" style="stroke:#181818;stroke-width:1.0;"/><text fill="#000000" font-family="sans-serif" font-size="13" lengthAdjust="spacing" textLength="28" x="108.5" y="322.6494">Have</text></g><!--link job to RegisterJobController--><g id="link_job_RegisterJobController"><path codeLine="31" d="M111.86,423.7011 C111.2,439.4911 112.89,458.1211 121.5,472.6211 C128.3,484.0711 133.0413,490.2048 143.5913,498.6748 " fill="none" id="job-to-RegisterJobController" style="stroke:#181818;stroke-width:1.0;stroke-dasharray:7.0,7.0;"/><polygon fill="#181818" points="148.27,502.4311,143.7561,493.6775,144.3711,499.3009,138.7477,499.9158,148.27,502.4311" style="stroke:#181818;stroke-width:1.0;"/><text fill="#000000" font-family="sans-serif" font-size="13" lengthAdjust="spacing" textLength="86" x="122.5" y="468.6494">will be inserted</text></g><!--SRC=[TP8nJyCm48Lt_ueR4o5LpAc4X5WeGmSgfehXafnIWsDNzhKL8FuxvyHfKp2PJdvtxxvdXpKRWcVgT63oWF3cQW3U8KlTE6EmTXxPUR14RG1siCCZAHNUjTsZnnuQWo7SCtjT7vXMZRCR_KbmgzIWYFdU1IqMcW9yAP2l8tvozLduAChbS3vlZMVVPukHJuOUd6KlN08xUjtarQ9Cgh-eXOHROqyLR8JMTgMI3NzNlAmcwnwrBT1tOPhOlfOL79rkiuENGCaWgmdPb4juqgRH7gpGHMjrZRDOtELJLY2lSE009xHCBRJ8gFAtDNhCdYBE1l8yO4WjhqvoMnEckch-HJ1BMi5Z_27oOXoBxgafblzcaQQJDWPgIc3K_W00]--></g></svg>