<?xml version="1.0" encoding="us-ascii" standalone="no"?><svg xmlns="http://www.w3.org/2000/svg" xmlns:xlink="http://www.w3.org/1999/xlink" contentStyleType="text/css" height="505px" preserveAspectRatio="none" style="width:662px;height:505px;background:#FFFFFF;" version="1.1" viewBox="0 0 662 505" width="662px" zoomAndPan="magnify"><defs/><g><rect fill="#FFFFFF" height="349.2402" style="stroke:#181818;stroke-width:1.0;" width="10" x="92.5" y="90.5332"/><rect fill="#FFFFFF" height="31.291" style="stroke:#181818;stroke-width:1.0;" width="10" x="226.5" y="148.1152"/><rect fill="#FFFFFF" height="31.291" style="stroke:#181818;stroke-width:1.0;" width="10" x="331.5" y="210.6973"/><rect fill="#FFFFFF" height="134.2031" style="stroke:#181818;stroke-width:1.0;" width="10" x="468.5" y="273.2793"/><rect fill="none" height="294.9492" style="stroke:#000000;stroke-width:1.5;" width="646.5" x="10" y="105.5332"/><line style="stroke:#181818;stroke-width:0.5;stroke-dasharray:5.0,5.0;" x1="97" x2="97" y1="57.2422" y2="448.7734"/><line style="stroke:#181818;stroke-width:0.5;stroke-dasharray:5.0,5.0;" x1="231" x2="231" y1="57.2422" y2="448.7734"/><line style="stroke:#181818;stroke-width:0.5;stroke-dasharray:5.0,5.0;" x1="336" x2="336" y1="57.2422" y2="448.7734"/><line style="stroke:#181818;stroke-width:0.5;stroke-dasharray:5.0,5.0;" x1="473" x2="473" y1="57.2422" y2="448.7734"/><line style="stroke:#181818;stroke-width:0.5;stroke-dasharray:5.0,5.0;" x1="628.5" x2="628.5" y1="313.0898" y2="448.7734"/><rect fill="#E2E2F0" height="32.6211" rx="2.5" ry="2.5" style="stroke:#181818;stroke-width:0.5;" width="155" x="20" y="23.6211"/><text fill="#000000" font-family="sans-serif" font-size="14" lengthAdjust="spacing" textLength="141" x="27" y="45.7285">:RegisterJobController</text><rect fill="#E2E2F0" height="32.6211" rx="2.5" ry="2.5" style="stroke:#181818;stroke-width:0.5;" width="155" x="20" y="447.7734"/><text fill="#000000" font-family="sans-serif" font-size="14" lengthAdjust="spacing" textLength="141" x="27" y="469.8809">:RegisterJobController</text><rect fill="#E2E2F0" height="32.6211" rx="2.5" ry="2.5" style="stroke:#181818;stroke-width:0.5;" width="93" x="185" y="23.6211"/><text fill="#000000" font-family="sans-serif" font-size="14" lengthAdjust="spacing" textLength="79" x="192" y="45.7285">Repositories</text><rect fill="#E2E2F0" height="32.6211" rx="2.5" ry="2.5" style="stroke:#181818;stroke-width:0.5;" width="93" x="185" y="447.7734"/><text fill="#000000" font-family="sans-serif" font-size="14" lengthAdjust="spacing" textLength="79" x="192" y="469.8809">Repositories</text><rect fill="#E2E2F0" height="51.2422" rx="2.5" ry="2.5" style="stroke:#181818;stroke-width:0.5;" width="97" x="288" y="5"/><text fill="#000000" font-family="sans-serif" font-size="14" lengthAdjust="spacing" textLength="74" x="299.5" y="27.1074">repositories</text><text fill="#000000" font-family="sans-serif" font-size="14" lengthAdjust="spacing" textLength="83" x="295" y="45.7285">:Repositories</text><rect fill="#E2E2F0" height="51.2422" rx="2.5" ry="2.5" style="stroke:#181818;stroke-width:0.5;" width="97" x="288" y="447.7734"/><text fill="#000000" font-family="sans-serif" font-size="14" lengthAdjust="spacing" textLength="74" x="299.5" y="469.8809">repositories</text><text fill="#000000" font-family="sans-serif" font-size="14" lengthAdjust="spacing" textLength="83" x="295" y="488.502">:Repositories</text><rect fill="#E2E2F0" height="32.6211" rx="2.5" ry="2.5" style="stroke:#181818;stroke-width:0.5;" width="157" x="395" y="23.6211"/><text fill="#000000" font-family="sans-serif" font-size="14" lengthAdjust="spacing" textLength="143" x="402" y="45.7285">RegisterJobRepository</text><rect fill="#E2E2F0" height="32.6211" rx="2.5" ry="2.5" style="stroke:#181818;stroke-width:0.5;" width="157" x="395" y="447.7734"/><text fill="#000000" font-family="sans-serif" font-size="14" lengthAdjust="spacing" textLength="143" x="402" y="469.8809">RegisterJobRepository</text><rect fill="#E2E2F0" height="32.6211" rx="2.5" ry="2.5" style="stroke:#181818;stroke-width:0.5;" width="36" x="610.5" y="447.7734"/><text fill="#000000" font-family="sans-serif" font-size="14" lengthAdjust="spacing" textLength="22" x="617.5" y="469.8809">Job</text><rect fill="#FFFFFF" height="349.2402" style="stroke:#181818;stroke-width:1.0;" width="10" x="92.5" y="90.5332"/><rect fill="#FFFFFF" height="31.291" style="stroke:#181818;stroke-width:1.0;" width="10" x="226.5" y="148.1152"/><rect fill="#FFFFFF" height="31.291" style="stroke:#181818;stroke-width:1.0;" width="10" x="331.5" y="210.6973"/><rect fill="#FFFFFF" height="134.2031" style="stroke:#181818;stroke-width:1.0;" width="10" x="468.5" y="273.2793"/><polygon fill="#181818" points="80.5,86.5332,90.5,90.5332,80.5,94.5332,84.5,90.5332" style="stroke:#181818;stroke-width:1.0;"/><line style="stroke:#181818;stroke-width:1.0;" x1="0" x2="86.5" y1="90.5332" y2="90.5332"/><text fill="#000000" font-family="sans-serif" font-size="13" lengthAdjust="spacing" textLength="73" x="7" y="85.2705">Registerjob()</text><path d="M10,105.5332 L112,105.5332 L112,114.8242 L102,124.8242 L10,124.8242 L10,105.5332 " fill="#EEEEEE" style="stroke:#000000;stroke-width:1.5;"/><rect fill="none" height="294.9492" style="stroke:#000000;stroke-width:1.5;" width="646.5" x="10" y="105.5332"/><text fill="#000000" font-family="sans-serif" font-size="13" font-weight="bold" lengthAdjust="spacing" textLength="57" x="25" y="120.5615">StoreJob</text><polygon fill="#181818" points="214.5,144.1152,224.5,148.1152,214.5,152.1152,218.5,148.1152" style="stroke:#181818;stroke-width:1.0;"/><line style="stroke:#181818;stroke-width:1.0;" x1="102.5" x2="220.5" y1="148.1152" y2="148.1152"/><text fill="#000000" font-family="sans-serif" font-size="13" lengthAdjust="spacing" textLength="75" x="109.5" y="142.8525">getinstance()</text><polygon fill="#181818" points="113.5,175.4063,103.5,179.4063,113.5,183.4063,109.5,179.4063" style="stroke:#181818;stroke-width:1.0;"/><line style="stroke:#181818;stroke-width:1.0;" x1="107.5" x2="230.5" y1="179.4063" y2="179.4063"/><text fill="#000000" font-family="sans-serif" font-size="13" lengthAdjust="spacing" textLength="72" x="119.5" y="174.1436">Repositories</text><polygon fill="#181818" points="319.5,206.6973,329.5,210.6973,319.5,214.6973,323.5,210.6973" style="stroke:#181818;stroke-width:1.0;"/><line style="stroke:#181818;stroke-width:1.0;" x1="102.5" x2="325.5" y1="210.6973" y2="210.6973"/><text fill="#000000" font-family="sans-serif" font-size="13" lengthAdjust="spacing" textLength="108" x="109.5" y="205.4346">getJobRepository()</text><polygon fill="#181818" points="113.5,237.9883,103.5,241.9883,113.5,245.9883,109.5,241.9883" style="stroke:#181818;stroke-width:1.0;"/><line style="stroke:#181818;stroke-width:1.0;" x1="107.5" x2="335.5" y1="241.9883" y2="241.9883"/><text fill="#000000" font-family="sans-serif" font-size="13" lengthAdjust="spacing" textLength="82" x="119.5" y="236.7256">JobRepository</text><polygon fill="#181818" points="456.5,269.2793,466.5,273.2793,456.5,277.2793,460.5,273.2793" style="stroke:#181818;stroke-width:1.0;"/><line style="stroke:#181818;stroke-width:1.0;" x1="102.5" x2="462.5" y1="273.2793" y2="273.2793"/><text fill="#000000" font-family="sans-serif" font-size="13" lengthAdjust="spacing" textLength="108" x="109.5" y="268.0166">RegisterJob(name)</text><polygon fill="#181818" points="598.5,300.5703,608.5,304.5703,598.5,308.5703,602.5,304.5703" style="stroke:#181818;stroke-width:1.0;"/><line style="stroke:#181818;stroke-width:1.0;" x1="478.5" x2="604.5" y1="304.5703" y2="304.5703"/><text fill="#000000" font-family="sans-serif" font-size="13" lengthAdjust="spacing" textLength="108" x="485.5" y="299.3076">RegisterJob(name)</text><rect fill="#E2E2F0" height="32.6211" rx="2.5" ry="2.5" style="stroke:#181818;stroke-width:0.5;" width="36" x="610.5" y="281.2793"/><text fill="#000000" font-family="sans-serif" font-size="14" lengthAdjust="spacing" textLength="22" x="617.5" y="303.3867">Job</text><line style="stroke:#181818;stroke-width:1.0;" x1="478.5" x2="520.5" y1="348.1914" y2="348.1914"/><line style="stroke:#181818;stroke-width:1.0;" x1="520.5" x2="520.5" y1="348.1914" y2="361.1914"/><line style="stroke:#181818;stroke-width:1.0;" x1="479.5" x2="520.5" y1="361.1914" y2="361.1914"/><polygon fill="#181818" points="489.5,357.1914,479.5,361.1914,489.5,365.1914,485.5,361.1914" style="stroke:#181818;stroke-width:1.0;"/><text fill="#000000" font-family="sans-serif" font-size="13" lengthAdjust="spacing" textLength="49" x="485.5" y="342.9287">Save job</text><polygon fill="#181818" points="113.5,388.4824,103.5,392.4824,113.5,396.4824,109.5,392.4824" style="stroke:#181818;stroke-width:1.0;"/><line style="stroke:#181818;stroke-width:1.0;" x1="107.5" x2="467.5" y1="392.4824" y2="392.4824"/><text fill="#000000" font-family="sans-serif" font-size="13" lengthAdjust="spacing" textLength="17" x="119.5" y="387.2197">job</text><polygon fill="#181818" points="11,426.7734,1,430.7734,11,434.7734,7,430.7734" style="stroke:#181818;stroke-width:1.0;"/><line style="stroke:#181818;stroke-width:1.0;" x1="5" x2="91.5" y1="430.7734" y2="430.7734"/><text fill="#000000" font-family="sans-serif" font-size="13" lengthAdjust="spacing" textLength="17" x="17" y="425.5107">job</text><!--SRC=[VL4x3i8m3DrpYeW9aBX0XLZO665b2QrL1K4I9QOIjyUqLHk3qocIdVVnUy54jBKDng5ULMTeRKA89tyxUeVHFnuGLzeaBMvKoD5d23vPzD526Z7pW7-DsURggZyaxMdsIpyvcFw_VxtD6mwcLV-LNgNKxY3VewjfVlUtzKQP6crd40hdjz6_WhwG77o9PSvURBwFD5f0wn8QLmFNoE9Ya4M_6QY14bd1s93pO8cbb_iQonZ_BdZX-MTcHeQ5V8G2ip9eldRc2N8XcQPCH0eqs6v5nYAaPEfYEj1tNdSHoVBvWi0rl2Rf3BtVoIGznmS0]--></g></svg>