<?xml version="1.0" encoding="us-ascii" standalone="no"?><svg xmlns="http://www.w3.org/2000/svg" xmlns:xlink="http://www.w3.org/1999/xlink" contentStyleType="text/css" height="410px" preserveAspectRatio="none" style="width:690px;height:410px;background:#FFFFFF;" version="1.1" viewBox="0 0 690 410" width="690px" zoomAndPan="magnify"><defs/><g><rect fill="#FFFFFF" height="245.7461" style="stroke:#181818;stroke-width:1.0;" width="10" x="192" y="90.5332"/><rect fill="#FFFFFF" height="149.873" style="stroke:#181818;stroke-width:1.0;" width="10" x="405" y="148.1152"/><rect fill="#FFFFFF" height="42.291" style="stroke:#181818;stroke-width:1.0;" width="10" x="410" y="187.4063"/><rect fill="#FFFFFF" height="30" style="stroke:#181818;stroke-width:1.0;" width="10" x="609" y="267.9883"/><rect fill="none" height="200.4551" style="stroke:#000000;stroke-width:1.5;" width="574.5" x="110" y="105.5332"/><line style="stroke:#181818;stroke-width:0.5;stroke-dasharray:5.0,5.0;" x1="197" x2="197" y1="57.2422" y2="354.2793"/><line style="stroke:#181818;stroke-width:0.5;stroke-dasharray:5.0,5.0;" x1="409.5" x2="409.5" y1="57.2422" y2="354.2793"/><line style="stroke:#181818;stroke-width:0.5;stroke-dasharray:5.0,5.0;" x1="613.5" x2="613.5" y1="57.2422" y2="354.2793"/><rect fill="#E3E3E3" height="32.6211" rx="2.5" ry="2.5" style="stroke:#181818;stroke-width:0.5;" width="154" x="120" y="23.6211"/><text fill="#000000" font-family="sans-serif" font-size="14" lengthAdjust="spacing" textLength="140" x="127" y="45.7285">:AssignSkillsController</text><rect fill="#E3E3E3" height="32.6211" rx="2.5" ry="2.5" style="stroke:#181818;stroke-width:0.5;" width="154" x="120" y="353.2793"/><text fill="#000000" font-family="sans-serif" font-size="14" lengthAdjust="spacing" textLength="140" x="127" y="375.3867">:AssignSkillsController</text><rect fill="#E3E3E3" height="51.2422" rx="2.5" ry="2.5" style="stroke:#181818;stroke-width:0.5;" width="109" x="355.5" y="5"/><text fill="#000000" font-family="sans-serif" font-size="14" lengthAdjust="spacing" textLength="95" x="362.5" y="27.1074">skillRepository:</text><text fill="#000000" font-family="sans-serif" font-size="14" lengthAdjust="spacing" textLength="93" x="363.5" y="45.7285">SkillRepository</text><rect fill="#E3E3E3" height="51.2422" rx="2.5" ry="2.5" style="stroke:#181818;stroke-width:0.5;" width="109" x="355.5" y="353.2793"/><text fill="#000000" font-family="sans-serif" font-size="14" lengthAdjust="spacing" textLength="95" x="362.5" y="375.3867">skillRepository:</text><text fill="#000000" font-family="sans-serif" font-size="14" lengthAdjust="spacing" textLength="93" x="363.5" y="394.0078">SkillRepository</text><rect fill="#E3E3E3" height="51.2422" rx="2.5" ry="2.5" style="stroke:#181818;stroke-width:0.5;" width="121" x="553.5" y="5"/><text fill="#000000" font-family="sans-serif" font-size="14" lengthAdjust="spacing" textLength="107" x="560.5" y="27.1074">selectedSkillsList</text><text fill="#000000" font-family="sans-serif" font-size="14" lengthAdjust="spacing" textLength="63" x="582.5" y="45.7285">List&lt;Skill&gt;</text><rect fill="#E3E3E3" height="51.2422" rx="2.5" ry="2.5" style="stroke:#181818;stroke-width:0.5;" width="121" x="553.5" y="353.2793"/><text fill="#000000" font-family="sans-serif" font-size="14" lengthAdjust="spacing" textLength="107" x="560.5" y="375.3867">selectedSkillsList</text><text fill="#000000" font-family="sans-serif" font-size="14" lengthAdjust="spacing" textLength="63" x="582.5" y="394.0078">List&lt;Skill&gt;</text><rect fill="#FFFFFF" height="245.7461" style="stroke:#181818;stroke-width:1.0;" width="10" x="192" y="90.5332"/><rect fill="#FFFFFF" height="149.873" style="stroke:#181818;stroke-width:1.0;" width="10" x="405" y="148.1152"/><rect fill="#FFFFFF" height="42.291" style="stroke:#181818;stroke-width:1.0;" width="10" x="410" y="187.4063"/><rect fill="#FFFFFF" height="30" style="stroke:#181818;stroke-width:1.0;" width="10" x="609" y="267.9883"/><polygon fill="#181818" points="180,86.5332,190,90.5332,180,94.5332,184,90.5332" style="stroke:#181818;stroke-width:1.0;"/><line style="stroke:#181818;stroke-width:1.0;" x1="0" x2="186" y1="90.5332" y2="90.5332"/><text fill="#000000" font-family="sans-serif" font-size="13" font-weight="bold" lengthAdjust="spacing" textLength="7" x="7" y="85.2705">3</text><text fill="#000000" font-family="sans-serif" font-size="13" lengthAdjust="spacing" textLength="162" x="18" y="85.2705">addSelectedSkill(skillName)</text><path d="M110,105.5332 L272,105.5332 L272,114.8242 L262,124.8242 L110,124.8242 L110,105.5332 " fill="#EEEEEE" style="stroke:#000000;stroke-width:1.5;"/><rect fill="none" height="200.4551" style="stroke:#000000;stroke-width:1.5;" width="574.5" x="110" y="105.5332"/><text fill="#000000" font-family="sans-serif" font-size="13" font-weight="bold" lengthAdjust="spacing" textLength="117" x="125" y="120.5615">Add Selected Skill</text><polygon fill="#181818" points="393,144.1152,403,148.1152,393,152.1152,397,148.1152" style="stroke:#181818;stroke-width:1.0;"/><line style="stroke:#181818;stroke-width:1.0;" x1="202" x2="399" y1="148.1152" y2="148.1152"/><text fill="#000000" font-family="sans-serif" font-size="13" font-weight="bold" lengthAdjust="spacing" textLength="18" x="209" y="142.8525">3.1</text><text fill="#000000" font-family="sans-serif" font-size="13" lengthAdjust="spacing" textLength="162" x="231" y="142.8525">addSelectedSkill(skillName)</text><line style="stroke:#181818;stroke-width:1.0;" x1="415" x2="462" y1="174.4063" y2="174.4063"/><line style="stroke:#181818;stroke-width:1.0;" x1="462" x2="462" y1="174.4063" y2="187.4063"/><line style="stroke:#181818;stroke-width:1.0;" x1="421" x2="462" y1="187.4063" y2="187.4063"/><polygon fill="#181818" points="431,183.4063,421,187.4063,431,191.4063,427,187.4063" style="stroke:#181818;stroke-width:1.0;"/><text fill="#000000" font-family="sans-serif" font-size="13" font-weight="bold" lengthAdjust="spacing" textLength="18" x="427" y="169.1436">3.2</text><text fill="#000000" font-family="sans-serif" font-size="13" lengthAdjust="spacing" textLength="158" x="449" y="169.1436">getSkillByName(skillName)</text><line style="stroke:#181818;stroke-width:1.0;stroke-dasharray:2.0,2.0;" x1="420" x2="462" y1="228.6973" y2="228.6973"/><line style="stroke:#181818;stroke-width:1.0;stroke-dasharray:2.0,2.0;" x1="462" x2="462" y1="228.6973" y2="241.6973"/><line style="stroke:#181818;stroke-width:1.0;stroke-dasharray:2.0,2.0;" x1="415" x2="462" y1="241.6973" y2="241.6973"/><polygon fill="#181818" points="425,237.6973,415,241.6973,425,245.6973,421,241.6973" style="stroke:#181818;stroke-width:1.0;"/><text fill="#000000" font-family="sans-serif" font-size="13" font-weight="bold" lengthAdjust="spacing" textLength="18" x="427" y="223.4346">3.3</text><text fill="#000000" font-family="sans-serif" font-size="13" lengthAdjust="spacing" textLength="23" x="449" y="223.4346">skill</text><polygon fill="#181818" points="597,263.9883,607,267.9883,597,271.9883,601,267.9883" style="stroke:#181818;stroke-width:1.0;"/><line style="stroke:#181818;stroke-width:1.0;" x1="415" x2="603" y1="267.9883" y2="267.9883"/><text fill="#000000" font-family="sans-serif" font-size="13" font-weight="bold" lengthAdjust="spacing" textLength="18" x="422" y="262.7256">3.4</text><text fill="#000000" font-family="sans-serif" font-size="13" lengthAdjust="spacing" textLength="52" x="444" y="262.7256">add(skill)</text><polygon fill="#181818" points="11,332.2793,1,336.2793,11,340.2793,7,336.2793" style="stroke:#181818;stroke-width:1.0;"/><line style="stroke:#181818;stroke-width:1.0;stroke-dasharray:2.0,2.0;" x1="5" x2="196" y1="336.2793" y2="336.2793"/><text fill="#000000" font-family="sans-serif" font-size="13" font-weight="bold" lengthAdjust="spacing" textLength="7" x="17" y="331.0166">4</text><text fill="#000000" font-family="sans-serif" font-size="13" lengthAdjust="spacing" textLength="96" x="28" y="331.0166">asks to continue</text><!--SRC=[dLF1JiCm3BtdAwoTu30a1ATfcZHsdJXi77SnZUcYfaaLkw3zFMcYbQuh2CYXKfwV_PvhXolZ6WnOG-sTBux1rmGIMbBSHneiAYnfBoTB4AWGTAKT4lY8sdyOLy8RMYQb8YocC0qwWTbYpMnAjw-CjRpnJeAtbi8Ca67pijjUihcZxQZnRCI7q-AG4x-Gb3V2HYN8HfEai-BMi1nSzrqcO9KAN7EKmbQyQ-jN2l2Wvgja3XQ0Mk-7x9jayHbhkhtCkRkFzqBCEmhbpY2UClYsWRNMSAwItQTWTv9Cb1lrzBFmERdN6_-HdZ4AJ2gL90bxEdNL_wJphSoK3byqhkbVxgz7buUKRKzOdfhrX8S9sc-TajDvplawM8h712pdytwRk68G3qLy2CR5TwO6nTFIg4y0]--></g></svg>