<?xml version="1.0" encoding="us-ascii" standalone="no"?><svg xmlns="http://www.w3.org/2000/svg" xmlns:xlink="http://www.w3.org/1999/xlink" contentStyleType="text/css" height="1378px" preserveAspectRatio="none" style="width:685px;height:1378px;background:#FFFFFF;" version="1.1" viewBox="0 0 685 1378" width="685px" zoomAndPan="magnify"><defs/><g><!--class Skill--><g id="elem_Skill"><rect codeLine="11" fill="#F1F1F1" height="85.2422" id="Skill" rx="2.5" ry="2.5" style="stroke:#181818;stroke-width:0.5;" width="90" x="200.5" y="1277.5"/><ellipse cx="230.35" cy="1293.5" fill="#ADD1B2" rx="11" ry="11" style="stroke:#181818;stroke-width:1.0;"/><path d="M233.1156,1289.375 Q233.2719,1289.1563 233.4594,1289.0469 Q233.6469,1288.9375 233.8656,1288.9375 Q234.2406,1288.9375 234.475,1289.2031 Q234.7094,1289.4531 234.7094,1290.0625 L234.7094,1291.5156 Q234.7094,1292.125 234.475,1292.3906 Q234.2406,1292.6563 233.8656,1292.6563 Q233.5219,1292.6563 233.3188,1292.4531 Q233.1156,1292.2656 233.0063,1291.75 Q232.9594,1291.3906 232.7719,1291.2031 Q232.4438,1290.8281 231.8344,1290.6094 Q231.225,1290.3906 230.6,1290.3906 Q229.8344,1290.3906 229.1938,1290.7188 Q228.5688,1291.0469 228.0688,1291.7969 Q227.5844,1292.5469 227.5844,1293.5781 L227.5844,1294.6719 Q227.5844,1295.9063 228.475,1296.7344 Q229.3656,1297.5469 230.9594,1297.5469 Q231.8969,1297.5469 232.5531,1297.2969 Q232.9438,1297.1406 233.3656,1296.7031 Q233.6313,1296.4375 233.7719,1296.3594 Q233.9281,1296.2813 234.1313,1296.2813 Q234.4594,1296.2813 234.7094,1296.5469 Q234.975,1296.7969 234.975,1297.1406 Q234.975,1297.4844 234.6313,1297.8906 Q234.1313,1298.4688 233.3344,1298.7969 Q232.2563,1299.25 230.9594,1299.25 Q229.4438,1299.25 228.2406,1298.625 Q227.2563,1298.125 226.5688,1297.0625 Q225.8813,1295.9844 225.8813,1294.7031 L225.8813,1293.5469 Q225.8813,1292.2188 226.4906,1291.0781 Q227.1156,1289.9219 228.2094,1289.3125 Q229.3031,1288.6875 230.5375,1288.6875 Q231.2719,1288.6875 231.9125,1288.8594 Q232.5688,1289.0156 233.1156,1289.375 Z " fill="#000000"/><text fill="#000000" font-family="sans-serif" font-size="14" lengthAdjust="spacing" textLength="25" x="247.65" y="1299.2969">Skill</text><line style="stroke:#181818;stroke-width:0.5;" x1="201.5" x2="289.5" y1="1309.5" y2="1309.5"/><text fill="#000000" font-family="sans-serif" font-size="14" lengthAdjust="spacing" textLength="40" x="206.5" y="1328.6074">-name</text><line style="stroke:#181818;stroke-width:0.5;" x1="201.5" x2="289.5" y1="1336.1211" y2="1336.1211"/><text fill="#000000" font-family="sans-serif" font-size="14" lengthAdjust="spacing" textLength="78" x="206.5" y="1355.2285">+Skill(name)</text></g><!--class Collaborator--><g id="elem_Collaborator"><rect codeLine="17" fill="#F1F1F1" height="271.4531" id="Collaborator" rx="2.5" ry="2.5" style="stroke:#181818;stroke-width:0.5;" width="343" x="256" y="918"/><ellipse cx="384.25" cy="934" fill="#ADD1B2" rx="11" ry="11" style="stroke:#181818;stroke-width:1.0;"/><path d="M387.0156,929.875 Q387.1719,929.6563 387.3594,929.5469 Q387.5469,929.4375 387.7656,929.4375 Q388.1406,929.4375 388.375,929.7031 Q388.6094,929.9531 388.6094,930.5625 L388.6094,932.0156 Q388.6094,932.625 388.375,932.8906 Q388.1406,933.1563 387.7656,933.1563 Q387.4219,933.1563 387.2188,932.9531 Q387.0156,932.7656 386.9063,932.25 Q386.8594,931.8906 386.6719,931.7031 Q386.3438,931.3281 385.7344,931.1094 Q385.125,930.8906 384.5,930.8906 Q383.7344,930.8906 383.0938,931.2188 Q382.4688,931.5469 381.9688,932.2969 Q381.4844,933.0469 381.4844,934.0781 L381.4844,935.1719 Q381.4844,936.4063 382.375,937.2344 Q383.2656,938.0469 384.8594,938.0469 Q385.7969,938.0469 386.4531,937.7969 Q386.8438,937.6406 387.2656,937.2031 Q387.5313,936.9375 387.6719,936.8594 Q387.8281,936.7813 388.0313,936.7813 Q388.3594,936.7813 388.6094,937.0469 Q388.875,937.2969 388.875,937.6406 Q388.875,937.9844 388.5313,938.3906 Q388.0313,938.9688 387.2344,939.2969 Q386.1563,939.75 384.8594,939.75 Q383.3438,939.75 382.1406,939.125 Q381.1563,938.625 380.4688,937.5625 Q379.7813,936.4844 379.7813,935.2031 L379.7813,934.0469 Q379.7813,932.7188 380.3906,931.5781 Q381.0156,930.4219 382.1094,929.8125 Q383.2031,929.1875 384.4375,929.1875 Q385.1719,929.1875 385.8125,929.3594 Q386.4688,929.5156 387.0156,929.875 Z " fill="#000000"/><text fill="#000000" font-family="sans-serif" font-size="14" lengthAdjust="spacing" textLength="78" x="404.75" y="939.7969">Collaborator</text><line style="stroke:#181818;stroke-width:0.5;" x1="257" x2="598" y1="950" y2="950"/><text fill="#000000" font-family="sans-serif" font-size="14" lengthAdjust="spacing" textLength="81" x="262" y="969.1074">-String name</text><text fill="#000000" font-family="sans-serif" font-size="14" lengthAdjust="spacing" textLength="123" x="262" y="987.7285">-Calendar birthdate</text><text fill="#000000" font-family="sans-serif" font-size="14" lengthAdjust="spacing" textLength="160" x="262" y="1006.3496">-Calendar admissionDate</text><text fill="#000000" font-family="sans-serif" font-size="14" lengthAdjust="spacing" textLength="97" x="262" y="1024.9707">-String address</text><text fill="#000000" font-family="sans-serif" font-size="14" lengthAdjust="spacing" textLength="142" x="262" y="1043.5918">-Integer phoneNumber</text><text fill="#000000" font-family="sans-serif" font-size="14" lengthAdjust="spacing" textLength="79" x="262" y="1062.2129">-String email</text><text fill="#000000" font-family="sans-serif" font-size="14" lengthAdjust="spacing" textLength="156" x="262" y="1080.834">-Integer taxpayerNumber</text><text fill="#000000" font-family="sans-serif" font-size="14" lengthAdjust="spacing" textLength="238" x="262" y="1099.4551">-String identificationDocumentNumber</text><line style="stroke:#181818;stroke-width:0.5;" x1="257" x2="598" y1="1106.9688" y2="1106.9688"/><text fill="#000000" font-family="sans-serif" font-size="14" lengthAdjust="spacing" textLength="194" x="262" y="1126.0762">+Collaborator(name, birthdate,</text><text fill="#000000" font-family="sans-serif" font-size="14" lengthAdjust="spacing" textLength="253" x="262" y="1144.6973">admissionDate, address, phoneNumber,</text><text fill="#000000" font-family="sans-serif" font-size="14" lengthAdjust="spacing" textLength="331" x="262" y="1163.3184">email, taxpayerNumber, identificationDocumentType,</text><text fill="#000000" font-family="sans-serif" font-size="14" lengthAdjust="spacing" textLength="224" x="262" y="1181.9395">identificationDocumentNumber, job)</text></g><!--class DocType--><g id="elem_DocType"><rect codeLine="29" fill="#F1F1F1" height="103.8633" id="DocType" rx="2.5" ry="2.5" style="stroke:#181818;stroke-width:0.5;" width="89" x="383" y="1268"/><ellipse cx="398" cy="1284" fill="#EB937F" rx="11" ry="11" style="stroke:#181818;stroke-width:1.0;"/><path d="M396.8594,1284.7969 L396.8594,1287.2969 L401.1875,1287.2969 L401.1875,1286.375 Q401.1875,1285.7656 401.4219,1285.5 Q401.6719,1285.2344 402.0469,1285.2344 Q402.4219,1285.2344 402.6563,1285.5 Q402.8906,1285.7656 402.8906,1286.375 L402.8906,1289 L394.8906,1289 Q394.2656,1289 394,1288.7656 Q393.75,1288.5313 393.75,1288.1406 Q393.75,1287.7656 394.0156,1287.5313 Q394.2813,1287.2969 394.8906,1287.2969 L395.1563,1287.2969 L395.1563,1280.6406 L394.8906,1280.6406 Q394.2656,1280.6406 394,1280.4063 Q393.75,1280.1719 393.75,1279.7813 Q393.75,1279.4063 394,1279.1719 Q394.2656,1278.9375 394.8906,1278.9375 L402.5156,1278.9375 L402.5156,1281.5313 Q402.5156,1282.1406 402.2813,1282.4063 Q402.0625,1282.6563 401.6719,1282.6563 Q401.2969,1282.6563 401.0625,1282.4063 Q400.8281,1282.1406 400.8281,1281.5313 L400.8281,1280.6406 L396.8594,1280.6406 L396.8594,1283.0938 L398.3438,1283.0938 Q398.3438,1282.4375 398.4688,1282.25 Q398.7344,1281.8438 399.2031,1281.8438 Q399.5781,1281.8438 399.8125,1282.1094 Q400.0469,1282.3594 400.0469,1282.9688 L400.0469,1284.9375 Q400.0469,1285.4844 399.9219,1285.6719 Q399.6563,1286.0625 399.2031,1286.0625 Q398.7344,1286.0625 398.4688,1285.6563 Q398.3438,1285.4688 398.3438,1284.7969 L396.8594,1284.7969 Z " fill="#000000"/><text fill="#000000" font-family="sans-serif" font-size="14" lengthAdjust="spacing" textLength="57" x="412" y="1289.7969">DocType</text><line style="stroke:#181818;stroke-width:0.5;" x1="384" x2="471" y1="1300" y2="1300"/><text fill="#000000" font-family="sans-serif" font-size="14" lengthAdjust="spacing" textLength="20" x="389" y="1319.1074">CC</text><text fill="#000000" font-family="sans-serif" font-size="14" lengthAdjust="spacing" textLength="12" x="389" y="1337.7285">BI</text><text fill="#000000" font-family="sans-serif" font-size="14" lengthAdjust="spacing" textLength="56" x="389" y="1356.3496">Passport</text><line style="stroke:#181818;stroke-width:0.5;" x1="384" x2="471" y1="1363.8633" y2="1363.8633"/></g><!--class AssignSkillsController--><g id="elem_AssignSkillsController"><rect codeLine="36" fill="#F1F1F1" height="178.3477" id="AssignSkillsController" rx="2.5" ry="2.5" style="stroke:#181818;stroke-width:0.5;" width="336" x="98.5" y="116"/><ellipse cx="194.25" cy="132" fill="#ADD1B2" rx="11" ry="11" style="stroke:#181818;stroke-width:1.0;"/><path d="M197.0156,127.875 Q197.1719,127.6563 197.3594,127.5469 Q197.5469,127.4375 197.7656,127.4375 Q198.1406,127.4375 198.375,127.7031 Q198.6094,127.9531 198.6094,128.5625 L198.6094,130.0156 Q198.6094,130.625 198.375,130.8906 Q198.1406,131.1563 197.7656,131.1563 Q197.4219,131.1563 197.2188,130.9531 Q197.0156,130.7656 196.9063,130.25 Q196.8594,129.8906 196.6719,129.7031 Q196.3438,129.3281 195.7344,129.1094 Q195.125,128.8906 194.5,128.8906 Q193.7344,128.8906 193.0938,129.2188 Q192.4688,129.5469 191.9688,130.2969 Q191.4844,131.0469 191.4844,132.0781 L191.4844,133.1719 Q191.4844,134.4063 192.375,135.2344 Q193.2656,136.0469 194.8594,136.0469 Q195.7969,136.0469 196.4531,135.7969 Q196.8438,135.6406 197.2656,135.2031 Q197.5313,134.9375 197.6719,134.8594 Q197.8281,134.7813 198.0313,134.7813 Q198.3594,134.7813 198.6094,135.0469 Q198.875,135.2969 198.875,135.6406 Q198.875,135.9844 198.5313,136.3906 Q198.0313,136.9688 197.2344,137.2969 Q196.1563,137.75 194.8594,137.75 Q193.3438,137.75 192.1406,137.125 Q191.1563,136.625 190.4688,135.5625 Q189.7813,134.4844 189.7813,133.2031 L189.7813,132.0469 Q189.7813,130.7188 190.3906,129.5781 Q191.0156,128.4219 192.1094,127.8125 Q193.2031,127.1875 194.4375,127.1875 Q195.1719,127.1875 195.8125,127.3594 Q196.4688,127.5156 197.0156,127.875 Z " fill="#000000"/><text fill="#000000" font-family="sans-serif" font-size="14" lengthAdjust="spacing" textLength="136" x="214.75" y="137.7969">AssignSkillsController</text><line style="stroke:#181818;stroke-width:0.5;" x1="99.5" x2="433.5" y1="148" y2="148"/><line style="stroke:#181818;stroke-width:0.5;" x1="99.5" x2="433.5" y1="156" y2="156"/><text fill="#000000" font-family="sans-serif" font-size="14" lengthAdjust="spacing" textLength="154" x="104.5" y="175.1074">+AssignSkillsController()</text><text fill="#000000" font-family="sans-serif" font-size="14" lengthAdjust="spacing" textLength="123" x="104.5" y="193.7285">+getCollaborators()</text><text fill="#000000" font-family="sans-serif" font-size="14" lengthAdjust="spacing" textLength="205" x="104.5" y="212.3496">+getSkills(collaboratorIdNumber)</text><text fill="#000000" font-family="sans-serif" font-size="14" lengthAdjust="spacing" textLength="181" x="104.5" y="230.9707">+addSelectedSkill(skillName)</text><text fill="#000000" font-family="sans-serif" font-size="14" lengthAdjust="spacing" textLength="219" x="104.5" y="249.5918">+assignSkill(collaboratorIdNumber)</text><text fill="#000000" font-family="sans-serif" font-size="14" lengthAdjust="spacing" textLength="144" x="104.5" y="268.2129">-getSelectedSkillsList()</text><text fill="#000000" font-family="sans-serif" font-size="14" lengthAdjust="spacing" textLength="324" x="104.5" y="286.834">-getCollaboratorByIdNumber(collaboratorIdNumber)</text></g><!--class AssignSkillsUI--><g id="elem_AssignSkillsUI"><rect codeLine="46" fill="#F1F1F1" height="48" id="AssignSkillsUI" rx="2.5" ry="2.5" style="stroke:#181818;stroke-width:0.5;" width="118" x="207.5" y="7"/><ellipse cx="222.5" cy="23" fill="#ADD1B2" rx="11" ry="11" style="stroke:#181818;stroke-width:1.0;"/><path d="M225.2656,18.875 Q225.4219,18.6563 225.6094,18.5469 Q225.7969,18.4375 226.0156,18.4375 Q226.3906,18.4375 226.625,18.7031 Q226.8594,18.9531 226.8594,19.5625 L226.8594,21.0156 Q226.8594,21.625 226.625,21.8906 Q226.3906,22.1563 226.0156,22.1563 Q225.6719,22.1563 225.4688,21.9531 Q225.2656,21.7656 225.1563,21.25 Q225.1094,20.8906 224.9219,20.7031 Q224.5938,20.3281 223.9844,20.1094 Q223.375,19.8906 222.75,19.8906 Q221.9844,19.8906 221.3438,20.2188 Q220.7188,20.5469 220.2188,21.2969 Q219.7344,22.0469 219.7344,23.0781 L219.7344,24.1719 Q219.7344,25.4063 220.625,26.2344 Q221.5156,27.0469 223.1094,27.0469 Q224.0469,27.0469 224.7031,26.7969 Q225.0938,26.6406 225.5156,26.2031 Q225.7813,25.9375 225.9219,25.8594 Q226.0781,25.7813 226.2813,25.7813 Q226.6094,25.7813 226.8594,26.0469 Q227.125,26.2969 227.125,26.6406 Q227.125,26.9844 226.7813,27.3906 Q226.2813,27.9688 225.4844,28.2969 Q224.4063,28.75 223.1094,28.75 Q221.5938,28.75 220.3906,28.125 Q219.4063,27.625 218.7188,26.5625 Q218.0313,25.4844 218.0313,24.2031 L218.0313,23.0469 Q218.0313,21.7188 218.6406,20.5781 Q219.2656,19.4219 220.3594,18.8125 Q221.4531,18.1875 222.6875,18.1875 Q223.4219,18.1875 224.0625,18.3594 Q224.7188,18.5156 225.2656,18.875 Z " fill="#000000"/><text fill="#000000" font-family="sans-serif" font-size="14" lengthAdjust="spacing" textLength="86" x="236.5" y="28.7969">AssignSkillsUI</text><line style="stroke:#181818;stroke-width:0.5;" x1="208.5" x2="324.5" y1="39" y2="39"/><line style="stroke:#181818;stroke-width:0.5;" x1="208.5" x2="324.5" y1="47" y2="47"/></g><!--class Repositories--><g id="elem_Repositories"><rect codeLine="49" fill="#F1F1F1" height="122.4844" id="Repositories" rx="2.5" ry="2.5" style="stroke:#181818;stroke-width:0.5;" width="196" x="168.5" y="435"/><ellipse cx="222.75" cy="451" fill="#ADD1B2" rx="11" ry="11" style="stroke:#181818;stroke-width:1.0;"/><path d="M225.5156,446.875 Q225.6719,446.6563 225.8594,446.5469 Q226.0469,446.4375 226.2656,446.4375 Q226.6406,446.4375 226.875,446.7031 Q227.1094,446.9531 227.1094,447.5625 L227.1094,449.0156 Q227.1094,449.625 226.875,449.8906 Q226.6406,450.1563 226.2656,450.1563 Q225.9219,450.1563 225.7188,449.9531 Q225.5156,449.7656 225.4063,449.25 Q225.3594,448.8906 225.1719,448.7031 Q224.8438,448.3281 224.2344,448.1094 Q223.625,447.8906 223,447.8906 Q222.2344,447.8906 221.5938,448.2188 Q220.9688,448.5469 220.4688,449.2969 Q219.9844,450.0469 219.9844,451.0781 L219.9844,452.1719 Q219.9844,453.4063 220.875,454.2344 Q221.7656,455.0469 223.3594,455.0469 Q224.2969,455.0469 224.9531,454.7969 Q225.3438,454.6406 225.7656,454.2031 Q226.0313,453.9375 226.1719,453.8594 Q226.3281,453.7813 226.5313,453.7813 Q226.8594,453.7813 227.1094,454.0469 Q227.375,454.2969 227.375,454.6406 Q227.375,454.9844 227.0313,455.3906 Q226.5313,455.9688 225.7344,456.2969 Q224.6563,456.75 223.3594,456.75 Q221.8438,456.75 220.6406,456.125 Q219.6563,455.625 218.9688,454.5625 Q218.2813,453.4844 218.2813,452.2031 L218.2813,451.0469 Q218.2813,449.7188 218.8906,448.5781 Q219.5156,447.4219 220.6094,446.8125 Q221.7031,446.1875 222.9375,446.1875 Q223.6719,446.1875 224.3125,446.3594 Q224.9688,446.5156 225.5156,446.875 Z " fill="#000000"/><text fill="#000000" font-family="sans-serif" font-size="14" lengthAdjust="spacing" textLength="79" x="243.25" y="456.7969">Repositories</text><line style="stroke:#181818;stroke-width:0.5;" x1="169.5" x2="363.5" y1="467" y2="467"/><line style="stroke:#181818;stroke-width:0.5;" x1="169.5" x2="363.5" y1="475" y2="475"/><text fill="#000000" font-family="sans-serif" font-size="14" lengthAdjust="spacing" textLength="94" x="174.5" y="494.1074">-Repositories()</text><text fill="#000000" font-family="sans-serif" font-size="14" lengthAdjust="spacing" textLength="182" x="174.5" y="512.7285">+getInstance() : Repositories</text><text fill="#000000" font-family="sans-serif" font-size="14" lengthAdjust="spacing" textLength="131" x="174.5" y="531.3496">+getSkillRepository()</text><text fill="#000000" font-family="sans-serif" font-size="14" lengthAdjust="spacing" textLength="184" x="174.5" y="549.9707">+getCollaboratorRepository()</text></g><!--class SkillRepository--><g id="elem_SkillRepository"><rect codeLine="56" fill="#F1F1F1" height="141.1055" id="SkillRepository" rx="2.5" ry="2.5" style="stroke:#181818;stroke-width:0.5;" width="193" x="7" y="698"/><ellipse cx="52.75" cy="714" fill="#ADD1B2" rx="11" ry="11" style="stroke:#181818;stroke-width:1.0;"/><path d="M55.5156,709.875 Q55.6719,709.6563 55.8594,709.5469 Q56.0469,709.4375 56.2656,709.4375 Q56.6406,709.4375 56.875,709.7031 Q57.1094,709.9531 57.1094,710.5625 L57.1094,712.0156 Q57.1094,712.625 56.875,712.8906 Q56.6406,713.1563 56.2656,713.1563 Q55.9219,713.1563 55.7188,712.9531 Q55.5156,712.7656 55.4063,712.25 Q55.3594,711.8906 55.1719,711.7031 Q54.8438,711.3281 54.2344,711.1094 Q53.625,710.8906 53,710.8906 Q52.2344,710.8906 51.5938,711.2188 Q50.9688,711.5469 50.4688,712.2969 Q49.9844,713.0469 49.9844,714.0781 L49.9844,715.1719 Q49.9844,716.4063 50.875,717.2344 Q51.7656,718.0469 53.3594,718.0469 Q54.2969,718.0469 54.9531,717.7969 Q55.3438,717.6406 55.7656,717.2031 Q56.0313,716.9375 56.1719,716.8594 Q56.3281,716.7813 56.5313,716.7813 Q56.8594,716.7813 57.1094,717.0469 Q57.375,717.2969 57.375,717.6406 Q57.375,717.9844 57.0313,718.3906 Q56.5313,718.9688 55.7344,719.2969 Q54.6563,719.75 53.3594,719.75 Q51.8438,719.75 50.6406,719.125 Q49.6563,718.625 48.9688,717.5625 Q48.2813,716.4844 48.2813,715.2031 L48.2813,714.0469 Q48.2813,712.7188 48.8906,711.5781 Q49.5156,710.4219 50.6094,709.8125 Q51.7031,709.1875 52.9375,709.1875 Q53.6719,709.1875 54.3125,709.3594 Q54.9688,709.5156 55.5156,709.875 Z " fill="#000000"/><text fill="#000000" font-family="sans-serif" font-size="14" lengthAdjust="spacing" textLength="93" x="73.25" y="719.7969">SkillRepository</text><line style="stroke:#181818;stroke-width:0.5;" x1="8" x2="199" y1="730" y2="730"/><line style="stroke:#181818;stroke-width:0.5;" x1="8" x2="199" y1="738" y2="738"/><text fill="#000000" font-family="sans-serif" font-size="14" lengthAdjust="spacing" textLength="167" x="13" y="757.1074">+createSelectedSkillsList()</text><text fill="#000000" font-family="sans-serif" font-size="14" lengthAdjust="spacing" textLength="148" x="13" y="775.7285">+createTempSkillsList()</text><text fill="#000000" font-family="sans-serif" font-size="14" lengthAdjust="spacing" textLength="181" x="13" y="794.3496">+addSelectedSkill(skillName)</text><text fill="#000000" font-family="sans-serif" font-size="14" lengthAdjust="spacing" textLength="171" x="13" y="812.9707">-getSkillByName(skillName)</text><text fill="#000000" font-family="sans-serif" font-size="14" lengthAdjust="spacing" textLength="147" x="13" y="831.5918">+getSelectedSkillsList()</text></g><!--class CollaboratorRepository--><g id="elem_CollaboratorRepository"><rect codeLine="64" fill="#F1F1F1" height="122.4844" id="CollaboratorRepository" rx="2.5" ry="2.5" style="stroke:#181818;stroke-width:0.5;" width="443" x="235" y="707.5"/><ellipse cx="379.25" cy="723.5" fill="#ADD1B2" rx="11" ry="11" style="stroke:#181818;stroke-width:1.0;"/><path d="M382.0156,719.375 Q382.1719,719.1563 382.3594,719.0469 Q382.5469,718.9375 382.7656,718.9375 Q383.1406,718.9375 383.375,719.2031 Q383.6094,719.4531 383.6094,720.0625 L383.6094,721.5156 Q383.6094,722.125 383.375,722.3906 Q383.1406,722.6563 382.7656,722.6563 Q382.4219,722.6563 382.2188,722.4531 Q382.0156,722.2656 381.9063,721.75 Q381.8594,721.3906 381.6719,721.2031 Q381.3438,720.8281 380.7344,720.6094 Q380.125,720.3906 379.5,720.3906 Q378.7344,720.3906 378.0938,720.7188 Q377.4688,721.0469 376.9688,721.7969 Q376.4844,722.5469 376.4844,723.5781 L376.4844,724.6719 Q376.4844,725.9063 377.375,726.7344 Q378.2656,727.5469 379.8594,727.5469 Q380.7969,727.5469 381.4531,727.2969 Q381.8438,727.1406 382.2656,726.7031 Q382.5313,726.4375 382.6719,726.3594 Q382.8281,726.2813 383.0313,726.2813 Q383.3594,726.2813 383.6094,726.5469 Q383.875,726.7969 383.875,727.1406 Q383.875,727.4844 383.5313,727.8906 Q383.0313,728.4688 382.2344,728.7969 Q381.1563,729.25 379.8594,729.25 Q378.3438,729.25 377.1406,728.625 Q376.1563,728.125 375.4688,727.0625 Q374.7813,725.9844 374.7813,724.7031 L374.7813,723.5469 Q374.7813,722.2188 375.3906,721.0781 Q376.0156,719.9219 377.1094,719.3125 Q378.2031,718.6875 379.4375,718.6875 Q380.1719,718.6875 380.8125,718.8594 Q381.4688,719.0156 382.0156,719.375 Z " fill="#000000"/><text fill="#000000" font-family="sans-serif" font-size="14" lengthAdjust="spacing" textLength="146" x="399.75" y="729.2969">CollaboratorRepository</text><line style="stroke:#181818;stroke-width:0.5;" x1="236" x2="677" y1="739.5" y2="739.5"/><line style="stroke:#181818;stroke-width:0.5;" x1="236" x2="677" y1="747.5" y2="747.5"/><text fill="#000000" font-family="sans-serif" font-size="14" lengthAdjust="spacing" textLength="123" x="241" y="766.6074">+getCollaborators()</text><text fill="#000000" font-family="sans-serif" font-size="14" lengthAdjust="spacing" textLength="431" x="241" y="785.2285">+removeAlreadyAssignedSkills(collaboratorIdNumber, tempSkillsList)</text><text fill="#000000" font-family="sans-serif" font-size="14" lengthAdjust="spacing" textLength="327" x="241" y="803.8496">+getCollaboratorByIdNumber(collaboratorIdNumber)</text><text fill="#000000" font-family="sans-serif" font-size="14" lengthAdjust="spacing" textLength="274" x="241" y="822.4707">+assignSkill(collaborator, selectedSkillsList)</text></g><!--reverse link Collaborator to DocType--><g id="link_Collaborator_DocType"><path codeLine="71" d="M427.5,1205.07 C427.5,1233.15 427.5,1245.09 427.5,1267.82 " fill="none" id="Collaborator-backto-DocType" style="stroke:#181818;stroke-width:1.0;"/><ellipse cx="427.5" cy="1197.07" fill="#FFFFFF" rx="8" ry="8" style="stroke:#181818;stroke-width:1.0;"/><line style="stroke:#181818;stroke-width:1.0;" x1="427.5" x2="427.5" y1="1205.07" y2="1189.07"/><line style="stroke:#181818;stroke-width:1.0;" x1="419.5" x2="435.5" y1="1197.07" y2="1197.07"/></g><!--link Collaborator to Skill--><g id="link_Collaborator_Skill"><path codeLine="73" d="M334.9,1189.07 C312.77,1221.23 294.1714,1248.2673 277.5314,1272.4473 " fill="none" id="Collaborator-to-Skill" style="stroke:#181818;stroke-width:1.0;"/><polygon fill="#181818" points="274.13,1277.39,282.5273,1272.2436,276.9645,1273.2711,275.937,1267.7083,274.13,1277.39" style="stroke:#181818;stroke-width:1.0;"/><text fill="#000000" font-family="sans-serif" font-size="13" lengthAdjust="spacing" textLength="66" x="310.5" y="1234.0283">is assigned</text><text fill="#000000" font-family="sans-serif" font-size="13" lengthAdjust="spacing" textLength="7" x="322.3442" y="1211.4227">1</text><text fill="#000000" font-family="sans-serif" font-size="13" lengthAdjust="spacing" textLength="5" x="273.2945" y="1266.2766">*</text></g><!--link AssignSkillsUI to AssignSkillsController--><g id="link_AssignSkillsUI_AssignSkillsController"><path codeLine="74" d="M266.5,55.2 C266.5,71.15 266.5,87.45 266.5,109.93 " fill="none" id="AssignSkillsUI-to-AssignSkillsController" style="stroke:#181818;stroke-width:1.0;stroke-dasharray:7.0,7.0;"/><polygon fill="#181818" points="266.5,115.93,270.5,106.93,266.5,110.93,262.5,106.93,266.5,115.93" style="stroke:#181818;stroke-width:1.0;"/></g><!--link AssignSkillsController to Repositories--><g id="link_AssignSkillsController_Repositories"><path codeLine="76" d="M266.5,294.28 C266.5,339.76 266.5,388.05 266.5,428.69 " fill="none" id="AssignSkillsController-to-Repositories" style="stroke:#181818;stroke-width:1.0;stroke-dasharray:7.0,7.0;"/><polygon fill="#181818" points="266.5,434.69,270.5,425.69,266.5,429.69,262.5,425.69,266.5,434.69" style="stroke:#181818;stroke-width:1.0;"/><text fill="#000000" font-family="sans-serif" font-size="13" lengthAdjust="spacing" textLength="67" x="267.5" y="370.0283">repositories</text></g><!--link AssignSkillsController to SkillRepository--><g id="link_AssignSkillsController_SkillRepository"><path codeLine="77" d="M98.36,273.05 C68.39,295.9 46.5,325.57 46.5,363.5 C46.5,363.5 46.5,363.5 46.5,628.5 C46.5,652.1 51.2611,670.8731 60.4711,692.4131 " fill="none" id="AssignSkillsController-to-SkillRepository" style="stroke:#181818;stroke-width:1.0;stroke-dasharray:7.0,7.0;"/><polygon fill="#181818" points="62.83,697.93,62.9696,688.0821,60.8643,693.3326,55.6138,691.2273,62.83,697.93" style="stroke:#181818;stroke-width:1.0;"/><text fill="#000000" font-family="sans-serif" font-size="13" lengthAdjust="spacing" textLength="85" x="47.5" y="501.5283">skillRepository</text></g><!--link AssignSkillsController to CollaboratorRepository--><g id="link_AssignSkillsController_CollaboratorRepository"><path codeLine="78" d="M434.67,256.08 C478.4,279.96 513.5,314.42 513.5,363.5 C513.5,363.5 513.5,363.5 513.5,628.5 C513.5,655.63 506.6462,678.2218 495.4762,701.9418 " fill="none" id="AssignSkillsController-to-CollaboratorRepository" style="stroke:#181818;stroke-width:1.0;stroke-dasharray:7.0,7.0;"/><polygon fill="#181818" points="492.92,707.37,500.3731,700.9318,495.0502,702.8465,493.1355,697.5235,492.92,707.37" style="stroke:#181818;stroke-width:1.0;"/><text fill="#000000" font-family="sans-serif" font-size="13" lengthAdjust="spacing" textLength="129" x="514.5" y="501.5283">collaboratorRepository</text></g><!--link Repositories to Repositories--><g id="link_Repositories_Repositories"><path codeLine="80" d="M364.52,479.72 C384.87,481.43 399.5,486.86 399.5,496 C399.5,505.14 390.8489,510.0676 370.4989,511.7776 " fill="none" id="Repositories-to-Repositories" style="stroke:#181818;stroke-width:1.0;"/><polygon fill="#181818" points="364.52,512.28,373.8233,515.5123,369.5024,511.8613,373.1535,507.5404,364.52,512.28" style="stroke:#181818;stroke-width:1.0;"/><text fill="#000000" font-family="sans-serif" font-size="13" lengthAdjust="spacing" textLength="49" x="405.5" y="501.5283">instance</text></g><!--link Repositories to SkillRepository--><g id="link_Repositories_SkillRepository"><path codeLine="81" d="M230.33,557.03 C205.28,598.59 174.9665,648.9008 148.7265,692.4508 " fill="none" id="Repositories-to-SkillRepository" style="stroke:#181818;stroke-width:1.0;"/><polygon fill="#181818" points="145.63,697.59,153.7009,691.9455,148.2104,693.3073,146.8486,687.8168,145.63,697.59" style="stroke:#181818;stroke-width:1.0;"/><text fill="#000000" font-family="sans-serif" font-size="13" lengthAdjust="spacing" textLength="85" x="194.5" y="633.0283">skillRepository</text><text fill="#000000" font-family="sans-serif" font-size="13" lengthAdjust="spacing" textLength="7" x="142.4326" y="686.8105">1</text></g><!--link Repositories to CollaboratorRepository--><g id="link_Repositories_CollaboratorRepository"><path codeLine="82" d="M303.75,557.33 C319.56,582.29 338.47,611.35 356.5,637 C372.91,660.35 388.0898,680.6235 404.9698,702.4535 " fill="none" id="Repositories-to-CollaboratorRepository" style="stroke:#181818;stroke-width:1.0;"/><polygon fill="#181818" points="408.64,707.2,406.299,697.6334,405.5815,703.2446,399.9703,702.527,408.64,707.2" style="stroke:#181818;stroke-width:1.0;"/><text fill="#000000" font-family="sans-serif" font-size="13" lengthAdjust="spacing" textLength="129" x="357.5" y="633.0283">collaboratorRepository</text><text fill="#000000" font-family="sans-serif" font-size="13" lengthAdjust="spacing" textLength="7" x="395.7015" y="696.1465">1</text></g><!--link SkillRepository to Skill--><g id="link_SkillRepository_Skill"><path codeLine="84" d="M119.47,839.18 C138.86,922.64 173.12,1066.54 206.5,1189 C214.59,1218.67 222.7917,1246.1365 230.6317,1271.5565 " fill="none" id="SkillRepository-to-Skill" style="stroke:#181818;stroke-width:1.0;"/><polygon fill="#181818" points="232.4,1277.29,233.5699,1267.5109,230.9264,1272.5121,225.9252,1269.8686,232.4,1277.29" style="stroke:#181818;stroke-width:1.0;"/><text fill="#000000" font-family="sans-serif" font-size="13" lengthAdjust="spacing" textLength="30" x="207.5" y="1059.0283">skills</text></g><!--link CollaboratorRepository to Collaborator--><g id="link_CollaboratorRepository_Collaborator"><path codeLine="85" d="M450.35,829.52 C447.7,855.4 445.0911,880.8212 441.9211,911.7812 " fill="none" id="CollaboratorRepository-to-Collaborator" style="stroke:#181818;stroke-width:1.0;"/><polygon fill="#181818" points="441.31,917.75,446.2059,909.2042,441.8193,912.776,438.2475,908.3894,441.31,917.75" style="stroke:#181818;stroke-width:1.0;"/><text fill="#000000" font-family="sans-serif" font-size="13" lengthAdjust="spacing" textLength="74" x="446.5" y="884.0283">collaborators</text></g><!--SRC=[bLHDZzem4BtxLuouB9G4TQySa82z85MhgcnllPXa22wE7TccRLhjVwzZyc671BGS2FZDUDxCUvCdVMQYe8hca4iXavEIEO9H5oGTKj3aJ3FScv8ZA4mC5Hdt0_I9fl8t4naSATS-mfb0KnO8XUHbzMS8ayf8uW49frglZL7iS36uIwJOixy8dmbvudWqO2GebfqCfAnYmwGWnEN0_imu9_y8s4yCWkReViwlmBGwc97t9dehEQS7gQYH2fgalIrh6sbpOzXIZYAb2WvCcLDApGr0qvnfRNcyT61z3qrJXLhNXpjXC4C5nKaAVBta1rHXEEQKyLwmeNyAMg8QYcSf2iEEBA7L65vaSidjWHSv3xfq4uYwHg8V8k0UDNmZdwADShoY7fLefFoR5TNctECMmKzvS5AWkEHWmIgfLcwxTO_DpZs-MgaAQv5EjxNbcmadgTvAOPJj41i5voFmT5R36Hf_9De7hadJnCDtwPLn4sK7j4TkROVfrLIw-dvrpgeZklftRefTFVyc_OLfC_LGd-QcRD97xXoSplUTdKgBVCD2QcQp6EhMx_wXFugTq7RF4vpEO1a4zQRLGkNOX8E8zs1LEwXLBr5eZJWwc2RW3VDY07oaJjpotfJLwQrwOweClZK6-8_QIs4kV-6QM_ffUHMfAJ4egTsseCUHwJuqndrJHg1lkdND1Y_7UHotEneYa-S9nF4A9fycLqcNm7HT3LFIC-DYiHfPJq96jdfHvVZ-Mzf9UcuSJLlrBRO47HxSonrMUGd9u3aXmMx58MExGApUfbwSczppv37JuRIFakplN7LFBPehgCc8kQj07mfBQ4B-0m00]--></g></svg>