<?xml version="1.0" encoding="us-ascii" standalone="no"?><svg xmlns="http://www.w3.org/2000/svg" xmlns:xlink="http://www.w3.org/1999/xlink" contentStyleType="text/css" height="985px" preserveAspectRatio="none" style="width:1384px;height:985px;background:#FFFFFF;" version="1.1" viewBox="0 0 1384 985" width="1384px" zoomAndPan="magnify"><defs/><g><rect fill="#FFFFFF" height="829.6836" style="stroke:#181818;stroke-width:1.0;" width="10" x="217" y="90.5332"/><rect fill="#FFFFFF" height="31.291" style="stroke:#181818;stroke-width:1.0;" width="10" x="352.5" y="148.1152"/><rect fill="#FFFFFF" height="31.291" style="stroke:#181818;stroke-width:1.0;" width="10" x="459.5" y="210.6973"/><rect fill="#FFFFFF" height="31.291" style="stroke:#181818;stroke-width:1.0;" width="10" x="572.5" y="273.2793"/><rect fill="#FFFFFF" height="151.8242" style="stroke:#181818;stroke-width:1.0;" width="10" x="572.5" y="348.1914"/><rect fill="#FFFFFF" height="341.6191" style="stroke:#181818;stroke-width:1.0;" width="10" x="717.5" y="531.3066"/><rect fill="#FFFFFF" height="138.1641" style="stroke:#181818;stroke-width:1.0;" width="10" x="722.5" y="570.5977"/><rect fill="#FFFFFF" height="31.291" style="stroke:#181818;stroke-width:1.0;" width="10" x="1065.5" y="633.1797"/><rect fill="#FFFFFF" height="102.582" style="stroke:#181818;stroke-width:1.0;" width="10" x="1065.5" y="747.0527"/><rect fill="#FFFFFF" height="30" style="stroke:#181818;stroke-width:1.0;" width="10" x="1304" y="804.6348"/><rect fill="none" height="775.3926" style="stroke:#000000;stroke-width:1.5;" width="1243.5" x="135" y="105.5332"/><rect fill="none" height="62.9121" style="stroke:#000000;stroke-width:1.5;" width="855.5" x="513" y="406.8125"/><rect fill="none" height="81.873" style="stroke:#000000;stroke-width:1.5;" width="496.5" x="632" y="590.5977"/><rect fill="none" height="80.582" style="stroke:#000000;stroke-width:1.5;" width="356" x="1012.5" y="762.0527"/><line style="stroke:#181818;stroke-width:0.5;stroke-dasharray:5.0,5.0;" x1="222" x2="222" y1="57.2422" y2="929.2168"/><line style="stroke:#181818;stroke-width:0.5;stroke-dasharray:5.0,5.0;" x1="357" x2="357" y1="57.2422" y2="929.2168"/><line style="stroke:#181818;stroke-width:0.5;stroke-dasharray:5.0,5.0;" x1="464" x2="464" y1="57.2422" y2="929.2168"/><line style="stroke:#181818;stroke-width:0.5;stroke-dasharray:5.0,5.0;" x1="577" x2="577" y1="57.2422" y2="929.2168"/><line style="stroke:#181818;stroke-width:0.5;stroke-dasharray:5.0,5.0;" x1="722" x2="722" y1="57.2422" y2="929.2168"/><line style="stroke:#181818;stroke-width:0.5;stroke-dasharray:5.0,5.0;" x1="1070.5" x2="1070.5" y1="57.2422" y2="929.2168"/><line style="stroke:#181818;stroke-width:0.5;stroke-dasharray:5.0,5.0;" x1="1188.5" x2="1188.5" y1="313.0898" y2="929.2168"/><line style="stroke:#181818;stroke-width:0.5;stroke-dasharray:5.0,5.0;" x1="1308.5" x2="1308.5" y1="457.9141" y2="929.2168"/><rect fill="#E3E3E3" height="32.6211" rx="2.5" ry="2.5" style="stroke:#181818;stroke-width:0.5;" width="154" x="145" y="23.6211"/><text fill="#000000" font-family="sans-serif" font-size="14" lengthAdjust="spacing" textLength="140" x="152" y="45.7285">:AssignSkillsController</text><rect fill="#E3E3E3" height="32.6211" rx="2.5" ry="2.5" style="stroke:#181818;stroke-width:0.5;" width="154" x="145" y="928.2168"/><text fill="#000000" font-family="sans-serif" font-size="14" lengthAdjust="spacing" textLength="140" x="152" y="950.3242">:AssignSkillsController</text><rect fill="#E3E3E3" height="32.6211" rx="2.5" ry="2.5" style="stroke:#181818;stroke-width:0.5;" width="97" x="309" y="23.6211"/><text fill="#000000" font-family="sans-serif" font-size="14" lengthAdjust="spacing" textLength="83" x="316" y="45.7285">:Repositories</text><rect fill="#E3E3E3" height="32.6211" rx="2.5" ry="2.5" style="stroke:#181818;stroke-width:0.5;" width="97" x="309" y="928.2168"/><text fill="#000000" font-family="sans-serif" font-size="14" lengthAdjust="spacing" textLength="83" x="316" y="950.3242">:Repositories</text><rect fill="#E3E3E3" height="51.2422" rx="2.5" ry="2.5" style="stroke:#181818;stroke-width:0.5;" width="97" x="416" y="5"/><text fill="#000000" font-family="sans-serif" font-size="14" lengthAdjust="spacing" textLength="74" x="427.5" y="27.1074">repositories</text><text fill="#000000" font-family="sans-serif" font-size="14" lengthAdjust="spacing" textLength="83" x="423" y="45.7285">:Repositories</text><rect fill="#E3E3E3" height="51.2422" rx="2.5" ry="2.5" style="stroke:#181818;stroke-width:0.5;" width="97" x="416" y="928.2168"/><text fill="#000000" font-family="sans-serif" font-size="14" lengthAdjust="spacing" textLength="74" x="427.5" y="950.3242">repositories</text><text fill="#000000" font-family="sans-serif" font-size="14" lengthAdjust="spacing" textLength="83" x="423" y="968.9453">:Repositories</text><rect fill="#E3E3E3" height="51.2422" rx="2.5" ry="2.5" style="stroke:#181818;stroke-width:0.5;" width="109" x="523" y="5"/><text fill="#000000" font-family="sans-serif" font-size="14" lengthAdjust="spacing" textLength="95" x="530" y="27.1074">skillRepository:</text><text fill="#000000" font-family="sans-serif" font-size="14" lengthAdjust="spacing" textLength="93" x="531" y="45.7285">SkillRepository</text><rect fill="#E3E3E3" height="51.2422" rx="2.5" ry="2.5" style="stroke:#181818;stroke-width:0.5;" width="109" x="523" y="928.2168"/><text fill="#000000" font-family="sans-serif" font-size="14" lengthAdjust="spacing" textLength="95" x="530" y="950.3242">skillRepository:</text><text fill="#000000" font-family="sans-serif" font-size="14" lengthAdjust="spacing" textLength="93" x="531" y="968.9453">SkillRepository</text><rect fill="#E3E3E3" height="51.2422" rx="2.5" ry="2.5" style="stroke:#181818;stroke-width:0.5;" width="161" x="642" y="5"/><text fill="#000000" font-family="sans-serif" font-size="14" lengthAdjust="spacing" textLength="147" x="649" y="27.1074">collaboratorRepository:</text><text fill="#000000" font-family="sans-serif" font-size="14" lengthAdjust="spacing" textLength="146" x="649.5" y="45.7285">CollaboratorRepository</text><rect fill="#E3E3E3" height="51.2422" rx="2.5" ry="2.5" style="stroke:#181818;stroke-width:0.5;" width="161" x="642" y="928.2168"/><text fill="#000000" font-family="sans-serif" font-size="14" lengthAdjust="spacing" textLength="147" x="649" y="950.3242">collaboratorRepository:</text><text fill="#000000" font-family="sans-serif" font-size="14" lengthAdjust="spacing" textLength="146" x="649.5" y="968.9453">CollaboratorRepository</text><rect fill="#E3E3E3" height="51.2422" rx="2.5" ry="2.5" style="stroke:#181818;stroke-width:0.5;" width="96" x="1022.5" y="5"/><text fill="#000000" font-family="sans-serif" font-size="14" lengthAdjust="spacing" textLength="75" x="1033" y="27.1074">collaborator</text><text fill="#000000" font-family="sans-serif" font-size="14" lengthAdjust="spacing" textLength="82" x="1029.5" y="45.7285">:Collaborator</text><rect fill="#E3E3E3" height="51.2422" rx="2.5" ry="2.5" style="stroke:#181818;stroke-width:0.5;" width="96" x="1022.5" y="928.2168"/><text fill="#000000" font-family="sans-serif" font-size="14" lengthAdjust="spacing" textLength="75" x="1033" y="950.3242">collaborator</text><text fill="#000000" font-family="sans-serif" font-size="14" lengthAdjust="spacing" textLength="82" x="1029.5" y="968.9453">:Collaborator</text><rect fill="#E3E3E3" height="32.6211" rx="2.5" ry="2.5" style="stroke:#181818;stroke-width:0.5;" width="121" x="1128.5" y="928.2168"/><text fill="#000000" font-family="sans-serif" font-size="14" lengthAdjust="spacing" textLength="107" x="1135.5" y="950.3242">selectedSkillsList</text><rect fill="#E3E3E3" height="32.6211" rx="2.5" ry="2.5" style="stroke:#181818;stroke-width:0.5;" width="99" x="1259.5" y="928.2168"/><text fill="#000000" font-family="sans-serif" font-size="14" lengthAdjust="spacing" textLength="85" x="1266.5" y="950.3242">tempSkillsList</text><rect fill="#FFFFFF" height="829.6836" style="stroke:#181818;stroke-width:1.0;" width="10" x="217" y="90.5332"/><rect fill="#FFFFFF" height="31.291" style="stroke:#181818;stroke-width:1.0;" width="10" x="352.5" y="148.1152"/><rect fill="#FFFFFF" height="31.291" style="stroke:#181818;stroke-width:1.0;" width="10" x="459.5" y="210.6973"/><rect fill="#FFFFFF" height="31.291" style="stroke:#181818;stroke-width:1.0;" width="10" x="572.5" y="273.2793"/><rect fill="#FFFFFF" height="151.8242" style="stroke:#181818;stroke-width:1.0;" width="10" x="572.5" y="348.1914"/><rect fill="#FFFFFF" height="341.6191" style="stroke:#181818;stroke-width:1.0;" width="10" x="717.5" y="531.3066"/><rect fill="#FFFFFF" height="138.1641" style="stroke:#181818;stroke-width:1.0;" width="10" x="722.5" y="570.5977"/><rect fill="#FFFFFF" height="31.291" style="stroke:#181818;stroke-width:1.0;" width="10" x="1065.5" y="633.1797"/><rect fill="#FFFFFF" height="102.582" style="stroke:#181818;stroke-width:1.0;" width="10" x="1065.5" y="747.0527"/><rect fill="#FFFFFF" height="30" style="stroke:#181818;stroke-width:1.0;" width="10" x="1304" y="804.6348"/><polygon fill="#181818" points="205,86.5332,215,90.5332,205,94.5332,209,90.5332" style="stroke:#181818;stroke-width:1.0;"/><line style="stroke:#181818;stroke-width:1.0;" x1="0" x2="211" y1="90.5332" y2="90.5332"/><text fill="#000000" font-family="sans-serif" font-size="13" font-weight="bold" lengthAdjust="spacing" textLength="14" x="7" y="85.2705">13</text><text fill="#000000" font-family="sans-serif" font-size="13" lengthAdjust="spacing" textLength="180" x="25" y="85.2705">getSkills(collaboratorIdNumber)</text><path d="M135,105.5332 L240,105.5332 L240,114.8242 L230,124.8242 L135,124.8242 L135,105.5332 " fill="#EEEEEE" style="stroke:#000000;stroke-width:1.5;"/><rect fill="none" height="775.3926" style="stroke:#000000;stroke-width:1.5;" width="1243.5" x="135" y="105.5332"/><text fill="#000000" font-family="sans-serif" font-size="13" font-weight="bold" lengthAdjust="spacing" textLength="60" x="150" y="120.5615">Get Skills</text><polygon fill="#181818" points="340.5,144.1152,350.5,148.1152,340.5,152.1152,344.5,148.1152" style="stroke:#181818;stroke-width:1.0;"/><line style="stroke:#181818;stroke-width:1.0;" x1="227" x2="346.5" y1="148.1152" y2="148.1152"/><text fill="#000000" font-family="sans-serif" font-size="13" font-weight="bold" lengthAdjust="spacing" textLength="25" x="234" y="142.8525">13.1</text><text fill="#000000" font-family="sans-serif" font-size="13" lengthAdjust="spacing" textLength="75" x="263" y="142.8525">getInstance()</text><polygon fill="#181818" points="238,175.4063,228,179.4063,238,183.4063,234,179.4063" style="stroke:#181818;stroke-width:1.0;"/><line style="stroke:#181818;stroke-width:1.0;stroke-dasharray:2.0,2.0;" x1="232" x2="356.5" y1="179.4063" y2="179.4063"/><text fill="#000000" font-family="sans-serif" font-size="13" font-weight="bold" lengthAdjust="spacing" textLength="25" x="244" y="174.1436">13.2</text><text fill="#000000" font-family="sans-serif" font-size="13" lengthAdjust="spacing" textLength="67" x="273" y="174.1436">repositories</text><polygon fill="#181818" points="447.5,206.6973,457.5,210.6973,447.5,214.6973,451.5,210.6973" style="stroke:#181818;stroke-width:1.0;"/><line style="stroke:#181818;stroke-width:1.0;" x1="227" x2="453.5" y1="210.6973" y2="210.6973"/><text fill="#000000" font-family="sans-serif" font-size="13" font-weight="bold" lengthAdjust="spacing" textLength="25" x="234" y="205.4346">13.3</text><text fill="#000000" font-family="sans-serif" font-size="13" lengthAdjust="spacing" textLength="113" x="263" y="205.4346">getSkillRepository()</text><polygon fill="#181818" points="238,237.9883,228,241.9883,238,245.9883,234,241.9883" style="stroke:#181818;stroke-width:1.0;"/><line style="stroke:#181818;stroke-width:1.0;stroke-dasharray:2.0,2.0;" x1="232" x2="463.5" y1="241.9883" y2="241.9883"/><text fill="#000000" font-family="sans-serif" font-size="13" font-weight="bold" lengthAdjust="spacing" textLength="25" x="244" y="236.7256">13.4</text><text fill="#000000" font-family="sans-serif" font-size="13" lengthAdjust="spacing" textLength="85" x="273" y="236.7256">skillRepository</text><polygon fill="#181818" points="560.5,269.2793,570.5,273.2793,560.5,277.2793,564.5,273.2793" style="stroke:#181818;stroke-width:1.0;"/><line style="stroke:#181818;stroke-width:1.0;" x1="227" x2="566.5" y1="273.2793" y2="273.2793"/><text fill="#000000" font-family="sans-serif" font-size="13" font-weight="bold" lengthAdjust="spacing" textLength="25" x="234" y="268.0166">13.5</text><text fill="#000000" font-family="sans-serif" font-size="13" lengthAdjust="spacing" textLength="148" x="263" y="268.0166">createSelectedSkillsList()</text><polygon fill="#181818" points="1116.5,300.5703,1126.5,304.5703,1116.5,308.5703,1120.5,304.5703" style="stroke:#181818;stroke-width:1.0;"/><line style="stroke:#181818;stroke-width:1.0;" x1="577.5" x2="1122.5" y1="304.5703" y2="304.5703"/><text fill="#000000" font-family="sans-serif" font-size="13" font-weight="bold" lengthAdjust="spacing" textLength="25" x="584.5" y="299.3076">13.6</text><text fill="#000000" font-family="sans-serif" font-size="13" lengthAdjust="spacing" textLength="44" x="613.5" y="299.3076">create()</text><rect fill="#E3E3E3" height="32.6211" rx="2.5" ry="2.5" style="stroke:#181818;stroke-width:0.5;" width="121" x="1128.5" y="281.2793"/><text fill="#000000" font-family="sans-serif" font-size="14" lengthAdjust="spacing" textLength="107" x="1135.5" y="303.3867">selectedSkillsList</text><polygon fill="#181818" points="560.5,344.1914,570.5,348.1914,560.5,352.1914,564.5,348.1914" style="stroke:#181818;stroke-width:1.0;"/><line style="stroke:#181818;stroke-width:1.0;" x1="227" x2="566.5" y1="348.1914" y2="348.1914"/><text fill="#000000" font-family="sans-serif" font-size="13" font-weight="bold" lengthAdjust="spacing" textLength="25" x="234" y="342.9287">13.7</text><text fill="#000000" font-family="sans-serif" font-size="13" lengthAdjust="spacing" textLength="129" x="263" y="342.9287">createTempSkillsList()</text><polygon fill="#181818" points="1247.5,375.4824,1257.5,379.4824,1247.5,383.4824,1251.5,379.4824" style="stroke:#181818;stroke-width:1.0;"/><line style="stroke:#181818;stroke-width:1.0;" x1="582.5" x2="1253.5" y1="379.4824" y2="379.4824"/><text fill="#000000" font-family="sans-serif" font-size="13" font-weight="bold" lengthAdjust="spacing" textLength="25" x="589.5" y="374.2197">13.8</text><text fill="#000000" font-family="sans-serif" font-size="13" lengthAdjust="spacing" textLength="44" x="618.5" y="374.2197">create()</text><rect fill="#E3E3E3" height="32.6211" rx="2.5" ry="2.5" style="stroke:#181818;stroke-width:0.5;" width="99" x="1259.5" y="356.1914"/><text fill="#000000" font-family="sans-serif" font-size="14" lengthAdjust="spacing" textLength="85" x="1266.5" y="378.2988">tempSkillsList</text><path d="M513,406.8125 L586,406.8125 L586,416.1035 L576,426.1035 L513,426.1035 L513,406.8125 " fill="#EEEEEE" style="stroke:#000000;stroke-width:1.5;"/><rect fill="none" height="62.9121" style="stroke:#000000;stroke-width:1.5;" width="855.5" x="513" y="406.8125"/><text fill="#000000" font-family="sans-serif" font-size="13" font-weight="bold" lengthAdjust="spacing" textLength="28" x="528" y="421.8408">loop</text><text fill="#000000" font-family="sans-serif" font-size="11" font-weight="bold" lengthAdjust="spacing" textLength="146" x="601" y="420.6826">[for each skill in skillsList]</text><polygon fill="#181818" points="1247.5,445.3945,1257.5,449.3945,1247.5,453.3945,1251.5,449.3945" style="stroke:#181818;stroke-width:1.0;"/><line style="stroke:#181818;stroke-width:1.0;" x1="582.5" x2="1253.5" y1="449.3945" y2="449.3945"/><text fill="#000000" font-family="sans-serif" font-size="13" font-weight="bold" lengthAdjust="spacing" textLength="25" x="589.5" y="444.1318">13.9</text><text fill="#000000" font-family="sans-serif" font-size="13" lengthAdjust="spacing" textLength="52" x="618.5" y="444.1318">add(skill)</text><rect fill="#E3E3E3" height="32.6211" rx="2.5" ry="2.5" style="stroke:#181818;stroke-width:0.5;" width="99" x="1259.5" y="426.1035"/><text fill="#000000" font-family="sans-serif" font-size="14" lengthAdjust="spacing" textLength="85" x="1266.5" y="448.2109">tempSkillsList</text><polygon fill="#181818" points="238,496.0156,228,500.0156,238,504.0156,234,500.0156" style="stroke:#181818;stroke-width:1.0;"/><line style="stroke:#181818;stroke-width:1.0;stroke-dasharray:2.0,2.0;" x1="232" x2="576.5" y1="500.0156" y2="500.0156"/><text fill="#000000" font-family="sans-serif" font-size="13" font-weight="bold" lengthAdjust="spacing" textLength="32" x="244" y="494.7529">13.10</text><text fill="#000000" font-family="sans-serif" font-size="13" lengthAdjust="spacing" textLength="82" x="280" y="494.7529">tempSkillsList</text><polygon fill="#181818" points="705.5,527.3066,715.5,531.3066,705.5,535.3066,709.5,531.3066" style="stroke:#181818;stroke-width:1.0;"/><line style="stroke:#181818;stroke-width:1.0;" x1="227" x2="711.5" y1="531.3066" y2="531.3066"/><text fill="#000000" font-family="sans-serif" font-size="13" font-weight="bold" lengthAdjust="spacing" textLength="32" x="234" y="526.0439">13.11</text><text fill="#000000" font-family="sans-serif" font-size="13" lengthAdjust="spacing" textLength="391" x="270" y="526.0439">removeAlreadyAssignedSkills(collaboratorIdNumber, tempSkillsList)</text><line style="stroke:#181818;stroke-width:1.0;" x1="727.5" x2="774.5" y1="557.5977" y2="557.5977"/><line style="stroke:#181818;stroke-width:1.0;" x1="774.5" x2="774.5" y1="557.5977" y2="570.5977"/><line style="stroke:#181818;stroke-width:1.0;" x1="733.5" x2="774.5" y1="570.5977" y2="570.5977"/><polygon fill="#181818" points="743.5,566.5977,733.5,570.5977,743.5,574.5977,739.5,570.5977" style="stroke:#181818;stroke-width:1.0;"/><text fill="#000000" font-family="sans-serif" font-size="13" font-weight="bold" lengthAdjust="spacing" textLength="32" x="739.5" y="552.335">13.12</text><text fill="#000000" font-family="sans-serif" font-size="13" lengthAdjust="spacing" textLength="288" x="775.5" y="552.335">getCollaboratorByIdNumber(collaboratorIdNumber)</text><path d="M632,590.5977 L705,590.5977 L705,599.8887 L695,609.8887 L632,609.8887 L632,590.5977 " fill="#EEEEEE" style="stroke:#000000;stroke-width:1.5;"/><rect fill="none" height="81.873" style="stroke:#000000;stroke-width:1.5;" width="496.5" x="632" y="590.5977"/><text fill="#000000" font-family="sans-serif" font-size="13" font-weight="bold" lengthAdjust="spacing" textLength="28" x="647" y="605.626">loop</text><text fill="#000000" font-family="sans-serif" font-size="11" font-weight="bold" lengthAdjust="spacing" textLength="68" x="720" y="604.4678">[while false]</text><polygon fill="#181818" points="1053.5,629.1797,1063.5,633.1797,1053.5,637.1797,1057.5,633.1797" style="stroke:#181818;stroke-width:1.0;"/><line style="stroke:#181818;stroke-width:1.0;" x1="732.5" x2="1059.5" y1="633.1797" y2="633.1797"/><text fill="#000000" font-family="sans-serif" font-size="13" font-weight="bold" lengthAdjust="spacing" textLength="32" x="739.5" y="627.917">13.13</text><text fill="#000000" font-family="sans-serif" font-size="13" lengthAdjust="spacing" textLength="217" x="775.5" y="627.917">sameIdNumber(collaboratorIdNumber)</text><polygon fill="#181818" points="743.5,660.4707,733.5,664.4707,743.5,668.4707,739.5,664.4707" style="stroke:#181818;stroke-width:1.0;"/><line style="stroke:#181818;stroke-width:1.0;stroke-dasharray:2.0,2.0;" x1="737.5" x2="1069.5" y1="664.4707" y2="664.4707"/><text fill="#000000" font-family="sans-serif" font-size="13" font-weight="bold" lengthAdjust="spacing" textLength="32" x="749.5" y="659.208">13.14</text><text fill="#000000" font-family="sans-serif" font-size="13" lengthAdjust="spacing" textLength="53" x="785.5" y="659.208">true/false</text><line style="stroke:#181818;stroke-width:1.0;stroke-dasharray:2.0,2.0;" x1="732.5" x2="774.5" y1="707.7617" y2="707.7617"/><line style="stroke:#181818;stroke-width:1.0;stroke-dasharray:2.0,2.0;" x1="774.5" x2="774.5" y1="707.7617" y2="720.7617"/><line style="stroke:#181818;stroke-width:1.0;stroke-dasharray:2.0,2.0;" x1="727.5" x2="774.5" y1="720.7617" y2="720.7617"/><polygon fill="#181818" points="737.5,716.7617,727.5,720.7617,737.5,724.7617,733.5,720.7617" style="stroke:#181818;stroke-width:1.0;"/><text fill="#000000" font-family="sans-serif" font-size="13" font-weight="bold" lengthAdjust="spacing" textLength="32" x="739.5" y="702.499">13.15</text><text fill="#000000" font-family="sans-serif" font-size="13" lengthAdjust="spacing" textLength="67" x="775.5" y="702.499">collaborator</text><polygon fill="#181818" points="1053.5,743.0527,1063.5,747.0527,1053.5,751.0527,1057.5,747.0527" style="stroke:#181818;stroke-width:1.0;"/><line style="stroke:#181818;stroke-width:1.0;" x1="727.5" x2="1059.5" y1="747.0527" y2="747.0527"/><text fill="#000000" font-family="sans-serif" font-size="13" font-weight="bold" lengthAdjust="spacing" textLength="32" x="734.5" y="741.79">13.16</text><text fill="#000000" font-family="sans-serif" font-size="13" lengthAdjust="spacing" textLength="261" x="770.5" y="741.79">removeAlreadyAssignedSkills(tempSkillsList)</text><path d="M1012.5,762.0527 L1085.5,762.0527 L1085.5,771.3438 L1075.5,781.3438 L1012.5,781.3438 L1012.5,762.0527 " fill="#EEEEEE" style="stroke:#000000;stroke-width:1.5;"/><rect fill="none" height="80.582" style="stroke:#000000;stroke-width:1.5;" width="356" x="1012.5" y="762.0527"/><text fill="#000000" font-family="sans-serif" font-size="13" font-weight="bold" lengthAdjust="spacing" textLength="28" x="1027.5" y="777.0811">loop</text><text fill="#000000" font-family="sans-serif" font-size="11" font-weight="bold" lengthAdjust="spacing" textLength="125" x="1100.5" y="775.9229">[for each skill in skills]</text><polygon fill="#181818" points="1292,800.6348,1302,804.6348,1292,808.6348,1296,804.6348" style="stroke:#181818;stroke-width:1.0;"/><line style="stroke:#181818;stroke-width:1.0;" x1="1075.5" x2="1298" y1="804.6348" y2="804.6348"/><text fill="#000000" font-family="sans-serif" font-size="13" font-weight="bold" lengthAdjust="spacing" textLength="32" x="1082.5" y="799.3721">13.17</text><text fill="#000000" font-family="sans-serif" font-size="13" lengthAdjust="spacing" textLength="72" x="1118.5" y="799.3721">remove(skill)</text><polygon fill="#181818" points="238,868.9258,228,872.9258,238,876.9258,234,872.9258" style="stroke:#181818;stroke-width:1.0;"/><line style="stroke:#181818;stroke-width:1.0;stroke-dasharray:2.0,2.0;" x1="232" x2="721.5" y1="872.9258" y2="872.9258"/><text fill="#000000" font-family="sans-serif" font-size="13" font-weight="bold" lengthAdjust="spacing" textLength="32" x="244" y="867.6631">13.18</text><text fill="#000000" font-family="sans-serif" font-size="13" lengthAdjust="spacing" textLength="82" x="280" y="867.6631">tempSkillsList</text><polygon fill="#181818" points="11,907.2168,1,911.2168,11,915.2168,7,911.2168" style="stroke:#181818;stroke-width:1.0;"/><line style="stroke:#181818;stroke-width:1.0;stroke-dasharray:2.0,2.0;" x1="5" x2="216" y1="911.2168" y2="911.2168"/><text fill="#000000" font-family="sans-serif" font-size="13" font-weight="bold" lengthAdjust="spacing" textLength="14" x="17" y="905.9541">14</text><text fill="#000000" font-family="sans-serif" font-size="13" lengthAdjust="spacing" textLength="82" x="35" y="905.9541">tempSkillsList</text><!--SRC=[jLPDRniX4BtpAr1EJbIdYjgJLLLoVOWYMLKL-vWBsPsiaLbO0KxaVryMiX-mWDUgoic2cNdlpPTN7IblY2GrhWKNnK6A6h2M9q2gVsb8SIGLxFIP0PPGQC8hDZPG1rAA3yeh_4QO0eJCjQO5RGZN-6QrLefMV7UaZAcDu5eAna3UOABmPl-y3QoVeH6AQY4fA6lJNvntj0NMWlikSkJnmgS1_cpNUzz3jLo6kAiNnswuiNx1dH-YC2B8gv34F7cHDj47fpRwb8vhn8nT9Z4G8YUJZLFz2X8_V4FBdpQXU8Khq2xVYt6yf_AtjRqD7EyVp4MXwJlHu4g2pQcaE3Nu4RHBXBANtR4u1YzI70V_n9Nfam8MjvvV3nEhgcSPYxpyLBZ2uvfxRYNCX-X4j0qoIjhWbo9lEyfxiY46Ua63fHXEutIK0YA6NI71kEo0cG64qfLaIvLESGoxrxDgJmXXKDKa-jrT3nq0ZMHaeIufsaFT_1yrsekSLj8U9aI3tuJ4HjN1bGzJxdvOzud7V51IbWiRQ0eBlBJGb-KCi-qZ_5DDuWi9j-DLYtTOCvEkykpsTzSLqOto9M2Lg69Y0KxK9tZb69lX7R_zEdVK4XimXBoQOzyr7mTg_XS___bYLlFK60sAr70bxIJrE9MGZkkhL4xRxu2lJbWiqAZRBYFtdNvLYdBiYYncWbno8kRMA3SPLy-0po6xWr2-ZE7YwPccDe_7ARDI8ldCMCUhFAjHSYqGNNpekdAtrEmdZV_nynsX7yjb0k8l]--></g></svg>