<?xml version="1.0" encoding="us-ascii" standalone="no"?><svg xmlns="http://www.w3.org/2000/svg" xmlns:xlink="http://www.w3.org/1999/xlink" contentStyleType="text/css" height="1121px" preserveAspectRatio="none" style="width:1014px;height:1121px;background:#FFFFFF;" version="1.1" viewBox="0 0 1014 1121" width="1014px" zoomAndPan="magnify"><defs/><g><text fill="#000000" font-family="sans-serif" font-size="14" font-weight="bold" lengthAdjust="spacing" textLength="352" x="330" y="30.1074">US004 - Assign one or more skills to a collaborator</text><rect fill="#FFFFFF" height="887.4004" style="stroke:#181818;stroke-width:1.0;" width="10" x="33" y="133.2422"/><rect fill="#FFFFFF" height="185.7461" style="stroke:#181818;stroke-width:1.0;" width="10" x="370" y="156.5332"/><rect fill="#FFFFFF" height="261.9492" style="stroke:#181818;stroke-width:1.0;" width="10" x="370" y="373.5703"/><rect fill="#FFFFFF" height="110.834" style="stroke:#181818;stroke-width:1.0;" width="10" x="370" y="666.8105"/><rect fill="#FFFFFF" height="38.291" style="stroke:#181818;stroke-width:1.0;" width="10" x="370" y="808.9355"/><rect fill="#FFFFFF" height="142.125" style="stroke:#181818;stroke-width:1.0;" width="10" x="370" y="878.5176"/><rect fill="#FFFFFF" height="79.543" style="stroke:#181818;stroke-width:1.0;" width="10" x="610" y="231.4453"/><rect fill="#FFFFFF" height="173.0762" style="stroke:#181818;stroke-width:1.0;" width="10" x="610" y="404.8613"/><rect fill="#FFFFFF" height="79.543" style="stroke:#181818;stroke-width:1.0;" width="10" x="610" y="698.1016"/><rect fill="#FFFFFF" height="79.543" style="stroke:#181818;stroke-width:1.0;" width="10" x="610" y="909.8086"/><rect fill="#FFFFFF" height="31.291" style="stroke:#181818;stroke-width:1.0;" width="10" x="798" y="484.4043"/><rect fill="none" height="223.998" style="stroke:#000000;stroke-width:1.5;" width="692" x="10" y="592.9375"/><line style="stroke:#181818;stroke-width:0.5;stroke-dasharray:5.0,5.0;" x1="38" x2="38" y1="123.2422" y2="1038.6426"/><line style="stroke:#181818;stroke-width:0.5;stroke-dasharray:5.0,5.0;" x1="375" x2="375" y1="123.2422" y2="1038.6426"/><line style="stroke:#181818;stroke-width:0.5;stroke-dasharray:5.0,5.0;" x1="615" x2="615" y1="196.3438" y2="1038.6426"/><line style="stroke:#181818;stroke-width:0.5;stroke-dasharray:5.0,5.0;" x1="802.5" x2="802.5" y1="123.2422" y2="1038.6426"/><line style="stroke:#181818;stroke-width:0.5;stroke-dasharray:5.0,5.0;" x1="947" x2="947" y1="533.5254" y2="1038.6426"/><text fill="#000000" font-family="sans-serif" font-size="14" lengthAdjust="spacing" textLength="30" x="20" y="119.7285">HRM</text><ellipse cx="38" cy="53.1211" fill="#E3E3E3" rx="8" ry="8" style="stroke:#181818;stroke-width:0.5;"/><path d="M38,61.1211 L38,88.1211 M25,69.1211 L51,69.1211 M38,88.1211 L25,103.1211 M38,88.1211 L51,103.1211 " fill="none" style="stroke:#181818;stroke-width:0.5;"/><text fill="#000000" font-family="sans-serif" font-size="14" lengthAdjust="spacing" textLength="30" x="20" y="1052.75">HRM</text><ellipse cx="38" cy="1064.7637" fill="#E3E3E3" rx="8" ry="8" style="stroke:#181818;stroke-width:0.5;"/><path d="M38,1072.7637 L38,1099.7637 M25,1080.7637 L51,1080.7637 M38,1099.7637 L25,1114.7637 M38,1099.7637 L51,1114.7637 " fill="none" style="stroke:#181818;stroke-width:0.5;"/><rect fill="#E3E3E3" height="32.6211" rx="2.5" ry="2.5" style="stroke:#181818;stroke-width:0.5;" width="104" x="323" y="89.6211"/><text fill="#000000" font-family="sans-serif" font-size="14" lengthAdjust="spacing" textLength="90" x="330" y="111.7285">:AssignSkillsUI</text><rect fill="#E3E3E3" height="32.6211" rx="2.5" ry="2.5" style="stroke:#181818;stroke-width:0.5;" width="104" x="323" y="1037.6426"/><text fill="#000000" font-family="sans-serif" font-size="14" lengthAdjust="spacing" textLength="90" x="330" y="1059.75">:AssignSkillsUI</text><rect fill="#E3E3E3" height="32.6211" rx="2.5" ry="2.5" style="stroke:#181818;stroke-width:0.5;" width="154" x="538" y="1037.6426"/><text fill="#000000" font-family="sans-serif" font-size="14" lengthAdjust="spacing" textLength="140" x="545" y="1059.75">:AssignSkillsController</text><rect fill="#E3E3E3" height="51.2422" rx="2.5" ry="2.5" style="stroke:#181818;stroke-width:0.5;" width="109" x="748.5" y="71"/><text fill="#000000" font-family="sans-serif" font-size="14" lengthAdjust="spacing" textLength="95" x="755.5" y="93.1074">skillRepository:</text><text fill="#000000" font-family="sans-serif" font-size="14" lengthAdjust="spacing" textLength="93" x="756.5" y="111.7285">SkillRepository</text><rect fill="#E3E3E3" height="51.2422" rx="2.5" ry="2.5" style="stroke:#181818;stroke-width:0.5;" width="109" x="748.5" y="1037.6426"/><text fill="#000000" font-family="sans-serif" font-size="14" lengthAdjust="spacing" textLength="95" x="755.5" y="1059.75">skillRepository:</text><text fill="#000000" font-family="sans-serif" font-size="14" lengthAdjust="spacing" textLength="93" x="756.5" y="1078.3711">SkillRepository</text><rect fill="#E3E3E3" height="51.2422" rx="2.5" ry="2.5" style="stroke:#181818;stroke-width:0.5;" width="121" x="887" y="1037.6426"/><text fill="#000000" font-family="sans-serif" font-size="14" lengthAdjust="spacing" textLength="107" x="894" y="1059.75">selectedSkillsList</text><text fill="#000000" font-family="sans-serif" font-size="14" lengthAdjust="spacing" textLength="63" x="916" y="1078.3711">List&lt;Skill&gt;</text><rect fill="#FFFFFF" height="887.4004" style="stroke:#181818;stroke-width:1.0;" width="10" x="33" y="133.2422"/><rect fill="#FFFFFF" height="185.7461" style="stroke:#181818;stroke-width:1.0;" width="10" x="370" y="156.5332"/><rect fill="#FFFFFF" height="261.9492" style="stroke:#181818;stroke-width:1.0;" width="10" x="370" y="373.5703"/><rect fill="#FFFFFF" height="110.834" style="stroke:#181818;stroke-width:1.0;" width="10" x="370" y="666.8105"/><rect fill="#FFFFFF" height="38.291" style="stroke:#181818;stroke-width:1.0;" width="10" x="370" y="808.9355"/><rect fill="#FFFFFF" height="142.125" style="stroke:#181818;stroke-width:1.0;" width="10" x="370" y="878.5176"/><rect fill="#FFFFFF" height="79.543" style="stroke:#181818;stroke-width:1.0;" width="10" x="610" y="231.4453"/><rect fill="#FFFFFF" height="173.0762" style="stroke:#181818;stroke-width:1.0;" width="10" x="610" y="404.8613"/><rect fill="#FFFFFF" height="79.543" style="stroke:#181818;stroke-width:1.0;" width="10" x="610" y="698.1016"/><rect fill="#FFFFFF" height="79.543" style="stroke:#181818;stroke-width:1.0;" width="10" x="610" y="909.8086"/><rect fill="#FFFFFF" height="31.291" style="stroke:#181818;stroke-width:1.0;" width="10" x="798" y="484.4043"/><polygon fill="#181818" points="358,152.5332,368,156.5332,358,160.5332,362,156.5332" style="stroke:#181818;stroke-width:1.0;"/><line style="stroke:#181818;stroke-width:1.0;" x1="43" x2="364" y1="156.5332" y2="156.5332"/><text fill="#000000" font-family="sans-serif" font-size="13" font-weight="bold" lengthAdjust="spacing" textLength="7" x="50" y="151.2705">1</text><text fill="#000000" font-family="sans-serif" font-size="13" lengthAdjust="spacing" textLength="224" x="61" y="151.2705">asks to assign skill(s) to a collaborator</text><polygon fill="#181818" points="526,183.8242,536,187.8242,526,191.8242,530,187.8242" style="stroke:#181818;stroke-width:1.0;"/><line style="stroke:#181818;stroke-width:1.0;" x1="380" x2="532" y1="187.8242" y2="187.8242"/><text fill="#000000" font-family="sans-serif" font-size="13" font-weight="bold" lengthAdjust="spacing" textLength="7" x="387" y="182.5615">2</text><text fill="#000000" font-family="sans-serif" font-size="13" lengthAdjust="spacing" textLength="36" x="398" y="182.5615">create</text><rect fill="#E3E3E3" height="32.6211" rx="2.5" ry="2.5" style="stroke:#181818;stroke-width:0.5;" width="154" x="538" y="164.5332"/><text fill="#000000" font-family="sans-serif" font-size="14" lengthAdjust="spacing" textLength="140" x="545" y="186.6406">:AssignSkillsController</text><polygon fill="#181818" points="598,227.4453,608,231.4453,598,235.4453,602,231.4453" style="stroke:#181818;stroke-width:1.0;"/><line style="stroke:#181818;stroke-width:1.0;" x1="380" x2="604" y1="231.4453" y2="231.4453"/><text fill="#000000" font-family="sans-serif" font-size="13" font-weight="bold" lengthAdjust="spacing" textLength="7" x="387" y="226.1826">3</text><text fill="#000000" font-family="sans-serif" font-size="13" lengthAdjust="spacing" textLength="102" x="398" y="226.1826">getCollaborators()</text><rect fill="none" height="43.252" style="stroke:#000000;stroke-width:1.5;" width="160" x="535" y="239.4453"/><path d="M535,239.4453 L597,239.4453 L597,248.4453 L587,258.4453 L535,258.4453 L535,239.4453 " fill="#EEEEEE" style="stroke:#000000;stroke-width:2.0;"/><text fill="#000000" font-family="sans-serif" font-size="13" font-weight="bold" lengthAdjust="spacing" textLength="17" x="548" y="255.4736">ref</text><text fill="#000000" font-family="sans-serif" font-size="12" lengthAdjust="spacing" textLength="97" x="566.5" y="275.3945">Get Collaborators</text><polygon fill="#181818" points="391,306.9883,381,310.9883,391,314.9883,387,310.9883" style="stroke:#181818;stroke-width:1.0;"/><line style="stroke:#181818;stroke-width:1.0;stroke-dasharray:2.0,2.0;" x1="385" x2="614" y1="310.9883" y2="310.9883"/><text fill="#000000" font-family="sans-serif" font-size="13" font-weight="bold" lengthAdjust="spacing" textLength="7" x="397" y="305.7256">4</text><text fill="#000000" font-family="sans-serif" font-size="13" lengthAdjust="spacing" textLength="95" x="408" y="305.7256">collaboratorsList</text><polygon fill="#181818" points="54,338.2793,44,342.2793,54,346.2793,50,342.2793" style="stroke:#181818;stroke-width:1.0;"/><line style="stroke:#181818;stroke-width:1.0;stroke-dasharray:2.0,2.0;" x1="48" x2="374" y1="342.2793" y2="342.2793"/><text fill="#000000" font-family="sans-serif" font-size="13" font-weight="bold" lengthAdjust="spacing" textLength="7" x="60" y="337.0166">5</text><text fill="#000000" font-family="sans-serif" font-size="13" lengthAdjust="spacing" textLength="180" x="71" y="337.0166">shows list with all collaborators</text><polygon fill="#181818" points="358,369.5703,368,373.5703,358,377.5703,362,373.5703" style="stroke:#181818;stroke-width:1.0;"/><line style="stroke:#181818;stroke-width:1.0;" x1="43" x2="364" y1="373.5703" y2="373.5703"/><text fill="#000000" font-family="sans-serif" font-size="13" font-weight="bold" lengthAdjust="spacing" textLength="7" x="50" y="368.3076">6</text><text fill="#000000" font-family="sans-serif" font-size="13" lengthAdjust="spacing" textLength="135" x="61" y="368.3076">selects the collaborator</text><polygon fill="#181818" points="598,400.8613,608,404.8613,598,408.8613,602,404.8613" style="stroke:#181818;stroke-width:1.0;"/><line style="stroke:#181818;stroke-width:1.0;" x1="380" x2="604" y1="404.8613" y2="404.8613"/><text fill="#000000" font-family="sans-serif" font-size="13" font-weight="bold" lengthAdjust="spacing" textLength="7" x="387" y="399.5986">7</text><text fill="#000000" font-family="sans-serif" font-size="13" lengthAdjust="spacing" textLength="79" x="398" y="399.5986">getSkillsList()</text><rect fill="none" height="43.252" style="stroke:#000000;stroke-width:1.5;" width="160" x="535" y="412.8613"/><path d="M535,412.8613 L597,412.8613 L597,421.8613 L587,431.8613 L535,431.8613 L535,412.8613 " fill="#EEEEEE" style="stroke:#000000;stroke-width:2.0;"/><text fill="#000000" font-family="sans-serif" font-size="13" font-weight="bold" lengthAdjust="spacing" textLength="17" x="548" y="428.8896">ref</text><text fill="#000000" font-family="sans-serif" font-size="12" lengthAdjust="spacing" textLength="52" x="589" y="448.8105">Get Skills</text><polygon fill="#181818" points="786,480.4043,796,484.4043,786,488.4043,790,484.4043" style="stroke:#181818;stroke-width:1.0;"/><line style="stroke:#181818;stroke-width:1.0;" x1="620" x2="792" y1="484.4043" y2="484.4043"/><text fill="#000000" font-family="sans-serif" font-size="13" font-weight="bold" lengthAdjust="spacing" textLength="7" x="627" y="479.1416">8</text><text fill="#000000" font-family="sans-serif" font-size="13" lengthAdjust="spacing" textLength="148" x="638" y="479.1416">createSelectedSkillsList()</text><polygon fill="#181818" points="875,511.6953,885,515.6953,875,519.6953,879,515.6953" style="stroke:#181818;stroke-width:1.0;"/><line style="stroke:#181818;stroke-width:1.0;" x1="803" x2="881" y1="515.6953" y2="515.6953"/><text fill="#000000" font-family="sans-serif" font-size="13" font-weight="bold" lengthAdjust="spacing" textLength="7" x="810" y="510.4326">9</text><text fill="#000000" font-family="sans-serif" font-size="13" lengthAdjust="spacing" textLength="44" x="821" y="510.4326">create()</text><rect fill="#E3E3E3" height="51.2422" rx="2.5" ry="2.5" style="stroke:#181818;stroke-width:0.5;" width="121" x="887" y="492.4043"/><text fill="#000000" font-family="sans-serif" font-size="14" lengthAdjust="spacing" textLength="107" x="894" y="514.5117">selectedSkillsList</text><text fill="#000000" font-family="sans-serif" font-size="14" lengthAdjust="spacing" textLength="63" x="916" y="533.1328">List&lt;Skill&gt;</text><polygon fill="#181818" points="391,573.9375,381,577.9375,391,581.9375,387,577.9375" style="stroke:#181818;stroke-width:1.0;"/><line style="stroke:#181818;stroke-width:1.0;stroke-dasharray:2.0,2.0;" x1="385" x2="614" y1="577.9375" y2="577.9375"/><text fill="#000000" font-family="sans-serif" font-size="13" font-weight="bold" lengthAdjust="spacing" textLength="14" x="397" y="572.6748">10</text><text fill="#000000" font-family="sans-serif" font-size="13" lengthAdjust="spacing" textLength="51" x="415" y="572.6748">skillsList</text><path d="M10,592.9375 L83,592.9375 L83,602.2285 L73,612.2285 L10,612.2285 L10,592.9375 " fill="#EEEEEE" style="stroke:#000000;stroke-width:1.5;"/><rect fill="none" height="223.998" style="stroke:#000000;stroke-width:1.5;" width="692" x="10" y="592.9375"/><text fill="#000000" font-family="sans-serif" font-size="13" font-weight="bold" lengthAdjust="spacing" textLength="28" x="25" y="607.9658">loop</text><text fill="#000000" font-family="sans-serif" font-size="11" font-weight="bold" lengthAdjust="spacing" textLength="167" x="98" y="606.8076">[while HRM wants to continue]</text><polygon fill="#181818" points="54,631.5195,44,635.5195,54,639.5195,50,635.5195" style="stroke:#181818;stroke-width:1.0;"/><line style="stroke:#181818;stroke-width:1.0;stroke-dasharray:2.0,2.0;" x1="48" x2="374" y1="635.5195" y2="635.5195"/><text fill="#000000" font-family="sans-serif" font-size="13" font-weight="bold" lengthAdjust="spacing" textLength="14" x="60" y="630.2568">11</text><text fill="#000000" font-family="sans-serif" font-size="13" lengthAdjust="spacing" textLength="250" x="78" y="630.2568">shows skills list and requests to select one</text><polygon fill="#181818" points="358,662.8105,368,666.8105,358,670.8105,362,666.8105" style="stroke:#181818;stroke-width:1.0;"/><line style="stroke:#181818;stroke-width:1.0;" x1="43" x2="364" y1="666.8105" y2="666.8105"/><text fill="#000000" font-family="sans-serif" font-size="13" font-weight="bold" lengthAdjust="spacing" textLength="14" x="50" y="661.5479">12</text><text fill="#000000" font-family="sans-serif" font-size="13" lengthAdjust="spacing" textLength="94" x="68" y="661.5479">selects one skill</text><polygon fill="#181818" points="598,694.1016,608,698.1016,598,702.1016,602,698.1016" style="stroke:#181818;stroke-width:1.0;"/><line style="stroke:#181818;stroke-width:1.0;" x1="380" x2="604" y1="698.1016" y2="698.1016"/><text fill="#000000" font-family="sans-serif" font-size="13" font-weight="bold" lengthAdjust="spacing" textLength="14" x="387" y="692.8389">13</text><text fill="#000000" font-family="sans-serif" font-size="13" lengthAdjust="spacing" textLength="162" x="405" y="692.8389">addSelectedSkill(skillName)</text><rect fill="none" height="43.252" style="stroke:#000000;stroke-width:1.5;" width="160" x="535" y="706.1016"/><path d="M535,706.1016 L597,706.1016 L597,715.1016 L587,725.1016 L535,725.1016 L535,706.1016 " fill="#EEEEEE" style="stroke:#000000;stroke-width:2.0;"/><text fill="#000000" font-family="sans-serif" font-size="13" font-weight="bold" lengthAdjust="spacing" textLength="17" x="548" y="722.1299">ref</text><text fill="#000000" font-family="sans-serif" font-size="12" lengthAdjust="spacing" textLength="98" x="566" y="742.0508">Add Selected Skill</text><polygon fill="#181818" points="54,773.6445,44,777.6445,54,781.6445,50,777.6445" style="stroke:#181818;stroke-width:1.0;"/><line style="stroke:#181818;stroke-width:1.0;stroke-dasharray:2.0,2.0;" x1="48" x2="374" y1="777.6445" y2="777.6445"/><text fill="#000000" font-family="sans-serif" font-size="13" font-weight="bold" lengthAdjust="spacing" textLength="14" x="60" y="772.3818">14</text><text fill="#000000" font-family="sans-serif" font-size="13" lengthAdjust="spacing" textLength="96" x="78" y="772.3818">asks to continue</text><polygon fill="#181818" points="358,804.9355,368,808.9355,358,812.9355,362,808.9355" style="stroke:#181818;stroke-width:1.0;"/><line style="stroke:#181818;stroke-width:1.0;" x1="43" x2="364" y1="808.9355" y2="808.9355"/><text fill="#000000" font-family="sans-serif" font-size="13" font-weight="bold" lengthAdjust="spacing" textLength="14" x="50" y="803.6729">15</text><text fill="#000000" font-family="sans-serif" font-size="13" lengthAdjust="spacing" textLength="111" x="68" y="803.6729">responds yes or no</text><polygon fill="#181818" points="54,843.2266,44,847.2266,54,851.2266,50,847.2266" style="stroke:#181818;stroke-width:1.0;"/><line style="stroke:#181818;stroke-width:1.0;stroke-dasharray:2.0,2.0;" x1="48" x2="374" y1="847.2266" y2="847.2266"/><text fill="#000000" font-family="sans-serif" font-size="13" font-weight="bold" lengthAdjust="spacing" textLength="14" x="60" y="841.9639">16</text><text fill="#000000" font-family="sans-serif" font-size="13" lengthAdjust="spacing" textLength="285" x="78" y="841.9639">shows skill(s) selected and requests confirmation</text><polygon fill="#181818" points="358,874.5176,368,878.5176,358,882.5176,362,878.5176" style="stroke:#181818;stroke-width:1.0;"/><line style="stroke:#181818;stroke-width:1.0;" x1="43" x2="364" y1="878.5176" y2="878.5176"/><text fill="#000000" font-family="sans-serif" font-size="13" font-weight="bold" lengthAdjust="spacing" textLength="14" x="50" y="873.2549">17</text><text fill="#000000" font-family="sans-serif" font-size="13" lengthAdjust="spacing" textLength="78" x="68" y="873.2549">confirms data</text><polygon fill="#181818" points="598,905.8086,608,909.8086,598,913.8086,602,909.8086" style="stroke:#181818;stroke-width:1.0;"/><line style="stroke:#181818;stroke-width:1.0;" x1="380" x2="604" y1="909.8086" y2="909.8086"/><text fill="#000000" font-family="sans-serif" font-size="13" font-weight="bold" lengthAdjust="spacing" textLength="14" x="387" y="904.5459">18</text><text fill="#000000" font-family="sans-serif" font-size="13" lengthAdjust="spacing" textLength="193" x="405" y="904.5459">assignSkill(collaboratorIdNumber)</text><rect fill="none" height="43.252" style="stroke:#000000;stroke-width:1.5;" width="160" x="535" y="917.8086"/><path d="M535,917.8086 L597,917.8086 L597,926.8086 L587,936.8086 L535,936.8086 L535,917.8086 " fill="#EEEEEE" style="stroke:#000000;stroke-width:2.0;"/><text fill="#000000" font-family="sans-serif" font-size="13" font-weight="bold" lengthAdjust="spacing" textLength="17" x="548" y="933.8369">ref</text><text fill="#000000" font-family="sans-serif" font-size="12" lengthAdjust="spacing" textLength="79" x="575.5" y="953.7578">Assign Skill(s)</text><polygon fill="#181818" points="391,985.3516,381,989.3516,391,993.3516,387,989.3516" style="stroke:#181818;stroke-width:1.0;"/><line style="stroke:#181818;stroke-width:1.0;stroke-dasharray:2.0,2.0;" x1="385" x2="614" y1="989.3516" y2="989.3516"/><text fill="#000000" font-family="sans-serif" font-size="13" font-weight="bold" lengthAdjust="spacing" textLength="14" x="397" y="984.0889">19</text><text fill="#000000" font-family="sans-serif" font-size="13" lengthAdjust="spacing" textLength="67" x="415" y="984.0889">collaborator</text><polygon fill="#181818" points="49,1016.6426,39,1020.6426,49,1024.6426,45,1020.6426" style="stroke:#181818;stroke-width:1.0;"/><line style="stroke:#181818;stroke-width:1.0;stroke-dasharray:2.0,2.0;" x1="43" x2="374" y1="1020.6426" y2="1020.6426"/><text fill="#000000" font-family="sans-serif" font-size="13" font-weight="bold" lengthAdjust="spacing" textLength="14" x="55" y="1015.3799">20</text><text fill="#000000" font-family="sans-serif" font-size="13" lengthAdjust="spacing" textLength="158" x="73" y="1015.3799">displays operation success</text><!--SRC=[bLLDZo8X4BtpAogUT1AJEUp9R4mcPhDhCZi7NMzpOPfIYJJq0exntsy1zdVRut8mDXIlYlSUXJj9NN3BSyYDDjdHcXp1spCoLwqKF3ln0sxzLI5Op3pN1zKCS4Skp4Ng0-ovSiYObvv2TzldvsymXnVdv463qGZ6KXwBG7kLSk0DSCYCKlp3MEwDPOoVlT7d_0F3_uocOF9hyti2tC6Fl53cYiWegvUPBBZsC5aa-6r4tArZv6uz4hCosblAYJR6hlviNjlHiRWD5iP9odzTlAUDzKpSrvdhGA0Ydb2aZA_I-NSTVh_7YMK4wCV44yjFxh4-AmCQvHVCbtGsMD3sKs8lKHihdhhP0A5XUuLAlCG9mY2aSFAd9qBBBD9gMcgEEeo23kXN3M0tdVNYgpoHqzvo61RtO3xHfX2uCtwYXrQomKZKOZX9h7XUSjMa8z7SZHSuK7auF45Kr2_8vkRYG142NAG_0bUg3SuwO2NTFVcIzAJW4HzGQqYAsZGD7KRu7-Szy9qGsIZ1YTXbr_kLXROzItTSKbNOlJszahefA6l_mZJSsqdKK64qLTighhwAezvGnXHmEKfgSjISu49tFbx7Z5gBrDGynmnqwttHHrmBakRl6Lq2I4SChVA_lHJQQuJ-wig7zY54IwfftFZ6Svon4IFTCz6B453Y9RfPpq9zDieULf76xlBz20yMNM6qS7155zuPRNf4V55GGvxGIqkxjKMYQlVIvjnBenylxhRBWU2UFo9G_LvDcmrYBTxYstXNfc69RY_mJUjPcuZxtN94aJvxGhf2yIjnNw2Dz80xPncwmRRO-2mn_W40]--></g></svg>