<?xml version="1.0" encoding="us-ascii" standalone="no"?><svg xmlns="http://www.w3.org/2000/svg" xmlns:xlink="http://www.w3.org/1999/xlink" contentStyleType="text/css" height="603px" preserveAspectRatio="none" style="width:425px;height:603px;background:#FFFFFF;" version="1.1" viewBox="0 0 425 603" width="425px" zoomAndPan="magnify"><defs/><g><text fill="#000000" font-family="sans-serif" font-size="14" font-weight="bold" lengthAdjust="spacing" textLength="284" x="69.5" y="30.1074">System Sequence Diagram (SSD) - US003</text><rect fill="#FFFFFF" height="303.2012" style="stroke:#181818;stroke-width:1.0;" width="10" x="37" y="170.4844"/><rect fill="#FFFFFF" height="31.291" style="stroke:#181818;stroke-width:1.0;" width="10" x="382" y="193.7754"/><rect fill="#FFFFFF" height="83.1641" style="stroke:#181818;stroke-width:1.0;" width="10" x="382" y="256.3574"/><rect fill="#FFFFFF" height="31.291" style="stroke:#181818;stroke-width:1.0;" width="10" x="382" y="370.8125"/><rect fill="#FFFFFF" height="31.291" style="stroke:#181818;stroke-width:1.0;" width="10" x="382" y="433.3945"/><line style="stroke:#181818;stroke-width:0.5;stroke-dasharray:5.0,5.0;" x1="42" x2="42" y1="160.4844" y2="482.6855"/><line style="stroke:#181818;stroke-width:0.5;stroke-dasharray:5.0,5.0;" x1="387" x2="387" y1="160.4844" y2="482.6855"/><text fill="#000000" font-family="sans-serif" font-size="14" lengthAdjust="spacing" textLength="44" x="17" y="119.7285">Human</text><text fill="#000000" font-family="sans-serif" font-size="14" lengthAdjust="spacing" textLength="68" x="5" y="138.3496">Resources</text><text fill="#000000" font-family="sans-serif" font-size="14" lengthAdjust="spacing" textLength="56" x="11" y="156.9707">Manager</text><ellipse cx="42" cy="53.1211" fill="#E3E3E3" rx="8" ry="8" style="stroke:#181818;stroke-width:0.5;"/><path d="M42,61.1211 L42,88.1211 M29,69.1211 L55,69.1211 M42,88.1211 L29,103.1211 M42,88.1211 L55,103.1211 " fill="none" style="stroke:#181818;stroke-width:0.5;"/><text fill="#000000" font-family="sans-serif" font-size="14" lengthAdjust="spacing" textLength="44" x="17" y="496.793">Human</text><text fill="#000000" font-family="sans-serif" font-size="14" lengthAdjust="spacing" textLength="68" x="5" y="515.4141">Resources</text><text fill="#000000" font-family="sans-serif" font-size="14" lengthAdjust="spacing" textLength="56" x="11" y="534.0352">Manager</text><ellipse cx="42" cy="546.0488" fill="#E3E3E3" rx="8" ry="8" style="stroke:#181818;stroke-width:0.5;"/><path d="M42,554.0488 L42,581.0488 M29,562.0488 L55,562.0488 M42,581.0488 L29,596.0488 M42,581.0488 L55,596.0488 " fill="none" style="stroke:#181818;stroke-width:0.5;"/><rect fill="#E3E3E3" height="32.6211" rx="2.5" ry="2.5" style="stroke:#181818;stroke-width:0.5;" width="64" x="355" y="126.8633"/><text fill="#000000" font-family="sans-serif" font-size="14" lengthAdjust="spacing" textLength="50" x="362" y="148.9707">:System</text><rect fill="#E3E3E3" height="32.6211" rx="2.5" ry="2.5" style="stroke:#181818;stroke-width:0.5;" width="64" x="355" y="481.6855"/><text fill="#000000" font-family="sans-serif" font-size="14" lengthAdjust="spacing" textLength="50" x="362" y="503.793">:System</text><rect fill="#FFFFFF" height="303.2012" style="stroke:#181818;stroke-width:1.0;" width="10" x="37" y="170.4844"/><rect fill="#FFFFFF" height="31.291" style="stroke:#181818;stroke-width:1.0;" width="10" x="382" y="193.7754"/><rect fill="#FFFFFF" height="83.1641" style="stroke:#181818;stroke-width:1.0;" width="10" x="382" y="256.3574"/><rect fill="#FFFFFF" height="31.291" style="stroke:#181818;stroke-width:1.0;" width="10" x="382" y="370.8125"/><rect fill="#FFFFFF" height="31.291" style="stroke:#181818;stroke-width:1.0;" width="10" x="382" y="433.3945"/><polygon fill="#181818" points="370,189.7754,380,193.7754,370,197.7754,374,193.7754" style="stroke:#181818;stroke-width:1.0;"/><line style="stroke:#181818;stroke-width:1.0;" x1="47" x2="376" y1="193.7754" y2="193.7754"/><text fill="#000000" font-family="sans-serif" font-size="13" font-weight="bold" lengthAdjust="spacing" textLength="7" x="54" y="188.5127">1</text><text fill="#000000" font-family="sans-serif" font-size="13" lengthAdjust="spacing" textLength="199" x="65" y="188.5127">asks to register a new collaborator</text><polygon fill="#181818" points="58,221.0664,48,225.0664,58,229.0664,54,225.0664" style="stroke:#181818;stroke-width:1.0;"/><line style="stroke:#181818;stroke-width:1.0;stroke-dasharray:2.0,2.0;" x1="52" x2="386" y1="225.0664" y2="225.0664"/><text fill="#000000" font-family="sans-serif" font-size="13" font-weight="bold" lengthAdjust="spacing" textLength="7" x="64" y="219.8037">2</text><text fill="#000000" font-family="sans-serif" font-size="13" lengthAdjust="spacing" textLength="215" x="75" y="219.8037">shows job list and asks to select one</text><polygon fill="#181818" points="370,252.3574,380,256.3574,370,260.3574,374,256.3574" style="stroke:#181818;stroke-width:1.0;"/><line style="stroke:#181818;stroke-width:1.0;" x1="47" x2="376" y1="256.3574" y2="256.3574"/><text fill="#000000" font-family="sans-serif" font-size="13" font-weight="bold" lengthAdjust="spacing" textLength="7" x="54" y="251.0947">3</text><text fill="#000000" font-family="sans-serif" font-size="13" lengthAdjust="spacing" textLength="74" x="65" y="251.0947">selects a job</text><polygon fill="#181818" points="58,335.5215,48,339.5215,58,343.5215,54,339.5215" style="stroke:#181818;stroke-width:1.0;"/><line style="stroke:#181818;stroke-width:1.0;stroke-dasharray:2.0,2.0;" x1="52" x2="386" y1="339.5215" y2="339.5215"/><text fill="#000000" font-family="sans-serif" font-size="13" font-weight="bold" lengthAdjust="spacing" textLength="7" x="64" y="308.3223">4</text><text fill="#000000" font-family="sans-serif" font-size="13" lengthAdjust="spacing" textLength="203" x="75" y="282.3857">requests data (i.e. name, birthdate,</text><text fill="#000000" font-family="sans-serif" font-size="13" lengthAdjust="spacing" textLength="185" x="75" y="299.6768">admission date, address, phone</text><text fill="#000000" font-family="sans-serif" font-size="13" lengthAdjust="spacing" textLength="191" x="75" y="316.9678">number, email, taxpayer number,</text><text fill="#000000" font-family="sans-serif" font-size="13" lengthAdjust="spacing" textLength="300" x="75" y="334.2588">identification document type and respective number)</text><polygon fill="#181818" points="370,366.8125,380,370.8125,370,374.8125,374,370.8125" style="stroke:#181818;stroke-width:1.0;"/><line style="stroke:#181818;stroke-width:1.0;" x1="47" x2="376" y1="370.8125" y2="370.8125"/><text fill="#000000" font-family="sans-serif" font-size="13" font-weight="bold" lengthAdjust="spacing" textLength="7" x="54" y="365.5498">5</text><text fill="#000000" font-family="sans-serif" font-size="13" lengthAdjust="spacing" textLength="122" x="65" y="365.5498">types requested data</text><polygon fill="#181818" points="58,398.1035,48,402.1035,58,406.1035,54,402.1035" style="stroke:#181818;stroke-width:1.0;"/><line style="stroke:#181818;stroke-width:1.0;stroke-dasharray:2.0,2.0;" x1="52" x2="386" y1="402.1035" y2="402.1035"/><text fill="#000000" font-family="sans-serif" font-size="13" font-weight="bold" lengthAdjust="spacing" textLength="7" x="64" y="396.8408">6</text><text fill="#000000" font-family="sans-serif" font-size="13" lengthAdjust="spacing" textLength="236" x="75" y="396.8408">shows all data and requests confirmation</text><polygon fill="#181818" points="370,429.3945,380,433.3945,370,437.3945,374,433.3945" style="stroke:#181818;stroke-width:1.0;"/><line style="stroke:#181818;stroke-width:1.0;" x1="47" x2="376" y1="433.3945" y2="433.3945"/><text fill="#000000" font-family="sans-serif" font-size="13" font-weight="bold" lengthAdjust="spacing" textLength="7" x="54" y="428.1318">7</text><text fill="#000000" font-family="sans-serif" font-size="13" lengthAdjust="spacing" textLength="78" x="65" y="428.1318">confirms data</text><polygon fill="#181818" points="58,460.6855,48,464.6855,58,468.6855,54,464.6855" style="stroke:#181818;stroke-width:1.0;"/><line style="stroke:#181818;stroke-width:1.0;stroke-dasharray:2.0,2.0;" x1="52" x2="386" y1="464.6855" y2="464.6855"/><text fill="#000000" font-family="sans-serif" font-size="13" font-weight="bold" lengthAdjust="spacing" textLength="7" x="64" y="459.4229">8</text><text fill="#000000" font-family="sans-serif" font-size="13" lengthAdjust="spacing" textLength="158" x="75" y="459.4229">displays operation success</text><!--SRC=[dPAnRkCm38PtFmMHgGMSei1j6MxgqALBZTkyC1BZg94edIWtzTiVBJl1eMY7L1D1aJy__fAS72VC6214ZkQOOo0eUQH6hZS9pGa7wiha2JAPWZpu_mlaY3QU7GzmG2_KDCKLBUqcAHIWexyZiI5uSZZCvNTTztGFM_ZJFJx-QXeSI-Gnx2bhR4hCi7aU0tBFhoHnp8QavnTaHSWRG87drvT61nTdN48kiDaja-hb4bObzuw5QdK3UZI0xUyBrKwBJm8bwaQ3qrG61AOpcEWzxcD69QbzLwMBDAndLTggwAozKn_YMU0jxi6h8Y3Rwn0XhyP1PAhjbhvK_OouT8cIgUYDC7csNRJPOa6uSm_q08o1MjYxN8wQfRPdjC69kCXG4u3MPX9f8HsLjUVbOLgWWCwtKF0ZuQHUhVcUdIKkxk0CbgeIpHWq0sLAL1rGkKGpDQrDzxSuCCl8PHUoTPaVlGfwlpYnCAtUcCW7bqDblmLhxPEVy5WdoUCa41FbnJKPZVvo-ORW7m00]--></g></svg>