<?xml version="1.0" encoding="us-ascii" standalone="no"?><svg xmlns="http://www.w3.org/2000/svg" xmlns:xlink="http://www.w3.org/1999/xlink" contentStyleType="text/css" height="585px" preserveAspectRatio="none" style="width:361px;height:585px;background:#FFFFFF;" version="1.1" viewBox="0 0 361 585" width="361px" zoomAndPan="magnify"><defs/><g><text fill="#000000" font-family="sans-serif" font-size="14" font-weight="bold" lengthAdjust="spacing" textLength="284" x="37.5" y="30.1074">System Sequence Diagram (SSD) - US003</text><rect fill="#FFFFFF" height="285.9102" style="stroke:#181818;stroke-width:1.0;" width="10" x="37" y="170.4844"/><rect fill="#FFFFFF" height="31.291" style="stroke:#181818;stroke-width:1.0;" width="10" x="318" y="193.7754"/><rect fill="#FFFFFF" height="65.873" style="stroke:#181818;stroke-width:1.0;" width="10" x="318" y="256.3574"/><rect fill="#FFFFFF" height="31.291" style="stroke:#181818;stroke-width:1.0;" width="10" x="318" y="353.5215"/><rect fill="#FFFFFF" height="31.291" style="stroke:#181818;stroke-width:1.0;" width="10" x="318" y="416.1035"/><line style="stroke:#181818;stroke-width:0.5;stroke-dasharray:5.0,5.0;" x1="42" x2="42" y1="160.4844" y2="465.3945"/><line style="stroke:#181818;stroke-width:0.5;stroke-dasharray:5.0,5.0;" x1="323" x2="323" y1="160.4844" y2="465.3945"/><text fill="#000000" font-family="sans-serif" font-size="14" lengthAdjust="spacing" textLength="44" x="17" y="119.7285">Human</text><text fill="#000000" font-family="sans-serif" font-size="14" lengthAdjust="spacing" textLength="68" x="5" y="138.3496">Resources</text><text fill="#000000" font-family="sans-serif" font-size="14" lengthAdjust="spacing" textLength="56" x="11" y="156.9707">Manager</text><ellipse cx="42" cy="53.1211" fill="#E3E3E3" rx="8" ry="8" style="stroke:#181818;stroke-width:0.5;"/><path d="M42,61.1211 L42,88.1211 M29,69.1211 L55,69.1211 M42,88.1211 L29,103.1211 M42,88.1211 L55,103.1211 " fill="none" style="stroke:#181818;stroke-width:0.5;"/><text fill="#000000" font-family="sans-serif" font-size="14" lengthAdjust="spacing" textLength="44" x="17" y="479.502">Human</text><text fill="#000000" font-family="sans-serif" font-size="14" lengthAdjust="spacing" textLength="68" x="5" y="498.123">Resources</text><text fill="#000000" font-family="sans-serif" font-size="14" lengthAdjust="spacing" textLength="56" x="11" y="516.7441">Manager</text><ellipse cx="42" cy="528.7578" fill="#E3E3E3" rx="8" ry="8" style="stroke:#181818;stroke-width:0.5;"/><path d="M42,536.7578 L42,563.7578 M29,544.7578 L55,544.7578 M42,563.7578 L29,578.7578 M42,563.7578 L55,578.7578 " fill="none" style="stroke:#181818;stroke-width:0.5;"/><rect fill="#E3E3E3" height="32.6211" rx="2.5" ry="2.5" style="stroke:#181818;stroke-width:0.5;" width="64" x="291" y="126.8633"/><text fill="#000000" font-family="sans-serif" font-size="14" lengthAdjust="spacing" textLength="50" x="298" y="148.9707">:System</text><rect fill="#E3E3E3" height="32.6211" rx="2.5" ry="2.5" style="stroke:#181818;stroke-width:0.5;" width="64" x="291" y="464.3945"/><text fill="#000000" font-family="sans-serif" font-size="14" lengthAdjust="spacing" textLength="50" x="298" y="486.502">:System</text><rect fill="#FFFFFF" height="285.9102" style="stroke:#181818;stroke-width:1.0;" width="10" x="37" y="170.4844"/><rect fill="#FFFFFF" height="31.291" style="stroke:#181818;stroke-width:1.0;" width="10" x="318" y="193.7754"/><rect fill="#FFFFFF" height="65.873" style="stroke:#181818;stroke-width:1.0;" width="10" x="318" y="256.3574"/><rect fill="#FFFFFF" height="31.291" style="stroke:#181818;stroke-width:1.0;" width="10" x="318" y="353.5215"/><rect fill="#FFFFFF" height="31.291" style="stroke:#181818;stroke-width:1.0;" width="10" x="318" y="416.1035"/><polygon fill="#181818" points="306,189.7754,316,193.7754,306,197.7754,310,193.7754" style="stroke:#181818;stroke-width:1.0;"/><line style="stroke:#181818;stroke-width:1.0;" x1="47" x2="312" y1="193.7754" y2="193.7754"/><text fill="#000000" font-family="sans-serif" font-size="13" font-weight="bold" lengthAdjust="spacing" textLength="7" x="54" y="188.5127">1</text><text fill="#000000" font-family="sans-serif" font-size="13" lengthAdjust="spacing" textLength="199" x="65" y="188.5127">asks to register a new collaborator</text><polygon fill="#181818" points="58,221.0664,48,225.0664,58,229.0664,54,225.0664" style="stroke:#181818;stroke-width:1.0;"/><line style="stroke:#181818;stroke-width:1.0;stroke-dasharray:2.0,2.0;" x1="52" x2="322" y1="225.0664" y2="225.0664"/><text fill="#000000" font-family="sans-serif" font-size="13" font-weight="bold" lengthAdjust="spacing" textLength="7" x="64" y="219.8037">2</text><text fill="#000000" font-family="sans-serif" font-size="13" lengthAdjust="spacing" textLength="215" x="75" y="219.8037">shows job list and asks to select one</text><polygon fill="#181818" points="306,252.3574,316,256.3574,306,260.3574,310,256.3574" style="stroke:#181818;stroke-width:1.0;"/><line style="stroke:#181818;stroke-width:1.0;" x1="47" x2="312" y1="256.3574" y2="256.3574"/><text fill="#000000" font-family="sans-serif" font-size="13" font-weight="bold" lengthAdjust="spacing" textLength="7" x="54" y="251.0947">3</text><text fill="#000000" font-family="sans-serif" font-size="13" lengthAdjust="spacing" textLength="74" x="65" y="251.0947">selects a job</text><polygon fill="#181818" points="58,318.2305,48,322.2305,58,326.2305,54,322.2305" style="stroke:#181818;stroke-width:1.0;"/><line style="stroke:#181818;stroke-width:1.0;stroke-dasharray:2.0,2.0;" x1="52" x2="322" y1="322.2305" y2="322.2305"/><text fill="#000000" font-family="sans-serif" font-size="13" font-weight="bold" lengthAdjust="spacing" textLength="7" x="64" y="299.6768">4</text><text fill="#000000" font-family="sans-serif" font-size="13" lengthAdjust="spacing" textLength="203" x="75" y="282.3857">requests data (i.e. name, birthdate,</text><text fill="#000000" font-family="sans-serif" font-size="13" lengthAdjust="spacing" textLength="197" x="75" y="299.6768">admission date, address, contact,</text><text fill="#000000" font-family="sans-serif" font-size="13" lengthAdjust="spacing" textLength="188" x="75" y="316.9678">identification document, number)</text><polygon fill="#181818" points="306,349.5215,316,353.5215,306,357.5215,310,353.5215" style="stroke:#181818;stroke-width:1.0;"/><line style="stroke:#181818;stroke-width:1.0;" x1="47" x2="312" y1="353.5215" y2="353.5215"/><text fill="#000000" font-family="sans-serif" font-size="13" font-weight="bold" lengthAdjust="spacing" textLength="7" x="54" y="348.2588">5</text><text fill="#000000" font-family="sans-serif" font-size="13" lengthAdjust="spacing" textLength="122" x="65" y="348.2588">types requested data</text><polygon fill="#181818" points="58,380.8125,48,384.8125,58,388.8125,54,384.8125" style="stroke:#181818;stroke-width:1.0;"/><line style="stroke:#181818;stroke-width:1.0;stroke-dasharray:2.0,2.0;" x1="52" x2="322" y1="384.8125" y2="384.8125"/><text fill="#000000" font-family="sans-serif" font-size="13" font-weight="bold" lengthAdjust="spacing" textLength="7" x="64" y="379.5498">6</text><text fill="#000000" font-family="sans-serif" font-size="13" lengthAdjust="spacing" textLength="236" x="75" y="379.5498">shows all data and requests confirmation</text><polygon fill="#181818" points="306,412.1035,316,416.1035,306,420.1035,310,416.1035" style="stroke:#181818;stroke-width:1.0;"/><line style="stroke:#181818;stroke-width:1.0;" x1="47" x2="312" y1="416.1035" y2="416.1035"/><text fill="#000000" font-family="sans-serif" font-size="13" font-weight="bold" lengthAdjust="spacing" textLength="7" x="54" y="410.8408">7</text><text fill="#000000" font-family="sans-serif" font-size="13" lengthAdjust="spacing" textLength="78" x="65" y="410.8408">confirms data</text><polygon fill="#181818" points="58,443.3945,48,447.3945,58,451.3945,54,447.3945" style="stroke:#181818;stroke-width:1.0;"/><line style="stroke:#181818;stroke-width:1.0;stroke-dasharray:2.0,2.0;" x1="52" x2="322" y1="447.3945" y2="447.3945"/><text fill="#000000" font-family="sans-serif" font-size="13" font-weight="bold" lengthAdjust="spacing" textLength="7" x="64" y="442.1318">8</text><text fill="#000000" font-family="sans-serif" font-size="13" lengthAdjust="spacing" textLength="158" x="75" y="442.1318">displays operation success</text><!--SRC=[dP8nRnin38Nt-nM4fmImWm3PF7JAa2LB3jsyq19zPYrH5v5Nm_y-jCusYg8T74q2zVZuyTtfWMN4YXboaHBsjMG2gnDrUdiPCHnmeDvEYQ1IC9GX_IdGFSPoP1bWXqcfwupDfVr9ZJBqz3cH189Nnk4iV-ZxrqTOmS_- -Vcbwt2o8bFUKlLxi59XyJPbb8rya9Qf1jADlACuGbq0Ahnzl7S-s3ZmY6AmMC-JskDyRKxy6usQkWC_Ve7LZolLsiK71Ik-qS1Uge0WT8HGKi9jgUWahU_cTBM6oxauhTpqxBts7CfHuLVPGd97G8ct8Kh9WuCYrDeZ_TFrRyIvIvtCJU-4gUVOrPiZ6i83Fz4J26PQmfQhxRrAourWpApAHQ0L06EifBhq6CHyc4iuaXZlEA0rNGbJzieIve_sUCz2TXf9hsWK6zktGiQKviNE8TzMTUWTrzn0xy6wzEbtU2BhcF2aK4QgSqGw1VzfzJy4Nm00]--></g></svg>