<?xml version="1.0" encoding="us-ascii" standalone="no"?><svg xmlns="http://www.w3.org/2000/svg" xmlns:xlink="http://www.w3.org/1999/xlink" contentStyleType="text/css" height="568.5px" preserveAspectRatio="none" style="width:1149px;height:568px;background:#FFFFFF;" version="1.1" viewBox="0 0 1149 568" width="1149.5px" zoomAndPan="magnify"><defs/><g><!--cluster UI--><g id="cluster_UI"><rect fill="none" height="50.5" rx="1.25" ry="1.25" style="stroke:#000000;stroke-width:0.75;" width="85" x="3.5" y="44.5"/><text fill="#000000" font-family="sans-serif" font-size="7" font-weight="bold" lengthAdjust="spacing" textLength="7" x="42.5" y="53.0537">UI</text></g><!--cluster Core--><g id="cluster_Core"><rect fill="none" height="562" rx="1.25" ry="1.25" style="stroke:#000000;stroke-width:0.75;" width="1046" x="100.5" y="3.5"/><text fill="#000000" font-family="sans-serif" font-size="7" font-weight="bold" lengthAdjust="spacing" textLength="17" x="615" y="12.0537">Core</text></g><!--cluster Controller--><g id="cluster_Controller"><rect fill="none" height="87.5" rx="1.25" ry="1.25" style="stroke:#000000;stroke-width:0.75;" width="110" x="478" y="26"/><text fill="#000000" font-family="sans-serif" font-size="7" font-weight="bold" lengthAdjust="spacing" textLength="35.5" x="515.25" y="34.5537">Controller</text></g><!--cluster Domain--><g id="cluster_Domain"><rect fill="none" height="414.5" rx="1.25" ry="1.25" style="stroke:#000000;stroke-width:0.75;" width="509.5" x="112.5" y="139"/><text fill="#000000" font-family="sans-serif" font-size="7" font-weight="bold" lengthAdjust="spacing" textLength="26" x="354.25" y="147.5537">Domain</text></g><!--cluster Repository--><g id="cluster_Repository"><rect fill="none" height="87.5" rx="1.25" ry="1.25" style="stroke:#000000;stroke-width:0.75;" width="485.5" x="124.5" y="161.5"/><text fill="#000000" font-family="sans-serif" font-size="7" font-weight="bold" lengthAdjust="spacing" textLength="38" x="348.25" y="170.0537">Repository</text></g><!--cluster Model--><g id="cluster_Model"><rect fill="none" height="252.75" rx="1.25" ry="1.25" style="stroke:#000000;stroke-width:0.75;" width="419" x="191" y="288.75"/><text fill="#000000" font-family="sans-serif" font-size="7" font-weight="bold" lengthAdjust="spacing" textLength="22" x="389.5" y="297.3037">Model</text></g><!--cluster Mapper--><g id="cluster_Mapper"><rect fill="none" height="255" rx="1.25" ry="1.25" style="stroke:#000000;stroke-width:0.75;" width="487.5" x="634" y="166"/><text fill="#000000" font-family="sans-serif" font-size="7" font-weight="bold" lengthAdjust="spacing" textLength="27" x="864.25" y="174.5537">Mapper</text></g><!--cluster DTO--><g id="cluster_DTO"><rect fill="none" height="143.5" rx="1.25" ry="1.25" style="stroke:#000000;stroke-width:0.75;" width="463.5" x="646" y="265.5"/><text fill="#000000" font-family="sans-serif" font-size="7" font-weight="bold" lengthAdjust="spacing" textLength="14.5" x="870.5" y="274.0537">DTO</text></g><!--class AddEntryToDoUI--><g id="elem_AddEntryToDoUI"><rect codeLine="12" fill="#F1F1F1" height="24" id="AddEntryToDoUI" rx="1.25" ry="1.25" style="stroke:#181818;stroke-width:0.25;" width="68.5" x="11.75" y="63"/><ellipse cx="19.25" cy="71" fill="#ADD1B2" rx="5.5" ry="5.5" style="stroke:#181818;stroke-width:0.5;"/><path d="M20.6328,68.9375 Q20.7109,68.8281 20.8047,68.7734 Q20.8984,68.7188 21.0078,68.7188 Q21.1953,68.7188 21.3125,68.8516 Q21.4297,68.9766 21.4297,69.2813 L21.4297,70.0078 Q21.4297,70.3125 21.3125,70.4453 Q21.1953,70.5781 21.0078,70.5781 Q20.8359,70.5781 20.7344,70.4766 Q20.6328,70.3828 20.5781,70.125 Q20.5547,69.9453 20.4609,69.8516 Q20.2969,69.6641 19.9922,69.5547 Q19.6875,69.4453 19.375,69.4453 Q18.9922,69.4453 18.6719,69.6094 Q18.3594,69.7734 18.1094,70.1484 Q17.8672,70.5234 17.8672,71.0391 L17.8672,71.5859 Q17.8672,72.2031 18.3125,72.6172 Q18.7578,73.0234 19.5547,73.0234 Q20.0234,73.0234 20.3516,72.8984 Q20.5469,72.8203 20.7578,72.6016 Q20.8906,72.4688 20.9609,72.4297 Q21.0391,72.3906 21.1406,72.3906 Q21.3047,72.3906 21.4297,72.5234 Q21.5625,72.6484 21.5625,72.8203 Q21.5625,72.9922 21.3906,73.1953 Q21.1406,73.4844 20.7422,73.6484 Q20.2031,73.875 19.5547,73.875 Q18.7969,73.875 18.1953,73.5625 Q17.7031,73.3125 17.3594,72.7813 Q17.0156,72.2422 17.0156,71.6016 L17.0156,71.0234 Q17.0156,70.3594 17.3203,69.7891 Q17.6328,69.2109 18.1797,68.9063 Q18.7266,68.5938 19.3438,68.5938 Q19.7109,68.5938 20.0313,68.6797 Q20.3594,68.7578 20.6328,68.9375 Z " fill="#000000"/><text fill="#000000" font-family="sans-serif" font-size="7" lengthAdjust="spacing" textLength="52.5" x="26.25" y="73.8984">AddEntryToDoUI</text><line style="stroke:#181818;stroke-width:0.25;" x1="12.25" x2="79.75" y1="79" y2="79"/><line style="stroke:#181818;stroke-width:0.25;" x1="12.25" x2="79.75" y1="83" y2="83"/></g><!--class AddEntryToDoController--><g id="elem_AddEntryToDoController"><rect codeLine="20" fill="#F1F1F1" height="61.2422" id="AddEntryToDoController" rx="1.25" ry="1.25" style="stroke:#181818;stroke-width:0.25;" width="94" x="486" y="44.5"/><ellipse cx="493.725" cy="52.5" fill="#ADD1B2" rx="5.5" ry="5.5" style="stroke:#181818;stroke-width:0.5;"/><path d="M495.1078,50.4375 Q495.1859,50.3281 495.2797,50.2734 Q495.3734,50.2188 495.4828,50.2188 Q495.6703,50.2188 495.7875,50.3516 Q495.9047,50.4766 495.9047,50.7813 L495.9047,51.5078 Q495.9047,51.8125 495.7875,51.9453 Q495.6703,52.0781 495.4828,52.0781 Q495.3109,52.0781 495.2094,51.9766 Q495.1078,51.8828 495.0531,51.625 Q495.0297,51.4453 494.9359,51.3516 Q494.7719,51.1641 494.4672,51.0547 Q494.1625,50.9453 493.85,50.9453 Q493.4672,50.9453 493.1469,51.1094 Q492.8344,51.2734 492.5844,51.6484 Q492.3422,52.0234 492.3422,52.5391 L492.3422,53.0859 Q492.3422,53.7031 492.7875,54.1172 Q493.2328,54.5234 494.0297,54.5234 Q494.4984,54.5234 494.8266,54.3984 Q495.0219,54.3203 495.2328,54.1016 Q495.3656,53.9688 495.4359,53.9297 Q495.5141,53.8906 495.6156,53.8906 Q495.7797,53.8906 495.9047,54.0234 Q496.0375,54.1484 496.0375,54.3203 Q496.0375,54.4922 495.8656,54.6953 Q495.6156,54.9844 495.2172,55.1484 Q494.6781,55.375 494.0297,55.375 Q493.2719,55.375 492.6703,55.0625 Q492.1781,54.8125 491.8344,54.2813 Q491.4906,53.7422 491.4906,53.1016 L491.4906,52.5234 Q491.4906,51.8594 491.7953,51.2891 Q492.1078,50.7109 492.6547,50.4063 Q493.2016,50.0938 493.8188,50.0938 Q494.1859,50.0938 494.5063,50.1797 Q494.8344,50.2578 495.1078,50.4375 Z " fill="#000000"/><text fill="#000000" font-family="sans-serif" font-size="7" lengthAdjust="spacing" textLength="77.5" x="500.775" y="55.3984">AddEntryToDoController</text><line style="stroke:#181818;stroke-width:0.25;" x1="486.5" x2="579.5" y1="60.5" y2="60.5"/><line style="stroke:#181818;stroke-width:0.25;" x1="486.5" x2="579.5" y1="64.5" y2="64.5"/><text fill="#000000" font-family="sans-serif" font-size="7" lengthAdjust="spacing" textLength="86.5" x="489" y="74.0537">+AddEntryToDoController()</text><text fill="#000000" font-family="sans-serif" font-size="7" lengthAdjust="spacing" textLength="62.5" x="489" y="83.3643">+getGreenSpaces()</text><text fill="#000000" font-family="sans-serif" font-size="7" lengthAdjust="spacing" textLength="88" x="489" y="92.6748">+getSelectedGreenSpace(i)</text><text fill="#000000" font-family="sans-serif" font-size="7" lengthAdjust="spacing" textLength="61.5" x="489" y="101.9854">+addEntry(taskDto)</text></g><!--class Repositories--><g id="elem_Repositories"><rect codeLine="32" fill="#F1F1F1" height="61.2422" id="Repositories" rx="1.25" ry="1.25" style="stroke:#181818;stroke-width:0.25;" width="99" x="132.5" y="180"/><ellipse cx="160.125" cy="188" fill="#ADD1B2" rx="5.5" ry="5.5" style="stroke:#181818;stroke-width:0.5;"/><path d="M161.5078,185.9375 Q161.5859,185.8281 161.6797,185.7734 Q161.7734,185.7188 161.8828,185.7188 Q162.0703,185.7188 162.1875,185.8516 Q162.3047,185.9766 162.3047,186.2813 L162.3047,187.0078 Q162.3047,187.3125 162.1875,187.4453 Q162.0703,187.5781 161.8828,187.5781 Q161.7109,187.5781 161.6094,187.4766 Q161.5078,187.3828 161.4531,187.125 Q161.4297,186.9453 161.3359,186.8516 Q161.1719,186.6641 160.8672,186.5547 Q160.5625,186.4453 160.25,186.4453 Q159.8672,186.4453 159.5469,186.6094 Q159.2344,186.7734 158.9844,187.1484 Q158.7422,187.5234 158.7422,188.0391 L158.7422,188.5859 Q158.7422,189.2031 159.1875,189.6172 Q159.6328,190.0234 160.4297,190.0234 Q160.8984,190.0234 161.2266,189.8984 Q161.4219,189.8203 161.6328,189.6016 Q161.7656,189.4688 161.8359,189.4297 Q161.9141,189.3906 162.0156,189.3906 Q162.1797,189.3906 162.3047,189.5234 Q162.4375,189.6484 162.4375,189.8203 Q162.4375,189.9922 162.2656,190.1953 Q162.0156,190.4844 161.6172,190.6484 Q161.0781,190.875 160.4297,190.875 Q159.6719,190.875 159.0703,190.5625 Q158.5781,190.3125 158.2344,189.7813 Q157.8906,189.2422 157.8906,188.6016 L157.8906,188.0234 Q157.8906,187.3594 158.1953,186.7891 Q158.5078,186.2109 159.0547,185.9063 Q159.6016,185.5938 160.2188,185.5938 Q160.5859,185.5938 160.9063,185.6797 Q161.2344,185.7578 161.5078,185.9375 Z " fill="#000000"/><text fill="#000000" font-family="sans-serif" font-size="7" lengthAdjust="spacing" textLength="39.5" x="170.375" y="190.8984">Repositories</text><line style="stroke:#181818;stroke-width:0.25;" x1="133" x2="231" y1="196" y2="196"/><line style="stroke:#181818;stroke-width:0.25;" x1="133" x2="231" y1="200" y2="200"/><text fill="#000000" font-family="sans-serif" font-size="7" lengthAdjust="spacing" textLength="47" x="135.5" y="209.5537">-Repositories()</text><text fill="#000000" font-family="sans-serif" font-size="7" lengthAdjust="spacing" textLength="91" x="135.5" y="218.8643">+getInstance() : Repositories</text><text fill="#000000" font-family="sans-serif" font-size="7" lengthAdjust="spacing" textLength="93" x="135.5" y="228.1748">+getGreenSpaceRepository()</text><text fill="#000000" font-family="sans-serif" font-size="7" lengthAdjust="spacing" textLength="47.5" x="135.5" y="237.4854">+getToDoList()</text></g><!--class GreenSpaceRepository--><g id="elem_GreenSpaceRepository"><rect codeLine="40" fill="#F1F1F1" height="61.2422" id="GreenSpaceRepository" rx="1.25" ry="1.25" style="stroke:#181818;stroke-width:0.25;" width="158" x="288.5" y="180"/><ellipse cx="328.375" cy="188" fill="#ADD1B2" rx="5.5" ry="5.5" style="stroke:#181818;stroke-width:0.5;"/><path d="M329.7578,185.9375 Q329.8359,185.8281 329.9297,185.7734 Q330.0234,185.7188 330.1328,185.7188 Q330.3203,185.7188 330.4375,185.8516 Q330.5547,185.9766 330.5547,186.2813 L330.5547,187.0078 Q330.5547,187.3125 330.4375,187.4453 Q330.3203,187.5781 330.1328,187.5781 Q329.9609,187.5781 329.8594,187.4766 Q329.7578,187.3828 329.7031,187.125 Q329.6797,186.9453 329.5859,186.8516 Q329.4219,186.6641 329.1172,186.5547 Q328.8125,186.4453 328.5,186.4453 Q328.1172,186.4453 327.7969,186.6094 Q327.4844,186.7734 327.2344,187.1484 Q326.9922,187.5234 326.9922,188.0391 L326.9922,188.5859 Q326.9922,189.2031 327.4375,189.6172 Q327.8828,190.0234 328.6797,190.0234 Q329.1484,190.0234 329.4766,189.8984 Q329.6719,189.8203 329.8828,189.6016 Q330.0156,189.4688 330.0859,189.4297 Q330.1641,189.3906 330.2656,189.3906 Q330.4297,189.3906 330.5547,189.5234 Q330.6875,189.6484 330.6875,189.8203 Q330.6875,189.9922 330.5156,190.1953 Q330.2656,190.4844 329.8672,190.6484 Q329.3281,190.875 328.6797,190.875 Q327.9219,190.875 327.3203,190.5625 Q326.8281,190.3125 326.4844,189.7813 Q326.1406,189.2422 326.1406,188.6016 L326.1406,188.0234 Q326.1406,187.3594 326.4453,186.7891 Q326.7578,186.2109 327.3047,185.9063 Q327.8516,185.5938 328.4688,185.5938 Q328.8359,185.5938 329.1563,185.6797 Q329.4844,185.7578 329.7578,185.9375 Z " fill="#000000"/><text fill="#000000" font-family="sans-serif" font-size="7" lengthAdjust="spacing" textLength="74" x="338.625" y="190.8984">GreenSpaceRepository</text><line style="stroke:#181818;stroke-width:0.25;" x1="289" x2="446" y1="196" y2="196"/><text fill="#000000" font-family="sans-serif" font-size="7" lengthAdjust="spacing" textLength="116.5" x="291.5" y="205.5537">-List&lt;GreenSpace&gt; greenSpacesList</text><text fill="#000000" font-family="sans-serif" font-size="7" lengthAdjust="spacing" textLength="152" x="291.5" y="214.8643">-List&lt;GreenSpace&gt; associatedGreenSpacesList</text><line style="stroke:#181818;stroke-width:0.25;" x1="289" x2="446" y1="218.6211" y2="218.6211"/><text fill="#000000" font-family="sans-serif" font-size="7" lengthAdjust="spacing" textLength="79" x="291.5" y="228.1748">+getGreenSpaces(email)</text><text fill="#000000" font-family="sans-serif" font-size="7" lengthAdjust="spacing" textLength="88" x="291.5" y="237.4854">+getSelectedGreenSpace(i)</text></g><!--class ToDoList--><g id="elem_ToDoList"><rect codeLine="48" fill="#F1F1F1" height="42.6211" id="ToDoList" rx="1.25" ry="1.25" style="stroke:#181818;stroke-width:0.25;" width="138" x="464" y="189.25"/><ellipse cx="516.625" cy="197.25" fill="#ADD1B2" rx="5.5" ry="5.5" style="stroke:#181818;stroke-width:0.5;"/><path d="M518.0078,195.1875 Q518.0859,195.0781 518.1797,195.0234 Q518.2734,194.9688 518.3828,194.9688 Q518.5703,194.9688 518.6875,195.1016 Q518.8047,195.2266 518.8047,195.5313 L518.8047,196.2578 Q518.8047,196.5625 518.6875,196.6953 Q518.5703,196.8281 518.3828,196.8281 Q518.2109,196.8281 518.1094,196.7266 Q518.0078,196.6328 517.9531,196.375 Q517.9297,196.1953 517.8359,196.1016 Q517.6719,195.9141 517.3672,195.8047 Q517.0625,195.6953 516.75,195.6953 Q516.3672,195.6953 516.0469,195.8594 Q515.7344,196.0234 515.4844,196.3984 Q515.2422,196.7734 515.2422,197.2891 L515.2422,197.8359 Q515.2422,198.4531 515.6875,198.8672 Q516.1328,199.2734 516.9297,199.2734 Q517.3984,199.2734 517.7266,199.1484 Q517.9219,199.0703 518.1328,198.8516 Q518.2656,198.7188 518.3359,198.6797 Q518.4141,198.6406 518.5156,198.6406 Q518.6797,198.6406 518.8047,198.7734 Q518.9375,198.8984 518.9375,199.0703 Q518.9375,199.2422 518.7656,199.4453 Q518.5156,199.7344 518.1172,199.8984 Q517.5781,200.125 516.9297,200.125 Q516.1719,200.125 515.5703,199.8125 Q515.0781,199.5625 514.7344,199.0313 Q514.3906,198.4922 514.3906,197.8516 L514.3906,197.2734 Q514.3906,196.6094 514.6953,196.0391 Q515.0078,195.4609 515.5547,195.1563 Q516.1016,194.8438 516.7188,194.8438 Q517.0859,194.8438 517.4063,194.9297 Q517.7344,195.0078 518.0078,195.1875 Z " fill="#000000"/><text fill="#000000" font-family="sans-serif" font-size="7" lengthAdjust="spacing" textLength="28.5" x="526.875" y="200.1484">ToDoList</text><line style="stroke:#181818;stroke-width:0.25;" x1="464.5" x2="601.5" y1="205.25" y2="205.25"/><line style="stroke:#181818;stroke-width:0.25;" x1="464.5" x2="601.5" y1="209.25" y2="209.25"/><text fill="#000000" font-family="sans-serif" font-size="7" lengthAdjust="spacing" textLength="59" x="467" y="218.8037">-add(createdTask)</text><text fill="#000000" font-family="sans-serif" font-size="7" lengthAdjust="spacing" textLength="132" x="467" y="228.1143">+addEntry(taskDto, selectedGreenSpace)</text></g><!--class UserSession--><g id="elem_UserSession"><rect codeLine="55" fill="#F1F1F1" height="33.3105" id="UserSession" rx="1.25" ry="1.25" style="stroke:#181818;stroke-width:0.25;" width="56.5" x="520.75" y="476.75"/><ellipse cx="528.7" cy="484.75" fill="#ADD1B2" rx="5.5" ry="5.5" style="stroke:#181818;stroke-width:0.5;"/><path d="M530.0828,482.6875 Q530.1609,482.5781 530.2547,482.5234 Q530.3484,482.4688 530.4578,482.4688 Q530.6453,482.4688 530.7625,482.6016 Q530.8797,482.7266 530.8797,483.0313 L530.8797,483.7578 Q530.8797,484.0625 530.7625,484.1953 Q530.6453,484.3281 530.4578,484.3281 Q530.2859,484.3281 530.1844,484.2266 Q530.0828,484.1328 530.0281,483.875 Q530.0047,483.6953 529.9109,483.6016 Q529.7469,483.4141 529.4422,483.3047 Q529.1375,483.1953 528.825,483.1953 Q528.4422,483.1953 528.1219,483.3594 Q527.8094,483.5234 527.5594,483.8984 Q527.3172,484.2734 527.3172,484.7891 L527.3172,485.3359 Q527.3172,485.9531 527.7625,486.3672 Q528.2078,486.7734 529.0047,486.7734 Q529.4734,486.7734 529.8016,486.6484 Q529.9969,486.5703 530.2078,486.3516 Q530.3406,486.2188 530.4109,486.1797 Q530.4891,486.1406 530.5906,486.1406 Q530.7547,486.1406 530.8797,486.2734 Q531.0125,486.3984 531.0125,486.5703 Q531.0125,486.7422 530.8406,486.9453 Q530.5906,487.2344 530.1922,487.3984 Q529.6531,487.625 529.0047,487.625 Q528.2469,487.625 527.6453,487.3125 Q527.1531,487.0625 526.8094,486.5313 Q526.4656,485.9922 526.4656,485.3516 L526.4656,484.7734 Q526.4656,484.1094 526.7703,483.5391 Q527.0828,482.9609 527.6297,482.6563 Q528.1766,482.3438 528.7938,482.3438 Q529.1609,482.3438 529.4813,482.4297 Q529.8094,482.5078 530.0828,482.6875 Z " fill="#000000"/><text fill="#000000" font-family="sans-serif" font-size="7" lengthAdjust="spacing" textLength="39.5" x="535.8" y="487.6484">UserSession</text><line style="stroke:#181818;stroke-width:0.25;" x1="521.25" x2="576.75" y1="492.75" y2="492.75"/><line style="stroke:#181818;stroke-width:0.25;" x1="521.25" x2="576.75" y1="496.75" y2="496.75"/><text fill="#000000" font-family="sans-serif" font-size="7" lengthAdjust="spacing" textLength="50.5" x="523.75" y="506.3037">+getUserEmail()</text></g><!--class GreenSpace--><g id="elem_GreenSpace"><rect codeLine="60" fill="#F1F1F1" height="79.8633" id="GreenSpace" rx="1.25" ry="1.25" style="stroke:#181818;stroke-width:0.25;" width="74.5" x="377.25" y="453.5"/><ellipse cx="393.075" cy="461.5" fill="#ADD1B2" rx="5.5" ry="5.5" style="stroke:#181818;stroke-width:0.5;"/><path d="M394.4578,459.4375 Q394.5359,459.3281 394.6297,459.2734 Q394.7234,459.2188 394.8328,459.2188 Q395.0203,459.2188 395.1375,459.3516 Q395.2547,459.4766 395.2547,459.7813 L395.2547,460.5078 Q395.2547,460.8125 395.1375,460.9453 Q395.0203,461.0781 394.8328,461.0781 Q394.6609,461.0781 394.5594,460.9766 Q394.4578,460.8828 394.4031,460.625 Q394.3797,460.4453 394.2859,460.3516 Q394.1219,460.1641 393.8172,460.0547 Q393.5125,459.9453 393.2,459.9453 Q392.8172,459.9453 392.4969,460.1094 Q392.1844,460.2734 391.9344,460.6484 Q391.6922,461.0234 391.6922,461.5391 L391.6922,462.0859 Q391.6922,462.7031 392.1375,463.1172 Q392.5828,463.5234 393.3797,463.5234 Q393.8484,463.5234 394.1766,463.3984 Q394.3719,463.3203 394.5828,463.1016 Q394.7156,462.9688 394.7859,462.9297 Q394.8641,462.8906 394.9656,462.8906 Q395.1297,462.8906 395.2547,463.0234 Q395.3875,463.1484 395.3875,463.3203 Q395.3875,463.4922 395.2156,463.6953 Q394.9656,463.9844 394.5672,464.1484 Q394.0281,464.375 393.3797,464.375 Q392.6219,464.375 392.0203,464.0625 Q391.5281,463.8125 391.1844,463.2813 Q390.8406,462.7422 390.8406,462.1016 L390.8406,461.5234 Q390.8406,460.8594 391.1453,460.2891 Q391.4578,459.7109 392.0047,459.4063 Q392.5516,459.0938 393.1688,459.0938 Q393.5359,459.0938 393.8563,459.1797 Q394.1844,459.2578 394.4578,459.4375 Z " fill="#000000"/><text fill="#000000" font-family="sans-serif" font-size="7" lengthAdjust="spacing" textLength="40" x="401.925" y="464.3984">GreenSpace</text><line style="stroke:#181818;stroke-width:0.25;" x1="377.75" x2="451.25" y1="469.5" y2="469.5"/><text fill="#000000" font-family="sans-serif" font-size="7" lengthAdjust="spacing" textLength="40.5" x="380.25" y="479.0537">-String name</text><text fill="#000000" font-family="sans-serif" font-size="7" lengthAdjust="spacing" textLength="36.5" x="380.25" y="488.3643">-String type</text><text fill="#000000" font-family="sans-serif" font-size="7" lengthAdjust="spacing" textLength="26.5" x="380.25" y="497.6748">-int area</text><text fill="#000000" font-family="sans-serif" font-size="7" lengthAdjust="spacing" textLength="48.5" x="380.25" y="506.9854">-String address</text><text fill="#000000" font-family="sans-serif" font-size="7" lengthAdjust="spacing" textLength="53" x="380.25" y="516.2959">-String gsmEmail</text><line style="stroke:#181818;stroke-width:0.25;" x1="377.75" x2="451.25" y1="520.0527" y2="520.0527"/><text fill="#000000" font-family="sans-serif" font-size="7" lengthAdjust="spacing" textLength="68.5" x="380.25" y="529.6064">+hasUserEmail(email)</text></g><!--class Task--><g id="elem_Task"><rect codeLine="70" fill="#F1F1F1" height="70.5527" id="Task" rx="1.25" ry="1.25" style="stroke:#181818;stroke-width:0.25;" width="270" x="199" y="307.25"/><ellipse cx="324.125" cy="315.25" fill="#ADD1B2" rx="5.5" ry="5.5" style="stroke:#181818;stroke-width:0.5;"/><path d="M325.5078,313.1875 Q325.5859,313.0781 325.6797,313.0234 Q325.7734,312.9688 325.8828,312.9688 Q326.0703,312.9688 326.1875,313.1016 Q326.3047,313.2266 326.3047,313.5313 L326.3047,314.2578 Q326.3047,314.5625 326.1875,314.6953 Q326.0703,314.8281 325.8828,314.8281 Q325.7109,314.8281 325.6094,314.7266 Q325.5078,314.6328 325.4531,314.375 Q325.4297,314.1953 325.3359,314.1016 Q325.1719,313.9141 324.8672,313.8047 Q324.5625,313.6953 324.25,313.6953 Q323.8672,313.6953 323.5469,313.8594 Q323.2344,314.0234 322.9844,314.3984 Q322.7422,314.7734 322.7422,315.2891 L322.7422,315.8359 Q322.7422,316.4531 323.1875,316.8672 Q323.6328,317.2734 324.4297,317.2734 Q324.8984,317.2734 325.2266,317.1484 Q325.4219,317.0703 325.6328,316.8516 Q325.7656,316.7188 325.8359,316.6797 Q325.9141,316.6406 326.0156,316.6406 Q326.1797,316.6406 326.3047,316.7734 Q326.4375,316.8984 326.4375,317.0703 Q326.4375,317.2422 326.2656,317.4453 Q326.0156,317.7344 325.6172,317.8984 Q325.0781,318.125 324.4297,318.125 Q323.6719,318.125 323.0703,317.8125 Q322.5781,317.5625 322.2344,317.0313 Q321.8906,316.4922 321.8906,315.8516 L321.8906,315.2734 Q321.8906,314.6094 322.1953,314.0391 Q322.5078,313.4609 323.0547,313.1563 Q323.6016,312.8438 324.2188,312.8438 Q324.5859,312.8438 324.9063,312.9297 Q325.2344,313.0078 325.5078,313.1875 Z " fill="#000000"/><text fill="#000000" font-family="sans-serif" font-size="7" lengthAdjust="spacing" textLength="15.5" x="334.375" y="318.1484">Task</text><line style="stroke:#181818;stroke-width:0.25;" x1="199.5" x2="468.5" y1="323.25" y2="323.25"/><text fill="#000000" font-family="sans-serif" font-size="7" lengthAdjust="spacing" textLength="34" x="202" y="332.8037">-String title</text><text fill="#000000" font-family="sans-serif" font-size="7" lengthAdjust="spacing" textLength="57.5" x="202" y="342.1143">-String description</text><text fill="#000000" font-family="sans-serif" font-size="7" lengthAdjust="spacing" textLength="67.5" x="202" y="351.4248">-int expectedDuration</text><text fill="#000000" font-family="sans-serif" font-size="7" lengthAdjust="spacing" textLength="72" x="202" y="360.7354">-Calendar startingDate</text><line style="stroke:#181818;stroke-width:0.25;" x1="199.5" x2="468.5" y1="364.4922" y2="364.4922"/><text fill="#000000" font-family="sans-serif" font-size="7" lengthAdjust="spacing" textLength="264" x="202" y="374.0459">+Task(title, description, degreeOfUrgency, expectedDuration, selectedGreenSpace)</text></g><!--class DegreeOfUrgency--><g id="elem_DegreeOfUrgency"><rect codeLine="79" fill="#F1F1F1" height="51.9316" id="DegreeOfUrgency" rx="1.25" ry="1.25" style="stroke:#181818;stroke-width:0.25;" width="73" x="217.5" y="467.5"/><ellipse cx="225" cy="475.5" fill="#EB937F" rx="5.5" ry="5.5" style="stroke:#181818;stroke-width:0.5;"/><path d="M224.4297,475.8984 L224.4297,477.1484 L226.5938,477.1484 L226.5938,476.6875 Q226.5938,476.3828 226.7109,476.25 Q226.8359,476.1172 227.0234,476.1172 Q227.2109,476.1172 227.3281,476.25 Q227.4453,476.3828 227.4453,476.6875 L227.4453,478 L223.4453,478 Q223.1328,478 223,477.8828 Q222.875,477.7656 222.875,477.5703 Q222.875,477.3828 223.0078,477.2656 Q223.1406,477.1484 223.4453,477.1484 L223.5781,477.1484 L223.5781,473.8203 L223.4453,473.8203 Q223.1328,473.8203 223,473.7031 Q222.875,473.5859 222.875,473.3906 Q222.875,473.2031 223,473.0859 Q223.1328,472.9688 223.4453,472.9688 L227.2578,472.9688 L227.2578,474.2656 Q227.2578,474.5703 227.1406,474.7031 Q227.0313,474.8281 226.8359,474.8281 Q226.6484,474.8281 226.5313,474.7031 Q226.4141,474.5703 226.4141,474.2656 L226.4141,473.8203 L224.4297,473.8203 L224.4297,475.0469 L225.1719,475.0469 Q225.1719,474.7188 225.2344,474.625 Q225.3672,474.4219 225.6016,474.4219 Q225.7891,474.4219 225.9063,474.5547 Q226.0234,474.6797 226.0234,474.9844 L226.0234,475.9688 Q226.0234,476.2422 225.9609,476.3359 Q225.8281,476.5313 225.6016,476.5313 Q225.3672,476.5313 225.2344,476.3281 Q225.1719,476.2344 225.1719,475.8984 L224.4297,475.8984 Z " fill="#000000"/><text fill="#000000" font-family="sans-serif" font-size="7" lengthAdjust="spacing" textLength="57" x="232" y="478.3984">DegreeOfUrgency</text><line style="stroke:#181818;stroke-width:0.25;" x1="218" x2="290" y1="483.5" y2="483.5"/><text fill="#000000" font-family="sans-serif" font-size="7" lengthAdjust="spacing" textLength="12.5" x="220.5" y="493.0537">Low</text><text fill="#000000" font-family="sans-serif" font-size="7" lengthAdjust="spacing" textLength="24.5" x="220.5" y="502.3643">Medium</text><text fill="#000000" font-family="sans-serif" font-size="7" lengthAdjust="spacing" textLength="14" x="220.5" y="511.6748">High</text><line style="stroke:#181818;stroke-width:0.25;" x1="218" x2="290" y1="515.4316" y2="515.4316"/></g><!--class TaskStatus--><g id="elem_TaskStatus"><rect codeLine="86" fill="#F1F1F1" height="79.8633" id="TaskStatus" rx="1.25" ry="1.25" style="stroke:#181818;stroke-width:0.25;" width="51.5" x="308.25" y="453.5"/><ellipse cx="315.75" cy="461.5" fill="#EB937F" rx="5.5" ry="5.5" style="stroke:#181818;stroke-width:0.5;"/><path d="M315.1797,461.8984 L315.1797,463.1484 L317.3438,463.1484 L317.3438,462.6875 Q317.3438,462.3828 317.4609,462.25 Q317.5859,462.1172 317.7734,462.1172 Q317.9609,462.1172 318.0781,462.25 Q318.1953,462.3828 318.1953,462.6875 L318.1953,464 L314.1953,464 Q313.8828,464 313.75,463.8828 Q313.625,463.7656 313.625,463.5703 Q313.625,463.3828 313.7578,463.2656 Q313.8906,463.1484 314.1953,463.1484 L314.3281,463.1484 L314.3281,459.8203 L314.1953,459.8203 Q313.8828,459.8203 313.75,459.7031 Q313.625,459.5859 313.625,459.3906 Q313.625,459.2031 313.75,459.0859 Q313.8828,458.9688 314.1953,458.9688 L318.0078,458.9688 L318.0078,460.2656 Q318.0078,460.5703 317.8906,460.7031 Q317.7813,460.8281 317.5859,460.8281 Q317.3984,460.8281 317.2813,460.7031 Q317.1641,460.5703 317.1641,460.2656 L317.1641,459.8203 L315.1797,459.8203 L315.1797,461.0469 L315.9219,461.0469 Q315.9219,460.7188 315.9844,460.625 Q316.1172,460.4219 316.3516,460.4219 Q316.5391,460.4219 316.6563,460.5547 Q316.7734,460.6797 316.7734,460.9844 L316.7734,461.9688 Q316.7734,462.2422 316.7109,462.3359 Q316.5781,462.5313 316.3516,462.5313 Q316.1172,462.5313 315.9844,462.3281 Q315.9219,462.2344 315.9219,461.8984 L315.1797,461.8984 Z " fill="#000000"/><text fill="#000000" font-family="sans-serif" font-size="7" lengthAdjust="spacing" textLength="35.5" x="322.75" y="464.3984">TaskStatus</text><line style="stroke:#181818;stroke-width:0.25;" x1="308.75" x2="359.25" y1="469.5" y2="469.5"/><text fill="#000000" font-family="sans-serif" font-size="7" lengthAdjust="spacing" textLength="26" x="311.25" y="479.0537">Pending</text><text fill="#000000" font-family="sans-serif" font-size="7" lengthAdjust="spacing" textLength="33.5" x="311.25" y="488.3643">Processed</text><text fill="#000000" font-family="sans-serif" font-size="7" lengthAdjust="spacing" textLength="26" x="311.25" y="497.6748">Planned</text><text fill="#000000" font-family="sans-serif" font-size="7" lengthAdjust="spacing" textLength="34" x="311.25" y="506.9854">Postponed</text><text fill="#000000" font-family="sans-serif" font-size="7" lengthAdjust="spacing" textLength="30" x="311.25" y="516.2959">Canceled</text><text fill="#000000" font-family="sans-serif" font-size="7" lengthAdjust="spacing" textLength="17" x="311.25" y="525.6064">Done</text><line style="stroke:#181818;stroke-width:0.25;" x1="308.75" x2="359.25" y1="529.3633" y2="529.3633"/></g><!--class ApplicationSession--><g id="elem_ApplicationSession"><rect codeLine="95" fill="#F1F1F1" height="42.6211" id="ApplicationSession" rx="1.25" ry="1.25" style="stroke:#181818;stroke-width:0.25;" width="75.5" x="486.75" y="321.25"/><ellipse cx="494.25" cy="329.25" fill="#ADD1B2" rx="5.5" ry="5.5" style="stroke:#181818;stroke-width:0.5;"/><path d="M495.6328,327.1875 Q495.7109,327.0781 495.8047,327.0234 Q495.8984,326.9688 496.0078,326.9688 Q496.1953,326.9688 496.3125,327.1016 Q496.4297,327.2266 496.4297,327.5313 L496.4297,328.2578 Q496.4297,328.5625 496.3125,328.6953 Q496.1953,328.8281 496.0078,328.8281 Q495.8359,328.8281 495.7344,328.7266 Q495.6328,328.6328 495.5781,328.375 Q495.5547,328.1953 495.4609,328.1016 Q495.2969,327.9141 494.9922,327.8047 Q494.6875,327.6953 494.375,327.6953 Q493.9922,327.6953 493.6719,327.8594 Q493.3594,328.0234 493.1094,328.3984 Q492.8672,328.7734 492.8672,329.2891 L492.8672,329.8359 Q492.8672,330.4531 493.3125,330.8672 Q493.7578,331.2734 494.5547,331.2734 Q495.0234,331.2734 495.3516,331.1484 Q495.5469,331.0703 495.7578,330.8516 Q495.8906,330.7188 495.9609,330.6797 Q496.0391,330.6406 496.1406,330.6406 Q496.3047,330.6406 496.4297,330.7734 Q496.5625,330.8984 496.5625,331.0703 Q496.5625,331.2422 496.3906,331.4453 Q496.1406,331.7344 495.7422,331.8984 Q495.2031,332.125 494.5547,332.125 Q493.7969,332.125 493.1953,331.8125 Q492.7031,331.5625 492.3594,331.0313 Q492.0156,330.4922 492.0156,329.8516 L492.0156,329.2734 Q492.0156,328.6094 492.3203,328.0391 Q492.6328,327.4609 493.1797,327.1563 Q493.7266,326.8438 494.3438,326.8438 Q494.7109,326.8438 495.0313,326.9297 Q495.3594,327.0078 495.6328,327.1875 Z " fill="#000000"/><text fill="#000000" font-family="sans-serif" font-size="7" lengthAdjust="spacing" textLength="59.5" x="501.25" y="332.1484">ApplicationSession</text><line style="stroke:#181818;stroke-width:0.25;" x1="487.25" x2="561.75" y1="337.25" y2="337.25"/><line style="stroke:#181818;stroke-width:0.25;" x1="487.25" x2="561.75" y1="341.25" y2="341.25"/><text fill="#000000" font-family="sans-serif" font-size="7" lengthAdjust="spacing" textLength="64" x="489.75" y="350.8037">+static getInstance()</text><text fill="#000000" font-family="sans-serif" font-size="7" lengthAdjust="spacing" textLength="68" x="489.75" y="360.1143">+getCurrentSession()</text></g><!--class GreenSpaceMapper--><g id="elem_GreenSpaceMapper"><rect codeLine="104" fill="#F1F1F1" height="51.9316" id="GreenSpaceMapper" rx="1.25" ry="1.25" style="stroke:#181818;stroke-width:0.25;" width="180" x="933.5" y="184.5"/><ellipse cx="989.375" cy="192.5" fill="#ADD1B2" rx="5.5" ry="5.5" style="stroke:#181818;stroke-width:0.5;"/><path d="M990.7578,190.4375 Q990.8359,190.3281 990.9297,190.2734 Q991.0234,190.2188 991.1328,190.2188 Q991.3203,190.2188 991.4375,190.3516 Q991.5547,190.4766 991.5547,190.7813 L991.5547,191.5078 Q991.5547,191.8125 991.4375,191.9453 Q991.3203,192.0781 991.1328,192.0781 Q990.9609,192.0781 990.8594,191.9766 Q990.7578,191.8828 990.7031,191.625 Q990.6797,191.4453 990.5859,191.3516 Q990.4219,191.1641 990.1172,191.0547 Q989.8125,190.9453 989.5,190.9453 Q989.1172,190.9453 988.7969,191.1094 Q988.4844,191.2734 988.2344,191.6484 Q987.9922,192.0234 987.9922,192.5391 L987.9922,193.0859 Q987.9922,193.7031 988.4375,194.1172 Q988.8828,194.5234 989.6797,194.5234 Q990.1484,194.5234 990.4766,194.3984 Q990.6719,194.3203 990.8828,194.1016 Q991.0156,193.9688 991.0859,193.9297 Q991.1641,193.8906 991.2656,193.8906 Q991.4297,193.8906 991.5547,194.0234 Q991.6875,194.1484 991.6875,194.3203 Q991.6875,194.4922 991.5156,194.6953 Q991.2656,194.9844 990.8672,195.1484 Q990.3281,195.375 989.6797,195.375 Q988.9219,195.375 988.3203,195.0625 Q987.8281,194.8125 987.4844,194.2813 Q987.1406,193.7422 987.1406,193.1016 L987.1406,192.5234 Q987.1406,191.8594 987.4453,191.2891 Q987.7578,190.7109 988.3047,190.4063 Q988.8516,190.0938 989.4688,190.0938 Q989.8359,190.0938 990.1563,190.1797 Q990.4844,190.2578 990.7578,190.4375 Z " fill="#000000"/><text fill="#000000" font-family="sans-serif" font-size="7" lengthAdjust="spacing" textLength="64" x="999.625" y="195.3984">GreenSpaceMapper</text><line style="stroke:#181818;stroke-width:0.25;" x1="934" x2="1113" y1="200.5" y2="200.5"/><text fill="#000000" font-family="sans-serif" font-size="7" lengthAdjust="spacing" textLength="174" x="936.5" y="210.0537">-List&lt;GreenSpaceDto&gt; associatedGreenSpacesListDto</text><line style="stroke:#181818;stroke-width:0.25;" x1="934" x2="1113" y1="213.8105" y2="213.8105"/><text fill="#000000" font-family="sans-serif" font-size="7" lengthAdjust="spacing" textLength="118.5" x="936.5" y="223.3643">+toDTO(associatedGreenSpacesList)</text><text fill="#000000" font-family="sans-serif" font-size="7" lengthAdjust="spacing" textLength="38" x="936.5" y="232.6748">-toDTO(obj)</text></g><!--class TaskMapper--><g id="elem_TaskMapper"><rect codeLine="111" fill="#F1F1F1" height="33.3105" id="TaskMapper" rx="1.25" ry="1.25" style="stroke:#181818;stroke-width:0.25;" width="134.5" x="642.25" y="193.75"/><ellipse cx="687.625" cy="201.75" fill="#ADD1B2" rx="5.5" ry="5.5" style="stroke:#181818;stroke-width:0.5;"/><path d="M689.0078,199.6875 Q689.0859,199.5781 689.1797,199.5234 Q689.2734,199.4688 689.3828,199.4688 Q689.5703,199.4688 689.6875,199.6016 Q689.8047,199.7266 689.8047,200.0313 L689.8047,200.7578 Q689.8047,201.0625 689.6875,201.1953 Q689.5703,201.3281 689.3828,201.3281 Q689.2109,201.3281 689.1094,201.2266 Q689.0078,201.1328 688.9531,200.875 Q688.9297,200.6953 688.8359,200.6016 Q688.6719,200.4141 688.3672,200.3047 Q688.0625,200.1953 687.75,200.1953 Q687.3672,200.1953 687.0469,200.3594 Q686.7344,200.5234 686.4844,200.8984 Q686.2422,201.2734 686.2422,201.7891 L686.2422,202.3359 Q686.2422,202.9531 686.6875,203.3672 Q687.1328,203.7734 687.9297,203.7734 Q688.3984,203.7734 688.7266,203.6484 Q688.9219,203.5703 689.1328,203.3516 Q689.2656,203.2188 689.3359,203.1797 Q689.4141,203.1406 689.5156,203.1406 Q689.6797,203.1406 689.8047,203.2734 Q689.9375,203.3984 689.9375,203.5703 Q689.9375,203.7422 689.7656,203.9453 Q689.5156,204.2344 689.1172,204.3984 Q688.5781,204.625 687.9297,204.625 Q687.1719,204.625 686.5703,204.3125 Q686.0781,204.0625 685.7344,203.5313 Q685.3906,202.9922 685.3906,202.3516 L685.3906,201.7734 Q685.3906,201.1094 685.6953,200.5391 Q686.0078,199.9609 686.5547,199.6563 Q687.1016,199.3438 687.7188,199.3438 Q688.0859,199.3438 688.4063,199.4297 Q688.7344,199.5078 689.0078,199.6875 Z " fill="#000000"/><text fill="#000000" font-family="sans-serif" font-size="7" lengthAdjust="spacing" textLength="39.5" x="697.875" y="204.6484">TaskMapper</text><line style="stroke:#181818;stroke-width:0.25;" x1="642.75" x2="776.25" y1="209.75" y2="209.75"/><line style="stroke:#181818;stroke-width:0.25;" x1="642.75" x2="776.25" y1="213.75" y2="213.75"/><text fill="#000000" font-family="sans-serif" font-size="7" lengthAdjust="spacing" textLength="128.5" x="645.25" y="223.3037">+toModel(taskDto, selectedGreenSpace)</text></g><!--class GreenSpaceDto--><g id="elem_GreenSpaceDto"><rect codeLine="117" fill="#F1F1F1" height="70.5527" id="GreenSpaceDto" rx="1.25" ry="1.25" style="stroke:#181818;stroke-width:0.25;" width="149" x="952.5" y="307.25"/><ellipse cx="999.375" cy="315.25" fill="#ADD1B2" rx="5.5" ry="5.5" style="stroke:#181818;stroke-width:0.5;"/><path d="M1000.7578,313.1875 Q1000.8359,313.0781 1000.9297,313.0234 Q1001.0234,312.9688 1001.1328,312.9688 Q1001.3203,312.9688 1001.4375,313.1016 Q1001.5547,313.2266 1001.5547,313.5313 L1001.5547,314.2578 Q1001.5547,314.5625 1001.4375,314.6953 Q1001.3203,314.8281 1001.1328,314.8281 Q1000.9609,314.8281 1000.8594,314.7266 Q1000.7578,314.6328 1000.7031,314.375 Q1000.6797,314.1953 1000.5859,314.1016 Q1000.4219,313.9141 1000.1172,313.8047 Q999.8125,313.6953 999.5,313.6953 Q999.1172,313.6953 998.7969,313.8594 Q998.4844,314.0234 998.2344,314.3984 Q997.9922,314.7734 997.9922,315.2891 L997.9922,315.8359 Q997.9922,316.4531 998.4375,316.8672 Q998.8828,317.2734 999.6797,317.2734 Q1000.1484,317.2734 1000.4766,317.1484 Q1000.6719,317.0703 1000.8828,316.8516 Q1001.0156,316.7188 1001.0859,316.6797 Q1001.1641,316.6406 1001.2656,316.6406 Q1001.4297,316.6406 1001.5547,316.7734 Q1001.6875,316.8984 1001.6875,317.0703 Q1001.6875,317.2422 1001.5156,317.4453 Q1001.2656,317.7344 1000.8672,317.8984 Q1000.3281,318.125 999.6797,318.125 Q998.9219,318.125 998.3203,317.8125 Q997.8281,317.5625 997.4844,317.0313 Q997.1406,316.4922 997.1406,315.8516 L997.1406,315.2734 Q997.1406,314.6094 997.4453,314.0391 Q997.7578,313.4609 998.3047,313.1563 Q998.8516,312.8438 999.4688,312.8438 Q999.8359,312.8438 1000.1563,312.9297 Q1000.4844,313.0078 1000.7578,313.1875 Z " fill="#000000"/><text fill="#000000" font-family="sans-serif" font-size="7" lengthAdjust="spacing" textLength="51" x="1009.625" y="318.1484">GreenSpaceDto</text><line style="stroke:#181818;stroke-width:0.25;" x1="953" x2="1101" y1="323.25" y2="323.25"/><text fill="#000000" font-family="sans-serif" font-size="7" lengthAdjust="spacing" textLength="40.5" x="955.5" y="332.8037">-String name</text><text fill="#000000" font-family="sans-serif" font-size="7" lengthAdjust="spacing" textLength="36.5" x="955.5" y="342.1143">-String type</text><text fill="#000000" font-family="sans-serif" font-size="7" lengthAdjust="spacing" textLength="26.5" x="955.5" y="351.4248">-int area</text><text fill="#000000" font-family="sans-serif" font-size="7" lengthAdjust="spacing" textLength="48.5" x="955.5" y="360.7354">-String address</text><line style="stroke:#181818;stroke-width:0.25;" x1="953" x2="1101" y1="364.4922" y2="364.4922"/><text fill="#000000" font-family="sans-serif" font-size="7" lengthAdjust="spacing" textLength="143" x="955.5" y="374.0459">+GreenSpaceDto(name, type, area, address)</text></g><!--class TaskDto--><g id="elem_TaskDto"><rect codeLine="126" fill="#F1F1F1" height="117.1055" id="TaskDto" rx="1.25" ry="1.25" style="stroke:#181818;stroke-width:0.25;" width="281" x="654" y="284"/><ellipse cx="779.125" cy="292" fill="#ADD1B2" rx="5.5" ry="5.5" style="stroke:#181818;stroke-width:0.5;"/><path d="M780.5078,289.9375 Q780.5859,289.8281 780.6797,289.7734 Q780.7734,289.7188 780.8828,289.7188 Q781.0703,289.7188 781.1875,289.8516 Q781.3047,289.9766 781.3047,290.2813 L781.3047,291.0078 Q781.3047,291.3125 781.1875,291.4453 Q781.0703,291.5781 780.8828,291.5781 Q780.7109,291.5781 780.6094,291.4766 Q780.5078,291.3828 780.4531,291.125 Q780.4297,290.9453 780.3359,290.8516 Q780.1719,290.6641 779.8672,290.5547 Q779.5625,290.4453 779.25,290.4453 Q778.8672,290.4453 778.5469,290.6094 Q778.2344,290.7734 777.9844,291.1484 Q777.7422,291.5234 777.7422,292.0391 L777.7422,292.5859 Q777.7422,293.2031 778.1875,293.6172 Q778.6328,294.0234 779.4297,294.0234 Q779.8984,294.0234 780.2266,293.8984 Q780.4219,293.8203 780.6328,293.6016 Q780.7656,293.4688 780.8359,293.4297 Q780.9141,293.3906 781.0156,293.3906 Q781.1797,293.3906 781.3047,293.5234 Q781.4375,293.6484 781.4375,293.8203 Q781.4375,293.9922 781.2656,294.1953 Q781.0156,294.4844 780.6172,294.6484 Q780.0781,294.875 779.4297,294.875 Q778.6719,294.875 778.0703,294.5625 Q777.5781,294.3125 777.2344,293.7813 Q776.8906,293.2422 776.8906,292.6016 L776.8906,292.0234 Q776.8906,291.3594 777.1953,290.7891 Q777.5078,290.2109 778.0547,289.9063 Q778.6016,289.5938 779.2188,289.5938 Q779.5859,289.5938 779.9063,289.6797 Q780.2344,289.7578 780.5078,289.9375 Z " fill="#000000"/><text fill="#000000" font-family="sans-serif" font-size="7" lengthAdjust="spacing" textLength="26.5" x="789.375" y="294.8984">TaskDto</text><line style="stroke:#181818;stroke-width:0.25;" x1="654.5" x2="934.5" y1="300" y2="300"/><text fill="#000000" font-family="sans-serif" font-size="7" lengthAdjust="spacing" textLength="34" x="657" y="309.5537">-String title</text><text fill="#000000" font-family="sans-serif" font-size="7" lengthAdjust="spacing" textLength="57.5" x="657" y="318.8643">-String description</text><text fill="#000000" font-family="sans-serif" font-size="7" lengthAdjust="spacing" textLength="79" x="657" y="328.1748">-String degreeOfUrgency</text><text fill="#000000" font-family="sans-serif" font-size="7" lengthAdjust="spacing" textLength="67.5" x="657" y="337.4854">-int expectedDuration</text><text fill="#000000" font-family="sans-serif" font-size="7" lengthAdjust="spacing" textLength="72" x="657" y="346.7959">-Calendar startingDate</text><line style="stroke:#181818;stroke-width:0.25;" x1="654.5" x2="934.5" y1="350.5527" y2="350.5527"/><text fill="#000000" font-family="sans-serif" font-size="7" lengthAdjust="spacing" textLength="275" x="657" y="360.1064">+TaskDto(title, description, degreeOfUrgency, expectedDuration, selectedGreenSpace)</text><text fill="#000000" font-family="sans-serif" font-size="7" lengthAdjust="spacing" textLength="32.5" x="657" y="369.417">+getTitle()</text><text fill="#000000" font-family="sans-serif" font-size="7" lengthAdjust="spacing" textLength="54.5" x="657" y="378.7275">+getDescription()</text><text fill="#000000" font-family="sans-serif" font-size="7" lengthAdjust="spacing" textLength="76" x="657" y="388.0381">+getDegreeOfUrgency()</text><text fill="#000000" font-family="sans-serif" font-size="7" lengthAdjust="spacing" textLength="75" x="657" y="397.3486">+getExpectedDuration()</text></g><!--reverse link Task to DegreeOfUrgency--><g id="link_Task_DegreeOfUrgency"><path codeLine="143" d="M311.6806,384.849 C297.0956,412.199 280.87,442.615 267.705,467.3 " fill="none" id="Task-backto-DegreeOfUrgency" style="stroke:#181818;stroke-width:0.5;"/><ellipse cx="313.5628" cy="381.3195" fill="#FFFFFF" rx="4" ry="4" style="stroke:#181818;stroke-width:0.5;"/><line style="stroke:#181818;stroke-width:0.5;" x1="311.6806" x2="315.445" y1="384.849" y2="377.79"/><line style="stroke:#181818;stroke-width:0.5;" x1="310.0333" x2="317.0923" y1="379.4373" y2="383.2017"/></g><!--reverse link Task to TaskStatus--><g id="link_Task_TaskStatus"><path codeLine="144" d="M334,385.79 C334,408.38 334,429.875 334,453.37 " fill="none" id="Task-backto-TaskStatus" style="stroke:#181818;stroke-width:0.5;"/><ellipse cx="334" cy="381.79" fill="#FFFFFF" rx="4" ry="4" style="stroke:#181818;stroke-width:0.5;"/><line style="stroke:#181818;stroke-width:0.5;" x1="334" x2="334" y1="385.79" y2="377.79"/><line style="stroke:#181818;stroke-width:0.5;" x1="330" x2="338" y1="381.79" y2="381.79"/></g><!--link Repositories to Repositories--><g id="link_Repositories_Repositories"><path codeLine="146" d="M231.525,202.19 C241.7,203.08 249,205.85 249,210.5 C249,215.15 244.6886,217.6586 234.5136,218.5486 " fill="none" id="Repositories-to-Repositories" style="stroke:#181818;stroke-width:0.5;"/><polygon fill="#181818" points="231.525,218.81,236.1822,220.4103,234.0155,218.5922,235.8336,216.4255,231.525,218.81" style="stroke:#181818;stroke-width:0.5;"/><text fill="#000000" font-family="sans-serif" font-size="6.5" lengthAdjust="spacing" textLength="24.5" x="252" y="213.2642">instance</text></g><!--link ApplicationSession to ApplicationSession--><g id="link_ApplicationSession_ApplicationSession"><path codeLine="147" d="M562.33,326.715 C572.25,327.65 579.75,332.915 579.75,342.5 C579.75,352.085 575.2368,357.0685 565.3168,358.0035 " fill="none" id="ApplicationSession-to-ApplicationSession" style="stroke:#181818;stroke-width:0.5;"/><polygon fill="#181818" points="562.33,358.285,566.9978,359.8539,564.819,358.0504,566.6225,355.8716,562.33,358.285" style="stroke:#181818;stroke-width:0.5;"/><text fill="#000000" font-family="sans-serif" font-size="6.5" lengthAdjust="spacing" textLength="24.5" x="582.75" y="345.2642">instance</text></g><!--link AddEntryToDoUI to AddEntryToDoController--><g id="link_AddEntryToDoUI_AddEntryToDoController"><path codeLine="149" d="M80.425,75 C128.08,75 208.335,75 208.335,75 C208.335,75 370.665,75 370.665,75 C370.665,75 434.9,75 482.83,75 " fill="none" id="AddEntryToDoUI-to-AddEntryToDoController" style="stroke:#181818;stroke-width:0.5;stroke-dasharray:7.0,7.0;"/><polygon fill="#181818" points="485.83,75,481.33,73,483.33,75,481.33,77,485.83,75" style="stroke:#181818;stroke-width:0.5;"/></g><!--link AddEntryToDoUI to GreenSpaceDto--><g id="link_AddEntryToDoUI_GreenSpaceDto"><path codeLine="150" d="M49.775,87.135 C55.05,103.41 64,131 64,131 C64,131 124.5,253 124.5,253 C124.5,253 944,261.5 944,261.5 C944,261.5 966.4913,283.3166 988.9263,305.0716 " fill="none" id="AddEntryToDoUI-to-GreenSpaceDto" style="stroke:#181818;stroke-width:0.5;stroke-dasharray:7.0,7.0;"/><polygon fill="#181818" points="991.08,307.16,989.2417,302.5915,989.2852,305.4196,986.4572,305.4632,991.08,307.16" style="stroke:#181818;stroke-width:0.5;"/></g><!--link AddEntryToDoUI to TaskDto--><g id="link_AddEntryToDoUI_TaskDto"><path codeLine="151" d="M51.09,87.01 C68.485,126.345 124.5,253 124.5,253 C124.5,253 610,261.5 610,261.5 C610,261.5 629.5503,270.0302 658.6453,282.7252 " fill="none" id="AddEntryToDoUI-to-TaskDto" style="stroke:#181818;stroke-width:0.5;stroke-dasharray:7.0,7.0;"/><polygon fill="#181818" points="661.395,283.925,658.0704,280.2923,659.1036,282.9252,656.4707,283.9585,661.395,283.925" style="stroke:#181818;stroke-width:0.5;"/></g><!--link AddEntryToDoController to Repositories--><g id="link_AddEntryToDoController_Repositories"><path codeLine="153" d="M485.86,86.585 C412.66,103.8 280,135 280,135 C280,135 250.9424,157.2368 223.6774,178.1018 " fill="none" id="AddEntryToDoController-to-Repositories" style="stroke:#181818;stroke-width:0.5;stroke-dasharray:7.0,7.0;"/><polygon fill="#181818" points="221.295,179.925,226.0841,178.7785,223.2804,178.4057,223.6532,175.6019,221.295,179.925" style="stroke:#181818;stroke-width:0.5;"/><text fill="#000000" font-family="sans-serif" font-size="6.5" lengthAdjust="spacing" textLength="33.5" x="335" y="129.0142">repositories</text></g><!--link Repositories to GreenSpaceRepository--><g id="link_Repositories_GreenSpaceRepository"><path codeLine="155" d="M231.615,210.5 C238.805,210.5 243.835,210.5 243.835,210.5 C243.835,210.5 267.145,210.5 285.445,210.5 " fill="none" id="Repositories-to-GreenSpaceRepository" style="stroke:#181818;stroke-width:0.5;"/><polygon fill="#181818" points="288.445,210.5,283.945,208.5,285.945,210.5,283.945,212.5,288.445,210.5" style="stroke:#181818;stroke-width:0.5;"/><text fill="#000000" font-family="sans-serif" font-size="6.5" lengthAdjust="spacing" textLength="3.5" x="281.031" y="208.806">1</text></g><!--link Repositories to ToDoList--><g id="link_Repositories_ToDoList"><path codeLine="156" d="M220.69,179.965 C251.24,155.855 288.75,126.25 288.75,126.25 C288.75,126.25 446.75,126.25 446.75,126.25 C446.75,126.25 483.539,162.1836 509.089,187.1436 " fill="none" id="Repositories-to-ToDoList" style="stroke:#181818;stroke-width:0.5;"/><polygon fill="#181818" points="511.235,189.24,509.4137,184.6648,509.4467,187.493,506.6185,187.526,511.235,189.24" style="stroke:#181818;stroke-width:0.5;"/><text fill="#000000" font-family="sans-serif" font-size="6.5" lengthAdjust="spacing" textLength="3.5" x="503.9873" y="183.6904">1</text></g><!--link AddEntryToDoController to GreenSpaceRepository--><g id="link_AddEntryToDoController_GreenSpaceRepository"><path codeLine="158" d="M487.94,105.54 C474.845,114.27 464,121.5 464,121.5 C464,121.5 430.491,152.2323 402.516,177.8873 " fill="none" id="AddEntryToDoController-to-GreenSpaceRepository" style="stroke:#181818;stroke-width:0.5;stroke-dasharray:7.0,7.0;"/><polygon fill="#181818" points="400.305,179.915,404.9733,178.3475,402.1475,178.2253,402.2698,175.3995,400.305,179.915" style="stroke:#181818;stroke-width:0.5;"/><text fill="#000000" font-family="sans-serif" font-size="6.5" lengthAdjust="spacing" textLength="64" x="464.5" y="129.0142">greenSpaceRepostory</text></g><!--link AddEntryToDoController to ToDoList--><g id="link_AddEntryToDoController_ToDoList"><path codeLine="159" d="M533,105.515 C533,130.91 533,163.65 533,186.055 " fill="none" id="AddEntryToDoController-to-ToDoList" style="stroke:#181818;stroke-width:0.5;stroke-dasharray:7.0,7.0;"/><polygon fill="#181818" points="533,189.055,535,184.555,533,186.555,531,184.555,533,189.055" style="stroke:#181818;stroke-width:0.5;"/><text fill="#000000" font-family="sans-serif" font-size="6.5" lengthAdjust="spacing" textLength="24" x="533.5" y="129.0142">toDoList</text></g><!--link AddEntryToDoController to ApplicationSession--><g id="link_AddEntryToDoController_ApplicationSession"><path codeLine="160" d="M571.95,105.6 C591.05,120.355 610,135 610,135 C610,135 610,253 610,253 C610,253 571.8933,292.6665 546.6233,318.9715 " fill="none" id="AddEntryToDoController-to-ApplicationSession" style="stroke:#181818;stroke-width:0.5;stroke-dasharray:7.0,7.0;"/><polygon fill="#181818" points="544.545,321.135,549.1048,319.2754,546.2769,319.3321,546.2202,316.5043,544.545,321.135" style="stroke:#181818;stroke-width:0.5;"/></g><!--link AddEntryToDoController to UserSession--><g id="link_AddEntryToDoController_UserSession"><path codeLine="161" d="M580.165,80.27 C719.815,94.39 1121.5,135 1121.5,135 C1121.5,135 1121.5,425 1121.5,425 C1121.5,425 695.889,475.5511 580.369,489.2761 " fill="none" id="AddEntryToDoController-to-UserSession" style="stroke:#181818;stroke-width:0.5;stroke-dasharray:7.0,7.0;"/><polygon fill="#181818" points="577.39,489.63,582.0945,491.0851,579.8725,489.335,581.6226,487.1131,577.39,489.63" style="stroke:#181818;stroke-width:0.5;"/></g><!--link AddEntryToDoController to GreenSpaceMapper--><g id="link_AddEntryToDoController_GreenSpaceMapper"><path codeLine="162" d="M580.05,86.585 C653.1,103.8 785.5,135 785.5,135 C785.5,135 870.5937,161.8133 939.5637,183.5483 " fill="none" id="AddEntryToDoController-to-GreenSpaceMapper" style="stroke:#181818;stroke-width:0.5;stroke-dasharray:7.0,7.0;"/><polygon fill="#181818" points="942.425,184.45,938.7342,181.1899,940.0406,183.6986,937.5319,185.005,942.425,184.45" style="stroke:#181818;stroke-width:0.5;"/></g><!--link ApplicationSession to UserSession--><g id="link_ApplicationSession_UserSession"><path codeLine="164" d="M527.905,363.855 C532.835,394.045 541.3765,446.3292 545.8515,473.7342 " fill="none" id="ApplicationSession-to-UserSession" style="stroke:#181818;stroke-width:0.5;"/><polygon fill="#181818" points="546.335,476.695,547.5837,471.9315,545.9321,474.2277,543.6359,472.5761,546.335,476.695" style="stroke:#181818;stroke-width:0.5;"/><text fill="#000000" font-family="sans-serif" font-size="6.5" lengthAdjust="spacing" textLength="36" x="540" y="436.5142">userSession</text><text fill="#000000" font-family="sans-serif" font-size="6.5" lengthAdjust="spacing" textLength="3.5" x="541.9658" y="471.0969">1</text></g><!--link GreenSpaceRepository to GreenSpace--><g id="link_GreenSpaceRepository_GreenSpace"><path codeLine="166" d="M304.84,241.075 C290.815,247.81 280,253 280,253 C280,253 190.5,261.5 190.5,261.5 C190.5,261.5 190.5,425 190.5,425 C190.5,425 368.5,453.5 368.5,453.5 C368.5,453.5 369.7644,454.5851 374.8744,458.9751 " fill="none" id="GreenSpaceRepository-to-GreenSpace" style="stroke:#181818;stroke-width:0.5;"/><polygon fill="#181818" points="377.15,460.93,375.0399,456.4805,375.2537,459.3009,372.4334,459.5146,377.15,460.93" style="stroke:#181818;stroke-width:0.5;"/><text fill="#000000" font-family="sans-serif" font-size="6.5" lengthAdjust="spacing" textLength="3.5" x="293.49" y="252.3276">1</text><text fill="#000000" font-family="sans-serif" font-size="6.5" lengthAdjust="spacing" textLength="2.5" x="370.6694" y="455.6616">*</text></g><!--link ToDoList to Task--><g id="link_ToDoList_Task"><path codeLine="167" d="M501.47,231.755 C470.725,251.995 425.9108,281.4954 389.4008,305.5304 " fill="none" id="ToDoList-to-Task" style="stroke:#181818;stroke-width:0.5;"/><polygon fill="#181818" points="386.895,307.18,391.7534,306.3761,388.9831,305.8053,389.5539,303.0351,386.895,307.18" style="stroke:#181818;stroke-width:0.5;"/><text fill="#000000" font-family="sans-serif" font-size="6.5" lengthAdjust="spacing" textLength="3.5" x="492.666" y="242.836">1</text><text fill="#000000" font-family="sans-serif" font-size="6.5" lengthAdjust="spacing" textLength="2.5" x="389.7209" y="301.6183">*</text></g><!--link Task to GreenSpace--><g id="link_Task_GreenSpace"><path codeLine="169" d="M352.67,377.79 C364.795,400.38 379.2067,427.2314 391.8117,450.7264 " fill="none" id="Task-to-GreenSpace" style="stroke:#181818;stroke-width:0.5;"/><polygon fill="#181818" points="393.23,453.37,392.865,448.4591,392.0481,451.167,389.3402,450.3501,393.23,453.37" style="stroke:#181818;stroke-width:0.5;"/><text fill="#000000" font-family="sans-serif" font-size="6.5" lengthAdjust="spacing" textLength="2.5" x="351.9664" y="388.8865">*</text><text fill="#000000" font-family="sans-serif" font-size="6.5" lengthAdjust="spacing" textLength="3.5" x="387.6078" y="447.8059">1</text></g><!--link ToDoList to TaskMapper--><g id="link_ToDoList_TaskMapper"><path codeLine="171" d="M602.08,231.75 C618.935,231.75 650.665,231.75 650.665,231.75 C650.665,231.75 652.9633,230.9188 660.1783,228.3138 " fill="none" id="ToDoList-to-TaskMapper" style="stroke:#181818;stroke-width:0.5;stroke-dasharray:7.0,7.0;"/><polygon fill="#181818" points="663,227.295,658.0882,226.942,660.6486,228.144,659.4466,230.7043,663,227.295" style="stroke:#181818;stroke-width:0.5;"/></g><!--link TaskMapper to TaskDto--><g id="link_TaskMapper_TaskDto"><path codeLine="173" d="M720.095,227.325 C729.37,241.625 741.8026,260.778 755.2076,281.448 " fill="none" id="TaskMapper-to-TaskDto" style="stroke:#181818;stroke-width:0.5;stroke-dasharray:7.0,7.0;"/><polygon fill="#181818" points="756.84,283.965,756.0695,279.1012,755.4797,281.8675,752.7135,281.2777,756.84,283.965" style="stroke:#181818;stroke-width:0.5;"/></g><!--link TaskMapper to Task--><g id="link_TaskMapper_Task"><path codeLine="174" d="M670.89,227.3 C642.92,239.105 610,253 610,253 C610,253 478,261.5 478,261.5 C478,261.5 437.8586,283.9411 398.9436,305.6961 " fill="none" id="TaskMapper-to-Task" style="stroke:#181818;stroke-width:0.5;stroke-dasharray:7.0,7.0;"/><polygon fill="#181818" points="396.325,307.16,401.2288,306.7099,398.5072,305.9401,399.277,303.2184,396.325,307.16" style="stroke:#181818;stroke-width:0.5;"/></g><!--link GreenSpaceMapper to GreenSpaceDto--><g id="link_GreenSpaceMapper_GreenSpaceDto"><path codeLine="176" d="M1024.185,236.57 C1024.72,256.675 1025.3952,281.8961 1025.9852,304.0811 " fill="none" id="GreenSpaceMapper-to-GreenSpaceDto" style="stroke:#181818;stroke-width:0.5;stroke-dasharray:7.0,7.0;"/><polygon fill="#181818" points="1026.065,307.08,1027.9447,302.5284,1025.9985,304.5809,1023.9461,302.6348,1026.065,307.08" style="stroke:#181818;stroke-width:0.5;"/></g><!--link GreenSpaceMapper to GreenSpace--><g id="link_GreenSpaceMapper_GreenSpace"><path codeLine="177" d="M1067.005,236.545 C1088.335,249.07 1109.5,261.5 1109.5,261.5 C1109.5,261.5 1109.5,425 1109.5,425 C1109.5,425 512,453.5 512,453.5 C512,453.5 482.0854,465.6182 454.5604,476.7732 " fill="none" id="GreenSpaceMapper-to-GreenSpace" style="stroke:#181818;stroke-width:0.5;stroke-dasharray:7.0,7.0;"/><polygon fill="#181818" points="451.78,477.9,456.7017,478.0634,454.097,476.961,455.1993,474.3563,451.78,477.9" style="stroke:#181818;stroke-width:0.5;"/></g><!--SRC=[hLRTJjim5BxtKrYx8HtjjDrE4n9gq8O40gtm02Ovf1wk7TckM8TuznsdIMp7IU22NhIDpz_tdR_un3nnMJFDTdIdf2gsMks0Mhq7uYKrAvvO1Hjx440r59R9IeGAPijAzSnbHH-PCA54S0dsK0EjbJYu1t8o8bJQAX9O5O8PSswjvWzx2vU5aXl-3-XNGau4F5fg5TMysbfQSWU7Aqb82vBUNz8NGl7JEA7dPNaXhJxSgLpTNpQ25zByl99NGcvRgxNIyDBxM2iqKKA0dlJbLLgVjFsSJgXbYq2b0ljJ0yWDHWGp56r082ielKh6GnNM1iWiCq-vLGlFfsEGgntZieNL7Vw6MXbkbJwqAJZIweyvc06PLIGSuhoK1bi1qItezzJB25CFOEZAvUgA6vjrN09yO_QzjSTwnEkS_F0MPxJoUNQojzGne2euYxAV6YOL14otMAGwywMCQ7OfI4g0vSuA3GxJ7HPyhXEMr2G1kupwxwuVhbK98khmUmDw0yQuYHgsDR9nuWl7TBvC2OCDJZ8k1ybsa9ww3H2SScafGxQf8fBLY2qLL6RNe0h0RfdnO8FYn1d7f4rXjToA4R0bc4BpsdO9yfZXRzqaFjzhDX2lcG1PCarnNBH5DpdMCW3hS6HDm6KOm3suxhrvlDSLoEAmJ8BCrRlv0RdVqJnsCw1yfPxx_zTGylskV_o5IpRnvj1kBBFxuRAuHP98pZzhXQDXeFGdWaaPFYjZQnMUhDq-4S51ZkAWTTj5NDU25qq6fheLKsrv4M-fk9dNUwr1sjP15ez9i4glMLqFNWG-sKTXqaI3jOAJERDPK1eWiog_kyacbHT1bAEgUlWpqTkZu5o4Pl3VipFy- -JkPY838VhXCXwR- -dPdvZ_sHrmP1IXoLouPUDwsNXQTbPJY_UOXm_P1BqmdRWFMnMEumTl2_yUTdw7avBxAAaeYZaKNmmGPEdBg9arHukUhbR9gke5mTOXuLM3hiwYgmVUH7Wxy2HT4qvxv3Im8V65aNuvcxhs3HLHCvwA4OMkrSYuJnTjG4Q7rwg4-QTldyQlHsEA_GLZCdf4mNj365LytCIOyTA5GalRHPrH7zddCzhX9ULTJDezEDeFRMu2duXv7qGWenbnDetjvx00fESTofjhnh6JtUCggHlnTbsJT93z_wX_Hev3e84eRiatLCX_]--></g></svg>