<?xml version="1.0" encoding="us-ascii" standalone="no"?><svg xmlns="http://www.w3.org/2000/svg" xmlns:xlink="http://www.w3.org/1999/xlink" contentStyleType="text/css" height="643.2px" preserveAspectRatio="none" style="width:1135px;height:643px;background:#FFFFFF;" version="1.1" viewBox="0 0 1135 643" width="1135.8px" zoomAndPan="magnify"><defs/><g><!--class AddEntryToDoUI--><g id="elem_AddEntryToDoUI"><rect codeLine="11" fill="#F1F1F1" height="28.8" id="AddEntryToDoUI" rx="1.5" ry="1.5" style="stroke:#181818;stroke-width:0.3;" width="82.2" x="4.2" y="26.4"/><ellipse cx="13.2" cy="36" fill="#ADD1B2" rx="6.6" ry="6.6" style="stroke:#181818;stroke-width:0.6;"/><path d="M14.8594,33.525 Q14.9531,33.3938 15.0656,33.3281 Q15.1781,33.2625 15.3094,33.2625 Q15.5344,33.2625 15.675,33.4219 Q15.8156,33.5719 15.8156,33.9375 L15.8156,34.8094 Q15.8156,35.175 15.675,35.3344 Q15.5344,35.4938 15.3094,35.4938 Q15.1031,35.4938 14.9813,35.3719 Q14.8594,35.2594 14.7938,34.95 Q14.7656,34.7344 14.6531,34.6219 Q14.4562,34.3969 14.0906,34.2656 Q13.725,34.1344 13.35,34.1344 Q12.8906,34.1344 12.5063,34.3313 Q12.1313,34.5281 11.8312,34.9781 Q11.5406,35.4281 11.5406,36.0469 L11.5406,36.7031 Q11.5406,37.4438 12.075,37.9406 Q12.6094,38.4281 13.5656,38.4281 Q14.1281,38.4281 14.5219,38.2781 Q14.7563,38.1844 15.0094,37.9219 Q15.1688,37.7625 15.2531,37.7156 Q15.3469,37.6687 15.4688,37.6687 Q15.6656,37.6687 15.8156,37.8281 Q15.975,37.9781 15.975,38.1844 Q15.975,38.3906 15.7687,38.6344 Q15.4688,38.9812 14.9906,39.1781 Q14.3438,39.45 13.5656,39.45 Q12.6563,39.45 11.9344,39.075 Q11.3438,38.775 10.9313,38.1375 Q10.5187,37.4906 10.5187,36.7219 L10.5187,36.0281 Q10.5187,35.2312 10.8844,34.5469 Q11.2594,33.8531 11.9156,33.4875 Q12.5719,33.1125 13.3125,33.1125 Q13.7531,33.1125 14.1375,33.2156 Q14.5313,33.3094 14.8594,33.525 Z " fill="#000000"/><text fill="#000000" font-family="sans-serif" font-size="8.4" lengthAdjust="spacing" textLength="63" x="21.6" y="39.4781">AddEntryToDoUI</text><line style="stroke:#181818;stroke-width:0.3;" x1="4.8" x2="85.8" y1="45.6" y2="45.6"/><line style="stroke:#181818;stroke-width:0.3;" x1="4.8" x2="85.8" y1="50.4" y2="50.4"/></g><!--class AddEntryToDoController--><g id="elem_AddEntryToDoController"><rect codeLine="16" fill="#F1F1F1" height="73.4906" id="AddEntryToDoController" rx="1.5" ry="1.5" style="stroke:#181818;stroke-width:0.3;" width="112.8" x="345.9" y="4.2"/><ellipse cx="355.17" cy="13.8" fill="#ADD1B2" rx="6.6" ry="6.6" style="stroke:#181818;stroke-width:0.6;"/><path d="M356.8294,11.325 Q356.9231,11.1938 357.0356,11.1281 Q357.1481,11.0625 357.2794,11.0625 Q357.5044,11.0625 357.645,11.2219 Q357.7856,11.3719 357.7856,11.7375 L357.7856,12.6094 Q357.7856,12.975 357.645,13.1344 Q357.5044,13.2938 357.2794,13.2938 Q357.0731,13.2938 356.9513,13.1719 Q356.8294,13.0594 356.7638,12.75 Q356.7356,12.5344 356.6231,12.4219 Q356.4263,12.1969 356.0606,12.0656 Q355.695,11.9344 355.32,11.9344 Q354.8606,11.9344 354.4763,12.1313 Q354.1013,12.3281 353.8013,12.7781 Q353.5106,13.2281 353.5106,13.8469 L353.5106,14.5031 Q353.5106,15.2437 354.045,15.7406 Q354.5794,16.2281 355.5356,16.2281 Q356.0981,16.2281 356.4919,16.0781 Q356.7263,15.9844 356.9794,15.7219 Q357.1388,15.5625 357.2231,15.5156 Q357.3169,15.4688 357.4388,15.4688 Q357.6356,15.4688 357.7856,15.6281 Q357.945,15.7781 357.945,15.9844 Q357.945,16.1906 357.7388,16.4344 Q357.4388,16.7813 356.9606,16.9781 Q356.3138,17.25 355.5356,17.25 Q354.6263,17.25 353.9044,16.875 Q353.3138,16.575 352.9013,15.9375 Q352.4888,15.2906 352.4888,14.5219 L352.4888,13.8281 Q352.4888,13.0313 352.8544,12.3469 Q353.2294,11.6531 353.8856,11.2875 Q354.5419,10.9125 355.2825,10.9125 Q355.7231,10.9125 356.1075,11.0156 Q356.5013,11.1094 356.8294,11.325 Z " fill="#000000"/><text fill="#000000" font-family="sans-serif" font-size="8.4" lengthAdjust="spacing" textLength="93" x="363.63" y="17.2781">AddEntryToDoController</text><line style="stroke:#181818;stroke-width:0.3;" x1="346.5" x2="458.1" y1="23.4" y2="23.4"/><line style="stroke:#181818;stroke-width:0.3;" x1="346.5" x2="458.1" y1="28.2" y2="28.2"/><text fill="#000000" font-family="sans-serif" font-size="8.4" lengthAdjust="spacing" textLength="103.8" x="349.5" y="39.6645">+AddEntryToDoController()</text><text fill="#000000" font-family="sans-serif" font-size="8.4" lengthAdjust="spacing" textLength="75" x="349.5" y="50.8371">+getGreenSpaces()</text><text fill="#000000" font-family="sans-serif" font-size="8.4" lengthAdjust="spacing" textLength="105.6" x="349.5" y="62.0098">+getSelectedGreenSpace(i)</text><text fill="#000000" font-family="sans-serif" font-size="8.4" lengthAdjust="spacing" textLength="73.8" x="349.5" y="73.1824">+addEntry(taskDto)</text></g><!--class ApplicationSession--><g id="elem_ApplicationSession"><rect codeLine="24" fill="#F1F1F1" height="51.1453" id="ApplicationSession" rx="1.5" ry="1.5" style="stroke:#181818;stroke-width:0.3;" width="90.6" x="357" y="135.9"/><ellipse cx="366" cy="145.5" fill="#ADD1B2" rx="6.6" ry="6.6" style="stroke:#181818;stroke-width:0.6;"/><path d="M367.6594,143.025 Q367.7531,142.8937 367.8656,142.8281 Q367.9781,142.7625 368.1094,142.7625 Q368.3344,142.7625 368.475,142.9219 Q368.6156,143.0719 368.6156,143.4375 L368.6156,144.3094 Q368.6156,144.675 368.475,144.8344 Q368.3344,144.9938 368.1094,144.9938 Q367.9031,144.9938 367.7813,144.8719 Q367.6594,144.7594 367.5938,144.45 Q367.5656,144.2344 367.4531,144.1219 Q367.2562,143.8969 366.8906,143.7656 Q366.525,143.6344 366.15,143.6344 Q365.6906,143.6344 365.3063,143.8312 Q364.9313,144.0281 364.6312,144.4781 Q364.3406,144.9281 364.3406,145.5469 L364.3406,146.2031 Q364.3406,146.9438 364.875,147.4406 Q365.4094,147.9281 366.3656,147.9281 Q366.9281,147.9281 367.3219,147.7781 Q367.5563,147.6844 367.8094,147.4219 Q367.9688,147.2625 368.0531,147.2156 Q368.1469,147.1688 368.2688,147.1688 Q368.4656,147.1688 368.6156,147.3281 Q368.775,147.4781 368.775,147.6844 Q368.775,147.8906 368.5687,148.1344 Q368.2688,148.4813 367.7906,148.6781 Q367.1438,148.95 366.3656,148.95 Q365.4563,148.95 364.7344,148.575 Q364.1438,148.275 363.7313,147.6375 Q363.3187,146.9906 363.3187,146.2219 L363.3187,145.5281 Q363.3187,144.7313 363.6844,144.0469 Q364.0594,143.3531 364.7156,142.9875 Q365.3719,142.6125 366.1125,142.6125 Q366.5531,142.6125 366.9375,142.7156 Q367.3313,142.8094 367.6594,143.025 Z " fill="#000000"/><text fill="#000000" font-family="sans-serif" font-size="8.4" lengthAdjust="spacing" textLength="71.4" x="374.4" y="148.9781">ApplicationSession</text><line style="stroke:#181818;stroke-width:0.3;" x1="357.6" x2="447" y1="155.1" y2="155.1"/><line style="stroke:#181818;stroke-width:0.3;" x1="357.6" x2="447" y1="159.9" y2="159.9"/><text fill="#000000" font-family="sans-serif" font-size="8.4" lengthAdjust="spacing" textLength="76.8" x="360.6" y="171.3645">+static getInstance()</text><text fill="#000000" font-family="sans-serif" font-size="8.4" lengthAdjust="spacing" textLength="81.6" x="360.6" y="182.5371">+getCurrentSession()</text></g><!--class Repositories--><g id="elem_Repositories"><rect codeLine="30" fill="#F1F1F1" height="73.4906" id="Repositories" rx="1.5" ry="1.5" style="stroke:#181818;stroke-width:0.3;" width="118.8" x="551.7" y="4.2"/><ellipse cx="584.85" cy="13.8" fill="#ADD1B2" rx="6.6" ry="6.6" style="stroke:#181818;stroke-width:0.6;"/><path d="M586.5094,11.325 Q586.6031,11.1938 586.7156,11.1281 Q586.8281,11.0625 586.9594,11.0625 Q587.1844,11.0625 587.325,11.2219 Q587.4656,11.3719 587.4656,11.7375 L587.4656,12.6094 Q587.4656,12.975 587.325,13.1344 Q587.1844,13.2938 586.9594,13.2938 Q586.7531,13.2938 586.6313,13.1719 Q586.5094,13.0594 586.4438,12.75 Q586.4156,12.5344 586.3031,12.4219 Q586.1062,12.1969 585.7406,12.0656 Q585.375,11.9344 585,11.9344 Q584.5406,11.9344 584.1563,12.1313 Q583.7813,12.3281 583.4812,12.7781 Q583.1906,13.2281 583.1906,13.8469 L583.1906,14.5031 Q583.1906,15.2437 583.725,15.7406 Q584.2594,16.2281 585.2156,16.2281 Q585.7781,16.2281 586.1719,16.0781 Q586.4063,15.9844 586.6594,15.7219 Q586.8188,15.5625 586.9031,15.5156 Q586.9969,15.4688 587.1188,15.4688 Q587.3156,15.4688 587.4656,15.6281 Q587.625,15.7781 587.625,15.9844 Q587.625,16.1906 587.4187,16.4344 Q587.1188,16.7813 586.6406,16.9781 Q585.9938,17.25 585.2156,17.25 Q584.3063,17.25 583.5844,16.875 Q582.9938,16.575 582.5813,15.9375 Q582.1687,15.2906 582.1687,14.5219 L582.1687,13.8281 Q582.1687,13.0313 582.5344,12.3469 Q582.9094,11.6531 583.5656,11.2875 Q584.2219,10.9125 584.9625,10.9125 Q585.4031,10.9125 585.7875,11.0156 Q586.1813,11.1094 586.5094,11.325 Z " fill="#000000"/><text fill="#000000" font-family="sans-serif" font-size="8.4" lengthAdjust="spacing" textLength="47.4" x="597.15" y="17.2781">Repositories</text><line style="stroke:#181818;stroke-width:0.3;" x1="552.3" x2="669.9" y1="23.4" y2="23.4"/><line style="stroke:#181818;stroke-width:0.3;" x1="552.3" x2="669.9" y1="28.2" y2="28.2"/><text fill="#000000" font-family="sans-serif" font-size="8.4" lengthAdjust="spacing" textLength="56.4" x="555.3" y="39.6645">-Repositories()</text><text fill="#000000" font-family="sans-serif" font-size="8.4" lengthAdjust="spacing" textLength="109.2" x="555.3" y="50.8371">+getInstance() : Repositories</text><text fill="#000000" font-family="sans-serif" font-size="8.4" lengthAdjust="spacing" textLength="111.6" x="555.3" y="62.0098">+getGreenSpaceRepository()</text><text fill="#000000" font-family="sans-serif" font-size="8.4" lengthAdjust="spacing" textLength="57" x="555.3" y="73.1824">+getToDoList()</text></g><!--class UserSession--><g id="elem_UserSession"><rect codeLine="38" fill="#F1F1F1" height="39.9727" id="UserSession" rx="1.5" ry="1.5" style="stroke:#181818;stroke-width:0.3;" width="67.8" x="304.2" y="267.6"/><ellipse cx="313.74" cy="277.2" fill="#ADD1B2" rx="6.6" ry="6.6" style="stroke:#181818;stroke-width:0.6;"/><path d="M315.3994,274.725 Q315.4931,274.5938 315.6056,274.5281 Q315.7181,274.4625 315.8494,274.4625 Q316.0744,274.4625 316.215,274.6219 Q316.3556,274.7719 316.3556,275.1375 L316.3556,276.0094 Q316.3556,276.375 316.215,276.5344 Q316.0744,276.6937 315.8494,276.6937 Q315.6431,276.6937 315.5212,276.5719 Q315.3994,276.4594 315.3337,276.15 Q315.3056,275.9344 315.1931,275.8219 Q314.9963,275.5969 314.6306,275.4656 Q314.265,275.3344 313.89,275.3344 Q313.4306,275.3344 313.0463,275.5313 Q312.6713,275.7281 312.3713,276.1781 Q312.0806,276.6281 312.0806,277.2469 L312.0806,277.9031 Q312.0806,278.6438 312.615,279.1406 Q313.1494,279.6281 314.1056,279.6281 Q314.6681,279.6281 315.0619,279.4781 Q315.2963,279.3844 315.5494,279.1219 Q315.7087,278.9625 315.7931,278.9156 Q315.8869,278.8688 316.0087,278.8688 Q316.2056,278.8688 316.3556,279.0281 Q316.515,279.1781 316.515,279.3844 Q316.515,279.5906 316.3088,279.8344 Q316.0087,280.1813 315.5306,280.3781 Q314.8837,280.65 314.1056,280.65 Q313.1962,280.65 312.4744,280.275 Q311.8837,279.975 311.4713,279.3375 Q311.0588,278.6906 311.0588,277.9219 L311.0588,277.2281 Q311.0588,276.4313 311.4244,275.7469 Q311.7994,275.0531 312.4556,274.6875 Q313.1119,274.3125 313.8525,274.3125 Q314.2931,274.3125 314.6775,274.4156 Q315.0712,274.5094 315.3994,274.725 Z " fill="#000000"/><text fill="#000000" font-family="sans-serif" font-size="8.4" lengthAdjust="spacing" textLength="47.4" x="322.26" y="280.6781">UserSession</text><line style="stroke:#181818;stroke-width:0.3;" x1="304.8" x2="371.4" y1="286.8" y2="286.8"/><line style="stroke:#181818;stroke-width:0.3;" x1="304.8" x2="371.4" y1="291.6" y2="291.6"/><text fill="#000000" font-family="sans-serif" font-size="8.4" lengthAdjust="spacing" textLength="60.6" x="307.8" y="303.0645">+getUserEmail()</text></g><!--class GreenSpaceRepository--><g id="elem_GreenSpaceRepository"><rect codeLine="43" fill="#F1F1F1" height="73.4906" id="GreenSpaceRepository" rx="1.5" ry="1.5" style="stroke:#181818;stroke-width:0.3;" width="189.6" x="516.3" y="124.8"/><ellipse cx="564.15" cy="134.4" fill="#ADD1B2" rx="6.6" ry="6.6" style="stroke:#181818;stroke-width:0.6;"/><path d="M565.8094,131.925 Q565.9031,131.7938 566.0156,131.7281 Q566.1281,131.6625 566.2594,131.6625 Q566.4844,131.6625 566.625,131.8219 Q566.7656,131.9719 566.7656,132.3375 L566.7656,133.2094 Q566.7656,133.575 566.625,133.7344 Q566.4844,133.8937 566.2594,133.8937 Q566.0531,133.8937 565.9313,133.7719 Q565.8094,133.6594 565.7438,133.35 Q565.7156,133.1344 565.6031,133.0219 Q565.4063,132.7969 565.0406,132.6656 Q564.675,132.5344 564.3,132.5344 Q563.8406,132.5344 563.4563,132.7313 Q563.0813,132.9281 562.7813,133.3781 Q562.4906,133.8281 562.4906,134.4469 L562.4906,135.1031 Q562.4906,135.8438 563.025,136.3406 Q563.5594,136.8281 564.5156,136.8281 Q565.0781,136.8281 565.4719,136.6781 Q565.7063,136.5844 565.9594,136.3219 Q566.1188,136.1625 566.2031,136.1156 Q566.2969,136.0688 566.4187,136.0688 Q566.6156,136.0688 566.7656,136.2281 Q566.925,136.3781 566.925,136.5844 Q566.925,136.7906 566.7188,137.0344 Q566.4187,137.3813 565.9406,137.5781 Q565.2937,137.85 564.5156,137.85 Q563.6062,137.85 562.8844,137.475 Q562.2937,137.175 561.8813,136.5375 Q561.4688,135.8906 561.4688,135.1219 L561.4688,134.4281 Q561.4688,133.6313 561.8344,132.9469 Q562.2094,132.2531 562.8656,131.8875 Q563.5219,131.5125 564.2625,131.5125 Q564.7031,131.5125 565.0875,131.6156 Q565.4812,131.7094 565.8094,131.925 Z " fill="#000000"/><text fill="#000000" font-family="sans-serif" font-size="8.4" lengthAdjust="spacing" textLength="88.8" x="576.45" y="137.8781">GreenSpaceRepository</text><line style="stroke:#181818;stroke-width:0.3;" x1="516.9" x2="705.3" y1="144" y2="144"/><text fill="#000000" font-family="sans-serif" font-size="8.4" lengthAdjust="spacing" textLength="139.8" x="519.9" y="155.4645">-List&lt;GreenSpace&gt; greenSpacesList</text><text fill="#000000" font-family="sans-serif" font-size="8.4" lengthAdjust="spacing" textLength="182.4" x="519.9" y="166.6371">-List&lt;GreenSpace&gt; associatedGreenSpacesList</text><line style="stroke:#181818;stroke-width:0.3;" x1="516.9" x2="705.3" y1="171.1453" y2="171.1453"/><text fill="#000000" font-family="sans-serif" font-size="8.4" lengthAdjust="spacing" textLength="94.8" x="519.9" y="182.6098">+getGreenSpaces(email)</text><text fill="#000000" font-family="sans-serif" font-size="8.4" lengthAdjust="spacing" textLength="105.6" x="519.9" y="193.7824">+getSelectedGreenSpace(i)</text></g><!--class GreenSpace--><g id="elem_GreenSpace"><rect codeLine="51" fill="#F1F1F1" height="95.8359" id="GreenSpace" rx="1.5" ry="1.5" style="stroke:#181818;stroke-width:0.3;" width="89.4" x="373.2" y="543.6"/><ellipse cx="392.19" cy="553.2" fill="#ADD1B2" rx="6.6" ry="6.6" style="stroke:#181818;stroke-width:0.6;"/><path d="M393.8494,550.725 Q393.9431,550.5938 394.0556,550.5281 Q394.1681,550.4625 394.2994,550.4625 Q394.5244,550.4625 394.665,550.6219 Q394.8056,550.7719 394.8056,551.1375 L394.8056,552.0094 Q394.8056,552.375 394.665,552.5344 Q394.5244,552.6938 394.2994,552.6938 Q394.0931,552.6938 393.9713,552.5719 Q393.8494,552.4594 393.7838,552.15 Q393.7556,551.9344 393.6431,551.8219 Q393.4462,551.5969 393.0806,551.4656 Q392.715,551.3344 392.34,551.3344 Q391.8806,551.3344 391.4963,551.5313 Q391.1213,551.7281 390.8212,552.1781 Q390.5306,552.6281 390.5306,553.2469 L390.5306,553.9031 Q390.5306,554.6438 391.065,555.1406 Q391.5994,555.6281 392.5556,555.6281 Q393.1181,555.6281 393.5119,555.4781 Q393.7463,555.3844 393.9994,555.1219 Q394.1588,554.9625 394.2431,554.9156 Q394.3369,554.8688 394.4587,554.8688 Q394.6556,554.8688 394.8056,555.0281 Q394.965,555.1781 394.965,555.3844 Q394.965,555.5906 394.7587,555.8344 Q394.4587,556.1813 393.9806,556.3781 Q393.3337,556.65 392.5556,556.65 Q391.6462,556.65 390.9244,556.275 Q390.3337,555.975 389.9213,555.3375 Q389.5087,554.6906 389.5087,553.9219 L389.5087,553.2281 Q389.5087,552.4313 389.8744,551.7469 Q390.2494,551.0531 390.9056,550.6875 Q391.5619,550.3125 392.3025,550.3125 Q392.7431,550.3125 393.1275,550.4156 Q393.5212,550.5094 393.8494,550.725 Z " fill="#000000"/><text fill="#000000" font-family="sans-serif" font-size="8.4" lengthAdjust="spacing" textLength="48" x="402.81" y="556.6781">GreenSpace</text><line style="stroke:#181818;stroke-width:0.3;" x1="373.8" x2="462" y1="562.8" y2="562.8"/><text fill="#000000" font-family="sans-serif" font-size="8.4" lengthAdjust="spacing" textLength="48.6" x="376.8" y="574.2645">-String name</text><text fill="#000000" font-family="sans-serif" font-size="8.4" lengthAdjust="spacing" textLength="43.8" x="376.8" y="585.4371">-String type</text><text fill="#000000" font-family="sans-serif" font-size="8.4" lengthAdjust="spacing" textLength="31.8" x="376.8" y="596.6098">-int area</text><text fill="#000000" font-family="sans-serif" font-size="8.4" lengthAdjust="spacing" textLength="58.2" x="376.8" y="607.7824">-String address</text><text fill="#000000" font-family="sans-serif" font-size="8.4" lengthAdjust="spacing" textLength="63.6" x="376.8" y="618.9551">-String gsmEmail</text><line style="stroke:#181818;stroke-width:0.3;" x1="373.8" x2="462" y1="623.4633" y2="623.4633"/><text fill="#000000" font-family="sans-serif" font-size="8.4" lengthAdjust="spacing" textLength="82.2" x="376.8" y="634.9277">+hasUserEmail(email)</text></g><!--class GreenSpaceMapper--><g id="elem_GreenSpaceMapper"><rect codeLine="61" fill="#F1F1F1" height="62.318" id="GreenSpaceMapper" rx="1.5" ry="1.5" style="stroke:#181818;stroke-width:0.3;" width="216" x="77.1" y="130.2"/><ellipse cx="144.15" cy="139.8" fill="#ADD1B2" rx="6.6" ry="6.6" style="stroke:#181818;stroke-width:0.6;"/><path d="M145.8094,137.325 Q145.9031,137.1938 146.0156,137.1281 Q146.1281,137.0625 146.2594,137.0625 Q146.4844,137.0625 146.625,137.2219 Q146.7656,137.3719 146.7656,137.7375 L146.7656,138.6094 Q146.7656,138.975 146.625,139.1344 Q146.4844,139.2938 146.2594,139.2938 Q146.0531,139.2938 145.9313,139.1719 Q145.8094,139.0594 145.7438,138.75 Q145.7156,138.5344 145.6031,138.4219 Q145.4063,138.1969 145.0406,138.0656 Q144.675,137.9344 144.3,137.9344 Q143.8406,137.9344 143.4562,138.1313 Q143.0812,138.3281 142.7813,138.7781 Q142.4906,139.2281 142.4906,139.8469 L142.4906,140.5031 Q142.4906,141.2438 143.025,141.7406 Q143.5594,142.2281 144.5156,142.2281 Q145.0781,142.2281 145.4719,142.0781 Q145.7062,141.9844 145.9594,141.7219 Q146.1188,141.5625 146.2031,141.5156 Q146.2969,141.4688 146.4188,141.4688 Q146.6156,141.4688 146.7656,141.6281 Q146.925,141.7781 146.925,141.9844 Q146.925,142.1906 146.7188,142.4344 Q146.4188,142.7813 145.9406,142.9781 Q145.2938,143.25 144.5156,143.25 Q143.6063,143.25 142.8844,142.875 Q142.2938,142.575 141.8813,141.9375 Q141.4688,141.2906 141.4688,140.5219 L141.4688,139.8281 Q141.4688,139.0313 141.8344,138.3469 Q142.2094,137.6531 142.8656,137.2875 Q143.5219,136.9125 144.2625,136.9125 Q144.7031,136.9125 145.0875,137.0156 Q145.4813,137.1094 145.8094,137.325 Z " fill="#000000"/><text fill="#000000" font-family="sans-serif" font-size="8.4" lengthAdjust="spacing" textLength="76.8" x="156.45" y="143.2781">GreenSpaceMapper</text><line style="stroke:#181818;stroke-width:0.3;" x1="77.7" x2="292.5" y1="149.4" y2="149.4"/><text fill="#000000" font-family="sans-serif" font-size="8.4" lengthAdjust="spacing" textLength="208.8" x="80.7" y="160.8645">-List&lt;GreenSpaceDto&gt; associatedGreenSpacesListDto</text><line style="stroke:#181818;stroke-width:0.3;" x1="77.7" x2="292.5" y1="165.3727" y2="165.3727"/><text fill="#000000" font-family="sans-serif" font-size="8.4" lengthAdjust="spacing" textLength="142.2" x="80.7" y="176.8371">+toDTO(associatedGreenSpacesList)</text><text fill="#000000" font-family="sans-serif" font-size="8.4" lengthAdjust="spacing" textLength="45.6" x="80.7" y="188.0098">-toDTO(obj)</text></g><!--class GreenSpaceDto--><g id="elem_GreenSpaceDto"><rect codeLine="68" fill="#F1F1F1" height="84.6633" id="GreenSpaceDto" rx="1.5" ry="1.5" style="stroke:#181818;stroke-width:0.3;" width="178.8" x="34.5" y="245.4"/><ellipse cx="90.75" cy="255" fill="#ADD1B2" rx="6.6" ry="6.6" style="stroke:#181818;stroke-width:0.6;"/><path d="M92.4094,252.525 Q92.5031,252.3937 92.6156,252.3281 Q92.7281,252.2625 92.8594,252.2625 Q93.0844,252.2625 93.225,252.4219 Q93.3656,252.5719 93.3656,252.9375 L93.3656,253.8094 Q93.3656,254.175 93.225,254.3344 Q93.0844,254.4937 92.8594,254.4937 Q92.6531,254.4937 92.5313,254.3719 Q92.4094,254.2594 92.3438,253.95 Q92.3156,253.7344 92.2031,253.6219 Q92.0063,253.3969 91.6406,253.2656 Q91.275,253.1344 90.9,253.1344 Q90.4406,253.1344 90.0562,253.3312 Q89.6812,253.5281 89.3813,253.9781 Q89.0906,254.4281 89.0906,255.0469 L89.0906,255.7031 Q89.0906,256.4437 89.625,256.9406 Q90.1594,257.4281 91.1156,257.4281 Q91.6781,257.4281 92.0719,257.2781 Q92.3062,257.1844 92.5594,256.9219 Q92.7188,256.7625 92.8031,256.7156 Q92.8969,256.6688 93.0188,256.6688 Q93.2156,256.6688 93.3656,256.8281 Q93.525,256.9781 93.525,257.1844 Q93.525,257.3906 93.3188,257.6344 Q93.0188,257.9813 92.5406,258.1781 Q91.8938,258.45 91.1156,258.45 Q90.2063,258.45 89.4844,258.075 Q88.8938,257.775 88.4813,257.1375 Q88.0688,256.4906 88.0688,255.7219 L88.0688,255.0281 Q88.0688,254.2313 88.4344,253.5469 Q88.8094,252.8531 89.4656,252.4875 Q90.1219,252.1125 90.8625,252.1125 Q91.3031,252.1125 91.6875,252.2156 Q92.0813,252.3094 92.4094,252.525 Z " fill="#000000"/><text fill="#000000" font-family="sans-serif" font-size="8.4" lengthAdjust="spacing" textLength="61.2" x="103.05" y="258.4781">GreenSpaceDto</text><line style="stroke:#181818;stroke-width:0.3;" x1="35.1" x2="212.7" y1="264.6" y2="264.6"/><text fill="#000000" font-family="sans-serif" font-size="8.4" lengthAdjust="spacing" textLength="48.6" x="38.1" y="276.0645">-String name</text><text fill="#000000" font-family="sans-serif" font-size="8.4" lengthAdjust="spacing" textLength="43.8" x="38.1" y="287.2371">-String type</text><text fill="#000000" font-family="sans-serif" font-size="8.4" lengthAdjust="spacing" textLength="31.8" x="38.1" y="298.4098">-int area</text><text fill="#000000" font-family="sans-serif" font-size="8.4" lengthAdjust="spacing" textLength="58.2" x="38.1" y="309.5824">-String address</text><line style="stroke:#181818;stroke-width:0.3;" x1="35.1" x2="212.7" y1="314.0906" y2="314.0906"/><text fill="#000000" font-family="sans-serif" font-size="8.4" lengthAdjust="spacing" textLength="171.6" x="38.1" y="325.5551">+GreenSpaceDto(name, type, area, address)</text></g><!--class ToDoList--><g id="elem_ToDoList"><rect codeLine="77" fill="#F1F1F1" height="51.1453" id="ToDoList" rx="1.5" ry="1.5" style="stroke:#181818;stroke-width:0.3;" width="165.6" x="726.9" y="135.9"/><ellipse cx="790.05" cy="145.5" fill="#ADD1B2" rx="6.6" ry="6.6" style="stroke:#181818;stroke-width:0.6;"/><path d="M791.7094,143.025 Q791.8031,142.8937 791.9156,142.8281 Q792.0281,142.7625 792.1594,142.7625 Q792.3844,142.7625 792.525,142.9219 Q792.6656,143.0719 792.6656,143.4375 L792.6656,144.3094 Q792.6656,144.675 792.525,144.8344 Q792.3844,144.9938 792.1594,144.9938 Q791.9531,144.9938 791.8313,144.8719 Q791.7094,144.7594 791.6438,144.45 Q791.6156,144.2344 791.5031,144.1219 Q791.3063,143.8969 790.9406,143.7656 Q790.575,143.6344 790.2,143.6344 Q789.7406,143.6344 789.3562,143.8312 Q788.9812,144.0281 788.6813,144.4781 Q788.3906,144.9281 788.3906,145.5469 L788.3906,146.2031 Q788.3906,146.9438 788.925,147.4406 Q789.4594,147.9281 790.4156,147.9281 Q790.9781,147.9281 791.3719,147.7781 Q791.6062,147.6844 791.8594,147.4219 Q792.0188,147.2625 792.1031,147.2156 Q792.1969,147.1688 792.3188,147.1688 Q792.5156,147.1688 792.6656,147.3281 Q792.825,147.4781 792.825,147.6844 Q792.825,147.8906 792.6188,148.1344 Q792.3188,148.4813 791.8406,148.6781 Q791.1938,148.95 790.4156,148.95 Q789.5063,148.95 788.7844,148.575 Q788.1938,148.275 787.7813,147.6375 Q787.3688,146.9906 787.3688,146.2219 L787.3688,145.5281 Q787.3688,144.7313 787.7344,144.0469 Q788.1094,143.3531 788.7656,142.9875 Q789.4219,142.6125 790.1625,142.6125 Q790.6031,142.6125 790.9875,142.7156 Q791.3813,142.8094 791.7094,143.025 Z " fill="#000000"/><text fill="#000000" font-family="sans-serif" font-size="8.4" lengthAdjust="spacing" textLength="34.2" x="802.35" y="148.9781">ToDoList</text><line style="stroke:#181818;stroke-width:0.3;" x1="727.5" x2="891.9" y1="155.1" y2="155.1"/><line style="stroke:#181818;stroke-width:0.3;" x1="727.5" x2="891.9" y1="159.9" y2="159.9"/><text fill="#000000" font-family="sans-serif" font-size="8.4" lengthAdjust="spacing" textLength="70.8" x="730.5" y="171.3645">-add(createdTask)</text><text fill="#000000" font-family="sans-serif" font-size="8.4" lengthAdjust="spacing" textLength="158.4" x="730.5" y="182.5371">+addEntry(taskDto, selectedGreenSpace)</text></g><!--class Task--><g id="elem_Task"><rect codeLine="83" fill="#F1F1F1" height="84.6633" id="Task" rx="1.5" ry="1.5" style="stroke:#181818;stroke-width:0.3;" width="324" x="807.9" y="394.5"/><ellipse cx="958.05" cy="404.1" fill="#ADD1B2" rx="6.6" ry="6.6" style="stroke:#181818;stroke-width:0.6;"/><path d="M959.7094,401.625 Q959.8031,401.4938 959.9156,401.4281 Q960.0281,401.3625 960.1594,401.3625 Q960.3844,401.3625 960.525,401.5219 Q960.6656,401.6719 960.6656,402.0375 L960.6656,402.9094 Q960.6656,403.275 960.525,403.4344 Q960.3844,403.5938 960.1594,403.5938 Q959.9531,403.5938 959.8313,403.4719 Q959.7094,403.3594 959.6438,403.05 Q959.6156,402.8344 959.5031,402.7219 Q959.3063,402.4969 958.9406,402.3656 Q958.575,402.2344 958.2,402.2344 Q957.7406,402.2344 957.3562,402.4313 Q956.9812,402.6281 956.6813,403.0781 Q956.3906,403.5281 956.3906,404.1469 L956.3906,404.8031 Q956.3906,405.5438 956.925,406.0406 Q957.4594,406.5281 958.4156,406.5281 Q958.9781,406.5281 959.3719,406.3781 Q959.6062,406.2844 959.8594,406.0219 Q960.0188,405.8625 960.1031,405.8156 Q960.1969,405.7688 960.3187,405.7688 Q960.5156,405.7688 960.6656,405.9281 Q960.825,406.0781 960.825,406.2844 Q960.825,406.4906 960.6188,406.7344 Q960.3187,407.0813 959.8406,407.2781 Q959.1937,407.55 958.4156,407.55 Q957.5062,407.55 956.7844,407.175 Q956.1937,406.875 955.7813,406.2375 Q955.3688,405.5906 955.3688,404.8219 L955.3688,404.1281 Q955.3688,403.3313 955.7344,402.6469 Q956.1094,401.9531 956.7656,401.5875 Q957.4219,401.2125 958.1625,401.2125 Q958.6031,401.2125 958.9875,401.3156 Q959.3812,401.4094 959.7094,401.625 Z " fill="#000000"/><text fill="#000000" font-family="sans-serif" font-size="8.4" lengthAdjust="spacing" textLength="18.6" x="970.35" y="407.5781">Task</text><line style="stroke:#181818;stroke-width:0.3;" x1="808.5" x2="1131.3" y1="413.7" y2="413.7"/><text fill="#000000" font-family="sans-serif" font-size="8.4" lengthAdjust="spacing" textLength="40.8" x="811.5" y="425.1645">-String title</text><text fill="#000000" font-family="sans-serif" font-size="8.4" lengthAdjust="spacing" textLength="69" x="811.5" y="436.3371">-String description</text><text fill="#000000" font-family="sans-serif" font-size="8.4" lengthAdjust="spacing" textLength="81" x="811.5" y="447.5098">-int expectedDuration</text><text fill="#000000" font-family="sans-serif" font-size="8.4" lengthAdjust="spacing" textLength="86.4" x="811.5" y="458.6824">-Calendar startingDate</text><line style="stroke:#181818;stroke-width:0.3;" x1="808.5" x2="1131.3" y1="463.1906" y2="463.1906"/><text fill="#000000" font-family="sans-serif" font-size="8.4" lengthAdjust="spacing" textLength="316.8" x="811.5" y="474.6551">+Task(title, description, degreeOfUrgency, expectedDuration, selectedGreenSpace)</text></g><!--class DegreeOfUrgency--><g id="elem_DegreeOfUrgency"><rect codeLine="92" fill="#F1F1F1" height="62.318" id="DegreeOfUrgency" rx="1.5" ry="1.5" style="stroke:#181818;stroke-width:0.3;" width="87.6" x="875.1" y="560.4"/><ellipse cx="884.1" cy="570" fill="#EB937F" rx="6.6" ry="6.6" style="stroke:#181818;stroke-width:0.6;"/><path d="M883.4156,570.4781 L883.4156,571.9781 L886.0125,571.9781 L886.0125,571.425 Q886.0125,571.0594 886.1531,570.9 Q886.3031,570.7406 886.5281,570.7406 Q886.7531,570.7406 886.8938,570.9 Q887.0344,571.0594 887.0344,571.425 L887.0344,573 L882.2344,573 Q881.8594,573 881.7,572.8594 Q881.55,572.7188 881.55,572.4844 Q881.55,572.2594 881.7094,572.1188 Q881.8688,571.9781 882.2344,571.9781 L882.3938,571.9781 L882.3938,567.9844 L882.2344,567.9844 Q881.8594,567.9844 881.7,567.8438 Q881.55,567.7031 881.55,567.4688 Q881.55,567.2438 881.7,567.1031 Q881.8594,566.9625 882.2344,566.9625 L886.8094,566.9625 L886.8094,568.5188 Q886.8094,568.8844 886.6687,569.0437 Q886.5375,569.1938 886.3031,569.1938 Q886.0781,569.1938 885.9375,569.0437 Q885.7969,568.8844 885.7969,568.5188 L885.7969,567.9844 L883.4156,567.9844 L883.4156,569.4563 L884.3063,569.4563 Q884.3063,569.0625 884.3813,568.95 Q884.5406,568.7063 884.8219,568.7063 Q885.0469,568.7063 885.1875,568.8656 Q885.3281,569.0156 885.3281,569.3813 L885.3281,570.5625 Q885.3281,570.8906 885.2531,571.0031 Q885.0938,571.2375 884.8219,571.2375 Q884.5406,571.2375 884.3813,570.9938 Q884.3063,570.8813 884.3063,570.4781 L883.4156,570.4781 Z " fill="#000000"/><text fill="#000000" font-family="sans-serif" font-size="8.4" lengthAdjust="spacing" textLength="68.4" x="892.5" y="573.4781">DegreeOfUrgency</text><line style="stroke:#181818;stroke-width:0.3;" x1="875.7" x2="962.1" y1="579.6" y2="579.6"/><text fill="#000000" font-family="sans-serif" font-size="8.4" lengthAdjust="spacing" textLength="15" x="878.7" y="591.0645">Low</text><text fill="#000000" font-family="sans-serif" font-size="8.4" lengthAdjust="spacing" textLength="29.4" x="878.7" y="602.2371">Medium</text><text fill="#000000" font-family="sans-serif" font-size="8.4" lengthAdjust="spacing" textLength="16.8" x="878.7" y="613.4098">High</text><line style="stroke:#181818;stroke-width:0.3;" x1="875.7" x2="962.1" y1="617.918" y2="617.918"/></g><!--class GSTaskStatus--><g id="elem_GSTaskStatus"><rect codeLine="99" fill="#F1F1F1" height="95.8359" id="GSTaskStatus" rx="1.5" ry="1.5" style="stroke:#181818;stroke-width:0.3;" width="73.8" x="984" y="543.6"/><ellipse cx="993" cy="553.2" fill="#EB937F" rx="6.6" ry="6.6" style="stroke:#181818;stroke-width:0.6;"/><path d="M992.3156,553.6781 L992.3156,555.1781 L994.9125,555.1781 L994.9125,554.625 Q994.9125,554.2594 995.0531,554.1 Q995.2031,553.9406 995.4281,553.9406 Q995.6531,553.9406 995.7937,554.1 Q995.9344,554.2594 995.9344,554.625 L995.9344,556.2 L991.1344,556.2 Q990.7594,556.2 990.6,556.0594 Q990.45,555.9187 990.45,555.6844 Q990.45,555.4594 990.6094,555.3188 Q990.7688,555.1781 991.1344,555.1781 L991.2937,555.1781 L991.2937,551.1844 L991.1344,551.1844 Q990.7594,551.1844 990.6,551.0437 Q990.45,550.9031 990.45,550.6687 Q990.45,550.4438 990.6,550.3031 Q990.7594,550.1625 991.1344,550.1625 L995.7094,550.1625 L995.7094,551.7188 Q995.7094,552.0844 995.5687,552.2438 Q995.4375,552.3938 995.2031,552.3938 Q994.9781,552.3938 994.8375,552.2438 Q994.6969,552.0844 994.6969,551.7188 L994.6969,551.1844 L992.3156,551.1844 L992.3156,552.6563 L993.2063,552.6563 Q993.2063,552.2625 993.2813,552.15 Q993.4406,551.9063 993.7219,551.9063 Q993.9469,551.9063 994.0875,552.0656 Q994.2281,552.2156 994.2281,552.5813 L994.2281,553.7625 Q994.2281,554.0906 994.1531,554.2031 Q993.9938,554.4375 993.7219,554.4375 Q993.4406,554.4375 993.2813,554.1938 Q993.2063,554.0813 993.2063,553.6781 L992.3156,553.6781 Z " fill="#000000"/><text fill="#000000" font-family="sans-serif" font-size="8.4" lengthAdjust="spacing" textLength="54.6" x="1001.4" y="556.6781">GSTaskStatus</text><line style="stroke:#181818;stroke-width:0.3;" x1="984.6" x2="1057.2" y1="562.8" y2="562.8"/><text fill="#000000" font-family="sans-serif" font-size="8.4" lengthAdjust="spacing" textLength="31.2" x="987.6" y="574.2645">Pending</text><text fill="#000000" font-family="sans-serif" font-size="8.4" lengthAdjust="spacing" textLength="40.2" x="987.6" y="585.4371">Processed</text><text fill="#000000" font-family="sans-serif" font-size="8.4" lengthAdjust="spacing" textLength="31.2" x="987.6" y="596.6098">Planned</text><text fill="#000000" font-family="sans-serif" font-size="8.4" lengthAdjust="spacing" textLength="40.8" x="987.6" y="607.7824">Postponed</text><text fill="#000000" font-family="sans-serif" font-size="8.4" lengthAdjust="spacing" textLength="36" x="987.6" y="618.9551">Canceled</text><text fill="#000000" font-family="sans-serif" font-size="8.4" lengthAdjust="spacing" textLength="20.4" x="987.6" y="630.1277">Done</text><line style="stroke:#181818;stroke-width:0.3;" x1="984.6" x2="1057.2" y1="634.6359" y2="634.6359"/></g><!--class TaskMapper--><g id="elem_TaskMapper"><rect codeLine="109" fill="#F1F1F1" height="39.9727" id="TaskMapper" rx="1.5" ry="1.5" style="stroke:#181818;stroke-width:0.3;" width="161.4" x="729" y="267.6"/><ellipse cx="783.45" cy="277.2" fill="#ADD1B2" rx="6.6" ry="6.6" style="stroke:#181818;stroke-width:0.6;"/><path d="M785.1094,274.725 Q785.2031,274.5938 785.3156,274.5281 Q785.4281,274.4625 785.5594,274.4625 Q785.7844,274.4625 785.925,274.6219 Q786.0656,274.7719 786.0656,275.1375 L786.0656,276.0094 Q786.0656,276.375 785.925,276.5344 Q785.7844,276.6937 785.5594,276.6937 Q785.3531,276.6937 785.2312,276.5719 Q785.1094,276.4594 785.0437,276.15 Q785.0156,275.9344 784.9031,275.8219 Q784.7063,275.5969 784.3406,275.4656 Q783.975,275.3344 783.6,275.3344 Q783.1406,275.3344 782.7563,275.5313 Q782.3813,275.7281 782.0813,276.1781 Q781.7906,276.6281 781.7906,277.2469 L781.7906,277.9031 Q781.7906,278.6438 782.325,279.1406 Q782.8594,279.6281 783.8156,279.6281 Q784.3781,279.6281 784.7719,279.4781 Q785.0063,279.3844 785.2594,279.1219 Q785.4187,278.9625 785.5031,278.9156 Q785.5969,278.8688 785.7188,278.8688 Q785.9156,278.8688 786.0656,279.0281 Q786.225,279.1781 786.225,279.3844 Q786.225,279.5906 786.0188,279.8344 Q785.7188,280.1813 785.2406,280.3781 Q784.5938,280.65 783.8156,280.65 Q782.9063,280.65 782.1844,280.275 Q781.5938,279.975 781.1813,279.3375 Q780.7688,278.6906 780.7688,277.9219 L780.7688,277.2281 Q780.7688,276.4313 781.1344,275.7469 Q781.5094,275.0531 782.1656,274.6875 Q782.8219,274.3125 783.5625,274.3125 Q784.0031,274.3125 784.3875,274.4156 Q784.7813,274.5094 785.1094,274.725 Z " fill="#000000"/><text fill="#000000" font-family="sans-serif" font-size="8.4" lengthAdjust="spacing" textLength="47.4" x="795.75" y="280.6781">TaskMapper</text><line style="stroke:#181818;stroke-width:0.3;" x1="729.6" x2="889.8" y1="286.8" y2="286.8"/><line style="stroke:#181818;stroke-width:0.3;" x1="729.6" x2="889.8" y1="291.6" y2="291.6"/><text fill="#000000" font-family="sans-serif" font-size="8.4" lengthAdjust="spacing" textLength="154.2" x="732.6" y="303.0645">+toModel(taskDto, selectedGreenSpace)</text></g><!--class TaskDto--><g id="elem_TaskDto"><rect codeLine="114" fill="#F1F1F1" height="140.5266" id="TaskDto" rx="1.5" ry="1.5" style="stroke:#181818;stroke-width:0.3;" width="337.2" x="449.7" y="366.6"/><ellipse cx="599.85" cy="376.2" fill="#ADD1B2" rx="6.6" ry="6.6" style="stroke:#181818;stroke-width:0.6;"/><path d="M601.5094,373.725 Q601.6031,373.5938 601.7156,373.5281 Q601.8281,373.4625 601.9594,373.4625 Q602.1844,373.4625 602.325,373.6219 Q602.4656,373.7719 602.4656,374.1375 L602.4656,375.0094 Q602.4656,375.375 602.325,375.5344 Q602.1844,375.6937 601.9594,375.6937 Q601.7531,375.6937 601.6313,375.5719 Q601.5094,375.4594 601.4438,375.15 Q601.4156,374.9344 601.3031,374.8219 Q601.1062,374.5969 600.7406,374.4656 Q600.375,374.3344 600,374.3344 Q599.5406,374.3344 599.1563,374.5313 Q598.7813,374.7281 598.4812,375.1781 Q598.1906,375.6281 598.1906,376.2469 L598.1906,376.9031 Q598.1906,377.6438 598.725,378.1406 Q599.2594,378.6281 600.2156,378.6281 Q600.7781,378.6281 601.1719,378.4781 Q601.4063,378.3844 601.6594,378.1219 Q601.8188,377.9625 601.9031,377.9156 Q601.9969,377.8688 602.1188,377.8688 Q602.3156,377.8688 602.4656,378.0281 Q602.625,378.1781 602.625,378.3844 Q602.625,378.5906 602.4187,378.8344 Q602.1188,379.1813 601.6406,379.3781 Q600.9938,379.65 600.2156,379.65 Q599.3063,379.65 598.5844,379.275 Q597.9938,378.975 597.5813,378.3375 Q597.1687,377.6906 597.1687,376.9219 L597.1687,376.2281 Q597.1687,375.4313 597.5344,374.7469 Q597.9094,374.0531 598.5656,373.6875 Q599.2219,373.3125 599.9625,373.3125 Q600.4031,373.3125 600.7875,373.4156 Q601.1813,373.5094 601.5094,373.725 Z " fill="#000000"/><text fill="#000000" font-family="sans-serif" font-size="8.4" lengthAdjust="spacing" textLength="31.8" x="612.15" y="379.6781">TaskDto</text><line style="stroke:#181818;stroke-width:0.3;" x1="450.3" x2="786.3" y1="385.8" y2="385.8"/><text fill="#000000" font-family="sans-serif" font-size="8.4" lengthAdjust="spacing" textLength="40.8" x="453.3" y="397.2645">-String title</text><text fill="#000000" font-family="sans-serif" font-size="8.4" lengthAdjust="spacing" textLength="69" x="453.3" y="408.4371">-String description</text><text fill="#000000" font-family="sans-serif" font-size="8.4" lengthAdjust="spacing" textLength="94.8" x="453.3" y="419.6098">-String degreeOfUrgency</text><text fill="#000000" font-family="sans-serif" font-size="8.4" lengthAdjust="spacing" textLength="81" x="453.3" y="430.7824">-int expectedDuration</text><text fill="#000000" font-family="sans-serif" font-size="8.4" lengthAdjust="spacing" textLength="86.4" x="453.3" y="441.9551">-Calendar startingDate</text><line style="stroke:#181818;stroke-width:0.3;" x1="450.3" x2="786.3" y1="446.4633" y2="446.4633"/><text fill="#000000" font-family="sans-serif" font-size="8.4" lengthAdjust="spacing" textLength="330" x="453.3" y="457.9277">+TaskDto(title, description, degreeOfUrgency, expectedDuration, selectedGreenSpace)</text><text fill="#000000" font-family="sans-serif" font-size="8.4" lengthAdjust="spacing" textLength="39" x="453.3" y="469.1004">+getTitle()</text><text fill="#000000" font-family="sans-serif" font-size="8.4" lengthAdjust="spacing" textLength="65.4" x="453.3" y="480.273">+getDescription()</text><text fill="#000000" font-family="sans-serif" font-size="8.4" lengthAdjust="spacing" textLength="91.2" x="453.3" y="491.4457">+getDegreeOfUrgency()</text><text fill="#000000" font-family="sans-serif" font-size="8.4" lengthAdjust="spacing" textLength="90" x="453.3" y="502.6184">+getExpectedDuration()</text></g><!--reverse link Task to DegreeOfUrgency--><g id="link_Task_DegreeOfUrgency"><path codeLine="128" d="M953.0091,488.277 C944.5131,513.867 936.852,536.94 929.124,560.208 " fill="none" id="Task-backto-DegreeOfUrgency" style="stroke:#181818;stroke-width:0.6;"/><ellipse cx="954.5216" cy="483.7215" fill="#FFFFFF" rx="4.8" ry="4.8" style="stroke:#181818;stroke-width:0.6;"/><line style="stroke:#181818;stroke-width:0.6;" x1="953.0091" x2="956.034" y1="488.277" y2="479.166"/><line style="stroke:#181818;stroke-width:0.6;" x1="949.9661" x2="959.077" y1="482.209" y2="485.2339"/></g><!--reverse link Task to GSTaskStatus--><g id="link_Task_GSTaskStatus"><path codeLine="129" d="M986.7927,488.2764 C993.4047,508.1784 998.31,522.96 1005.144,543.546 " fill="none" id="Task-backto-GSTaskStatus" style="stroke:#181818;stroke-width:0.6;"/><ellipse cx="985.2794" cy="483.7212" fill="#FFFFFF" rx="4.8" ry="4.8" style="stroke:#181818;stroke-width:0.6;"/><line style="stroke:#181818;stroke-width:0.6;" x1="986.7927" x2="983.766" y1="488.2764" y2="479.166"/><line style="stroke:#181818;stroke-width:0.6;" x1="980.7242" x2="989.8345" y1="485.2345" y2="482.2078"/></g><!--link Repositories to Repositories--><g id="link_Repositories_Repositories"><path codeLine="131" d="M670.53,29.964 C682.74,31.122 691.5,34.734 691.5,40.8 C691.5,46.866 686.3239,50.1381 674.1139,51.2961 " fill="none" id="Repositories-to-Repositories" style="stroke:#181818;stroke-width:0.6;"/><polygon fill="#181818" points="670.53,51.636,676.1325,53.5154,673.5166,51.3528,675.6793,48.7369,670.53,51.636" style="stroke:#181818;stroke-width:0.6;"/><text fill="#000000" font-family="sans-serif" font-size="7.8" lengthAdjust="spacing" textLength="29.4" x="695.1" y="44.117">instance</text></g><!--link ApplicationSession to ApplicationSession--><g id="link_ApplicationSession_ApplicationSession"><path codeLine="132" d="M447.696,150.258 C459.6,150.918 468.6,154.632 468.6,161.4 C468.6,168.168 463.1945,171.6827 451.2905,172.3427 " fill="none" id="ApplicationSession-to-ApplicationSession" style="stroke:#181818;stroke-width:0.6;"/><polygon fill="#181818" points="447.696,172.542,453.2206,174.6394,450.6914,172.3759,452.9549,169.8467,447.696,172.542" style="stroke:#181818;stroke-width:0.6;"/><text fill="#000000" font-family="sans-serif" font-size="7.8" lengthAdjust="spacing" textLength="29.4" x="472.2" y="164.717">instance</text></g><!--link AddEntryToDoUI to AddEntryToDoController--><g id="link_AddEntryToDoUI_AddEntryToDoController"><path codeLine="134" d="M86.418,40.8 C120.816,40.8 164.298,40.8 164.298,40.8 C164.298,40.8 283.302,40.8 283.302,40.8 C283.302,40.8 311.46,40.8 342.162,40.8 " fill="none" id="AddEntryToDoUI-to-AddEntryToDoController" style="stroke:#181818;stroke-width:0.6;stroke-dasharray:7.0,7.0;"/><polygon fill="#181818" points="345.762,40.8,340.362,38.4,342.762,40.8,340.362,43.2,345.762,40.8" style="stroke:#181818;stroke-width:0.6;"/></g><!--link AddEntryToDoUI to GreenSpaceDto--><g id="link_AddEntryToDoUI_GreenSpaceDto"><path codeLine="135" d="M47.166,55.296 C52.302,93.624 66.3,198 66.3,198 C66.3,198 79.8917,219.0247 94.8317,242.1367 " fill="none" id="AddEntryToDoUI-to-GreenSpaceDto" style="stroke:#181818;stroke-width:0.6;stroke-dasharray:7.0,7.0;"/><polygon fill="#181818" points="96.786,245.16,95.8701,239.3221,95.1574,242.6406,91.8389,241.9279,96.786,245.16" style="stroke:#181818;stroke-width:0.6;"/></g><!--link AddEntryToDoUI to TaskDto--><g id="link_AddEntryToDoUI_TaskDto"><path codeLine="136" d="M43.83,55.26 C38.97,101.178 23.7,245.4 23.7,245.4 C23.7,245.4 23.7,330 23.7,330 C23.7,330 270.1701,374.019 445.9581,405.417 " fill="none" id="AddEntryToDoUI-to-TaskDto" style="stroke:#181818;stroke-width:0.6;stroke-dasharray:7.0,7.0;"/><polygon fill="#181818" points="449.502,406.05,444.6081,402.7379,446.5487,405.5225,443.7641,407.4631,449.502,406.05" style="stroke:#181818;stroke-width:0.6;"/></g><!--link AddEntryToDoController to Repositories--><g id="link_AddEntryToDoController_Repositories"><path codeLine="138" d="M458.802,40.8 C487.548,40.8 518.88,40.8 548.028,40.8 " fill="none" id="AddEntryToDoController-to-Repositories" style="stroke:#181818;stroke-width:0.6;stroke-dasharray:7.0,7.0;"/><polygon fill="#181818" points="551.628,40.8,546.228,38.4,548.628,40.8,546.228,43.2,551.628,40.8" style="stroke:#181818;stroke-width:0.6;"/><text fill="#000000" font-family="sans-serif" font-size="7.8" lengthAdjust="spacing" textLength="40.2" x="485.1" y="36.617">repositories</text></g><!--link Repositories to GreenSpaceRepository--><g id="link_Repositories_GreenSpaceRepository"><path codeLine="140" d="M611.1,77.55 C611.1,92.508 611.1,106.224 611.1,121.176 " fill="none" id="Repositories-to-GreenSpaceRepository" style="stroke:#181818;stroke-width:0.6;"/><polygon fill="#181818" points="611.1,124.776,613.5,119.376,611.1,121.776,608.7,119.376,611.1,124.776" style="stroke:#181818;stroke-width:0.6;"/><text fill="#000000" font-family="sans-serif" font-size="7.8" lengthAdjust="spacing" textLength="4.2" x="606.6572" y="118.1619">1</text></g><!--link Repositories to ToDoList--><g id="link_Repositories_ToDoList"><path codeLine="141" d="M670.686,77.226 C702.162,96.15 736.9304,117.0536 765.1844,134.0336 " fill="none" id="Repositories-to-ToDoList" style="stroke:#181818;stroke-width:0.6;"/><polygon fill="#181818" points="768.27,135.888,764.8778,131.0493,765.6986,134.3427,762.4053,135.1635,768.27,135.888" style="stroke:#181818;stroke-width:0.6;"/><text fill="#000000" font-family="sans-serif" font-size="7.8" lengthAdjust="spacing" textLength="4.2" x="757.1324" y="129.2285">1</text></g><!--link AddEntryToDoController to GreenSpaceRepository--><g id="link_AddEntryToDoController_GreenSpaceRepository"><path codeLine="143" d="M432.144,77.544 C444.63,92.67 456.3,106.8 456.3,106.8 C456.3,106.8 480.7049,115.3163 512.7509,126.4943 " fill="none" id="AddEntryToDoController-to-GreenSpaceRepository" style="stroke:#181818;stroke-width:0.6;stroke-dasharray:7.0,7.0;"/><polygon fill="#181818" points="516.15,127.68,511.8417,123.6354,513.3174,126.6919,510.2608,128.1676,516.15,127.68" style="stroke:#181818;stroke-width:0.6;"/><text fill="#000000" font-family="sans-serif" font-size="7.8" lengthAdjust="spacing" textLength="76.8" x="456.9" y="104.417">greenSpaceRepostory</text></g><!--link AddEntryToDoController to ToDoList--><g id="link_AddEntryToDoController_ToDoList"><path codeLine="144" d="M458.874,56.406 C549.39,80.418 716.7,124.8 716.7,124.8 C716.7,124.8 726.0145,128.4091 742.0045,134.5951 " fill="none" id="AddEntryToDoController-to-ToDoList" style="stroke:#181818;stroke-width:0.6;stroke-dasharray:7.0,7.0;"/><polygon fill="#181818" points="745.362,135.894,741.1917,131.7073,742.5641,134.8116,739.4598,136.184,745.362,135.894" style="stroke:#181818;stroke-width:0.6;"/><text fill="#000000" font-family="sans-serif" font-size="7.8" lengthAdjust="spacing" textLength="28.8" x="648.9" y="104.417">toDoList</text></g><!--link AddEntryToDoController to ApplicationSession--><g id="link_AddEntryToDoController_ApplicationSession"><path codeLine="145" d="M402.3,77.55 C402.3,96.354 402.3,115.278 402.3,132.15 " fill="none" id="AddEntryToDoController-to-ApplicationSession" style="stroke:#181818;stroke-width:0.6;stroke-dasharray:7.0,7.0;"/><polygon fill="#181818" points="402.3,135.75,404.7,130.35,402.3,132.75,399.9,130.35,402.3,135.75" style="stroke:#181818;stroke-width:0.6;"/></g><!--link AddEntryToDoController to UserSession--><g id="link_AddEntryToDoController_UserSession"><path codeLine="146" d="M378.15,77.496 C363.072,100.038 346.5,124.8 346.5,124.8 C346.5,124.8 341.5319,220.7628 339.2999,263.9268 " fill="none" id="AddEntryToDoController-to-UserSession" style="stroke:#181818;stroke-width:0.6;stroke-dasharray:7.0,7.0;"/><polygon fill="#181818" points="339.114,267.522,341.7897,262.2531,339.2689,264.526,336.9961,262.0053,339.114,267.522" style="stroke:#181818;stroke-width:0.6;"/></g><!--link AddEntryToDoController to GreenSpaceMapper--><g id="link_AddEntryToDoController_GreenSpaceMapper"><path codeLine="147" d="M345.798,72.462 C313.494,90.216 276.2866,110.6694 244.0966,128.3694 " fill="none" id="AddEntryToDoController-to-GreenSpaceMapper" style="stroke:#181818;stroke-width:0.6;stroke-dasharray:7.0,7.0;"/><polygon fill="#181818" points="240.942,130.104,246.8302,129.6052,243.5708,128.6585,244.5175,125.3991,240.942,130.104" style="stroke:#181818;stroke-width:0.6;"/></g><!--link ApplicationSession to UserSession--><g id="link_ApplicationSession_UserSession"><path codeLine="149" d="M381.792,186.948 C370.158,201.096 357.9,216 357.9,216 C357.9,216 350.3879,242.97 344.5259,264.018 " fill="none" id="ApplicationSession-to-UserSession" style="stroke:#181818;stroke-width:0.6;"/><polygon fill="#181818" points="343.56,267.486,347.3208,262.9279,344.3649,264.596,342.6968,261.6401,343.56,267.486" style="stroke:#181818;stroke-width:0.6;"/><text fill="#000000" font-family="sans-serif" font-size="7.8" lengthAdjust="spacing" textLength="43.2" x="358.5" y="225.017">userSession</text><text fill="#000000" font-family="sans-serif" font-size="7.8" lengthAdjust="spacing" textLength="4.2" x="340.0005" y="260.9158">1</text></g><!--link GreenSpaceRepository to GreenSpace--><g id="link_GreenSpaceRepository_GreenSpace"><path codeLine="151" d="M580.818,198.108 C531.552,256.842 439.5,366.6 439.5,366.6 C439.5,366.6 429.165,473.9566 422.823,539.8246 " fill="none" id="GreenSpaceRepository-to-GreenSpace" style="stroke:#181818;stroke-width:0.6;"/><polygon fill="#181818" points="422.478,543.408,425.3845,538.2629,422.7655,540.4218,420.6066,537.8028,422.478,543.408" style="stroke:#181818;stroke-width:0.6;"/><text fill="#000000" font-family="sans-serif" font-size="7.8" lengthAdjust="spacing" textLength="4.2" x="572.6714" y="211.6133">1</text><text fill="#000000" font-family="sans-serif" font-size="7.8" lengthAdjust="spacing" textLength="3" x="419.7521" y="536.8938">*</text></g><!--link ToDoList to Task--><g id="link_ToDoList_Task"><path codeLine="152" d="M837.066,187.02 C863.928,211.59 900.9,245.4 900.9,245.4 C900.9,245.4 933.2217,334.7806 953.5317,390.9406 " fill="none" id="ToDoList-to-Task" style="stroke:#181818;stroke-width:0.6;"/><polygon fill="#181818" points="954.756,394.326,955.1765,388.4317,953.7357,391.5048,950.6626,390.0641,954.756,394.326" style="stroke:#181818;stroke-width:0.6;"/><text fill="#000000" font-family="sans-serif" font-size="7.8" lengthAdjust="spacing" textLength="4.2" x="836.8928" y="200.3353">1</text><text fill="#000000" font-family="sans-serif" font-size="7.8" lengthAdjust="spacing" textLength="3" x="950.0396" y="387.6427">*</text></g><!--link Task to GreenSpace--><g id="link_Task_GreenSpace"><path codeLine="154" d="M866.502,479.19 C829.926,493.974 797.7,507 797.7,507 C797.7,507 566.789,558.0685 466.289,580.2985 " fill="none" id="Task-to-GreenSpace" style="stroke:#181818;stroke-width:0.6;"/><polygon fill="#181818" points="462.774,581.076,468.5649,582.2531,465.7032,580.4281,467.5282,577.5664,462.774,581.076" style="stroke:#181818;stroke-width:0.6;"/><text fill="#000000" font-family="sans-serif" font-size="7.8" lengthAdjust="spacing" textLength="3" x="852.6844" y="492.5101">*</text><text fill="#000000" font-family="sans-serif" font-size="7.8" lengthAdjust="spacing" textLength="4.2" x="467.398" y="577.7717">1</text></g><!--link ToDoList to TaskMapper--><g id="link_ToDoList_TaskMapper"><path codeLine="156" d="M809.7,187.014 C809.7,210.69 809.7,242.142 809.7,263.868 " fill="none" id="ToDoList-to-TaskMapper" style="stroke:#181818;stroke-width:0.6;stroke-dasharray:7.0,7.0;"/><polygon fill="#181818" points="809.7,267.468,812.1,262.068,809.7,264.468,807.3,262.068,809.7,267.468" style="stroke:#181818;stroke-width:0.6;"/></g><!--link TaskMapper to TaskDto--><g id="link_TaskMapper_TaskDto"><path codeLine="158" d="M784.284,307.938 C764.658,323.106 739.0905,342.8586 711.3045,364.3326 " fill="none" id="TaskMapper-to-TaskDto" style="stroke:#181818;stroke-width:0.6;stroke-dasharray:7.0,7.0;"/><polygon fill="#181818" points="708.456,366.534,714.1963,365.1309,710.8297,364.6995,711.2611,361.3329,708.456,366.534" style="stroke:#181818;stroke-width:0.6;"/></g><!--link TaskMapper to Task--><g id="link_TaskMapper_Task"><path codeLine="159" d="M830.976,307.938 C854.76,329.904 891.3371,363.6657 922.0451,392.0217 " fill="none" id="TaskMapper-to-Task" style="stroke:#181818;stroke-width:0.6;stroke-dasharray:7.0,7.0;"/><polygon fill="#181818" points="924.69,394.464,922.3509,389.0373,922.486,392.4288,919.0945,392.5638,924.69,394.464" style="stroke:#181818;stroke-width:0.6;"/></g><!--link GreenSpaceMapper to GreenSpaceDto--><g id="link_GreenSpaceMapper_GreenSpaceDto"><path codeLine="161" d="M170.13,192.6 C162.378,208.446 154.384,224.7902 145.96,242.0102 " fill="none" id="GreenSpaceMapper-to-GreenSpaceDto" style="stroke:#181818;stroke-width:0.6;stroke-dasharray:7.0,7.0;"/><polygon fill="#181818" points="144.378,245.244,148.9068,241.448,145.6963,242.5492,144.5951,239.3387,144.378,245.244" style="stroke:#181818;stroke-width:0.6;"/></g><!--link GreenSpaceMapper to GreenSpace--><g id="link_GreenSpaceMapper_GreenSpace"><path codeLine="162" d="M201.75,192.678 C241.842,266.562 342.2569,451.6119 390.3709,540.2739 " fill="none" id="GreenSpaceMapper-to-GreenSpace" style="stroke:#181818;stroke-width:0.6;stroke-dasharray:7.0,7.0;"/><polygon fill="#181818" points="392.088,543.438,391.6218,537.5471,390.6571,540.8012,387.403,539.8365,392.088,543.438" style="stroke:#181818;stroke-width:0.6;"/></g><!--SRC=[hLRDJjmm4BxxAImkXB9RjTUgGa8RH950L0qyW4c6h8jZHxOZkgtwxXrddSJUU1TGuO8zFzzyCvxCxB5vuh9bcZMqKLALQwqQe5PtG2PDoyedLaDXDmAeXj8oMOlGmAnPfPwvhEaZ4oRK22x1RbgWhH8RTo772QNILf70gnJCc7DhDN_eB5oLIXRyDz1FX1mBUBJKAgfvlRQqueuELvAGteUULzM5j7fpft9rVqN-4F8tfLefF2aXGAC9nR_JFUhinAjhi9SQG1PO332Xk0217A2Qr1aVrCo3PfQPfzogau1EsmfUCaU-06DS3WCLOr5SEkmhYMU9Y46yLQSrIEkTiW3o1xJASAiq1-F1bf4mX9cWwPVOCv7mgD-44AvKrzpOaCEz0RsR3vewyKN3k0XjK_WZRmVyTR8ue_LKVgVRPuR0gkGiUf39OVQGu4Yz-9e9oYFH0jiKEr-o1cA9QsqluT9Ife751jWT6aiL2slJz8NobDRCJBNpP1DiRbZRZiqygmfste72eDO7iog_kyts6fvuzAsPUlYPfEBWthSsfp5wvk0MFSIYzrmCrW6VeJT7AcYIbMYCQTtXnxZl2rrGC-k041QjThEpt8gTz2emfUPjFvccBE5NsoFddMQ1QiK4o8ffzzrhY-uvalJqNBoi3x08GTt5VG-tZ_Uw1bbk5ZFmlOc0x1gQn-u-fMlrtF-_WOftJN_yXdDszBei79y2nrCt39ZlI1qfRyzQOQSOgBOtmQGSpihOLWstbPixmbzo5CVrZNhPDUMDga2yuO4I7VYgDneLSMt- -m5TpxxZ6qxprs660pcVq6Dn52TKNUn4t8vdHvgUBfUpDXaLKIUGS7tGvLcqJd2xSBzgo7pdEUk4DF0XyKgd7y_sRV9TGxICfrB2O6WNaiPqqNQIqU6gd6L-zFaelTPIXkECsXizIc52GnfrBEvZ740PGg6d7Q8UC4_yE3bW7UxyLsNYl_1aF_ZQ19Z8kGiYa6H5d4_l-o5y03Bc7Uhx8RxjPNTTpjwDJ7v3amoKftFKFmbnI3HGnItvWWdv1m00]--></g></svg>