<?xml version="1.0" encoding="us-ascii" standalone="no"?><svg xmlns="http://www.w3.org/2000/svg" xmlns:xlink="http://www.w3.org/1999/xlink" contentStyleType="text/css" height="751.1px" preserveAspectRatio="none" style="width:1112px;height:751px;background:#FFFFFF;" version="1.1" viewBox="0 0 1112 751" width="1113px" zoomAndPan="magnify"><defs/><g><!--class AddEntryToDoUI--><g id="elem_AddEntryToDoUI"><rect codeLine="11" fill="#F1F1F1" height="33.6" id="AddEntryToDoUI" rx="1.75" ry="1.75" style="stroke:#181818;stroke-width:0.3499999999999999;" width="95.9" x="52.85" y="30.8"/><ellipse cx="63.35" cy="42" fill="#ADD1B2" rx="7.7" ry="7.7" style="stroke:#181818;stroke-width:0.6999999999999998;"/><path d="M65.2859,39.1125 Q65.3953,38.9594 65.5266,38.8828 Q65.6578,38.8062 65.8109,38.8062 Q66.0734,38.8062 66.2375,38.9922 Q66.4016,39.1672 66.4016,39.5937 L66.4016,40.6109 Q66.4016,41.0375 66.2375,41.2234 Q66.0734,41.4094 65.8109,41.4094 Q65.5703,41.4094 65.4281,41.2672 Q65.2859,41.1359 65.2094,40.775 Q65.1766,40.5234 65.0453,40.3922 Q64.8156,40.1297 64.3891,39.9766 Q63.9625,39.8234 63.525,39.8234 Q62.9891,39.8234 62.5406,40.0531 Q62.1031,40.2828 61.7531,40.8078 Q61.4141,41.3328 61.4141,42.0547 L61.4141,42.8203 Q61.4141,43.6844 62.0375,44.2641 Q62.6609,44.8328 63.7766,44.8328 Q64.4328,44.8328 64.8922,44.6578 Q65.1656,44.5484 65.4609,44.2422 Q65.6469,44.0562 65.7453,44.0016 Q65.8547,43.9469 65.9969,43.9469 Q66.2266,43.9469 66.4016,44.1328 Q66.5875,44.3078 66.5875,44.5484 Q66.5875,44.7891 66.3469,45.0734 Q65.9969,45.4781 65.4391,45.7078 Q64.6844,46.025 63.7766,46.025 Q62.7156,46.025 61.8734,45.5875 Q61.1844,45.2375 60.7031,44.4937 Q60.2219,43.7391 60.2219,42.8422 L60.2219,42.0328 Q60.2219,41.1031 60.6484,40.3047 Q61.0859,39.4953 61.8516,39.0687 Q62.6172,38.6312 63.4812,38.6312 Q63.9953,38.6312 64.4437,38.7516 Q64.9031,38.8609 65.2859,39.1125 Z " fill="#000000"/><text fill="#000000" font-family="sans-serif" font-size="9.8" lengthAdjust="spacing" textLength="73.5" x="73.15" y="46.0578">AddEntryToDoUI</text><line style="stroke:#181818;stroke-width:0.3499999999999999;" x1="53.55" x2="148.05" y1="53.2" y2="53.2"/><line style="stroke:#181818;stroke-width:0.3499999999999999;" x1="53.55" x2="148.05" y1="58.8" y2="58.8"/></g><!--class AddEntryToDoController--><g id="elem_AddEntryToDoController"><rect codeLine="16" fill="#F1F1F1" height="85.7391" id="AddEntryToDoController" rx="1.75" ry="1.75" style="stroke:#181818;stroke-width:0.3499999999999999;" width="131.6" x="549.5" y="4.9"/><ellipse cx="560.315" cy="16.1" fill="#ADD1B2" rx="7.7" ry="7.7" style="stroke:#181818;stroke-width:0.6999999999999998;"/><path d="M562.2509,13.2125 Q562.3603,13.0594 562.4916,12.9828 Q562.6228,12.9062 562.7759,12.9062 Q563.0384,12.9062 563.2025,13.0922 Q563.3666,13.2672 563.3666,13.6937 L563.3666,14.7109 Q563.3666,15.1375 563.2025,15.3234 Q563.0384,15.5094 562.7759,15.5094 Q562.5353,15.5094 562.3931,15.3672 Q562.2509,15.2359 562.1744,14.875 Q562.1416,14.6234 562.0103,14.4922 Q561.7806,14.2297 561.3541,14.0766 Q560.9275,13.9234 560.49,13.9234 Q559.9541,13.9234 559.5056,14.1531 Q559.0681,14.3828 558.7181,14.9078 Q558.3791,15.4328 558.3791,16.1547 L558.3791,16.9203 Q558.3791,17.7844 559.0025,18.3641 Q559.6259,18.9328 560.7416,18.9328 Q561.3978,18.9328 561.8572,18.7578 Q562.1306,18.6484 562.4259,18.3422 Q562.6119,18.1562 562.7103,18.1016 Q562.8197,18.0469 562.9619,18.0469 Q563.1916,18.0469 563.3666,18.2328 Q563.5525,18.4078 563.5525,18.6484 Q563.5525,18.8891 563.3119,19.1734 Q562.9619,19.5781 562.4041,19.8078 Q561.6494,20.125 560.7416,20.125 Q559.6806,20.125 558.8384,19.6875 Q558.1494,19.3375 557.6681,18.5937 Q557.1869,17.8391 557.1869,16.9422 L557.1869,16.1328 Q557.1869,15.2031 557.6134,14.4047 Q558.0509,13.5953 558.8166,13.1687 Q559.5822,12.7312 560.4463,12.7312 Q560.9603,12.7312 561.4087,12.8516 Q561.8681,12.9609 562.2509,13.2125 Z " fill="#000000"/><text fill="#000000" font-family="sans-serif" font-size="9.8" lengthAdjust="spacing" textLength="108.5" x="570.185" y="20.1578">AddEntryToDoController</text><line style="stroke:#181818;stroke-width:0.3499999999999999;" x1="550.2" x2="680.4" y1="27.3" y2="27.3"/><line style="stroke:#181818;stroke-width:0.3499999999999999;" x1="550.2" x2="680.4" y1="32.9" y2="32.9"/><text fill="#000000" font-family="sans-serif" font-size="9.8" lengthAdjust="spacing" textLength="121.1" x="553.7" y="46.2752">+AddEntryToDoController()</text><text fill="#000000" font-family="sans-serif" font-size="9.8" lengthAdjust="spacing" textLength="87.5" x="553.7" y="59.31">+getGreenSpaces()</text><text fill="#000000" font-family="sans-serif" font-size="9.8" lengthAdjust="spacing" textLength="123.2" x="553.7" y="72.3447">+getSelectedGreenSpace(i)</text><text fill="#000000" font-family="sans-serif" font-size="9.8" lengthAdjust="spacing" textLength="86.1" x="553.7" y="85.3795">+addEntry(taskDto)</text></g><!--class ApplicationSession--><g id="elem_ApplicationSession"><rect codeLine="24" fill="#F1F1F1" height="59.6695" id="ApplicationSession" rx="1.75" ry="1.75" style="stroke:#181818;stroke-width:0.3499999999999999;" width="105.7" x="416.85" y="158.55"/><ellipse cx="427.35" cy="169.75" fill="#ADD1B2" rx="7.7" ry="7.7" style="stroke:#181818;stroke-width:0.6999999999999998;"/><path d="M429.2859,166.8625 Q429.3953,166.7094 429.5266,166.6328 Q429.6578,166.5562 429.8109,166.5562 Q430.0734,166.5562 430.2375,166.7422 Q430.4016,166.9172 430.4016,167.3437 L430.4016,168.3609 Q430.4016,168.7875 430.2375,168.9734 Q430.0734,169.1594 429.8109,169.1594 Q429.5703,169.1594 429.4281,169.0172 Q429.2859,168.8859 429.2094,168.525 Q429.1766,168.2734 429.0453,168.1422 Q428.8156,167.8797 428.3891,167.7266 Q427.9625,167.5734 427.525,167.5734 Q426.9891,167.5734 426.5406,167.8031 Q426.1031,168.0328 425.7531,168.5578 Q425.4141,169.0828 425.4141,169.8047 L425.4141,170.5703 Q425.4141,171.4344 426.0375,172.0141 Q426.6609,172.5828 427.7766,172.5828 Q428.4328,172.5828 428.8922,172.4078 Q429.1656,172.2984 429.4609,171.9922 Q429.6469,171.8062 429.7453,171.7516 Q429.8547,171.6969 429.9969,171.6969 Q430.2266,171.6969 430.4016,171.8828 Q430.5875,172.0578 430.5875,172.2984 Q430.5875,172.5391 430.3469,172.8234 Q429.9969,173.2281 429.4391,173.4578 Q428.6844,173.775 427.7766,173.775 Q426.7156,173.775 425.8734,173.3375 Q425.1844,172.9875 424.7031,172.2437 Q424.2219,171.4891 424.2219,170.5922 L424.2219,169.7828 Q424.2219,168.8531 424.6484,168.0547 Q425.0859,167.2453 425.8516,166.8187 Q426.6172,166.3812 427.4812,166.3812 Q427.9953,166.3812 428.4437,166.5016 Q428.9031,166.6109 429.2859,166.8625 Z " fill="#000000"/><text fill="#000000" font-family="sans-serif" font-size="9.8" lengthAdjust="spacing" textLength="83.3" x="437.15" y="173.8078">ApplicationSession</text><line style="stroke:#181818;stroke-width:0.3499999999999999;" x1="417.55" x2="521.85" y1="180.95" y2="180.95"/><line style="stroke:#181818;stroke-width:0.3499999999999999;" x1="417.55" x2="521.85" y1="186.55" y2="186.55"/><text fill="#000000" font-family="sans-serif" font-size="9.8" lengthAdjust="spacing" textLength="89.6" x="421.05" y="199.9252">+static getInstance()</text><text fill="#000000" font-family="sans-serif" font-size="9.8" lengthAdjust="spacing" textLength="95.2" x="421.05" y="212.96">+getCurrentSession()</text></g><!--class Repositories--><g id="elem_Repositories"><rect codeLine="30" fill="#F1F1F1" height="85.7391" id="Repositories" rx="1.75" ry="1.75" style="stroke:#181818;stroke-width:0.3499999999999999;" width="138.6" x="756.7" y="4.9"/><ellipse cx="795.375" cy="16.1" fill="#ADD1B2" rx="7.7" ry="7.7" style="stroke:#181818;stroke-width:0.6999999999999998;"/><path d="M797.3109,13.2125 Q797.4203,13.0594 797.5516,12.9828 Q797.6828,12.9062 797.8359,12.9062 Q798.0984,12.9062 798.2625,13.0922 Q798.4266,13.2672 798.4266,13.6937 L798.4266,14.7109 Q798.4266,15.1375 798.2625,15.3234 Q798.0984,15.5094 797.8359,15.5094 Q797.5953,15.5094 797.4531,15.3672 Q797.3109,15.2359 797.2344,14.875 Q797.2016,14.6234 797.0703,14.4922 Q796.8406,14.2297 796.4141,14.0766 Q795.9875,13.9234 795.55,13.9234 Q795.0141,13.9234 794.5656,14.1531 Q794.1281,14.3828 793.7781,14.9078 Q793.4391,15.4328 793.4391,16.1547 L793.4391,16.9203 Q793.4391,17.7844 794.0625,18.3641 Q794.6859,18.9328 795.8016,18.9328 Q796.4578,18.9328 796.9172,18.7578 Q797.1906,18.6484 797.4859,18.3422 Q797.6719,18.1562 797.7703,18.1016 Q797.8797,18.0469 798.0219,18.0469 Q798.2516,18.0469 798.4266,18.2328 Q798.6125,18.4078 798.6125,18.6484 Q798.6125,18.8891 798.3719,19.1734 Q798.0219,19.5781 797.4641,19.8078 Q796.7094,20.125 795.8016,20.125 Q794.7406,20.125 793.8984,19.6875 Q793.2094,19.3375 792.7281,18.5937 Q792.2469,17.8391 792.2469,16.9422 L792.2469,16.1328 Q792.2469,15.2031 792.6734,14.4047 Q793.1109,13.5953 793.8766,13.1687 Q794.6422,12.7312 795.5062,12.7312 Q796.0203,12.7312 796.4687,12.8516 Q796.9281,12.9609 797.3109,13.2125 Z " fill="#000000"/><text fill="#000000" font-family="sans-serif" font-size="9.8" lengthAdjust="spacing" textLength="55.3" x="809.725" y="20.1578">Repositories</text><line style="stroke:#181818;stroke-width:0.3499999999999999;" x1="757.4" x2="894.6" y1="27.3" y2="27.3"/><line style="stroke:#181818;stroke-width:0.3499999999999999;" x1="757.4" x2="894.6" y1="32.9" y2="32.9"/><text fill="#000000" font-family="sans-serif" font-size="9.8" lengthAdjust="spacing" textLength="65.8" x="760.9" y="46.2752">-Repositories()</text><text fill="#000000" font-family="sans-serif" font-size="9.8" lengthAdjust="spacing" textLength="127.4" x="760.9" y="59.31">+getInstance() : Repositories</text><text fill="#000000" font-family="sans-serif" font-size="9.8" lengthAdjust="spacing" textLength="130.2" x="760.9" y="72.3447">+getGreenSpaceRepository()</text><text fill="#000000" font-family="sans-serif" font-size="9.8" lengthAdjust="spacing" textLength="66.5" x="760.9" y="85.3795">+getToDoList()</text></g><!--class UserSession--><g id="elem_UserSession"><rect codeLine="38" fill="#F1F1F1" height="46.6348" id="UserSession" rx="1.75" ry="1.75" style="stroke:#181818;stroke-width:0.3499999999999999;" width="79.1" x="502.95" y="312.2"/><ellipse cx="514.08" cy="323.4" fill="#ADD1B2" rx="7.7" ry="7.7" style="stroke:#181818;stroke-width:0.6999999999999998;"/><path d="M516.0159,320.5125 Q516.1253,320.3594 516.2566,320.2828 Q516.3878,320.2062 516.5409,320.2062 Q516.8034,320.2062 516.9675,320.3922 Q517.1316,320.5672 517.1316,320.9937 L517.1316,322.0109 Q517.1316,322.4375 516.9675,322.6234 Q516.8034,322.8094 516.5409,322.8094 Q516.3003,322.8094 516.1581,322.6672 Q516.0159,322.5359 515.9394,322.175 Q515.9066,321.9234 515.7753,321.7922 Q515.5456,321.5297 515.1191,321.3766 Q514.6925,321.2234 514.255,321.2234 Q513.7191,321.2234 513.2706,321.4531 Q512.8331,321.6828 512.4831,322.2078 Q512.1441,322.7328 512.1441,323.4547 L512.1441,324.2203 Q512.1441,325.0844 512.7675,325.6641 Q513.3909,326.2328 514.5066,326.2328 Q515.1628,326.2328 515.6222,326.0578 Q515.8956,325.9484 516.1909,325.6422 Q516.3769,325.4562 516.4753,325.4016 Q516.5847,325.3469 516.7269,325.3469 Q516.9566,325.3469 517.1316,325.5328 Q517.3175,325.7078 517.3175,325.9484 Q517.3175,326.1891 517.0769,326.4734 Q516.7269,326.8781 516.1691,327.1078 Q515.4144,327.425 514.5066,327.425 Q513.4456,327.425 512.6034,326.9875 Q511.9144,326.6375 511.4331,325.8937 Q510.9519,325.1391 510.9519,324.2422 L510.9519,323.4328 Q510.9519,322.5031 511.3784,321.7047 Q511.8159,320.8953 512.5816,320.4687 Q513.3472,320.0312 514.2112,320.0312 Q514.7253,320.0312 515.1737,320.1516 Q515.6331,320.2609 516.0159,320.5125 Z " fill="#000000"/><text fill="#000000" font-family="sans-serif" font-size="9.8" lengthAdjust="spacing" textLength="55.3" x="524.02" y="327.4578">UserSession</text><line style="stroke:#181818;stroke-width:0.3499999999999999;" x1="503.65" x2="581.35" y1="334.6" y2="334.6"/><line style="stroke:#181818;stroke-width:0.3499999999999999;" x1="503.65" x2="581.35" y1="340.2" y2="340.2"/><text fill="#000000" font-family="sans-serif" font-size="9.8" lengthAdjust="spacing" textLength="70.7" x="507.15" y="353.5752">+getUserEmail()</text></g><!--class GreenSpaceRepository--><g id="elem_GreenSpaceRepository"><rect codeLine="43" fill="#F1F1F1" height="85.7391" id="GreenSpaceRepository" rx="1.75" ry="1.75" style="stroke:#181818;stroke-width:0.3499999999999999;" width="221.2" x="877.1" y="145.6"/><ellipse cx="932.925" cy="156.8" fill="#ADD1B2" rx="7.7" ry="7.7" style="stroke:#181818;stroke-width:0.6999999999999998;"/><path d="M934.8609,153.9125 Q934.9703,153.7594 935.1016,153.6828 Q935.2328,153.6062 935.3859,153.6062 Q935.6484,153.6062 935.8125,153.7922 Q935.9766,153.9672 935.9766,154.3937 L935.9766,155.4109 Q935.9766,155.8375 935.8125,156.0234 Q935.6484,156.2094 935.3859,156.2094 Q935.1453,156.2094 935.0031,156.0672 Q934.8609,155.9359 934.7844,155.575 Q934.7516,155.3234 934.6203,155.1922 Q934.3906,154.9297 933.9641,154.7766 Q933.5375,154.6234 933.1,154.6234 Q932.5641,154.6234 932.1156,154.8531 Q931.6781,155.0828 931.3281,155.6078 Q930.9891,156.1328 930.9891,156.8547 L930.9891,157.6203 Q930.9891,158.4844 931.6125,159.0641 Q932.2359,159.6328 933.3516,159.6328 Q934.0078,159.6328 934.4672,159.4578 Q934.7406,159.3484 935.0359,159.0422 Q935.2219,158.8562 935.3203,158.8016 Q935.4297,158.7469 935.5719,158.7469 Q935.8016,158.7469 935.9766,158.9328 Q936.1625,159.1078 936.1625,159.3484 Q936.1625,159.5891 935.9219,159.8734 Q935.5719,160.2781 935.0141,160.5078 Q934.2594,160.825 933.3516,160.825 Q932.2906,160.825 931.4484,160.3875 Q930.7594,160.0375 930.2781,159.2937 Q929.7969,158.5391 929.7969,157.6422 L929.7969,156.8328 Q929.7969,155.9031 930.2234,155.1047 Q930.6609,154.2953 931.4266,153.8687 Q932.1922,153.4312 933.0562,153.4312 Q933.5703,153.4312 934.0187,153.5516 Q934.4781,153.6609 934.8609,153.9125 Z " fill="#000000"/><text fill="#000000" font-family="sans-serif" font-size="9.8" lengthAdjust="spacing" textLength="103.6" x="947.275" y="160.8578">GreenSpaceRepository</text><line style="stroke:#181818;stroke-width:0.3499999999999999;" x1="877.8" x2="1097.6" y1="168" y2="168"/><text fill="#000000" font-family="sans-serif" font-size="9.8" lengthAdjust="spacing" textLength="163.1" x="881.3" y="181.3752">-List&lt;GreenSpace&gt; greenSpacesList</text><text fill="#000000" font-family="sans-serif" font-size="9.8" lengthAdjust="spacing" textLength="212.8" x="881.3" y="194.41">-List&lt;GreenSpace&gt; associatedGreenSpacesList</text><line style="stroke:#181818;stroke-width:0.3499999999999999;" x1="877.8" x2="1097.6" y1="199.6695" y2="199.6695"/><text fill="#000000" font-family="sans-serif" font-size="9.8" lengthAdjust="spacing" textLength="110.6" x="881.3" y="213.0447">+getGreenSpaces(email)</text><text fill="#000000" font-family="sans-serif" font-size="9.8" lengthAdjust="spacing" textLength="123.2" x="881.3" y="226.0795">+getSelectedGreenSpace(i)</text></g><!--class GreenSpace--><g id="elem_GreenSpace"><rect codeLine="51" fill="#F1F1F1" height="124.8434" id="GreenSpace" rx="1.75" ry="1.75" style="stroke:#181818;stroke-width:0.3499999999999999;" width="240.8" x="786.1" y="621.6"/><ellipse cx="875.525" cy="632.8" fill="#ADD1B2" rx="7.7" ry="7.7" style="stroke:#181818;stroke-width:0.6999999999999998;"/><path d="M877.4609,629.9125 Q877.5703,629.7594 877.7016,629.6828 Q877.8328,629.6062 877.9859,629.6062 Q878.2484,629.6062 878.4125,629.7922 Q878.5766,629.9672 878.5766,630.3937 L878.5766,631.4109 Q878.5766,631.8375 878.4125,632.0234 Q878.2484,632.2094 877.9859,632.2094 Q877.7453,632.2094 877.6031,632.0672 Q877.4609,631.9359 877.3844,631.575 Q877.3516,631.3234 877.2203,631.1922 Q876.9906,630.9297 876.5641,630.7766 Q876.1375,630.6234 875.7,630.6234 Q875.1641,630.6234 874.7156,630.8531 Q874.2781,631.0828 873.9281,631.6078 Q873.5891,632.1328 873.5891,632.8547 L873.5891,633.6203 Q873.5891,634.4844 874.2125,635.0641 Q874.8359,635.6328 875.9516,635.6328 Q876.6078,635.6328 877.0672,635.4578 Q877.3406,635.3484 877.6359,635.0422 Q877.8219,634.8562 877.9203,634.8016 Q878.0297,634.7469 878.1719,634.7469 Q878.4016,634.7469 878.5766,634.9328 Q878.7625,635.1078 878.7625,635.3484 Q878.7625,635.5891 878.5219,635.8734 Q878.1719,636.2781 877.6141,636.5078 Q876.8594,636.825 875.9516,636.825 Q874.8906,636.825 874.0484,636.3875 Q873.3594,636.0375 872.8781,635.2937 Q872.3969,634.5391 872.3969,633.6422 L872.3969,632.8328 Q872.3969,631.9031 872.8234,631.1047 Q873.2609,630.2953 874.0266,629.8687 Q874.7922,629.4312 875.6562,629.4312 Q876.1703,629.4312 876.6187,629.5516 Q877.0781,629.6609 877.4609,629.9125 Z " fill="#000000"/><text fill="#000000" font-family="sans-serif" font-size="9.8" lengthAdjust="spacing" textLength="56" x="889.875" y="636.8578">GreenSpace</text><line style="stroke:#181818;stroke-width:0.3499999999999999;" x1="786.8" x2="1026.2" y1="644" y2="644"/><text fill="#000000" font-family="sans-serif" font-size="9.8" lengthAdjust="spacing" textLength="56.7" x="790.3" y="657.3752">-String name</text><text fill="#000000" font-family="sans-serif" font-size="9.8" lengthAdjust="spacing" textLength="51.1" x="790.3" y="670.41">-String type</text><text fill="#000000" font-family="sans-serif" font-size="9.8" lengthAdjust="spacing" textLength="37.1" x="790.3" y="683.4447">-int area</text><text fill="#000000" font-family="sans-serif" font-size="9.8" lengthAdjust="spacing" textLength="67.9" x="790.3" y="696.4795">-String address</text><text fill="#000000" font-family="sans-serif" font-size="9.8" lengthAdjust="spacing" textLength="72.1" x="790.3" y="709.5143">-Email gsmEmail</text><line style="stroke:#181818;stroke-width:0.3499999999999999;" x1="786.8" x2="1026.2" y1="714.7738" y2="714.7738"/><text fill="#000000" font-family="sans-serif" font-size="9.8" lengthAdjust="spacing" textLength="232.4" x="790.3" y="728.149">+GreenSpace(name, type, area, address, gsmEmail)</text><text fill="#000000" font-family="sans-serif" font-size="9.8" lengthAdjust="spacing" textLength="95.9" x="790.3" y="741.1838">+hasUserEmail(email)</text></g><!--class GreenSpaceMapper--><g id="elem_GreenSpaceMapper"><rect codeLine="62" fill="#F1F1F1" height="72.7043" id="GreenSpaceMapper" rx="1.75" ry="1.75" style="stroke:#181818;stroke-width:0.3499999999999999;" width="252" x="137.9" y="151.9"/><ellipse cx="216.125" cy="163.1" fill="#ADD1B2" rx="7.7" ry="7.7" style="stroke:#181818;stroke-width:0.6999999999999998;"/><path d="M218.0609,160.2125 Q218.1703,160.0594 218.3016,159.9828 Q218.4328,159.9062 218.5859,159.9062 Q218.8484,159.9062 219.0125,160.0922 Q219.1766,160.2672 219.1766,160.6937 L219.1766,161.7109 Q219.1766,162.1375 219.0125,162.3234 Q218.8484,162.5094 218.5859,162.5094 Q218.3453,162.5094 218.2031,162.3672 Q218.0609,162.2359 217.9844,161.875 Q217.9516,161.6234 217.8203,161.4922 Q217.5906,161.2297 217.1641,161.0766 Q216.7375,160.9234 216.3,160.9234 Q215.7641,160.9234 215.3156,161.1531 Q214.8781,161.3828 214.5281,161.9078 Q214.1891,162.4328 214.1891,163.1547 L214.1891,163.9203 Q214.1891,164.7844 214.8125,165.3641 Q215.4359,165.9328 216.5516,165.9328 Q217.2078,165.9328 217.6672,165.7578 Q217.9406,165.6484 218.2359,165.3422 Q218.4219,165.1562 218.5203,165.1016 Q218.6297,165.0469 218.7719,165.0469 Q219.0016,165.0469 219.1766,165.2328 Q219.3625,165.4078 219.3625,165.6484 Q219.3625,165.8891 219.1219,166.1734 Q218.7719,166.5781 218.2141,166.8078 Q217.4594,167.125 216.5516,167.125 Q215.4906,167.125 214.6484,166.6875 Q213.9594,166.3375 213.4781,165.5937 Q212.9969,164.8391 212.9969,163.9422 L212.9969,163.1328 Q212.9969,162.2031 213.4234,161.4047 Q213.8609,160.5953 214.6266,160.1687 Q215.3922,159.7312 216.2562,159.7312 Q216.7703,159.7312 217.2187,159.8516 Q217.6781,159.9609 218.0609,160.2125 Z " fill="#000000"/><text fill="#000000" font-family="sans-serif" font-size="9.8" lengthAdjust="spacing" textLength="89.6" x="230.475" y="167.1578">GreenSpaceMapper</text><line style="stroke:#181818;stroke-width:0.3499999999999999;" x1="138.6" x2="389.2" y1="174.3" y2="174.3"/><text fill="#000000" font-family="sans-serif" font-size="9.8" lengthAdjust="spacing" textLength="243.6" x="142.1" y="187.6752">-List&lt;GreenSpaceDto&gt; associatedGreenSpacesListDto</text><line style="stroke:#181818;stroke-width:0.3499999999999999;" x1="138.6" x2="389.2" y1="192.9348" y2="192.9348"/><text fill="#000000" font-family="sans-serif" font-size="9.8" lengthAdjust="spacing" textLength="165.9" x="142.1" y="206.31">+toDTO(associatedGreenSpacesList)</text><text fill="#000000" font-family="sans-serif" font-size="9.8" lengthAdjust="spacing" textLength="55.3" x="142.1" y="219.3447">+toDTO(obj)</text></g><!--class GreenSpaceDto--><g id="elem_GreenSpaceDto"><rect codeLine="69" fill="#F1F1F1" height="98.7738" id="GreenSpaceDto" rx="1.75" ry="1.75" style="stroke:#181818;stroke-width:0.3499999999999999;" width="208.6" x="16.8" y="286.3"/><ellipse cx="82.425" cy="297.5" fill="#ADD1B2" rx="7.7" ry="7.7" style="stroke:#181818;stroke-width:0.6999999999999998;"/><path d="M84.3609,294.6125 Q84.4703,294.4594 84.6016,294.3828 Q84.7328,294.3062 84.8859,294.3062 Q85.1484,294.3062 85.3125,294.4922 Q85.4766,294.6672 85.4766,295.0937 L85.4766,296.1109 Q85.4766,296.5375 85.3125,296.7234 Q85.1484,296.9094 84.8859,296.9094 Q84.6453,296.9094 84.5031,296.7672 Q84.3609,296.6359 84.2844,296.275 Q84.2516,296.0234 84.1203,295.8922 Q83.8906,295.6297 83.4641,295.4766 Q83.0375,295.3234 82.6,295.3234 Q82.0641,295.3234 81.6156,295.5531 Q81.1781,295.7828 80.8281,296.3078 Q80.4891,296.8328 80.4891,297.5547 L80.4891,298.3203 Q80.4891,299.1844 81.1125,299.7641 Q81.7359,300.3328 82.8516,300.3328 Q83.5078,300.3328 83.9672,300.1578 Q84.2406,300.0484 84.5359,299.7422 Q84.7219,299.5562 84.8203,299.5016 Q84.9297,299.4469 85.0719,299.4469 Q85.3016,299.4469 85.4766,299.6328 Q85.6625,299.8078 85.6625,300.0484 Q85.6625,300.2891 85.4219,300.5734 Q85.0719,300.9781 84.5141,301.2078 Q83.7594,301.525 82.8516,301.525 Q81.7906,301.525 80.9484,301.0875 Q80.2594,300.7375 79.7781,299.9937 Q79.2969,299.2391 79.2969,298.3422 L79.2969,297.5328 Q79.2969,296.6031 79.7234,295.8047 Q80.1609,294.9953 80.9266,294.5687 Q81.6922,294.1312 82.5562,294.1312 Q83.0703,294.1312 83.5187,294.2516 Q83.9781,294.3609 84.3609,294.6125 Z " fill="#000000"/><text fill="#000000" font-family="sans-serif" font-size="9.8" lengthAdjust="spacing" textLength="71.4" x="96.775" y="301.5578">GreenSpaceDto</text><line style="stroke:#181818;stroke-width:0.3499999999999999;" x1="17.5" x2="224.7" y1="308.7" y2="308.7"/><text fill="#000000" font-family="sans-serif" font-size="9.8" lengthAdjust="spacing" textLength="56.7" x="21" y="322.0752">-String name</text><text fill="#000000" font-family="sans-serif" font-size="9.8" lengthAdjust="spacing" textLength="51.1" x="21" y="335.11">-String type</text><text fill="#000000" font-family="sans-serif" font-size="9.8" lengthAdjust="spacing" textLength="37.1" x="21" y="348.1447">-int area</text><text fill="#000000" font-family="sans-serif" font-size="9.8" lengthAdjust="spacing" textLength="67.9" x="21" y="361.1795">-String address</text><line style="stroke:#181818;stroke-width:0.3499999999999999;" x1="17.5" x2="224.7" y1="366.4391" y2="366.4391"/><text fill="#000000" font-family="sans-serif" font-size="9.8" lengthAdjust="spacing" textLength="200.2" x="21" y="379.8143">+GreenSpaceDto(name, type, area, address)</text></g><!--class ToDoList--><g id="elem_ToDoList"><rect codeLine="78" fill="#F1F1F1" height="59.6695" id="ToDoList" rx="1.75" ry="1.75" style="stroke:#181818;stroke-width:0.3499999999999999;" width="193.2" x="659.4" y="158.55"/><ellipse cx="733.075" cy="169.75" fill="#ADD1B2" rx="7.7" ry="7.7" style="stroke:#181818;stroke-width:0.6999999999999998;"/><path d="M735.0109,166.8625 Q735.1203,166.7094 735.2516,166.6328 Q735.3828,166.5562 735.5359,166.5562 Q735.7984,166.5562 735.9625,166.7422 Q736.1266,166.9172 736.1266,167.3437 L736.1266,168.3609 Q736.1266,168.7875 735.9625,168.9734 Q735.7984,169.1594 735.5359,169.1594 Q735.2953,169.1594 735.1531,169.0172 Q735.0109,168.8859 734.9344,168.525 Q734.9016,168.2734 734.7703,168.1422 Q734.5406,167.8797 734.1141,167.7266 Q733.6875,167.5734 733.25,167.5734 Q732.7141,167.5734 732.2656,167.8031 Q731.8281,168.0328 731.4781,168.5578 Q731.1391,169.0828 731.1391,169.8047 L731.1391,170.5703 Q731.1391,171.4344 731.7625,172.0141 Q732.3859,172.5828 733.5016,172.5828 Q734.1578,172.5828 734.6172,172.4078 Q734.8906,172.2984 735.1859,171.9922 Q735.3719,171.8062 735.4703,171.7516 Q735.5797,171.6969 735.7219,171.6969 Q735.9516,171.6969 736.1266,171.8828 Q736.3125,172.0578 736.3125,172.2984 Q736.3125,172.5391 736.0719,172.8234 Q735.7219,173.2281 735.1641,173.4578 Q734.4094,173.775 733.5016,173.775 Q732.4406,173.775 731.5984,173.3375 Q730.9094,172.9875 730.4281,172.2437 Q729.9469,171.4891 729.9469,170.5922 L729.9469,169.7828 Q729.9469,168.8531 730.3734,168.0547 Q730.8109,167.2453 731.5766,166.8187 Q732.3422,166.3812 733.2062,166.3812 Q733.7203,166.3812 734.1687,166.5016 Q734.6281,166.6109 735.0109,166.8625 Z " fill="#000000"/><text fill="#000000" font-family="sans-serif" font-size="9.8" lengthAdjust="spacing" textLength="39.9" x="747.425" y="173.8078">ToDoList</text><line style="stroke:#181818;stroke-width:0.3499999999999999;" x1="660.1" x2="851.9" y1="180.95" y2="180.95"/><line style="stroke:#181818;stroke-width:0.3499999999999999;" x1="660.1" x2="851.9" y1="186.55" y2="186.55"/><text fill="#000000" font-family="sans-serif" font-size="9.8" lengthAdjust="spacing" textLength="82.6" x="663.6" y="199.9252">-add(createdTask)</text><text fill="#000000" font-family="sans-serif" font-size="9.8" lengthAdjust="spacing" textLength="184.8" x="663.6" y="212.96">+addEntry(taskDto, selectedGreenSpace)</text></g><!--class Task--><g id="elem_Task"><rect codeLine="84" fill="#F1F1F1" height="124.8434" id="Task" rx="1.75" ry="1.75" style="stroke:#181818;stroke-width:0.3499999999999999;" width="378" x="717.5" y="441"/><ellipse cx="892.675" cy="452.2" fill="#ADD1B2" rx="7.7" ry="7.7" style="stroke:#181818;stroke-width:0.6999999999999998;"/><path d="M894.6109,449.3125 Q894.7203,449.1594 894.8516,449.0828 Q894.9828,449.0062 895.1359,449.0062 Q895.3984,449.0062 895.5625,449.1922 Q895.7266,449.3672 895.7266,449.7937 L895.7266,450.8109 Q895.7266,451.2375 895.5625,451.4234 Q895.3984,451.6094 895.1359,451.6094 Q894.8953,451.6094 894.7531,451.4672 Q894.6109,451.3359 894.5344,450.975 Q894.5016,450.7234 894.3703,450.5922 Q894.1406,450.3297 893.7141,450.1766 Q893.2875,450.0234 892.85,450.0234 Q892.3141,450.0234 891.8656,450.2531 Q891.4281,450.4828 891.0781,451.0078 Q890.7391,451.5328 890.7391,452.2547 L890.7391,453.0203 Q890.7391,453.8844 891.3625,454.4641 Q891.9859,455.0328 893.1016,455.0328 Q893.7578,455.0328 894.2172,454.8578 Q894.4906,454.7484 894.7859,454.4422 Q894.9719,454.2562 895.0703,454.2016 Q895.1797,454.1469 895.3219,454.1469 Q895.5516,454.1469 895.7266,454.3328 Q895.9125,454.5078 895.9125,454.7484 Q895.9125,454.9891 895.6719,455.2734 Q895.3219,455.6781 894.7641,455.9078 Q894.0094,456.225 893.1016,456.225 Q892.0406,456.225 891.1984,455.7875 Q890.5094,455.4375 890.0281,454.6937 Q889.5469,453.9391 889.5469,453.0422 L889.5469,452.2328 Q889.5469,451.3031 889.9734,450.5047 Q890.4109,449.6953 891.1766,449.2687 Q891.9422,448.8312 892.8062,448.8312 Q893.3203,448.8312 893.7687,448.9516 Q894.2281,449.0609 894.6109,449.3125 Z " fill="#000000"/><text fill="#000000" font-family="sans-serif" font-size="9.8" lengthAdjust="spacing" textLength="21.7" x="907.025" y="456.2578">Task</text><line style="stroke:#181818;stroke-width:0.3499999999999999;" x1="718.2" x2="1094.8" y1="463.4" y2="463.4"/><text fill="#000000" font-family="sans-serif" font-size="9.8" lengthAdjust="spacing" textLength="47.6" x="721.7" y="476.7752">-String title</text><text fill="#000000" font-family="sans-serif" font-size="9.8" lengthAdjust="spacing" textLength="80.5" x="721.7" y="489.81">-String description</text><text fill="#000000" font-family="sans-serif" font-size="9.8" lengthAdjust="spacing" textLength="110.6" x="721.7" y="502.8447">-String degreeOfUrgency</text><text fill="#000000" font-family="sans-serif" font-size="9.8" lengthAdjust="spacing" textLength="94.5" x="721.7" y="515.8795">-int expectedDuration</text><text fill="#000000" font-family="sans-serif" font-size="9.8" lengthAdjust="spacing" textLength="58.8" x="721.7" y="528.9143">-String status</text><text fill="#000000" font-family="sans-serif" font-size="9.8" lengthAdjust="spacing" textLength="100.8" x="721.7" y="541.949">-Calendar startingDate</text><line style="stroke:#181818;stroke-width:0.3499999999999999;" x1="718.2" x2="1094.8" y1="547.2086" y2="547.2086"/><text fill="#000000" font-family="sans-serif" font-size="9.8" lengthAdjust="spacing" textLength="369.6" x="721.7" y="560.5838">+Task(title, description, degreeOfUrgency, expectedDuration, selectedGreenSpace)</text></g><!--class TaskMapper--><g id="elem_TaskMapper"><rect codeLine="95" fill="#F1F1F1" height="46.6348" id="TaskMapper" rx="1.75" ry="1.75" style="stroke:#181818;stroke-width:0.3499999999999999;" width="188.3" x="661.85" y="312.2"/><ellipse cx="725.375" cy="323.4" fill="#ADD1B2" rx="7.7" ry="7.7" style="stroke:#181818;stroke-width:0.6999999999999998;"/><path d="M727.3109,320.5125 Q727.4203,320.3594 727.5516,320.2828 Q727.6828,320.2062 727.8359,320.2062 Q728.0984,320.2062 728.2625,320.3922 Q728.4266,320.5672 728.4266,320.9937 L728.4266,322.0109 Q728.4266,322.4375 728.2625,322.6234 Q728.0984,322.8094 727.8359,322.8094 Q727.5953,322.8094 727.4531,322.6672 Q727.3109,322.5359 727.2344,322.175 Q727.2016,321.9234 727.0703,321.7922 Q726.8406,321.5297 726.4141,321.3766 Q725.9875,321.2234 725.55,321.2234 Q725.0141,321.2234 724.5656,321.4531 Q724.1281,321.6828 723.7781,322.2078 Q723.4391,322.7328 723.4391,323.4547 L723.4391,324.2203 Q723.4391,325.0844 724.0625,325.6641 Q724.6859,326.2328 725.8016,326.2328 Q726.4578,326.2328 726.9172,326.0578 Q727.1906,325.9484 727.4859,325.6422 Q727.6719,325.4562 727.7703,325.4016 Q727.8797,325.3469 728.0219,325.3469 Q728.2516,325.3469 728.4266,325.5328 Q728.6125,325.7078 728.6125,325.9484 Q728.6125,326.1891 728.3719,326.4734 Q728.0219,326.8781 727.4641,327.1078 Q726.7094,327.425 725.8016,327.425 Q724.7406,327.425 723.8984,326.9875 Q723.2094,326.6375 722.7281,325.8937 Q722.2469,325.1391 722.2469,324.2422 L722.2469,323.4328 Q722.2469,322.5031 722.6734,321.7047 Q723.1109,320.8953 723.8766,320.4687 Q724.6422,320.0312 725.5062,320.0312 Q726.0203,320.0312 726.4687,320.1516 Q726.9281,320.2609 727.3109,320.5125 Z " fill="#000000"/><text fill="#000000" font-family="sans-serif" font-size="9.8" lengthAdjust="spacing" textLength="55.3" x="739.725" y="327.4578">TaskMapper</text><line style="stroke:#181818;stroke-width:0.3499999999999999;" x1="662.55" x2="849.45" y1="334.6" y2="334.6"/><line style="stroke:#181818;stroke-width:0.3499999999999999;" x1="662.55" x2="849.45" y1="340.2" y2="340.2"/><text fill="#000000" font-family="sans-serif" font-size="9.8" lengthAdjust="spacing" textLength="179.9" x="666.05" y="353.5752">+toModel(taskDto, selectedGreenSpace)</text></g><!--class TaskDto--><g id="elem_TaskDto"><rect codeLine="100" fill="#F1F1F1" height="150.9129" id="TaskDto" rx="1.75" ry="1.75" style="stroke:#181818;stroke-width:0.3499999999999999;" width="393.4" x="299.6" y="427.7"/><ellipse cx="474.775" cy="438.9" fill="#ADD1B2" rx="7.7" ry="7.7" style="stroke:#181818;stroke-width:0.6999999999999998;"/><path d="M476.7109,436.0125 Q476.8203,435.8594 476.9516,435.7828 Q477.0828,435.7062 477.2359,435.7062 Q477.4984,435.7062 477.6625,435.8922 Q477.8266,436.0672 477.8266,436.4937 L477.8266,437.5109 Q477.8266,437.9375 477.6625,438.1234 Q477.4984,438.3094 477.2359,438.3094 Q476.9953,438.3094 476.8531,438.1672 Q476.7109,438.0359 476.6344,437.675 Q476.6016,437.4234 476.4703,437.2922 Q476.2406,437.0297 475.8141,436.8766 Q475.3875,436.7234 474.95,436.7234 Q474.4141,436.7234 473.9656,436.9531 Q473.5281,437.1828 473.1781,437.7078 Q472.8391,438.2328 472.8391,438.9547 L472.8391,439.7203 Q472.8391,440.5844 473.4625,441.1641 Q474.0859,441.7328 475.2016,441.7328 Q475.8578,441.7328 476.3172,441.5578 Q476.5906,441.4484 476.8859,441.1422 Q477.0719,440.9562 477.1703,440.9016 Q477.2797,440.8469 477.4219,440.8469 Q477.6516,440.8469 477.8266,441.0328 Q478.0125,441.2078 478.0125,441.4484 Q478.0125,441.6891 477.7719,441.9734 Q477.4219,442.3781 476.8641,442.6078 Q476.1094,442.925 475.2016,442.925 Q474.1406,442.925 473.2984,442.4875 Q472.6094,442.1375 472.1281,441.3937 Q471.6469,440.6391 471.6469,439.7422 L471.6469,438.9328 Q471.6469,438.0031 472.0734,437.2047 Q472.5109,436.3953 473.2766,435.9687 Q474.0422,435.5312 474.9062,435.5312 Q475.4203,435.5312 475.8687,435.6516 Q476.3281,435.7609 476.7109,436.0125 Z " fill="#000000"/><text fill="#000000" font-family="sans-serif" font-size="9.8" lengthAdjust="spacing" textLength="37.1" x="489.125" y="442.9578">TaskDto</text><line style="stroke:#181818;stroke-width:0.3499999999999999;" x1="300.3" x2="692.3" y1="450.1" y2="450.1"/><text fill="#000000" font-family="sans-serif" font-size="9.8" lengthAdjust="spacing" textLength="47.6" x="303.8" y="463.4752">-String title</text><text fill="#000000" font-family="sans-serif" font-size="9.8" lengthAdjust="spacing" textLength="80.5" x="303.8" y="476.51">-String description</text><text fill="#000000" font-family="sans-serif" font-size="9.8" lengthAdjust="spacing" textLength="110.6" x="303.8" y="489.5447">-String degreeOfUrgency</text><text fill="#000000" font-family="sans-serif" font-size="9.8" lengthAdjust="spacing" textLength="94.5" x="303.8" y="502.5795">-int expectedDuration</text><line style="stroke:#181818;stroke-width:0.3499999999999999;" x1="300.3" x2="692.3" y1="507.8391" y2="507.8391"/><text fill="#000000" font-family="sans-serif" font-size="9.8" lengthAdjust="spacing" textLength="385" x="303.8" y="521.2143">+TaskDto(title, description, degreeOfUrgency, expectedDuration, selectedGreenSpace)</text><text fill="#000000" font-family="sans-serif" font-size="9.8" lengthAdjust="spacing" textLength="45.5" x="303.8" y="534.249">+getTitle()</text><text fill="#000000" font-family="sans-serif" font-size="9.8" lengthAdjust="spacing" textLength="76.3" x="303.8" y="547.2838">+getDescription()</text><text fill="#000000" font-family="sans-serif" font-size="9.8" lengthAdjust="spacing" textLength="106.4" x="303.8" y="560.3186">+getDegreeOfUrgency()</text><text fill="#000000" font-family="sans-serif" font-size="9.8" lengthAdjust="spacing" textLength="105" x="303.8" y="573.3533">+getExpectedDuration()</text></g><!--link Repositories to Repositories--><g id="link_Repositories_Repositories"><path codeLine="114" d="M895.335,34.958 C909.58,36.309 919.8,40.523 919.8,47.6 C919.8,54.677 913.7612,58.4945 899.5162,59.8455 " fill="none" id="Repositories-to-Repositories" style="stroke:#181818;stroke-width:0.6999999999999998;"/><polygon fill="#181818" points="895.335,60.242,901.8712,62.4347,898.8194,59.9115,901.3425,56.8597,895.335,60.242" style="stroke:#181818;stroke-width:0.6999999999999998;"/><text fill="#000000" font-family="sans-serif" font-size="9.1" lengthAdjust="spacing" textLength="34.3" x="924" y="51.4698">instance</text></g><!--link ApplicationSession to ApplicationSession--><g id="link_ApplicationSession_ApplicationSession"><path codeLine="115" d="M522.662,175.301 C536.55,176.071 547.05,180.404 547.05,188.3 C547.05,196.196 540.7436,200.2965 526.8556,201.0665 " fill="none" id="ApplicationSession-to-ApplicationSession" style="stroke:#181818;stroke-width:0.6999999999999998;"/><polygon fill="#181818" points="522.662,201.299,529.1073,203.7459,526.1566,201.1052,528.7973,198.1545,522.662,201.299" style="stroke:#181818;stroke-width:0.6999999999999998;"/><text fill="#000000" font-family="sans-serif" font-size="9.1" lengthAdjust="spacing" textLength="34.3" x="551.25" y="192.1698">instance</text></g><!--link AddEntryToDoUI to AddEntryToDoController--><g id="link_AddEntryToDoUI_AddEntryToDoController"><path codeLine="117" d="M148.799,47.6 C199.535,47.6 272.3,47.6 272.3,47.6 C272.3,47.6 443.8,47.6 443.8,47.6 C443.8,47.6 496.923,47.6 545.286,47.6 " fill="none" id="AddEntryToDoUI-to-AddEntryToDoController" style="stroke:#181818;stroke-width:0.6999999999999998;stroke-dasharray:7.0,7.0;"/><polygon fill="#181818" points="549.486,47.6,543.186,44.8,545.986,47.6,543.186,50.4,549.486,47.6" style="stroke:#181818;stroke-width:0.6999999999999998;"/></g><!--link AddEntryToDoUI to GreenSpaceDto--><g id="link_AddEntryToDoUI_GreenSpaceDto"><path codeLine="118" d="M101.948,64.533 C104.93,106.575 112.6832,216.1285 117.3452,281.9355 " fill="none" id="AddEntryToDoUI-to-GreenSpaceDto" style="stroke:#181818;stroke-width:0.6999999999999998;stroke-dasharray:7.0,7.0;"/><polygon fill="#181818" points="117.642,286.125,119.9898,279.6429,117.3947,282.6337,114.4038,280.0386,117.642,286.125" style="stroke:#181818;stroke-width:0.6999999999999998;"/></g><!--link AddEntryToDoUI to TaskDto--><g id="link_AddEntryToDoUI_TaskDto"><path codeLine="119" d="M94.234,64.47 C72.492,118.041 4.2,286.3 4.2,286.3 C4.2,286.3 4.2,385 4.2,385 C4.2,385 158.399,421.8518 295.424,454.5978 " fill="none" id="AddEntryToDoUI-to-TaskDto" style="stroke:#181818;stroke-width:0.6999999999999998;stroke-dasharray:7.0,7.0;"/><polygon fill="#181818" points="299.509,455.574,294.0324,451.3864,296.1049,454.7605,292.7307,456.833,299.509,455.574" style="stroke:#181818;stroke-width:0.6999999999999998;"/></g><!--link AddEntryToDoController to Repositories--><g id="link_AddEntryToDoController_Repositories"><path codeLine="121" d="M681.1,47.6 C705.131,47.6 728.168,47.6 752.493,47.6 " fill="none" id="AddEntryToDoController-to-Repositories" style="stroke:#181818;stroke-width:0.6999999999999998;stroke-dasharray:7.0,7.0;"/><polygon fill="#181818" points="756.693,47.6,750.393,44.8,753.193,47.6,750.393,50.4,756.693,47.6" style="stroke:#181818;stroke-width:0.6999999999999998;"/><text fill="#000000" font-family="sans-serif" font-size="9.1" lengthAdjust="spacing" textLength="46.9" x="695.45" y="42.7198">repositories</text></g><!--link Repositories to GreenSpaceRepository--><g id="link_Repositories_GreenSpaceRepository"><path codeLine="123" d="M874.951,90.475 C895.216,107.926 915.4843,125.3864 935.7283,142.8304 " fill="none" id="Repositories-to-GreenSpaceRepository" style="stroke:#181818;stroke-width:0.6999999999999998;"/><polygon fill="#181818" points="938.91,145.572,935.9652,139.3384,936.2586,143.2873,932.3097,143.5807,938.91,145.572" style="stroke:#181818;stroke-width:0.6999999999999998;"/><text fill="#000000" font-family="sans-serif" font-size="9.1" lengthAdjust="spacing" textLength="4.9" x="928.0854" y="137.8556">1</text></g><!--link Repositories to ToDoList--><g id="link_Repositories_ToDoList"><path codeLine="124" d="M817.488,90.468 C813.925,108.115 810.6,124.6 810.6,124.6 C810.6,124.6 798.28,138.8144 783.972,155.3204 " fill="none" id="Repositories-to-ToDoList" style="stroke:#181818;stroke-width:0.6999999999999998;"/><polygon fill="#181818" points="781.221,158.494,787.4633,155.5676,783.5135,155.8493,783.2318,151.8995,781.221,158.494" style="stroke:#181818;stroke-width:0.6999999999999998;"/><text fill="#000000" font-family="sans-serif" font-size="9.1" lengthAdjust="spacing" textLength="4.9" x="779.9501" y="150.7179">1</text></g><!--link AddEntryToDoController to GreenSpaceRepository--><g id="link_AddEntryToDoController_GreenSpaceRepository"><path codeLine="126" d="M681.114,74.774 C735.903,96.81 805,124.6 805,124.6 C805,124.6 834.6084,134.8088 872.9754,148.0388 " fill="none" id="AddEntryToDoController-to-GreenSpaceRepository" style="stroke:#181818;stroke-width:0.6999999999999998;stroke-dasharray:7.0,7.0;"/><polygon fill="#181818" points="876.946,149.408,871.9029,144.7072,873.6372,148.267,870.0774,150.0013,876.946,149.408" style="stroke:#181818;stroke-width:0.6999999999999998;"/><text fill="#000000" font-family="sans-serif" font-size="9.1" lengthAdjust="spacing" textLength="89.6" x="805.7" y="121.8198">greenSpaceRepostory</text></g><!--link AddEntryToDoController to ToDoList--><g id="link_AddEntryToDoController_ToDoList"><path codeLine="127" d="M636.58,90.468 C645.484,108.115 653.8,124.6 653.8,124.6 C653.8,124.6 678.4345,139.7844 705.2165,156.2904 " fill="none" id="AddEntryToDoController-to-ToDoList" style="stroke:#181818;stroke-width:0.6999999999999998;stroke-dasharray:7.0,7.0;"/><polygon fill="#181818" points="708.792,158.494,704.8978,152.8049,705.8124,156.6577,701.9597,157.5722,708.792,158.494" style="stroke:#181818;stroke-width:0.6999999999999998;"/><text fill="#000000" font-family="sans-serif" font-size="9.1" lengthAdjust="spacing" textLength="33.6" x="654.5" y="121.8198">toDoList</text></g><!--link AddEntryToDoController to ApplicationSession--><g id="link_AddEntryToDoController_ApplicationSession"><path codeLine="128" d="M571.221,90.475 C548.289,112.413 523.8632,135.788 503.2832,155.472 " fill="none" id="AddEntryToDoController-to-ApplicationSession" style="stroke:#181818;stroke-width:0.6999999999999998;stroke-dasharray:7.0,7.0;"/><polygon fill="#181818" points="500.248,158.375,506.7361,156.0439,502.7773,155.9558,502.8654,151.997,500.248,158.375" style="stroke:#181818;stroke-width:0.6999999999999998;"/></g><!--link AddEntryToDoController to UserSession--><g id="link_AddEntryToDoController_UserSession"><path codeLine="129" d="M609.49,90.447 C602.042,144.403 590.1,231 590.1,231 C590.1,231 568.707,277.7215 554.693,308.3185 " fill="none" id="AddEntryToDoController-to-UserSession" style="stroke:#181818;stroke-width:0.6999999999999998;stroke-dasharray:7.0,7.0;"/><polygon fill="#181818" points="552.944,312.137,558.1131,307.5752,554.4015,308.9549,553.0218,305.2432,552.944,312.137" style="stroke:#181818;stroke-width:0.6999999999999998;"/></g><!--link AddEntryToDoController to GreenSpaceMapper--><g id="link_AddEntryToDoController_GreenSpaceMapper"><path codeLine="130" d="M549.409,74.417 C494.263,96.278 418.9274,126.1463 357.9154,150.3313 " fill="none" id="AddEntryToDoController-to-GreenSpaceMapper" style="stroke:#181818;stroke-width:0.6999999999999998;stroke-dasharray:7.0,7.0;"/><polygon fill="#181818" points="354.011,151.879,360.8995,152.1604,357.2647,150.5892,358.8358,146.9545,354.011,151.879" style="stroke:#181818;stroke-width:0.6999999999999998;"/></g><!--link ApplicationSession to UserSession--><g id="link_ApplicationSession_UserSession"><path codeLine="132" d="M484.26,218.183 C498.036,245.805 516.5594,282.9405 529.2014,308.2875 " fill="none" id="ApplicationSession-to-UserSession" style="stroke:#181818;stroke-width:0.6999999999999998;"/><polygon fill="#181818" points="531.076,312.046,530.7698,305.1586,529.5139,308.9139,525.7585,307.658,531.076,312.046" style="stroke:#181818;stroke-width:0.6999999999999998;"/><text fill="#000000" font-family="sans-serif" font-size="9.1" lengthAdjust="spacing" textLength="50.4" x="506.8" y="262.5198">userSession</text><text fill="#000000" font-family="sans-serif" font-size="9.1" lengthAdjust="spacing" textLength="4.9" x="523.5313" y="304.3768">1</text></g><!--link GreenSpaceRepository to GreenSpace--><g id="link_GreenSpaceRepository_GreenSpace"><path codeLine="134" d="M1008.945,231.126 C1043.511,299.649 1108.1,427.7 1108.1,427.7 C1108.1,427.7 1108.1,578.9 1108.1,578.9 C1108.1,578.9 1073.0714,597.0253 1029.5384,619.5443 " fill="none" id="GreenSpaceRepository-to-GreenSpace" style="stroke:#181818;stroke-width:0.6999999999999998;"/><polygon fill="#181818" points="1025.808,621.474,1032.6901,621.0664,1028.9167,619.8659,1030.1172,616.0925,1025.808,621.474" style="stroke:#181818;stroke-width:0.6999999999999998;"/><text fill="#000000" font-family="sans-serif" font-size="9.1" lengthAdjust="spacing" textLength="4.9" x="1006.3356" y="246.8822">1</text><text fill="#000000" font-family="sans-serif" font-size="9.1" lengthAdjust="spacing" textLength="3.5" x="1032.0433" y="613.7298">*</text></g><!--link ToDoList to Task--><g id="link_ToDoList_Task"><path codeLine="135" d="M787.927,218.19 C819.266,246.855 862.4,286.3 862.4,286.3 C862.4,286.3 880.0481,372.8556 893.0821,436.7936 " fill="none" id="ToDoList-to-Task" style="stroke:#181818;stroke-width:0.6999999999999998;"/><polygon fill="#181818" points="893.921,440.909,895.4062,434.1767,893.2219,437.4795,889.919,435.2952,893.921,440.909" style="stroke:#181818;stroke-width:0.6999999999999998;"/><text fill="#000000" font-family="sans-serif" font-size="9.1" lengthAdjust="spacing" textLength="4.9" x="787.7249" y="233.7245">1</text><text fill="#000000" font-family="sans-serif" font-size="9.1" lengthAdjust="spacing" textLength="3.5" x="889.2344" y="433.1677">*</text></g><!--link Task to GreenSpace--><g id="link_Task_GreenSpace"><path codeLine="136" d="M906.5,565.67 C906.5,583.695 906.5,599.186 906.5,617.218 " fill="none" id="Task-to-GreenSpace" style="stroke:#181818;stroke-width:0.6999999999999998;"/><polygon fill="#181818" points="906.5,621.418,909.3,615.118,906.5,617.918,903.7,615.118,906.5,621.418" style="stroke:#181818;stroke-width:0.6999999999999998;"/><text fill="#000000" font-family="sans-serif" font-size="9.1" lengthAdjust="spacing" textLength="3.5" x="902.8496" y="581.3594">*</text><text fill="#000000" font-family="sans-serif" font-size="9.1" lengthAdjust="spacing" textLength="4.9" x="901.3971" y="613.6692">1</text></g><!--link ToDoList to TaskMapper--><g id="link_ToDoList_TaskMapper"><path codeLine="138" d="M756,218.183 C756,245.805 756,282.499 756,307.846 " fill="none" id="ToDoList-to-TaskMapper" style="stroke:#181818;stroke-width:0.6999999999999998;stroke-dasharray:7.0,7.0;"/><polygon fill="#181818" points="756,312.046,758.8,305.746,756,308.546,753.2,305.746,756,312.046" style="stroke:#181818;stroke-width:0.6999999999999998;"/></g><!--link TaskMapper to TaskDto--><g id="link_TaskMapper_TaskDto"><path codeLine="140" d="M720.433,359.121 C692.58,376.95 655.7061,400.5504 616.8491,425.4284 " fill="none" id="TaskMapper-to-TaskDto" style="stroke:#181818;stroke-width:0.6999999999999998;stroke-dasharray:7.0,7.0;"/><polygon fill="#181818" points="613.312,427.693,620.1275,426.6541,616.2596,425.8058,617.108,421.9379,613.312,427.693" style="stroke:#181818;stroke-width:0.6999999999999998;"/></g><!--link TaskMapper to Task--><g id="link_TaskMapper_Task"><path codeLine="141" d="M776.608,359.121 C795.648,380.149 821.9984,409.2493 847.8704,437.8303 " fill="none" id="TaskMapper-to-Task" style="stroke:#181818;stroke-width:0.6999999999999998;stroke-dasharray:7.0,7.0;"/><polygon fill="#181818" points="850.689,440.944,848.5369,434.3943,848.3402,438.3492,844.3852,438.1525,850.689,440.944" style="stroke:#181818;stroke-width:0.6999999999999998;"/></g><!--link GreenSpaceMapper to GreenSpaceDto--><g id="link_GreenSpaceMapper_GreenSpaceDto"><path codeLine="143" d="M228.97,224.7 C210.882,243.187 191.4752,263.0259 171.8192,283.1159 " fill="none" id="GreenSpaceMapper-to-GreenSpaceDto" style="stroke:#181818;stroke-width:0.6999999999999998;stroke-dasharray:7.0,7.0;"/><polygon fill="#181818" points="168.882,286.118,175.2893,283.573,171.3297,283.6163,171.2865,279.6567,168.882,286.118" style="stroke:#181818;stroke-width:0.6999999999999998;"/></g><!--link GreenSpaceMapper to GreenSpace--><g id="link_GreenSpaceMapper_GreenSpace"><path codeLine="144" d="M266.035,224.98 C271.747,321.503 287,578.9 287,578.9 C287,578.9 601.5893,631.8646 781.8113,662.2096 " fill="none" id="GreenSpaceMapper-to-GreenSpace" style="stroke:#181818;stroke-width:0.6999999999999998;stroke-dasharray:7.0,7.0;"/><polygon fill="#181818" points="785.953,662.907,780.2054,659.0998,782.5016,662.3259,779.2755,664.6221,785.953,662.907" style="stroke:#181818;stroke-width:0.6999999999999998;"/></g><!--SRC=[jLPHJzmm37xFhuZkXJBAjBrE4nBYq8GqXBI37v2rffUHIweaf-qsxR_FwTBMQTE3IOm7LEpFdpyxZiE9UvAw5LRi-CveKssjsG7tTWzizBIYUX8DRFn10RTGUQ4RHG5kAshpNUg6Fmhbg4T93VxG0c-DEeG_s4d6QQmtZ4HLIZXtwRsLN_SURYgZD_8dy7UCdIXuzDmRRcMpzRoMGOuqch4kXb_MzRNszd1lrkRXXlrYx7VETMNmooW55Y4SVyuMtCLfT3VWFra0lS5cWAFc3IZK0FNeBcJl5f6qyC8zhRqv9NBQLibA1F4RS2xKq4jn7irLuBxH-AsHaUIxsbiBsiUWWb1-WTOuwOsLu2BPUMAaD2Cr_v16PWeU_0TA4LhrMJfFDJmuiDDw41hCrpiX5SNc-0VTWVZZYBZWpTZ-u5k28R6ff4WEP0oO7IG4KS-UPaRo87I3OugJhyKEKaiOxMYHsdDXGQG0d0wBhOh6hZsySRlk8oeYCaA2iYCjEwwoZo-7eBwEhN1ZmsE5cH9kHTiEDs3MIXpN8zr4RqpcpVh-hbW4dYOmy_LRLagWUzs6dgNio-qZUlg17gGWfAWGZ6NTumrUkjObTxEneRI8cbRdfLUJycfmbPLjjyucZZ3xTuyFjW5T7KWBu4VRfLtlhPZ7XJsoxyVhIYZGjR31QZswrrXLh2S8B3f59LLHJZENiuGlg3oPiZ07jwO6zG-joyp6V-pUMP_pDHiohip0INVeUcHFpKaUwhgUPFoxKHbTuVpy8bdfkE5bNFTi_ku4TCPAObZwhFAt5qklwHI8oFIIPm3z6RCyPyWsASRIvsfM-UhzAl-qv833bL_CdfGmig6C9ZLtEOwmzAamqlTPZy0p_o0SGTDtzqMLn6kPdOVO6yA9clSa0yjs9CHqiM_e0R2XRkhlTk8g_5vrVv_F3ewDWVsKz9h7xsI0CcQgbBZIcNm6mlu0]--></g></svg>