<?xml version="1.0" encoding="us-ascii" standalone="no"?><svg xmlns="http://www.w3.org/2000/svg" xmlns:xlink="http://www.w3.org/1999/xlink" contentStyleType="text/css" height="750.4px" preserveAspectRatio="none" style="width:1138px;height:750px;background:#FFFFFF;" version="1.1" viewBox="0 0 1138 750" width="1138.9px" zoomAndPan="magnify"><defs/><g><!--class AddEntryToDoUI--><g id="elem_AddEntryToDoUI"><rect codeLine="11" fill="#F1F1F1" height="33.6" id="AddEntryToDoUI" rx="1.75" ry="1.75" style="stroke:#181818;stroke-width:0.3499999999999999;" width="95.9" x="97.65" y="30.8"/><ellipse cx="108.15" cy="42" fill="#ADD1B2" rx="7.7" ry="7.7" style="stroke:#181818;stroke-width:0.6999999999999998;"/><path d="M110.0859,39.1125 Q110.1953,38.9594 110.3266,38.8828 Q110.4578,38.8062 110.6109,38.8062 Q110.8734,38.8062 111.0375,38.9922 Q111.2016,39.1672 111.2016,39.5937 L111.2016,40.6109 Q111.2016,41.0375 111.0375,41.2234 Q110.8734,41.4094 110.6109,41.4094 Q110.3703,41.4094 110.2281,41.2672 Q110.0859,41.1359 110.0094,40.775 Q109.9766,40.5234 109.8453,40.3922 Q109.6156,40.1297 109.1891,39.9766 Q108.7625,39.8234 108.325,39.8234 Q107.7891,39.8234 107.3406,40.0531 Q106.9031,40.2828 106.5531,40.8078 Q106.2141,41.3328 106.2141,42.0547 L106.2141,42.8203 Q106.2141,43.6844 106.8375,44.2641 Q107.4609,44.8328 108.5766,44.8328 Q109.2328,44.8328 109.6922,44.6578 Q109.9656,44.5484 110.2609,44.2422 Q110.4469,44.0562 110.5453,44.0016 Q110.6547,43.9469 110.7969,43.9469 Q111.0266,43.9469 111.2016,44.1328 Q111.3875,44.3078 111.3875,44.5484 Q111.3875,44.7891 111.1469,45.0734 Q110.7969,45.4781 110.2391,45.7078 Q109.4844,46.025 108.5766,46.025 Q107.5156,46.025 106.6734,45.5875 Q105.9844,45.2375 105.5031,44.4937 Q105.0219,43.7391 105.0219,42.8422 L105.0219,42.0328 Q105.0219,41.1031 105.4484,40.3047 Q105.8859,39.4953 106.6516,39.0687 Q107.4172,38.6312 108.2812,38.6312 Q108.7953,38.6312 109.2437,38.7516 Q109.7031,38.8609 110.0859,39.1125 Z " fill="#000000"/><text fill="#000000" font-family="sans-serif" font-size="9.8" lengthAdjust="spacing" textLength="73.5" x="117.95" y="46.0578">AddEntryToDoUI</text><line style="stroke:#181818;stroke-width:0.3499999999999999;" x1="98.35" x2="192.85" y1="53.2" y2="53.2"/><line style="stroke:#181818;stroke-width:0.3499999999999999;" x1="98.35" x2="192.85" y1="58.8" y2="58.8"/></g><!--class AddEntryToDoController--><g id="elem_AddEntryToDoController"><rect codeLine="16" fill="#F1F1F1" height="85.7391" id="AddEntryToDoController" rx="1.75" ry="1.75" style="stroke:#181818;stroke-width:0.3499999999999999;" width="131.6" x="592.2" y="4.9"/><ellipse cx="603.015" cy="16.1" fill="#ADD1B2" rx="7.7" ry="7.7" style="stroke:#181818;stroke-width:0.6999999999999998;"/><path d="M604.9509,13.2125 Q605.0603,13.0594 605.1916,12.9828 Q605.3228,12.9062 605.4759,12.9062 Q605.7384,12.9062 605.9025,13.0922 Q606.0666,13.2672 606.0666,13.6937 L606.0666,14.7109 Q606.0666,15.1375 605.9025,15.3234 Q605.7384,15.5094 605.4759,15.5094 Q605.2353,15.5094 605.0931,15.3672 Q604.9509,15.2359 604.8744,14.875 Q604.8416,14.6234 604.7103,14.4922 Q604.4806,14.2297 604.0541,14.0766 Q603.6275,13.9234 603.19,13.9234 Q602.6541,13.9234 602.2056,14.1531 Q601.7681,14.3828 601.4181,14.9078 Q601.0791,15.4328 601.0791,16.1547 L601.0791,16.9203 Q601.0791,17.7844 601.7025,18.3641 Q602.3259,18.9328 603.4416,18.9328 Q604.0978,18.9328 604.5572,18.7578 Q604.8306,18.6484 605.1259,18.3422 Q605.3119,18.1562 605.4103,18.1016 Q605.5197,18.0469 605.6619,18.0469 Q605.8916,18.0469 606.0666,18.2328 Q606.2525,18.4078 606.2525,18.6484 Q606.2525,18.8891 606.0119,19.1734 Q605.6619,19.5781 605.1041,19.8078 Q604.3494,20.125 603.4416,20.125 Q602.3806,20.125 601.5384,19.6875 Q600.8494,19.3375 600.3681,18.5937 Q599.8869,17.8391 599.8869,16.9422 L599.8869,16.1328 Q599.8869,15.2031 600.3134,14.4047 Q600.7509,13.5953 601.5166,13.1687 Q602.2822,12.7312 603.1462,12.7312 Q603.6603,12.7312 604.1087,12.8516 Q604.5681,12.9609 604.9509,13.2125 Z " fill="#000000"/><text fill="#000000" font-family="sans-serif" font-size="9.8" lengthAdjust="spacing" textLength="108.5" x="612.885" y="20.1578">AddEntryToDoController</text><line style="stroke:#181818;stroke-width:0.3499999999999999;" x1="592.9" x2="723.1" y1="27.3" y2="27.3"/><line style="stroke:#181818;stroke-width:0.3499999999999999;" x1="592.9" x2="723.1" y1="32.9" y2="32.9"/><text fill="#000000" font-family="sans-serif" font-size="9.8" lengthAdjust="spacing" textLength="121.1" x="596.4" y="46.2752">+AddEntryToDoController()</text><text fill="#000000" font-family="sans-serif" font-size="9.8" lengthAdjust="spacing" textLength="87.5" x="596.4" y="59.31">+getGreenSpaces()</text><text fill="#000000" font-family="sans-serif" font-size="9.8" lengthAdjust="spacing" textLength="123.2" x="596.4" y="72.3447">+getSelectedGreenSpace(i)</text><text fill="#000000" font-family="sans-serif" font-size="9.8" lengthAdjust="spacing" textLength="86.1" x="596.4" y="85.3795">+addEntry(taskDto)</text></g><!--class ApplicationSession--><g id="elem_ApplicationSession"><rect codeLine="24" fill="#F1F1F1" height="59.6695" id="ApplicationSession" rx="1.75" ry="1.75" style="stroke:#181818;stroke-width:0.3499999999999999;" width="105.7" x="459.55" y="158.55"/><ellipse cx="470.05" cy="169.75" fill="#ADD1B2" rx="7.7" ry="7.7" style="stroke:#181818;stroke-width:0.6999999999999998;"/><path d="M471.9859,166.8625 Q472.0953,166.7094 472.2266,166.6328 Q472.3578,166.5562 472.5109,166.5562 Q472.7734,166.5562 472.9375,166.7422 Q473.1016,166.9172 473.1016,167.3437 L473.1016,168.3609 Q473.1016,168.7875 472.9375,168.9734 Q472.7734,169.1594 472.5109,169.1594 Q472.2703,169.1594 472.1281,169.0172 Q471.9859,168.8859 471.9094,168.525 Q471.8766,168.2734 471.7453,168.1422 Q471.5156,167.8797 471.0891,167.7266 Q470.6625,167.5734 470.225,167.5734 Q469.6891,167.5734 469.2406,167.8031 Q468.8031,168.0328 468.4531,168.5578 Q468.1141,169.0828 468.1141,169.8047 L468.1141,170.5703 Q468.1141,171.4344 468.7375,172.0141 Q469.3609,172.5828 470.4766,172.5828 Q471.1328,172.5828 471.5922,172.4078 Q471.8656,172.2984 472.1609,171.9922 Q472.3469,171.8062 472.4453,171.7516 Q472.5547,171.6969 472.6969,171.6969 Q472.9266,171.6969 473.1016,171.8828 Q473.2875,172.0578 473.2875,172.2984 Q473.2875,172.5391 473.0469,172.8234 Q472.6969,173.2281 472.1391,173.4578 Q471.3844,173.775 470.4766,173.775 Q469.4156,173.775 468.5734,173.3375 Q467.8844,172.9875 467.4031,172.2437 Q466.9219,171.4891 466.9219,170.5922 L466.9219,169.7828 Q466.9219,168.8531 467.3484,168.0547 Q467.7859,167.2453 468.5516,166.8187 Q469.3172,166.3812 470.1812,166.3812 Q470.6953,166.3812 471.1437,166.5016 Q471.6031,166.6109 471.9859,166.8625 Z " fill="#000000"/><text fill="#000000" font-family="sans-serif" font-size="9.8" lengthAdjust="spacing" textLength="83.3" x="479.85" y="173.8078">ApplicationSession</text><line style="stroke:#181818;stroke-width:0.3499999999999999;" x1="460.25" x2="564.55" y1="180.95" y2="180.95"/><line style="stroke:#181818;stroke-width:0.3499999999999999;" x1="460.25" x2="564.55" y1="186.55" y2="186.55"/><text fill="#000000" font-family="sans-serif" font-size="9.8" lengthAdjust="spacing" textLength="89.6" x="463.75" y="199.9252">+static getInstance()</text><text fill="#000000" font-family="sans-serif" font-size="9.8" lengthAdjust="spacing" textLength="95.2" x="463.75" y="212.96">+getCurrentSession()</text></g><!--class Repositories--><g id="elem_Repositories"><rect codeLine="30" fill="#F1F1F1" height="85.7391" id="Repositories" rx="1.75" ry="1.75" style="stroke:#181818;stroke-width:0.3499999999999999;" width="138.6" x="799.4" y="4.9"/><ellipse cx="838.075" cy="16.1" fill="#ADD1B2" rx="7.7" ry="7.7" style="stroke:#181818;stroke-width:0.6999999999999998;"/><path d="M840.0109,13.2125 Q840.1203,13.0594 840.2516,12.9828 Q840.3828,12.9062 840.5359,12.9062 Q840.7984,12.9062 840.9625,13.0922 Q841.1266,13.2672 841.1266,13.6937 L841.1266,14.7109 Q841.1266,15.1375 840.9625,15.3234 Q840.7984,15.5094 840.5359,15.5094 Q840.2953,15.5094 840.1531,15.3672 Q840.0109,15.2359 839.9344,14.875 Q839.9016,14.6234 839.7703,14.4922 Q839.5406,14.2297 839.1141,14.0766 Q838.6875,13.9234 838.25,13.9234 Q837.7141,13.9234 837.2656,14.1531 Q836.8281,14.3828 836.4781,14.9078 Q836.1391,15.4328 836.1391,16.1547 L836.1391,16.9203 Q836.1391,17.7844 836.7625,18.3641 Q837.3859,18.9328 838.5016,18.9328 Q839.1578,18.9328 839.6172,18.7578 Q839.8906,18.6484 840.1859,18.3422 Q840.3719,18.1562 840.4703,18.1016 Q840.5797,18.0469 840.7219,18.0469 Q840.9516,18.0469 841.1266,18.2328 Q841.3125,18.4078 841.3125,18.6484 Q841.3125,18.8891 841.0719,19.1734 Q840.7219,19.5781 840.1641,19.8078 Q839.4094,20.125 838.5016,20.125 Q837.4406,20.125 836.5984,19.6875 Q835.9094,19.3375 835.4281,18.5937 Q834.9469,17.8391 834.9469,16.9422 L834.9469,16.1328 Q834.9469,15.2031 835.3734,14.4047 Q835.8109,13.5953 836.5766,13.1687 Q837.3422,12.7312 838.2062,12.7312 Q838.7203,12.7312 839.1687,12.8516 Q839.6281,12.9609 840.0109,13.2125 Z " fill="#000000"/><text fill="#000000" font-family="sans-serif" font-size="9.8" lengthAdjust="spacing" textLength="55.3" x="852.425" y="20.1578">Repositories</text><line style="stroke:#181818;stroke-width:0.3499999999999999;" x1="800.1" x2="937.3" y1="27.3" y2="27.3"/><line style="stroke:#181818;stroke-width:0.3499999999999999;" x1="800.1" x2="937.3" y1="32.9" y2="32.9"/><text fill="#000000" font-family="sans-serif" font-size="9.8" lengthAdjust="spacing" textLength="65.8" x="803.6" y="46.2752">-Repositories()</text><text fill="#000000" font-family="sans-serif" font-size="9.8" lengthAdjust="spacing" textLength="127.4" x="803.6" y="59.31">+getInstance() : Repositories</text><text fill="#000000" font-family="sans-serif" font-size="9.8" lengthAdjust="spacing" textLength="130.2" x="803.6" y="72.3447">+getGreenSpaceRepository()</text><text fill="#000000" font-family="sans-serif" font-size="9.8" lengthAdjust="spacing" textLength="66.5" x="803.6" y="85.3795">+getToDoList()</text></g><!--class UserSession--><g id="elem_UserSession"><rect codeLine="38" fill="#F1F1F1" height="46.6348" id="UserSession" rx="1.75" ry="1.75" style="stroke:#181818;stroke-width:0.3499999999999999;" width="79.1" x="472.85" y="312.2"/><ellipse cx="483.98" cy="323.4" fill="#ADD1B2" rx="7.7" ry="7.7" style="stroke:#181818;stroke-width:0.6999999999999998;"/><path d="M485.9159,320.5125 Q486.0253,320.3594 486.1566,320.2828 Q486.2878,320.2062 486.4409,320.2062 Q486.7034,320.2062 486.8675,320.3922 Q487.0316,320.5672 487.0316,320.9937 L487.0316,322.0109 Q487.0316,322.4375 486.8675,322.6234 Q486.7034,322.8094 486.4409,322.8094 Q486.2003,322.8094 486.0581,322.6672 Q485.9159,322.5359 485.8394,322.175 Q485.8066,321.9234 485.6753,321.7922 Q485.4456,321.5297 485.0191,321.3766 Q484.5925,321.2234 484.155,321.2234 Q483.6191,321.2234 483.1706,321.4531 Q482.7331,321.6828 482.3831,322.2078 Q482.0441,322.7328 482.0441,323.4547 L482.0441,324.2203 Q482.0441,325.0844 482.6675,325.6641 Q483.2909,326.2328 484.4066,326.2328 Q485.0628,326.2328 485.5222,326.0578 Q485.7956,325.9484 486.0909,325.6422 Q486.2769,325.4562 486.3753,325.4016 Q486.4847,325.3469 486.6269,325.3469 Q486.8566,325.3469 487.0316,325.5328 Q487.2175,325.7078 487.2175,325.9484 Q487.2175,326.1891 486.9769,326.4734 Q486.6269,326.8781 486.0691,327.1078 Q485.3144,327.425 484.4066,327.425 Q483.3456,327.425 482.5034,326.9875 Q481.8144,326.6375 481.3331,325.8937 Q480.8519,325.1391 480.8519,324.2422 L480.8519,323.4328 Q480.8519,322.5031 481.2784,321.7047 Q481.7159,320.8953 482.4816,320.4687 Q483.2472,320.0312 484.1112,320.0312 Q484.6253,320.0312 485.0737,320.1516 Q485.5331,320.2609 485.9159,320.5125 Z " fill="#000000"/><text fill="#000000" font-family="sans-serif" font-size="9.8" lengthAdjust="spacing" textLength="55.3" x="493.92" y="327.4578">UserSession</text><line style="stroke:#181818;stroke-width:0.3499999999999999;" x1="473.55" x2="551.25" y1="334.6" y2="334.6"/><line style="stroke:#181818;stroke-width:0.3499999999999999;" x1="473.55" x2="551.25" y1="340.2" y2="340.2"/><text fill="#000000" font-family="sans-serif" font-size="9.8" lengthAdjust="spacing" textLength="70.7" x="477.05" y="353.5752">+getUserEmail()</text></g><!--class GreenSpaceRepository--><g id="elem_GreenSpaceRepository"><rect codeLine="43" fill="#F1F1F1" height="85.7391" id="GreenSpaceRepository" rx="1.75" ry="1.75" style="stroke:#181818;stroke-width:0.3499999999999999;" width="221.2" x="912.8" y="145.6"/><ellipse cx="968.625" cy="156.8" fill="#ADD1B2" rx="7.7" ry="7.7" style="stroke:#181818;stroke-width:0.6999999999999998;"/><path d="M970.5609,153.9125 Q970.6703,153.7594 970.8016,153.6828 Q970.9328,153.6062 971.0859,153.6062 Q971.3484,153.6062 971.5125,153.7922 Q971.6766,153.9672 971.6766,154.3937 L971.6766,155.4109 Q971.6766,155.8375 971.5125,156.0234 Q971.3484,156.2094 971.0859,156.2094 Q970.8453,156.2094 970.7031,156.0672 Q970.5609,155.9359 970.4844,155.575 Q970.4516,155.3234 970.3203,155.1922 Q970.0906,154.9297 969.6641,154.7766 Q969.2375,154.6234 968.8,154.6234 Q968.2641,154.6234 967.8156,154.8531 Q967.3781,155.0828 967.0281,155.6078 Q966.6891,156.1328 966.6891,156.8547 L966.6891,157.6203 Q966.6891,158.4844 967.3125,159.0641 Q967.9359,159.6328 969.0516,159.6328 Q969.7078,159.6328 970.1672,159.4578 Q970.4406,159.3484 970.7359,159.0422 Q970.9219,158.8562 971.0203,158.8016 Q971.1297,158.7469 971.2719,158.7469 Q971.5016,158.7469 971.6766,158.9328 Q971.8625,159.1078 971.8625,159.3484 Q971.8625,159.5891 971.6219,159.8734 Q971.2719,160.2781 970.7141,160.5078 Q969.9594,160.825 969.0516,160.825 Q967.9906,160.825 967.1484,160.3875 Q966.4594,160.0375 965.9781,159.2937 Q965.4969,158.5391 965.4969,157.6422 L965.4969,156.8328 Q965.4969,155.9031 965.9234,155.1047 Q966.3609,154.2953 967.1266,153.8687 Q967.8922,153.4312 968.7562,153.4312 Q969.2703,153.4312 969.7187,153.5516 Q970.1781,153.6609 970.5609,153.9125 Z " fill="#000000"/><text fill="#000000" font-family="sans-serif" font-size="9.8" lengthAdjust="spacing" textLength="103.6" x="982.975" y="160.8578">GreenSpaceRepository</text><line style="stroke:#181818;stroke-width:0.3499999999999999;" x1="913.5" x2="1133.3" y1="168" y2="168"/><text fill="#000000" font-family="sans-serif" font-size="9.8" lengthAdjust="spacing" textLength="163.1" x="917" y="181.3752">-List&lt;GreenSpace&gt; greenSpacesList</text><text fill="#000000" font-family="sans-serif" font-size="9.8" lengthAdjust="spacing" textLength="212.8" x="917" y="194.41">-List&lt;GreenSpace&gt; associatedGreenSpacesList</text><line style="stroke:#181818;stroke-width:0.3499999999999999;" x1="913.5" x2="1133.3" y1="199.6695" y2="199.6695"/><text fill="#000000" font-family="sans-serif" font-size="9.8" lengthAdjust="spacing" textLength="110.6" x="917" y="213.0447">+getGreenSpaces(email)</text><text fill="#000000" font-family="sans-serif" font-size="9.8" lengthAdjust="spacing" textLength="123.2" x="917" y="226.0795">+getSelectedGreenSpace(i)</text></g><!--class GreenSpace--><g id="elem_GreenSpace"><rect codeLine="51" fill="#F1F1F1" height="111.8086" id="GreenSpace" rx="1.75" ry="1.75" style="stroke:#181818;stroke-width:0.3499999999999999;" width="104.3" x="442.05" y="634.2"/><ellipse cx="464.205" cy="645.4" fill="#ADD1B2" rx="7.7" ry="7.7" style="stroke:#181818;stroke-width:0.6999999999999998;"/><path d="M466.1409,642.5125 Q466.2503,642.3594 466.3816,642.2828 Q466.5128,642.2062 466.6659,642.2062 Q466.9284,642.2062 467.0925,642.3922 Q467.2566,642.5672 467.2566,642.9937 L467.2566,644.0109 Q467.2566,644.4375 467.0925,644.6234 Q466.9284,644.8094 466.6659,644.8094 Q466.4253,644.8094 466.2831,644.6672 Q466.1409,644.5359 466.0644,644.175 Q466.0316,643.9234 465.9003,643.7922 Q465.6706,643.5297 465.2441,643.3766 Q464.8175,643.2234 464.38,643.2234 Q463.8441,643.2234 463.3956,643.4531 Q462.9581,643.6828 462.6081,644.2078 Q462.2691,644.7328 462.2691,645.4547 L462.2691,646.2203 Q462.2691,647.0844 462.8925,647.6641 Q463.5159,648.2328 464.6316,648.2328 Q465.2878,648.2328 465.7472,648.0578 Q466.0206,647.9484 466.3159,647.6422 Q466.5019,647.4562 466.6003,647.4016 Q466.7097,647.3469 466.8519,647.3469 Q467.0816,647.3469 467.2566,647.5328 Q467.4425,647.7078 467.4425,647.9484 Q467.4425,648.1891 467.2019,648.4734 Q466.8519,648.8781 466.2941,649.1078 Q465.5394,649.425 464.6316,649.425 Q463.5706,649.425 462.7284,648.9875 Q462.0394,648.6375 461.5581,647.8937 Q461.0769,647.1391 461.0769,646.2422 L461.0769,645.4328 Q461.0769,644.5031 461.5034,643.7047 Q461.9409,642.8953 462.7066,642.4687 Q463.4722,642.0312 464.3362,642.0312 Q464.8503,642.0312 465.2987,642.1516 Q465.7581,642.2609 466.1409,642.5125 Z " fill="#000000"/><text fill="#000000" font-family="sans-serif" font-size="9.8" lengthAdjust="spacing" textLength="56" x="476.595" y="649.4578">GreenSpace</text><line style="stroke:#181818;stroke-width:0.3499999999999999;" x1="442.75" x2="545.65" y1="656.6" y2="656.6"/><text fill="#000000" font-family="sans-serif" font-size="9.8" lengthAdjust="spacing" textLength="56.7" x="446.25" y="669.9752">-String name</text><text fill="#000000" font-family="sans-serif" font-size="9.8" lengthAdjust="spacing" textLength="51.1" x="446.25" y="683.01">-String type</text><text fill="#000000" font-family="sans-serif" font-size="9.8" lengthAdjust="spacing" textLength="37.1" x="446.25" y="696.0447">-int area</text><text fill="#000000" font-family="sans-serif" font-size="9.8" lengthAdjust="spacing" textLength="67.9" x="446.25" y="709.0795">-String address</text><text fill="#000000" font-family="sans-serif" font-size="9.8" lengthAdjust="spacing" textLength="74.2" x="446.25" y="722.1143">-String gsmEmail</text><line style="stroke:#181818;stroke-width:0.3499999999999999;" x1="442.75" x2="545.65" y1="727.3738" y2="727.3738"/><text fill="#000000" font-family="sans-serif" font-size="9.8" lengthAdjust="spacing" textLength="95.9" x="446.25" y="740.749">+hasUserEmail(email)</text></g><!--class GreenSpaceMapper--><g id="elem_GreenSpaceMapper"><rect codeLine="61" fill="#F1F1F1" height="72.7043" id="GreenSpaceMapper" rx="1.75" ry="1.75" style="stroke:#181818;stroke-width:0.3499999999999999;" width="252" x="182.7" y="151.9"/><ellipse cx="260.925" cy="163.1" fill="#ADD1B2" rx="7.7" ry="7.7" style="stroke:#181818;stroke-width:0.6999999999999998;"/><path d="M262.8609,160.2125 Q262.9703,160.0594 263.1016,159.9828 Q263.2328,159.9062 263.3859,159.9062 Q263.6484,159.9062 263.8125,160.0922 Q263.9766,160.2672 263.9766,160.6937 L263.9766,161.7109 Q263.9766,162.1375 263.8125,162.3234 Q263.6484,162.5094 263.3859,162.5094 Q263.1453,162.5094 263.0031,162.3672 Q262.8609,162.2359 262.7844,161.875 Q262.7516,161.6234 262.6203,161.4922 Q262.3906,161.2297 261.9641,161.0766 Q261.5375,160.9234 261.1,160.9234 Q260.5641,160.9234 260.1156,161.1531 Q259.6781,161.3828 259.3281,161.9078 Q258.9891,162.4328 258.9891,163.1547 L258.9891,163.9203 Q258.9891,164.7844 259.6125,165.3641 Q260.2359,165.9328 261.3516,165.9328 Q262.0078,165.9328 262.4672,165.7578 Q262.7406,165.6484 263.0359,165.3422 Q263.2219,165.1562 263.3203,165.1016 Q263.4297,165.0469 263.5719,165.0469 Q263.8016,165.0469 263.9766,165.2328 Q264.1625,165.4078 264.1625,165.6484 Q264.1625,165.8891 263.9219,166.1734 Q263.5719,166.5781 263.0141,166.8078 Q262.2594,167.125 261.3516,167.125 Q260.2906,167.125 259.4484,166.6875 Q258.7594,166.3375 258.2781,165.5937 Q257.7969,164.8391 257.7969,163.9422 L257.7969,163.1328 Q257.7969,162.2031 258.2234,161.4047 Q258.6609,160.5953 259.4266,160.1687 Q260.1922,159.7312 261.0562,159.7312 Q261.5703,159.7312 262.0187,159.8516 Q262.4781,159.9609 262.8609,160.2125 Z " fill="#000000"/><text fill="#000000" font-family="sans-serif" font-size="9.8" lengthAdjust="spacing" textLength="89.6" x="275.275" y="167.1578">GreenSpaceMapper</text><line style="stroke:#181818;stroke-width:0.3499999999999999;" x1="183.4" x2="434" y1="174.3" y2="174.3"/><text fill="#000000" font-family="sans-serif" font-size="9.8" lengthAdjust="spacing" textLength="243.6" x="186.9" y="187.6752">-List&lt;GreenSpaceDto&gt; associatedGreenSpacesListDto</text><line style="stroke:#181818;stroke-width:0.3499999999999999;" x1="183.4" x2="434" y1="192.9348" y2="192.9348"/><text fill="#000000" font-family="sans-serif" font-size="9.8" lengthAdjust="spacing" textLength="165.9" x="186.9" y="206.31">+toDTO(associatedGreenSpacesList)</text><text fill="#000000" font-family="sans-serif" font-size="9.8" lengthAdjust="spacing" textLength="53.2" x="186.9" y="219.3447">-toDTO(obj)</text></g><!--class GreenSpaceDto--><g id="elem_GreenSpaceDto"><rect codeLine="68" fill="#F1F1F1" height="98.7738" id="GreenSpaceDto" rx="1.75" ry="1.75" style="stroke:#181818;stroke-width:0.3499999999999999;" width="208.6" x="161.7" y="286.3"/><ellipse cx="227.325" cy="297.5" fill="#ADD1B2" rx="7.7" ry="7.7" style="stroke:#181818;stroke-width:0.6999999999999998;"/><path d="M229.2609,294.6125 Q229.3703,294.4594 229.5016,294.3828 Q229.6328,294.3062 229.7859,294.3062 Q230.0484,294.3062 230.2125,294.4922 Q230.3766,294.6672 230.3766,295.0937 L230.3766,296.1109 Q230.3766,296.5375 230.2125,296.7234 Q230.0484,296.9094 229.7859,296.9094 Q229.5453,296.9094 229.4031,296.7672 Q229.2609,296.6359 229.1844,296.275 Q229.1516,296.0234 229.0203,295.8922 Q228.7906,295.6297 228.3641,295.4766 Q227.9375,295.3234 227.5,295.3234 Q226.9641,295.3234 226.5156,295.5531 Q226.0781,295.7828 225.7281,296.3078 Q225.3891,296.8328 225.3891,297.5547 L225.3891,298.3203 Q225.3891,299.1844 226.0125,299.7641 Q226.6359,300.3328 227.7516,300.3328 Q228.4078,300.3328 228.8672,300.1578 Q229.1406,300.0484 229.4359,299.7422 Q229.6219,299.5562 229.7203,299.5016 Q229.8297,299.4469 229.9719,299.4469 Q230.2016,299.4469 230.3766,299.6328 Q230.5625,299.8078 230.5625,300.0484 Q230.5625,300.2891 230.3219,300.5734 Q229.9719,300.9781 229.4141,301.2078 Q228.6594,301.525 227.7516,301.525 Q226.6906,301.525 225.8484,301.0875 Q225.1594,300.7375 224.6781,299.9937 Q224.1969,299.2391 224.1969,298.3422 L224.1969,297.5328 Q224.1969,296.6031 224.6234,295.8047 Q225.0609,294.9953 225.8266,294.5687 Q226.5922,294.1312 227.4562,294.1312 Q227.9703,294.1312 228.4187,294.2516 Q228.8781,294.3609 229.2609,294.6125 Z " fill="#000000"/><text fill="#000000" font-family="sans-serif" font-size="9.8" lengthAdjust="spacing" textLength="71.4" x="241.675" y="301.5578">GreenSpaceDto</text><line style="stroke:#181818;stroke-width:0.3499999999999999;" x1="162.4" x2="369.6" y1="308.7" y2="308.7"/><text fill="#000000" font-family="sans-serif" font-size="9.8" lengthAdjust="spacing" textLength="56.7" x="165.9" y="322.0752">-String name</text><text fill="#000000" font-family="sans-serif" font-size="9.8" lengthAdjust="spacing" textLength="51.1" x="165.9" y="335.11">-String type</text><text fill="#000000" font-family="sans-serif" font-size="9.8" lengthAdjust="spacing" textLength="37.1" x="165.9" y="348.1447">-int area</text><text fill="#000000" font-family="sans-serif" font-size="9.8" lengthAdjust="spacing" textLength="67.9" x="165.9" y="361.1795">-String address</text><line style="stroke:#181818;stroke-width:0.3499999999999999;" x1="162.4" x2="369.6" y1="366.4391" y2="366.4391"/><text fill="#000000" font-family="sans-serif" font-size="9.8" lengthAdjust="spacing" textLength="200.2" x="165.9" y="379.8143">+GreenSpaceDto(name, type, area, address)</text></g><!--class ToDoList--><g id="elem_ToDoList"><rect codeLine="77" fill="#F1F1F1" height="59.6695" id="ToDoList" rx="1.75" ry="1.75" style="stroke:#181818;stroke-width:0.3499999999999999;" width="193.2" x="695.1" y="158.55"/><ellipse cx="768.775" cy="169.75" fill="#ADD1B2" rx="7.7" ry="7.7" style="stroke:#181818;stroke-width:0.6999999999999998;"/><path d="M770.7109,166.8625 Q770.8203,166.7094 770.9516,166.6328 Q771.0828,166.5562 771.2359,166.5562 Q771.4984,166.5562 771.6625,166.7422 Q771.8266,166.9172 771.8266,167.3437 L771.8266,168.3609 Q771.8266,168.7875 771.6625,168.9734 Q771.4984,169.1594 771.2359,169.1594 Q770.9953,169.1594 770.8531,169.0172 Q770.7109,168.8859 770.6344,168.525 Q770.6016,168.2734 770.4703,168.1422 Q770.2406,167.8797 769.8141,167.7266 Q769.3875,167.5734 768.95,167.5734 Q768.4141,167.5734 767.9656,167.8031 Q767.5281,168.0328 767.1781,168.5578 Q766.8391,169.0828 766.8391,169.8047 L766.8391,170.5703 Q766.8391,171.4344 767.4625,172.0141 Q768.0859,172.5828 769.2016,172.5828 Q769.8578,172.5828 770.3172,172.4078 Q770.5906,172.2984 770.8859,171.9922 Q771.0719,171.8062 771.1703,171.7516 Q771.2797,171.6969 771.4219,171.6969 Q771.6516,171.6969 771.8266,171.8828 Q772.0125,172.0578 772.0125,172.2984 Q772.0125,172.5391 771.7719,172.8234 Q771.4219,173.2281 770.8641,173.4578 Q770.1094,173.775 769.2016,173.775 Q768.1406,173.775 767.2984,173.3375 Q766.6094,172.9875 766.1281,172.2437 Q765.6469,171.4891 765.6469,170.5922 L765.6469,169.7828 Q765.6469,168.8531 766.0734,168.0547 Q766.5109,167.2453 767.2766,166.8187 Q768.0422,166.3812 768.9062,166.3812 Q769.4203,166.3812 769.8687,166.5016 Q770.3281,166.6109 770.7109,166.8625 Z " fill="#000000"/><text fill="#000000" font-family="sans-serif" font-size="9.8" lengthAdjust="spacing" textLength="39.9" x="783.125" y="173.8078">ToDoList</text><line style="stroke:#181818;stroke-width:0.3499999999999999;" x1="695.8" x2="887.6" y1="180.95" y2="180.95"/><line style="stroke:#181818;stroke-width:0.3499999999999999;" x1="695.8" x2="887.6" y1="186.55" y2="186.55"/><text fill="#000000" font-family="sans-serif" font-size="9.8" lengthAdjust="spacing" textLength="82.6" x="699.3" y="199.9252">-add(createdTask)</text><text fill="#000000" font-family="sans-serif" font-size="9.8" lengthAdjust="spacing" textLength="184.8" x="699.3" y="212.96">+addEntry(taskDto, selectedGreenSpace)</text></g><!--class Task--><g id="elem_Task"><rect codeLine="83" fill="#F1F1F1" height="98.7738" id="Task" rx="1.75" ry="1.75" style="stroke:#181818;stroke-width:0.3499999999999999;" width="378" x="481.6" y="460.25"/><ellipse cx="656.775" cy="471.45" fill="#ADD1B2" rx="7.7" ry="7.7" style="stroke:#181818;stroke-width:0.6999999999999998;"/><path d="M658.7109,468.5625 Q658.8203,468.4094 658.9516,468.3328 Q659.0828,468.2562 659.2359,468.2562 Q659.4984,468.2562 659.6625,468.4422 Q659.8266,468.6172 659.8266,469.0437 L659.8266,470.0609 Q659.8266,470.4875 659.6625,470.6734 Q659.4984,470.8594 659.2359,470.8594 Q658.9953,470.8594 658.8531,470.7172 Q658.7109,470.5859 658.6344,470.225 Q658.6016,469.9734 658.4703,469.8422 Q658.2406,469.5797 657.8141,469.4266 Q657.3875,469.2734 656.95,469.2734 Q656.4141,469.2734 655.9656,469.5031 Q655.5281,469.7328 655.1781,470.2578 Q654.8391,470.7828 654.8391,471.5047 L654.8391,472.2703 Q654.8391,473.1344 655.4625,473.7141 Q656.0859,474.2828 657.2016,474.2828 Q657.8578,474.2828 658.3172,474.1078 Q658.5906,473.9984 658.8859,473.6922 Q659.0719,473.5062 659.1703,473.4516 Q659.2797,473.3969 659.4219,473.3969 Q659.6516,473.3969 659.8266,473.5828 Q660.0125,473.7578 660.0125,473.9984 Q660.0125,474.2391 659.7719,474.5234 Q659.4219,474.9281 658.8641,475.1578 Q658.1094,475.475 657.2016,475.475 Q656.1406,475.475 655.2984,475.0375 Q654.6094,474.6875 654.1281,473.9437 Q653.6469,473.1891 653.6469,472.2922 L653.6469,471.4828 Q653.6469,470.5531 654.0734,469.7547 Q654.5109,468.9453 655.2766,468.5187 Q656.0422,468.0812 656.9062,468.0812 Q657.4203,468.0812 657.8687,468.2016 Q658.3281,468.3109 658.7109,468.5625 Z " fill="#000000"/><text fill="#000000" font-family="sans-serif" font-size="9.8" lengthAdjust="spacing" textLength="21.7" x="671.125" y="475.5078">Task</text><line style="stroke:#181818;stroke-width:0.3499999999999999;" x1="482.3" x2="858.9" y1="482.65" y2="482.65"/><text fill="#000000" font-family="sans-serif" font-size="9.8" lengthAdjust="spacing" textLength="47.6" x="485.8" y="496.0252">-String title</text><text fill="#000000" font-family="sans-serif" font-size="9.8" lengthAdjust="spacing" textLength="80.5" x="485.8" y="509.06">-String description</text><text fill="#000000" font-family="sans-serif" font-size="9.8" lengthAdjust="spacing" textLength="94.5" x="485.8" y="522.0947">-int expectedDuration</text><text fill="#000000" font-family="sans-serif" font-size="9.8" lengthAdjust="spacing" textLength="100.8" x="485.8" y="535.1295">-Calendar startingDate</text><line style="stroke:#181818;stroke-width:0.3499999999999999;" x1="482.3" x2="858.9" y1="540.3891" y2="540.3891"/><text fill="#000000" font-family="sans-serif" font-size="9.8" lengthAdjust="spacing" textLength="369.6" x="485.8" y="553.7643">+Task(title, description, degreeOfUrgency, expectedDuration, selectedGreenSpace)</text></g><!--class DegreeOfUrgency--><g id="elem_DegreeOfUrgency"><rect codeLine="92" fill="#F1F1F1" height="72.7043" id="DegreeOfUrgency" rx="1.75" ry="1.75" style="stroke:#181818;stroke-width:0.3499999999999999;" width="102.2" x="874.3" y="653.8"/><ellipse cx="884.8" cy="665" fill="#EB937F" rx="7.7" ry="7.7" style="stroke:#181818;stroke-width:0.6999999999999998;"/><path d="M884.0016,665.5578 L884.0016,667.3078 L887.0312,667.3078 L887.0312,666.6625 Q887.0312,666.2359 887.1953,666.05 Q887.3703,665.8641 887.6328,665.8641 Q887.8953,665.8641 888.0594,666.05 Q888.2234,666.2359 888.2234,666.6625 L888.2234,668.5 L882.6234,668.5 Q882.1859,668.5 882,668.3359 Q881.825,668.1719 881.825,667.8984 Q881.825,667.6359 882.0109,667.4719 Q882.1969,667.3078 882.6234,667.3078 L882.8094,667.3078 L882.8094,662.6484 L882.6234,662.6484 Q882.1859,662.6484 882,662.4844 Q881.825,662.3203 881.825,662.0469 Q881.825,661.7844 882,661.6203 Q882.1859,661.4562 882.6234,661.4562 L887.9609,661.4562 L887.9609,663.2719 Q887.9609,663.6984 887.7969,663.8844 Q887.6437,664.0594 887.3703,664.0594 Q887.1078,664.0594 886.9437,663.8844 Q886.7797,663.6984 886.7797,663.2719 L886.7797,662.6484 L884.0016,662.6484 L884.0016,664.3656 L885.0406,664.3656 Q885.0406,663.9062 885.1281,663.775 Q885.3141,663.4906 885.6422,663.4906 Q885.9047,663.4906 886.0687,663.6766 Q886.2328,663.8516 886.2328,664.2781 L886.2328,665.6562 Q886.2328,666.0391 886.1453,666.1703 Q885.9594,666.4437 885.6422,666.4437 Q885.3141,666.4437 885.1281,666.1594 Q885.0406,666.0281 885.0406,665.5578 L884.0016,665.5578 Z " fill="#000000"/><text fill="#000000" font-family="sans-serif" font-size="9.8" lengthAdjust="spacing" textLength="79.8" x="894.6" y="669.0578">DegreeOfUrgency</text><line style="stroke:#181818;stroke-width:0.3499999999999999;" x1="875" x2="975.8" y1="676.2" y2="676.2"/><text fill="#000000" font-family="sans-serif" font-size="9.8" lengthAdjust="spacing" textLength="17.5" x="878.5" y="689.5752">Low</text><text fill="#000000" font-family="sans-serif" font-size="9.8" lengthAdjust="spacing" textLength="34.3" x="878.5" y="702.61">Medium</text><text fill="#000000" font-family="sans-serif" font-size="9.8" lengthAdjust="spacing" textLength="19.6" x="878.5" y="715.6447">High</text><line style="stroke:#181818;stroke-width:0.3499999999999999;" x1="875" x2="975.8" y1="720.9043" y2="720.9043"/></g><!--class GSTaskStatus--><g id="elem_GSTaskStatus"><rect codeLine="99" fill="#F1F1F1" height="111.8086" id="GSTaskStatus" rx="1.75" ry="1.75" style="stroke:#181818;stroke-width:0.3499999999999999;" width="86.1" x="1001.35" y="634.2"/><ellipse cx="1011.85" cy="645.4" fill="#EB937F" rx="7.7" ry="7.7" style="stroke:#181818;stroke-width:0.6999999999999998;"/><path d="M1011.0516,645.9578 L1011.0516,647.7078 L1014.0812,647.7078 L1014.0812,647.0625 Q1014.0812,646.6359 1014.2453,646.45 Q1014.4203,646.2641 1014.6828,646.2641 Q1014.9453,646.2641 1015.1094,646.45 Q1015.2734,646.6359 1015.2734,647.0625 L1015.2734,648.9 L1009.6734,648.9 Q1009.2359,648.9 1009.05,648.7359 Q1008.875,648.5719 1008.875,648.2984 Q1008.875,648.0359 1009.0609,647.8719 Q1009.2469,647.7078 1009.6734,647.7078 L1009.8594,647.7078 L1009.8594,643.0484 L1009.6734,643.0484 Q1009.2359,643.0484 1009.05,642.8844 Q1008.875,642.7203 1008.875,642.4469 Q1008.875,642.1844 1009.05,642.0203 Q1009.2359,641.8562 1009.6734,641.8562 L1015.0109,641.8562 L1015.0109,643.6719 Q1015.0109,644.0984 1014.8469,644.2844 Q1014.6937,644.4594 1014.4203,644.4594 Q1014.1578,644.4594 1013.9937,644.2844 Q1013.8297,644.0984 1013.8297,643.6719 L1013.8297,643.0484 L1011.0516,643.0484 L1011.0516,644.7656 L1012.0906,644.7656 Q1012.0906,644.3062 1012.1781,644.175 Q1012.3641,643.8906 1012.6922,643.8906 Q1012.9547,643.8906 1013.1187,644.0766 Q1013.2828,644.2516 1013.2828,644.6781 L1013.2828,646.0562 Q1013.2828,646.4391 1013.1953,646.5703 Q1013.0094,646.8437 1012.6922,646.8437 Q1012.3641,646.8437 1012.1781,646.5594 Q1012.0906,646.4281 1012.0906,645.9578 L1011.0516,645.9578 Z " fill="#000000"/><text fill="#000000" font-family="sans-serif" font-size="9.8" lengthAdjust="spacing" textLength="63.7" x="1021.65" y="649.4578">GSTaskStatus</text><line style="stroke:#181818;stroke-width:0.3499999999999999;" x1="1002.05" x2="1086.75" y1="656.6" y2="656.6"/><text fill="#000000" font-family="sans-serif" font-size="9.8" lengthAdjust="spacing" textLength="36.4" x="1005.55" y="669.9752">Pending</text><text fill="#000000" font-family="sans-serif" font-size="9.8" lengthAdjust="spacing" textLength="46.9" x="1005.55" y="683.01">Processed</text><text fill="#000000" font-family="sans-serif" font-size="9.8" lengthAdjust="spacing" textLength="36.4" x="1005.55" y="696.0447">Planned</text><text fill="#000000" font-family="sans-serif" font-size="9.8" lengthAdjust="spacing" textLength="47.6" x="1005.55" y="709.0795">Postponed</text><text fill="#000000" font-family="sans-serif" font-size="9.8" lengthAdjust="spacing" textLength="42" x="1005.55" y="722.1143">Canceled</text><text fill="#000000" font-family="sans-serif" font-size="9.8" lengthAdjust="spacing" textLength="23.8" x="1005.55" y="735.149">Done</text><line style="stroke:#181818;stroke-width:0.3499999999999999;" x1="1002.05" x2="1086.75" y1="740.4086" y2="740.4086"/></g><!--class TaskMapper--><g id="elem_TaskMapper"><rect codeLine="109" fill="#F1F1F1" height="46.6348" id="TaskMapper" rx="1.75" ry="1.75" style="stroke:#181818;stroke-width:0.3499999999999999;" width="188.3" x="576.45" y="312.2"/><ellipse cx="639.975" cy="323.4" fill="#ADD1B2" rx="7.7" ry="7.7" style="stroke:#181818;stroke-width:0.6999999999999998;"/><path d="M641.9109,320.5125 Q642.0203,320.3594 642.1516,320.2828 Q642.2828,320.2062 642.4359,320.2062 Q642.6984,320.2062 642.8625,320.3922 Q643.0266,320.5672 643.0266,320.9937 L643.0266,322.0109 Q643.0266,322.4375 642.8625,322.6234 Q642.6984,322.8094 642.4359,322.8094 Q642.1953,322.8094 642.0531,322.6672 Q641.9109,322.5359 641.8344,322.175 Q641.8016,321.9234 641.6703,321.7922 Q641.4406,321.5297 641.0141,321.3766 Q640.5875,321.2234 640.15,321.2234 Q639.6141,321.2234 639.1656,321.4531 Q638.7281,321.6828 638.3781,322.2078 Q638.0391,322.7328 638.0391,323.4547 L638.0391,324.2203 Q638.0391,325.0844 638.6625,325.6641 Q639.2859,326.2328 640.4016,326.2328 Q641.0578,326.2328 641.5172,326.0578 Q641.7906,325.9484 642.0859,325.6422 Q642.2719,325.4562 642.3703,325.4016 Q642.4797,325.3469 642.6219,325.3469 Q642.8516,325.3469 643.0266,325.5328 Q643.2125,325.7078 643.2125,325.9484 Q643.2125,326.1891 642.9719,326.4734 Q642.6219,326.8781 642.0641,327.1078 Q641.3094,327.425 640.4016,327.425 Q639.3406,327.425 638.4984,326.9875 Q637.8094,326.6375 637.3281,325.8937 Q636.8469,325.1391 636.8469,324.2422 L636.8469,323.4328 Q636.8469,322.5031 637.2734,321.7047 Q637.7109,320.8953 638.4766,320.4687 Q639.2422,320.0312 640.1062,320.0312 Q640.6203,320.0312 641.0687,320.1516 Q641.5281,320.2609 641.9109,320.5125 Z " fill="#000000"/><text fill="#000000" font-family="sans-serif" font-size="9.8" lengthAdjust="spacing" textLength="55.3" x="654.325" y="327.4578">TaskMapper</text><line style="stroke:#181818;stroke-width:0.3499999999999999;" x1="577.15" x2="764.05" y1="334.6" y2="334.6"/><line style="stroke:#181818;stroke-width:0.3499999999999999;" x1="577.15" x2="764.05" y1="340.2" y2="340.2"/><text fill="#000000" font-family="sans-serif" font-size="9.8" lengthAdjust="spacing" textLength="179.9" x="580.65" y="353.5752">+toModel(taskDto, selectedGreenSpace)</text></g><!--class TaskDto--><g id="elem_TaskDto"><rect codeLine="114" fill="#F1F1F1" height="163.9477" id="TaskDto" rx="1.75" ry="1.75" style="stroke:#181818;stroke-width:0.3499999999999999;" width="393.4" x="4.9" y="427.7"/><ellipse cx="180.075" cy="438.9" fill="#ADD1B2" rx="7.7" ry="7.7" style="stroke:#181818;stroke-width:0.6999999999999998;"/><path d="M182.0109,436.0125 Q182.1203,435.8594 182.2516,435.7828 Q182.3828,435.7062 182.5359,435.7062 Q182.7984,435.7062 182.9625,435.8922 Q183.1266,436.0672 183.1266,436.4937 L183.1266,437.5109 Q183.1266,437.9375 182.9625,438.1234 Q182.7984,438.3094 182.5359,438.3094 Q182.2953,438.3094 182.1531,438.1672 Q182.0109,438.0359 181.9344,437.675 Q181.9016,437.4234 181.7703,437.2922 Q181.5406,437.0297 181.1141,436.8766 Q180.6875,436.7234 180.25,436.7234 Q179.7141,436.7234 179.2656,436.9531 Q178.8281,437.1828 178.4781,437.7078 Q178.1391,438.2328 178.1391,438.9547 L178.1391,439.7203 Q178.1391,440.5844 178.7625,441.1641 Q179.3859,441.7328 180.5016,441.7328 Q181.1578,441.7328 181.6172,441.5578 Q181.8906,441.4484 182.1859,441.1422 Q182.3719,440.9562 182.4703,440.9016 Q182.5797,440.8469 182.7219,440.8469 Q182.9516,440.8469 183.1266,441.0328 Q183.3125,441.2078 183.3125,441.4484 Q183.3125,441.6891 183.0719,441.9734 Q182.7219,442.3781 182.1641,442.6078 Q181.4094,442.925 180.5016,442.925 Q179.4406,442.925 178.5984,442.4875 Q177.9094,442.1375 177.4281,441.3937 Q176.9469,440.6391 176.9469,439.7422 L176.9469,438.9328 Q176.9469,438.0031 177.3734,437.2047 Q177.8109,436.3953 178.5766,435.9687 Q179.3422,435.5312 180.2062,435.5312 Q180.7203,435.5312 181.1687,435.6516 Q181.6281,435.7609 182.0109,436.0125 Z " fill="#000000"/><text fill="#000000" font-family="sans-serif" font-size="9.8" lengthAdjust="spacing" textLength="37.1" x="194.425" y="442.9578">TaskDto</text><line style="stroke:#181818;stroke-width:0.3499999999999999;" x1="5.6" x2="397.6" y1="450.1" y2="450.1"/><text fill="#000000" font-family="sans-serif" font-size="9.8" lengthAdjust="spacing" textLength="47.6" x="9.1" y="463.4752">-String title</text><text fill="#000000" font-family="sans-serif" font-size="9.8" lengthAdjust="spacing" textLength="80.5" x="9.1" y="476.51">-String description</text><text fill="#000000" font-family="sans-serif" font-size="9.8" lengthAdjust="spacing" textLength="110.6" x="9.1" y="489.5447">-String degreeOfUrgency</text><text fill="#000000" font-family="sans-serif" font-size="9.8" lengthAdjust="spacing" textLength="94.5" x="9.1" y="502.5795">-int expectedDuration</text><text fill="#000000" font-family="sans-serif" font-size="9.8" lengthAdjust="spacing" textLength="100.8" x="9.1" y="515.6143">-Calendar startingDate</text><line style="stroke:#181818;stroke-width:0.3499999999999999;" x1="5.6" x2="397.6" y1="520.8738" y2="520.8738"/><text fill="#000000" font-family="sans-serif" font-size="9.8" lengthAdjust="spacing" textLength="385" x="9.1" y="534.249">+TaskDto(title, description, degreeOfUrgency, expectedDuration, selectedGreenSpace)</text><text fill="#000000" font-family="sans-serif" font-size="9.8" lengthAdjust="spacing" textLength="45.5" x="9.1" y="547.2838">+getTitle()</text><text fill="#000000" font-family="sans-serif" font-size="9.8" lengthAdjust="spacing" textLength="76.3" x="9.1" y="560.3186">+getDescription()</text><text fill="#000000" font-family="sans-serif" font-size="9.8" lengthAdjust="spacing" textLength="106.4" x="9.1" y="573.3533">+getDegreeOfUrgency()</text><text fill="#000000" font-family="sans-serif" font-size="9.8" lengthAdjust="spacing" textLength="105" x="9.1" y="586.3881">+getExpectedDuration()</text></g><!--reverse link Task to DegreeOfUrgency--><g id="link_Task_DegreeOfUrgency"><path codeLine="128" d="M749.0471,565.4702 C791.5651,595.3742 835.905,626.563 874.517,653.716 " fill="none" id="Task-backto-DegreeOfUrgency" style="stroke:#181818;stroke-width:0.6999999999999998;"/><ellipse cx="744.4665" cy="562.2486" fill="#FFFFFF" rx="5.6" ry="5.6" style="stroke:#181818;stroke-width:0.6999999999999998;"/><line style="stroke:#181818;stroke-width:0.6999999999999998;" x1="749.0471" x2="739.886" y1="565.4702" y2="559.027"/><line style="stroke:#181818;stroke-width:0.6999999999999998;" x1="741.2449" x2="747.6881" y1="566.8291" y2="557.6681"/></g><!--reverse link Task to GSTaskStatus--><g id="link_Task_GSTaskStatus"><path codeLine="129" d="M806.233,563.0595 C895.413,597.7515 989.1,634.2 989.1,634.2 C989.1,634.2 994.105,639.205 1001.098,646.198 " fill="none" id="Task-backto-GSTaskStatus" style="stroke:#181818;stroke-width:0.6999999999999998;"/><ellipse cx="801.014" cy="561.0293" fill="#FFFFFF" rx="5.6" ry="5.6" style="stroke:#181818;stroke-width:0.6999999999999998;"/><line style="stroke:#181818;stroke-width:0.6999999999999998;" x1="806.233" x2="795.795" y1="563.0595" y2="558.999"/><line style="stroke:#181818;stroke-width:0.6999999999999998;" x1="798.9838" x2="803.0443" y1="566.2483" y2="555.8102"/></g><!--link Repositories to Repositories--><g id="link_Repositories_Repositories"><path codeLine="131" d="M938.035,34.958 C952.28,36.309 962.5,40.523 962.5,47.6 C962.5,54.677 956.4612,58.4945 942.2162,59.8455 " fill="none" id="Repositories-to-Repositories" style="stroke:#181818;stroke-width:0.6999999999999998;"/><polygon fill="#181818" points="938.035,60.242,944.5712,62.4347,941.5194,59.9115,944.0425,56.8597,938.035,60.242" style="stroke:#181818;stroke-width:0.6999999999999998;"/><text fill="#000000" font-family="sans-serif" font-size="9.1" lengthAdjust="spacing" textLength="34.3" x="966.7" y="51.4698">instance</text></g><!--link ApplicationSession to ApplicationSession--><g id="link_ApplicationSession_ApplicationSession"><path codeLine="132" d="M565.362,175.301 C579.25,176.071 589.75,180.404 589.75,188.3 C589.75,196.196 583.4436,200.2965 569.5556,201.0665 " fill="none" id="ApplicationSession-to-ApplicationSession" style="stroke:#181818;stroke-width:0.6999999999999998;"/><polygon fill="#181818" points="565.362,201.299,571.8073,203.7459,568.8566,201.1052,571.4973,198.1545,565.362,201.299" style="stroke:#181818;stroke-width:0.6999999999999998;"/><text fill="#000000" font-family="sans-serif" font-size="9.1" lengthAdjust="spacing" textLength="34.3" x="593.95" y="192.1698">instance</text></g><!--link AddEntryToDoUI to AddEntryToDoController--><g id="link_AddEntryToDoUI_AddEntryToDoController"><path codeLine="134" d="M193.634,47.6 C244.153,47.6 316.4,47.6 316.4,47.6 C316.4,47.6 487.2,47.6 487.2,47.6 C487.2,47.6 539.7,47.6 587.762,47.6 " fill="none" id="AddEntryToDoUI-to-AddEntryToDoController" style="stroke:#181818;stroke-width:0.6999999999999998;stroke-dasharray:7.0,7.0;"/><polygon fill="#181818" points="591.962,47.6,585.662,44.8,588.462,47.6,585.662,50.4,591.962,47.6" style="stroke:#181818;stroke-width:0.6999999999999998;"/></g><!--link AddEntryToDoUI to GreenSpaceDto--><g id="link_AddEntryToDoUI_GreenSpaceDto"><path codeLine="135" d="M147.777,64.512 C153.769,109.228 170.1,231 170.1,231 C170.1,231 193.1384,255.9688 218.0094,282.9328 " fill="none" id="AddEntryToDoUI-to-GreenSpaceDto" style="stroke:#181818;stroke-width:0.6999999999999998;stroke-dasharray:7.0,7.0;"/><polygon fill="#181818" points="220.857,286.02,218.6437,279.4907,218.484,283.4473,214.5274,283.2875,220.857,286.02" style="stroke:#181818;stroke-width:0.6999999999999998;"/></g><!--link AddEntryToDoUI to TaskDto--><g id="link_AddEntryToDoUI_TaskDto"><path codeLine="136" d="M145.768,64.54 C146.468,131.796 149.1,385 149.1,385 C149.1,385 155.6299,400.418 165.5279,423.77 " fill="none" id="AddEntryToDoUI-to-TaskDto" style="stroke:#181818;stroke-width:0.6999999999999998;stroke-dasharray:7.0,7.0;"/><polygon fill="#181818" points="167.167,427.637,167.2864,420.7438,165.8011,424.4145,162.1304,422.9292,167.167,427.637" style="stroke:#181818;stroke-width:0.6999999999999998;"/></g><!--link AddEntryToDoController to Repositories--><g id="link_AddEntryToDoController_Repositories"><path codeLine="138" d="M723.8,47.6 C747.831,47.6 770.868,47.6 795.193,47.6 " fill="none" id="AddEntryToDoController-to-Repositories" style="stroke:#181818;stroke-width:0.6999999999999998;stroke-dasharray:7.0,7.0;"/><polygon fill="#181818" points="799.393,47.6,793.093,44.8,795.893,47.6,793.093,50.4,799.393,47.6" style="stroke:#181818;stroke-width:0.6999999999999998;"/><text fill="#000000" font-family="sans-serif" font-size="9.1" lengthAdjust="spacing" textLength="46.9" x="738.15" y="42.7198">repositories</text></g><!--link Repositories to GreenSpaceRepository--><g id="link_Repositories_GreenSpaceRepository"><path codeLine="140" d="M915.537,90.475 C934.92,107.926 954.2341,125.3173 973.6031,142.7613 " fill="none" id="Repositories-to-GreenSpaceRepository" style="stroke:#181818;stroke-width:0.6999999999999998;"/><polygon fill="#181818" points="976.724,145.572,973.9165,139.2753,974.1233,143.2297,970.1689,143.4365,976.724,145.572" style="stroke:#181818;stroke-width:0.6999999999999998;"/><text fill="#000000" font-family="sans-serif" font-size="9.1" lengthAdjust="spacing" textLength="4.9" x="966.1438" y="137.8556">1</text></g><!--link Repositories to ToDoList--><g id="link_Repositories_ToDoList"><path codeLine="141" d="M860.188,90.468 C856.625,108.115 853.3,124.6 853.3,124.6 C853.3,124.6 839.2336,138.9852 823.0916,155.4912 " fill="none" id="Repositories-to-ToDoList" style="stroke:#181818;stroke-width:0.6999999999999998;"/><polygon fill="#181818" points="820.155,158.494,826.5617,155.9475,822.6021,155.9917,822.558,152.0321,820.155,158.494" style="stroke:#181818;stroke-width:0.6999999999999998;"/><text fill="#000000" font-family="sans-serif" font-size="9.1" lengthAdjust="spacing" textLength="4.9" x="819.3995" y="150.7179">1</text></g><!--link AddEntryToDoController to GreenSpaceRepository--><g id="link_AddEntryToDoController_GreenSpaceRepository"><path codeLine="143" d="M723.912,75.306 C777.476,97.258 844.2,124.6 844.2,124.6 C844.2,124.6 871.9828,134.3649 908.7538,147.2939 " fill="none" id="AddEntryToDoController-to-GreenSpaceRepository" style="stroke:#181818;stroke-width:0.6999999999999998;stroke-dasharray:7.0,7.0;"/><polygon fill="#181818" points="912.716,148.687,907.7014,143.9558,909.4142,147.526,905.8439,149.2388,912.716,148.687" style="stroke:#181818;stroke-width:0.6999999999999998;"/><text fill="#000000" font-family="sans-serif" font-size="9.1" lengthAdjust="spacing" textLength="89.6" x="844.9" y="121.8198">greenSpaceRepostory</text></g><!--link AddEntryToDoController to ToDoList--><g id="link_AddEntryToDoController_ToDoList"><path codeLine="144" d="M679.28,90.468 C688.184,108.115 696.5,124.6 696.5,124.6 C696.5,124.6 719.2752,139.6705 744.2232,156.1765 " fill="none" id="AddEntryToDoController-to-ToDoList" style="stroke:#181818;stroke-width:0.6999999999999998;stroke-dasharray:7.0,7.0;"/><polygon fill="#181818" points="747.726,158.494,744.0169,152.6826,744.807,156.5628,740.9269,157.353,747.726,158.494" style="stroke:#181818;stroke-width:0.6999999999999998;"/><text fill="#000000" font-family="sans-serif" font-size="9.1" lengthAdjust="spacing" textLength="33.6" x="697.2" y="121.8198">toDoList</text></g><!--link AddEntryToDoController to ApplicationSession--><g id="link_AddEntryToDoController_ApplicationSession"><path codeLine="145" d="M613.921,90.475 C590.989,112.413 566.5632,135.788 545.9832,155.472 " fill="none" id="AddEntryToDoController-to-ApplicationSession" style="stroke:#181818;stroke-width:0.6999999999999998;stroke-dasharray:7.0,7.0;"/><polygon fill="#181818" points="542.948,158.375,549.4361,156.0439,545.4773,155.9558,545.5654,151.997,542.948,158.375" style="stroke:#181818;stroke-width:0.6999999999999998;"/></g><!--link AddEntryToDoController to UserSession--><g id="link_AddEntryToDoController_UserSession"><path codeLine="146" d="M652.19,90.447 C644.742,144.403 632.8,231 632.8,231 C632.8,231 564.2,286.3 564.2,286.3 C564.2,286.3 553.2827,296.5569 539.8427,309.1779 " fill="none" id="AddEntryToDoController-to-UserSession" style="stroke:#181818;stroke-width:0.6999999999999998;stroke-dasharray:7.0,7.0;"/><polygon fill="#181818" points="536.781,312.053,543.2902,309.7815,539.3324,309.6571,539.4568,305.6992,536.781,312.053" style="stroke:#181818;stroke-width:0.6999999999999998;"/></g><!--link AddEntryToDoController to GreenSpaceMapper--><g id="link_AddEntryToDoController_GreenSpaceMapper"><path codeLine="147" d="M592.095,74.585 C537.327,96.425 462.7722,126.1521 402.2922,150.2741 " fill="none" id="AddEntryToDoController-to-GreenSpaceMapper" style="stroke:#181818;stroke-width:0.6999999999999998;stroke-dasharray:7.0,7.0;"/><polygon fill="#181818" points="398.391,151.83,405.28,152.0968,401.642,150.5334,403.2054,146.8953,398.391,151.83" style="stroke:#181818;stroke-width:0.6999999999999998;"/></g><!--link ApplicationSession to UserSession--><g id="link_ApplicationSession_UserSession"><path codeLine="149" d="M512.4,218.183 C512.4,245.805 512.4,282.499 512.4,307.846 " fill="none" id="ApplicationSession-to-UserSession" style="stroke:#181818;stroke-width:0.6999999999999998;"/><polygon fill="#181818" points="512.4,312.046,515.2,305.746,512.4,308.546,509.6,305.746,512.4,312.046" style="stroke:#181818;stroke-width:0.6999999999999998;"/><text fill="#000000" font-family="sans-serif" font-size="9.1" lengthAdjust="spacing" textLength="50.4" x="513.1" y="262.5198">userSession</text><text fill="#000000" font-family="sans-serif" font-size="9.1" lengthAdjust="spacing" textLength="4.9" x="507.033" y="304.3768">1</text></g><!--link GreenSpaceRepository to GreenSpace--><g id="link_GreenSpaceRepository_GreenSpace"><path codeLine="151" d="M1007.573,231.126 C968.8,334.341 872.2,591.5 872.2,591.5 C872.2,591.5 654.1205,648.0348 550.4295,674.9218 " fill="none" id="GreenSpaceRepository-to-GreenSpace" style="stroke:#181818;stroke-width:0.6999999999999998;"/><polygon fill="#181818" points="546.364,675.976,553.1651,677.1051,549.752,675.0975,551.7595,671.6843,546.364,675.976" style="stroke:#181818;stroke-width:0.6999999999999998;"/><text fill="#000000" font-family="sans-serif" font-size="9.1" lengthAdjust="spacing" textLength="4.9" x="1000.4455" y="246.8822">1</text><text fill="#000000" font-family="sans-serif" font-size="9.1" lengthAdjust="spacing" textLength="3.5" x="551.9239" y="671.8358">*</text></g><!--link ToDoList to Task--><g id="link_ToDoList_Task"><path codeLine="152" d="M789.516,218.134 C785.421,272.734 777,385 777,385 C777,385 745.0091,422.2525 715.2381,456.9235 " fill="none" id="ToDoList-to-Task" style="stroke:#181818;stroke-width:0.6999999999999998;"/><polygon fill="#181818" points="712.502,460.11,718.7305,457.1544,714.7821,457.4546,714.4819,453.5062,712.502,460.11" style="stroke:#181818;stroke-width:0.6999999999999998;"/><text fill="#000000" font-family="sans-serif" font-size="9.1" lengthAdjust="spacing" textLength="4.9" x="783.8775" y="233.6596">1</text><text fill="#000000" font-family="sans-serif" font-size="9.1" lengthAdjust="spacing" textLength="3.5" x="713.1427" y="452.3193">*</text></g><!--link Task to GreenSpace--><g id="link_Task_GreenSpace"><path codeLine="154" d="M622.629,559.027 C599.067,582.974 573.5652,608.8767 549.4432,633.3837 " fill="none" id="Task-to-GreenSpace" style="stroke:#181818;stroke-width:0.6999999999999998;"/><polygon fill="#181818" points="546.497,636.377,552.9119,633.8513,548.9522,633.8826,548.9209,629.9229,546.497,636.377" style="stroke:#181818;stroke-width:0.6999999999999998;"/><text fill="#000000" font-family="sans-serif" font-size="9.1" lengthAdjust="spacing" textLength="3.5" x="614.0015" y="574.5643">*</text><text fill="#000000" font-family="sans-serif" font-size="9.1" lengthAdjust="spacing" textLength="4.9" x="551.8862" y="628.4324">1</text></g><!--link ToDoList to TaskMapper--><g id="link_ToDoList_TaskMapper"><path codeLine="156" d="M767.487,218.183 C744.569,245.805 713.3147,283.4666 692.2867,308.8136 " fill="none" id="ToDoList-to-TaskMapper" style="stroke:#181818;stroke-width:0.6999999999999998;stroke-dasharray:7.0,7.0;"/><polygon fill="#181818" points="689.605,312.046,695.7824,308.9851,691.8397,309.3523,691.4725,305.4096,689.605,312.046" style="stroke:#181818;stroke-width:0.6999999999999998;"/></g><!--link TaskMapper to TaskDto--><g id="link_TaskMapper_TaskDto"><path codeLine="158" d="M620.83,359.107 C593.138,371.77 564.2,385 564.2,385 C564.2,385 487.6674,411.152 402.5264,440.244 " fill="none" id="TaskMapper-to-TaskDto" style="stroke:#181818;stroke-width:0.6999999999999998;stroke-dasharray:7.0,7.0;"/><polygon fill="#181818" points="398.552,441.602,405.4189,442.2146,401.864,440.4703,403.6082,436.9154,398.552,441.602" style="stroke:#181818;stroke-width:0.6999999999999998;"/></g><!--link TaskMapper to Task--><g id="link_TaskMapper_Task"><path codeLine="159" d="M670.6,359.261 C670.6,384.888 670.6,422.926 670.6,456.008 " fill="none" id="TaskMapper-to-Task" style="stroke:#181818;stroke-width:0.6999999999999998;stroke-dasharray:7.0,7.0;"/><polygon fill="#181818" points="670.6,460.208,673.4,453.908,670.6,456.708,667.8,453.908,670.6,460.208" style="stroke:#181818;stroke-width:0.6999999999999998;"/></g><!--link TaskDto to GreenSpace--><g id="link_TaskDto_GreenSpace"><path codeLine="160" d="M334.201,591.514 C372.379,614.894 408.2355,636.8502 438.4055,655.3302 " fill="none" id="TaskDto-to-GreenSpace" style="stroke:#181818;stroke-width:0.6999999999999998;"/><polygon fill="#181818" points="441.987,657.524,438.0772,651.8456,439.0024,655.6958,435.1522,656.621,441.987,657.524" style="stroke:#181818;stroke-width:0.6999999999999998;"/><text fill="#000000" font-family="sans-serif" font-size="9.1" lengthAdjust="spacing" textLength="3.5" x="339.0836" y="606.9644">*</text><text fill="#000000" font-family="sans-serif" font-size="9.1" lengthAdjust="spacing" textLength="4.9" x="431.4499" y="651.4809">1</text></g><!--link GreenSpaceMapper to GreenSpaceDto--><g id="link_GreenSpaceMapper_GreenSpaceDto"><path codeLine="162" d="M298.256,224.7 C292.845,243.187 287.3468,261.9971 281.4668,282.0871 " fill="none" id="GreenSpaceMapper-to-GreenSpaceDto" style="stroke:#181818;stroke-width:0.6999999999999998;stroke-dasharray:7.0,7.0;"/><polygon fill="#181818" points="280.287,286.118,284.7439,280.8582,281.2701,282.7589,279.3694,279.2851,280.287,286.118" style="stroke:#181818;stroke-width:0.6999999999999998;"/></g><!--link GreenSpaceMapper to GreenSpace--><g id="link_GreenSpaceMapper_GreenSpace"><path codeLine="163" d="M335.86,224.952 C356.797,252.672 382.2,286.3 382.2,286.3 C382.2,286.3 446.9811,519.5042 477.6761,630.0272 " fill="none" id="GreenSpaceMapper-to-GreenSpace" style="stroke:#181818;stroke-width:0.6999999999999998;stroke-dasharray:7.0,7.0;"/><polygon fill="#181818" points="478.8,634.074,479.812,627.2545,477.8634,630.7016,474.4163,628.753,478.8,634.074" style="stroke:#181818;stroke-width:0.6999999999999998;"/></g><!--SRC=[hLRDJjmm4BxxAQnU26MtQgzLXOGsY2A1g1fu09CCmSMn8ziHtLPzzuwpJc9ld8MgSC6Uds- -6KzcziWySTaopHhQAAdAHwqQe5PtG2PDoyedLaDXjmAeXj8oMOlGm3ooIZrpMTC79aoe4Lo2tRP0MoMsxaAE4agbhIA1LocOCMVMQdxVMRWibIpuBw0V2JaIy62fLLJp-j7IYZiwN4b2UXzwLbNdqkhjhShLtINvJSYVb6gZyAI408qc5FzE5jJPiLVNO2yqW2om6612SG42EK0rgJC-g9a7pImpJxbLnm6TjXMyP8vy0SQu70OgngAuTDYN4iyI4ODucqvhaDOxPG7aTsYLuLPf3iQ3hIDX23D1qy-nPoBXKRyD8LofhhYn8OSx0te_7pHrulE6SH7Qfl17tWxuosHnIkkf_4wtP8R0gkGiUf39OVQGu4Yz-9e9oYFH0jiKEr-o1cA9QsqluT9Ife751jWT6aiL2slJz8Nob1wPcMhdoIRONBEs7PjvLXNil0E5GQqFPbL-UvCj6Xvxz9sPkl-HfEBWthOs9p5wvk1MFSIgzrmDrW6VeJT7AcYIbMYCQTtYnxZqXQwecNL028jM-zbPRiLUUXMOKlEsdqnJbl2pxP7pJhD0jM42PCMq- -wrHVSSINfwBbxM1rY5eExYleURXpjTWootgnduOY8WkuRciRjFwKezz_-leU9Tqn-_ufmTlIuAnwV0yTGD0-ORKaVAkxDMs2a6gjrDC2c7ipAsLSDju-QEy9SSnN5zervsJNcjAX3_y4293dpL6usAk3R__O2kPz_m3QVvwp33WPnFwB4uYXEgplSYxiQp8qrFrkjPcuoAg1D8k3xe-ZHQ9xXTk5yrPBxpd7L26lYGUANJ3wTBctpV42tZgPGm6Dg5f35TjBraTBWgPvc_-_GklTPIXkECMemUfJ2X8Oqw5lSn3g0CeT3J3b4Fc2T-d1om3dV-gpBnNtYo7tnj0apat0KHIB8YpgVtVHy-01dp3lNz4D_rihkkP-z69h-XIGRAqpdgduIOUDrYZFrw93hs1HFo5m00]--></g></svg>