<?xml version="1.0" encoding="us-ascii" standalone="no"?><svg xmlns="http://www.w3.org/2000/svg" xmlns:xlink="http://www.w3.org/1999/xlink" contentStyleType="text/css" height="948.6px" preserveAspectRatio="none" style="width:1431px;height:948px;background:#FFFFFF;" version="1.1" viewBox="0 0 1431 948" width="1431px" zoomAndPan="magnify"><defs/><g><!--class AddEntryToDoUI--><g id="elem_AddEntryToDoUI"><rect codeLine="11" fill="#F1F1F1" height="43.2" id="AddEntryToDoUI" rx="2.25" ry="2.25" style="stroke:#181818;stroke-width:0.45;" width="123.3" x="67.95" y="39.6"/><ellipse cx="81.45" cy="54" fill="#ADD1B2" rx="9.9" ry="9.9" style="stroke:#181818;stroke-width:0.9;"/><path d="M83.9391,50.2875 Q84.0797,50.0906 84.2484,49.9922 Q84.4172,49.8938 84.6141,49.8938 Q84.9516,49.8938 85.1625,50.1328 Q85.3734,50.3578 85.3734,50.9063 L85.3734,52.2141 Q85.3734,52.7625 85.1625,53.0016 Q84.9516,53.2406 84.6141,53.2406 Q84.3047,53.2406 84.1219,53.0578 Q83.9391,52.8891 83.8406,52.425 Q83.7984,52.1016 83.6297,51.9328 Q83.3344,51.5953 82.7859,51.3984 Q82.2375,51.2016 81.675,51.2016 Q80.9859,51.2016 80.4094,51.4969 Q79.8469,51.7922 79.3969,52.4672 Q78.9609,53.1422 78.9609,54.0703 L78.9609,55.0547 Q78.9609,56.1656 79.7625,56.9109 Q80.5641,57.6422 81.9984,57.6422 Q82.8422,57.6422 83.4328,57.4172 Q83.7844,57.2766 84.1641,56.8828 Q84.4031,56.6438 84.5297,56.5734 Q84.6703,56.5031 84.8531,56.5031 Q85.1484,56.5031 85.3734,56.7422 Q85.6125,56.9672 85.6125,57.2766 Q85.6125,57.5859 85.3031,57.9516 Q84.8531,58.4719 84.1359,58.7672 Q83.1656,59.175 81.9984,59.175 Q80.6344,59.175 79.5516,58.6125 Q78.6656,58.1625 78.0469,57.2063 Q77.4281,56.2359 77.4281,55.0828 L77.4281,54.0422 Q77.4281,52.8469 77.9766,51.8203 Q78.5391,50.7797 79.5234,50.2313 Q80.5078,49.6688 81.6188,49.6688 Q82.2797,49.6688 82.8563,49.8234 Q83.4469,49.9641 83.9391,50.2875 Z " fill="#000000"/><text fill="#000000" font-family="sans-serif" font-size="12.6" lengthAdjust="spacing" textLength="94.5" x="94.05" y="59.2172">AddEntryToDoUI</text><line style="stroke:#181818;stroke-width:0.45;" x1="68.85" x2="190.35" y1="68.4" y2="68.4"/><line style="stroke:#181818;stroke-width:0.45;" x1="68.85" x2="190.35" y1="75.6" y2="75.6"/></g><!--class AddEntryToDoController--><g id="elem_AddEntryToDoController"><rect codeLine="16" fill="#F1F1F1" height="110.2359" id="AddEntryToDoController" rx="2.25" ry="2.25" style="stroke:#181818;stroke-width:0.45;" width="169.2" x="706.5" y="6.3"/><ellipse cx="720.405" cy="20.7" fill="#ADD1B2" rx="9.9" ry="9.9" style="stroke:#181818;stroke-width:0.9;"/><path d="M722.8941,16.9875 Q723.0347,16.7906 723.2034,16.6922 Q723.3722,16.5938 723.5691,16.5938 Q723.9066,16.5938 724.1175,16.8328 Q724.3284,17.0578 724.3284,17.6063 L724.3284,18.9141 Q724.3284,19.4625 724.1175,19.7016 Q723.9066,19.9406 723.5691,19.9406 Q723.2597,19.9406 723.0769,19.7578 Q722.8941,19.5891 722.7956,19.125 Q722.7534,18.8016 722.5847,18.6328 Q722.2894,18.2953 721.7409,18.0984 Q721.1925,17.9016 720.63,17.9016 Q719.9409,17.9016 719.3644,18.1969 Q718.8019,18.4922 718.3519,19.1672 Q717.9159,19.8422 717.9159,20.7703 L717.9159,21.7547 Q717.9159,22.8656 718.7175,23.6109 Q719.5191,24.3422 720.9534,24.3422 Q721.7972,24.3422 722.3878,24.1172 Q722.7394,23.9766 723.1191,23.5828 Q723.3581,23.3438 723.4847,23.2734 Q723.6253,23.2031 723.8081,23.2031 Q724.1034,23.2031 724.3284,23.4422 Q724.5675,23.6672 724.5675,23.9766 Q724.5675,24.2859 724.2581,24.6516 Q723.8081,25.1719 723.0909,25.4672 Q722.1206,25.875 720.9534,25.875 Q719.5894,25.875 718.5066,25.3125 Q717.6206,24.8625 717.0019,23.9063 Q716.3831,22.9359 716.3831,21.7828 L716.3831,20.7422 Q716.3831,19.5469 716.9316,18.5203 Q717.4941,17.4797 718.4784,16.9313 Q719.4628,16.3688 720.5738,16.3688 Q721.2347,16.3688 721.8113,16.5234 Q722.4019,16.6641 722.8941,16.9875 Z " fill="#000000"/><text fill="#000000" font-family="sans-serif" font-size="12.6" lengthAdjust="spacing" textLength="139.5" x="733.095" y="25.9172">AddEntryToDoController</text><line style="stroke:#181818;stroke-width:0.45;" x1="707.4" x2="874.8" y1="35.1" y2="35.1"/><line style="stroke:#181818;stroke-width:0.45;" x1="707.4" x2="874.8" y1="42.3" y2="42.3"/><text fill="#000000" font-family="sans-serif" font-size="12.6" lengthAdjust="spacing" textLength="155.7" x="711.9" y="59.4967">+AddEntryToDoController()</text><text fill="#000000" font-family="sans-serif" font-size="12.6" lengthAdjust="spacing" textLength="112.5" x="711.9" y="76.2557">+getGreenSpaces()</text><text fill="#000000" font-family="sans-serif" font-size="12.6" lengthAdjust="spacing" textLength="158.4" x="711.9" y="93.0146">+getSelectedGreenSpace(i)</text><text fill="#000000" font-family="sans-serif" font-size="12.6" lengthAdjust="spacing" textLength="110.7" x="711.9" y="109.7736">+addEntry(taskDto)</text></g><!--class ApplicationSession--><g id="elem_ApplicationSession"><rect codeLine="24" fill="#F1F1F1" height="76.718" id="ApplicationSession" rx="2.25" ry="2.25" style="stroke:#181818;stroke-width:0.45;" width="135.9" x="535.95" y="203.85"/><ellipse cx="549.45" cy="218.25" fill="#ADD1B2" rx="9.9" ry="9.9" style="stroke:#181818;stroke-width:0.9;"/><path d="M551.9391,214.5375 Q552.0797,214.3406 552.2484,214.2422 Q552.4172,214.1438 552.6141,214.1438 Q552.9516,214.1438 553.1625,214.3828 Q553.3734,214.6078 553.3734,215.1563 L553.3734,216.4641 Q553.3734,217.0125 553.1625,217.2516 Q552.9516,217.4906 552.6141,217.4906 Q552.3047,217.4906 552.1219,217.3078 Q551.9391,217.1391 551.8406,216.675 Q551.7984,216.3516 551.6297,216.1828 Q551.3344,215.8453 550.7859,215.6484 Q550.2375,215.4516 549.675,215.4516 Q548.9859,215.4516 548.4094,215.7469 Q547.8469,216.0422 547.3969,216.7172 Q546.9609,217.3922 546.9609,218.3203 L546.9609,219.3047 Q546.9609,220.4156 547.7625,221.1609 Q548.5641,221.8922 549.9984,221.8922 Q550.8422,221.8922 551.4328,221.6672 Q551.7844,221.5266 552.1641,221.1328 Q552.4031,220.8938 552.5297,220.8234 Q552.6703,220.7531 552.8531,220.7531 Q553.1484,220.7531 553.3734,220.9922 Q553.6125,221.2172 553.6125,221.5266 Q553.6125,221.8359 553.3031,222.2016 Q552.8531,222.7219 552.1359,223.0172 Q551.1656,223.425 549.9984,223.425 Q548.6344,223.425 547.5516,222.8625 Q546.6656,222.4125 546.0469,221.4563 Q545.4281,220.4859 545.4281,219.3328 L545.4281,218.2922 Q545.4281,217.0969 545.9766,216.0703 Q546.5391,215.0297 547.5234,214.4813 Q548.5078,213.9188 549.6188,213.9188 Q550.2797,213.9188 550.8563,214.0734 Q551.4469,214.2141 551.9391,214.5375 Z " fill="#000000"/><text fill="#000000" font-family="sans-serif" font-size="12.6" lengthAdjust="spacing" textLength="107.1" x="562.05" y="223.4672">ApplicationSession</text><line style="stroke:#181818;stroke-width:0.45;" x1="536.85" x2="670.95" y1="232.65" y2="232.65"/><line style="stroke:#181818;stroke-width:0.45;" x1="536.85" x2="670.95" y1="239.85" y2="239.85"/><text fill="#000000" font-family="sans-serif" font-size="12.6" lengthAdjust="spacing" textLength="115.2" x="541.35" y="257.0467">+static getInstance()</text><text fill="#000000" font-family="sans-serif" font-size="12.6" lengthAdjust="spacing" textLength="122.4" x="541.35" y="273.8057">+getCurrentSession()</text></g><!--class Repositories--><g id="elem_Repositories"><rect codeLine="30" fill="#F1F1F1" height="110.2359" id="Repositories" rx="2.25" ry="2.25" style="stroke:#181818;stroke-width:0.45;" width="178.2" x="972.9" y="6.3"/><ellipse cx="1022.625" cy="20.7" fill="#ADD1B2" rx="9.9" ry="9.9" style="stroke:#181818;stroke-width:0.9;"/><path d="M1025.1141,16.9875 Q1025.2547,16.7906 1025.4234,16.6922 Q1025.5922,16.5938 1025.7891,16.5938 Q1026.1266,16.5938 1026.3375,16.8328 Q1026.5484,17.0578 1026.5484,17.6063 L1026.5484,18.9141 Q1026.5484,19.4625 1026.3375,19.7016 Q1026.1266,19.9406 1025.7891,19.9406 Q1025.4797,19.9406 1025.2969,19.7578 Q1025.1141,19.5891 1025.0156,19.125 Q1024.9734,18.8016 1024.8047,18.6328 Q1024.5094,18.2953 1023.9609,18.0984 Q1023.4125,17.9016 1022.85,17.9016 Q1022.1609,17.9016 1021.5844,18.1969 Q1021.0219,18.4922 1020.5719,19.1672 Q1020.1359,19.8422 1020.1359,20.7703 L1020.1359,21.7547 Q1020.1359,22.8656 1020.9375,23.6109 Q1021.7391,24.3422 1023.1734,24.3422 Q1024.0172,24.3422 1024.6078,24.1172 Q1024.9594,23.9766 1025.3391,23.5828 Q1025.5781,23.3438 1025.7047,23.2734 Q1025.8453,23.2031 1026.0281,23.2031 Q1026.3234,23.2031 1026.5484,23.4422 Q1026.7875,23.6672 1026.7875,23.9766 Q1026.7875,24.2859 1026.4781,24.6516 Q1026.0281,25.1719 1025.3109,25.4672 Q1024.3406,25.875 1023.1734,25.875 Q1021.8094,25.875 1020.7266,25.3125 Q1019.8406,24.8625 1019.2219,23.9063 Q1018.6031,22.9359 1018.6031,21.7828 L1018.6031,20.7422 Q1018.6031,19.5469 1019.1516,18.5203 Q1019.7141,17.4797 1020.6984,16.9313 Q1021.6828,16.3688 1022.7938,16.3688 Q1023.4547,16.3688 1024.0313,16.5234 Q1024.6219,16.6641 1025.1141,16.9875 Z " fill="#000000"/><text fill="#000000" font-family="sans-serif" font-size="12.6" lengthAdjust="spacing" textLength="71.1" x="1041.075" y="25.9172">Repositories</text><line style="stroke:#181818;stroke-width:0.45;" x1="973.8" x2="1150.2" y1="35.1" y2="35.1"/><line style="stroke:#181818;stroke-width:0.45;" x1="973.8" x2="1150.2" y1="42.3" y2="42.3"/><text fill="#000000" font-family="sans-serif" font-size="12.6" lengthAdjust="spacing" textLength="84.6" x="978.3" y="59.4967">-Repositories()</text><text fill="#000000" font-family="sans-serif" font-size="12.6" lengthAdjust="spacing" textLength="163.8" x="978.3" y="76.2557">+getInstance() : Repositories</text><text fill="#000000" font-family="sans-serif" font-size="12.6" lengthAdjust="spacing" textLength="167.4" x="978.3" y="93.0146">+getGreenSpaceRepository()</text><text fill="#000000" font-family="sans-serif" font-size="12.6" lengthAdjust="spacing" textLength="85.5" x="978.3" y="109.7736">+getToDoList()</text></g><!--class UserSession--><g id="elem_UserSession"><rect codeLine="38" fill="#F1F1F1" height="59.959" id="UserSession" rx="2.25" ry="2.25" style="stroke:#181818;stroke-width:0.45;" width="101.7" x="646.65" y="401.4"/><ellipse cx="660.96" cy="415.8" fill="#ADD1B2" rx="9.9" ry="9.9" style="stroke:#181818;stroke-width:0.9;"/><path d="M663.4491,412.0875 Q663.5897,411.8906 663.7584,411.7922 Q663.9272,411.6938 664.1241,411.6938 Q664.4616,411.6938 664.6725,411.9328 Q664.8834,412.1578 664.8834,412.7063 L664.8834,414.0141 Q664.8834,414.5625 664.6725,414.8016 Q664.4616,415.0406 664.1241,415.0406 Q663.8147,415.0406 663.6319,414.8578 Q663.4491,414.6891 663.3506,414.225 Q663.3084,413.9016 663.1397,413.7328 Q662.8444,413.3953 662.2959,413.1984 Q661.7475,413.0016 661.185,413.0016 Q660.4959,413.0016 659.9194,413.2969 Q659.3569,413.5922 658.9069,414.2672 Q658.4709,414.9422 658.4709,415.8703 L658.4709,416.8547 Q658.4709,417.9656 659.2725,418.7109 Q660.0741,419.4422 661.5084,419.4422 Q662.3522,419.4422 662.9428,419.2172 Q663.2944,419.0766 663.6741,418.6828 Q663.9131,418.4438 664.0397,418.3734 Q664.1803,418.3031 664.3631,418.3031 Q664.6584,418.3031 664.8834,418.5422 Q665.1225,418.7672 665.1225,419.0766 Q665.1225,419.3859 664.8131,419.7516 Q664.3631,420.2719 663.6459,420.5672 Q662.6756,420.975 661.5084,420.975 Q660.1444,420.975 659.0616,420.4125 Q658.1756,419.9625 657.5569,419.0063 Q656.9381,418.0359 656.9381,416.8828 L656.9381,415.8422 Q656.9381,414.6469 657.4866,413.6203 Q658.0491,412.5797 659.0334,412.0313 Q660.0178,411.4688 661.1288,411.4688 Q661.7897,411.4688 662.3663,411.6234 Q662.9569,411.7641 663.4491,412.0875 Z " fill="#000000"/><text fill="#000000" font-family="sans-serif" font-size="12.6" lengthAdjust="spacing" textLength="71.1" x="673.74" y="421.0172">UserSession</text><line style="stroke:#181818;stroke-width:0.45;" x1="647.55" x2="747.45" y1="430.2" y2="430.2"/><line style="stroke:#181818;stroke-width:0.45;" x1="647.55" x2="747.45" y1="437.4" y2="437.4"/><text fill="#000000" font-family="sans-serif" font-size="12.6" lengthAdjust="spacing" textLength="90.9" x="652.05" y="454.5967">+getUserEmail()</text></g><!--class GreenSpaceRepository--><g id="elem_GreenSpaceRepository"><rect codeLine="43" fill="#F1F1F1" height="110.2359" id="GreenSpaceRepository" rx="2.25" ry="2.25" style="stroke:#181818;stroke-width:0.45;" width="284.4" x="1127.7" y="187.2"/><ellipse cx="1199.475" cy="201.6" fill="#ADD1B2" rx="9.9" ry="9.9" style="stroke:#181818;stroke-width:0.9;"/><path d="M1201.9641,197.8875 Q1202.1047,197.6906 1202.2734,197.5922 Q1202.4422,197.4938 1202.6391,197.4938 Q1202.9766,197.4938 1203.1875,197.7328 Q1203.3984,197.9578 1203.3984,198.5063 L1203.3984,199.8141 Q1203.3984,200.3625 1203.1875,200.6016 Q1202.9766,200.8406 1202.6391,200.8406 Q1202.3297,200.8406 1202.1469,200.6578 Q1201.9641,200.4891 1201.8656,200.025 Q1201.8234,199.7016 1201.6547,199.5328 Q1201.3594,199.1953 1200.8109,198.9984 Q1200.2625,198.8016 1199.7,198.8016 Q1199.0109,198.8016 1198.4344,199.0969 Q1197.8719,199.3922 1197.4219,200.0672 Q1196.9859,200.7422 1196.9859,201.6703 L1196.9859,202.6547 Q1196.9859,203.7656 1197.7875,204.5109 Q1198.5891,205.2422 1200.0234,205.2422 Q1200.8672,205.2422 1201.4578,205.0172 Q1201.8094,204.8766 1202.1891,204.4828 Q1202.4281,204.2438 1202.5547,204.1734 Q1202.6953,204.1031 1202.8781,204.1031 Q1203.1734,204.1031 1203.3984,204.3422 Q1203.6375,204.5672 1203.6375,204.8766 Q1203.6375,205.1859 1203.3281,205.5516 Q1202.8781,206.0719 1202.1609,206.3672 Q1201.1906,206.775 1200.0234,206.775 Q1198.6594,206.775 1197.5766,206.2125 Q1196.6906,205.7625 1196.0719,204.8063 Q1195.4531,203.8359 1195.4531,202.6828 L1195.4531,201.6422 Q1195.4531,200.4469 1196.0016,199.4203 Q1196.5641,198.3797 1197.5484,197.8313 Q1198.5328,197.2688 1199.6438,197.2688 Q1200.3047,197.2688 1200.8813,197.4234 Q1201.4719,197.5641 1201.9641,197.8875 Z " fill="#000000"/><text fill="#000000" font-family="sans-serif" font-size="12.6" lengthAdjust="spacing" textLength="133.2" x="1217.925" y="206.8172">GreenSpaceRepository</text><line style="stroke:#181818;stroke-width:0.45;" x1="1128.6" x2="1411.2" y1="216" y2="216"/><text fill="#000000" font-family="sans-serif" font-size="12.6" lengthAdjust="spacing" textLength="209.7" x="1133.1" y="233.1967">-List&lt;GreenSpace&gt; greenSpacesList</text><text fill="#000000" font-family="sans-serif" font-size="12.6" lengthAdjust="spacing" textLength="273.6" x="1133.1" y="249.9557">-List&lt;GreenSpace&gt; associatedGreenSpacesList</text><line style="stroke:#181818;stroke-width:0.45;" x1="1128.6" x2="1411.2" y1="256.718" y2="256.718"/><text fill="#000000" font-family="sans-serif" font-size="12.6" lengthAdjust="spacing" textLength="142.2" x="1133.1" y="273.9146">+getGreenSpaces(email)</text><text fill="#000000" font-family="sans-serif" font-size="12.6" lengthAdjust="spacing" textLength="158.4" x="1133.1" y="290.6736">+getSelectedGreenSpace(i)</text></g><!--class GreenSpace--><g id="elem_GreenSpace"><rect codeLine="51" fill="#F1F1F1" height="143.7539" id="GreenSpace" rx="2.25" ry="2.25" style="stroke:#181818;stroke-width:0.45;" width="134.1" x="1098.45" y="799.2"/><ellipse cx="1126.935" cy="813.6" fill="#ADD1B2" rx="9.9" ry="9.9" style="stroke:#181818;stroke-width:0.9;"/><path d="M1129.4241,809.8875 Q1129.5647,809.6906 1129.7334,809.5922 Q1129.9022,809.4938 1130.0991,809.4938 Q1130.4366,809.4938 1130.6475,809.7328 Q1130.8584,809.9578 1130.8584,810.5063 L1130.8584,811.8141 Q1130.8584,812.3625 1130.6475,812.6016 Q1130.4366,812.8406 1130.0991,812.8406 Q1129.7897,812.8406 1129.6069,812.6578 Q1129.4241,812.4891 1129.3256,812.025 Q1129.2834,811.7016 1129.1147,811.5328 Q1128.8194,811.1953 1128.2709,810.9984 Q1127.7225,810.8016 1127.16,810.8016 Q1126.4709,810.8016 1125.8944,811.0969 Q1125.3319,811.3922 1124.8819,812.0672 Q1124.4459,812.7422 1124.4459,813.6703 L1124.4459,814.6547 Q1124.4459,815.7656 1125.2475,816.5109 Q1126.0491,817.2422 1127.4834,817.2422 Q1128.3272,817.2422 1128.9178,817.0172 Q1129.2694,816.8766 1129.6491,816.4828 Q1129.8881,816.2438 1130.0147,816.1734 Q1130.1553,816.1031 1130.3381,816.1031 Q1130.6334,816.1031 1130.8584,816.3422 Q1131.0975,816.5672 1131.0975,816.8766 Q1131.0975,817.1859 1130.7881,817.5516 Q1130.3381,818.0719 1129.6209,818.3672 Q1128.6506,818.775 1127.4834,818.775 Q1126.1194,818.775 1125.0366,818.2125 Q1124.1506,817.7625 1123.5319,816.8063 Q1122.9131,815.8359 1122.9131,814.6828 L1122.9131,813.6422 Q1122.9131,812.4469 1123.4616,811.4203 Q1124.0241,810.3797 1125.0084,809.8313 Q1125.9928,809.2688 1127.1038,809.2688 Q1127.7647,809.2688 1128.3413,809.4234 Q1128.9319,809.5641 1129.4241,809.8875 Z " fill="#000000"/><text fill="#000000" font-family="sans-serif" font-size="12.6" lengthAdjust="spacing" textLength="72" x="1142.865" y="818.8172">GreenSpace</text><line style="stroke:#181818;stroke-width:0.45;" x1="1099.35" x2="1231.65" y1="828" y2="828"/><text fill="#000000" font-family="sans-serif" font-size="12.6" lengthAdjust="spacing" textLength="72.9" x="1103.85" y="845.1967">-String name</text><text fill="#000000" font-family="sans-serif" font-size="12.6" lengthAdjust="spacing" textLength="65.7" x="1103.85" y="861.9557">-String type</text><text fill="#000000" font-family="sans-serif" font-size="12.6" lengthAdjust="spacing" textLength="47.7" x="1103.85" y="878.7146">-int area</text><text fill="#000000" font-family="sans-serif" font-size="12.6" lengthAdjust="spacing" textLength="87.3" x="1103.85" y="895.4736">-String address</text><text fill="#000000" font-family="sans-serif" font-size="12.6" lengthAdjust="spacing" textLength="92.7" x="1103.85" y="912.2326">-Email gsmEmail</text><line style="stroke:#181818;stroke-width:0.45;" x1="1099.35" x2="1231.65" y1="918.9949" y2="918.9949"/><text fill="#000000" font-family="sans-serif" font-size="12.6" lengthAdjust="spacing" textLength="123.3" x="1103.85" y="936.1916">+hasUserEmail(email)</text></g><!--class GreenSpaceMapper--><g id="elem_GreenSpaceMapper"><rect codeLine="61" fill="#F1F1F1" height="93.477" id="GreenSpaceMapper" rx="2.25" ry="2.25" style="stroke:#181818;stroke-width:0.45;" width="324" x="177.3" y="195.3"/><ellipse cx="277.875" cy="209.7" fill="#ADD1B2" rx="9.9" ry="9.9" style="stroke:#181818;stroke-width:0.9;"/><path d="M280.3641,205.9875 Q280.5047,205.7906 280.6734,205.6922 Q280.8422,205.5938 281.0391,205.5938 Q281.3766,205.5938 281.5875,205.8328 Q281.7984,206.0578 281.7984,206.6063 L281.7984,207.9141 Q281.7984,208.4625 281.5875,208.7016 Q281.3766,208.9406 281.0391,208.9406 Q280.7297,208.9406 280.5469,208.7578 Q280.3641,208.5891 280.2656,208.125 Q280.2234,207.8016 280.0547,207.6328 Q279.7594,207.2953 279.2109,207.0984 Q278.6625,206.9016 278.1,206.9016 Q277.4109,206.9016 276.8344,207.1969 Q276.2719,207.4922 275.8219,208.1672 Q275.3859,208.8422 275.3859,209.7703 L275.3859,210.7547 Q275.3859,211.8656 276.1875,212.6109 Q276.9891,213.3422 278.4234,213.3422 Q279.2672,213.3422 279.8578,213.1172 Q280.2094,212.9766 280.5891,212.5828 Q280.8281,212.3438 280.9547,212.2734 Q281.0953,212.2031 281.2781,212.2031 Q281.5734,212.2031 281.7984,212.4422 Q282.0375,212.6672 282.0375,212.9766 Q282.0375,213.2859 281.7281,213.6516 Q281.2781,214.1719 280.5609,214.4672 Q279.5906,214.875 278.4234,214.875 Q277.0594,214.875 275.9766,214.3125 Q275.0906,213.8625 274.4719,212.9063 Q273.8531,211.9359 273.8531,210.7828 L273.8531,209.7422 Q273.8531,208.5469 274.4016,207.5203 Q274.9641,206.4797 275.9484,205.9313 Q276.9328,205.3688 278.0438,205.3688 Q278.7047,205.3688 279.2813,205.5234 Q279.8719,205.6641 280.3641,205.9875 Z " fill="#000000"/><text fill="#000000" font-family="sans-serif" font-size="12.6" lengthAdjust="spacing" textLength="115.2" x="296.325" y="214.9172">GreenSpaceMapper</text><line style="stroke:#181818;stroke-width:0.45;" x1="178.2" x2="500.4" y1="224.1" y2="224.1"/><text fill="#000000" font-family="sans-serif" font-size="12.6" lengthAdjust="spacing" textLength="313.2" x="182.7" y="241.2967">-List&lt;GreenSpaceDto&gt; associatedGreenSpacesListDto</text><line style="stroke:#181818;stroke-width:0.45;" x1="178.2" x2="500.4" y1="248.059" y2="248.059"/><text fill="#000000" font-family="sans-serif" font-size="12.6" lengthAdjust="spacing" textLength="213.3" x="182.7" y="265.2557">+toDTO(associatedGreenSpacesList)</text><text fill="#000000" font-family="sans-serif" font-size="12.6" lengthAdjust="spacing" textLength="68.4" x="182.7" y="282.0146">-toDTO(obj)</text></g><!--class GreenSpaceDto--><g id="elem_GreenSpaceDto"><rect codeLine="68" fill="#F1F1F1" height="126.9949" id="GreenSpaceDto" rx="2.25" ry="2.25" style="stroke:#181818;stroke-width:0.45;" width="268.2" x="21.6" y="368.1"/><ellipse cx="105.975" cy="382.5" fill="#ADD1B2" rx="9.9" ry="9.9" style="stroke:#181818;stroke-width:0.9;"/><path d="M108.4641,378.7875 Q108.6047,378.5906 108.7734,378.4922 Q108.9422,378.3938 109.1391,378.3938 Q109.4766,378.3938 109.6875,378.6328 Q109.8984,378.8578 109.8984,379.4063 L109.8984,380.7141 Q109.8984,381.2625 109.6875,381.5016 Q109.4766,381.7406 109.1391,381.7406 Q108.8297,381.7406 108.6469,381.5578 Q108.4641,381.3891 108.3656,380.925 Q108.3234,380.6016 108.1547,380.4328 Q107.8594,380.0953 107.3109,379.8984 Q106.7625,379.7016 106.2,379.7016 Q105.5109,379.7016 104.9344,379.9969 Q104.3719,380.2922 103.9219,380.9672 Q103.4859,381.6422 103.4859,382.5703 L103.4859,383.5547 Q103.4859,384.6656 104.2875,385.4109 Q105.0891,386.1422 106.5234,386.1422 Q107.3672,386.1422 107.9578,385.9172 Q108.3094,385.7766 108.6891,385.3828 Q108.9281,385.1438 109.0547,385.0734 Q109.1953,385.0031 109.3781,385.0031 Q109.6734,385.0031 109.8984,385.2422 Q110.1375,385.4672 110.1375,385.7766 Q110.1375,386.0859 109.8281,386.4516 Q109.3781,386.9719 108.6609,387.2672 Q107.6906,387.675 106.5234,387.675 Q105.1594,387.675 104.0766,387.1125 Q103.1906,386.6625 102.5719,385.7063 Q101.9531,384.7359 101.9531,383.5828 L101.9531,382.5422 Q101.9531,381.3469 102.5016,380.3203 Q103.0641,379.2797 104.0484,378.7313 Q105.0328,378.1688 106.1438,378.1688 Q106.8047,378.1688 107.3813,378.3234 Q107.9719,378.4641 108.4641,378.7875 Z " fill="#000000"/><text fill="#000000" font-family="sans-serif" font-size="12.6" lengthAdjust="spacing" textLength="91.8" x="124.425" y="387.7172">GreenSpaceDto</text><line style="stroke:#181818;stroke-width:0.45;" x1="22.5" x2="288.9" y1="396.9" y2="396.9"/><text fill="#000000" font-family="sans-serif" font-size="12.6" lengthAdjust="spacing" textLength="72.9" x="27" y="414.0967">-String name</text><text fill="#000000" font-family="sans-serif" font-size="12.6" lengthAdjust="spacing" textLength="65.7" x="27" y="430.8557">-String type</text><text fill="#000000" font-family="sans-serif" font-size="12.6" lengthAdjust="spacing" textLength="47.7" x="27" y="447.6146">-int area</text><text fill="#000000" font-family="sans-serif" font-size="12.6" lengthAdjust="spacing" textLength="87.3" x="27" y="464.3736">-String address</text><line style="stroke:#181818;stroke-width:0.45;" x1="22.5" x2="288.9" y1="471.1359" y2="471.1359"/><text fill="#000000" font-family="sans-serif" font-size="12.6" lengthAdjust="spacing" textLength="257.4" x="27" y="488.3326">+GreenSpaceDto(name, type, area, address)</text></g><!--class ToDoList--><g id="elem_ToDoList"><rect codeLine="77" fill="#F1F1F1" height="76.718" id="ToDoList" rx="2.25" ry="2.25" style="stroke:#181818;stroke-width:0.45;" width="248.4" x="847.8" y="203.85"/><ellipse cx="942.525" cy="218.25" fill="#ADD1B2" rx="9.9" ry="9.9" style="stroke:#181818;stroke-width:0.9;"/><path d="M945.0141,214.5375 Q945.1547,214.3406 945.3234,214.2422 Q945.4922,214.1438 945.6891,214.1438 Q946.0266,214.1438 946.2375,214.3828 Q946.4484,214.6078 946.4484,215.1563 L946.4484,216.4641 Q946.4484,217.0125 946.2375,217.2516 Q946.0266,217.4906 945.6891,217.4906 Q945.3797,217.4906 945.1969,217.3078 Q945.0141,217.1391 944.9156,216.675 Q944.8734,216.3516 944.7047,216.1828 Q944.4094,215.8453 943.8609,215.6484 Q943.3125,215.4516 942.75,215.4516 Q942.0609,215.4516 941.4844,215.7469 Q940.9219,216.0422 940.4719,216.7172 Q940.0359,217.3922 940.0359,218.3203 L940.0359,219.3047 Q940.0359,220.4156 940.8375,221.1609 Q941.6391,221.8922 943.0734,221.8922 Q943.9172,221.8922 944.5078,221.6672 Q944.8594,221.5266 945.2391,221.1328 Q945.4781,220.8938 945.6047,220.8234 Q945.7453,220.7531 945.9281,220.7531 Q946.2234,220.7531 946.4484,220.9922 Q946.6875,221.2172 946.6875,221.5266 Q946.6875,221.8359 946.3781,222.2016 Q945.9281,222.7219 945.2109,223.0172 Q944.2406,223.425 943.0734,223.425 Q941.7094,223.425 940.6266,222.8625 Q939.7406,222.4125 939.1219,221.4563 Q938.5031,220.4859 938.5031,219.3328 L938.5031,218.2922 Q938.5031,217.0969 939.0516,216.0703 Q939.6141,215.0297 940.5984,214.4813 Q941.5828,213.9188 942.6938,213.9188 Q943.3547,213.9188 943.9313,214.0734 Q944.5219,214.2141 945.0141,214.5375 Z " fill="#000000"/><text fill="#000000" font-family="sans-serif" font-size="12.6" lengthAdjust="spacing" textLength="51.3" x="960.975" y="223.4672">ToDoList</text><line style="stroke:#181818;stroke-width:0.45;" x1="848.7" x2="1095.3" y1="232.65" y2="232.65"/><line style="stroke:#181818;stroke-width:0.45;" x1="848.7" x2="1095.3" y1="239.85" y2="239.85"/><text fill="#000000" font-family="sans-serif" font-size="12.6" lengthAdjust="spacing" textLength="106.2" x="853.2" y="257.0467">-add(createdTask)</text><text fill="#000000" font-family="sans-serif" font-size="12.6" lengthAdjust="spacing" textLength="237.6" x="853.2" y="273.8057">+addEntry(taskDto, selectedGreenSpace)</text></g><!--class Task--><g id="elem_Task"><rect codeLine="83" fill="#F1F1F1" height="160.5129" id="Task" rx="2.25" ry="2.25" style="stroke:#181818;stroke-width:0.45;" width="486" x="922.5" y="567"/><ellipse cx="1147.725" cy="581.4" fill="#ADD1B2" rx="9.9" ry="9.9" style="stroke:#181818;stroke-width:0.9;"/><path d="M1150.2141,577.6875 Q1150.3547,577.4906 1150.5234,577.3922 Q1150.6922,577.2938 1150.8891,577.2938 Q1151.2266,577.2938 1151.4375,577.5328 Q1151.6484,577.7578 1151.6484,578.3063 L1151.6484,579.6141 Q1151.6484,580.1625 1151.4375,580.4016 Q1151.2266,580.6406 1150.8891,580.6406 Q1150.5797,580.6406 1150.3969,580.4578 Q1150.2141,580.2891 1150.1156,579.825 Q1150.0734,579.5016 1149.9047,579.3328 Q1149.6094,578.9953 1149.0609,578.7984 Q1148.5125,578.6016 1147.95,578.6016 Q1147.2609,578.6016 1146.6844,578.8969 Q1146.1219,579.1922 1145.6719,579.8672 Q1145.2359,580.5422 1145.2359,581.4703 L1145.2359,582.4547 Q1145.2359,583.5656 1146.0375,584.3109 Q1146.8391,585.0422 1148.2734,585.0422 Q1149.1172,585.0422 1149.7078,584.8172 Q1150.0594,584.6766 1150.4391,584.2828 Q1150.6781,584.0438 1150.8047,583.9734 Q1150.9453,583.9031 1151.1281,583.9031 Q1151.4234,583.9031 1151.6484,584.1422 Q1151.8875,584.3672 1151.8875,584.6766 Q1151.8875,584.9859 1151.5781,585.3516 Q1151.1281,585.8719 1150.4109,586.1672 Q1149.4406,586.575 1148.2734,586.575 Q1146.9094,586.575 1145.8266,586.0125 Q1144.9406,585.5625 1144.3219,584.6063 Q1143.7031,583.6359 1143.7031,582.4828 L1143.7031,581.4422 Q1143.7031,580.2469 1144.2516,579.2203 Q1144.8141,578.1797 1145.7984,577.6313 Q1146.7828,577.0688 1147.8938,577.0688 Q1148.5547,577.0688 1149.1313,577.2234 Q1149.7219,577.3641 1150.2141,577.6875 Z " fill="#000000"/><text fill="#000000" font-family="sans-serif" font-size="12.6" lengthAdjust="spacing" textLength="27.9" x="1166.175" y="586.6172">Task</text><line style="stroke:#181818;stroke-width:0.45;" x1="923.4" x2="1407.6" y1="595.8" y2="595.8"/><text fill="#000000" font-family="sans-serif" font-size="12.6" lengthAdjust="spacing" textLength="61.2" x="927.9" y="612.9967">-String title</text><text fill="#000000" font-family="sans-serif" font-size="12.6" lengthAdjust="spacing" textLength="103.5" x="927.9" y="629.7557">-String description</text><text fill="#000000" font-family="sans-serif" font-size="12.6" lengthAdjust="spacing" textLength="142.2" x="927.9" y="646.5146">-String degreeOfUrgency</text><text fill="#000000" font-family="sans-serif" font-size="12.6" lengthAdjust="spacing" textLength="121.5" x="927.9" y="663.2736">-int expectedDuration</text><text fill="#000000" font-family="sans-serif" font-size="12.6" lengthAdjust="spacing" textLength="75.6" x="927.9" y="680.0326">-String status</text><text fill="#000000" font-family="sans-serif" font-size="12.6" lengthAdjust="spacing" textLength="129.6" x="927.9" y="696.7916">-Calendar startingDate</text><line style="stroke:#181818;stroke-width:0.45;" x1="923.4" x2="1407.6" y1="703.5539" y2="703.5539"/><text fill="#000000" font-family="sans-serif" font-size="12.6" lengthAdjust="spacing" textLength="475.2" x="927.9" y="720.7506">+Task(title, description, degreeOfUrgency, expectedDuration, selectedGreenSpace)</text></g><!--class TaskMapper--><g id="elem_TaskMapper"><rect codeLine="94" fill="#F1F1F1" height="59.959" id="TaskMapper" rx="2.25" ry="2.25" style="stroke:#181818;stroke-width:0.45;" width="242.1" x="850.95" y="401.4"/><ellipse cx="932.625" cy="415.8" fill="#ADD1B2" rx="9.9" ry="9.9" style="stroke:#181818;stroke-width:0.9;"/><path d="M935.1141,412.0875 Q935.2547,411.8906 935.4234,411.7922 Q935.5922,411.6938 935.7891,411.6938 Q936.1266,411.6938 936.3375,411.9328 Q936.5484,412.1578 936.5484,412.7063 L936.5484,414.0141 Q936.5484,414.5625 936.3375,414.8016 Q936.1266,415.0406 935.7891,415.0406 Q935.4797,415.0406 935.2969,414.8578 Q935.1141,414.6891 935.0156,414.225 Q934.9734,413.9016 934.8047,413.7328 Q934.5094,413.3953 933.9609,413.1984 Q933.4125,413.0016 932.85,413.0016 Q932.1609,413.0016 931.5844,413.2969 Q931.0219,413.5922 930.5719,414.2672 Q930.1359,414.9422 930.1359,415.8703 L930.1359,416.8547 Q930.1359,417.9656 930.9375,418.7109 Q931.7391,419.4422 933.1734,419.4422 Q934.0172,419.4422 934.6078,419.2172 Q934.9594,419.0766 935.3391,418.6828 Q935.5781,418.4438 935.7047,418.3734 Q935.8453,418.3031 936.0281,418.3031 Q936.3234,418.3031 936.5484,418.5422 Q936.7875,418.7672 936.7875,419.0766 Q936.7875,419.3859 936.4781,419.7516 Q936.0281,420.2719 935.3109,420.5672 Q934.3406,420.975 933.1734,420.975 Q931.8094,420.975 930.7266,420.4125 Q929.8406,419.9625 929.2219,419.0063 Q928.6031,418.0359 928.6031,416.8828 L928.6031,415.8422 Q928.6031,414.6469 929.1516,413.6203 Q929.7141,412.5797 930.6984,412.0313 Q931.6828,411.4688 932.7938,411.4688 Q933.4547,411.4688 934.0313,411.6234 Q934.6219,411.7641 935.1141,412.0875 Z " fill="#000000"/><text fill="#000000" font-family="sans-serif" font-size="12.6" lengthAdjust="spacing" textLength="71.1" x="951.075" y="421.0172">TaskMapper</text><line style="stroke:#181818;stroke-width:0.45;" x1="851.85" x2="1092.15" y1="430.2" y2="430.2"/><line style="stroke:#181818;stroke-width:0.45;" x1="851.85" x2="1092.15" y1="437.4" y2="437.4"/><text fill="#000000" font-family="sans-serif" font-size="12.6" lengthAdjust="spacing" textLength="231.3" x="856.35" y="454.5967">+toModel(taskDto, selectedGreenSpace)</text></g><!--class TaskDto--><g id="elem_TaskDto"><rect codeLine="99" fill="#F1F1F1" height="194.0309" id="TaskDto" rx="2.25" ry="2.25" style="stroke:#181818;stroke-width:0.45;" width="505.8" x="385.2" y="549.9"/><ellipse cx="610.425" cy="564.3" fill="#ADD1B2" rx="9.9" ry="9.9" style="stroke:#181818;stroke-width:0.9;"/><path d="M612.9141,560.5875 Q613.0547,560.3906 613.2234,560.2922 Q613.3922,560.1938 613.5891,560.1938 Q613.9266,560.1938 614.1375,560.4328 Q614.3484,560.6578 614.3484,561.2063 L614.3484,562.5141 Q614.3484,563.0625 614.1375,563.3016 Q613.9266,563.5406 613.5891,563.5406 Q613.2797,563.5406 613.0969,563.3578 Q612.9141,563.1891 612.8156,562.725 Q612.7734,562.4016 612.6047,562.2328 Q612.3094,561.8953 611.7609,561.6984 Q611.2125,561.5016 610.65,561.5016 Q609.9609,561.5016 609.3844,561.7969 Q608.8219,562.0922 608.3719,562.7672 Q607.9359,563.4422 607.9359,564.3703 L607.9359,565.3547 Q607.9359,566.4656 608.7375,567.2109 Q609.5391,567.9422 610.9734,567.9422 Q611.8172,567.9422 612.4078,567.7172 Q612.7594,567.5766 613.1391,567.1828 Q613.3781,566.9438 613.5047,566.8734 Q613.6453,566.8031 613.8281,566.8031 Q614.1234,566.8031 614.3484,567.0422 Q614.5875,567.2672 614.5875,567.5766 Q614.5875,567.8859 614.2781,568.2516 Q613.8281,568.7719 613.1109,569.0672 Q612.1406,569.475 610.9734,569.475 Q609.6094,569.475 608.5266,568.9125 Q607.6406,568.4625 607.0219,567.5063 Q606.4031,566.5359 606.4031,565.3828 L606.4031,564.3422 Q606.4031,563.1469 606.9516,562.1203 Q607.5141,561.0797 608.4984,560.5313 Q609.4828,559.9688 610.5938,559.9688 Q611.2547,559.9688 611.8313,560.1234 Q612.4219,560.2641 612.9141,560.5875 Z " fill="#000000"/><text fill="#000000" font-family="sans-serif" font-size="12.6" lengthAdjust="spacing" textLength="47.7" x="628.875" y="569.5172">TaskDto</text><line style="stroke:#181818;stroke-width:0.45;" x1="386.1" x2="890.1" y1="578.7" y2="578.7"/><text fill="#000000" font-family="sans-serif" font-size="12.6" lengthAdjust="spacing" textLength="61.2" x="390.6" y="595.8967">-String title</text><text fill="#000000" font-family="sans-serif" font-size="12.6" lengthAdjust="spacing" textLength="103.5" x="390.6" y="612.6557">-String description</text><text fill="#000000" font-family="sans-serif" font-size="12.6" lengthAdjust="spacing" textLength="142.2" x="390.6" y="629.4146">-String degreeOfUrgency</text><text fill="#000000" font-family="sans-serif" font-size="12.6" lengthAdjust="spacing" textLength="121.5" x="390.6" y="646.1736">-int expectedDuration</text><line style="stroke:#181818;stroke-width:0.45;" x1="386.1" x2="890.1" y1="652.9359" y2="652.9359"/><text fill="#000000" font-family="sans-serif" font-size="12.6" lengthAdjust="spacing" textLength="495" x="390.6" y="670.1326">+TaskDto(title, description, degreeOfUrgency, expectedDuration, selectedGreenSpace)</text><text fill="#000000" font-family="sans-serif" font-size="12.6" lengthAdjust="spacing" textLength="58.5" x="390.6" y="686.8916">+getTitle()</text><text fill="#000000" font-family="sans-serif" font-size="12.6" lengthAdjust="spacing" textLength="98.1" x="390.6" y="703.6506">+getDescription()</text><text fill="#000000" font-family="sans-serif" font-size="12.6" lengthAdjust="spacing" textLength="136.8" x="390.6" y="720.4096">+getDegreeOfUrgency()</text><text fill="#000000" font-family="sans-serif" font-size="12.6" lengthAdjust="spacing" textLength="135" x="390.6" y="737.1686">+getExpectedDuration()</text></g><!--link Repositories to Repositories--><g id="link_Repositories_Repositories"><path codeLine="113" d="M1151.145,44.946 C1169.46,46.683 1182.6,52.101 1182.6,61.2 C1182.6,70.299 1174.8359,75.2072 1156.5209,76.9442 " fill="none" id="Repositories-to-Repositories" style="stroke:#181818;stroke-width:0.9;"/><polygon fill="#181818" points="1151.145,77.454,1159.5487,80.2731,1155.6249,77.0291,1158.8689,73.1053,1151.145,77.454" style="stroke:#181818;stroke-width:0.9;"/><text fill="#000000" font-family="sans-serif" font-size="11.7" lengthAdjust="spacing" textLength="44.1" x="1188" y="66.1755">instance</text></g><!--link ApplicationSession to ApplicationSession--><g id="link_ApplicationSession_ApplicationSession"><path codeLine="114" d="M671.994,225.387 C689.85,226.377 703.35,231.948 703.35,242.1 C703.35,252.252 695.2417,257.5241 677.3857,258.5141 " fill="none" id="ApplicationSession-to-ApplicationSession" style="stroke:#181818;stroke-width:0.9;"/><polygon fill="#181818" points="671.994,258.813,680.2809,261.9591,676.4871,258.5639,679.8823,254.7701,671.994,258.813" style="stroke:#181818;stroke-width:0.9;"/><text fill="#000000" font-family="sans-serif" font-size="11.7" lengthAdjust="spacing" textLength="44.1" x="708.75" y="247.0755">instance</text></g><!--link AddEntryToDoUI to AddEntryToDoController--><g id="link_AddEntryToDoUI_AddEntryToDoController"><path codeLine="116" d="M191.313,61.2 C256.545,61.2 350.1,61.2 350.1,61.2 C350.1,61.2 570.6,61.2 570.6,61.2 C570.6,61.2 638.901,61.2 701.082,61.2 " fill="none" id="AddEntryToDoUI-to-AddEntryToDoController" style="stroke:#181818;stroke-width:0.9;stroke-dasharray:7.0,7.0;"/><polygon fill="#181818" points="706.482,61.2,698.382,57.6,701.982,61.2,698.382,64.8,706.482,61.2" style="stroke:#181818;stroke-width:0.9;"/></g><!--link AddEntryToDoUI to GreenSpaceDto--><g id="link_AddEntryToDoUI_GreenSpaceDto"><path codeLine="117" d="M131.076,82.971 C134.91,137.025 144.8784,277.8795 150.8724,362.4885 " fill="none" id="AddEntryToDoUI-to-GreenSpaceDto" style="stroke:#181818;stroke-width:0.9;stroke-dasharray:7.0,7.0;"/><polygon fill="#181818" points="151.254,367.875,154.2726,359.5409,150.936,363.3862,147.0906,360.0496,151.254,367.875" style="stroke:#181818;stroke-width:0.9;"/></g><!--link AddEntryToDoUI to TaskDto--><g id="link_AddEntryToDoUI_TaskDto"><path codeLine="118" d="M121.158,82.89 C93.204,151.767 5.4,368.1 5.4,368.1 C5.4,368.1 5.4,495 5.4,495 C5.4,495 203.6559,542.3809 379.8309,584.4829 " fill="none" id="AddEntryToDoUI-to-TaskDto" style="stroke:#181818;stroke-width:0.9;stroke-dasharray:7.0,7.0;"/><polygon fill="#181818" points="385.083,585.738,378.0416,580.3539,380.7062,584.6921,376.3681,587.3567,385.083,585.738" style="stroke:#181818;stroke-width:0.9;"/></g><!--link AddEntryToDoController to Repositories--><g id="link_AddEntryToDoController_Repositories"><path codeLine="120" d="M875.7,61.2 C906.597,61.2 936.216,61.2 967.491,61.2 " fill="none" id="AddEntryToDoController-to-Repositories" style="stroke:#181818;stroke-width:0.9;stroke-dasharray:7.0,7.0;"/><polygon fill="#181818" points="972.891,61.2,964.791,57.6,968.391,61.2,964.791,64.8,972.891,61.2" style="stroke:#181818;stroke-width:0.9;"/><text fill="#000000" font-family="sans-serif" font-size="11.7" lengthAdjust="spacing" textLength="60.3" x="894.15" y="54.9255">repositories</text></g><!--link Repositories to GreenSpaceRepository--><g id="link_Repositories_GreenSpaceRepository"><path codeLine="122" d="M1124.937,116.325 C1150.992,138.762 1177.0512,161.211 1203.0792,183.639 " fill="none" id="Repositories-to-GreenSpaceRepository" style="stroke:#181818;stroke-width:0.9;"/><polygon fill="#181818" points="1207.17,187.164,1203.3838,179.1493,1203.761,184.2265,1198.6838,184.6037,1207.17,187.164" style="stroke:#181818;stroke-width:0.9;"/><text fill="#000000" font-family="sans-serif" font-size="11.7" lengthAdjust="spacing" textLength="6.3" x="1193.2526" y="177.2429">1</text></g><!--link Repositories to ToDoList--><g id="link_Repositories_ToDoList"><path codeLine="123" d="M1051.056,116.316 C1046.475,139.005 1042.2,160.2 1042.2,160.2 C1042.2,160.2 1026.36,178.4756 1007.964,199.6976 " fill="none" id="Repositories-to-ToDoList" style="stroke:#181818;stroke-width:0.9;"/><polygon fill="#181818" points="1004.427,203.778,1012.4528,200.0154,1007.3745,200.3777,1007.0123,195.2994,1004.427,203.778" style="stroke:#181818;stroke-width:0.9;"/><text fill="#000000" font-family="sans-serif" font-size="11.7" lengthAdjust="spacing" textLength="6.3" x="1002.793" y="193.7802">1</text></g><!--link AddEntryToDoController to GreenSpaceRepository--><g id="link_AddEntryToDoController_GreenSpaceRepository"><path codeLine="125" d="M875.718,96.138 C946.161,124.47 1035,160.2 1035,160.2 C1035,160.2 1073.068,173.3257 1122.397,190.3357 " fill="none" id="AddEntryToDoController-to-GreenSpaceRepository" style="stroke:#181818;stroke-width:0.9;stroke-dasharray:7.0,7.0;"/><polygon fill="#181818" points="1127.502,192.096,1121.018,186.0521,1123.2478,190.629,1118.6709,192.8588,1127.502,192.096" style="stroke:#181818;stroke-width:0.9;"/><text fill="#000000" font-family="sans-serif" font-size="11.7" lengthAdjust="spacing" textLength="115.2" x="1035.9" y="156.6255">greenSpaceRepostory</text></g><!--link AddEntryToDoController to ToDoList--><g id="link_AddEntryToDoController_ToDoList"><path codeLine="126" d="M818.46,116.316 C829.908,139.005 840.6,160.2 840.6,160.2 C840.6,160.2 872.2729,179.7228 906.7069,200.9448 " fill="none" id="AddEntryToDoController-to-ToDoList" style="stroke:#181818;stroke-width:0.9;stroke-dasharray:7.0,7.0;"/><polygon fill="#181818" points="911.304,203.778,906.2972,196.4635,907.4731,201.417,902.5196,202.5929,911.304,203.778" style="stroke:#181818;stroke-width:0.9;"/><text fill="#000000" font-family="sans-serif" font-size="11.7" lengthAdjust="spacing" textLength="43.2" x="841.5" y="156.6255">toDoList</text></g><!--link AddEntryToDoController to ApplicationSession--><g id="link_AddEntryToDoController_ApplicationSession"><path codeLine="127" d="M734.427,116.325 C704.943,144.531 673.5384,174.5845 647.0784,199.8925 " fill="none" id="AddEntryToDoController-to-ApplicationSession" style="stroke:#181818;stroke-width:0.9;stroke-dasharray:7.0,7.0;"/><polygon fill="#181818" points="643.176,203.625,651.5179,200.6279,646.428,200.5146,646.5413,195.4247,643.176,203.625" style="stroke:#181818;stroke-width:0.9;"/></g><!--link AddEntryToDoController to UserSession--><g id="link_AddEntryToDoController_UserSession"><path codeLine="128" d="M783.63,116.289 C774.054,185.661 758.7,297 758.7,297 C758.7,297 731.1947,357.0705 713.1767,396.4095 " fill="none" id="AddEntryToDoController-to-UserSession" style="stroke:#181818;stroke-width:0.9;stroke-dasharray:7.0,7.0;"/><polygon fill="#181818" points="710.928,401.319,717.574,395.4538,712.8019,397.2277,711.028,392.4556,710.928,401.319" style="stroke:#181818;stroke-width:0.9;"/></g><!--link AddEntryToDoController to GreenSpaceMapper--><g id="link_AddEntryToDoController_GreenSpaceMapper"><path codeLine="129" d="M706.383,95.679 C635.481,123.786 538.621,162.1881 460.177,193.2831 " fill="none" id="AddEntryToDoController-to-GreenSpaceMapper" style="stroke:#181818;stroke-width:0.9;stroke-dasharray:7.0,7.0;"/><polygon fill="#181818" points="455.157,195.273,464.0136,195.6348,459.3403,193.6147,461.3604,188.9415,455.157,195.273" style="stroke:#181818;stroke-width:0.9;"/></g><!--link ApplicationSession to UserSession--><g id="link_ApplicationSession_UserSession"><path codeLine="131" d="M622.62,280.521 C640.332,316.035 664.1479,363.7807 680.4019,396.3697 " fill="none" id="ApplicationSession-to-UserSession" style="stroke:#181818;stroke-width:0.9;"/><polygon fill="#181818" points="682.812,401.202,682.4183,392.3468,680.8035,397.1751,675.9752,395.5603,682.812,401.202" style="stroke:#181818;stroke-width:0.9;"/><text fill="#000000" font-family="sans-serif" font-size="11.7" lengthAdjust="spacing" textLength="64.8" x="651.6" y="337.5255">userSession</text><text fill="#000000" font-family="sans-serif" font-size="11.7" lengthAdjust="spacing" textLength="6.3" x="673.1116" y="391.3416">1</text></g><!--link GreenSpaceRepository to GreenSpace--><g id="link_GreenSpaceRepository_GreenSpace"><path codeLine="133" d="M1297.215,297.162 C1341.657,385.263 1424.7,549.9 1424.7,549.9 C1424.7,549.9 1424.7,744.3 1424.7,744.3 C1424.7,744.3 1314.2396,797.9912 1237.4426,835.3232 " fill="none" id="GreenSpaceRepository-to-GreenSpace" style="stroke:#181818;stroke-width:0.9;"/><polygon fill="#181818" points="1232.586,837.684,1241.4448,837.3805,1236.6332,835.7166,1238.297,830.905,1232.586,837.684" style="stroke:#181818;stroke-width:0.9;"/><text fill="#000000" font-family="sans-serif" font-size="11.7" lengthAdjust="spacing" textLength="6.3" x="1293.8601" y="317.4199">1</text><text fill="#000000" font-family="sans-serif" font-size="11.7" lengthAdjust="spacing" textLength="4.5" x="1239.7363" y="830.7904">*</text></g><!--link ToDoList to Task--><g id="link_ToDoList_Task"><path codeLine="134" d="M1013.049,280.53 C1053.342,317.385 1108.8,368.1 1108.8,368.1 C1108.8,368.1 1131.4904,479.3858 1148.2484,561.5918 " fill="none" id="ToDoList-to-Task" style="stroke:#181818;stroke-width:0.9;"/><polygon fill="#181818" points="1149.327,566.883,1151.2365,558.2271,1148.4281,562.4737,1144.1816,559.6653,1149.327,566.883" style="stroke:#181818;stroke-width:0.9;"/><text fill="#000000" font-family="sans-serif" font-size="11.7" lengthAdjust="spacing" textLength="6.3" x="1012.7892" y="300.503">1</text><text fill="#000000" font-family="sans-serif" font-size="11.7" lengthAdjust="spacing" textLength="4.5" x="1143.3013" y="556.9299">*</text></g><!--link Task to GreenSpace--><g id="link_Task_GreenSpace"><path codeLine="135" d="M1165.5,727.317 C1165.5,750.753 1165.5,770.859 1165.5,793.755 " fill="none" id="Task-to-GreenSpace" style="stroke:#181818;stroke-width:0.9;"/><polygon fill="#181818" points="1165.5,799.155,1169.1,791.055,1165.5,794.655,1161.9,791.055,1165.5,799.155" style="stroke:#181818;stroke-width:0.9;"/><text fill="#000000" font-family="sans-serif" font-size="11.7" lengthAdjust="spacing" textLength="4.5" x="1160.8137" y="747.2169">*</text><text fill="#000000" font-family="sans-serif" font-size="11.7" lengthAdjust="spacing" textLength="6.3" x="1158.9096" y="789.157">1</text></g><!--link ToDoList to TaskMapper--><g id="link_ToDoList_TaskMapper"><path codeLine="137" d="M972,280.521 C972,316.035 972,363.213 972,395.802 " fill="none" id="ToDoList-to-TaskMapper" style="stroke:#181818;stroke-width:0.9;stroke-dasharray:7.0,7.0;"/><polygon fill="#181818" points="972,401.202,975.6,393.102,972,396.702,968.4,393.102,972,401.202" style="stroke:#181818;stroke-width:0.9;"/></g><!--link TaskMapper to TaskDto--><g id="link_TaskMapper_TaskDto"><path codeLine="139" d="M926.271,461.727 C890.46,484.65 843.0508,514.9933 793.0918,546.9793 " fill="none" id="TaskMapper-to-TaskDto" style="stroke:#181818;stroke-width:0.9;stroke-dasharray:7.0,7.0;"/><polygon fill="#181818" points="788.544,549.891,797.3068,548.5553,792.3338,547.4646,793.4245,542.4916,788.544,549.891" style="stroke:#181818;stroke-width:0.9;"/></g><!--link TaskMapper to Task--><g id="link_TaskMapper_Task"><path codeLine="140" d="M998.496,461.727 C1022.976,488.763 1056.8551,526.1776 1090.1191,562.9246 " fill="none" id="TaskMapper-to-Task" style="stroke:#181818;stroke-width:0.9;stroke-dasharray:7.0,7.0;"/><polygon fill="#181818" points="1093.743,566.928,1090.976,558.507,1090.7231,563.5918,1085.6382,563.3389,1093.743,566.928" style="stroke:#181818;stroke-width:0.9;"/></g><!--link GreenSpaceMapper to GreenSpaceDto--><g id="link_GreenSpaceMapper_GreenSpaceDto"><path codeLine="142" d="M294.39,288.9 C271.134,312.669 246.1825,338.1762 220.9105,364.0062 " fill="none" id="GreenSpaceMapper-to-GreenSpaceDto" style="stroke:#181818;stroke-width:0.9;stroke-dasharray:7.0,7.0;"/><polygon fill="#181818" points="217.134,367.866,225.3719,364.5939,220.281,364.6495,220.2255,359.5586,217.134,367.866" style="stroke:#181818;stroke-width:0.9;"/></g><!--link GreenSpaceMapper to GreenSpace--><g id="link_GreenSpaceMapper_GreenSpace"><path codeLine="143" d="M342.045,289.26 C349.389,413.361 369,744.3 369,744.3 C369,744.3 900.9213,828.4433 1092.9453,858.8183 " fill="none" id="GreenSpaceMapper-to-GreenSpace" style="stroke:#181818;stroke-width:0.9;stroke-dasharray:7.0,7.0;"/><polygon fill="#181818" points="1098.279,859.662,1090.8409,854.8407,1093.8343,858.9589,1089.716,861.9522,1098.279,859.662" style="stroke:#181818;stroke-width:0.9;"/></g><!--SRC=[jLN1Rjim3BthAuHSwgxki5s78K3H54E15GMMzWDKctMqAf8XATYoOVy-ofLjobRI3kXwA1poyV6HegWJzoHrAwpOygtHfjfOimNkxGxOw6b5zIGQMFkz0cwXya8tYWBSHjJcXzGDVnJAKO-I6lo-1TuQjGy_s4d6QQmtZ4HLIZXtuRsL3piFrvNHQ_aB-0V6JXGyUkuDjxBPU5xB84SQpLWNmo_g-afxkxypAtD_pNupzYVdkZJuPPG2Yn2EVsS7tCLfT3VWlrW0lSPcWAFcDIZK0FNeBcJl5f6qyC8zhRmv9NBQLibA1F5hS2xKq4jn7irLuBxM-AsHaUIxt5aBsiUWWb1-WzOuwOsLu2BPUMAaD2Cr_vH6PWeU_7jA4LhrLJfFDTmxiDDw41hCLriX5SNc-0VTWVZpY5ZoPcn_y1s28R6ff4WEP0oO7IG4KI-UPaRo87IDOugJhyKMKaiOxMYHsdDXGQG0d0wBhOh6hZsySTlk8ohQ23UsBchDYBaHRJlCygmfE7X7-eBUcCoRrTrjSH1u6jcVOURXUrPAe7lRrfobx4MWApkAieiiUpJHqu_c80KXHOLWBEiEx-AX2rfoDni0IekeQNLUUZKfhmPNMTbsYsdY25Dy-tXl6z3LdhG0VhPTsjNEYdbSs0YxVb0kXG9T2nkirgDxXLN5UeB0ebDKKXNbD7CvI_YAofCf2-DoOsfG_z2wp6pyn-wTzJdViY7ZyWkST1kkHlRKdEIXhgj9nkVToEWovkVBP3dZhfPnSRFv2nBG6Ik9OUa3oTyl3xsBKo0YqqkU0VHdpFAS8Tka64iVdbdbYu-B_2EH0mvN_c3sf8IH3MKqgRdBSOIbJuMHlizw19vvwe-WwGlwgahYjSpEG-mDuKJDEvA1PJiIOhhOT_G0s50tzNSxSH7-BxhVvxE3OsDWFoMzvl4x6Q2CcIebhdGcNu2mlm00]--></g></svg>