<?xml version="1.0" encoding="us-ascii" standalone="no"?><svg xmlns="http://www.w3.org/2000/svg" xmlns:xlink="http://www.w3.org/1999/xlink" contentStyleType="text/css" height="640.8px" preserveAspectRatio="none" style="width:1234px;height:640px;background:#FFFFFF;" version="1.1" viewBox="0 0 1234 640" width="1234.2px" zoomAndPan="magnify"><defs/><g><!--cluster UI--><g id="cluster_UI"><rect fill="none" height="60.6" rx="1.5" ry="1.5" style="stroke:#000000;stroke-width:0.8999999999999999;" width="102" x="1035" y="26.4"/><text fill="#000000" font-family="sans-serif" font-size="8.4" font-weight="bold" lengthAdjust="spacing" textLength="8.4" x="1081.8" y="36.6645">UI</text></g><!--cluster Controller--><g id="cluster_Controller"><rect fill="none" height="105" rx="1.5" ry="1.5" style="stroke:#000000;stroke-width:0.8999999999999999;" width="132" x="418.8" y="4.2"/><text fill="#000000" font-family="sans-serif" font-size="8.4" font-weight="bold" lengthAdjust="spacing" textLength="42.6" x="463.5" y="14.4645">Controller</text></g><!--cluster Domain--><g id="cluster_Domain"><rect fill="none" height="497.4" rx="1.5" ry="1.5" style="stroke:#000000;stroke-width:0.8999999999999999;" width="611.4" x="4.2" y="139.8"/><text fill="#000000" font-family="sans-serif" font-size="8.4" font-weight="bold" lengthAdjust="spacing" textLength="31.2" x="294.3" y="150.0645">Domain</text></g><!--cluster Repository--><g id="cluster_Repository"><rect fill="none" height="105" rx="1.5" ry="1.5" style="stroke:#000000;stroke-width:0.8999999999999999;" width="582.6" x="18.6" y="166.8"/><text fill="#000000" font-family="sans-serif" font-size="8.4" font-weight="bold" lengthAdjust="spacing" textLength="45.6" x="287.1" y="177.0645">Repository</text></g><!--cluster Model--><g id="cluster_Model"><rect fill="none" height="303.3" rx="1.5" ry="1.5" style="stroke:#000000;stroke-width:0.8999999999999999;" width="502.8" x="98.4" y="319.5"/><text fill="#000000" font-family="sans-serif" font-size="8.4" font-weight="bold" lengthAdjust="spacing" textLength="26.4" x="336.6" y="329.7645">Model</text></g><!--cluster Mapper--><g id="cluster_Mapper"><rect fill="none" height="306" rx="1.5" ry="1.5" style="stroke:#000000;stroke-width:0.8999999999999999;" width="585" x="645.6" y="172.2"/><text fill="#000000" font-family="sans-serif" font-size="8.4" font-weight="bold" lengthAdjust="spacing" textLength="32.4" x="921.9" y="182.4645">Mapper</text></g><!--cluster DTO--><g id="cluster_DTO"><rect fill="none" height="172.2" rx="1.5" ry="1.5" style="stroke:#000000;stroke-width:0.8999999999999999;" width="556.2" x="660" y="291.6"/><text fill="#000000" font-family="sans-serif" font-size="8.4" font-weight="bold" lengthAdjust="spacing" textLength="17.4" x="929.4" y="301.8645">DTO</text></g><!--class AddEntryToDoUI--><g id="elem_AddEntryToDoUI"><rect codeLine="12" fill="#F1F1F1" height="28.8" id="AddEntryToDoUI" rx="1.5" ry="1.5" style="stroke:#181818;stroke-width:0.3;" width="82.2" x="1044.9" y="48.6"/><ellipse cx="1053.9" cy="58.2" fill="#ADD1B2" rx="6.6" ry="6.6" style="stroke:#181818;stroke-width:0.6;"/><path d="M1055.5594,55.725 Q1055.6531,55.5938 1055.7656,55.5281 Q1055.8781,55.4625 1056.0094,55.4625 Q1056.2344,55.4625 1056.375,55.6219 Q1056.5156,55.7719 1056.5156,56.1375 L1056.5156,57.0094 Q1056.5156,57.375 1056.375,57.5344 Q1056.2344,57.6937 1056.0094,57.6937 Q1055.8031,57.6937 1055.6812,57.5719 Q1055.5594,57.4594 1055.4937,57.15 Q1055.4656,56.9344 1055.3531,56.8219 Q1055.1563,56.5969 1054.7906,56.4656 Q1054.425,56.3344 1054.05,56.3344 Q1053.5906,56.3344 1053.2063,56.5313 Q1052.8313,56.7281 1052.5313,57.1781 Q1052.2406,57.6281 1052.2406,58.2469 L1052.2406,58.9031 Q1052.2406,59.6438 1052.775,60.1406 Q1053.3094,60.6281 1054.2656,60.6281 Q1054.8281,60.6281 1055.2219,60.4781 Q1055.4563,60.3844 1055.7094,60.1219 Q1055.8687,59.9625 1055.9531,59.9156 Q1056.0469,59.8688 1056.1688,59.8688 Q1056.3656,59.8688 1056.5156,60.0281 Q1056.675,60.1781 1056.675,60.3844 Q1056.675,60.5906 1056.4688,60.8344 Q1056.1688,61.1813 1055.6906,61.3781 Q1055.0438,61.65 1054.2656,61.65 Q1053.3563,61.65 1052.6344,61.275 Q1052.0438,60.975 1051.6313,60.3375 Q1051.2188,59.6906 1051.2188,58.9219 L1051.2188,58.2281 Q1051.2188,57.4313 1051.5844,56.7469 Q1051.9594,56.0531 1052.6156,55.6875 Q1053.2719,55.3125 1054.0125,55.3125 Q1054.4531,55.3125 1054.8375,55.4156 Q1055.2313,55.5094 1055.5594,55.725 Z " fill="#000000"/><text fill="#000000" font-family="sans-serif" font-size="8.4" lengthAdjust="spacing" textLength="63" x="1062.3" y="61.6781">AddEntryToDoUI</text><line style="stroke:#181818;stroke-width:0.3;" x1="1045.5" x2="1126.5" y1="67.8" y2="67.8"/><line style="stroke:#181818;stroke-width:0.3;" x1="1045.5" x2="1126.5" y1="72.6" y2="72.6"/></g><!--class AddEntryToDoController--><g id="elem_AddEntryToDoController"><rect codeLine="19" fill="#F1F1F1" height="73.4906" id="AddEntryToDoController" rx="1.5" ry="1.5" style="stroke:#181818;stroke-width:0.3;" width="112.8" x="428.4" y="26.4"/><ellipse cx="437.67" cy="36" fill="#ADD1B2" rx="6.6" ry="6.6" style="stroke:#181818;stroke-width:0.6;"/><path d="M439.3294,33.525 Q439.4231,33.3938 439.5356,33.3281 Q439.6481,33.2625 439.7794,33.2625 Q440.0044,33.2625 440.145,33.4219 Q440.2856,33.5719 440.2856,33.9375 L440.2856,34.8094 Q440.2856,35.175 440.145,35.3344 Q440.0044,35.4938 439.7794,35.4938 Q439.5731,35.4938 439.4513,35.3719 Q439.3294,35.2594 439.2638,34.95 Q439.2356,34.7344 439.1231,34.6219 Q438.9263,34.3969 438.5606,34.2656 Q438.195,34.1344 437.82,34.1344 Q437.3606,34.1344 436.9763,34.3313 Q436.6013,34.5281 436.3013,34.9781 Q436.0106,35.4281 436.0106,36.0469 L436.0106,36.7031 Q436.0106,37.4438 436.545,37.9406 Q437.0794,38.4281 438.0356,38.4281 Q438.5981,38.4281 438.9919,38.2781 Q439.2263,38.1844 439.4794,37.9219 Q439.6388,37.7625 439.7231,37.7156 Q439.8169,37.6687 439.9388,37.6687 Q440.1356,37.6687 440.2856,37.8281 Q440.445,37.9781 440.445,38.1844 Q440.445,38.3906 440.2388,38.6344 Q439.9388,38.9812 439.4606,39.1781 Q438.8138,39.45 438.0356,39.45 Q437.1263,39.45 436.4044,39.075 Q435.8138,38.775 435.4013,38.1375 Q434.9888,37.4906 434.9888,36.7219 L434.9888,36.0281 Q434.9888,35.2312 435.3544,34.5469 Q435.7294,33.8531 436.3856,33.4875 Q437.0419,33.1125 437.7825,33.1125 Q438.2231,33.1125 438.6075,33.2156 Q439.0013,33.3094 439.3294,33.525 Z " fill="#000000"/><text fill="#000000" font-family="sans-serif" font-size="8.4" lengthAdjust="spacing" textLength="93" x="446.13" y="39.4781">AddEntryToDoController</text><line style="stroke:#181818;stroke-width:0.3;" x1="429" x2="540.6" y1="45.6" y2="45.6"/><line style="stroke:#181818;stroke-width:0.3;" x1="429" x2="540.6" y1="50.4" y2="50.4"/><text fill="#000000" font-family="sans-serif" font-size="8.4" lengthAdjust="spacing" textLength="103.8" x="432" y="61.8645">+AddEntryToDoController()</text><text fill="#000000" font-family="sans-serif" font-size="8.4" lengthAdjust="spacing" textLength="75" x="432" y="73.0371">+getGreenSpaces()</text><text fill="#000000" font-family="sans-serif" font-size="8.4" lengthAdjust="spacing" textLength="105.6" x="432" y="84.2098">+getSelectedGreenSpace(i)</text><text fill="#000000" font-family="sans-serif" font-size="8.4" lengthAdjust="spacing" textLength="73.8" x="432" y="95.3824">+addEntry(taskDto)</text></g><!--class Repositories--><g id="elem_Repositories"><rect codeLine="31" fill="#F1F1F1" height="73.4906" id="Repositories" rx="1.5" ry="1.5" style="stroke:#181818;stroke-width:0.3;" width="118.8" x="425.4" y="189"/><ellipse cx="458.55" cy="198.6" fill="#ADD1B2" rx="6.6" ry="6.6" style="stroke:#181818;stroke-width:0.6;"/><path d="M460.2094,196.125 Q460.3031,195.9938 460.4156,195.9281 Q460.5281,195.8625 460.6594,195.8625 Q460.8844,195.8625 461.025,196.0219 Q461.1656,196.1719 461.1656,196.5375 L461.1656,197.4094 Q461.1656,197.775 461.025,197.9344 Q460.8844,198.0938 460.6594,198.0938 Q460.4531,198.0938 460.3313,197.9719 Q460.2094,197.8594 460.1438,197.55 Q460.1156,197.3344 460.0031,197.2219 Q459.8063,196.9969 459.4406,196.8656 Q459.075,196.7344 458.7,196.7344 Q458.2406,196.7344 457.8563,196.9313 Q457.4813,197.1281 457.1813,197.5781 Q456.8906,198.0281 456.8906,198.6469 L456.8906,199.3031 Q456.8906,200.0438 457.425,200.5406 Q457.9594,201.0281 458.9156,201.0281 Q459.4781,201.0281 459.8719,200.8781 Q460.1063,200.7844 460.3594,200.5219 Q460.5188,200.3625 460.6031,200.3156 Q460.6969,200.2687 460.8187,200.2687 Q461.0156,200.2687 461.1656,200.4281 Q461.325,200.5781 461.325,200.7844 Q461.325,200.9906 461.1188,201.2344 Q460.8187,201.5812 460.3406,201.7781 Q459.6937,202.05 458.9156,202.05 Q458.0062,202.05 457.2844,201.675 Q456.6937,201.375 456.2813,200.7375 Q455.8688,200.0906 455.8688,199.3219 L455.8688,198.6281 Q455.8688,197.8312 456.2344,197.1469 Q456.6094,196.4531 457.2656,196.0875 Q457.9219,195.7125 458.6625,195.7125 Q459.1031,195.7125 459.4875,195.8156 Q459.8812,195.9094 460.2094,196.125 Z " fill="#000000"/><text fill="#000000" font-family="sans-serif" font-size="8.4" lengthAdjust="spacing" textLength="47.4" x="470.85" y="202.0781">Repositories</text><line style="stroke:#181818;stroke-width:0.3;" x1="426" x2="543.6" y1="208.2" y2="208.2"/><line style="stroke:#181818;stroke-width:0.3;" x1="426" x2="543.6" y1="213" y2="213"/><text fill="#000000" font-family="sans-serif" font-size="8.4" lengthAdjust="spacing" textLength="56.4" x="429" y="224.4645">-Repositories()</text><text fill="#000000" font-family="sans-serif" font-size="8.4" lengthAdjust="spacing" textLength="109.2" x="429" y="235.6371">+getInstance() : Repositories</text><text fill="#000000" font-family="sans-serif" font-size="8.4" lengthAdjust="spacing" textLength="111.6" x="429" y="246.8098">+getGreenSpaceRepository()</text><text fill="#000000" font-family="sans-serif" font-size="8.4" lengthAdjust="spacing" textLength="57" x="429" y="257.9824">+getToDoList()</text></g><!--class GreenSpaceRepository--><g id="elem_GreenSpaceRepository"><rect codeLine="39" fill="#F1F1F1" height="73.4906" id="GreenSpaceRepository" rx="1.5" ry="1.5" style="stroke:#181818;stroke-width:0.3;" width="189.6" x="28.2" y="189"/><ellipse cx="76.05" cy="198.6" fill="#ADD1B2" rx="6.6" ry="6.6" style="stroke:#181818;stroke-width:0.6;"/><path d="M77.7094,196.125 Q77.8031,195.9938 77.9156,195.9281 Q78.0281,195.8625 78.1594,195.8625 Q78.3844,195.8625 78.525,196.0219 Q78.6656,196.1719 78.6656,196.5375 L78.6656,197.4094 Q78.6656,197.775 78.525,197.9344 Q78.3844,198.0938 78.1594,198.0938 Q77.9531,198.0938 77.8313,197.9719 Q77.7094,197.8594 77.6438,197.55 Q77.6156,197.3344 77.5031,197.2219 Q77.3062,196.9969 76.9406,196.8656 Q76.575,196.7344 76.2,196.7344 Q75.7406,196.7344 75.3563,196.9313 Q74.9813,197.1281 74.6812,197.5781 Q74.3906,198.0281 74.3906,198.6469 L74.3906,199.3031 Q74.3906,200.0438 74.925,200.5406 Q75.4594,201.0281 76.4156,201.0281 Q76.9781,201.0281 77.3719,200.8781 Q77.6063,200.7844 77.8594,200.5219 Q78.0188,200.3625 78.1031,200.3156 Q78.1969,200.2687 78.3188,200.2687 Q78.5156,200.2687 78.6656,200.4281 Q78.825,200.5781 78.825,200.7844 Q78.825,200.9906 78.6187,201.2344 Q78.3188,201.5812 77.8406,201.7781 Q77.1938,202.05 76.4156,202.05 Q75.5063,202.05 74.7844,201.675 Q74.1938,201.375 73.7813,200.7375 Q73.3687,200.0906 73.3687,199.3219 L73.3687,198.6281 Q73.3687,197.8312 73.7344,197.1469 Q74.1094,196.4531 74.7656,196.0875 Q75.4219,195.7125 76.1625,195.7125 Q76.6031,195.7125 76.9875,195.8156 Q77.3813,195.9094 77.7094,196.125 Z " fill="#000000"/><text fill="#000000" font-family="sans-serif" font-size="8.4" lengthAdjust="spacing" textLength="88.8" x="88.35" y="202.0781">GreenSpaceRepository</text><line style="stroke:#181818;stroke-width:0.3;" x1="28.8" x2="217.2" y1="208.2" y2="208.2"/><text fill="#000000" font-family="sans-serif" font-size="8.4" lengthAdjust="spacing" textLength="139.8" x="31.8" y="219.6645">-List&lt;GreenSpace&gt; greenSpacesList</text><text fill="#000000" font-family="sans-serif" font-size="8.4" lengthAdjust="spacing" textLength="182.4" x="31.8" y="230.8371">-List&lt;GreenSpace&gt; associatedGreenSpacesList</text><line style="stroke:#181818;stroke-width:0.3;" x1="28.8" x2="217.2" y1="235.3453" y2="235.3453"/><text fill="#000000" font-family="sans-serif" font-size="8.4" lengthAdjust="spacing" textLength="94.8" x="31.8" y="246.8098">+getGreenSpaces(email)</text><text fill="#000000" font-family="sans-serif" font-size="8.4" lengthAdjust="spacing" textLength="105.6" x="31.8" y="257.9824">+getSelectedGreenSpace(i)</text></g><!--class ToDoList--><g id="elem_ToDoList"><rect codeLine="47" fill="#F1F1F1" height="51.1453" id="ToDoList" rx="1.5" ry="1.5" style="stroke:#181818;stroke-width:0.3;" width="165.6" x="238.8" y="200.1"/><ellipse cx="301.95" cy="209.7" fill="#ADD1B2" rx="6.6" ry="6.6" style="stroke:#181818;stroke-width:0.6;"/><path d="M303.6094,207.225 Q303.7031,207.0938 303.8156,207.0281 Q303.9281,206.9625 304.0594,206.9625 Q304.2844,206.9625 304.425,207.1219 Q304.5656,207.2719 304.5656,207.6375 L304.5656,208.5094 Q304.5656,208.875 304.425,209.0344 Q304.2844,209.1938 304.0594,209.1938 Q303.8531,209.1938 303.7313,209.0719 Q303.6094,208.9594 303.5438,208.65 Q303.5156,208.4344 303.4031,208.3219 Q303.2063,208.0969 302.8406,207.9656 Q302.475,207.8344 302.1,207.8344 Q301.6406,207.8344 301.2562,208.0313 Q300.8812,208.2281 300.5813,208.6781 Q300.2906,209.1281 300.2906,209.7469 L300.2906,210.4031 Q300.2906,211.1437 300.825,211.6406 Q301.3594,212.1281 302.3156,212.1281 Q302.8781,212.1281 303.2719,211.9781 Q303.5062,211.8844 303.7594,211.6219 Q303.9188,211.4625 304.0031,211.4156 Q304.0969,211.3688 304.2188,211.3688 Q304.4156,211.3688 304.5656,211.5281 Q304.725,211.6781 304.725,211.8844 Q304.725,212.0906 304.5188,212.3344 Q304.2188,212.6813 303.7406,212.8781 Q303.0938,213.15 302.3156,213.15 Q301.4063,213.15 300.6844,212.775 Q300.0938,212.475 299.6813,211.8375 Q299.2688,211.1906 299.2688,210.4219 L299.2688,209.7281 Q299.2688,208.9313 299.6344,208.2469 Q300.0094,207.5531 300.6656,207.1875 Q301.3219,206.8125 302.0625,206.8125 Q302.5031,206.8125 302.8875,206.9156 Q303.2813,207.0094 303.6094,207.225 Z " fill="#000000"/><text fill="#000000" font-family="sans-serif" font-size="8.4" lengthAdjust="spacing" textLength="34.2" x="314.25" y="213.1781">ToDoList</text><line style="stroke:#181818;stroke-width:0.3;" x1="239.4" x2="403.8" y1="219.3" y2="219.3"/><line style="stroke:#181818;stroke-width:0.3;" x1="239.4" x2="403.8" y1="224.1" y2="224.1"/><text fill="#000000" font-family="sans-serif" font-size="8.4" lengthAdjust="spacing" textLength="70.8" x="242.4" y="235.5645">-add(createdTask)</text><text fill="#000000" font-family="sans-serif" font-size="8.4" lengthAdjust="spacing" textLength="158.4" x="242.4" y="246.7371">+addEntry(taskDto, selectedGreenSpace)</text></g><!--class UserSession--><g id="elem_UserSession"><rect codeLine="54" fill="#F1F1F1" height="39.9727" id="UserSession" rx="1.5" ry="1.5" style="stroke:#181818;stroke-width:0.3;" width="67.8" x="111.3" y="545.1"/><ellipse cx="120.84" cy="554.7" fill="#ADD1B2" rx="6.6" ry="6.6" style="stroke:#181818;stroke-width:0.6;"/><path d="M122.4994,552.225 Q122.5931,552.0938 122.7056,552.0281 Q122.8181,551.9625 122.9494,551.9625 Q123.1744,551.9625 123.315,552.1219 Q123.4556,552.2719 123.4556,552.6375 L123.4556,553.5094 Q123.4556,553.875 123.315,554.0344 Q123.1744,554.1938 122.9494,554.1938 Q122.7431,554.1938 122.6213,554.0719 Q122.4994,553.9594 122.4338,553.65 Q122.4056,553.4344 122.2931,553.3219 Q122.0963,553.0969 121.7306,552.9656 Q121.365,552.8344 120.99,552.8344 Q120.5306,552.8344 120.1463,553.0313 Q119.7713,553.2281 119.4713,553.6781 Q119.1806,554.1281 119.1806,554.7469 L119.1806,555.4031 Q119.1806,556.1438 119.715,556.6406 Q120.2494,557.1281 121.2056,557.1281 Q121.7681,557.1281 122.1619,556.9781 Q122.3963,556.8844 122.6494,556.6219 Q122.8088,556.4625 122.8931,556.4156 Q122.9869,556.3688 123.1088,556.3688 Q123.3056,556.3688 123.4556,556.5281 Q123.615,556.6781 123.615,556.8844 Q123.615,557.0906 123.4088,557.3344 Q123.1088,557.6813 122.6306,557.8781 Q121.9838,558.15 121.2056,558.15 Q120.2963,558.15 119.5744,557.775 Q118.9838,557.475 118.5712,556.8375 Q118.1588,556.1906 118.1588,555.4219 L118.1588,554.7281 Q118.1588,553.9313 118.5244,553.2469 Q118.8994,552.5531 119.5556,552.1875 Q120.2119,551.8125 120.9525,551.8125 Q121.3931,551.8125 121.7775,551.9156 Q122.1713,552.0094 122.4994,552.225 Z " fill="#000000"/><text fill="#000000" font-family="sans-serif" font-size="8.4" lengthAdjust="spacing" textLength="47.4" x="129.36" y="558.1781">UserSession</text><line style="stroke:#181818;stroke-width:0.3;" x1="111.9" x2="178.5" y1="564.3" y2="564.3"/><line style="stroke:#181818;stroke-width:0.3;" x1="111.9" x2="178.5" y1="569.1" y2="569.1"/><text fill="#000000" font-family="sans-serif" font-size="8.4" lengthAdjust="spacing" textLength="60.6" x="114.9" y="580.5645">+getUserEmail()</text></g><!--class GreenSpace--><g id="elem_GreenSpace"><rect codeLine="59" fill="#F1F1F1" height="95.8359" id="GreenSpace" rx="1.5" ry="1.5" style="stroke:#181818;stroke-width:0.3;" width="89.4" x="275.1" y="517.2"/><ellipse cx="294.09" cy="526.8" fill="#ADD1B2" rx="6.6" ry="6.6" style="stroke:#181818;stroke-width:0.6;"/><path d="M295.7494,524.325 Q295.8431,524.1938 295.9556,524.1281 Q296.0681,524.0625 296.1994,524.0625 Q296.4244,524.0625 296.565,524.2219 Q296.7056,524.3719 296.7056,524.7375 L296.7056,525.6094 Q296.7056,525.975 296.565,526.1344 Q296.4244,526.2937 296.1994,526.2937 Q295.9931,526.2937 295.8713,526.1719 Q295.7494,526.0594 295.6838,525.75 Q295.6556,525.5344 295.5431,525.4219 Q295.3463,525.1969 294.9806,525.0656 Q294.615,524.9344 294.24,524.9344 Q293.7806,524.9344 293.3962,525.1313 Q293.0212,525.3281 292.7213,525.7781 Q292.4306,526.2281 292.4306,526.8469 L292.4306,527.5031 Q292.4306,528.2438 292.965,528.7406 Q293.4994,529.2281 294.4556,529.2281 Q295.0181,529.2281 295.4119,529.0781 Q295.6462,528.9844 295.8994,528.7219 Q296.0588,528.5625 296.1431,528.5156 Q296.2369,528.4688 296.3588,528.4688 Q296.5556,528.4688 296.7056,528.6281 Q296.865,528.7781 296.865,528.9844 Q296.865,529.1906 296.6588,529.4344 Q296.3588,529.7813 295.8806,529.9781 Q295.2338,530.25 294.4556,530.25 Q293.5463,530.25 292.8244,529.875 Q292.2338,529.575 291.8212,528.9375 Q291.4088,528.2906 291.4088,527.5219 L291.4088,526.8281 Q291.4088,526.0313 291.7744,525.3469 Q292.1494,524.6531 292.8056,524.2875 Q293.4619,523.9125 294.2025,523.9125 Q294.6431,523.9125 295.0275,524.0156 Q295.4213,524.1094 295.7494,524.325 Z " fill="#000000"/><text fill="#000000" font-family="sans-serif" font-size="8.4" lengthAdjust="spacing" textLength="48" x="304.71" y="530.2781">GreenSpace</text><line style="stroke:#181818;stroke-width:0.3;" x1="275.7" x2="363.9" y1="536.4" y2="536.4"/><text fill="#000000" font-family="sans-serif" font-size="8.4" lengthAdjust="spacing" textLength="48.6" x="278.7" y="547.8645">-String name</text><text fill="#000000" font-family="sans-serif" font-size="8.4" lengthAdjust="spacing" textLength="43.8" x="278.7" y="559.0371">-String type</text><text fill="#000000" font-family="sans-serif" font-size="8.4" lengthAdjust="spacing" textLength="31.8" x="278.7" y="570.2098">-int area</text><text fill="#000000" font-family="sans-serif" font-size="8.4" lengthAdjust="spacing" textLength="58.2" x="278.7" y="581.3824">-String address</text><text fill="#000000" font-family="sans-serif" font-size="8.4" lengthAdjust="spacing" textLength="63.6" x="278.7" y="592.5551">-String gsmEmail</text><line style="stroke:#181818;stroke-width:0.3;" x1="275.7" x2="363.9" y1="597.0633" y2="597.0633"/><text fill="#000000" font-family="sans-serif" font-size="8.4" lengthAdjust="spacing" textLength="82.2" x="278.7" y="608.5277">+hasUserEmail(email)</text></g><!--class Task--><g id="elem_Task"><rect codeLine="69" fill="#F1F1F1" height="84.6633" id="Task" rx="1.5" ry="1.5" style="stroke:#181818;stroke-width:0.3;" width="324" x="267.6" y="341.7"/><ellipse cx="417.75" cy="351.3" fill="#ADD1B2" rx="6.6" ry="6.6" style="stroke:#181818;stroke-width:0.6;"/><path d="M419.4094,348.825 Q419.5031,348.6937 419.6156,348.6281 Q419.7281,348.5625 419.8594,348.5625 Q420.0844,348.5625 420.225,348.7219 Q420.3656,348.8719 420.3656,349.2375 L420.3656,350.1094 Q420.3656,350.475 420.225,350.6344 Q420.0844,350.7938 419.8594,350.7938 Q419.6531,350.7938 419.5313,350.6719 Q419.4094,350.5594 419.3438,350.25 Q419.3156,350.0344 419.2031,349.9219 Q419.0062,349.6969 418.6406,349.5656 Q418.275,349.4344 417.9,349.4344 Q417.4406,349.4344 417.0563,349.6312 Q416.6813,349.8281 416.3812,350.2781 Q416.0906,350.7281 416.0906,351.3469 L416.0906,352.0031 Q416.0906,352.7438 416.625,353.2406 Q417.1594,353.7281 418.1156,353.7281 Q418.6781,353.7281 419.0719,353.5781 Q419.3063,353.4844 419.5594,353.2219 Q419.7188,353.0625 419.8031,353.0156 Q419.8969,352.9688 420.0188,352.9688 Q420.2156,352.9688 420.3656,353.1281 Q420.525,353.2781 420.525,353.4844 Q420.525,353.6906 420.3187,353.9344 Q420.0188,354.2813 419.5406,354.4781 Q418.8938,354.75 418.1156,354.75 Q417.2063,354.75 416.4844,354.375 Q415.8938,354.075 415.4813,353.4375 Q415.0687,352.7906 415.0687,352.0219 L415.0687,351.3281 Q415.0687,350.5313 415.4344,349.8469 Q415.8094,349.1531 416.4656,348.7875 Q417.1219,348.4125 417.8625,348.4125 Q418.3031,348.4125 418.6875,348.5156 Q419.0813,348.6094 419.4094,348.825 Z " fill="#000000"/><text fill="#000000" font-family="sans-serif" font-size="8.4" lengthAdjust="spacing" textLength="18.6" x="430.05" y="354.7781">Task</text><line style="stroke:#181818;stroke-width:0.3;" x1="268.2" x2="591" y1="360.9" y2="360.9"/><text fill="#000000" font-family="sans-serif" font-size="8.4" lengthAdjust="spacing" textLength="40.8" x="271.2" y="372.3645">-String title</text><text fill="#000000" font-family="sans-serif" font-size="8.4" lengthAdjust="spacing" textLength="69" x="271.2" y="383.5371">-String description</text><text fill="#000000" font-family="sans-serif" font-size="8.4" lengthAdjust="spacing" textLength="81" x="271.2" y="394.7098">-int expectedDuration</text><text fill="#000000" font-family="sans-serif" font-size="8.4" lengthAdjust="spacing" textLength="86.4" x="271.2" y="405.8824">-Calendar startingDate</text><line style="stroke:#181818;stroke-width:0.3;" x1="268.2" x2="591" y1="410.3906" y2="410.3906"/><text fill="#000000" font-family="sans-serif" font-size="8.4" lengthAdjust="spacing" textLength="316.8" x="271.2" y="421.8551">+Task(title, description, degreeOfUrgency, expectedDuration, selectedGreenSpace)</text></g><!--class DegreeOfUrgency--><g id="elem_DegreeOfUrgency"><rect codeLine="78" fill="#F1F1F1" height="62.318" id="DegreeOfUrgency" rx="1.5" ry="1.5" style="stroke:#181818;stroke-width:0.3;" width="87.6" x="385.8" y="534"/><ellipse cx="394.8" cy="543.6" fill="#EB937F" rx="6.6" ry="6.6" style="stroke:#181818;stroke-width:0.6;"/><path d="M394.1156,544.0781 L394.1156,545.5781 L396.7125,545.5781 L396.7125,545.025 Q396.7125,544.6594 396.8531,544.5 Q397.0031,544.3406 397.2281,544.3406 Q397.4531,544.3406 397.5938,544.5 Q397.7344,544.6594 397.7344,545.025 L397.7344,546.6 L392.9344,546.6 Q392.5594,546.6 392.4,546.4594 Q392.25,546.3188 392.25,546.0844 Q392.25,545.8594 392.4094,545.7188 Q392.5687,545.5781 392.9344,545.5781 L393.0938,545.5781 L393.0938,541.5844 L392.9344,541.5844 Q392.5594,541.5844 392.4,541.4438 Q392.25,541.3031 392.25,541.0688 Q392.25,540.8438 392.4,540.7031 Q392.5594,540.5625 392.9344,540.5625 L397.5094,540.5625 L397.5094,542.1188 Q397.5094,542.4844 397.3688,542.6438 Q397.2375,542.7937 397.0031,542.7937 Q396.7781,542.7937 396.6375,542.6438 Q396.4969,542.4844 396.4969,542.1188 L396.4969,541.5844 L394.1156,541.5844 L394.1156,543.0563 L395.0062,543.0563 Q395.0062,542.6625 395.0813,542.55 Q395.2406,542.3063 395.5219,542.3063 Q395.7469,542.3063 395.8875,542.4656 Q396.0281,542.6156 396.0281,542.9812 L396.0281,544.1625 Q396.0281,544.4906 395.9531,544.6031 Q395.7938,544.8375 395.5219,544.8375 Q395.2406,544.8375 395.0813,544.5938 Q395.0062,544.4812 395.0062,544.0781 L394.1156,544.0781 Z " fill="#000000"/><text fill="#000000" font-family="sans-serif" font-size="8.4" lengthAdjust="spacing" textLength="68.4" x="403.2" y="547.0781">DegreeOfUrgency</text><line style="stroke:#181818;stroke-width:0.3;" x1="386.4" x2="472.8" y1="553.2" y2="553.2"/><text fill="#000000" font-family="sans-serif" font-size="8.4" lengthAdjust="spacing" textLength="15" x="389.4" y="564.6645">Low</text><text fill="#000000" font-family="sans-serif" font-size="8.4" lengthAdjust="spacing" textLength="29.4" x="389.4" y="575.8371">Medium</text><text fill="#000000" font-family="sans-serif" font-size="8.4" lengthAdjust="spacing" textLength="16.8" x="389.4" y="587.0098">High</text><line style="stroke:#181818;stroke-width:0.3;" x1="386.4" x2="472.8" y1="591.518" y2="591.518"/></g><!--class TaskStatus--><g id="elem_TaskStatus"><rect codeLine="85" fill="#F1F1F1" height="95.8359" id="TaskStatus" rx="1.5" ry="1.5" style="stroke:#181818;stroke-width:0.3;" width="61.8" x="494.7" y="517.2"/><ellipse cx="503.7" cy="526.8" fill="#EB937F" rx="6.6" ry="6.6" style="stroke:#181818;stroke-width:0.6;"/><path d="M503.0156,527.2781 L503.0156,528.7781 L505.6125,528.7781 L505.6125,528.225 Q505.6125,527.8594 505.7531,527.7 Q505.9031,527.5406 506.1281,527.5406 Q506.3531,527.5406 506.4938,527.7 Q506.6344,527.8594 506.6344,528.225 L506.6344,529.8 L501.8344,529.8 Q501.4594,529.8 501.3,529.6594 Q501.15,529.5188 501.15,529.2844 Q501.15,529.0594 501.3094,528.9187 Q501.4688,528.7781 501.8344,528.7781 L501.9938,528.7781 L501.9938,524.7844 L501.8344,524.7844 Q501.4594,524.7844 501.3,524.6438 Q501.15,524.5031 501.15,524.2688 Q501.15,524.0437 501.3,523.9031 Q501.4594,523.7625 501.8344,523.7625 L506.4094,523.7625 L506.4094,525.3188 Q506.4094,525.6844 506.2687,525.8438 Q506.1375,525.9938 505.9031,525.9938 Q505.6781,525.9938 505.5375,525.8438 Q505.3969,525.6844 505.3969,525.3188 L505.3969,524.7844 L503.0156,524.7844 L503.0156,526.2563 L503.9063,526.2563 Q503.9063,525.8625 503.9813,525.75 Q504.1406,525.5063 504.4219,525.5063 Q504.6469,525.5063 504.7875,525.6656 Q504.9281,525.8156 504.9281,526.1813 L504.9281,527.3625 Q504.9281,527.6906 504.8531,527.8031 Q504.6937,528.0375 504.4219,528.0375 Q504.1406,528.0375 503.9813,527.7937 Q503.9063,527.6813 503.9063,527.2781 L503.0156,527.2781 Z " fill="#000000"/><text fill="#000000" font-family="sans-serif" font-size="8.4" lengthAdjust="spacing" textLength="42.6" x="512.1" y="530.2781">TaskStatus</text><line style="stroke:#181818;stroke-width:0.3;" x1="495.3" x2="555.9" y1="536.4" y2="536.4"/><text fill="#000000" font-family="sans-serif" font-size="8.4" lengthAdjust="spacing" textLength="31.2" x="498.3" y="547.8645">Pending</text><text fill="#000000" font-family="sans-serif" font-size="8.4" lengthAdjust="spacing" textLength="40.2" x="498.3" y="559.0371">Processed</text><text fill="#000000" font-family="sans-serif" font-size="8.4" lengthAdjust="spacing" textLength="31.2" x="498.3" y="570.2098">Planned</text><text fill="#000000" font-family="sans-serif" font-size="8.4" lengthAdjust="spacing" textLength="40.8" x="498.3" y="581.3824">Postponed</text><text fill="#000000" font-family="sans-serif" font-size="8.4" lengthAdjust="spacing" textLength="36" x="498.3" y="592.5551">Canceled</text><text fill="#000000" font-family="sans-serif" font-size="8.4" lengthAdjust="spacing" textLength="20.4" x="498.3" y="603.7277">Done</text><line style="stroke:#181818;stroke-width:0.3;" x1="495.3" x2="555.9" y1="608.2359" y2="608.2359"/></g><!--class ApplicationSession--><g id="elem_ApplicationSession"><rect codeLine="94" fill="#F1F1F1" height="51.1453" id="ApplicationSession" rx="1.5" ry="1.5" style="stroke:#181818;stroke-width:0.3;" width="90.6" x="108.3" y="358.5"/><ellipse cx="117.3" cy="368.1" fill="#ADD1B2" rx="6.6" ry="6.6" style="stroke:#181818;stroke-width:0.6;"/><path d="M118.9594,365.625 Q119.0531,365.4938 119.1656,365.4281 Q119.2781,365.3625 119.4094,365.3625 Q119.6344,365.3625 119.775,365.5219 Q119.9156,365.6719 119.9156,366.0375 L119.9156,366.9094 Q119.9156,367.275 119.775,367.4344 Q119.6344,367.5938 119.4094,367.5938 Q119.2031,367.5938 119.0813,367.4719 Q118.9594,367.3594 118.8938,367.05 Q118.8656,366.8344 118.7531,366.7219 Q118.5562,366.4969 118.1906,366.3656 Q117.825,366.2344 117.45,366.2344 Q116.9906,366.2344 116.6062,366.4313 Q116.2312,366.6281 115.9312,367.0781 Q115.6406,367.5281 115.6406,368.1469 L115.6406,368.8031 Q115.6406,369.5438 116.175,370.0406 Q116.7094,370.5281 117.6656,370.5281 Q118.2281,370.5281 118.6219,370.3781 Q118.8562,370.2844 119.1094,370.0219 Q119.2688,369.8625 119.3531,369.8156 Q119.4469,369.7688 119.5688,369.7688 Q119.7656,369.7688 119.9156,369.9281 Q120.075,370.0781 120.075,370.2844 Q120.075,370.4906 119.8687,370.7344 Q119.5688,371.0813 119.0906,371.2781 Q118.4438,371.55 117.6656,371.55 Q116.7563,371.55 116.0344,371.175 Q115.4438,370.875 115.0313,370.2375 Q114.6187,369.5906 114.6187,368.8219 L114.6187,368.1281 Q114.6187,367.3313 114.9844,366.6469 Q115.3594,365.9531 116.0156,365.5875 Q116.6719,365.2125 117.4125,365.2125 Q117.8531,365.2125 118.2375,365.3156 Q118.6313,365.4094 118.9594,365.625 Z " fill="#000000"/><text fill="#000000" font-family="sans-serif" font-size="8.4" lengthAdjust="spacing" textLength="71.4" x="125.7" y="371.5781">ApplicationSession</text><line style="stroke:#181818;stroke-width:0.3;" x1="108.9" x2="198.3" y1="377.7" y2="377.7"/><line style="stroke:#181818;stroke-width:0.3;" x1="108.9" x2="198.3" y1="382.5" y2="382.5"/><text fill="#000000" font-family="sans-serif" font-size="8.4" lengthAdjust="spacing" textLength="76.8" x="111.9" y="393.9645">+static getInstance()</text><text fill="#000000" font-family="sans-serif" font-size="8.4" lengthAdjust="spacing" textLength="81.6" x="111.9" y="405.1371">+getCurrentSession()</text></g><!--class GreenSpaceMapper--><g id="elem_GreenSpaceMapper"><rect codeLine="103" fill="#F1F1F1" height="62.318" id="GreenSpaceMapper" rx="1.5" ry="1.5" style="stroke:#181818;stroke-width:0.3;" width="216" x="838.2" y="194.4"/><ellipse cx="905.25" cy="204" fill="#ADD1B2" rx="6.6" ry="6.6" style="stroke:#181818;stroke-width:0.6;"/><path d="M906.9094,201.525 Q907.0031,201.3937 907.1156,201.3281 Q907.2281,201.2625 907.3594,201.2625 Q907.5844,201.2625 907.725,201.4219 Q907.8656,201.5719 907.8656,201.9375 L907.8656,202.8094 Q907.8656,203.175 907.725,203.3344 Q907.5844,203.4938 907.3594,203.4938 Q907.1531,203.4938 907.0313,203.3719 Q906.9094,203.2594 906.8438,202.95 Q906.8156,202.7344 906.7031,202.6219 Q906.5063,202.3969 906.1406,202.2656 Q905.775,202.1344 905.4,202.1344 Q904.9406,202.1344 904.5563,202.3312 Q904.1813,202.5281 903.8813,202.9781 Q903.5906,203.4281 903.5906,204.0469 L903.5906,204.7031 Q903.5906,205.4438 904.125,205.9406 Q904.6594,206.4281 905.6156,206.4281 Q906.1781,206.4281 906.5719,206.2781 Q906.8063,206.1844 907.0594,205.9219 Q907.2188,205.7625 907.3031,205.7156 Q907.3969,205.6688 907.5188,205.6688 Q907.7156,205.6688 907.8656,205.8281 Q908.025,205.9781 908.025,206.1844 Q908.025,206.3906 907.8188,206.6344 Q907.5188,206.9813 907.0406,207.1781 Q906.3938,207.45 905.6156,207.45 Q904.7063,207.45 903.9844,207.075 Q903.3938,206.775 902.9812,206.1375 Q902.5688,205.4906 902.5688,204.7219 L902.5688,204.0281 Q902.5688,203.2313 902.9344,202.5469 Q903.3094,201.8531 903.9656,201.4875 Q904.6219,201.1125 905.3625,201.1125 Q905.8031,201.1125 906.1875,201.2156 Q906.5813,201.3094 906.9094,201.525 Z " fill="#000000"/><text fill="#000000" font-family="sans-serif" font-size="8.4" lengthAdjust="spacing" textLength="76.8" x="917.55" y="207.4781">GreenSpaceMapper</text><line style="stroke:#181818;stroke-width:0.3;" x1="838.8" x2="1053.6" y1="213.6" y2="213.6"/><text fill="#000000" font-family="sans-serif" font-size="8.4" lengthAdjust="spacing" textLength="208.8" x="841.8" y="225.0645">-List&lt;GreenSpaceDto&gt; associatedGreenSpacesListDto</text><line style="stroke:#181818;stroke-width:0.3;" x1="838.8" x2="1053.6" y1="229.5727" y2="229.5727"/><text fill="#000000" font-family="sans-serif" font-size="8.4" lengthAdjust="spacing" textLength="142.2" x="841.8" y="241.0371">+toDTO(associatedGreenSpacesList)</text><text fill="#000000" font-family="sans-serif" font-size="8.4" lengthAdjust="spacing" textLength="45.6" x="841.8" y="252.2098">-toDTO(obj)</text></g><!--class TaskMapper--><g id="elem_TaskMapper"><rect codeLine="110" fill="#F1F1F1" height="39.9727" id="TaskMapper" rx="1.5" ry="1.5" style="stroke:#181818;stroke-width:0.3;" width="161.4" x="655.5" y="205.5"/><ellipse cx="709.95" cy="215.1" fill="#ADD1B2" rx="6.6" ry="6.6" style="stroke:#181818;stroke-width:0.6;"/><path d="M711.6094,212.625 Q711.7031,212.4938 711.8156,212.4281 Q711.9281,212.3625 712.0594,212.3625 Q712.2844,212.3625 712.425,212.5219 Q712.5656,212.6719 712.5656,213.0375 L712.5656,213.9094 Q712.5656,214.275 712.425,214.4344 Q712.2844,214.5938 712.0594,214.5938 Q711.8531,214.5938 711.7312,214.4719 Q711.6094,214.3594 711.5437,214.05 Q711.5156,213.8344 711.4031,213.7219 Q711.2063,213.4969 710.8406,213.3656 Q710.475,213.2344 710.1,213.2344 Q709.6406,213.2344 709.2563,213.4313 Q708.8813,213.6281 708.5813,214.0781 Q708.2906,214.5281 708.2906,215.1469 L708.2906,215.8031 Q708.2906,216.5438 708.825,217.0406 Q709.3594,217.5281 710.3156,217.5281 Q710.8781,217.5281 711.2719,217.3781 Q711.5063,217.2844 711.7594,217.0219 Q711.9187,216.8625 712.0031,216.8156 Q712.0969,216.7687 712.2188,216.7687 Q712.4156,216.7687 712.5656,216.9281 Q712.725,217.0781 712.725,217.2844 Q712.725,217.4906 712.5188,217.7344 Q712.2188,218.0812 711.7406,218.2781 Q711.0938,218.55 710.3156,218.55 Q709.4063,218.55 708.6844,218.175 Q708.0938,217.875 707.6813,217.2375 Q707.2688,216.5906 707.2688,215.8219 L707.2688,215.1281 Q707.2688,214.3312 707.6344,213.6469 Q708.0094,212.9531 708.6656,212.5875 Q709.3219,212.2125 710.0625,212.2125 Q710.5031,212.2125 710.8875,212.3156 Q711.2813,212.4094 711.6094,212.625 Z " fill="#000000"/><text fill="#000000" font-family="sans-serif" font-size="8.4" lengthAdjust="spacing" textLength="47.4" x="722.25" y="218.5781">TaskMapper</text><line style="stroke:#181818;stroke-width:0.3;" x1="656.1" x2="816.3" y1="224.7" y2="224.7"/><line style="stroke:#181818;stroke-width:0.3;" x1="656.1" x2="816.3" y1="229.5" y2="229.5"/><text fill="#000000" font-family="sans-serif" font-size="8.4" lengthAdjust="spacing" textLength="154.2" x="659.1" y="240.9645">+toModel(taskDto, selectedGreenSpace)</text></g><!--class GreenSpaceDto--><g id="elem_GreenSpaceDto"><rect codeLine="116" fill="#F1F1F1" height="84.6633" id="GreenSpaceDto" rx="1.5" ry="1.5" style="stroke:#181818;stroke-width:0.3;" width="178.8" x="1027.8" y="341.7"/><ellipse cx="1084.05" cy="351.3" fill="#ADD1B2" rx="6.6" ry="6.6" style="stroke:#181818;stroke-width:0.6;"/><path d="M1085.7094,348.825 Q1085.8031,348.6937 1085.9156,348.6281 Q1086.0281,348.5625 1086.1594,348.5625 Q1086.3844,348.5625 1086.525,348.7219 Q1086.6656,348.8719 1086.6656,349.2375 L1086.6656,350.1094 Q1086.6656,350.475 1086.525,350.6344 Q1086.3844,350.7938 1086.1594,350.7938 Q1085.9531,350.7938 1085.8313,350.6719 Q1085.7094,350.5594 1085.6438,350.25 Q1085.6156,350.0344 1085.5031,349.9219 Q1085.3062,349.6969 1084.9406,349.5656 Q1084.575,349.4344 1084.2,349.4344 Q1083.7406,349.4344 1083.3563,349.6312 Q1082.9813,349.8281 1082.6812,350.2781 Q1082.3906,350.7281 1082.3906,351.3469 L1082.3906,352.0031 Q1082.3906,352.7438 1082.925,353.2406 Q1083.4594,353.7281 1084.4156,353.7281 Q1084.9781,353.7281 1085.3719,353.5781 Q1085.6063,353.4844 1085.8594,353.2219 Q1086.0188,353.0625 1086.1031,353.0156 Q1086.1969,352.9688 1086.3188,352.9688 Q1086.5156,352.9688 1086.6656,353.1281 Q1086.825,353.2781 1086.825,353.4844 Q1086.825,353.6906 1086.6187,353.9344 Q1086.3188,354.2813 1085.8406,354.4781 Q1085.1938,354.75 1084.4156,354.75 Q1083.5063,354.75 1082.7844,354.375 Q1082.1938,354.075 1081.7813,353.4375 Q1081.3687,352.7906 1081.3687,352.0219 L1081.3687,351.3281 Q1081.3687,350.5313 1081.7344,349.8469 Q1082.1094,349.1531 1082.7656,348.7875 Q1083.4219,348.4125 1084.1625,348.4125 Q1084.6031,348.4125 1084.9875,348.5156 Q1085.3813,348.6094 1085.7094,348.825 Z " fill="#000000"/><text fill="#000000" font-family="sans-serif" font-size="8.4" lengthAdjust="spacing" textLength="61.2" x="1096.35" y="354.7781">GreenSpaceDto</text><line style="stroke:#181818;stroke-width:0.3;" x1="1028.4" x2="1206" y1="360.9" y2="360.9"/><text fill="#000000" font-family="sans-serif" font-size="8.4" lengthAdjust="spacing" textLength="48.6" x="1031.4" y="372.3645">-String name</text><text fill="#000000" font-family="sans-serif" font-size="8.4" lengthAdjust="spacing" textLength="43.8" x="1031.4" y="383.5371">-String type</text><text fill="#000000" font-family="sans-serif" font-size="8.4" lengthAdjust="spacing" textLength="31.8" x="1031.4" y="394.7098">-int area</text><text fill="#000000" font-family="sans-serif" font-size="8.4" lengthAdjust="spacing" textLength="58.2" x="1031.4" y="405.8824">-String address</text><line style="stroke:#181818;stroke-width:0.3;" x1="1028.4" x2="1206" y1="410.3906" y2="410.3906"/><text fill="#000000" font-family="sans-serif" font-size="8.4" lengthAdjust="spacing" textLength="171.6" x="1031.4" y="421.8551">+GreenSpaceDto(name, type, area, address)</text></g><!--class TaskDto--><g id="elem_TaskDto"><rect codeLine="125" fill="#F1F1F1" height="140.5266" id="TaskDto" rx="1.5" ry="1.5" style="stroke:#181818;stroke-width:0.3;" width="337.2" x="669.6" y="313.8"/><ellipse cx="819.75" cy="323.4" fill="#ADD1B2" rx="6.6" ry="6.6" style="stroke:#181818;stroke-width:0.6;"/><path d="M821.4094,320.925 Q821.5031,320.7938 821.6156,320.7281 Q821.7281,320.6625 821.8594,320.6625 Q822.0844,320.6625 822.225,320.8219 Q822.3656,320.9719 822.3656,321.3375 L822.3656,322.2094 Q822.3656,322.575 822.225,322.7344 Q822.0844,322.8938 821.8594,322.8938 Q821.6531,322.8938 821.5313,322.7719 Q821.4094,322.6594 821.3438,322.35 Q821.3156,322.1344 821.2031,322.0219 Q821.0063,321.7969 820.6406,321.6656 Q820.275,321.5344 819.9,321.5344 Q819.4406,321.5344 819.0563,321.7313 Q818.6813,321.9281 818.3813,322.3781 Q818.0906,322.8281 818.0906,323.4469 L818.0906,324.1031 Q818.0906,324.8438 818.625,325.3406 Q819.1594,325.8281 820.1156,325.8281 Q820.6781,325.8281 821.0719,325.6781 Q821.3063,325.5844 821.5594,325.3219 Q821.7188,325.1625 821.8031,325.1156 Q821.8969,325.0687 822.0188,325.0687 Q822.2156,325.0687 822.3656,325.2281 Q822.525,325.3781 822.525,325.5844 Q822.525,325.7906 822.3188,326.0344 Q822.0188,326.3812 821.5406,326.5781 Q820.8938,326.85 820.1156,326.85 Q819.2063,326.85 818.4844,326.475 Q817.8938,326.175 817.4812,325.5375 Q817.0688,324.8906 817.0688,324.1219 L817.0688,323.4281 Q817.0688,322.6312 817.4344,321.9469 Q817.8094,321.2531 818.4656,320.8875 Q819.1219,320.5125 819.8625,320.5125 Q820.3031,320.5125 820.6875,320.6156 Q821.0813,320.7094 821.4094,320.925 Z " fill="#000000"/><text fill="#000000" font-family="sans-serif" font-size="8.4" lengthAdjust="spacing" textLength="31.8" x="832.05" y="326.8781">TaskDto</text><line style="stroke:#181818;stroke-width:0.3;" x1="670.2" x2="1006.2" y1="333" y2="333"/><text fill="#000000" font-family="sans-serif" font-size="8.4" lengthAdjust="spacing" textLength="40.8" x="673.2" y="344.4645">-String title</text><text fill="#000000" font-family="sans-serif" font-size="8.4" lengthAdjust="spacing" textLength="69" x="673.2" y="355.6371">-String description</text><text fill="#000000" font-family="sans-serif" font-size="8.4" lengthAdjust="spacing" textLength="94.8" x="673.2" y="366.8098">-String degreeOfUrgency</text><text fill="#000000" font-family="sans-serif" font-size="8.4" lengthAdjust="spacing" textLength="81" x="673.2" y="377.9824">-int expectedDuration</text><text fill="#000000" font-family="sans-serif" font-size="8.4" lengthAdjust="spacing" textLength="86.4" x="673.2" y="389.1551">-Calendar startingDate</text><line style="stroke:#181818;stroke-width:0.3;" x1="670.2" x2="1006.2" y1="393.6633" y2="393.6633"/><text fill="#000000" font-family="sans-serif" font-size="8.4" lengthAdjust="spacing" textLength="330" x="673.2" y="405.1277">+TaskDto(title, description, degreeOfUrgency, expectedDuration, selectedGreenSpace)</text><text fill="#000000" font-family="sans-serif" font-size="8.4" lengthAdjust="spacing" textLength="39" x="673.2" y="416.3004">+getTitle()</text><text fill="#000000" font-family="sans-serif" font-size="8.4" lengthAdjust="spacing" textLength="65.4" x="673.2" y="427.473">+getDescription()</text><text fill="#000000" font-family="sans-serif" font-size="8.4" lengthAdjust="spacing" textLength="91.2" x="673.2" y="438.6457">+getDegreeOfUrgency()</text><text fill="#000000" font-family="sans-serif" font-size="8.4" lengthAdjust="spacing" textLength="90" x="673.2" y="449.8184">+getExpectedDuration()</text></g><!--reverse link Task to DegreeOfUrgency--><g id="link_Task_DegreeOfUrgency"><path codeLine="141" d="M429.6,435.948 C429.6,468.768 429.6,504.138 429.6,533.76 " fill="none" id="Task-backto-DegreeOfUrgency" style="stroke:#181818;stroke-width:0.6;"/><ellipse cx="429.6" cy="431.148" fill="#FFFFFF" rx="4.8" ry="4.8" style="stroke:#181818;stroke-width:0.6;"/><line style="stroke:#181818;stroke-width:0.6;" x1="429.6" x2="429.6" y1="435.948" y2="426.348"/><line style="stroke:#181818;stroke-width:0.6;" x1="424.8" x2="434.4" y1="431.148" y2="431.148"/></g><!--reverse link Task to TaskStatus--><g id="link_Task_TaskStatus"><path codeLine="142" d="M456.3828,434.8191 C470.8368,461.9271 485.202,488.85 500.238,517.044 " fill="none" id="Task-backto-TaskStatus" style="stroke:#181818;stroke-width:0.6;"/><ellipse cx="454.1244" cy="430.5835" fill="#FFFFFF" rx="4.8" ry="4.8" style="stroke:#181818;stroke-width:0.6;"/><line style="stroke:#181818;stroke-width:0.6;" x1="456.3828" x2="451.866" y1="434.8191" y2="426.348"/><line style="stroke:#181818;stroke-width:0.6;" x1="449.8889" x2="458.3599" y1="432.8419" y2="428.3251"/></g><!--link Repositories to Repositories--><g id="link_Repositories_Repositories"><path codeLine="144" d="M544.23,215.628 C556.44,216.696 565.2,220.02 565.2,225.6 C565.2,231.18 560.0263,234.1903 547.8163,235.2583 " fill="none" id="Repositories-to-Repositories" style="stroke:#181818;stroke-width:0.6;"/><polygon fill="#181818" points="544.23,235.572,549.8186,237.4923,547.2186,235.3106,549.4003,232.7106,544.23,235.572" style="stroke:#181818;stroke-width:0.6;"/><text fill="#000000" font-family="sans-serif" font-size="7.8" lengthAdjust="spacing" textLength="29.4" x="568.8" y="228.917">instance</text></g><!--link ApplicationSession to ApplicationSession--><g id="link_ApplicationSession_ApplicationSession"><path codeLine="145" d="M198.996,365.058 C210.9,366.18 219.9,372.498 219.9,384 C219.9,395.502 214.4841,401.4822 202.5801,402.6042 " fill="none" id="ApplicationSession-to-ApplicationSession" style="stroke:#181818;stroke-width:0.6;"/><polygon fill="#181818" points="198.996,402.942,204.5974,404.8247,201.9828,402.6605,204.147,400.0459,198.996,402.942" style="stroke:#181818;stroke-width:0.6;"/><text fill="#000000" font-family="sans-serif" font-size="7.8" lengthAdjust="spacing" textLength="29.4" x="223.5" y="387.317">instance</text></g><!--link AddEntryToDoUI to AddEntryToDoController--><g id="link_AddEntryToDoUI_AddEntryToDoController"><path codeLine="147" d="M1044.72,63 C986.058,63 885.6,63 885.6,63 C885.6,63 685.2,63 685.2,63 C685.2,63 604.284,63 545.022,63 " fill="none" id="AddEntryToDoUI-to-AddEntryToDoController" style="stroke:#181818;stroke-width:0.6;stroke-dasharray:7.0,7.0;"/><polygon fill="#181818" points="541.422,63,546.822,65.4,544.422,63,546.822,60.6,541.422,63" style="stroke:#181818;stroke-width:0.6;"/></g><!--link AddEntryToDoUI to GreenSpaceDto--><g id="link_AddEntryToDoUI_GreenSpaceDto"><path codeLine="148" d="M1089.936,77.532 C1094.556,93.882 1101.6,118.8 1101.6,118.8 C1101.6,118.8 1110.1182,263.2682 1114.5162,337.8782 " fill="none" id="AddEntryToDoUI-to-GreenSpaceDto" style="stroke:#181818;stroke-width:0.6;stroke-dasharray:7.0,7.0;"/><polygon fill="#181818" points="1114.728,341.472,1116.8061,335.9401,1114.5515,338.4772,1112.0144,336.2226,1114.728,341.472" style="stroke:#181818;stroke-width:0.6;"/></g><!--link AddEntryToDoUI to TaskDto--><g id="link_AddEntryToDoUI_TaskDto"><path codeLine="149" d="M1085.166,77.43 C1082.262,125.436 1072.8,282 1072.8,282 C1072.8,282 1017.6,286.8 1017.6,286.8 C1017.6,286.8 999.0857,296.7692 970.7957,312.0032 " fill="none" id="AddEntryToDoUI-to-TaskDto" style="stroke:#181818;stroke-width:0.6;stroke-dasharray:7.0,7.0;"/><polygon fill="#181818" points="967.626,313.71,973.5184,313.2628,970.2674,312.2876,971.2426,309.0366,967.626,313.71" style="stroke:#181818;stroke-width:0.6;"/></g><!--link AddEntryToDoController to Repositories--><g id="link_AddEntryToDoController_Repositories"><path codeLine="151" d="M484.8,99.618 C484.8,126.192 484.8,158.598 484.8,185.208 " fill="none" id="AddEntryToDoController-to-Repositories" style="stroke:#181818;stroke-width:0.6;stroke-dasharray:7.0,7.0;"/><polygon fill="#181818" points="484.8,188.808,487.2,183.408,484.8,185.808,482.4,183.408,484.8,188.808" style="stroke:#181818;stroke-width:0.6;"/><text fill="#000000" font-family="sans-serif" font-size="7.8" lengthAdjust="spacing" textLength="40.2" x="485.4" y="127.817">repositories</text></g><!--link Repositories to GreenSpaceRepository--><g id="link_Repositories_GreenSpaceRepository"><path codeLine="153" d="M456.492,188.748 C437.22,163.668 415.2,135 415.2,135 C415.2,135 404.7,124.5 404.7,124.5 C404.7,124.5 239.1,124.5 239.1,124.5 C239.1,124.5 201.021,157.662 167.793,186.594 " fill="none" id="Repositories-to-GreenSpaceRepository" style="stroke:#181818;stroke-width:0.6;"/><polygon fill="#181818" points="165.078,188.958,170.7266,187.222,167.3405,186.988,167.5745,183.602,165.078,188.958" style="stroke:#181818;stroke-width:0.6;"/><text fill="#000000" font-family="sans-serif" font-size="7.8" lengthAdjust="spacing" textLength="4.2" x="165.5005" y="182.3419">1</text></g><!--link Repositories to ToDoList--><g id="link_Repositories_ToDoList"><path codeLine="154" d="M425.292,225.6 C420.366,225.6 416.094,225.6 408.072,225.6 " fill="none" id="Repositories-to-ToDoList" style="stroke:#181818;stroke-width:0.6;"/><polygon fill="#181818" points="404.472,225.6,409.872,228,407.472,225.6,409.872,223.2,404.472,225.6" style="stroke:#181818;stroke-width:0.6;"/><text fill="#000000" font-family="sans-serif" font-size="7.8" lengthAdjust="spacing" textLength="4.2" x="409.1189" y="223.5389">1</text></g><!--link AddEntryToDoController to GreenSpaceRepository--><g id="link_AddEntryToDoController_GreenSpaceRepository"><path codeLine="156" d="M428.256,79.356 C352.812,100.386 228.6,135 228.6,135 C228.6,135 197.4641,161.537 168.0821,186.575 " fill="none" id="AddEntryToDoController-to-GreenSpaceRepository" style="stroke:#181818;stroke-width:0.6;stroke-dasharray:7.0,7.0;"/><polygon fill="#181818" points="165.342,188.91,171.0087,187.2343,167.6254,186.9642,167.8955,183.5808,165.342,188.91" style="stroke:#181818;stroke-width:0.6;"/><text fill="#000000" font-family="sans-serif" font-size="7.8" lengthAdjust="spacing" textLength="76.8" x="284.4" y="127.817">greenSpaceRepostory</text></g><!--link AddEntryToDoController to ToDoList--><g id="link_AddEntryToDoController_ToDoList"><path codeLine="157" d="M448.38,99.618 C417.564,130.092 376.7617,170.4486 349.5757,197.3346 " fill="none" id="AddEntryToDoController-to-ToDoList" style="stroke:#181818;stroke-width:0.6;stroke-dasharray:7.0,7.0;"/><polygon fill="#181818" points="347.016,199.866,352.5431,197.7753,349.1491,197.7565,349.1679,194.3624,347.016,199.866" style="stroke:#181818;stroke-width:0.6;"/><text fill="#000000" font-family="sans-serif" font-size="7.8" lengthAdjust="spacing" textLength="28.8" x="427.8" y="127.817">toDoList</text></g><!--link AddEntryToDoController to ApplicationSession--><g id="link_AddEntryToDoController_ApplicationSession"><path codeLine="158" d="M541.296,98.256 C570.954,116.448 601.2,135 601.2,135 C601.2,135 601.2,276.6 601.2,276.6 C601.2,276.6 257.4,286.8 257.4,286.8 C257.4,286.8 213.9915,327.1996 183.2355,355.8196 " fill="none" id="AddEntryToDoController-to-ApplicationSession" style="stroke:#181818;stroke-width:0.6;stroke-dasharray:7.0,7.0;"/><polygon fill="#181818" points="180.6,358.272,186.1881,356.3503,182.7962,356.2283,182.9182,352.8364,180.6,358.272" style="stroke:#181818;stroke-width:0.6;"/></g><!--link AddEntryToDoController to UserSession--><g id="link_AddEntryToDoController_UserSession"><path codeLine="159" d="M428.334,72.246 C304.212,91.26 18.6,135 18.6,135 C18.6,135 18.6,276.6 18.6,276.6 C18.6,276.6 93,483 93,483 C93,483 115.3118,517.8816 130.7558,542.0196 " fill="none" id="AddEntryToDoController-to-UserSession" style="stroke:#181818;stroke-width:0.6;stroke-dasharray:7.0,7.0;"/><polygon fill="#181818" points="132.696,545.052,131.8073,539.2099,131.0792,542.525,127.7641,541.7968,132.696,545.052" style="stroke:#181818;stroke-width:0.6;"/></g><!--link AddEntryToDoController to GreenSpaceMapper--><g id="link_AddEntryToDoController_GreenSpaceMapper"><path codeLine="160" d="M541.374,75.39 C638.682,95.67 827.4,135 827.4,135 C827.4,135 868.3606,166.0299 902.7766,192.1059 " fill="none" id="AddEntryToDoController-to-GreenSpaceMapper" style="stroke:#181818;stroke-width:0.6;stroke-dasharray:7.0,7.0;"/><polygon fill="#181818" points="905.646,194.28,902.7913,189.106,903.2548,192.4683,899.8925,192.9318,905.646,194.28" style="stroke:#181818;stroke-width:0.6;"/></g><!--link ApplicationSession to UserSession--><g id="link_ApplicationSession_UserSession"><path codeLine="162" d="M152.43,409.626 C150.744,445.854 147.816,508.5519 146.28,541.4379 " fill="none" id="ApplicationSession-to-UserSession" style="stroke:#181818;stroke-width:0.6;"/><polygon fill="#181818" points="146.112,545.034,148.7613,539.7519,146.252,542.0373,143.9666,539.5279,146.112,545.034" style="stroke:#181818;stroke-width:0.6;"/><text fill="#000000" font-family="sans-serif" font-size="7.8" lengthAdjust="spacing" textLength="43.2" x="148.8" y="496.817">userSession</text><text fill="#000000" font-family="sans-serif" font-size="7.8" lengthAdjust="spacing" textLength="4.2" x="141.6781" y="538.3163">1</text></g><!--link GreenSpaceRepository to GreenSpace--><g id="link_GreenSpaceRepository_GreenSpace"><path codeLine="164" d="M107.976,262.326 C102.582,275.304 97.8,286.8 97.8,286.8 C97.8,286.8 97.8,483 97.8,483 C97.8,483 206.6271,523.0019 271.4931,546.8459 " fill="none" id="GreenSpaceRepository-to-GreenSpace" style="stroke:#181818;stroke-width:0.6;"/><polygon fill="#181818" points="274.872,548.088,270.6316,543.9723,272.0562,547.0529,268.9755,548.4775,274.872,548.088" style="stroke:#181818;stroke-width:0.6;"/><text fill="#000000" font-family="sans-serif" font-size="7.8" lengthAdjust="spacing" textLength="4.2" x="101.689" y="275.8335">1</text><text fill="#000000" font-family="sans-serif" font-size="7.8" lengthAdjust="spacing" textLength="3" x="267.3017" y="544.1352">*</text></g><!--link ToDoList to Task--><g id="link_ToDoList_Task"><path codeLine="165" d="M338.712,251.106 C355.398,275.394 379.0397,309.8066 398.8517,338.6486 " fill="none" id="ToDoList-to-Task" style="stroke:#181818;stroke-width:0.6;"/><polygon fill="#181818" points="400.89,341.616,399.8108,335.8061,399.1914,339.1432,395.8543,338.5238,400.89,341.616" style="stroke:#181818;stroke-width:0.6;"/><text fill="#000000" font-family="sans-serif" font-size="7.8" lengthAdjust="spacing" textLength="4.2" x="336.9045" y="264.4032">1</text><text fill="#000000" font-family="sans-serif" font-size="7.8" lengthAdjust="spacing" textLength="3" x="394.7746" y="334.9419">*</text></g><!--link Task to GreenSpace--><g id="link_Task_GreenSpace"><path codeLine="167" d="M404.136,426.348 C387.6,453.456 367.8805,485.7766 350.6845,513.9706 " fill="none" id="Task-to-GreenSpace" style="stroke:#181818;stroke-width:0.6;"/><polygon fill="#181818" points="348.81,517.044,353.6708,513.6835,350.3721,514.4828,349.5729,511.1841,348.81,517.044" style="stroke:#181818;stroke-width:0.6;"/><text fill="#000000" font-family="sans-serif" font-size="7.8" lengthAdjust="spacing" textLength="3" x="398.3553" y="439.6638">*</text><text fill="#000000" font-family="sans-serif" font-size="7.8" lengthAdjust="spacing" textLength="4.2" x="347.0908" y="510.3671">1</text></g><!--link ToDoList to TaskMapper--><g id="link_ToDoList_TaskMapper"><path codeLine="169" d="M348.03,199.956 C377.838,171.042 422.202,127.998 422.202,127.998 C422.202,127.998 631.998,127.998 631.998,127.998 C631.998,127.998 681.4626,174.3289 711.9846,202.9189 " fill="none" id="ToDoList-to-TaskMapper" style="stroke:#181818;stroke-width:0.6;stroke-dasharray:7.0,7.0;"/><polygon fill="#181818" points="714.612,205.38,712.3116,199.9368,712.4225,203.3291,709.0302,203.44,714.612,205.38" style="stroke:#181818;stroke-width:0.6;"/></g><!--link TaskMapper to TaskDto--><g id="link_TaskMapper_TaskDto"><path codeLine="171" d="M748.914,245.79 C760.044,262.95 774.9632,285.9336 791.0492,310.7376 " fill="none" id="TaskMapper-to-TaskDto" style="stroke:#181818;stroke-width:0.6;stroke-dasharray:7.0,7.0;"/><polygon fill="#181818" points="793.008,313.758,792.0834,307.9215,791.3756,311.241,788.0561,310.5332,793.008,313.758" style="stroke:#181818;stroke-width:0.6;"/></g><!--link TaskMapper to Task--><g id="link_TaskMapper_Task"><path codeLine="172" d="M698.34,245.832 C671.052,259.98 639,276.6 639,276.6 C639,276.6 573.3989,310.0583 514.6649,340.0163 " fill="none" id="TaskMapper-to-Task" style="stroke:#181818;stroke-width:0.6;stroke-dasharray:7.0,7.0;"/><polygon fill="#181818" points="511.458,341.652,517.3589,341.3364,514.1304,340.2889,515.1779,337.0605,511.458,341.652" style="stroke:#181818;stroke-width:0.6;"/></g><!--link GreenSpaceMapper to GreenSpaceDto--><g id="link_GreenSpaceMapper_GreenSpaceDto"><path codeLine="174" d="M982.32,256.854 C1000.026,271.884 1017.6,286.8 1017.6,286.8 C1017.6,286.8 1044.5895,312.9799 1071.5115,339.0859 " fill="none" id="GreenSpaceMapper-to-GreenSpaceDto" style="stroke:#181818;stroke-width:0.6;stroke-dasharray:7.0,7.0;"/><polygon fill="#181818" points="1074.096,341.592,1071.8901,336.1099,1071.9423,339.5036,1068.5486,339.5558,1074.096,341.592" style="stroke:#181818;stroke-width:0.6;"/></g><!--link GreenSpaceMapper to GreenSpace--><g id="link_GreenSpaceMapper_GreenSpace"><path codeLine="175" d="M874.014,256.824 C849.138,267.378 827.4,276.6 827.4,276.6 C827.4,276.6 660,286.8 660,286.8 C660,286.8 602.4,483 602.4,483 C602.4,483 375.6,517.2 375.6,517.2 C375.6,517.2 373.8068,518.7202 367.3208,524.2342 " fill="none" id="GreenSpaceMapper-to-GreenSpace" style="stroke:#181818;stroke-width:0.6;stroke-dasharray:7.0,7.0;"/><polygon fill="#181818" points="364.578,526.566,370.2467,524.8969,366.8637,524.6229,367.1377,521.2398,364.578,526.566" style="stroke:#181818;stroke-width:0.6;"/></g><!--SRC=[hLRTJjim5BxtKrZSa8vsscwd2GarQAi4ObhB0vZaa7guTcIxOXtYtNUS9hKT9u4BUj4sFd_VT_xYS_F4PSqqsz6TaghOQhK3QlKUY9VKh7XY5QpjGG3LK5WcAn4gc2qhrJEN5NrameGImINOGmsqLkBW7iZvW51fgqXWLGXcp9MrcZ_iBQmA9TVy7z0lX9mBUBJKAgfvjRMqv0uELvAG5YIzNz4NGl7JEA5NPNajhJviLAxkLutWXJG_h-JLMoqLAYaXG8zQUvNM2sq_5oDgsInGgS3-q01oZH71z4Lh4CW3Ig-IyL25jG4ooynJRjKiPP2h7UEoXTKT_ePQ6MwLFhIaZxHEnnnCZymY4lPnhgJ1uYEw6VsMUXbWwW7qNRbStN1ZiuvBW6_8_cJjiHxnEYVVlSKbhNoUdUmjTGoe2iwYxAU6IGK1qorcgSvqAIEQNGgI4c2viqA3mxJ1WazrmfoQ962NKV_TzSEjAa547NvlGA_163T3_RP6DavyxPXEbobXiCRPnNKWsGxIKpVpmIcNbZ9acoeYMOtOKa5bTWsg0EoM6GysA4wSSKpQ65RBhHW0Mu8fDAzjbo2F6VxMJUBplMOzyP89a2NJ5CT5MtIJOoq3i0v7rWISXm7SW-lUkyTxNO4i3lCao5Izcn-G-ntDOpSzoZVg-VJ_5ag-tvqUV-9QJRmvj6lBxBw_B7uXIIJddxN2qJ1G-XF1f0oVbR6r2a-MRf-8u217ST2wxIAkQy6B9WDZtOgfjho8jrJSpCkzrY1jwo2BnoHOfRUihdil0f_iep1fejvQmScSs2me3P1PbM_kib7bMH3bgAeU_epqzY0u5w4P_FVi3Fy-sToDP214tr_6GtC_FliZyp-v0uwC8ZIP2pTlNCyRJ_FEQcpn7lFm8PlW94mdxiDMXUFumTl2luUTt_wav3vAAefYziNNFGJfb3b2z6AnI9RKIH3i6n9UCkZYChfqu1s4jwDEqWNXj0TE0niINmxfvykn2rzV4JNZUHXGw9gC3FjqqNfaT7YXIfYVVJqRlXWDAPwk5gFH8mhU6yAeukCcneINBXHQsYxgXFh09f_G3gydxsBIRi31VcXp4_X4pFiW0XdCYBDfR3-51I0dtg6ykM0SEzazBfAw4M_NDKa7sV-F-cVWE0GQYEAMV4E5_0S0]--></g></svg>