<?xml version="1.0" encoding="us-ascii" standalone="no"?><svg xmlns="http://www.w3.org/2000/svg" xmlns:xlink="http://www.w3.org/1999/xlink" contentStyleType="text/css" height="1073px" preserveAspectRatio="none" style="width:1758px;height:1073px;background:#FFFFFF;" version="1.1" viewBox="0 0 1758 1073" width="1758px" zoomAndPan="magnify"><defs/><g><!--class AddEntryToDoUI--><g id="elem_AddEntryToDoUI"><rect codeLine="11" fill="#F1F1F1" height="48" id="AddEntryToDoUI" rx="2.5" ry="2.5" style="stroke:#181818;stroke-width:0.5;" width="137" x="654.5" y="44"/><ellipse cx="669.5" cy="60" fill="#ADD1B2" rx="11" ry="11" style="stroke:#181818;stroke-width:1.0;"/><path d="M672.2656,55.875 Q672.4219,55.6563 672.6094,55.5469 Q672.7969,55.4375 673.0156,55.4375 Q673.3906,55.4375 673.625,55.7031 Q673.8594,55.9531 673.8594,56.5625 L673.8594,58.0156 Q673.8594,58.625 673.625,58.8906 Q673.3906,59.1563 673.0156,59.1563 Q672.6719,59.1563 672.4688,58.9531 Q672.2656,58.7656 672.1563,58.25 Q672.1094,57.8906 671.9219,57.7031 Q671.5938,57.3281 670.9844,57.1094 Q670.375,56.8906 669.75,56.8906 Q668.9844,56.8906 668.3438,57.2188 Q667.7188,57.5469 667.2188,58.2969 Q666.7344,59.0469 666.7344,60.0781 L666.7344,61.1719 Q666.7344,62.4063 667.625,63.2344 Q668.5156,64.0469 670.1094,64.0469 Q671.0469,64.0469 671.7031,63.7969 Q672.0938,63.6406 672.5156,63.2031 Q672.7813,62.9375 672.9219,62.8594 Q673.0781,62.7813 673.2813,62.7813 Q673.6094,62.7813 673.8594,63.0469 Q674.125,63.2969 674.125,63.6406 Q674.125,63.9844 673.7813,64.3906 Q673.2813,64.9688 672.4844,65.2969 Q671.4063,65.75 670.1094,65.75 Q668.5938,65.75 667.3906,65.125 Q666.4063,64.625 665.7188,63.5625 Q665.0313,62.4844 665.0313,61.2031 L665.0313,60.0469 Q665.0313,58.7188 665.6406,57.5781 Q666.2656,56.4219 667.3594,55.8125 Q668.4531,55.1875 669.6875,55.1875 Q670.4219,55.1875 671.0625,55.3594 Q671.7188,55.5156 672.2656,55.875 Z " fill="#000000"/><text fill="#000000" font-family="sans-serif" font-size="14" lengthAdjust="spacing" textLength="105" x="683.5" y="65.7969">AddEntryToDoUI</text><line style="stroke:#181818;stroke-width:0.5;" x1="655.5" x2="790.5" y1="76" y2="76"/><line style="stroke:#181818;stroke-width:0.5;" x1="655.5" x2="790.5" y1="84" y2="84"/></g><!--class AddEntryToDoController--><g id="elem_AddEntryToDoController"><rect codeLine="16" fill="#F1F1F1" height="122.4844" id="AddEntryToDoController" rx="2.5" ry="2.5" style="stroke:#181818;stroke-width:0.5;" width="188" x="840" y="7"/><ellipse cx="855.45" cy="23" fill="#ADD1B2" rx="11" ry="11" style="stroke:#181818;stroke-width:1.0;"/><path d="M858.2156,18.875 Q858.3719,18.6563 858.5594,18.5469 Q858.7469,18.4375 858.9656,18.4375 Q859.3406,18.4375 859.575,18.7031 Q859.8094,18.9531 859.8094,19.5625 L859.8094,21.0156 Q859.8094,21.625 859.575,21.8906 Q859.3406,22.1563 858.9656,22.1563 Q858.6219,22.1563 858.4188,21.9531 Q858.2156,21.7656 858.1063,21.25 Q858.0594,20.8906 857.8719,20.7031 Q857.5438,20.3281 856.9344,20.1094 Q856.325,19.8906 855.7,19.8906 Q854.9344,19.8906 854.2938,20.2188 Q853.6688,20.5469 853.1688,21.2969 Q852.6844,22.0469 852.6844,23.0781 L852.6844,24.1719 Q852.6844,25.4063 853.575,26.2344 Q854.4656,27.0469 856.0594,27.0469 Q856.9969,27.0469 857.6531,26.7969 Q858.0438,26.6406 858.4656,26.2031 Q858.7313,25.9375 858.8719,25.8594 Q859.0281,25.7813 859.2313,25.7813 Q859.5594,25.7813 859.8094,26.0469 Q860.075,26.2969 860.075,26.6406 Q860.075,26.9844 859.7313,27.3906 Q859.2313,27.9688 858.4344,28.2969 Q857.3563,28.75 856.0594,28.75 Q854.5438,28.75 853.3406,28.125 Q852.3563,27.625 851.6688,26.5625 Q850.9813,25.4844 850.9813,24.2031 L850.9813,23.0469 Q850.9813,21.7188 851.5906,20.5781 Q852.2156,19.4219 853.3094,18.8125 Q854.4031,18.1875 855.6375,18.1875 Q856.3719,18.1875 857.0125,18.3594 Q857.6688,18.5156 858.2156,18.875 Z " fill="#000000"/><text fill="#000000" font-family="sans-serif" font-size="14" lengthAdjust="spacing" textLength="155" x="869.55" y="28.7969">AddEntryToDoController</text><line style="stroke:#181818;stroke-width:0.5;" x1="841" x2="1027" y1="39" y2="39"/><line style="stroke:#181818;stroke-width:0.5;" x1="841" x2="1027" y1="47" y2="47"/><text fill="#000000" font-family="sans-serif" font-size="14" lengthAdjust="spacing" textLength="173" x="846" y="66.1074">+AddEntryToDoController()</text><text fill="#000000" font-family="sans-serif" font-size="14" lengthAdjust="spacing" textLength="125" x="846" y="84.7285">+getGreenSpaces()</text><text fill="#000000" font-family="sans-serif" font-size="14" lengthAdjust="spacing" textLength="176" x="846" y="103.3496">+getSelectedGreenSpace(i)</text><text fill="#000000" font-family="sans-serif" font-size="14" lengthAdjust="spacing" textLength="123" x="846" y="121.9707">+addEntry(taskDto)</text></g><!--class ApplicationSession--><g id="elem_ApplicationSession"><rect codeLine="24" fill="#F1F1F1" height="85.2422" id="ApplicationSession" rx="2.5" ry="2.5" style="stroke:#181818;stroke-width:0.5;" width="151" x="858.5" y="226.5"/><ellipse cx="873.5" cy="242.5" fill="#ADD1B2" rx="11" ry="11" style="stroke:#181818;stroke-width:1.0;"/><path d="M876.2656,238.375 Q876.4219,238.1563 876.6094,238.0469 Q876.7969,237.9375 877.0156,237.9375 Q877.3906,237.9375 877.625,238.2031 Q877.8594,238.4531 877.8594,239.0625 L877.8594,240.5156 Q877.8594,241.125 877.625,241.3906 Q877.3906,241.6563 877.0156,241.6563 Q876.6719,241.6563 876.4688,241.4531 Q876.2656,241.2656 876.1563,240.75 Q876.1094,240.3906 875.9219,240.2031 Q875.5938,239.8281 874.9844,239.6094 Q874.375,239.3906 873.75,239.3906 Q872.9844,239.3906 872.3438,239.7188 Q871.7188,240.0469 871.2188,240.7969 Q870.7344,241.5469 870.7344,242.5781 L870.7344,243.6719 Q870.7344,244.9063 871.625,245.7344 Q872.5156,246.5469 874.1094,246.5469 Q875.0469,246.5469 875.7031,246.2969 Q876.0938,246.1406 876.5156,245.7031 Q876.7813,245.4375 876.9219,245.3594 Q877.0781,245.2813 877.2813,245.2813 Q877.6094,245.2813 877.8594,245.5469 Q878.125,245.7969 878.125,246.1406 Q878.125,246.4844 877.7813,246.8906 Q877.2813,247.4688 876.4844,247.7969 Q875.4063,248.25 874.1094,248.25 Q872.5938,248.25 871.3906,247.625 Q870.4063,247.125 869.7188,246.0625 Q869.0313,244.9844 869.0313,243.7031 L869.0313,242.5469 Q869.0313,241.2188 869.6406,240.0781 Q870.2656,238.9219 871.3594,238.3125 Q872.4531,237.6875 873.6875,237.6875 Q874.4219,237.6875 875.0625,237.8594 Q875.7188,238.0156 876.2656,238.375 Z " fill="#000000"/><text fill="#000000" font-family="sans-serif" font-size="14" lengthAdjust="spacing" textLength="119" x="887.5" y="248.2969">ApplicationSession</text><line style="stroke:#181818;stroke-width:0.5;" x1="859.5" x2="1008.5" y1="258.5" y2="258.5"/><line style="stroke:#181818;stroke-width:0.5;" x1="859.5" x2="1008.5" y1="266.5" y2="266.5"/><text fill="#000000" font-family="sans-serif" font-size="14" lengthAdjust="spacing" textLength="128" x="864.5" y="285.6074">+static getInstance()</text><text fill="#000000" font-family="sans-serif" font-size="14" lengthAdjust="spacing" textLength="136" x="864.5" y="304.2285">+getCurrentSession()</text></g><!--class Repositories--><g id="elem_Repositories"><rect codeLine="30" fill="#F1F1F1" height="122.4844" id="Repositories" rx="2.5" ry="2.5" style="stroke:#181818;stroke-width:0.5;" width="198" x="1163" y="7"/><ellipse cx="1218.25" cy="23" fill="#ADD1B2" rx="11" ry="11" style="stroke:#181818;stroke-width:1.0;"/><path d="M1221.0156,18.875 Q1221.1719,18.6563 1221.3594,18.5469 Q1221.5469,18.4375 1221.7656,18.4375 Q1222.1406,18.4375 1222.375,18.7031 Q1222.6094,18.9531 1222.6094,19.5625 L1222.6094,21.0156 Q1222.6094,21.625 1222.375,21.8906 Q1222.1406,22.1563 1221.7656,22.1563 Q1221.4219,22.1563 1221.2188,21.9531 Q1221.0156,21.7656 1220.9063,21.25 Q1220.8594,20.8906 1220.6719,20.7031 Q1220.3438,20.3281 1219.7344,20.1094 Q1219.125,19.8906 1218.5,19.8906 Q1217.7344,19.8906 1217.0938,20.2188 Q1216.4688,20.5469 1215.9688,21.2969 Q1215.4844,22.0469 1215.4844,23.0781 L1215.4844,24.1719 Q1215.4844,25.4063 1216.375,26.2344 Q1217.2656,27.0469 1218.8594,27.0469 Q1219.7969,27.0469 1220.4531,26.7969 Q1220.8438,26.6406 1221.2656,26.2031 Q1221.5313,25.9375 1221.6719,25.8594 Q1221.8281,25.7813 1222.0313,25.7813 Q1222.3594,25.7813 1222.6094,26.0469 Q1222.875,26.2969 1222.875,26.6406 Q1222.875,26.9844 1222.5313,27.3906 Q1222.0313,27.9688 1221.2344,28.2969 Q1220.1563,28.75 1218.8594,28.75 Q1217.3438,28.75 1216.1406,28.125 Q1215.1563,27.625 1214.4688,26.5625 Q1213.7813,25.4844 1213.7813,24.2031 L1213.7813,23.0469 Q1213.7813,21.7188 1214.3906,20.5781 Q1215.0156,19.4219 1216.1094,18.8125 Q1217.2031,18.1875 1218.4375,18.1875 Q1219.1719,18.1875 1219.8125,18.3594 Q1220.4688,18.5156 1221.0156,18.875 Z " fill="#000000"/><text fill="#000000" font-family="sans-serif" font-size="14" lengthAdjust="spacing" textLength="79" x="1238.75" y="28.7969">Repositories</text><line style="stroke:#181818;stroke-width:0.5;" x1="1164" x2="1360" y1="39" y2="39"/><line style="stroke:#181818;stroke-width:0.5;" x1="1164" x2="1360" y1="47" y2="47"/><text fill="#000000" font-family="sans-serif" font-size="14" lengthAdjust="spacing" textLength="94" x="1169" y="66.1074">-Repositories()</text><text fill="#000000" font-family="sans-serif" font-size="14" lengthAdjust="spacing" textLength="182" x="1169" y="84.7285">+getInstance() : Repositories</text><text fill="#000000" font-family="sans-serif" font-size="14" lengthAdjust="spacing" textLength="186" x="1169" y="103.3496">+getGreenSpaceRepository()</text><text fill="#000000" font-family="sans-serif" font-size="14" lengthAdjust="spacing" textLength="95" x="1169" y="121.9707">+getToDoList()</text></g><!--class UserSession--><g id="elem_UserSession"><rect codeLine="38" fill="#F1F1F1" height="66.6211" id="UserSession" rx="2.5" ry="2.5" style="stroke:#181818;stroke-width:0.5;" width="113" x="809.5" y="455.5"/><ellipse cx="825.4" cy="471.5" fill="#ADD1B2" rx="11" ry="11" style="stroke:#181818;stroke-width:1.0;"/><path d="M828.1656,467.375 Q828.3219,467.1563 828.5094,467.0469 Q828.6969,466.9375 828.9156,466.9375 Q829.2906,466.9375 829.525,467.2031 Q829.7594,467.4531 829.7594,468.0625 L829.7594,469.5156 Q829.7594,470.125 829.525,470.3906 Q829.2906,470.6563 828.9156,470.6563 Q828.5719,470.6563 828.3688,470.4531 Q828.1656,470.2656 828.0563,469.75 Q828.0094,469.3906 827.8219,469.2031 Q827.4938,468.8281 826.8844,468.6094 Q826.275,468.3906 825.65,468.3906 Q824.8844,468.3906 824.2438,468.7188 Q823.6188,469.0469 823.1188,469.7969 Q822.6344,470.5469 822.6344,471.5781 L822.6344,472.6719 Q822.6344,473.9063 823.525,474.7344 Q824.4156,475.5469 826.0094,475.5469 Q826.9469,475.5469 827.6031,475.2969 Q827.9938,475.1406 828.4156,474.7031 Q828.6813,474.4375 828.8219,474.3594 Q828.9781,474.2813 829.1813,474.2813 Q829.5094,474.2813 829.7594,474.5469 Q830.025,474.7969 830.025,475.1406 Q830.025,475.4844 829.6813,475.8906 Q829.1813,476.4688 828.3844,476.7969 Q827.3063,477.25 826.0094,477.25 Q824.4938,477.25 823.2906,476.625 Q822.3063,476.125 821.6188,475.0625 Q820.9313,473.9844 820.9313,472.7031 L820.9313,471.5469 Q820.9313,470.2188 821.5406,469.0781 Q822.1656,467.9219 823.2594,467.3125 Q824.3531,466.6875 825.5875,466.6875 Q826.3219,466.6875 826.9625,466.8594 Q827.6188,467.0156 828.1656,467.375 Z " fill="#000000"/><text fill="#000000" font-family="sans-serif" font-size="14" lengthAdjust="spacing" textLength="79" x="839.6" y="477.2969">UserSession</text><line style="stroke:#181818;stroke-width:0.5;" x1="810.5" x2="921.5" y1="487.5" y2="487.5"/><line style="stroke:#181818;stroke-width:0.5;" x1="810.5" x2="921.5" y1="495.5" y2="495.5"/><text fill="#000000" font-family="sans-serif" font-size="14" lengthAdjust="spacing" textLength="101" x="815.5" y="514.6074">+getUserEmail()</text></g><!--class GreenSpaceRepository--><g id="elem_GreenSpaceRepository"><rect codeLine="43" fill="#F1F1F1" height="122.4844" id="GreenSpaceRepository" rx="2.5" ry="2.5" style="stroke:#181818;stroke-width:0.5;" width="316" x="1435" y="208"/><ellipse cx="1514.75" cy="224" fill="#ADD1B2" rx="11" ry="11" style="stroke:#181818;stroke-width:1.0;"/><path d="M1517.5156,219.875 Q1517.6719,219.6563 1517.8594,219.5469 Q1518.0469,219.4375 1518.2656,219.4375 Q1518.6406,219.4375 1518.875,219.7031 Q1519.1094,219.9531 1519.1094,220.5625 L1519.1094,222.0156 Q1519.1094,222.625 1518.875,222.8906 Q1518.6406,223.1563 1518.2656,223.1563 Q1517.9219,223.1563 1517.7188,222.9531 Q1517.5156,222.7656 1517.4063,222.25 Q1517.3594,221.8906 1517.1719,221.7031 Q1516.8438,221.3281 1516.2344,221.1094 Q1515.625,220.8906 1515,220.8906 Q1514.2344,220.8906 1513.5938,221.2188 Q1512.9688,221.5469 1512.4688,222.2969 Q1511.9844,223.0469 1511.9844,224.0781 L1511.9844,225.1719 Q1511.9844,226.4063 1512.875,227.2344 Q1513.7656,228.0469 1515.3594,228.0469 Q1516.2969,228.0469 1516.9531,227.7969 Q1517.3438,227.6406 1517.7656,227.2031 Q1518.0313,226.9375 1518.1719,226.8594 Q1518.3281,226.7813 1518.5313,226.7813 Q1518.8594,226.7813 1519.1094,227.0469 Q1519.375,227.2969 1519.375,227.6406 Q1519.375,227.9844 1519.0313,228.3906 Q1518.5313,228.9688 1517.7344,229.2969 Q1516.6563,229.75 1515.3594,229.75 Q1513.8438,229.75 1512.6406,229.125 Q1511.6563,228.625 1510.9688,227.5625 Q1510.2813,226.4844 1510.2813,225.2031 L1510.2813,224.0469 Q1510.2813,222.7188 1510.8906,221.5781 Q1511.5156,220.4219 1512.6094,219.8125 Q1513.7031,219.1875 1514.9375,219.1875 Q1515.6719,219.1875 1516.3125,219.3594 Q1516.9688,219.5156 1517.5156,219.875 Z " fill="#000000"/><text fill="#000000" font-family="sans-serif" font-size="14" lengthAdjust="spacing" textLength="148" x="1535.25" y="229.7969">GreenSpaceRepository</text><line style="stroke:#181818;stroke-width:0.5;" x1="1436" x2="1750" y1="240" y2="240"/><text fill="#000000" font-family="sans-serif" font-size="14" lengthAdjust="spacing" textLength="233" x="1441" y="259.1074">-List&lt;GreenSpace&gt; greenSpacesList</text><text fill="#000000" font-family="sans-serif" font-size="14" lengthAdjust="spacing" textLength="304" x="1441" y="277.7285">-List&lt;GreenSpace&gt; associatedGreenSpacesList</text><line style="stroke:#181818;stroke-width:0.5;" x1="1436" x2="1750" y1="285.2422" y2="285.2422"/><text fill="#000000" font-family="sans-serif" font-size="14" lengthAdjust="spacing" textLength="158" x="1441" y="304.3496">+getGreenSpaces(email)</text><text fill="#000000" font-family="sans-serif" font-size="14" lengthAdjust="spacing" textLength="176" x="1441" y="322.9707">+getSelectedGreenSpace(i)</text></g><!--class GreenSpace--><g id="elem_GreenSpace"><rect codeLine="51" fill="#F1F1F1" height="159.7266" id="GreenSpace" rx="2.5" ry="2.5" style="stroke:#181818;stroke-width:0.5;" width="149" x="920.5" y="907"/><ellipse cx="952.15" cy="923" fill="#ADD1B2" rx="11" ry="11" style="stroke:#181818;stroke-width:1.0;"/><path d="M954.9156,918.875 Q955.0719,918.6563 955.2594,918.5469 Q955.4469,918.4375 955.6656,918.4375 Q956.0406,918.4375 956.275,918.7031 Q956.5094,918.9531 956.5094,919.5625 L956.5094,921.0156 Q956.5094,921.625 956.275,921.8906 Q956.0406,922.1563 955.6656,922.1563 Q955.3219,922.1563 955.1188,921.9531 Q954.9156,921.7656 954.8063,921.25 Q954.7594,920.8906 954.5719,920.7031 Q954.2438,920.3281 953.6344,920.1094 Q953.025,919.8906 952.4,919.8906 Q951.6344,919.8906 950.9938,920.2188 Q950.3688,920.5469 949.8688,921.2969 Q949.3844,922.0469 949.3844,923.0781 L949.3844,924.1719 Q949.3844,925.4063 950.275,926.2344 Q951.1656,927.0469 952.7594,927.0469 Q953.6969,927.0469 954.3531,926.7969 Q954.7438,926.6406 955.1656,926.2031 Q955.4313,925.9375 955.5719,925.8594 Q955.7281,925.7813 955.9313,925.7813 Q956.2594,925.7813 956.5094,926.0469 Q956.775,926.2969 956.775,926.6406 Q956.775,926.9844 956.4313,927.3906 Q955.9313,927.9688 955.1344,928.2969 Q954.0563,928.75 952.7594,928.75 Q951.2438,928.75 950.0406,928.125 Q949.0563,927.625 948.3688,926.5625 Q947.6813,925.4844 947.6813,924.2031 L947.6813,923.0469 Q947.6813,921.7188 948.2906,920.5781 Q948.9156,919.4219 950.0094,918.8125 Q951.1031,918.1875 952.3375,918.1875 Q953.0719,918.1875 953.7125,918.3594 Q954.3688,918.5156 954.9156,918.875 Z " fill="#000000"/><text fill="#000000" font-family="sans-serif" font-size="14" lengthAdjust="spacing" textLength="80" x="969.85" y="928.7969">GreenSpace</text><line style="stroke:#181818;stroke-width:0.5;" x1="921.5" x2="1068.5" y1="939" y2="939"/><text fill="#000000" font-family="sans-serif" font-size="14" lengthAdjust="spacing" textLength="81" x="926.5" y="958.1074">-String name</text><text fill="#000000" font-family="sans-serif" font-size="14" lengthAdjust="spacing" textLength="73" x="926.5" y="976.7285">-String type</text><text fill="#000000" font-family="sans-serif" font-size="14" lengthAdjust="spacing" textLength="53" x="926.5" y="995.3496">-int area</text><text fill="#000000" font-family="sans-serif" font-size="14" lengthAdjust="spacing" textLength="97" x="926.5" y="1013.9707">-String address</text><text fill="#000000" font-family="sans-serif" font-size="14" lengthAdjust="spacing" textLength="106" x="926.5" y="1032.5918">-String gsmEmail</text><line style="stroke:#181818;stroke-width:0.5;" x1="921.5" x2="1068.5" y1="1040.1055" y2="1040.1055"/><text fill="#000000" font-family="sans-serif" font-size="14" lengthAdjust="spacing" textLength="137" x="926.5" y="1059.2129">+hasUserEmail(email)</text></g><!--class GreenSpaceMapper--><g id="elem_GreenSpaceMapper"><rect codeLine="61" fill="#F1F1F1" height="103.8633" id="GreenSpaceMapper" rx="2.5" ry="2.5" style="stroke:#181818;stroke-width:0.5;" width="360" x="246" y="217"/><ellipse cx="357.75" cy="233" fill="#ADD1B2" rx="11" ry="11" style="stroke:#181818;stroke-width:1.0;"/><path d="M360.5156,228.875 Q360.6719,228.6563 360.8594,228.5469 Q361.0469,228.4375 361.2656,228.4375 Q361.6406,228.4375 361.875,228.7031 Q362.1094,228.9531 362.1094,229.5625 L362.1094,231.0156 Q362.1094,231.625 361.875,231.8906 Q361.6406,232.1563 361.2656,232.1563 Q360.9219,232.1563 360.7188,231.9531 Q360.5156,231.7656 360.4063,231.25 Q360.3594,230.8906 360.1719,230.7031 Q359.8438,230.3281 359.2344,230.1094 Q358.625,229.8906 358,229.8906 Q357.2344,229.8906 356.5938,230.2188 Q355.9688,230.5469 355.4688,231.2969 Q354.9844,232.0469 354.9844,233.0781 L354.9844,234.1719 Q354.9844,235.4063 355.875,236.2344 Q356.7656,237.0469 358.3594,237.0469 Q359.2969,237.0469 359.9531,236.7969 Q360.3438,236.6406 360.7656,236.2031 Q361.0313,235.9375 361.1719,235.8594 Q361.3281,235.7813 361.5313,235.7813 Q361.8594,235.7813 362.1094,236.0469 Q362.375,236.2969 362.375,236.6406 Q362.375,236.9844 362.0313,237.3906 Q361.5313,237.9688 360.7344,238.2969 Q359.6563,238.75 358.3594,238.75 Q356.8438,238.75 355.6406,238.125 Q354.6563,237.625 353.9688,236.5625 Q353.2813,235.4844 353.2813,234.2031 L353.2813,233.0469 Q353.2813,231.7188 353.8906,230.5781 Q354.5156,229.4219 355.6094,228.8125 Q356.7031,228.1875 357.9375,228.1875 Q358.6719,228.1875 359.3125,228.3594 Q359.9688,228.5156 360.5156,228.875 Z " fill="#000000"/><text fill="#000000" font-family="sans-serif" font-size="14" lengthAdjust="spacing" textLength="128" x="378.25" y="238.7969">GreenSpaceMapper</text><line style="stroke:#181818;stroke-width:0.5;" x1="247" x2="605" y1="249" y2="249"/><text fill="#000000" font-family="sans-serif" font-size="14" lengthAdjust="spacing" textLength="348" x="252" y="268.1074">-List&lt;GreenSpaceDto&gt; associatedGreenSpacesListDto</text><line style="stroke:#181818;stroke-width:0.5;" x1="247" x2="605" y1="275.6211" y2="275.6211"/><text fill="#000000" font-family="sans-serif" font-size="14" lengthAdjust="spacing" textLength="237" x="252" y="294.7285">+toDTO(associatedGreenSpacesList)</text><text fill="#000000" font-family="sans-serif" font-size="14" lengthAdjust="spacing" textLength="76" x="252" y="313.3496">-toDTO(obj)</text></g><!--class GreenSpaceDto--><g id="elem_GreenSpaceDto"><rect codeLine="68" fill="#F1F1F1" height="159.7266" id="GreenSpaceDto" rx="2.5" ry="2.5" style="stroke:#181818;stroke-width:0.5;" width="366" x="7" y="409"/><ellipse cx="134.75" cy="425" fill="#ADD1B2" rx="11" ry="11" style="stroke:#181818;stroke-width:1.0;"/><path d="M137.5156,420.875 Q137.6719,420.6563 137.8594,420.5469 Q138.0469,420.4375 138.2656,420.4375 Q138.6406,420.4375 138.875,420.7031 Q139.1094,420.9531 139.1094,421.5625 L139.1094,423.0156 Q139.1094,423.625 138.875,423.8906 Q138.6406,424.1563 138.2656,424.1563 Q137.9219,424.1563 137.7188,423.9531 Q137.5156,423.7656 137.4063,423.25 Q137.3594,422.8906 137.1719,422.7031 Q136.8438,422.3281 136.2344,422.1094 Q135.625,421.8906 135,421.8906 Q134.2344,421.8906 133.5938,422.2188 Q132.9688,422.5469 132.4688,423.2969 Q131.9844,424.0469 131.9844,425.0781 L131.9844,426.1719 Q131.9844,427.4063 132.875,428.2344 Q133.7656,429.0469 135.3594,429.0469 Q136.2969,429.0469 136.9531,428.7969 Q137.3438,428.6406 137.7656,428.2031 Q138.0313,427.9375 138.1719,427.8594 Q138.3281,427.7813 138.5313,427.7813 Q138.8594,427.7813 139.1094,428.0469 Q139.375,428.2969 139.375,428.6406 Q139.375,428.9844 139.0313,429.3906 Q138.5313,429.9688 137.7344,430.2969 Q136.6563,430.75 135.3594,430.75 Q133.8438,430.75 132.6406,430.125 Q131.6563,429.625 130.9688,428.5625 Q130.2813,427.4844 130.2813,426.2031 L130.2813,425.0469 Q130.2813,423.7188 130.8906,422.5781 Q131.5156,421.4219 132.6094,420.8125 Q133.7031,420.1875 134.9375,420.1875 Q135.6719,420.1875 136.3125,420.3594 Q136.9688,420.5156 137.5156,420.875 Z " fill="#000000"/><text fill="#000000" font-family="sans-serif" font-size="14" lengthAdjust="spacing" textLength="102" x="155.25" y="430.7969">GreenSpaceDto</text><line style="stroke:#181818;stroke-width:0.5;" x1="8" x2="372" y1="441" y2="441"/><text fill="#000000" font-family="sans-serif" font-size="14" lengthAdjust="spacing" textLength="81" x="13" y="460.1074">-String name</text><text fill="#000000" font-family="sans-serif" font-size="14" lengthAdjust="spacing" textLength="73" x="13" y="478.7285">-String type</text><text fill="#000000" font-family="sans-serif" font-size="14" lengthAdjust="spacing" textLength="53" x="13" y="497.3496">-int area</text><text fill="#000000" font-family="sans-serif" font-size="14" lengthAdjust="spacing" textLength="97" x="13" y="515.9707">-String address</text><text fill="#000000" font-family="sans-serif" font-size="14" lengthAdjust="spacing" textLength="106" x="13" y="534.5918">-String gsmEmail</text><line style="stroke:#181818;stroke-width:0.5;" x1="8" x2="372" y1="542.1055" y2="542.1055"/><text fill="#000000" font-family="sans-serif" font-size="14" lengthAdjust="spacing" textLength="354" x="13" y="561.2129">+GreenSpaceDto(name, type, area, address, gsmEmail)</text></g><!--class ToDoList--><g id="elem_ToDoList"><rect codeLine="78" fill="#F1F1F1" height="85.2422" id="ToDoList" rx="2.5" ry="2.5" style="stroke:#181818;stroke-width:0.5;" width="276" x="1124" y="226.5"/><ellipse cx="1229.25" cy="242.5" fill="#ADD1B2" rx="11" ry="11" style="stroke:#181818;stroke-width:1.0;"/><path d="M1232.0156,238.375 Q1232.1719,238.1563 1232.3594,238.0469 Q1232.5469,237.9375 1232.7656,237.9375 Q1233.1406,237.9375 1233.375,238.2031 Q1233.6094,238.4531 1233.6094,239.0625 L1233.6094,240.5156 Q1233.6094,241.125 1233.375,241.3906 Q1233.1406,241.6563 1232.7656,241.6563 Q1232.4219,241.6563 1232.2188,241.4531 Q1232.0156,241.2656 1231.9063,240.75 Q1231.8594,240.3906 1231.6719,240.2031 Q1231.3438,239.8281 1230.7344,239.6094 Q1230.125,239.3906 1229.5,239.3906 Q1228.7344,239.3906 1228.0938,239.7188 Q1227.4688,240.0469 1226.9688,240.7969 Q1226.4844,241.5469 1226.4844,242.5781 L1226.4844,243.6719 Q1226.4844,244.9063 1227.375,245.7344 Q1228.2656,246.5469 1229.8594,246.5469 Q1230.7969,246.5469 1231.4531,246.2969 Q1231.8438,246.1406 1232.2656,245.7031 Q1232.5313,245.4375 1232.6719,245.3594 Q1232.8281,245.2813 1233.0313,245.2813 Q1233.3594,245.2813 1233.6094,245.5469 Q1233.875,245.7969 1233.875,246.1406 Q1233.875,246.4844 1233.5313,246.8906 Q1233.0313,247.4688 1232.2344,247.7969 Q1231.1563,248.25 1229.8594,248.25 Q1228.3438,248.25 1227.1406,247.625 Q1226.1563,247.125 1225.4688,246.0625 Q1224.7813,244.9844 1224.7813,243.7031 L1224.7813,242.5469 Q1224.7813,241.2188 1225.3906,240.0781 Q1226.0156,238.9219 1227.1094,238.3125 Q1228.2031,237.6875 1229.4375,237.6875 Q1230.1719,237.6875 1230.8125,237.8594 Q1231.4688,238.0156 1232.0156,238.375 Z " fill="#000000"/><text fill="#000000" font-family="sans-serif" font-size="14" lengthAdjust="spacing" textLength="57" x="1249.75" y="248.2969">ToDoList</text><line style="stroke:#181818;stroke-width:0.5;" x1="1125" x2="1399" y1="258.5" y2="258.5"/><line style="stroke:#181818;stroke-width:0.5;" x1="1125" x2="1399" y1="266.5" y2="266.5"/><text fill="#000000" font-family="sans-serif" font-size="14" lengthAdjust="spacing" textLength="118" x="1130" y="285.6074">-add(createdTask)</text><text fill="#000000" font-family="sans-serif" font-size="14" lengthAdjust="spacing" textLength="264" x="1130" y="304.2285">+addEntry(taskDto, selectedGreenSpace)</text></g><!--class Task--><g id="elem_Task"><rect codeLine="84" fill="#F1F1F1" height="178.3477" id="Task" rx="2.5" ry="2.5" style="stroke:#181818;stroke-width:0.5;" width="540" x="1076" y="649"/><ellipse cx="1326.25" cy="665" fill="#ADD1B2" rx="11" ry="11" style="stroke:#181818;stroke-width:1.0;"/><path d="M1329.0156,660.875 Q1329.1719,660.6563 1329.3594,660.5469 Q1329.5469,660.4375 1329.7656,660.4375 Q1330.1406,660.4375 1330.375,660.7031 Q1330.6094,660.9531 1330.6094,661.5625 L1330.6094,663.0156 Q1330.6094,663.625 1330.375,663.8906 Q1330.1406,664.1563 1329.7656,664.1563 Q1329.4219,664.1563 1329.2188,663.9531 Q1329.0156,663.7656 1328.9063,663.25 Q1328.8594,662.8906 1328.6719,662.7031 Q1328.3438,662.3281 1327.7344,662.1094 Q1327.125,661.8906 1326.5,661.8906 Q1325.7344,661.8906 1325.0938,662.2188 Q1324.4688,662.5469 1323.9688,663.2969 Q1323.4844,664.0469 1323.4844,665.0781 L1323.4844,666.1719 Q1323.4844,667.4063 1324.375,668.2344 Q1325.2656,669.0469 1326.8594,669.0469 Q1327.7969,669.0469 1328.4531,668.7969 Q1328.8438,668.6406 1329.2656,668.2031 Q1329.5313,667.9375 1329.6719,667.8594 Q1329.8281,667.7813 1330.0313,667.7813 Q1330.3594,667.7813 1330.6094,668.0469 Q1330.875,668.2969 1330.875,668.6406 Q1330.875,668.9844 1330.5313,669.3906 Q1330.0313,669.9688 1329.2344,670.2969 Q1328.1563,670.75 1326.8594,670.75 Q1325.3438,670.75 1324.1406,670.125 Q1323.1563,669.625 1322.4688,668.5625 Q1321.7813,667.4844 1321.7813,666.2031 L1321.7813,665.0469 Q1321.7813,663.7188 1322.3906,662.5781 Q1323.0156,661.4219 1324.1094,660.8125 Q1325.2031,660.1875 1326.4375,660.1875 Q1327.1719,660.1875 1327.8125,660.3594 Q1328.4688,660.5156 1329.0156,660.875 Z " fill="#000000"/><text fill="#000000" font-family="sans-serif" font-size="14" lengthAdjust="spacing" textLength="31" x="1346.75" y="670.7969">Task</text><line style="stroke:#181818;stroke-width:0.5;" x1="1077" x2="1615" y1="681" y2="681"/><text fill="#000000" font-family="sans-serif" font-size="14" lengthAdjust="spacing" textLength="68" x="1082" y="700.1074">-String title</text><text fill="#000000" font-family="sans-serif" font-size="14" lengthAdjust="spacing" textLength="115" x="1082" y="718.7285">-String description</text><text fill="#000000" font-family="sans-serif" font-size="14" lengthAdjust="spacing" textLength="158" x="1082" y="737.3496">-String degreeOfUrgency</text><text fill="#000000" font-family="sans-serif" font-size="14" lengthAdjust="spacing" textLength="135" x="1082" y="755.9707">-int expectedDuration</text><text fill="#000000" font-family="sans-serif" font-size="14" lengthAdjust="spacing" textLength="84" x="1082" y="774.5918">-String status</text><text fill="#000000" font-family="sans-serif" font-size="14" lengthAdjust="spacing" textLength="144" x="1082" y="793.2129">-Calendar startingDate</text><line style="stroke:#181818;stroke-width:0.5;" x1="1077" x2="1615" y1="800.7266" y2="800.7266"/><text fill="#000000" font-family="sans-serif" font-size="14" lengthAdjust="spacing" textLength="528" x="1082" y="819.834">+Task(title, description, degreeOfUrgency, expectedDuration, selectedGreenSpace)</text></g><!--class TaskMapper--><g id="elem_TaskMapper"><rect codeLine="95" fill="#F1F1F1" height="66.6211" id="TaskMapper" rx="2.5" ry="2.5" style="stroke:#181818;stroke-width:0.5;" width="269" x="1023.5" y="455.5"/><ellipse cx="1114.25" cy="471.5" fill="#ADD1B2" rx="11" ry="11" style="stroke:#181818;stroke-width:1.0;"/><path d="M1117.0156,467.375 Q1117.1719,467.1563 1117.3594,467.0469 Q1117.5469,466.9375 1117.7656,466.9375 Q1118.1406,466.9375 1118.375,467.2031 Q1118.6094,467.4531 1118.6094,468.0625 L1118.6094,469.5156 Q1118.6094,470.125 1118.375,470.3906 Q1118.1406,470.6563 1117.7656,470.6563 Q1117.4219,470.6563 1117.2188,470.4531 Q1117.0156,470.2656 1116.9063,469.75 Q1116.8594,469.3906 1116.6719,469.2031 Q1116.3438,468.8281 1115.7344,468.6094 Q1115.125,468.3906 1114.5,468.3906 Q1113.7344,468.3906 1113.0938,468.7188 Q1112.4688,469.0469 1111.9688,469.7969 Q1111.4844,470.5469 1111.4844,471.5781 L1111.4844,472.6719 Q1111.4844,473.9063 1112.375,474.7344 Q1113.2656,475.5469 1114.8594,475.5469 Q1115.7969,475.5469 1116.4531,475.2969 Q1116.8438,475.1406 1117.2656,474.7031 Q1117.5313,474.4375 1117.6719,474.3594 Q1117.8281,474.2813 1118.0313,474.2813 Q1118.3594,474.2813 1118.6094,474.5469 Q1118.875,474.7969 1118.875,475.1406 Q1118.875,475.4844 1118.5313,475.8906 Q1118.0313,476.4688 1117.2344,476.7969 Q1116.1563,477.25 1114.8594,477.25 Q1113.3438,477.25 1112.1406,476.625 Q1111.1563,476.125 1110.4688,475.0625 Q1109.7813,473.9844 1109.7813,472.7031 L1109.7813,471.5469 Q1109.7813,470.2188 1110.3906,469.0781 Q1111.0156,467.9219 1112.1094,467.3125 Q1113.2031,466.6875 1114.4375,466.6875 Q1115.1719,466.6875 1115.8125,466.8594 Q1116.4688,467.0156 1117.0156,467.375 Z " fill="#000000"/><text fill="#000000" font-family="sans-serif" font-size="14" lengthAdjust="spacing" textLength="79" x="1134.75" y="477.2969">TaskMapper</text><line style="stroke:#181818;stroke-width:0.5;" x1="1024.5" x2="1291.5" y1="487.5" y2="487.5"/><line style="stroke:#181818;stroke-width:0.5;" x1="1024.5" x2="1291.5" y1="495.5" y2="495.5"/><text fill="#000000" font-family="sans-serif" font-size="14" lengthAdjust="spacing" textLength="257" x="1029.5" y="514.6074">+toModel(taskDto, selectedGreenSpace)</text></g><!--class TaskDto--><g id="elem_TaskDto"><rect codeLine="100" fill="#F1F1F1" height="215.5898" id="TaskDto" rx="2.5" ry="2.5" style="stroke:#181818;stroke-width:0.5;" width="562" x="479" y="630"/><ellipse cx="729.25" cy="646" fill="#ADD1B2" rx="11" ry="11" style="stroke:#181818;stroke-width:1.0;"/><path d="M732.0156,641.875 Q732.1719,641.6563 732.3594,641.5469 Q732.5469,641.4375 732.7656,641.4375 Q733.1406,641.4375 733.375,641.7031 Q733.6094,641.9531 733.6094,642.5625 L733.6094,644.0156 Q733.6094,644.625 733.375,644.8906 Q733.1406,645.1563 732.7656,645.1563 Q732.4219,645.1563 732.2188,644.9531 Q732.0156,644.7656 731.9063,644.25 Q731.8594,643.8906 731.6719,643.7031 Q731.3438,643.3281 730.7344,643.1094 Q730.125,642.8906 729.5,642.8906 Q728.7344,642.8906 728.0938,643.2188 Q727.4688,643.5469 726.9688,644.2969 Q726.4844,645.0469 726.4844,646.0781 L726.4844,647.1719 Q726.4844,648.4063 727.375,649.2344 Q728.2656,650.0469 729.8594,650.0469 Q730.7969,650.0469 731.4531,649.7969 Q731.8438,649.6406 732.2656,649.2031 Q732.5313,648.9375 732.6719,648.8594 Q732.8281,648.7813 733.0313,648.7813 Q733.3594,648.7813 733.6094,649.0469 Q733.875,649.2969 733.875,649.6406 Q733.875,649.9844 733.5313,650.3906 Q733.0313,650.9688 732.2344,651.2969 Q731.1563,651.75 729.8594,651.75 Q728.3438,651.75 727.1406,651.125 Q726.1563,650.625 725.4688,649.5625 Q724.7813,648.4844 724.7813,647.2031 L724.7813,646.0469 Q724.7813,644.7188 725.3906,643.5781 Q726.0156,642.4219 727.1094,641.8125 Q728.2031,641.1875 729.4375,641.1875 Q730.1719,641.1875 730.8125,641.3594 Q731.4688,641.5156 732.0156,641.875 Z " fill="#000000"/><text fill="#000000" font-family="sans-serif" font-size="14" lengthAdjust="spacing" textLength="53" x="749.75" y="651.7969">TaskDto</text><line style="stroke:#181818;stroke-width:0.5;" x1="480" x2="1040" y1="662" y2="662"/><text fill="#000000" font-family="sans-serif" font-size="14" lengthAdjust="spacing" textLength="68" x="485" y="681.1074">-String title</text><text fill="#000000" font-family="sans-serif" font-size="14" lengthAdjust="spacing" textLength="115" x="485" y="699.7285">-String description</text><text fill="#000000" font-family="sans-serif" font-size="14" lengthAdjust="spacing" textLength="158" x="485" y="718.3496">-String degreeOfUrgency</text><text fill="#000000" font-family="sans-serif" font-size="14" lengthAdjust="spacing" textLength="135" x="485" y="736.9707">-int expectedDuration</text><line style="stroke:#181818;stroke-width:0.5;" x1="480" x2="1040" y1="744.4844" y2="744.4844"/><text fill="#000000" font-family="sans-serif" font-size="14" lengthAdjust="spacing" textLength="550" x="485" y="763.5918">+TaskDto(title, description, degreeOfUrgency, expectedDuration, selectedGreenSpace)</text><text fill="#000000" font-family="sans-serif" font-size="14" lengthAdjust="spacing" textLength="65" x="485" y="782.2129">+getTitle()</text><text fill="#000000" font-family="sans-serif" font-size="14" lengthAdjust="spacing" textLength="109" x="485" y="800.834">+getDescription()</text><text fill="#000000" font-family="sans-serif" font-size="14" lengthAdjust="spacing" textLength="152" x="485" y="819.4551">+getDegreeOfUrgency()</text><text fill="#000000" font-family="sans-serif" font-size="14" lengthAdjust="spacing" textLength="150" x="485" y="838.0762">+getExpectedDuration()</text></g><!--link Repositories to Repositories--><g id="link_Repositories_Repositories"><path codeLine="114" d="M1361.05,49.94 C1381.4,51.87 1396,57.89 1396,68 C1396,78.11 1387.3732,83.5635 1367.0232,85.4935 " fill="none" id="Repositories-to-Repositories" style="stroke:#181818;stroke-width:1.0;"/><polygon fill="#181818" points="1361.05,86.06,1370.3875,89.1924,1366.0277,85.5879,1369.6321,81.2281,1361.05,86.06" style="stroke:#181818;stroke-width:1.0;"/><text fill="#000000" font-family="sans-serif" font-size="13" lengthAdjust="spacing" textLength="49" x="1402" y="73.5283">instance</text></g><!--link ApplicationSession to ApplicationSession--><g id="link_ApplicationSession_ApplicationSession"><path codeLine="115" d="M1009.66,250.43 C1029.5,251.53 1044.5,257.72 1044.5,269 C1044.5,280.28 1035.4908,286.1378 1015.6508,287.2378 " fill="none" id="ApplicationSession-to-ApplicationSession" style="stroke:#181818;stroke-width:1.0;"/><polygon fill="#181818" points="1009.66,287.57,1018.8676,291.0656,1014.6523,287.2932,1018.4248,283.0779,1009.66,287.57" style="stroke:#181818;stroke-width:1.0;"/><text fill="#000000" font-family="sans-serif" font-size="13" lengthAdjust="spacing" textLength="49" x="1050.5" y="274.5283">instance</text></g><!--link AddEntryToDoUI to AddEntryToDoController--><g id="link_AddEntryToDoUI_AddEntryToDoController"><path codeLine="117" d="M791.59,68 C792.72,68 793.33,68 793.33,68 C793.33,68 813.45,68 833.86,68 " fill="none" id="AddEntryToDoUI-to-AddEntryToDoController" style="stroke:#181818;stroke-width:1.0;stroke-dasharray:7.0,7.0;"/><polygon fill="#181818" points="839.86,68,830.86,64,834.86,68,830.86,72,839.86,68" style="stroke:#181818;stroke-width:1.0;"/></g><!--link AddEntryToDoUI to GreenSpaceDto--><g id="link_AddEntryToDoUI_GreenSpaceDto"><path codeLine="118" d="M654.43,88.25 C518.53,126.42 228,208 228,208 C228,208 212.7764,320.1444 201.5464,402.9444 " fill="none" id="AddEntryToDoUI-to-GreenSpaceDto" style="stroke:#181818;stroke-width:1.0;stroke-dasharray:7.0,7.0;"/><polygon fill="#181818" points="200.74,408.89,205.9133,400.5092,201.412,403.9354,197.9859,399.4341,200.74,408.89" style="stroke:#181818;stroke-width:1.0;"/></g><!--link AddEntryToDoUI to TaskDto--><g id="link_AddEntryToDoUI_TaskDto"><path codeLine="119" d="M724.3,92.38 C728.97,176.84 744.8582,463.5892 753.7382,623.9392 " fill="none" id="AddEntryToDoUI-to-TaskDto" style="stroke:#181818;stroke-width:1.0;stroke-dasharray:7.0,7.0;"/><polygon fill="#181818" points="754.07,629.93,757.5662,620.7226,753.7935,624.9376,749.5785,621.1649,754.07,629.93" style="stroke:#181818;stroke-width:1.0;"/></g><!--link AddEntryToDoController to Repositories--><g id="link_AddEntryToDoController_Repositories"><path codeLine="121" d="M1028.43,68 C1070.54,68 1114.16,68 1156.81,68 " fill="none" id="AddEntryToDoController-to-Repositories" style="stroke:#181818;stroke-width:1.0;stroke-dasharray:7.0,7.0;"/><polygon fill="#181818" points="1162.81,68,1153.81,64,1157.81,68,1153.81,72,1162.81,68" style="stroke:#181818;stroke-width:1.0;"/><text fill="#000000" font-family="sans-serif" font-size="13" lengthAdjust="spacing" textLength="67" x="1062" y="61.0283">repositories</text></g><!--link Repositories to GreenSpaceRepository--><g id="link_Repositories_GreenSpaceRepository"><path codeLine="123" d="M1361.31,128.71 C1403.01,153.78 1446.2874,179.799 1488.0474,204.899 " fill="none" id="Repositories-to-GreenSpaceRepository" style="stroke:#181818;stroke-width:1.0;"/><polygon fill="#181818" points="1493.19,207.99,1487.5368,199.9252,1488.9045,205.4142,1483.4155,206.7819,1493.19,207.99" style="stroke:#181818;stroke-width:1.0;"/><text fill="#000000" font-family="sans-serif" font-size="13" lengthAdjust="spacing" textLength="7" x="1473.5991" y="196.535">1</text></g><!--link Repositories to ToDoList--><g id="link_Repositories_ToDoList"><path codeLine="124" d="M1262,129.25 C1262,160.59 1262,192.13 1262,220.25 " fill="none" id="Repositories-to-ToDoList" style="stroke:#181818;stroke-width:1.0;"/><polygon fill="#181818" points="1262,226.25,1266,217.25,1262,221.25,1258,217.25,1262,226.25" style="stroke:#181818;stroke-width:1.0;"/><text fill="#000000" font-family="sans-serif" font-size="13" lengthAdjust="spacing" textLength="7" x="1254.4422" y="215.1142">1</text></g><!--link AddEntryToDoController to GreenSpaceRepository--><g id="link_AddEntryToDoController_GreenSpaceRepository"><path codeLine="126" d="M1028.27,98.78 C1130.42,131.06 1279,178 1279,178 C1279,178 1418,208 1418,208 C1418,208 1418.7334,208.2567 1429.1034,211.8067 " fill="none" id="AddEntryToDoController-to-GreenSpaceRepository" style="stroke:#181818;stroke-width:1.0;stroke-dasharray:7.0,7.0;"/><polygon fill="#181818" points="1434.78,213.75,1427.5606,207.0507,1430.0495,212.1306,1424.9696,214.6195,1434.78,213.75" style="stroke:#181818;stroke-width:1.0;"/><text fill="#000000" font-family="sans-serif" font-size="13" lengthAdjust="spacing" textLength="128" x="1280" y="174.0283">greenSpaceRepostory</text></g><!--link AddEntryToDoController to ToDoList--><g id="link_AddEntryToDoController_ToDoList"><path codeLine="127" d="M975.45,129.24 C992.79,154.45 1009,178 1009,178 C1009,178 1106,208 1106,208 C1106,208 1121.6595,214.0271 1148.4795,224.3371 " fill="none" id="AddEntryToDoController-to-ToDoList" style="stroke:#181818;stroke-width:1.0;stroke-dasharray:7.0,7.0;"/><polygon fill="#181818" points="1154.08,226.49,1147.1146,219.527,1149.413,224.6959,1144.2441,226.9943,1154.08,226.49" style="stroke:#181818;stroke-width:1.0;"/><text fill="#000000" font-family="sans-serif" font-size="13" lengthAdjust="spacing" textLength="48" x="1010" y="174.0283">toDoList</text></g><!--link AddEntryToDoController to ApplicationSession--><g id="link_AddEntryToDoController_ApplicationSession"><path codeLine="128" d="M934,129.25 C934,160.59 934,192.13 934,220.25 " fill="none" id="AddEntryToDoController-to-ApplicationSession" style="stroke:#181818;stroke-width:1.0;stroke-dasharray:7.0,7.0;"/><polygon fill="#181818" points="934,226.25,938,217.25,934,221.25,930,217.25,934,226.25" style="stroke:#181818;stroke-width:1.0;"/></g><!--link AddEntryToDoController to UserSession--><g id="link_AddEntryToDoController_UserSession"><path codeLine="129" d="M893.75,129.16 C868.62,166.73 841,208 841,208 C841,208 841,330 841,330 C841,330 852.5626,403.0537 859.8826,449.3337 " fill="none" id="AddEntryToDoController-to-UserSession" style="stroke:#181818;stroke-width:1.0;stroke-dasharray:7.0,7.0;"/><polygon fill="#181818" points="860.82,455.26,863.3649,445.7456,860.0389,450.3214,855.4631,446.9954,860.82,455.26" style="stroke:#181818;stroke-width:1.0;"/></g><!--link AddEntryToDoController to GreenSpaceMapper--><g id="link_AddEntryToDoController_GreenSpaceMapper"><path codeLine="130" d="M839.9,114.17 C822.14,122.69 809,129 809,129 C809,129 681.6101,175.2332 572.3501,214.8832 " fill="none" id="AddEntryToDoController-to-GreenSpaceMapper" style="stroke:#181818;stroke-width:1.0;stroke-dasharray:7.0,7.0;"/><polygon fill="#181818" points="566.71,216.93,576.5347,217.6199,571.4101,215.2244,573.8056,210.0998,566.71,216.93" style="stroke:#181818;stroke-width:1.0;"/></g><!--link ApplicationSession to UserSession--><g id="link_ApplicationSession_UserSession"><path codeLine="132" d="M921.05,311.52 C908.03,353.27 889.9973,411.0824 878.0273,449.4424 " fill="none" id="ApplicationSession-to-UserSession" style="stroke:#181818;stroke-width:1.0;"/><polygon fill="#181818" points="876.24,455.17,882.7393,447.7701,877.7294,450.397,875.1025,445.3871,876.24,455.17" style="stroke:#181818;stroke-width:1.0;"/><text fill="#000000" font-family="sans-serif" font-size="13" lengthAdjust="spacing" textLength="72" x="905" y="375.0283">userSession</text><text fill="#000000" font-family="sans-serif" font-size="13" lengthAdjust="spacing" textLength="7" x="870.5248" y="444.193">1</text></g><!--link GreenSpaceRepository to GreenSpace--><g id="link_GreenSpaceRepository_GreenSpace"><path codeLine="134" d="M1599.86,330.26 C1611.53,432.74 1634,630 1634,630 C1634,630 1634,846 1634,846 C1634,846 1243.971,931.4559 1075.411,968.3859 " fill="none" id="GreenSpaceRepository-to-GreenSpace" style="stroke:#181818;stroke-width:1.0;"/><polygon fill="#181818" points="1069.55,969.67,1079.1975,971.6512,1074.4342,968.5999,1077.4854,963.8365,1069.55,969.67" style="stroke:#181818;stroke-width:1.0;"/><text fill="#000000" font-family="sans-serif" font-size="13" lengthAdjust="spacing" textLength="7" x="1593.2485" y="352.3431">1</text><text fill="#000000" font-family="sans-serif" font-size="13" lengthAdjust="spacing" textLength="5" x="1077.4958" y="964.0637">*</text></g><!--link ToDoList to Task--><g id="link_ToDoList_Task"><path codeLine="135" d="M1276.4,311.7 C1290.54,352.65 1310,409 1310,409 C1310,409 1324.985,545.5559 1335.655,642.7059 " fill="none" id="ToDoList-to-Task" style="stroke:#181818;stroke-width:1.0;"/><polygon fill="#181818" points="1336.31,648.67,1339.3035,639.2871,1335.7641,643.6999,1331.3513,640.1605,1336.31,648.67" style="stroke:#181818;stroke-width:1.0;"/><text fill="#000000" font-family="sans-serif" font-size="13" lengthAdjust="spacing" textLength="7" x="1271.1372" y="333.8922">1</text><text fill="#000000" font-family="sans-serif" font-size="13" lengthAdjust="spacing" textLength="5" x="1330.3005" y="637.5944">*</text></g><!--link Task to GreenSpace--><g id="link_Task_GreenSpace"><path codeLine="137" d="M1220.77,827.13 C1170.17,862.73 1118.3868,899.167 1074.4768,930.067 " fill="none" id="Task-to-GreenSpace" style="stroke:#181818;stroke-width:1.0;"/><polygon fill="#181818" points="1069.57,933.52,1079.2322,931.6117,1073.659,930.6425,1074.6282,925.0693,1069.57,933.52" style="stroke:#181818;stroke-width:1.0;"/><text fill="#000000" font-family="sans-serif" font-size="13" lengthAdjust="spacing" textLength="5" x="1205.1924" y="849.241">*</text><text fill="#000000" font-family="sans-serif" font-size="13" lengthAdjust="spacing" textLength="7" x="1077.621" y="924.1857">1</text></g><!--link ToDoList to TaskMapper--><g id="link_ToDoList_TaskMapper"><path codeLine="139" d="M1242.19,311.52 C1222.27,353.27 1194.5434,411.3947 1176.2434,449.7547 " fill="none" id="ToDoList-to-TaskMapper" style="stroke:#181818;stroke-width:1.0;stroke-dasharray:7.0,7.0;"/><polygon fill="#181818" points="1173.66,455.17,1181.1454,448.7693,1175.8129,450.6572,1173.9249,445.3247,1173.66,455.17" style="stroke:#181818;stroke-width:1.0;"/></g><!--link TaskMapper to TaskDto--><g id="link_TaskMapper_TaskDto"><path codeLine="141" d="M1105.56,522.54 C1061.23,550.05 1000.228,587.9161 937.678,626.7361 " fill="none" id="TaskMapper-to-TaskDto" style="stroke:#181818;stroke-width:1.0;stroke-dasharray:7.0,7.0;"/><polygon fill="#181818" points="932.58,629.9,942.3363,628.5528,936.8283,627.2634,938.1177,621.7554,932.58,629.9" style="stroke:#181818;stroke-width:1.0;"/></g><!--link TaskMapper to Task--><g id="link_TaskMapper_Task"><path codeLine="142" d="M1182.77,522.54 C1207.15,554.57 1241.8363,600.1455 1275.2163,644.0055 " fill="none" id="TaskMapper-to-Task" style="stroke:#181818;stroke-width:1.0;stroke-dasharray:7.0,7.0;"/><polygon fill="#181818" points="1278.85,648.78,1276.5825,639.1957,1275.8219,644.8012,1270.2164,644.0407,1278.85,648.78" style="stroke:#181818;stroke-width:1.0;"/></g><!--link TaskDto to GreenSpace--><g id="link_TaskDto_GreenSpace"><path codeLine="143" d="M862.05,846.26 C881.62,866.83 897.6336,883.6637 916.1536,903.1237 " fill="none" id="TaskDto-to-GreenSpace" style="stroke:#181818;stroke-width:1.0;"/><polygon fill="#181818" points="920.29,907.47,916.983,898.1929,916.843,903.8481,911.1879,903.7081,920.29,907.47" style="stroke:#181818;stroke-width:1.0;"/><text fill="#000000" font-family="sans-serif" font-size="13" lengthAdjust="spacing" textLength="5" x="863.4274" y="867.7907">*</text><text fill="#000000" font-family="sans-serif" font-size="13" lengthAdjust="spacing" textLength="7" x="905.5912" y="895.8606">1</text></g><!--link GreenSpaceMapper to GreenSpaceDto--><g id="link_GreenSpaceMapper_GreenSpaceDto"><path codeLine="145" d="M370.67,321.11 C342.47,347.16 311.948,375.3595 280.338,404.5495 " fill="none" id="GreenSpaceMapper-to-GreenSpaceDto" style="stroke:#181818;stroke-width:1.0;stroke-dasharray:7.0,7.0;"/><polygon fill="#181818" points="275.93,408.62,285.2557,405.4529,279.6033,405.2279,279.8283,399.5755,275.93,408.62" style="stroke:#181818;stroke-width:1.0;"/></g><!--link GreenSpaceMapper to GreenSpace--><g id="link_GreenSpaceMapper_GreenSpace"><path codeLine="146" d="M429.11,321.12 C437.67,462.08 461,846 461,846 C461,846 767.8161,926.4384 914.6661,964.9384 " fill="none" id="GreenSpaceMapper-to-GreenSpace" style="stroke:#181818;stroke-width:1.0;stroke-dasharray:7.0,7.0;"/><polygon fill="#181818" points="920.47,966.46,912.7786,960.3084,915.6335,965.192,910.7498,968.0468,920.47,966.46" style="stroke:#181818;stroke-width:1.0;"/></g><!--SRC=[lLR1Rjim3BthAuHUwgxki5s7eK3H54E15GMMzWDKctMqAf8XATYoOVy-ofLjofRJ3jYMG-2GZu-F54tbs3r9tGehjdnhjAasrco1Uxi3DdfQKJs91jP-hu1RgBpGZQ80jn6r-IPrmn-5SjIZf0Q_Ru6tHkt33tQSSHhh3IDHbHBENNXlvSFEmtLbz5h-0FwEiMC5ZvvxmwriDfxNCiYHHZFMnV2BkhxItkxlpChSNxEVZFtAkIuDFXcbm2A4u-TqmLsSH7S3_fC5q6ji1ZXgNeD23L2FxaBsRX592o_SqygR4oAdRPMiH12_1kT23RqKvz5S1UvhZSyQ6Kc-ovsre7qCAWZb5sYDazvO2IwIdIL6IZDIymzfPARWmR-d5A5LdwNpLCEz0pkj1w71VBKLKb5iZd_G7OW_ZeXptepj3xub61ARIehaGCQ0sK524FNYQMOa3qBNEAOu-Lfi8RM4qOuMgJqN5aGAmEcmsAhKsBXjrwWeQIFSsBieDgFcHhJjCCophk3a7MWCUcCoRrPtjyKYy2IoFyFCmzUib43tVtgJv2n2ah8ZBZk-ikSeXpYYjv_TGIg2Ymh3iEmxV5cNtk2Ikzc4K5f4JQltqgj9-JMuoigssrmJHnZpsyTxsu2kzgH5yBtjqgvsLipZmihOzTsw50fqBMomMe_k5LOLwma2YqvHILMKqypbBE4hAa-cC8pJZQb1_K7hChFp3xjtskVycmqPjsFWfEjoDRAdvYGFTLrDCZulJqQtDJyxJxOtBdCPDpkRNp41dR6I69RUeFpj-TB5EGKYCbq26K1_nYpF6R9DYh7qPffLVlJ-A7-Bv833Ax-OFIbXP4CPJMhkSXnWwLDXfE-p7e1d_WiSGDChzbMLnDSoEm-nDuGJDUz81fRjI8ZfOj_G0s13tTJVxKGMlhkVPxDpOsDSFoIzvF4vcP-CcKNVOevfFp8J-mA4_GO0]--></g></svg>