<?xml version="1.0" encoding="us-ascii" standalone="no"?><svg xmlns="http://www.w3.org/2000/svg" xmlns:xlink="http://www.w3.org/1999/xlink" contentStyleType="text/css" height="561px" preserveAspectRatio="none" style="width:963px;height:561px;background:#FFFFFF;" version="1.1" viewBox="0 0 963 561" width="963px" zoomAndPan="magnify"><defs/><g><rect fill="#FFFFFF" height="397.0742" style="stroke:#181818;stroke-width:1.0;" width="10" x="118" y="90.5332"/><rect fill="#FFFFFF" height="31.291" style="stroke:#181818;stroke-width:1.0;" width="10" x="277" y="148.1152"/><rect fill="#FFFFFF" height="31.291" style="stroke:#181818;stroke-width:1.0;" width="10" x="382" y="210.6973"/><rect fill="#FFFFFF" height="141.4551" style="stroke:#181818;stroke-width:1.0;" width="10" x="544" y="307.8613"/><rect fill="none" height="351.7832" style="stroke:#000000;stroke-width:1.5;" width="946.5" x="10.5" y="105.5332"/><line style="stroke:#181818;stroke-width:0.5;stroke-dasharray:5.0,5.0;" x1="122.5" x2="122.5" y1="57.2422" y2="505.6074"/><line style="stroke:#181818;stroke-width:0.5;stroke-dasharray:5.0,5.0;" x1="281.5" x2="281.5" y1="57.2422" y2="505.6074"/><line style="stroke:#181818;stroke-width:0.5;stroke-dasharray:5.0,5.0;" x1="386.5" x2="386.5" y1="57.2422" y2="505.6074"/><line style="stroke:#181818;stroke-width:0.5;stroke-dasharray:5.0,5.0;" x1="548.5" x2="548.5" y1="57.2422" y2="505.6074"/><line style="stroke:#181818;stroke-width:0.5;stroke-dasharray:5.0,5.0;" x1="917" x2="917" y1="358.7979" y2="505.6074"/><rect fill="#E2E2F0" height="32.6211" rx="2.5" ry="2.5" style="stroke:#181818;stroke-width:0.5;" width="205" x="20.5" y="23.6211"/><text fill="#000000" font-family="sans-serif" font-size="14" lengthAdjust="spacing" textLength="191" x="27.5" y="45.7285">:RegisterNewVehicleController</text><rect fill="#E2E2F0" height="32.6211" rx="2.5" ry="2.5" style="stroke:#181818;stroke-width:0.5;" width="205" x="20.5" y="504.6074"/><text fill="#000000" font-family="sans-serif" font-size="14" lengthAdjust="spacing" textLength="191" x="27.5" y="526.7148">:RegisterNewVehicleController</text><rect fill="#E2E2F0" height="32.6211" rx="2.5" ry="2.5" style="stroke:#181818;stroke-width:0.5;" width="93" x="235.5" y="23.6211"/><text fill="#000000" font-family="sans-serif" font-size="14" lengthAdjust="spacing" textLength="79" x="242.5" y="45.7285">Repositories</text><rect fill="#E2E2F0" height="32.6211" rx="2.5" ry="2.5" style="stroke:#181818;stroke-width:0.5;" width="93" x="235.5" y="504.6074"/><text fill="#000000" font-family="sans-serif" font-size="14" lengthAdjust="spacing" textLength="79" x="242.5" y="526.7148">Repositories</text><rect fill="#E2E2F0" height="51.2422" rx="2.5" ry="2.5" style="stroke:#181818;stroke-width:0.5;" width="97" x="338.5" y="5"/><text fill="#000000" font-family="sans-serif" font-size="14" lengthAdjust="spacing" textLength="74" x="350" y="27.1074">repositories</text><text fill="#000000" font-family="sans-serif" font-size="14" lengthAdjust="spacing" textLength="83" x="345.5" y="45.7285">:Repositories</text><rect fill="#E2E2F0" height="51.2422" rx="2.5" ry="2.5" style="stroke:#181818;stroke-width:0.5;" width="97" x="338.5" y="504.6074"/><text fill="#000000" font-family="sans-serif" font-size="14" lengthAdjust="spacing" textLength="74" x="350" y="526.7148">repositories</text><text fill="#000000" font-family="sans-serif" font-size="14" lengthAdjust="spacing" textLength="83" x="345.5" y="545.3359">:Repositories</text><rect fill="#E2E2F0" height="32.6211" rx="2.5" ry="2.5" style="stroke:#181818;stroke-width:0.5;" width="207" x="445.5" y="23.6211"/><text fill="#000000" font-family="sans-serif" font-size="14" lengthAdjust="spacing" textLength="193" x="452.5" y="45.7285">RegisterNewVehicleRepository</text><rect fill="#E2E2F0" height="32.6211" rx="2.5" ry="2.5" style="stroke:#181818;stroke-width:0.5;" width="207" x="445.5" y="504.6074"/><text fill="#000000" font-family="sans-serif" font-size="14" lengthAdjust="spacing" textLength="193" x="452.5" y="526.7148">RegisterNewVehicleRepository</text><rect fill="#E2E2F0" height="32.6211" rx="2.5" ry="2.5" style="stroke:#181818;stroke-width:0.5;" width="60" x="887" y="504.6074"/><text fill="#000000" font-family="sans-serif" font-size="14" lengthAdjust="spacing" textLength="46" x="894" y="526.7148">Vehicle</text><rect fill="#FFFFFF" height="397.0742" style="stroke:#181818;stroke-width:1.0;" width="10" x="118" y="90.5332"/><rect fill="#FFFFFF" height="31.291" style="stroke:#181818;stroke-width:1.0;" width="10" x="277" y="148.1152"/><rect fill="#FFFFFF" height="31.291" style="stroke:#181818;stroke-width:1.0;" width="10" x="382" y="210.6973"/><rect fill="#FFFFFF" height="141.4551" style="stroke:#181818;stroke-width:1.0;" width="10" x="544" y="307.8613"/><polygon fill="#181818" points="106,86.5332,116,90.5332,106,94.5332,110,90.5332" style="stroke:#181818;stroke-width:1.0;"/><line style="stroke:#181818;stroke-width:1.0;" x1="0" x2="112" y1="90.5332" y2="90.5332"/><text fill="#000000" font-family="sans-serif" font-size="13" lengthAdjust="spacing" textLength="99" x="7" y="85.2705">RegisterVehicle()</text><path d="M10.5,105.5332 L136.5,105.5332 L136.5,114.8242 L126.5,124.8242 L10.5,124.8242 L10.5,105.5332 " fill="#EEEEEE" style="stroke:#000000;stroke-width:1.5;"/><rect fill="none" height="351.7832" style="stroke:#000000;stroke-width:1.5;" width="946.5" x="10.5" y="105.5332"/><text fill="#000000" font-family="sans-serif" font-size="13" font-weight="bold" lengthAdjust="spacing" textLength="81" x="25.5" y="120.5615">store vehicle</text><polygon fill="#181818" points="265,144.1152,275,148.1152,265,152.1152,269,148.1152" style="stroke:#181818;stroke-width:1.0;"/><line style="stroke:#181818;stroke-width:1.0;" x1="128" x2="271" y1="148.1152" y2="148.1152"/><text fill="#000000" font-family="sans-serif" font-size="13" lengthAdjust="spacing" textLength="75" x="135" y="142.8525">getinstance()</text><polygon fill="#181818" points="139,175.4063,129,179.4063,139,183.4063,135,179.4063" style="stroke:#181818;stroke-width:1.0;"/><line style="stroke:#181818;stroke-width:1.0;" x1="133" x2="281" y1="179.4063" y2="179.4063"/><text fill="#000000" font-family="sans-serif" font-size="13" lengthAdjust="spacing" textLength="72" x="145" y="174.1436">Repositories</text><polygon fill="#181818" points="370,206.6973,380,210.6973,370,214.6973,374,210.6973" style="stroke:#181818;stroke-width:1.0;"/><line style="stroke:#181818;stroke-width:1.0;" x1="128" x2="376" y1="210.6973" y2="210.6973"/><text fill="#000000" font-family="sans-serif" font-size="13" lengthAdjust="spacing" textLength="131" x="135" y="205.4346">getVehicleRepository()</text><polygon fill="#181818" points="139,237.9883,129,241.9883,139,245.9883,135,241.9883" style="stroke:#181818;stroke-width:1.0;"/><line style="stroke:#181818;stroke-width:1.0;" x1="133" x2="386" y1="241.9883" y2="241.9883"/><text fill="#000000" font-family="sans-serif" font-size="13" lengthAdjust="spacing" textLength="105" x="145" y="236.7256">VehicleRepository</text><polygon fill="#181818" points="532,303.8613,542,307.8613,532,311.8613,536,307.8613" style="stroke:#181818;stroke-width:1.0;"/><line style="stroke:#181818;stroke-width:1.0;" x1="128" x2="538" y1="307.8613" y2="307.8613"/><text fill="#000000" font-family="sans-serif" font-size="13" lengthAdjust="spacing" textLength="305" x="135" y="268.0166">RegisterNewVehicle(brand,vehiclePlate, model, type,</text><text fill="#000000" font-family="sans-serif" font-size="13" lengthAdjust="spacing" textLength="266" x="135" y="285.3076">Tare, GrossWeight, CurrentKm, RegisterDate,</text><text fill="#000000" font-family="sans-serif" font-size="13" lengthAdjust="spacing" textLength="289" x="135" y="302.5986">AcquisitionDate, MaintenanceCheckupFrequency)</text><polygon fill="#181818" points="875,369.7344,885,373.7344,875,377.7344,879,373.7344" style="stroke:#181818;stroke-width:1.0;"/><line style="stroke:#181818;stroke-width:1.0;" x1="554" x2="881" y1="373.7344" y2="373.7344"/><text fill="#000000" font-family="sans-serif" font-size="13" lengthAdjust="spacing" textLength="305" x="561" y="333.8896">RegisterNewVehicle(brand,vehiclePlate, model, type,</text><text fill="#000000" font-family="sans-serif" font-size="13" lengthAdjust="spacing" textLength="266" x="561" y="351.1807">Tare, GrossWeight, CurrentKm, RegisterDate,</text><text fill="#000000" font-family="sans-serif" font-size="13" lengthAdjust="spacing" textLength="289" x="561" y="368.4717">AcquisitionDate, MaintenanceCheckupFrequency)</text><rect fill="#E2E2F0" height="32.6211" rx="2.5" ry="2.5" style="stroke:#181818;stroke-width:0.5;" width="60" x="887" y="338.1133"/><text fill="#000000" font-family="sans-serif" font-size="14" lengthAdjust="spacing" textLength="46" x="894" y="360.2207">Vehicle</text><line style="stroke:#181818;stroke-width:1.0;" x1="554" x2="596" y1="405.0254" y2="405.0254"/><line style="stroke:#181818;stroke-width:1.0;" x1="596" x2="596" y1="405.0254" y2="418.0254"/><line style="stroke:#181818;stroke-width:1.0;" x1="555" x2="596" y1="418.0254" y2="418.0254"/><polygon fill="#181818" points="565,414.0254,555,418.0254,565,422.0254,561,418.0254" style="stroke:#181818;stroke-width:1.0;"/><text fill="#000000" font-family="sans-serif" font-size="13" lengthAdjust="spacing" textLength="71" x="561" y="399.7627">Save vehicle</text><polygon fill="#181818" points="139,445.3164,129,449.3164,139,453.3164,135,449.3164" style="stroke:#181818;stroke-width:1.0;"/><line style="stroke:#181818;stroke-width:1.0;" x1="133" x2="548" y1="449.3164" y2="449.3164"/><text fill="#000000" font-family="sans-serif" font-size="13" lengthAdjust="spacing" textLength="43" x="145" y="444.0537">Vehicle</text><polygon fill="#181818" points="11,483.6074,1,487.6074,11,491.6074,7,487.6074" style="stroke:#181818;stroke-width:1.0;"/><line style="stroke:#181818;stroke-width:1.0;" x1="5" x2="122" y1="487.6074" y2="487.6074"/><text fill="#000000" font-family="sans-serif" font-size="13" lengthAdjust="spacing" textLength="43" x="17" y="482.3447">Vehicle</text><!--SRC=[pLFDJi904BxtAJQSW9GN8CR4OFHWD0QDNhYisqdPM6QNsIc6jtUX6xe5sUADKzkP-NxcfrOIQwMjH1Q3wHnAxHZe1Nu-OAbL1JE3JAQgW0P2Ef4go6pCDGThd6P36bo0je5kAKMP1KvFa3xlOyVqnqOEiEqPfsr1bogazwZmdcNPv3RPh9WUqY4t76KbcTeAvoL0R0AJLAmtaY4zkgJKtaex4ozT0cjqB57jP2E9QCGTo2NTHDW2pd6cRJQRQWoUJ3rs6bOQwllTdQumiXZ8-cTu_YAYTRRfuHT9BFAmoTVAQ-LYPGgeSi5RwpyM-2x9Fn_9EFS9kbnoBcOr4I0_hV83v_qUki0xjQwrLzG6cz2prCY0kqNEbg2-Q_j0iAu1rNQKEfre4CcsVDiXE1vVPOzzxdkMzYOtxQ_sVww_Rgnx_8d10nRPpIJDUYbj2_a5]--></g></svg>