<?xml version="1.0" encoding="us-ascii" standalone="no"?><svg xmlns="http://www.w3.org/2000/svg" xmlns:xlink="http://www.w3.org/1999/xlink" contentStyleType="text/css" height="467px" preserveAspectRatio="none" style="width:692px;height:467px;background:#FFFFFF;" version="1.1" viewBox="0 0 692 467" width="692px" zoomAndPan="magnify"><defs/><g><rect fill="#FFFFFF" height="281.9492" style="stroke:#181818;stroke-width:1.0;" width="10" x="32.5" y="93.6211"/><rect fill="#FFFFFF" height="74.9121" style="stroke:#181818;stroke-width:1.0;" width="10" x="378.5" y="143.2031"/><rect fill="#FFFFFF" height="75.582" style="stroke:#181818;stroke-width:1.0;" width="10" x="378.5" y="283.9883"/><rect fill="none" height="266.9492" style="stroke:#000000;stroke-width:1.5;" width="676" x="10" y="100.6211"/><line style="stroke:#181818;stroke-width:0.5;stroke-dasharray:5.0,5.0;" x1="37" x2="37" y1="83.6211" y2="384.5703"/><line style="stroke:#181818;stroke-width:0.5;stroke-dasharray:5.0,5.0;" x1="383" x2="383" y1="83.6211" y2="384.5703"/><line style="stroke:#181818;stroke-width:0.5;stroke-dasharray:5.0,5.0;" x1="573" x2="573" y1="183.0137" y2="384.5703"/><text fill="#000000" font-family="sans-serif" font-size="14" lengthAdjust="spacing" textLength="29" x="20" y="80.1074">VFM</text><ellipse cx="37.5" cy="13.5" fill="#E2E2F0" rx="8" ry="8" style="stroke:#181818;stroke-width:0.5;"/><path d="M37.5,21.5 L37.5,48.5 M24.5,29.5 L50.5,29.5 M37.5,48.5 L24.5,63.5 M37.5,48.5 L50.5,63.5 " fill="none" style="stroke:#181818;stroke-width:0.5;"/><text fill="#000000" font-family="sans-serif" font-size="14" lengthAdjust="spacing" textLength="29" x="20" y="398.6777">VFM</text><ellipse cx="37.5" cy="410.6914" fill="#E2E2F0" rx="8" ry="8" style="stroke:#181818;stroke-width:0.5;"/><path d="M37.5,418.6914 L37.5,445.6914 M24.5,426.6914 L50.5,426.6914 M37.5,445.6914 L24.5,460.6914 M37.5,445.6914 L50.5,460.6914 " fill="none" style="stroke:#181818;stroke-width:0.5;"/><rect fill="#E2E2F0" height="32.6211" rx="2.5" ry="2.5" style="stroke:#181818;stroke-width:0.5;" width="155" x="306" y="50"/><text fill="#000000" font-family="sans-serif" font-size="14" lengthAdjust="spacing" textLength="141" x="313" y="72.1074">:RegisterNewVehicleUI</text><rect fill="#E2E2F0" height="32.6211" rx="2.5" ry="2.5" style="stroke:#181818;stroke-width:0.5;" width="155" x="306" y="383.5703"/><text fill="#000000" font-family="sans-serif" font-size="14" lengthAdjust="spacing" textLength="141" x="313" y="405.6777">:RegisterNewVehicleUI</text><rect fill="#E2E2F0" height="32.6211" rx="2.5" ry="2.5" style="stroke:#181818;stroke-width:0.5;" width="205" x="471" y="383.5703"/><text fill="#000000" font-family="sans-serif" font-size="14" lengthAdjust="spacing" textLength="191" x="478" y="405.6777">:RegisterNewVehicleController</text><rect fill="#FFFFFF" height="281.9492" style="stroke:#181818;stroke-width:1.0;" width="10" x="32.5" y="93.6211"/><rect fill="#FFFFFF" height="74.9121" style="stroke:#181818;stroke-width:1.0;" width="10" x="378.5" y="143.2031"/><rect fill="#FFFFFF" height="75.582" style="stroke:#181818;stroke-width:1.0;" width="10" x="378.5" y="283.9883"/><path d="M10,100.6211 L188,100.6211 L188,109.9121 L178,119.9121 L10,119.9121 L10,100.6211 " fill="#EEEEEE" style="stroke:#000000;stroke-width:1.5;"/><rect fill="none" height="266.9492" style="stroke:#000000;stroke-width:1.5;" width="676" x="10" y="100.6211"/><text fill="#000000" font-family="sans-serif" font-size="13" font-weight="bold" lengthAdjust="spacing" textLength="133" x="25" y="115.6494">Register new vehicle</text><polygon fill="#181818" points="366.5,139.2031,376.5,143.2031,366.5,147.2031,370.5,143.2031" style="stroke:#181818;stroke-width:1.0;"/><line style="stroke:#181818;stroke-width:1.0;" x1="42.5" x2="372.5" y1="143.2031" y2="143.2031"/><text fill="#000000" font-family="sans-serif" font-size="13" lengthAdjust="spacing" textLength="187" x="49.5" y="137.9404">Requeste to register new vehicle</text><polygon fill="#181818" points="459,170.4941,469,174.4941,459,178.4941,463,174.4941" style="stroke:#181818;stroke-width:1.0;"/><line style="stroke:#181818;stroke-width:1.0;" x1="388.5" x2="465" y1="174.4941" y2="174.4941"/><text fill="#000000" font-family="sans-serif" font-size="13" lengthAdjust="spacing" textLength="38" x="395.5" y="169.2314">Create</text><rect fill="#E2E2F0" height="32.6211" rx="2.5" ry="2.5" style="stroke:#181818;stroke-width:0.5;" width="205" x="471" y="151.2031"/><text fill="#000000" font-family="sans-serif" font-size="14" lengthAdjust="spacing" textLength="191" x="478" y="173.3105">:RegisterNewVehicleController</text><polygon fill="#181818" points="53.5,214.1152,43.5,218.1152,53.5,222.1152,49.5,218.1152" style="stroke:#181818;stroke-width:1.0;"/><line style="stroke:#181818;stroke-width:1.0;" x1="47.5" x2="382.5" y1="218.1152" y2="218.1152"/><text fill="#000000" font-family="sans-serif" font-size="13" lengthAdjust="spacing" textLength="122" x="59.5" y="212.8525">requests vehicle data</text><polygon fill="#181818" points="366.5,279.9883,376.5,283.9883,366.5,287.9883,370.5,283.9883" style="stroke:#181818;stroke-width:1.0;"/><line style="stroke:#181818;stroke-width:1.0;" x1="42.5" x2="372.5" y1="283.9883" y2="283.9883"/><text fill="#000000" font-family="sans-serif" font-size="13" lengthAdjust="spacing" textLength="313" x="49.5" y="244.1436">Types vehicle details (brand,vehiclePlate, model, type,</text><text fill="#000000" font-family="sans-serif" font-size="13" lengthAdjust="spacing" textLength="266" x="49.5" y="261.4346">Tare, GrossWeight, CurrentKm, RegisterDate,</text><text fill="#000000" font-family="sans-serif" font-size="13" lengthAdjust="spacing" textLength="289" x="49.5" y="278.7256">AcquisitionDate, MaintenanceCheckupFrequency)</text><line style="stroke:#181818;stroke-width:1.0;" x1="388.5" x2="430.5" y1="315.2793" y2="315.2793"/><line style="stroke:#181818;stroke-width:1.0;" x1="430.5" x2="430.5" y1="315.2793" y2="328.2793"/><line style="stroke:#181818;stroke-width:1.0;" x1="389.5" x2="430.5" y1="328.2793" y2="328.2793"/><polygon fill="#181818" points="399.5,324.2793,389.5,328.2793,399.5,332.2793,395.5,328.2793" style="stroke:#181818;stroke-width:1.0;"/><text fill="#000000" font-family="sans-serif" font-size="13" lengthAdjust="spacing" textLength="157" x="395.5" y="310.0166">Keeps and stores that data</text><polygon fill="#181818" points="53.5,355.5703,43.5,359.5703,53.5,363.5703,49.5,359.5703" style="stroke:#181818;stroke-width:1.0;"/><line style="stroke:#181818;stroke-width:1.0;" x1="47.5" x2="382.5" y1="359.5703" y2="359.5703"/><text fill="#000000" font-family="sans-serif" font-size="13" lengthAdjust="spacing" textLength="301" x="59.5" y="354.3076">Shows the thyped data and a comfirmation requests</text><!--SRC=[hLBBJiCm4BpxArOzGHL-e0Sa52X2LH7gYqilYxCq5ecThZUD-lSu3hGSqkR2nPRMCxCpkqOjZc6qcSv7W1xMowU5Kgf25gDDXLPWD5dGpdWXVgLcGxdH1QrV8hhlOP2REYliYeBuWiOPeDIENLsTC62fWKE7KgZ5752eyzmUS7VVQmaceRolATH17F1LjTvClQgztSxcn-FGDsKAeXVvqVKaE8hk_AyRo51GPNJTr43arR6YFueaQ0eFDn-CDaj-ocz5K4-WT1aL2KXW9B2rA-HmFxFp_ftCBfS4qfgPhCpAvDJkCLAtza7lQ-ED66UxqXoD5R9eDQKvwQ-wciQ0LXzl_stECUACgF8Gye0FlpYabHob6zx0n9UvQrfu-11vI9r5KbH2qAxyD5nYc-Yqci5jaCtKDm00]--></g></svg>