<?xml version="1.0" encoding="us-ascii" standalone="no"?><svg xmlns="http://www.w3.org/2000/svg" xmlns:xlink="http://www.w3.org/1999/xlink" contentStyleType="text/css" height="740.8px" preserveAspectRatio="none" style="width:256px;height:740px;background:#FFFFFF;" version="1.1" viewBox="0 0 256 740" width="256.8px" zoomAndPan="magnify"><defs/><g><text fill="#000000" font-family="sans-serif" font-size="11.2" font-weight="bold" lengthAdjust="spacing" textLength="128.8" x="58.6" y="20.0859">Register a new vehicle</text><!--class RegisterNewVehicleController--><g id="elem_RegisterNewVehicleController"><rect codeLine="6" fill="#F1F1F1" height="83.0906" id="RegisterNewVehicleController" rx="2" ry="2" style="stroke:#181818;stroke-width:0.4000000000000001;" width="176.8" x="46.8" y="124.4969"/><ellipse cx="59.52" cy="137.2969" fill="#ADD1B2" rx="8.8" ry="8.8" style="stroke:#181818;stroke-width:0.8000000000000002;"/><path d="M61.7325,133.9969 Q61.8575,133.8219 62.0075,133.7344 Q62.1575,133.6469 62.3325,133.6469 Q62.6325,133.6469 62.82,133.8594 Q63.0075,134.0594 63.0075,134.5469 L63.0075,135.7094 Q63.0075,136.1969 62.82,136.4094 Q62.6325,136.6219 62.3325,136.6219 Q62.0575,136.6219 61.895,136.4594 Q61.7325,136.3094 61.645,135.8969 Q61.6075,135.6094 61.4575,135.4594 Q61.195,135.1594 60.7075,134.9844 Q60.22,134.8094 59.72,134.8094 Q59.1075,134.8094 58.595,135.0719 Q58.095,135.3344 57.695,135.9344 Q57.3075,136.5344 57.3075,137.3594 L57.3075,138.2344 Q57.3075,139.2219 58.02,139.8844 Q58.7325,140.5344 60.0075,140.5344 Q60.7575,140.5344 61.2825,140.3344 Q61.595,140.2094 61.9325,139.8594 Q62.145,139.6469 62.2575,139.5844 Q62.3825,139.5219 62.545,139.5219 Q62.8075,139.5219 63.0075,139.7344 Q63.22,139.9344 63.22,140.2094 Q63.22,140.4844 62.945,140.8094 Q62.545,141.2719 61.9075,141.5344 Q61.045,141.8969 60.0075,141.8969 Q58.795,141.8969 57.8325,141.3969 Q57.045,140.9969 56.495,140.1469 Q55.945,139.2844 55.945,138.2594 L55.945,137.3344 Q55.945,136.2719 56.4325,135.3594 Q56.9325,134.4344 57.8075,133.9469 Q58.6825,133.4469 59.67,133.4469 Q60.2575,133.4469 60.77,133.5844 Q61.295,133.7094 61.7325,133.9969 Z " fill="#000000"/><text fill="#000000" font-family="sans-serif" font-size="11.2" lengthAdjust="spacing" textLength="149.6" x="70.88" y="141.9344">RegisterNewVehicleController</text><line style="stroke:#181818;stroke-width:0.4000000000000001;" x1="47.6" x2="222.8" y1="150.0969" y2="150.0969"/><line style="stroke:#181818;stroke-width:0.4000000000000001;" x1="47.6" x2="222.8" y1="156.4969" y2="156.4969"/><text fill="#000000" font-family="sans-serif" font-size="11.2" lengthAdjust="spacing" textLength="167.2" x="51.6" y="171.7828">+RegisterNewVehicleController();</text><text fill="#000000" font-family="sans-serif" font-size="11.2" lengthAdjust="spacing" textLength="70.4" x="51.6" y="186.6797">+getVehicle();</text><text fill="#000000" font-family="sans-serif" font-size="11.2" lengthAdjust="spacing" textLength="106.4" x="51.6" y="201.5766">-getVehicleByPlate();</text></g><!--class RegisterNewVehicleUI--><g id="elem_RegisterNewVehicleUI"><rect codeLine="14" fill="#F1F1F1" height="38.4" id="RegisterNewVehicleUI" rx="2" ry="2" style="stroke:#181818;stroke-width:0.4000000000000001;" width="135.2" x="67.6" y="37.2969"/><ellipse cx="79.6" cy="50.0969" fill="#ADD1B2" rx="8.8" ry="8.8" style="stroke:#181818;stroke-width:0.8000000000000002;"/><path d="M81.8125,46.7969 Q81.9375,46.6219 82.0875,46.5344 Q82.2375,46.4469 82.4125,46.4469 Q82.7125,46.4469 82.9,46.6594 Q83.0875,46.8594 83.0875,47.3469 L83.0875,48.5094 Q83.0875,48.9969 82.9,49.2094 Q82.7125,49.4219 82.4125,49.4219 Q82.1375,49.4219 81.975,49.2594 Q81.8125,49.1094 81.725,48.6969 Q81.6875,48.4094 81.5375,48.2594 Q81.275,47.9594 80.7875,47.7844 Q80.3,47.6094 79.8,47.6094 Q79.1875,47.6094 78.675,47.8719 Q78.175,48.1344 77.775,48.7344 Q77.3875,49.3344 77.3875,50.1594 L77.3875,51.0344 Q77.3875,52.0219 78.1,52.6844 Q78.8125,53.3344 80.0875,53.3344 Q80.8375,53.3344 81.3625,53.1344 Q81.675,53.0094 82.0125,52.6594 Q82.225,52.4469 82.3375,52.3844 Q82.4625,52.3219 82.625,52.3219 Q82.8875,52.3219 83.0875,52.5344 Q83.3,52.7344 83.3,53.0094 Q83.3,53.2844 83.025,53.6094 Q82.625,54.0719 81.9875,54.3344 Q81.125,54.6969 80.0875,54.6969 Q78.875,54.6969 77.9125,54.1969 Q77.125,53.7969 76.575,52.9469 Q76.025,52.0844 76.025,51.0594 L76.025,50.1344 Q76.025,49.0719 76.5125,48.1594 Q77.0125,47.2344 77.8875,46.7469 Q78.7625,46.2469 79.75,46.2469 Q80.3375,46.2469 80.85,46.3844 Q81.375,46.5094 81.8125,46.7969 Z " fill="#000000"/><text fill="#000000" font-family="sans-serif" font-size="11.2" lengthAdjust="spacing" textLength="109.6" x="90.8" y="54.7344">RegisterNewVehicleUI</text><line style="stroke:#181818;stroke-width:0.4000000000000001;" x1="68.4" x2="202" y1="62.8969" y2="62.8969"/><line style="stroke:#181818;stroke-width:0.4000000000000001;" x1="68.4" x2="202" y1="69.2969" y2="69.2969"/></g><!--class Repositories--><g id="elem_Repositories"><rect codeLine="18" fill="#F1F1F1" height="83.0906" id="Repositories" rx="2" ry="2" style="stroke:#181818;stroke-width:0.4000000000000001;" width="134.4" x="5.6" y="270.8969"/><ellipse cx="38.12" cy="283.6969" fill="#ADD1B2" rx="8.8" ry="8.8" style="stroke:#181818;stroke-width:0.8000000000000002;"/><path d="M40.3325,280.3969 Q40.4575,280.2219 40.6075,280.1344 Q40.7575,280.0469 40.9325,280.0469 Q41.2325,280.0469 41.42,280.2594 Q41.6075,280.4594 41.6075,280.9469 L41.6075,282.1094 Q41.6075,282.5969 41.42,282.8094 Q41.2325,283.0219 40.9325,283.0219 Q40.6575,283.0219 40.495,282.8594 Q40.3325,282.7094 40.245,282.2969 Q40.2075,282.0094 40.0575,281.8594 Q39.795,281.5594 39.3075,281.3844 Q38.82,281.2094 38.32,281.2094 Q37.7075,281.2094 37.195,281.4719 Q36.695,281.7344 36.295,282.3344 Q35.9075,282.9344 35.9075,283.7594 L35.9075,284.6344 Q35.9075,285.6219 36.62,286.2844 Q37.3325,286.9344 38.6075,286.9344 Q39.3575,286.9344 39.8825,286.7344 Q40.195,286.6094 40.5325,286.2594 Q40.745,286.0469 40.8575,285.9844 Q40.9825,285.9219 41.145,285.9219 Q41.4075,285.9219 41.6075,286.1344 Q41.82,286.3344 41.82,286.6094 Q41.82,286.8844 41.545,287.2094 Q41.145,287.6719 40.5075,287.9344 Q39.645,288.2969 38.6075,288.2969 Q37.395,288.2969 36.4325,287.7969 Q35.645,287.3969 35.095,286.5469 Q34.545,285.6844 34.545,284.6594 L34.545,283.7344 Q34.545,282.6719 35.0325,281.7594 Q35.5325,280.8344 36.4075,280.3469 Q37.2825,279.8469 38.27,279.8469 Q38.8575,279.8469 39.37,279.9844 Q39.895,280.1094 40.3325,280.3969 Z " fill="#000000"/><text fill="#000000" font-family="sans-serif" font-size="11.2" lengthAdjust="spacing" textLength="63.2" x="53.88" y="288.3344">Repositories</text><line style="stroke:#181818;stroke-width:0.4000000000000001;" x1="6.4" x2="139.2" y1="296.4969" y2="296.4969"/><line style="stroke:#181818;stroke-width:0.4000000000000001;" x1="6.4" x2="139.2" y1="302.8969" y2="302.8969"/><text fill="#000000" font-family="sans-serif" font-size="11.2" lengthAdjust="spacing" textLength="124.8" x="10.4" y="318.1828">+getVehicleRepository();</text><text fill="#000000" font-family="sans-serif" font-size="11.2" lengthAdjust="spacing" textLength="80.8" x="10.4" y="333.0797">+Repositories();</text><text fill="#000000" font-family="sans-serif" font-size="11.2" lengthAdjust="spacing" textLength="73.6" x="10.4" y="347.9766">-getinstance();</text></g><!--class VehicleRepository--><g id="elem_VehicleRepository"><rect codeLine="24" fill="#F1F1F1" height="68.1938" id="VehicleRepository" rx="2" ry="2" style="stroke:#181818;stroke-width:0.4000000000000001;" width="118.4" x="17.6" y="417.2969"/><ellipse cx="30.32" cy="430.0969" fill="#ADD1B2" rx="8.8" ry="8.8" style="stroke:#181818;stroke-width:0.8000000000000002;"/><path d="M32.5325,426.7969 Q32.6575,426.6219 32.8075,426.5344 Q32.9575,426.4469 33.1325,426.4469 Q33.4325,426.4469 33.62,426.6594 Q33.8075,426.8594 33.8075,427.3469 L33.8075,428.5094 Q33.8075,428.9969 33.62,429.2094 Q33.4325,429.4219 33.1325,429.4219 Q32.8575,429.4219 32.695,429.2594 Q32.5325,429.1094 32.445,428.6969 Q32.4075,428.4094 32.2575,428.2594 Q31.995,427.9594 31.5075,427.7844 Q31.02,427.6094 30.52,427.6094 Q29.9075,427.6094 29.395,427.8719 Q28.895,428.1344 28.495,428.7344 Q28.1075,429.3344 28.1075,430.1594 L28.1075,431.0344 Q28.1075,432.0219 28.82,432.6844 Q29.5325,433.3344 30.8075,433.3344 Q31.5575,433.3344 32.0825,433.1344 Q32.395,433.0094 32.7325,432.6594 Q32.945,432.4469 33.0575,432.3844 Q33.1825,432.3219 33.345,432.3219 Q33.6075,432.3219 33.8075,432.5344 Q34.02,432.7344 34.02,433.0094 Q34.02,433.2844 33.745,433.6094 Q33.345,434.0719 32.7075,434.3344 Q31.845,434.6969 30.8075,434.6969 Q29.595,434.6969 28.6325,434.1969 Q27.845,433.7969 27.295,432.9469 Q26.745,432.0844 26.745,431.0594 L26.745,430.1344 Q26.745,429.0719 27.2325,428.1594 Q27.7325,427.2344 28.6075,426.7469 Q29.4825,426.2469 30.47,426.2469 Q31.0575,426.2469 31.57,426.3844 Q32.095,426.5094 32.5325,426.7969 Z " fill="#000000"/><text fill="#000000" font-family="sans-serif" font-size="11.2" lengthAdjust="spacing" textLength="91.2" x="41.68" y="434.7344">VehicleRepository</text><line style="stroke:#181818;stroke-width:0.4000000000000001;" x1="18.4" x2="135.2" y1="442.8969" y2="442.8969"/><line style="stroke:#181818;stroke-width:0.4000000000000001;" x1="18.4" x2="135.2" y1="449.2969" y2="449.2969"/><text fill="#000000" font-family="sans-serif" font-size="11.2" lengthAdjust="spacing" textLength="102.4" x="22.4" y="464.5828">+RegisterVehicles();</text><text fill="#000000" font-family="sans-serif" font-size="11.2" lengthAdjust="spacing" textLength="108.8" x="22.4" y="479.4797">+getVehicleByPlate();</text></g><!--class Vehicle--><g id="elem_Vehicle"><rect codeLine="30" fill="#F1F1F1" height="187.3688" id="Vehicle" rx="2" ry="2" style="stroke:#181818;stroke-width:0.4000000000000001;" width="207.2" x="44.4" y="548.4969"/><ellipse cx="126.2" cy="561.2969" fill="#ADD1B2" rx="8.8" ry="8.8" style="stroke:#181818;stroke-width:0.8000000000000002;"/><path d="M128.4125,557.9969 Q128.5375,557.8219 128.6875,557.7344 Q128.8375,557.6469 129.0125,557.6469 Q129.3125,557.6469 129.5,557.8594 Q129.6875,558.0594 129.6875,558.5469 L129.6875,559.7094 Q129.6875,560.1969 129.5,560.4094 Q129.3125,560.6219 129.0125,560.6219 Q128.7375,560.6219 128.575,560.4594 Q128.4125,560.3094 128.325,559.8969 Q128.2875,559.6094 128.1375,559.4594 Q127.875,559.1594 127.3875,558.9844 Q126.9,558.8094 126.4,558.8094 Q125.7875,558.8094 125.275,559.0719 Q124.775,559.3344 124.375,559.9344 Q123.9875,560.5344 123.9875,561.3594 L123.9875,562.2344 Q123.9875,563.2219 124.7,563.8844 Q125.4125,564.5344 126.6875,564.5344 Q127.4375,564.5344 127.9625,564.3344 Q128.275,564.2094 128.6125,563.8594 Q128.825,563.6469 128.9375,563.5844 Q129.0625,563.5219 129.225,563.5219 Q129.4875,563.5219 129.6875,563.7344 Q129.9,563.9344 129.9,564.2094 Q129.9,564.4844 129.625,564.8094 Q129.225,565.2719 128.5875,565.5344 Q127.725,565.8969 126.6875,565.8969 Q125.475,565.8969 124.5125,565.3969 Q123.725,564.9969 123.175,564.1469 Q122.625,563.2844 122.625,562.2594 L122.625,561.3344 Q122.625,560.2719 123.1125,559.3594 Q123.6125,558.4344 124.4875,557.9469 Q125.3625,557.4469 126.35,557.4469 Q126.9375,557.4469 127.45,557.5844 Q127.975,557.7094 128.4125,557.9969 Z " fill="#000000"/><text fill="#000000" font-family="sans-serif" font-size="11.2" lengthAdjust="spacing" textLength="36.8" x="142.6" y="565.9344">Vehicle</text><line style="stroke:#181818;stroke-width:0.4000000000000001;" x1="45.2" x2="250.8" y1="574.0969" y2="574.0969"/><text fill="#000000" font-family="sans-serif" font-size="11.2" lengthAdjust="spacing" textLength="62.4" x="49.2" y="589.3828">+Strin brand</text><text fill="#000000" font-family="sans-serif" font-size="11.2" lengthAdjust="spacing" textLength="100" x="49.2" y="604.2797">+String vehiclePlate</text><text fill="#000000" font-family="sans-serif" font-size="11.2" lengthAdjust="spacing" textLength="69.6" x="49.2" y="619.1766">+String model</text><text fill="#000000" font-family="sans-serif" font-size="11.2" lengthAdjust="spacing" textLength="60.8" x="49.2" y="634.0734">+String type</text><text fill="#000000" font-family="sans-serif" font-size="11.2" lengthAdjust="spacing" textLength="45.6" x="49.2" y="648.9703">+int Tare</text><text fill="#000000" font-family="sans-serif" font-size="11.2" lengthAdjust="spacing" textLength="87.2" x="49.2" y="663.8672">+int GrossWeight</text><text fill="#000000" font-family="sans-serif" font-size="11.2" lengthAdjust="spacing" textLength="76" x="49.2" y="678.7641">+int CurrentKm</text><text fill="#000000" font-family="sans-serif" font-size="11.2" lengthAdjust="spacing" textLength="100" x="49.2" y="693.6609">+Date RegisterDate</text><text fill="#000000" font-family="sans-serif" font-size="11.2" lengthAdjust="spacing" textLength="112" x="49.2" y="708.5578">+Date AcquisitionDate</text><text fill="#000000" font-family="sans-serif" font-size="11.2" lengthAdjust="spacing" textLength="197.6" x="49.2" y="723.4547">+Date MaintenanceCheckupFrequency</text><line style="stroke:#181818;stroke-width:0.4000000000000001;" x1="45.2" x2="250.8" y1="729.4656" y2="729.4656"/></g><!--link RegisterNewVehicleUI to RegisterNewVehicleController--><g id="link_RegisterNewVehicleUI_RegisterNewVehicleController"><path codeLine="43" d="M135.2,75.8649 C135.2,89.1929 135.2,102.8729 135.2,119.5849 " fill="none" id="RegisterNewVehicleUI-to-RegisterNewVehicleController" style="stroke:#181818;stroke-width:0.8000000000000002;stroke-dasharray:7.0,7.0;"/><polygon fill="#181818" points="135.2,124.3849,138.4,117.1849,135.2,120.3849,132,117.1849,135.2,124.3849" style="stroke:#181818;stroke-width:0.8000000000000002;"/></g><!--link RegisterNewVehicleController to Repositories--><g id="link_RegisterNewVehicleController_Repositories"><path codeLine="44" d="M117.488,208.0009 C109.016,227.6489 100.8123,246.6971 92.3483,266.3291 " fill="none" id="RegisterNewVehicleController-to-Repositories" style="stroke:#181818;stroke-width:0.8000000000000002;stroke-dasharray:7.0,7.0;"/><polygon fill="#181818" points="90.448,270.7369,96.2371,265.3921,92.0316,267.0637,90.36,262.8583,90.448,270.7369" style="stroke:#181818;stroke-width:0.8000000000000002;"/><text fill="#000000" font-family="sans-serif" font-size="10.4" lengthAdjust="spacing" textLength="57.6" x="107.2" y="243.7195">Repositories</text></g><!--link Vehicle to RegisterNewVehicleController--><g id="link_Vehicle_RegisterNewVehicleController"><path codeLine="45" d="M171.208,548.3369 C188.144,463.9369 203.208,336.9529 172,231.6969 C169.608,223.6329 168.2709,219.7514 164.3029,212.0874 " fill="none" id="Vehicle-to-RegisterNewVehicleController" style="stroke:#181818;stroke-width:0.8000000000000002;stroke-dasharray:7.0,7.0;"/><polygon fill="#181818" points="162.096,207.8249,162.5647,215.69,163.9351,211.377,168.2481,212.7474,162.096,207.8249" style="stroke:#181818;stroke-width:0.8000000000000002;"/></g><!--link Repositories to VehicleRepository--><g id="link_Repositories_VehicleRepository"><path codeLine="46" d="M56.048,354.2569 C52.816,366.7449 51.112,380.5369 53.6,393.2969 C55.16,401.2889 56.1023,405.1025 59.0943,412.8065 " fill="none" id="Repositories-to-VehicleRepository" style="stroke:#181818;stroke-width:0.8000000000000002;stroke-dasharray:7.0,7.0;"/><polygon fill="#181818" points="60.832,417.2809,61.2084,409.4108,59.3839,413.5522,55.2425,411.7277,60.832,417.2809" style="stroke:#181818;stroke-width:0.8000000000000002;"/><text fill="#000000" font-family="sans-serif" font-size="10.4" lengthAdjust="spacing" textLength="122.4" x="54.4" y="390.1195">RegisterVehicleRepository</text></g><!--link VehicleRepository to Vehicle--><g id="link_VehicleRepository_Vehicle"><path codeLine="47" d="M89.368,485.4889 C96.016,503.1529 102.845,521.3086 111.325,543.8366 " fill="none" id="VehicleRepository-to-Vehicle" style="stroke:#181818;stroke-width:0.8000000000000002;stroke-dasharray:7.0,7.0;"/><polygon fill="#181818" points="113.016,548.3289,113.4744,540.4631,111.6068,544.5853,107.4847,542.7178,113.016,548.3289" style="stroke:#181818;stroke-width:0.8000000000000002;"/><text fill="#000000" font-family="sans-serif" font-size="10.4" lengthAdjust="spacing" textLength="34.4" x="104.8" y="521.3195">Vehicle</text></g><!--SRC=[ZL9DJyCm3BtdL-G8GaoSGK8QdK0J0Y76npdBhDPQbdI9orIc_NVIDcrJDYfoIjwpdv_j4982_WefEWBB1TUmur-GeLJ0c5kZpeKL6owLS6vAP75P4CobqGly1dx56AkfJk8PTXzDUc8qMQEKbzqpnlsv68qwExzfebAWGBRGPG_TbIzAKCtK53_yxU1zNbME0dBZa8n5SFjWg1VksB8p4YV4Lb0x4bes9Wv1_KXctueqjWBlJhGPzzIv3HmFCWi_UisNLkXL1AJjhcg10R4nAr03XCeyXA0c_YPiz7gmnhbFm3IZ7amAQq7JuwQ1Phv4D-LPLw-6ft9ReEyRZVx5F0al1RgQLvA1N1VvlOLj0LgMLRCdjpQPt8v-5JRwsvhiVdNyUl1axMJ_KIKIgQAFTbnB3_RRS-muEjBmcU7s0m00]--></g></svg>