<?xml version="1.0" encoding="us-ascii" standalone="no"?><svg xmlns="http://www.w3.org/2000/svg" xmlns:xlink="http://www.w3.org/1999/xlink" contentStyleType="text/css" height="351px" preserveAspectRatio="none" style="width:353px;height:351px;background:#FFFFFF;" version="1.1" viewBox="0 0 353 351" width="353px" zoomAndPan="magnify"><defs/><g><rect fill="#FFFFFF" height="229.8633" style="stroke:#181818;stroke-width:1.0;" width="10" x="184" y="67.7988"/><rect fill="#FFFFFF" height="124.9316" style="stroke:#181818;stroke-width:1.0;" width="10" x="189" y="129.4199"/><rect fill="#FFFFFF" height="40.3105" style="stroke:#181818;stroke-width:1.0;" width="10" x="194" y="171.7305"/><rect fill="none" height="186.5527" style="stroke:#000000;stroke-width:1.5;" width="254" x="93" y="82.7988"/><line style="stroke:#181818;stroke-width:0.5;stroke-dasharray:5.0,5.0;" x1="189" x2="189" y1="36.4883" y2="315.6621"/><rect fill="#E3E3E3" height="30.4883" rx="2.5" ry="2.5" style="stroke:#181818;stroke-width:0.5;" width="172" x="103" y="5"/><text fill="#000000" font-family="sans-serif" font-size="14" lengthAdjust="spacing" textLength="158" x="110" y="25.5352">:RegisterSkillController</text><rect fill="#E3E3E3" height="30.4883" rx="2.5" ry="2.5" style="stroke:#181818;stroke-width:0.5;" width="172" x="103" y="314.6621"/><text fill="#000000" font-family="sans-serif" font-size="14" lengthAdjust="spacing" textLength="158" x="110" y="335.1973">:RegisterSkillController</text><rect fill="#FFFFFF" height="229.8633" style="stroke:#181818;stroke-width:1.0;" width="10" x="184" y="67.7988"/><rect fill="#FFFFFF" height="124.9316" style="stroke:#181818;stroke-width:1.0;" width="10" x="189" y="129.4199"/><rect fill="#FFFFFF" height="40.3105" style="stroke:#181818;stroke-width:1.0;" width="10" x="194" y="171.7305"/><polygon fill="#181818" points="172,63.7988,182,67.7988,172,71.7988,176,67.7988" style="stroke:#181818;stroke-width:1.0;"/><line style="stroke:#181818;stroke-width:1.0;" x1="0" x2="178" y1="67.7988" y2="67.7988"/><text fill="#000000" font-family="sans-serif" font-size="13" font-weight="bold" lengthAdjust="spacing" textLength="9" x="7" y="63.0566">1</text><text fill="#000000" font-family="sans-serif" font-size="13" lengthAdjust="spacing" textLength="152" x="20" y="63.0566">registerSkill (skill name)</text><path d="M93,82.7988 L213,82.7988 L213,90.1094 L203,100.1094 L93,100.1094 L93,82.7988 " fill="#EEEEEE" style="stroke:#000000;stroke-width:1.5;"/><rect fill="none" height="186.5527" style="stroke:#000000;stroke-width:1.5;" width="254" x="93" y="82.7988"/><text fill="#000000" font-family="sans-serif" font-size="13" font-weight="bold" lengthAdjust="spacing" textLength="75" x="108" y="96.3672">Create Skill</text><line style="stroke:#181818;stroke-width:1.0;" x1="194" x2="241" y1="116.4199" y2="116.4199"/><line style="stroke:#181818;stroke-width:1.0;" x1="241" x2="241" y1="116.4199" y2="129.4199"/><line style="stroke:#181818;stroke-width:1.0;" x1="200" x2="241" y1="129.4199" y2="129.4199"/><polygon fill="#181818" points="210,125.4199,200,129.4199,210,133.4199,206,129.4199" style="stroke:#181818;stroke-width:1.0;"/><text fill="#000000" font-family="sans-serif" font-size="13" font-weight="bold" lengthAdjust="spacing" textLength="9" x="206" y="111.6777">2</text><text fill="#000000" font-family="sans-serif" font-size="13" lengthAdjust="spacing" textLength="85" x="219" y="111.6777">addSkill(skill)</text><line style="stroke:#181818;stroke-width:1.0;" x1="199" x2="246" y1="158.7305" y2="158.7305"/><line style="stroke:#181818;stroke-width:1.0;" x1="246" x2="246" y1="158.7305" y2="171.7305"/><line style="stroke:#181818;stroke-width:1.0;" x1="205" x2="246" y1="171.7305" y2="171.7305"/><polygon fill="#181818" points="215,167.7305,205,171.7305,215,175.7305,211,171.7305" style="stroke:#181818;stroke-width:1.0;"/><text fill="#000000" font-family="sans-serif" font-size="13" font-weight="bold" lengthAdjust="spacing" textLength="9" x="211" y="153.9883">3</text><text fill="#000000" font-family="sans-serif" font-size="13" lengthAdjust="spacing" textLength="111" x="224" y="153.9883">validateSkill(skill)</text><line style="stroke:#181818;stroke-width:1.0;stroke-dasharray:2.0,2.0;" x1="204" x2="246" y1="211.041" y2="211.041"/><line style="stroke:#181818;stroke-width:1.0;stroke-dasharray:2.0,2.0;" x1="246" x2="246" y1="211.041" y2="224.041"/><line style="stroke:#181818;stroke-width:1.0;stroke-dasharray:2.0,2.0;" x1="199" x2="246" y1="224.041" y2="224.041"/><polygon fill="#181818" points="209,220.041,199,224.041,209,228.041,205,224.041" style="stroke:#181818;stroke-width:1.0;"/><text fill="#000000" font-family="sans-serif" font-size="13" font-weight="bold" lengthAdjust="spacing" textLength="9" x="211" y="206.2988">4</text><text fill="#000000" font-family="sans-serif" font-size="13" lengthAdjust="spacing" textLength="4" x="224" y="206.2988">&#160;</text><line style="stroke:#181818;stroke-width:1.0;stroke-dasharray:2.0,2.0;" x1="199" x2="241" y1="253.3516" y2="253.3516"/><line style="stroke:#181818;stroke-width:1.0;stroke-dasharray:2.0,2.0;" x1="241" x2="241" y1="253.3516" y2="266.3516"/><line style="stroke:#181818;stroke-width:1.0;stroke-dasharray:2.0,2.0;" x1="194" x2="241" y1="266.3516" y2="266.3516"/><polygon fill="#181818" points="204,262.3516,194,266.3516,204,270.3516,200,266.3516" style="stroke:#181818;stroke-width:1.0;"/><text fill="#000000" font-family="sans-serif" font-size="13" font-weight="bold" lengthAdjust="spacing" textLength="9" x="206" y="248.6094">5</text><text fill="#000000" font-family="sans-serif" font-size="13" lengthAdjust="spacing" textLength="4" x="219" y="248.6094">&#160;</text><polygon fill="#181818" points="11,293.6621,1,297.6621,11,301.6621,7,297.6621" style="stroke:#181818;stroke-width:1.0;"/><line style="stroke:#181818;stroke-width:1.0;stroke-dasharray:2.0,2.0;" x1="5" x2="188" y1="297.6621" y2="297.6621"/><text fill="#000000" font-family="sans-serif" font-size="13" font-weight="bold" lengthAdjust="spacing" textLength="9" x="17" y="292.9199">6</text><text fill="#000000" font-family="sans-serif" font-size="13" lengthAdjust="spacing" textLength="27" x="30" y="292.9199">Skill</text><!--SRC=[rLExRiCm3Dpr5KIMD8D_m2YoUEsKz0SOYP45ow8XqKdxzxNbj8tJ1pAuGsyHGEfuTmIO6XSwZDX2ou5r7RabaDYJIX-T3dM3blRowWaYQS5W_VM7LAFXimiMZkWJAOMzSEZR0qMbrhKp14TcEV2B6WZYjEim2ApA7LcNXEA-STvN72IoznHNW0cgvzsJoe1R5DlSXN9mSpK07b9-0hQqcR5GYpkXq3HqhDZ8VGTLfB6QsT_e_82iVV5G0XgJ-PFuvlunT-2hxmKnZt52xymWDSkoiEAVnlcCTCcqj82XkN_rdyqlF9w2kTd7Or6y7-bqNh-kSiGR]--></g></svg>