<?xml version="1.0" encoding="us-ascii" standalone="no"?><svg xmlns="http://www.w3.org/2000/svg" xmlns:xlink="http://www.w3.org/1999/xlink" contentStyleType="text/css" height="683px" preserveAspectRatio="none" style="width:208px;height:683px;background:#FFFFFF;" version="1.1" viewBox="0 0 208 683" width="208px" zoomAndPan="magnify"><defs/><g><!--class CreateSkillController--><g id="elem_CreateSkillController"><rect codeLine="3" fill="#F1F1F1" height="66.6211" id="CreateSkillController" rx="2.5" ry="2.5" style="stroke:#181818;stroke-width:0.5;" width="162" x="23" y="116"/><ellipse cx="38" cy="132" fill="#ADD1B2" rx="11" ry="11" style="stroke:#181818;stroke-width:1.0;"/><path d="M40.7656,127.875 Q40.9219,127.6563 41.1094,127.5469 Q41.2969,127.4375 41.5156,127.4375 Q41.8906,127.4375 42.125,127.7031 Q42.3594,127.9531 42.3594,128.5625 L42.3594,130.0156 Q42.3594,130.625 42.125,130.8906 Q41.8906,131.1563 41.5156,131.1563 Q41.1719,131.1563 40.9688,130.9531 Q40.7656,130.7656 40.6563,130.25 Q40.6094,129.8906 40.4219,129.7031 Q40.0938,129.3281 39.4844,129.1094 Q38.875,128.8906 38.25,128.8906 Q37.4844,128.8906 36.8438,129.2188 Q36.2188,129.5469 35.7188,130.2969 Q35.2344,131.0469 35.2344,132.0781 L35.2344,133.1719 Q35.2344,134.4063 36.125,135.2344 Q37.0156,136.0469 38.6094,136.0469 Q39.5469,136.0469 40.2031,135.7969 Q40.5938,135.6406 41.0156,135.2031 Q41.2813,134.9375 41.4219,134.8594 Q41.5781,134.7813 41.7813,134.7813 Q42.1094,134.7813 42.3594,135.0469 Q42.625,135.2969 42.625,135.6406 Q42.625,135.9844 42.2813,136.3906 Q41.7813,136.9688 40.9844,137.2969 Q39.9063,137.75 38.6094,137.75 Q37.0938,137.75 35.8906,137.125 Q34.9063,136.625 34.2188,135.5625 Q33.5313,134.4844 33.5313,133.2031 L33.5313,132.0469 Q33.5313,130.7188 34.1406,129.5781 Q34.7656,128.4219 35.8594,127.8125 Q36.9531,127.1875 38.1875,127.1875 Q38.9219,127.1875 39.5625,127.3594 Q40.2188,127.5156 40.7656,127.875 Z " fill="#000000"/><text fill="#000000" font-family="sans-serif" font-size="14" lengthAdjust="spacing" textLength="130" x="52" y="137.7969">CreateSkillController</text><line style="stroke:#181818;stroke-width:0.5;" x1="24" x2="184" y1="148" y2="148"/><line style="stroke:#181818;stroke-width:0.5;" x1="24" x2="184" y1="156" y2="156"/><text fill="#000000" font-family="sans-serif" font-size="14" lengthAdjust="spacing" textLength="126" x="29" y="175.1074">+registerSkill(name)</text></g><!--class CreateSkillUI--><g id="elem_CreateSkillUI"><rect codeLine="8" fill="#F1F1F1" height="48" id="CreateSkillUI" rx="2.5" ry="2.5" style="stroke:#181818;stroke-width:0.5;" width="112" x="48" y="7"/><ellipse cx="63" cy="23" fill="#ADD1B2" rx="11" ry="11" style="stroke:#181818;stroke-width:1.0;"/><path d="M65.7656,18.875 Q65.9219,18.6563 66.1094,18.5469 Q66.2969,18.4375 66.5156,18.4375 Q66.8906,18.4375 67.125,18.7031 Q67.3594,18.9531 67.3594,19.5625 L67.3594,21.0156 Q67.3594,21.625 67.125,21.8906 Q66.8906,22.1563 66.5156,22.1563 Q66.1719,22.1563 65.9688,21.9531 Q65.7656,21.7656 65.6563,21.25 Q65.6094,20.8906 65.4219,20.7031 Q65.0938,20.3281 64.4844,20.1094 Q63.875,19.8906 63.25,19.8906 Q62.4844,19.8906 61.8438,20.2188 Q61.2188,20.5469 60.7188,21.2969 Q60.2344,22.0469 60.2344,23.0781 L60.2344,24.1719 Q60.2344,25.4063 61.125,26.2344 Q62.0156,27.0469 63.6094,27.0469 Q64.5469,27.0469 65.2031,26.7969 Q65.5938,26.6406 66.0156,26.2031 Q66.2813,25.9375 66.4219,25.8594 Q66.5781,25.7813 66.7813,25.7813 Q67.1094,25.7813 67.3594,26.0469 Q67.625,26.2969 67.625,26.6406 Q67.625,26.9844 67.2813,27.3906 Q66.7813,27.9688 65.9844,28.2969 Q64.9063,28.75 63.6094,28.75 Q62.0938,28.75 60.8906,28.125 Q59.9063,27.625 59.2188,26.5625 Q58.5313,25.4844 58.5313,24.2031 L58.5313,23.0469 Q58.5313,21.7188 59.1406,20.5781 Q59.7656,19.4219 60.8594,18.8125 Q61.9531,18.1875 63.1875,18.1875 Q63.9219,18.1875 64.5625,18.3594 Q65.2188,18.5156 65.7656,18.875 Z " fill="#000000"/><text fill="#000000" font-family="sans-serif" font-size="14" lengthAdjust="spacing" textLength="80" x="77" y="28.7969">CreateSkillUI</text><line style="stroke:#181818;stroke-width:0.5;" x1="49" x2="159" y1="39" y2="39"/><line style="stroke:#181818;stroke-width:0.5;" x1="49" x2="159" y1="47" y2="47"/></g><!--class Skill--><g id="elem_Skill"><rect codeLine="12" fill="#F1F1F1" height="85.2422" id="Skill" rx="2.5" ry="2.5" style="stroke:#181818;stroke-width:0.5;" width="90" x="59" y="591"/><ellipse cx="88.85" cy="607" fill="#ADD1B2" rx="11" ry="11" style="stroke:#181818;stroke-width:1.0;"/><path d="M91.6156,602.875 Q91.7719,602.6563 91.9594,602.5469 Q92.1469,602.4375 92.3656,602.4375 Q92.7406,602.4375 92.975,602.7031 Q93.2094,602.9531 93.2094,603.5625 L93.2094,605.0156 Q93.2094,605.625 92.975,605.8906 Q92.7406,606.1563 92.3656,606.1563 Q92.0219,606.1563 91.8188,605.9531 Q91.6156,605.7656 91.5063,605.25 Q91.4594,604.8906 91.2719,604.7031 Q90.9438,604.3281 90.3344,604.1094 Q89.725,603.8906 89.1,603.8906 Q88.3344,603.8906 87.6938,604.2188 Q87.0688,604.5469 86.5688,605.2969 Q86.0844,606.0469 86.0844,607.0781 L86.0844,608.1719 Q86.0844,609.4063 86.975,610.2344 Q87.8656,611.0469 89.4594,611.0469 Q90.3969,611.0469 91.0531,610.7969 Q91.4438,610.6406 91.8656,610.2031 Q92.1313,609.9375 92.2719,609.8594 Q92.4281,609.7813 92.6313,609.7813 Q92.9594,609.7813 93.2094,610.0469 Q93.475,610.2969 93.475,610.6406 Q93.475,610.9844 93.1313,611.3906 Q92.6313,611.9688 91.8344,612.2969 Q90.7563,612.75 89.4594,612.75 Q87.9438,612.75 86.7406,612.125 Q85.7563,611.625 85.0688,610.5625 Q84.3813,609.4844 84.3813,608.2031 L84.3813,607.0469 Q84.3813,605.7188 84.9906,604.5781 Q85.6156,603.4219 86.7094,602.8125 Q87.8031,602.1875 89.0375,602.1875 Q89.7719,602.1875 90.4125,602.3594 Q91.0688,602.5156 91.6156,602.875 Z " fill="#000000"/><text fill="#000000" font-family="sans-serif" font-size="14" lengthAdjust="spacing" textLength="25" x="106.15" y="612.7969">Skill</text><line style="stroke:#181818;stroke-width:0.5;" x1="60" x2="148" y1="623" y2="623"/><text fill="#000000" font-family="sans-serif" font-size="14" lengthAdjust="spacing" textLength="40" x="65" y="642.1074">-name</text><line style="stroke:#181818;stroke-width:0.5;" x1="60" x2="148" y1="649.6211" y2="649.6211"/><text fill="#000000" font-family="sans-serif" font-size="14" lengthAdjust="spacing" textLength="78" x="65" y="668.7285">+Skill(name)</text></g><!--class Repositories--><g id="elem_Repositories"><rect codeLine="17" fill="#F1F1F1" height="103.8633" id="Repositories" rx="2.5" ry="2.5" style="stroke:#181818;stroke-width:0.5;" width="194" x="7" y="262"/><ellipse cx="60.25" cy="278" fill="#ADD1B2" rx="11" ry="11" style="stroke:#181818;stroke-width:1.0;"/><path d="M63.0156,273.875 Q63.1719,273.6563 63.3594,273.5469 Q63.5469,273.4375 63.7656,273.4375 Q64.1406,273.4375 64.375,273.7031 Q64.6094,273.9531 64.6094,274.5625 L64.6094,276.0156 Q64.6094,276.625 64.375,276.8906 Q64.1406,277.1563 63.7656,277.1563 Q63.4219,277.1563 63.2188,276.9531 Q63.0156,276.7656 62.9063,276.25 Q62.8594,275.8906 62.6719,275.7031 Q62.3438,275.3281 61.7344,275.1094 Q61.125,274.8906 60.5,274.8906 Q59.7344,274.8906 59.0938,275.2188 Q58.4688,275.5469 57.9688,276.2969 Q57.4844,277.0469 57.4844,278.0781 L57.4844,279.1719 Q57.4844,280.4063 58.375,281.2344 Q59.2656,282.0469 60.8594,282.0469 Q61.7969,282.0469 62.4531,281.7969 Q62.8438,281.6406 63.2656,281.2031 Q63.5313,280.9375 63.6719,280.8594 Q63.8281,280.7813 64.0313,280.7813 Q64.3594,280.7813 64.6094,281.0469 Q64.875,281.2969 64.875,281.6406 Q64.875,281.9844 64.5313,282.3906 Q64.0313,282.9688 63.2344,283.2969 Q62.1563,283.75 60.8594,283.75 Q59.3438,283.75 58.1406,283.125 Q57.1563,282.625 56.4688,281.5625 Q55.7813,280.4844 55.7813,279.2031 L55.7813,278.0469 Q55.7813,276.7188 56.3906,275.5781 Q57.0156,274.4219 58.1094,273.8125 Q59.2031,273.1875 60.4375,273.1875 Q61.1719,273.1875 61.8125,273.3594 Q62.4688,273.5156 63.0156,273.875 Z " fill="#000000"/><text fill="#000000" font-family="sans-serif" font-size="14" lengthAdjust="spacing" textLength="79" x="80.75" y="283.7969">Repositories</text><line style="stroke:#181818;stroke-width:0.5;" x1="8" x2="200" y1="294" y2="294"/><line style="stroke:#181818;stroke-width:0.5;" x1="8" x2="200" y1="302" y2="302"/><text fill="#000000" font-family="sans-serif" font-size="14" lengthAdjust="spacing" textLength="94" x="13" y="321.1074">-Repositories()</text><text fill="#000000" font-family="sans-serif" font-size="14" lengthAdjust="spacing" textLength="182" x="13" y="339.7285">+getInstance() : Repositories</text><text fill="#000000" font-family="sans-serif" font-size="14" lengthAdjust="spacing" textLength="131" x="13" y="358.3496">+getSkillRepository()</text></g><!--class SkillRepository--><g id="elem_SkillRepository"><rect codeLine="23" fill="#F1F1F1" height="66.6211" id="SkillRepository" rx="2.5" ry="2.5" style="stroke:#181818;stroke-width:0.5;" width="125" x="41.5" y="445"/><ellipse cx="56.5" cy="461" fill="#ADD1B2" rx="11" ry="11" style="stroke:#181818;stroke-width:1.0;"/><path d="M59.2656,456.875 Q59.4219,456.6563 59.6094,456.5469 Q59.7969,456.4375 60.0156,456.4375 Q60.3906,456.4375 60.625,456.7031 Q60.8594,456.9531 60.8594,457.5625 L60.8594,459.0156 Q60.8594,459.625 60.625,459.8906 Q60.3906,460.1563 60.0156,460.1563 Q59.6719,460.1563 59.4688,459.9531 Q59.2656,459.7656 59.1563,459.25 Q59.1094,458.8906 58.9219,458.7031 Q58.5938,458.3281 57.9844,458.1094 Q57.375,457.8906 56.75,457.8906 Q55.9844,457.8906 55.3438,458.2188 Q54.7188,458.5469 54.2188,459.2969 Q53.7344,460.0469 53.7344,461.0781 L53.7344,462.1719 Q53.7344,463.4063 54.625,464.2344 Q55.5156,465.0469 57.1094,465.0469 Q58.0469,465.0469 58.7031,464.7969 Q59.0938,464.6406 59.5156,464.2031 Q59.7813,463.9375 59.9219,463.8594 Q60.0781,463.7813 60.2813,463.7813 Q60.6094,463.7813 60.8594,464.0469 Q61.125,464.2969 61.125,464.6406 Q61.125,464.9844 60.7813,465.3906 Q60.2813,465.9688 59.4844,466.2969 Q58.4063,466.75 57.1094,466.75 Q55.5938,466.75 54.3906,466.125 Q53.4063,465.625 52.7188,464.5625 Q52.0313,463.4844 52.0313,462.2031 L52.0313,461.0469 Q52.0313,459.7188 52.6406,458.5781 Q53.2656,457.4219 54.3594,456.8125 Q55.4531,456.1875 56.6875,456.1875 Q57.4219,456.1875 58.0625,456.3594 Q58.7188,456.5156 59.2656,456.875 Z " fill="#000000"/><text fill="#000000" font-family="sans-serif" font-size="14" lengthAdjust="spacing" textLength="93" x="70.5" y="466.7969">SkillRepository</text><line style="stroke:#181818;stroke-width:0.5;" x1="42.5" x2="165.5" y1="477" y2="477"/><line style="stroke:#181818;stroke-width:0.5;" x1="42.5" x2="165.5" y1="485" y2="485"/><text fill="#000000" font-family="sans-serif" font-size="14" lengthAdjust="spacing" textLength="65" x="47.5" y="504.1074">+add(skill)</text></g><!--link CreateSkillUI to CreateSkillController--><g id="link_CreateSkillUI_CreateSkillController"><path codeLine="26" d="M104,55.02 C104,72.39 104,90.46 104,109.83 " fill="none" id="CreateSkillUI-to-CreateSkillController" style="stroke:#181818;stroke-width:1.0;stroke-dasharray:7.0,7.0;"/><polygon fill="#181818" points="104,115.83,108,106.83,104,110.83,100,106.83,104,115.83" style="stroke:#181818;stroke-width:1.0;"/></g><!--link CreateSkillController to Repositories--><g id="link_CreateSkillController_Repositories"><path codeLine="27" d="M104,183.38 C104,205.92 104,230.26 104,255.92 " fill="none" id="CreateSkillController-to-Repositories" style="stroke:#181818;stroke-width:1.0;stroke-dasharray:7.0,7.0;"/><polygon fill="#181818" points="104,261.92,108,252.92,104,256.92,100,252.92,104,261.92" style="stroke:#181818;stroke-width:1.0;"/><text fill="#000000" font-family="sans-serif" font-size="13" lengthAdjust="spacing" textLength="67" x="105" y="228.0283">repositories</text></g><!--link Repositories to SkillRepository--><g id="link_Repositories_SkillRepository"><path codeLine="29" d="M104,366.42 C104,392.08 104,416.35 104,438.81 " fill="none" id="Repositories-to-SkillRepository" style="stroke:#181818;stroke-width:1.0;stroke-dasharray:7.0,7.0;"/><polygon fill="#181818" points="104,444.81,108,435.81,104,439.81,100,435.81,104,444.81" style="stroke:#181818;stroke-width:1.0;"/><text fill="#000000" font-family="sans-serif" font-size="13" lengthAdjust="spacing" textLength="85" x="105" y="411.0283">skillRepository</text></g><!--link SkillRepository to Skill--><g id="link_SkillRepository_Skill"><path codeLine="30" d="M104,512.32 C104,535.33 104,560.26 104,584.98 " fill="none" id="SkillRepository-to-Skill" style="stroke:#181818;stroke-width:1.0;stroke-dasharray:7.0,7.0;"/><polygon fill="#181818" points="104,590.98,108,581.98,104,585.98,100,581.98,104,590.98" style="stroke:#181818;stroke-width:1.0;"/><text fill="#000000" font-family="sans-serif" font-size="13" lengthAdjust="spacing" textLength="23" x="105" y="557.0283">skill</text></g><!--SRC=[RP0z3i8m34Ptdy9ZAWHYxe24cBg2E41ehIeY9CWs0o3k3cduIzMCVkzpRClHXRDbUyBMMv6rAhl3HQbfOzYv6-4IO22uOR9AkwFpVXE3SlIU6E-0hpTZwfqeyO1Di2Ugu04JqNtpYYIKoL23t6IEAPVxOTaeoriwHt4QsP7W9_DVDDKxtPCsGTI6bao5TI7zbE6FBxgQQZJN3-NVPcYxpaX2IIstMYnMqoU2wSCblrYeHlwV4WgOxF5CDKfPWR7nJNrSU080]--></g></svg>