<?xml version="1.0" encoding="us-ascii" standalone="no"?><svg xmlns="http://www.w3.org/2000/svg" xmlns:xlink="http://www.w3.org/1999/xlink" contentStyleType="text/css" height="481px" preserveAspectRatio="none" style="width:1132px;height:481px;background:#FFFFFF;" version="1.1" viewBox="0 0 1132 481" width="1132px" zoomAndPan="magnify"><defs/><g><rect fill="#FFFFFF" height="325.3281" style="stroke:#181818;stroke-width:1.0;" width="10" x="309" y="90.5332"/><rect fill="#FFFFFF" height="220.4551" style="stroke:#181818;stroke-width:1.0;" width="10" x="559" y="148.1152"/><rect fill="#FFFFFF" height="30" style="stroke:#181818;stroke-width:1.0;" width="10" x="884" y="205.6973"/><rect fill="#FFFFFF" height="30" style="stroke:#181818;stroke-width:1.0;" width="10" x="1016.5" y="293.2793"/><rect fill="none" height="271.0371" style="stroke:#000000;stroke-width:1.5;" width="910" x="216" y="105.5332"/><rect fill="none" height="175.1641" style="stroke:#000000;stroke-width:1.5;" width="652.5" x="463.5" y="163.1152"/><rect fill="none" height="80.582" style="stroke:#000000;stroke-width:1.5;" width="632.5" x="473.5" y="250.6973"/><line style="stroke:#181818;stroke-width:0.5;stroke-dasharray:5.0,5.0;" x1="314" x2="314" y1="57.2422" y2="424.8613"/><line style="stroke:#181818;stroke-width:0.5;stroke-dasharray:5.0,5.0;" x1="563.5" x2="563.5" y1="57.2422" y2="424.8613"/><line style="stroke:#181818;stroke-width:0.5;stroke-dasharray:5.0,5.0;" x1="889" x2="889" y1="57.2422" y2="424.8613"/><line style="stroke:#181818;stroke-width:0.5;stroke-dasharray:5.0,5.0;" x1="1021" x2="1021" y1="57.2422" y2="424.8613"/><rect fill="#E3E3E3" height="32.6211" rx="2.5" ry="2.5" style="stroke:#181818;stroke-width:0.5;" width="176" x="226" y="23.6211"/><text fill="#000000" font-family="sans-serif" font-size="14" lengthAdjust="spacing" textLength="162" x="233" y="45.7285">:GenerateTeamController</text><rect fill="#E3E3E3" height="32.6211" rx="2.5" ry="2.5" style="stroke:#181818;stroke-width:0.5;" width="176" x="226" y="423.8613"/><text fill="#000000" font-family="sans-serif" font-size="14" lengthAdjust="spacing" textLength="162" x="233" y="445.9688">:GenerateTeamController</text><rect fill="#E3E3E3" height="51.2422" rx="2.5" ry="2.5" style="stroke:#181818;stroke-width:0.5;" width="161" x="483.5" y="5"/><text fill="#000000" font-family="sans-serif" font-size="14" lengthAdjust="spacing" textLength="147" x="490.5" y="27.1074">collaboratorRepository:</text><text fill="#000000" font-family="sans-serif" font-size="14" lengthAdjust="spacing" textLength="146" x="491" y="45.7285">CollaboratorRepository</text><rect fill="#E3E3E3" height="51.2422" rx="2.5" ry="2.5" style="stroke:#181818;stroke-width:0.5;" width="161" x="483.5" y="423.8613"/><text fill="#000000" font-family="sans-serif" font-size="14" lengthAdjust="spacing" textLength="147" x="490.5" y="445.9688">collaboratorRepository:</text><text fill="#000000" font-family="sans-serif" font-size="14" lengthAdjust="spacing" textLength="146" x="491" y="464.5898">CollaboratorRepository</text><rect fill="#E3E3E3" height="51.2422" rx="2.5" ry="2.5" style="stroke:#181818;stroke-width:0.5;" width="96" x="841" y="5"/><text fill="#000000" font-family="sans-serif" font-size="14" lengthAdjust="spacing" textLength="75" x="851.5" y="27.1074">collaborator</text><text fill="#000000" font-family="sans-serif" font-size="14" lengthAdjust="spacing" textLength="82" x="848" y="45.7285">:Collaborator</text><rect fill="#E3E3E3" height="51.2422" rx="2.5" ry="2.5" style="stroke:#181818;stroke-width:0.5;" width="96" x="841" y="423.8613"/><text fill="#000000" font-family="sans-serif" font-size="14" lengthAdjust="spacing" textLength="75" x="851.5" y="445.9688">collaborator</text><text fill="#000000" font-family="sans-serif" font-size="14" lengthAdjust="spacing" textLength="82" x="848" y="464.5898">:Collaborator</text><rect fill="#E3E3E3" height="51.2422" rx="2.5" ry="2.5" style="stroke:#181818;stroke-width:0.5;" width="149" x="947" y="5"/><text fill="#000000" font-family="sans-serif" font-size="14" lengthAdjust="spacing" textLength="135" x="954" y="27.1074">tempCollaboratorList:</text><text fill="#000000" font-family="sans-serif" font-size="14" lengthAdjust="spacing" textLength="116" x="963.5" y="45.7285">List&lt;Collaborator&gt;</text><rect fill="#E3E3E3" height="51.2422" rx="2.5" ry="2.5" style="stroke:#181818;stroke-width:0.5;" width="149" x="947" y="423.8613"/><text fill="#000000" font-family="sans-serif" font-size="14" lengthAdjust="spacing" textLength="135" x="954" y="445.9688">tempCollaboratorList:</text><text fill="#000000" font-family="sans-serif" font-size="14" lengthAdjust="spacing" textLength="116" x="963.5" y="464.5898">List&lt;Collaborator&gt;</text><rect fill="#FFFFFF" height="325.3281" style="stroke:#181818;stroke-width:1.0;" width="10" x="309" y="90.5332"/><rect fill="#FFFFFF" height="220.4551" style="stroke:#181818;stroke-width:1.0;" width="10" x="559" y="148.1152"/><rect fill="#FFFFFF" height="30" style="stroke:#181818;stroke-width:1.0;" width="10" x="884" y="205.6973"/><rect fill="#FFFFFF" height="30" style="stroke:#181818;stroke-width:1.0;" width="10" x="1016.5" y="293.2793"/><polygon fill="#181818" points="297,86.5332,307,90.5332,297,94.5332,301,90.5332" style="stroke:#181818;stroke-width:1.0;"/><line style="stroke:#181818;stroke-width:1.0;" x1="0" x2="303" y1="90.5332" y2="90.5332"/><text fill="#000000" font-family="sans-serif" font-size="13" font-weight="bold" lengthAdjust="spacing" textLength="14" x="7" y="85.2705">21</text><text fill="#000000" font-family="sans-serif" font-size="13" lengthAdjust="spacing" textLength="272" x="25" y="85.2705">selectCollaboratorsForTeam(selectedSkillsList)</text><path d="M216,105.5332 L420,105.5332 L420,114.8242 L410,124.8242 L216,124.8242 L216,105.5332 " fill="#EEEEEE" style="stroke:#000000;stroke-width:1.5;"/><rect fill="none" height="271.0371" style="stroke:#000000;stroke-width:1.5;" width="910" x="216" y="105.5332"/><text fill="#000000" font-family="sans-serif" font-size="13" font-weight="bold" lengthAdjust="spacing" textLength="159" x="231" y="120.5615">Generate Team Proposal</text><polygon fill="#181818" points="547,144.1152,557,148.1152,547,152.1152,551,148.1152" style="stroke:#181818;stroke-width:1.0;"/><line style="stroke:#181818;stroke-width:1.0;" x1="319" x2="553" y1="148.1152" y2="148.1152"/><text fill="#000000" font-family="sans-serif" font-size="13" font-weight="bold" lengthAdjust="spacing" textLength="25" x="326" y="142.8525">21.1</text><text fill="#000000" font-family="sans-serif" font-size="13" lengthAdjust="spacing" textLength="192" x="355" y="142.8525">generateTeam(selectedSkillsList)</text><path d="M463.5,163.1152 L536.5,163.1152 L536.5,172.4063 L526.5,182.4063 L463.5,182.4063 L463.5,163.1152 " fill="#EEEEEE" style="stroke:#000000;stroke-width:1.5;"/><rect fill="none" height="175.1641" style="stroke:#000000;stroke-width:1.5;" width="652.5" x="463.5" y="163.1152"/><text fill="#000000" font-family="sans-serif" font-size="13" font-weight="bold" lengthAdjust="spacing" textLength="28" x="478.5" y="178.1436">loop</text><text fill="#000000" font-family="sans-serif" font-size="11" font-weight="bold" lengthAdjust="spacing" textLength="306" x="551.5" y="176.9854">[for each available collaborator in tempCollaboratorList]</text><polygon fill="#181818" points="872,201.6973,882,205.6973,872,209.6973,876,205.6973" style="stroke:#181818;stroke-width:1.0;"/><line style="stroke:#181818;stroke-width:1.0;" x1="569" x2="878" y1="205.6973" y2="205.6973"/><text fill="#000000" font-family="sans-serif" font-size="13" font-weight="bold" lengthAdjust="spacing" textLength="25" x="576" y="200.4346">21.2</text><text fill="#000000" font-family="sans-serif" font-size="13" lengthAdjust="spacing" textLength="267" x="605" y="200.4346">res = teamDefinitionCriteria(selectedSkillsList)</text><path d="M473.5,250.6973 L538.5,250.6973 L538.5,259.9883 L528.5,269.9883 L473.5,269.9883 L473.5,250.6973 " fill="#EEEEEE" style="stroke:#000000;stroke-width:1.5;"/><rect fill="none" height="80.582" style="stroke:#000000;stroke-width:1.5;" width="632.5" x="473.5" y="250.6973"/><text fill="#000000" font-family="sans-serif" font-size="13" font-weight="bold" lengthAdjust="spacing" textLength="20" x="488.5" y="265.7256">opt</text><text fill="#000000" font-family="sans-serif" font-size="11" font-weight="bold" lengthAdjust="spacing" textLength="72" x="553.5" y="264.5674">[res == false]</text><polygon fill="#181818" points="1004.5,289.2793,1014.5,293.2793,1004.5,297.2793,1008.5,293.2793" style="stroke:#181818;stroke-width:1.0;"/><line style="stroke:#181818;stroke-width:1.0;" x1="569" x2="1010.5" y1="293.2793" y2="293.2793"/><text fill="#000000" font-family="sans-serif" font-size="13" font-weight="bold" lengthAdjust="spacing" textLength="25" x="576" y="288.0166">21.3</text><text fill="#000000" font-family="sans-serif" font-size="13" lengthAdjust="spacing" textLength="116" x="605" y="288.0166">remove(collaborator)</text><polygon fill="#181818" points="330,364.5703,320,368.5703,330,372.5703,326,368.5703" style="stroke:#181818;stroke-width:1.0;"/><line style="stroke:#181818;stroke-width:1.0;stroke-dasharray:2.0,2.0;" x1="324" x2="563" y1="368.5703" y2="368.5703"/><text fill="#000000" font-family="sans-serif" font-size="13" font-weight="bold" lengthAdjust="spacing" textLength="25" x="336" y="363.3076">21.4</text><text fill="#000000" font-family="sans-serif" font-size="13" lengthAdjust="spacing" textLength="119" x="365" y="363.3076">tempCollaboratorList</text><polygon fill="#181818" points="11,402.8613,1,406.8613,11,410.8613,7,406.8613" style="stroke:#181818;stroke-width:1.0;"/><line style="stroke:#181818;stroke-width:1.0;stroke-dasharray:2.0,2.0;" x1="5" x2="308" y1="406.8613" y2="406.8613"/><text fill="#000000" font-family="sans-serif" font-size="13" font-weight="bold" lengthAdjust="spacing" textLength="14" x="17" y="401.5986">22</text><text fill="#000000" font-family="sans-serif" font-size="13" lengthAdjust="spacing" textLength="126" x="35" y="401.5986">tempCollaboratorsList</text><!--SRC=[fPInRW8n38RtF8NLfNIWKZkYqeMgNJfKBIEBkJDt4KbyIW8jRz_aJa1E146lNa1d_uxzsObRIzEWHGsQ3HUrPKtWxOQ4EtWQBDPOqPVVAG9BXKTJgJJ0rLZojpGLh50v4W8tdir6Byd2uuCGjxKi2LRCVia_8cYyB6I3niFDv8qCMVGq9zGpDjwoKcHl01tCvf_leXzU12ykEGZOVbB3JeO_kyd2pBAEBatMTJxlmanIIPAZh_6acpJmNJeVAea_J-dtvpP3Bbe80S76psshC057Ak1DmzmhsuXcrBce_5fBfLnKtxNYlM7XvJPmxAZrFEamxXzwlihofe7z322U11-M0oHKeXSPhQqoLfib6kglac5Uh3XdnoxoGxkO89fYRiAsMI0iQi0jof0gh6uwP90cFv9h3ZZJ_u5C8679mJISWFg5Lj98BzdChFHa9GuYaw5p7OsI1icuyLqJq_sb_X-P7EoMa-OjZTBH_955_cBzaSpm96JAoEhwuBYT_uDvV2y6RV39Gbo-PR7kzgauyQIFosCdV1gFpzNNxlel]--></g></svg>