<?xml version="1.0" encoding="us-ascii" standalone="no"?><svg xmlns="http://www.w3.org/2000/svg" xmlns:xlink="http://www.w3.org/1999/xlink" contentStyleType="text/css" height="1537px" preserveAspectRatio="none" style="width:921px;height:1537px;background:#FFFFFF;" version="1.1" viewBox="0 0 921 1537" width="921px" zoomAndPan="magnify"><defs/><g><!--class GenerateTeamUI--><g id="elem_GenerateTeamUI"><rect codeLine="11" fill="#F1F1F1" height="48" id="GenerateTeamUI" rx="2.5" ry="2.5" style="stroke:#181818;stroke-width:0.5;" width="140" x="416.5" y="7"/><ellipse cx="431.5" cy="23" fill="#ADD1B2" rx="11" ry="11" style="stroke:#181818;stroke-width:1.0;"/><path d="M434.2656,18.875 Q434.4219,18.6563 434.6094,18.5469 Q434.7969,18.4375 435.0156,18.4375 Q435.3906,18.4375 435.625,18.7031 Q435.8594,18.9531 435.8594,19.5625 L435.8594,21.0156 Q435.8594,21.625 435.625,21.8906 Q435.3906,22.1563 435.0156,22.1563 Q434.6719,22.1563 434.4688,21.9531 Q434.2656,21.7656 434.1563,21.25 Q434.1094,20.8906 433.9219,20.7031 Q433.5938,20.3281 432.9844,20.1094 Q432.375,19.8906 431.75,19.8906 Q430.9844,19.8906 430.3438,20.2188 Q429.7188,20.5469 429.2188,21.2969 Q428.7344,22.0469 428.7344,23.0781 L428.7344,24.1719 Q428.7344,25.4063 429.625,26.2344 Q430.5156,27.0469 432.1094,27.0469 Q433.0469,27.0469 433.7031,26.7969 Q434.0938,26.6406 434.5156,26.2031 Q434.7813,25.9375 434.9219,25.8594 Q435.0781,25.7813 435.2813,25.7813 Q435.6094,25.7813 435.8594,26.0469 Q436.125,26.2969 436.125,26.6406 Q436.125,26.9844 435.7813,27.3906 Q435.2813,27.9688 434.4844,28.2969 Q433.4063,28.75 432.1094,28.75 Q430.5938,28.75 429.3906,28.125 Q428.4063,27.625 427.7188,26.5625 Q427.0313,25.4844 427.0313,24.2031 L427.0313,23.0469 Q427.0313,21.7188 427.6406,20.5781 Q428.2656,19.4219 429.3594,18.8125 Q430.4531,18.1875 431.6875,18.1875 Q432.4219,18.1875 433.0625,18.3594 Q433.7188,18.5156 434.2656,18.875 Z " fill="#000000"/><text fill="#000000" font-family="sans-serif" font-size="14" lengthAdjust="spacing" textLength="108" x="445.5" y="28.7969">GenerateTeamUI</text><line style="stroke:#181818;stroke-width:0.5;" x1="417.5" x2="555.5" y1="39" y2="39"/><line style="stroke:#181818;stroke-width:0.5;" x1="417.5" x2="555.5" y1="47" y2="47"/></g><!--class GenerateTeamController--><g id="elem_GenerateTeamController"><rect codeLine="16" fill="#F1F1F1" height="196.9688" id="GenerateTeamController" rx="2.5" ry="2.5" style="stroke:#181818;stroke-width:0.5;" width="314" x="329.5" y="116"/><ellipse cx="403.25" cy="132" fill="#ADD1B2" rx="11" ry="11" style="stroke:#181818;stroke-width:1.0;"/><path d="M406.0156,127.875 Q406.1719,127.6563 406.3594,127.5469 Q406.5469,127.4375 406.7656,127.4375 Q407.1406,127.4375 407.375,127.7031 Q407.6094,127.9531 407.6094,128.5625 L407.6094,130.0156 Q407.6094,130.625 407.375,130.8906 Q407.1406,131.1563 406.7656,131.1563 Q406.4219,131.1563 406.2188,130.9531 Q406.0156,130.7656 405.9063,130.25 Q405.8594,129.8906 405.6719,129.7031 Q405.3438,129.3281 404.7344,129.1094 Q404.125,128.8906 403.5,128.8906 Q402.7344,128.8906 402.0938,129.2188 Q401.4688,129.5469 400.9688,130.2969 Q400.4844,131.0469 400.4844,132.0781 L400.4844,133.1719 Q400.4844,134.4063 401.375,135.2344 Q402.2656,136.0469 403.8594,136.0469 Q404.7969,136.0469 405.4531,135.7969 Q405.8438,135.6406 406.2656,135.2031 Q406.5313,134.9375 406.6719,134.8594 Q406.8281,134.7813 407.0313,134.7813 Q407.3594,134.7813 407.6094,135.0469 Q407.875,135.2969 407.875,135.6406 Q407.875,135.9844 407.5313,136.3906 Q407.0313,136.9688 406.2344,137.2969 Q405.1563,137.75 403.8594,137.75 Q402.3438,137.75 401.1406,137.125 Q400.1563,136.625 399.4688,135.5625 Q398.7813,134.4844 398.7813,133.2031 L398.7813,132.0469 Q398.7813,130.7188 399.3906,129.5781 Q400.0156,128.4219 401.1094,127.8125 Q402.2031,127.1875 403.4375,127.1875 Q404.1719,127.1875 404.8125,127.3594 Q405.4688,127.5156 406.0156,127.875 Z " fill="#000000"/><text fill="#000000" font-family="sans-serif" font-size="14" lengthAdjust="spacing" textLength="158" x="423.75" y="137.7969">GenerateTeamController</text><line style="stroke:#181818;stroke-width:0.5;" x1="330.5" x2="642.5" y1="148" y2="148"/><line style="stroke:#181818;stroke-width:0.5;" x1="330.5" x2="642.5" y1="156" y2="156"/><text fill="#000000" font-family="sans-serif" font-size="14" lengthAdjust="spacing" textLength="176" x="335.5" y="175.1074">+GenerateTeamController()</text><text fill="#000000" font-family="sans-serif" font-size="14" lengthAdjust="spacing" textLength="70" x="335.5" y="193.7285">+getSkills()</text><text fill="#000000" font-family="sans-serif" font-size="14" lengthAdjust="spacing" textLength="217" x="335.5" y="212.3496">+addSelectedSkillName(skillName)</text><text fill="#000000" font-family="sans-serif" font-size="14" lengthAdjust="spacing" textLength="302" x="335.5" y="230.9707">+generateTeamProposal(minCollab, maxCollab)</text><text fill="#000000" font-family="sans-serif" font-size="14" lengthAdjust="spacing" textLength="233" x="335.5" y="249.5918">+registerTeam(tempCollaboratorList)</text><text fill="#000000" font-family="sans-serif" font-size="14" lengthAdjust="spacing" textLength="144" x="335.5" y="268.2129">-getSelectedSkillsList()</text><text fill="#000000" font-family="sans-serif" font-size="14" lengthAdjust="spacing" textLength="219" x="335.5" y="286.834">-createAvailableCollaboratorsList()</text><text fill="#000000" font-family="sans-serif" font-size="14" lengthAdjust="spacing" textLength="302" x="335.5" y="305.4551">-selectCollaboratorsForTeam(selectedSkillsList)</text></g><!--class Repositories--><g id="elem_Repositories"><rect codeLine="31" fill="#F1F1F1" height="141.1055" id="Repositories" rx="2.5" ry="2.5" style="stroke:#181818;stroke-width:0.5;" width="196" x="219.5" y="472"/><ellipse cx="273.75" cy="488" fill="#ADD1B2" rx="11" ry="11" style="stroke:#181818;stroke-width:1.0;"/><path d="M276.5156,483.875 Q276.6719,483.6563 276.8594,483.5469 Q277.0469,483.4375 277.2656,483.4375 Q277.6406,483.4375 277.875,483.7031 Q278.1094,483.9531 278.1094,484.5625 L278.1094,486.0156 Q278.1094,486.625 277.875,486.8906 Q277.6406,487.1563 277.2656,487.1563 Q276.9219,487.1563 276.7188,486.9531 Q276.5156,486.7656 276.4063,486.25 Q276.3594,485.8906 276.1719,485.7031 Q275.8438,485.3281 275.2344,485.1094 Q274.625,484.8906 274,484.8906 Q273.2344,484.8906 272.5938,485.2188 Q271.9688,485.5469 271.4688,486.2969 Q270.9844,487.0469 270.9844,488.0781 L270.9844,489.1719 Q270.9844,490.4063 271.875,491.2344 Q272.7656,492.0469 274.3594,492.0469 Q275.2969,492.0469 275.9531,491.7969 Q276.3438,491.6406 276.7656,491.2031 Q277.0313,490.9375 277.1719,490.8594 Q277.3281,490.7813 277.5313,490.7813 Q277.8594,490.7813 278.1094,491.0469 Q278.375,491.2969 278.375,491.6406 Q278.375,491.9844 278.0313,492.3906 Q277.5313,492.9688 276.7344,493.2969 Q275.6563,493.75 274.3594,493.75 Q272.8438,493.75 271.6406,493.125 Q270.6563,492.625 269.9688,491.5625 Q269.2813,490.4844 269.2813,489.2031 L269.2813,488.0469 Q269.2813,486.7188 269.8906,485.5781 Q270.5156,484.4219 271.6094,483.8125 Q272.7031,483.1875 273.9375,483.1875 Q274.6719,483.1875 275.3125,483.3594 Q275.9688,483.5156 276.5156,483.875 Z " fill="#000000"/><text fill="#000000" font-family="sans-serif" font-size="14" lengthAdjust="spacing" textLength="79" x="294.25" y="493.7969">Repositories</text><line style="stroke:#181818;stroke-width:0.5;" x1="220.5" x2="414.5" y1="504" y2="504"/><line style="stroke:#181818;stroke-width:0.5;" x1="220.5" x2="414.5" y1="512" y2="512"/><text fill="#000000" font-family="sans-serif" font-size="14" lengthAdjust="spacing" textLength="94" x="225.5" y="531.1074">-Repositories()</text><text fill="#000000" font-family="sans-serif" font-size="14" lengthAdjust="spacing" textLength="182" x="225.5" y="549.7285">+getInstance() : Repositories</text><text fill="#000000" font-family="sans-serif" font-size="14" lengthAdjust="spacing" textLength="131" x="225.5" y="568.3496">+getSkillRepository()</text><text fill="#000000" font-family="sans-serif" font-size="14" lengthAdjust="spacing" textLength="184" x="225.5" y="586.9707">+getCollaboratorRepository()</text><text fill="#000000" font-family="sans-serif" font-size="14" lengthAdjust="spacing" textLength="142" x="225.5" y="605.5918">+getTeamRepository()</text></g><!--class SkillRepository--><g id="elem_SkillRepository"><rect codeLine="42" fill="#F1F1F1" height="141.1055" id="SkillRepository" rx="2.5" ry="2.5" style="stroke:#181818;stroke-width:0.5;" width="241" x="7" y="674"/><ellipse cx="76.75" cy="690" fill="#ADD1B2" rx="11" ry="11" style="stroke:#181818;stroke-width:1.0;"/><path d="M79.5156,685.875 Q79.6719,685.6563 79.8594,685.5469 Q80.0469,685.4375 80.2656,685.4375 Q80.6406,685.4375 80.875,685.7031 Q81.1094,685.9531 81.1094,686.5625 L81.1094,688.0156 Q81.1094,688.625 80.875,688.8906 Q80.6406,689.1563 80.2656,689.1563 Q79.9219,689.1563 79.7188,688.9531 Q79.5156,688.7656 79.4063,688.25 Q79.3594,687.8906 79.1719,687.7031 Q78.8438,687.3281 78.2344,687.1094 Q77.625,686.8906 77,686.8906 Q76.2344,686.8906 75.5938,687.2188 Q74.9688,687.5469 74.4688,688.2969 Q73.9844,689.0469 73.9844,690.0781 L73.9844,691.1719 Q73.9844,692.4063 74.875,693.2344 Q75.7656,694.0469 77.3594,694.0469 Q78.2969,694.0469 78.9531,693.7969 Q79.3438,693.6406 79.7656,693.2031 Q80.0313,692.9375 80.1719,692.8594 Q80.3281,692.7813 80.5313,692.7813 Q80.8594,692.7813 81.1094,693.0469 Q81.375,693.2969 81.375,693.6406 Q81.375,693.9844 81.0313,694.3906 Q80.5313,694.9688 79.7344,695.2969 Q78.6563,695.75 77.3594,695.75 Q75.8438,695.75 74.6406,695.125 Q73.6563,694.625 72.9688,693.5625 Q72.2813,692.4844 72.2813,691.2031 L72.2813,690.0469 Q72.2813,688.7188 72.8906,687.5781 Q73.5156,686.4219 74.6094,685.8125 Q75.7031,685.1875 76.9375,685.1875 Q77.6719,685.1875 78.3125,685.3594 Q78.9688,685.5156 79.5156,685.875 Z " fill="#000000"/><text fill="#000000" font-family="sans-serif" font-size="14" lengthAdjust="spacing" textLength="93" x="97.25" y="695.7969">SkillRepository</text><line style="stroke:#181818;stroke-width:0.5;" x1="8" x2="247" y1="706" y2="706"/><line style="stroke:#181818;stroke-width:0.5;" x1="8" x2="247" y1="714" y2="714"/><text fill="#000000" font-family="sans-serif" font-size="14" lengthAdjust="spacing" textLength="70" x="13" y="733.1074">+getSkills()</text><text fill="#000000" font-family="sans-serif" font-size="14" lengthAdjust="spacing" textLength="167" x="13" y="751.7285">+createSelectedSkillsList()</text><text fill="#000000" font-family="sans-serif" font-size="14" lengthAdjust="spacing" textLength="181" x="13" y="770.3496">+addSelectedSkill(skillName)</text><text fill="#000000" font-family="sans-serif" font-size="14" lengthAdjust="spacing" textLength="229" x="13" y="788.9707">+getSkillByName(selectedSkillName)</text><text fill="#000000" font-family="sans-serif" font-size="14" lengthAdjust="spacing" textLength="147" x="13" y="807.5918">+getSelectedSkillsList()</text></g><!--class CollaboratorRepository--><g id="elem_CollaboratorRepository"><rect codeLine="51" fill="#F1F1F1" height="85.2422" id="CollaboratorRepository" rx="2.5" ry="2.5" style="stroke:#181818;stroke-width:0.5;" width="230" x="283.5" y="702"/><ellipse cx="321.9" cy="718" fill="#ADD1B2" rx="11" ry="11" style="stroke:#181818;stroke-width:1.0;"/><path d="M324.6656,713.875 Q324.8219,713.6563 325.0094,713.5469 Q325.1969,713.4375 325.4156,713.4375 Q325.7906,713.4375 326.025,713.7031 Q326.2594,713.9531 326.2594,714.5625 L326.2594,716.0156 Q326.2594,716.625 326.025,716.8906 Q325.7906,717.1563 325.4156,717.1563 Q325.0719,717.1563 324.8688,716.9531 Q324.6656,716.7656 324.5563,716.25 Q324.5094,715.8906 324.3219,715.7031 Q323.9938,715.3281 323.3844,715.1094 Q322.775,714.8906 322.15,714.8906 Q321.3844,714.8906 320.7438,715.2188 Q320.1188,715.5469 319.6188,716.2969 Q319.1344,717.0469 319.1344,718.0781 L319.1344,719.1719 Q319.1344,720.4063 320.025,721.2344 Q320.9156,722.0469 322.5094,722.0469 Q323.4469,722.0469 324.1031,721.7969 Q324.4938,721.6406 324.9156,721.2031 Q325.1813,720.9375 325.3219,720.8594 Q325.4781,720.7813 325.6813,720.7813 Q326.0094,720.7813 326.2594,721.0469 Q326.525,721.2969 326.525,721.6406 Q326.525,721.9844 326.1813,722.3906 Q325.6813,722.9688 324.8844,723.2969 Q323.8063,723.75 322.5094,723.75 Q320.9938,723.75 319.7906,723.125 Q318.8063,722.625 318.1188,721.5625 Q317.4313,720.4844 317.4313,719.2031 L317.4313,718.0469 Q317.4313,716.7188 318.0406,715.5781 Q318.6656,714.4219 319.7594,713.8125 Q320.8531,713.1875 322.0875,713.1875 Q322.8219,713.1875 323.4625,713.3594 Q324.1188,713.5156 324.6656,713.875 Z " fill="#000000"/><text fill="#000000" font-family="sans-serif" font-size="14" lengthAdjust="spacing" textLength="146" x="341.1" y="723.7969">CollaboratorRepository</text><line style="stroke:#181818;stroke-width:0.5;" x1="284.5" x2="512.5" y1="734" y2="734"/><line style="stroke:#181818;stroke-width:0.5;" x1="284.5" x2="512.5" y1="742" y2="742"/><text fill="#000000" font-family="sans-serif" font-size="14" lengthAdjust="spacing" textLength="194" x="289.5" y="761.1074">+createTempCollaboratorList()</text><text fill="#000000" font-family="sans-serif" font-size="14" lengthAdjust="spacing" textLength="218" x="289.5" y="779.7285">+generateTeam(selectedSkillsList)</text></g><!--class TeamRepository--><g id="elem_TeamRepository"><rect codeLine="57" fill="#F1F1F1" height="103.8633" id="TeamRepository" rx="2.5" ry="2.5" style="stroke:#181818;stroke-width:0.5;" width="366" x="548.5" y="692.5"/><ellipse cx="675.25" cy="708.5" fill="#ADD1B2" rx="11" ry="11" style="stroke:#181818;stroke-width:1.0;"/><path d="M678.0156,704.375 Q678.1719,704.1563 678.3594,704.0469 Q678.5469,703.9375 678.7656,703.9375 Q679.1406,703.9375 679.375,704.2031 Q679.6094,704.4531 679.6094,705.0625 L679.6094,706.5156 Q679.6094,707.125 679.375,707.3906 Q679.1406,707.6563 678.7656,707.6563 Q678.4219,707.6563 678.2188,707.4531 Q678.0156,707.2656 677.9063,706.75 Q677.8594,706.3906 677.6719,706.2031 Q677.3438,705.8281 676.7344,705.6094 Q676.125,705.3906 675.5,705.3906 Q674.7344,705.3906 674.0938,705.7188 Q673.4688,706.0469 672.9688,706.7969 Q672.4844,707.5469 672.4844,708.5781 L672.4844,709.6719 Q672.4844,710.9063 673.375,711.7344 Q674.2656,712.5469 675.8594,712.5469 Q676.7969,712.5469 677.4531,712.2969 Q677.8438,712.1406 678.2656,711.7031 Q678.5313,711.4375 678.6719,711.3594 Q678.8281,711.2813 679.0313,711.2813 Q679.3594,711.2813 679.6094,711.5469 Q679.875,711.7969 679.875,712.1406 Q679.875,712.4844 679.5313,712.8906 Q679.0313,713.4688 678.2344,713.7969 Q677.1563,714.25 675.8594,714.25 Q674.3438,714.25 673.1406,713.625 Q672.1563,713.125 671.4688,712.0625 Q670.7813,710.9844 670.7813,709.7031 L670.7813,708.5469 Q670.7813,707.2188 671.3906,706.0781 Q672.0156,704.9219 673.1094,704.3125 Q674.2031,703.6875 675.4375,703.6875 Q676.1719,703.6875 676.8125,703.8594 Q677.4688,704.0156 678.0156,704.375 Z " fill="#000000"/><text fill="#000000" font-family="sans-serif" font-size="14" lengthAdjust="spacing" textLength="104" x="695.75" y="714.2969">TeamRepository</text><line style="stroke:#181818;stroke-width:0.5;" x1="549.5" x2="913.5" y1="724.5" y2="724.5"/><line style="stroke:#181818;stroke-width:0.5;" x1="549.5" x2="913.5" y1="732.5" y2="732.5"/><text fill="#000000" font-family="sans-serif" font-size="14" lengthAdjust="spacing" textLength="354" x="554.5" y="751.6074">+removeUnavailableCollaborators(tempCollaboratorList)</text><text fill="#000000" font-family="sans-serif" font-size="14" lengthAdjust="spacing" textLength="233" x="554.5" y="770.2285">+registerTeam(tempCollaboratorList)</text><text fill="#000000" font-family="sans-serif" font-size="14" lengthAdjust="spacing" textLength="106" x="554.5" y="788.8496">-addTeam(team)</text></g><!--class Collaborator--><g id="elem_Collaborator"><rect codeLine="64" fill="#F1F1F1" height="290.0742" id="Collaborator" rx="2.5" ry="2.5" style="stroke:#181818;stroke-width:0.5;" width="343" x="227" y="1058"/><ellipse cx="355.25" cy="1074" fill="#ADD1B2" rx="11" ry="11" style="stroke:#181818;stroke-width:1.0;"/><path d="M358.0156,1069.875 Q358.1719,1069.6563 358.3594,1069.5469 Q358.5469,1069.4375 358.7656,1069.4375 Q359.1406,1069.4375 359.375,1069.7031 Q359.6094,1069.9531 359.6094,1070.5625 L359.6094,1072.0156 Q359.6094,1072.625 359.375,1072.8906 Q359.1406,1073.1563 358.7656,1073.1563 Q358.4219,1073.1563 358.2188,1072.9531 Q358.0156,1072.7656 357.9063,1072.25 Q357.8594,1071.8906 357.6719,1071.7031 Q357.3438,1071.3281 356.7344,1071.1094 Q356.125,1070.8906 355.5,1070.8906 Q354.7344,1070.8906 354.0938,1071.2188 Q353.4688,1071.5469 352.9688,1072.2969 Q352.4844,1073.0469 352.4844,1074.0781 L352.4844,1075.1719 Q352.4844,1076.4063 353.375,1077.2344 Q354.2656,1078.0469 355.8594,1078.0469 Q356.7969,1078.0469 357.4531,1077.7969 Q357.8438,1077.6406 358.2656,1077.2031 Q358.5313,1076.9375 358.6719,1076.8594 Q358.8281,1076.7813 359.0313,1076.7813 Q359.3594,1076.7813 359.6094,1077.0469 Q359.875,1077.2969 359.875,1077.6406 Q359.875,1077.9844 359.5313,1078.3906 Q359.0313,1078.9688 358.2344,1079.2969 Q357.1563,1079.75 355.8594,1079.75 Q354.3438,1079.75 353.1406,1079.125 Q352.1563,1078.625 351.4688,1077.5625 Q350.7813,1076.4844 350.7813,1075.2031 L350.7813,1074.0469 Q350.7813,1072.7188 351.3906,1071.5781 Q352.0156,1070.4219 353.1094,1069.8125 Q354.2031,1069.1875 355.4375,1069.1875 Q356.1719,1069.1875 356.8125,1069.3594 Q357.4688,1069.5156 358.0156,1069.875 Z " fill="#000000"/><text fill="#000000" font-family="sans-serif" font-size="14" lengthAdjust="spacing" textLength="78" x="375.75" y="1079.7969">Collaborator</text><line style="stroke:#181818;stroke-width:0.5;" x1="228" x2="569" y1="1090" y2="1090"/><text fill="#000000" font-family="sans-serif" font-size="14" lengthAdjust="spacing" textLength="81" x="233" y="1109.1074">-String name</text><text fill="#000000" font-family="sans-serif" font-size="14" lengthAdjust="spacing" textLength="123" x="233" y="1127.7285">-Calendar birthdate</text><text fill="#000000" font-family="sans-serif" font-size="14" lengthAdjust="spacing" textLength="160" x="233" y="1146.3496">-Calendar admissionDate</text><text fill="#000000" font-family="sans-serif" font-size="14" lengthAdjust="spacing" textLength="97" x="233" y="1164.9707">-String address</text><text fill="#000000" font-family="sans-serif" font-size="14" lengthAdjust="spacing" textLength="142" x="233" y="1183.5918">-Integer phoneNumber</text><text fill="#000000" font-family="sans-serif" font-size="14" lengthAdjust="spacing" textLength="79" x="233" y="1202.2129">-String email</text><text fill="#000000" font-family="sans-serif" font-size="14" lengthAdjust="spacing" textLength="156" x="233" y="1220.834">-Integer taxpayerNumber</text><text fill="#000000" font-family="sans-serif" font-size="14" lengthAdjust="spacing" textLength="238" x="233" y="1239.4551">-String identificationDocumentNumber</text><line style="stroke:#181818;stroke-width:0.5;" x1="228" x2="569" y1="1246.9688" y2="1246.9688"/><text fill="#000000" font-family="sans-serif" font-size="14" lengthAdjust="spacing" textLength="194" x="233" y="1266.0762">+Collaborator(name, birthdate,</text><text fill="#000000" font-family="sans-serif" font-size="14" lengthAdjust="spacing" textLength="253" x="233" y="1284.6973">admissionDate, address, phoneNumber,</text><text fill="#000000" font-family="sans-serif" font-size="14" lengthAdjust="spacing" textLength="331" x="233" y="1303.3184">email, taxpayerNumber, identificationDocumentType,</text><text fill="#000000" font-family="sans-serif" font-size="14" lengthAdjust="spacing" textLength="224" x="233" y="1321.9395">identificationDocumentNumber, job)</text><text fill="#000000" font-family="sans-serif" font-size="14" lengthAdjust="spacing" textLength="261" x="233" y="1340.5605">+teamDefinitionCriteria(selectedSkillsList)</text></g><!--class DocType--><g id="elem_DocType"><rect codeLine="78" fill="#F1F1F1" height="103.8633" id="DocType" rx="2.5" ry="2.5" style="stroke:#181818;stroke-width:0.5;" width="89" x="354" y="1427"/><ellipse cx="369" cy="1443" fill="#EB937F" rx="11" ry="11" style="stroke:#181818;stroke-width:1.0;"/><path d="M367.8594,1443.7969 L367.8594,1446.2969 L372.1875,1446.2969 L372.1875,1445.375 Q372.1875,1444.7656 372.4219,1444.5 Q372.6719,1444.2344 373.0469,1444.2344 Q373.4219,1444.2344 373.6563,1444.5 Q373.8906,1444.7656 373.8906,1445.375 L373.8906,1448 L365.8906,1448 Q365.2656,1448 365,1447.7656 Q364.75,1447.5313 364.75,1447.1406 Q364.75,1446.7656 365.0156,1446.5313 Q365.2813,1446.2969 365.8906,1446.2969 L366.1563,1446.2969 L366.1563,1439.6406 L365.8906,1439.6406 Q365.2656,1439.6406 365,1439.4063 Q364.75,1439.1719 364.75,1438.7813 Q364.75,1438.4063 365,1438.1719 Q365.2656,1437.9375 365.8906,1437.9375 L373.5156,1437.9375 L373.5156,1440.5313 Q373.5156,1441.1406 373.2813,1441.4063 Q373.0625,1441.6563 372.6719,1441.6563 Q372.2969,1441.6563 372.0625,1441.4063 Q371.8281,1441.1406 371.8281,1440.5313 L371.8281,1439.6406 L367.8594,1439.6406 L367.8594,1442.0938 L369.3438,1442.0938 Q369.3438,1441.4375 369.4688,1441.25 Q369.7344,1440.8438 370.2031,1440.8438 Q370.5781,1440.8438 370.8125,1441.1094 Q371.0469,1441.3594 371.0469,1441.9688 L371.0469,1443.9375 Q371.0469,1444.4844 370.9219,1444.6719 Q370.6563,1445.0625 370.2031,1445.0625 Q369.7344,1445.0625 369.4688,1444.6563 Q369.3438,1444.4688 369.3438,1443.7969 L367.8594,1443.7969 Z " fill="#000000"/><text fill="#000000" font-family="sans-serif" font-size="14" lengthAdjust="spacing" textLength="57" x="383" y="1448.7969">DocType</text><line style="stroke:#181818;stroke-width:0.5;" x1="355" x2="442" y1="1459" y2="1459"/><text fill="#000000" font-family="sans-serif" font-size="14" lengthAdjust="spacing" textLength="20" x="360" y="1478.1074">CC</text><text fill="#000000" font-family="sans-serif" font-size="14" lengthAdjust="spacing" textLength="12" x="360" y="1496.7285">BI</text><text fill="#000000" font-family="sans-serif" font-size="14" lengthAdjust="spacing" textLength="56" x="360" y="1515.3496">Passport</text><line style="stroke:#181818;stroke-width:0.5;" x1="355" x2="442" y1="1522.8633" y2="1522.8633"/></g><!--class Skill--><g id="elem_Skill"><rect codeLine="85" fill="#F1F1F1" height="66.6211" id="Skill" rx="2.5" ry="2.5" style="stroke:#181818;stroke-width:0.5;" width="93" x="177" y="1445.5"/><ellipse cx="208.2" cy="1461.5" fill="#ADD1B2" rx="11" ry="11" style="stroke:#181818;stroke-width:1.0;"/><path d="M210.9656,1457.375 Q211.1219,1457.1563 211.3094,1457.0469 Q211.4969,1456.9375 211.7156,1456.9375 Q212.0906,1456.9375 212.325,1457.2031 Q212.5594,1457.4531 212.5594,1458.0625 L212.5594,1459.5156 Q212.5594,1460.125 212.325,1460.3906 Q212.0906,1460.6563 211.7156,1460.6563 Q211.3719,1460.6563 211.1688,1460.4531 Q210.9656,1460.2656 210.8563,1459.75 Q210.8094,1459.3906 210.6219,1459.2031 Q210.2938,1458.8281 209.6844,1458.6094 Q209.075,1458.3906 208.45,1458.3906 Q207.6844,1458.3906 207.0438,1458.7188 Q206.4188,1459.0469 205.9188,1459.7969 Q205.4344,1460.5469 205.4344,1461.5781 L205.4344,1462.6719 Q205.4344,1463.9063 206.325,1464.7344 Q207.2156,1465.5469 208.8094,1465.5469 Q209.7469,1465.5469 210.4031,1465.2969 Q210.7938,1465.1406 211.2156,1464.7031 Q211.4813,1464.4375 211.6219,1464.3594 Q211.7781,1464.2813 211.9813,1464.2813 Q212.3094,1464.2813 212.5594,1464.5469 Q212.825,1464.7969 212.825,1465.1406 Q212.825,1465.4844 212.4813,1465.8906 Q211.9813,1466.4688 211.1844,1466.7969 Q210.1063,1467.25 208.8094,1467.25 Q207.2938,1467.25 206.0906,1466.625 Q205.1063,1466.125 204.4188,1465.0625 Q203.7313,1463.9844 203.7313,1462.7031 L203.7313,1461.5469 Q203.7313,1460.2188 204.3406,1459.0781 Q204.9656,1457.9219 206.0594,1457.3125 Q207.1531,1456.6875 208.3875,1456.6875 Q209.1219,1456.6875 209.7625,1456.8594 Q210.4188,1457.0156 210.9656,1457.375 Z " fill="#000000"/><text fill="#000000" font-family="sans-serif" font-size="14" lengthAdjust="spacing" textLength="25" x="225.8" y="1467.2969">Skill</text><line style="stroke:#181818;stroke-width:0.5;" x1="178" x2="269" y1="1477.5" y2="1477.5"/><text fill="#000000" font-family="sans-serif" font-size="14" lengthAdjust="spacing" textLength="81" x="183" y="1496.6074">-String name</text><line style="stroke:#181818;stroke-width:0.5;" x1="178" x2="269" y1="1504.1211" y2="1504.1211"/></g><!--class Team--><g id="elem_Team"><rect codeLine="90" fill="#F1F1F1" height="85.2422" id="Team" rx="2.5" ry="2.5" style="stroke:#181818;stroke-width:0.5;" width="366" x="525.5" y="894"/><ellipse cx="686.25" cy="910" fill="#ADD1B2" rx="11" ry="11" style="stroke:#181818;stroke-width:1.0;"/><path d="M689.0156,905.875 Q689.1719,905.6563 689.3594,905.5469 Q689.5469,905.4375 689.7656,905.4375 Q690.1406,905.4375 690.375,905.7031 Q690.6094,905.9531 690.6094,906.5625 L690.6094,908.0156 Q690.6094,908.625 690.375,908.8906 Q690.1406,909.1563 689.7656,909.1563 Q689.4219,909.1563 689.2188,908.9531 Q689.0156,908.7656 688.9063,908.25 Q688.8594,907.8906 688.6719,907.7031 Q688.3438,907.3281 687.7344,907.1094 Q687.125,906.8906 686.5,906.8906 Q685.7344,906.8906 685.0938,907.2188 Q684.4688,907.5469 683.9688,908.2969 Q683.4844,909.0469 683.4844,910.0781 L683.4844,911.1719 Q683.4844,912.4063 684.375,913.2344 Q685.2656,914.0469 686.8594,914.0469 Q687.7969,914.0469 688.4531,913.7969 Q688.8438,913.6406 689.2656,913.2031 Q689.5313,912.9375 689.6719,912.8594 Q689.8281,912.7813 690.0313,912.7813 Q690.3594,912.7813 690.6094,913.0469 Q690.875,913.2969 690.875,913.6406 Q690.875,913.9844 690.5313,914.3906 Q690.0313,914.9688 689.2344,915.2969 Q688.1563,915.75 686.8594,915.75 Q685.3438,915.75 684.1406,915.125 Q683.1563,914.625 682.4688,913.5625 Q681.7813,912.4844 681.7813,911.2031 L681.7813,910.0469 Q681.7813,908.7188 682.3906,907.5781 Q683.0156,906.4219 684.1094,905.8125 Q685.2031,905.1875 686.4375,905.1875 Q687.1719,905.1875 687.8125,905.3594 Q688.4688,905.5156 689.0156,905.875 Z " fill="#000000"/><text fill="#000000" font-family="sans-serif" font-size="14" lengthAdjust="spacing" textLength="36" x="706.75" y="915.7969">Team</text><line style="stroke:#181818;stroke-width:0.5;" x1="526.5" x2="890.5" y1="926" y2="926"/><line style="stroke:#181818;stroke-width:0.5;" x1="526.5" x2="890.5" y1="934" y2="934"/><text fill="#000000" font-family="sans-serif" font-size="14" lengthAdjust="spacing" textLength="185" x="531.5" y="953.1074">+Team(tempCollaboratorList)</text><text fill="#000000" font-family="sans-serif" font-size="14" lengthAdjust="spacing" textLength="354" x="531.5" y="971.7285">+removeUnavailableCollaborators(tempCollaboratorList)</text></g><!--link Repositories to Repositories--><g id="link_Repositories_Repositories"><path codeLine="96" d="M415.52,524.41 C435.87,526.31 450.5,532.34 450.5,542.5 C450.5,552.66 441.844,558.1322 421.494,560.0322 " fill="none" id="Repositories-to-Repositories" style="stroke:#181818;stroke-width:1.0;"/><polygon fill="#181818" points="415.52,560.59,424.8529,563.736,420.4983,560.1252,424.1092,555.7707,415.52,560.59" style="stroke:#181818;stroke-width:1.0;"/><text fill="#000000" font-family="sans-serif" font-size="13" lengthAdjust="spacing" textLength="49" x="456.5" y="548.0283">instance</text></g><!--link GenerateTeamUI to GenerateTeamController--><g id="link_GenerateTeamUI_GenerateTeamController"><path codeLine="98" d="M486.5,55.36 C486.5,71.15 486.5,87.19 486.5,109.81 " fill="none" id="GenerateTeamUI-to-GenerateTeamController" style="stroke:#181818;stroke-width:1.0;stroke-dasharray:7.0,7.0;"/><polygon fill="#181818" points="486.5,115.81,490.5,106.81,486.5,110.81,482.5,106.81,486.5,115.81" style="stroke:#181818;stroke-width:1.0;"/></g><!--link GenerateTeamController to Repositories--><g id="link_GenerateTeamController_Repositories"><path codeLine="100" d="M435.79,313.31 C409.3,364.42 380.2609,420.433 356.3109,466.643 " fill="none" id="GenerateTeamController-to-Repositories" style="stroke:#181818;stroke-width:1.0;stroke-dasharray:7.0,7.0;"/><polygon fill="#181818" points="353.55,471.97,361.2427,465.8201,355.8508,467.5308,354.14,462.1388,353.55,471.97" style="stroke:#181818;stroke-width:1.0;"/><text fill="#000000" font-family="sans-serif" font-size="13" lengthAdjust="spacing" textLength="67" x="404.5" y="389.0283">repositories</text></g><!--link GenerateTeamController to CollaboratorRepository--><g id="link_GenerateTeamController_CollaboratorRepository"><path codeLine="102" d="M496.02,313.2 C503.09,385.69 511.5,472 511.5,472 C511.5,472 511.5,613 511.5,613 C511.5,613 471.5577,659.1242 438.4877,697.3142 " fill="none" id="GenerateTeamController-to-CollaboratorRepository" style="stroke:#181818;stroke-width:1.0;stroke-dasharray:7.0,7.0;"/><polygon fill="#181818" points="434.56,701.85,443.4754,697.6648,437.8331,698.0702,437.4277,692.4279,434.56,701.85" style="stroke:#181818;stroke-width:1.0;"/><text fill="#000000" font-family="sans-serif" font-size="13" lengthAdjust="spacing" textLength="129" x="510.5" y="438.0283">collaboratorRepository</text></g><!--link GenerateTeamController to SkillRepository--><g id="link_GenerateTeamController_SkillRepository"><path codeLine="103" d="M377.94,313.2 C297.4,385.69 201.5,472 201.5,472 C201.5,472 169.9682,587.7013 148.0382,668.1413 " fill="none" id="GenerateTeamController-to-SkillRepository" style="stroke:#181818;stroke-width:1.0;stroke-dasharray:7.0,7.0;"/><polygon fill="#181818" points="146.46,673.93,152.6864,666.299,147.7751,669.1061,144.9681,664.1948,146.46,673.93" style="stroke:#181818;stroke-width:1.0;"/><text fill="#000000" font-family="sans-serif" font-size="13" lengthAdjust="spacing" textLength="85" x="256.5" y="438.0283">skillRepository</text></g><!--link GenerateTeamController to TeamRepository--><g id="link_GenerateTeamController_TeamRepository"><path codeLine="104" d="M562.76,313.17 C604.77,366.99 648.5,423 648.5,423 C648.5,423 693.3153,596.0717 716.7553,686.5517 " fill="none" id="GenerateTeamController-to-TeamRepository" style="stroke:#181818;stroke-width:1.0;stroke-dasharray:7.0,7.0;"/><polygon fill="#181818" points="718.26,692.36,719.8751,682.6445,717.0061,687.5198,712.1308,684.6507,718.26,692.36" style="stroke:#181818;stroke-width:1.0;"/><text fill="#000000" font-family="sans-serif" font-size="13" lengthAdjust="spacing" textLength="91" x="653.5" y="438.0283">teamRepository</text></g><!--link Repositories to SkillRepository--><g id="link_Repositories_SkillRepository"><path codeLine="106" d="M251.31,613.17 C232.68,632.79 216.5426,649.7701 197.9026,669.3901 " fill="none" id="Repositories-to-SkillRepository" style="stroke:#181818;stroke-width:1.0;"/><polygon fill="#181818" points="193.77,673.74,202.8688,669.9702,197.2138,670.1151,197.069,664.4601,193.77,673.74" style="stroke:#181818;stroke-width:1.0;"/><text fill="#000000" font-family="sans-serif" font-size="13" lengthAdjust="spacing" textLength="7" x="193.2432" y="662.6042">1</text></g><!--link Repositories to CollaboratorRepository--><g id="link_Repositories_CollaboratorRepository"><path codeLine="107" d="M345.72,613.17 C357.68,642.71 368.9681,670.5786 379.3381,696.1886 " fill="none" id="Repositories-to-CollaboratorRepository" style="stroke:#181818;stroke-width:1.0;"/><polygon fill="#181818" points="381.59,701.75,381.9197,691.9067,379.7134,697.1155,374.5045,694.9092,381.59,701.75" style="stroke:#181818;stroke-width:1.0;"/><text fill="#000000" font-family="sans-serif" font-size="13" lengthAdjust="spacing" textLength="7" x="371.3372" y="690.6142">1</text></g><!--link Repositories to TeamRepository--><g id="link_Repositories_TeamRepository"><path codeLine="108" d="M415.61,590.9 C478.86,621.45 555.6575,658.5498 620.3575,689.8098 " fill="none" id="Repositories-to-TeamRepository" style="stroke:#181818;stroke-width:1.0;"/><polygon fill="#181818" points="625.76,692.42,619.3964,684.903,621.2579,690.2448,615.9161,692.1063,625.76,692.42" style="stroke:#181818;stroke-width:1.0;"/><text fill="#000000" font-family="sans-serif" font-size="13" lengthAdjust="spacing" textLength="7" x="604.0809" y="681.3366">1</text></g><!--link SkillRepository to Skill--><g id="link_SkillRepository_Skill"><path codeLine="110" d="M136.62,815.07 C156.81,969.17 203.9005,1328.4309 218.4505,1439.4709 " fill="none" id="SkillRepository-to-Skill" style="stroke:#181818;stroke-width:1.0;"/><polygon fill="#181818" points="219.23,1445.42,222.0268,1435.9766,218.5804,1440.4624,214.0946,1437.016,219.23,1445.42" style="stroke:#181818;stroke-width:1.0;"/><text fill="#000000" font-family="sans-serif" font-size="13" lengthAdjust="spacing" textLength="23" x="166.5" y="1024.0283">skill</text><text fill="#000000" font-family="sans-serif" font-size="13" lengthAdjust="spacing" textLength="7" x="130.1996" y="837.262">1</text><text fill="#000000" font-family="sans-serif" font-size="13" lengthAdjust="spacing" textLength="5" x="212.8972" y="1434.2298">*</text></g><!--link CollaboratorRepository to Collaborator--><g id="link_CollaboratorRepository_Collaborator"><path codeLine="111" d="M398.5,787.22 C398.5,848.02 398.5,957.96 398.5,1051.84 " fill="none" id="CollaboratorRepository-to-Collaborator" style="stroke:#181818;stroke-width:1.0;"/><polygon fill="#181818" points="398.5,1057.84,402.5,1048.84,398.5,1052.84,394.5,1048.84,398.5,1057.84" style="stroke:#181818;stroke-width:1.0;"/><text fill="#000000" font-family="sans-serif" font-size="13" lengthAdjust="spacing" textLength="67" x="399.5" y="942.0283">collaborator</text><text fill="#000000" font-family="sans-serif" font-size="13" lengthAdjust="spacing" textLength="7" x="390.9422" y="809.4154">1</text><text fill="#000000" font-family="sans-serif" font-size="13" lengthAdjust="spacing" textLength="5" x="393.3711" y="1046.9508">*</text></g><!--link TeamRepository to Team--><g id="link_TeamRepository_Team"><path codeLine="112" d="M725.31,796.67 C721.62,827.11 717.7206,859.2934 714.2606,887.8934 " fill="none" id="TeamRepository-to-Team" style="stroke:#181818;stroke-width:1.0;"/><polygon fill="#181818" points="713.54,893.85,718.592,885.3956,714.1405,888.8862,710.6499,884.4347,713.54,893.85" style="stroke:#181818;stroke-width:1.0;"/><text fill="#000000" font-family="sans-serif" font-size="13" lengthAdjust="spacing" textLength="29" x="719.5" y="860.0283">team</text><text fill="#000000" font-family="sans-serif" font-size="13" lengthAdjust="spacing" textLength="7" x="717.0685" y="818.4991">1</text><text fill="#000000" font-family="sans-serif" font-size="13" lengthAdjust="spacing" textLength="5" x="708.9448" y="882.7302">*</text></g><!--link Collaborator to Skill--><g id="link_Collaborator_Skill"><path codeLine="114" d="M306.39,1348.22 C283,1384.84 263.2894,1415.7033 247.4894,1440.4433 " fill="none" id="Collaborator-to-Skill" style="stroke:#181818;stroke-width:1.0;"/><polygon fill="#181818" points="244.26,1445.5,252.4753,1440.0678,246.9512,1441.286,245.733,1435.7619,244.26,1445.5" style="stroke:#181818;stroke-width:1.0;"/><text fill="#000000" font-family="sans-serif" font-size="13" lengthAdjust="spacing" textLength="21" x="286.5" y="1393.0283">has</text><text fill="#000000" font-family="sans-serif" font-size="13" lengthAdjust="spacing" textLength="7" x="294.4601" y="1370.1801">1</text><text fill="#000000" font-family="sans-serif" font-size="13" lengthAdjust="spacing" textLength="5" x="242.8549" y="1434.3255">*</text></g><!--link Team to Collaborator--><g id="link_Team_Collaborator"><path codeLine="115" d="M659.72,979.12 C634.23,1000.87 605.9139,1025.0251 572.1439,1053.8451 " fill="none" id="Team-to-Collaborator" style="stroke:#181818;stroke-width:1.0;"/><polygon fill="#181818" points="567.58,1057.74,577.0225,1054.9402,571.3833,1054.4942,571.8293,1048.855,567.58,1057.74" style="stroke:#181818;stroke-width:1.0;"/><text fill="#000000" font-family="sans-serif" font-size="13" lengthAdjust="spacing" textLength="21" x="617.5" y="1024.0283">has</text><text fill="#000000" font-family="sans-serif" font-size="13" lengthAdjust="spacing" textLength="7" x="644.3879" y="1001.2995">1</text><text fill="#000000" font-family="sans-serif" font-size="13" lengthAdjust="spacing" textLength="20" x="555.7826" y="1046.8457">1..*</text></g><!--reverse link Collaborator to DocType--><g id="link_Collaborator_DocType"><path codeLine="117" d="M398.5,1364.22 C398.5,1392.46 398.5,1404.28 398.5,1426.88 " fill="none" id="Collaborator-backto-DocType" style="stroke:#181818;stroke-width:1.0;"/><ellipse cx="398.5" cy="1356.22" fill="#FFFFFF" rx="8" ry="8" style="stroke:#181818;stroke-width:1.0;"/><line style="stroke:#181818;stroke-width:1.0;" x1="398.5" x2="398.5" y1="1364.22" y2="1348.22"/><line style="stroke:#181818;stroke-width:1.0;" x1="390.5" x2="406.5" y1="1356.22" y2="1356.22"/></g><!--SRC=[dLLBRjim4Dtp54IwiDB8HhFj8a1YeuM18WZgPDSDBOrbrloe99t6BNgg7g4Nw-XZYPGf5wasbZbl_ezF4xlZgcI6IIgrqjdMQ0dKcJsGtbAoRCSAMBc306eWSqmLmWVOBSlrTwuAkc72-XR15RX32RJKub3z8PE8KHkdYUUL2MRjhNE6h_SEbfbMA_u3w3j29W8sZZfD3I-sZkQyAeThHKZjGp-20iCSF0AJJqloav1VCTDSAsUq460GGl6v6Z4dbwsv0BVQSI5iTyBoV0K2qqDUM-wPXCGUttg_Fko3qQMsJ2IIgpc6P-kKIlRIl1uT31JSEZ2LG-90berPOn1jFg6f0KxhYlpyjZ8cHsjc0BFUFZEEpWBy827GrZ42-mVTPBSduIznd9Cthtl81CUvuKOoGpKjlz5SKzoeHP9XCegjKcsnRHmDTtz-6ux_bARmWhqB_VfqxRe_Dm6ruM3R9K-3Gt-rIoo7gGoII_e-z0ottvaElhS_l3YY6cTWGLOU2nq4xWXvohXcfwDBFwLaZ8vDqBj3GzSXWNrSB4ztc-8zTyKtfJv6w9l4RiO8rTfSuVIw70QaVeOdnQ8aFtDtNd79SA8jXicHxZjohL2lK08LZh4zcJC1AaVUhxbnsnoR7HfOBhcrA62BtjZ6mTG6h6qFbyf1WLUbt6e5ztkvHkaAu21n2WEmOoybEu29uNaEol4DprYbdmkTxIKUUCYheCkaQYlj6qc_gA3sz5XlwfU8gBgkT51AEfB-4Ry6w7EkjfH-rPrOLcjPm8OhNW7dXkDEEHjZ4wYzf1Yjoj9kRJwlV-wMzSy3xhR4Zr6_w3f2TCC1EpjE_eDG_qbQpEMB4ftU12A5ciLR0ICa_0BIsUncxCj7ukVeCZk9RtnDFEiO5mOCaSKLuroiWJHY43iGotFUeMoWimjrP31J7Eh5zSM974T18-eNnGxKYmoRgZ0rzcsRlEsIZ4pIn_kGmOZ9e7tVhJ8ruo11bbWjMsRhKBtjUZORf6vGOQYhwRIxQty1]--></g></svg>