<?xml version="1.0" encoding="us-ascii" standalone="no"?><svg xmlns="http://www.w3.org/2000/svg" xmlns:xlink="http://www.w3.org/1999/xlink" contentStyleType="text/css" height="409.6px" preserveAspectRatio="none" style="width:842px;height:409px;background:#FFFFFF;" version="1.1" viewBox="0 0 842 409" width="842.4px" zoomAndPan="magnify"><defs/><g><rect fill="#FFFFFF" height="285.7609" style="stroke:#181818;stroke-width:0.8000000000000002;" width="8" x="296" y="72.4266"/><rect fill="#FFFFFF" height="25.0328" style="stroke:#181818;stroke-width:0.8000000000000002;" width="8" x="413.2" y="118.4922"/><rect fill="#FFFFFF" height="25.0328" style="stroke:#181818;stroke-width:0.8000000000000002;" width="8" x="498.8" y="168.5578"/><rect fill="#FFFFFF" height="101.7313" style="stroke:#181818;stroke-width:0.8000000000000002;" width="8" x="610" y="218.6234"/><rect fill="#FFFFFF" height="25.0328" style="stroke:#181818;stroke-width:0.8000000000000002;" width="8" x="779.6" y="264.6891"/><rect fill="none" height="242.3281" style="stroke:#000000;stroke-width:1.2000000000000002;" width="616.4" x="221.6" y="84.4266"/><rect fill="none" height="65.4984" style="stroke:#000000;stroke-width:1.2000000000000002;" width="288.4" x="541.6" y="230.6234"/><line style="stroke:#181818;stroke-width:0.4000000000000001;stroke-dasharray:5.0,5.0;" x1="300" x2="300" y1="45.7938" y2="365.3875"/><line style="stroke:#181818;stroke-width:0.4000000000000001;stroke-dasharray:5.0,5.0;" x1="416.8" x2="416.8" y1="45.7938" y2="365.3875"/><line style="stroke:#181818;stroke-width:0.4000000000000001;stroke-dasharray:5.0,5.0;" x1="502.4" x2="502.4" y1="45.7938" y2="365.3875"/><line style="stroke:#181818;stroke-width:0.4000000000000001;stroke-dasharray:5.0,5.0;" x1="613.6" x2="613.6" y1="45.7938" y2="365.3875"/><line style="stroke:#181818;stroke-width:0.4000000000000001;stroke-dasharray:5.0,5.0;" x1="783.6" x2="783.6" y1="45.7938" y2="365.3875"/><rect fill="#E3E3E3" height="26.0969" rx="2" ry="2" style="stroke:#181818;stroke-width:0.4000000000000001;" width="140.8" x="229.6" y="18.8969"/><text fill="#000000" font-family="sans-serif" font-size="11.2" lengthAdjust="spacing" textLength="129.6" x="235.2" y="36.5828">:GenerateTeamController</text><rect fill="#E3E3E3" height="26.0969" rx="2" ry="2" style="stroke:#181818;stroke-width:0.4000000000000001;" width="140.8" x="229.6" y="364.5875"/><text fill="#000000" font-family="sans-serif" font-size="11.2" lengthAdjust="spacing" textLength="129.6" x="235.2" y="382.2734">:GenerateTeamController</text><rect fill="#E3E3E3" height="26.0969" rx="2" ry="2" style="stroke:#181818;stroke-width:0.4000000000000001;" width="77.6" x="378.4" y="18.8969"/><text fill="#000000" font-family="sans-serif" font-size="11.2" lengthAdjust="spacing" textLength="66.4" x="384" y="36.5828">:Repositories</text><rect fill="#E3E3E3" height="26.0969" rx="2" ry="2" style="stroke:#181818;stroke-width:0.4000000000000001;" width="77.6" x="378.4" y="364.5875"/><text fill="#000000" font-family="sans-serif" font-size="11.2" lengthAdjust="spacing" textLength="66.4" x="384" y="382.2734">:Repositories</text><rect fill="#E3E3E3" height="40.9938" rx="2" ry="2" style="stroke:#181818;stroke-width:0.4000000000000001;" width="77.6" x="464" y="4"/><text fill="#000000" font-family="sans-serif" font-size="11.2" lengthAdjust="spacing" textLength="59.2" x="473.2" y="21.6859">repositories</text><text fill="#000000" font-family="sans-serif" font-size="11.2" lengthAdjust="spacing" textLength="66.4" x="469.6" y="36.5828">:Repositories</text><rect fill="#E3E3E3" height="40.9938" rx="2" ry="2" style="stroke:#181818;stroke-width:0.4000000000000001;" width="77.6" x="464" y="364.5875"/><text fill="#000000" font-family="sans-serif" font-size="11.2" lengthAdjust="spacing" textLength="59.2" x="473.2" y="382.2734">repositories</text><text fill="#000000" font-family="sans-serif" font-size="11.2" lengthAdjust="spacing" textLength="66.4" x="469.6" y="397.1703">:Repositories</text><rect fill="#E3E3E3" height="40.9938" rx="2" ry="2" style="stroke:#181818;stroke-width:0.4000000000000001;" width="128.8" x="549.6" y="4"/><text fill="#000000" font-family="sans-serif" font-size="11.2" lengthAdjust="spacing" textLength="117.6" x="555.2" y="21.6859">collaboratorRepository:</text><text fill="#000000" font-family="sans-serif" font-size="11.2" lengthAdjust="spacing" textLength="116.8" x="555.6" y="36.5828">CollaboratorRepository</text><rect fill="#E3E3E3" height="40.9938" rx="2" ry="2" style="stroke:#181818;stroke-width:0.4000000000000001;" width="128.8" x="549.6" y="364.5875"/><text fill="#000000" font-family="sans-serif" font-size="11.2" lengthAdjust="spacing" textLength="117.6" x="555.2" y="382.2734">collaboratorRepository:</text><text fill="#000000" font-family="sans-serif" font-size="11.2" lengthAdjust="spacing" textLength="116.8" x="555.6" y="397.1703">CollaboratorRepository</text><rect fill="#E3E3E3" height="40.9938" rx="2" ry="2" style="stroke:#181818;stroke-width:0.4000000000000001;" width="76.8" x="745.2" y="4"/><text fill="#000000" font-family="sans-serif" font-size="11.2" lengthAdjust="spacing" textLength="60" x="753.6" y="21.6859">collaborator</text><text fill="#000000" font-family="sans-serif" font-size="11.2" lengthAdjust="spacing" textLength="65.6" x="750.8" y="36.5828">:Collaborator</text><rect fill="#E3E3E3" height="40.9938" rx="2" ry="2" style="stroke:#181818;stroke-width:0.4000000000000001;" width="76.8" x="745.2" y="364.5875"/><text fill="#000000" font-family="sans-serif" font-size="11.2" lengthAdjust="spacing" textLength="60" x="753.6" y="382.2734">collaborator</text><text fill="#000000" font-family="sans-serif" font-size="11.2" lengthAdjust="spacing" textLength="65.6" x="750.8" y="397.1703">:Collaborator</text><rect fill="#FFFFFF" height="285.7609" style="stroke:#181818;stroke-width:0.8000000000000002;" width="8" x="296" y="72.4266"/><rect fill="#FFFFFF" height="25.0328" style="stroke:#181818;stroke-width:0.8000000000000002;" width="8" x="413.2" y="118.4922"/><rect fill="#FFFFFF" height="25.0328" style="stroke:#181818;stroke-width:0.8000000000000002;" width="8" x="498.8" y="168.5578"/><rect fill="#FFFFFF" height="101.7313" style="stroke:#181818;stroke-width:0.8000000000000002;" width="8" x="610" y="218.6234"/><rect fill="#FFFFFF" height="25.0328" style="stroke:#181818;stroke-width:0.8000000000000002;" width="8" x="779.6" y="264.6891"/><polygon fill="#181818" points="286.4,69.2266,294.4,72.4266,286.4,75.6266,289.6,72.4266" style="stroke:#181818;stroke-width:0.8000000000000002;"/><line style="stroke:#181818;stroke-width:0.8000000000000002;" x1="0" x2="291.2" y1="72.4266" y2="72.4266"/><text fill="#000000" font-family="sans-serif" font-size="10.4" font-weight="bold" lengthAdjust="spacing" textLength="11.2" x="5.6" y="68.2164">16</text><text fill="#000000" font-family="sans-serif" font-size="10.4" lengthAdjust="spacing" textLength="266.4" x="20" y="68.2164">selectCollaboratorsForTeam(availableCollaborators, skills)</text><path d="M221.6,84.4266 L418.4,84.4266 L418.4,91.8594 L410.4,99.8594 L221.6,99.8594 L221.6,84.4266 " fill="#EEEEEE" style="stroke:#000000;stroke-width:1.2000000000000002;"/><rect fill="none" height="242.3281" style="stroke:#000000;stroke-width:1.2000000000000002;" width="616.4" x="221.6" y="84.4266"/><text fill="#000000" font-family="sans-serif" font-size="10.4" font-weight="bold" lengthAdjust="spacing" textLength="160.8" x="233.6" y="96.4492">Choose Collaborators For Team</text><polygon fill="#181818" points="403.6,115.2922,411.6,118.4922,403.6,121.6922,406.8,118.4922" style="stroke:#181818;stroke-width:0.8000000000000002;"/><line style="stroke:#181818;stroke-width:0.8000000000000002;" x1="304" x2="408.4" y1="118.4922" y2="118.4922"/><text fill="#000000" font-family="sans-serif" font-size="10.4" font-weight="bold" lengthAdjust="spacing" textLength="20" x="309.6" y="114.282">16.1</text><text fill="#000000" font-family="sans-serif" font-size="10.4" lengthAdjust="spacing" textLength="60" x="332.8" y="114.282">getInstance()</text><polygon fill="#181818" points="312.8,140.325,304.8,143.525,312.8,146.725,309.6,143.525" style="stroke:#181818;stroke-width:0.8000000000000002;"/><line style="stroke:#181818;stroke-width:0.8000000000000002;stroke-dasharray:2.0,2.0;" x1="308" x2="416.4" y1="143.525" y2="143.525"/><text fill="#000000" font-family="sans-serif" font-size="10.4" font-weight="bold" lengthAdjust="spacing" textLength="20" x="317.6" y="139.3148">16.2</text><text fill="#000000" font-family="sans-serif" font-size="10.4" lengthAdjust="spacing" textLength="53.6" x="340.8" y="139.3148">repositories</text><polygon fill="#181818" points="489.2,165.3578,497.2,168.5578,489.2,171.7578,492.4,168.5578" style="stroke:#181818;stroke-width:0.8000000000000002;"/><line style="stroke:#181818;stroke-width:0.8000000000000002;" x1="304" x2="494" y1="168.5578" y2="168.5578"/><text fill="#000000" font-family="sans-serif" font-size="10.4" font-weight="bold" lengthAdjust="spacing" textLength="20" x="309.6" y="164.3477">16.3</text><text fill="#000000" font-family="sans-serif" font-size="10.4" lengthAdjust="spacing" textLength="125.6" x="332.8" y="164.3477">getCollaboratorRepository()</text><polygon fill="#181818" points="312.8,190.3906,304.8,193.5906,312.8,196.7906,309.6,193.5906" style="stroke:#181818;stroke-width:0.8000000000000002;"/><line style="stroke:#181818;stroke-width:0.8000000000000002;stroke-dasharray:2.0,2.0;" x1="308" x2="502" y1="193.5906" y2="193.5906"/><text fill="#000000" font-family="sans-serif" font-size="10.4" font-weight="bold" lengthAdjust="spacing" textLength="20" x="317.6" y="189.3805">16.4</text><text fill="#000000" font-family="sans-serif" font-size="10.4" lengthAdjust="spacing" textLength="103.2" x="340.8" y="189.3805">collaboratorRepository</text><polygon fill="#181818" points="600.4,215.4234,608.4,218.6234,600.4,221.8234,603.6,218.6234" style="stroke:#181818;stroke-width:0.8000000000000002;"/><line style="stroke:#181818;stroke-width:0.8000000000000002;" x1="304" x2="605.2" y1="218.6234" y2="218.6234"/><text fill="#000000" font-family="sans-serif" font-size="10.4" font-weight="bold" lengthAdjust="spacing" textLength="20" x="309.6" y="214.4133">16.5</text><text fill="#000000" font-family="sans-serif" font-size="10.4" lengthAdjust="spacing" textLength="266.4" x="332.8" y="214.4133">selectCollaboratorsForTeam(availableCollaborators, skills)</text><path d="M541.6,230.6234 L600,230.6234 L600,238.0563 L592,246.0563 L541.6,246.0563 L541.6,230.6234 " fill="#EEEEEE" style="stroke:#000000;stroke-width:1.2000000000000002;"/><rect fill="none" height="65.4984" style="stroke:#000000;stroke-width:1.2000000000000002;" width="288.4" x="541.6" y="230.6234"/><text fill="#000000" font-family="sans-serif" font-size="10.4" font-weight="bold" lengthAdjust="spacing" textLength="22.4" x="553.6" y="242.6461">loop</text><text fill="#000000" font-family="sans-serif" font-size="8.8" font-weight="bold" lengthAdjust="spacing" textLength="137.6" x="612" y="241.7195">[for each available collaborator]</text><polygon fill="#181818" points="770,261.4891,778,264.6891,770,267.8891,773.2,264.6891" style="stroke:#181818;stroke-width:0.8000000000000002;"/><line style="stroke:#181818;stroke-width:0.8000000000000002;" x1="618" x2="774.8" y1="264.6891" y2="264.6891"/><text fill="#000000" font-family="sans-serif" font-size="10.4" font-weight="bold" lengthAdjust="spacing" textLength="20" x="623.6" y="260.4789">16.6</text><text fill="#000000" font-family="sans-serif" font-size="10.4" lengthAdjust="spacing" textLength="123.2" x="646.8" y="260.4789">evaluateCollaborator(skills)</text><polygon fill="#181818" points="626.8,286.5219,618.8,289.7219,626.8,292.9219,623.6,289.7219" style="stroke:#181818;stroke-width:0.8000000000000002;"/><line style="stroke:#181818;stroke-width:0.8000000000000002;stroke-dasharray:2.0,2.0;" x1="622" x2="782.8" y1="289.7219" y2="289.7219"/><text fill="#000000" font-family="sans-serif" font-size="10.4" font-weight="bold" lengthAdjust="spacing" textLength="20" x="631.6" y="285.5117">16.7</text><text fill="#000000" font-family="sans-serif" font-size="10.4" lengthAdjust="spacing" textLength="45.6" x="654.8" y="285.5117">evaluation</text><polygon fill="#181818" points="312.8,317.1547,304.8,320.3547,312.8,323.5547,309.6,320.3547" style="stroke:#181818;stroke-width:0.8000000000000002;"/><line style="stroke:#181818;stroke-width:0.8000000000000002;stroke-dasharray:2.0,2.0;" x1="308" x2="613.2" y1="320.3547" y2="320.3547"/><text fill="#000000" font-family="sans-serif" font-size="10.4" font-weight="bold" lengthAdjust="spacing" textLength="20" x="317.6" y="316.1445">16.8</text><text fill="#000000" font-family="sans-serif" font-size="10.4" lengthAdjust="spacing" textLength="100" x="340.8" y="316.1445">selectedCollaborators</text><polygon fill="#181818" points="8.8,347.7875,0.8,350.9875,8.8,354.1875,5.6,350.9875" style="stroke:#181818;stroke-width:0.8000000000000002;"/><line style="stroke:#181818;stroke-width:0.8000000000000002;stroke-dasharray:2.0,2.0;" x1="4" x2="295.2" y1="350.9875" y2="350.9875"/><text fill="#000000" font-family="sans-serif" font-size="10.4" font-weight="bold" lengthAdjust="spacing" textLength="11.2" x="13.6" y="346.7773">17</text><text fill="#000000" font-family="sans-serif" font-size="10.4" lengthAdjust="spacing" textLength="100" x="28" y="346.7773">selectedCollaborators</text><!--SRC=[hLJ1QkGm3BtxAqGldS9EePSj36MX3EnIwA6qS-n5awY9gMC5svdT_lqgIITZDvufXUfewKdlwGdxLsrRTDX0mvQBsd5345n7oa-P5ejNhEWfl1a2HqL0MvcumDTOybzjAtX1uqafx0BRhjcIWwkVIftNkYHuOGvR_gS44tIXMxG1pbP_o9B3G1l2PiqsE3Q6t1cWX_NcyVv3zIErx7LWfyaFDTF3svFkMSdS5E8YnBETDtYulzse55881Tooi69twBzwjkjiOkIQJHtlArHYIDH3AGKIor-3VbY19oCxZwlzRtRzlXQuGoslXfBi3n1hZF4NGwDzO17qJXOzhZN9n6vTNYMvod7NmhfczfI8z20ae6UX4a0V0t4Ha357z5GKxgoN8ofeSJ73JZHppiwg-yXDMRwlRmMn_pDuILyRjnVM7yse9E_xALtZmUM435qFpFDdU4f3llMUT9xgznrOUcHvybdTXhcLty61AAbX6fai80iyecZIAjfeXwOJGd7fuXZxZ88yuyFmqQzZctsVhkMMSYqYwqvD8riEEr9VMiB73uJAn4FrAPdFpUk93H_4_0wYB-Lw1DuiboS9_GS0]--></g></svg>