<?xml version="1.0" encoding="us-ascii" standalone="no"?><svg xmlns="http://www.w3.org/2000/svg" xmlns:xlink="http://www.w3.org/1999/xlink" contentStyleType="text/css" height="1036.7px" preserveAspectRatio="none" style="width:676px;height:1036px;background:#FFFFFF;" version="1.1" viewBox="0 0 676 1036" width="676.2px" zoomAndPan="magnify"><defs/><g><!--class GenerateTeamUI--><g id="elem_GenerateTeamUI"><rect codeLine="11" fill="#F1F1F1" height="33.6" id="GenerateTeamUI" rx="1.75" ry="1.75" style="stroke:#181818;stroke-width:0.3499999999999999;" width="98" x="325.5" y="4.9"/><ellipse cx="336" cy="16.1" fill="#ADD1B2" rx="7.7" ry="7.7" style="stroke:#181818;stroke-width:0.6999999999999998;"/><path d="M337.9359,13.2125 Q338.0453,13.0594 338.1766,12.9828 Q338.3078,12.9062 338.4609,12.9062 Q338.7234,12.9062 338.8875,13.0922 Q339.0516,13.2672 339.0516,13.6937 L339.0516,14.7109 Q339.0516,15.1375 338.8875,15.3234 Q338.7234,15.5094 338.4609,15.5094 Q338.2203,15.5094 338.0781,15.3672 Q337.9359,15.2359 337.8594,14.875 Q337.8266,14.6234 337.6953,14.4922 Q337.4656,14.2297 337.0391,14.0766 Q336.6125,13.9234 336.175,13.9234 Q335.6391,13.9234 335.1906,14.1531 Q334.7531,14.3828 334.4031,14.9078 Q334.0641,15.4328 334.0641,16.1547 L334.0641,16.9203 Q334.0641,17.7844 334.6875,18.3641 Q335.3109,18.9328 336.4266,18.9328 Q337.0828,18.9328 337.5422,18.7578 Q337.8156,18.6484 338.1109,18.3422 Q338.2969,18.1562 338.3953,18.1016 Q338.5047,18.0469 338.6469,18.0469 Q338.8766,18.0469 339.0516,18.2328 Q339.2375,18.4078 339.2375,18.6484 Q339.2375,18.8891 338.9969,19.1734 Q338.6469,19.5781 338.0891,19.8078 Q337.3344,20.125 336.4266,20.125 Q335.3656,20.125 334.5234,19.6875 Q333.8344,19.3375 333.3531,18.5937 Q332.8719,17.8391 332.8719,16.9422 L332.8719,16.1328 Q332.8719,15.2031 333.2984,14.4047 Q333.7359,13.5953 334.5016,13.1687 Q335.2672,12.7312 336.1312,12.7312 Q336.6453,12.7312 337.0937,12.8516 Q337.5531,12.9609 337.9359,13.2125 Z " fill="#000000"/><text fill="#000000" font-family="sans-serif" font-size="9.8" lengthAdjust="spacing" textLength="75.6" x="345.8" y="20.1578">GenerateTeamUI</text><line style="stroke:#181818;stroke-width:0.3499999999999999;" x1="326.2" x2="422.8" y1="27.3" y2="27.3"/><line style="stroke:#181818;stroke-width:0.3499999999999999;" x1="326.2" x2="422.8" y1="32.9" y2="32.9"/></g><!--class GenerateTeamController--><g id="elem_GenerateTeamController"><rect codeLine="16" fill="#F1F1F1" height="124.8434" id="GenerateTeamController" rx="1.75" ry="1.75" style="stroke:#181818;stroke-width:0.3499999999999999;" width="271.6" x="238.7" y="81.2"/><ellipse cx="316.225" cy="92.4" fill="#ADD1B2" rx="7.7" ry="7.7" style="stroke:#181818;stroke-width:0.6999999999999998;"/><path d="M318.1609,89.5125 Q318.2703,89.3594 318.4016,89.2828 Q318.5328,89.2062 318.6859,89.2062 Q318.9484,89.2062 319.1125,89.3922 Q319.2766,89.5672 319.2766,89.9937 L319.2766,91.0109 Q319.2766,91.4375 319.1125,91.6234 Q318.9484,91.8094 318.6859,91.8094 Q318.4453,91.8094 318.3031,91.6672 Q318.1609,91.5359 318.0844,91.175 Q318.0516,90.9234 317.9203,90.7922 Q317.6906,90.5297 317.2641,90.3766 Q316.8375,90.2234 316.4,90.2234 Q315.8641,90.2234 315.4156,90.4531 Q314.9781,90.6828 314.6281,91.2078 Q314.2891,91.7328 314.2891,92.4547 L314.2891,93.2203 Q314.2891,94.0844 314.9125,94.6641 Q315.5359,95.2328 316.6516,95.2328 Q317.3078,95.2328 317.7672,95.0578 Q318.0406,94.9484 318.3359,94.6422 Q318.5219,94.4562 318.6203,94.4016 Q318.7297,94.3469 318.8719,94.3469 Q319.1016,94.3469 319.2766,94.5328 Q319.4625,94.7078 319.4625,94.9484 Q319.4625,95.1891 319.2219,95.4734 Q318.8719,95.8781 318.3141,96.1078 Q317.5594,96.425 316.6516,96.425 Q315.5906,96.425 314.7484,95.9875 Q314.0594,95.6375 313.5781,94.8937 Q313.0969,94.1391 313.0969,93.2422 L313.0969,92.4328 Q313.0969,91.5031 313.5234,90.7047 Q313.9609,89.8953 314.7266,89.4687 Q315.4922,89.0312 316.3562,89.0312 Q316.8703,89.0312 317.3187,89.1516 Q317.7781,89.2609 318.1609,89.5125 Z " fill="#000000"/><text fill="#000000" font-family="sans-serif" font-size="9.8" lengthAdjust="spacing" textLength="110.6" x="330.575" y="96.4578">GenerateTeamController</text><line style="stroke:#181818;stroke-width:0.3499999999999999;" x1="239.4" x2="509.6" y1="103.6" y2="103.6"/><line style="stroke:#181818;stroke-width:0.3499999999999999;" x1="239.4" x2="509.6" y1="109.2" y2="109.2"/><text fill="#000000" font-family="sans-serif" font-size="9.8" lengthAdjust="spacing" textLength="123.2" x="242.9" y="122.5752">+GenerateTeamController()</text><text fill="#000000" font-family="sans-serif" font-size="9.8" lengthAdjust="spacing" textLength="49" x="242.9" y="135.61">+getSkills()</text><text fill="#000000" font-family="sans-serif" font-size="9.8" lengthAdjust="spacing" textLength="263.2" x="242.9" y="148.6447">+generateTeamProposal(minCollab, maxCollab, skillNames)</text><text fill="#000000" font-family="sans-serif" font-size="9.8" lengthAdjust="spacing" textLength="168" x="242.9" y="161.6795">+registerTeam(selectedCollaborators)</text><text fill="#000000" font-family="sans-serif" font-size="9.8" lengthAdjust="spacing" textLength="119.7" x="242.9" y="174.7143">-getSkillByName(skillName)</text><text fill="#000000" font-family="sans-serif" font-size="9.8" lengthAdjust="spacing" textLength="135.8" x="242.9" y="187.749">-checkAvailableCollaborators()</text><text fill="#000000" font-family="sans-serif" font-size="9.8" lengthAdjust="spacing" textLength="261.8" x="242.9" y="200.7838">-selectCollaboratorsForTeam(availableCollaborators, skills)</text></g><!--class Repositories--><g id="elem_Repositories"><rect codeLine="30" fill="#F1F1F1" height="98.7738" id="Repositories" rx="1.75" ry="1.75" style="stroke:#181818;stroke-width:0.3499999999999999;" width="137.2" x="187.6" y="317.1"/><ellipse cx="225.575" cy="328.3" fill="#ADD1B2" rx="7.7" ry="7.7" style="stroke:#181818;stroke-width:0.6999999999999998;"/><path d="M227.5109,325.4125 Q227.6203,325.2594 227.7516,325.1828 Q227.8828,325.1062 228.0359,325.1062 Q228.2984,325.1062 228.4625,325.2922 Q228.6266,325.4672 228.6266,325.8937 L228.6266,326.9109 Q228.6266,327.3375 228.4625,327.5234 Q228.2984,327.7094 228.0359,327.7094 Q227.7953,327.7094 227.6531,327.5672 Q227.5109,327.4359 227.4344,327.075 Q227.4016,326.8234 227.2703,326.6922 Q227.0406,326.4297 226.6141,326.2766 Q226.1875,326.1234 225.75,326.1234 Q225.2141,326.1234 224.7656,326.3531 Q224.3281,326.5828 223.9781,327.1078 Q223.6391,327.6328 223.6391,328.3547 L223.6391,329.1203 Q223.6391,329.9844 224.2625,330.5641 Q224.8859,331.1328 226.0016,331.1328 Q226.6578,331.1328 227.1172,330.9578 Q227.3906,330.8484 227.6859,330.5422 Q227.8719,330.3562 227.9703,330.3016 Q228.0797,330.2469 228.2219,330.2469 Q228.4516,330.2469 228.6266,330.4328 Q228.8125,330.6078 228.8125,330.8484 Q228.8125,331.0891 228.5719,331.3734 Q228.2219,331.7781 227.6641,332.0078 Q226.9094,332.325 226.0016,332.325 Q224.9406,332.325 224.0984,331.8875 Q223.4094,331.5375 222.9281,330.7937 Q222.4469,330.0391 222.4469,329.1422 L222.4469,328.3328 Q222.4469,327.4031 222.8734,326.6047 Q223.3109,325.7953 224.0766,325.3687 Q224.8422,324.9312 225.7062,324.9312 Q226.2203,324.9312 226.6687,325.0516 Q227.1281,325.1609 227.5109,325.4125 Z " fill="#000000"/><text fill="#000000" font-family="sans-serif" font-size="9.8" lengthAdjust="spacing" textLength="55.3" x="239.925" y="332.3578">Repositories</text><line style="stroke:#181818;stroke-width:0.3499999999999999;" x1="188.3" x2="324.1" y1="339.5" y2="339.5"/><line style="stroke:#181818;stroke-width:0.3499999999999999;" x1="188.3" x2="324.1" y1="345.1" y2="345.1"/><text fill="#000000" font-family="sans-serif" font-size="9.8" lengthAdjust="spacing" textLength="65.8" x="191.8" y="358.4752">-Repositories()</text><text fill="#000000" font-family="sans-serif" font-size="9.8" lengthAdjust="spacing" textLength="127.4" x="191.8" y="371.51">+getInstance() : Repositories</text><text fill="#000000" font-family="sans-serif" font-size="9.8" lengthAdjust="spacing" textLength="91.7" x="191.8" y="384.5447">+getSkillRepository()</text><text fill="#000000" font-family="sans-serif" font-size="9.8" lengthAdjust="spacing" textLength="128.8" x="191.8" y="397.5795">+getCollaboratorRepository()</text><text fill="#000000" font-family="sans-serif" font-size="9.8" lengthAdjust="spacing" textLength="99.4" x="191.8" y="410.6143">+getTeamRepository()</text></g><!--class SkillRepository--><g id="elem_SkillRepository"><rect codeLine="41" fill="#F1F1F1" height="59.6695" id="SkillRepository" rx="1.75" ry="1.75" style="stroke:#181818;stroke-width:0.3499999999999999;" width="130.2" x="4.9" y="465.15"/><ellipse cx="34.615" cy="476.35" fill="#ADD1B2" rx="7.7" ry="7.7" style="stroke:#181818;stroke-width:0.6999999999999998;"/><path d="M36.5509,473.4625 Q36.6603,473.3094 36.7916,473.2328 Q36.9228,473.1562 37.0759,473.1562 Q37.3384,473.1562 37.5025,473.3422 Q37.6666,473.5172 37.6666,473.9437 L37.6666,474.9609 Q37.6666,475.3875 37.5025,475.5734 Q37.3384,475.7594 37.0759,475.7594 Q36.8353,475.7594 36.6931,475.6172 Q36.5509,475.4859 36.4744,475.125 Q36.4416,474.8734 36.3103,474.7422 Q36.0806,474.4797 35.6541,474.3266 Q35.2275,474.1734 34.79,474.1734 Q34.2541,474.1734 33.8056,474.4031 Q33.3681,474.6328 33.0181,475.1578 Q32.6791,475.6828 32.6791,476.4047 L32.6791,477.1703 Q32.6791,478.0344 33.3025,478.6141 Q33.9259,479.1828 35.0416,479.1828 Q35.6978,479.1828 36.1572,479.0078 Q36.4306,478.8984 36.7259,478.5922 Q36.9119,478.4062 37.0103,478.3516 Q37.1197,478.2969 37.2619,478.2969 Q37.4916,478.2969 37.6666,478.4828 Q37.8525,478.6578 37.8525,478.8984 Q37.8525,479.1391 37.6119,479.4234 Q37.2619,479.8281 36.7041,480.0578 Q35.9494,480.375 35.0416,480.375 Q33.9806,480.375 33.1384,479.9375 Q32.4494,479.5875 31.9681,478.8437 Q31.4869,478.0891 31.4869,477.1922 L31.4869,476.3828 Q31.4869,475.4531 31.9134,474.6547 Q32.3509,473.8453 33.1166,473.4187 Q33.8822,472.9812 34.7462,472.9812 Q35.2603,472.9812 35.7087,473.1016 Q36.1681,473.2109 36.5509,473.4625 Z " fill="#000000"/><text fill="#000000" font-family="sans-serif" font-size="9.8" lengthAdjust="spacing" textLength="65.1" x="48.685" y="480.4078">SkillRepository</text><line style="stroke:#181818;stroke-width:0.3499999999999999;" x1="5.6" x2="134.4" y1="487.55" y2="487.55"/><line style="stroke:#181818;stroke-width:0.3499999999999999;" x1="5.6" x2="134.4" y1="493.15" y2="493.15"/><text fill="#000000" font-family="sans-serif" font-size="9.8" lengthAdjust="spacing" textLength="49" x="9.1" y="506.5252">+getSkills()</text><text fill="#000000" font-family="sans-serif" font-size="9.8" lengthAdjust="spacing" textLength="121.8" x="9.1" y="519.56">+getSkillByName(skillName)</text></g><!--class CollaboratorRepository--><g id="elem_CollaboratorRepository"><rect codeLine="47" fill="#F1F1F1" height="59.6695" id="CollaboratorRepository" rx="1.75" ry="1.75" style="stroke:#181818;stroke-width:0.3499999999999999;" width="272.3" x="159.95" y="465.15"/><ellipse cx="242.025" cy="476.35" fill="#ADD1B2" rx="7.7" ry="7.7" style="stroke:#181818;stroke-width:0.6999999999999998;"/><path d="M243.9609,473.4625 Q244.0703,473.3094 244.2016,473.2328 Q244.3328,473.1562 244.4859,473.1562 Q244.7484,473.1562 244.9125,473.3422 Q245.0766,473.5172 245.0766,473.9437 L245.0766,474.9609 Q245.0766,475.3875 244.9125,475.5734 Q244.7484,475.7594 244.4859,475.7594 Q244.2453,475.7594 244.1031,475.6172 Q243.9609,475.4859 243.8844,475.125 Q243.8516,474.8734 243.7203,474.7422 Q243.4906,474.4797 243.0641,474.3266 Q242.6375,474.1734 242.2,474.1734 Q241.6641,474.1734 241.2156,474.4031 Q240.7781,474.6328 240.4281,475.1578 Q240.0891,475.6828 240.0891,476.4047 L240.0891,477.1703 Q240.0891,478.0344 240.7125,478.6141 Q241.3359,479.1828 242.4516,479.1828 Q243.1078,479.1828 243.5672,479.0078 Q243.8406,478.8984 244.1359,478.5922 Q244.3219,478.4062 244.4203,478.3516 Q244.5297,478.2969 244.6719,478.2969 Q244.9016,478.2969 245.0766,478.4828 Q245.2625,478.6578 245.2625,478.8984 Q245.2625,479.1391 245.0219,479.4234 Q244.6719,479.8281 244.1141,480.0578 Q243.3594,480.375 242.4516,480.375 Q241.3906,480.375 240.5484,479.9375 Q239.8594,479.5875 239.3781,478.8437 Q238.8969,478.0891 238.8969,477.1922 L238.8969,476.3828 Q238.8969,475.4531 239.3234,474.6547 Q239.7609,473.8453 240.5266,473.4187 Q241.2922,472.9812 242.1562,472.9812 Q242.6703,472.9812 243.1187,473.1016 Q243.5781,473.2109 243.9609,473.4625 Z " fill="#000000"/><text fill="#000000" font-family="sans-serif" font-size="9.8" lengthAdjust="spacing" textLength="102.2" x="256.375" y="480.4078">CollaboratorRepository</text><line style="stroke:#181818;stroke-width:0.3499999999999999;" x1="160.65" x2="431.55" y1="487.55" y2="487.55"/><line style="stroke:#181818;stroke-width:0.3499999999999999;" x1="160.65" x2="431.55" y1="493.15" y2="493.15"/><text fill="#000000" font-family="sans-serif" font-size="9.8" lengthAdjust="spacing" textLength="86.1" x="164.15" y="506.5252">+getCollaborators()</text><text fill="#000000" font-family="sans-serif" font-size="9.8" lengthAdjust="spacing" textLength="263.9" x="164.15" y="519.56">+selectCollaboratorsForTeam(availableCollaborators, skills)</text></g><!--class TeamRepository--><g id="elem_TeamRepository"><rect codeLine="53" fill="#F1F1F1" height="72.7043" id="TeamRepository" rx="1.75" ry="1.75" style="stroke:#181818;stroke-width:0.3499999999999999;" width="214.2" x="457.1" y="458.5"/><ellipse cx="524.825" cy="469.7" fill="#ADD1B2" rx="7.7" ry="7.7" style="stroke:#181818;stroke-width:0.6999999999999998;"/><path d="M526.7609,466.8125 Q526.8703,466.6594 527.0016,466.5828 Q527.1328,466.5062 527.2859,466.5062 Q527.5484,466.5062 527.7125,466.6922 Q527.8766,466.8672 527.8766,467.2937 L527.8766,468.3109 Q527.8766,468.7375 527.7125,468.9234 Q527.5484,469.1094 527.2859,469.1094 Q527.0453,469.1094 526.9031,468.9672 Q526.7609,468.8359 526.6844,468.475 Q526.6516,468.2234 526.5203,468.0922 Q526.2906,467.8297 525.8641,467.6766 Q525.4375,467.5234 525,467.5234 Q524.4641,467.5234 524.0156,467.7531 Q523.5781,467.9828 523.2281,468.5078 Q522.8891,469.0328 522.8891,469.7547 L522.8891,470.5203 Q522.8891,471.3844 523.5125,471.9641 Q524.1359,472.5328 525.2516,472.5328 Q525.9078,472.5328 526.3672,472.3578 Q526.6406,472.2484 526.9359,471.9422 Q527.1219,471.7562 527.2203,471.7016 Q527.3297,471.6469 527.4719,471.6469 Q527.7016,471.6469 527.8766,471.8328 Q528.0625,472.0078 528.0625,472.2484 Q528.0625,472.4891 527.8219,472.7734 Q527.4719,473.1781 526.9141,473.4078 Q526.1594,473.725 525.2516,473.725 Q524.1906,473.725 523.3484,473.2875 Q522.6594,472.9375 522.1781,472.1937 Q521.6969,471.4391 521.6969,470.5422 L521.6969,469.7328 Q521.6969,468.8031 522.1234,468.0047 Q522.5609,467.1953 523.3266,466.7687 Q524.0922,466.3312 524.9562,466.3312 Q525.4703,466.3312 525.9187,466.4516 Q526.3781,466.5609 526.7609,466.8125 Z " fill="#000000"/><text fill="#000000" font-family="sans-serif" font-size="9.8" lengthAdjust="spacing" textLength="72.8" x="539.175" y="473.7578">TeamRepository</text><line style="stroke:#181818;stroke-width:0.3499999999999999;" x1="457.8" x2="670.6" y1="480.9" y2="480.9"/><line style="stroke:#181818;stroke-width:0.3499999999999999;" x1="457.8" x2="670.6" y1="486.5" y2="486.5"/><text fill="#000000" font-family="sans-serif" font-size="9.8" lengthAdjust="spacing" textLength="205.8" x="461.3" y="499.8752">+checkAvailableCollaborators(collaboratorList)</text><text fill="#000000" font-family="sans-serif" font-size="9.8" lengthAdjust="spacing" textLength="168" x="461.3" y="512.91">+registerTeam(selectedCollaborators)</text><text fill="#000000" font-family="sans-serif" font-size="9.8" lengthAdjust="spacing" textLength="74.2" x="461.3" y="525.9447">-addTeam(team)</text></g><!--class Collaborator--><g id="elem_Collaborator"><rect codeLine="60" fill="#F1F1F1" height="203.052" id="Collaborator" rx="1.75" ry="1.75" style="stroke:#181818;stroke-width:0.3499999999999999;" width="240.1" x="176.05" y="701.4"/><ellipse cx="265.825" cy="712.6" fill="#ADD1B2" rx="7.7" ry="7.7" style="stroke:#181818;stroke-width:0.6999999999999998;"/><path d="M267.7609,709.7125 Q267.8703,709.5594 268.0016,709.4828 Q268.1328,709.4062 268.2859,709.4062 Q268.5484,709.4062 268.7125,709.5922 Q268.8766,709.7672 268.8766,710.1937 L268.8766,711.2109 Q268.8766,711.6375 268.7125,711.8234 Q268.5484,712.0094 268.2859,712.0094 Q268.0453,712.0094 267.9031,711.8672 Q267.7609,711.7359 267.6844,711.375 Q267.6516,711.1234 267.5203,710.9922 Q267.2906,710.7297 266.8641,710.5766 Q266.4375,710.4234 266,710.4234 Q265.4641,710.4234 265.0156,710.6531 Q264.5781,710.8828 264.2281,711.4078 Q263.8891,711.9328 263.8891,712.6547 L263.8891,713.4203 Q263.8891,714.2844 264.5125,714.8641 Q265.1359,715.4328 266.2516,715.4328 Q266.9078,715.4328 267.3672,715.2578 Q267.6406,715.1484 267.9359,714.8422 Q268.1219,714.6562 268.2203,714.6016 Q268.3297,714.5469 268.4719,714.5469 Q268.7016,714.5469 268.8766,714.7328 Q269.0625,714.9078 269.0625,715.1484 Q269.0625,715.3891 268.8219,715.6734 Q268.4719,716.0781 267.9141,716.3078 Q267.1594,716.625 266.2516,716.625 Q265.1906,716.625 264.3484,716.1875 Q263.6594,715.8375 263.1781,715.0937 Q262.6969,714.3391 262.6969,713.4422 L262.6969,712.6328 Q262.6969,711.7031 263.1234,710.9047 Q263.5609,710.0953 264.3266,709.6687 Q265.0922,709.2312 265.9562,709.2312 Q266.4703,709.2312 266.9187,709.3516 Q267.3781,709.4609 267.7609,709.7125 Z " fill="#000000"/><text fill="#000000" font-family="sans-serif" font-size="9.8" lengthAdjust="spacing" textLength="54.6" x="280.175" y="716.6578">Collaborator</text><line style="stroke:#181818;stroke-width:0.3499999999999999;" x1="176.75" x2="415.45" y1="723.8" y2="723.8"/><text fill="#000000" font-family="sans-serif" font-size="9.8" lengthAdjust="spacing" textLength="56.7" x="180.25" y="737.1752">-String name</text><text fill="#000000" font-family="sans-serif" font-size="9.8" lengthAdjust="spacing" textLength="86.1" x="180.25" y="750.21">-Calendar birthdate</text><text fill="#000000" font-family="sans-serif" font-size="9.8" lengthAdjust="spacing" textLength="112" x="180.25" y="763.2447">-Calendar admissionDate</text><text fill="#000000" font-family="sans-serif" font-size="9.8" lengthAdjust="spacing" textLength="67.9" x="180.25" y="776.2795">-String address</text><text fill="#000000" font-family="sans-serif" font-size="9.8" lengthAdjust="spacing" textLength="99.4" x="180.25" y="789.3143">-Integer phoneNumber</text><text fill="#000000" font-family="sans-serif" font-size="9.8" lengthAdjust="spacing" textLength="55.3" x="180.25" y="802.349">-String email</text><text fill="#000000" font-family="sans-serif" font-size="9.8" lengthAdjust="spacing" textLength="109.2" x="180.25" y="815.3838">-Integer taxpayerNumber</text><text fill="#000000" font-family="sans-serif" font-size="9.8" lengthAdjust="spacing" textLength="171.5" x="180.25" y="828.4186">-Integer identificationDocumentNumber</text><line style="stroke:#181818;stroke-width:0.3499999999999999;" x1="176.75" x2="415.45" y1="833.6781" y2="833.6781"/><text fill="#000000" font-family="sans-serif" font-size="9.8" lengthAdjust="spacing" textLength="135.8" x="180.25" y="847.0533">+Collaborator(name, birthdate,</text><text fill="#000000" font-family="sans-serif" font-size="9.8" lengthAdjust="spacing" textLength="177.1" x="180.25" y="860.0881">admissionDate, address, phoneNumber,</text><text fill="#000000" font-family="sans-serif" font-size="9.8" lengthAdjust="spacing" textLength="231.7" x="180.25" y="873.1229">email, taxpayerNumber, identificationDocumentType,</text><text fill="#000000" font-family="sans-serif" font-size="9.8" lengthAdjust="spacing" textLength="156.8" x="180.25" y="886.1576">identificationDocumentNumber, job)</text><text fill="#000000" font-family="sans-serif" font-size="9.8" lengthAdjust="spacing" textLength="126" x="180.25" y="899.1924">+evaluateCollaborator(skills)</text></g><!--class DocType--><g id="elem_DocType"><rect codeLine="74" fill="#F1F1F1" height="72.7043" id="DocType" rx="1.75" ry="1.75" style="stroke:#181818;stroke-width:0.3499999999999999;" width="62.3" x="264.95" y="959.7"/><ellipse cx="275.45" cy="970.9" fill="#EB937F" rx="7.7" ry="7.7" style="stroke:#181818;stroke-width:0.6999999999999998;"/><path d="M274.6516,971.4578 L274.6516,973.2078 L277.6812,973.2078 L277.6812,972.5625 Q277.6812,972.1359 277.8453,971.95 Q278.0203,971.7641 278.2828,971.7641 Q278.5453,971.7641 278.7094,971.95 Q278.8734,972.1359 278.8734,972.5625 L278.8734,974.4 L273.2734,974.4 Q272.8359,974.4 272.65,974.2359 Q272.475,974.0719 272.475,973.7984 Q272.475,973.5359 272.6609,973.3719 Q272.8469,973.2078 273.2734,973.2078 L273.4594,973.2078 L273.4594,968.5484 L273.2734,968.5484 Q272.8359,968.5484 272.65,968.3844 Q272.475,968.2203 272.475,967.9469 Q272.475,967.6844 272.65,967.5203 Q272.8359,967.3562 273.2734,967.3562 L278.6109,967.3562 L278.6109,969.1719 Q278.6109,969.5984 278.4469,969.7844 Q278.2937,969.9594 278.0203,969.9594 Q277.7578,969.9594 277.5937,969.7844 Q277.4297,969.5984 277.4297,969.1719 L277.4297,968.5484 L274.6516,968.5484 L274.6516,970.2656 L275.6906,970.2656 Q275.6906,969.8062 275.7781,969.675 Q275.9641,969.3906 276.2922,969.3906 Q276.5547,969.3906 276.7187,969.5766 Q276.8828,969.7516 276.8828,970.1781 L276.8828,971.5562 Q276.8828,971.9391 276.7953,972.0703 Q276.6094,972.3437 276.2922,972.3437 Q275.9641,972.3437 275.7781,972.0594 Q275.6906,971.9281 275.6906,971.4578 L274.6516,971.4578 Z " fill="#000000"/><text fill="#000000" font-family="sans-serif" font-size="9.8" lengthAdjust="spacing" textLength="39.9" x="285.25" y="974.9578">DocType</text><line style="stroke:#181818;stroke-width:0.3499999999999999;" x1="265.65" x2="326.55" y1="982.1" y2="982.1"/><text fill="#000000" font-family="sans-serif" font-size="9.8" lengthAdjust="spacing" textLength="14" x="269.15" y="995.4752">CC</text><text fill="#000000" font-family="sans-serif" font-size="9.8" lengthAdjust="spacing" textLength="8.4" x="269.15" y="1008.51">BI</text><text fill="#000000" font-family="sans-serif" font-size="9.8" lengthAdjust="spacing" textLength="39.2" x="269.15" y="1021.5447">Passport</text><line style="stroke:#181818;stroke-width:0.3499999999999999;" x1="265.65" x2="326.55" y1="1026.8043" y2="1026.8043"/></g><!--class Skill--><g id="elem_Skill"><rect codeLine="81" fill="#F1F1F1" height="46.6348" id="Skill" rx="1.75" ry="1.75" style="stroke:#181818;stroke-width:0.3499999999999999;" width="65.1" x="141.05" y="972.65"/><ellipse cx="162.89" cy="983.85" fill="#ADD1B2" rx="7.7" ry="7.7" style="stroke:#181818;stroke-width:0.6999999999999998;"/><path d="M164.8259,980.9625 Q164.9353,980.8094 165.0666,980.7328 Q165.1978,980.6562 165.3509,980.6562 Q165.6134,980.6562 165.7775,980.8422 Q165.9416,981.0172 165.9416,981.4437 L165.9416,982.4609 Q165.9416,982.8875 165.7775,983.0734 Q165.6134,983.2594 165.3509,983.2594 Q165.1103,983.2594 164.9681,983.1172 Q164.8259,982.9859 164.7494,982.625 Q164.7166,982.3734 164.5853,982.2422 Q164.3556,981.9797 163.9291,981.8266 Q163.5025,981.6734 163.065,981.6734 Q162.5291,981.6734 162.0806,981.9031 Q161.6431,982.1328 161.2931,982.6578 Q160.9541,983.1828 160.9541,983.9047 L160.9541,984.6703 Q160.9541,985.5344 161.5775,986.1141 Q162.2009,986.6828 163.3166,986.6828 Q163.9728,986.6828 164.4322,986.5078 Q164.7056,986.3984 165.0009,986.0922 Q165.1869,985.9062 165.2853,985.8516 Q165.3947,985.7969 165.5369,985.7969 Q165.7666,985.7969 165.9416,985.9828 Q166.1275,986.1578 166.1275,986.3984 Q166.1275,986.6391 165.8869,986.9234 Q165.5369,987.3281 164.9791,987.5578 Q164.2244,987.875 163.3166,987.875 Q162.2556,987.875 161.4134,987.4375 Q160.7244,987.0875 160.2431,986.3437 Q159.7619,985.5891 159.7619,984.6922 L159.7619,983.8828 Q159.7619,982.9531 160.1884,982.1547 Q160.6259,981.3453 161.3916,980.9187 Q162.1572,980.4812 163.0212,980.4812 Q163.5353,980.4812 163.9837,980.6016 Q164.4431,980.7109 164.8259,980.9625 Z " fill="#000000"/><text fill="#000000" font-family="sans-serif" font-size="9.8" lengthAdjust="spacing" textLength="17.5" x="175.21" y="987.9078">Skill</text><line style="stroke:#181818;stroke-width:0.3499999999999999;" x1="141.75" x2="205.45" y1="995.05" y2="995.05"/><text fill="#000000" font-family="sans-serif" font-size="9.8" lengthAdjust="spacing" textLength="56.7" x="145.25" y="1008.4252">-String name</text><line style="stroke:#181818;stroke-width:0.3499999999999999;" x1="141.75" x2="205.45" y1="1013.6848" y2="1013.6848"/></g><!--class Team--><g id="elem_Team"><rect codeLine="86" fill="#F1F1F1" height="59.6695" id="Team" rx="1.75" ry="1.75" style="stroke:#181818;stroke-width:0.3499999999999999;" width="232.4" x="408.1" y="586.6"/><ellipse cx="508.725" cy="597.8" fill="#ADD1B2" rx="7.7" ry="7.7" style="stroke:#181818;stroke-width:0.6999999999999998;"/><path d="M510.6609,594.9125 Q510.7703,594.7594 510.9016,594.6828 Q511.0328,594.6062 511.1859,594.6062 Q511.4484,594.6062 511.6125,594.7922 Q511.7766,594.9672 511.7766,595.3937 L511.7766,596.4109 Q511.7766,596.8375 511.6125,597.0234 Q511.4484,597.2094 511.1859,597.2094 Q510.9453,597.2094 510.8031,597.0672 Q510.6609,596.9359 510.5844,596.575 Q510.5516,596.3234 510.4203,596.1922 Q510.1906,595.9297 509.7641,595.7766 Q509.3375,595.6234 508.9,595.6234 Q508.3641,595.6234 507.9156,595.8531 Q507.4781,596.0828 507.1281,596.6078 Q506.7891,597.1328 506.7891,597.8547 L506.7891,598.6203 Q506.7891,599.4844 507.4125,600.0641 Q508.0359,600.6328 509.1516,600.6328 Q509.8078,600.6328 510.2672,600.4578 Q510.5406,600.3484 510.8359,600.0422 Q511.0219,599.8562 511.1203,599.8016 Q511.2297,599.7469 511.3719,599.7469 Q511.6016,599.7469 511.7766,599.9328 Q511.9625,600.1078 511.9625,600.3484 Q511.9625,600.5891 511.7219,600.8734 Q511.3719,601.2781 510.8141,601.5078 Q510.0594,601.825 509.1516,601.825 Q508.0906,601.825 507.2484,601.3875 Q506.5594,601.0375 506.0781,600.2937 Q505.5969,599.5391 505.5969,598.6422 L505.5969,597.8328 Q505.5969,596.9031 506.0234,596.1047 Q506.4609,595.2953 507.2266,594.8687 Q507.9922,594.4312 508.8562,594.4312 Q509.3703,594.4312 509.8187,594.5516 Q510.2781,594.6609 510.6609,594.9125 Z " fill="#000000"/><text fill="#000000" font-family="sans-serif" font-size="9.8" lengthAdjust="spacing" textLength="25.2" x="523.075" y="601.8578">Team</text><line style="stroke:#181818;stroke-width:0.3499999999999999;" x1="408.8" x2="639.8" y1="609" y2="609"/><line style="stroke:#181818;stroke-width:0.3499999999999999;" x1="408.8" x2="639.8" y1="614.6" y2="614.6"/><text fill="#000000" font-family="sans-serif" font-size="9.8" lengthAdjust="spacing" textLength="134.4" x="412.3" y="627.9752">+Team(selectedCollaborators)</text><text fill="#000000" font-family="sans-serif" font-size="9.8" lengthAdjust="spacing" textLength="224" x="412.3" y="641.01">+removeUnavailableCollaborators(collaboratorList)</text></g><!--link Repositories to Repositories--><g id="link_Repositories_Repositories"><path codeLine="92" d="M324.814,353.787 C339.059,355.117 349.3,359.338 349.3,366.45 C349.3,373.562 343.2408,377.3926 328.9958,378.7226 " fill="none" id="Repositories-to-Repositories" style="stroke:#181818;stroke-width:0.6999999999999998;"/><polygon fill="#181818" points="324.814,379.113,331.347,381.3152,328.2988,378.7876,330.8264,375.7395,324.814,379.113" style="stroke:#181818;stroke-width:0.6999999999999998;"/><text fill="#000000" font-family="sans-serif" font-size="9.1" lengthAdjust="spacing" textLength="34.3" x="353.5" y="370.3198">instance</text></g><!--link GenerateTeamUI to GenerateTeamController--><g id="link_GenerateTeamUI_GenerateTeamController"><path codeLine="94" d="M374.5,38.64 C374.5,49.805 374.5,61.215 374.5,76.951 " fill="none" id="GenerateTeamUI-to-GenerateTeamController" style="stroke:#181818;stroke-width:0.6999999999999998;stroke-dasharray:7.0,7.0;"/><polygon fill="#181818" points="374.5,81.151,377.3,74.851,374.5,77.651,371.7,74.851,374.5,81.151" style="stroke:#181818;stroke-width:0.6999999999999998;"/></g><!--link GenerateTeamController to Repositories--><g id="link_GenerateTeamController_Repositories"><path codeLine="96" d="M341.544,205.912 C322.812,240.996 301.6692,280.6001 284.2182,313.2831 " fill="none" id="GenerateTeamController-to-Repositories" style="stroke:#181818;stroke-width:0.6999999999999998;stroke-dasharray:7.0,7.0;"/><polygon fill="#181818" points="282.24,316.988,287.6773,312.7494,283.8885,313.9006,282.7374,310.1118,282.24,316.988" style="stroke:#181818;stroke-width:0.6999999999999998;"/><text fill="#000000" font-family="sans-serif" font-size="9.1" lengthAdjust="spacing" textLength="46.9" x="319.9" y="259.0198">repositories</text></g><!--link GenerateTeamController to CollaboratorRepository--><g id="link_GenerateTeamController_CollaboratorRepository"><path codeLine="98" d="M380.744,205.891 C385.77,255.542 392,317.1 392,317.1 C392,317.1 392,415.8 392,415.8 C392,415.8 362.3234,440.0563 335.0584,462.3513 " fill="none" id="GenerateTeamController-to-CollaboratorRepository" style="stroke:#181818;stroke-width:0.6999999999999998;stroke-dasharray:7.0,7.0;"/><polygon fill="#181818" points="331.807,465.01,338.4565,463.1895,334.5165,462.7944,334.9116,458.8544,331.807,465.01" style="stroke:#181818;stroke-width:0.6999999999999998;"/><text fill="#000000" font-family="sans-serif" font-size="9.1" lengthAdjust="spacing" textLength="90.3" x="390.6" y="293.3198">collaboratorRepository</text></g><!--link GenerateTeamController to SkillRepository--><g id="link_GenerateTeamController_SkillRepository"><path codeLine="99" d="M303.324,205.891 C246.029,255.542 175,317.1 175,317.1 C175,317.1 119.3008,411.0391 89.4808,461.3411 " fill="none" id="GenerateTeamController-to-SkillRepository" style="stroke:#181818;stroke-width:0.6999999999999998;stroke-dasharray:7.0,7.0;"/><polygon fill="#181818" points="87.339,464.954,92.9602,460.9626,89.1238,461.9433,88.1431,458.1069,87.339,464.954" style="stroke:#181818;stroke-width:0.6999999999999998;"/><text fill="#000000" font-family="sans-serif" font-size="9.1" lengthAdjust="spacing" textLength="59.5" x="215.6" y="293.3198">skillRepository</text></g><!--link GenerateTeamController to TeamRepository--><g id="link_GenerateTeamController_TeamRepository"><path codeLine="100" d="M424.753,206.003 C454.804,242.963 487.2,282.8 487.2,282.8 C487.2,282.8 527.7347,394.0806 549.7007,454.3926 " fill="none" id="GenerateTeamController-to-TeamRepository" style="stroke:#181818;stroke-width:0.6999999999999998;stroke-dasharray:7.0,7.0;"/><polygon fill="#181818" points="551.138,458.339,551.613,451.4612,549.9402,455.0503,546.3511,453.3776,551.138,458.339" style="stroke:#181818;stroke-width:0.6999999999999998;"/><text fill="#000000" font-family="sans-serif" font-size="9.1" lengthAdjust="spacing" textLength="63.7" x="492.1" y="293.3198">teamRepository</text></g><!--link Repositories to SkillRepository--><g id="link_Repositories_SkillRepository"><path codeLine="102" d="M187.397,414.099 C162.323,431.207 138.1986,447.6702 116.0646,462.7692 " fill="none" id="Repositories-to-SkillRepository" style="stroke:#181818;stroke-width:0.6999999999999998;"/><polygon fill="#181818" points="112.595,465.136,119.3773,463.8988,115.4863,463.1636,116.2215,459.2727,112.595,465.136" style="stroke:#181818;stroke-width:0.6999999999999998;"/><text fill="#000000" font-family="sans-serif" font-size="9.1" lengthAdjust="spacing" textLength="4.9" x="114.0931" y="457.3666">1</text></g><!--link Repositories to CollaboratorRepository--><g id="link_Repositories_CollaboratorRepository"><path codeLine="103" d="M271.509,415.905 C276.724,432.495 281.1132,446.4924 285.6912,461.0524 " fill="none" id="Repositories-to-CollaboratorRepository" style="stroke:#181818;stroke-width:0.6999999999999998;"/><polygon fill="#181818" points="286.951,465.059,287.7324,458.2092,285.9012,461.7202,282.3903,459.8889,286.951,465.059" style="stroke:#181818;stroke-width:0.6999999999999998;"/><text fill="#000000" font-family="sans-serif" font-size="9.1" lengthAdjust="spacing" textLength="4.9" x="280.2024" y="457.2774">1</text></g><!--link Repositories to TeamRepository--><g id="link_Repositories_TeamRepository"><path codeLine="104" d="M324.94,395.507 C369.971,414.078 425.3223,436.9135 473.5873,456.8215 " fill="none" id="Repositories-to-TeamRepository" style="stroke:#181818;stroke-width:0.6999999999999998;"/><polygon fill="#181818" points="477.47,458.423,472.7136,453.4323,474.2344,457.0884,470.5783,458.6092,477.47,458.423" style="stroke:#181818;stroke-width:0.6999999999999998;"/><text fill="#000000" font-family="sans-serif" font-size="9.1" lengthAdjust="spacing" textLength="4.9" x="460.5864" y="450.6618">1</text></g><!--link SkillRepository to Skill--><g id="link_SkillRepository_Skill"><path codeLine="106" d="M76.055,524.818 C94.864,615.538 151.1457,887.0714 168.0087,968.4394 " fill="none" id="SkillRepository-to-Skill" style="stroke:#181818;stroke-width:0.6999999999999998;"/><polygon fill="#181818" points="168.861,972.552,170.3243,965.8149,168.1507,969.1248,164.8408,966.9513,168.861,972.552" style="stroke:#181818;stroke-width:0.6999999999999998;"/><text fill="#000000" font-family="sans-serif" font-size="9.1" lengthAdjust="spacing" textLength="16.1" x="108.5" y="677.6198">skill</text><text fill="#000000" font-family="sans-serif" font-size="9.1" lengthAdjust="spacing" textLength="4.9" x="71.707" y="540.1327">1</text><text fill="#000000" font-family="sans-serif" font-size="9.1" lengthAdjust="spacing" textLength="3.5" x="164.0835" y="964.7106">*</text></g><!--link CollaboratorRepository to Collaborator--><g id="link_CollaboratorRepository_Collaborator"><path codeLine="107" d="M296.1,524.72 C296.1,564.928 296.1,635.285 296.1,696.99 " fill="none" id="CollaboratorRepository-to-Collaborator" style="stroke:#181818;stroke-width:0.6999999999999998;"/><polygon fill="#181818" points="296.1,701.19,298.9,694.89,296.1,697.69,293.3,694.89,296.1,701.19" style="stroke:#181818;stroke-width:0.6999999999999998;"/><text fill="#000000" font-family="sans-serif" font-size="9.1" lengthAdjust="spacing" textLength="46.9" x="296.8" y="620.2198">collaborator</text><text fill="#000000" font-family="sans-serif" font-size="9.1" lengthAdjust="spacing" textLength="4.9" x="290.8095" y="540.2434">1</text><text fill="#000000" font-family="sans-serif" font-size="9.1" lengthAdjust="spacing" textLength="3.5" x="292.5098" y="693.5625">*</text></g><!--link TeamRepository to Team--><g id="link_TeamRepository_Team"><path codeLine="108" d="M552.23,531.622 C546.399,549.164 540.8001,565.9962 535.3121,582.5162 " fill="none" id="TeamRepository-to-Team" style="stroke:#181818;stroke-width:0.6999999999999998;"/><polygon fill="#181818" points="533.988,586.502,538.6314,581.406,535.0914,583.1805,533.3169,579.6405,533.988,586.502" style="stroke:#181818;stroke-width:0.6999999999999998;"/><text fill="#000000" font-family="sans-serif" font-size="9.1" lengthAdjust="spacing" textLength="20.3" x="544.6" y="562.8198">team</text><text fill="#000000" font-family="sans-serif" font-size="9.1" lengthAdjust="spacing" textLength="4.9" x="545.5726" y="546.6607">1</text><text fill="#000000" font-family="sans-serif" font-size="9.1" lengthAdjust="spacing" textLength="3.5" x="531.7531" y="578.7192">*</text></g><!--link Collaborator to Skill--><g id="link_Collaborator_Skill"><path codeLine="110" d="M231.623,904.554 C215.25,930.188 201.4526,951.7923 190.3926,969.1103 " fill="none" id="Collaborator-to-Skill" style="stroke:#181818;stroke-width:0.6999999999999998;"/><polygon fill="#181818" points="188.132,972.65,193.8827,968.8475,190.0158,969.7002,189.1631,965.8333,188.132,972.65" style="stroke:#181818;stroke-width:0.6999999999999998;"/><text fill="#000000" font-family="sans-serif" font-size="9.1" lengthAdjust="spacing" textLength="14.7" x="217.7" y="935.9198">has</text><text fill="#000000" font-family="sans-serif" font-size="9.1" lengthAdjust="spacing" textLength="4.9" x="223.2721" y="919.9261">1</text><text fill="#000000" font-family="sans-serif" font-size="9.1" lengthAdjust="spacing" textLength="3.5" x="187.1485" y="964.8279">*</text></g><!--link Team to Collaborator--><g id="link_Team_Collaborator"><path codeLine="111" d="M488.39,646.184 C468.559,662.277 445.9206,680.6448 419.5796,702.0158 " fill="none" id="Team-to-Collaborator" style="stroke:#181818;stroke-width:0.6999999999999998;"/><polygon fill="#181818" points="416.318,704.662,422.9745,702.8671,419.036,702.4569,419.4462,698.5184,416.318,704.662" style="stroke:#181818;stroke-width:0.6999999999999998;"/><text fill="#000000" font-family="sans-serif" font-size="9.1" lengthAdjust="spacing" textLength="14.7" x="457.8" y="677.6198">has</text><text fill="#000000" font-family="sans-serif" font-size="9.1" lengthAdjust="spacing" textLength="4.9" x="477.3764" y="661.7096">1</text><text fill="#000000" font-family="sans-serif" font-size="9.1" lengthAdjust="spacing" textLength="14" x="421.685" y="698.1896">1..*</text></g><!--reverse link Collaborator to DocType--><g id="link_Collaborator_DocType"><path codeLine="113" d="M296.1,915.754 C296.1,935.522 296.1,943.796 296.1,959.616 " fill="none" id="Collaborator-backto-DocType" style="stroke:#181818;stroke-width:0.6999999999999998;"/><ellipse cx="296.1" cy="910.154" fill="#FFFFFF" rx="5.6" ry="5.6" style="stroke:#181818;stroke-width:0.6999999999999998;"/><line style="stroke:#181818;stroke-width:0.6999999999999998;" x1="296.1" x2="296.1" y1="915.754" y2="904.554"/><line style="stroke:#181818;stroke-width:0.6999999999999998;" x1="290.5" x2="301.7" y1="910.154" y2="910.154"/></g><!--SRC=[fLLBRjim4Dtp54Iwi5BBHhFj8a3Ye8M18WZgPDSDBOqbrloe99t6BNAg7g4NwqYMP5AXt0RrmhOuxysVJnExvQfYXaagjT9PQRG4wimEoD5IiMpB2bYvlG1g87DC5S87s9Bb-ZjN1TqmONsBu0hSlW9QQR6l7yWaOjJ6QUAnCi6ilNBEyFNEmJBJQiL_07r7o4J0nb6dgU55wMZEwtIuLeGq7FeH51Zcu1wOV5YIduGynqmBhPpHGe112CNFTCISdBVc0jngouMmticHS6TqfIqJYUHgWKIsJgbaJzrVMpDlcGJRaGqKt3emDJcn8B0Ao0zmZKwrQP6pFl3rldQGzAuwUrP2jhrwP1of0W8NIOSv10Xi7_GXDeiosvGnYMSoUVEw3vbW-pRSI6QefjKtcckA4xIuLEYQOj5KMsm0DeoxtxyCnoUbAJo1h8H-VRXsl9yF3hNXODkXpe93VvHBJ8Uf399p-ZvaXjFkJNkVxRSgZgXR6rXm2xj41uxx1OnjsDZe-wMEf-BxZ6t4zFyseeqT5jd7FBMGcVVq2I_0wwy3o_C6vF1hf0_zz5Se8AX92blMdYoO09NZOgwvSMMEjtTeOBdargAYt1oDhHyCRS3Qzd2f71IuorMf5Tpkv1gr9823n1OCm8uzLMmF9i1tHfw3Sdp3CrOhsetETX8FFEWqA3EfwqgFbQHVL91ysYMS-ZaYgaai7UIIZeI_Htr6pgdSKlfLhxj9mYCJEumUPEgj3gYTfCYl_RQ3MYoQd-jbytE7uwpmXN2SRNC7eaCDLh5VmByjKRrkKZ_2WsB_kgKOo5S9EhiCL0D5XBUAGaZu2gBp-UNOguV4pv4oV-7V-29raXYN17IHnRNYbA-1Lg4JEr2lK-nG893iGiKOz1IRUdPnza8Vew0HtOjY1pf5XaNLc0RxjWtULab6EkdZVSYWnMHGla-hJOTsa21AB9UIsSRLqNOndmz27r2Xg-birb-qFm00]--></g></svg>