<?xml version="1.0" encoding="us-ascii" standalone="no"?><svg xmlns="http://www.w3.org/2000/svg" xmlns:xlink="http://www.w3.org/1999/xlink" contentStyleType="text/css" height="1075.9px" preserveAspectRatio="none" style="width:644px;height:1075px;background:#FFFFFF;" version="1.1" viewBox="0 0 644 1075" width="644.7px" zoomAndPan="magnify"><defs/><g><!--class GenerateTeamUI--><g id="elem_GenerateTeamUI"><rect codeLine="11" fill="#F1F1F1" height="33.6" id="GenerateTeamUI" rx="1.75" ry="1.75" style="stroke:#181818;stroke-width:0.3499999999999999;" width="98" x="291.55" y="4.9"/><ellipse cx="302.05" cy="16.1" fill="#ADD1B2" rx="7.7" ry="7.7" style="stroke:#181818;stroke-width:0.6999999999999998;"/><path d="M303.9859,13.2125 Q304.0953,13.0594 304.2266,12.9828 Q304.3578,12.9062 304.5109,12.9062 Q304.7734,12.9062 304.9375,13.0922 Q305.1016,13.2672 305.1016,13.6937 L305.1016,14.7109 Q305.1016,15.1375 304.9375,15.3234 Q304.7734,15.5094 304.5109,15.5094 Q304.2703,15.5094 304.1281,15.3672 Q303.9859,15.2359 303.9094,14.875 Q303.8766,14.6234 303.7453,14.4922 Q303.5156,14.2297 303.0891,14.0766 Q302.6625,13.9234 302.225,13.9234 Q301.6891,13.9234 301.2406,14.1531 Q300.8031,14.3828 300.4531,14.9078 Q300.1141,15.4328 300.1141,16.1547 L300.1141,16.9203 Q300.1141,17.7844 300.7375,18.3641 Q301.3609,18.9328 302.4766,18.9328 Q303.1328,18.9328 303.5922,18.7578 Q303.8656,18.6484 304.1609,18.3422 Q304.3469,18.1562 304.4453,18.1016 Q304.5547,18.0469 304.6969,18.0469 Q304.9266,18.0469 305.1016,18.2328 Q305.2875,18.4078 305.2875,18.6484 Q305.2875,18.8891 305.0469,19.1734 Q304.6969,19.5781 304.1391,19.8078 Q303.3844,20.125 302.4766,20.125 Q301.4156,20.125 300.5734,19.6875 Q299.8844,19.3375 299.4031,18.5937 Q298.9219,17.8391 298.9219,16.9422 L298.9219,16.1328 Q298.9219,15.2031 299.3484,14.4047 Q299.7859,13.5953 300.5516,13.1687 Q301.3172,12.7312 302.1812,12.7312 Q302.6953,12.7312 303.1437,12.8516 Q303.6031,12.9609 303.9859,13.2125 Z " fill="#000000"/><text fill="#000000" font-family="sans-serif" font-size="9.8" lengthAdjust="spacing" textLength="75.6" x="311.85" y="20.1578">GenerateTeamUI</text><line style="stroke:#181818;stroke-width:0.3499999999999999;" x1="292.25" x2="388.85" y1="27.3" y2="27.3"/><line style="stroke:#181818;stroke-width:0.3499999999999999;" x1="292.25" x2="388.85" y1="32.9" y2="32.9"/></g><!--class GenerateTeamController--><g id="elem_GenerateTeamController"><rect codeLine="16" fill="#F1F1F1" height="137.8781" id="GenerateTeamController" rx="1.75" ry="1.75" style="stroke:#181818;stroke-width:0.3499999999999999;" width="219.8" x="230.65" y="81.2"/><ellipse cx="282.275" cy="92.4" fill="#ADD1B2" rx="7.7" ry="7.7" style="stroke:#181818;stroke-width:0.6999999999999998;"/><path d="M284.2109,89.5125 Q284.3203,89.3594 284.4516,89.2828 Q284.5828,89.2062 284.7359,89.2062 Q284.9984,89.2062 285.1625,89.3922 Q285.3266,89.5672 285.3266,89.9937 L285.3266,91.0109 Q285.3266,91.4375 285.1625,91.6234 Q284.9984,91.8094 284.7359,91.8094 Q284.4953,91.8094 284.3531,91.6672 Q284.2109,91.5359 284.1344,91.175 Q284.1016,90.9234 283.9703,90.7922 Q283.7406,90.5297 283.3141,90.3766 Q282.8875,90.2234 282.45,90.2234 Q281.9141,90.2234 281.4656,90.4531 Q281.0281,90.6828 280.6781,91.2078 Q280.3391,91.7328 280.3391,92.4547 L280.3391,93.2203 Q280.3391,94.0844 280.9625,94.6641 Q281.5859,95.2328 282.7016,95.2328 Q283.3578,95.2328 283.8172,95.0578 Q284.0906,94.9484 284.3859,94.6422 Q284.5719,94.4562 284.6703,94.4016 Q284.7797,94.3469 284.9219,94.3469 Q285.1516,94.3469 285.3266,94.5328 Q285.5125,94.7078 285.5125,94.9484 Q285.5125,95.1891 285.2719,95.4734 Q284.9219,95.8781 284.3641,96.1078 Q283.6094,96.425 282.7016,96.425 Q281.6406,96.425 280.7984,95.9875 Q280.1094,95.6375 279.6281,94.8937 Q279.1469,94.1391 279.1469,93.2422 L279.1469,92.4328 Q279.1469,91.5031 279.5734,90.7047 Q280.0109,89.8953 280.7766,89.4687 Q281.5422,89.0312 282.4062,89.0312 Q282.9203,89.0312 283.3687,89.1516 Q283.8281,89.2609 284.2109,89.5125 Z " fill="#000000"/><text fill="#000000" font-family="sans-serif" font-size="9.8" lengthAdjust="spacing" textLength="110.6" x="296.625" y="96.4578">GenerateTeamController</text><line style="stroke:#181818;stroke-width:0.3499999999999999;" x1="231.35" x2="449.75" y1="103.6" y2="103.6"/><line style="stroke:#181818;stroke-width:0.3499999999999999;" x1="231.35" x2="449.75" y1="109.2" y2="109.2"/><text fill="#000000" font-family="sans-serif" font-size="9.8" lengthAdjust="spacing" textLength="123.2" x="234.85" y="122.5752">+GenerateTeamController()</text><text fill="#000000" font-family="sans-serif" font-size="9.8" lengthAdjust="spacing" textLength="49" x="234.85" y="135.61">+getSkills()</text><text fill="#000000" font-family="sans-serif" font-size="9.8" lengthAdjust="spacing" textLength="151.9" x="234.85" y="148.6447">+addSelectedSkillName(skillName)</text><text fill="#000000" font-family="sans-serif" font-size="9.8" lengthAdjust="spacing" textLength="211.4" x="234.85" y="161.6795">+generateTeamProposal(minCollab, maxCollab)</text><text fill="#000000" font-family="sans-serif" font-size="9.8" lengthAdjust="spacing" textLength="163.1" x="234.85" y="174.7143">+registerTeam(tempCollaboratorList)</text><text fill="#000000" font-family="sans-serif" font-size="9.8" lengthAdjust="spacing" textLength="114.8" x="234.85" y="187.749">-createSelectedSkillsList()</text><text fill="#000000" font-family="sans-serif" font-size="9.8" lengthAdjust="spacing" textLength="153.3" x="234.85" y="200.7838">-createAvailableCollaboratorsList()</text><text fill="#000000" font-family="sans-serif" font-size="9.8" lengthAdjust="spacing" textLength="211.4" x="234.85" y="213.8186">-selectCollaboratorsForTeam(selectedSkillsList)</text></g><!--class Repositories--><g id="elem_Repositories"><rect codeLine="31" fill="#F1F1F1" height="98.7738" id="Repositories" rx="1.75" ry="1.75" style="stroke:#181818;stroke-width:0.3499999999999999;" width="137.2" x="153.65" y="330.4"/><ellipse cx="191.625" cy="341.6" fill="#ADD1B2" rx="7.7" ry="7.7" style="stroke:#181818;stroke-width:0.6999999999999998;"/><path d="M193.5609,338.7125 Q193.6703,338.5594 193.8016,338.4828 Q193.9328,338.4062 194.0859,338.4062 Q194.3484,338.4062 194.5125,338.5922 Q194.6766,338.7672 194.6766,339.1937 L194.6766,340.2109 Q194.6766,340.6375 194.5125,340.8234 Q194.3484,341.0094 194.0859,341.0094 Q193.8453,341.0094 193.7031,340.8672 Q193.5609,340.7359 193.4844,340.375 Q193.4516,340.1234 193.3203,339.9922 Q193.0906,339.7297 192.6641,339.5766 Q192.2375,339.4234 191.8,339.4234 Q191.2641,339.4234 190.8156,339.6531 Q190.3781,339.8828 190.0281,340.4078 Q189.6891,340.9328 189.6891,341.6547 L189.6891,342.4203 Q189.6891,343.2844 190.3125,343.8641 Q190.9359,344.4328 192.0516,344.4328 Q192.7078,344.4328 193.1672,344.2578 Q193.4406,344.1484 193.7359,343.8422 Q193.9219,343.6562 194.0203,343.6016 Q194.1297,343.5469 194.2719,343.5469 Q194.5016,343.5469 194.6766,343.7328 Q194.8625,343.9078 194.8625,344.1484 Q194.8625,344.3891 194.6219,344.6734 Q194.2719,345.0781 193.7141,345.3078 Q192.9594,345.625 192.0516,345.625 Q190.9906,345.625 190.1484,345.1875 Q189.4594,344.8375 188.9781,344.0937 Q188.4969,343.3391 188.4969,342.4422 L188.4969,341.6328 Q188.4969,340.7031 188.9234,339.9047 Q189.3609,339.0953 190.1266,338.6687 Q190.8922,338.2312 191.7562,338.2312 Q192.2703,338.2312 192.7187,338.3516 Q193.1781,338.4609 193.5609,338.7125 Z " fill="#000000"/><text fill="#000000" font-family="sans-serif" font-size="9.8" lengthAdjust="spacing" textLength="55.3" x="205.975" y="345.6578">Repositories</text><line style="stroke:#181818;stroke-width:0.3499999999999999;" x1="154.35" x2="290.15" y1="352.8" y2="352.8"/><line style="stroke:#181818;stroke-width:0.3499999999999999;" x1="154.35" x2="290.15" y1="358.4" y2="358.4"/><text fill="#000000" font-family="sans-serif" font-size="9.8" lengthAdjust="spacing" textLength="65.8" x="157.85" y="371.7752">-Repositories()</text><text fill="#000000" font-family="sans-serif" font-size="9.8" lengthAdjust="spacing" textLength="127.4" x="157.85" y="384.81">+getInstance() : Repositories</text><text fill="#000000" font-family="sans-serif" font-size="9.8" lengthAdjust="spacing" textLength="91.7" x="157.85" y="397.8447">+getSkillRepository()</text><text fill="#000000" font-family="sans-serif" font-size="9.8" lengthAdjust="spacing" textLength="128.8" x="157.85" y="410.8795">+getCollaboratorRepository()</text><text fill="#000000" font-family="sans-serif" font-size="9.8" lengthAdjust="spacing" textLength="99.4" x="157.85" y="423.9143">+getTeamRepository()</text></g><!--class SkillRepository--><g id="elem_SkillRepository"><rect codeLine="42" fill="#F1F1F1" height="98.7738" id="SkillRepository" rx="1.75" ry="1.75" style="stroke:#181818;stroke-width:0.3499999999999999;" width="168.7" x="4.9" y="471.8"/><ellipse cx="53.725" cy="483" fill="#ADD1B2" rx="7.7" ry="7.7" style="stroke:#181818;stroke-width:0.6999999999999998;"/><path d="M55.6609,480.1125 Q55.7703,479.9594 55.9016,479.8828 Q56.0328,479.8062 56.1859,479.8062 Q56.4484,479.8062 56.6125,479.9922 Q56.7766,480.1672 56.7766,480.5937 L56.7766,481.6109 Q56.7766,482.0375 56.6125,482.2234 Q56.4484,482.4094 56.1859,482.4094 Q55.9453,482.4094 55.8031,482.2672 Q55.6609,482.1359 55.5844,481.775 Q55.5516,481.5234 55.4203,481.3922 Q55.1906,481.1297 54.7641,480.9766 Q54.3375,480.8234 53.9,480.8234 Q53.3641,480.8234 52.9156,481.0531 Q52.4781,481.2828 52.1281,481.8078 Q51.7891,482.3328 51.7891,483.0547 L51.7891,483.8203 Q51.7891,484.6844 52.4125,485.2641 Q53.0359,485.8328 54.1516,485.8328 Q54.8078,485.8328 55.2672,485.6578 Q55.5406,485.5484 55.8359,485.2422 Q56.0219,485.0562 56.1203,485.0016 Q56.2297,484.9469 56.3719,484.9469 Q56.6016,484.9469 56.7766,485.1328 Q56.9625,485.3078 56.9625,485.5484 Q56.9625,485.7891 56.7219,486.0734 Q56.3719,486.4781 55.8141,486.7078 Q55.0594,487.025 54.1516,487.025 Q53.0906,487.025 52.2484,486.5875 Q51.5594,486.2375 51.0781,485.4937 Q50.5969,484.7391 50.5969,483.8422 L50.5969,483.0328 Q50.5969,482.1031 51.0234,481.3047 Q51.4609,480.4953 52.2266,480.0687 Q52.9922,479.6312 53.8562,479.6312 Q54.3703,479.6312 54.8187,479.7516 Q55.2781,479.8609 55.6609,480.1125 Z " fill="#000000"/><text fill="#000000" font-family="sans-serif" font-size="9.8" lengthAdjust="spacing" textLength="65.1" x="68.075" y="487.0578">SkillRepository</text><line style="stroke:#181818;stroke-width:0.3499999999999999;" x1="5.6" x2="172.9" y1="494.2" y2="494.2"/><line style="stroke:#181818;stroke-width:0.3499999999999999;" x1="5.6" x2="172.9" y1="499.8" y2="499.8"/><text fill="#000000" font-family="sans-serif" font-size="9.8" lengthAdjust="spacing" textLength="49" x="9.1" y="513.1752">+getSkills()</text><text fill="#000000" font-family="sans-serif" font-size="9.8" lengthAdjust="spacing" textLength="142.1" x="9.1" y="526.21">+createSelectedSkillNamesList()</text><text fill="#000000" font-family="sans-serif" font-size="9.8" lengthAdjust="spacing" textLength="151.9" x="9.1" y="539.2447">+addSelectedSkillName(skillName)</text><text fill="#000000" font-family="sans-serif" font-size="9.8" lengthAdjust="spacing" textLength="116.9" x="9.1" y="552.2795">+createSelectedSkillsList()</text><text fill="#000000" font-family="sans-serif" font-size="9.8" lengthAdjust="spacing" textLength="160.3" x="9.1" y="565.3143">+getSkillByName(selectedSkillName)</text></g><!--class CollaboratorRepository--><g id="elem_CollaboratorRepository"><rect codeLine="51" fill="#F1F1F1" height="59.6695" id="CollaboratorRepository" rx="1.75" ry="1.75" style="stroke:#181818;stroke-width:0.3499999999999999;" width="161" x="198.45" y="491.4"/><ellipse cx="225.33" cy="502.6" fill="#ADD1B2" rx="7.7" ry="7.7" style="stroke:#181818;stroke-width:0.6999999999999998;"/><path d="M227.2659,499.7125 Q227.3753,499.5594 227.5066,499.4828 Q227.6378,499.4062 227.7909,499.4062 Q228.0534,499.4062 228.2175,499.5922 Q228.3816,499.7672 228.3816,500.1937 L228.3816,501.2109 Q228.3816,501.6375 228.2175,501.8234 Q228.0534,502.0094 227.7909,502.0094 Q227.5503,502.0094 227.4081,501.8672 Q227.2659,501.7359 227.1894,501.375 Q227.1566,501.1234 227.0253,500.9922 Q226.7956,500.7297 226.3691,500.5766 Q225.9425,500.4234 225.505,500.4234 Q224.9691,500.4234 224.5206,500.6531 Q224.0831,500.8828 223.7331,501.4078 Q223.3941,501.9328 223.3941,502.6547 L223.3941,503.4203 Q223.3941,504.2844 224.0175,504.8641 Q224.6409,505.4328 225.7566,505.4328 Q226.4128,505.4328 226.8722,505.2578 Q227.1456,505.1484 227.4409,504.8422 Q227.6269,504.6562 227.7253,504.6016 Q227.8347,504.5469 227.9769,504.5469 Q228.2066,504.5469 228.3816,504.7328 Q228.5675,504.9078 228.5675,505.1484 Q228.5675,505.3891 228.3269,505.6734 Q227.9769,506.0781 227.4191,506.3078 Q226.6644,506.625 225.7566,506.625 Q224.6956,506.625 223.8534,506.1875 Q223.1644,505.8375 222.6831,505.0937 Q222.2019,504.3391 222.2019,503.4422 L222.2019,502.6328 Q222.2019,501.7031 222.6284,500.9047 Q223.0659,500.0953 223.8316,499.6687 Q224.5972,499.2312 225.4612,499.2312 Q225.9753,499.2312 226.4237,499.3516 Q226.8831,499.4609 227.2659,499.7125 Z " fill="#000000"/><text fill="#000000" font-family="sans-serif" font-size="9.8" lengthAdjust="spacing" textLength="102.2" x="238.77" y="506.6578">CollaboratorRepository</text><line style="stroke:#181818;stroke-width:0.3499999999999999;" x1="199.15" x2="358.75" y1="513.8" y2="513.8"/><line style="stroke:#181818;stroke-width:0.3499999999999999;" x1="199.15" x2="358.75" y1="519.4" y2="519.4"/><text fill="#000000" font-family="sans-serif" font-size="9.8" lengthAdjust="spacing" textLength="135.8" x="202.65" y="532.7752">+createTempCollaboratorList()</text><text fill="#000000" font-family="sans-serif" font-size="9.8" lengthAdjust="spacing" textLength="152.6" x="202.65" y="545.81">+generateTeam(selectedSkillsList)</text></g><!--class TeamRepository--><g id="elem_TeamRepository"><rect codeLine="57" fill="#F1F1F1" height="72.7043" id="TeamRepository" rx="1.75" ry="1.75" style="stroke:#181818;stroke-width:0.3499999999999999;" width="256.2" x="383.95" y="484.75"/><ellipse cx="472.675" cy="495.95" fill="#ADD1B2" rx="7.7" ry="7.7" style="stroke:#181818;stroke-width:0.6999999999999998;"/><path d="M474.6109,493.0625 Q474.7203,492.9094 474.8516,492.8328 Q474.9828,492.7562 475.1359,492.7562 Q475.3984,492.7562 475.5625,492.9422 Q475.7266,493.1172 475.7266,493.5437 L475.7266,494.5609 Q475.7266,494.9875 475.5625,495.1734 Q475.3984,495.3594 475.1359,495.3594 Q474.8953,495.3594 474.7531,495.2172 Q474.6109,495.0859 474.5344,494.725 Q474.5016,494.4734 474.3703,494.3422 Q474.1406,494.0797 473.7141,493.9266 Q473.2875,493.7734 472.85,493.7734 Q472.3141,493.7734 471.8656,494.0031 Q471.4281,494.2328 471.0781,494.7578 Q470.7391,495.2828 470.7391,496.0047 L470.7391,496.7703 Q470.7391,497.6344 471.3625,498.2141 Q471.9859,498.7828 473.1016,498.7828 Q473.7578,498.7828 474.2172,498.6078 Q474.4906,498.4984 474.7859,498.1922 Q474.9719,498.0062 475.0703,497.9516 Q475.1797,497.8969 475.3219,497.8969 Q475.5516,497.8969 475.7266,498.0828 Q475.9125,498.2578 475.9125,498.4984 Q475.9125,498.7391 475.6719,499.0234 Q475.3219,499.4281 474.7641,499.6578 Q474.0094,499.975 473.1016,499.975 Q472.0406,499.975 471.1984,499.5375 Q470.5094,499.1875 470.0281,498.4437 Q469.5469,497.6891 469.5469,496.7922 L469.5469,495.9828 Q469.5469,495.0531 469.9734,494.2547 Q470.4109,493.4453 471.1766,493.0187 Q471.9422,492.5812 472.8062,492.5812 Q473.3203,492.5812 473.7687,492.7016 Q474.2281,492.8109 474.6109,493.0625 Z " fill="#000000"/><text fill="#000000" font-family="sans-serif" font-size="9.8" lengthAdjust="spacing" textLength="72.8" x="487.025" y="500.0078">TeamRepository</text><line style="stroke:#181818;stroke-width:0.3499999999999999;" x1="384.65" x2="639.45" y1="507.15" y2="507.15"/><line style="stroke:#181818;stroke-width:0.3499999999999999;" x1="384.65" x2="639.45" y1="512.75" y2="512.75"/><text fill="#000000" font-family="sans-serif" font-size="9.8" lengthAdjust="spacing" textLength="247.8" x="388.15" y="526.1252">+removeUnavailableCollaborators(tempCollaboratorList)</text><text fill="#000000" font-family="sans-serif" font-size="9.8" lengthAdjust="spacing" textLength="163.1" x="388.15" y="539.16">+registerTeam(tempCollaboratorList)</text><text fill="#000000" font-family="sans-serif" font-size="9.8" lengthAdjust="spacing" textLength="74.2" x="388.15" y="552.1947">-addTeam(team)</text></g><!--class Collaborator--><g id="elem_Collaborator"><rect codeLine="64" fill="#F1F1F1" height="203.052" id="Collaborator" rx="1.75" ry="1.75" style="stroke:#181818;stroke-width:0.3499999999999999;" width="240.1" x="158.9" y="740.6"/><ellipse cx="248.675" cy="751.8" fill="#ADD1B2" rx="7.7" ry="7.7" style="stroke:#181818;stroke-width:0.6999999999999998;"/><path d="M250.6109,748.9125 Q250.7203,748.7594 250.8516,748.6828 Q250.9828,748.6062 251.1359,748.6062 Q251.3984,748.6062 251.5625,748.7922 Q251.7266,748.9672 251.7266,749.3937 L251.7266,750.4109 Q251.7266,750.8375 251.5625,751.0234 Q251.3984,751.2094 251.1359,751.2094 Q250.8953,751.2094 250.7531,751.0672 Q250.6109,750.9359 250.5344,750.575 Q250.5016,750.3234 250.3703,750.1922 Q250.1406,749.9297 249.7141,749.7766 Q249.2875,749.6234 248.85,749.6234 Q248.3141,749.6234 247.8656,749.8531 Q247.4281,750.0828 247.0781,750.6078 Q246.7391,751.1328 246.7391,751.8547 L246.7391,752.6203 Q246.7391,753.4844 247.3625,754.0641 Q247.9859,754.6328 249.1016,754.6328 Q249.7578,754.6328 250.2172,754.4578 Q250.4906,754.3484 250.7859,754.0422 Q250.9719,753.8562 251.0703,753.8016 Q251.1797,753.7469 251.3219,753.7469 Q251.5516,753.7469 251.7266,753.9328 Q251.9125,754.1078 251.9125,754.3484 Q251.9125,754.5891 251.6719,754.8734 Q251.3219,755.2781 250.7641,755.5078 Q250.0094,755.825 249.1016,755.825 Q248.0406,755.825 247.1984,755.3875 Q246.5094,755.0375 246.0281,754.2937 Q245.5469,753.5391 245.5469,752.6422 L245.5469,751.8328 Q245.5469,750.9031 245.9734,750.1047 Q246.4109,749.2953 247.1766,748.8687 Q247.9422,748.4312 248.8062,748.4312 Q249.3203,748.4312 249.7687,748.5516 Q250.2281,748.6609 250.6109,748.9125 Z " fill="#000000"/><text fill="#000000" font-family="sans-serif" font-size="9.8" lengthAdjust="spacing" textLength="54.6" x="263.025" y="755.8578">Collaborator</text><line style="stroke:#181818;stroke-width:0.3499999999999999;" x1="159.6" x2="398.3" y1="763" y2="763"/><text fill="#000000" font-family="sans-serif" font-size="9.8" lengthAdjust="spacing" textLength="56.7" x="163.1" y="776.3752">-String name</text><text fill="#000000" font-family="sans-serif" font-size="9.8" lengthAdjust="spacing" textLength="86.1" x="163.1" y="789.41">-Calendar birthdate</text><text fill="#000000" font-family="sans-serif" font-size="9.8" lengthAdjust="spacing" textLength="112" x="163.1" y="802.4447">-Calendar admissionDate</text><text fill="#000000" font-family="sans-serif" font-size="9.8" lengthAdjust="spacing" textLength="67.9" x="163.1" y="815.4795">-String address</text><text fill="#000000" font-family="sans-serif" font-size="9.8" lengthAdjust="spacing" textLength="99.4" x="163.1" y="828.5143">-Integer phoneNumber</text><text fill="#000000" font-family="sans-serif" font-size="9.8" lengthAdjust="spacing" textLength="55.3" x="163.1" y="841.549">-String email</text><text fill="#000000" font-family="sans-serif" font-size="9.8" lengthAdjust="spacing" textLength="109.2" x="163.1" y="854.5838">-Integer taxpayerNumber</text><text fill="#000000" font-family="sans-serif" font-size="9.8" lengthAdjust="spacing" textLength="171.5" x="163.1" y="867.6186">-Integer identificationDocumentNumber</text><line style="stroke:#181818;stroke-width:0.3499999999999999;" x1="159.6" x2="398.3" y1="872.8781" y2="872.8781"/><text fill="#000000" font-family="sans-serif" font-size="9.8" lengthAdjust="spacing" textLength="135.8" x="163.1" y="886.2533">+Collaborator(name, birthdate,</text><text fill="#000000" font-family="sans-serif" font-size="9.8" lengthAdjust="spacing" textLength="177.1" x="163.1" y="899.2881">admissionDate, address, phoneNumber,</text><text fill="#000000" font-family="sans-serif" font-size="9.8" lengthAdjust="spacing" textLength="231.7" x="163.1" y="912.3229">email, taxpayerNumber, identificationDocumentType,</text><text fill="#000000" font-family="sans-serif" font-size="9.8" lengthAdjust="spacing" textLength="156.8" x="163.1" y="925.3576">identificationDocumentNumber, job)</text><text fill="#000000" font-family="sans-serif" font-size="9.8" lengthAdjust="spacing" textLength="182.7" x="163.1" y="938.3924">+teamDefinitionCriteria(selectedSkillsList)</text></g><!--class DocType--><g id="elem_DocType"><rect codeLine="78" fill="#F1F1F1" height="72.7043" id="DocType" rx="1.75" ry="1.75" style="stroke:#181818;stroke-width:0.3499999999999999;" width="62.3" x="247.8" y="998.9"/><ellipse cx="258.3" cy="1010.1" fill="#EB937F" rx="7.7" ry="7.7" style="stroke:#181818;stroke-width:0.6999999999999998;"/><path d="M257.5016,1010.6578 L257.5016,1012.4078 L260.5312,1012.4078 L260.5312,1011.7625 Q260.5312,1011.3359 260.6953,1011.15 Q260.8703,1010.9641 261.1328,1010.9641 Q261.3953,1010.9641 261.5594,1011.15 Q261.7234,1011.3359 261.7234,1011.7625 L261.7234,1013.6 L256.1234,1013.6 Q255.6859,1013.6 255.5,1013.4359 Q255.325,1013.2719 255.325,1012.9984 Q255.325,1012.7359 255.5109,1012.5719 Q255.6969,1012.4078 256.1234,1012.4078 L256.3094,1012.4078 L256.3094,1007.7484 L256.1234,1007.7484 Q255.6859,1007.7484 255.5,1007.5844 Q255.325,1007.4203 255.325,1007.1469 Q255.325,1006.8844 255.5,1006.7203 Q255.6859,1006.5562 256.1234,1006.5562 L261.4609,1006.5562 L261.4609,1008.3719 Q261.4609,1008.7984 261.2969,1008.9844 Q261.1437,1009.1594 260.8703,1009.1594 Q260.6078,1009.1594 260.4437,1008.9844 Q260.2797,1008.7984 260.2797,1008.3719 L260.2797,1007.7484 L257.5016,1007.7484 L257.5016,1009.4656 L258.5406,1009.4656 Q258.5406,1009.0062 258.6281,1008.875 Q258.8141,1008.5906 259.1422,1008.5906 Q259.4047,1008.5906 259.5687,1008.7766 Q259.7328,1008.9516 259.7328,1009.3781 L259.7328,1010.7562 Q259.7328,1011.1391 259.6453,1011.2703 Q259.4594,1011.5437 259.1422,1011.5437 Q258.8141,1011.5437 258.6281,1011.2594 Q258.5406,1011.1281 258.5406,1010.6578 L257.5016,1010.6578 Z " fill="#000000"/><text fill="#000000" font-family="sans-serif" font-size="9.8" lengthAdjust="spacing" textLength="39.9" x="268.1" y="1014.1578">DocType</text><line style="stroke:#181818;stroke-width:0.3499999999999999;" x1="248.5" x2="309.4" y1="1021.3" y2="1021.3"/><text fill="#000000" font-family="sans-serif" font-size="9.8" lengthAdjust="spacing" textLength="14" x="252" y="1034.6752">CC</text><text fill="#000000" font-family="sans-serif" font-size="9.8" lengthAdjust="spacing" textLength="8.4" x="252" y="1047.71">BI</text><text fill="#000000" font-family="sans-serif" font-size="9.8" lengthAdjust="spacing" textLength="39.2" x="252" y="1060.7447">Passport</text><line style="stroke:#181818;stroke-width:0.3499999999999999;" x1="248.5" x2="309.4" y1="1066.0043" y2="1066.0043"/></g><!--class Skill--><g id="elem_Skill"><rect codeLine="85" fill="#F1F1F1" height="46.6348" id="Skill" rx="1.75" ry="1.75" style="stroke:#181818;stroke-width:0.3499999999999999;" width="65.1" x="123.9" y="1011.85"/><ellipse cx="145.74" cy="1023.05" fill="#ADD1B2" rx="7.7" ry="7.7" style="stroke:#181818;stroke-width:0.6999999999999998;"/><path d="M147.6759,1020.1625 Q147.7853,1020.0094 147.9166,1019.9328 Q148.0478,1019.8562 148.2009,1019.8562 Q148.4634,1019.8562 148.6275,1020.0422 Q148.7916,1020.2172 148.7916,1020.6437 L148.7916,1021.6609 Q148.7916,1022.0875 148.6275,1022.2734 Q148.4634,1022.4594 148.2009,1022.4594 Q147.9603,1022.4594 147.8181,1022.3172 Q147.6759,1022.1859 147.5994,1021.825 Q147.5666,1021.5734 147.4353,1021.4422 Q147.2056,1021.1797 146.7791,1021.0266 Q146.3525,1020.8734 145.915,1020.8734 Q145.3791,1020.8734 144.9306,1021.1031 Q144.4931,1021.3328 144.1431,1021.8578 Q143.8041,1022.3828 143.8041,1023.1047 L143.8041,1023.8703 Q143.8041,1024.7344 144.4275,1025.3141 Q145.0509,1025.8828 146.1666,1025.8828 Q146.8228,1025.8828 147.2822,1025.7078 Q147.5556,1025.5984 147.8509,1025.2922 Q148.0369,1025.1062 148.1353,1025.0516 Q148.2447,1024.9969 148.3869,1024.9969 Q148.6166,1024.9969 148.7916,1025.1828 Q148.9775,1025.3578 148.9775,1025.5984 Q148.9775,1025.8391 148.7369,1026.1234 Q148.3869,1026.5281 147.8291,1026.7578 Q147.0744,1027.075 146.1666,1027.075 Q145.1056,1027.075 144.2634,1026.6375 Q143.5744,1026.2875 143.0931,1025.5437 Q142.6119,1024.7891 142.6119,1023.8922 L142.6119,1023.0828 Q142.6119,1022.1531 143.0384,1021.3547 Q143.4759,1020.5453 144.2416,1020.1187 Q145.0072,1019.6812 145.8712,1019.6812 Q146.3853,1019.6812 146.8337,1019.8016 Q147.2931,1019.9109 147.6759,1020.1625 Z " fill="#000000"/><text fill="#000000" font-family="sans-serif" font-size="9.8" lengthAdjust="spacing" textLength="17.5" x="158.06" y="1027.1078">Skill</text><line style="stroke:#181818;stroke-width:0.3499999999999999;" x1="124.6" x2="188.3" y1="1034.25" y2="1034.25"/><text fill="#000000" font-family="sans-serif" font-size="9.8" lengthAdjust="spacing" textLength="56.7" x="128.1" y="1047.6252">-String name</text><line style="stroke:#181818;stroke-width:0.3499999999999999;" x1="124.6" x2="188.3" y1="1052.8848" y2="1052.8848"/></g><!--class Team--><g id="elem_Team"><rect codeLine="90" fill="#F1F1F1" height="59.6695" id="Team" rx="1.75" ry="1.75" style="stroke:#181818;stroke-width:0.3499999999999999;" width="256.2" x="367.85" y="625.8"/><ellipse cx="480.375" cy="637" fill="#ADD1B2" rx="7.7" ry="7.7" style="stroke:#181818;stroke-width:0.6999999999999998;"/><path d="M482.3109,634.1125 Q482.4203,633.9594 482.5516,633.8828 Q482.6828,633.8062 482.8359,633.8062 Q483.0984,633.8062 483.2625,633.9922 Q483.4266,634.1672 483.4266,634.5937 L483.4266,635.6109 Q483.4266,636.0375 483.2625,636.2234 Q483.0984,636.4094 482.8359,636.4094 Q482.5953,636.4094 482.4531,636.2672 Q482.3109,636.1359 482.2344,635.775 Q482.2016,635.5234 482.0703,635.3922 Q481.8406,635.1297 481.4141,634.9766 Q480.9875,634.8234 480.55,634.8234 Q480.0141,634.8234 479.5656,635.0531 Q479.1281,635.2828 478.7781,635.8078 Q478.4391,636.3328 478.4391,637.0547 L478.4391,637.8203 Q478.4391,638.6844 479.0625,639.2641 Q479.6859,639.8328 480.8016,639.8328 Q481.4578,639.8328 481.9172,639.6578 Q482.1906,639.5484 482.4859,639.2422 Q482.6719,639.0562 482.7703,639.0016 Q482.8797,638.9469 483.0219,638.9469 Q483.2516,638.9469 483.4266,639.1328 Q483.6125,639.3078 483.6125,639.5484 Q483.6125,639.7891 483.3719,640.0734 Q483.0219,640.4781 482.4641,640.7078 Q481.7094,641.025 480.8016,641.025 Q479.7406,641.025 478.8984,640.5875 Q478.2094,640.2375 477.7281,639.4937 Q477.2469,638.7391 477.2469,637.8422 L477.2469,637.0328 Q477.2469,636.1031 477.6734,635.3047 Q478.1109,634.4953 478.8766,634.0687 Q479.6422,633.6312 480.5062,633.6312 Q481.0203,633.6312 481.4687,633.7516 Q481.9281,633.8609 482.3109,634.1125 Z " fill="#000000"/><text fill="#000000" font-family="sans-serif" font-size="9.8" lengthAdjust="spacing" textLength="25.2" x="494.725" y="641.0578">Team</text><line style="stroke:#181818;stroke-width:0.3499999999999999;" x1="368.55" x2="623.35" y1="648.2" y2="648.2"/><line style="stroke:#181818;stroke-width:0.3499999999999999;" x1="368.55" x2="623.35" y1="653.8" y2="653.8"/><text fill="#000000" font-family="sans-serif" font-size="9.8" lengthAdjust="spacing" textLength="129.5" x="372.05" y="667.1752">+Team(tempCollaboratorList)</text><text fill="#000000" font-family="sans-serif" font-size="9.8" lengthAdjust="spacing" textLength="247.8" x="372.05" y="680.21">+removeUnavailableCollaborators(tempCollaboratorList)</text></g><!--link Repositories to Repositories--><g id="link_Repositories_Repositories"><path codeLine="96" d="M290.864,367.087 C305.109,368.417 315.35,372.638 315.35,379.75 C315.35,386.862 309.2908,390.6926 295.0458,392.0226 " fill="none" id="Repositories-to-Repositories" style="stroke:#181818;stroke-width:0.6999999999999998;"/><polygon fill="#181818" points="290.864,392.413,297.397,394.6152,294.3488,392.0876,296.8764,389.0395,290.864,392.413" style="stroke:#181818;stroke-width:0.6999999999999998;"/><text fill="#000000" font-family="sans-serif" font-size="9.1" lengthAdjust="spacing" textLength="34.3" x="319.55" y="383.6198">instance</text></g><!--link GenerateTeamUI to GenerateTeamController--><g id="link_GenerateTeamUI_GenerateTeamController"><path codeLine="98" d="M340.55,38.752 C340.55,49.805 340.55,61.033 340.55,76.867 " fill="none" id="GenerateTeamUI-to-GenerateTeamController" style="stroke:#181818;stroke-width:0.6999999999999998;stroke-dasharray:7.0,7.0;"/><polygon fill="#181818" points="340.55,81.067,343.35,74.767,340.55,77.567,337.75,74.767,340.55,81.067" style="stroke:#181818;stroke-width:0.6999999999999998;"/></g><!--link GenerateTeamController to Repositories--><g id="link_GenerateTeamController_Repositories"><path codeLine="100" d="M305.053,219.317 C286.51,255.094 266.1826,294.3031 249.4176,326.6501 " fill="none" id="GenerateTeamController-to-Repositories" style="stroke:#181818;stroke-width:0.6999999999999998;stroke-dasharray:7.0,7.0;"/><polygon fill="#181818" points="247.485,330.379,252.8699,326.074,249.0955,327.2716,247.898,323.4972,247.485,330.379" style="stroke:#181818;stroke-width:0.6999999999999998;"/><text fill="#000000" font-family="sans-serif" font-size="9.1" lengthAdjust="spacing" textLength="46.9" x="283.15" y="272.3198">repositories</text></g><!--link GenerateTeamController to CollaboratorRepository--><g id="link_GenerateTeamController_CollaboratorRepository"><path codeLine="102" d="M347.214,219.24 C352.163,269.983 358.05,330.4 358.05,330.4 C358.05,330.4 358.05,429.1 358.05,429.1 C358.05,429.1 330.0904,461.387 306.9414,488.12 " fill="none" id="GenerateTeamController-to-CollaboratorRepository" style="stroke:#181818;stroke-width:0.6999999999999998;stroke-dasharray:7.0,7.0;"/><polygon fill="#181818" points="304.192,491.295,310.4328,488.3654,306.4831,488.6491,306.1994,484.6995,304.192,491.295" style="stroke:#181818;stroke-width:0.6999999999999998;"/><text fill="#000000" font-family="sans-serif" font-size="9.1" lengthAdjust="spacing" textLength="90.3" x="357.35" y="306.6198">collaboratorRepository</text></g><!--link GenerateTeamController to SkillRepository--><g id="link_GenerateTeamController_SkillRepository"><path codeLine="103" d="M264.558,219.24 C208.18,269.983 141.05,330.4 141.05,330.4 C141.05,330.4 118.9777,411.3909 103.6267,467.6989 " fill="none" id="GenerateTeamController-to-SkillRepository" style="stroke:#181818;stroke-width:0.6999999999999998;stroke-dasharray:7.0,7.0;"/><polygon fill="#181818" points="102.522,471.751,106.8805,466.4093,103.4426,468.3742,101.4777,464.9364,102.522,471.751" style="stroke:#181818;stroke-width:0.6999999999999998;"/><text fill="#000000" font-family="sans-serif" font-size="9.1" lengthAdjust="spacing" textLength="59.5" x="179.55" y="306.6198">skillRepository</text></g><!--link GenerateTeamController to TeamRepository--><g id="link_GenerateTeamController_TeamRepository"><path codeLine="104" d="M393.932,219.219 C423.339,256.893 453.95,296.1 453.95,296.1 C453.95,296.1 485.3207,417.2502 501.7287,480.5862 " fill="none" id="GenerateTeamController-to-TeamRepository" style="stroke:#181818;stroke-width:0.6999999999999998;stroke-dasharray:7.0,7.0;"/><polygon fill="#181818" points="502.782,484.652,503.9126,477.8511,501.9043,481.2638,498.4915,479.2555,502.782,484.652" style="stroke:#181818;stroke-width:0.6999999999999998;"/><text fill="#000000" font-family="sans-serif" font-size="9.1" lengthAdjust="spacing" textLength="63.7" x="457.45" y="306.6198">teamRepository</text></g><!--link Repositories to SkillRepository--><g id="link_Repositories_SkillRepository"><path codeLine="106" d="M175.917,429.219 C162.876,442.953 151.5798,454.8391 138.5318,468.5731 " fill="none" id="Repositories-to-SkillRepository" style="stroke:#181818;stroke-width:0.6999999999999998;"/><polygon fill="#181818" points="135.639,471.618,142.0082,468.9792,138.0497,469.0806,137.9483,465.1221,135.639,471.618" style="stroke:#181818;stroke-width:0.6999999999999998;"/><text fill="#000000" font-family="sans-serif" font-size="9.1" lengthAdjust="spacing" textLength="4.9" x="135.2702" y="463.8229">1</text></g><!--link Repositories to CollaboratorRepository--><g id="link_Repositories_CollaboratorRepository"><path codeLine="107" d="M242.004,429.219 C250.376,449.897 258.2777,469.405 265.5367,487.332 " fill="none" id="Repositories-to-CollaboratorRepository" style="stroke:#181818;stroke-width:0.6999999999999998;"/><polygon fill="#181818" points="267.113,491.225,267.3438,484.3347,265.7994,487.9809,262.1532,486.4364,267.113,491.225" style="stroke:#181818;stroke-width:0.6999999999999998;"/><text fill="#000000" font-family="sans-serif" font-size="9.1" lengthAdjust="spacing" textLength="4.9" x="259.936" y="483.43">1</text></g><!--link Repositories to TeamRepository--><g id="link_Repositories_TeamRepository"><path codeLine="108" d="M290.927,413.63 C335.202,435.015 388.9603,460.9848 434.2503,482.8668 " fill="none" id="Repositories-to-TeamRepository" style="stroke:#181818;stroke-width:0.6999999999999998;"/><polygon fill="#181818" points="438.032,484.694,433.5775,479.4321,434.8806,483.1714,431.1413,484.4744,438.032,484.694" style="stroke:#181818;stroke-width:0.6999999999999998;"/><text fill="#000000" font-family="sans-serif" font-size="9.1" lengthAdjust="spacing" textLength="4.9" x="422.8566" y="476.9356">1</text></g><!--link SkillRepository to Skill--><g id="link_SkillRepository_Skill"><path codeLine="110" d="M95.634,570.549 C109.767,678.419 142.7303,929.9016 152.9153,1007.6296 " fill="none" id="SkillRepository-to-Skill" style="stroke:#181818;stroke-width:0.6999999999999998;"/><polygon fill="#181818" points="153.461,1011.794,155.4188,1005.1836,153.0063,1008.3237,149.8662,1005.9112,153.461,1011.794" style="stroke:#181818;stroke-width:0.6999999999999998;"/><text fill="#000000" font-family="sans-serif" font-size="9.1" lengthAdjust="spacing" textLength="16.1" x="116.55" y="716.8198">skill</text><text fill="#000000" font-family="sans-serif" font-size="9.1" lengthAdjust="spacing" textLength="4.9" x="91.1397" y="586.0834">1</text><text fill="#000000" font-family="sans-serif" font-size="9.1" lengthAdjust="spacing" textLength="3.5" x="149.028" y="1003.9608">*</text></g><!--link CollaboratorRepository to Collaborator--><g id="link_CollaboratorRepository_Collaborator"><path codeLine="111" d="M278.95,551.054 C278.95,593.614 278.95,670.572 278.95,736.288 " fill="none" id="CollaboratorRepository-to-Collaborator" style="stroke:#181818;stroke-width:0.6999999999999998;"/><polygon fill="#181818" points="278.95,740.488,281.75,734.188,278.95,736.988,276.15,734.188,278.95,740.488" style="stroke:#181818;stroke-width:0.6999999999999998;"/><text fill="#000000" font-family="sans-serif" font-size="9.1" lengthAdjust="spacing" textLength="46.9" x="279.65" y="659.4198">collaborator</text><text fill="#000000" font-family="sans-serif" font-size="9.1" lengthAdjust="spacing" textLength="4.9" x="273.6595" y="566.5908">1</text><text fill="#000000" font-family="sans-serif" font-size="9.1" lengthAdjust="spacing" textLength="3.5" x="275.3598" y="732.8656">*</text></g><!--link TeamRepository to Team--><g id="link_TeamRepository_Team"><path codeLine="112" d="M507.717,557.669 C505.134,578.977 502.4044,601.5054 499.9824,621.5254 " fill="none" id="TeamRepository-to-Team" style="stroke:#181818;stroke-width:0.6999999999999998;"/><polygon fill="#181818" points="499.478,625.695,503.0144,619.7769,499.8984,622.2203,497.4549,619.1043,499.478,625.695" style="stroke:#181818;stroke-width:0.6999999999999998;"/><text fill="#000000" font-family="sans-serif" font-size="9.1" lengthAdjust="spacing" textLength="20.3" x="503.65" y="602.0198">team</text><text fill="#000000" font-family="sans-serif" font-size="9.1" lengthAdjust="spacing" textLength="4.9" x="501.9479" y="572.9493">1</text><text fill="#000000" font-family="sans-serif" font-size="9.1" lengthAdjust="spacing" textLength="3.5" x="496.2614" y="617.9111">*</text></g><!--link Collaborator to Skill--><g id="link_Collaborator_Skill"><path codeLine="114" d="M214.473,943.754 C198.1,969.388 184.3026,990.9923 173.2426,1008.3103 " fill="none" id="Collaborator-to-Skill" style="stroke:#181818;stroke-width:0.6999999999999998;"/><polygon fill="#181818" points="170.982,1011.85,176.7327,1008.0475,172.8658,1008.9002,172.0131,1005.0333,170.982,1011.85" style="stroke:#181818;stroke-width:0.6999999999999998;"/><text fill="#000000" font-family="sans-serif" font-size="9.1" lengthAdjust="spacing" textLength="14.7" x="200.55" y="975.1198">has</text><text fill="#000000" font-family="sans-serif" font-size="9.1" lengthAdjust="spacing" textLength="4.9" x="206.1221" y="959.1261">1</text><text fill="#000000" font-family="sans-serif" font-size="9.1" lengthAdjust="spacing" textLength="3.5" x="169.9985" y="1004.0279">*</text></g><!--link Team to Collaborator--><g id="link_Team_Collaborator"><path codeLine="115" d="M461.804,685.384 C443.961,700.609 424.1397,717.5175 400.5007,737.6915 " fill="none" id="Team-to-Collaborator" style="stroke:#181818;stroke-width:0.6999999999999998;"/><polygon fill="#181818" points="397.306,740.418,403.9158,738.4581,399.9683,738.1459,400.2805,734.1985,397.306,740.418" style="stroke:#181818;stroke-width:0.6999999999999998;"/><text fill="#000000" font-family="sans-serif" font-size="9.1" lengthAdjust="spacing" textLength="14.7" x="432.25" y="716.8198">has</text><text fill="#000000" font-family="sans-serif" font-size="9.1" lengthAdjust="spacing" textLength="4.9" x="451.0715" y="700.9096">1</text><text fill="#000000" font-family="sans-serif" font-size="9.1" lengthAdjust="spacing" textLength="14" x="389.0478" y="732.792">1..*</text></g><!--reverse link Collaborator to DocType--><g id="link_Collaborator_DocType"><path codeLine="117" d="M278.95,954.954 C278.95,974.722 278.95,982.996 278.95,998.816 " fill="none" id="Collaborator-backto-DocType" style="stroke:#181818;stroke-width:0.6999999999999998;"/><ellipse cx="278.95" cy="949.354" fill="#FFFFFF" rx="5.6" ry="5.6" style="stroke:#181818;stroke-width:0.6999999999999998;"/><line style="stroke:#181818;stroke-width:0.6999999999999998;" x1="278.95" x2="278.95" y1="954.954" y2="943.754"/><line style="stroke:#181818;stroke-width:0.6999999999999998;" x1="273.35" x2="284.55" y1="949.354" y2="949.354"/></g><!--SRC=[dLLBRjim4Dtp54IwiDp8HhFj8a3Ye8M18WZgPDSDBOrbDloe99t6BNgg7g4Nw-XZYPGffwasbZbltdpvDB6FN9NCC4cbLZhR6Ys1EhC3qbjAbZso0bPkBu0Qo1nJXV01Tijo_PshWcwOiBv5S0LkNm8jjTXNVyWaOjJ6QU9vPO9PU-MSuUkTWsMcrOh_0FgEa8c0ZQDEKyEBhQCvhzBXMX5I-z2FeC0m1_V0vCEI_2JaLyoqqCePBGGOX51ypaVCoRGr5-1MZrm8svsmF5-1mF2GrvPR9Y6nXxVUhwUzCxhKbeb4ShL0UhPEgMJFpUl1mK31hGDJEIGEPDcODP9eymbD3N16CmF86wHWAtiI0gwU64T_0JvF2BGrHs3_e9i4x17z53iwUVEwXqomenjk93DKq_8RpJN5eLhSCmn6iLggBLQEtU7kps_3yP_I59wnVA5V7wwT-EU6K1iEjftpB3Zqfxl4T9ZA89dIzw5dk02TQUzx-ysB8wfs1XPSp4EY0-9k9u-NBZBqQjlyUVxhPhwmFttqwtr3CAISzdShNdvNHnFgFhBCIUoUZ6nT6ojiP1V3WDHFyA1OTDzFtAHNN3biR8jXSgJwRizMg5ueY0eRrPuic02LunLOS-EsEHOxDB1SScjHpcvwOyk3eGrOsnukbOC2RqsvrGfkTtADGXR0GM8N1c37daks1nFW3qQUWt9ympDMoUcDpdOI3ppeUL1cKjMLzfMaNrIGV7f8EFLpH5ITM3h89Hq9VuyV1_GvbLjAl-fEEwkvtC26Aru15uRZK3aRMoTGEqcHhOhIZcsng7-kb_NF7Gwtn6zJF-cQ8JhYO3sxfNnXe_vpQp6MBr1qTXa85keNRyMCaF23IEVpox4F8OcVeylyYD_u-dZICQuCI9759UCKrq0caSGEXFEKTwWRwEn28Hdq59jwTd5s9CrHq8ZyHR43-IB3eYfCZNtR1c-h92ETzF4-PD1YCYZVTwjCJJj842MMovRPcggtNSpdWz0DAgGwdyswk_ON]--></g></svg>