<?xml version="1.0" encoding="us-ascii" standalone="no"?><svg xmlns="http://www.w3.org/2000/svg" xmlns:xlink="http://www.w3.org/1999/xlink" contentStyleType="text/css" height="446.6px" preserveAspectRatio="none" style="width:804px;height:446px;background:#FFFFFF;" version="1.1" viewBox="0 0 804 446" width="805px" zoomAndPan="magnify"><defs/><g><rect fill="#FFFFFF" height="337.6557" style="stroke:#181818;stroke-width:0.6999999999999998;" width="7" x="144.9" y="63.3732"/><rect fill="#FFFFFF" height="21.9037" style="stroke:#181818;stroke-width:0.6999999999999998;" width="7" x="247.45" y="103.6807"/><rect fill="#FFFFFF" height="21.9037" style="stroke:#181818;stroke-width:0.6999999999999998;" width="7" x="322.35" y="147.4881"/><rect fill="#FFFFFF" height="21.9037" style="stroke:#181818;stroke-width:0.6999999999999998;" width="7" x="322.35" y="235.1029"/><rect fill="#FFFFFF" height="21.9037" style="stroke:#181818;stroke-width:0.6999999999999998;" width="7" x="419.65" y="191.2955"/><rect fill="#FFFFFF" height="89.0148" style="stroke:#181818;stroke-width:0.6999999999999998;" width="7" x="524.3" y="278.9104"/><rect fill="#FFFFFF" height="21.9037" style="stroke:#181818;stroke-width:0.6999999999999998;" width="7" x="764.4" y="319.2178"/><rect fill="none" height="299.652" style="stroke:#000000;stroke-width:1.0499999999999998;" width="721" x="79.8" y="73.8732"/><rect fill="none" height="57.3111" style="stroke:#000000;stroke-width:1.0499999999999998;" width="314.3" x="479.5" y="289.4104"/><line style="stroke:#181818;stroke-width:0.3499999999999999;stroke-dasharray:5.0,5.0;" x1="148.4" x2="148.4" y1="40.0695" y2="407.3289"/><line style="stroke:#181818;stroke-width:0.3499999999999999;stroke-dasharray:5.0,5.0;" x1="250.6" x2="250.6" y1="40.0695" y2="407.3289"/><line style="stroke:#181818;stroke-width:0.3499999999999999;stroke-dasharray:5.0,5.0;" x1="325.5" x2="325.5" y1="40.0695" y2="407.3289"/><line style="stroke:#181818;stroke-width:0.3499999999999999;stroke-dasharray:5.0,5.0;" x1="422.8" x2="422.8" y1="40.0695" y2="407.3289"/><line style="stroke:#181818;stroke-width:0.3499999999999999;stroke-dasharray:5.0,5.0;" x1="527.8" x2="527.8" y1="40.0695" y2="407.3289"/><line style="stroke:#181818;stroke-width:0.3499999999999999;stroke-dasharray:5.0,5.0;" x1="767.9" x2="767.9" y1="40.0695" y2="407.3289"/><rect fill="#E3E3E3" height="22.8348" rx="1.75" ry="1.75" style="stroke:#181818;stroke-width:0.3499999999999999;" width="123.2" x="86.8" y="16.5348"/><text fill="#000000" font-family="sans-serif" font-size="9.8" lengthAdjust="spacing" textLength="113.4" x="91.7" y="32.01">:GenerateTeamController</text><rect fill="#E3E3E3" height="22.8348" rx="1.75" ry="1.75" style="stroke:#181818;stroke-width:0.3499999999999999;" width="123.2" x="86.8" y="406.6289"/><text fill="#000000" font-family="sans-serif" font-size="9.8" lengthAdjust="spacing" textLength="113.4" x="91.7" y="422.1041">:GenerateTeamController</text><rect fill="#E3E3E3" height="22.8348" rx="1.75" ry="1.75" style="stroke:#181818;stroke-width:0.3499999999999999;" width="67.9" x="217" y="16.5348"/><text fill="#000000" font-family="sans-serif" font-size="9.8" lengthAdjust="spacing" textLength="58.1" x="221.9" y="32.01">:Repositories</text><rect fill="#E3E3E3" height="22.8348" rx="1.75" ry="1.75" style="stroke:#181818;stroke-width:0.3499999999999999;" width="67.9" x="217" y="406.6289"/><text fill="#000000" font-family="sans-serif" font-size="9.8" lengthAdjust="spacing" textLength="58.1" x="221.9" y="422.1041">:Repositories</text><rect fill="#E3E3E3" height="35.8695" rx="1.75" ry="1.75" style="stroke:#181818;stroke-width:0.3499999999999999;" width="67.9" x="291.9" y="3.5"/><text fill="#000000" font-family="sans-serif" font-size="9.8" lengthAdjust="spacing" textLength="51.8" x="299.95" y="18.9752">repositories</text><text fill="#000000" font-family="sans-serif" font-size="9.8" lengthAdjust="spacing" textLength="58.1" x="296.8" y="32.01">:Repositories</text><rect fill="#E3E3E3" height="35.8695" rx="1.75" ry="1.75" style="stroke:#181818;stroke-width:0.3499999999999999;" width="67.9" x="291.9" y="406.6289"/><text fill="#000000" font-family="sans-serif" font-size="9.8" lengthAdjust="spacing" textLength="51.8" x="299.95" y="422.1041">repositories</text><text fill="#000000" font-family="sans-serif" font-size="9.8" lengthAdjust="spacing" textLength="58.1" x="296.8" y="435.1389">:Repositories</text><rect fill="#E3E3E3" height="35.8695" rx="1.75" ry="1.75" style="stroke:#181818;stroke-width:0.3499999999999999;" width="112.7" x="366.8" y="3.5"/><text fill="#000000" font-family="sans-serif" font-size="9.8" lengthAdjust="spacing" textLength="102.9" x="371.7" y="18.9752">collaboratorRepository:</text><text fill="#000000" font-family="sans-serif" font-size="9.8" lengthAdjust="spacing" textLength="102.2" x="372.05" y="32.01">CollaboratorRepository</text><rect fill="#E3E3E3" height="35.8695" rx="1.75" ry="1.75" style="stroke:#181818;stroke-width:0.3499999999999999;" width="112.7" x="366.8" y="406.6289"/><text fill="#000000" font-family="sans-serif" font-size="9.8" lengthAdjust="spacing" textLength="102.9" x="371.7" y="422.1041">collaboratorRepository:</text><text fill="#000000" font-family="sans-serif" font-size="9.8" lengthAdjust="spacing" textLength="102.2" x="372.05" y="435.1389">CollaboratorRepository</text><rect fill="#E3E3E3" height="35.8695" rx="1.75" ry="1.75" style="stroke:#181818;stroke-width:0.3499999999999999;" width="82.6" x="486.5" y="3.5"/><text fill="#000000" font-family="sans-serif" font-size="9.8" lengthAdjust="spacing" textLength="72.1" x="491.75" y="18.9752">teamRepository:</text><text fill="#000000" font-family="sans-serif" font-size="9.8" lengthAdjust="spacing" textLength="72.8" x="491.4" y="32.01">TeamRepository</text><rect fill="#E3E3E3" height="35.8695" rx="1.75" ry="1.75" style="stroke:#181818;stroke-width:0.3499999999999999;" width="82.6" x="486.5" y="406.6289"/><text fill="#000000" font-family="sans-serif" font-size="9.8" lengthAdjust="spacing" textLength="72.1" x="491.75" y="422.1041">teamRepository:</text><text fill="#000000" font-family="sans-serif" font-size="9.8" lengthAdjust="spacing" textLength="72.8" x="491.4" y="435.1389">TeamRepository</text><rect fill="#E3E3E3" height="35.8695" rx="1.75" ry="1.75" style="stroke:#181818;stroke-width:0.3499999999999999;" width="37.8" x="749" y="3.5"/><text fill="#000000" font-family="sans-serif" font-size="9.8" lengthAdjust="spacing" textLength="21.7" x="757.05" y="18.9752">team</text><text fill="#000000" font-family="sans-serif" font-size="9.8" lengthAdjust="spacing" textLength="28" x="753.9" y="32.01">:Team</text><rect fill="#E3E3E3" height="35.8695" rx="1.75" ry="1.75" style="stroke:#181818;stroke-width:0.3499999999999999;" width="37.8" x="749" y="406.6289"/><text fill="#000000" font-family="sans-serif" font-size="9.8" lengthAdjust="spacing" textLength="21.7" x="757.05" y="422.1041">team</text><text fill="#000000" font-family="sans-serif" font-size="9.8" lengthAdjust="spacing" textLength="28" x="753.9" y="435.1389">:Team</text><rect fill="#FFFFFF" height="337.6557" style="stroke:#181818;stroke-width:0.6999999999999998;" width="7" x="144.9" y="63.3732"/><rect fill="#FFFFFF" height="21.9037" style="stroke:#181818;stroke-width:0.6999999999999998;" width="7" x="247.45" y="103.6807"/><rect fill="#FFFFFF" height="21.9037" style="stroke:#181818;stroke-width:0.6999999999999998;" width="7" x="322.35" y="147.4881"/><rect fill="#FFFFFF" height="21.9037" style="stroke:#181818;stroke-width:0.6999999999999998;" width="7" x="322.35" y="235.1029"/><rect fill="#FFFFFF" height="21.9037" style="stroke:#181818;stroke-width:0.6999999999999998;" width="7" x="419.65" y="191.2955"/><rect fill="#FFFFFF" height="89.0148" style="stroke:#181818;stroke-width:0.6999999999999998;" width="7" x="524.3" y="278.9104"/><rect fill="#FFFFFF" height="21.9037" style="stroke:#181818;stroke-width:0.6999999999999998;" width="7" x="764.4" y="319.2178"/><polygon fill="#181818" points="136.5,60.5732,143.5,63.3732,136.5,66.1732,139.3,63.3732" style="stroke:#181818;stroke-width:0.6999999999999998;"/><line style="stroke:#181818;stroke-width:0.6999999999999998;" x1="0" x2="140.7" y1="63.3732" y2="63.3732"/><text fill="#000000" font-family="sans-serif" font-size="9.1" font-weight="bold" lengthAdjust="spacing" textLength="9.8" x="4.9" y="59.6894">14</text><text fill="#000000" font-family="sans-serif" font-size="9.1" lengthAdjust="spacing" textLength="119" x="17.5" y="59.6894">checkAvailableCollaborators()</text><path d="M79.8,73.8732 L233.8,73.8732 L233.8,80.377 L226.8,87.377 L79.8,87.377 L79.8,73.8732 " fill="#EEEEEE" style="stroke:#000000;stroke-width:1.0499999999999998;"/><rect fill="none" height="299.652" style="stroke:#000000;stroke-width:1.0499999999999998;" width="721" x="79.8" y="73.8732"/><text fill="#000000" font-family="sans-serif" font-size="9.1" font-weight="bold" lengthAdjust="spacing" textLength="122.5" x="90.3" y="84.3931">Get Available Collaborators</text><polygon fill="#181818" points="239.05,100.8807,246.05,103.6807,239.05,106.4807,241.85,103.6807" style="stroke:#181818;stroke-width:0.6999999999999998;"/><line style="stroke:#181818;stroke-width:0.6999999999999998;" x1="151.9" x2="243.25" y1="103.6807" y2="103.6807"/><text fill="#000000" font-family="sans-serif" font-size="9.1" font-weight="bold" lengthAdjust="spacing" textLength="17.5" x="156.8" y="99.9968">14.1</text><text fill="#000000" font-family="sans-serif" font-size="9.1" lengthAdjust="spacing" textLength="52.5" x="177.1" y="99.9968">getInstance()</text><polygon fill="#181818" points="159.6,122.7844,152.6,125.5844,159.6,128.3844,156.8,125.5844" style="stroke:#181818;stroke-width:0.6999999999999998;"/><line style="stroke:#181818;stroke-width:0.6999999999999998;stroke-dasharray:2.0,2.0;" x1="155.4" x2="250.25" y1="125.5844" y2="125.5844"/><text fill="#000000" font-family="sans-serif" font-size="9.1" font-weight="bold" lengthAdjust="spacing" textLength="17.5" x="163.8" y="121.9005">14.2</text><text fill="#000000" font-family="sans-serif" font-size="9.1" lengthAdjust="spacing" textLength="46.9" x="184.1" y="121.9005">repositories</text><polygon fill="#181818" points="313.95,144.6881,320.95,147.4881,313.95,150.2881,316.75,147.4881" style="stroke:#181818;stroke-width:0.6999999999999998;"/><line style="stroke:#181818;stroke-width:0.6999999999999998;" x1="151.9" x2="318.15" y1="147.4881" y2="147.4881"/><text fill="#000000" font-family="sans-serif" font-size="9.1" font-weight="bold" lengthAdjust="spacing" textLength="17.5" x="156.8" y="143.8042">14.3</text><text fill="#000000" font-family="sans-serif" font-size="9.1" lengthAdjust="spacing" textLength="109.9" x="177.1" y="143.8042">getCollaboratorRepository()</text><polygon fill="#181818" points="159.6,166.5918,152.6,169.3918,159.6,172.1918,156.8,169.3918" style="stroke:#181818;stroke-width:0.6999999999999998;"/><line style="stroke:#181818;stroke-width:0.6999999999999998;stroke-dasharray:2.0,2.0;" x1="155.4" x2="325.15" y1="169.3918" y2="169.3918"/><text fill="#000000" font-family="sans-serif" font-size="9.1" font-weight="bold" lengthAdjust="spacing" textLength="17.5" x="163.8" y="165.7079">14.4</text><text fill="#000000" font-family="sans-serif" font-size="9.1" lengthAdjust="spacing" textLength="90.3" x="184.1" y="165.7079">collaboratorRepository</text><polygon fill="#181818" points="411.25,188.4955,418.25,191.2955,411.25,194.0955,414.05,191.2955" style="stroke:#181818;stroke-width:0.6999999999999998;"/><line style="stroke:#181818;stroke-width:0.6999999999999998;" x1="151.9" x2="415.45" y1="191.2955" y2="191.2955"/><text fill="#000000" font-family="sans-serif" font-size="9.1" font-weight="bold" lengthAdjust="spacing" textLength="17.5" x="156.8" y="187.6116">14.5</text><text fill="#000000" font-family="sans-serif" font-size="9.1" lengthAdjust="spacing" textLength="71.4" x="177.1" y="187.6116">getCollaborators()</text><polygon fill="#181818" points="159.6,210.3992,152.6,213.1992,159.6,215.9992,156.8,213.1992" style="stroke:#181818;stroke-width:0.6999999999999998;"/><line style="stroke:#181818;stroke-width:0.6999999999999998;stroke-dasharray:2.0,2.0;" x1="155.4" x2="422.45" y1="213.1992" y2="213.1992"/><text fill="#000000" font-family="sans-serif" font-size="9.1" font-weight="bold" lengthAdjust="spacing" textLength="17.5" x="163.8" y="209.5153">14.6</text><text fill="#000000" font-family="sans-serif" font-size="9.1" lengthAdjust="spacing" textLength="61.6" x="184.1" y="209.5153">collaboratorList</text><polygon fill="#181818" points="313.95,232.3029,320.95,235.1029,313.95,237.9029,316.75,235.1029" style="stroke:#181818;stroke-width:0.6999999999999998;"/><line style="stroke:#181818;stroke-width:0.6999999999999998;" x1="151.9" x2="318.15" y1="235.1029" y2="235.1029"/><text fill="#000000" font-family="sans-serif" font-size="9.1" font-weight="bold" lengthAdjust="spacing" textLength="17.5" x="156.8" y="231.419">14.7</text><text fill="#000000" font-family="sans-serif" font-size="9.1" lengthAdjust="spacing" textLength="84" x="177.1" y="231.419">getTeamRepository()</text><polygon fill="#181818" points="159.6,254.2066,152.6,257.0066,159.6,259.8066,156.8,257.0066" style="stroke:#181818;stroke-width:0.6999999999999998;"/><line style="stroke:#181818;stroke-width:0.6999999999999998;stroke-dasharray:2.0,2.0;" x1="155.4" x2="325.15" y1="257.0066" y2="257.0066"/><text fill="#000000" font-family="sans-serif" font-size="9.1" font-weight="bold" lengthAdjust="spacing" textLength="17.5" x="163.8" y="253.3228">14.8</text><text fill="#000000" font-family="sans-serif" font-size="9.1" lengthAdjust="spacing" textLength="63.7" x="184.1" y="253.3228">teamRepository</text><polygon fill="#181818" points="515.9,276.1104,522.9,278.9104,515.9,281.7104,518.7,278.9104" style="stroke:#181818;stroke-width:0.6999999999999998;"/><line style="stroke:#181818;stroke-width:0.6999999999999998;" x1="151.9" x2="520.1" y1="278.9104" y2="278.9104"/><text fill="#000000" font-family="sans-serif" font-size="9.1" font-weight="bold" lengthAdjust="spacing" textLength="17.5" x="156.8" y="275.2265">14.9</text><text fill="#000000" font-family="sans-serif" font-size="9.1" lengthAdjust="spacing" textLength="180.6" x="177.1" y="275.2265">checkAvailableCollaborators(collaboratorList)</text><path d="M479.5,289.4104 L530.6,289.4104 L530.6,295.9141 L523.6,302.9141 L479.5,302.9141 L479.5,289.4104 " fill="#EEEEEE" style="stroke:#000000;stroke-width:1.0499999999999998;"/><rect fill="none" height="57.3111" style="stroke:#000000;stroke-width:1.0499999999999998;" width="314.3" x="479.5" y="289.4104"/><text fill="#000000" font-family="sans-serif" font-size="9.1" font-weight="bold" lengthAdjust="spacing" textLength="19.6" x="490" y="299.9302">loop</text><text fill="#000000" font-family="sans-serif" font-size="7.7" font-weight="bold" lengthAdjust="spacing" textLength="58.8" x="541.1" y="299.1194">[for each team]</text><polygon fill="#181818" points="756,316.4178,763,319.2178,756,322.0178,758.8,319.2178" style="stroke:#181818;stroke-width:0.6999999999999998;"/><line style="stroke:#181818;stroke-width:0.6999999999999998;" x1="531.3" x2="760.2" y1="319.2178" y2="319.2178"/><text fill="#000000" font-family="sans-serif" font-size="9.1" font-weight="bold" lengthAdjust="spacing" textLength="22.4" x="536.2" y="315.5339">14.10</text><text fill="#000000" font-family="sans-serif" font-size="9.1" lengthAdjust="spacing" textLength="194.6" x="561.4" y="315.5339">removeUnavailableCollaborators(collaboratorList)</text><polygon fill="#181818" points="539,338.3215,532,341.1215,539,343.9215,536.2,341.1215" style="stroke:#181818;stroke-width:0.6999999999999998;"/><line style="stroke:#181818;stroke-width:0.6999999999999998;stroke-dasharray:2.0,2.0;" x1="534.8" x2="767.2" y1="341.1215" y2="341.1215"/><text fill="#000000" font-family="sans-serif" font-size="9.1" font-weight="bold" lengthAdjust="spacing" textLength="22.4" x="543.2" y="337.4376">14.11</text><text fill="#000000" font-family="sans-serif" font-size="9.1" lengthAdjust="spacing" textLength="61.6" x="568.4" y="337.4376">collaboratorList</text><polygon fill="#181818" points="159.6,365.1252,152.6,367.9252,159.6,370.7252,156.8,367.9252" style="stroke:#181818;stroke-width:0.6999999999999998;"/><line style="stroke:#181818;stroke-width:0.6999999999999998;stroke-dasharray:2.0,2.0;" x1="155.4" x2="527.1" y1="367.9252" y2="367.9252"/><text fill="#000000" font-family="sans-serif" font-size="9.1" font-weight="bold" lengthAdjust="spacing" textLength="22.4" x="163.8" y="364.2413">14.12</text><text fill="#000000" font-family="sans-serif" font-size="9.1" lengthAdjust="spacing" textLength="87.5" x="189" y="364.2413">availableCollaborators</text><polygon fill="#181818" points="7.7,391.9289,0.7,394.7289,7.7,397.5289,4.9,394.7289" style="stroke:#181818;stroke-width:0.6999999999999998;"/><line style="stroke:#181818;stroke-width:0.6999999999999998;stroke-dasharray:2.0,2.0;" x1="3.5" x2="144.2" y1="394.7289" y2="394.7289"/><text fill="#000000" font-family="sans-serif" font-size="9.1" font-weight="bold" lengthAdjust="spacing" textLength="9.8" x="11.9" y="391.045">15</text><text fill="#000000" font-family="sans-serif" font-size="9.1" lengthAdjust="spacing" textLength="87.5" x="24.5" y="391.045">availableCollaborators</text><!--SRC=[dPGzJyCm48Pt_mgB1HY2X0HBXP1G1uJK0K7PkhZkaLXDV97j5lhlSTolNEoafHxjk_FptdksNIfT2oCgNg56MHYiW3kp0cOF9xMGIv73fzkKm0r89tHUjWDi8HRuetJElqLfWJ6nSgXNrHmCOzU5MW3_HdHp_6NCPpWbLIsqurUZLz1WX8CfY6gCsXaiIp1NN5W-ddvCEj4VKADL3eq26s8E6vjFrJ3vMscAQMNCT5pWVV8ofHdI4uWvUYWqn_AZcHud3xQeoIDQrtc5fDwKR8GwT2lEzmgQa4Dikz7y_e4nxbVs75h7HrmM89SlQw4yN0bjI7jp6sBtYvIvkoTdkS5LpL_1yKCf8jWoMaewjVQERlsZPu7ByoLiyxWvk3Tj_N19wE2HkYdFe-XcfMx9TjqPyVPaHEaB-DzrUs7DE6sLf4TYI5SOnQIGRTaZUdf4MO-0kEwUDiqOyziXx9xPJmhfkJ1hZMmhOgAi6tBct9jZS-WxkymKuealIz_t47U_8PJhn0lkjcf0HUTVIUef4Ml_InlkGOkW9XtNOTnHD- -fmZLyQN4fRKJSynXs3A7tSSDEpK_7Y_vxG2z2Jyxhmd4EqlhP2OOXTngIy0d71hU-xKUQ-9HbmqH_]--></g></svg>