<?xml version="1.0" encoding="us-ascii" standalone="no"?><svg xmlns="http://www.w3.org/2000/svg" xmlns:xlink="http://www.w3.org/1999/xlink" contentStyleType="text/css" height="1254.4px" preserveAspectRatio="none" style="width:1084px;height:1254px;background:#FFFFFF;" version="1.1" viewBox="0 0 1084 1254" width="1084.8px" zoomAndPan="magnify"><defs/><g><rect fill="#FFFFFF" height="1099.0281" style="stroke:#181818;stroke-width:0.8000000000000002;" width="8" x="84.8" y="74.8969"/><rect fill="#FFFFFF" height="59.9297" style="stroke:#181818;stroke-width:0.8000000000000002;" width="8" x="320.8" y="93.5297"/><rect fill="#FFFFFF" height="222.3281" style="stroke:#181818;stroke-width:0.8000000000000002;" width="8" x="320.8" y="178.4922"/><rect fill="#FFFFFF" height="124.1313" style="stroke:#181818;stroke-width:0.8000000000000002;" width="8" x="320.8" y="425.8531"/><rect fill="#FFFFFF" height="447.4063" style="stroke:#181818;stroke-width:0.8000000000000002;" width="8" x="320.8" y="575.0172"/><rect fill="#FFFFFF" height="126.4688" style="stroke:#181818;stroke-width:0.8000000000000002;" width="8" x="320.8" y="1047.4563"/><rect fill="#FFFFFF" height="151.2297" style="stroke:#181818;stroke-width:0.8000000000000002;" width="8" x="572" y="203.525"/><rect fill="#FFFFFF" height="74.0656" style="stroke:#181818;stroke-width:0.8000000000000002;" width="8" x="572" y="450.8859"/><rect fill="#FFFFFF" height="391.7406" style="stroke:#181818;stroke-width:0.8000000000000002;" width="8" x="572" y="605.65"/><rect fill="#FFFFFF" height="85.2031" style="stroke:#181818;stroke-width:0.8000000000000002;" width="8" x="576" y="637.0828"/><rect fill="#FFFFFF" height="85.2031" style="stroke:#181818;stroke-width:0.8000000000000002;" width="8" x="576" y="759.3188"/><rect fill="#FFFFFF" height="85.2031" style="stroke:#181818;stroke-width:0.8000000000000002;" width="8" x="576" y="881.5547"/><rect fill="#FFFFFF" height="76.4031" style="stroke:#181818;stroke-width:0.8000000000000002;" width="8" x="572" y="1072.4891"/><rect fill="#FFFFFF" height="25.0328" style="stroke:#181818;stroke-width:0.8000000000000002;" width="8" x="872" y="279.9281"/><rect fill="#FFFFFF" height="49.0328" style="stroke:#181818;stroke-width:0.8000000000000002;" width="8" x="872" y="475.9188"/><rect fill="#FFFFFF" height="24" style="stroke:#181818;stroke-width:0.8000000000000002;" width="8" x="1003.6" y="500.9516"/><rect fill="none" height="214.6625" style="stroke:#000000;stroke-width:1.2000000000000002;" width="1072" x="8" y="366.7547"/><line style="stroke:#181818;stroke-width:0.4000000000000001;stroke-dasharray:5.0,5.0;" x1="88.8" x2="88.8" y1="66.8969" y2="1188.325"/><line style="stroke:#181818;stroke-width:0.4000000000000001;stroke-dasharray:5.0,5.0;" x1="324.8" x2="324.8" y1="66.8969" y2="1188.325"/><line style="stroke:#181818;stroke-width:0.4000000000000001;stroke-dasharray:5.0,5.0;" x1="576" x2="576" y1="125.3781" y2="1188.325"/><line style="stroke:#181818;stroke-width:0.4000000000000001;stroke-dasharray:5.0,5.0;" x1="875.6" x2="875.6" y1="66.8969" y2="1188.325"/><line style="stroke:#181818;stroke-width:0.4000000000000001;stroke-dasharray:5.0,5.0;" x1="1007.2" x2="1007.2" y1="319.225" y2="1188.325"/><text fill="#000000" font-family="sans-serif" font-size="11.2" lengthAdjust="spacing" textLength="140.8" x="16" y="64.0859">Human Resources Manager</text><ellipse cx="88.8" cy="10.8" fill="#E3E3E3" rx="6.4" ry="6.4" style="stroke:#181818;stroke-width:0.4000000000000001;"/><path d="M88.8,17.2 L88.8,38.8 M78.4,23.6 L99.2,23.6 M88.8,38.8 L78.4,50.8 M88.8,38.8 L99.2,50.8 " fill="none" style="stroke:#181818;stroke-width:0.4000000000000001;"/><text fill="#000000" font-family="sans-serif" font-size="11.2" lengthAdjust="spacing" textLength="140.8" x="16" y="1199.6109">Human Resources Manager</text><ellipse cx="88.8" cy="1209.2219" fill="#E3E3E3" rx="6.4" ry="6.4" style="stroke:#181818;stroke-width:0.4000000000000001;"/><path d="M88.8,1215.6219 L88.8,1237.2219 M78.4,1222.0219 L99.2,1222.0219 M88.8,1237.2219 L78.4,1249.2219 M88.8,1237.2219 L99.2,1249.2219 " fill="none" style="stroke:#181818;stroke-width:0.4000000000000001;"/><rect fill="#E3E3E3" height="26.0969" rx="2" ry="2" style="stroke:#181818;stroke-width:0.4000000000000001;" width="100.8" x="274.4" y="40"/><text fill="#000000" font-family="sans-serif" font-size="11.2" lengthAdjust="spacing" textLength="89.6" x="280" y="57.6859">:GenerateTeamUI</text><rect fill="#E3E3E3" height="26.0969" rx="2" ry="2" style="stroke:#181818;stroke-width:0.4000000000000001;" width="100.8" x="274.4" y="1187.525"/><text fill="#000000" font-family="sans-serif" font-size="11.2" lengthAdjust="spacing" textLength="89.6" x="280" y="1205.2109">:GenerateTeamUI</text><rect fill="#E3E3E3" height="26.0969" rx="2" ry="2" style="stroke:#181818;stroke-width:0.4000000000000001;" width="140.8" x="505.6" y="1187.525"/><text fill="#000000" font-family="sans-serif" font-size="11.2" lengthAdjust="spacing" textLength="129.6" x="511.2" y="1205.2109">:GenerateTeamController</text><rect fill="#E3E3E3" height="40.9938" rx="2" ry="2" style="stroke:#181818;stroke-width:0.4000000000000001;" width="87.2" x="832.4" y="25.1031"/><text fill="#000000" font-family="sans-serif" font-size="11.2" lengthAdjust="spacing" textLength="76" x="838" y="42.7891">skillRepository:</text><text fill="#000000" font-family="sans-serif" font-size="11.2" lengthAdjust="spacing" textLength="74.4" x="838.8" y="57.6859">SkillRepository</text><rect fill="#E3E3E3" height="40.9938" rx="2" ry="2" style="stroke:#181818;stroke-width:0.4000000000000001;" width="87.2" x="832.4" y="1187.525"/><text fill="#000000" font-family="sans-serif" font-size="11.2" lengthAdjust="spacing" textLength="76" x="838" y="1205.2109">skillRepository:</text><text fill="#000000" font-family="sans-serif" font-size="11.2" lengthAdjust="spacing" textLength="74.4" x="838.8" y="1220.1078">SkillRepository</text><rect fill="#E3E3E3" height="40.9938" rx="2" ry="2" style="stroke:#181818;stroke-width:0.4000000000000001;" width="128.8" x="943.2" y="1187.525"/><text fill="#000000" font-family="sans-serif" font-size="11.2" lengthAdjust="spacing" textLength="117.6" x="948.8" y="1205.2109">selectedSkillNamesList:</text><text fill="#000000" font-family="sans-serif" font-size="11.2" lengthAdjust="spacing" textLength="60" x="977.6" y="1220.1078">List&lt;String&gt;</text><rect fill="#FFFFFF" height="1099.0281" style="stroke:#181818;stroke-width:0.8000000000000002;" width="8" x="84.8" y="74.8969"/><rect fill="#FFFFFF" height="59.9297" style="stroke:#181818;stroke-width:0.8000000000000002;" width="8" x="320.8" y="93.5297"/><rect fill="#FFFFFF" height="222.3281" style="stroke:#181818;stroke-width:0.8000000000000002;" width="8" x="320.8" y="178.4922"/><rect fill="#FFFFFF" height="124.1313" style="stroke:#181818;stroke-width:0.8000000000000002;" width="8" x="320.8" y="425.8531"/><rect fill="#FFFFFF" height="447.4063" style="stroke:#181818;stroke-width:0.8000000000000002;" width="8" x="320.8" y="575.0172"/><rect fill="#FFFFFF" height="126.4688" style="stroke:#181818;stroke-width:0.8000000000000002;" width="8" x="320.8" y="1047.4563"/><rect fill="#FFFFFF" height="151.2297" style="stroke:#181818;stroke-width:0.8000000000000002;" width="8" x="572" y="203.525"/><rect fill="#FFFFFF" height="74.0656" style="stroke:#181818;stroke-width:0.8000000000000002;" width="8" x="572" y="450.8859"/><rect fill="#FFFFFF" height="391.7406" style="stroke:#181818;stroke-width:0.8000000000000002;" width="8" x="572" y="605.65"/><rect fill="#FFFFFF" height="85.2031" style="stroke:#181818;stroke-width:0.8000000000000002;" width="8" x="576" y="637.0828"/><rect fill="#FFFFFF" height="85.2031" style="stroke:#181818;stroke-width:0.8000000000000002;" width="8" x="576" y="759.3188"/><rect fill="#FFFFFF" height="85.2031" style="stroke:#181818;stroke-width:0.8000000000000002;" width="8" x="576" y="881.5547"/><rect fill="#FFFFFF" height="76.4031" style="stroke:#181818;stroke-width:0.8000000000000002;" width="8" x="572" y="1072.4891"/><rect fill="#FFFFFF" height="25.0328" style="stroke:#181818;stroke-width:0.8000000000000002;" width="8" x="872" y="279.9281"/><rect fill="#FFFFFF" height="49.0328" style="stroke:#181818;stroke-width:0.8000000000000002;" width="8" x="872" y="475.9188"/><rect fill="#FFFFFF" height="24" style="stroke:#181818;stroke-width:0.8000000000000002;" width="8" x="1003.6" y="500.9516"/><polygon fill="#181818" points="311.2,90.3297,319.2,93.5297,311.2,96.7297,314.4,93.5297" style="stroke:#181818;stroke-width:0.8000000000000002;"/><line style="stroke:#181818;stroke-width:0.8000000000000002;" x1="92.8" x2="316" y1="93.5297" y2="93.5297"/><text fill="#000000" font-family="sans-serif" font-size="10.4" font-weight="bold" lengthAdjust="spacing" textLength="5.6" x="98.4" y="89.3195">1</text><text fill="#000000" font-family="sans-serif" font-size="10.4" lengthAdjust="spacing" textLength="114.4" x="107.2" y="89.3195">asks for a team proposal</text><polygon fill="#181818" points="496,115.3625,504,118.5625,496,121.7625,499.2,118.5625" style="stroke:#181818;stroke-width:0.8000000000000002;"/><line style="stroke:#181818;stroke-width:0.8000000000000002;" x1="328.8" x2="500.8" y1="118.5625" y2="118.5625"/><text fill="#000000" font-family="sans-serif" font-size="10.4" font-weight="bold" lengthAdjust="spacing" textLength="5.6" x="334.4" y="114.3523">2</text><text fill="#000000" font-family="sans-serif" font-size="10.4" lengthAdjust="spacing" textLength="28.8" x="343.2" y="114.3523">create</text><rect fill="#E3E3E3" height="26.0969" rx="2" ry="2" style="stroke:#181818;stroke-width:0.4000000000000001;" width="140.8" x="505.6" y="99.9297"/><text fill="#000000" font-family="sans-serif" font-size="11.2" lengthAdjust="spacing" textLength="129.6" x="511.2" y="117.6156">:GenerateTeamController</text><polygon fill="#181818" points="101.6,150.2594,93.6,153.4594,101.6,156.6594,98.4,153.4594" style="stroke:#181818;stroke-width:0.8000000000000002;"/><line style="stroke:#181818;stroke-width:0.8000000000000002;stroke-dasharray:2.0,2.0;" x1="96.8" x2="324" y1="153.4594" y2="153.4594"/><text fill="#000000" font-family="sans-serif" font-size="10.4" font-weight="bold" lengthAdjust="spacing" textLength="5.6" x="106.4" y="149.2492">3</text><text fill="#000000" font-family="sans-serif" font-size="10.4" lengthAdjust="spacing" textLength="200" x="115.2" y="149.2492">asks for minimum and maximum team size</text><polygon fill="#181818" points="311.2,175.2922,319.2,178.4922,311.2,181.6922,314.4,178.4922" style="stroke:#181818;stroke-width:0.8000000000000002;"/><line style="stroke:#181818;stroke-width:0.8000000000000002;" x1="92.8" x2="316" y1="178.4922" y2="178.4922"/><text fill="#000000" font-family="sans-serif" font-size="10.4" font-weight="bold" lengthAdjust="spacing" textLength="5.6" x="98.4" y="174.282">4</text><text fill="#000000" font-family="sans-serif" font-size="10.4" lengthAdjust="spacing" textLength="192" x="107.2" y="174.282">enters minimum and maximum team size</text><polygon fill="#181818" points="562.4,200.325,570.4,203.525,562.4,206.725,565.6,203.525" style="stroke:#181818;stroke-width:0.8000000000000002;"/><line style="stroke:#181818;stroke-width:0.8000000000000002;" x1="328.8" x2="567.2" y1="203.525" y2="203.525"/><text fill="#000000" font-family="sans-serif" font-size="10.4" font-weight="bold" lengthAdjust="spacing" textLength="5.6" x="334.4" y="199.3148">5</text><text fill="#000000" font-family="sans-serif" font-size="10.4" lengthAdjust="spacing" textLength="46.4" x="343.2" y="199.3148">getSkills()</text><rect fill="none" height="47.3703" style="stroke:#000000;stroke-width:1.2000000000000002;" width="145.6" x="503.2" y="209.925"/><path d="M503.2,209.925 L552.8,209.925 L552.8,217.125 L544.8,225.125 L503.2,225.125 L503.2,209.925 " fill="#EEEEEE" style="stroke:#000000;stroke-width:1.6000000000000003;"/><text fill="#000000" font-family="sans-serif" font-size="10.4" font-weight="bold" lengthAdjust="spacing" textLength="13.6" x="513.6" y="222.7477">ref</text><text fill="#000000" font-family="sans-serif" font-size="9.6" lengthAdjust="spacing" textLength="54.4" x="548.8" y="238.6844">Get Skill List</text><text fill="#000000" font-family="sans-serif" font-size="9.6" lengthAdjust="spacing" textLength="2.4" x="574.8" y="251.4531">&#160;</text><polygon fill="#181818" points="862.4,276.7281,870.4,279.9281,862.4,283.1281,865.6,279.9281" style="stroke:#181818;stroke-width:0.8000000000000002;"/><line style="stroke:#181818;stroke-width:0.8000000000000002;" x1="580" x2="867.2" y1="279.9281" y2="279.9281"/><text fill="#000000" font-family="sans-serif" font-size="10.4" font-weight="bold" lengthAdjust="spacing" textLength="5.6" x="585.6" y="275.718">6</text><text fill="#000000" font-family="sans-serif" font-size="10.4" lengthAdjust="spacing" textLength="145.6" x="594.4" y="275.718">createSelectedSkillNamesList()</text><polygon fill="#181818" points="933.6,301.7609,941.6,304.9609,933.6,308.1609,936.8,304.9609" style="stroke:#181818;stroke-width:0.8000000000000002;"/><line style="stroke:#181818;stroke-width:0.8000000000000002;" x1="876" x2="938.4" y1="304.9609" y2="304.9609"/><text fill="#000000" font-family="sans-serif" font-size="10.4" font-weight="bold" lengthAdjust="spacing" textLength="5.6" x="881.6" y="300.7508">7</text><text fill="#000000" font-family="sans-serif" font-size="10.4" lengthAdjust="spacing" textLength="35.2" x="890.4" y="300.7508">create()</text><rect fill="#E3E3E3" height="40.9938" rx="2" ry="2" style="stroke:#181818;stroke-width:0.4000000000000001;" width="128.8" x="943.2" y="286.3281"/><text fill="#000000" font-family="sans-serif" font-size="11.2" lengthAdjust="spacing" textLength="117.6" x="948.8" y="304.0141">selectedSkillNamesList:</text><text fill="#000000" font-family="sans-serif" font-size="11.2" lengthAdjust="spacing" textLength="60" x="977.6" y="318.9109">List&lt;String&gt;</text><polygon fill="#181818" points="337.6,351.5547,329.6,354.7547,337.6,357.9547,334.4,354.7547" style="stroke:#181818;stroke-width:0.8000000000000002;"/><line style="stroke:#181818;stroke-width:0.8000000000000002;stroke-dasharray:2.0,2.0;" x1="332.8" x2="575.2" y1="354.7547" y2="354.7547"/><text fill="#000000" font-family="sans-serif" font-size="10.4" font-weight="bold" lengthAdjust="spacing" textLength="5.6" x="342.4" y="350.5445">8</text><text fill="#000000" font-family="sans-serif" font-size="10.4" lengthAdjust="spacing" textLength="35.2" x="351.2" y="350.5445">skillList</text><path d="M8,366.7547 L66.4,366.7547 L66.4,374.1875 L58.4,382.1875 L8,382.1875 L8,366.7547 " fill="#EEEEEE" style="stroke:#000000;stroke-width:1.2000000000000002;"/><rect fill="none" height="214.6625" style="stroke:#000000;stroke-width:1.2000000000000002;" width="1072" x="8" y="366.7547"/><text fill="#000000" font-family="sans-serif" font-size="10.4" font-weight="bold" lengthAdjust="spacing" textLength="22.4" x="20" y="378.7773">loop</text><text fill="#000000" font-family="sans-serif" font-size="8.8" font-weight="bold" lengthAdjust="spacing" textLength="76.8" x="78.4" y="377.8508">[while continues]</text><polygon fill="#181818" points="101.6,397.6203,93.6,400.8203,101.6,404.0203,98.4,400.8203" style="stroke:#181818;stroke-width:0.8000000000000002;"/><line style="stroke:#181818;stroke-width:0.8000000000000002;stroke-dasharray:2.0,2.0;" x1="96.8" x2="324" y1="400.8203" y2="400.8203"/><text fill="#000000" font-family="sans-serif" font-size="10.4" font-weight="bold" lengthAdjust="spacing" textLength="5.6" x="106.4" y="396.6102">9</text><text fill="#000000" font-family="sans-serif" font-size="10.4" lengthAdjust="spacing" textLength="176.8" x="115.2" y="396.6102">shows skill list and asks to select one</text><polygon fill="#181818" points="311.2,422.6531,319.2,425.8531,311.2,429.0531,314.4,425.8531" style="stroke:#181818;stroke-width:0.8000000000000002;"/><line style="stroke:#181818;stroke-width:0.8000000000000002;" x1="92.8" x2="316" y1="425.8531" y2="425.8531"/><text fill="#000000" font-family="sans-serif" font-size="10.4" font-weight="bold" lengthAdjust="spacing" textLength="11.2" x="98.4" y="421.643">10</text><text fill="#000000" font-family="sans-serif" font-size="10.4" lengthAdjust="spacing" textLength="64" x="112.8" y="421.643">selects a skill</text><polygon fill="#181818" points="562.4,447.6859,570.4,450.8859,562.4,454.0859,565.6,450.8859" style="stroke:#181818;stroke-width:0.8000000000000002;"/><line style="stroke:#181818;stroke-width:0.8000000000000002;" x1="328.8" x2="567.2" y1="450.8859" y2="450.8859"/><text fill="#000000" font-family="sans-serif" font-size="10.4" font-weight="bold" lengthAdjust="spacing" textLength="11.2" x="334.4" y="446.6758">11</text><text fill="#000000" font-family="sans-serif" font-size="10.4" lengthAdjust="spacing" textLength="156.8" x="348.8" y="446.6758">addSelectedSkillName(skillName)</text><polygon fill="#181818" points="862.4,472.7188,870.4,475.9188,862.4,479.1188,865.6,475.9188" style="stroke:#181818;stroke-width:0.8000000000000002;"/><line style="stroke:#181818;stroke-width:0.8000000000000002;" x1="580" x2="867.2" y1="475.9188" y2="475.9188"/><text fill="#000000" font-family="sans-serif" font-size="10.4" font-weight="bold" lengthAdjust="spacing" textLength="11.2" x="585.6" y="471.7086">12</text><text fill="#000000" font-family="sans-serif" font-size="10.4" lengthAdjust="spacing" textLength="156.8" x="600" y="471.7086">addSelectedSkillName(skillName)</text><polygon fill="#181818" points="994,497.7516,1002,500.9516,994,504.1516,997.2,500.9516" style="stroke:#181818;stroke-width:0.8000000000000002;"/><line style="stroke:#181818;stroke-width:0.8000000000000002;" x1="880" x2="998.8" y1="500.9516" y2="500.9516"/><text fill="#000000" font-family="sans-serif" font-size="10.4" font-weight="bold" lengthAdjust="spacing" textLength="11.2" x="885.6" y="496.7414">13</text><text fill="#000000" font-family="sans-serif" font-size="10.4" lengthAdjust="spacing" textLength="68.8" x="900" y="496.7414">add(skillName)</text><polygon fill="#181818" points="101.6,546.7844,93.6,549.9844,101.6,553.1844,98.4,549.9844" style="stroke:#181818;stroke-width:0.8000000000000002;"/><line style="stroke:#181818;stroke-width:0.8000000000000002;stroke-dasharray:2.0,2.0;" x1="96.8" x2="324" y1="549.9844" y2="549.9844"/><text fill="#000000" font-family="sans-serif" font-size="10.4" font-weight="bold" lengthAdjust="spacing" textLength="11.2" x="106.4" y="545.7742">14</text><text fill="#000000" font-family="sans-serif" font-size="10.4" lengthAdjust="spacing" textLength="76.8" x="120.8" y="545.7742">asks to continue</text><polygon fill="#181818" points="311.2,571.8172,319.2,575.0172,311.2,578.2172,314.4,575.0172" style="stroke:#181818;stroke-width:0.8000000000000002;"/><line style="stroke:#181818;stroke-width:0.8000000000000002;" x1="92.8" x2="316" y1="575.0172" y2="575.0172"/><text fill="#000000" font-family="sans-serif" font-size="10.4" font-weight="bold" lengthAdjust="spacing" textLength="11.2" x="98.4" y="570.807">15</text><text fill="#000000" font-family="sans-serif" font-size="10.4" lengthAdjust="spacing" textLength="144.8" x="112.8" y="570.807">answers positively or negatively</text><polygon fill="#181818" points="562.4,602.45,570.4,605.65,562.4,608.85,565.6,605.65" style="stroke:#181818;stroke-width:0.8000000000000002;"/><line style="stroke:#181818;stroke-width:0.8000000000000002;" x1="328.8" x2="567.2" y1="605.65" y2="605.65"/><text fill="#000000" font-family="sans-serif" font-size="10.4" font-weight="bold" lengthAdjust="spacing" textLength="11.2" x="334.4" y="601.4398">16</text><text fill="#000000" font-family="sans-serif" font-size="10.4" lengthAdjust="spacing" textLength="213.6" x="348.8" y="601.4398">generateTeamProposal(minCollab, maxCollab)</text><line style="stroke:#181818;stroke-width:0.8000000000000002;" x1="580" x2="617.6" y1="626.6828" y2="626.6828"/><line style="stroke:#181818;stroke-width:0.8000000000000002;" x1="617.6" x2="617.6" y1="626.6828" y2="637.0828"/><line style="stroke:#181818;stroke-width:0.8000000000000002;" x1="584.8" x2="617.6" y1="637.0828" y2="637.0828"/><polygon fill="#181818" points="592.8,633.8828,584.8,637.0828,592.8,640.2828,589.6,637.0828" style="stroke:#181818;stroke-width:0.8000000000000002;"/><text fill="#000000" font-family="sans-serif" font-size="10.4" font-weight="bold" lengthAdjust="spacing" textLength="11.2" x="589.6" y="622.4727">17</text><text fill="#000000" font-family="sans-serif" font-size="10.4" lengthAdjust="spacing" textLength="118.4" x="604" y="622.4727">createSelectedSkillsList()</text><rect fill="none" height="47.3703" style="stroke:#000000;stroke-width:1.2000000000000002;" width="145.6" x="503.2" y="647.4828"/><path d="M503.2,647.4828 L552.8,647.4828 L552.8,654.6828 L544.8,662.6828 L503.2,662.6828 L503.2,647.4828 " fill="#EEEEEE" style="stroke:#000000;stroke-width:1.6000000000000003;"/><text fill="#000000" font-family="sans-serif" font-size="10.4" font-weight="bold" lengthAdjust="spacing" textLength="13.6" x="513.6" y="660.3055">ref</text><text fill="#000000" font-family="sans-serif" font-size="9.6" lengthAdjust="spacing" textLength="115.2" x="518.4" y="676.2422">Create Selected Skills List</text><text fill="#000000" font-family="sans-serif" font-size="9.6" lengthAdjust="spacing" textLength="2.4" x="574.8" y="689.0109">&#160;</text><line style="stroke:#181818;stroke-width:0.8000000000000002;stroke-dasharray:2.0,2.0;" x1="584" x2="617.6" y1="721.4859" y2="721.4859"/><line style="stroke:#181818;stroke-width:0.8000000000000002;stroke-dasharray:2.0,2.0;" x1="617.6" x2="617.6" y1="721.4859" y2="731.8859"/><line style="stroke:#181818;stroke-width:0.8000000000000002;stroke-dasharray:2.0,2.0;" x1="580" x2="617.6" y1="731.8859" y2="731.8859"/><polygon fill="#181818" points="588,728.6859,580,731.8859,588,735.0859,584.8,731.8859" style="stroke:#181818;stroke-width:0.8000000000000002;"/><text fill="#000000" font-family="sans-serif" font-size="10.4" font-weight="bold" lengthAdjust="spacing" textLength="11.2" x="589.6" y="717.2758">18</text><text fill="#000000" font-family="sans-serif" font-size="10.4" lengthAdjust="spacing" textLength="81.6" x="604" y="717.2758">selectedSkillsList</text><line style="stroke:#181818;stroke-width:0.8000000000000002;" x1="580" x2="617.6" y1="748.9188" y2="748.9188"/><line style="stroke:#181818;stroke-width:0.8000000000000002;" x1="617.6" x2="617.6" y1="748.9188" y2="759.3188"/><line style="stroke:#181818;stroke-width:0.8000000000000002;" x1="584.8" x2="617.6" y1="759.3188" y2="759.3188"/><polygon fill="#181818" points="592.8,756.1188,584.8,759.3188,592.8,762.5188,589.6,759.3188" style="stroke:#181818;stroke-width:0.8000000000000002;"/><text fill="#000000" font-family="sans-serif" font-size="10.4" font-weight="bold" lengthAdjust="spacing" textLength="11.2" x="589.6" y="744.7086">19</text><text fill="#000000" font-family="sans-serif" font-size="10.4" lengthAdjust="spacing" textLength="153.6" x="604" y="744.7086">createAvailableCollaboratorsList()</text><rect fill="none" height="47.3703" style="stroke:#000000;stroke-width:1.2000000000000002;" width="158.4" x="503.2" y="769.7188"/><path d="M503.2,769.7188 L552.8,769.7188 L552.8,776.9188 L544.8,784.9188 L503.2,784.9188 L503.2,769.7188 " fill="#EEEEEE" style="stroke:#000000;stroke-width:1.6000000000000003;"/><text fill="#000000" font-family="sans-serif" font-size="10.4" font-weight="bold" lengthAdjust="spacing" textLength="13.6" x="513.6" y="782.5414">ref</text><text fill="#000000" font-family="sans-serif" font-size="9.6" lengthAdjust="spacing" textLength="152" x="506.4" y="798.4781">Create Available Collaborators List</text><text fill="#000000" font-family="sans-serif" font-size="9.6" lengthAdjust="spacing" textLength="2.4" x="581.2" y="811.2469">&#160;</text><line style="stroke:#181818;stroke-width:0.8000000000000002;stroke-dasharray:2.0,2.0;" x1="584" x2="617.6" y1="843.7219" y2="843.7219"/><line style="stroke:#181818;stroke-width:0.8000000000000002;stroke-dasharray:2.0,2.0;" x1="617.6" x2="617.6" y1="843.7219" y2="854.1219"/><line style="stroke:#181818;stroke-width:0.8000000000000002;stroke-dasharray:2.0,2.0;" x1="580" x2="617.6" y1="854.1219" y2="854.1219"/><polygon fill="#181818" points="588,850.9219,580,854.1219,588,857.3219,584.8,854.1219" style="stroke:#181818;stroke-width:0.8000000000000002;"/><text fill="#000000" font-family="sans-serif" font-size="10.4" font-weight="bold" lengthAdjust="spacing" textLength="11.2" x="589.6" y="839.5117">20</text><text fill="#000000" font-family="sans-serif" font-size="10.4" lengthAdjust="spacing" textLength="3.2" x="604" y="839.5117">&#160;</text><line style="stroke:#181818;stroke-width:0.8000000000000002;" x1="580" x2="617.6" y1="871.1547" y2="871.1547"/><line style="stroke:#181818;stroke-width:0.8000000000000002;" x1="617.6" x2="617.6" y1="871.1547" y2="881.5547"/><line style="stroke:#181818;stroke-width:0.8000000000000002;" x1="584.8" x2="617.6" y1="881.5547" y2="881.5547"/><polygon fill="#181818" points="592.8,878.3547,584.8,881.5547,592.8,884.7547,589.6,881.5547" style="stroke:#181818;stroke-width:0.8000000000000002;"/><text fill="#000000" font-family="sans-serif" font-size="10.4" font-weight="bold" lengthAdjust="spacing" textLength="11.2" x="589.6" y="866.9445">21</text><text fill="#000000" font-family="sans-serif" font-size="10.4" lengthAdjust="spacing" textLength="266.4" x="604" y="866.9445">selectCollaboratorsForTeam(availableCollaborators, skills)</text><rect fill="none" height="47.3703" style="stroke:#000000;stroke-width:1.2000000000000002;" width="145.6" x="503.2" y="891.9547"/><path d="M503.2,891.9547 L552.8,891.9547 L552.8,899.1547 L544.8,907.1547 L503.2,907.1547 L503.2,891.9547 " fill="#EEEEEE" style="stroke:#000000;stroke-width:1.6000000000000003;"/><text fill="#000000" font-family="sans-serif" font-size="10.4" font-weight="bold" lengthAdjust="spacing" textLength="13.6" x="513.6" y="904.7773">ref</text><text fill="#000000" font-family="sans-serif" font-size="9.6" lengthAdjust="spacing" textLength="111.2" x="520.4" y="920.7141">Generate Team Proposal</text><text fill="#000000" font-family="sans-serif" font-size="9.6" lengthAdjust="spacing" textLength="2.4" x="574.8" y="933.4828">&#160;</text><line style="stroke:#181818;stroke-width:0.8000000000000002;stroke-dasharray:2.0,2.0;" x1="584" x2="617.6" y1="965.9578" y2="965.9578"/><line style="stroke:#181818;stroke-width:0.8000000000000002;stroke-dasharray:2.0,2.0;" x1="617.6" x2="617.6" y1="965.9578" y2="976.3578"/><line style="stroke:#181818;stroke-width:0.8000000000000002;stroke-dasharray:2.0,2.0;" x1="580" x2="617.6" y1="976.3578" y2="976.3578"/><polygon fill="#181818" points="588,973.1578,580,976.3578,588,979.5578,584.8,976.3578" style="stroke:#181818;stroke-width:0.8000000000000002;"/><text fill="#000000" font-family="sans-serif" font-size="10.4" font-weight="bold" lengthAdjust="spacing" textLength="11.2" x="589.6" y="961.7477">22</text><text fill="#000000" font-family="sans-serif" font-size="10.4" lengthAdjust="spacing" textLength="95.2" x="604" y="961.7477">tempCollaboratorList</text><polygon fill="#181818" points="337.6,994.1906,329.6,997.3906,337.6,1000.5906,334.4,997.3906" style="stroke:#181818;stroke-width:0.8000000000000002;"/><line style="stroke:#181818;stroke-width:0.8000000000000002;stroke-dasharray:2.0,2.0;" x1="332.8" x2="575.2" y1="997.3906" y2="997.3906"/><text fill="#000000" font-family="sans-serif" font-size="10.4" font-weight="bold" lengthAdjust="spacing" textLength="11.2" x="342.4" y="993.1805">23</text><text fill="#000000" font-family="sans-serif" font-size="10.4" lengthAdjust="spacing" textLength="95.2" x="356.8" y="993.1805">tempCollaboratorList</text><polygon fill="#181818" points="101.6,1019.2234,93.6,1022.4234,101.6,1025.6234,98.4,1022.4234" style="stroke:#181818;stroke-width:0.8000000000000002;"/><line style="stroke:#181818;stroke-width:0.8000000000000002;stroke-dasharray:2.0,2.0;" x1="96.8" x2="324" y1="1022.4234" y2="1022.4234"/><text fill="#000000" font-family="sans-serif" font-size="10.4" font-weight="bold" lengthAdjust="spacing" textLength="11.2" x="106.4" y="1018.2133">24</text><text fill="#000000" font-family="sans-serif" font-size="10.4" lengthAdjust="spacing" textLength="107.2" x="120.8" y="1018.2133">shows a team proposal</text><polygon fill="#181818" points="311.2,1044.2563,319.2,1047.4563,311.2,1050.6563,314.4,1047.4563" style="stroke:#181818;stroke-width:0.8000000000000002;"/><line style="stroke:#181818;stroke-width:0.8000000000000002;" x1="92.8" x2="316" y1="1047.4563" y2="1047.4563"/><text fill="#000000" font-family="sans-serif" font-size="10.4" font-weight="bold" lengthAdjust="spacing" textLength="11.2" x="98.4" y="1043.2461">25</text><text fill="#000000" font-family="sans-serif" font-size="10.4" lengthAdjust="spacing" textLength="154.4" x="112.8" y="1043.2461">accepts or refuses team proposal</text><polygon fill="#181818" points="562.4,1069.2891,570.4,1072.4891,562.4,1075.6891,565.6,1072.4891" style="stroke:#181818;stroke-width:0.8000000000000002;"/><line style="stroke:#181818;stroke-width:0.8000000000000002;" x1="328.8" x2="567.2" y1="1072.4891" y2="1072.4891"/><text fill="#000000" font-family="sans-serif" font-size="10.4" font-weight="bold" lengthAdjust="spacing" textLength="11.2" x="334.4" y="1068.2789">26</text><text fill="#000000" font-family="sans-serif" font-size="10.4" lengthAdjust="spacing" textLength="161.6" x="348.8" y="1068.2789">registerTeam(tempCollaboratorList)</text><rect fill="none" height="47.3703" style="stroke:#000000;stroke-width:1.2000000000000002;" width="145.6" x="503.2" y="1078.8891"/><path d="M503.2,1078.8891 L552.8,1078.8891 L552.8,1086.0891 L544.8,1094.0891 L503.2,1094.0891 L503.2,1078.8891 " fill="#EEEEEE" style="stroke:#000000;stroke-width:1.6000000000000003;"/><text fill="#000000" font-family="sans-serif" font-size="10.4" font-weight="bold" lengthAdjust="spacing" textLength="13.6" x="513.6" y="1091.7117">ref</text><text fill="#000000" font-family="sans-serif" font-size="9.6" lengthAdjust="spacing" textLength="65.6" x="543.2" y="1107.6484">Register Team</text><text fill="#000000" font-family="sans-serif" font-size="9.6" lengthAdjust="spacing" textLength="2.4" x="574.8" y="1120.4172">&#160;</text><polygon fill="#181818" points="337.6,1145.6922,329.6,1148.8922,337.6,1152.0922,334.4,1148.8922" style="stroke:#181818;stroke-width:0.8000000000000002;"/><line style="stroke:#181818;stroke-width:0.8000000000000002;stroke-dasharray:2.0,2.0;" x1="332.8" x2="575.2" y1="1148.8922" y2="1148.8922"/><text fill="#000000" font-family="sans-serif" font-size="10.4" font-weight="bold" lengthAdjust="spacing" textLength="11.2" x="342.4" y="1144.682">27</text><text fill="#000000" font-family="sans-serif" font-size="10.4" lengthAdjust="spacing" textLength="23.2" x="356.8" y="1144.682">team</text><polygon fill="#181818" points="97.6,1170.725,89.6,1173.925,97.6,1177.125,94.4,1173.925" style="stroke:#181818;stroke-width:0.8000000000000002;"/><line style="stroke:#181818;stroke-width:0.8000000000000002;stroke-dasharray:2.0,2.0;" x1="92.8" x2="324" y1="1173.925" y2="1173.925"/><text fill="#000000" font-family="sans-serif" font-size="10.4" font-weight="bold" lengthAdjust="spacing" textLength="11.2" x="102.4" y="1169.7148">28</text><text fill="#000000" font-family="sans-serif" font-size="10.4" lengthAdjust="spacing" textLength="112.8" x="116.8" y="1169.7148">displays operation result</text><!--SRC=[hLR1JkCm4BtdAqPSjY3s1weLqWff0GbMg8NRNamof1QE7TbEI_VhTs8d8N7SD8NDfKqoVZFpvlavvetBacbMGA6aIZTQ5GXMLvYOxat9qZUMuzhk1OB6r3APYtw0sR1CxRZCuPK9Wqd2AgjaLRoWJf9l6vuXl2fbNzHxmbAhD9pTLWMJi4AZAfsYWGScAOC-0sRWTlMG4AxbAI-Pj72sl469cbbyGbOytxcWvxk9c6ibhLP2D83NJwlxOJILBiGAIsKubRDV_f7huHEtBdWMGA0W9Z1pGRzPWUQU6qj8zS-FjTL4nvM3YKScISq5trB9hkC4cejkuFiLDGXBMlrcY3eD32pMaz2Agc7Y8xh384AwX_L5wmcbRltYWf1IZHGr3g6OEc4lLS4bBwe2cCoWOE_klqjk-DyUG8RHrFtgKLhKPYxWZ4u8CqVhU3IByq6GnbTGMzH-s11SDsZzDC5Jtt-7L1Qj7ZxiYd5mWrUk42eeK4V7yJewxg3S3Z_Ks20gJ45PusBgZJX8r1lJPAgFpjhfkJtYw3g0DwP6A5N2RiF99bBQWbnMQ2OaPpPgPtmU49J8ASJfqAgcKL0IfoJNbvjVOMYlECZaeAW6Wc9PDfhOmhJ_pkUgOa8Pf-MOhuwJ5E8xdPNqa5-52thZEBPaZWeFAcjiKoIFLby-x8Woc3IxsebSKhv5iGSoEeavytV9fF_K1b4h-u20yjx1yzZuyu8yxveE8FPoMLkU_tkUdE0k3NZ4Kbex6SrZsW8Tk4E35ixFma1yl55VdB4B1axIj6563SmtbIWZFxUC4wK2FRMA1g3qrvdfO660-vyP2jZvD1MUrK6blvIkTRXWKNuklJEQarpjE7djfnVKgU5nz8robAzGBXQBib_uPmJJxlr9h7cUuy-fy1DiZk-aAPPq8f7PKD-LeG_TCSRn8qfZJaMZdsoidwFESdY6gmRRpUvZGNHK8R7z1J4sumV_4Z9kIi7sn4jPwuOhIRbC9MoCqzwj-qp-1m00]--></g></svg>