<?xml version="1.0" encoding="us-ascii" standalone="no"?><svg xmlns="http://www.w3.org/2000/svg" xmlns:xlink="http://www.w3.org/1999/xlink" contentStyleType="text/css" height="481px" preserveAspectRatio="none" style="width:1534px;height:481px;background:#FFFFFF;" version="1.1" viewBox="0 0 1534 481" width="1534px" zoomAndPan="magnify"><defs/><g><rect fill="#FFFFFF" height="325.3281" style="stroke:#181818;stroke-width:1.0;" width="10" x="443" y="90.5332"/><rect fill="#FFFFFF" height="220.4551" style="stroke:#181818;stroke-width:1.0;" width="10" x="827" y="148.1152"/><rect fill="#FFFFFF" height="30" style="stroke:#181818;stroke-width:1.0;" width="10" x="1286" y="205.6973"/><rect fill="#FFFFFF" height="30" style="stroke:#181818;stroke-width:1.0;" width="10" x="1418.5" y="293.2793"/><rect fill="none" height="271.0371" style="stroke:#000000;stroke-width:1.5;" width="1178" x="350" y="105.5332"/><rect fill="none" height="175.1641" style="stroke:#000000;stroke-width:1.5;" width="786.5" x="731.5" y="163.1152"/><rect fill="none" height="80.582" style="stroke:#000000;stroke-width:1.5;" width="766.5" x="741.5" y="250.6973"/><line style="stroke:#181818;stroke-width:0.5;stroke-dasharray:5.0,5.0;" x1="448" x2="448" y1="57.2422" y2="424.8613"/><line style="stroke:#181818;stroke-width:0.5;stroke-dasharray:5.0,5.0;" x1="831.5" x2="831.5" y1="57.2422" y2="424.8613"/><line style="stroke:#181818;stroke-width:0.5;stroke-dasharray:5.0,5.0;" x1="1291" x2="1291" y1="57.2422" y2="424.8613"/><line style="stroke:#181818;stroke-width:0.5;stroke-dasharray:5.0,5.0;" x1="1423" x2="1423" y1="57.2422" y2="424.8613"/><rect fill="#E3E3E3" height="32.6211" rx="2.5" ry="2.5" style="stroke:#181818;stroke-width:0.5;" width="176" x="360" y="23.6211"/><text fill="#000000" font-family="sans-serif" font-size="14" lengthAdjust="spacing" textLength="162" x="367" y="45.7285">:GenerateTeamController</text><rect fill="#E3E3E3" height="32.6211" rx="2.5" ry="2.5" style="stroke:#181818;stroke-width:0.5;" width="176" x="360" y="423.8613"/><text fill="#000000" font-family="sans-serif" font-size="14" lengthAdjust="spacing" textLength="162" x="367" y="445.9688">:GenerateTeamController</text><rect fill="#E3E3E3" height="51.2422" rx="2.5" ry="2.5" style="stroke:#181818;stroke-width:0.5;" width="161" x="751.5" y="5"/><text fill="#000000" font-family="sans-serif" font-size="14" lengthAdjust="spacing" textLength="147" x="758.5" y="27.1074">collaboratorRepository:</text><text fill="#000000" font-family="sans-serif" font-size="14" lengthAdjust="spacing" textLength="146" x="759" y="45.7285">CollaboratorRepository</text><rect fill="#E3E3E3" height="51.2422" rx="2.5" ry="2.5" style="stroke:#181818;stroke-width:0.5;" width="161" x="751.5" y="423.8613"/><text fill="#000000" font-family="sans-serif" font-size="14" lengthAdjust="spacing" textLength="147" x="758.5" y="445.9688">collaboratorRepository:</text><text fill="#000000" font-family="sans-serif" font-size="14" lengthAdjust="spacing" textLength="146" x="759" y="464.5898">CollaboratorRepository</text><rect fill="#E3E3E3" height="51.2422" rx="2.5" ry="2.5" style="stroke:#181818;stroke-width:0.5;" width="96" x="1243" y="5"/><text fill="#000000" font-family="sans-serif" font-size="14" lengthAdjust="spacing" textLength="75" x="1253.5" y="27.1074">collaborator</text><text fill="#000000" font-family="sans-serif" font-size="14" lengthAdjust="spacing" textLength="82" x="1250" y="45.7285">:Collaborator</text><rect fill="#E3E3E3" height="51.2422" rx="2.5" ry="2.5" style="stroke:#181818;stroke-width:0.5;" width="96" x="1243" y="423.8613"/><text fill="#000000" font-family="sans-serif" font-size="14" lengthAdjust="spacing" textLength="75" x="1253.5" y="445.9688">collaborator</text><text fill="#000000" font-family="sans-serif" font-size="14" lengthAdjust="spacing" textLength="82" x="1250" y="464.5898">:Collaborator</text><rect fill="#E3E3E3" height="51.2422" rx="2.5" ry="2.5" style="stroke:#181818;stroke-width:0.5;" width="149" x="1349" y="5"/><text fill="#000000" font-family="sans-serif" font-size="14" lengthAdjust="spacing" textLength="135" x="1356" y="27.1074">tempCollaboratorList:</text><text fill="#000000" font-family="sans-serif" font-size="14" lengthAdjust="spacing" textLength="116" x="1365.5" y="45.7285">List&lt;Collaborator&gt;</text><rect fill="#E3E3E3" height="51.2422" rx="2.5" ry="2.5" style="stroke:#181818;stroke-width:0.5;" width="149" x="1349" y="423.8613"/><text fill="#000000" font-family="sans-serif" font-size="14" lengthAdjust="spacing" textLength="135" x="1356" y="445.9688">tempCollaboratorList:</text><text fill="#000000" font-family="sans-serif" font-size="14" lengthAdjust="spacing" textLength="116" x="1365.5" y="464.5898">List&lt;Collaborator&gt;</text><rect fill="#FFFFFF" height="325.3281" style="stroke:#181818;stroke-width:1.0;" width="10" x="443" y="90.5332"/><rect fill="#FFFFFF" height="220.4551" style="stroke:#181818;stroke-width:1.0;" width="10" x="827" y="148.1152"/><rect fill="#FFFFFF" height="30" style="stroke:#181818;stroke-width:1.0;" width="10" x="1286" y="205.6973"/><rect fill="#FFFFFF" height="30" style="stroke:#181818;stroke-width:1.0;" width="10" x="1418.5" y="293.2793"/><polygon fill="#181818" points="431,86.5332,441,90.5332,431,94.5332,435,90.5332" style="stroke:#181818;stroke-width:1.0;"/><line style="stroke:#181818;stroke-width:1.0;" x1="0" x2="437" y1="90.5332" y2="90.5332"/><text fill="#000000" font-family="sans-serif" font-size="13" font-weight="bold" lengthAdjust="spacing" textLength="14" x="7" y="85.2705">21</text><text fill="#000000" font-family="sans-serif" font-size="13" lengthAdjust="spacing" textLength="406" x="25" y="85.2705">selectCollaboratorsForTeam(selectedSkillsList, minCollab, maxCollab)</text><path d="M350,105.5332 L554,105.5332 L554,114.8242 L544,124.8242 L350,124.8242 L350,105.5332 " fill="#EEEEEE" style="stroke:#000000;stroke-width:1.5;"/><rect fill="none" height="271.0371" style="stroke:#000000;stroke-width:1.5;" width="1178" x="350" y="105.5332"/><text fill="#000000" font-family="sans-serif" font-size="13" font-weight="bold" lengthAdjust="spacing" textLength="159" x="365" y="120.5615">Generate Team Proposal</text><polygon fill="#181818" points="815,144.1152,825,148.1152,815,152.1152,819,148.1152" style="stroke:#181818;stroke-width:1.0;"/><line style="stroke:#181818;stroke-width:1.0;" x1="453" x2="821" y1="148.1152" y2="148.1152"/><text fill="#000000" font-family="sans-serif" font-size="13" font-weight="bold" lengthAdjust="spacing" textLength="25" x="460" y="142.8525">21.1</text><text fill="#000000" font-family="sans-serif" font-size="13" lengthAdjust="spacing" textLength="326" x="489" y="142.8525">generateTeam(selectedSkillsList, minCollab, maxCollab)</text><path d="M731.5,163.1152 L804.5,163.1152 L804.5,172.4063 L794.5,182.4063 L731.5,182.4063 L731.5,163.1152 " fill="#EEEEEE" style="stroke:#000000;stroke-width:1.5;"/><rect fill="none" height="175.1641" style="stroke:#000000;stroke-width:1.5;" width="786.5" x="731.5" y="163.1152"/><text fill="#000000" font-family="sans-serif" font-size="13" font-weight="bold" lengthAdjust="spacing" textLength="28" x="746.5" y="178.1436">loop</text><text fill="#000000" font-family="sans-serif" font-size="11" font-weight="bold" lengthAdjust="spacing" textLength="306" x="819.5" y="176.9854">[for each available collaborator in tempCollaboratorList]</text><polygon fill="#181818" points="1274,201.6973,1284,205.6973,1274,209.6973,1278,205.6973" style="stroke:#181818;stroke-width:1.0;"/><line style="stroke:#181818;stroke-width:1.0;" x1="837" x2="1280" y1="205.6973" y2="205.6973"/><text fill="#000000" font-family="sans-serif" font-size="13" font-weight="bold" lengthAdjust="spacing" textLength="25" x="844" y="200.4346">21.2</text><text fill="#000000" font-family="sans-serif" font-size="13" lengthAdjust="spacing" textLength="401" x="873" y="200.4346">res = teamDefinitionCriteria(selectedSkillsList, minCollab, maxCollab)</text><path d="M741.5,250.6973 L806.5,250.6973 L806.5,259.9883 L796.5,269.9883 L741.5,269.9883 L741.5,250.6973 " fill="#EEEEEE" style="stroke:#000000;stroke-width:1.5;"/><rect fill="none" height="80.582" style="stroke:#000000;stroke-width:1.5;" width="766.5" x="741.5" y="250.6973"/><text fill="#000000" font-family="sans-serif" font-size="13" font-weight="bold" lengthAdjust="spacing" textLength="20" x="756.5" y="265.7256">opt</text><text fill="#000000" font-family="sans-serif" font-size="11" font-weight="bold" lengthAdjust="spacing" textLength="72" x="821.5" y="264.5674">[res == false]</text><polygon fill="#181818" points="1406.5,289.2793,1416.5,293.2793,1406.5,297.2793,1410.5,293.2793" style="stroke:#181818;stroke-width:1.0;"/><line style="stroke:#181818;stroke-width:1.0;" x1="837" x2="1412.5" y1="293.2793" y2="293.2793"/><text fill="#000000" font-family="sans-serif" font-size="13" font-weight="bold" lengthAdjust="spacing" textLength="25" x="844" y="288.0166">21.3</text><text fill="#000000" font-family="sans-serif" font-size="13" lengthAdjust="spacing" textLength="116" x="873" y="288.0166">remove(collaborator)</text><polygon fill="#181818" points="464,364.5703,454,368.5703,464,372.5703,460,368.5703" style="stroke:#181818;stroke-width:1.0;"/><line style="stroke:#181818;stroke-width:1.0;stroke-dasharray:2.0,2.0;" x1="458" x2="831" y1="368.5703" y2="368.5703"/><text fill="#000000" font-family="sans-serif" font-size="13" font-weight="bold" lengthAdjust="spacing" textLength="25" x="470" y="363.3076">21.4</text><text fill="#000000" font-family="sans-serif" font-size="13" lengthAdjust="spacing" textLength="119" x="499" y="363.3076">tempCollaboratorList</text><polygon fill="#181818" points="11,402.8613,1,406.8613,11,410.8613,7,406.8613" style="stroke:#181818;stroke-width:1.0;"/><line style="stroke:#181818;stroke-width:1.0;stroke-dasharray:2.0,2.0;" x1="5" x2="442" y1="406.8613" y2="406.8613"/><text fill="#000000" font-family="sans-serif" font-size="13" font-weight="bold" lengthAdjust="spacing" textLength="14" x="17" y="401.5986">22</text><text fill="#000000" font-family="sans-serif" font-size="13" lengthAdjust="spacing" textLength="126" x="35" y="401.5986">tempCollaboratorsList</text><!--SRC=[hPIzJWCn383tF8N50aWKgOmLi1J1qW418ujxvrwj9l4fIGkyFSaTXPn8HIbukUZy4_kpOxzYsw930qQiL4idXY2uDId_gMcnMc53Z-5D4pYg0jf6vmP-YRMyi6rWWTgJKhWEOjTcJWuknaeTBxacM8Y4kRogw1EuuXPjWAF97Lbo6EY9q4p51YTQapi2z31zUfYfeNaLjJYNw23kWLhn70zlasSxBIhwC4NLxhZFTfAxP366Fe5CcnlEs8UOIVfSvl-lkmWbQwKKH1bTTwN213pfY3StyxVY4fgJNaNruugrzidx30n_r1sF-DeVJxkGMy4gy2RIxLaED7cBpiS3NUDatSAsCv3kXtid4HrgDR1CqkMUQYXoZbKrMOiFhACaNxML6_nZW2HQf8sJwO2mMW9ka6EeEERvG03RSllskM07bKzUaOyZ3rVn1ZGtj63BWSLE7GToZF_8gy1iFqOr7UGcRUXBkzgkXR_nAhMWesTaGoTvmtx9elmqVqdcy21awyHgV-Cqit-3-RLn3fhhRmFnyzjBUNThvPicNqGNlUFbQBGhl-u5l0C0]--></g></svg>