<?xml version="1.0" encoding="us-ascii" standalone="no"?><svg xmlns="http://www.w3.org/2000/svg" xmlns:xlink="http://www.w3.org/1999/xlink" contentStyleType="text/css" height="1254.4px" preserveAspectRatio="none" style="width:999px;height:1254px;background:#FFFFFF;" version="1.1" viewBox="0 0 999 1254" width="999.2px" zoomAndPan="magnify"><defs/><g><rect fill="#FFFFFF" height="1099.0281" style="stroke:#181818;stroke-width:0.8000000000000002;" width="8" x="84.8" y="74.8969"/><rect fill="#FFFFFF" height="59.9297" style="stroke:#181818;stroke-width:0.8000000000000002;" width="8" x="320.8" y="93.5297"/><rect fill="#FFFFFF" height="222.3281" style="stroke:#181818;stroke-width:0.8000000000000002;" width="8" x="320.8" y="178.4922"/><rect fill="#FFFFFF" height="125.4359" style="stroke:#181818;stroke-width:0.8000000000000002;" width="8" x="320.8" y="425.8531"/><rect fill="#FFFFFF" height="446.1016" style="stroke:#181818;stroke-width:0.8000000000000002;" width="8" x="320.8" y="576.3219"/><rect fill="#FFFFFF" height="126.4688" style="stroke:#181818;stroke-width:0.8000000000000002;" width="8" x="320.8" y="1047.4563"/><rect fill="#FFFFFF" height="151.2297" style="stroke:#181818;stroke-width:0.8000000000000002;" width="8" x="572" y="203.525"/><rect fill="#FFFFFF" height="24" style="stroke:#181818;stroke-width:0.8000000000000002;" width="8" x="572" y="450.8859"/><rect fill="#FFFFFF" height="390.4359" style="stroke:#181818;stroke-width:0.8000000000000002;" width="8" x="572" y="606.9547"/><rect fill="#FFFFFF" height="83.8984" style="stroke:#181818;stroke-width:0.8000000000000002;" width="8" x="576" y="638.3875"/><rect fill="#FFFFFF" height="85.2031" style="stroke:#181818;stroke-width:0.8000000000000002;" width="8" x="576" y="759.3188"/><rect fill="#FFFFFF" height="85.2031" style="stroke:#181818;stroke-width:0.8000000000000002;" width="8" x="576" y="881.5547"/><rect fill="#FFFFFF" height="76.4031" style="stroke:#181818;stroke-width:0.8000000000000002;" width="8" x="572" y="1072.4891"/><rect fill="#FFFFFF" height="25.0328" style="stroke:#181818;stroke-width:0.8000000000000002;" width="8" x="823.2" y="279.9281"/><rect fill="#FFFFFF" height="25.0328" style="stroke:#181818;stroke-width:0.8000000000000002;" width="8" x="823.2" y="667.4203"/><rect fill="none" height="215.9672" style="stroke:#000000;stroke-width:1.2000000000000002;" width="646.4" x="8" y="366.7547"/><line style="stroke:#181818;stroke-width:0.4000000000000001;stroke-dasharray:5.0,5.0;" x1="88.8" x2="88.8" y1="66.8969" y2="1188.325"/><line style="stroke:#181818;stroke-width:0.4000000000000001;stroke-dasharray:5.0,5.0;" x1="324.8" x2="324.8" y1="66.8969" y2="1188.325"/><line style="stroke:#181818;stroke-width:0.4000000000000001;stroke-dasharray:5.0,5.0;" x1="576" x2="576" y1="125.3781" y2="1188.325"/><line style="stroke:#181818;stroke-width:0.4000000000000001;stroke-dasharray:5.0,5.0;" x1="826.8" x2="826.8" y1="66.8969" y2="1188.325"/><line style="stroke:#181818;stroke-width:0.4000000000000001;stroke-dasharray:5.0,5.0;" x1="944" x2="944" y1="319.225" y2="1188.325"/><text fill="#000000" font-family="sans-serif" font-size="11.2" lengthAdjust="spacing" textLength="140.8" x="16" y="64.0859">Human Resources Manager</text><ellipse cx="88.8" cy="10.8" fill="#E3E3E3" rx="6.4" ry="6.4" style="stroke:#181818;stroke-width:0.4000000000000001;"/><path d="M88.8,17.2 L88.8,38.8 M78.4,23.6 L99.2,23.6 M88.8,38.8 L78.4,50.8 M88.8,38.8 L99.2,50.8 " fill="none" style="stroke:#181818;stroke-width:0.4000000000000001;"/><text fill="#000000" font-family="sans-serif" font-size="11.2" lengthAdjust="spacing" textLength="140.8" x="16" y="1199.6109">Human Resources Manager</text><ellipse cx="88.8" cy="1209.2219" fill="#E3E3E3" rx="6.4" ry="6.4" style="stroke:#181818;stroke-width:0.4000000000000001;"/><path d="M88.8,1215.6219 L88.8,1237.2219 M78.4,1222.0219 L99.2,1222.0219 M88.8,1237.2219 L78.4,1249.2219 M88.8,1237.2219 L99.2,1249.2219 " fill="none" style="stroke:#181818;stroke-width:0.4000000000000001;"/><rect fill="#E3E3E3" height="26.0969" rx="2" ry="2" style="stroke:#181818;stroke-width:0.4000000000000001;" width="100.8" x="274.4" y="40"/><text fill="#000000" font-family="sans-serif" font-size="11.2" lengthAdjust="spacing" textLength="89.6" x="280" y="57.6859">:GenerateTeamUI</text><rect fill="#E3E3E3" height="26.0969" rx="2" ry="2" style="stroke:#181818;stroke-width:0.4000000000000001;" width="100.8" x="274.4" y="1187.525"/><text fill="#000000" font-family="sans-serif" font-size="11.2" lengthAdjust="spacing" textLength="89.6" x="280" y="1205.2109">:GenerateTeamUI</text><rect fill="#E3E3E3" height="26.0969" rx="2" ry="2" style="stroke:#181818;stroke-width:0.4000000000000001;" width="140.8" x="505.6" y="1187.525"/><text fill="#000000" font-family="sans-serif" font-size="11.2" lengthAdjust="spacing" textLength="129.6" x="511.2" y="1205.2109">:GenerateTeamController</text><rect fill="#E3E3E3" height="40.9938" rx="2" ry="2" style="stroke:#181818;stroke-width:0.4000000000000001;" width="87.2" x="783.6" y="25.1031"/><text fill="#000000" font-family="sans-serif" font-size="11.2" lengthAdjust="spacing" textLength="76" x="789.2" y="42.7891">skillRepository:</text><text fill="#000000" font-family="sans-serif" font-size="11.2" lengthAdjust="spacing" textLength="74.4" x="790" y="57.6859">SkillRepository</text><rect fill="#E3E3E3" height="40.9938" rx="2" ry="2" style="stroke:#181818;stroke-width:0.4000000000000001;" width="87.2" x="783.6" y="1187.525"/><text fill="#000000" font-family="sans-serif" font-size="11.2" lengthAdjust="spacing" textLength="76" x="789.2" y="1205.2109">skillRepository:</text><text fill="#000000" font-family="sans-serif" font-size="11.2" lengthAdjust="spacing" textLength="74.4" x="790" y="1220.1078">SkillRepository</text><rect fill="#E3E3E3" height="40.9938" rx="2" ry="2" style="stroke:#181818;stroke-width:0.4000000000000001;" width="100" x="894.4" y="1187.525"/><text fill="#000000" font-family="sans-serif" font-size="11.2" lengthAdjust="spacing" textLength="88.8" x="900" y="1205.2109">selectedSkillsList:</text><text fill="#000000" font-family="sans-serif" font-size="11.2" lengthAdjust="spacing" textLength="50.4" x="919.2" y="1220.1078">List&lt;Skill&gt;</text><rect fill="#FFFFFF" height="1099.0281" style="stroke:#181818;stroke-width:0.8000000000000002;" width="8" x="84.8" y="74.8969"/><rect fill="#FFFFFF" height="59.9297" style="stroke:#181818;stroke-width:0.8000000000000002;" width="8" x="320.8" y="93.5297"/><rect fill="#FFFFFF" height="222.3281" style="stroke:#181818;stroke-width:0.8000000000000002;" width="8" x="320.8" y="178.4922"/><rect fill="#FFFFFF" height="125.4359" style="stroke:#181818;stroke-width:0.8000000000000002;" width="8" x="320.8" y="425.8531"/><rect fill="#FFFFFF" height="446.1016" style="stroke:#181818;stroke-width:0.8000000000000002;" width="8" x="320.8" y="576.3219"/><rect fill="#FFFFFF" height="126.4688" style="stroke:#181818;stroke-width:0.8000000000000002;" width="8" x="320.8" y="1047.4563"/><rect fill="#FFFFFF" height="151.2297" style="stroke:#181818;stroke-width:0.8000000000000002;" width="8" x="572" y="203.525"/><rect fill="#FFFFFF" height="24" style="stroke:#181818;stroke-width:0.8000000000000002;" width="8" x="572" y="450.8859"/><rect fill="#FFFFFF" height="390.4359" style="stroke:#181818;stroke-width:0.8000000000000002;" width="8" x="572" y="606.9547"/><rect fill="#FFFFFF" height="83.8984" style="stroke:#181818;stroke-width:0.8000000000000002;" width="8" x="576" y="638.3875"/><rect fill="#FFFFFF" height="85.2031" style="stroke:#181818;stroke-width:0.8000000000000002;" width="8" x="576" y="759.3188"/><rect fill="#FFFFFF" height="85.2031" style="stroke:#181818;stroke-width:0.8000000000000002;" width="8" x="576" y="881.5547"/><rect fill="#FFFFFF" height="76.4031" style="stroke:#181818;stroke-width:0.8000000000000002;" width="8" x="572" y="1072.4891"/><rect fill="#FFFFFF" height="25.0328" style="stroke:#181818;stroke-width:0.8000000000000002;" width="8" x="823.2" y="279.9281"/><rect fill="#FFFFFF" height="25.0328" style="stroke:#181818;stroke-width:0.8000000000000002;" width="8" x="823.2" y="667.4203"/><polygon fill="#181818" points="311.2,90.3297,319.2,93.5297,311.2,96.7297,314.4,93.5297" style="stroke:#181818;stroke-width:0.8000000000000002;"/><line style="stroke:#181818;stroke-width:0.8000000000000002;" x1="92.8" x2="316" y1="93.5297" y2="93.5297"/><text fill="#000000" font-family="sans-serif" font-size="10.4" font-weight="bold" lengthAdjust="spacing" textLength="5.6" x="98.4" y="89.3195">1</text><text fill="#000000" font-family="sans-serif" font-size="10.4" lengthAdjust="spacing" textLength="114.4" x="107.2" y="89.3195">asks for a team proposal</text><polygon fill="#181818" points="496,115.3625,504,118.5625,496,121.7625,499.2,118.5625" style="stroke:#181818;stroke-width:0.8000000000000002;"/><line style="stroke:#181818;stroke-width:0.8000000000000002;" x1="328.8" x2="500.8" y1="118.5625" y2="118.5625"/><text fill="#000000" font-family="sans-serif" font-size="10.4" font-weight="bold" lengthAdjust="spacing" textLength="5.6" x="334.4" y="114.3523">2</text><text fill="#000000" font-family="sans-serif" font-size="10.4" lengthAdjust="spacing" textLength="28.8" x="343.2" y="114.3523">create</text><rect fill="#E3E3E3" height="26.0969" rx="2" ry="2" style="stroke:#181818;stroke-width:0.4000000000000001;" width="140.8" x="505.6" y="99.9297"/><text fill="#000000" font-family="sans-serif" font-size="11.2" lengthAdjust="spacing" textLength="129.6" x="511.2" y="117.6156">:GenerateTeamController</text><polygon fill="#181818" points="101.6,150.2594,93.6,153.4594,101.6,156.6594,98.4,153.4594" style="stroke:#181818;stroke-width:0.8000000000000002;"/><line style="stroke:#181818;stroke-width:0.8000000000000002;stroke-dasharray:2.0,2.0;" x1="96.8" x2="324" y1="153.4594" y2="153.4594"/><text fill="#000000" font-family="sans-serif" font-size="10.4" font-weight="bold" lengthAdjust="spacing" textLength="5.6" x="106.4" y="149.2492">3</text><text fill="#000000" font-family="sans-serif" font-size="10.4" lengthAdjust="spacing" textLength="200" x="115.2" y="149.2492">asks for minimum and maximum team size</text><polygon fill="#181818" points="311.2,175.2922,319.2,178.4922,311.2,181.6922,314.4,178.4922" style="stroke:#181818;stroke-width:0.8000000000000002;"/><line style="stroke:#181818;stroke-width:0.8000000000000002;" x1="92.8" x2="316" y1="178.4922" y2="178.4922"/><text fill="#000000" font-family="sans-serif" font-size="10.4" font-weight="bold" lengthAdjust="spacing" textLength="5.6" x="98.4" y="174.282">4</text><text fill="#000000" font-family="sans-serif" font-size="10.4" lengthAdjust="spacing" textLength="192" x="107.2" y="174.282">enters minimum and maximum team size</text><polygon fill="#181818" points="562.4,200.325,570.4,203.525,562.4,206.725,565.6,203.525" style="stroke:#181818;stroke-width:0.8000000000000002;"/><line style="stroke:#181818;stroke-width:0.8000000000000002;" x1="328.8" x2="567.2" y1="203.525" y2="203.525"/><text fill="#000000" font-family="sans-serif" font-size="10.4" font-weight="bold" lengthAdjust="spacing" textLength="5.6" x="334.4" y="199.3148">5</text><text fill="#000000" font-family="sans-serif" font-size="10.4" lengthAdjust="spacing" textLength="46.4" x="343.2" y="199.3148">getSkills()</text><rect fill="none" height="47.3703" style="stroke:#000000;stroke-width:1.2000000000000002;" width="145.6" x="503.2" y="209.925"/><path d="M503.2,209.925 L552.8,209.925 L552.8,217.125 L544.8,225.125 L503.2,225.125 L503.2,209.925 " fill="#EEEEEE" style="stroke:#000000;stroke-width:1.6000000000000003;"/><text fill="#000000" font-family="sans-serif" font-size="10.4" font-weight="bold" lengthAdjust="spacing" textLength="13.6" x="513.6" y="222.7477">ref</text><text fill="#000000" font-family="sans-serif" font-size="9.6" lengthAdjust="spacing" textLength="54.4" x="548.8" y="238.6844">Get Skill List</text><text fill="#000000" font-family="sans-serif" font-size="9.6" lengthAdjust="spacing" textLength="2.4" x="574.8" y="251.4531">&#160;</text><polygon fill="#181818" points="813.6,276.7281,821.6,279.9281,813.6,283.1281,816.8,279.9281" style="stroke:#181818;stroke-width:0.8000000000000002;"/><line style="stroke:#181818;stroke-width:0.8000000000000002;" x1="580" x2="818.4" y1="279.9281" y2="279.9281"/><text fill="#000000" font-family="sans-serif" font-size="10.4" font-weight="bold" lengthAdjust="spacing" textLength="5.6" x="585.6" y="275.718">6</text><text fill="#000000" font-family="sans-serif" font-size="10.4" lengthAdjust="spacing" textLength="118.4" x="594.4" y="275.718">createSelectedSkillsList()</text><polygon fill="#181818" points="884.8,301.7609,892.8,304.9609,884.8,308.1609,888,304.9609" style="stroke:#181818;stroke-width:0.8000000000000002;"/><line style="stroke:#181818;stroke-width:0.8000000000000002;" x1="827.2" x2="889.6" y1="304.9609" y2="304.9609"/><text fill="#000000" font-family="sans-serif" font-size="10.4" font-weight="bold" lengthAdjust="spacing" textLength="5.6" x="832.8" y="300.7508">7</text><text fill="#000000" font-family="sans-serif" font-size="10.4" lengthAdjust="spacing" textLength="35.2" x="841.6" y="300.7508">create()</text><rect fill="#E3E3E3" height="40.9938" rx="2" ry="2" style="stroke:#181818;stroke-width:0.4000000000000001;" width="100" x="894.4" y="286.3281"/><text fill="#000000" font-family="sans-serif" font-size="11.2" lengthAdjust="spacing" textLength="88.8" x="900" y="304.0141">selectedSkillsList:</text><text fill="#000000" font-family="sans-serif" font-size="11.2" lengthAdjust="spacing" textLength="50.4" x="919.2" y="318.9109">List&lt;Skill&gt;</text><polygon fill="#181818" points="337.6,351.5547,329.6,354.7547,337.6,357.9547,334.4,354.7547" style="stroke:#181818;stroke-width:0.8000000000000002;"/><line style="stroke:#181818;stroke-width:0.8000000000000002;stroke-dasharray:2.0,2.0;" x1="332.8" x2="575.2" y1="354.7547" y2="354.7547"/><text fill="#000000" font-family="sans-serif" font-size="10.4" font-weight="bold" lengthAdjust="spacing" textLength="5.6" x="342.4" y="350.5445">8</text><text fill="#000000" font-family="sans-serif" font-size="10.4" lengthAdjust="spacing" textLength="35.2" x="351.2" y="350.5445">skillList</text><path d="M8,366.7547 L66.4,366.7547 L66.4,374.1875 L58.4,382.1875 L8,382.1875 L8,366.7547 " fill="#EEEEEE" style="stroke:#000000;stroke-width:1.2000000000000002;"/><rect fill="none" height="215.9672" style="stroke:#000000;stroke-width:1.2000000000000002;" width="646.4" x="8" y="366.7547"/><text fill="#000000" font-family="sans-serif" font-size="10.4" font-weight="bold" lengthAdjust="spacing" textLength="22.4" x="20" y="378.7773">loop</text><text fill="#000000" font-family="sans-serif" font-size="8.8" font-weight="bold" lengthAdjust="spacing" textLength="76.8" x="78.4" y="377.8508">[while continues]</text><polygon fill="#181818" points="101.6,397.6203,93.6,400.8203,101.6,404.0203,98.4,400.8203" style="stroke:#181818;stroke-width:0.8000000000000002;"/><line style="stroke:#181818;stroke-width:0.8000000000000002;stroke-dasharray:2.0,2.0;" x1="96.8" x2="324" y1="400.8203" y2="400.8203"/><text fill="#000000" font-family="sans-serif" font-size="10.4" font-weight="bold" lengthAdjust="spacing" textLength="5.6" x="106.4" y="396.6102">9</text><text fill="#000000" font-family="sans-serif" font-size="10.4" lengthAdjust="spacing" textLength="176.8" x="115.2" y="396.6102">shows skill list and asks to select one</text><polygon fill="#181818" points="311.2,422.6531,319.2,425.8531,311.2,429.0531,314.4,425.8531" style="stroke:#181818;stroke-width:0.8000000000000002;"/><line style="stroke:#181818;stroke-width:0.8000000000000002;" x1="92.8" x2="316" y1="425.8531" y2="425.8531"/><text fill="#000000" font-family="sans-serif" font-size="10.4" font-weight="bold" lengthAdjust="spacing" textLength="11.2" x="98.4" y="421.643">10</text><text fill="#000000" font-family="sans-serif" font-size="10.4" lengthAdjust="spacing" textLength="64" x="112.8" y="421.643">selects a skill</text><polygon fill="#181818" points="562.4,447.6859,570.4,450.8859,562.4,454.0859,565.6,450.8859" style="stroke:#181818;stroke-width:0.8000000000000002;"/><line style="stroke:#181818;stroke-width:0.8000000000000002;" x1="328.8" x2="567.2" y1="450.8859" y2="450.8859"/><text fill="#000000" font-family="sans-serif" font-size="10.4" font-weight="bold" lengthAdjust="spacing" textLength="11.2" x="334.4" y="446.6758">11</text><text fill="#000000" font-family="sans-serif" font-size="10.4" lengthAdjust="spacing" textLength="156.8" x="348.8" y="446.6758">addSelectedSkillName(skillName)</text><rect fill="none" height="47.3703" style="stroke:#000000;stroke-width:1.2000000000000002;" width="145.6" x="503.2" y="481.2859"/><path d="M503.2,481.2859 L552.8,481.2859 L552.8,488.4859 L544.8,496.4859 L503.2,496.4859 L503.2,481.2859 " fill="#EEEEEE" style="stroke:#000000;stroke-width:1.6000000000000003;"/><text fill="#000000" font-family="sans-serif" font-size="10.4" font-weight="bold" lengthAdjust="spacing" textLength="13.6" x="513.6" y="494.1086">ref</text><text fill="#000000" font-family="sans-serif" font-size="9.6" lengthAdjust="spacing" textLength="115.2" x="518.4" y="510.0453">Create Selected Skills List</text><text fill="#000000" font-family="sans-serif" font-size="9.6" lengthAdjust="spacing" textLength="2.4" x="574.8" y="522.8141">&#160;</text><polygon fill="#181818" points="101.6,548.0891,93.6,551.2891,101.6,554.4891,98.4,551.2891" style="stroke:#181818;stroke-width:0.8000000000000002;"/><line style="stroke:#181818;stroke-width:0.8000000000000002;stroke-dasharray:2.0,2.0;" x1="96.8" x2="324" y1="551.2891" y2="551.2891"/><text fill="#000000" font-family="sans-serif" font-size="10.4" font-weight="bold" lengthAdjust="spacing" textLength="11.2" x="106.4" y="547.0789">12</text><text fill="#000000" font-family="sans-serif" font-size="10.4" lengthAdjust="spacing" textLength="76.8" x="120.8" y="547.0789">asks to continue</text><polygon fill="#181818" points="311.2,573.1219,319.2,576.3219,311.2,579.5219,314.4,576.3219" style="stroke:#181818;stroke-width:0.8000000000000002;"/><line style="stroke:#181818;stroke-width:0.8000000000000002;" x1="92.8" x2="316" y1="576.3219" y2="576.3219"/><text fill="#000000" font-family="sans-serif" font-size="10.4" font-weight="bold" lengthAdjust="spacing" textLength="11.2" x="98.4" y="572.1117">13</text><text fill="#000000" font-family="sans-serif" font-size="10.4" lengthAdjust="spacing" textLength="144.8" x="112.8" y="572.1117">answers positively or negatively</text><polygon fill="#181818" points="562.4,603.7547,570.4,606.9547,562.4,610.1547,565.6,606.9547" style="stroke:#181818;stroke-width:0.8000000000000002;"/><line style="stroke:#181818;stroke-width:0.8000000000000002;" x1="328.8" x2="567.2" y1="606.9547" y2="606.9547"/><text fill="#000000" font-family="sans-serif" font-size="10.4" font-weight="bold" lengthAdjust="spacing" textLength="11.2" x="334.4" y="602.7445">14</text><text fill="#000000" font-family="sans-serif" font-size="10.4" lengthAdjust="spacing" textLength="213.6" x="348.8" y="602.7445">generateTeamProposal(minCollab, maxCollab)</text><line style="stroke:#181818;stroke-width:0.8000000000000002;" x1="580" x2="617.6" y1="627.9875" y2="627.9875"/><line style="stroke:#181818;stroke-width:0.8000000000000002;" x1="617.6" x2="617.6" y1="627.9875" y2="638.3875"/><line style="stroke:#181818;stroke-width:0.8000000000000002;" x1="584.8" x2="617.6" y1="638.3875" y2="638.3875"/><polygon fill="#181818" points="592.8,635.1875,584.8,638.3875,592.8,641.5875,589.6,638.3875" style="stroke:#181818;stroke-width:0.8000000000000002;"/><text fill="#000000" font-family="sans-serif" font-size="10.4" font-weight="bold" lengthAdjust="spacing" textLength="11.2" x="589.6" y="623.7773">15</text><text fill="#000000" font-family="sans-serif" font-size="10.4" lengthAdjust="spacing" textLength="104" x="604" y="623.7773">getSelectedSkillsList()</text><polygon fill="#181818" points="813.6,664.2203,821.6,667.4203,813.6,670.6203,816.8,667.4203" style="stroke:#181818;stroke-width:0.8000000000000002;"/><line style="stroke:#181818;stroke-width:0.8000000000000002;" x1="584" x2="818.4" y1="667.4203" y2="667.4203"/><text fill="#000000" font-family="sans-serif" font-size="10.4" font-weight="bold" lengthAdjust="spacing" textLength="11.2" x="589.6" y="663.2102">16</text><text fill="#000000" font-family="sans-serif" font-size="10.4" lengthAdjust="spacing" textLength="104" x="604" y="663.2102">getSelectedSkillsList()</text><polygon fill="#181818" points="592.8,689.2531,584.8,692.4531,592.8,695.6531,589.6,692.4531" style="stroke:#181818;stroke-width:0.8000000000000002;"/><line style="stroke:#181818;stroke-width:0.8000000000000002;stroke-dasharray:2.0,2.0;" x1="588" x2="826.4" y1="692.4531" y2="692.4531"/><text fill="#000000" font-family="sans-serif" font-size="10.4" font-weight="bold" lengthAdjust="spacing" textLength="11.2" x="597.6" y="688.243">17</text><text fill="#000000" font-family="sans-serif" font-size="10.4" lengthAdjust="spacing" textLength="81.6" x="612" y="688.243">selectedSkillsList</text><line style="stroke:#181818;stroke-width:0.8000000000000002;stroke-dasharray:2.0,2.0;" x1="584" x2="617.6" y1="721.4859" y2="721.4859"/><line style="stroke:#181818;stroke-width:0.8000000000000002;stroke-dasharray:2.0,2.0;" x1="617.6" x2="617.6" y1="721.4859" y2="731.8859"/><line style="stroke:#181818;stroke-width:0.8000000000000002;stroke-dasharray:2.0,2.0;" x1="580" x2="617.6" y1="731.8859" y2="731.8859"/><polygon fill="#181818" points="588,728.6859,580,731.8859,588,735.0859,584.8,731.8859" style="stroke:#181818;stroke-width:0.8000000000000002;"/><text fill="#000000" font-family="sans-serif" font-size="10.4" font-weight="bold" lengthAdjust="spacing" textLength="11.2" x="589.6" y="717.2758">18</text><text fill="#000000" font-family="sans-serif" font-size="10.4" lengthAdjust="spacing" textLength="81.6" x="604" y="717.2758">selectedSkillsList</text><line style="stroke:#181818;stroke-width:0.8000000000000002;" x1="580" x2="617.6" y1="748.9188" y2="748.9188"/><line style="stroke:#181818;stroke-width:0.8000000000000002;" x1="617.6" x2="617.6" y1="748.9188" y2="759.3188"/><line style="stroke:#181818;stroke-width:0.8000000000000002;" x1="584.8" x2="617.6" y1="759.3188" y2="759.3188"/><polygon fill="#181818" points="592.8,756.1188,584.8,759.3188,592.8,762.5188,589.6,759.3188" style="stroke:#181818;stroke-width:0.8000000000000002;"/><text fill="#000000" font-family="sans-serif" font-size="10.4" font-weight="bold" lengthAdjust="spacing" textLength="11.2" x="589.6" y="744.7086">19</text><text fill="#000000" font-family="sans-serif" font-size="10.4" lengthAdjust="spacing" textLength="153.6" x="604" y="744.7086">createAvailableCollaboratorsList()</text><rect fill="none" height="47.3703" style="stroke:#000000;stroke-width:1.2000000000000002;" width="158.4" x="503.2" y="769.7188"/><path d="M503.2,769.7188 L552.8,769.7188 L552.8,776.9188 L544.8,784.9188 L503.2,784.9188 L503.2,769.7188 " fill="#EEEEEE" style="stroke:#000000;stroke-width:1.6000000000000003;"/><text fill="#000000" font-family="sans-serif" font-size="10.4" font-weight="bold" lengthAdjust="spacing" textLength="13.6" x="513.6" y="782.5414">ref</text><text fill="#000000" font-family="sans-serif" font-size="9.6" lengthAdjust="spacing" textLength="152" x="506.4" y="798.4781">Create Available Collaborators List</text><text fill="#000000" font-family="sans-serif" font-size="9.6" lengthAdjust="spacing" textLength="2.4" x="581.2" y="811.2469">&#160;</text><line style="stroke:#181818;stroke-width:0.8000000000000002;stroke-dasharray:2.0,2.0;" x1="584" x2="617.6" y1="843.7219" y2="843.7219"/><line style="stroke:#181818;stroke-width:0.8000000000000002;stroke-dasharray:2.0,2.0;" x1="617.6" x2="617.6" y1="843.7219" y2="854.1219"/><line style="stroke:#181818;stroke-width:0.8000000000000002;stroke-dasharray:2.0,2.0;" x1="580" x2="617.6" y1="854.1219" y2="854.1219"/><polygon fill="#181818" points="588,850.9219,580,854.1219,588,857.3219,584.8,854.1219" style="stroke:#181818;stroke-width:0.8000000000000002;"/><text fill="#000000" font-family="sans-serif" font-size="10.4" font-weight="bold" lengthAdjust="spacing" textLength="11.2" x="589.6" y="839.5117">20</text><text fill="#000000" font-family="sans-serif" font-size="10.4" lengthAdjust="spacing" textLength="3.2" x="604" y="839.5117">&#160;</text><line style="stroke:#181818;stroke-width:0.8000000000000002;" x1="580" x2="617.6" y1="871.1547" y2="871.1547"/><line style="stroke:#181818;stroke-width:0.8000000000000002;" x1="617.6" x2="617.6" y1="871.1547" y2="881.5547"/><line style="stroke:#181818;stroke-width:0.8000000000000002;" x1="584.8" x2="617.6" y1="881.5547" y2="881.5547"/><polygon fill="#181818" points="592.8,878.3547,584.8,881.5547,592.8,884.7547,589.6,881.5547" style="stroke:#181818;stroke-width:0.8000000000000002;"/><text fill="#000000" font-family="sans-serif" font-size="10.4" font-weight="bold" lengthAdjust="spacing" textLength="11.2" x="589.6" y="866.9445">21</text><text fill="#000000" font-family="sans-serif" font-size="10.4" lengthAdjust="spacing" textLength="217.6" x="604" y="866.9445">selectCollaboratorsForTeam(selectedSkillsList)</text><rect fill="none" height="47.3703" style="stroke:#000000;stroke-width:1.2000000000000002;" width="145.6" x="503.2" y="891.9547"/><path d="M503.2,891.9547 L552.8,891.9547 L552.8,899.1547 L544.8,907.1547 L503.2,907.1547 L503.2,891.9547 " fill="#EEEEEE" style="stroke:#000000;stroke-width:1.6000000000000003;"/><text fill="#000000" font-family="sans-serif" font-size="10.4" font-weight="bold" lengthAdjust="spacing" textLength="13.6" x="513.6" y="904.7773">ref</text><text fill="#000000" font-family="sans-serif" font-size="9.6" lengthAdjust="spacing" textLength="111.2" x="520.4" y="920.7141">Generate Team Proposal</text><text fill="#000000" font-family="sans-serif" font-size="9.6" lengthAdjust="spacing" textLength="2.4" x="574.8" y="933.4828">&#160;</text><line style="stroke:#181818;stroke-width:0.8000000000000002;stroke-dasharray:2.0,2.0;" x1="584" x2="617.6" y1="965.9578" y2="965.9578"/><line style="stroke:#181818;stroke-width:0.8000000000000002;stroke-dasharray:2.0,2.0;" x1="617.6" x2="617.6" y1="965.9578" y2="976.3578"/><line style="stroke:#181818;stroke-width:0.8000000000000002;stroke-dasharray:2.0,2.0;" x1="580" x2="617.6" y1="976.3578" y2="976.3578"/><polygon fill="#181818" points="588,973.1578,580,976.3578,588,979.5578,584.8,976.3578" style="stroke:#181818;stroke-width:0.8000000000000002;"/><text fill="#000000" font-family="sans-serif" font-size="10.4" font-weight="bold" lengthAdjust="spacing" textLength="11.2" x="589.6" y="961.7477">22</text><text fill="#000000" font-family="sans-serif" font-size="10.4" lengthAdjust="spacing" textLength="95.2" x="604" y="961.7477">tempCollaboratorList</text><polygon fill="#181818" points="337.6,994.1906,329.6,997.3906,337.6,1000.5906,334.4,997.3906" style="stroke:#181818;stroke-width:0.8000000000000002;"/><line style="stroke:#181818;stroke-width:0.8000000000000002;stroke-dasharray:2.0,2.0;" x1="332.8" x2="575.2" y1="997.3906" y2="997.3906"/><text fill="#000000" font-family="sans-serif" font-size="10.4" font-weight="bold" lengthAdjust="spacing" textLength="11.2" x="342.4" y="993.1805">23</text><text fill="#000000" font-family="sans-serif" font-size="10.4" lengthAdjust="spacing" textLength="95.2" x="356.8" y="993.1805">tempCollaboratorList</text><polygon fill="#181818" points="101.6,1019.2234,93.6,1022.4234,101.6,1025.6234,98.4,1022.4234" style="stroke:#181818;stroke-width:0.8000000000000002;"/><line style="stroke:#181818;stroke-width:0.8000000000000002;stroke-dasharray:2.0,2.0;" x1="96.8" x2="324" y1="1022.4234" y2="1022.4234"/><text fill="#000000" font-family="sans-serif" font-size="10.4" font-weight="bold" lengthAdjust="spacing" textLength="11.2" x="106.4" y="1018.2133">24</text><text fill="#000000" font-family="sans-serif" font-size="10.4" lengthAdjust="spacing" textLength="107.2" x="120.8" y="1018.2133">shows a team proposal</text><polygon fill="#181818" points="311.2,1044.2563,319.2,1047.4563,311.2,1050.6563,314.4,1047.4563" style="stroke:#181818;stroke-width:0.8000000000000002;"/><line style="stroke:#181818;stroke-width:0.8000000000000002;" x1="92.8" x2="316" y1="1047.4563" y2="1047.4563"/><text fill="#000000" font-family="sans-serif" font-size="10.4" font-weight="bold" lengthAdjust="spacing" textLength="11.2" x="98.4" y="1043.2461">25</text><text fill="#000000" font-family="sans-serif" font-size="10.4" lengthAdjust="spacing" textLength="154.4" x="112.8" y="1043.2461">accepts or refuses team proposal</text><polygon fill="#181818" points="562.4,1069.2891,570.4,1072.4891,562.4,1075.6891,565.6,1072.4891" style="stroke:#181818;stroke-width:0.8000000000000002;"/><line style="stroke:#181818;stroke-width:0.8000000000000002;" x1="328.8" x2="567.2" y1="1072.4891" y2="1072.4891"/><text fill="#000000" font-family="sans-serif" font-size="10.4" font-weight="bold" lengthAdjust="spacing" textLength="11.2" x="334.4" y="1068.2789">26</text><text fill="#000000" font-family="sans-serif" font-size="10.4" lengthAdjust="spacing" textLength="161.6" x="348.8" y="1068.2789">registerTeam(tempCollaboratorList)</text><rect fill="none" height="47.3703" style="stroke:#000000;stroke-width:1.2000000000000002;" width="145.6" x="503.2" y="1078.8891"/><path d="M503.2,1078.8891 L552.8,1078.8891 L552.8,1086.0891 L544.8,1094.0891 L503.2,1094.0891 L503.2,1078.8891 " fill="#EEEEEE" style="stroke:#000000;stroke-width:1.6000000000000003;"/><text fill="#000000" font-family="sans-serif" font-size="10.4" font-weight="bold" lengthAdjust="spacing" textLength="13.6" x="513.6" y="1091.7117">ref</text><text fill="#000000" font-family="sans-serif" font-size="9.6" lengthAdjust="spacing" textLength="65.6" x="543.2" y="1107.6484">Register Team</text><text fill="#000000" font-family="sans-serif" font-size="9.6" lengthAdjust="spacing" textLength="2.4" x="574.8" y="1120.4172">&#160;</text><polygon fill="#181818" points="337.6,1145.6922,329.6,1148.8922,337.6,1152.0922,334.4,1148.8922" style="stroke:#181818;stroke-width:0.8000000000000002;"/><line style="stroke:#181818;stroke-width:0.8000000000000002;stroke-dasharray:2.0,2.0;" x1="332.8" x2="575.2" y1="1148.8922" y2="1148.8922"/><text fill="#000000" font-family="sans-serif" font-size="10.4" font-weight="bold" lengthAdjust="spacing" textLength="11.2" x="342.4" y="1144.682">27</text><text fill="#000000" font-family="sans-serif" font-size="10.4" lengthAdjust="spacing" textLength="23.2" x="356.8" y="1144.682">team</text><polygon fill="#181818" points="97.6,1170.725,89.6,1173.925,97.6,1177.125,94.4,1173.925" style="stroke:#181818;stroke-width:0.8000000000000002;"/><line style="stroke:#181818;stroke-width:0.8000000000000002;stroke-dasharray:2.0,2.0;" x1="92.8" x2="324" y1="1173.925" y2="1173.925"/><text fill="#000000" font-family="sans-serif" font-size="10.4" font-weight="bold" lengthAdjust="spacing" textLength="11.2" x="102.4" y="1169.7148">28</text><text fill="#000000" font-family="sans-serif" font-size="10.4" lengthAdjust="spacing" textLength="112.8" x="116.8" y="1169.7148">displays operation result</text><!--SRC=[dLRBRjim4BppAnQvr0dQ7p2A08M19W6I8d2IMo-Cj9Q9KAH0KdRSh- -Aj6JgQJcwMAAMiykPsRNiXr05Dpo7N2kTR8tE4PmfaTdcJS6J3vxXYpj818E9uogJSO3TybJlXSfWmwL5ndZfj2hpTpICVTkA566ZjNlNdumdJXkukYzphc2DLfScGGjFN546SmNSmltwYH6k4uaek79mjRn3XOOxV4MUlptueBU7YPYLLiveAO-0gzVrOpkQIfToZOMsWievBF-gb_QAtzTPwq2W92OmzK7sKLX7ADNFJxzown7wGOnL58WTLUeFok1uqGFykALpmP9sVbXYp007XvK0HbCHN9wY6mpYeLciBjfFADM9Rsu8AJ58KVqGYgaIHgboeKHUvi1L2Zd_zFS-kHN_8e0K1rF7rQDoQEnSm1ad8SmCNU1mSTqAChW1lKCJD8RETOSkY0Y1-lWTKbcqkxtO5EFXMgzy8LHGnnGDnoyzgJkbDjXTMxMYkl2KiM-YIDfEaaYUoJId4zMg-PRmD8tWzIcHMXUmtmgQ2Wbrd50bsWchsQtUsv0792Nopl3-S_fuID0AfwmMsopiiDGZ7fADcgbb99wcBQN-y1mNjhwxPiDEc6-vbLS5wXn11Jl7VwDKz_kL-Ae93s5dgEBAxgkMz5uGEvG7e8vNcF7mn2ORiQgqadg4qImQlC_7GRMWvb_H0ERltwlU3xTZv0wsMTJtinlhagQz2FYoZZrLFp3-lzAiJQDU37kMtp14Vksu884a1g4qoQbDpKZFujCD43L10mijt85c61t8P_GTOEVBL0HMMvN-rgPozQ9F-6m7pYEi_dY1AXqyz_xkptBKjOZ3l8YFyXMJrDDZ4clUr0gZl_irCsTo9GaMDEHfND6vIqkVYdsCyrFVO4P5Or1pw3ndPzEuXkiZjjVkj65GgYwnyOOXDeV_IvUG2bj8VY1UYietGYlAPKlfXZYD7lqNvty0]--></g></svg>