<?xml version="1.0" encoding="us-ascii" standalone="no"?><svg xmlns="http://www.w3.org/2000/svg" xmlns:xlink="http://www.w3.org/1999/xlink" contentStyleType="text/css" height="1411.2px" preserveAspectRatio="none" style="width:1244px;height:1411px;background:#FFFFFF;" version="1.1" viewBox="0 0 1244 1411" width="1244.7px" zoomAndPan="magnify"><defs/><g><rect fill="#FFFFFF" height="1236.4066" style="stroke:#181818;stroke-width:0.9;" width="9" x="95.4" y="84.259"/><rect fill="#FFFFFF" height="67.4209" style="stroke:#181818;stroke-width:0.9;" width="9" x="360.9" y="105.2209"/><rect fill="#FFFFFF" height="250.1191" style="stroke:#181818;stroke-width:0.9;" width="9" x="360.9" y="200.8037"/><rect fill="#FFFFFF" height="141.1154" style="stroke:#181818;stroke-width:0.9;" width="9" x="360.9" y="479.0848"/><rect fill="#FFFFFF" height="501.8643" style="stroke:#181818;stroke-width:0.9;" width="9" x="360.9" y="648.3621"/><rect fill="#FFFFFF" height="142.2773" style="stroke:#181818;stroke-width:0.9;" width="9" x="360.9" y="1178.3883"/><rect fill="#FFFFFF" height="170.1334" style="stroke:#181818;stroke-width:0.9;" width="9" x="643.5" y="228.9656"/><rect fill="#FFFFFF" height="27" style="stroke:#181818;stroke-width:0.9;" width="9" x="643.5" y="507.2467"/><rect fill="#FFFFFF" height="439.2404" style="stroke:#181818;stroke-width:0.9;" width="9" x="643.5" y="682.824"/><rect fill="#FFFFFF" height="94.3857" style="stroke:#181818;stroke-width:0.9;" width="9" x="648" y="718.1859"/><rect fill="#FFFFFF" height="95.8535" style="stroke:#181818;stroke-width:0.9;" width="9" x="648" y="854.2336"/><rect fill="#FFFFFF" height="95.8535" style="stroke:#181818;stroke-width:0.9;" width="9" x="648" y="991.749"/><rect fill="#FFFFFF" height="85.9535" style="stroke:#181818;stroke-width:0.9;" width="9" x="643.5" y="1206.5502"/><rect fill="#FFFFFF" height="28.1619" style="stroke:#181818;stroke-width:0.9;" width="9" x="1046.7" y="314.9191"/><rect fill="#FFFFFF" height="28.1619" style="stroke:#181818;stroke-width:0.9;" width="9" x="1046.7" y="750.8479"/><rect fill="none" height="242.9631" style="stroke:#000000;stroke-width:1.35;" width="727.2" x="9" y="412.599"/><line style="stroke:#181818;stroke-width:0.45;stroke-dasharray:5.0,5.0;" x1="99.9" x2="99.9" y1="75.259" y2="1336.8656"/><line style="stroke:#181818;stroke-width:0.45;stroke-dasharray:5.0,5.0;" x1="365.4" x2="365.4" y1="75.259" y2="1336.8656"/><line style="stroke:#181818;stroke-width:0.45;stroke-dasharray:5.0,5.0;" x1="648" x2="648" y1="141.0504" y2="1336.8656"/><line style="stroke:#181818;stroke-width:0.45;stroke-dasharray:5.0,5.0;" x1="1050.75" x2="1050.75" y1="75.259" y2="1336.8656"/><line style="stroke:#181818;stroke-width:0.45;stroke-dasharray:5.0,5.0;" x1="1182.6" x2="1182.6" y1="359.1281" y2="1336.8656"/><text fill="#000000" font-family="sans-serif" font-size="12.6" lengthAdjust="spacing" textLength="158.4" x="18" y="72.0967">Human Resources Manager</text><ellipse cx="99.9" cy="12.15" fill="#E3E3E3" rx="7.2" ry="7.2" style="stroke:#181818;stroke-width:0.45;"/><path d="M99.9,19.35 L99.9,43.65 M88.2,26.55 L111.6,26.55 M99.9,43.65 L88.2,57.15 M99.9,43.65 L111.6,57.15 " fill="none" style="stroke:#181818;stroke-width:0.45;"/><text fill="#000000" font-family="sans-serif" font-size="12.6" lengthAdjust="spacing" textLength="158.4" x="18" y="1349.5623">Human Resources Manager</text><ellipse cx="99.9" cy="1360.3746" fill="#E3E3E3" rx="7.2" ry="7.2" style="stroke:#181818;stroke-width:0.45;"/><path d="M99.9,1367.5746 L99.9,1391.8746 M88.2,1374.7746 L111.6,1374.7746 M99.9,1391.8746 L88.2,1405.3746 M99.9,1391.8746 L111.6,1405.3746 " fill="none" style="stroke:#181818;stroke-width:0.45;"/><rect fill="#E3E3E3" height="29.359" rx="2.25" ry="2.25" style="stroke:#181818;stroke-width:0.45;" width="113.4" x="308.7" y="45"/><text fill="#000000" font-family="sans-serif" font-size="12.6" lengthAdjust="spacing" textLength="100.8" x="315" y="64.8967">:GenerateTeamUI</text><rect fill="#E3E3E3" height="29.359" rx="2.25" ry="2.25" style="stroke:#181818;stroke-width:0.45;" width="113.4" x="308.7" y="1335.9656"/><text fill="#000000" font-family="sans-serif" font-size="12.6" lengthAdjust="spacing" textLength="100.8" x="315" y="1355.8623">:GenerateTeamUI</text><rect fill="#E3E3E3" height="29.359" rx="2.25" ry="2.25" style="stroke:#181818;stroke-width:0.45;" width="158.4" x="568.8" y="1335.9656"/><text fill="#000000" font-family="sans-serif" font-size="12.6" lengthAdjust="spacing" textLength="145.8" x="575.1" y="1355.8623">:GenerateTeamController</text><rect fill="#E3E3E3" height="46.118" rx="2.25" ry="2.25" style="stroke:#181818;stroke-width:0.45;" width="98.1" x="1002.15" y="28.241"/><text fill="#000000" font-family="sans-serif" font-size="12.6" lengthAdjust="spacing" textLength="85.5" x="1008.45" y="48.1377">skillRepository:</text><text fill="#000000" font-family="sans-serif" font-size="12.6" lengthAdjust="spacing" textLength="83.7" x="1009.35" y="64.8967">SkillRepository</text><rect fill="#E3E3E3" height="46.118" rx="2.25" ry="2.25" style="stroke:#181818;stroke-width:0.45;" width="98.1" x="1002.15" y="1335.9656"/><text fill="#000000" font-family="sans-serif" font-size="12.6" lengthAdjust="spacing" textLength="85.5" x="1008.45" y="1355.8623">skillRepository:</text><text fill="#000000" font-family="sans-serif" font-size="12.6" lengthAdjust="spacing" textLength="83.7" x="1009.35" y="1372.6213">SkillRepository</text><rect fill="#E3E3E3" height="46.118" rx="2.25" ry="2.25" style="stroke:#181818;stroke-width:0.45;" width="112.5" x="1126.8" y="1335.9656"/><text fill="#000000" font-family="sans-serif" font-size="12.6" lengthAdjust="spacing" textLength="99.9" x="1133.1" y="1355.8623">selectedSkillsList:</text><text fill="#000000" font-family="sans-serif" font-size="12.6" lengthAdjust="spacing" textLength="56.7" x="1154.7" y="1372.6213">List&lt;Skill&gt;</text><rect fill="#FFFFFF" height="1236.4066" style="stroke:#181818;stroke-width:0.9;" width="9" x="95.4" y="84.259"/><rect fill="#FFFFFF" height="67.4209" style="stroke:#181818;stroke-width:0.9;" width="9" x="360.9" y="105.2209"/><rect fill="#FFFFFF" height="250.1191" style="stroke:#181818;stroke-width:0.9;" width="9" x="360.9" y="200.8037"/><rect fill="#FFFFFF" height="141.1154" style="stroke:#181818;stroke-width:0.9;" width="9" x="360.9" y="479.0848"/><rect fill="#FFFFFF" height="501.8643" style="stroke:#181818;stroke-width:0.9;" width="9" x="360.9" y="648.3621"/><rect fill="#FFFFFF" height="142.2773" style="stroke:#181818;stroke-width:0.9;" width="9" x="360.9" y="1178.3883"/><rect fill="#FFFFFF" height="170.1334" style="stroke:#181818;stroke-width:0.9;" width="9" x="643.5" y="228.9656"/><rect fill="#FFFFFF" height="27" style="stroke:#181818;stroke-width:0.9;" width="9" x="643.5" y="507.2467"/><rect fill="#FFFFFF" height="439.2404" style="stroke:#181818;stroke-width:0.9;" width="9" x="643.5" y="682.824"/><rect fill="#FFFFFF" height="94.3857" style="stroke:#181818;stroke-width:0.9;" width="9" x="648" y="718.1859"/><rect fill="#FFFFFF" height="95.8535" style="stroke:#181818;stroke-width:0.9;" width="9" x="648" y="854.2336"/><rect fill="#FFFFFF" height="95.8535" style="stroke:#181818;stroke-width:0.9;" width="9" x="648" y="991.749"/><rect fill="#FFFFFF" height="85.9535" style="stroke:#181818;stroke-width:0.9;" width="9" x="643.5" y="1206.5502"/><rect fill="#FFFFFF" height="28.1619" style="stroke:#181818;stroke-width:0.9;" width="9" x="1046.7" y="314.9191"/><rect fill="#FFFFFF" height="28.1619" style="stroke:#181818;stroke-width:0.9;" width="9" x="1046.7" y="750.8479"/><polygon fill="#181818" points="350.1,101.6209,359.1,105.2209,350.1,108.8209,353.7,105.2209" style="stroke:#181818;stroke-width:0.9;"/><line style="stroke:#181818;stroke-width:0.9;" x1="104.4" x2="355.5" y1="105.2209" y2="105.2209"/><text fill="#000000" font-family="sans-serif" font-size="11.7" font-weight="bold" lengthAdjust="spacing" textLength="6.3" x="110.7" y="100.4845">1</text><text fill="#000000" font-family="sans-serif" font-size="11.7" lengthAdjust="spacing" textLength="128.7" x="120.6" y="100.4845">asks for a team proposal</text><polygon fill="#181818" points="558,129.7828,567,133.3828,558,136.9828,561.6,133.3828" style="stroke:#181818;stroke-width:0.9;"/><line style="stroke:#181818;stroke-width:0.9;" x1="369.9" x2="563.4" y1="133.3828" y2="133.3828"/><text fill="#000000" font-family="sans-serif" font-size="11.7" font-weight="bold" lengthAdjust="spacing" textLength="6.3" x="376.2" y="128.6464">2</text><text fill="#000000" font-family="sans-serif" font-size="11.7" lengthAdjust="spacing" textLength="32.4" x="386.1" y="128.6464">create</text><rect fill="#E3E3E3" height="29.359" rx="2.25" ry="2.25" style="stroke:#181818;stroke-width:0.45;" width="158.4" x="568.8" y="112.4209"/><text fill="#000000" font-family="sans-serif" font-size="12.6" lengthAdjust="spacing" textLength="145.8" x="575.1" y="132.3176">:GenerateTeamController</text><polygon fill="#181818" points="114.3,169.0418,105.3,172.6418,114.3,176.2418,110.7,172.6418" style="stroke:#181818;stroke-width:0.9;"/><line style="stroke:#181818;stroke-width:0.9;stroke-dasharray:2.0,2.0;" x1="108.9" x2="364.5" y1="172.6418" y2="172.6418"/><text fill="#000000" font-family="sans-serif" font-size="11.7" font-weight="bold" lengthAdjust="spacing" textLength="6.3" x="119.7" y="167.9054">3</text><text fill="#000000" font-family="sans-serif" font-size="11.7" lengthAdjust="spacing" textLength="225" x="129.6" y="167.9054">asks for minimum and maximum team size</text><polygon fill="#181818" points="350.1,197.2037,359.1,200.8037,350.1,204.4037,353.7,200.8037" style="stroke:#181818;stroke-width:0.9;"/><line style="stroke:#181818;stroke-width:0.9;" x1="104.4" x2="355.5" y1="200.8037" y2="200.8037"/><text fill="#000000" font-family="sans-serif" font-size="11.7" font-weight="bold" lengthAdjust="spacing" textLength="6.3" x="110.7" y="196.0673">4</text><text fill="#000000" font-family="sans-serif" font-size="11.7" lengthAdjust="spacing" textLength="216" x="120.6" y="196.0673">enters minimum and maximum team size</text><polygon fill="#181818" points="632.7,225.3656,641.7,228.9656,632.7,232.5656,636.3,228.9656" style="stroke:#181818;stroke-width:0.9;"/><line style="stroke:#181818;stroke-width:0.9;" x1="369.9" x2="638.1" y1="228.9656" y2="228.9656"/><text fill="#000000" font-family="sans-serif" font-size="11.7" font-weight="bold" lengthAdjust="spacing" textLength="6.3" x="376.2" y="224.2292">5</text><text fill="#000000" font-family="sans-serif" font-size="11.7" lengthAdjust="spacing" textLength="52.2" x="386.1" y="224.2292">getSkills()</text><rect fill="none" height="53.2916" style="stroke:#000000;stroke-width:1.35;" width="163.8" x="566.1" y="236.1656"/><path d="M566.1,236.1656 L621.9,236.1656 L621.9,244.2656 L612.9,253.2656 L566.1,253.2656 L566.1,236.1656 " fill="#EEEEEE" style="stroke:#000000;stroke-width:1.8;"/><text fill="#000000" font-family="sans-serif" font-size="11.7" font-weight="bold" lengthAdjust="spacing" textLength="15.3" x="577.8" y="250.5911">ref</text><text fill="#000000" font-family="sans-serif" font-size="10.8" lengthAdjust="spacing" textLength="61.2" x="617.4" y="268.5199">Get Skill List</text><text fill="#000000" font-family="sans-serif" font-size="10.8" lengthAdjust="spacing" textLength="2.7" x="646.65" y="282.8848">&#160;</text><polygon fill="#181818" points="1035.9,311.3191,1044.9,314.9191,1035.9,318.5191,1039.5,314.9191" style="stroke:#181818;stroke-width:0.9;"/><line style="stroke:#181818;stroke-width:0.9;" x1="652.5" x2="1041.3" y1="314.9191" y2="314.9191"/><text fill="#000000" font-family="sans-serif" font-size="11.7" font-weight="bold" lengthAdjust="spacing" textLength="6.3" x="658.8" y="310.1827">6</text><text fill="#000000" font-family="sans-serif" font-size="11.7" lengthAdjust="spacing" textLength="133.2" x="668.7" y="310.1827">createSelectedSkillsList()</text><polygon fill="#181818" points="1116,339.4811,1125,343.0811,1116,346.6811,1119.6,343.0811" style="stroke:#181818;stroke-width:0.9;"/><line style="stroke:#181818;stroke-width:0.9;" x1="1051.2" x2="1121.4" y1="343.0811" y2="343.0811"/><text fill="#000000" font-family="sans-serif" font-size="11.7" font-weight="bold" lengthAdjust="spacing" textLength="6.3" x="1057.5" y="338.3446">7</text><text fill="#000000" font-family="sans-serif" font-size="11.7" lengthAdjust="spacing" textLength="39.6" x="1067.4" y="338.3446">create()</text><rect fill="#E3E3E3" height="46.118" rx="2.25" ry="2.25" style="stroke:#181818;stroke-width:0.45;" width="112.5" x="1126.8" y="322.1191"/><text fill="#000000" font-family="sans-serif" font-size="12.6" lengthAdjust="spacing" textLength="99.9" x="1133.1" y="342.0158">selectedSkillsList:</text><text fill="#000000" font-family="sans-serif" font-size="12.6" lengthAdjust="spacing" textLength="56.7" x="1154.7" y="358.7748">List&lt;Skill&gt;</text><polygon fill="#181818" points="379.8,395.499,370.8,399.099,379.8,402.699,376.2,399.099" style="stroke:#181818;stroke-width:0.9;"/><line style="stroke:#181818;stroke-width:0.9;stroke-dasharray:2.0,2.0;" x1="374.4" x2="647.1" y1="399.099" y2="399.099"/><text fill="#000000" font-family="sans-serif" font-size="11.7" font-weight="bold" lengthAdjust="spacing" textLength="6.3" x="385.2" y="394.3626">8</text><text fill="#000000" font-family="sans-serif" font-size="11.7" lengthAdjust="spacing" textLength="39.6" x="395.1" y="394.3626">skillList</text><path d="M9,412.599 L74.7,412.599 L74.7,420.9609 L65.7,429.9609 L9,429.9609 L9,412.599 " fill="#EEEEEE" style="stroke:#000000;stroke-width:1.35;"/><rect fill="none" height="242.9631" style="stroke:#000000;stroke-width:1.35;" width="727.2" x="9" y="412.599"/><text fill="#000000" font-family="sans-serif" font-size="11.7" font-weight="bold" lengthAdjust="spacing" textLength="25.2" x="22.5" y="426.1245">loop</text><text fill="#000000" font-family="sans-serif" font-size="9.9" font-weight="bold" lengthAdjust="spacing" textLength="86.4" x="88.2" y="425.0821">[while continues]</text><polygon fill="#181818" points="114.3,447.3229,105.3,450.9229,114.3,454.5229,110.7,450.9229" style="stroke:#181818;stroke-width:0.9;"/><line style="stroke:#181818;stroke-width:0.9;stroke-dasharray:2.0,2.0;" x1="108.9" x2="364.5" y1="450.9229" y2="450.9229"/><text fill="#000000" font-family="sans-serif" font-size="11.7" font-weight="bold" lengthAdjust="spacing" textLength="6.3" x="119.7" y="446.1864">9</text><text fill="#000000" font-family="sans-serif" font-size="11.7" lengthAdjust="spacing" textLength="198.9" x="129.6" y="446.1864">shows skill list and asks to select one</text><polygon fill="#181818" points="350.1,475.4848,359.1,479.0848,350.1,482.6848,353.7,479.0848" style="stroke:#181818;stroke-width:0.9;"/><line style="stroke:#181818;stroke-width:0.9;" x1="104.4" x2="355.5" y1="479.0848" y2="479.0848"/><text fill="#000000" font-family="sans-serif" font-size="11.7" font-weight="bold" lengthAdjust="spacing" textLength="12.6" x="110.7" y="474.3483">10</text><text fill="#000000" font-family="sans-serif" font-size="11.7" lengthAdjust="spacing" textLength="72" x="126.9" y="474.3483">selects a skill</text><polygon fill="#181818" points="632.7,503.6467,641.7,507.2467,632.7,510.8467,636.3,507.2467" style="stroke:#181818;stroke-width:0.9;"/><line style="stroke:#181818;stroke-width:0.9;" x1="369.9" x2="638.1" y1="507.2467" y2="507.2467"/><text fill="#000000" font-family="sans-serif" font-size="11.7" font-weight="bold" lengthAdjust="spacing" textLength="12.6" x="376.2" y="502.5103">11</text><text fill="#000000" font-family="sans-serif" font-size="11.7" lengthAdjust="spacing" textLength="176.4" x="392.4" y="502.5103">addSelectedSkillName(skillName)</text><rect fill="none" height="53.2916" style="stroke:#000000;stroke-width:1.35;" width="163.8" x="566.1" y="541.4467"/><path d="M566.1,541.4467 L621.9,541.4467 L621.9,549.5467 L612.9,558.5467 L566.1,558.5467 L566.1,541.4467 " fill="#EEEEEE" style="stroke:#000000;stroke-width:1.8;"/><text fill="#000000" font-family="sans-serif" font-size="11.7" font-weight="bold" lengthAdjust="spacing" textLength="15.3" x="577.8" y="555.8722">ref</text><text fill="#000000" font-family="sans-serif" font-size="10.8" lengthAdjust="spacing" textLength="129.6" x="583.2" y="573.801">Create Selected Skills List</text><text fill="#000000" font-family="sans-serif" font-size="10.8" lengthAdjust="spacing" textLength="2.7" x="646.65" y="588.1658">&#160;</text><polygon fill="#181818" points="114.3,616.6002,105.3,620.2002,114.3,623.8002,110.7,620.2002" style="stroke:#181818;stroke-width:0.9;"/><line style="stroke:#181818;stroke-width:0.9;stroke-dasharray:2.0,2.0;" x1="108.9" x2="364.5" y1="620.2002" y2="620.2002"/><text fill="#000000" font-family="sans-serif" font-size="11.7" font-weight="bold" lengthAdjust="spacing" textLength="12.6" x="119.7" y="615.4638">12</text><text fill="#000000" font-family="sans-serif" font-size="11.7" lengthAdjust="spacing" textLength="86.4" x="135.9" y="615.4638">asks to continue</text><polygon fill="#181818" points="350.1,644.7621,359.1,648.3621,350.1,651.9621,353.7,648.3621" style="stroke:#181818;stroke-width:0.9;"/><line style="stroke:#181818;stroke-width:0.9;" x1="104.4" x2="355.5" y1="648.3621" y2="648.3621"/><text fill="#000000" font-family="sans-serif" font-size="11.7" font-weight="bold" lengthAdjust="spacing" textLength="12.6" x="110.7" y="643.6257">13</text><text fill="#000000" font-family="sans-serif" font-size="11.7" lengthAdjust="spacing" textLength="162.9" x="126.9" y="643.6257">answers positively or negatively</text><polygon fill="#181818" points="632.7,679.224,641.7,682.824,632.7,686.424,636.3,682.824" style="stroke:#181818;stroke-width:0.9;"/><line style="stroke:#181818;stroke-width:0.9;" x1="369.9" x2="638.1" y1="682.824" y2="682.824"/><text fill="#000000" font-family="sans-serif" font-size="11.7" font-weight="bold" lengthAdjust="spacing" textLength="12.6" x="376.2" y="678.0876">14</text><text fill="#000000" font-family="sans-serif" font-size="11.7" lengthAdjust="spacing" textLength="240.3" x="392.4" y="678.0876">generateTeamProposal(minCollab, maxCollab)</text><line style="stroke:#181818;stroke-width:0.9;" x1="652.5" x2="694.8" y1="706.4859" y2="706.4859"/><line style="stroke:#181818;stroke-width:0.9;" x1="694.8" x2="694.8" y1="706.4859" y2="718.1859"/><line style="stroke:#181818;stroke-width:0.9;" x1="657.9" x2="694.8" y1="718.1859" y2="718.1859"/><polygon fill="#181818" points="666.9,714.5859,657.9,718.1859,666.9,721.7859,663.3,718.1859" style="stroke:#181818;stroke-width:0.9;"/><text fill="#000000" font-family="sans-serif" font-size="11.7" font-weight="bold" lengthAdjust="spacing" textLength="12.6" x="663.3" y="701.7495">15</text><text fill="#000000" font-family="sans-serif" font-size="11.7" lengthAdjust="spacing" textLength="117" x="679.5" y="701.7495">getSelectedSkillsList()</text><polygon fill="#181818" points="1035.9,747.2479,1044.9,750.8479,1035.9,754.4479,1039.5,750.8479" style="stroke:#181818;stroke-width:0.9;"/><line style="stroke:#181818;stroke-width:0.9;" x1="657" x2="1041.3" y1="750.8479" y2="750.8479"/><text fill="#000000" font-family="sans-serif" font-size="11.7" font-weight="bold" lengthAdjust="spacing" textLength="12.6" x="663.3" y="746.1114">16</text><text fill="#000000" font-family="sans-serif" font-size="11.7" lengthAdjust="spacing" textLength="117" x="679.5" y="746.1114">getSelectedSkillsList()</text><polygon fill="#181818" points="666.9,775.4098,657.9,779.0098,666.9,782.6098,663.3,779.0098" style="stroke:#181818;stroke-width:0.9;"/><line style="stroke:#181818;stroke-width:0.9;stroke-dasharray:2.0,2.0;" x1="661.5" x2="1050.3" y1="779.0098" y2="779.0098"/><text fill="#000000" font-family="sans-serif" font-size="11.7" font-weight="bold" lengthAdjust="spacing" textLength="12.6" x="672.3" y="774.2733">17</text><text fill="#000000" font-family="sans-serif" font-size="11.7" lengthAdjust="spacing" textLength="91.8" x="688.5" y="774.2733">selectedSkillsList</text><line style="stroke:#181818;stroke-width:0.9;stroke-dasharray:2.0,2.0;" x1="657" x2="694.8" y1="811.6717" y2="811.6717"/><line style="stroke:#181818;stroke-width:0.9;stroke-dasharray:2.0,2.0;" x1="694.8" x2="694.8" y1="811.6717" y2="823.3717"/><line style="stroke:#181818;stroke-width:0.9;stroke-dasharray:2.0,2.0;" x1="652.5" x2="694.8" y1="823.3717" y2="823.3717"/><polygon fill="#181818" points="661.5,819.7717,652.5,823.3717,661.5,826.9717,657.9,823.3717" style="stroke:#181818;stroke-width:0.9;"/><text fill="#000000" font-family="sans-serif" font-size="11.7" font-weight="bold" lengthAdjust="spacing" textLength="12.6" x="663.3" y="806.9353">18</text><text fill="#000000" font-family="sans-serif" font-size="11.7" lengthAdjust="spacing" textLength="91.8" x="679.5" y="806.9353">selectedSkillsList</text><line style="stroke:#181818;stroke-width:0.9;" x1="652.5" x2="694.8" y1="842.5336" y2="842.5336"/><line style="stroke:#181818;stroke-width:0.9;" x1="694.8" x2="694.8" y1="842.5336" y2="854.2336"/><line style="stroke:#181818;stroke-width:0.9;" x1="657.9" x2="694.8" y1="854.2336" y2="854.2336"/><polygon fill="#181818" points="666.9,850.6336,657.9,854.2336,666.9,857.8336,663.3,854.2336" style="stroke:#181818;stroke-width:0.9;"/><text fill="#000000" font-family="sans-serif" font-size="11.7" font-weight="bold" lengthAdjust="spacing" textLength="12.6" x="663.3" y="837.7972">19</text><text fill="#000000" font-family="sans-serif" font-size="11.7" lengthAdjust="spacing" textLength="172.8" x="679.5" y="837.7972">createAvailableCollaboratorsList()</text><rect fill="none" height="53.2916" style="stroke:#000000;stroke-width:1.35;" width="178.2" x="566.1" y="865.9336"/><path d="M566.1,865.9336 L621.9,865.9336 L621.9,874.0336 L612.9,883.0336 L566.1,883.0336 L566.1,865.9336 " fill="#EEEEEE" style="stroke:#000000;stroke-width:1.8;"/><text fill="#000000" font-family="sans-serif" font-size="11.7" font-weight="bold" lengthAdjust="spacing" textLength="15.3" x="577.8" y="880.3591">ref</text><text fill="#000000" font-family="sans-serif" font-size="10.8" lengthAdjust="spacing" textLength="171" x="569.7" y="898.2879">Create Available Collaborators List</text><text fill="#000000" font-family="sans-serif" font-size="10.8" lengthAdjust="spacing" textLength="2.7" x="653.85" y="912.6527">&#160;</text><line style="stroke:#181818;stroke-width:0.9;stroke-dasharray:2.0,2.0;" x1="657" x2="694.8" y1="949.1871" y2="949.1871"/><line style="stroke:#181818;stroke-width:0.9;stroke-dasharray:2.0,2.0;" x1="694.8" x2="694.8" y1="949.1871" y2="960.8871"/><line style="stroke:#181818;stroke-width:0.9;stroke-dasharray:2.0,2.0;" x1="652.5" x2="694.8" y1="960.8871" y2="960.8871"/><polygon fill="#181818" points="661.5,957.2871,652.5,960.8871,661.5,964.4871,657.9,960.8871" style="stroke:#181818;stroke-width:0.9;"/><text fill="#000000" font-family="sans-serif" font-size="11.7" font-weight="bold" lengthAdjust="spacing" textLength="12.6" x="663.3" y="944.4507">20</text><text fill="#000000" font-family="sans-serif" font-size="11.7" lengthAdjust="spacing" textLength="3.6" x="679.5" y="944.4507">&#160;</text><line style="stroke:#181818;stroke-width:0.9;" x1="652.5" x2="694.8" y1="980.049" y2="980.049"/><line style="stroke:#181818;stroke-width:0.9;" x1="694.8" x2="694.8" y1="980.049" y2="991.749"/><line style="stroke:#181818;stroke-width:0.9;" x1="657.9" x2="694.8" y1="991.749" y2="991.749"/><polygon fill="#181818" points="666.9,988.149,657.9,991.749,666.9,995.349,663.3,991.749" style="stroke:#181818;stroke-width:0.9;"/><text fill="#000000" font-family="sans-serif" font-size="11.7" font-weight="bold" lengthAdjust="spacing" textLength="12.6" x="663.3" y="975.3126">21</text><text fill="#000000" font-family="sans-serif" font-size="11.7" lengthAdjust="spacing" textLength="365.4" x="679.5" y="975.3126">selectCollaboratorsForTeam(selectedSkillsList, minCollab, maxCollab)</text><rect fill="none" height="53.2916" style="stroke:#000000;stroke-width:1.35;" width="163.8" x="566.1" y="1003.449"/><path d="M566.1,1003.449 L621.9,1003.449 L621.9,1011.549 L612.9,1020.549 L566.1,1020.549 L566.1,1003.449 " fill="#EEEEEE" style="stroke:#000000;stroke-width:1.8;"/><text fill="#000000" font-family="sans-serif" font-size="11.7" font-weight="bold" lengthAdjust="spacing" textLength="15.3" x="577.8" y="1017.8745">ref</text><text fill="#000000" font-family="sans-serif" font-size="10.8" lengthAdjust="spacing" textLength="125.1" x="585.45" y="1035.8033">Generate Team Proposal</text><text fill="#000000" font-family="sans-serif" font-size="10.8" lengthAdjust="spacing" textLength="2.7" x="646.65" y="1050.1682">&#160;</text><line style="stroke:#181818;stroke-width:0.9;stroke-dasharray:2.0,2.0;" x1="657" x2="694.8" y1="1086.7025" y2="1086.7025"/><line style="stroke:#181818;stroke-width:0.9;stroke-dasharray:2.0,2.0;" x1="694.8" x2="694.8" y1="1086.7025" y2="1098.4025"/><line style="stroke:#181818;stroke-width:0.9;stroke-dasharray:2.0,2.0;" x1="652.5" x2="694.8" y1="1098.4025" y2="1098.4025"/><polygon fill="#181818" points="661.5,1094.8025,652.5,1098.4025,661.5,1102.0025,657.9,1098.4025" style="stroke:#181818;stroke-width:0.9;"/><text fill="#000000" font-family="sans-serif" font-size="11.7" font-weight="bold" lengthAdjust="spacing" textLength="12.6" x="663.3" y="1081.9661">22</text><text fill="#000000" font-family="sans-serif" font-size="11.7" lengthAdjust="spacing" textLength="107.1" x="679.5" y="1081.9661">tempCollaboratorList</text><polygon fill="#181818" points="379.8,1118.4645,370.8,1122.0645,379.8,1125.6645,376.2,1122.0645" style="stroke:#181818;stroke-width:0.9;"/><line style="stroke:#181818;stroke-width:0.9;stroke-dasharray:2.0,2.0;" x1="374.4" x2="647.1" y1="1122.0645" y2="1122.0645"/><text fill="#000000" font-family="sans-serif" font-size="11.7" font-weight="bold" lengthAdjust="spacing" textLength="12.6" x="385.2" y="1117.328">23</text><text fill="#000000" font-family="sans-serif" font-size="11.7" lengthAdjust="spacing" textLength="107.1" x="401.4" y="1117.328">tempCollaboratorList</text><polygon fill="#181818" points="114.3,1146.6264,105.3,1150.2264,114.3,1153.8264,110.7,1150.2264" style="stroke:#181818;stroke-width:0.9;"/><line style="stroke:#181818;stroke-width:0.9;stroke-dasharray:2.0,2.0;" x1="108.9" x2="364.5" y1="1150.2264" y2="1150.2264"/><text fill="#000000" font-family="sans-serif" font-size="11.7" font-weight="bold" lengthAdjust="spacing" textLength="12.6" x="119.7" y="1145.4899">24</text><text fill="#000000" font-family="sans-serif" font-size="11.7" lengthAdjust="spacing" textLength="120.6" x="135.9" y="1145.4899">shows a team proposal</text><polygon fill="#181818" points="350.1,1174.7883,359.1,1178.3883,350.1,1181.9883,353.7,1178.3883" style="stroke:#181818;stroke-width:0.9;"/><line style="stroke:#181818;stroke-width:0.9;" x1="104.4" x2="355.5" y1="1178.3883" y2="1178.3883"/><text fill="#000000" font-family="sans-serif" font-size="11.7" font-weight="bold" lengthAdjust="spacing" textLength="12.6" x="110.7" y="1173.6519">25</text><text fill="#000000" font-family="sans-serif" font-size="11.7" lengthAdjust="spacing" textLength="173.7" x="126.9" y="1173.6519">accepts or refuses team proposal</text><polygon fill="#181818" points="632.7,1202.9502,641.7,1206.5502,632.7,1210.1502,636.3,1206.5502" style="stroke:#181818;stroke-width:0.9;"/><line style="stroke:#181818;stroke-width:0.9;" x1="369.9" x2="638.1" y1="1206.5502" y2="1206.5502"/><text fill="#000000" font-family="sans-serif" font-size="11.7" font-weight="bold" lengthAdjust="spacing" textLength="12.6" x="376.2" y="1201.8138">26</text><text fill="#000000" font-family="sans-serif" font-size="11.7" lengthAdjust="spacing" textLength="181.8" x="392.4" y="1201.8138">registerTeam(tempCollaboratorList)</text><rect fill="none" height="53.2916" style="stroke:#000000;stroke-width:1.35;" width="163.8" x="566.1" y="1213.7502"/><path d="M566.1,1213.7502 L621.9,1213.7502 L621.9,1221.8502 L612.9,1230.8502 L566.1,1230.8502 L566.1,1213.7502 " fill="#EEEEEE" style="stroke:#000000;stroke-width:1.8;"/><text fill="#000000" font-family="sans-serif" font-size="11.7" font-weight="bold" lengthAdjust="spacing" textLength="15.3" x="577.8" y="1228.1757">ref</text><text fill="#000000" font-family="sans-serif" font-size="10.8" lengthAdjust="spacing" textLength="73.8" x="611.1" y="1246.1045">Register Team</text><text fill="#000000" font-family="sans-serif" font-size="10.8" lengthAdjust="spacing" textLength="2.7" x="646.65" y="1260.4693">&#160;</text><polygon fill="#181818" points="379.8,1288.9037,370.8,1292.5037,379.8,1296.1037,376.2,1292.5037" style="stroke:#181818;stroke-width:0.9;"/><line style="stroke:#181818;stroke-width:0.9;stroke-dasharray:2.0,2.0;" x1="374.4" x2="647.1" y1="1292.5037" y2="1292.5037"/><text fill="#000000" font-family="sans-serif" font-size="11.7" font-weight="bold" lengthAdjust="spacing" textLength="12.6" x="385.2" y="1287.7673">27</text><text fill="#000000" font-family="sans-serif" font-size="11.7" lengthAdjust="spacing" textLength="26.1" x="401.4" y="1287.7673">team</text><polygon fill="#181818" points="109.8,1317.0656,100.8,1320.6656,109.8,1324.2656,106.2,1320.6656" style="stroke:#181818;stroke-width:0.9;"/><line style="stroke:#181818;stroke-width:0.9;stroke-dasharray:2.0,2.0;" x1="104.4" x2="364.5" y1="1320.6656" y2="1320.6656"/><text fill="#000000" font-family="sans-serif" font-size="11.7" font-weight="bold" lengthAdjust="spacing" textLength="12.6" x="115.2" y="1315.9292">28</text><text fill="#000000" font-family="sans-serif" font-size="11.7" lengthAdjust="spacing" textLength="126.9" x="131.4" y="1315.9292">displays operation result</text><!--SRC=[dLPDJ-Cm4BtdLuouR47m1weLqghI0XAiK0ktlPXaIAqwTcGxBTrVlnExIPtlb5pQEECtu_VUJ69sNEPCimmo9LMyrIf3iBh0oDHFSXRlM8eRUnG86cFBP2h20BDbYJfmcS8d4mQZY1LMoIBxG1r5FxOyGVXKodwehuZ5LccuUYmo9c6DHXKwHWClJ586VGNCmEFw9I9SosEUCsdXQlc04ZMp-8OiUtzoGUzF8p4h9QrMGfm0Ls_hvsOqbIx46dDbE9LpNFwLc-QAszTQQq6W82OmSK7ccHjBAENFJxToxn2wGL5KKi3tLAaxQ0IdYsxWxfxE1KlQkJF4c0O65ai1jA8Yc3X7rnZ4GxrONhIVKCeJtzmGKgoHeheX55Cc359bNFAio83913BsvVwxv8R_2m0Ix4qTLe_IeZPp0MUSX31Jj9x3nNKZIECdg3rghp6qhWUqNaJmr8VFaCgYtSt5kXW7rtZa2g62MgQeETvqf6wLMcEtRTM8QiDJngw90cbRIG9vHjESJrIfvbh2qJI0rwL4A9N3OSjfAiJKSLmMQ4QiPhRgO7mU49J8ESFvpwhJ8K597BDQQ3E_mr2FECXeq4mD8x4aQIZrXsMuCDM_wwZV2VCjjtAgG9N3gs3c-6-Gwcw_4byLuJviWYecpQ5iIUS5laTn1EfuYIdpTz5e8vQLbb8FC9e6W_VrDAWMrFmh6i3iuxRiVVztYDpUDWlwVdPZNTAq5m5Vrh7dwdl6_tUQjMxKYs4d-VL3vDUUSH98e1TAaPnALunqB3xU044JrB3GmErfXi61FA5l3plVfiApsgZqjzAbgnTTmczXtE4pwfwciVgaWR88UEry14morpQEnImF3_WTwrGpPHHhtYppBuJsDywSUHR7cDFefo56vouCVK1sCQRV1HfJAXgzndtdcPnOmngkJzXEk_E6NgdQn8OR-jZiVyCk8U4c5-n8lEIbRxYIbCiKmlPn6jowxz3_]--></g></svg>