<?xml version="1.0" encoding="us-ascii" standalone="no"?><svg xmlns="http://www.w3.org/2000/svg" xmlns:xlink="http://www.w3.org/1999/xlink" contentStyleType="text/css" height="1107.2px" preserveAspectRatio="none" style="width:933px;height:1107px;background:#FFFFFF;" version="1.1" viewBox="0 0 933 1107" width="933.6px" zoomAndPan="magnify"><defs/><g><rect fill="#FFFFFF" height="951.7359" style="stroke:#181818;stroke-width:0.8000000000000002;" width="8" x="84.8" y="74.8969"/><rect fill="#FFFFFF" height="59.9297" style="stroke:#181818;stroke-width:0.8000000000000002;" width="8" x="320.8" y="93.5297"/><rect fill="#FFFFFF" height="147.5016" style="stroke:#181818;stroke-width:0.8000000000000002;" width="8" x="320.8" y="178.4922"/><rect fill="#FFFFFF" height="25.0328" style="stroke:#181818;stroke-width:0.8000000000000002;" width="8" x="320.8" y="351.0266"/><rect fill="#FFFFFF" height="474.0391" style="stroke:#181818;stroke-width:0.8000000000000002;" width="8" x="320.8" y="401.0922"/><rect fill="#FFFFFF" height="126.4688" style="stroke:#181818;stroke-width:0.8000000000000002;" width="8" x="320.8" y="900.1641"/><rect fill="#FFFFFF" height="76.4031" style="stroke:#181818;stroke-width:0.8000000000000002;" width="8" x="629.6" y="203.525"/><rect fill="#FFFFFF" height="418.3734" style="stroke:#181818;stroke-width:0.8000000000000002;" width="8" x="629.6" y="431.725"/><rect fill="#FFFFFF" height="85.2031" style="stroke:#181818;stroke-width:0.8000000000000002;" width="8" x="633.6" y="484.1906"/><rect fill="#FFFFFF" height="85.2031" style="stroke:#181818;stroke-width:0.8000000000000002;" width="8" x="633.6" y="612.0266"/><rect fill="#FFFFFF" height="85.2031" style="stroke:#181818;stroke-width:0.8000000000000002;" width="8" x="633.6" y="734.2625"/><rect fill="#FFFFFF" height="76.4031" style="stroke:#181818;stroke-width:0.8000000000000002;" width="8" x="629.6" y="925.1969"/><rect fill="none" height="115.5641" style="stroke:#000000;stroke-width:1.2000000000000002;" width="375.2" x="8" y="291.9281"/><rect fill="none" height="137.6688" style="stroke:#000000;stroke-width:1.2000000000000002;" width="242.4" x="555.2" y="443.725"/><line style="stroke:#181818;stroke-width:0.4000000000000001;stroke-dasharray:5.0,5.0;" x1="88.8" x2="88.8" y1="66.8969" y2="1041.0328"/><line style="stroke:#181818;stroke-width:0.4000000000000001;stroke-dasharray:5.0,5.0;" x1="324.8" x2="324.8" y1="66.8969" y2="1041.0328"/><line style="stroke:#181818;stroke-width:0.4000000000000001;stroke-dasharray:5.0,5.0;" x1="633.6" x2="633.6" y1="125.3781" y2="1041.0328"/><text fill="#000000" font-family="sans-serif" font-size="11.2" lengthAdjust="spacing" textLength="140.8" x="16" y="64.0859">Human Resources Manager</text><ellipse cx="88.8" cy="10.8" fill="#E3E3E3" rx="6.4" ry="6.4" style="stroke:#181818;stroke-width:0.4000000000000001;"/><path d="M88.8,17.2 L88.8,38.8 M78.4,23.6 L99.2,23.6 M88.8,38.8 L78.4,50.8 M88.8,38.8 L99.2,50.8 " fill="none" style="stroke:#181818;stroke-width:0.4000000000000001;"/><text fill="#000000" font-family="sans-serif" font-size="11.2" lengthAdjust="spacing" textLength="140.8" x="16" y="1052.3188">Human Resources Manager</text><ellipse cx="88.8" cy="1061.9297" fill="#E3E3E3" rx="6.4" ry="6.4" style="stroke:#181818;stroke-width:0.4000000000000001;"/><path d="M88.8,1068.3297 L88.8,1089.9297 M78.4,1074.7297 L99.2,1074.7297 M88.8,1089.9297 L78.4,1101.9297 M88.8,1089.9297 L99.2,1101.9297 " fill="none" style="stroke:#181818;stroke-width:0.4000000000000001;"/><rect fill="#E3E3E3" height="26.0969" rx="2" ry="2" style="stroke:#181818;stroke-width:0.4000000000000001;" width="100.8" x="274.4" y="40"/><text fill="#000000" font-family="sans-serif" font-size="11.2" lengthAdjust="spacing" textLength="89.6" x="280" y="57.6859">:GenerateTeamUI</text><rect fill="#E3E3E3" height="26.0969" rx="2" ry="2" style="stroke:#181818;stroke-width:0.4000000000000001;" width="100.8" x="274.4" y="1040.2328"/><text fill="#000000" font-family="sans-serif" font-size="11.2" lengthAdjust="spacing" textLength="89.6" x="280" y="1057.9188">:GenerateTeamUI</text><rect fill="#E3E3E3" height="26.0969" rx="2" ry="2" style="stroke:#181818;stroke-width:0.4000000000000001;" width="140.8" x="563.2" y="1040.2328"/><text fill="#000000" font-family="sans-serif" font-size="11.2" lengthAdjust="spacing" textLength="129.6" x="568.8" y="1057.9188">:GenerateTeamController</text><rect fill="#FFFFFF" height="951.7359" style="stroke:#181818;stroke-width:0.8000000000000002;" width="8" x="84.8" y="74.8969"/><rect fill="#FFFFFF" height="59.9297" style="stroke:#181818;stroke-width:0.8000000000000002;" width="8" x="320.8" y="93.5297"/><rect fill="#FFFFFF" height="147.5016" style="stroke:#181818;stroke-width:0.8000000000000002;" width="8" x="320.8" y="178.4922"/><rect fill="#FFFFFF" height="25.0328" style="stroke:#181818;stroke-width:0.8000000000000002;" width="8" x="320.8" y="351.0266"/><rect fill="#FFFFFF" height="474.0391" style="stroke:#181818;stroke-width:0.8000000000000002;" width="8" x="320.8" y="401.0922"/><rect fill="#FFFFFF" height="126.4688" style="stroke:#181818;stroke-width:0.8000000000000002;" width="8" x="320.8" y="900.1641"/><rect fill="#FFFFFF" height="76.4031" style="stroke:#181818;stroke-width:0.8000000000000002;" width="8" x="629.6" y="203.525"/><rect fill="#FFFFFF" height="418.3734" style="stroke:#181818;stroke-width:0.8000000000000002;" width="8" x="629.6" y="431.725"/><rect fill="#FFFFFF" height="85.2031" style="stroke:#181818;stroke-width:0.8000000000000002;" width="8" x="633.6" y="484.1906"/><rect fill="#FFFFFF" height="85.2031" style="stroke:#181818;stroke-width:0.8000000000000002;" width="8" x="633.6" y="612.0266"/><rect fill="#FFFFFF" height="85.2031" style="stroke:#181818;stroke-width:0.8000000000000002;" width="8" x="633.6" y="734.2625"/><rect fill="#FFFFFF" height="76.4031" style="stroke:#181818;stroke-width:0.8000000000000002;" width="8" x="629.6" y="925.1969"/><polygon fill="#181818" points="311.2,90.3297,319.2,93.5297,311.2,96.7297,314.4,93.5297" style="stroke:#181818;stroke-width:0.8000000000000002;"/><line style="stroke:#181818;stroke-width:0.8000000000000002;" x1="92.8" x2="316" y1="93.5297" y2="93.5297"/><text fill="#000000" font-family="sans-serif" font-size="10.4" font-weight="bold" lengthAdjust="spacing" textLength="5.6" x="98.4" y="89.3195">1</text><text fill="#000000" font-family="sans-serif" font-size="10.4" lengthAdjust="spacing" textLength="114.4" x="107.2" y="89.3195">asks for a team proposal</text><polygon fill="#181818" points="553.6,115.3625,561.6,118.5625,553.6,121.7625,556.8,118.5625" style="stroke:#181818;stroke-width:0.8000000000000002;"/><line style="stroke:#181818;stroke-width:0.8000000000000002;" x1="328.8" x2="558.4" y1="118.5625" y2="118.5625"/><text fill="#000000" font-family="sans-serif" font-size="10.4" font-weight="bold" lengthAdjust="spacing" textLength="5.6" x="334.4" y="114.3523">2</text><text fill="#000000" font-family="sans-serif" font-size="10.4" lengthAdjust="spacing" textLength="28.8" x="343.2" y="114.3523">create</text><rect fill="#E3E3E3" height="26.0969" rx="2" ry="2" style="stroke:#181818;stroke-width:0.4000000000000001;" width="140.8" x="563.2" y="99.9297"/><text fill="#000000" font-family="sans-serif" font-size="11.2" lengthAdjust="spacing" textLength="129.6" x="568.8" y="117.6156">:GenerateTeamController</text><polygon fill="#181818" points="101.6,150.2594,93.6,153.4594,101.6,156.6594,98.4,153.4594" style="stroke:#181818;stroke-width:0.8000000000000002;"/><line style="stroke:#181818;stroke-width:0.8000000000000002;stroke-dasharray:2.0,2.0;" x1="96.8" x2="324" y1="153.4594" y2="153.4594"/><text fill="#000000" font-family="sans-serif" font-size="10.4" font-weight="bold" lengthAdjust="spacing" textLength="5.6" x="106.4" y="149.2492">3</text><text fill="#000000" font-family="sans-serif" font-size="10.4" lengthAdjust="spacing" textLength="200" x="115.2" y="149.2492">asks for minimum and maximum team size</text><polygon fill="#181818" points="311.2,175.2922,319.2,178.4922,311.2,181.6922,314.4,178.4922" style="stroke:#181818;stroke-width:0.8000000000000002;"/><line style="stroke:#181818;stroke-width:0.8000000000000002;" x1="92.8" x2="316" y1="178.4922" y2="178.4922"/><text fill="#000000" font-family="sans-serif" font-size="10.4" font-weight="bold" lengthAdjust="spacing" textLength="5.6" x="98.4" y="174.282">4</text><text fill="#000000" font-family="sans-serif" font-size="10.4" lengthAdjust="spacing" textLength="192" x="107.2" y="174.282">enters minimum and maximum team size</text><polygon fill="#181818" points="620,200.325,628,203.525,620,206.725,623.2,203.525" style="stroke:#181818;stroke-width:0.8000000000000002;"/><line style="stroke:#181818;stroke-width:0.8000000000000002;" x1="328.8" x2="624.8" y1="203.525" y2="203.525"/><text fill="#000000" font-family="sans-serif" font-size="10.4" font-weight="bold" lengthAdjust="spacing" textLength="5.6" x="334.4" y="199.3148">5</text><text fill="#000000" font-family="sans-serif" font-size="10.4" lengthAdjust="spacing" textLength="46.4" x="343.2" y="199.3148">getSkills()</text><rect fill="none" height="47.3703" style="stroke:#000000;stroke-width:1.2000000000000002;" width="145.6" x="560.8" y="209.925"/><path d="M560.8,209.925 L610.4,209.925 L610.4,217.125 L602.4,225.125 L560.8,225.125 L560.8,209.925 " fill="#EEEEEE" style="stroke:#000000;stroke-width:1.6000000000000003;"/><text fill="#000000" font-family="sans-serif" font-size="10.4" font-weight="bold" lengthAdjust="spacing" textLength="13.6" x="571.2" y="222.7477">ref</text><text fill="#000000" font-family="sans-serif" font-size="9.6" lengthAdjust="spacing" textLength="54.4" x="606.4" y="238.6844">Get Skill List</text><text fill="#000000" font-family="sans-serif" font-size="9.6" lengthAdjust="spacing" textLength="2.4" x="632.4" y="251.4531">&#160;</text><polygon fill="#181818" points="337.6,276.7281,329.6,279.9281,337.6,283.1281,334.4,279.9281" style="stroke:#181818;stroke-width:0.8000000000000002;"/><line style="stroke:#181818;stroke-width:0.8000000000000002;stroke-dasharray:2.0,2.0;" x1="332.8" x2="632.8" y1="279.9281" y2="279.9281"/><text fill="#000000" font-family="sans-serif" font-size="10.4" font-weight="bold" lengthAdjust="spacing" textLength="5.6" x="342.4" y="275.718">6</text><text fill="#000000" font-family="sans-serif" font-size="10.4" lengthAdjust="spacing" textLength="35.2" x="351.2" y="275.718">skillList</text><path d="M8,291.9281 L66.4,291.9281 L66.4,299.3609 L58.4,307.3609 L8,307.3609 L8,291.9281 " fill="#EEEEEE" style="stroke:#000000;stroke-width:1.2000000000000002;"/><rect fill="none" height="115.5641" style="stroke:#000000;stroke-width:1.2000000000000002;" width="375.2" x="8" y="291.9281"/><text fill="#000000" font-family="sans-serif" font-size="10.4" font-weight="bold" lengthAdjust="spacing" textLength="22.4" x="20" y="303.9508">loop</text><text fill="#000000" font-family="sans-serif" font-size="8.8" font-weight="bold" lengthAdjust="spacing" textLength="76.8" x="78.4" y="303.0242">[while continues]</text><polygon fill="#181818" points="101.6,322.7938,93.6,325.9938,101.6,329.1938,98.4,325.9938" style="stroke:#181818;stroke-width:0.8000000000000002;"/><line style="stroke:#181818;stroke-width:0.8000000000000002;stroke-dasharray:2.0,2.0;" x1="96.8" x2="324" y1="325.9938" y2="325.9938"/><text fill="#000000" font-family="sans-serif" font-size="10.4" font-weight="bold" lengthAdjust="spacing" textLength="5.6" x="106.4" y="321.7836">7</text><text fill="#000000" font-family="sans-serif" font-size="10.4" lengthAdjust="spacing" textLength="176.8" x="115.2" y="321.7836">shows skill list and asks to select one</text><polygon fill="#181818" points="311.2,347.8266,319.2,351.0266,311.2,354.2266,314.4,351.0266" style="stroke:#181818;stroke-width:0.8000000000000002;"/><line style="stroke:#181818;stroke-width:0.8000000000000002;" x1="92.8" x2="316" y1="351.0266" y2="351.0266"/><text fill="#000000" font-family="sans-serif" font-size="10.4" font-weight="bold" lengthAdjust="spacing" textLength="5.6" x="98.4" y="346.8164">8</text><text fill="#000000" font-family="sans-serif" font-size="10.4" lengthAdjust="spacing" textLength="64" x="107.2" y="346.8164">selects a skill</text><polygon fill="#181818" points="101.6,372.8594,93.6,376.0594,101.6,379.2594,98.4,376.0594" style="stroke:#181818;stroke-width:0.8000000000000002;"/><line style="stroke:#181818;stroke-width:0.8000000000000002;stroke-dasharray:2.0,2.0;" x1="96.8" x2="324" y1="376.0594" y2="376.0594"/><text fill="#000000" font-family="sans-serif" font-size="10.4" font-weight="bold" lengthAdjust="spacing" textLength="5.6" x="106.4" y="371.8492">9</text><text fill="#000000" font-family="sans-serif" font-size="10.4" lengthAdjust="spacing" textLength="76.8" x="115.2" y="371.8492">asks to continue</text><polygon fill="#181818" points="311.2,397.8922,319.2,401.0922,311.2,404.2922,314.4,401.0922" style="stroke:#181818;stroke-width:0.8000000000000002;"/><line style="stroke:#181818;stroke-width:0.8000000000000002;" x1="92.8" x2="316" y1="401.0922" y2="401.0922"/><text fill="#000000" font-family="sans-serif" font-size="10.4" font-weight="bold" lengthAdjust="spacing" textLength="11.2" x="98.4" y="396.882">10</text><text fill="#000000" font-family="sans-serif" font-size="10.4" lengthAdjust="spacing" textLength="144.8" x="112.8" y="396.882">answers positively or negatively</text><polygon fill="#181818" points="620,428.525,628,431.725,620,434.925,623.2,431.725" style="stroke:#181818;stroke-width:0.8000000000000002;"/><line style="stroke:#181818;stroke-width:0.8000000000000002;" x1="328.8" x2="624.8" y1="431.725" y2="431.725"/><text fill="#000000" font-family="sans-serif" font-size="10.4" font-weight="bold" lengthAdjust="spacing" textLength="11.2" x="334.4" y="427.5148">11</text><text fill="#000000" font-family="sans-serif" font-size="10.4" lengthAdjust="spacing" textLength="271.2" x="348.8" y="427.5148">generateTeamProposal(minCollab, maxCollab, skillNames)</text><path d="M555.2,443.725 L613.6,443.725 L613.6,451.1578 L605.6,459.1578 L555.2,459.1578 L555.2,443.725 " fill="#EEEEEE" style="stroke:#000000;stroke-width:1.2000000000000002;"/><rect fill="none" height="137.6688" style="stroke:#000000;stroke-width:1.2000000000000002;" width="242.4" x="555.2" y="443.725"/><text fill="#000000" font-family="sans-serif" font-size="10.4" font-weight="bold" lengthAdjust="spacing" textLength="22.4" x="567.2" y="455.7477">loop</text><text fill="#000000" font-family="sans-serif" font-size="8.8" font-weight="bold" lengthAdjust="spacing" textLength="88" x="625.6" y="454.8211">[for each skillName]</text><line style="stroke:#181818;stroke-width:0.8000000000000002;" x1="637.6" x2="675.2" y1="473.7906" y2="473.7906"/><line style="stroke:#181818;stroke-width:0.8000000000000002;" x1="675.2" x2="675.2" y1="473.7906" y2="484.1906"/><line style="stroke:#181818;stroke-width:0.8000000000000002;" x1="642.4" x2="675.2" y1="484.1906" y2="484.1906"/><polygon fill="#181818" points="650.4,480.9906,642.4,484.1906,650.4,487.3906,647.2,484.1906" style="stroke:#181818;stroke-width:0.8000000000000002;"/><text fill="#000000" font-family="sans-serif" font-size="10.4" font-weight="bold" lengthAdjust="spacing" textLength="11.2" x="647.2" y="469.5805">12</text><text fill="#000000" font-family="sans-serif" font-size="10.4" lengthAdjust="spacing" textLength="126.4" x="661.6" y="469.5805">getSkillByName(skillName)</text><rect fill="none" height="47.3703" style="stroke:#000000;stroke-width:1.2000000000000002;" width="145.6" x="560.8" y="494.5906"/><path d="M560.8,494.5906 L610.4,494.5906 L610.4,501.7906 L602.4,509.7906 L560.8,509.7906 L560.8,494.5906 " fill="#EEEEEE" style="stroke:#000000;stroke-width:1.6000000000000003;"/><text fill="#000000" font-family="sans-serif" font-size="10.4" font-weight="bold" lengthAdjust="spacing" textLength="13.6" x="571.2" y="507.4133">ref</text><text fill="#000000" font-family="sans-serif" font-size="9.6" lengthAdjust="spacing" textLength="66.4" x="600.4" y="523.35">Get Skill Object</text><text fill="#000000" font-family="sans-serif" font-size="9.6" lengthAdjust="spacing" textLength="2.4" x="632.4" y="536.1188">&#160;</text><line style="stroke:#181818;stroke-width:0.8000000000000002;stroke-dasharray:2.0,2.0;" x1="641.6" x2="675.2" y1="568.5938" y2="568.5938"/><line style="stroke:#181818;stroke-width:0.8000000000000002;stroke-dasharray:2.0,2.0;" x1="675.2" x2="675.2" y1="568.5938" y2="578.9938"/><line style="stroke:#181818;stroke-width:0.8000000000000002;stroke-dasharray:2.0,2.0;" x1="637.6" x2="675.2" y1="578.9938" y2="578.9938"/><polygon fill="#181818" points="645.6,575.7938,637.6,578.9938,645.6,582.1938,642.4,578.9938" style="stroke:#181818;stroke-width:0.8000000000000002;"/><text fill="#000000" font-family="sans-serif" font-size="10.4" font-weight="bold" lengthAdjust="spacing" textLength="11.2" x="647.2" y="564.3836">13</text><text fill="#000000" font-family="sans-serif" font-size="10.4" lengthAdjust="spacing" textLength="18.4" x="661.6" y="564.3836">skill</text><line style="stroke:#181818;stroke-width:0.8000000000000002;" x1="637.6" x2="675.2" y1="601.6266" y2="601.6266"/><line style="stroke:#181818;stroke-width:0.8000000000000002;" x1="675.2" x2="675.2" y1="601.6266" y2="612.0266"/><line style="stroke:#181818;stroke-width:0.8000000000000002;" x1="642.4" x2="675.2" y1="612.0266" y2="612.0266"/><polygon fill="#181818" points="650.4,608.8266,642.4,612.0266,650.4,615.2266,647.2,612.0266" style="stroke:#181818;stroke-width:0.8000000000000002;"/><text fill="#000000" font-family="sans-serif" font-size="10.4" font-weight="bold" lengthAdjust="spacing" textLength="11.2" x="647.2" y="597.4164">14</text><text fill="#000000" font-family="sans-serif" font-size="10.4" lengthAdjust="spacing" textLength="136" x="661.6" y="597.4164">checkAvailableCollaborators()</text><rect fill="none" height="47.3703" style="stroke:#000000;stroke-width:1.2000000000000002;" width="145.6" x="560.8" y="622.4266"/><path d="M560.8,622.4266 L610.4,622.4266 L610.4,629.6266 L602.4,637.6266 L560.8,637.6266 L560.8,622.4266 " fill="#EEEEEE" style="stroke:#000000;stroke-width:1.6000000000000003;"/><text fill="#000000" font-family="sans-serif" font-size="10.4" font-weight="bold" lengthAdjust="spacing" textLength="13.6" x="571.2" y="635.2492">ref</text><text fill="#000000" font-family="sans-serif" font-size="9.6" lengthAdjust="spacing" textLength="119.2" x="574" y="651.1859">Get Available Collaborators</text><text fill="#000000" font-family="sans-serif" font-size="9.6" lengthAdjust="spacing" textLength="2.4" x="632.4" y="663.9547">&#160;</text><line style="stroke:#181818;stroke-width:0.8000000000000002;stroke-dasharray:2.0,2.0;" x1="641.6" x2="675.2" y1="696.4297" y2="696.4297"/><line style="stroke:#181818;stroke-width:0.8000000000000002;stroke-dasharray:2.0,2.0;" x1="675.2" x2="675.2" y1="696.4297" y2="706.8297"/><line style="stroke:#181818;stroke-width:0.8000000000000002;stroke-dasharray:2.0,2.0;" x1="637.6" x2="675.2" y1="706.8297" y2="706.8297"/><polygon fill="#181818" points="645.6,703.6297,637.6,706.8297,645.6,710.0297,642.4,706.8297" style="stroke:#181818;stroke-width:0.8000000000000002;"/><text fill="#000000" font-family="sans-serif" font-size="10.4" font-weight="bold" lengthAdjust="spacing" textLength="11.2" x="647.2" y="692.2195">15</text><text fill="#000000" font-family="sans-serif" font-size="10.4" lengthAdjust="spacing" textLength="100" x="661.6" y="692.2195">availableCollaborators</text><line style="stroke:#181818;stroke-width:0.8000000000000002;" x1="637.6" x2="675.2" y1="723.8625" y2="723.8625"/><line style="stroke:#181818;stroke-width:0.8000000000000002;" x1="675.2" x2="675.2" y1="723.8625" y2="734.2625"/><line style="stroke:#181818;stroke-width:0.8000000000000002;" x1="642.4" x2="675.2" y1="734.2625" y2="734.2625"/><polygon fill="#181818" points="650.4,731.0625,642.4,734.2625,650.4,737.4625,647.2,734.2625" style="stroke:#181818;stroke-width:0.8000000000000002;"/><text fill="#000000" font-family="sans-serif" font-size="10.4" font-weight="bold" lengthAdjust="spacing" textLength="11.2" x="647.2" y="719.6523">16</text><text fill="#000000" font-family="sans-serif" font-size="10.4" lengthAdjust="spacing" textLength="266.4" x="661.6" y="719.6523">selectCollaboratorsForTeam(availableCollaborators, skills)</text><rect fill="none" height="47.3703" style="stroke:#000000;stroke-width:1.2000000000000002;" width="148.8" x="560.8" y="744.6625"/><path d="M560.8,744.6625 L610.4,744.6625 L610.4,751.8625 L602.4,759.8625 L560.8,759.8625 L560.8,744.6625 " fill="#EEEEEE" style="stroke:#000000;stroke-width:1.6000000000000003;"/><text fill="#000000" font-family="sans-serif" font-size="10.4" font-weight="bold" lengthAdjust="spacing" textLength="13.6" x="571.2" y="757.4852">ref</text><text fill="#000000" font-family="sans-serif" font-size="9.6" lengthAdjust="spacing" textLength="142.4" x="564" y="773.4219">Choose Collaborators For Team</text><text fill="#000000" font-family="sans-serif" font-size="9.6" lengthAdjust="spacing" textLength="2.4" x="634" y="786.1906">&#160;</text><line style="stroke:#181818;stroke-width:0.8000000000000002;stroke-dasharray:2.0,2.0;" x1="641.6" x2="675.2" y1="818.6656" y2="818.6656"/><line style="stroke:#181818;stroke-width:0.8000000000000002;stroke-dasharray:2.0,2.0;" x1="675.2" x2="675.2" y1="818.6656" y2="829.0656"/><line style="stroke:#181818;stroke-width:0.8000000000000002;stroke-dasharray:2.0,2.0;" x1="637.6" x2="675.2" y1="829.0656" y2="829.0656"/><polygon fill="#181818" points="645.6,825.8656,637.6,829.0656,645.6,832.2656,642.4,829.0656" style="stroke:#181818;stroke-width:0.8000000000000002;"/><text fill="#000000" font-family="sans-serif" font-size="10.4" font-weight="bold" lengthAdjust="spacing" textLength="11.2" x="647.2" y="814.4555">17</text><text fill="#000000" font-family="sans-serif" font-size="10.4" lengthAdjust="spacing" textLength="100" x="661.6" y="814.4555">selectedCollaborators</text><polygon fill="#181818" points="337.6,846.8984,329.6,850.0984,337.6,853.2984,334.4,850.0984" style="stroke:#181818;stroke-width:0.8000000000000002;"/><line style="stroke:#181818;stroke-width:0.8000000000000002;stroke-dasharray:2.0,2.0;" x1="332.8" x2="632.8" y1="850.0984" y2="850.0984"/><text fill="#000000" font-family="sans-serif" font-size="10.4" font-weight="bold" lengthAdjust="spacing" textLength="11.2" x="342.4" y="845.8883">18</text><text fill="#000000" font-family="sans-serif" font-size="10.4" lengthAdjust="spacing" textLength="100" x="356.8" y="845.8883">selectedCollaborators</text><polygon fill="#181818" points="101.6,871.9313,93.6,875.1313,101.6,878.3313,98.4,875.1313" style="stroke:#181818;stroke-width:0.8000000000000002;"/><line style="stroke:#181818;stroke-width:0.8000000000000002;stroke-dasharray:2.0,2.0;" x1="96.8" x2="324" y1="875.1313" y2="875.1313"/><text fill="#000000" font-family="sans-serif" font-size="10.4" font-weight="bold" lengthAdjust="spacing" textLength="11.2" x="106.4" y="870.9211">19</text><text fill="#000000" font-family="sans-serif" font-size="10.4" lengthAdjust="spacing" textLength="107.2" x="120.8" y="870.9211">shows a team proposal</text><polygon fill="#181818" points="311.2,896.9641,319.2,900.1641,311.2,903.3641,314.4,900.1641" style="stroke:#181818;stroke-width:0.8000000000000002;"/><line style="stroke:#181818;stroke-width:0.8000000000000002;" x1="92.8" x2="316" y1="900.1641" y2="900.1641"/><text fill="#000000" font-family="sans-serif" font-size="10.4" font-weight="bold" lengthAdjust="spacing" textLength="11.2" x="98.4" y="895.9539">20</text><text fill="#000000" font-family="sans-serif" font-size="10.4" lengthAdjust="spacing" textLength="154.4" x="112.8" y="895.9539">accepts or refuses team proposal</text><polygon fill="#181818" points="620,921.9969,628,925.1969,620,928.3969,623.2,925.1969" style="stroke:#181818;stroke-width:0.8000000000000002;"/><line style="stroke:#181818;stroke-width:0.8000000000000002;" x1="328.8" x2="624.8" y1="925.1969" y2="925.1969"/><text fill="#000000" font-family="sans-serif" font-size="10.4" font-weight="bold" lengthAdjust="spacing" textLength="11.2" x="334.4" y="920.9867">21</text><text fill="#000000" font-family="sans-serif" font-size="10.4" lengthAdjust="spacing" textLength="166.4" x="348.8" y="920.9867">registerTeam(selectedCollaborators)</text><rect fill="none" height="47.3703" style="stroke:#000000;stroke-width:1.2000000000000002;" width="145.6" x="560.8" y="931.5969"/><path d="M560.8,931.5969 L610.4,931.5969 L610.4,938.7969 L602.4,946.7969 L560.8,946.7969 L560.8,931.5969 " fill="#EEEEEE" style="stroke:#000000;stroke-width:1.6000000000000003;"/><text fill="#000000" font-family="sans-serif" font-size="10.4" font-weight="bold" lengthAdjust="spacing" textLength="13.6" x="571.2" y="944.4195">ref</text><text fill="#000000" font-family="sans-serif" font-size="9.6" lengthAdjust="spacing" textLength="65.6" x="600.8" y="960.3563">Register Team</text><text fill="#000000" font-family="sans-serif" font-size="9.6" lengthAdjust="spacing" textLength="2.4" x="632.4" y="973.125">&#160;</text><polygon fill="#181818" points="337.6,998.4,329.6,1001.6,337.6,1004.8,334.4,1001.6" style="stroke:#181818;stroke-width:0.8000000000000002;"/><line style="stroke:#181818;stroke-width:0.8000000000000002;stroke-dasharray:2.0,2.0;" x1="332.8" x2="632.8" y1="1001.6" y2="1001.6"/><text fill="#000000" font-family="sans-serif" font-size="10.4" font-weight="bold" lengthAdjust="spacing" textLength="11.2" x="342.4" y="997.3898">22</text><text fill="#000000" font-family="sans-serif" font-size="10.4" lengthAdjust="spacing" textLength="23.2" x="356.8" y="997.3898">team</text><polygon fill="#181818" points="97.6,1023.4328,89.6,1026.6328,97.6,1029.8328,94.4,1026.6328" style="stroke:#181818;stroke-width:0.8000000000000002;"/><line style="stroke:#181818;stroke-width:0.8000000000000002;stroke-dasharray:2.0,2.0;" x1="92.8" x2="324" y1="1026.6328" y2="1026.6328"/><text fill="#000000" font-family="sans-serif" font-size="10.4" font-weight="bold" lengthAdjust="spacing" textLength="11.2" x="102.4" y="1022.4227">23</text><text fill="#000000" font-family="sans-serif" font-size="10.4" lengthAdjust="spacing" textLength="112.8" x="116.8" y="1022.4227">displays operation result</text><!--SRC=[hLRRRjim37ttLn1zMLAqFv270Lk0jGNQRKZR3r0S9jOYYuOe9ys-VfISEhxbqcrwyeKw9CyveirhRGlbL0uvMKepHpc2ToKcNByfLBfMAtpsEuFWCFNAhampW3EreAssArWgmvWaglHaotoEBaa-PNg1i2JoStfBLEh9mTLzcIiBCsGgNOeCJyfA1dS5Yk5-zfG8hjUfBfJrS3MvGujEUNn1bRy-nA3NXnCnKxBUaJ5xmEdBx36H9RdrHa9YXWJsIsxWzhC0maI2roobEb3WCNJkg21MvX1TOqW1zSEmPB-WX5JNruAKEfIeVeZ4X8IDLBcsEYzpK7O1kNgBrp4vwzyDW0KEfcvMZzQZuqi1B-X4C5VedzVQ61wDMq4Ebq0RT1Mvq5btw25kWqVDlWsFKfRiRZ-iYwcqwkB5OcxV- -I0786RCGs2-Y26g81jfiN0gPX3snBvX3YSqPQhF60aKUGoAkO968sS0I2BfyHf2bFjO75LX4oEqjztYEHxBxWAEvDAMTu64uXjjOIXsO5upE9ALNV9IUc3De6gTaKDCnpEsC_zqHY9tQPorjJy9hZj_J8s-btboEFaZCXHct0IfBFiiB5TMUM0dYs_xaBegDuqxdldj5FRRlqn_oL2zJ46FNk1RrlUtPT-iC15pkrBCa17cc6w_h9HMhWtM6b0eXIvS6x_af8Q3rg0_u-TBZDgi87BgUgGKfsw5jOtSi6xe-5CUzVo-2EZwJoNquo8EoI2L0AXb0-msJDIx0yN_yHMUqGT0piAD30rkv_EIuPMcc8Xyr4uaSvBbX-2FiRHWLaJud0binehYGSREZkBZgivsuDtL1jKgqsjxydSfNFuEpI1XUR2g9qGKuIvgybABYwD7oArSHl_R_u0]--></g></svg>