<?xml version="1.0" encoding="us-ascii" standalone="no"?><svg xmlns="http://www.w3.org/2000/svg" xmlns:xlink="http://www.w3.org/1999/xlink" contentStyleType="text/css" height="379px" preserveAspectRatio="none" style="width:745px;height:379px;background:#FFFFFF;" version="1.1" viewBox="0 0 745 379" width="745px" zoomAndPan="magnify"><defs/><g><rect fill="#FFFFFF" height="222.4551" style="stroke:#181818;stroke-width:1.0;" width="10" x="233" y="90.5332"/><rect fill="#FFFFFF" height="149.873" style="stroke:#181818;stroke-width:1.0;" width="10" x="453" y="148.1152"/><rect fill="#FFFFFF" height="42.291" style="stroke:#181818;stroke-width:1.0;" width="10" x="458" y="187.4063"/><rect fill="#FFFFFF" height="30" style="stroke:#181818;stroke-width:1.0;" width="10" x="664" y="267.9883"/><rect fill="none" height="200.4551" style="stroke:#000000;stroke-width:1.5;" width="599.5" x="140" y="105.5332"/><line style="stroke:#181818;stroke-width:0.5;stroke-dasharray:5.0,5.0;" x1="238" x2="238" y1="57.2422" y2="322.9883"/><line style="stroke:#181818;stroke-width:0.5;stroke-dasharray:5.0,5.0;" x1="457.5" x2="457.5" y1="57.2422" y2="322.9883"/><line style="stroke:#181818;stroke-width:0.5;stroke-dasharray:5.0,5.0;" x1="668.5" x2="668.5" y1="57.2422" y2="322.9883"/><rect fill="#E3E3E3" height="32.6211" rx="2.5" ry="2.5" style="stroke:#181818;stroke-width:0.5;" width="176" x="150" y="23.6211"/><text fill="#000000" font-family="sans-serif" font-size="14" lengthAdjust="spacing" textLength="162" x="157" y="45.7285">:GenerateTeamController</text><rect fill="#E3E3E3" height="32.6211" rx="2.5" ry="2.5" style="stroke:#181818;stroke-width:0.5;" width="176" x="150" y="321.9883"/><text fill="#000000" font-family="sans-serif" font-size="14" lengthAdjust="spacing" textLength="162" x="157" y="344.0957">:GenerateTeamController</text><rect fill="#E3E3E3" height="51.2422" rx="2.5" ry="2.5" style="stroke:#181818;stroke-width:0.5;" width="109" x="403.5" y="5"/><text fill="#000000" font-family="sans-serif" font-size="14" lengthAdjust="spacing" textLength="95" x="410.5" y="27.1074">skillRepository:</text><text fill="#000000" font-family="sans-serif" font-size="14" lengthAdjust="spacing" textLength="93" x="411.5" y="45.7285">SkillRepository</text><rect fill="#E3E3E3" height="51.2422" rx="2.5" ry="2.5" style="stroke:#181818;stroke-width:0.5;" width="109" x="403.5" y="321.9883"/><text fill="#000000" font-family="sans-serif" font-size="14" lengthAdjust="spacing" textLength="95" x="410.5" y="344.0957">skillRepository:</text><text fill="#000000" font-family="sans-serif" font-size="14" lengthAdjust="spacing" textLength="93" x="411.5" y="362.7168">SkillRepository</text><rect fill="#E3E3E3" height="51.2422" rx="2.5" ry="2.5" style="stroke:#181818;stroke-width:0.5;" width="121" x="608.5" y="5"/><text fill="#000000" font-family="sans-serif" font-size="14" lengthAdjust="spacing" textLength="107" x="615.5" y="27.1074">selectedSkillsList</text><text fill="#000000" font-family="sans-serif" font-size="14" lengthAdjust="spacing" textLength="63" x="637.5" y="45.7285">List&lt;Skill&gt;</text><rect fill="#E3E3E3" height="51.2422" rx="2.5" ry="2.5" style="stroke:#181818;stroke-width:0.5;" width="121" x="608.5" y="321.9883"/><text fill="#000000" font-family="sans-serif" font-size="14" lengthAdjust="spacing" textLength="107" x="615.5" y="344.0957">selectedSkillsList</text><text fill="#000000" font-family="sans-serif" font-size="14" lengthAdjust="spacing" textLength="63" x="637.5" y="362.7168">List&lt;Skill&gt;</text><rect fill="#FFFFFF" height="222.4551" style="stroke:#181818;stroke-width:1.0;" width="10" x="233" y="90.5332"/><rect fill="#FFFFFF" height="149.873" style="stroke:#181818;stroke-width:1.0;" width="10" x="453" y="148.1152"/><rect fill="#FFFFFF" height="42.291" style="stroke:#181818;stroke-width:1.0;" width="10" x="458" y="187.4063"/><rect fill="#FFFFFF" height="30" style="stroke:#181818;stroke-width:1.0;" width="10" x="664" y="267.9883"/><polygon fill="#181818" points="221,86.5332,231,90.5332,221,94.5332,225,90.5332" style="stroke:#181818;stroke-width:1.0;"/><line style="stroke:#181818;stroke-width:1.0;" x1="0" x2="227" y1="90.5332" y2="90.5332"/><text fill="#000000" font-family="sans-serif" font-size="13" font-weight="bold" lengthAdjust="spacing" textLength="14" x="7" y="85.2705">11</text><text fill="#000000" font-family="sans-serif" font-size="13" lengthAdjust="spacing" textLength="196" x="25" y="85.2705">addSelectedSkillName(skillName)</text><path d="M140,105.5332 L351,105.5332 L351,114.8242 L341,124.8242 L140,124.8242 L140,105.5332 " fill="#EEEEEE" style="stroke:#000000;stroke-width:1.5;"/><rect fill="none" height="200.4551" style="stroke:#000000;stroke-width:1.5;" width="599.5" x="140" y="105.5332"/><text fill="#000000" font-family="sans-serif" font-size="13" font-weight="bold" lengthAdjust="spacing" textLength="166" x="155" y="120.5615">Create Selected Skills List</text><polygon fill="#181818" points="441,144.1152,451,148.1152,441,152.1152,445,148.1152" style="stroke:#181818;stroke-width:1.0;"/><line style="stroke:#181818;stroke-width:1.0;" x1="243" x2="447" y1="148.1152" y2="148.1152"/><text fill="#000000" font-family="sans-serif" font-size="13" font-weight="bold" lengthAdjust="spacing" textLength="25" x="250" y="142.8525">11.1</text><text fill="#000000" font-family="sans-serif" font-size="13" lengthAdjust="spacing" textLength="162" x="279" y="142.8525">addSelectedSkill(skillName)</text><line style="stroke:#181818;stroke-width:1.0;" x1="463" x2="510" y1="174.4063" y2="174.4063"/><line style="stroke:#181818;stroke-width:1.0;" x1="510" x2="510" y1="174.4063" y2="187.4063"/><line style="stroke:#181818;stroke-width:1.0;" x1="469" x2="510" y1="187.4063" y2="187.4063"/><polygon fill="#181818" points="479,183.4063,469,187.4063,479,191.4063,475,187.4063" style="stroke:#181818;stroke-width:1.0;"/><text fill="#000000" font-family="sans-serif" font-size="13" font-weight="bold" lengthAdjust="spacing" textLength="25" x="475" y="169.1436">11.2</text><text fill="#000000" font-family="sans-serif" font-size="13" lengthAdjust="spacing" textLength="158" x="504" y="169.1436">getSkillByName(skillName)</text><line style="stroke:#181818;stroke-width:1.0;stroke-dasharray:2.0,2.0;" x1="468" x2="510" y1="228.6973" y2="228.6973"/><line style="stroke:#181818;stroke-width:1.0;stroke-dasharray:2.0,2.0;" x1="510" x2="510" y1="228.6973" y2="241.6973"/><line style="stroke:#181818;stroke-width:1.0;stroke-dasharray:2.0,2.0;" x1="463" x2="510" y1="241.6973" y2="241.6973"/><polygon fill="#181818" points="473,237.6973,463,241.6973,473,245.6973,469,241.6973" style="stroke:#181818;stroke-width:1.0;"/><text fill="#000000" font-family="sans-serif" font-size="13" font-weight="bold" lengthAdjust="spacing" textLength="25" x="475" y="223.4346">11.3</text><text fill="#000000" font-family="sans-serif" font-size="13" lengthAdjust="spacing" textLength="23" x="504" y="223.4346">skill</text><polygon fill="#181818" points="652,263.9883,662,267.9883,652,271.9883,656,267.9883" style="stroke:#181818;stroke-width:1.0;"/><line style="stroke:#181818;stroke-width:1.0;" x1="463" x2="658" y1="267.9883" y2="267.9883"/><text fill="#000000" font-family="sans-serif" font-size="13" font-weight="bold" lengthAdjust="spacing" textLength="25" x="470" y="262.7256">11.4</text><text fill="#000000" font-family="sans-serif" font-size="13" lengthAdjust="spacing" textLength="52" x="499" y="262.7256">add(skill)</text><!--SRC=[hL8zRuCm4DtzAqwPsg6LM56LeGnTeWmXOvOhlX8hnaRsqOf_Np0Dma1JLUqD5Ze_lu_Z_4MP6XrMK5bZYxEp5G6xXeGVRseiBbXIpgqcS5Gmcb9F0VwCqdueKy8RQaz2OCFMDDKhEKWI8JeKgqBLQ1WswGiPSiXq9AmoQzXPhSbj03ranyCkHdSYMX-ejbwnTMrwCddS2UzclHa5wSupoG3oE-NvPFhpAJIsWM294U9X6_n02YXbFWNiiQ8xV_sw5_1LKUp7PEoNpZOrP8wwr71b6anx6CH6YeBLUmyBenZRVGKpdQbPsAMzDMiHztnS4Qgl6M1LjIGElUVskt7yW-wQS51QF9NqftZB1HZ- -v3hHgQrpRdXxPVm7wEGaSDwnLSJYdvjFW40]--></g></svg>