<?xml version="1.0" encoding="us-ascii" standalone="no"?><svg xmlns="http://www.w3.org/2000/svg" xmlns:xlink="http://www.w3.org/1999/xlink" contentStyleType="text/css" height="699.6px" preserveAspectRatio="none" style="width:915px;height:699px;background:#FFFFFF;" version="1.1" viewBox="0 0 915 699" width="915.6px" zoomAndPan="magnify"><defs/><g><text fill="#000000" font-family="sans-serif" font-size="8.4" font-weight="bold" lengthAdjust="spacing" textLength="178.8" x="369.6" y="17.1211">US024 - Postpone an entry in the agenda</text><rect fill="#FFFFFF" height="563.2828" style="stroke:#181818;stroke-width:0.6;" width="6" x="10.8" y="77.3859"/><rect fill="#FFFFFF" height="183.1699" style="stroke:#181818;stroke-width:0.6;" width="6" x="280.2" y="90.1723"/><rect fill="#FFFFFF" height="183.6633" style="stroke:#181818;stroke-width:0.6;" width="6" x="280.2" y="290.9285"/><rect fill="#FFFFFF" height="17.5863" style="stroke:#181818;stroke-width:0.6;" width="6" x="280.2" y="492.1781"/><rect fill="#FFFFFF" height="113.318" style="stroke:#181818;stroke-width:0.6;" width="6" x="280.2" y="527.3508"/><rect fill="#FFFFFF" height="123.1043" style="stroke:#181818;stroke-width:0.6;" width="6" x="444" y="132.6516"/><rect fill="#FFFFFF" height="148.4906" style="stroke:#181818;stroke-width:0.6;" width="6" x="444" y="308.5148"/><rect fill="#FFFFFF" height="78.1453" style="stroke:#181818;stroke-width:0.6;" width="6" x="444" y="544.9371"/><rect fill="#FFFFFF" height="17.5863" style="stroke:#181818;stroke-width:0.6;" width="6" x="537" y="150.2379"/><rect fill="#FFFFFF" height="17.5863" style="stroke:#181818;stroke-width:0.6;" width="6" x="537" y="326.1012"/><rect fill="#FFFFFF" height="17.5863" style="stroke:#181818;stroke-width:0.6;" width="6" x="604.8" y="185.4105"/><rect fill="#FFFFFF" height="17.5863" style="stroke:#181818;stroke-width:0.6;" width="6" x="604.8" y="361.2738"/><rect fill="#FFFFFF" height="17.5863" style="stroke:#181818;stroke-width:0.6;" width="6" x="693.3" y="220.5832"/><rect fill="#FFFFFF" height="42.9727" style="stroke:#181818;stroke-width:0.6;" width="6" x="787.8" y="396.4465"/><rect fill="#FFFFFF" height="42.9727" style="stroke:#181818;stroke-width:0.6;" width="6" x="787.8" y="562.5234"/><line style="stroke:#181818;stroke-width:0.3;stroke-dasharray:5.0,5.0;" x1="13.8" x2="13.8" y1="71.3859" y2="651.4688"/><line style="stroke:#181818;stroke-width:0.3;stroke-dasharray:5.0,5.0;" x1="282.9" x2="282.9" y1="71.3859" y2="651.4688"/><line style="stroke:#181818;stroke-width:0.3;stroke-dasharray:5.0,5.0;" x1="446.7" x2="446.7" y1="113.4188" y2="651.4688"/><line style="stroke:#181818;stroke-width:0.3;stroke-dasharray:5.0,5.0;" x1="539.7" x2="539.7" y1="71.3859" y2="651.4688"/><line style="stroke:#181818;stroke-width:0.3;stroke-dasharray:5.0,5.0;" x1="607.5" x2="607.5" y1="71.3859" y2="651.4688"/><line style="stroke:#181818;stroke-width:0.3;stroke-dasharray:5.0,5.0;" x1="696.3" x2="696.3" y1="71.3859" y2="651.4688"/><line style="stroke:#181818;stroke-width:0.3;stroke-dasharray:5.0,5.0;" x1="790.5" x2="790.5" y1="71.3859" y2="651.4688"/><text fill="#000000" font-family="sans-serif" font-size="8.4" lengthAdjust="spacing" textLength="18" x="3" y="69.6141">GSM</text><ellipse cx="13.8" cy="30.593" fill="#E3E3E3" rx="4.8" ry="4.8" style="stroke:#181818;stroke-width:0.3;"/><path d="M13.8,35.393 L13.8,51.593 M6,40.193 L21.6,40.193 M13.8,51.593 L6,60.593 M13.8,51.593 L21.6,60.593 " fill="none" style="stroke:#181818;stroke-width:0.3;"/><text fill="#000000" font-family="sans-serif" font-size="8.4" lengthAdjust="spacing" textLength="18" x="3" y="658.9898">GSM</text><ellipse cx="13.8" cy="665.8617" fill="#E3E3E3" rx="4.8" ry="4.8" style="stroke:#181818;stroke-width:0.3;"/><path d="M13.8,670.6617 L13.8,686.8617 M6,675.4617 L21.6,675.4617 M13.8,686.8617 L6,695.8617 M13.8,686.8617 L21.6,695.8617 " fill="none" style="stroke:#181818;stroke-width:0.3;"/><rect fill="#E3E3E3" height="18.293" rx="1.5" ry="1.5" style="stroke:#181818;stroke-width:0.3;" width="78.6" x="243.9" y="52.493"/><text fill="#000000" font-family="sans-serif" font-size="8.4" lengthAdjust="spacing" textLength="70.2" x="248.1" y="64.8141">:PostponeEntryUI</text><rect fill="#E3E3E3" height="18.293" rx="1.5" ry="1.5" style="stroke:#181818;stroke-width:0.3;" width="78.6" x="243.9" y="650.8688"/><text fill="#000000" font-family="sans-serif" font-size="8.4" lengthAdjust="spacing" textLength="70.2" x="248.1" y="663.1898">:PostponeEntryUI</text><rect fill="#E3E3E3" height="18.293" rx="1.5" ry="1.5" style="stroke:#181818;stroke-width:0.3;" width="112.2" x="390.9" y="650.8688"/><text fill="#000000" font-family="sans-serif" font-size="8.4" lengthAdjust="spacing" textLength="103.8" x="395.1" y="663.1898">:PostponeEntryController</text><rect fill="#E3E3E3" height="18.293" rx="1.5" ry="1.5" style="stroke:#181818;stroke-width:0.3;" width="61.8" x="509.1" y="52.493"/><text fill="#000000" font-family="sans-serif" font-size="8.4" lengthAdjust="spacing" textLength="53.4" x="513.3" y="64.8141">:Repositories</text><rect fill="#E3E3E3" height="18.293" rx="1.5" ry="1.5" style="stroke:#181818;stroke-width:0.3;" width="61.8" x="509.1" y="650.8688"/><text fill="#000000" font-family="sans-serif" font-size="8.4" lengthAdjust="spacing" textLength="53.4" x="513.3" y="663.1898">:Repositories</text><rect fill="#E3E3E3" height="28.1859" rx="1.5" ry="1.5" style="stroke:#181818;stroke-width:0.3;" width="61.8" x="576.9" y="42.6"/><text fill="#000000" font-family="sans-serif" font-size="8.4" lengthAdjust="spacing" textLength="49.2" x="583.2" y="54.9211">repositories</text><text fill="#000000" font-family="sans-serif" font-size="8.4" lengthAdjust="spacing" textLength="53.4" x="581.1" y="64.8141">:Repositories</text><rect fill="#E3E3E3" height="28.1859" rx="1.5" ry="1.5" style="stroke:#181818;stroke-width:0.3;" width="61.8" x="576.9" y="650.8688"/><text fill="#000000" font-family="sans-serif" font-size="8.4" lengthAdjust="spacing" textLength="49.2" x="583.2" y="663.1898">repositories</text><text fill="#000000" font-family="sans-serif" font-size="8.4" lengthAdjust="spacing" textLength="53.4" x="581.1" y="673.0828">:Repositories</text><rect fill="#E3E3E3" height="28.1859" rx="1.5" ry="1.5" style="stroke:#181818;stroke-width:0.3;" width="103.2" x="644.7" y="42.6"/><text fill="#000000" font-family="sans-serif" font-size="8.4" lengthAdjust="spacing" textLength="91.8" x="650.4" y="54.9211">greenSpaceRepository</text><text fill="#000000" font-family="sans-serif" font-size="8.4" lengthAdjust="spacing" textLength="94.8" x="648.9" y="64.8141">:GreenSpaceRepository</text><rect fill="#E3E3E3" height="28.1859" rx="1.5" ry="1.5" style="stroke:#181818;stroke-width:0.3;" width="103.2" x="644.7" y="650.8688"/><text fill="#000000" font-family="sans-serif" font-size="8.4" lengthAdjust="spacing" textLength="91.8" x="650.4" y="663.1898">greenSpaceRepository</text><text fill="#000000" font-family="sans-serif" font-size="8.4" lengthAdjust="spacing" textLength="94.8" x="648.9" y="673.0828">:GreenSpaceRepository</text><rect fill="#E3E3E3" height="28.1859" rx="1.5" ry="1.5" style="stroke:#181818;stroke-width:0.3;" width="73.8" x="753.9" y="42.6"/><text fill="#000000" font-family="sans-serif" font-size="8.4" lengthAdjust="spacing" textLength="60.6" x="760.5" y="54.9211">taskRepository</text><text fill="#000000" font-family="sans-serif" font-size="8.4" lengthAdjust="spacing" textLength="65.4" x="758.1" y="64.8141">:TaskRepository</text><rect fill="#E3E3E3" height="28.1859" rx="1.5" ry="1.5" style="stroke:#181818;stroke-width:0.3;" width="73.8" x="753.9" y="650.8688"/><text fill="#000000" font-family="sans-serif" font-size="8.4" lengthAdjust="spacing" textLength="60.6" x="760.5" y="663.1898">taskRepository</text><text fill="#000000" font-family="sans-serif" font-size="8.4" lengthAdjust="spacing" textLength="65.4" x="758.1" y="673.0828">:TaskRepository</text><rect fill="#FFFFFF" height="563.2828" style="stroke:#181818;stroke-width:0.6;" width="6" x="10.8" y="77.3859"/><rect fill="#FFFFFF" height="183.1699" style="stroke:#181818;stroke-width:0.6;" width="6" x="280.2" y="90.1723"/><rect fill="#FFFFFF" height="183.6633" style="stroke:#181818;stroke-width:0.6;" width="6" x="280.2" y="290.9285"/><rect fill="#FFFFFF" height="17.5863" style="stroke:#181818;stroke-width:0.6;" width="6" x="280.2" y="492.1781"/><rect fill="#FFFFFF" height="113.318" style="stroke:#181818;stroke-width:0.6;" width="6" x="280.2" y="527.3508"/><rect fill="#FFFFFF" height="123.1043" style="stroke:#181818;stroke-width:0.6;" width="6" x="444" y="132.6516"/><rect fill="#FFFFFF" height="148.4906" style="stroke:#181818;stroke-width:0.6;" width="6" x="444" y="308.5148"/><rect fill="#FFFFFF" height="78.1453" style="stroke:#181818;stroke-width:0.6;" width="6" x="444" y="544.9371"/><rect fill="#FFFFFF" height="17.5863" style="stroke:#181818;stroke-width:0.6;" width="6" x="537" y="150.2379"/><rect fill="#FFFFFF" height="17.5863" style="stroke:#181818;stroke-width:0.6;" width="6" x="537" y="326.1012"/><rect fill="#FFFFFF" height="17.5863" style="stroke:#181818;stroke-width:0.6;" width="6" x="604.8" y="185.4105"/><rect fill="#FFFFFF" height="17.5863" style="stroke:#181818;stroke-width:0.6;" width="6" x="604.8" y="361.2738"/><rect fill="#FFFFFF" height="17.5863" style="stroke:#181818;stroke-width:0.6;" width="6" x="693.3" y="220.5832"/><rect fill="#FFFFFF" height="42.9727" style="stroke:#181818;stroke-width:0.6;" width="6" x="787.8" y="396.4465"/><rect fill="#FFFFFF" height="42.9727" style="stroke:#181818;stroke-width:0.6;" width="6" x="787.8" y="562.5234"/><polygon fill="#181818" points="273,87.7723,279,90.1723,273,92.5723,275.4,90.1723" style="stroke:#181818;stroke-width:0.6;"/><line style="stroke:#181818;stroke-width:0.6;" x1="16.8" x2="276.6" y1="90.1723" y2="90.1723"/><text fill="#000000" font-family="sans-serif" font-size="7.8" font-weight="bold" lengthAdjust="spacing" textLength="5.4" x="21" y="87.327">1</text><text fill="#000000" font-family="sans-serif" font-size="7.8" lengthAdjust="spacing" textLength="151.8" x="28.8" y="87.327">asks to postpone an entry in the agenda</text><polygon fill="#181818" points="383.7,105.3586,389.7,107.7586,383.7,110.1586,386.1,107.7586" style="stroke:#181818;stroke-width:0.6;"/><line style="stroke:#181818;stroke-width:0.6;" x1="286.2" x2="387.3" y1="107.7586" y2="107.7586"/><text fill="#000000" font-family="sans-serif" font-size="7.8" font-weight="bold" lengthAdjust="spacing" textLength="5.4" x="290.4" y="104.9133">2</text><text fill="#000000" font-family="sans-serif" font-size="7.8" lengthAdjust="spacing" textLength="22.8" x="298.2" y="104.9133">create</text><rect fill="#E3E3E3" height="18.293" rx="1.5" ry="1.5" style="stroke:#181818;stroke-width:0.3;" width="112.2" x="390.9" y="94.9723"/><text fill="#000000" font-family="sans-serif" font-size="8.4" lengthAdjust="spacing" textLength="103.8" x="395.1" y="107.2934">:PostponeEntryController</text><polygon fill="#181818" points="436.8,130.2516,442.8,132.6516,436.8,135.0516,439.2,132.6516" style="stroke:#181818;stroke-width:0.6;"/><line style="stroke:#181818;stroke-width:0.6;" x1="286.2" x2="440.4" y1="132.6516" y2="132.6516"/><text fill="#000000" font-family="sans-serif" font-size="7.8" font-weight="bold" lengthAdjust="spacing" textLength="5.4" x="290.4" y="129.8063">3</text><text fill="#000000" font-family="sans-serif" font-size="7.8" lengthAdjust="spacing" textLength="64.2" x="298.2" y="129.8063">getGreenSpaces()</text><polygon fill="#181818" points="529.8,147.8379,535.8,150.2379,529.8,152.6379,532.2,150.2379" style="stroke:#181818;stroke-width:0.6;"/><line style="stroke:#181818;stroke-width:0.6;" x1="450" x2="533.4" y1="150.2379" y2="150.2379"/><text fill="#000000" font-family="sans-serif" font-size="7.8" font-weight="bold" lengthAdjust="spacing" textLength="5.4" x="454.2" y="147.3926">4</text><text fill="#000000" font-family="sans-serif" font-size="7.8" lengthAdjust="spacing" textLength="48.6" x="462" y="147.3926">getInstance()</text><polygon fill="#181818" points="456.6,165.4242,450.6,167.8242,456.6,170.2242,454.2,167.8242" style="stroke:#181818;stroke-width:0.6;"/><line style="stroke:#181818;stroke-width:0.6;stroke-dasharray:2.0,2.0;" x1="453" x2="539.4" y1="167.8242" y2="167.8242"/><text fill="#000000" font-family="sans-serif" font-size="7.8" font-weight="bold" lengthAdjust="spacing" textLength="5.4" x="460.2" y="164.9789">5</text><text fill="#000000" font-family="sans-serif" font-size="7.8" lengthAdjust="spacing" textLength="45" x="468" y="164.9789">repositories</text><polygon fill="#181818" points="597.6,183.0105,603.6,185.4105,597.6,187.8105,600,185.4105" style="stroke:#181818;stroke-width:0.6;"/><line style="stroke:#181818;stroke-width:0.6;" x1="450" x2="601.2" y1="185.4105" y2="185.4105"/><text fill="#000000" font-family="sans-serif" font-size="7.8" font-weight="bold" lengthAdjust="spacing" textLength="5.4" x="454.2" y="182.5652">6</text><text fill="#000000" font-family="sans-serif" font-size="7.8" lengthAdjust="spacing" textLength="100.2" x="462" y="182.5652">getGreenSpaceRepository()</text><polygon fill="#181818" points="456.6,200.5969,450.6,202.9969,456.6,205.3969,454.2,202.9969" style="stroke:#181818;stroke-width:0.6;"/><line style="stroke:#181818;stroke-width:0.6;stroke-dasharray:2.0,2.0;" x1="453" x2="607.2" y1="202.9969" y2="202.9969"/><text fill="#000000" font-family="sans-serif" font-size="7.8" font-weight="bold" lengthAdjust="spacing" textLength="5.4" x="460.2" y="200.1516">7</text><text fill="#000000" font-family="sans-serif" font-size="7.8" lengthAdjust="spacing" textLength="82.8" x="468" y="200.1516">greenSpaceRepository</text><polygon fill="#181818" points="686.1,218.1832,692.1,220.5832,686.1,222.9832,688.5,220.5832" style="stroke:#181818;stroke-width:0.6;"/><line style="stroke:#181818;stroke-width:0.6;" x1="450" x2="689.7" y1="220.5832" y2="220.5832"/><text fill="#000000" font-family="sans-serif" font-size="7.8" font-weight="bold" lengthAdjust="spacing" textLength="5.4" x="454.2" y="217.7379">8</text><text fill="#000000" font-family="sans-serif" font-size="7.8" lengthAdjust="spacing" textLength="64.2" x="462" y="217.7379">getGreenSpaces()</text><polygon fill="#181818" points="456.6,235.7695,450.6,238.1695,456.6,240.5695,454.2,238.1695" style="stroke:#181818;stroke-width:0.6;"/><line style="stroke:#181818;stroke-width:0.6;stroke-dasharray:2.0,2.0;" x1="453" x2="695.7" y1="238.1695" y2="238.1695"/><text fill="#000000" font-family="sans-serif" font-size="7.8" font-weight="bold" lengthAdjust="spacing" textLength="5.4" x="460.2" y="235.3242">9</text><text fill="#000000" font-family="sans-serif" font-size="7.8" lengthAdjust="spacing" textLength="46.8" x="468" y="235.3242">greenSpaces</text><polygon fill="#181818" points="292.8,253.3559,286.8,255.7559,292.8,258.1559,290.4,255.7559" style="stroke:#181818;stroke-width:0.6;"/><line style="stroke:#181818;stroke-width:0.6;stroke-dasharray:2.0,2.0;" x1="289.2" x2="446.4" y1="255.7559" y2="255.7559"/><text fill="#000000" font-family="sans-serif" font-size="7.8" font-weight="bold" lengthAdjust="spacing" textLength="10.8" x="296.4" y="252.9105">10</text><text fill="#000000" font-family="sans-serif" font-size="7.8" lengthAdjust="spacing" textLength="46.8" x="309.6" y="252.9105">greenSpaces</text><polygon fill="#181818" points="23.4,270.9422,17.4,273.3422,23.4,275.7422,21,273.3422" style="stroke:#181818;stroke-width:0.6;"/><line style="stroke:#181818;stroke-width:0.6;stroke-dasharray:2.0,2.0;" x1="19.8" x2="282.6" y1="273.3422" y2="273.3422"/><text fill="#000000" font-family="sans-serif" font-size="7.8" font-weight="bold" lengthAdjust="spacing" textLength="10.8" x="27" y="270.4969">11</text><text fill="#000000" font-family="sans-serif" font-size="7.8" lengthAdjust="spacing" textLength="151.2" x="40.2" y="270.4969">shows list of green spaces to select one</text><polygon fill="#181818" points="273,288.5285,279,290.9285,273,293.3285,275.4,290.9285" style="stroke:#181818;stroke-width:0.6;"/><line style="stroke:#181818;stroke-width:0.6;" x1="16.8" x2="276.6" y1="290.9285" y2="290.9285"/><text fill="#000000" font-family="sans-serif" font-size="7.8" font-weight="bold" lengthAdjust="spacing" textLength="10.8" x="21" y="288.0832">12</text><text fill="#000000" font-family="sans-serif" font-size="7.8" lengthAdjust="spacing" textLength="88.2" x="34.2" y="288.0832">selects the green space</text><polygon fill="#181818" points="436.8,306.1148,442.8,308.5148,436.8,310.9148,439.2,308.5148" style="stroke:#181818;stroke-width:0.6;"/><line style="stroke:#181818;stroke-width:0.6;" x1="286.2" x2="440.4" y1="308.5148" y2="308.5148"/><text fill="#000000" font-family="sans-serif" font-size="7.8" font-weight="bold" lengthAdjust="spacing" textLength="10.8" x="290.4" y="305.6695">13</text><text fill="#000000" font-family="sans-serif" font-size="7.8" lengthAdjust="spacing" textLength="133.2" x="303.6" y="305.6695">getTasksByGreenSpace(greenSpace)</text><polygon fill="#181818" points="529.8,323.7012,535.8,326.1012,529.8,328.5012,532.2,326.1012" style="stroke:#181818;stroke-width:0.6;"/><line style="stroke:#181818;stroke-width:0.6;" x1="450" x2="533.4" y1="326.1012" y2="326.1012"/><text fill="#000000" font-family="sans-serif" font-size="7.8" font-weight="bold" lengthAdjust="spacing" textLength="10.8" x="454.2" y="323.2559">14</text><text fill="#000000" font-family="sans-serif" font-size="7.8" lengthAdjust="spacing" textLength="48.6" x="467.4" y="323.2559">getInstance()</text><polygon fill="#181818" points="456.6,341.2875,450.6,343.6875,456.6,346.0875,454.2,343.6875" style="stroke:#181818;stroke-width:0.6;"/><line style="stroke:#181818;stroke-width:0.6;stroke-dasharray:2.0,2.0;" x1="453" x2="539.4" y1="343.6875" y2="343.6875"/><text fill="#000000" font-family="sans-serif" font-size="7.8" font-weight="bold" lengthAdjust="spacing" textLength="10.8" x="460.2" y="340.8422">15</text><text fill="#000000" font-family="sans-serif" font-size="7.8" lengthAdjust="spacing" textLength="45" x="473.4" y="340.8422">repositories</text><polygon fill="#181818" points="597.6,358.8738,603.6,361.2738,597.6,363.6738,600,361.2738" style="stroke:#181818;stroke-width:0.6;"/><line style="stroke:#181818;stroke-width:0.6;" x1="450" x2="601.2" y1="361.2738" y2="361.2738"/><text fill="#000000" font-family="sans-serif" font-size="7.8" font-weight="bold" lengthAdjust="spacing" textLength="10.8" x="454.2" y="358.4285">16</text><text fill="#000000" font-family="sans-serif" font-size="7.8" lengthAdjust="spacing" textLength="75" x="467.4" y="358.4285">getTaskRepository()</text><polygon fill="#181818" points="456.6,376.4602,450.6,378.8602,456.6,381.2602,454.2,378.8602" style="stroke:#181818;stroke-width:0.6;"/><line style="stroke:#181818;stroke-width:0.6;stroke-dasharray:2.0,2.0;" x1="453" x2="607.2" y1="378.8602" y2="378.8602"/><text fill="#000000" font-family="sans-serif" font-size="7.8" font-weight="bold" lengthAdjust="spacing" textLength="10.8" x="460.2" y="376.0148">17</text><text fill="#000000" font-family="sans-serif" font-size="7.8" lengthAdjust="spacing" textLength="56.4" x="473.4" y="376.0148">taskRepository</text><polygon fill="#181818" points="780.6,394.0465,786.6,396.4465,780.6,398.8465,783,396.4465" style="stroke:#181818;stroke-width:0.6;"/><line style="stroke:#181818;stroke-width:0.6;" x1="450" x2="784.2" y1="396.4465" y2="396.4465"/><text fill="#000000" font-family="sans-serif" font-size="7.8" font-weight="bold" lengthAdjust="spacing" textLength="10.8" x="454.2" y="393.6012">18</text><text fill="#000000" font-family="sans-serif" font-size="7.8" lengthAdjust="spacing" textLength="133.2" x="467.4" y="393.6012">getTasksByGreenSpace(greenSpace)</text><line style="stroke:#181818;stroke-width:0.6;stroke-dasharray:2.0,2.0;" x1="793.8" x2="819" y1="414.0328" y2="414.0328"/><line style="stroke:#181818;stroke-width:0.6;stroke-dasharray:2.0,2.0;" x1="819" x2="819" y1="414.0328" y2="421.8328"/><line style="stroke:#181818;stroke-width:0.6;stroke-dasharray:2.0,2.0;" x1="794.4" x2="819" y1="421.8328" y2="421.8328"/><polygon fill="#181818" points="800.4,419.4328,794.4,421.8328,800.4,424.2328,798,421.8328" style="stroke:#181818;stroke-width:0.6;"/><text fill="#000000" font-family="sans-serif" font-size="7.8" font-weight="bold" lengthAdjust="spacing" textLength="10.8" x="798" y="411.1875">19</text><text fill="#000000" font-family="sans-serif" font-size="7.8" lengthAdjust="spacing" textLength="67.8" x="811.2" y="411.1875">getTasksUndone()</text><polygon fill="#181818" points="456.6,437.0191,450.6,439.4191,456.6,441.8191,454.2,439.4191" style="stroke:#181818;stroke-width:0.6;"/><line style="stroke:#181818;stroke-width:0.6;stroke-dasharray:2.0,2.0;" x1="453" x2="790.2" y1="439.4191" y2="439.4191"/><text fill="#000000" font-family="sans-serif" font-size="7.8" font-weight="bold" lengthAdjust="spacing" textLength="10.8" x="460.2" y="436.5738">20</text><text fill="#000000" font-family="sans-serif" font-size="7.8" lengthAdjust="spacing" textLength="72" x="473.4" y="436.5738">tasksByGreenSpace</text><polygon fill="#181818" points="292.8,454.6055,286.8,457.0055,292.8,459.4055,290.4,457.0055" style="stroke:#181818;stroke-width:0.6;"/><line style="stroke:#181818;stroke-width:0.6;stroke-dasharray:2.0,2.0;" x1="289.2" x2="446.4" y1="457.0055" y2="457.0055"/><text fill="#000000" font-family="sans-serif" font-size="7.8" font-weight="bold" lengthAdjust="spacing" textLength="10.8" x="296.4" y="454.1602">21</text><text fill="#000000" font-family="sans-serif" font-size="7.8" lengthAdjust="spacing" textLength="72" x="309.6" y="454.1602">tasksByGreenSpace</text><polygon fill="#181818" points="23.4,472.1918,17.4,474.5918,23.4,476.9918,21,474.5918" style="stroke:#181818;stroke-width:0.6;"/><line style="stroke:#181818;stroke-width:0.6;stroke-dasharray:2.0,2.0;" x1="19.8" x2="282.6" y1="474.5918" y2="474.5918"/><text fill="#000000" font-family="sans-serif" font-size="7.8" font-weight="bold" lengthAdjust="spacing" textLength="10.8" x="27" y="471.7465">22</text><text fill="#000000" font-family="sans-serif" font-size="7.8" lengthAdjust="spacing" textLength="235.8" x="40.2" y="471.7465">shows list of entries in the agenda of the selected green space</text><polygon fill="#181818" points="273,489.7781,279,492.1781,273,494.5781,275.4,492.1781" style="stroke:#181818;stroke-width:0.6;"/><line style="stroke:#181818;stroke-width:0.6;" x1="16.8" x2="276.6" y1="492.1781" y2="492.1781"/><text fill="#000000" font-family="sans-serif" font-size="7.8" font-weight="bold" lengthAdjust="spacing" textLength="10.8" x="21" y="489.3328">23</text><text fill="#000000" font-family="sans-serif" font-size="7.8" lengthAdjust="spacing" textLength="64.2" x="34.2" y="489.3328">selects one entry</text><polygon fill="#181818" points="23.4,507.3645,17.4,509.7645,23.4,512.1645,21,509.7645" style="stroke:#181818;stroke-width:0.6;"/><line style="stroke:#181818;stroke-width:0.6;stroke-dasharray:2.0,2.0;" x1="19.8" x2="282.6" y1="509.7645" y2="509.7645"/><text fill="#000000" font-family="sans-serif" font-size="7.8" font-weight="bold" lengthAdjust="spacing" textLength="10.8" x="27" y="506.9191">24</text><text fill="#000000" font-family="sans-serif" font-size="7.8" lengthAdjust="spacing" textLength="82.8" x="40.2" y="506.9191">requests the new date</text><polygon fill="#181818" points="273,524.9508,279,527.3508,273,529.7508,275.4,527.3508" style="stroke:#181818;stroke-width:0.6;"/><line style="stroke:#181818;stroke-width:0.6;" x1="16.8" x2="276.6" y1="527.3508" y2="527.3508"/><text fill="#000000" font-family="sans-serif" font-size="7.8" font-weight="bold" lengthAdjust="spacing" textLength="10.8" x="21" y="524.5055">25</text><text fill="#000000" font-family="sans-serif" font-size="7.8" lengthAdjust="spacing" textLength="70.8" x="34.2" y="524.5055">types the new date</text><polygon fill="#181818" points="436.8,542.5371,442.8,544.9371,436.8,547.3371,439.2,544.9371" style="stroke:#181818;stroke-width:0.6;"/><line style="stroke:#181818;stroke-width:0.6;" x1="286.2" x2="440.4" y1="544.9371" y2="544.9371"/><text fill="#000000" font-family="sans-serif" font-size="7.8" font-weight="bold" lengthAdjust="spacing" textLength="10.8" x="290.4" y="542.0918">26</text><text fill="#000000" font-family="sans-serif" font-size="7.8" lengthAdjust="spacing" textLength="112.8" x="303.6" y="542.0918">postponeEntry(task, newDate)</text><polygon fill="#181818" points="780.6,560.1234,786.6,562.5234,780.6,564.9234,783,562.5234" style="stroke:#181818;stroke-width:0.6;"/><line style="stroke:#181818;stroke-width:0.6;" x1="450" x2="784.2" y1="562.5234" y2="562.5234"/><text fill="#000000" font-family="sans-serif" font-size="7.8" font-weight="bold" lengthAdjust="spacing" textLength="10.8" x="454.2" y="559.6781">27</text><text fill="#000000" font-family="sans-serif" font-size="7.8" lengthAdjust="spacing" textLength="112.8" x="467.4" y="559.6781">postponeEntry(task, newDate)</text><line style="stroke:#181818;stroke-width:0.6;" x1="793.8" x2="819" y1="580.1098" y2="580.1098"/><line style="stroke:#181818;stroke-width:0.6;" x1="819" x2="819" y1="580.1098" y2="587.9098"/><line style="stroke:#181818;stroke-width:0.6;" x1="794.4" x2="819" y1="587.9098" y2="587.9098"/><polygon fill="#181818" points="800.4,585.5098,794.4,587.9098,800.4,590.3098,798,587.9098" style="stroke:#181818;stroke-width:0.6;"/><text fill="#000000" font-family="sans-serif" font-size="7.8" font-weight="bold" lengthAdjust="spacing" textLength="10.8" x="798" y="577.2645">28</text><text fill="#000000" font-family="sans-serif" font-size="7.8" lengthAdjust="spacing" textLength="100.2" x="811.2" y="577.2645">validateNewDate(newDate)</text><polygon fill="#181818" points="456.6,603.0961,450.6,605.4961,456.6,607.8961,454.2,605.4961" style="stroke:#181818;stroke-width:0.6;"/><line style="stroke:#181818;stroke-width:0.6;stroke-dasharray:2.0,2.0;" x1="453" x2="790.2" y1="605.4961" y2="605.4961"/><text fill="#000000" font-family="sans-serif" font-size="7.8" font-weight="bold" lengthAdjust="spacing" textLength="10.8" x="460.2" y="602.6508">29</text><text fill="#000000" font-family="sans-serif" font-size="7.8" lengthAdjust="spacing" textLength="19.2" x="473.4" y="602.6508">entry</text><polygon fill="#181818" points="292.8,620.6824,286.8,623.0824,292.8,625.4824,290.4,623.0824" style="stroke:#181818;stroke-width:0.6;"/><line style="stroke:#181818;stroke-width:0.6;stroke-dasharray:2.0,2.0;" x1="289.2" x2="446.4" y1="623.0824" y2="623.0824"/><text fill="#000000" font-family="sans-serif" font-size="7.8" font-weight="bold" lengthAdjust="spacing" textLength="10.8" x="296.4" y="620.2371">30</text><text fill="#000000" font-family="sans-serif" font-size="7.8" lengthAdjust="spacing" textLength="19.2" x="309.6" y="620.2371">entry</text><polygon fill="#181818" points="20.4,638.2688,14.4,640.6687,20.4,643.0688,18,640.6687" style="stroke:#181818;stroke-width:0.6;"/><line style="stroke:#181818;stroke-width:0.6;stroke-dasharray:2.0,2.0;" x1="16.8" x2="282.6" y1="640.6687" y2="640.6687"/><text fill="#000000" font-family="sans-serif" font-size="7.8" font-weight="bold" lengthAdjust="spacing" textLength="10.8" x="24" y="637.8234">31</text><text fill="#000000" font-family="sans-serif" font-size="7.8" lengthAdjust="spacing" textLength="102" x="37.2" y="637.8234">displays operation success</text><!--SRC=[dLR9Rjim4BthAmOvEK4D54LFFXHeqo0ma1P1RDzwOQM9J5WcLPAEeR_laB8MIjHYwn24vCoRxJtI-i15pXGxmb4A6U-LF28OTS98roSvYmyinOqfCWI5iM4YpTe6UiyIUUOYXNUMQOmYmmsPxZQVlto59RnARN8f49W054OLm0MOFQrJ50cB8dOoKfoEVr7H_x6H2kwUDx_kW6buEkQPB10ZYcHup7Cc3DojAiWd2xTREzFTUipeKT9VcMMedF7ZzksbO_w6kTISedFKpgRUA3RSLan9-YwgvV57z05UNxvlVOzK8OeDDHGRSF9y3cmxXD21ZsYOFdXOMs_3eVXRhiVyWnbikXi1VTKAbj-ecR0YruC68o6V6A1rhZ5f36w340Z7zldXWR1YXNHQ7hM_neoCKZHDnNfntxEkexZvzOxjvw08CZ2zCi9QQ69mZ05uBqHe_44F-uMYBI-5hQ1Db214WjU7hGgrBElshW6Pgj9nTB0iXztK4QBlL3t30Qe2GcdF8ODNHr0fWtK5GovRH6m2JzKtFt1PRoMkiH0j-8ReLYdaNAjqHVUkF6l8k3OWtqj0q0xHgbPZHdSra6wZ3cObqPxWInVjjDs22miyf5vxq-WVHTEJHLDcCy0H5T-gtldokL6froYqhqp_1XxAlI-LZlxyopwQhRWg8J-DQqRcvTbzJzf6dH3BiQWxaH0xgHjJ21U2cMwgGnqOIz1NuJ3aJHgqhoCnntyVxO5TbUh2f2UjQwHfds7t1W-_kdw22l-TK5z4BV0CYNs7vuOrHOu1rv7NdfpozW-lXMtn9-l-anpkeu4BO92Yyy52K- -IAH3WWsNS5lQx15tKuD4u6vifJ33FPrpGROnX2TTvnWeQVOwA6KxtbJx5TCdhq1HRomhZFm00]--></g></svg>