<?xml version="1.0" encoding="us-ascii" standalone="no"?><svg xmlns="http://www.w3.org/2000/svg" xmlns:xlink="http://www.w3.org/1999/xlink" contentStyleType="text/css" height="984.8px" preserveAspectRatio="none" style="width:1722px;height:984px;background:#FFFFFF;" version="1.1" viewBox="0 0 1722 984" width="1722.4px" zoomAndPan="magnify"><defs/><g><rect fill="#FFFFFF" height="869.3547" style="stroke:#181818;stroke-width:0.8000000000000002;" width="8" x="154.4" y="67.4297"/><rect fill="#FFFFFF" height="23.4484" style="stroke:#181818;stroke-width:0.8000000000000002;" width="8" x="296.4" y="110.3266"/><rect fill="#FFFFFF" height="23.4484" style="stroke:#181818;stroke-width:0.8000000000000002;" width="8" x="422.8" y="157.2234"/><rect fill="#FFFFFF" height="23.4484" style="stroke:#181818;stroke-width:0.8000000000000002;" width="8" x="536.4" y="204.1203"/><rect fill="#FFFFFF" height="23.4484" style="stroke:#181818;stroke-width:0.8000000000000002;" width="8" x="632" y="251.0172"/><rect fill="#FFFFFF" height="23.4484" style="stroke:#181818;stroke-width:0.8000000000000002;" width="8" x="722.4" y="297.9141"/><rect fill="#FFFFFF" height="555.725" style="stroke:#181818;stroke-width:0.8000000000000002;" width="8" x="840.4" y="344.8109"/><rect fill="#FFFFFF" height="24" style="stroke:#181818;stroke-width:0.8000000000000002;" width="8" x="987.6" y="434.0891"/><rect fill="#FFFFFF" height="270.0047" style="stroke:#181818;stroke-width:0.8000000000000002;" width="8" x="1113.6" y="607.0828"/><rect fill="#FFFFFF" height="27.4484" style="stroke:#181818;stroke-width:0.8000000000000002;" width="8" x="1117.6" y="750.2094"/><rect fill="#FFFFFF" height="24" style="stroke:#181818;stroke-width:0.8000000000000002;" width="8" x="1264" y="481.5375"/><rect fill="#FFFFFF" height="24" style="stroke:#181818;stroke-width:0.8000000000000002;" width="8" x="1373.6" y="548.4344"/><rect fill="#FFFFFF" height="24" style="stroke:#181818;stroke-width:0.8000000000000002;" width="8" x="1373.6" y="696.3609"/><rect fill="#FFFFFF" height="24" style="stroke:#181818;stroke-width:0.8000000000000002;" width="8" x="1515.2" y="824.0391"/><rect fill="none" height="827.5063" style="stroke:#000000;stroke-width:1.2000000000000002;" width="1642.4" x="75.6" y="79.4297"/><rect fill="none" height="181.2422" style="stroke:#000000;stroke-width:1.2000000000000002;" width="696" x="759.6" y="403.1922"/><rect fill="none" height="61.2969" style="stroke:#000000;stroke-width:1.2000000000000002;" width="680" x="767.6" y="517.5375"/><rect fill="none" height="188.975" style="stroke:#000000;stroke-width:1.2000000000000002;" width="660.8" x="1049.2" y="665.4641"/><line style="stroke:#181818;stroke-width:0.4000000000000001;stroke-dasharray:5.0,5.0;" x1="158" x2="158" y1="42.3813" y2="943.9844"/><line style="stroke:#181818;stroke-width:0.4000000000000001;stroke-dasharray:5.0,5.0;" x1="300.4" x2="300.4" y1="42.3813" y2="943.9844"/><line style="stroke:#181818;stroke-width:0.4000000000000001;stroke-dasharray:5.0,5.0;" x1="426.8" x2="426.8" y1="42.3813" y2="943.9844"/><line style="stroke:#181818;stroke-width:0.4000000000000001;stroke-dasharray:5.0,5.0;" x1="540.4" x2="540.4" y1="42.3813" y2="943.9844"/><line style="stroke:#181818;stroke-width:0.4000000000000001;stroke-dasharray:5.0,5.0;" x1="635.6" x2="635.6" y1="42.3813" y2="943.9844"/><line style="stroke:#181818;stroke-width:0.4000000000000001;stroke-dasharray:5.0,5.0;" x1="726" x2="726" y1="42.3813" y2="943.9844"/><line style="stroke:#181818;stroke-width:0.4000000000000001;stroke-dasharray:5.0,5.0;" x1="844.4" x2="844.4" y1="42.3813" y2="943.9844"/><line style="stroke:#181818;stroke-width:0.4000000000000001;stroke-dasharray:5.0,5.0;" x1="991.6" x2="991.6" y1="42.3813" y2="943.9844"/><line style="stroke:#181818;stroke-width:0.4000000000000001;stroke-dasharray:5.0,5.0;" x1="1117.2" x2="1117.2" y1="42.3813" y2="943.9844"/><line style="stroke:#181818;stroke-width:0.4000000000000001;stroke-dasharray:5.0,5.0;" x1="1267.6" x2="1267.6" y1="42.3813" y2="943.9844"/><line style="stroke:#181818;stroke-width:0.4000000000000001;stroke-dasharray:5.0,5.0;" x1="1377.2" x2="1377.2" y1="382.4016" y2="943.9844"/><line style="stroke:#181818;stroke-width:0.4000000000000001;stroke-dasharray:5.0,5.0;" x1="1518.8" x2="1518.8" y1="644.6734" y2="943.9844"/><line style="stroke:#181818;stroke-width:0.4000000000000001;stroke-dasharray:5.0,5.0;" x1="1650" x2="1650" y1="791.8" y2="943.9844"/><rect fill="#E3E3E3" height="24.3906" rx="2" ry="2" style="stroke:#181818;stroke-width:0.4000000000000001;" width="149.6" x="83.6" y="17.1906"/><text fill="#000000" font-family="sans-serif" font-size="11.2" lengthAdjust="spacing" textLength="138.4" x="89.2" y="33.6188">:PostponeEntryController</text><rect fill="#E3E3E3" height="24.3906" rx="2" ry="2" style="stroke:#181818;stroke-width:0.4000000000000001;" width="149.6" x="83.6" y="943.1844"/><text fill="#000000" font-family="sans-serif" font-size="11.2" lengthAdjust="spacing" textLength="138.4" x="89.2" y="959.6125">:PostponeEntryController</text><rect fill="#E3E3E3" height="24.3906" rx="2" ry="2" style="stroke:#181818;stroke-width:0.4000000000000001;" width="118.4" x="241.2" y="17.1906"/><text fill="#000000" font-family="sans-serif" font-size="11.2" lengthAdjust="spacing" textLength="107.2" x="246.8" y="33.6188">:ApplicationSession</text><rect fill="#E3E3E3" height="24.3906" rx="2" ry="2" style="stroke:#181818;stroke-width:0.4000000000000001;" width="118.4" x="241.2" y="943.1844"/><text fill="#000000" font-family="sans-serif" font-size="11.2" lengthAdjust="spacing" textLength="107.2" x="246.8" y="959.6125">:ApplicationSession</text><rect fill="#E3E3E3" height="37.5813" rx="2" ry="2" style="stroke:#181818;stroke-width:0.4000000000000001;" width="118.4" x="367.6" y="4"/><text fill="#000000" font-family="sans-serif" font-size="11.2" lengthAdjust="spacing" textLength="62.4" x="395.6" y="20.4281">appSession</text><text fill="#000000" font-family="sans-serif" font-size="11.2" lengthAdjust="spacing" textLength="107.2" x="373.2" y="33.6188">:ApplicationSession</text><rect fill="#E3E3E3" height="37.5813" rx="2" ry="2" style="stroke:#181818;stroke-width:0.4000000000000001;" width="118.4" x="367.6" y="943.1844"/><text fill="#000000" font-family="sans-serif" font-size="11.2" lengthAdjust="spacing" textLength="62.4" x="395.6" y="959.6125">appSession</text><text fill="#000000" font-family="sans-serif" font-size="11.2" lengthAdjust="spacing" textLength="107.2" x="373.2" y="972.8031">:ApplicationSession</text><rect fill="#E3E3E3" height="37.5813" rx="2" ry="2" style="stroke:#181818;stroke-width:0.4000000000000001;" width="92.8" x="494" y="4"/><text fill="#000000" font-family="sans-serif" font-size="11.2" lengthAdjust="spacing" textLength="81.6" x="499.6" y="20.4281">currentSession</text><text fill="#000000" font-family="sans-serif" font-size="11.2" lengthAdjust="spacing" textLength="69.6" x="505.6" y="33.6188">:UserSession</text><rect fill="#E3E3E3" height="37.5813" rx="2" ry="2" style="stroke:#181818;stroke-width:0.4000000000000001;" width="92.8" x="494" y="943.1844"/><text fill="#000000" font-family="sans-serif" font-size="11.2" lengthAdjust="spacing" textLength="81.6" x="499.6" y="959.6125">currentSession</text><text fill="#000000" font-family="sans-serif" font-size="11.2" lengthAdjust="spacing" textLength="69.6" x="505.6" y="972.8031">:UserSession</text><rect fill="#E3E3E3" height="24.3906" rx="2" ry="2" style="stroke:#181818;stroke-width:0.4000000000000001;" width="82.4" x="594.8" y="17.1906"/><text fill="#000000" font-family="sans-serif" font-size="11.2" lengthAdjust="spacing" textLength="71.2" x="600.4" y="33.6188">:Repositories</text><rect fill="#E3E3E3" height="24.3906" rx="2" ry="2" style="stroke:#181818;stroke-width:0.4000000000000001;" width="82.4" x="594.8" y="943.1844"/><text fill="#000000" font-family="sans-serif" font-size="11.2" lengthAdjust="spacing" textLength="71.2" x="600.4" y="959.6125">:Repositories</text><rect fill="#E3E3E3" height="37.5813" rx="2" ry="2" style="stroke:#181818;stroke-width:0.4000000000000001;" width="82.4" x="685.2" y="4"/><text fill="#000000" font-family="sans-serif" font-size="11.2" lengthAdjust="spacing" textLength="65.6" x="693.6" y="20.4281">repositories</text><text fill="#000000" font-family="sans-serif" font-size="11.2" lengthAdjust="spacing" textLength="71.2" x="690.8" y="33.6188">:Repositories</text><rect fill="#E3E3E3" height="37.5813" rx="2" ry="2" style="stroke:#181818;stroke-width:0.4000000000000001;" width="82.4" x="685.2" y="943.1844"/><text fill="#000000" font-family="sans-serif" font-size="11.2" lengthAdjust="spacing" textLength="65.6" x="693.6" y="959.6125">repositories</text><text fill="#000000" font-family="sans-serif" font-size="11.2" lengthAdjust="spacing" textLength="71.2" x="690.8" y="972.8031">:Repositories</text><rect fill="#E3E3E3" height="37.5813" rx="2" ry="2" style="stroke:#181818;stroke-width:0.4000000000000001;" width="137.6" x="775.6" y="4"/><text fill="#000000" font-family="sans-serif" font-size="11.2" lengthAdjust="spacing" textLength="122.4" x="783.2" y="20.4281">greenSpaceRepository</text><text fill="#000000" font-family="sans-serif" font-size="11.2" lengthAdjust="spacing" textLength="126.4" x="781.2" y="33.6188">:GreenSpaceRepository</text><rect fill="#E3E3E3" height="37.5813" rx="2" ry="2" style="stroke:#181818;stroke-width:0.4000000000000001;" width="137.6" x="775.6" y="943.1844"/><text fill="#000000" font-family="sans-serif" font-size="11.2" lengthAdjust="spacing" textLength="122.4" x="783.2" y="959.6125">greenSpaceRepository</text><text fill="#000000" font-family="sans-serif" font-size="11.2" lengthAdjust="spacing" textLength="126.4" x="781.2" y="972.8031">:GreenSpaceRepository</text><rect fill="#E3E3E3" height="37.5813" rx="2" ry="2" style="stroke:#181818;stroke-width:0.4000000000000001;" width="115.2" x="934" y="4"/><text fill="#000000" font-family="sans-serif" font-size="11.2" lengthAdjust="spacing" textLength="88" x="947.6" y="20.4281">greenSpacesList</text><text fill="#000000" font-family="sans-serif" font-size="11.2" lengthAdjust="spacing" textLength="104" x="939.6" y="33.6188">:List&lt;GreenSpace&gt;</text><rect fill="#E3E3E3" height="37.5813" rx="2" ry="2" style="stroke:#181818;stroke-width:0.4000000000000001;" width="115.2" x="934" y="943.1844"/><text fill="#000000" font-family="sans-serif" font-size="11.2" lengthAdjust="spacing" textLength="88" x="947.6" y="959.6125">greenSpacesList</text><text fill="#000000" font-family="sans-serif" font-size="11.2" lengthAdjust="spacing" textLength="104" x="939.6" y="972.8031">:List&lt;GreenSpace&gt;</text><rect fill="#E3E3E3" height="37.5813" rx="2" ry="2" style="stroke:#181818;stroke-width:0.4000000000000001;" width="120.8" x="1057.2" y="4"/><text fill="#000000" font-family="sans-serif" font-size="11.2" lengthAdjust="spacing" textLength="105.6" x="1064.8" y="20.4281">greenSpaceMapper</text><text fill="#000000" font-family="sans-serif" font-size="11.2" lengthAdjust="spacing" textLength="109.6" x="1062.8" y="33.6188">:GreenSpaceMapper</text><rect fill="#E3E3E3" height="37.5813" rx="2" ry="2" style="stroke:#181818;stroke-width:0.4000000000000001;" width="120.8" x="1057.2" y="943.1844"/><text fill="#000000" font-family="sans-serif" font-size="11.2" lengthAdjust="spacing" textLength="105.6" x="1064.8" y="959.6125">greenSpaceMapper</text><text fill="#000000" font-family="sans-serif" font-size="11.2" lengthAdjust="spacing" textLength="109.6" x="1062.8" y="972.8031">:GreenSpaceMapper</text><rect fill="#E3E3E3" height="37.5813" rx="2" ry="2" style="stroke:#181818;stroke-width:0.4000000000000001;" width="79.2" x="1228.4" y="4"/><text fill="#000000" font-family="sans-serif" font-size="11.2" lengthAdjust="spacing" textLength="64" x="1236" y="20.4281">greenSpace</text><text fill="#000000" font-family="sans-serif" font-size="11.2" lengthAdjust="spacing" textLength="68" x="1234" y="33.6188">:GreenSpace</text><rect fill="#E3E3E3" height="37.5813" rx="2" ry="2" style="stroke:#181818;stroke-width:0.4000000000000001;" width="79.2" x="1228.4" y="943.1844"/><text fill="#000000" font-family="sans-serif" font-size="11.2" lengthAdjust="spacing" textLength="64" x="1236" y="959.6125">greenSpace</text><text fill="#000000" font-family="sans-serif" font-size="11.2" lengthAdjust="spacing" textLength="68" x="1234" y="972.8031">:GreenSpace</text><rect fill="#E3E3E3" height="37.5813" rx="2" ry="2" style="stroke:#181818;stroke-width:0.4000000000000001;" width="124" x="1315.6" y="943.1844"/><text fill="#000000" font-family="sans-serif" font-size="11.2" lengthAdjust="spacing" textLength="112.8" x="1321.2" y="959.6125">GSMGreenSpacesList</text><text fill="#000000" font-family="sans-serif" font-size="11.2" lengthAdjust="spacing" textLength="104" x="1325.6" y="972.8031">:List&lt;GreenSpace&gt;</text><rect fill="#E3E3E3" height="37.5813" rx="2" ry="2" style="stroke:#181818;stroke-width:0.4000000000000001;" width="143.2" x="1447.6" y="943.1844"/><text fill="#000000" font-family="sans-serif" font-size="11.2" lengthAdjust="spacing" textLength="132" x="1453.2" y="959.6125">GSMGreenSpacesListDto</text><text fill="#000000" font-family="sans-serif" font-size="11.2" lengthAdjust="spacing" textLength="123.2" x="1457.6" y="972.8031">:List&lt;GreenSpaceDto&gt;</text><rect fill="#E3E3E3" height="37.5813" rx="2" ry="2" style="stroke:#181818;stroke-width:0.4000000000000001;" width="103.2" x="1598.8" y="943.1844"/><text fill="#000000" font-family="sans-serif" font-size="11.2" lengthAdjust="spacing" textLength="88" x="1606.4" y="959.6125">greenSpaceDTO</text><text fill="#000000" font-family="sans-serif" font-size="11.2" lengthAdjust="spacing" textLength="92" x="1604.4" y="972.8031">:GreenSpaceDTO</text><rect fill="#FFFFFF" height="869.3547" style="stroke:#181818;stroke-width:0.8000000000000002;" width="8" x="154.4" y="67.4297"/><rect fill="#FFFFFF" height="23.4484" style="stroke:#181818;stroke-width:0.8000000000000002;" width="8" x="296.4" y="110.3266"/><rect fill="#FFFFFF" height="23.4484" style="stroke:#181818;stroke-width:0.8000000000000002;" width="8" x="422.8" y="157.2234"/><rect fill="#FFFFFF" height="23.4484" style="stroke:#181818;stroke-width:0.8000000000000002;" width="8" x="536.4" y="204.1203"/><rect fill="#FFFFFF" height="23.4484" style="stroke:#181818;stroke-width:0.8000000000000002;" width="8" x="632" y="251.0172"/><rect fill="#FFFFFF" height="23.4484" style="stroke:#181818;stroke-width:0.8000000000000002;" width="8" x="722.4" y="297.9141"/><rect fill="#FFFFFF" height="555.725" style="stroke:#181818;stroke-width:0.8000000000000002;" width="8" x="840.4" y="344.8109"/><rect fill="#FFFFFF" height="24" style="stroke:#181818;stroke-width:0.8000000000000002;" width="8" x="987.6" y="434.0891"/><rect fill="#FFFFFF" height="270.0047" style="stroke:#181818;stroke-width:0.8000000000000002;" width="8" x="1113.6" y="607.0828"/><rect fill="#FFFFFF" height="27.4484" style="stroke:#181818;stroke-width:0.8000000000000002;" width="8" x="1117.6" y="750.2094"/><rect fill="#FFFFFF" height="24" style="stroke:#181818;stroke-width:0.8000000000000002;" width="8" x="1264" y="481.5375"/><rect fill="#FFFFFF" height="24" style="stroke:#181818;stroke-width:0.8000000000000002;" width="8" x="1373.6" y="548.4344"/><rect fill="#FFFFFF" height="24" style="stroke:#181818;stroke-width:0.8000000000000002;" width="8" x="1373.6" y="696.3609"/><rect fill="#FFFFFF" height="24" style="stroke:#181818;stroke-width:0.8000000000000002;" width="8" x="1515.2" y="824.0391"/><polygon fill="#181818" points="144.8,64.2297,152.8,67.4297,144.8,70.6297,148,67.4297" style="stroke:#181818;stroke-width:0.8000000000000002;"/><line style="stroke:#181818;stroke-width:0.8000000000000002;" x1="0" x2="149.6" y1="67.4297" y2="67.4297"/><text fill="#000000" font-family="sans-serif" font-size="10.4" font-weight="bold" lengthAdjust="spacing" textLength="7.2" x="5.6" y="63.6359">3</text><text fill="#000000" font-family="sans-serif" font-size="10.4" lengthAdjust="spacing" textLength="85.6" x="16" y="63.6359">getGreenSpaces()</text><path d="M75.6,79.4297 L206,79.4297 L206,85.2781 L198,93.2781 L75.6,93.2781 L75.6,79.4297 " fill="#EEEEEE" style="stroke:#000000;stroke-width:1.2000000000000002;"/><rect fill="none" height="827.5063" style="stroke:#000000;stroke-width:1.2000000000000002;" width="1642.4" x="75.6" y="79.4297"/><text fill="#000000" font-family="sans-serif" font-size="10.4" font-weight="bold" lengthAdjust="spacing" textLength="94.4" x="87.6" y="90.2844">Get Green Spaces</text><polygon fill="#181818" points="286.8,107.1266,294.8,110.3266,286.8,113.5266,290,110.3266" style="stroke:#181818;stroke-width:0.8000000000000002;"/><line style="stroke:#181818;stroke-width:0.8000000000000002;" x1="162.4" x2="291.6" y1="110.3266" y2="110.3266"/><text fill="#000000" font-family="sans-serif" font-size="10.4" font-weight="bold" lengthAdjust="spacing" textLength="16.8" x="168" y="106.5328">3.1</text><text fill="#000000" font-family="sans-serif" font-size="10.4" lengthAdjust="spacing" textLength="64.8" x="188" y="106.5328">getInstance()</text><polygon fill="#181818" points="171.2,130.575,163.2,133.775,171.2,136.975,168,133.775" style="stroke:#181818;stroke-width:0.8000000000000002;"/><line style="stroke:#181818;stroke-width:0.8000000000000002;" x1="166.4" x2="299.6" y1="133.775" y2="133.775"/><text fill="#000000" font-family="sans-serif" font-size="10.4" font-weight="bold" lengthAdjust="spacing" textLength="16.8" x="176" y="129.9813">3.2</text><text fill="#000000" font-family="sans-serif" font-size="10.4" lengthAdjust="spacing" textLength="56.8" x="196" y="129.9813">appSession</text><polygon fill="#181818" points="413.2,154.0234,421.2,157.2234,413.2,160.4234,416.4,157.2234" style="stroke:#181818;stroke-width:0.8000000000000002;"/><line style="stroke:#181818;stroke-width:0.8000000000000002;" x1="162.4" x2="418" y1="157.2234" y2="157.2234"/><text fill="#000000" font-family="sans-serif" font-size="10.4" font-weight="bold" lengthAdjust="spacing" textLength="16.8" x="168" y="153.4297">3.3</text><text fill="#000000" font-family="sans-serif" font-size="10.4" lengthAdjust="spacing" textLength="98.4" x="188" y="153.4297">getCurrentSession()</text><polygon fill="#181818" points="171.2,177.4719,163.2,180.6719,171.2,183.8719,168,180.6719" style="stroke:#181818;stroke-width:0.8000000000000002;"/><line style="stroke:#181818;stroke-width:0.8000000000000002;stroke-dasharray:2.0,2.0;" x1="166.4" x2="426" y1="180.6719" y2="180.6719"/><text fill="#000000" font-family="sans-serif" font-size="10.4" font-weight="bold" lengthAdjust="spacing" textLength="16.8" x="176" y="176.8781">3.4</text><text fill="#000000" font-family="sans-serif" font-size="10.4" lengthAdjust="spacing" textLength="74.4" x="196" y="176.8781">currentSession</text><polygon fill="#181818" points="526.8,200.9203,534.8,204.1203,526.8,207.3203,530,204.1203" style="stroke:#181818;stroke-width:0.8000000000000002;"/><line style="stroke:#181818;stroke-width:0.8000000000000002;" x1="162.4" x2="531.6" y1="204.1203" y2="204.1203"/><text fill="#000000" font-family="sans-serif" font-size="10.4" font-weight="bold" lengthAdjust="spacing" textLength="16.8" x="168" y="200.3266">3.5</text><text fill="#000000" font-family="sans-serif" font-size="10.4" lengthAdjust="spacing" textLength="113.6" x="188" y="200.3266">email = getUserEmail()</text><polygon fill="#181818" points="171.2,224.3688,163.2,227.5688,171.2,230.7688,168,227.5688" style="stroke:#181818;stroke-width:0.8000000000000002;"/><line style="stroke:#181818;stroke-width:0.8000000000000002;stroke-dasharray:2.0,2.0;" x1="166.4" x2="539.6" y1="227.5688" y2="227.5688"/><text fill="#000000" font-family="sans-serif" font-size="10.4" font-weight="bold" lengthAdjust="spacing" textLength="16.8" x="176" y="223.775">3.6</text><text fill="#000000" font-family="sans-serif" font-size="10.4" lengthAdjust="spacing" textLength="27.2" x="196" y="223.775">email</text><polygon fill="#181818" points="622.4,247.8172,630.4,251.0172,622.4,254.2172,625.6,251.0172" style="stroke:#181818;stroke-width:0.8000000000000002;"/><line style="stroke:#181818;stroke-width:0.8000000000000002;" x1="162.4" x2="627.2" y1="251.0172" y2="251.0172"/><text fill="#000000" font-family="sans-serif" font-size="10.4" font-weight="bold" lengthAdjust="spacing" textLength="16.8" x="168" y="247.2234">3.7</text><text fill="#000000" font-family="sans-serif" font-size="10.4" lengthAdjust="spacing" textLength="64.8" x="188" y="247.2234">getInstance()</text><polygon fill="#181818" points="171.2,271.2656,163.2,274.4656,171.2,277.6656,168,274.4656" style="stroke:#181818;stroke-width:0.8000000000000002;"/><line style="stroke:#181818;stroke-width:0.8000000000000002;stroke-dasharray:2.0,2.0;" x1="166.4" x2="635.2" y1="274.4656" y2="274.4656"/><text fill="#000000" font-family="sans-serif" font-size="10.4" font-weight="bold" lengthAdjust="spacing" textLength="16.8" x="176" y="270.6719">3.8</text><text fill="#000000" font-family="sans-serif" font-size="10.4" lengthAdjust="spacing" textLength="60" x="196" y="270.6719">repositories</text><polygon fill="#181818" points="712.8,294.7141,720.8,297.9141,712.8,301.1141,716,297.9141" style="stroke:#181818;stroke-width:0.8000000000000002;"/><line style="stroke:#181818;stroke-width:0.8000000000000002;" x1="162.4" x2="717.6" y1="297.9141" y2="297.9141"/><text fill="#000000" font-family="sans-serif" font-size="10.4" font-weight="bold" lengthAdjust="spacing" textLength="16.8" x="168" y="294.1203">3.9</text><text fill="#000000" font-family="sans-serif" font-size="10.4" lengthAdjust="spacing" textLength="133.6" x="188" y="294.1203">getGreenSpaceRepository()</text><polygon fill="#181818" points="171.2,318.1625,163.2,321.3625,171.2,324.5625,168,321.3625" style="stroke:#181818;stroke-width:0.8000000000000002;"/><line style="stroke:#181818;stroke-width:0.8000000000000002;stroke-dasharray:2.0,2.0;" x1="166.4" x2="725.6" y1="321.3625" y2="321.3625"/><text fill="#000000" font-family="sans-serif" font-size="10.4" font-weight="bold" lengthAdjust="spacing" textLength="24" x="176" y="317.5688">3.10</text><text fill="#000000" font-family="sans-serif" font-size="10.4" lengthAdjust="spacing" textLength="110.4" x="203.2" y="317.5688">greenSpaceRepository</text><polygon fill="#181818" points="830.8,341.6109,838.8,344.8109,830.8,348.0109,834,344.8109" style="stroke:#181818;stroke-width:0.8000000000000002;"/><line style="stroke:#181818;stroke-width:0.8000000000000002;" x1="162.4" x2="835.6" y1="344.8109" y2="344.8109"/><text fill="#000000" font-family="sans-serif" font-size="10.4" font-weight="bold" lengthAdjust="spacing" textLength="24" x="168" y="341.0172">3.11</text><text fill="#000000" font-family="sans-serif" font-size="10.4" lengthAdjust="spacing" textLength="112.8" x="195.2" y="341.0172">getGreenSpaces(email)</text><polygon fill="#181818" points="1306,365.0594,1314,368.2594,1306,371.4594,1309.2,368.2594" style="stroke:#181818;stroke-width:0.8000000000000002;"/><line style="stroke:#181818;stroke-width:0.8000000000000002;stroke-dasharray:2.0,2.0;" x1="848.4" x2="1310.8" y1="368.2594" y2="368.2594"/><text fill="#000000" font-family="sans-serif" font-size="10.4" font-weight="bold" lengthAdjust="spacing" textLength="24" x="854" y="364.4656">3.12</text><text fill="#000000" font-family="sans-serif" font-size="10.4" lengthAdjust="spacing" textLength="36.8" x="881.2" y="364.4656">create()</text><rect fill="#E3E3E3" height="37.5813" rx="2" ry="2" style="stroke:#181818;stroke-width:0.4000000000000001;" width="124" x="1315.6" y="351.2109"/><text fill="#000000" font-family="sans-serif" font-size="11.2" lengthAdjust="spacing" textLength="112.8" x="1321.2" y="367.6391">GSMGreenSpacesList</text><text fill="#000000" font-family="sans-serif" font-size="11.2" lengthAdjust="spacing" textLength="104" x="1325.6" y="380.8297">:List&lt;GreenSpace&gt;</text><path d="M759.6,403.1922 L818.8,403.1922 L818.8,409.0406 L810.8,417.0406 L759.6,417.0406 L759.6,403.1922 " fill="#EEEEEE" style="stroke:#000000;stroke-width:1.2000000000000002;"/><rect fill="none" height="181.2422" style="stroke:#000000;stroke-width:1.2000000000000002;" width="696" x="759.6" y="403.1922"/><text fill="#000000" font-family="sans-serif" font-size="10.4" font-weight="bold" lengthAdjust="spacing" textLength="23.2" x="771.6" y="414.0469">loop</text><text fill="#000000" font-family="sans-serif" font-size="8.8" font-weight="bold" lengthAdjust="spacing" textLength="132.8" x="830.8" y="413.3">[for each known Green Space]</text><polygon fill="#181818" points="978,430.8891,986,434.0891,978,437.2891,981.2,434.0891" style="stroke:#181818;stroke-width:0.8000000000000002;"/><line style="stroke:#181818;stroke-width:0.8000000000000002;" x1="848.4" x2="982.8" y1="434.0891" y2="434.0891"/><text fill="#000000" font-family="sans-serif" font-size="10.4" font-weight="bold" lengthAdjust="spacing" textLength="24" x="854" y="430.2953">3.13</text><text fill="#000000" font-family="sans-serif" font-size="10.4" lengthAdjust="spacing" textLength="96.8" x="881.2" y="430.2953">greenSpace = get(i)</text><polygon fill="#181818" points="1254.4,478.3375,1262.4,481.5375,1254.4,484.7375,1257.6,481.5375" style="stroke:#181818;stroke-width:0.8000000000000002;"/><line style="stroke:#181818;stroke-width:0.8000000000000002;" x1="848.4" x2="1259.2" y1="481.5375" y2="481.5375"/><text fill="#000000" font-family="sans-serif" font-size="10.4" font-weight="bold" lengthAdjust="spacing" textLength="24" x="854" y="477.7438">3.14</text><text fill="#000000" font-family="sans-serif" font-size="10.4" lengthAdjust="spacing" textLength="136.8" x="881.2" y="477.7438">GSM = hasUserEmail(email)</text><path d="M767.6,517.5375 L821.2,517.5375 L821.2,523.3859 L813.2,531.3859 L767.6,531.3859 L767.6,517.5375 " fill="#EEEEEE" style="stroke:#000000;stroke-width:1.2000000000000002;"/><rect fill="none" height="61.2969" style="stroke:#000000;stroke-width:1.2000000000000002;" width="680" x="767.6" y="517.5375"/><text fill="#000000" font-family="sans-serif" font-size="10.4" font-weight="bold" lengthAdjust="spacing" textLength="17.6" x="779.6" y="528.3922">opt</text><text fill="#000000" font-family="sans-serif" font-size="8.8" font-weight="bold" lengthAdjust="spacing" textLength="67.2" x="833.2" y="527.6453">[hasUserEmail]</text><polygon fill="#181818" points="1364,545.2344,1372,548.4344,1364,551.6344,1367.2,548.4344" style="stroke:#181818;stroke-width:0.8000000000000002;"/><line style="stroke:#181818;stroke-width:0.8000000000000002;" x1="848.4" x2="1368.8" y1="548.4344" y2="548.4344"/><text fill="#000000" font-family="sans-serif" font-size="10.4" font-weight="bold" lengthAdjust="spacing" textLength="24" x="854" y="544.6406">3.15</text><text fill="#000000" font-family="sans-serif" font-size="10.4" lengthAdjust="spacing" textLength="81.6" x="881.2" y="544.6406">add(greenSpace)</text><polygon fill="#181818" points="1104,603.8828,1112,607.0828,1104,610.2828,1107.2,607.0828" style="stroke:#181818;stroke-width:0.8000000000000002;"/><line style="stroke:#181818;stroke-width:0.8000000000000002;" x1="848.4" x2="1108.8" y1="607.0828" y2="607.0828"/><text fill="#000000" font-family="sans-serif" font-size="10.4" font-weight="bold" lengthAdjust="spacing" textLength="24" x="854" y="603.2891">3.16</text><text fill="#000000" font-family="sans-serif" font-size="10.4" lengthAdjust="spacing" textLength="142.4" x="881.2" y="603.2891">toDTO(GSMGreenSpacesList)</text><polygon fill="#181818" points="1438,627.3313,1446,630.5313,1438,633.7313,1441.2,630.5313" style="stroke:#181818;stroke-width:0.8000000000000002;"/><line style="stroke:#181818;stroke-width:0.8000000000000002;stroke-dasharray:2.0,2.0;" x1="1121.6" x2="1442.8" y1="630.5313" y2="630.5313"/><text fill="#000000" font-family="sans-serif" font-size="10.4" font-weight="bold" lengthAdjust="spacing" textLength="24" x="1127.2" y="626.7375">3.17</text><text fill="#000000" font-family="sans-serif" font-size="10.4" lengthAdjust="spacing" textLength="36.8" x="1154.4" y="626.7375">create()</text><rect fill="#E3E3E3" height="37.5813" rx="2" ry="2" style="stroke:#181818;stroke-width:0.4000000000000001;" width="143.2" x="1447.6" y="613.4828"/><text fill="#000000" font-family="sans-serif" font-size="11.2" lengthAdjust="spacing" textLength="132" x="1453.2" y="629.9109">GSMGreenSpacesListDto</text><text fill="#000000" font-family="sans-serif" font-size="11.2" lengthAdjust="spacing" textLength="123.2" x="1457.6" y="643.1016">:List&lt;GreenSpaceDto&gt;</text><path d="M1049.2,665.4641 L1108.4,665.4641 L1108.4,671.3125 L1100.4,679.3125 L1049.2,679.3125 L1049.2,665.4641 " fill="#EEEEEE" style="stroke:#000000;stroke-width:1.2000000000000002;"/><rect fill="none" height="188.975" style="stroke:#000000;stroke-width:1.2000000000000002;" width="660.8" x="1049.2" y="665.4641"/><text fill="#000000" font-family="sans-serif" font-size="10.4" font-weight="bold" lengthAdjust="spacing" textLength="23.2" x="1061.2" y="676.3188">loop</text><text fill="#000000" font-family="sans-serif" font-size="8.8" font-weight="bold" lengthAdjust="spacing" textLength="179.2" x="1120.4" y="675.5719">[for each object in GSMGreenSpacesList]</text><polygon fill="#181818" points="1364,693.1609,1372,696.3609,1364,699.5609,1367.2,696.3609" style="stroke:#181818;stroke-width:0.8000000000000002;"/><line style="stroke:#181818;stroke-width:0.8000000000000002;" x1="1121.6" x2="1368.8" y1="696.3609" y2="696.3609"/><text fill="#000000" font-family="sans-serif" font-size="10.4" font-weight="bold" lengthAdjust="spacing" textLength="24" x="1127.2" y="692.5672">3.18</text><text fill="#000000" font-family="sans-serif" font-size="10.4" lengthAdjust="spacing" textLength="56" x="1154.4" y="692.5672">obj = get(i)</text><line style="stroke:#181818;stroke-width:0.8000000000000002;" x1="1121.6" x2="1159.2" y1="739.8094" y2="739.8094"/><line style="stroke:#181818;stroke-width:0.8000000000000002;" x1="1159.2" x2="1159.2" y1="739.8094" y2="750.2094"/><line style="stroke:#181818;stroke-width:0.8000000000000002;" x1="1126.4" x2="1159.2" y1="750.2094" y2="750.2094"/><polygon fill="#181818" points="1134.4,747.0094,1126.4,750.2094,1134.4,753.4094,1131.2,750.2094" style="stroke:#181818;stroke-width:0.8000000000000002;"/><text fill="#000000" font-family="sans-serif" font-size="10.4" font-weight="bold" lengthAdjust="spacing" textLength="24" x="1131.2" y="736.0156">3.19</text><text fill="#000000" font-family="sans-serif" font-size="10.4" lengthAdjust="spacing" textLength="104" x="1158.4" y="736.0156">objDto = toDTO(obj)</text><polygon fill="#181818" points="1589.2,774.4578,1597.2,777.6578,1589.2,780.8578,1592.4,777.6578" style="stroke:#181818;stroke-width:0.8000000000000002;"/><line style="stroke:#181818;stroke-width:0.8000000000000002;" x1="1121.6" x2="1594" y1="777.6578" y2="777.6578"/><text fill="#000000" font-family="sans-serif" font-size="10.4" font-weight="bold" lengthAdjust="spacing" textLength="24" x="1127.2" y="773.8641">3.20</text><text fill="#000000" font-family="sans-serif" font-size="10.4" lengthAdjust="spacing" textLength="46.4" x="1154.4" y="773.8641">create(...)</text><rect fill="#E3E3E3" height="37.5813" rx="2" ry="2" style="stroke:#181818;stroke-width:0.4000000000000001;" width="103.2" x="1598.8" y="760.6094"/><text fill="#000000" font-family="sans-serif" font-size="11.2" lengthAdjust="spacing" textLength="88" x="1606.4" y="777.0375">greenSpaceDTO</text><text fill="#000000" font-family="sans-serif" font-size="11.2" lengthAdjust="spacing" textLength="92" x="1604.4" y="790.2281">:GreenSpaceDTO</text><polygon fill="#181818" points="1505.6,820.8391,1513.6,824.0391,1505.6,827.2391,1508.8,824.0391" style="stroke:#181818;stroke-width:0.8000000000000002;"/><line style="stroke:#181818;stroke-width:0.8000000000000002;" x1="1121.6" x2="1510.4" y1="824.0391" y2="824.0391"/><text fill="#000000" font-family="sans-serif" font-size="10.4" font-weight="bold" lengthAdjust="spacing" textLength="24" x="1127.2" y="820.2453">3.21</text><text fill="#000000" font-family="sans-serif" font-size="10.4" lengthAdjust="spacing" textLength="59.2" x="1154.4" y="820.2453">add(objDto)</text><polygon fill="#181818" points="857.2,873.8875,849.2,877.0875,857.2,880.2875,854,877.0875" style="stroke:#181818;stroke-width:0.8000000000000002;"/><line style="stroke:#181818;stroke-width:0.8000000000000002;stroke-dasharray:2.0,2.0;" x1="852.4" x2="1116.8" y1="877.0875" y2="877.0875"/><text fill="#000000" font-family="sans-serif" font-size="10.4" font-weight="bold" lengthAdjust="spacing" textLength="24" x="862" y="873.2938">3.22</text><text fill="#000000" font-family="sans-serif" font-size="10.4" lengthAdjust="spacing" textLength="121.6" x="889.2" y="873.2938">GSMGreenSpacesListDto</text><polygon fill="#181818" points="171.2,897.3359,163.2,900.5359,171.2,903.7359,168,900.5359" style="stroke:#181818;stroke-width:0.8000000000000002;"/><line style="stroke:#181818;stroke-width:0.8000000000000002;stroke-dasharray:2.0,2.0;" x1="166.4" x2="843.6" y1="900.5359" y2="900.5359"/><text fill="#000000" font-family="sans-serif" font-size="10.4" font-weight="bold" lengthAdjust="spacing" textLength="24" x="176" y="896.7422">3.23</text><text fill="#000000" font-family="sans-serif" font-size="10.4" lengthAdjust="spacing" textLength="121.6" x="203.2" y="896.7422">GSMGreenSpacesListDto</text><polygon fill="#181818" points="8.8,926.3844,0.8,929.5844,8.8,932.7844,5.6,929.5844" style="stroke:#181818;stroke-width:0.8000000000000002;"/><line style="stroke:#181818;stroke-width:0.8000000000000002;stroke-dasharray:2.0,2.0;" x1="4" x2="153.6" y1="929.5844" y2="929.5844"/><text fill="#000000" font-family="sans-serif" font-size="10.4" font-weight="bold" lengthAdjust="spacing" textLength="14.4" x="13.6" y="925.7906">27</text><text fill="#000000" font-family="sans-serif" font-size="10.4" lengthAdjust="spacing" textLength="121.6" x="31.2" y="925.7906">GSMGreenSpacesListDto</text><!--SRC=[hLPHQzim47xthn1zIWi9R7iOX2uGsX8AwHhgxcqmLEUQQ74a8oah_VSxoKuioLBiZlaXmTBTztrtkZjPxHYlgAHxiXTS55ifza2qF42cJZiLBNPq0xb-Bu58A3Jbcz8rK5kw5c-CRyWhBHLa6IvhLh2ASaqkfYkXT2Kut74jtsy4_ego17b1g28tpq_Bm7nULIKhg6Q2vw0K_bdBN_FLohUaLTKO_EGfhuvJSP0Ik6uTVoYGhaT-b-VtZzy3KKzG2SMqa0oKDJijlEVCf4CBxhj8nmDfEW2hvVpPzzX809vZjg45Hyz5PDaYn3PIY6h9b4OmytVTEiuiK62MmdZ0X8Fq5DLBWPfwCONY-GVqliyYVrWC2w1hsOTqgqKN31TJUBYL2kZs-T6B2T-3i70bo-W1I-ImVm59lcJZcQryCYKRq0xLwD8td7p2zqApFrH3tIi4duqKXueiGDT99xLlPlUQnw8ZY-aQItBF5VPj0SZWc9smRNUvEsQ1D3Adf6qrrsODQV-ZW2F_ZTTt2HKXYDLm4k6tRa98IaVJrbC2UyfAyireCgr_PruJSewZmDrirXnP5Z2X9ePmL1IP86J8KSKcZsiOmstLkcCf8RgFu1Y0cM1X1RU-2VLsxBax5cNiD4HigiM5Th2Eoc9wkhrc3owkCZfQNSieWucYEpgkhf2wa82ufhqTa5A8YhmAIJ2aBTbnySRTZkxdcuMZsyjVNUGZ5Wyn7Fhn58TM7zE4SZ0Vg6DBLTjiP_BkN0LzUZmfej8Unn2PtPD2kNIz7hKSYUBetZPniUSDWQ-DxYnSCrKnAC_XZOlojS2xPjJbxQlovigEipReyUh6Yt5eWOkNt_ZnI1ZlIKoNEN5O27Y-nYCymu-gLr8t_IW8yu6QwdF0r_-I-9d_BM7otQHxCfbSfYBwA4VqR9kMg0CRccJpiJGupw5nJmkunHYVyd6AWKbop0QD- -RI-ZTEzsx9JDpsmyxz0FpyDRiUZy-p_0K0]--></g></svg>