<?xml version="1.0" encoding="us-ascii" standalone="no"?><svg xmlns="http://www.w3.org/2000/svg" xmlns:xlink="http://www.w3.org/1999/xlink" contentStyleType="text/css" height="899.2px" preserveAspectRatio="none" style="width:1370px;height:899px;background:#FFFFFF;" version="1.1" viewBox="0 0 1370 899" width="1370.4px" zoomAndPan="magnify"><defs/><g><text fill="#000000" font-family="sans-serif" font-size="11.2" font-weight="bold" lengthAdjust="spacing" textLength="300.8" x="534" y="22.8281">US004 - Assign one or more skills to a collaborator</text><rect fill="#FFFFFF" height="717.1953" style="stroke:#181818;stroke-width:0.8000000000000002;" width="8" x="14.4" y="103.1813"/><rect fill="#FFFFFF" height="244.2266" style="stroke:#181818;stroke-width:0.8000000000000002;" width="8" x="373.6" y="120.2297"/><rect fill="#FFFFFF" height="211.0359" style="stroke:#181818;stroke-width:0.8000000000000002;" width="8" x="373.6" y="387.9047"/><rect fill="#FFFFFF" height="23.4484" style="stroke:#181818;stroke-width:0.8000000000000002;" width="8" x="373.6" y="622.3891"/><rect fill="#FFFFFF" height="151.0906" style="stroke:#181818;stroke-width:0.8000000000000002;" width="8" x="373.6" y="669.2859"/><rect fill="#FFFFFF" height="164.1391" style="stroke:#181818;stroke-width:0.8000000000000002;" width="8" x="592" y="176.8688"/><rect fill="#FFFFFF" height="164.1391" style="stroke:#181818;stroke-width:0.8000000000000002;" width="8" x="592" y="411.3531"/><rect fill="#FFFFFF" height="104.1938" style="stroke:#181818;stroke-width:0.8000000000000002;" width="8" x="592" y="692.7344"/><rect fill="#FFFFFF" height="23.4484" style="stroke:#181818;stroke-width:0.8000000000000002;" width="8" x="716" y="200.3172"/><rect fill="#FFFFFF" height="23.4484" style="stroke:#181818;stroke-width:0.8000000000000002;" width="8" x="716" y="434.8016"/><rect fill="#FFFFFF" height="23.4484" style="stroke:#181818;stroke-width:0.8000000000000002;" width="8" x="806.4" y="247.2141"/><rect fill="#FFFFFF" height="23.4484" style="stroke:#181818;stroke-width:0.8000000000000002;" width="8" x="806.4" y="481.6984"/><rect fill="#FFFFFF" height="23.4484" style="stroke:#181818;stroke-width:0.8000000000000002;" width="8" x="903.2" y="528.5953"/><rect fill="#FFFFFF" height="57.2969" style="stroke:#181818;stroke-width:0.8000000000000002;" width="8" x="903.2" y="716.1828"/><rect fill="#FFFFFF" height="23.4484" style="stroke:#181818;stroke-width:0.8000000000000002;" width="8" x="1201.2" y="294.1109"/><line style="stroke:#181818;stroke-width:0.4000000000000001;stroke-dasharray:5.0,5.0;" x1="18.4" x2="18.4" y1="95.1813" y2="834.7766"/><line style="stroke:#181818;stroke-width:0.4000000000000001;stroke-dasharray:5.0,5.0;" x1="377.2" x2="377.2" y1="95.1813" y2="834.7766"/><line style="stroke:#181818;stroke-width:0.4000000000000001;stroke-dasharray:5.0,5.0;" x1="595.6" x2="595.6" y1="151.225" y2="834.7766"/><line style="stroke:#181818;stroke-width:0.4000000000000001;stroke-dasharray:5.0,5.0;" x1="719.6" x2="719.6" y1="95.1813" y2="834.7766"/><line style="stroke:#181818;stroke-width:0.4000000000000001;stroke-dasharray:5.0,5.0;" x1="810" x2="810" y1="95.1813" y2="834.7766"/><line style="stroke:#181818;stroke-width:0.4000000000000001;stroke-dasharray:5.0,5.0;" x1="906.8" x2="906.8" y1="95.1813" y2="834.7766"/><line style="stroke:#181818;stroke-width:0.4000000000000001;stroke-dasharray:5.0,5.0;" x1="1077.6" x2="1077.6" y1="95.1813" y2="834.7766"/><line style="stroke:#181818;stroke-width:0.4000000000000001;stroke-dasharray:5.0,5.0;" x1="1204.8" x2="1204.8" y1="95.1813" y2="834.7766"/><line style="stroke:#181818;stroke-width:0.4000000000000001;stroke-dasharray:5.0,5.0;" x1="1323.2" x2="1323.2" y1="95.1813" y2="834.7766"/><text fill="#000000" font-family="sans-serif" font-size="11.2" lengthAdjust="spacing" textLength="24" x="4" y="92.8188">GSM</text><ellipse cx="18.4" cy="40.7906" fill="#E3E3E3" rx="6.4" ry="6.4" style="stroke:#181818;stroke-width:0.4000000000000001;"/><path d="M18.4,47.1906 L18.4,68.7906 M8,53.5906 L28.8,53.5906 M18.4,68.7906 L8,80.7906 M18.4,68.7906 L28.8,80.7906 " fill="none" style="stroke:#181818;stroke-width:0.4000000000000001;"/><text fill="#000000" font-family="sans-serif" font-size="11.2" lengthAdjust="spacing" textLength="24" x="4" y="844.8047">GSM</text><ellipse cx="18.4" cy="853.9672" fill="#E3E3E3" rx="6.4" ry="6.4" style="stroke:#181818;stroke-width:0.4000000000000001;"/><path d="M18.4,860.3672 L18.4,881.9672 M8,866.7672 L28.8,866.7672 M18.4,881.9672 L8,893.9672 M18.4,881.9672 L28.8,893.9672 " fill="none" style="stroke:#181818;stroke-width:0.4000000000000001;"/><rect fill="#E3E3E3" height="24.3906" rx="2" ry="2" style="stroke:#181818;stroke-width:0.4000000000000001;" width="104.8" x="325.2" y="69.9906"/><text fill="#000000" font-family="sans-serif" font-size="11.2" lengthAdjust="spacing" textLength="93.6" x="330.8" y="86.4188">:PostponeEntryUI</text><rect fill="#E3E3E3" height="24.3906" rx="2" ry="2" style="stroke:#181818;stroke-width:0.4000000000000001;" width="104.8" x="325.2" y="833.9766"/><text fill="#000000" font-family="sans-serif" font-size="11.2" lengthAdjust="spacing" textLength="93.6" x="330.8" y="850.4047">:PostponeEntryUI</text><rect fill="#E3E3E3" height="24.3906" rx="2" ry="2" style="stroke:#181818;stroke-width:0.4000000000000001;" width="149.6" x="521.2" y="833.9766"/><text fill="#000000" font-family="sans-serif" font-size="11.2" lengthAdjust="spacing" textLength="138.4" x="526.8" y="850.4047">:PostponeEntryController</text><rect fill="#E3E3E3" height="24.3906" rx="2" ry="2" style="stroke:#181818;stroke-width:0.4000000000000001;" width="82.4" x="678.8" y="69.9906"/><text fill="#000000" font-family="sans-serif" font-size="11.2" lengthAdjust="spacing" textLength="71.2" x="684.4" y="86.4188">:Repositories</text><rect fill="#E3E3E3" height="24.3906" rx="2" ry="2" style="stroke:#181818;stroke-width:0.4000000000000001;" width="82.4" x="678.8" y="833.9766"/><text fill="#000000" font-family="sans-serif" font-size="11.2" lengthAdjust="spacing" textLength="71.2" x="684.4" y="850.4047">:Repositories</text><rect fill="#E3E3E3" height="37.5813" rx="2" ry="2" style="stroke:#181818;stroke-width:0.4000000000000001;" width="82.4" x="769.2" y="56.8"/><text fill="#000000" font-family="sans-serif" font-size="11.2" lengthAdjust="spacing" textLength="65.6" x="777.6" y="73.2281">repositories</text><text fill="#000000" font-family="sans-serif" font-size="11.2" lengthAdjust="spacing" textLength="71.2" x="774.8" y="86.4188">:Repositories</text><rect fill="#E3E3E3" height="37.5813" rx="2" ry="2" style="stroke:#181818;stroke-width:0.4000000000000001;" width="82.4" x="769.2" y="833.9766"/><text fill="#000000" font-family="sans-serif" font-size="11.2" lengthAdjust="spacing" textLength="65.6" x="777.6" y="850.4047">repositories</text><text fill="#000000" font-family="sans-serif" font-size="11.2" lengthAdjust="spacing" textLength="71.2" x="774.8" y="863.5953">:Repositories</text><rect fill="#E3E3E3" height="37.5813" rx="2" ry="2" style="stroke:#181818;stroke-width:0.4000000000000001;" width="95.2" x="859.6" y="56.8"/><text fill="#000000" font-family="sans-serif" font-size="11.2" lengthAdjust="spacing" textLength="84" x="865.2" y="73.2281">taskRepository:</text><text fill="#000000" font-family="sans-serif" font-size="11.2" lengthAdjust="spacing" textLength="84" x="865.2" y="86.4188">TaskRepository</text><rect fill="#E3E3E3" height="37.5813" rx="2" ry="2" style="stroke:#181818;stroke-width:0.4000000000000001;" width="95.2" x="859.6" y="833.9766"/><text fill="#000000" font-family="sans-serif" font-size="11.2" lengthAdjust="spacing" textLength="84" x="865.2" y="850.4047">taskRepository:</text><text fill="#000000" font-family="sans-serif" font-size="11.2" lengthAdjust="spacing" textLength="84" x="865.2" y="863.5953">TaskRepository</text><rect fill="#E3E3E3" height="37.5813" rx="2" ry="2" style="stroke:#181818;stroke-width:0.4000000000000001;" width="102.4" x="1026.4" y="56.8"/><text fill="#000000" font-family="sans-serif" font-size="11.2" lengthAdjust="spacing" textLength="91.2" x="1032" y="73.2281">selectedSkillsList</text><text fill="#000000" font-family="sans-serif" font-size="11.2" lengthAdjust="spacing" textLength="58.4" x="1048.4" y="86.4188">List&lt;Skill&gt;</text><rect fill="#E3E3E3" height="37.5813" rx="2" ry="2" style="stroke:#181818;stroke-width:0.4000000000000001;" width="102.4" x="1026.4" y="833.9766"/><text fill="#000000" font-family="sans-serif" font-size="11.2" lengthAdjust="spacing" textLength="91.2" x="1032" y="850.4047">selectedSkillsList</text><text fill="#000000" font-family="sans-serif" font-size="11.2" lengthAdjust="spacing" textLength="58.4" x="1048.4" y="863.5953">List&lt;Skill&gt;</text><rect fill="#E3E3E3" height="37.5813" rx="2" ry="2" style="stroke:#181818;stroke-width:0.4000000000000001;" width="136.8" x="1136.8" y="56.8"/><text fill="#000000" font-family="sans-serif" font-size="11.2" lengthAdjust="spacing" textLength="125.6" x="1142.4" y="73.2281">greenSpaceRepository:</text><text fill="#000000" font-family="sans-serif" font-size="11.2" lengthAdjust="spacing" textLength="123.2" x="1143.6" y="86.4188">GreenSpaceRepository</text><rect fill="#E3E3E3" height="37.5813" rx="2" ry="2" style="stroke:#181818;stroke-width:0.4000000000000001;" width="136.8" x="1136.8" y="833.9766"/><text fill="#000000" font-family="sans-serif" font-size="11.2" lengthAdjust="spacing" textLength="125.6" x="1142.4" y="850.4047">greenSpaceRepository:</text><text fill="#000000" font-family="sans-serif" font-size="11.2" lengthAdjust="spacing" textLength="123.2" x="1143.6" y="863.5953">GreenSpaceRepository</text><rect fill="#E3E3E3" height="37.5813" rx="2" ry="2" style="stroke:#181818;stroke-width:0.4000000000000001;" width="84" x="1281.6" y="56.8"/><text fill="#000000" font-family="sans-serif" font-size="11.2" lengthAdjust="spacing" textLength="67.2" x="1290" y="73.2281">collaborator</text><text fill="#000000" font-family="sans-serif" font-size="11.2" lengthAdjust="spacing" textLength="72.8" x="1287.2" y="86.4188">:Collaborator</text><rect fill="#E3E3E3" height="37.5813" rx="2" ry="2" style="stroke:#181818;stroke-width:0.4000000000000001;" width="84" x="1281.6" y="833.9766"/><text fill="#000000" font-family="sans-serif" font-size="11.2" lengthAdjust="spacing" textLength="67.2" x="1290" y="850.4047">collaborator</text><text fill="#000000" font-family="sans-serif" font-size="11.2" lengthAdjust="spacing" textLength="72.8" x="1287.2" y="863.5953">:Collaborator</text><rect fill="#FFFFFF" height="717.1953" style="stroke:#181818;stroke-width:0.8000000000000002;" width="8" x="14.4" y="103.1813"/><rect fill="#FFFFFF" height="244.2266" style="stroke:#181818;stroke-width:0.8000000000000002;" width="8" x="373.6" y="120.2297"/><rect fill="#FFFFFF" height="211.0359" style="stroke:#181818;stroke-width:0.8000000000000002;" width="8" x="373.6" y="387.9047"/><rect fill="#FFFFFF" height="23.4484" style="stroke:#181818;stroke-width:0.8000000000000002;" width="8" x="373.6" y="622.3891"/><rect fill="#FFFFFF" height="151.0906" style="stroke:#181818;stroke-width:0.8000000000000002;" width="8" x="373.6" y="669.2859"/><rect fill="#FFFFFF" height="164.1391" style="stroke:#181818;stroke-width:0.8000000000000002;" width="8" x="592" y="176.8688"/><rect fill="#FFFFFF" height="164.1391" style="stroke:#181818;stroke-width:0.8000000000000002;" width="8" x="592" y="411.3531"/><rect fill="#FFFFFF" height="104.1938" style="stroke:#181818;stroke-width:0.8000000000000002;" width="8" x="592" y="692.7344"/><rect fill="#FFFFFF" height="23.4484" style="stroke:#181818;stroke-width:0.8000000000000002;" width="8" x="716" y="200.3172"/><rect fill="#FFFFFF" height="23.4484" style="stroke:#181818;stroke-width:0.8000000000000002;" width="8" x="716" y="434.8016"/><rect fill="#FFFFFF" height="23.4484" style="stroke:#181818;stroke-width:0.8000000000000002;" width="8" x="806.4" y="247.2141"/><rect fill="#FFFFFF" height="23.4484" style="stroke:#181818;stroke-width:0.8000000000000002;" width="8" x="806.4" y="481.6984"/><rect fill="#FFFFFF" height="23.4484" style="stroke:#181818;stroke-width:0.8000000000000002;" width="8" x="903.2" y="528.5953"/><rect fill="#FFFFFF" height="57.2969" style="stroke:#181818;stroke-width:0.8000000000000002;" width="8" x="903.2" y="716.1828"/><rect fill="#FFFFFF" height="23.4484" style="stroke:#181818;stroke-width:0.8000000000000002;" width="8" x="1201.2" y="294.1109"/><polygon fill="#181818" points="364,117.0297,372,120.2297,364,123.4297,367.2,120.2297" style="stroke:#181818;stroke-width:0.8000000000000002;"/><line style="stroke:#181818;stroke-width:0.8000000000000002;" x1="22.4" x2="368.8" y1="120.2297" y2="120.2297"/><text fill="#000000" font-family="sans-serif" font-size="10.4" font-weight="bold" lengthAdjust="spacing" textLength="7.2" x="28" y="116.4359">1</text><text fill="#000000" font-family="sans-serif" font-size="10.4" lengthAdjust="spacing" textLength="202.4" x="38.4" y="116.4359">asks to postpone an entry in the agenda</text><polygon fill="#181818" points="511.6,140.4781,519.6,143.6781,511.6,146.8781,514.8,143.6781" style="stroke:#181818;stroke-width:0.8000000000000002;"/><line style="stroke:#181818;stroke-width:0.8000000000000002;" x1="381.6" x2="516.4" y1="143.6781" y2="143.6781"/><text fill="#000000" font-family="sans-serif" font-size="10.4" font-weight="bold" lengthAdjust="spacing" textLength="7.2" x="387.2" y="139.8844">2</text><text fill="#000000" font-family="sans-serif" font-size="10.4" lengthAdjust="spacing" textLength="30.4" x="397.6" y="139.8844">create</text><rect fill="#E3E3E3" height="24.3906" rx="2" ry="2" style="stroke:#181818;stroke-width:0.4000000000000001;" width="149.6" x="521.2" y="126.6297"/><text fill="#000000" font-family="sans-serif" font-size="11.2" lengthAdjust="spacing" textLength="138.4" x="526.8" y="143.0578">:PostponeEntryController</text><polygon fill="#181818" points="582.4,173.6688,590.4,176.8688,582.4,180.0688,585.6,176.8688" style="stroke:#181818;stroke-width:0.8000000000000002;"/><line style="stroke:#181818;stroke-width:0.8000000000000002;" x1="381.6" x2="587.2" y1="176.8688" y2="176.8688"/><text fill="#000000" font-family="sans-serif" font-size="10.4" font-weight="bold" lengthAdjust="spacing" textLength="7.2" x="387.2" y="173.075">3</text><text fill="#000000" font-family="sans-serif" font-size="10.4" lengthAdjust="spacing" textLength="85.6" x="397.6" y="173.075">getGreenSpaces()</text><polygon fill="#181818" points="706.4,197.1172,714.4,200.3172,706.4,203.5172,709.6,200.3172" style="stroke:#181818;stroke-width:0.8000000000000002;"/><line style="stroke:#181818;stroke-width:0.8000000000000002;" x1="600" x2="711.2" y1="200.3172" y2="200.3172"/><text fill="#000000" font-family="sans-serif" font-size="10.4" font-weight="bold" lengthAdjust="spacing" textLength="7.2" x="605.6" y="196.5234">4</text><text fill="#000000" font-family="sans-serif" font-size="10.4" lengthAdjust="spacing" textLength="64.8" x="616" y="196.5234">getInstance()</text><polygon fill="#181818" points="608.8,220.5656,600.8,223.7656,608.8,226.9656,605.6,223.7656" style="stroke:#181818;stroke-width:0.8000000000000002;"/><line style="stroke:#181818;stroke-width:0.8000000000000002;stroke-dasharray:2.0,2.0;" x1="604" x2="719.2" y1="223.7656" y2="223.7656"/><text fill="#000000" font-family="sans-serif" font-size="10.4" font-weight="bold" lengthAdjust="spacing" textLength="7.2" x="613.6" y="219.9719">5</text><text fill="#000000" font-family="sans-serif" font-size="10.4" lengthAdjust="spacing" textLength="60" x="624" y="219.9719">repositories</text><polygon fill="#181818" points="796.8,244.0141,804.8,247.2141,796.8,250.4141,800,247.2141" style="stroke:#181818;stroke-width:0.8000000000000002;"/><line style="stroke:#181818;stroke-width:0.8000000000000002;" x1="600" x2="801.6" y1="247.2141" y2="247.2141"/><text fill="#000000" font-family="sans-serif" font-size="10.4" font-weight="bold" lengthAdjust="spacing" textLength="7.2" x="605.6" y="243.4203">6</text><text fill="#000000" font-family="sans-serif" font-size="10.4" lengthAdjust="spacing" textLength="133.6" x="616" y="243.4203">getGreenSpaceRepository()</text><polygon fill="#181818" points="608.8,267.4625,600.8,270.6625,608.8,273.8625,605.6,270.6625" style="stroke:#181818;stroke-width:0.8000000000000002;"/><line style="stroke:#181818;stroke-width:0.8000000000000002;stroke-dasharray:2.0,2.0;" x1="604" x2="809.6" y1="270.6625" y2="270.6625"/><text fill="#000000" font-family="sans-serif" font-size="10.4" font-weight="bold" lengthAdjust="spacing" textLength="7.2" x="613.6" y="266.8688">7</text><text fill="#000000" font-family="sans-serif" font-size="10.4" lengthAdjust="spacing" textLength="110.4" x="624" y="266.8688">greenSpaceRepository</text><polygon fill="#181818" points="1191.6,290.9109,1199.6,294.1109,1191.6,297.3109,1194.8,294.1109" style="stroke:#181818;stroke-width:0.8000000000000002;"/><line style="stroke:#181818;stroke-width:0.8000000000000002;" x1="600" x2="1196.4" y1="294.1109" y2="294.1109"/><text fill="#000000" font-family="sans-serif" font-size="10.4" font-weight="bold" lengthAdjust="spacing" textLength="7.2" x="605.6" y="290.3172">8</text><text fill="#000000" font-family="sans-serif" font-size="10.4" lengthAdjust="spacing" textLength="85.6" x="616" y="290.3172">getGreenSpaces()</text><polygon fill="#181818" points="608.8,314.3594,600.8,317.5594,608.8,320.7594,605.6,317.5594" style="stroke:#181818;stroke-width:0.8000000000000002;"/><line style="stroke:#181818;stroke-width:0.8000000000000002;stroke-dasharray:2.0,2.0;" x1="604" x2="1204.4" y1="317.5594" y2="317.5594"/><text fill="#000000" font-family="sans-serif" font-size="10.4" font-weight="bold" lengthAdjust="spacing" textLength="7.2" x="613.6" y="313.7656">9</text><text fill="#000000" font-family="sans-serif" font-size="10.4" lengthAdjust="spacing" textLength="62.4" x="624" y="313.7656">greenSpaces</text><polygon fill="#181818" points="390.4,337.8078,382.4,341.0078,390.4,344.2078,387.2,341.0078" style="stroke:#181818;stroke-width:0.8000000000000002;"/><line style="stroke:#181818;stroke-width:0.8000000000000002;stroke-dasharray:2.0,2.0;" x1="385.6" x2="595.2" y1="341.0078" y2="341.0078"/><text fill="#000000" font-family="sans-serif" font-size="10.4" font-weight="bold" lengthAdjust="spacing" textLength="14.4" x="395.2" y="337.2141">10</text><text fill="#000000" font-family="sans-serif" font-size="10.4" lengthAdjust="spacing" textLength="62.4" x="412.8" y="337.2141">greenSpaces</text><polygon fill="#181818" points="31.2,361.2563,23.2,364.4563,31.2,367.6563,28,364.4563" style="stroke:#181818;stroke-width:0.8000000000000002;"/><line style="stroke:#181818;stroke-width:0.8000000000000002;stroke-dasharray:2.0,2.0;" x1="26.4" x2="376.8" y1="364.4563" y2="364.4563"/><text fill="#000000" font-family="sans-serif" font-size="10.4" font-weight="bold" lengthAdjust="spacing" textLength="14.4" x="36" y="360.6625">11</text><text fill="#000000" font-family="sans-serif" font-size="10.4" lengthAdjust="spacing" textLength="201.6" x="53.6" y="360.6625">shows list of green spaces to select one</text><polygon fill="#181818" points="364,384.7047,372,387.9047,364,391.1047,367.2,387.9047" style="stroke:#181818;stroke-width:0.8000000000000002;"/><line style="stroke:#181818;stroke-width:0.8000000000000002;" x1="22.4" x2="368.8" y1="387.9047" y2="387.9047"/><text fill="#000000" font-family="sans-serif" font-size="10.4" font-weight="bold" lengthAdjust="spacing" textLength="14.4" x="28" y="384.1109">12</text><text fill="#000000" font-family="sans-serif" font-size="10.4" lengthAdjust="spacing" textLength="117.6" x="45.6" y="384.1109">selects the green space</text><polygon fill="#181818" points="582.4,408.1531,590.4,411.3531,582.4,414.5531,585.6,411.3531" style="stroke:#181818;stroke-width:0.8000000000000002;"/><line style="stroke:#181818;stroke-width:0.8000000000000002;" x1="381.6" x2="587.2" y1="411.3531" y2="411.3531"/><text fill="#000000" font-family="sans-serif" font-size="10.4" font-weight="bold" lengthAdjust="spacing" textLength="14.4" x="387.2" y="407.5594">13</text><text fill="#000000" font-family="sans-serif" font-size="10.4" lengthAdjust="spacing" textLength="177.6" x="404.8" y="407.5594">getTasksByGreenSpace(greenSpace)</text><polygon fill="#181818" points="706.4,431.6016,714.4,434.8016,706.4,438.0016,709.6,434.8016" style="stroke:#181818;stroke-width:0.8000000000000002;"/><line style="stroke:#181818;stroke-width:0.8000000000000002;" x1="600" x2="711.2" y1="434.8016" y2="434.8016"/><text fill="#000000" font-family="sans-serif" font-size="10.4" font-weight="bold" lengthAdjust="spacing" textLength="14.4" x="605.6" y="431.0078">14</text><text fill="#000000" font-family="sans-serif" font-size="10.4" lengthAdjust="spacing" textLength="64.8" x="623.2" y="431.0078">getInstance()</text><polygon fill="#181818" points="608.8,455.05,600.8,458.25,608.8,461.45,605.6,458.25" style="stroke:#181818;stroke-width:0.8000000000000002;"/><line style="stroke:#181818;stroke-width:0.8000000000000002;stroke-dasharray:2.0,2.0;" x1="604" x2="719.2" y1="458.25" y2="458.25"/><text fill="#000000" font-family="sans-serif" font-size="10.4" font-weight="bold" lengthAdjust="spacing" textLength="14.4" x="613.6" y="454.4563">15</text><text fill="#000000" font-family="sans-serif" font-size="10.4" lengthAdjust="spacing" textLength="60" x="631.2" y="454.4563">repositories</text><polygon fill="#181818" points="796.8,478.4984,804.8,481.6984,796.8,484.8984,800,481.6984" style="stroke:#181818;stroke-width:0.8000000000000002;"/><line style="stroke:#181818;stroke-width:0.8000000000000002;" x1="600" x2="801.6" y1="481.6984" y2="481.6984"/><text fill="#000000" font-family="sans-serif" font-size="10.4" font-weight="bold" lengthAdjust="spacing" textLength="14.4" x="605.6" y="477.9047">16</text><text fill="#000000" font-family="sans-serif" font-size="10.4" lengthAdjust="spacing" textLength="100" x="623.2" y="477.9047">getTaskRepository()</text><polygon fill="#181818" points="608.8,501.9469,600.8,505.1469,608.8,508.3469,605.6,505.1469" style="stroke:#181818;stroke-width:0.8000000000000002;"/><line style="stroke:#181818;stroke-width:0.8000000000000002;stroke-dasharray:2.0,2.0;" x1="604" x2="809.6" y1="505.1469" y2="505.1469"/><text fill="#000000" font-family="sans-serif" font-size="10.4" font-weight="bold" lengthAdjust="spacing" textLength="14.4" x="613.6" y="501.3531">17</text><text fill="#000000" font-family="sans-serif" font-size="10.4" lengthAdjust="spacing" textLength="75.2" x="631.2" y="501.3531">taskRepository</text><polygon fill="#181818" points="893.6,525.3953,901.6,528.5953,893.6,531.7953,896.8,528.5953" style="stroke:#181818;stroke-width:0.8000000000000002;"/><line style="stroke:#181818;stroke-width:0.8000000000000002;" x1="600" x2="898.4" y1="528.5953" y2="528.5953"/><text fill="#000000" font-family="sans-serif" font-size="10.4" font-weight="bold" lengthAdjust="spacing" textLength="14.4" x="605.6" y="524.8016">18</text><text fill="#000000" font-family="sans-serif" font-size="10.4" lengthAdjust="spacing" textLength="177.6" x="623.2" y="524.8016">getTasksByGreenSpace(greenSpace)</text><polygon fill="#181818" points="608.8,548.8438,600.8,552.0438,608.8,555.2438,605.6,552.0438" style="stroke:#181818;stroke-width:0.8000000000000002;"/><line style="stroke:#181818;stroke-width:0.8000000000000002;stroke-dasharray:2.0,2.0;" x1="604" x2="906.4" y1="552.0438" y2="552.0438"/><text fill="#000000" font-family="sans-serif" font-size="10.4" font-weight="bold" lengthAdjust="spacing" textLength="14.4" x="613.6" y="548.25">19</text><text fill="#000000" font-family="sans-serif" font-size="10.4" lengthAdjust="spacing" textLength="96" x="631.2" y="548.25">tasksByGreenSpace</text><polygon fill="#181818" points="390.4,572.2922,382.4,575.4922,390.4,578.6922,387.2,575.4922" style="stroke:#181818;stroke-width:0.8000000000000002;"/><line style="stroke:#181818;stroke-width:0.8000000000000002;stroke-dasharray:2.0,2.0;" x1="385.6" x2="595.2" y1="575.4922" y2="575.4922"/><text fill="#000000" font-family="sans-serif" font-size="10.4" font-weight="bold" lengthAdjust="spacing" textLength="14.4" x="395.2" y="571.6984">20</text><text fill="#000000" font-family="sans-serif" font-size="10.4" lengthAdjust="spacing" textLength="96" x="412.8" y="571.6984">tasksByGreenSpace</text><polygon fill="#181818" points="31.2,595.7406,23.2,598.9406,31.2,602.1406,28,598.9406" style="stroke:#181818;stroke-width:0.8000000000000002;"/><line style="stroke:#181818;stroke-width:0.8000000000000002;stroke-dasharray:2.0,2.0;" x1="26.4" x2="376.8" y1="598.9406" y2="598.9406"/><text fill="#000000" font-family="sans-serif" font-size="10.4" font-weight="bold" lengthAdjust="spacing" textLength="14.4" x="36" y="595.1469">21</text><text fill="#000000" font-family="sans-serif" font-size="10.4" lengthAdjust="spacing" textLength="314.4" x="53.6" y="595.1469">shows list of entries in the agenda of the selected green space</text><polygon fill="#181818" points="364,619.1891,372,622.3891,364,625.5891,367.2,622.3891" style="stroke:#181818;stroke-width:0.8000000000000002;"/><line style="stroke:#181818;stroke-width:0.8000000000000002;" x1="22.4" x2="368.8" y1="622.3891" y2="622.3891"/><text fill="#000000" font-family="sans-serif" font-size="10.4" font-weight="bold" lengthAdjust="spacing" textLength="14.4" x="28" y="618.5953">22</text><text fill="#000000" font-family="sans-serif" font-size="10.4" lengthAdjust="spacing" textLength="85.6" x="45.6" y="618.5953">selects one entry</text><polygon fill="#181818" points="31.2,642.6375,23.2,645.8375,31.2,649.0375,28,645.8375" style="stroke:#181818;stroke-width:0.8000000000000002;"/><line style="stroke:#181818;stroke-width:0.8000000000000002;stroke-dasharray:2.0,2.0;" x1="26.4" x2="376.8" y1="645.8375" y2="645.8375"/><text fill="#000000" font-family="sans-serif" font-size="10.4" font-weight="bold" lengthAdjust="spacing" textLength="14.4" x="36" y="642.0438">23</text><text fill="#000000" font-family="sans-serif" font-size="10.4" lengthAdjust="spacing" textLength="110.4" x="53.6" y="642.0438">requests the new date</text><polygon fill="#181818" points="364,666.0859,372,669.2859,364,672.4859,367.2,669.2859" style="stroke:#181818;stroke-width:0.8000000000000002;"/><line style="stroke:#181818;stroke-width:0.8000000000000002;" x1="22.4" x2="368.8" y1="669.2859" y2="669.2859"/><text fill="#000000" font-family="sans-serif" font-size="10.4" font-weight="bold" lengthAdjust="spacing" textLength="14.4" x="28" y="665.4922">24</text><text fill="#000000" font-family="sans-serif" font-size="10.4" lengthAdjust="spacing" textLength="94.4" x="45.6" y="665.4922">types the new date</text><polygon fill="#181818" points="582.4,689.5344,590.4,692.7344,582.4,695.9344,585.6,692.7344" style="stroke:#181818;stroke-width:0.8000000000000002;"/><line style="stroke:#181818;stroke-width:0.8000000000000002;" x1="381.6" x2="587.2" y1="692.7344" y2="692.7344"/><text fill="#000000" font-family="sans-serif" font-size="10.4" font-weight="bold" lengthAdjust="spacing" textLength="14.4" x="387.2" y="688.9406">25</text><text fill="#000000" font-family="sans-serif" font-size="10.4" lengthAdjust="spacing" textLength="150.4" x="404.8" y="688.9406">postponeEntry(task, newDate)</text><polygon fill="#181818" points="893.6,712.9828,901.6,716.1828,893.6,719.3828,896.8,716.1828" style="stroke:#181818;stroke-width:0.8000000000000002;"/><line style="stroke:#181818;stroke-width:0.8000000000000002;" x1="600" x2="898.4" y1="716.1828" y2="716.1828"/><text fill="#000000" font-family="sans-serif" font-size="10.4" font-weight="bold" lengthAdjust="spacing" textLength="14.4" x="605.6" y="712.3891">26</text><text fill="#000000" font-family="sans-serif" font-size="10.4" lengthAdjust="spacing" textLength="150.4" x="623.2" y="712.3891">postponeEntry(task, newDate)</text><line style="stroke:#181818;stroke-width:0.8000000000000002;" x1="911.2" x2="944.8" y1="739.6313" y2="739.6313"/><line style="stroke:#181818;stroke-width:0.8000000000000002;" x1="944.8" x2="944.8" y1="739.6313" y2="750.0313"/><line style="stroke:#181818;stroke-width:0.8000000000000002;" x1="912" x2="944.8" y1="750.0313" y2="750.0313"/><polygon fill="#181818" points="920,746.8313,912,750.0313,920,753.2313,916.8,750.0313" style="stroke:#181818;stroke-width:0.8000000000000002;"/><text fill="#000000" font-family="sans-serif" font-size="10.4" font-weight="bold" lengthAdjust="spacing" textLength="14.4" x="916.8" y="735.8375">27</text><text fill="#000000" font-family="sans-serif" font-size="10.4" lengthAdjust="spacing" textLength="133.6" x="934.4" y="735.8375">validateNewDate(newDate)</text><polygon fill="#181818" points="608.8,770.2797,600.8,773.4797,608.8,776.6797,605.6,773.4797" style="stroke:#181818;stroke-width:0.8000000000000002;"/><line style="stroke:#181818;stroke-width:0.8000000000000002;stroke-dasharray:2.0,2.0;" x1="604" x2="906.4" y1="773.4797" y2="773.4797"/><text fill="#000000" font-family="sans-serif" font-size="10.4" font-weight="bold" lengthAdjust="spacing" textLength="14.4" x="613.6" y="769.6859">28</text><text fill="#000000" font-family="sans-serif" font-size="10.4" lengthAdjust="spacing" textLength="25.6" x="631.2" y="769.6859">entry</text><polygon fill="#181818" points="390.4,793.7281,382.4,796.9281,390.4,800.1281,387.2,796.9281" style="stroke:#181818;stroke-width:0.8000000000000002;"/><line style="stroke:#181818;stroke-width:0.8000000000000002;stroke-dasharray:2.0,2.0;" x1="385.6" x2="595.2" y1="796.9281" y2="796.9281"/><text fill="#000000" font-family="sans-serif" font-size="10.4" font-weight="bold" lengthAdjust="spacing" textLength="14.4" x="395.2" y="793.1344">29</text><text fill="#000000" font-family="sans-serif" font-size="10.4" lengthAdjust="spacing" textLength="25.6" x="412.8" y="793.1344">entry</text><polygon fill="#181818" points="27.2,817.1766,19.2,820.3766,27.2,823.5766,24,820.3766" style="stroke:#181818;stroke-width:0.8000000000000002;"/><line style="stroke:#181818;stroke-width:0.8000000000000002;stroke-dasharray:2.0,2.0;" x1="22.4" x2="376.8" y1="820.3766" y2="820.3766"/><text fill="#000000" font-family="sans-serif" font-size="10.4" font-weight="bold" lengthAdjust="spacing" textLength="14.4" x="32" y="816.5828">30</text><text fill="#000000" font-family="sans-serif" font-size="10.4" lengthAdjust="spacing" textLength="136" x="49.6" y="816.5828">displays operation success</text><!--SRC=[dLPDR-8m4BtdLunwejKYzR0djAhKfLM5nAwg0ZSkRZ8D5i7EsgOe_tx73Y5nueGF7n2sPzxpUEPvehTSv4on7UoaaF56oHs2KNkCz6adP_6MfRWmHOQWC3PCf5dJG6zO8WzSfF35CerHPBWXqzNYyV4dZE5PQvuAa091Ak9H2EIRPHgC10Qnp3BsAHKpKaKHsnifzhjFjFzZMeAxjyMVEs0QNdTv9Wl4Y5WDZtdEX86xoRlK9YVmLs5KiPevqzLio6WgwPTOKJdZwV9ZtZB_m5ngJkmSjRCvBHGBRgEdG_ekgk6n5bs0z_dpqlSmJ6zhsCbQBBq5v-Kl-VuQCye59WjtbtEkpLhOtrzkuSdvTsryZ5GXYWKb6BsJl0MM7LvemqTiPfFkOTgObfVjPpis_9iPh7CR0Org1kCdIYLCo77hgYK_fX6O0BIf12x0R6YUeaYOSpvXKX6u1K8W79lbXmV2YXNIRhdL7BKP6QLewbZrwBvZVM9nrTFPjiD14MIWTag6cT2afHW3y1v5gFY27dQ4sCR7m2RGBDCWH8BNqrQ1sXfltrqDSYvAfv3Ui1ns7KUeSC_5qqzG1H0wzYN5uCKHr4XlN47ASQCGQ-9pyLrENCPRYMk8eW5V5xfL2ZcVL3gX3Y0F6Z9wNq1-bO2W7Q9LRVaAsGOGjJ0hYNO4Nxfef-q6N5ZW8VNQbrF_Bkex6TLXrWaSKF6jwhrSFZSgzHg5TfNfTvI-itUbqjAVtxoYYnLN7SW_nZKfyyxPwe-UKOkYeIdJ9kex_n2yhw5-o9iKP7iRvTtlRdR3pggctX76DSAoJTHrqFwUwHzGuRyzwgCa1HuWiLtqKbfJv1Xm7UZLv9GtFzf6zef_MFSNShYFUkJRMs2NWuMotYwc0C4toxWDx6y9EZg1HyFLM6VXJENv5HTq6wgmXEiyOmMbFaVw_EBqskXzJ4-q3cMnCQqm_WC0]--></g></svg>