<?xml version="1.0" encoding="us-ascii" standalone="no"?><svg xmlns="http://www.w3.org/2000/svg" xmlns:xlink="http://www.w3.org/1999/xlink" contentStyleType="text/css" height="797.6px" preserveAspectRatio="none" style="width:1295px;height:797px;background:#FFFFFF;" version="1.1" viewBox="0 0 1295 797" width="1295.2px" zoomAndPan="magnify"><defs/><g><rect fill="#FFFFFF" height="681.7672" style="stroke:#181818;stroke-width:0.8000000000000002;" width="8" x="210.4" y="67.4297"/><rect fill="#FFFFFF" height="23.4484" style="stroke:#181818;stroke-width:0.8000000000000002;" width="8" x="334.4" y="110.3266"/><rect fill="#FFFFFF" height="555.725" style="stroke:#181818;stroke-width:0.8000000000000002;" width="8" x="412" y="157.2234"/><rect fill="#FFFFFF" height="270.0047" style="stroke:#181818;stroke-width:0.8000000000000002;" width="8" x="610.4" y="419.4953"/><rect fill="#FFFFFF" height="27.4484" style="stroke:#181818;stroke-width:0.8000000000000002;" width="8" x="614.4" y="562.6219"/><rect fill="#FFFFFF" height="24" style="stroke:#181818;stroke-width:0.8000000000000002;" width="8" x="768" y="246.5016"/><rect fill="#FFFFFF" height="24" style="stroke:#181818;stroke-width:0.8000000000000002;" width="8" x="888.4" y="360.8469"/><rect fill="#FFFFFF" height="24" style="stroke:#181818;stroke-width:0.8000000000000002;" width="8" x="888.4" y="508.7734"/><rect fill="#FFFFFF" height="24" style="stroke:#181818;stroke-width:0.8000000000000002;" width="8" x="990.8" y="293.95"/><rect fill="#FFFFFF" height="24" style="stroke:#181818;stroke-width:0.8000000000000002;" width="8" x="1105.2" y="636.4516"/><rect fill="none" height="639.9188" style="stroke:#000000;stroke-width:1.2000000000000002;" width="1159.2" x="131.6" y="79.4297"/><rect fill="none" height="181.2422" style="stroke:#000000;stroke-width:1.2000000000000002;" width="658.4" x="371.6" y="215.6047"/><rect fill="none" height="61.2969" style="stroke:#000000;stroke-width:1.2000000000000002;" width="588" x="379.6" y="329.95"/><rect fill="none" height="188.975" style="stroke:#000000;stroke-width:1.2000000000000002;" width="724.4" x="558.4" y="477.8766"/><line style="stroke:#181818;stroke-width:0.4000000000000001;stroke-dasharray:5.0,5.0;" x1="214" x2="214" y1="42.3813" y2="756.3969"/><line style="stroke:#181818;stroke-width:0.4000000000000001;stroke-dasharray:5.0,5.0;" x1="338" x2="338" y1="42.3813" y2="756.3969"/><line style="stroke:#181818;stroke-width:0.4000000000000001;stroke-dasharray:5.0,5.0;" x1="415.6" x2="415.6" y1="42.3813" y2="756.3969"/><line style="stroke:#181818;stroke-width:0.4000000000000001;stroke-dasharray:5.0,5.0;" x1="614.4" x2="614.4" y1="42.3813" y2="756.3969"/><line style="stroke:#181818;stroke-width:0.4000000000000001;stroke-dasharray:5.0,5.0;" x1="771.6" x2="771.6" y1="42.3813" y2="756.3969"/><line style="stroke:#181818;stroke-width:0.4000000000000001;stroke-dasharray:5.0,5.0;" x1="892.4" x2="892.4" y1="194.8141" y2="756.3969"/><line style="stroke:#181818;stroke-width:0.4000000000000001;stroke-dasharray:5.0,5.0;" x1="994.8" x2="994.8" y1="42.3813" y2="756.3969"/><line style="stroke:#181818;stroke-width:0.4000000000000001;stroke-dasharray:5.0,5.0;" x1="1109.2" x2="1109.2" y1="457.0859" y2="756.3969"/><line style="stroke:#181818;stroke-width:0.4000000000000001;stroke-dasharray:5.0,5.0;" x1="1235.6" x2="1235.6" y1="604.2125" y2="756.3969"/><rect fill="#E3E3E3" height="24.3906" rx="2" ry="2" style="stroke:#181818;stroke-width:0.4000000000000001;" width="149.6" x="139.6" y="17.1906"/><text fill="#000000" font-family="sans-serif" font-size="11.2" lengthAdjust="spacing" textLength="138.4" x="145.2" y="33.6188">:PostponeEntryController</text><rect fill="#E3E3E3" height="24.3906" rx="2" ry="2" style="stroke:#181818;stroke-width:0.4000000000000001;" width="149.6" x="139.6" y="755.5969"/><text fill="#000000" font-family="sans-serif" font-size="11.2" lengthAdjust="spacing" textLength="138.4" x="145.2" y="772.025">:PostponeEntryController</text><rect fill="#E3E3E3" height="37.5813" rx="2" ry="2" style="stroke:#181818;stroke-width:0.4000000000000001;" width="82.4" x="297.2" y="4"/><text fill="#000000" font-family="sans-serif" font-size="11.2" lengthAdjust="spacing" textLength="65.6" x="305.6" y="20.4281">repositories</text><text fill="#000000" font-family="sans-serif" font-size="11.2" lengthAdjust="spacing" textLength="71.2" x="302.8" y="33.6188">:Repositories</text><rect fill="#E3E3E3" height="37.5813" rx="2" ry="2" style="stroke:#181818;stroke-width:0.4000000000000001;" width="82.4" x="297.2" y="755.5969"/><text fill="#000000" font-family="sans-serif" font-size="11.2" lengthAdjust="spacing" textLength="65.6" x="305.6" y="772.025">repositories</text><text fill="#000000" font-family="sans-serif" font-size="11.2" lengthAdjust="spacing" textLength="71.2" x="302.8" y="785.2156">:Repositories</text><rect fill="#E3E3E3" height="37.5813" rx="2" ry="2" style="stroke:#181818;stroke-width:0.4000000000000001;" width="56.8" x="387.6" y="4"/><text fill="#000000" font-family="sans-serif" font-size="11.2" lengthAdjust="spacing" textLength="40.8" x="395.6" y="20.4281">agenda</text><text fill="#000000" font-family="sans-serif" font-size="11.2" lengthAdjust="spacing" textLength="45.6" x="393.2" y="33.6188">:Agenda</text><rect fill="#E3E3E3" height="37.5813" rx="2" ry="2" style="stroke:#181818;stroke-width:0.4000000000000001;" width="56.8" x="387.6" y="755.5969"/><text fill="#000000" font-family="sans-serif" font-size="11.2" lengthAdjust="spacing" textLength="40.8" x="395.6" y="772.025">agenda</text><text fill="#000000" font-family="sans-serif" font-size="11.2" lengthAdjust="spacing" textLength="45.6" x="393.2" y="785.2156">:Agenda</text><rect fill="#E3E3E3" height="37.5813" rx="2" ry="2" style="stroke:#181818;stroke-width:0.4000000000000001;" width="96" x="566.4" y="4"/><text fill="#000000" font-family="sans-serif" font-size="11.2" lengthAdjust="spacing" textLength="81.6" x="573.6" y="20.4281">GSTaskMapper</text><text fill="#000000" font-family="sans-serif" font-size="11.2" lengthAdjust="spacing" textLength="84.8" x="572" y="33.6188">:GSTaskMapper</text><rect fill="#E3E3E3" height="37.5813" rx="2" ry="2" style="stroke:#181818;stroke-width:0.4000000000000001;" width="96" x="566.4" y="755.5969"/><text fill="#000000" font-family="sans-serif" font-size="11.2" lengthAdjust="spacing" textLength="81.6" x="573.6" y="772.025">GSTaskMapper</text><text fill="#000000" font-family="sans-serif" font-size="11.2" lengthAdjust="spacing" textLength="84.8" x="572" y="785.2156">:GSTaskMapper</text><rect fill="#E3E3E3" height="37.5813" rx="2" ry="2" style="stroke:#181818;stroke-width:0.4000000000000001;" width="90.4" x="726.8" y="4"/><text fill="#000000" font-family="sans-serif" font-size="11.2" lengthAdjust="spacing" textLength="56" x="744" y="20.4281">entriesList</text><text fill="#000000" font-family="sans-serif" font-size="11.2" lengthAdjust="spacing" textLength="79.2" x="732.4" y="33.6188">:List&lt;GSTask&gt;</text><rect fill="#E3E3E3" height="37.5813" rx="2" ry="2" style="stroke:#181818;stroke-width:0.4000000000000001;" width="90.4" x="726.8" y="755.5969"/><text fill="#000000" font-family="sans-serif" font-size="11.2" lengthAdjust="spacing" textLength="56" x="744" y="772.025">entriesList</text><text fill="#000000" font-family="sans-serif" font-size="11.2" lengthAdjust="spacing" textLength="79.2" x="732.4" y="785.2156">:List&lt;GSTask&gt;</text><rect fill="#E3E3E3" height="37.5813" rx="2" ry="2" style="stroke:#181818;stroke-width:0.4000000000000001;" width="134.4" x="825.2" y="755.5969"/><text fill="#000000" font-family="sans-serif" font-size="11.2" lengthAdjust="spacing" textLength="123.2" x="830.8" y="772.025">tasksListByGreenSpace</text><text fill="#000000" font-family="sans-serif" font-size="11.2" lengthAdjust="spacing" textLength="79.2" x="852.8" y="785.2156">:List&lt;GSTask&gt;</text><rect fill="#E3E3E3" height="37.5813" rx="2" ry="2" style="stroke:#181818;stroke-width:0.4000000000000001;" width="54.4" x="967.6" y="4"/><text fill="#000000" font-family="sans-serif" font-size="11.2" lengthAdjust="spacing" textLength="40" x="974.8" y="20.4281">GSTask</text><text fill="#000000" font-family="sans-serif" font-size="11.2" lengthAdjust="spacing" textLength="43.2" x="973.2" y="33.6188">:GSTask</text><rect fill="#E3E3E3" height="37.5813" rx="2" ry="2" style="stroke:#181818;stroke-width:0.4000000000000001;" width="54.4" x="967.6" y="755.5969"/><text fill="#000000" font-family="sans-serif" font-size="11.2" lengthAdjust="spacing" textLength="40" x="974.8" y="772.025">GSTask</text><text fill="#000000" font-family="sans-serif" font-size="11.2" lengthAdjust="spacing" textLength="43.2" x="973.2" y="785.2156">:GSTask</text><rect fill="#E3E3E3" height="37.5813" rx="2" ry="2" style="stroke:#181818;stroke-width:0.4000000000000001;" width="158.4" x="1030" y="755.5969"/><text fill="#000000" font-family="sans-serif" font-size="11.2" lengthAdjust="spacing" textLength="147.2" x="1035.6" y="772.025">tasksListByGreenSpaceDTO</text><text fill="#000000" font-family="sans-serif" font-size="11.2" lengthAdjust="spacing" textLength="103.2" x="1057.6" y="785.2156">:List&lt;GSTaskDTO&gt;</text><rect fill="#E3E3E3" height="37.5813" rx="2" ry="2" style="stroke:#181818;stroke-width:0.4000000000000001;" width="78.4" x="1196.4" y="755.5969"/><text fill="#000000" font-family="sans-serif" font-size="11.2" lengthAdjust="spacing" textLength="64" x="1203.6" y="772.025">GSTaskDTO</text><text fill="#000000" font-family="sans-serif" font-size="11.2" lengthAdjust="spacing" textLength="67.2" x="1202" y="785.2156">:GSTaskDTO</text><rect fill="#FFFFFF" height="681.7672" style="stroke:#181818;stroke-width:0.8000000000000002;" width="8" x="210.4" y="67.4297"/><rect fill="#FFFFFF" height="23.4484" style="stroke:#181818;stroke-width:0.8000000000000002;" width="8" x="334.4" y="110.3266"/><rect fill="#FFFFFF" height="555.725" style="stroke:#181818;stroke-width:0.8000000000000002;" width="8" x="412" y="157.2234"/><rect fill="#FFFFFF" height="270.0047" style="stroke:#181818;stroke-width:0.8000000000000002;" width="8" x="610.4" y="419.4953"/><rect fill="#FFFFFF" height="27.4484" style="stroke:#181818;stroke-width:0.8000000000000002;" width="8" x="614.4" y="562.6219"/><rect fill="#FFFFFF" height="24" style="stroke:#181818;stroke-width:0.8000000000000002;" width="8" x="768" y="246.5016"/><rect fill="#FFFFFF" height="24" style="stroke:#181818;stroke-width:0.8000000000000002;" width="8" x="888.4" y="360.8469"/><rect fill="#FFFFFF" height="24" style="stroke:#181818;stroke-width:0.8000000000000002;" width="8" x="888.4" y="508.7734"/><rect fill="#FFFFFF" height="24" style="stroke:#181818;stroke-width:0.8000000000000002;" width="8" x="990.8" y="293.95"/><rect fill="#FFFFFF" height="24" style="stroke:#181818;stroke-width:0.8000000000000002;" width="8" x="1105.2" y="636.4516"/><polygon fill="#181818" points="200.8,64.2297,208.8,67.4297,200.8,70.6297,204,67.4297" style="stroke:#181818;stroke-width:0.8000000000000002;"/><line style="stroke:#181818;stroke-width:0.8000000000000002;" x1="0" x2="205.6" y1="67.4297" y2="67.4297"/><text fill="#000000" font-family="sans-serif" font-size="10.4" font-weight="bold" lengthAdjust="spacing" textLength="14.4" x="5.6" y="63.6359">30</text><text fill="#000000" font-family="sans-serif" font-size="10.4" lengthAdjust="spacing" textLength="177.6" x="23.2" y="63.6359">getTasksByGreenSpace(greenSpace)</text><path d="M131.6,79.4297 L306.8,79.4297 L306.8,85.2781 L298.8,93.2781 L131.6,93.2781 L131.6,79.4297 " fill="#EEEEEE" style="stroke:#000000;stroke-width:1.2000000000000002;"/><rect fill="none" height="639.9188" style="stroke:#000000;stroke-width:1.2000000000000002;" width="1159.2" x="131.6" y="79.4297"/><text fill="#000000" font-family="sans-serif" font-size="10.4" font-weight="bold" lengthAdjust="spacing" textLength="139.2" x="143.6" y="90.2844">Get Tasks By Green Space</text><polygon fill="#181818" points="324.8,107.1266,332.8,110.3266,324.8,113.5266,328,110.3266" style="stroke:#181818;stroke-width:0.8000000000000002;"/><line style="stroke:#181818;stroke-width:0.8000000000000002;" x1="218.4" x2="329.6" y1="110.3266" y2="110.3266"/><text fill="#000000" font-family="sans-serif" font-size="10.4" font-weight="bold" lengthAdjust="spacing" textLength="24" x="224" y="106.5328">30.1</text><text fill="#000000" font-family="sans-serif" font-size="10.4" lengthAdjust="spacing" textLength="60" x="251.2" y="106.5328">getAgenda()</text><polygon fill="#181818" points="227.2,130.575,219.2,133.775,227.2,136.975,224,133.775" style="stroke:#181818;stroke-width:0.8000000000000002;"/><line style="stroke:#181818;stroke-width:0.8000000000000002;stroke-dasharray:2.0,2.0;" x1="222.4" x2="337.6" y1="133.775" y2="133.775"/><text fill="#000000" font-family="sans-serif" font-size="10.4" font-weight="bold" lengthAdjust="spacing" textLength="24" x="232" y="129.9813">30.2</text><text fill="#000000" font-family="sans-serif" font-size="10.4" lengthAdjust="spacing" textLength="36" x="259.2" y="129.9813">agenda</text><polygon fill="#181818" points="402.4,154.0234,410.4,157.2234,402.4,160.4234,405.6,157.2234" style="stroke:#181818;stroke-width:0.8000000000000002;"/><line style="stroke:#181818;stroke-width:0.8000000000000002;" x1="218.4" x2="407.2" y1="157.2234" y2="157.2234"/><text fill="#000000" font-family="sans-serif" font-size="10.4" font-weight="bold" lengthAdjust="spacing" textLength="24" x="224" y="153.4297">30.3</text><text fill="#000000" font-family="sans-serif" font-size="10.4" lengthAdjust="spacing" textLength="146.4" x="251.2" y="153.4297">getAgendaTasks(greenSpace)</text><polygon fill="#181818" points="815.6,177.4719,823.6,180.6719,815.6,183.8719,818.8,180.6719" style="stroke:#181818;stroke-width:0.8000000000000002;"/><line style="stroke:#181818;stroke-width:0.8000000000000002;stroke-dasharray:2.0,2.0;" x1="420" x2="820.4" y1="180.6719" y2="180.6719"/><text fill="#000000" font-family="sans-serif" font-size="10.4" font-weight="bold" lengthAdjust="spacing" textLength="24" x="425.6" y="176.8781">30.4</text><text fill="#000000" font-family="sans-serif" font-size="10.4" lengthAdjust="spacing" textLength="36.8" x="452.8" y="176.8781">create()</text><rect fill="#E3E3E3" height="37.5813" rx="2" ry="2" style="stroke:#181818;stroke-width:0.4000000000000001;" width="134.4" x="825.2" y="163.6234"/><text fill="#000000" font-family="sans-serif" font-size="11.2" lengthAdjust="spacing" textLength="123.2" x="830.8" y="180.0516">tasksListByGreenSpace</text><text fill="#000000" font-family="sans-serif" font-size="11.2" lengthAdjust="spacing" textLength="79.2" x="852.8" y="193.2422">:List&lt;GSTask&gt;</text><path d="M371.6,215.6047 L430.8,215.6047 L430.8,221.4531 L422.8,229.4531 L371.6,229.4531 L371.6,215.6047 " fill="#EEEEEE" style="stroke:#000000;stroke-width:1.2000000000000002;"/><rect fill="none" height="181.2422" style="stroke:#000000;stroke-width:1.2000000000000002;" width="658.4" x="371.6" y="215.6047"/><text fill="#000000" font-family="sans-serif" font-size="10.4" font-weight="bold" lengthAdjust="spacing" textLength="23.2" x="383.6" y="226.4594">loop</text><text fill="#000000" font-family="sans-serif" font-size="8.8" font-weight="bold" lengthAdjust="spacing" textLength="112" x="442.8" y="225.7125">[for each known GSTask]</text><polygon fill="#181818" points="758.4,243.3016,766.4,246.5016,758.4,249.7016,761.6,246.5016" style="stroke:#181818;stroke-width:0.8000000000000002;"/><line style="stroke:#181818;stroke-width:0.8000000000000002;" x1="420" x2="763.2" y1="246.5016" y2="246.5016"/><text fill="#000000" font-family="sans-serif" font-size="10.4" font-weight="bold" lengthAdjust="spacing" textLength="24" x="425.6" y="242.7078">30.5</text><text fill="#000000" font-family="sans-serif" font-size="10.4" lengthAdjust="spacing" textLength="76.8" x="452.8" y="242.7078">GSTask = get(i)</text><polygon fill="#181818" points="981.2,290.75,989.2,293.95,981.2,297.15,984.4,293.95" style="stroke:#181818;stroke-width:0.8000000000000002;"/><line style="stroke:#181818;stroke-width:0.8000000000000002;" x1="420" x2="986" y1="293.95" y2="293.95"/><text fill="#000000" font-family="sans-serif" font-size="10.4" font-weight="bold" lengthAdjust="spacing" textLength="24" x="425.6" y="290.1563">30.6</text><text fill="#000000" font-family="sans-serif" font-size="10.4" lengthAdjust="spacing" textLength="150.4" x="452.8" y="290.1563">taskGreenSpace = greenSpace</text><path d="M379.6,329.95 L433.2,329.95 L433.2,335.7984 L425.2,343.7984 L379.6,343.7984 L379.6,329.95 " fill="#EEEEEE" style="stroke:#000000;stroke-width:1.2000000000000002;"/><rect fill="none" height="61.2969" style="stroke:#000000;stroke-width:1.2000000000000002;" width="588" x="379.6" y="329.95"/><text fill="#000000" font-family="sans-serif" font-size="10.4" font-weight="bold" lengthAdjust="spacing" textLength="17.6" x="391.6" y="340.8047">opt</text><text fill="#000000" font-family="sans-serif" font-size="8.8" font-weight="bold" lengthAdjust="spacing" textLength="94.4" x="445.2" y="340.0578">[greenSpace == true]</text><polygon fill="#181818" points="878.8,357.6469,886.8,360.8469,878.8,364.0469,882,360.8469" style="stroke:#181818;stroke-width:0.8000000000000002;"/><line style="stroke:#181818;stroke-width:0.8000000000000002;" x1="420" x2="883.6" y1="360.8469" y2="360.8469"/><text fill="#000000" font-family="sans-serif" font-size="10.4" font-weight="bold" lengthAdjust="spacing" textLength="24" x="425.6" y="357.0531">30.7</text><text fill="#000000" font-family="sans-serif" font-size="10.4" lengthAdjust="spacing" textLength="50.4" x="452.8" y="357.0531">add(entry)</text><polygon fill="#181818" points="600.8,416.2953,608.8,419.4953,600.8,422.6953,604,419.4953" style="stroke:#181818;stroke-width:0.8000000000000002;"/><line style="stroke:#181818;stroke-width:0.8000000000000002;" x1="420" x2="605.6" y1="419.4953" y2="419.4953"/><text fill="#000000" font-family="sans-serif" font-size="10.4" font-weight="bold" lengthAdjust="spacing" textLength="24" x="425.6" y="415.7016">30.8</text><text fill="#000000" font-family="sans-serif" font-size="10.4" lengthAdjust="spacing" textLength="92" x="452.8" y="415.7016">toDTO(entriesList)</text><polygon fill="#181818" points="1020.4,439.7438,1028.4,442.9438,1020.4,446.1438,1023.6,442.9438" style="stroke:#181818;stroke-width:0.8000000000000002;"/><line style="stroke:#181818;stroke-width:0.8000000000000002;stroke-dasharray:2.0,2.0;" x1="618.4" x2="1025.2" y1="442.9438" y2="442.9438"/><text fill="#000000" font-family="sans-serif" font-size="10.4" font-weight="bold" lengthAdjust="spacing" textLength="24" x="624" y="439.15">30.9</text><text fill="#000000" font-family="sans-serif" font-size="10.4" lengthAdjust="spacing" textLength="36.8" x="651.2" y="439.15">create()</text><rect fill="#E3E3E3" height="37.5813" rx="2" ry="2" style="stroke:#181818;stroke-width:0.4000000000000001;" width="158.4" x="1030" y="425.8953"/><text fill="#000000" font-family="sans-serif" font-size="11.2" lengthAdjust="spacing" textLength="147.2" x="1035.6" y="442.3234">tasksListByGreenSpaceDTO</text><text fill="#000000" font-family="sans-serif" font-size="11.2" lengthAdjust="spacing" textLength="103.2" x="1057.6" y="455.5141">:List&lt;GSTaskDTO&gt;</text><path d="M558.4,477.8766 L617.6,477.8766 L617.6,483.725 L609.6,491.725 L558.4,491.725 L558.4,477.8766 " fill="#EEEEEE" style="stroke:#000000;stroke-width:1.2000000000000002;"/><rect fill="none" height="188.975" style="stroke:#000000;stroke-width:1.2000000000000002;" width="724.4" x="558.4" y="477.8766"/><text fill="#000000" font-family="sans-serif" font-size="10.4" font-weight="bold" lengthAdjust="spacing" textLength="23.2" x="570.4" y="488.7313">loop</text><text fill="#000000" font-family="sans-serif" font-size="8.8" font-weight="bold" lengthAdjust="spacing" textLength="194.4" x="629.6" y="487.9844">[for each GSTask in tasksListByGreenSpace]</text><polygon fill="#181818" points="878.8,505.5734,886.8,508.7734,878.8,511.9734,882,508.7734" style="stroke:#181818;stroke-width:0.8000000000000002;"/><line style="stroke:#181818;stroke-width:0.8000000000000002;" x1="618.4" x2="883.6" y1="508.7734" y2="508.7734"/><text fill="#000000" font-family="sans-serif" font-size="10.4" font-weight="bold" lengthAdjust="spacing" textLength="31.2" x="624" y="504.9797">30.10</text><text fill="#000000" font-family="sans-serif" font-size="10.4" lengthAdjust="spacing" textLength="56" x="658.4" y="504.9797">obj = get(i)</text><line style="stroke:#181818;stroke-width:0.8000000000000002;" x1="618.4" x2="656" y1="552.2219" y2="552.2219"/><line style="stroke:#181818;stroke-width:0.8000000000000002;" x1="656" x2="656" y1="552.2219" y2="562.6219"/><line style="stroke:#181818;stroke-width:0.8000000000000002;" x1="623.2" x2="656" y1="562.6219" y2="562.6219"/><polygon fill="#181818" points="631.2,559.4219,623.2,562.6219,631.2,565.8219,628,562.6219" style="stroke:#181818;stroke-width:0.8000000000000002;"/><text fill="#000000" font-family="sans-serif" font-size="10.4" font-weight="bold" lengthAdjust="spacing" textLength="31.2" x="628" y="548.4281">30.11</text><text fill="#000000" font-family="sans-serif" font-size="10.4" lengthAdjust="spacing" textLength="104" x="662.4" y="548.4281">objDto = toDTO(obj)</text><polygon fill="#181818" points="1186.8,586.8703,1194.8,590.0703,1186.8,593.2703,1190,590.0703" style="stroke:#181818;stroke-width:0.8000000000000002;"/><line style="stroke:#181818;stroke-width:0.8000000000000002;" x1="618.4" x2="1191.6" y1="590.0703" y2="590.0703"/><text fill="#000000" font-family="sans-serif" font-size="10.4" font-weight="bold" lengthAdjust="spacing" textLength="31.2" x="624" y="586.2766">30.12</text><text fill="#000000" font-family="sans-serif" font-size="10.4" lengthAdjust="spacing" textLength="46.4" x="658.4" y="586.2766">create(...)</text><rect fill="#E3E3E3" height="37.5813" rx="2" ry="2" style="stroke:#181818;stroke-width:0.4000000000000001;" width="78.4" x="1196.4" y="573.0219"/><text fill="#000000" font-family="sans-serif" font-size="11.2" lengthAdjust="spacing" textLength="64" x="1203.6" y="589.45">GSTaskDTO</text><text fill="#000000" font-family="sans-serif" font-size="11.2" lengthAdjust="spacing" textLength="67.2" x="1202" y="602.6406">:GSTaskDTO</text><polygon fill="#181818" points="1095.6,633.2516,1103.6,636.4516,1095.6,639.6516,1098.8,636.4516" style="stroke:#181818;stroke-width:0.8000000000000002;"/><line style="stroke:#181818;stroke-width:0.8000000000000002;" x1="618.4" x2="1100.4" y1="636.4516" y2="636.4516"/><text fill="#000000" font-family="sans-serif" font-size="10.4" font-weight="bold" lengthAdjust="spacing" textLength="31.2" x="624" y="632.6578">30.13</text><text fill="#000000" font-family="sans-serif" font-size="10.4" lengthAdjust="spacing" textLength="59.2" x="658.4" y="632.6578">add(objDto)</text><polygon fill="#181818" points="428.8,686.3,420.8,689.5,428.8,692.7,425.6,689.5" style="stroke:#181818;stroke-width:0.8000000000000002;"/><line style="stroke:#181818;stroke-width:0.8000000000000002;stroke-dasharray:2.0,2.0;" x1="424" x2="613.6" y1="689.5" y2="689.5"/><text fill="#000000" font-family="sans-serif" font-size="10.4" font-weight="bold" lengthAdjust="spacing" textLength="31.2" x="433.6" y="685.7063">30.14</text><text fill="#000000" font-family="sans-serif" font-size="10.4" lengthAdjust="spacing" textLength="136.8" x="468" y="685.7063">tasksListByGreenSpaceDTO</text><polygon fill="#181818" points="227.2,709.7484,219.2,712.9484,227.2,716.1484,224,712.9484" style="stroke:#181818;stroke-width:0.8000000000000002;"/><line style="stroke:#181818;stroke-width:0.8000000000000002;stroke-dasharray:2.0,2.0;" x1="222.4" x2="415.2" y1="712.9484" y2="712.9484"/><text fill="#000000" font-family="sans-serif" font-size="10.4" font-weight="bold" lengthAdjust="spacing" textLength="31.2" x="232" y="709.1547">30.15</text><text fill="#000000" font-family="sans-serif" font-size="10.4" lengthAdjust="spacing" textLength="136.8" x="266.4" y="709.1547">tasksListByGreenSpaceDTO</text><polygon fill="#181818" points="8.8,738.7969,0.8,741.9969,8.8,745.1969,5.6,741.9969" style="stroke:#181818;stroke-width:0.8000000000000002;"/><line style="stroke:#181818;stroke-width:0.8000000000000002;stroke-dasharray:2.0,2.0;" x1="4" x2="209.6" y1="741.9969" y2="741.9969"/><text fill="#000000" font-family="sans-serif" font-size="10.4" font-weight="bold" lengthAdjust="spacing" textLength="14.4" x="13.6" y="738.2031">46</text><text fill="#000000" font-family="sans-serif" font-size="10.4" lengthAdjust="spacing" textLength="136.8" x="31.2" y="738.2031">tasksListByGreenSpaceDTO</text><!--SRC=[fLLDZzem4BtdLups12k1MhNg0Ir8-r5neUfguTYBDvaDAS6ERDDL_dt7TaWco5cWpG7yCJFlpSpBnEmAMGajzh1NKgLRhVO8LXymCUrD9TATo75jwn91Osg5p4jkOBOYK- -5pE5Db0QJX8vjaHQLa1PkPi_As4f9_2wjhXyL_QgoH7q3mi3ZvcNLDzTOALDOfGiql-JiXMszn_FgVjFt86uo4sHxxnVUAYpxTilrHfZT3r5LgCcQRxrFj-tx8J4cz5LXBBcvlxlWk_1kxBhlPyd47p_KIuqerrH8Z4M86iQujwozMrXUWFcq-Tc7fOCFaEas1XwYj6j6mJaauc2LFEnVKSENJybauLiBCyZHEXl34KPvknoVU4u_qq5gYp_2Ob07q9DhTQXWYTOtoS133JuQX591ztXKGdSo2UX12gCnjseHl9huZVURTFI3kBX5XiFUH_I0oV4zxrxUCJgDRFbT4yfHYdRhzfPWKetaJZboprAf2jwK1YAyXPrKx_AecHZ0WYkPOWPJcBiSHaMSBzT-l4JS8exQuCnyUbrU3hXx6MBWJIvnt4YYgh8i9CpdOT15IKLBxUIGPIENKXslH_nDZZCyQqjS7EVazCprTQ2MtGXpzLJqOevO0-ASsTZZzopKeFOe_gNoQxfSo86yXw27Mw5UVtyiplzlnZ2fNg69oPDLH2PKdBR_NEb5Dr9vPQVJwNY0-KL1XxhNA3eaS4KLtSI_ef3-0t5EnIU2QqVebGG6wi76Q3FPhunx7CsEk_ySyU_Mrs_9tMHoDl9V]--></g></svg>