<?xml version="1.0" encoding="us-ascii" standalone="no"?><svg xmlns="http://www.w3.org/2000/svg" xmlns:xlink="http://www.w3.org/1999/xlink" contentStyleType="text/css" height="1231px" preserveAspectRatio="none" style="width:2153px;height:1231px;background:#FFFFFF;" version="1.1" viewBox="0 0 2153 1231" width="2153px" zoomAndPan="magnify"><defs/><g><rect fill="#FFFFFF" height="1086.6934" style="stroke:#181818;stroke-width:1.0;" width="10" x="193" y="84.2871"/><rect fill="#FFFFFF" height="29.3105" style="stroke:#181818;stroke-width:1.0;" width="10" x="370.5" y="137.9082"/><rect fill="#FFFFFF" height="29.3105" style="stroke:#181818;stroke-width:1.0;" width="10" x="528.5" y="196.5293"/><rect fill="#FFFFFF" height="29.3105" style="stroke:#181818;stroke-width:1.0;" width="10" x="670.5" y="255.1504"/><rect fill="#FFFFFF" height="29.3105" style="stroke:#181818;stroke-width:1.0;" width="10" x="790" y="313.7715"/><rect fill="#FFFFFF" height="29.3105" style="stroke:#181818;stroke-width:1.0;" width="10" x="903" y="372.3926"/><rect fill="#FFFFFF" height="327.8398" style="stroke:#181818;stroke-width:1.0;" width="10" x="1050.5" y="431.0137"/><rect fill="#FFFFFF" height="30" style="stroke:#181818;stroke-width:1.0;" width="10" x="1234.5" y="542.6113"/><rect fill="#FFFFFF" height="337.5059" style="stroke:#181818;stroke-width:1.0;" width="10" x="1392" y="788.1641"/><rect fill="#FFFFFF" height="34.3105" style="stroke:#181818;stroke-width:1.0;" width="10" x="1397" y="967.0723"/><rect fill="#FFFFFF" height="30" style="stroke:#181818;stroke-width:1.0;" width="10" x="1580" y="601.9219"/><rect fill="#FFFFFF" height="30" style="stroke:#181818;stroke-width:1.0;" width="10" x="1717" y="685.543"/><rect fill="#FFFFFF" height="30" style="stroke:#181818;stroke-width:1.0;" width="10" x="1717" y="899.7617"/><rect fill="#FFFFFF" height="30" style="stroke:#181818;stroke-width:1.0;" width="10" x="1894" y="1059.3594"/><rect fill="none" height="1034.3828" style="stroke:#000000;stroke-width:1.5;" width="2053" x="94.5" y="99.2871"/><rect fill="none" height="226.5527" style="stroke:#000000;stroke-width:1.5;" width="870" x="949.5" y="503.9902"/><rect fill="none" height="76.6211" style="stroke:#000000;stroke-width:1.5;" width="850" x="959.5" y="646.9219"/><rect fill="none" height="236.2188" style="stroke:#000000;stroke-width:1.5;" width="826" x="1311.5" y="861.1406"/><line style="stroke:#181818;stroke-width:0.5;stroke-dasharray:5.0,5.0;" x1="197.5" x2="197.5" y1="52.9766" y2="1179.9805"/><line style="stroke:#181818;stroke-width:0.5;stroke-dasharray:5.0,5.0;" x1="375.5" x2="375.5" y1="52.9766" y2="1179.9805"/><line style="stroke:#181818;stroke-width:0.5;stroke-dasharray:5.0,5.0;" x1="533.5" x2="533.5" y1="52.9766" y2="1179.9805"/><line style="stroke:#181818;stroke-width:0.5;stroke-dasharray:5.0,5.0;" x1="675.5" x2="675.5" y1="52.9766" y2="1179.9805"/><line style="stroke:#181818;stroke-width:0.5;stroke-dasharray:5.0,5.0;" x1="794.5" x2="794.5" y1="52.9766" y2="1179.9805"/><line style="stroke:#181818;stroke-width:0.5;stroke-dasharray:5.0,5.0;" x1="907.5" x2="907.5" y1="52.9766" y2="1179.9805"/><line style="stroke:#181818;stroke-width:0.5;stroke-dasharray:5.0,5.0;" x1="1055.5" x2="1055.5" y1="52.9766" y2="1179.9805"/><line style="stroke:#181818;stroke-width:0.5;stroke-dasharray:5.0,5.0;" x1="1239.5" x2="1239.5" y1="52.9766" y2="1179.9805"/><line style="stroke:#181818;stroke-width:0.5;stroke-dasharray:5.0,5.0;" x1="1396.5" x2="1396.5" y1="52.9766" y2="1179.9805"/><line style="stroke:#181818;stroke-width:0.5;stroke-dasharray:5.0,5.0;" x1="1584.5" x2="1584.5" y1="52.9766" y2="1179.9805"/><line style="stroke:#181818;stroke-width:0.5;stroke-dasharray:5.0,5.0;" x1="1721.5" x2="1721.5" y1="478.002" y2="1179.9805"/><line style="stroke:#181818;stroke-width:0.5;stroke-dasharray:5.0,5.0;" x1="1898.5" x2="1898.5" y1="835.1523" y2="1179.9805"/><line style="stroke:#181818;stroke-width:0.5;stroke-dasharray:5.0,5.0;" x1="2062.5" x2="2062.5" y1="1019.0605" y2="1179.9805"/><rect fill="#E3E3E3" height="30.4883" rx="2.5" ry="2.5" style="stroke:#181818;stroke-width:0.5;" width="187" x="104.5" y="21.4883"/><text fill="#000000" font-family="sans-serif" font-size="14" lengthAdjust="spacing" textLength="173" x="111.5" y="42.0234">:PostponeEntryController</text><rect fill="#E3E3E3" height="30.4883" rx="2.5" ry="2.5" style="stroke:#181818;stroke-width:0.5;" width="187" x="104.5" y="1178.9805"/><text fill="#000000" font-family="sans-serif" font-size="14" lengthAdjust="spacing" textLength="173" x="111.5" y="1199.5156">:PostponeEntryController</text><rect fill="#E3E3E3" height="30.4883" rx="2.5" ry="2.5" style="stroke:#181818;stroke-width:0.5;" width="148" x="301.5" y="21.4883"/><text fill="#000000" font-family="sans-serif" font-size="14" lengthAdjust="spacing" textLength="134" x="308.5" y="42.0234">:ApplicationSession</text><rect fill="#E3E3E3" height="30.4883" rx="2.5" ry="2.5" style="stroke:#181818;stroke-width:0.5;" width="148" x="301.5" y="1178.9805"/><text fill="#000000" font-family="sans-serif" font-size="14" lengthAdjust="spacing" textLength="134" x="308.5" y="1199.5156">:ApplicationSession</text><rect fill="#E3E3E3" height="46.9766" rx="2.5" ry="2.5" style="stroke:#181818;stroke-width:0.5;" width="148" x="459.5" y="5"/><text fill="#000000" font-family="sans-serif" font-size="14" lengthAdjust="spacing" textLength="78" x="494.5" y="25.5352">appSession</text><text fill="#000000" font-family="sans-serif" font-size="14" lengthAdjust="spacing" textLength="134" x="466.5" y="42.0234">:ApplicationSession</text><rect fill="#E3E3E3" height="46.9766" rx="2.5" ry="2.5" style="stroke:#181818;stroke-width:0.5;" width="148" x="459.5" y="1178.9805"/><text fill="#000000" font-family="sans-serif" font-size="14" lengthAdjust="spacing" textLength="78" x="494.5" y="1199.5156">appSession</text><text fill="#000000" font-family="sans-serif" font-size="14" lengthAdjust="spacing" textLength="134" x="466.5" y="1216.0039">:ApplicationSession</text><rect fill="#E3E3E3" height="46.9766" rx="2.5" ry="2.5" style="stroke:#181818;stroke-width:0.5;" width="116" x="617.5" y="5"/><text fill="#000000" font-family="sans-serif" font-size="14" lengthAdjust="spacing" textLength="102" x="624.5" y="25.5352">currentSession</text><text fill="#000000" font-family="sans-serif" font-size="14" lengthAdjust="spacing" textLength="87" x="632" y="42.0234">:UserSession</text><rect fill="#E3E3E3" height="46.9766" rx="2.5" ry="2.5" style="stroke:#181818;stroke-width:0.5;" width="116" x="617.5" y="1178.9805"/><text fill="#000000" font-family="sans-serif" font-size="14" lengthAdjust="spacing" textLength="102" x="624.5" y="1199.5156">currentSession</text><text fill="#000000" font-family="sans-serif" font-size="14" lengthAdjust="spacing" textLength="87" x="632" y="1216.0039">:UserSession</text><rect fill="#E3E3E3" height="30.4883" rx="2.5" ry="2.5" style="stroke:#181818;stroke-width:0.5;" width="103" x="743.5" y="21.4883"/><text fill="#000000" font-family="sans-serif" font-size="14" lengthAdjust="spacing" textLength="89" x="750.5" y="42.0234">:Repositories</text><rect fill="#E3E3E3" height="30.4883" rx="2.5" ry="2.5" style="stroke:#181818;stroke-width:0.5;" width="103" x="743.5" y="1178.9805"/><text fill="#000000" font-family="sans-serif" font-size="14" lengthAdjust="spacing" textLength="89" x="750.5" y="1199.5156">:Repositories</text><rect fill="#E3E3E3" height="46.9766" rx="2.5" ry="2.5" style="stroke:#181818;stroke-width:0.5;" width="103" x="856.5" y="5"/><text fill="#000000" font-family="sans-serif" font-size="14" lengthAdjust="spacing" textLength="82" x="867" y="25.5352">repositories</text><text fill="#000000" font-family="sans-serif" font-size="14" lengthAdjust="spacing" textLength="89" x="863.5" y="42.0234">:Repositories</text><rect fill="#E3E3E3" height="46.9766" rx="2.5" ry="2.5" style="stroke:#181818;stroke-width:0.5;" width="103" x="856.5" y="1178.9805"/><text fill="#000000" font-family="sans-serif" font-size="14" lengthAdjust="spacing" textLength="82" x="867" y="1199.5156">repositories</text><text fill="#000000" font-family="sans-serif" font-size="14" lengthAdjust="spacing" textLength="89" x="863.5" y="1216.0039">:Repositories</text><rect fill="#E3E3E3" height="46.9766" rx="2.5" ry="2.5" style="stroke:#181818;stroke-width:0.5;" width="172" x="969.5" y="5"/><text fill="#000000" font-family="sans-serif" font-size="14" lengthAdjust="spacing" textLength="153" x="979" y="25.5352">greenSpaceRepository</text><text fill="#000000" font-family="sans-serif" font-size="14" lengthAdjust="spacing" textLength="158" x="976.5" y="42.0234">:GreenSpaceRepository</text><rect fill="#E3E3E3" height="46.9766" rx="2.5" ry="2.5" style="stroke:#181818;stroke-width:0.5;" width="172" x="969.5" y="1178.9805"/><text fill="#000000" font-family="sans-serif" font-size="14" lengthAdjust="spacing" textLength="153" x="979" y="1199.5156">greenSpaceRepository</text><text fill="#000000" font-family="sans-serif" font-size="14" lengthAdjust="spacing" textLength="158" x="976.5" y="1216.0039">:GreenSpaceRepository</text><rect fill="#E3E3E3" height="46.9766" rx="2.5" ry="2.5" style="stroke:#181818;stroke-width:0.5;" width="144" x="1167.5" y="5"/><text fill="#000000" font-family="sans-serif" font-size="14" lengthAdjust="spacing" textLength="110" x="1184.5" y="25.5352">greenSpacesList</text><text fill="#000000" font-family="sans-serif" font-size="14" lengthAdjust="spacing" textLength="130" x="1174.5" y="42.0234">:List&lt;GreenSpace&gt;</text><rect fill="#E3E3E3" height="46.9766" rx="2.5" ry="2.5" style="stroke:#181818;stroke-width:0.5;" width="144" x="1167.5" y="1178.9805"/><text fill="#000000" font-family="sans-serif" font-size="14" lengthAdjust="spacing" textLength="110" x="1184.5" y="1199.5156">greenSpacesList</text><text fill="#000000" font-family="sans-serif" font-size="14" lengthAdjust="spacing" textLength="130" x="1174.5" y="1216.0039">:List&lt;GreenSpace&gt;</text><rect fill="#E3E3E3" height="46.9766" rx="2.5" ry="2.5" style="stroke:#181818;stroke-width:0.5;" width="151" x="1321.5" y="5"/><text fill="#000000" font-family="sans-serif" font-size="14" lengthAdjust="spacing" textLength="132" x="1331" y="25.5352">greenSpaceMapper</text><text fill="#000000" font-family="sans-serif" font-size="14" lengthAdjust="spacing" textLength="137" x="1328.5" y="42.0234">:GreenSpaceMapper</text><rect fill="#E3E3E3" height="46.9766" rx="2.5" ry="2.5" style="stroke:#181818;stroke-width:0.5;" width="151" x="1321.5" y="1178.9805"/><text fill="#000000" font-family="sans-serif" font-size="14" lengthAdjust="spacing" textLength="132" x="1331" y="1199.5156">greenSpaceMapper</text><text fill="#000000" font-family="sans-serif" font-size="14" lengthAdjust="spacing" textLength="137" x="1328.5" y="1216.0039">:GreenSpaceMapper</text><rect fill="#E3E3E3" height="46.9766" rx="2.5" ry="2.5" style="stroke:#181818;stroke-width:0.5;" width="99" x="1535.5" y="5"/><text fill="#000000" font-family="sans-serif" font-size="14" lengthAdjust="spacing" textLength="80" x="1545" y="25.5352">greenSpace</text><text fill="#000000" font-family="sans-serif" font-size="14" lengthAdjust="spacing" textLength="85" x="1542.5" y="42.0234">:GreenSpace</text><rect fill="#E3E3E3" height="46.9766" rx="2.5" ry="2.5" style="stroke:#181818;stroke-width:0.5;" width="99" x="1535.5" y="1178.9805"/><text fill="#000000" font-family="sans-serif" font-size="14" lengthAdjust="spacing" textLength="80" x="1545" y="1199.5156">greenSpace</text><text fill="#000000" font-family="sans-serif" font-size="14" lengthAdjust="spacing" textLength="85" x="1542.5" y="1216.0039">:GreenSpace</text><rect fill="#E3E3E3" height="46.9766" rx="2.5" ry="2.5" style="stroke:#181818;stroke-width:0.5;" width="155" x="1644.5" y="1178.9805"/><text fill="#000000" font-family="sans-serif" font-size="14" lengthAdjust="spacing" textLength="141" x="1651.5" y="1199.5156">GSMGreenSpacesList</text><text fill="#000000" font-family="sans-serif" font-size="14" lengthAdjust="spacing" textLength="130" x="1657" y="1216.0039">:List&lt;GreenSpace&gt;</text><rect fill="#E3E3E3" height="46.9766" rx="2.5" ry="2.5" style="stroke:#181818;stroke-width:0.5;" width="179" x="1809.5" y="1178.9805"/><text fill="#000000" font-family="sans-serif" font-size="14" lengthAdjust="spacing" textLength="165" x="1816.5" y="1199.5156">GSMGreenSpacesListDto</text><text fill="#000000" font-family="sans-serif" font-size="14" lengthAdjust="spacing" textLength="154" x="1822" y="1216.0039">:List&lt;GreenSpaceDto&gt;</text><rect fill="#E3E3E3" height="46.9766" rx="2.5" ry="2.5" style="stroke:#181818;stroke-width:0.5;" width="129" x="1998.5" y="1178.9805"/><text fill="#000000" font-family="sans-serif" font-size="14" lengthAdjust="spacing" textLength="110" x="2008" y="1199.5156">greenSpaceDTO</text><text fill="#000000" font-family="sans-serif" font-size="14" lengthAdjust="spacing" textLength="115" x="2005.5" y="1216.0039">:GreenSpaceDTO</text><rect fill="#FFFFFF" height="1086.6934" style="stroke:#181818;stroke-width:1.0;" width="10" x="193" y="84.2871"/><rect fill="#FFFFFF" height="29.3105" style="stroke:#181818;stroke-width:1.0;" width="10" x="370.5" y="137.9082"/><rect fill="#FFFFFF" height="29.3105" style="stroke:#181818;stroke-width:1.0;" width="10" x="528.5" y="196.5293"/><rect fill="#FFFFFF" height="29.3105" style="stroke:#181818;stroke-width:1.0;" width="10" x="670.5" y="255.1504"/><rect fill="#FFFFFF" height="29.3105" style="stroke:#181818;stroke-width:1.0;" width="10" x="790" y="313.7715"/><rect fill="#FFFFFF" height="29.3105" style="stroke:#181818;stroke-width:1.0;" width="10" x="903" y="372.3926"/><rect fill="#FFFFFF" height="327.8398" style="stroke:#181818;stroke-width:1.0;" width="10" x="1050.5" y="431.0137"/><rect fill="#FFFFFF" height="30" style="stroke:#181818;stroke-width:1.0;" width="10" x="1234.5" y="542.6113"/><rect fill="#FFFFFF" height="337.5059" style="stroke:#181818;stroke-width:1.0;" width="10" x="1392" y="788.1641"/><rect fill="#FFFFFF" height="34.3105" style="stroke:#181818;stroke-width:1.0;" width="10" x="1397" y="967.0723"/><rect fill="#FFFFFF" height="30" style="stroke:#181818;stroke-width:1.0;" width="10" x="1580" y="601.9219"/><rect fill="#FFFFFF" height="30" style="stroke:#181818;stroke-width:1.0;" width="10" x="1717" y="685.543"/><rect fill="#FFFFFF" height="30" style="stroke:#181818;stroke-width:1.0;" width="10" x="1717" y="899.7617"/><rect fill="#FFFFFF" height="30" style="stroke:#181818;stroke-width:1.0;" width="10" x="1894" y="1059.3594"/><polygon fill="#181818" points="181,80.2871,191,84.2871,181,88.2871,185,84.2871" style="stroke:#181818;stroke-width:1.0;"/><line style="stroke:#181818;stroke-width:1.0;" x1="0" x2="187" y1="84.2871" y2="84.2871"/><text fill="#000000" font-family="sans-serif" font-size="13" font-weight="bold" lengthAdjust="spacing" textLength="9" x="7" y="79.5449">3</text><text fill="#000000" font-family="sans-serif" font-size="13" lengthAdjust="spacing" textLength="107" x="20" y="79.5449">getGreenSpaces()</text><path d="M94.5,99.2871 L257.5,99.2871 L257.5,106.5977 L247.5,116.5977 L94.5,116.5977 L94.5,99.2871 " fill="#EEEEEE" style="stroke:#000000;stroke-width:1.5;"/><rect fill="none" height="1034.3828" style="stroke:#000000;stroke-width:1.5;" width="2053" x="94.5" y="99.2871"/><text fill="#000000" font-family="sans-serif" font-size="13" font-weight="bold" lengthAdjust="spacing" textLength="118" x="109.5" y="112.8555">Get Green Spaces</text><polygon fill="#181818" points="358.5,133.9082,368.5,137.9082,358.5,141.9082,362.5,137.9082" style="stroke:#181818;stroke-width:1.0;"/><line style="stroke:#181818;stroke-width:1.0;" x1="203" x2="364.5" y1="137.9082" y2="137.9082"/><text fill="#000000" font-family="sans-serif" font-size="13" font-weight="bold" lengthAdjust="spacing" textLength="21" x="210" y="133.166">3.1</text><text fill="#000000" font-family="sans-serif" font-size="13" lengthAdjust="spacing" textLength="81" x="235" y="133.166">getInstance()</text><polygon fill="#181818" points="214,163.2188,204,167.2188,214,171.2188,210,167.2188" style="stroke:#181818;stroke-width:1.0;"/><line style="stroke:#181818;stroke-width:1.0;" x1="208" x2="374.5" y1="167.2188" y2="167.2188"/><text fill="#000000" font-family="sans-serif" font-size="13" font-weight="bold" lengthAdjust="spacing" textLength="21" x="220" y="162.4766">3.2</text><text fill="#000000" font-family="sans-serif" font-size="13" lengthAdjust="spacing" textLength="71" x="245" y="162.4766">appSession</text><polygon fill="#181818" points="516.5,192.5293,526.5,196.5293,516.5,200.5293,520.5,196.5293" style="stroke:#181818;stroke-width:1.0;"/><line style="stroke:#181818;stroke-width:1.0;" x1="203" x2="522.5" y1="196.5293" y2="196.5293"/><text fill="#000000" font-family="sans-serif" font-size="13" font-weight="bold" lengthAdjust="spacing" textLength="21" x="210" y="191.7871">3.3</text><text fill="#000000" font-family="sans-serif" font-size="13" lengthAdjust="spacing" textLength="123" x="235" y="191.7871">getCurrentSession()</text><polygon fill="#181818" points="214,221.8398,204,225.8398,214,229.8398,210,225.8398" style="stroke:#181818;stroke-width:1.0;"/><line style="stroke:#181818;stroke-width:1.0;stroke-dasharray:2.0,2.0;" x1="208" x2="532.5" y1="225.8398" y2="225.8398"/><text fill="#000000" font-family="sans-serif" font-size="13" font-weight="bold" lengthAdjust="spacing" textLength="21" x="220" y="221.0977">3.4</text><text fill="#000000" font-family="sans-serif" font-size="13" lengthAdjust="spacing" textLength="93" x="245" y="221.0977">currentSession</text><polygon fill="#181818" points="658.5,251.1504,668.5,255.1504,658.5,259.1504,662.5,255.1504" style="stroke:#181818;stroke-width:1.0;"/><line style="stroke:#181818;stroke-width:1.0;" x1="203" x2="664.5" y1="255.1504" y2="255.1504"/><text fill="#000000" font-family="sans-serif" font-size="13" font-weight="bold" lengthAdjust="spacing" textLength="21" x="210" y="250.4082">3.5</text><text fill="#000000" font-family="sans-serif" font-size="13" lengthAdjust="spacing" textLength="142" x="235" y="250.4082">email = getUserEmail()</text><polygon fill="#181818" points="214,280.4609,204,284.4609,214,288.4609,210,284.4609" style="stroke:#181818;stroke-width:1.0;"/><line style="stroke:#181818;stroke-width:1.0;stroke-dasharray:2.0,2.0;" x1="208" x2="674.5" y1="284.4609" y2="284.4609"/><text fill="#000000" font-family="sans-serif" font-size="13" font-weight="bold" lengthAdjust="spacing" textLength="21" x="220" y="279.7188">3.6</text><text fill="#000000" font-family="sans-serif" font-size="13" lengthAdjust="spacing" textLength="34" x="245" y="279.7188">email</text><polygon fill="#181818" points="778,309.7715,788,313.7715,778,317.7715,782,313.7715" style="stroke:#181818;stroke-width:1.0;"/><line style="stroke:#181818;stroke-width:1.0;" x1="203" x2="784" y1="313.7715" y2="313.7715"/><text fill="#000000" font-family="sans-serif" font-size="13" font-weight="bold" lengthAdjust="spacing" textLength="21" x="210" y="309.0293">3.7</text><text fill="#000000" font-family="sans-serif" font-size="13" lengthAdjust="spacing" textLength="81" x="235" y="309.0293">getInstance()</text><polygon fill="#181818" points="214,339.082,204,343.082,214,347.082,210,343.082" style="stroke:#181818;stroke-width:1.0;"/><line style="stroke:#181818;stroke-width:1.0;stroke-dasharray:2.0,2.0;" x1="208" x2="794" y1="343.082" y2="343.082"/><text fill="#000000" font-family="sans-serif" font-size="13" font-weight="bold" lengthAdjust="spacing" textLength="21" x="220" y="338.3398">3.8</text><text fill="#000000" font-family="sans-serif" font-size="13" lengthAdjust="spacing" textLength="75" x="245" y="338.3398">repositories</text><polygon fill="#181818" points="891,368.3926,901,372.3926,891,376.3926,895,372.3926" style="stroke:#181818;stroke-width:1.0;"/><line style="stroke:#181818;stroke-width:1.0;" x1="203" x2="897" y1="372.3926" y2="372.3926"/><text fill="#000000" font-family="sans-serif" font-size="13" font-weight="bold" lengthAdjust="spacing" textLength="21" x="210" y="367.6504">3.9</text><text fill="#000000" font-family="sans-serif" font-size="13" lengthAdjust="spacing" textLength="167" x="235" y="367.6504">getGreenSpaceRepository()</text><polygon fill="#181818" points="214,397.7031,204,401.7031,214,405.7031,210,401.7031" style="stroke:#181818;stroke-width:1.0;"/><line style="stroke:#181818;stroke-width:1.0;stroke-dasharray:2.0,2.0;" x1="208" x2="907" y1="401.7031" y2="401.7031"/><text fill="#000000" font-family="sans-serif" font-size="13" font-weight="bold" lengthAdjust="spacing" textLength="30" x="220" y="396.9609">3.10</text><text fill="#000000" font-family="sans-serif" font-size="13" lengthAdjust="spacing" textLength="138" x="254" y="396.9609">greenSpaceRepository</text><polygon fill="#181818" points="1038.5,427.0137,1048.5,431.0137,1038.5,435.0137,1042.5,431.0137" style="stroke:#181818;stroke-width:1.0;"/><line style="stroke:#181818;stroke-width:1.0;" x1="203" x2="1044.5" y1="431.0137" y2="431.0137"/><text fill="#000000" font-family="sans-serif" font-size="13" font-weight="bold" lengthAdjust="spacing" textLength="30" x="210" y="426.2715">3.11</text><text fill="#000000" font-family="sans-serif" font-size="13" lengthAdjust="spacing" textLength="141" x="244" y="426.2715">getGreenSpaces(email)</text><polygon fill="#181818" points="1632.5,456.3242,1642.5,460.3242,1632.5,464.3242,1636.5,460.3242" style="stroke:#181818;stroke-width:1.0;"/><line style="stroke:#181818;stroke-width:1.0;stroke-dasharray:2.0,2.0;" x1="1060.5" x2="1638.5" y1="460.3242" y2="460.3242"/><text fill="#000000" font-family="sans-serif" font-size="13" font-weight="bold" lengthAdjust="spacing" textLength="30" x="1067.5" y="455.582">3.12</text><text fill="#000000" font-family="sans-serif" font-size="13" lengthAdjust="spacing" textLength="46" x="1101.5" y="455.582">create()</text><rect fill="#E3E3E3" height="46.9766" rx="2.5" ry="2.5" style="stroke:#181818;stroke-width:0.5;" width="155" x="1644.5" y="439.0137"/><text fill="#000000" font-family="sans-serif" font-size="14" lengthAdjust="spacing" textLength="141" x="1651.5" y="459.5488">GSMGreenSpacesList</text><text fill="#000000" font-family="sans-serif" font-size="14" lengthAdjust="spacing" textLength="130" x="1657" y="476.0371">:List&lt;GreenSpace&gt;</text><path d="M949.5,503.9902 L1023.5,503.9902 L1023.5,511.3008 L1013.5,521.3008 L949.5,521.3008 L949.5,503.9902 " fill="#EEEEEE" style="stroke:#000000;stroke-width:1.5;"/><rect fill="none" height="226.5527" style="stroke:#000000;stroke-width:1.5;" width="870" x="949.5" y="503.9902"/><text fill="#000000" font-family="sans-serif" font-size="13" font-weight="bold" lengthAdjust="spacing" textLength="29" x="964.5" y="517.5586">loop</text><text fill="#000000" font-family="sans-serif" font-size="11" font-weight="bold" lengthAdjust="spacing" textLength="166" x="1038.5" y="516.625">[for each known Green Space]</text><polygon fill="#181818" points="1222.5,538.6113,1232.5,542.6113,1222.5,546.6113,1226.5,542.6113" style="stroke:#181818;stroke-width:1.0;"/><line style="stroke:#181818;stroke-width:1.0;" x1="1060.5" x2="1228.5" y1="542.6113" y2="542.6113"/><text fill="#000000" font-family="sans-serif" font-size="13" font-weight="bold" lengthAdjust="spacing" textLength="30" x="1067.5" y="537.8691">3.13</text><text fill="#000000" font-family="sans-serif" font-size="13" lengthAdjust="spacing" textLength="121" x="1101.5" y="537.8691">greenSpace = get(i)</text><polygon fill="#181818" points="1568,597.9219,1578,601.9219,1568,605.9219,1572,601.9219" style="stroke:#181818;stroke-width:1.0;"/><line style="stroke:#181818;stroke-width:1.0;" x1="1060.5" x2="1574" y1="601.9219" y2="601.9219"/><text fill="#000000" font-family="sans-serif" font-size="13" font-weight="bold" lengthAdjust="spacing" textLength="30" x="1067.5" y="597.1797">3.14</text><text fill="#000000" font-family="sans-serif" font-size="13" lengthAdjust="spacing" textLength="171" x="1101.5" y="597.1797">GSM = hasUserEmail(email)</text><path d="M959.5,646.9219 L1026.5,646.9219 L1026.5,654.2324 L1016.5,664.2324 L959.5,664.2324 L959.5,646.9219 " fill="#EEEEEE" style="stroke:#000000;stroke-width:1.5;"/><rect fill="none" height="76.6211" style="stroke:#000000;stroke-width:1.5;" width="850" x="959.5" y="646.9219"/><text fill="#000000" font-family="sans-serif" font-size="13" font-weight="bold" lengthAdjust="spacing" textLength="22" x="974.5" y="660.4902">opt</text><text fill="#000000" font-family="sans-serif" font-size="11" font-weight="bold" lengthAdjust="spacing" textLength="84" x="1041.5" y="659.5566">[hasUserEmail]</text><polygon fill="#181818" points="1705,681.543,1715,685.543,1705,689.543,1709,685.543" style="stroke:#181818;stroke-width:1.0;"/><line style="stroke:#181818;stroke-width:1.0;" x1="1060.5" x2="1711" y1="685.543" y2="685.543"/><text fill="#000000" font-family="sans-serif" font-size="13" font-weight="bold" lengthAdjust="spacing" textLength="30" x="1067.5" y="680.8008">3.15</text><text fill="#000000" font-family="sans-serif" font-size="13" lengthAdjust="spacing" textLength="102" x="1101.5" y="680.8008">add(greenSpace)</text><polygon fill="#181818" points="214,754.8535,204,758.8535,214,762.8535,210,758.8535" style="stroke:#181818;stroke-width:1.0;"/><line style="stroke:#181818;stroke-width:1.0;stroke-dasharray:2.0,2.0;" x1="208" x2="1054.5" y1="758.8535" y2="758.8535"/><text fill="#000000" font-family="sans-serif" font-size="13" font-weight="bold" lengthAdjust="spacing" textLength="30" x="220" y="754.1113">3.16</text><text fill="#000000" font-family="sans-serif" font-size="13" lengthAdjust="spacing" textLength="129" x="254" y="754.1113">GSMGreenSpacesList</text><polygon fill="#181818" points="1380,784.1641,1390,788.1641,1380,792.1641,1384,788.1641" style="stroke:#181818;stroke-width:1.0;"/><line style="stroke:#181818;stroke-width:1.0;" x1="203" x2="1386" y1="788.1641" y2="788.1641"/><text fill="#000000" font-family="sans-serif" font-size="13" font-weight="bold" lengthAdjust="spacing" textLength="30" x="210" y="783.4219">3.17</text><text fill="#000000" font-family="sans-serif" font-size="13" lengthAdjust="spacing" textLength="178" x="244" y="783.4219">toDTO(GSMGreenSpacesList)</text><polygon fill="#181818" points="1797.5,813.4746,1807.5,817.4746,1797.5,821.4746,1801.5,817.4746" style="stroke:#181818;stroke-width:1.0;"/><line style="stroke:#181818;stroke-width:1.0;stroke-dasharray:2.0,2.0;" x1="1402" x2="1803.5" y1="817.4746" y2="817.4746"/><text fill="#000000" font-family="sans-serif" font-size="13" font-weight="bold" lengthAdjust="spacing" textLength="30" x="1409" y="812.7324">3.18</text><text fill="#000000" font-family="sans-serif" font-size="13" lengthAdjust="spacing" textLength="46" x="1443" y="812.7324">create()</text><rect fill="#E3E3E3" height="46.9766" rx="2.5" ry="2.5" style="stroke:#181818;stroke-width:0.5;" width="179" x="1809.5" y="796.1641"/><text fill="#000000" font-family="sans-serif" font-size="14" lengthAdjust="spacing" textLength="165" x="1816.5" y="816.6992">GSMGreenSpacesListDto</text><text fill="#000000" font-family="sans-serif" font-size="14" lengthAdjust="spacing" textLength="154" x="1822" y="833.1875">:List&lt;GreenSpaceDto&gt;</text><path d="M1311.5,861.1406 L1385.5,861.1406 L1385.5,868.4512 L1375.5,878.4512 L1311.5,878.4512 L1311.5,861.1406 " fill="#EEEEEE" style="stroke:#000000;stroke-width:1.5;"/><rect fill="none" height="236.2188" style="stroke:#000000;stroke-width:1.5;" width="826" x="1311.5" y="861.1406"/><text fill="#000000" font-family="sans-serif" font-size="13" font-weight="bold" lengthAdjust="spacing" textLength="29" x="1326.5" y="874.709">loop</text><text fill="#000000" font-family="sans-serif" font-size="11" font-weight="bold" lengthAdjust="spacing" textLength="224" x="1400.5" y="873.7754">[for each object in GSMGreenSpacesList]</text><polygon fill="#181818" points="1705,895.7617,1715,899.7617,1705,903.7617,1709,899.7617" style="stroke:#181818;stroke-width:1.0;"/><line style="stroke:#181818;stroke-width:1.0;" x1="1402" x2="1711" y1="899.7617" y2="899.7617"/><text fill="#000000" font-family="sans-serif" font-size="13" font-weight="bold" lengthAdjust="spacing" textLength="30" x="1409" y="895.0195">3.19</text><text fill="#000000" font-family="sans-serif" font-size="13" lengthAdjust="spacing" textLength="70" x="1443" y="895.0195">obj = get(i)</text><line style="stroke:#181818;stroke-width:1.0;" x1="1402" x2="1449" y1="954.0723" y2="954.0723"/><line style="stroke:#181818;stroke-width:1.0;" x1="1449" x2="1449" y1="954.0723" y2="967.0723"/><line style="stroke:#181818;stroke-width:1.0;" x1="1408" x2="1449" y1="967.0723" y2="967.0723"/><polygon fill="#181818" points="1418,963.0723,1408,967.0723,1418,971.0723,1414,967.0723" style="stroke:#181818;stroke-width:1.0;"/><text fill="#000000" font-family="sans-serif" font-size="13" font-weight="bold" lengthAdjust="spacing" textLength="30" x="1414" y="949.3301">3.20</text><text fill="#000000" font-family="sans-serif" font-size="13" lengthAdjust="spacing" textLength="130" x="1448" y="949.3301">objDto = toDTO(obj)</text><polygon fill="#181818" points="1986.5,997.3828,1996.5,1001.3828,1986.5,1005.3828,1990.5,1001.3828" style="stroke:#181818;stroke-width:1.0;"/><line style="stroke:#181818;stroke-width:1.0;" x1="1402" x2="1992.5" y1="1001.3828" y2="1001.3828"/><text fill="#000000" font-family="sans-serif" font-size="13" font-weight="bold" lengthAdjust="spacing" textLength="30" x="1409" y="996.6406">3.21</text><text fill="#000000" font-family="sans-serif" font-size="13" lengthAdjust="spacing" textLength="58" x="1443" y="996.6406">create(...)</text><rect fill="#E3E3E3" height="46.9766" rx="2.5" ry="2.5" style="stroke:#181818;stroke-width:0.5;" width="129" x="1998.5" y="980.0723"/><text fill="#000000" font-family="sans-serif" font-size="14" lengthAdjust="spacing" textLength="110" x="2008" y="1000.6074">greenSpaceDTO</text><text fill="#000000" font-family="sans-serif" font-size="14" lengthAdjust="spacing" textLength="115" x="2005.5" y="1017.0957">:GreenSpaceDTO</text><polygon fill="#181818" points="1882,1055.3594,1892,1059.3594,1882,1063.3594,1886,1059.3594" style="stroke:#181818;stroke-width:1.0;"/><line style="stroke:#181818;stroke-width:1.0;" x1="1402" x2="1888" y1="1059.3594" y2="1059.3594"/><text fill="#000000" font-family="sans-serif" font-size="13" font-weight="bold" lengthAdjust="spacing" textLength="30" x="1409" y="1054.6172">3.22</text><text fill="#000000" font-family="sans-serif" font-size="13" lengthAdjust="spacing" textLength="74" x="1443" y="1054.6172">add(objDto)</text><polygon fill="#181818" points="214,1121.6699,204,1125.6699,214,1129.6699,210,1125.6699" style="stroke:#181818;stroke-width:1.0;"/><line style="stroke:#181818;stroke-width:1.0;stroke-dasharray:2.0,2.0;" x1="208" x2="1396" y1="1125.6699" y2="1125.6699"/><text fill="#000000" font-family="sans-serif" font-size="13" font-weight="bold" lengthAdjust="spacing" textLength="30" x="220" y="1120.9277">3.23</text><text fill="#000000" font-family="sans-serif" font-size="13" lengthAdjust="spacing" textLength="152" x="254" y="1120.9277">GSMGreenSpacesListDto</text><polygon fill="#181818" points="11,1157.9805,1,1161.9805,11,1165.9805,7,1161.9805" style="stroke:#181818;stroke-width:1.0;"/><line style="stroke:#181818;stroke-width:1.0;stroke-dasharray:2.0,2.0;" x1="5" x2="192" y1="1161.9805" y2="1161.9805"/><text fill="#000000" font-family="sans-serif" font-size="13" font-weight="bold" lengthAdjust="spacing" textLength="18" x="17" y="1157.2383">27</text><text fill="#000000" font-family="sans-serif" font-size="13" lengthAdjust="spacing" textLength="152" x="39" y="1157.2383">GSMGreenSpacesListDto</text><!--SRC=[hLRVQzim47xtNo7wb1OIsFOm25sWj2KKsZNKtTjWgCurqUf8Hb9M-j_l93knViOUp0y9Fjrzz-bytqdgZV66IheZEy55jPLY1qJBFHJgkDBGwerkeDGVDH09bQPyKxiEQalNuftn3NcbjOAYGBDc5Mier-HilX9ADuB3BTVourhWhwXha6U4AdBz_7GVk5yrJSqggfdW9IY5VzRprzLgvNlIfkaSVl9SL1HKxQK4hll07mga6r7UbkNTu_U0r1CqGZ4j90DbtOw6ZvAPScZ1_H3fH62Q261rV_NiHsma02-nsj23O-GoORO8gOKSehfdIYEO-Rli0nSMA73BOJnWmK5wZ5fJmAOrvb2y-22z7xCi7vRZDX1x3Y7TQ163eJ67Xqkv3TqyFtfxmlTWMsWf2hh75jdlNa2IByLqOJkVpCa6j9DgSkuxpZxXUwNP7wgXrGh1PoF5lY5Bq6tHIHjRsBNkiUYOnQZ69hdZ2dLR0MPmt8xOLbtkYZ6GZkQSz59pVTQGZpyGEEI_zdINOH62M0v74hvqCqHoF3fPpmdiAAl9DyF9IF_Ml6Re74Q1kzZP75eMCCCcXN1Wb9WWPCodIaqUrp65sxDrnrA6z522mmRC10ixk8_DiBTZprsnA5D74AcfbYOQOHsOfVZ4MhCVBiqoELfTpsG6iujuT5nSOEfA0k8QUJiWjH0DUHMIu9Qsv8sBT-ugUZZV8XpTNltQ9f-mz1R3ePykSUZrRvoG3jO3UMofwiLsekxEKJ34nwCY6ktb64Cp_b98bwxNapv7fZdYqoPDzhGZyBNXNOGsqnNZUgrJp7W-GrqTwwSzop695dYAJU9KG_hfBWFf_NJeQTtWaJjMEkBbDrvB2UC3jOWpPze00K-h9v5dV1CCKehBZuIm7iYf_Gxu-byAl_1lAQRUNRbdizdvO1kDp97yjftOsesDBRAvXeskS-Wy82wd6RF2Cf1ZYrAOVFQgvbxfFdyjBgVJqnd-0W00]--></g></svg>