<?xml version="1.0" encoding="us-ascii" standalone="no"?><svg xmlns="http://www.w3.org/2000/svg" xmlns:xlink="http://www.w3.org/1999/xlink" contentStyleType="text/css" height="390px" preserveAspectRatio="none" style="width:732px;height:390px;background:#FFFFFF;" version="1.1" viewBox="0 0 732 390" width="732px" zoomAndPan="magnify"><defs/><g><rect fill="#FFFFFF" height="245.4844" style="stroke:#181818;stroke-width:1.0;" width="10" x="263" y="84.2871"/><rect fill="#FFFFFF" height="29.3105" style="stroke:#181818;stroke-width:1.0;" width="10" x="418" y="137.9082"/><rect fill="#FFFFFF" height="29.3105" style="stroke:#181818;stroke-width:1.0;" width="10" x="531" y="196.5293"/><rect fill="#FFFFFF" height="29.3105" style="stroke:#181818;stroke-width:1.0;" width="10" x="652" y="255.1504"/><rect fill="none" height="193.1738" style="stroke:#000000;stroke-width:1.5;" width="562" x="164.5" y="99.2871"/><line style="stroke:#181818;stroke-width:0.5;stroke-dasharray:5.0,5.0;" x1="267.5" x2="267.5" y1="52.9766" y2="338.7715"/><line style="stroke:#181818;stroke-width:0.5;stroke-dasharray:5.0,5.0;" x1="422.5" x2="422.5" y1="52.9766" y2="338.7715"/><line style="stroke:#181818;stroke-width:0.5;stroke-dasharray:5.0,5.0;" x1="535.5" x2="535.5" y1="52.9766" y2="338.7715"/><line style="stroke:#181818;stroke-width:0.5;stroke-dasharray:5.0,5.0;" x1="656.5" x2="656.5" y1="52.9766" y2="338.7715"/><rect fill="#E3E3E3" height="30.4883" rx="2.5" ry="2.5" style="stroke:#181818;stroke-width:0.5;" width="187" x="174.5" y="21.4883"/><text fill="#000000" font-family="sans-serif" font-size="14" lengthAdjust="spacing" textLength="173" x="181.5" y="42.0234">:PostponeEntryController</text><rect fill="#E3E3E3" height="30.4883" rx="2.5" ry="2.5" style="stroke:#181818;stroke-width:0.5;" width="187" x="174.5" y="337.7715"/><text fill="#000000" font-family="sans-serif" font-size="14" lengthAdjust="spacing" textLength="173" x="181.5" y="358.3066">:PostponeEntryController</text><rect fill="#E3E3E3" height="30.4883" rx="2.5" ry="2.5" style="stroke:#181818;stroke-width:0.5;" width="103" x="371.5" y="21.4883"/><text fill="#000000" font-family="sans-serif" font-size="14" lengthAdjust="spacing" textLength="89" x="378.5" y="42.0234">:Repositories</text><rect fill="#E3E3E3" height="30.4883" rx="2.5" ry="2.5" style="stroke:#181818;stroke-width:0.5;" width="103" x="371.5" y="337.7715"/><text fill="#000000" font-family="sans-serif" font-size="14" lengthAdjust="spacing" textLength="89" x="378.5" y="358.3066">:Repositories</text><rect fill="#E3E3E3" height="46.9766" rx="2.5" ry="2.5" style="stroke:#181818;stroke-width:0.5;" width="103" x="484.5" y="5"/><text fill="#000000" font-family="sans-serif" font-size="14" lengthAdjust="spacing" textLength="82" x="495" y="25.5352">repositories</text><text fill="#000000" font-family="sans-serif" font-size="14" lengthAdjust="spacing" textLength="89" x="491.5" y="42.0234">:Repositories</text><rect fill="#E3E3E3" height="46.9766" rx="2.5" ry="2.5" style="stroke:#181818;stroke-width:0.5;" width="103" x="484.5" y="337.7715"/><text fill="#000000" font-family="sans-serif" font-size="14" lengthAdjust="spacing" textLength="82" x="495" y="358.3066">repositories</text><text fill="#000000" font-family="sans-serif" font-size="14" lengthAdjust="spacing" textLength="89" x="491.5" y="374.7949">:Repositories</text><rect fill="#E3E3E3" height="30.4883" rx="2.5" ry="2.5" style="stroke:#181818;stroke-width:0.5;" width="119" x="597.5" y="21.4883"/><text fill="#000000" font-family="sans-serif" font-size="14" lengthAdjust="spacing" textLength="105" x="604.5" y="42.0234">TaskRepository</text><rect fill="#E3E3E3" height="30.4883" rx="2.5" ry="2.5" style="stroke:#181818;stroke-width:0.5;" width="119" x="597.5" y="337.7715"/><text fill="#000000" font-family="sans-serif" font-size="14" lengthAdjust="spacing" textLength="105" x="604.5" y="358.3066">TaskRepository</text><rect fill="#FFFFFF" height="245.4844" style="stroke:#181818;stroke-width:1.0;" width="10" x="263" y="84.2871"/><rect fill="#FFFFFF" height="29.3105" style="stroke:#181818;stroke-width:1.0;" width="10" x="418" y="137.9082"/><rect fill="#FFFFFF" height="29.3105" style="stroke:#181818;stroke-width:1.0;" width="10" x="531" y="196.5293"/><rect fill="#FFFFFF" height="29.3105" style="stroke:#181818;stroke-width:1.0;" width="10" x="652" y="255.1504"/><polygon fill="#181818" points="251,80.2871,261,84.2871,251,88.2871,255,84.2871" style="stroke:#181818;stroke-width:1.0;"/><line style="stroke:#181818;stroke-width:1.0;" x1="0" x2="257" y1="84.2871" y2="84.2871"/><text fill="#000000" font-family="sans-serif" font-size="13" font-weight="bold" lengthAdjust="spacing" textLength="18" x="7" y="79.5449">13</text><text fill="#000000" font-family="sans-serif" font-size="13" lengthAdjust="spacing" textLength="222" x="29" y="79.5449">getTasksByGreenSpace(greenSpace)</text><path d="M164.5,99.2871 L383.5,99.2871 L383.5,106.5977 L373.5,116.5977 L164.5,116.5977 L164.5,99.2871 " fill="#EEEEEE" style="stroke:#000000;stroke-width:1.5;"/><rect fill="none" height="193.1738" style="stroke:#000000;stroke-width:1.5;" width="562" x="164.5" y="99.2871"/><text fill="#000000" font-family="sans-serif" font-size="13" font-weight="bold" lengthAdjust="spacing" textLength="174" x="179.5" y="112.8555">Get Tasks By Green Space</text><polygon fill="#181818" points="406,133.9082,416,137.9082,406,141.9082,410,137.9082" style="stroke:#181818;stroke-width:1.0;"/><line style="stroke:#181818;stroke-width:1.0;" x1="273" x2="412" y1="137.9082" y2="137.9082"/><text fill="#000000" font-family="sans-serif" font-size="13" font-weight="bold" lengthAdjust="spacing" textLength="30" x="280" y="133.166">13.1</text><text fill="#000000" font-family="sans-serif" font-size="13" lengthAdjust="spacing" textLength="81" x="314" y="133.166">getInstance()</text><polygon fill="#181818" points="284,163.2188,274,167.2188,284,171.2188,280,167.2188" style="stroke:#181818;stroke-width:1.0;"/><line style="stroke:#181818;stroke-width:1.0;stroke-dasharray:2.0,2.0;" x1="278" x2="422" y1="167.2188" y2="167.2188"/><text fill="#000000" font-family="sans-serif" font-size="13" font-weight="bold" lengthAdjust="spacing" textLength="30" x="290" y="162.4766">13.2</text><text fill="#000000" font-family="sans-serif" font-size="13" lengthAdjust="spacing" textLength="75" x="324" y="162.4766">repositories</text><polygon fill="#181818" points="519,192.5293,529,196.5293,519,200.5293,523,196.5293" style="stroke:#181818;stroke-width:1.0;"/><line style="stroke:#181818;stroke-width:1.0;" x1="273" x2="525" y1="196.5293" y2="196.5293"/><text fill="#000000" font-family="sans-serif" font-size="13" font-weight="bold" lengthAdjust="spacing" textLength="30" x="280" y="191.7871">13.3</text><text fill="#000000" font-family="sans-serif" font-size="13" lengthAdjust="spacing" textLength="125" x="314" y="191.7871">getTaskRepository()</text><polygon fill="#181818" points="284,221.8398,274,225.8398,284,229.8398,280,225.8398" style="stroke:#181818;stroke-width:1.0;"/><line style="stroke:#181818;stroke-width:1.0;stroke-dasharray:2.0,2.0;" x1="278" x2="535" y1="225.8398" y2="225.8398"/><text fill="#000000" font-family="sans-serif" font-size="13" font-weight="bold" lengthAdjust="spacing" textLength="30" x="290" y="221.0977">13.4</text><text fill="#000000" font-family="sans-serif" font-size="13" lengthAdjust="spacing" textLength="94" x="324" y="221.0977">taskRepository</text><polygon fill="#181818" points="640,251.1504,650,255.1504,640,259.1504,644,255.1504" style="stroke:#181818;stroke-width:1.0;"/><line style="stroke:#181818;stroke-width:1.0;" x1="273" x2="646" y1="255.1504" y2="255.1504"/><text fill="#000000" font-family="sans-serif" font-size="13" font-weight="bold" lengthAdjust="spacing" textLength="30" x="280" y="250.4082">13.5</text><text fill="#000000" font-family="sans-serif" font-size="13" lengthAdjust="spacing" textLength="222" x="314" y="250.4082">getTasksByGreenSpace(greenSpace)</text><polygon fill="#181818" points="284,280.4609,274,284.4609,284,288.4609,280,284.4609" style="stroke:#181818;stroke-width:1.0;"/><line style="stroke:#181818;stroke-width:1.0;stroke-dasharray:2.0,2.0;" x1="278" x2="656" y1="284.4609" y2="284.4609"/><text fill="#000000" font-family="sans-serif" font-size="13" font-weight="bold" lengthAdjust="spacing" textLength="30" x="290" y="279.7188">13.6</text><text fill="#000000" font-family="sans-serif" font-size="13" lengthAdjust="spacing" textLength="120" x="324" y="279.7188">tasksByGreenSpace</text><polygon fill="#181818" points="11,316.7715,1,320.7715,11,324.7715,7,320.7715" style="stroke:#181818;stroke-width:1.0;"/><line style="stroke:#181818;stroke-width:1.0;stroke-dasharray:2.0,2.0;" x1="5" x2="262" y1="320.7715" y2="320.7715"/><text fill="#000000" font-family="sans-serif" font-size="13" font-weight="bold" lengthAdjust="spacing" textLength="18" x="17" y="316.0293">14</text><text fill="#000000" font-family="sans-serif" font-size="13" lengthAdjust="spacing" textLength="120" x="39" y="316.0293">tasksByGreenSpace</text><!--SRC=[ZL9FQuCm5B_dKpnwMWyEodQICLXBAOCUIlMuIwPlDgY99CyDl_rYR3LQXUOWylBxb_UUoOMikEObb4ggvA9LYK2wHcRwcuedESymegP0q9WGbrdX0yo5f-fFo0n-U66GCLicaOYAIu9LU5A6AYLnBqatEsM_gYXGhu0RsCNdumH-naePGKeBD0xJ5vf8jCwav9YYFSQNl1Su7J_YCIFc9Xza7MXSOepNrgSklr73veK5xougX90XjL2pRGuQKKQsE_YKzR_h2VDvOmi9YLzEsBqMxCcqgYiu83bR0zi6d1eu3GUv7kTgtMUQq8NvbCOEn6PO-xJUSgvvFd1EDxY-DWI_ipuhnOSDRWzeXp2qRs0jv7OpysySVqX6ut7DPxiJkOKPHtXagdCPfolZOIO6mR0_DBLPo3uLHvbsQpFQhrVs5WJBqly0]--></g></svg>