<?xml version="1.0" encoding="us-ascii" standalone="no"?><svg xmlns="http://www.w3.org/2000/svg" xmlns:xlink="http://www.w3.org/1999/xlink" contentStyleType="text/css" height="1113px" preserveAspectRatio="none" style="width:1116px;height:1113px;background:#FFFFFF;" version="1.1" viewBox="0 0 1116 1113" width="1116px" zoomAndPan="magnify"><defs/><g><text fill="#000000" font-family="sans-serif" font-size="14" font-weight="bold" lengthAdjust="spacing" textLength="298" x="402" y="23.5352">US024 - Postpone an entry in the agenda</text><!--class PostponeEntryUI--><g id="elem_PostponeEntryUI"><rect codeLine="13" fill="#F1F1F1" height="48" id="PostponeEntryUI" rx="2.5" ry="2.5" style="stroke:#181818;stroke-width:0.5;" width="145" x="463.5" y="44.4883"/><ellipse cx="478.5" cy="60.4883" fill="#ADD1B2" rx="11" ry="11" style="stroke:#181818;stroke-width:1.0;"/><path d="M481.4731,66.1313 Q480.8921,66.4302 480.2529,66.5796 Q479.6138,66.729 478.9082,66.729 Q476.4014,66.729 475.0815,65.0771 Q473.7617,63.4253 473.7617,60.3042 Q473.7617,57.1748 475.0815,55.5229 Q476.4014,53.8711 478.9082,53.8711 Q479.6138,53.8711 480.2612,54.0205 Q480.9087,54.1699 481.4731,54.4688 L481.4731,57.1914 Q480.8423,56.6104 480.2488,56.3406 Q479.6553,56.0708 479.0244,56.0708 Q477.6797,56.0708 476.9949,57.1375 Q476.3101,58.2041 476.3101,60.3042 Q476.3101,62.396 476.9949,63.4626 Q477.6797,64.5293 479.0244,64.5293 Q479.6553,64.5293 480.2488,64.2595 Q480.8423,63.9897 481.4731,63.4087 Z " fill="#000000"/><text fill="#000000" font-family="sans-serif" font-size="14" lengthAdjust="spacing" textLength="113" x="492.5" y="65.7793">PostponeEntryUI</text><line style="stroke:#181818;stroke-width:0.5;" x1="464.5" x2="607.5" y1="76.4883" y2="76.4883"/><line style="stroke:#181818;stroke-width:0.5;" x1="464.5" x2="607.5" y1="84.4883" y2="84.4883"/></g><!--class PostponeEntryController--><g id="elem_PostponeEntryController"><rect codeLine="16" fill="#F1F1F1" height="113.9531" id="PostponeEntryController" rx="2.5" ry="2.5" style="stroke:#181818;stroke-width:0.5;" width="465" x="303.5" y="153.4883"/><ellipse cx="447.25" cy="169.4883" fill="#ADD1B2" rx="11" ry="11" style="stroke:#181818;stroke-width:1.0;"/><path d="M450.2231,175.1313 Q449.6421,175.4302 449.0029,175.5796 Q448.3638,175.729 447.6582,175.729 Q445.1514,175.729 443.8315,174.0771 Q442.5117,172.4253 442.5117,169.3042 Q442.5117,166.1748 443.8315,164.5229 Q445.1514,162.8711 447.6582,162.8711 Q448.3638,162.8711 449.0112,163.0205 Q449.6587,163.1699 450.2231,163.4688 L450.2231,166.1914 Q449.5923,165.6104 448.9988,165.3406 Q448.4053,165.0708 447.7744,165.0708 Q446.4297,165.0708 445.7449,166.1375 Q445.0601,167.2041 445.0601,169.3042 Q445.0601,171.396 445.7449,172.4626 Q446.4297,173.5293 447.7744,173.5293 Q448.4053,173.5293 448.9988,173.2595 Q449.5923,172.9897 450.2231,172.4087 Z " fill="#000000"/><text fill="#000000" font-family="sans-serif" font-size="14" lengthAdjust="spacing" textLength="169" x="467.75" y="174.7793">PostponeEntryController</text><line style="stroke:#181818;stroke-width:0.5;" x1="304.5" x2="767.5" y1="185.4883" y2="185.4883"/><line style="stroke:#181818;stroke-width:0.5;" x1="304.5" x2="767.5" y1="193.4883" y2="193.4883"/><text fill="#000000" font-family="sans-serif" font-size="14" lengthAdjust="spacing" textLength="453" x="309.5" y="211.0234">+postponeEntryController(taskRepository, greenSpaceRepository)</text><text fill="#000000" font-family="sans-serif" font-size="14" lengthAdjust="spacing" textLength="291" x="309.5" y="227.5117">+List&lt;GreenSpaceDTO&gt; getGreenSpaces()</text><text fill="#000000" font-family="sans-serif" font-size="14" lengthAdjust="spacing" textLength="387" x="309.5" y="244">+List&lt;GSTaskDTO&gt; getTasksByGreenSpace(greenSpace)</text><text fill="#000000" font-family="sans-serif" font-size="14" lengthAdjust="spacing" textLength="246" x="309.5" y="260.4883">+postponeEntry(taskDTO, newDate)</text></g><!--class Repositories--><g id="elem_Repositories"><rect codeLine="24" fill="#F1F1F1" height="113.9531" id="Repositories" rx="2.5" ry="2.5" style="stroke:#181818;stroke-width:0.5;" width="209" x="431.5" y="406.4483"/><ellipse cx="489.25" cy="422.4483" fill="#ADD1B2" rx="11" ry="11" style="stroke:#181818;stroke-width:1.0;"/><path d="M492.2231,428.0913 Q491.6421,428.3902 491.0029,428.5396 Q490.3638,428.689 489.6582,428.689 Q487.1514,428.689 485.8315,427.0371 Q484.5117,425.3853 484.5117,422.2642 Q484.5117,419.1348 485.8315,417.4829 Q487.1514,415.8311 489.6582,415.8311 Q490.3638,415.8311 491.0112,415.9805 Q491.6587,416.1299 492.2231,416.4287 L492.2231,419.1514 Q491.5923,418.5704 490.9988,418.3006 Q490.4053,418.0308 489.7744,418.0308 Q488.4297,418.0308 487.7449,419.0975 Q487.0601,420.1641 487.0601,422.2642 Q487.0601,424.356 487.7449,425.4226 Q488.4297,426.4893 489.7744,426.4893 Q490.4053,426.4893 490.9988,426.2195 Q491.5923,425.9497 492.2231,425.3687 Z " fill="#000000"/><text fill="#000000" font-family="sans-serif" font-size="14" lengthAdjust="spacing" textLength="85" x="509.75" y="427.7393">Repositories</text><line style="stroke:#181818;stroke-width:0.5;" x1="432.5" x2="639.5" y1="438.4483" y2="438.4483"/><line style="stroke:#181818;stroke-width:0.5;" x1="432.5" x2="639.5" y1="446.4483" y2="446.4483"/><text fill="#000000" font-family="sans-serif" font-size="14" lengthAdjust="spacing" textLength="103" x="437.5" y="463.9834">-Repositories()</text><text fill="#000000" font-family="sans-serif" font-size="14" lengthAdjust="spacing" textLength="197" x="437.5" y="480.4717">+getInstance() : Repositories</text><text fill="#000000" font-family="sans-serif" font-size="14" lengthAdjust="spacing" textLength="197" x="437.5" y="496.96">+getGreenSpaceRepository()</text><text fill="#000000" font-family="sans-serif" font-size="14" lengthAdjust="spacing" textLength="148" x="437.5" y="513.4483">+getTaskRepository()</text></g><!--class Agenda--><g id="elem_Agenda"><rect codeLine="31" fill="#F1F1F1" height="97.4648" id="Agenda" rx="2.5" ry="2.5" style="stroke:#181818;stroke-width:0.5;" width="270" x="232" y="659.3983"/><ellipse cx="336.25" cy="675.3983" fill="#ADD1B2" rx="11" ry="11" style="stroke:#181818;stroke-width:1.0;"/><path d="M339.2231,681.0413 Q338.6421,681.3402 338.0029,681.4896 Q337.3638,681.639 336.6582,681.639 Q334.1514,681.639 332.8315,679.9871 Q331.5117,678.3353 331.5117,675.2142 Q331.5117,672.0848 332.8315,670.4329 Q334.1514,668.7811 336.6582,668.7811 Q337.3638,668.7811 338.0112,668.9305 Q338.6587,669.0799 339.2231,669.3788 L339.2231,672.1014 Q338.5923,671.5204 337.9988,671.2506 Q337.4053,670.9808 336.7744,670.9808 Q335.4297,670.9808 334.7449,672.0475 Q334.0601,673.1141 334.0601,675.2142 Q334.0601,677.306 334.7449,678.3726 Q335.4297,679.4393 336.7744,679.4393 Q337.4053,679.4393 337.9988,679.1695 Q338.5923,678.8997 339.2231,678.3187 Z " fill="#000000"/><text fill="#000000" font-family="sans-serif" font-size="14" lengthAdjust="spacing" textLength="53" x="356.75" y="680.6893">Agenda</text><line style="stroke:#181818;stroke-width:0.5;" x1="233" x2="501" y1="691.3983" y2="691.3983"/><line style="stroke:#181818;stroke-width:0.5;" x1="233" x2="501" y1="699.3983" y2="699.3983"/><text fill="#000000" font-family="sans-serif" font-size="14" lengthAdjust="spacing" textLength="258" x="238" y="716.9334">+getTasksByGreenSpace(greenSpace)</text><text fill="#000000" font-family="sans-serif" font-size="14" lengthAdjust="spacing" textLength="100" x="238" y="733.4217">+toDTO(tasks)</text><text fill="#000000" font-family="sans-serif" font-size="14" lengthAdjust="spacing" textLength="216" x="238" y="749.91">+postponeEntry(task, newDate)</text></g><!--class GreenSpaceRepository--><g id="elem_GreenSpaceRepository"><rect codeLine="37" fill="#F1F1F1" height="80.9766" id="GreenSpaceRepository" rx="2.5" ry="2.5" style="stroke:#181818;stroke-width:0.5;" width="273" x="641.5" y="667.6383"/><ellipse cx="696.75" cy="683.6383" fill="#ADD1B2" rx="11" ry="11" style="stroke:#181818;stroke-width:1.0;"/><path d="M699.7231,689.2813 Q699.1421,689.5802 698.5029,689.7296 Q697.8638,689.879 697.1582,689.879 Q694.6514,689.879 693.3315,688.2271 Q692.0117,686.5753 692.0117,683.4542 Q692.0117,680.3248 693.3315,678.6729 Q694.6514,677.0211 697.1582,677.0211 Q697.8638,677.0211 698.5112,677.1705 Q699.1587,677.3199 699.7231,677.6188 L699.7231,680.3414 Q699.0923,679.7604 698.4988,679.4906 Q697.9053,679.2208 697.2744,679.2208 Q695.9297,679.2208 695.2449,680.2875 Q694.5601,681.3541 694.5601,683.4542 Q694.5601,685.546 695.2449,686.6126 Q695.9297,687.6793 697.2744,687.6793 Q697.9053,687.6793 698.4988,687.4095 Q699.0923,687.1397 699.7231,686.5587 Z " fill="#000000"/><text fill="#000000" font-family="sans-serif" font-size="14" lengthAdjust="spacing" textLength="154" x="717.25" y="688.9293">GreenSpaceRepository</text><line style="stroke:#181818;stroke-width:0.5;" x1="642.5" x2="913.5" y1="699.6383" y2="699.6383"/><line style="stroke:#181818;stroke-width:0.5;" x1="642.5" x2="913.5" y1="707.6383" y2="707.6383"/><text fill="#000000" font-family="sans-serif" font-size="14" lengthAdjust="spacing" textLength="261" x="647.5" y="725.1734">+List&lt;GreenSpace&gt; getGreenSpaces()</text><text fill="#000000" font-family="sans-serif" font-size="14" lengthAdjust="spacing" textLength="152" x="647.5" y="741.6617">+toDTO(greenSpaces)</text></g><!--class GreenSpaceMapper--><g id="elem_GreenSpaceMapper"><rect codeLine="43" fill="#F1F1F1" height="80.9766" id="GreenSpaceMapper" rx="2.5" ry="2.5" style="stroke:#181818;stroke-width:0.5;" width="454" x="534" y="817.8583"/><ellipse cx="690.25" cy="833.8583" fill="#ADD1B2" rx="11" ry="11" style="stroke:#181818;stroke-width:1.0;"/><path d="M693.2231,839.5013 Q692.6421,839.8002 692.0029,839.9496 Q691.3638,840.099 690.6582,840.099 Q688.1514,840.099 686.8315,838.4471 Q685.5117,836.7953 685.5117,833.6742 Q685.5117,830.5448 686.8315,828.8929 Q688.1514,827.2411 690.6582,827.2411 Q691.3638,827.2411 692.0112,827.3905 Q692.6587,827.5399 693.2231,827.8387 L693.2231,830.5614 Q692.5923,829.9804 691.9988,829.7106 Q691.4053,829.4408 690.7744,829.4408 Q689.4297,829.4408 688.7449,830.5075 Q688.0601,831.5741 688.0601,833.6742 Q688.0601,835.766 688.7449,836.8326 Q689.4297,837.8993 690.7744,837.8993 Q691.4053,837.8993 691.9988,837.6295 Q692.5923,837.3597 693.2231,836.7787 Z " fill="#000000"/><text fill="#000000" font-family="sans-serif" font-size="14" lengthAdjust="spacing" textLength="133" x="710.75" y="839.1493">GreenSpaceMapper</text><line style="stroke:#181818;stroke-width:0.5;" x1="535" x2="987" y1="849.8583" y2="849.8583"/><line style="stroke:#181818;stroke-width:0.5;" x1="535" x2="987" y1="857.8583" y2="857.8583"/><text fill="#000000" font-family="sans-serif" font-size="14" lengthAdjust="spacing" textLength="442" x="540" y="875.3934">+List&lt;GreenSpaceDTO&gt; toDTO(List&lt;GreenSpace&gt; greenSpaces)</text><text fill="#000000" font-family="sans-serif" font-size="14" lengthAdjust="spacing" textLength="345" x="540" y="891.8817">+GreenSpaceDTO toDTO(GreenSpace greenSpace)</text></g><!--class GSTaskMapper--><g id="elem_GSTaskMapper"><rect codeLine="48" fill="#F1F1F1" height="80.9766" id="GSTaskMapper" rx="2.5" ry="2.5" style="stroke:#181818;stroke-width:0.5;" width="322" x="7" y="817.8583"/><ellipse cx="112.75" cy="833.8583" fill="#ADD1B2" rx="11" ry="11" style="stroke:#181818;stroke-width:1.0;"/><path d="M115.7231,839.5013 Q115.1421,839.8002 114.5029,839.9496 Q113.8638,840.099 113.1582,840.099 Q110.6514,840.099 109.3315,838.4471 Q108.0117,836.7953 108.0117,833.6742 Q108.0117,830.5448 109.3315,828.8929 Q110.6514,827.2411 113.1582,827.2411 Q113.8638,827.2411 114.5112,827.3905 Q115.1587,827.5399 115.7231,827.8387 L115.7231,830.5614 Q115.0923,829.9804 114.4988,829.7106 Q113.9053,829.4408 113.2744,829.4408 Q111.9297,829.4408 111.2449,830.5075 Q110.5601,831.5741 110.5601,833.6742 Q110.5601,835.766 111.2449,836.8326 Q111.9297,837.8993 113.2744,837.8993 Q113.9053,837.8993 114.4988,837.6295 Q115.0923,837.3597 115.7231,836.7787 Z " fill="#000000"/><text fill="#000000" font-family="sans-serif" font-size="14" lengthAdjust="spacing" textLength="102" x="133.25" y="839.1493">GSTaskMapper</text><line style="stroke:#181818;stroke-width:0.5;" x1="8" x2="328" y1="849.8583" y2="849.8583"/><line style="stroke:#181818;stroke-width:0.5;" x1="8" x2="328" y1="857.8583" y2="857.8583"/><text fill="#000000" font-family="sans-serif" font-size="14" lengthAdjust="spacing" textLength="310" x="13" y="875.3934">+List&lt;GSTaskDTO&gt; toDTO(List&lt;Task&gt; tasks)</text><text fill="#000000" font-family="sans-serif" font-size="14" lengthAdjust="spacing" textLength="213" x="13" y="891.8817">+GSTaskDTO toDTO(Task task)</text></g><!--class GreenSpaceDTO--><g id="elem_GreenSpaceDTO"><rect codeLine="53" fill="#F1F1F1" height="113.9531" id="GreenSpaceDTO" rx="2.5" ry="2.5" style="stroke:#181818;stroke-width:0.5;" width="143" x="689.5" y="976.3283"/><ellipse cx="704.5" cy="992.3283" fill="#ADD1B2" rx="11" ry="11" style="stroke:#181818;stroke-width:1.0;"/><path d="M707.4731,997.9713 Q706.8921,998.2702 706.2529,998.4196 Q705.6138,998.569 704.9082,998.569 Q702.4014,998.569 701.0815,996.9171 Q699.7617,995.2653 699.7617,992.1442 Q699.7617,989.0148 701.0815,987.3629 Q702.4014,985.7111 704.9082,985.7111 Q705.6138,985.7111 706.2612,985.8605 Q706.9087,986.0099 707.4731,986.3087 L707.4731,989.0314 Q706.8423,988.4504 706.2488,988.1806 Q705.6553,987.9108 705.0244,987.9108 Q703.6797,987.9108 702.9949,988.9775 Q702.3101,990.0441 702.3101,992.1442 Q702.3101,994.236 702.9949,995.3026 Q703.6797,996.3693 705.0244,996.3693 Q705.6553,996.3693 706.2488,996.0995 Q706.8423,995.8297 707.4731,995.2487 Z " fill="#000000"/><text fill="#000000" font-family="sans-serif" font-size="14" lengthAdjust="spacing" textLength="111" x="718.5" y="997.6193">GreenSpaceDTO</text><line style="stroke:#181818;stroke-width:0.5;" x1="690.5" x2="831.5" y1="1008.3283" y2="1008.3283"/><text fill="#000000" font-family="sans-serif" font-size="14" lengthAdjust="spacing" textLength="38" x="695.5" y="1025.8634">name</text><text fill="#000000" font-family="sans-serif" font-size="14" lengthAdjust="spacing" textLength="30" x="695.5" y="1042.3517">area</text><text fill="#000000" font-family="sans-serif" font-size="14" lengthAdjust="spacing" textLength="29" x="695.5" y="1058.84">type</text><text fill="#000000" font-family="sans-serif" font-size="14" lengthAdjust="spacing" textLength="54" x="695.5" y="1075.3283">address</text><line style="stroke:#181818;stroke-width:0.5;" x1="690.5" x2="831.5" y1="1082.2814" y2="1082.2814"/></g><!--class GSTaskDTO--><g id="elem_GSTaskDTO"><rect codeLine="60" fill="#F1F1F1" height="146.9297" id="GSTaskDTO" rx="2.5" ry="2.5" style="stroke:#181818;stroke-width:0.5;" width="135" x="100.5" y="959.8383"/><ellipse cx="125.85" cy="975.8383" fill="#ADD1B2" rx="11" ry="11" style="stroke:#181818;stroke-width:1.0;"/><path d="M128.8231,981.4813 Q128.2421,981.7802 127.6029,981.9296 Q126.9638,982.079 126.2582,982.079 Q123.7514,982.079 122.4315,980.4271 Q121.1117,978.7753 121.1117,975.6542 Q121.1117,972.5248 122.4315,970.8729 Q123.7514,969.2211 126.2582,969.2211 Q126.9638,969.2211 127.6112,969.3705 Q128.2587,969.5199 128.8231,969.8187 L128.8231,972.5414 Q128.1923,971.9604 127.5988,971.6906 Q127.0053,971.4208 126.3744,971.4208 Q125.0297,971.4208 124.3449,972.4875 Q123.6601,973.5541 123.6601,975.6542 Q123.6601,977.746 124.3449,978.8126 Q125.0297,979.8793 126.3744,979.8793 Q127.0053,979.8793 127.5988,979.6095 Q128.1923,979.3397 128.8231,978.7587 Z " fill="#000000"/><text fill="#000000" font-family="sans-serif" font-size="14" lengthAdjust="spacing" textLength="80" x="142.15" y="981.1293">GSTaskDTO</text><line style="stroke:#181818;stroke-width:0.5;" x1="101.5" x2="234.5" y1="991.8383" y2="991.8383"/><text fill="#000000" font-family="sans-serif" font-size="14" lengthAdjust="spacing" textLength="26" x="106.5" y="1009.3734">title</text><text fill="#000000" font-family="sans-serif" font-size="14" lengthAdjust="spacing" textLength="77" x="106.5" y="1025.8617">description</text><text fill="#000000" font-family="sans-serif" font-size="14" lengthAdjust="spacing" textLength="120" x="106.5" y="1042.35">degreeOfUrgency</text><text fill="#000000" font-family="sans-serif" font-size="14" lengthAdjust="spacing" textLength="123" x="106.5" y="1058.8383">expectedDuration</text><text fill="#000000" font-family="sans-serif" font-size="14" lengthAdjust="spacing" textLength="41" x="106.5" y="1075.3266">status</text><text fill="#000000" font-family="sans-serif" font-size="14" lengthAdjust="spacing" textLength="84" x="106.5" y="1091.8148">startingDate</text><line style="stroke:#181818;stroke-width:0.5;" x1="101.5" x2="234.5" y1="1098.768" y2="1098.768"/></g><!--class GSTask--><g id="elem_GSTask"><rect codeLine="69" fill="#F1F1F1" height="146.9297" id="GSTask" rx="2.5" ry="2.5" style="stroke:#181818;stroke-width:0.5;" width="135" x="305.5" y="959.8383"/><ellipse cx="344.35" cy="975.8383" fill="#ADD1B2" rx="11" ry="11" style="stroke:#181818;stroke-width:1.0;"/><path d="M347.3231,981.4813 Q346.7421,981.7802 346.1029,981.9296 Q345.4638,982.079 344.7582,982.079 Q342.2514,982.079 340.9315,980.4271 Q339.6117,978.7753 339.6117,975.6542 Q339.6117,972.5248 340.9315,970.8729 Q342.2514,969.2211 344.7582,969.2211 Q345.4638,969.2211 346.1112,969.3705 Q346.7587,969.5199 347.3231,969.8187 L347.3231,972.5414 Q346.6923,971.9604 346.0988,971.6906 Q345.5053,971.4208 344.8744,971.4208 Q343.5297,971.4208 342.8449,972.4875 Q342.1601,973.5541 342.1601,975.6542 Q342.1601,977.746 342.8449,978.8126 Q343.5297,979.8793 344.8744,979.8793 Q345.5053,979.8793 346.0988,979.6095 Q346.6923,979.3397 347.3231,978.7587 Z " fill="#000000"/><text fill="#000000" font-family="sans-serif" font-size="14" lengthAdjust="spacing" textLength="50" x="363.65" y="981.1293">GSTask</text><line style="stroke:#181818;stroke-width:0.5;" x1="306.5" x2="439.5" y1="991.8383" y2="991.8383"/><text fill="#000000" font-family="sans-serif" font-size="14" lengthAdjust="spacing" textLength="26" x="311.5" y="1009.3734">title</text><text fill="#000000" font-family="sans-serif" font-size="14" lengthAdjust="spacing" textLength="77" x="311.5" y="1025.8617">description</text><text fill="#000000" font-family="sans-serif" font-size="14" lengthAdjust="spacing" textLength="120" x="311.5" y="1042.35">degreeOfUrgency</text><text fill="#000000" font-family="sans-serif" font-size="14" lengthAdjust="spacing" textLength="123" x="311.5" y="1058.8383">expectedDuration</text><text fill="#000000" font-family="sans-serif" font-size="14" lengthAdjust="spacing" textLength="41" x="311.5" y="1075.3266">status</text><text fill="#000000" font-family="sans-serif" font-size="14" lengthAdjust="spacing" textLength="84" x="311.5" y="1091.8148">startingDate</text><line style="stroke:#181818;stroke-width:0.5;" x1="306.5" x2="439.5" y1="1098.768" y2="1098.768"/></g><!--class GreenSpace--><g id="elem_GreenSpace"><rect codeLine="78" fill="#F1F1F1" height="113.9531" id="GreenSpace" rx="2.5" ry="2.5" style="stroke:#181818;stroke-width:0.5;" width="113" x="934.5" y="976.3283"/><ellipse cx="949.5" cy="992.3283" fill="#ADD1B2" rx="11" ry="11" style="stroke:#181818;stroke-width:1.0;"/><path d="M952.4731,997.9713 Q951.8921,998.2702 951.2529,998.4196 Q950.6138,998.569 949.9082,998.569 Q947.4014,998.569 946.0815,996.9171 Q944.7617,995.2653 944.7617,992.1442 Q944.7617,989.0148 946.0815,987.3629 Q947.4014,985.7111 949.9082,985.7111 Q950.6138,985.7111 951.2612,985.8605 Q951.9087,986.0099 952.4731,986.3087 L952.4731,989.0314 Q951.8423,988.4504 951.2488,988.1806 Q950.6553,987.9108 950.0244,987.9108 Q948.6797,987.9108 947.9949,988.9775 Q947.3101,990.0441 947.3101,992.1442 Q947.3101,994.236 947.9949,995.3026 Q948.6797,996.3693 950.0244,996.3693 Q950.6553,996.3693 951.2488,996.0995 Q951.8423,995.8297 952.4731,995.2487 Z " fill="#000000"/><text fill="#000000" font-family="sans-serif" font-size="14" lengthAdjust="spacing" textLength="81" x="963.5" y="997.6193">GreenSpace</text><line style="stroke:#181818;stroke-width:0.5;" x1="935.5" x2="1046.5" y1="1008.3283" y2="1008.3283"/><text fill="#000000" font-family="sans-serif" font-size="14" lengthAdjust="spacing" textLength="38" x="940.5" y="1025.8634">name</text><text fill="#000000" font-family="sans-serif" font-size="14" lengthAdjust="spacing" textLength="30" x="940.5" y="1042.3517">area</text><text fill="#000000" font-family="sans-serif" font-size="14" lengthAdjust="spacing" textLength="29" x="940.5" y="1058.84">type</text><text fill="#000000" font-family="sans-serif" font-size="14" lengthAdjust="spacing" textLength="54" x="940.5" y="1075.3283">address</text><line style="stroke:#181818;stroke-width:0.5;" x1="935.5" x2="1046.5" y1="1082.2814" y2="1082.2814"/></g><!--link PostponeEntryUI to PostponeEntryController--><g id="link_PostponeEntryUI_PostponeEntryController"><path codeLine="85" d="M536,92.9183 C536,109.3383 536,126.0183 536,147.0183 " fill="none" id="PostponeEntryUI-to-PostponeEntryController" style="stroke:#181818;stroke-width:1.0;stroke-dasharray:7.0,7.0;"/><polygon fill="#181818" points="536,153.0183,540,144.0183,536,148.0183,532,144.0183,536,153.0183" style="stroke:#181818;stroke-width:1.0;"/></g><!--link PostponeEntryController to Repositories--><g id="link_PostponeEntryController_Repositories"><path codeLine="86" d="M536,267.7883 C536,309.1183 536,359.0083 536,400.2883 " fill="none" id="PostponeEntryController-to-Repositories" style="stroke:#181818;stroke-width:1.0;stroke-dasharray:7.0,7.0;"/><polygon fill="#181818" points="536,406.2883,540,397.2883,536,401.2883,532,397.2883,536,406.2883" style="stroke:#181818;stroke-width:1.0;"/><text fill="#000000" font-family="sans-serif" font-size="13" lengthAdjust="spacing" textLength="75" x="537" y="342.0166">repositories</text></g><!--link PostponeEntryController to Agenda--><g id="link_PostponeEntryController_Agenda"><path codeLine="87" d="M335.08,267.8883 C313.95,284.9383 300,307.1083 300,335.9483 C300,335.9483 300,335.9483 300,590.8983 C300,615.3583 307.9186,634.3215 321.2186,654.0715 " fill="none" id="PostponeEntryController-to-Agenda" style="stroke:#181818;stroke-width:1.0;stroke-dasharray:7.0,7.0;"/><polygon fill="#181818" points="324.57,659.0483,322.8607,649.3489,321.7771,654.901,316.225,653.8175,324.57,659.0483" style="stroke:#181818;stroke-width:1.0;"/><text fill="#000000" font-family="sans-serif" font-size="13" lengthAdjust="spacing" textLength="94" x="301" y="468.4866">taskRepository</text></g><!--link PostponeEntryController to GreenSpaceRepository--><g id="link_PostponeEntryController_GreenSpaceRepository"><path codeLine="88" d="M760.27,267.9083 C780.76,284.9383 794,307.0983 794,335.9483 C794,335.9483 794,335.9483 794,590.8983 C794,616.4583 791.187,638.9886 787.267,661.3286 " fill="none" id="PostponeEntryController-to-GreenSpaceRepository" style="stroke:#181818;stroke-width:1.0;stroke-dasharray:7.0,7.0;"/><polygon fill="#181818" points="786.23,667.2383,791.7253,659.065,787.0941,662.3135,783.8457,657.6824,786.23,667.2383" style="stroke:#181818;stroke-width:1.0;"/><text fill="#000000" font-family="sans-serif" font-size="13" lengthAdjust="spacing" textLength="138" x="795" y="468.4866">greenSpaceRepository</text></g><!--link Repositories to Repositories--><g id="link_Repositories_Repositories"><path codeLine="90" d="M640.94,447.7783 C661.17,449.6183 675.5,454.8383 675.5,463.4183 C675.5,472.0083 667.1451,476.6719 646.9151,478.5219 " fill="none" id="Repositories-to-Repositories" style="stroke:#181818;stroke-width:1.0;"/><polygon fill="#181818" points="640.94,479.0683,650.2669,482.232,645.9192,478.6129,649.5383,474.2653,640.94,479.0683" style="stroke:#181818;stroke-width:1.0;"/><text fill="#000000" font-family="sans-serif" font-size="13" lengthAdjust="spacing" textLength="53" x="681.5" y="468.4866">instance</text></g><!--link Repositories to Agenda--><g id="link_Repositories_Agenda"><path codeLine="91" d="M493.64,520.8283 C479.55,539.9083 463.91,561.4383 450,581.3983 C432.35,606.7183 416.6164,630.3818 401.2464,653.9618 " fill="none" id="Repositories-to-Agenda" style="stroke:#181818;stroke-width:1.0;"/><polygon fill="#181818" points="397.97,658.9883,406.2355,653.6328,400.7003,654.7996,399.5336,649.2643,397.97,658.9883" style="stroke:#181818;stroke-width:1.0;"/><text fill="#000000" font-family="sans-serif" font-size="13" lengthAdjust="spacing" textLength="94" x="451" y="594.9666">taskRepository</text><text fill="#000000" font-family="sans-serif" font-size="13" lengthAdjust="spacing" textLength="8" x="393.7627" y="648.6131">1</text></g><!--link Repositories to GreenSpaceRepository--><g id="link_Repositories_GreenSpaceRepository"><path codeLine="92" d="M568.58,520.7683 C584.67,546.0183 605.45,575.2683 628,598.3983 C653.26,624.3083 680.3094,645.0878 708.2794,663.9978 " fill="none" id="Repositories-to-GreenSpaceRepository" style="stroke:#181818;stroke-width:1.0;"/><polygon fill="#181818" points="713.25,667.3583,708.0345,659.0038,709.1078,664.5578,703.5538,665.6312,713.25,667.3583" style="stroke:#181818;stroke-width:1.0;"/><text fill="#000000" font-family="sans-serif" font-size="13" lengthAdjust="spacing" textLength="138" x="629" y="594.9666">greenSpaceRepository</text><text fill="#000000" font-family="sans-serif" font-size="13" lengthAdjust="spacing" textLength="8" x="693.8633" y="656.9579">1</text></g><!--link Agenda to GSTask--><g id="link_Agenda_GSTask"><path codeLine="94" d="M367.89,757.1583 C368.88,810.6183 370.3885,891.5893 371.5385,953.4393 " fill="none" id="Agenda-to-GSTask" style="stroke:#181818;stroke-width:1.0;"/><polygon fill="#181818" points="371.65,959.4383,375.482,950.3655,371.557,954.4391,367.4834,950.5142,371.65,959.4383" style="stroke:#181818;stroke-width:1.0;"/><text fill="#000000" font-family="sans-serif" font-size="13" lengthAdjust="spacing" textLength="34" x="372" y="863.4166">tasks</text></g><!--link GreenSpaceRepository to GreenSpace--><g id="link_GreenSpaceRepository_GreenSpace"><path codeLine="95" d="M914.71,744.8883 C950.51,761.1383 984.94,784.4783 1006,817.8583 C1035.67,864.8883 1027.4076,924.0605 1013.9076,970.1205 " fill="none" id="GreenSpaceRepository-to-GreenSpace" style="stroke:#181818;stroke-width:1.0;"/><polygon fill="#181818" points="1012.22,975.8783,1018.5899,968.3667,1013.6263,971.0801,1010.9129,966.1166,1012.22,975.8783" style="stroke:#181818;stroke-width:1.0;"/><text fill="#000000" font-family="sans-serif" font-size="13" lengthAdjust="spacing" textLength="82" x="1026" y="863.4166">green spaces</text></g><!--link Agenda to GSTaskMapper--><g id="link_Agenda_GSTaskMapper"><path codeLine="97" d="M302.39,757.2483 C276.29,776.6983 251.332,795.2844 226.452,813.8144 " fill="none" id="Agenda-to-GSTaskMapper" style="stroke:#181818;stroke-width:1.0;stroke-dasharray:7.0,7.0;"/><polygon fill="#181818" points="221.64,817.3983,231.2473,815.2305,225.65,814.4117,226.4688,808.8144,221.64,817.3983" style="stroke:#181818;stroke-width:1.0;"/></g><!--link GSTaskMapper to GSTaskDTO--><g id="link_GSTaskMapper_GSTaskDTO"><path codeLine="98" d="M168,899.0283 C168,916.9783 168,932.7783 168,953.5083 " fill="none" id="GSTaskMapper-to-GSTaskDTO" style="stroke:#181818;stroke-width:1.0;stroke-dasharray:7.0,7.0;"/><polygon fill="#181818" points="168,959.5083,172,950.5083,168,954.5083,164,950.5083,168,959.5083" style="stroke:#181818;stroke-width:1.0;"/></g><!--link GSTaskMapper to GSTask--><g id="link_GSTaskMapper_GSTask"><path codeLine="99" d="M215.29,899.2483 C242.01,921.7883 271.2841,946.4893 300.7741,971.3693 " fill="none" id="GSTaskMapper-to-GSTask" style="stroke:#181818;stroke-width:1.0;stroke-dasharray:7.0,7.0;"/><polygon fill="#181818" points="305.36,975.2383,301.0605,966.3775,301.5384,972.0141,295.9018,972.492,305.36,975.2383" style="stroke:#181818;stroke-width:1.0;"/></g><!--link GreenSpaceRepository to GreenSpaceMapper--><g id="link_GreenSpaceRepository_GreenSpaceMapper"><path codeLine="100" d="M773.44,748.8483 C771.01,770.1183 768.6935,790.2773 766.2535,811.5573 " fill="none" id="GreenSpaceRepository-to-GreenSpaceMapper" style="stroke:#181818;stroke-width:1.0;stroke-dasharray:7.0,7.0;"/><polygon fill="#181818" points="765.57,817.5183,770.5692,809.0325,766.1396,812.5508,762.6213,808.1212,765.57,817.5183" style="stroke:#181818;stroke-width:1.0;"/></g><!--link GreenSpaceMapper to GreenSpaceDTO--><g id="link_GreenSpaceMapper_GreenSpaceDTO"><path codeLine="101" d="M761,899.0283 C761,921.8683 761,944.9383 761,970.0983 " fill="none" id="GreenSpaceMapper-to-GreenSpaceDTO" style="stroke:#181818;stroke-width:1.0;stroke-dasharray:7.0,7.0;"/><polygon fill="#181818" points="761,976.0983,765,967.0983,761,971.0983,757,967.0983,761,976.0983" style="stroke:#181818;stroke-width:1.0;"/></g><!--link GreenSpaceMapper to GreenSpace--><g id="link_GreenSpaceMapper_GreenSpace"><path codeLine="102" d="M814.06,899.2483 C850.01,926.2783 892.6744,958.3724 929.3944,985.9824 " fill="none" id="GreenSpaceMapper-to-GreenSpace" style="stroke:#181818;stroke-width:1.0;stroke-dasharray:7.0,7.0;"/><polygon fill="#181818" points="934.19,989.5883,929.4005,980.9824,930.1937,986.5834,924.5927,987.3766,934.19,989.5883" style="stroke:#181818;stroke-width:1.0;"/></g><!--SRC=[lLJ1Rjim3BthAuXUcc1Dq0qx1KM0RXcA01iwBCq7Q3RZ274aGrBGUSF-VPJiI78c5-jbFXWI-KW-KYIlpK78Xcj-XAEIgjXhTKIm-eGiQXfU77Y56zlM21eBosLLfm2pvwLw5hA27QzDggc5HDis28sgMtV9wPIsYYMAekR6t5khnVUJnNMXv4RyHBXbxBh6dGMhG8jgRw4KZerGaZ4hB97RRcxVlOSPV5N6DaeYS0aehMv1IB1xkbSeIywO3n5WdnnakuPVx7TMzL7HNzKrQe80VMyedwn-OhavV4FI2gjqUmELHfGRgY16wRJtyLaOU_SG0AkdnoLKQAF4J8RGpHDvFyFSsNne8teIOqrpB3qtihu1YSyhRWaLymti19e-oTb06AXGwBKqr0CKSGgB0IX27Z9vfowU1dKYJM1oxvye5FeVCxMAClCPcl7aayn3k1pH4FpYXKQVfuiUMPcqjD7W2s-Qf8Toxzzv-Zjkwhgp7XZsTb46QOaY5Tz1MHgnjn8AJaQ2jAe1sEFSpIEoDNMuBexaH_G7hf7xWvlzJbAM6esvf1bj_N3xKuccqABnCz_TNPwFkwschYbQByCV3Mq5B5SdpGEG6jQUpFceBIqhrmYNCVzdmFXMhwdGvSwQpvTZougDBR6vCqhdTa5hFPdYSRjbFvuB62ww5qro8xR8RaR61djeDcH9oqRqc-S2DoFarTkhCN9vy6jezKl9cNQDqiKmBBi-F2meUfzW_FW6NxuooJoomN16BOt1c2eVVLZoi_FB9JH4-I0lGzWV]--></g></svg>