<?xml version="1.0" encoding="us-ascii" standalone="no"?><svg xmlns="http://www.w3.org/2000/svg" xmlns:xlink="http://www.w3.org/1999/xlink" contentStyleType="text/css" height="971px" preserveAspectRatio="none" style="width:750px;height:971px;background:#FFFFFF;" version="1.1" viewBox="0 0 750 971" width="750px" zoomAndPan="magnify"><defs/><g><text fill="#000000" font-family="sans-serif" font-size="14" font-weight="bold" lengthAdjust="spacing" textLength="298" x="219" y="23.5352">US024 - Postpone an entry in the agenda</text><!--class PostponeEntryUI--><g id="elem_PostponeEntryUI"><rect codeLine="13" fill="#F1F1F1" height="48" id="PostponeEntryUI" rx="2.5" ry="2.5" style="stroke:#181818;stroke-width:0.5;" width="145" x="272.5" y="44.4883"/><ellipse cx="287.5" cy="60.4883" fill="#ADD1B2" rx="11" ry="11" style="stroke:#181818;stroke-width:1.0;"/><path d="M290.4731,66.1313 Q289.8921,66.4302 289.2529,66.5796 Q288.6138,66.729 287.9082,66.729 Q285.4014,66.729 284.0815,65.0771 Q282.7617,63.4253 282.7617,60.3042 Q282.7617,57.1748 284.0815,55.5229 Q285.4014,53.8711 287.9082,53.8711 Q288.6138,53.8711 289.2612,54.0205 Q289.9087,54.1699 290.4731,54.4688 L290.4731,57.1914 Q289.8423,56.6104 289.2488,56.3406 Q288.6553,56.0708 288.0244,56.0708 Q286.6797,56.0708 285.9949,57.1375 Q285.3101,58.2041 285.3101,60.3042 Q285.3101,62.396 285.9949,63.4626 Q286.6797,64.5293 288.0244,64.5293 Q288.6553,64.5293 289.2488,64.2595 Q289.8423,63.9897 290.4731,63.4087 Z " fill="#000000"/><text fill="#000000" font-family="sans-serif" font-size="14" lengthAdjust="spacing" textLength="113" x="301.5" y="65.7793">PostponeEntryUI</text><line style="stroke:#181818;stroke-width:0.5;" x1="273.5" x2="416.5" y1="76.4883" y2="76.4883"/><line style="stroke:#181818;stroke-width:0.5;" x1="273.5" x2="416.5" y1="84.4883" y2="84.4883"/></g><!--class PostponeEntryController--><g id="elem_PostponeEntryController"><rect codeLine="16" fill="#F1F1F1" height="113.9531" id="PostponeEntryController" rx="2.5" ry="2.5" style="stroke:#181818;stroke-width:0.5;" width="465" x="112.5" y="153.4883"/><ellipse cx="256.25" cy="169.4883" fill="#ADD1B2" rx="11" ry="11" style="stroke:#181818;stroke-width:1.0;"/><path d="M259.2231,175.1313 Q258.6421,175.4302 258.0029,175.5796 Q257.3638,175.729 256.6582,175.729 Q254.1514,175.729 252.8315,174.0771 Q251.5117,172.4253 251.5117,169.3042 Q251.5117,166.1748 252.8315,164.5229 Q254.1514,162.8711 256.6582,162.8711 Q257.3638,162.8711 258.0112,163.0205 Q258.6587,163.1699 259.2231,163.4688 L259.2231,166.1914 Q258.5923,165.6104 257.9988,165.3406 Q257.4053,165.0708 256.7744,165.0708 Q255.4297,165.0708 254.7449,166.1375 Q254.0601,167.2041 254.0601,169.3042 Q254.0601,171.396 254.7449,172.4626 Q255.4297,173.5293 256.7744,173.5293 Q257.4053,173.5293 257.9988,173.2595 Q258.5923,172.9897 259.2231,172.4087 Z " fill="#000000"/><text fill="#000000" font-family="sans-serif" font-size="14" lengthAdjust="spacing" textLength="169" x="276.75" y="174.7793">PostponeEntryController</text><line style="stroke:#181818;stroke-width:0.5;" x1="113.5" x2="576.5" y1="185.4883" y2="185.4883"/><line style="stroke:#181818;stroke-width:0.5;" x1="113.5" x2="576.5" y1="193.4883" y2="193.4883"/><text fill="#000000" font-family="sans-serif" font-size="14" lengthAdjust="spacing" textLength="453" x="118.5" y="211.0234">+postponeEntryController(taskRepository, greenSpaceRepository)</text><text fill="#000000" font-family="sans-serif" font-size="14" lengthAdjust="spacing" textLength="131" x="118.5" y="227.5117">+getGreenSpaces()</text><text fill="#000000" font-family="sans-serif" font-size="14" lengthAdjust="spacing" textLength="258" x="118.5" y="244">+getTasksByGreenSpace(greenSpace)</text><text fill="#000000" font-family="sans-serif" font-size="14" lengthAdjust="spacing" textLength="216" x="118.5" y="260.4883">+postponeEntry(task, newDate)</text></g><!--class Task--><g id="elem_Task"><rect codeLine="23" fill="#F1F1F1" height="146.9297" id="Task" rx="2.5" ry="2.5" style="stroke:#181818;stroke-width:0.5;" width="135" x="74.5" y="817.3683"/><ellipse cx="121.75" cy="833.3683" fill="#ADD1B2" rx="11" ry="11" style="stroke:#181818;stroke-width:1.0;"/><path d="M124.7231,839.0113 Q124.1421,839.3102 123.5029,839.4596 Q122.8638,839.609 122.1582,839.609 Q119.6514,839.609 118.3315,837.9571 Q117.0117,836.3053 117.0117,833.1842 Q117.0117,830.0548 118.3315,828.4029 Q119.6514,826.7511 122.1582,826.7511 Q122.8638,826.7511 123.5112,826.9005 Q124.1587,827.0499 124.7231,827.3487 L124.7231,830.0714 Q124.0923,829.4904 123.4988,829.2206 Q122.9053,828.9508 122.2744,828.9508 Q120.9297,828.9508 120.2449,830.0175 Q119.5601,831.0841 119.5601,833.1842 Q119.5601,835.276 120.2449,836.3426 Q120.9297,837.4093 122.2744,837.4093 Q122.9053,837.4093 123.4988,837.1395 Q124.0923,836.8697 124.7231,836.2887 Z " fill="#000000"/><text fill="#000000" font-family="sans-serif" font-size="14" lengthAdjust="spacing" textLength="32" x="142.25" y="838.6593">Task</text><line style="stroke:#181818;stroke-width:0.5;" x1="75.5" x2="208.5" y1="849.3683" y2="849.3683"/><text fill="#000000" font-family="sans-serif" font-size="14" lengthAdjust="spacing" textLength="26" x="80.5" y="866.9034">title</text><text fill="#000000" font-family="sans-serif" font-size="14" lengthAdjust="spacing" textLength="77" x="80.5" y="883.3917">description</text><text fill="#000000" font-family="sans-serif" font-size="14" lengthAdjust="spacing" textLength="120" x="80.5" y="899.88">degreeOfUrgency</text><text fill="#000000" font-family="sans-serif" font-size="14" lengthAdjust="spacing" textLength="123" x="80.5" y="916.3683">expectedDuration</text><text fill="#000000" font-family="sans-serif" font-size="14" lengthAdjust="spacing" textLength="41" x="80.5" y="932.8566">status</text><text fill="#000000" font-family="sans-serif" font-size="14" lengthAdjust="spacing" textLength="84" x="80.5" y="949.3448">startingDate</text><line style="stroke:#181818;stroke-width:0.5;" x1="75.5" x2="208.5" y1="956.298" y2="956.298"/></g><!--class GreenSpace--><g id="elem_GreenSpace"><rect codeLine="32" fill="#F1F1F1" height="113.9531" id="GreenSpace" rx="2.5" ry="2.5" style="stroke:#181818;stroke-width:0.5;" width="113" x="396.5" y="833.8583"/><ellipse cx="411.5" cy="849.8583" fill="#ADD1B2" rx="11" ry="11" style="stroke:#181818;stroke-width:1.0;"/><path d="M414.4731,855.5013 Q413.8921,855.8002 413.2529,855.9496 Q412.6138,856.099 411.9082,856.099 Q409.4014,856.099 408.0815,854.4471 Q406.7617,852.7953 406.7617,849.6742 Q406.7617,846.5448 408.0815,844.8929 Q409.4014,843.2411 411.9082,843.2411 Q412.6138,843.2411 413.2612,843.3905 Q413.9087,843.5399 414.4731,843.8387 L414.4731,846.5614 Q413.8423,845.9804 413.2488,845.7106 Q412.6553,845.4408 412.0244,845.4408 Q410.6797,845.4408 409.9949,846.5075 Q409.3101,847.5741 409.3101,849.6742 Q409.3101,851.766 409.9949,852.8326 Q410.6797,853.8993 412.0244,853.8993 Q412.6553,853.8993 413.2488,853.6295 Q413.8423,853.3597 414.4731,852.7787 Z " fill="#000000"/><text fill="#000000" font-family="sans-serif" font-size="14" lengthAdjust="spacing" textLength="81" x="425.5" y="855.1493">GreenSpace</text><line style="stroke:#181818;stroke-width:0.5;" x1="397.5" x2="508.5" y1="865.8583" y2="865.8583"/><text fill="#000000" font-family="sans-serif" font-size="14" lengthAdjust="spacing" textLength="38" x="402.5" y="883.3934">name</text><text fill="#000000" font-family="sans-serif" font-size="14" lengthAdjust="spacing" textLength="30" x="402.5" y="899.8817">area</text><text fill="#000000" font-family="sans-serif" font-size="14" lengthAdjust="spacing" textLength="29" x="402.5" y="916.37">type</text><text fill="#000000" font-family="sans-serif" font-size="14" lengthAdjust="spacing" textLength="54" x="402.5" y="932.8583">address</text><line style="stroke:#181818;stroke-width:0.5;" x1="397.5" x2="508.5" y1="939.8114" y2="939.8114"/></g><!--class Repositories--><g id="elem_Repositories"><rect codeLine="39" fill="#F1F1F1" height="113.9531" id="Repositories" rx="2.5" ry="2.5" style="stroke:#181818;stroke-width:0.5;" width="209" x="240.5" y="406.4383"/><ellipse cx="298.25" cy="422.4383" fill="#ADD1B2" rx="11" ry="11" style="stroke:#181818;stroke-width:1.0;"/><path d="M301.2231,428.0813 Q300.6421,428.3802 300.0029,428.5296 Q299.3638,428.679 298.6582,428.679 Q296.1514,428.679 294.8315,427.0271 Q293.5117,425.3753 293.5117,422.2542 Q293.5117,419.1248 294.8315,417.4729 Q296.1514,415.8211 298.6582,415.8211 Q299.3638,415.8211 300.0112,415.9705 Q300.6587,416.1199 301.2231,416.4187 L301.2231,419.1414 Q300.5923,418.5604 299.9988,418.2906 Q299.4053,418.0208 298.7744,418.0208 Q297.4297,418.0208 296.7449,419.0875 Q296.0601,420.1541 296.0601,422.2542 Q296.0601,424.346 296.7449,425.4126 Q297.4297,426.4793 298.7744,426.4793 Q299.4053,426.4793 299.9988,426.2095 Q300.5923,425.9397 301.2231,425.3587 Z " fill="#000000"/><text fill="#000000" font-family="sans-serif" font-size="14" lengthAdjust="spacing" textLength="85" x="318.75" y="427.7293">Repositories</text><line style="stroke:#181818;stroke-width:0.5;" x1="241.5" x2="448.5" y1="438.4383" y2="438.4383"/><line style="stroke:#181818;stroke-width:0.5;" x1="241.5" x2="448.5" y1="446.4383" y2="446.4383"/><text fill="#000000" font-family="sans-serif" font-size="14" lengthAdjust="spacing" textLength="103" x="246.5" y="463.9734">-Repositories()</text><text fill="#000000" font-family="sans-serif" font-size="14" lengthAdjust="spacing" textLength="197" x="246.5" y="480.4617">+getInstance() : Repositories</text><text fill="#000000" font-family="sans-serif" font-size="14" lengthAdjust="spacing" textLength="197" x="246.5" y="496.95">+getGreenSpaceRepository()</text><text fill="#000000" font-family="sans-serif" font-size="14" lengthAdjust="spacing" textLength="148" x="246.5" y="513.4383">+getTaskRepository()</text></g><!--class TaskRepository--><g id="elem_TaskRepository"><rect codeLine="46" fill="#F1F1F1" height="80.9766" id="TaskRepository" rx="2.5" ry="2.5" style="stroke:#181818;stroke-width:0.5;" width="270" x="7" y="659.3883"/><ellipse cx="85.25" cy="675.3883" fill="#ADD1B2" rx="11" ry="11" style="stroke:#181818;stroke-width:1.0;"/><path d="M88.2231,681.0313 Q87.6421,681.3302 87.0029,681.4796 Q86.3638,681.629 85.6582,681.629 Q83.1514,681.629 81.8315,679.9771 Q80.5117,678.3253 80.5117,675.2042 Q80.5117,672.0748 81.8315,670.4229 Q83.1514,668.7711 85.6582,668.7711 Q86.3638,668.7711 87.0112,668.9205 Q87.6587,669.0699 88.2231,669.3687 L88.2231,672.0914 Q87.5923,671.5104 86.9988,671.2406 Q86.4053,670.9708 85.7744,670.9708 Q84.4297,670.9708 83.7449,672.0375 Q83.0601,673.1041 83.0601,675.2042 Q83.0601,677.296 83.7449,678.3626 Q84.4297,679.4293 85.7744,679.4293 Q86.4053,679.4293 86.9988,679.1595 Q87.5923,678.8897 88.2231,678.3087 Z " fill="#000000"/><text fill="#000000" font-family="sans-serif" font-size="14" lengthAdjust="spacing" textLength="105" x="105.75" y="680.6793">TaskRepository</text><line style="stroke:#181818;stroke-width:0.5;" x1="8" x2="276" y1="691.3883" y2="691.3883"/><line style="stroke:#181818;stroke-width:0.5;" x1="8" x2="276" y1="699.3883" y2="699.3883"/><text fill="#000000" font-family="sans-serif" font-size="14" lengthAdjust="spacing" textLength="258" x="13" y="716.9234">+getTasksByGreenSpace(greenSpace)</text><text fill="#000000" font-family="sans-serif" font-size="14" lengthAdjust="spacing" textLength="216" x="13" y="733.4117">+postponeEntry(task, newDate)</text></g><!--class GreenSpaceRepository--><g id="elem_GreenSpaceRepository"><rect codeLine="51" fill="#F1F1F1" height="64.4883" id="GreenSpaceRepository" rx="2.5" ry="2.5" style="stroke:#181818;stroke-width:0.5;" width="186" x="360" y="667.6383"/><ellipse cx="375" cy="683.6383" fill="#ADD1B2" rx="11" ry="11" style="stroke:#181818;stroke-width:1.0;"/><path d="M377.9731,689.2813 Q377.3921,689.5802 376.7529,689.7296 Q376.1138,689.879 375.4082,689.879 Q372.9014,689.879 371.5815,688.2271 Q370.2617,686.5753 370.2617,683.4542 Q370.2617,680.3248 371.5815,678.6729 Q372.9014,677.0211 375.4082,677.0211 Q376.1138,677.0211 376.7612,677.1705 Q377.4087,677.3199 377.9731,677.6187 L377.9731,680.3414 Q377.3423,679.7604 376.7488,679.4906 Q376.1553,679.2208 375.5244,679.2208 Q374.1797,679.2208 373.4949,680.2875 Q372.8101,681.3541 372.8101,683.4542 Q372.8101,685.546 373.4949,686.6126 Q374.1797,687.6793 375.5244,687.6793 Q376.1553,687.6793 376.7488,687.4095 Q377.3423,687.1397 377.9731,686.5587 Z " fill="#000000"/><text fill="#000000" font-family="sans-serif" font-size="14" lengthAdjust="spacing" textLength="154" x="389" y="688.9293">GreenSpaceRepository</text><line style="stroke:#181818;stroke-width:0.5;" x1="361" x2="545" y1="699.6383" y2="699.6383"/><line style="stroke:#181818;stroke-width:0.5;" x1="361" x2="545" y1="707.6383" y2="707.6383"/><text fill="#000000" font-family="sans-serif" font-size="14" lengthAdjust="spacing" textLength="131" x="366" y="725.1734">+getGreenSpaces()</text></g><!--link PostponeEntryUI to PostponeEntryController--><g id="link_PostponeEntryUI_PostponeEntryController"><path codeLine="56" d="M345,92.9183 C345,109.3383 345,126.0183 345,147.0083 " fill="none" id="PostponeEntryUI-to-PostponeEntryController" style="stroke:#181818;stroke-width:1.0;stroke-dasharray:7.0,7.0;"/><polygon fill="#181818" points="345,153.0083,349,144.0083,345,148.0083,341,144.0083,345,153.0083" style="stroke:#181818;stroke-width:1.0;"/></g><!--link PostponeEntryController to Repositories--><g id="link_PostponeEntryController_Repositories"><path codeLine="57" d="M345,267.7783 C345,309.1083 345,358.9983 345,400.2883 " fill="none" id="PostponeEntryController-to-Repositories" style="stroke:#181818;stroke-width:1.0;stroke-dasharray:7.0,7.0;"/><polygon fill="#181818" points="345,406.2883,349,397.2883,345,401.2883,341,397.2883,345,406.2883" style="stroke:#181818;stroke-width:1.0;"/><text fill="#000000" font-family="sans-serif" font-size="13" lengthAdjust="spacing" textLength="75" x="346" y="342.0066">repositories</text></g><!--link PostponeEntryController to TaskRepository--><g id="link_PostponeEntryController_TaskRepository"><path codeLine="58" d="M144.08,267.8883 C122.95,284.9283 109,307.1083 109,335.9383 C109,335.9383 109,335.9383 109,590.8883 C109,614.1183 113.9387,633.3796 121.5387,653.3796 " fill="none" id="PostponeEntryController-to-TaskRepository" style="stroke:#181818;stroke-width:1.0;stroke-dasharray:7.0,7.0;"/><polygon fill="#181818" points="123.67,658.9883,124.2122,649.1544,121.8939,654.3144,116.7339,651.9961,123.67,658.9883" style="stroke:#181818;stroke-width:1.0;"/><text fill="#000000" font-family="sans-serif" font-size="13" lengthAdjust="spacing" textLength="94" x="110" y="468.4866">taskRepository</text></g><!--link PostponeEntryController to GreenSpaceRepository--><g id="link_PostponeEntryController_GreenSpaceRepository"><path codeLine="59" d="M569.27,267.8983 C589.76,284.9283 603,307.0983 603,335.9383 C603,335.9383 603,335.9383 603,590.8883 C603,625.7083 581.3293,647.5386 550.2793,664.4486 " fill="none" id="PostponeEntryController-to-GreenSpaceRepository" style="stroke:#181818;stroke-width:1.0;stroke-dasharray:7.0,7.0;"/><polygon fill="#181818" points="545.01,667.3183,554.827,666.5266,549.401,664.9269,551.0008,659.5009,545.01,667.3183" style="stroke:#181818;stroke-width:1.0;"/><text fill="#000000" font-family="sans-serif" font-size="13" lengthAdjust="spacing" textLength="138" x="604" y="468.4866">greenSpaceRepository</text></g><!--link Repositories to Repositories--><g id="link_Repositories_Repositories"><path codeLine="61" d="M449.94,447.7683 C470.17,449.6183 484.5,454.8283 484.5,463.4183 C484.5,471.9983 476.1453,476.6748 455.9153,478.5148 " fill="none" id="Repositories-to-Repositories" style="stroke:#181818;stroke-width:1.0;"/><polygon fill="#181818" points="449.94,479.0583,459.2653,482.2266,454.9194,478.6054,458.5407,474.2595,449.94,479.0583" style="stroke:#181818;stroke-width:1.0;"/><text fill="#000000" font-family="sans-serif" font-size="13" lengthAdjust="spacing" textLength="53" x="490.5" y="468.4866">instance</text></g><!--link Repositories to TaskRepository--><g id="link_Repositories_TaskRepository"><path codeLine="62" d="M296.12,520.8783 C259.16,563.5583 213.2669,616.5619 180.4069,654.5219 " fill="none" id="Repositories-to-TaskRepository" style="stroke:#181818;stroke-width:1.0;"/><polygon fill="#181818" points="176.48,659.0583,185.3947,654.8716,179.7525,655.2779,179.3461,649.6357,176.48,659.0583" style="stroke:#181818;stroke-width:1.0;"/><text fill="#000000" font-family="sans-serif" font-size="13" lengthAdjust="spacing" textLength="94" x="245" y="594.9566">taskRepository</text><text fill="#000000" font-family="sans-serif" font-size="13" lengthAdjust="spacing" textLength="8" x="173.5282" y="648.6496">1</text></g><!--link Repositories to GreenSpaceRepository--><g id="link_Repositories_GreenSpaceRepository"><path codeLine="63" d="M371.01,520.8783 C392.17,566.8083 418.7399,624.4986 435.9799,661.9286 " fill="none" id="Repositories-to-GreenSpaceRepository" style="stroke:#181818;stroke-width:1.0;"/><polygon fill="#181818" points="438.49,667.3783,438.358,657.5303,436.3982,662.8369,431.0917,660.8771,438.49,667.3783" style="stroke:#181818;stroke-width:1.0;"/><text fill="#000000" font-family="sans-serif" font-size="13" lengthAdjust="spacing" textLength="138" x="408" y="594.9566">greenSpaceRepository</text><text fill="#000000" font-family="sans-serif" font-size="13" lengthAdjust="spacing" textLength="8" x="426.6723" y="656.7278">1</text></g><!--link TaskRepository to Task--><g id="link_TaskRepository_Task"><path codeLine="65" d="M142,740.4883 C142,762.6783 142,785.0383 142,811.0683 " fill="none" id="TaskRepository-to-Task" style="stroke:#181818;stroke-width:1.0;"/><polygon fill="#181818" points="142,817.0683,146,808.0683,142,812.0683,138,808.0683,142,817.0683" style="stroke:#181818;stroke-width:1.0;"/><text fill="#000000" font-family="sans-serif" font-size="13" lengthAdjust="spacing" textLength="34" x="143" y="783.9366">tasks</text></g><!--link GreenSpaceRepository to GreenSpace--><g id="link_GreenSpaceRepository_GreenSpace"><path codeLine="66" d="M453,732.5083 C453,760.0283 453,794.5883 453,827.6183 " fill="none" id="GreenSpaceRepository-to-GreenSpace" style="stroke:#181818;stroke-width:1.0;"/><polygon fill="#181818" points="453,833.6183,457,824.6183,453,828.6183,449,824.6183,453,833.6183" style="stroke:#181818;stroke-width:1.0;"/><text fill="#000000" font-family="sans-serif" font-size="13" lengthAdjust="spacing" textLength="82" x="454" y="783.9366">green spaces</text></g><!--SRC=[hLF1ZjCm4BtxAqPxsLPigmLnwc4bs5sXda2KVe19fgbLTnpPKoq1yU-Can0daGj28eSedlTcvldDv3QS3DNQwpES7RdYwDqPWVq5LK9gNPnqXJjkB8B7WZLLTam8Hrsw5qCL7BGDOyGQGcvgXDhP9XvocFFir0Weh0xX7RCtNo-CsyBHpdn7k5VgrkA1WHruKnqPIXFL64TAiM4Hjz_TltaBA_Za0jUE43G14li6304VvLmXbLgfjiL0UuwK_HP-g9zPwD79srcBNYWWpokvJnPVi0wdpoYeOUUREwWy8kt4GKpHPL-ZGlumm64n2d-HAk5zaz15ghFCAMZxtW7XovDceGptY9LwqQr5xLU9eV2cRfthph7ynyFUYpr5qyRmMotUOlbqyNeW1jPy2Ry_FSl8Ox_KBYdkcv8-TpsrHzt9a95taRBq649A7Xmo6FhqrIGujcXBee34cILi9gISkSdxkSiJPE9QGeQX_zV9vDIDEqrNGzBKV5tNwuThUwgkxUyw9etjsiWVFJBlUjx3p9KDJ7VzZwcvoswoFuTIapLOJTNAh4q_-1bl9SoRrpT_4vbF-XTvizs89MAewnHKTgoHb82-CeHsk4hz0W00]--></g></svg>