<?xml version="1.0" encoding="us-ascii" standalone="no"?><svg xmlns="http://www.w3.org/2000/svg" xmlns:xlink="http://www.w3.org/1999/xlink" contentStyleType="text/css" height="861px" preserveAspectRatio="none" style="width:1174px;height:861px;background:#FFFFFF;" version="1.1" viewBox="0 0 1174 861" width="1174px" zoomAndPan="magnify"><defs/><g><text fill="#000000" font-family="sans-serif" font-size="14" font-weight="bold" lengthAdjust="spacing" textLength="298" x="440" y="28.5352">US024 - Postpone an entry in the agenda</text><rect fill="#FFFFFF" height="633.6543" style="stroke:#181818;stroke-width:1.0;" width="10" x="18" y="128.9766"/><rect fill="#FFFFFF" height="173.8633" style="stroke:#181818;stroke-width:1.0;" width="10" x="458" y="150.2871"/><rect fill="#FFFFFF" height="132.375" style="stroke:#181818;stroke-width:1.0;" width="10" x="458" y="353.4609"/><rect fill="#FFFFFF" height="29.3105" style="stroke:#181818;stroke-width:1.0;" width="10" x="458" y="515.1465"/><rect fill="#FFFFFF" height="188.8633" style="stroke:#181818;stroke-width:1.0;" width="10" x="458" y="573.7676"/><rect fill="#FFFFFF" height="73.7539" style="stroke:#181818;stroke-width:1.0;" width="10" x="722" y="221.0859"/><rect fill="#FFFFFF" height="73.7539" style="stroke:#181818;stroke-width:1.0;" width="10" x="722" y="382.7715"/><rect fill="#FFFFFF" height="130.2422" style="stroke:#181818;stroke-width:1.0;" width="10" x="722" y="603.0781"/><rect fill="#FFFFFF" height="71.6211" style="stroke:#181818;stroke-width:1.0;" width="10" x="961" y="632.3887"/><line style="stroke:#181818;stroke-width:0.5;stroke-dasharray:5.0,5.0;" x1="23" x2="23" y1="118.9766" y2="780.6309"/><line style="stroke:#181818;stroke-width:0.5;stroke-dasharray:5.0,5.0;" x1="462.5" x2="462.5" y1="118.9766" y2="780.6309"/><line style="stroke:#181818;stroke-width:0.5;stroke-dasharray:5.0,5.0;" x1="726.5" x2="726.5" y1="189.0313" y2="780.6309"/><line style="stroke:#181818;stroke-width:0.5;stroke-dasharray:5.0,5.0;" x1="965.5" x2="965.5" y1="118.9766" y2="780.6309"/><text fill="#000000" font-family="sans-serif" font-size="14" lengthAdjust="spacing" textLength="30" x="5" y="116.0234">GSM</text><ellipse cx="23" cy="50.9883" fill="#E3E3E3" rx="8" ry="8" style="stroke:#181818;stroke-width:0.5;"/><path d="M23,58.9883 L23,85.9883 M10,66.9883 L36,66.9883 M23,85.9883 L10,100.9883 M23,85.9883 L36,100.9883 " fill="none" style="stroke:#181818;stroke-width:0.5;"/><text fill="#000000" font-family="sans-serif" font-size="14" lengthAdjust="spacing" textLength="30" x="5" y="793.166">GSM</text><ellipse cx="23" cy="804.6191" fill="#E3E3E3" rx="8" ry="8" style="stroke:#181818;stroke-width:0.5;"/><path d="M23,812.6191 L23,839.6191 M10,820.6191 L36,820.6191 M23,839.6191 L10,854.6191 M23,839.6191 L36,854.6191 " fill="none" style="stroke:#181818;stroke-width:0.5;"/><rect fill="#E3E3E3" height="30.4883" rx="2.5" ry="2.5" style="stroke:#181818;stroke-width:0.5;" width="131" x="397.5" y="87.4883"/><text fill="#000000" font-family="sans-serif" font-size="14" lengthAdjust="spacing" textLength="117" x="404.5" y="108.0234">:PostponeEntryUI</text><rect fill="#E3E3E3" height="30.4883" rx="2.5" ry="2.5" style="stroke:#181818;stroke-width:0.5;" width="131" x="397.5" y="779.6309"/><text fill="#000000" font-family="sans-serif" font-size="14" lengthAdjust="spacing" textLength="117" x="404.5" y="800.166">:PostponeEntryUI</text><rect fill="#E3E3E3" height="30.4883" rx="2.5" ry="2.5" style="stroke:#181818;stroke-width:0.5;" width="187" x="633.5" y="779.6309"/><text fill="#000000" font-family="sans-serif" font-size="14" lengthAdjust="spacing" textLength="173" x="640.5" y="800.166">:PostponeEntryController</text><rect fill="#E3E3E3" height="46.9766" rx="2.5" ry="2.5" style="stroke:#181818;stroke-width:0.5;" width="123" x="904.5" y="71"/><text fill="#000000" font-family="sans-serif" font-size="14" lengthAdjust="spacing" textLength="101" x="915.5" y="91.5352">taskRepository</text><text fill="#000000" font-family="sans-serif" font-size="14" lengthAdjust="spacing" textLength="109" x="911.5" y="108.0234">:TaskRepository</text><rect fill="#E3E3E3" height="46.9766" rx="2.5" ry="2.5" style="stroke:#181818;stroke-width:0.5;" width="123" x="904.5" y="779.6309"/><text fill="#000000" font-family="sans-serif" font-size="14" lengthAdjust="spacing" textLength="101" x="915.5" y="800.166">taskRepository</text><text fill="#000000" font-family="sans-serif" font-size="14" lengthAdjust="spacing" textLength="109" x="911.5" y="816.6543">:TaskRepository</text><rect fill="#FFFFFF" height="633.6543" style="stroke:#181818;stroke-width:1.0;" width="10" x="18" y="128.9766"/><rect fill="#FFFFFF" height="173.8633" style="stroke:#181818;stroke-width:1.0;" width="10" x="458" y="150.2871"/><rect fill="#FFFFFF" height="132.375" style="stroke:#181818;stroke-width:1.0;" width="10" x="458" y="353.4609"/><rect fill="#FFFFFF" height="29.3105" style="stroke:#181818;stroke-width:1.0;" width="10" x="458" y="515.1465"/><rect fill="#FFFFFF" height="188.8633" style="stroke:#181818;stroke-width:1.0;" width="10" x="458" y="573.7676"/><rect fill="#FFFFFF" height="73.7539" style="stroke:#181818;stroke-width:1.0;" width="10" x="722" y="221.0859"/><rect fill="#FFFFFF" height="73.7539" style="stroke:#181818;stroke-width:1.0;" width="10" x="722" y="382.7715"/><rect fill="#FFFFFF" height="130.2422" style="stroke:#181818;stroke-width:1.0;" width="10" x="722" y="603.0781"/><rect fill="#FFFFFF" height="71.6211" style="stroke:#181818;stroke-width:1.0;" width="10" x="961" y="632.3887"/><polygon fill="#181818" points="446,146.2871,456,150.2871,446,154.2871,450,150.2871" style="stroke:#181818;stroke-width:1.0;"/><line style="stroke:#181818;stroke-width:1.0;" x1="28" x2="452" y1="150.2871" y2="150.2871"/><text fill="#000000" font-family="sans-serif" font-size="13" font-weight="bold" lengthAdjust="spacing" textLength="9" x="35" y="145.5449">1</text><text fill="#000000" font-family="sans-serif" font-size="13" lengthAdjust="spacing" textLength="253" x="48" y="145.5449">asks to postpone an entry in the agenda</text><polygon fill="#181818" points="621.5,175.5977,631.5,179.5977,621.5,183.5977,625.5,179.5977" style="stroke:#181818;stroke-width:1.0;"/><line style="stroke:#181818;stroke-width:1.0;" x1="468" x2="627.5" y1="179.5977" y2="179.5977"/><text fill="#000000" font-family="sans-serif" font-size="13" font-weight="bold" lengthAdjust="spacing" textLength="9" x="475" y="174.8555">2</text><text fill="#000000" font-family="sans-serif" font-size="13" lengthAdjust="spacing" textLength="38" x="488" y="174.8555">create</text><rect fill="#E3E3E3" height="30.4883" rx="2.5" ry="2.5" style="stroke:#181818;stroke-width:0.5;" width="187" x="633.5" y="158.2871"/><text fill="#000000" font-family="sans-serif" font-size="14" lengthAdjust="spacing" textLength="173" x="640.5" y="178.8223">:PostponeEntryController</text><polygon fill="#181818" points="710,217.0859,720,221.0859,710,225.0859,714,221.0859" style="stroke:#181818;stroke-width:1.0;"/><line style="stroke:#181818;stroke-width:1.0;" x1="468" x2="716" y1="221.0859" y2="221.0859"/><text fill="#000000" font-family="sans-serif" font-size="13" font-weight="bold" lengthAdjust="spacing" textLength="9" x="475" y="216.3438">3</text><text fill="#000000" font-family="sans-serif" font-size="13" lengthAdjust="spacing" textLength="107" x="488" y="216.3438">getGreenSpaces()</text><rect fill="none" height="39.4434" style="stroke:#000000;stroke-width:1.5;" width="193" x="630.5" y="229.0859"/><path d="M630.5,229.0859 L694.5,229.0859 L694.5,236.0859 L684.5,246.0859 L630.5,246.0859 L630.5,229.0859 " fill="#EEEEEE" style="stroke:#000000;stroke-width:2.0;"/><text fill="#000000" font-family="sans-serif" font-size="13" font-weight="bold" lengthAdjust="spacing" textLength="19" x="643.5" y="243.6543">ref</text><text fill="#000000" font-family="sans-serif" font-size="12" lengthAdjust="spacing" textLength="103" x="675.5" y="261.6875">Get Green Spaces</text><polygon fill="#181818" points="479,290.8398,469,294.8398,479,298.8398,475,294.8398" style="stroke:#181818;stroke-width:1.0;"/><line style="stroke:#181818;stroke-width:1.0;stroke-dasharray:2.0,2.0;" x1="473" x2="726" y1="294.8398" y2="294.8398"/><text fill="#000000" font-family="sans-serif" font-size="13" font-weight="bold" lengthAdjust="spacing" textLength="9" x="485" y="290.0977">4</text><text fill="#000000" font-family="sans-serif" font-size="13" lengthAdjust="spacing" textLength="78" x="498" y="290.0977">greenSpaces</text><polygon fill="#181818" points="39,320.1504,29,324.1504,39,328.1504,35,324.1504" style="stroke:#181818;stroke-width:1.0;"/><line style="stroke:#181818;stroke-width:1.0;stroke-dasharray:2.0,2.0;" x1="33" x2="462" y1="324.1504" y2="324.1504"/><text fill="#000000" font-family="sans-serif" font-size="13" font-weight="bold" lengthAdjust="spacing" textLength="9" x="45" y="319.4082">5</text><text fill="#000000" font-family="sans-serif" font-size="13" lengthAdjust="spacing" textLength="252" x="58" y="319.4082">shows list of green spaces to select one</text><polygon fill="#181818" points="446,349.4609,456,353.4609,446,357.4609,450,353.4609" style="stroke:#181818;stroke-width:1.0;"/><line style="stroke:#181818;stroke-width:1.0;" x1="28" x2="452" y1="353.4609" y2="353.4609"/><text fill="#000000" font-family="sans-serif" font-size="13" font-weight="bold" lengthAdjust="spacing" textLength="9" x="35" y="348.7188">6</text><text fill="#000000" font-family="sans-serif" font-size="13" lengthAdjust="spacing" textLength="147" x="48" y="348.7188">selects the green space</text><polygon fill="#181818" points="710,378.7715,720,382.7715,710,386.7715,714,382.7715" style="stroke:#181818;stroke-width:1.0;"/><line style="stroke:#181818;stroke-width:1.0;" x1="468" x2="716" y1="382.7715" y2="382.7715"/><text fill="#000000" font-family="sans-serif" font-size="13" font-weight="bold" lengthAdjust="spacing" textLength="9" x="475" y="378.0293">7</text><text fill="#000000" font-family="sans-serif" font-size="13" lengthAdjust="spacing" textLength="222" x="488" y="378.0293">getTasksByGreenSpace(greenSpace)</text><rect fill="none" height="39.4434" style="stroke:#000000;stroke-width:1.5;" width="193" x="630.5" y="390.7715"/><path d="M630.5,390.7715 L694.5,390.7715 L694.5,397.7715 L684.5,407.7715 L630.5,407.7715 L630.5,390.7715 " fill="#EEEEEE" style="stroke:#000000;stroke-width:2.0;"/><text fill="#000000" font-family="sans-serif" font-size="13" font-weight="bold" lengthAdjust="spacing" textLength="19" x="643.5" y="405.3398">ref</text><text fill="#000000" font-family="sans-serif" font-size="12" lengthAdjust="spacing" textLength="153" x="650.5" y="423.373">Get Tasks by Green Space</text><polygon fill="#181818" points="479,452.5254,469,456.5254,479,460.5254,475,456.5254" style="stroke:#181818;stroke-width:1.0;"/><line style="stroke:#181818;stroke-width:1.0;stroke-dasharray:2.0,2.0;" x1="473" x2="726" y1="456.5254" y2="456.5254"/><text fill="#000000" font-family="sans-serif" font-size="13" font-weight="bold" lengthAdjust="spacing" textLength="9" x="485" y="451.7832">8</text><text fill="#000000" font-family="sans-serif" font-size="13" lengthAdjust="spacing" textLength="120" x="498" y="451.7832">tasksByGreenSpace</text><polygon fill="#181818" points="39,481.8359,29,485.8359,39,489.8359,35,485.8359" style="stroke:#181818;stroke-width:1.0;"/><line style="stroke:#181818;stroke-width:1.0;stroke-dasharray:2.0,2.0;" x1="33" x2="462" y1="485.8359" y2="485.8359"/><text fill="#000000" font-family="sans-serif" font-size="13" font-weight="bold" lengthAdjust="spacing" textLength="9" x="45" y="481.0938">9</text><text fill="#000000" font-family="sans-serif" font-size="13" lengthAdjust="spacing" textLength="393" x="58" y="481.0938">shows list of entries in the agenda of the selected green space</text><polygon fill="#181818" points="446,511.1465,456,515.1465,446,519.1465,450,515.1465" style="stroke:#181818;stroke-width:1.0;"/><line style="stroke:#181818;stroke-width:1.0;" x1="28" x2="452" y1="515.1465" y2="515.1465"/><text fill="#000000" font-family="sans-serif" font-size="13" font-weight="bold" lengthAdjust="spacing" textLength="18" x="35" y="510.4043">10</text><text fill="#000000" font-family="sans-serif" font-size="13" lengthAdjust="spacing" textLength="107" x="57" y="510.4043">selects one entry</text><polygon fill="#181818" points="39,540.457,29,544.457,39,548.457,35,544.457" style="stroke:#181818;stroke-width:1.0;"/><line style="stroke:#181818;stroke-width:1.0;stroke-dasharray:2.0,2.0;" x1="33" x2="462" y1="544.457" y2="544.457"/><text fill="#000000" font-family="sans-serif" font-size="13" font-weight="bold" lengthAdjust="spacing" textLength="18" x="45" y="539.7148">11</text><text fill="#000000" font-family="sans-serif" font-size="13" lengthAdjust="spacing" textLength="138" x="67" y="539.7148">requests the new date</text><polygon fill="#181818" points="446,569.7676,456,573.7676,446,577.7676,450,573.7676" style="stroke:#181818;stroke-width:1.0;"/><line style="stroke:#181818;stroke-width:1.0;" x1="28" x2="452" y1="573.7676" y2="573.7676"/><text fill="#000000" font-family="sans-serif" font-size="13" font-weight="bold" lengthAdjust="spacing" textLength="18" x="35" y="569.0254">12</text><text fill="#000000" font-family="sans-serif" font-size="13" lengthAdjust="spacing" textLength="118" x="57" y="569.0254">types the new date</text><polygon fill="#181818" points="710,599.0781,720,603.0781,710,607.0781,714,603.0781" style="stroke:#181818;stroke-width:1.0;"/><line style="stroke:#181818;stroke-width:1.0;" x1="468" x2="716" y1="603.0781" y2="603.0781"/><text fill="#000000" font-family="sans-serif" font-size="13" font-weight="bold" lengthAdjust="spacing" textLength="18" x="475" y="598.3359">13</text><text fill="#000000" font-family="sans-serif" font-size="13" lengthAdjust="spacing" textLength="188" x="497" y="598.3359">postponeEntry(task, newDate)</text><polygon fill="#181818" points="949,628.3887,959,632.3887,949,636.3887,953,632.3887" style="stroke:#181818;stroke-width:1.0;"/><line style="stroke:#181818;stroke-width:1.0;" x1="732" x2="955" y1="632.3887" y2="632.3887"/><text fill="#000000" font-family="sans-serif" font-size="13" font-weight="bold" lengthAdjust="spacing" textLength="18" x="739" y="627.6465">14</text><text fill="#000000" font-family="sans-serif" font-size="13" lengthAdjust="spacing" textLength="188" x="761" y="627.6465">postponeEntry(task, newDate)</text><line style="stroke:#181818;stroke-width:1.0;" x1="971" x2="1013" y1="661.6992" y2="661.6992"/><line style="stroke:#181818;stroke-width:1.0;" x1="1013" x2="1013" y1="661.6992" y2="674.6992"/><line style="stroke:#181818;stroke-width:1.0;" x1="972" x2="1013" y1="674.6992" y2="674.6992"/><polygon fill="#181818" points="982,670.6992,972,674.6992,982,678.6992,978,674.6992" style="stroke:#181818;stroke-width:1.0;"/><text fill="#000000" font-family="sans-serif" font-size="13" font-weight="bold" lengthAdjust="spacing" textLength="18" x="978" y="656.957">15</text><text fill="#000000" font-family="sans-serif" font-size="13" lengthAdjust="spacing" textLength="167" x="1000" y="656.957">validateNewDate(newDate)</text><polygon fill="#181818" points="743,700.0098,733,704.0098,743,708.0098,739,704.0098" style="stroke:#181818;stroke-width:1.0;"/><line style="stroke:#181818;stroke-width:1.0;stroke-dasharray:2.0,2.0;" x1="737" x2="965" y1="704.0098" y2="704.0098"/><text fill="#000000" font-family="sans-serif" font-size="13" font-weight="bold" lengthAdjust="spacing" textLength="18" x="749" y="699.2676">16</text><text fill="#000000" font-family="sans-serif" font-size="13" lengthAdjust="spacing" textLength="32" x="771" y="699.2676">entry</text><polygon fill="#181818" points="479,729.3203,469,733.3203,479,737.3203,475,733.3203" style="stroke:#181818;stroke-width:1.0;"/><line style="stroke:#181818;stroke-width:1.0;stroke-dasharray:2.0,2.0;" x1="473" x2="726" y1="733.3203" y2="733.3203"/><text fill="#000000" font-family="sans-serif" font-size="13" font-weight="bold" lengthAdjust="spacing" textLength="18" x="485" y="728.5781">17</text><text fill="#000000" font-family="sans-serif" font-size="13" lengthAdjust="spacing" textLength="32" x="507" y="728.5781">entry</text><polygon fill="#181818" points="34,758.6309,24,762.6309,34,766.6309,30,762.6309" style="stroke:#181818;stroke-width:1.0;"/><line style="stroke:#181818;stroke-width:1.0;stroke-dasharray:2.0,2.0;" x1="28" x2="462" y1="762.6309" y2="762.6309"/><text fill="#000000" font-family="sans-serif" font-size="13" font-weight="bold" lengthAdjust="spacing" textLength="18" x="40" y="757.8887">18</text><text fill="#000000" font-family="sans-serif" font-size="13" lengthAdjust="spacing" textLength="170" x="62" y="757.8887">displays operation success</text><!--SRC=[fLJ1Rjim3BthAuYSqc81Xc6d77fOMmG5sc5ecjikgiquGcn9a-W4_ljHyXBRiUAjc0v1P9AFv7ka_5vfAvsie3BQP3jdAWHoDGf_jbYPxMM1QsfA18SPILsKVGU_axavAbt0LfOUXI15xBfPV_xo5HRmmtYoHYD83QZ9DQ0qq8xl1UfS2Y5hChgktj7n_uoCWzbg_J83wU6nigLf40Ld8fKfApN1R7c2V0nmcwVekdcQShet_6lA4brqldzxVHwwa_JxLxJ6AowW-QcNRuCFCMhuAHQh3fAmArC0dzCD5dTS5ImvTE-13DY_C162pvZSJ_p028mJ2hwzPQpC8LjRK_zqRknK8AqSebwpTkZdDoFlSvP8nCWSZiCjc0EwrWMkd1KIn5JGvaewSdFf7B7SnOcceYjvv9rZekJGCmUV-LxoA9gZXr9v0hDj0S57nC2_nvB75rW1SO5v8diaNHlYeqezkBHKAHt2pFXlJIV7l6kpqsL2ZqaT0lqn0xmtVHt49Fr3skcoGl5Vf8V1LiptOBI38TnQEZ4VSVaHBS86nVMvlZ330Xt-gj7_KL7Z4VAmGl-QbXgBYT29HUKWstzyve7YJo7yWGDkn1N5MrdkBfwP3u5Tlb31U06NId2GfGgDVMz1vsVm943NPQT2ZyXK3SE9IuPDJLYkl2rbmz9RT9AKuT6fCzvgdrAnTprX_0O0]--></g></svg>