<?xml version="1.0" encoding="us-ascii" standalone="no"?><svg xmlns="http://www.w3.org/2000/svg" xmlns:xlink="http://www.w3.org/1999/xlink" contentStyleType="text/css" height="736px" preserveAspectRatio="none" style="width:1048px;height:736px;background:#FFFFFF;" version="1.1" viewBox="0 0 1048 736" width="1048px" zoomAndPan="magnify"><defs/><g><text fill="#000000" font-family="sans-serif" font-size="11.2" font-weight="bold" lengthAdjust="spacing" textLength="238.4" x="404" y="22.8281">US024 - Postpone an entry in the agenda</text><rect fill="#FFFFFF" height="553.8203" style="stroke:#181818;stroke-width:0.8000000000000002;" width="8" x="14.4" y="103.1813"/><rect fill="#FFFFFF" height="139.0906" style="stroke:#181818;stroke-width:0.8000000000000002;" width="8" x="366.4" y="120.2297"/><rect fill="#FFFFFF" height="105.9" style="stroke:#181818;stroke-width:0.8000000000000002;" width="8" x="366.4" y="282.7688"/><rect fill="#FFFFFF" height="23.4484" style="stroke:#181818;stroke-width:0.8000000000000002;" width="8" x="366.4" y="412.1172"/><rect fill="#FFFFFF" height="197.9875" style="stroke:#181818;stroke-width:0.8000000000000002;" width="8" x="366.4" y="459.0141"/><rect fill="#FFFFFF" height="59.0031" style="stroke:#181818;stroke-width:0.8000000000000002;" width="8" x="580" y="176.8688"/><rect fill="#FFFFFF" height="59.0031" style="stroke:#181818;stroke-width:0.8000000000000002;" width="8" x="580" y="306.2172"/><rect fill="#FFFFFF" height="151.0906" style="stroke:#181818;stroke-width:0.8000000000000002;" width="8" x="580" y="482.4625"/><rect fill="#FFFFFF" height="70.3453" style="stroke:#181818;stroke-width:0.8000000000000002;" width="8" x="793.6" y="539.7594"/><rect fill="#FFFFFF" height="23.4484" style="stroke:#181818;stroke-width:0.8000000000000002;" width="8" x="1007.2" y="563.2078"/><line style="stroke:#181818;stroke-width:0.4000000000000001;stroke-dasharray:5.0,5.0;" x1="18.4" x2="18.4" y1="95.1813" y2="671.4016"/><line style="stroke:#181818;stroke-width:0.4000000000000001;stroke-dasharray:5.0,5.0;" x1="370" x2="370" y1="95.1813" y2="671.4016"/><line style="stroke:#181818;stroke-width:0.4000000000000001;stroke-dasharray:5.0,5.0;" x1="583.6" x2="583.6" y1="151.225" y2="671.4016"/><line style="stroke:#181818;stroke-width:0.4000000000000001;stroke-dasharray:5.0,5.0;" x1="797.2" x2="797.2" y1="95.1813" y2="671.4016"/><line style="stroke:#181818;stroke-width:0.4000000000000001;stroke-dasharray:5.0,5.0;" x1="1011.2" x2="1011.2" y1="95.1813" y2="671.4016"/><text fill="#000000" font-family="sans-serif" font-size="11.2" lengthAdjust="spacing" textLength="24" x="4" y="92.8188">GSM</text><ellipse cx="18.4" cy="40.7906" fill="#E3E3E3" rx="6.4" ry="6.4" style="stroke:#181818;stroke-width:0.4000000000000001;"/><path d="M18.4,47.1906 L18.4,68.7906 M8,53.5906 L28.8,53.5906 M18.4,68.7906 L8,80.7906 M18.4,68.7906 L28.8,80.7906 " fill="none" style="stroke:#181818;stroke-width:0.4000000000000001;"/><text fill="#000000" font-family="sans-serif" font-size="11.2" lengthAdjust="spacing" textLength="24" x="4" y="681.4297">GSM</text><ellipse cx="18.4" cy="690.5922" fill="#E3E3E3" rx="6.4" ry="6.4" style="stroke:#181818;stroke-width:0.4000000000000001;"/><path d="M18.4,696.9922 L18.4,718.5922 M8,703.3922 L28.8,703.3922 M18.4,718.5922 L8,730.5922 M18.4,718.5922 L28.8,730.5922 " fill="none" style="stroke:#181818;stroke-width:0.4000000000000001;"/><rect fill="#E3E3E3" height="24.3906" rx="2" ry="2" style="stroke:#181818;stroke-width:0.4000000000000001;" width="104.8" x="318" y="69.9906"/><text fill="#000000" font-family="sans-serif" font-size="11.2" lengthAdjust="spacing" textLength="93.6" x="323.6" y="86.4188">:PostponeEntryUI</text><rect fill="#E3E3E3" height="24.3906" rx="2" ry="2" style="stroke:#181818;stroke-width:0.4000000000000001;" width="104.8" x="318" y="670.6016"/><text fill="#000000" font-family="sans-serif" font-size="11.2" lengthAdjust="spacing" textLength="93.6" x="323.6" y="687.0297">:PostponeEntryUI</text><rect fill="#E3E3E3" height="24.3906" rx="2" ry="2" style="stroke:#181818;stroke-width:0.4000000000000001;" width="149.6" x="509.2" y="670.6016"/><text fill="#000000" font-family="sans-serif" font-size="11.2" lengthAdjust="spacing" textLength="138.4" x="514.8" y="687.0297">:PostponeEntryController</text><rect fill="#E3E3E3" height="37.5813" rx="2" ry="2" style="stroke:#181818;stroke-width:0.4000000000000001;" width="98.4" x="748.4" y="56.8"/><text fill="#000000" font-family="sans-serif" font-size="11.2" lengthAdjust="spacing" textLength="80.8" x="757.2" y="73.2281">taskRepository</text><text fill="#000000" font-family="sans-serif" font-size="11.2" lengthAdjust="spacing" textLength="87.2" x="754" y="86.4188">:TaskRepository</text><rect fill="#E3E3E3" height="37.5813" rx="2" ry="2" style="stroke:#181818;stroke-width:0.4000000000000001;" width="98.4" x="748.4" y="670.6016"/><text fill="#000000" font-family="sans-serif" font-size="11.2" lengthAdjust="spacing" textLength="80.8" x="757.2" y="687.0297">taskRepository</text><text fill="#000000" font-family="sans-serif" font-size="11.2" lengthAdjust="spacing" textLength="87.2" x="754" y="700.2203">:TaskRepository</text><rect fill="#E3E3E3" height="37.5813" rx="2" ry="2" style="stroke:#181818;stroke-width:0.4000000000000001;" width="64" x="979.2" y="56.8"/><text fill="#000000" font-family="sans-serif" font-size="11.2" lengthAdjust="spacing" textLength="46.4" x="988" y="73.2281">taskDTO</text><text fill="#000000" font-family="sans-serif" font-size="11.2" lengthAdjust="spacing" textLength="52.8" x="984.8" y="86.4188">:TaskDTO</text><rect fill="#E3E3E3" height="37.5813" rx="2" ry="2" style="stroke:#181818;stroke-width:0.4000000000000001;" width="64" x="979.2" y="670.6016"/><text fill="#000000" font-family="sans-serif" font-size="11.2" lengthAdjust="spacing" textLength="46.4" x="988" y="687.0297">taskDTO</text><text fill="#000000" font-family="sans-serif" font-size="11.2" lengthAdjust="spacing" textLength="52.8" x="984.8" y="700.2203">:TaskDTO</text><rect fill="#FFFFFF" height="553.8203" style="stroke:#181818;stroke-width:0.8000000000000002;" width="8" x="14.4" y="103.1813"/><rect fill="#FFFFFF" height="139.0906" style="stroke:#181818;stroke-width:0.8000000000000002;" width="8" x="366.4" y="120.2297"/><rect fill="#FFFFFF" height="105.9" style="stroke:#181818;stroke-width:0.8000000000000002;" width="8" x="366.4" y="282.7688"/><rect fill="#FFFFFF" height="23.4484" style="stroke:#181818;stroke-width:0.8000000000000002;" width="8" x="366.4" y="412.1172"/><rect fill="#FFFFFF" height="197.9875" style="stroke:#181818;stroke-width:0.8000000000000002;" width="8" x="366.4" y="459.0141"/><rect fill="#FFFFFF" height="59.0031" style="stroke:#181818;stroke-width:0.8000000000000002;" width="8" x="580" y="176.8688"/><rect fill="#FFFFFF" height="59.0031" style="stroke:#181818;stroke-width:0.8000000000000002;" width="8" x="580" y="306.2172"/><rect fill="#FFFFFF" height="151.0906" style="stroke:#181818;stroke-width:0.8000000000000002;" width="8" x="580" y="482.4625"/><rect fill="#FFFFFF" height="70.3453" style="stroke:#181818;stroke-width:0.8000000000000002;" width="8" x="793.6" y="539.7594"/><rect fill="#FFFFFF" height="23.4484" style="stroke:#181818;stroke-width:0.8000000000000002;" width="8" x="1007.2" y="563.2078"/><polygon fill="#181818" points="356.8,117.0297,364.8,120.2297,356.8,123.4297,360,120.2297" style="stroke:#181818;stroke-width:0.8000000000000002;"/><line style="stroke:#181818;stroke-width:0.8000000000000002;" x1="22.4" x2="361.6" y1="120.2297" y2="120.2297"/><text fill="#000000" font-family="sans-serif" font-size="10.4" font-weight="bold" lengthAdjust="spacing" textLength="7.2" x="28" y="116.4359">1</text><text fill="#000000" font-family="sans-serif" font-size="10.4" lengthAdjust="spacing" textLength="202.4" x="38.4" y="116.4359">asks to postpone an entry in the agenda</text><polygon fill="#181818" points="499.6,140.4781,507.6,143.6781,499.6,146.8781,502.8,143.6781" style="stroke:#181818;stroke-width:0.8000000000000002;"/><line style="stroke:#181818;stroke-width:0.8000000000000002;stroke-dasharray:2.0,2.0;" x1="374.4" x2="504.4" y1="143.6781" y2="143.6781"/><text fill="#000000" font-family="sans-serif" font-size="10.4" font-weight="bold" lengthAdjust="spacing" textLength="7.2" x="380" y="139.8844">2</text><text fill="#000000" font-family="sans-serif" font-size="10.4" lengthAdjust="spacing" textLength="36.8" x="390.4" y="139.8844">create()</text><rect fill="#E3E3E3" height="24.3906" rx="2" ry="2" style="stroke:#181818;stroke-width:0.4000000000000001;" width="149.6" x="509.2" y="126.6297"/><text fill="#000000" font-family="sans-serif" font-size="11.2" lengthAdjust="spacing" textLength="138.4" x="514.8" y="143.0578">:PostponeEntryController</text><polygon fill="#181818" points="570.4,173.6688,578.4,176.8688,570.4,180.0688,573.6,176.8688" style="stroke:#181818;stroke-width:0.8000000000000002;"/><line style="stroke:#181818;stroke-width:0.8000000000000002;" x1="374.4" x2="575.2" y1="176.8688" y2="176.8688"/><text fill="#000000" font-family="sans-serif" font-size="10.4" font-weight="bold" lengthAdjust="spacing" textLength="7.2" x="380" y="173.075">3</text><text fill="#000000" font-family="sans-serif" font-size="10.4" lengthAdjust="spacing" textLength="85.6" x="390.4" y="173.075">getGreenSpaces()</text><rect fill="none" height="31.5547" style="stroke:#000000;stroke-width:1.2000000000000002;" width="154.4" x="506.8" y="183.2688"/><path d="M506.8,183.2688 L558,183.2688 L558,188.8688 L550,196.8688 L506.8,196.8688 L506.8,183.2688 " fill="#EEEEEE" style="stroke:#000000;stroke-width:1.6000000000000003;"/><text fill="#000000" font-family="sans-serif" font-size="10.4" font-weight="bold" lengthAdjust="spacing" textLength="15.2" x="517.2" y="194.9234">ref</text><text fill="#000000" font-family="sans-serif" font-size="9.6" lengthAdjust="spacing" textLength="82.4" x="542.8" y="209.35">Get Green Spaces</text><polygon fill="#181818" points="383.2,232.6719,375.2,235.8719,383.2,239.0719,380,235.8719" style="stroke:#181818;stroke-width:0.8000000000000002;"/><line style="stroke:#181818;stroke-width:0.8000000000000002;stroke-dasharray:2.0,2.0;" x1="378.4" x2="583.2" y1="235.8719" y2="235.8719"/><text fill="#000000" font-family="sans-serif" font-size="10.4" font-weight="bold" lengthAdjust="spacing" textLength="7.2" x="388" y="232.0781">4</text><text fill="#000000" font-family="sans-serif" font-size="10.4" lengthAdjust="spacing" textLength="121.6" x="398.4" y="232.0781">GSMGreenSpacesListDto</text><polygon fill="#181818" points="31.2,256.1203,23.2,259.3203,31.2,262.5203,28,259.3203" style="stroke:#181818;stroke-width:0.8000000000000002;"/><line style="stroke:#181818;stroke-width:0.8000000000000002;stroke-dasharray:2.0,2.0;" x1="26.4" x2="369.6" y1="259.3203" y2="259.3203"/><text fill="#000000" font-family="sans-serif" font-size="10.4" font-weight="bold" lengthAdjust="spacing" textLength="7.2" x="36" y="255.5266">5</text><text fill="#000000" font-family="sans-serif" font-size="10.4" lengthAdjust="spacing" textLength="201.6" x="46.4" y="255.5266">shows list of green spaces to select one</text><polygon fill="#181818" points="356.8,279.5688,364.8,282.7688,356.8,285.9688,360,282.7688" style="stroke:#181818;stroke-width:0.8000000000000002;"/><line style="stroke:#181818;stroke-width:0.8000000000000002;" x1="22.4" x2="361.6" y1="282.7688" y2="282.7688"/><text fill="#000000" font-family="sans-serif" font-size="10.4" font-weight="bold" lengthAdjust="spacing" textLength="7.2" x="28" y="278.975">6</text><text fill="#000000" font-family="sans-serif" font-size="10.4" lengthAdjust="spacing" textLength="120" x="38.4" y="278.975">selects one green space</text><polygon fill="#181818" points="570.4,303.0172,578.4,306.2172,570.4,309.4172,573.6,306.2172" style="stroke:#181818;stroke-width:0.8000000000000002;"/><line style="stroke:#181818;stroke-width:0.8000000000000002;" x1="374.4" x2="575.2" y1="306.2172" y2="306.2172"/><text fill="#000000" font-family="sans-serif" font-size="10.4" font-weight="bold" lengthAdjust="spacing" textLength="7.2" x="380" y="302.4234">7</text><text fill="#000000" font-family="sans-serif" font-size="10.4" lengthAdjust="spacing" textLength="125.6" x="390.4" y="302.4234">getEntriesByGreenSpace()</text><rect fill="none" height="31.5547" style="stroke:#000000;stroke-width:1.2000000000000002;" width="154.4" x="506.8" y="312.6172"/><path d="M506.8,312.6172 L558,312.6172 L558,318.2172 L550,326.2172 L506.8,326.2172 L506.8,312.6172 " fill="#EEEEEE" style="stroke:#000000;stroke-width:1.6000000000000003;"/><text fill="#000000" font-family="sans-serif" font-size="10.4" font-weight="bold" lengthAdjust="spacing" textLength="15.2" x="517.2" y="324.2719">ref</text><text fill="#000000" font-family="sans-serif" font-size="9.6" lengthAdjust="spacing" textLength="126.4" x="520.8" y="338.6984">Get Entries by Green Space</text><polygon fill="#181818" points="383.2,362.0203,375.2,365.2203,383.2,368.4203,380,365.2203" style="stroke:#181818;stroke-width:0.8000000000000002;"/><line style="stroke:#181818;stroke-width:0.8000000000000002;stroke-dasharray:2.0,2.0;" x1="378.4" x2="583.2" y1="365.2203" y2="365.2203"/><text fill="#000000" font-family="sans-serif" font-size="10.4" font-weight="bold" lengthAdjust="spacing" textLength="7.2" x="388" y="361.4266">8</text><text fill="#000000" font-family="sans-serif" font-size="10.4" lengthAdjust="spacing" textLength="144" x="398.4" y="361.4266">entriesListByGreenSpaceDTO</text><polygon fill="#181818" points="31.2,385.4688,23.2,388.6688,31.2,391.8688,28,388.6688" style="stroke:#181818;stroke-width:0.8000000000000002;"/><line style="stroke:#181818;stroke-width:0.8000000000000002;stroke-dasharray:2.0,2.0;" x1="26.4" x2="369.6" y1="388.6688" y2="388.6688"/><text fill="#000000" font-family="sans-serif" font-size="10.4" font-weight="bold" lengthAdjust="spacing" textLength="7.2" x="36" y="384.875">9</text><text fill="#000000" font-family="sans-serif" font-size="10.4" lengthAdjust="spacing" textLength="314.4" x="46.4" y="384.875">shows list of entries in the agenda of the selected green space</text><polygon fill="#181818" points="356.8,408.9172,364.8,412.1172,356.8,415.3172,360,412.1172" style="stroke:#181818;stroke-width:0.8000000000000002;"/><line style="stroke:#181818;stroke-width:0.8000000000000002;" x1="22.4" x2="361.6" y1="412.1172" y2="412.1172"/><text fill="#000000" font-family="sans-serif" font-size="10.4" font-weight="bold" lengthAdjust="spacing" textLength="14.4" x="28" y="408.3234">10</text><text fill="#000000" font-family="sans-serif" font-size="10.4" lengthAdjust="spacing" textLength="85.6" x="45.6" y="408.3234">selects one entry</text><polygon fill="#181818" points="31.2,432.3656,23.2,435.5656,31.2,438.7656,28,435.5656" style="stroke:#181818;stroke-width:0.8000000000000002;"/><line style="stroke:#181818;stroke-width:0.8000000000000002;stroke-dasharray:2.0,2.0;" x1="26.4" x2="369.6" y1="435.5656" y2="435.5656"/><text fill="#000000" font-family="sans-serif" font-size="10.4" font-weight="bold" lengthAdjust="spacing" textLength="14.4" x="36" y="431.7719">11</text><text fill="#000000" font-family="sans-serif" font-size="10.4" lengthAdjust="spacing" textLength="110.4" x="53.6" y="431.7719">requests the new date</text><polygon fill="#181818" points="356.8,455.8141,364.8,459.0141,356.8,462.2141,360,459.0141" style="stroke:#181818;stroke-width:0.8000000000000002;"/><line style="stroke:#181818;stroke-width:0.8000000000000002;" x1="22.4" x2="361.6" y1="459.0141" y2="459.0141"/><text fill="#000000" font-family="sans-serif" font-size="10.4" font-weight="bold" lengthAdjust="spacing" textLength="14.4" x="28" y="455.2203">12</text><text fill="#000000" font-family="sans-serif" font-size="10.4" lengthAdjust="spacing" textLength="94.4" x="45.6" y="455.2203">types the new date</text><polygon fill="#181818" points="570.4,479.2625,578.4,482.4625,570.4,485.6625,573.6,482.4625" style="stroke:#181818;stroke-width:0.8000000000000002;"/><line style="stroke:#181818;stroke-width:0.8000000000000002;" x1="374.4" x2="575.2" y1="482.4625" y2="482.4625"/><text fill="#000000" font-family="sans-serif" font-size="10.4" font-weight="bold" lengthAdjust="spacing" textLength="14.4" x="380" y="478.6688">13</text><text fill="#000000" font-family="sans-serif" font-size="10.4" lengthAdjust="spacing" textLength="172.8" x="397.6" y="478.6688">postponeEntry(taskDTO, newDate)</text><line style="stroke:#181818;stroke-width:0.8000000000000002;stroke-dasharray:2.0,2.0;" x1="588" x2="621.6" y1="505.9109" y2="505.9109"/><line style="stroke:#181818;stroke-width:0.8000000000000002;stroke-dasharray:2.0,2.0;" x1="621.6" x2="621.6" y1="505.9109" y2="516.3109"/><line style="stroke:#181818;stroke-width:0.8000000000000002;stroke-dasharray:2.0,2.0;" x1="588.8" x2="621.6" y1="516.3109" y2="516.3109"/><polygon fill="#181818" points="596.8,513.1109,588.8,516.3109,596.8,519.5109,593.6,516.3109" style="stroke:#181818;stroke-width:0.8000000000000002;"/><text fill="#000000" font-family="sans-serif" font-size="10.4" font-weight="bold" lengthAdjust="spacing" textLength="14.4" x="593.6" y="502.1172">14</text><text fill="#000000" font-family="sans-serif" font-size="10.4" lengthAdjust="spacing" textLength="133.6" x="611.2" y="502.1172">validateNewDate(newDate)</text><polygon fill="#181818" points="784,536.5594,792,539.7594,784,542.9594,787.2,539.7594" style="stroke:#181818;stroke-width:0.8000000000000002;"/><line style="stroke:#181818;stroke-width:0.8000000000000002;" x1="588" x2="788.8" y1="539.7594" y2="539.7594"/><text fill="#000000" font-family="sans-serif" font-size="10.4" font-weight="bold" lengthAdjust="spacing" textLength="14.4" x="593.6" y="535.9656">15</text><text fill="#000000" font-family="sans-serif" font-size="10.4" lengthAdjust="spacing" textLength="172.8" x="611.2" y="535.9656">postponeEntry(taskDTO, newDate)</text><polygon fill="#181818" points="997.6,560.0078,1005.6,563.2078,997.6,566.4078,1000.8,563.2078" style="stroke:#181818;stroke-width:0.8000000000000002;"/><line style="stroke:#181818;stroke-width:0.8000000000000002;" x1="801.6" x2="1002.4" y1="563.2078" y2="563.2078"/><text fill="#000000" font-family="sans-serif" font-size="10.4" font-weight="bold" lengthAdjust="spacing" textLength="14.4" x="807.2" y="559.4141">16</text><text fill="#000000" font-family="sans-serif" font-size="10.4" lengthAdjust="spacing" textLength="172.8" x="824.8" y="559.4141">postponeEntry(taskDTO, newDate)</text><polygon fill="#181818" points="810.4,583.4563,802.4,586.6563,810.4,589.8563,807.2,586.6563" style="stroke:#181818;stroke-width:0.8000000000000002;"/><line style="stroke:#181818;stroke-width:0.8000000000000002;stroke-dasharray:2.0,2.0;" x1="805.6" x2="1010.4" y1="586.6563" y2="586.6563"/><text fill="#000000" font-family="sans-serif" font-size="10.4" font-weight="bold" lengthAdjust="spacing" textLength="14.4" x="815.2" y="582.8625">17</text><text fill="#000000" font-family="sans-serif" font-size="10.4" lengthAdjust="spacing" textLength="44" x="832.8" y="582.8625">taskDTO</text><polygon fill="#181818" points="596.8,606.9047,588.8,610.1047,596.8,613.3047,593.6,610.1047" style="stroke:#181818;stroke-width:0.8000000000000002;"/><line style="stroke:#181818;stroke-width:0.8000000000000002;stroke-dasharray:2.0,2.0;" x1="592" x2="796.8" y1="610.1047" y2="610.1047"/><text fill="#000000" font-family="sans-serif" font-size="10.4" font-weight="bold" lengthAdjust="spacing" textLength="14.4" x="601.6" y="606.3109">18</text><text fill="#000000" font-family="sans-serif" font-size="10.4" lengthAdjust="spacing" textLength="44" x="619.2" y="606.3109">taskDTO</text><polygon fill="#181818" points="383.2,630.3531,375.2,633.5531,383.2,636.7531,380,633.5531" style="stroke:#181818;stroke-width:0.8000000000000002;"/><line style="stroke:#181818;stroke-width:0.8000000000000002;stroke-dasharray:2.0,2.0;" x1="378.4" x2="583.2" y1="633.5531" y2="633.5531"/><text fill="#000000" font-family="sans-serif" font-size="10.4" font-weight="bold" lengthAdjust="spacing" textLength="14.4" x="388" y="629.7594">19</text><text fill="#000000" font-family="sans-serif" font-size="10.4" lengthAdjust="spacing" textLength="44" x="405.6" y="629.7594">taskDTO</text><polygon fill="#181818" points="27.2,653.8016,19.2,657.0016,27.2,660.2016,24,657.0016" style="stroke:#181818;stroke-width:0.8000000000000002;"/><line style="stroke:#181818;stroke-width:0.8000000000000002;stroke-dasharray:2.0,2.0;" x1="22.4" x2="369.6" y1="657.0016" y2="657.0016"/><text fill="#000000" font-family="sans-serif" font-size="10.4" font-weight="bold" lengthAdjust="spacing" textLength="14.4" x="32" y="653.2078">20</text><text fill="#000000" font-family="sans-serif" font-size="10.4" lengthAdjust="spacing" textLength="136" x="49.6" y="653.2078">displays operation success</text><!--SRC=[dLHDRzim3BtxLn0vPSK23CDEEVImfWWAT1zeajikgiquGcn9avW4_lUZPCUH7STTwuDXYNoFv2DDjvVA22jAABNIwSxg4e7i0HFNMen8zoB75LK5WiMKXCgBsC7jHAPFKkMm5ON39259xBfPVVdw3MRmMpioMY481QZ8LY0Lq8xFEQfC98aua5Q7yXKjVwUaBKoMgnyJ40uUIrFe2Z7XI2HJQOGYcCpFb8-URlCKN3TFOquFcj-wAD06vuVrotFNdOJRlw3HJd82rHyrNtSk0gfxTOrVh7yrGFvg4VoTXCBaKH1UIag0d_C9PlTS0SmPj7T06imRgdbmoycrXmjcc36Hh-xkZibIYsoUVcgDjOqjETBI8geLTnTTuz7o1NdyJNXPt88-ehrS-sU91842QevWuDIyUvrD23Kx5yOjZI8-IqSBqi4lmsxWk9HMdpcFcJuvA1W8UWjv2Eq2cTVBOS6Z2QnOd_CipfNKDSHvJ4ntMzfOFJzL4jttwbBKe8flADZGm6iLYnbh6Teme2VMI2zad8IVjW-Bsd1sHyqR_AcM2xChhTwhTHZdqG6E4hJuzu2EaJu5XIV8sF-_mr9bS00wtbqJBuvfysD_zWmBnjniSjkUXkOe2kaZ_gnnqmw-ThxlhPJt1kyjf63iCJOncEGZv65tdLaznsmevuQetvKhWZYjYquZw7vjtJ_W1d1it3FfJ24gdaE3Lf3KFCU7b5U86ngfwDXkxNy0]--></g></svg>