<?xml version="1.0" encoding="us-ascii" standalone="no"?><svg xmlns="http://www.w3.org/2000/svg" xmlns:xlink="http://www.w3.org/1999/xlink" contentStyleType="text/css" height="997px" preserveAspectRatio="none" style="width:1482px;height:997px;background:#FFFFFF;" version="1.1" viewBox="0 0 1482 997" width="1482px" zoomAndPan="magnify"><defs/><g><rect fill="#FFFFFF" height="852.209" style="stroke:#181818;stroke-width:1.0;" width="10" x="263" y="84.2871"/><rect fill="#FFFFFF" height="29.3105" style="stroke:#181818;stroke-width:1.0;" width="10" x="418" y="137.9082"/><rect fill="#FFFFFF" height="337.5059" style="stroke:#181818;stroke-width:1.0;" width="10" x="530.5" y="553.6797"/><rect fill="#FFFFFF" height="34.3105" style="stroke:#181818;stroke-width:1.0;" width="10" x="535.5" y="732.5879"/><rect fill="#FFFFFF" height="327.8398" style="stroke:#181818;stroke-width:1.0;" width="10" x="727.5" y="196.5293"/><rect fill="#FFFFFF" height="30" style="stroke:#181818;stroke-width:1.0;" width="10" x="867.5" y="308.127"/><rect fill="#FFFFFF" height="30" style="stroke:#181818;stroke-width:1.0;" width="10" x="1009" y="451.0586"/><rect fill="#FFFFFF" height="30" style="stroke:#181818;stroke-width:1.0;" width="10" x="1009" y="665.2773"/><rect fill="#FFFFFF" height="30" style="stroke:#181818;stroke-width:1.0;" width="10" x="1128" y="367.4375"/><rect fill="#FFFFFF" height="30" style="stroke:#181818;stroke-width:1.0;" width="10" x="1262" y="824.875"/><rect fill="none" height="799.8984" style="stroke:#000000;stroke-width:1.5;" width="1311.5" x="164.5" y="99.2871"/><rect fill="none" height="226.5527" style="stroke:#000000;stroke-width:1.5;" width="491" x="677" y="269.5059"/><rect fill="none" height="76.6211" style="stroke:#000000;stroke-width:1.5;" width="421" x="687" y="412.4375"/><rect fill="none" height="236.2188" style="stroke:#000000;stroke-width:1.5;" width="991.5" x="474.5" y="626.6563"/><line style="stroke:#181818;stroke-width:0.5;stroke-dasharray:5.0,5.0;" x1="267.5" x2="267.5" y1="52.9766" y2="945.4961"/><line style="stroke:#181818;stroke-width:0.5;stroke-dasharray:5.0,5.0;" x1="422.5" x2="422.5" y1="52.9766" y2="945.4961"/><line style="stroke:#181818;stroke-width:0.5;stroke-dasharray:5.0,5.0;" x1="535.5" x2="535.5" y1="52.9766" y2="945.4961"/><line style="stroke:#181818;stroke-width:0.5;stroke-dasharray:5.0,5.0;" x1="732" x2="732" y1="52.9766" y2="945.4961"/><line style="stroke:#181818;stroke-width:0.5;stroke-dasharray:5.0,5.0;" x1="872" x2="872" y1="52.9766" y2="945.4961"/><line style="stroke:#181818;stroke-width:0.5;stroke-dasharray:5.0,5.0;" x1="1014" x2="1014" y1="243.5176" y2="945.4961"/><line style="stroke:#181818;stroke-width:0.5;stroke-dasharray:5.0,5.0;" x1="1133" x2="1133" y1="52.9766" y2="945.4961"/><line style="stroke:#181818;stroke-width:0.5;stroke-dasharray:5.0,5.0;" x1="1267" x2="1267" y1="600.668" y2="945.4961"/><line style="stroke:#181818;stroke-width:0.5;stroke-dasharray:5.0,5.0;" x1="1416" x2="1416" y1="784.5762" y2="945.4961"/><rect fill="#E3E3E3" height="30.4883" rx="2.5" ry="2.5" style="stroke:#181818;stroke-width:0.5;" width="187" x="174.5" y="21.4883"/><text fill="#000000" font-family="sans-serif" font-size="14" lengthAdjust="spacing" textLength="173" x="181.5" y="42.0234">:PostponeEntryController</text><rect fill="#E3E3E3" height="30.4883" rx="2.5" ry="2.5" style="stroke:#181818;stroke-width:0.5;" width="187" x="174.5" y="944.4961"/><text fill="#000000" font-family="sans-serif" font-size="14" lengthAdjust="spacing" textLength="173" x="181.5" y="965.0313">:PostponeEntryController</text><rect fill="#E3E3E3" height="46.9766" rx="2.5" ry="2.5" style="stroke:#181818;stroke-width:0.5;" width="103" x="371.5" y="5"/><text fill="#000000" font-family="sans-serif" font-size="14" lengthAdjust="spacing" textLength="82" x="382" y="25.5352">repositories</text><text fill="#000000" font-family="sans-serif" font-size="14" lengthAdjust="spacing" textLength="89" x="378.5" y="42.0234">:Repositories</text><rect fill="#E3E3E3" height="46.9766" rx="2.5" ry="2.5" style="stroke:#181818;stroke-width:0.5;" width="103" x="371.5" y="944.4961"/><text fill="#000000" font-family="sans-serif" font-size="14" lengthAdjust="spacing" textLength="82" x="382" y="965.0313">repositories</text><text fill="#000000" font-family="sans-serif" font-size="14" lengthAdjust="spacing" textLength="89" x="378.5" y="981.5195">:Repositories</text><rect fill="#E3E3E3" height="46.9766" rx="2.5" ry="2.5" style="stroke:#181818;stroke-width:0.5;" width="102" x="484.5" y="5"/><text fill="#000000" font-family="sans-serif" font-size="14" lengthAdjust="spacing" textLength="80" x="495.5" y="25.5352">taskMapper</text><text fill="#000000" font-family="sans-serif" font-size="14" lengthAdjust="spacing" textLength="88" x="491.5" y="42.0234">:TaskMapper</text><rect fill="#E3E3E3" height="46.9766" rx="2.5" ry="2.5" style="stroke:#181818;stroke-width:0.5;" width="102" x="484.5" y="944.4961"/><text fill="#000000" font-family="sans-serif" font-size="14" lengthAdjust="spacing" textLength="80" x="495.5" y="965.0313">taskMapper</text><text fill="#000000" font-family="sans-serif" font-size="14" lengthAdjust="spacing" textLength="88" x="491.5" y="981.5195">:TaskMapper</text><rect fill="#E3E3E3" height="46.9766" rx="2.5" ry="2.5" style="stroke:#181818;stroke-width:0.5;" width="71" x="697" y="5"/><text fill="#000000" font-family="sans-serif" font-size="14" lengthAdjust="spacing" textLength="51" x="707" y="25.5352">agenda</text><text fill="#000000" font-family="sans-serif" font-size="14" lengthAdjust="spacing" textLength="57" x="704" y="42.0234">:Agenda</text><rect fill="#E3E3E3" height="46.9766" rx="2.5" ry="2.5" style="stroke:#181818;stroke-width:0.5;" width="71" x="697" y="944.4961"/><text fill="#000000" font-family="sans-serif" font-size="14" lengthAdjust="spacing" textLength="51" x="707" y="965.0313">agenda</text><text fill="#000000" font-family="sans-serif" font-size="14" lengthAdjust="spacing" textLength="57" x="704" y="981.5195">:Agenda</text><rect fill="#E3E3E3" height="46.9766" rx="2.5" ry="2.5" style="stroke:#181818;stroke-width:0.5;" width="95" x="825" y="5"/><text fill="#000000" font-family="sans-serif" font-size="14" lengthAdjust="spacing" textLength="70" x="837.5" y="25.5352">entriesList</text><text fill="#000000" font-family="sans-serif" font-size="14" lengthAdjust="spacing" textLength="81" x="832" y="42.0234">:List&lt;Task&gt;</text><rect fill="#E3E3E3" height="46.9766" rx="2.5" ry="2.5" style="stroke:#181818;stroke-width:0.5;" width="95" x="825" y="944.4961"/><text fill="#000000" font-family="sans-serif" font-size="14" lengthAdjust="spacing" textLength="70" x="837.5" y="965.0313">entriesList</text><text fill="#000000" font-family="sans-serif" font-size="14" lengthAdjust="spacing" textLength="81" x="832" y="981.5195">:List&lt;Task&gt;</text><rect fill="#E3E3E3" height="46.9766" rx="2.5" ry="2.5" style="stroke:#181818;stroke-width:0.5;" width="168" x="930" y="944.4961"/><text fill="#000000" font-family="sans-serif" font-size="14" lengthAdjust="spacing" textLength="154" x="937" y="965.0313">tasksListByGreenSpace</text><text fill="#000000" font-family="sans-serif" font-size="14" lengthAdjust="spacing" textLength="81" x="973.5" y="981.5195">:List&lt;Task&gt;</text><rect fill="#E3E3E3" height="46.9766" rx="2.5" ry="2.5" style="stroke:#181818;stroke-width:0.5;" width="50" x="1108" y="5"/><text fill="#000000" font-family="sans-serif" font-size="14" lengthAdjust="spacing" textLength="28" x="1119" y="25.5352">task</text><text fill="#000000" font-family="sans-serif" font-size="14" lengthAdjust="spacing" textLength="36" x="1115" y="42.0234">:Task</text><rect fill="#E3E3E3" height="46.9766" rx="2.5" ry="2.5" style="stroke:#181818;stroke-width:0.5;" width="50" x="1108" y="944.4961"/><text fill="#000000" font-family="sans-serif" font-size="14" lengthAdjust="spacing" textLength="28" x="1119" y="965.0313">task</text><text fill="#000000" font-family="sans-serif" font-size="14" lengthAdjust="spacing" textLength="36" x="1115" y="981.5195">:Task</text><rect fill="#E3E3E3" height="46.9766" rx="2.5" ry="2.5" style="stroke:#181818;stroke-width:0.5;" width="198" x="1168" y="944.4961"/><text fill="#000000" font-family="sans-serif" font-size="14" lengthAdjust="spacing" textLength="184" x="1175" y="965.0313">tasksListByGreenSpaceDTO</text><text fill="#000000" font-family="sans-serif" font-size="14" lengthAdjust="spacing" textLength="111" x="1211.5" y="981.5195">:List&lt;TaskDTO&gt;</text><rect fill="#E3E3E3" height="46.9766" rx="2.5" ry="2.5" style="stroke:#181818;stroke-width:0.5;" width="80" x="1376" y="944.4961"/><text fill="#000000" font-family="sans-serif" font-size="14" lengthAdjust="spacing" textLength="58" x="1387" y="965.0313">taskDTO</text><text fill="#000000" font-family="sans-serif" font-size="14" lengthAdjust="spacing" textLength="66" x="1383" y="981.5195">:TaskDTO</text><rect fill="#FFFFFF" height="852.209" style="stroke:#181818;stroke-width:1.0;" width="10" x="263" y="84.2871"/><rect fill="#FFFFFF" height="29.3105" style="stroke:#181818;stroke-width:1.0;" width="10" x="418" y="137.9082"/><rect fill="#FFFFFF" height="337.5059" style="stroke:#181818;stroke-width:1.0;" width="10" x="530.5" y="553.6797"/><rect fill="#FFFFFF" height="34.3105" style="stroke:#181818;stroke-width:1.0;" width="10" x="535.5" y="732.5879"/><rect fill="#FFFFFF" height="327.8398" style="stroke:#181818;stroke-width:1.0;" width="10" x="727.5" y="196.5293"/><rect fill="#FFFFFF" height="30" style="stroke:#181818;stroke-width:1.0;" width="10" x="867.5" y="308.127"/><rect fill="#FFFFFF" height="30" style="stroke:#181818;stroke-width:1.0;" width="10" x="1009" y="451.0586"/><rect fill="#FFFFFF" height="30" style="stroke:#181818;stroke-width:1.0;" width="10" x="1009" y="665.2773"/><rect fill="#FFFFFF" height="30" style="stroke:#181818;stroke-width:1.0;" width="10" x="1128" y="367.4375"/><rect fill="#FFFFFF" height="30" style="stroke:#181818;stroke-width:1.0;" width="10" x="1262" y="824.875"/><polygon fill="#181818" points="251,80.2871,261,84.2871,251,88.2871,255,84.2871" style="stroke:#181818;stroke-width:1.0;"/><line style="stroke:#181818;stroke-width:1.0;" x1="0" x2="257" y1="84.2871" y2="84.2871"/><text fill="#000000" font-family="sans-serif" font-size="13" font-weight="bold" lengthAdjust="spacing" textLength="18" x="7" y="79.5449">30</text><text fill="#000000" font-family="sans-serif" font-size="13" lengthAdjust="spacing" textLength="222" x="29" y="79.5449">getTasksByGreenSpace(greenSpace)</text><path d="M164.5,99.2871 L383.5,99.2871 L383.5,106.5977 L373.5,116.5977 L164.5,116.5977 L164.5,99.2871 " fill="#EEEEEE" style="stroke:#000000;stroke-width:1.5;"/><rect fill="none" height="799.8984" style="stroke:#000000;stroke-width:1.5;" width="1311.5" x="164.5" y="99.2871"/><text fill="#000000" font-family="sans-serif" font-size="13" font-weight="bold" lengthAdjust="spacing" textLength="174" x="179.5" y="112.8555">Get Tasks By Green Space</text><polygon fill="#181818" points="406,133.9082,416,137.9082,406,141.9082,410,137.9082" style="stroke:#181818;stroke-width:1.0;"/><line style="stroke:#181818;stroke-width:1.0;" x1="273" x2="412" y1="137.9082" y2="137.9082"/><text fill="#000000" font-family="sans-serif" font-size="13" font-weight="bold" lengthAdjust="spacing" textLength="30" x="280" y="133.166">30.1</text><text fill="#000000" font-family="sans-serif" font-size="13" lengthAdjust="spacing" textLength="75" x="314" y="133.166">getAgenda()</text><polygon fill="#181818" points="284,163.2188,274,167.2188,284,171.2188,280,167.2188" style="stroke:#181818;stroke-width:1.0;"/><line style="stroke:#181818;stroke-width:1.0;stroke-dasharray:2.0,2.0;" x1="278" x2="422" y1="167.2188" y2="167.2188"/><text fill="#000000" font-family="sans-serif" font-size="13" font-weight="bold" lengthAdjust="spacing" textLength="30" x="290" y="162.4766">30.2</text><text fill="#000000" font-family="sans-serif" font-size="13" lengthAdjust="spacing" textLength="45" x="324" y="162.4766">agenda</text><polygon fill="#181818" points="715.5,192.5293,725.5,196.5293,715.5,200.5293,719.5,196.5293" style="stroke:#181818;stroke-width:1.0;"/><line style="stroke:#181818;stroke-width:1.0;" x1="273" x2="721.5" y1="196.5293" y2="196.5293"/><text fill="#000000" font-family="sans-serif" font-size="13" font-weight="bold" lengthAdjust="spacing" textLength="30" x="280" y="191.7871">30.3</text><text fill="#000000" font-family="sans-serif" font-size="13" lengthAdjust="spacing" textLength="183" x="314" y="191.7871">getAgendaTasks(greenSpace)</text><polygon fill="#181818" points="918,221.8398,928,225.8398,918,229.8398,922,225.8398" style="stroke:#181818;stroke-width:1.0;"/><line style="stroke:#181818;stroke-width:1.0;stroke-dasharray:2.0,2.0;" x1="737.5" x2="924" y1="225.8398" y2="225.8398"/><text fill="#000000" font-family="sans-serif" font-size="13" font-weight="bold" lengthAdjust="spacing" textLength="30" x="744.5" y="221.0977">30.4</text><text fill="#000000" font-family="sans-serif" font-size="13" lengthAdjust="spacing" textLength="46" x="778.5" y="221.0977">create()</text><rect fill="#E3E3E3" height="46.9766" rx="2.5" ry="2.5" style="stroke:#181818;stroke-width:0.5;" width="168" x="930" y="204.5293"/><text fill="#000000" font-family="sans-serif" font-size="14" lengthAdjust="spacing" textLength="154" x="937" y="225.0645">tasksListByGreenSpace</text><text fill="#000000" font-family="sans-serif" font-size="14" lengthAdjust="spacing" textLength="81" x="973.5" y="241.5527">:List&lt;Task&gt;</text><path d="M677,269.5059 L751,269.5059 L751,276.8164 L741,286.8164 L677,286.8164 L677,269.5059 " fill="#EEEEEE" style="stroke:#000000;stroke-width:1.5;"/><rect fill="none" height="226.5527" style="stroke:#000000;stroke-width:1.5;" width="491" x="677" y="269.5059"/><text fill="#000000" font-family="sans-serif" font-size="13" font-weight="bold" lengthAdjust="spacing" textLength="29" x="692" y="283.0742">loop</text><text fill="#000000" font-family="sans-serif" font-size="11" font-weight="bold" lengthAdjust="spacing" textLength="122" x="766" y="282.1406">[for each known task]</text><polygon fill="#181818" points="855.5,304.127,865.5,308.127,855.5,312.127,859.5,308.127" style="stroke:#181818;stroke-width:1.0;"/><line style="stroke:#181818;stroke-width:1.0;" x1="737.5" x2="861.5" y1="308.127" y2="308.127"/><text fill="#000000" font-family="sans-serif" font-size="13" font-weight="bold" lengthAdjust="spacing" textLength="30" x="744.5" y="303.3848">30.5</text><text fill="#000000" font-family="sans-serif" font-size="13" lengthAdjust="spacing" textLength="77" x="778.5" y="303.3848">task = get(i)</text><polygon fill="#181818" points="1116,363.4375,1126,367.4375,1116,371.4375,1120,367.4375" style="stroke:#181818;stroke-width:1.0;"/><line style="stroke:#181818;stroke-width:1.0;" x1="737.5" x2="1122" y1="367.4375" y2="367.4375"/><text fill="#000000" font-family="sans-serif" font-size="13" font-weight="bold" lengthAdjust="spacing" textLength="30" x="744.5" y="362.6953">30.6</text><text fill="#000000" font-family="sans-serif" font-size="13" lengthAdjust="spacing" textLength="188" x="778.5" y="362.6953">taskGreenSpace = greenSpace</text><path d="M687,412.4375 L754,412.4375 L754,419.748 L744,429.748 L687,429.748 L687,412.4375 " fill="#EEEEEE" style="stroke:#000000;stroke-width:1.5;"/><rect fill="none" height="76.6211" style="stroke:#000000;stroke-width:1.5;" width="421" x="687" y="412.4375"/><text fill="#000000" font-family="sans-serif" font-size="13" font-weight="bold" lengthAdjust="spacing" textLength="22" x="702" y="426.0059">opt</text><text fill="#000000" font-family="sans-serif" font-size="11" font-weight="bold" lengthAdjust="spacing" textLength="118" x="769" y="425.0723">[greenSpace == true]</text><polygon fill="#181818" points="997,447.0586,1007,451.0586,997,455.0586,1001,451.0586" style="stroke:#181818;stroke-width:1.0;"/><line style="stroke:#181818;stroke-width:1.0;" x1="737.5" x2="1003" y1="451.0586" y2="451.0586"/><text fill="#000000" font-family="sans-serif" font-size="13" font-weight="bold" lengthAdjust="spacing" textLength="30" x="744.5" y="446.3164">30.7</text><text fill="#000000" font-family="sans-serif" font-size="13" lengthAdjust="spacing" textLength="63" x="778.5" y="446.3164">add(entry)</text><polygon fill="#181818" points="284,520.3691,274,524.3691,284,528.3691,280,524.3691" style="stroke:#181818;stroke-width:1.0;"/><line style="stroke:#181818;stroke-width:1.0;stroke-dasharray:2.0,2.0;" x1="278" x2="731.5" y1="524.3691" y2="524.3691"/><text fill="#000000" font-family="sans-serif" font-size="13" font-weight="bold" lengthAdjust="spacing" textLength="30" x="290" y="519.627">30.8</text><text fill="#000000" font-family="sans-serif" font-size="13" lengthAdjust="spacing" textLength="143" x="324" y="519.627">tasksListByGreenSpace</text><polygon fill="#181818" points="518.5,549.6797,528.5,553.6797,518.5,557.6797,522.5,553.6797" style="stroke:#181818;stroke-width:1.0;"/><line style="stroke:#181818;stroke-width:1.0;" x1="273" x2="524.5" y1="553.6797" y2="553.6797"/><text fill="#000000" font-family="sans-serif" font-size="13" font-weight="bold" lengthAdjust="spacing" textLength="30" x="280" y="548.9375">30.9</text><text fill="#000000" font-family="sans-serif" font-size="13" lengthAdjust="spacing" textLength="115" x="314" y="548.9375">toDTO(entriesList)</text><polygon fill="#181818" points="1156,578.9902,1166,582.9902,1156,586.9902,1160,582.9902" style="stroke:#181818;stroke-width:1.0;"/><line style="stroke:#181818;stroke-width:1.0;stroke-dasharray:2.0,2.0;" x1="540.5" x2="1162" y1="582.9902" y2="582.9902"/><text fill="#000000" font-family="sans-serif" font-size="13" font-weight="bold" lengthAdjust="spacing" textLength="39" x="547.5" y="578.248">30.10</text><text fill="#000000" font-family="sans-serif" font-size="13" lengthAdjust="spacing" textLength="46" x="590.5" y="578.248">create()</text><rect fill="#E3E3E3" height="46.9766" rx="2.5" ry="2.5" style="stroke:#181818;stroke-width:0.5;" width="198" x="1168" y="561.6797"/><text fill="#000000" font-family="sans-serif" font-size="14" lengthAdjust="spacing" textLength="184" x="1175" y="582.2148">tasksListByGreenSpaceDTO</text><text fill="#000000" font-family="sans-serif" font-size="14" lengthAdjust="spacing" textLength="111" x="1211.5" y="598.7031">:List&lt;TaskDTO&gt;</text><path d="M474.5,626.6563 L548.5,626.6563 L548.5,633.9668 L538.5,643.9668 L474.5,643.9668 L474.5,626.6563 " fill="#EEEEEE" style="stroke:#000000;stroke-width:1.5;"/><rect fill="none" height="236.2188" style="stroke:#000000;stroke-width:1.5;" width="991.5" x="474.5" y="626.6563"/><text fill="#000000" font-family="sans-serif" font-size="13" font-weight="bold" lengthAdjust="spacing" textLength="29" x="489.5" y="640.2246">loop</text><text fill="#000000" font-family="sans-serif" font-size="11" font-weight="bold" lengthAdjust="spacing" textLength="225" x="563.5" y="639.291">[for each task in tasksListByGreenSpace]</text><polygon fill="#181818" points="997,661.2773,1007,665.2773,997,669.2773,1001,665.2773" style="stroke:#181818;stroke-width:1.0;"/><line style="stroke:#181818;stroke-width:1.0;" x1="540.5" x2="1003" y1="665.2773" y2="665.2773"/><text fill="#000000" font-family="sans-serif" font-size="13" font-weight="bold" lengthAdjust="spacing" textLength="39" x="547.5" y="660.5352">30.11</text><text fill="#000000" font-family="sans-serif" font-size="13" lengthAdjust="spacing" textLength="70" x="590.5" y="660.5352">obj = get(i)</text><line style="stroke:#181818;stroke-width:1.0;" x1="540.5" x2="587.5" y1="719.5879" y2="719.5879"/><line style="stroke:#181818;stroke-width:1.0;" x1="587.5" x2="587.5" y1="719.5879" y2="732.5879"/><line style="stroke:#181818;stroke-width:1.0;" x1="546.5" x2="587.5" y1="732.5879" y2="732.5879"/><polygon fill="#181818" points="556.5,728.5879,546.5,732.5879,556.5,736.5879,552.5,732.5879" style="stroke:#181818;stroke-width:1.0;"/><text fill="#000000" font-family="sans-serif" font-size="13" font-weight="bold" lengthAdjust="spacing" textLength="39" x="552.5" y="714.8457">30.12</text><text fill="#000000" font-family="sans-serif" font-size="13" lengthAdjust="spacing" textLength="130" x="595.5" y="714.8457">objDto = toDTO(obj)</text><polygon fill="#181818" points="1364,762.8984,1374,766.8984,1364,770.8984,1368,766.8984" style="stroke:#181818;stroke-width:1.0;"/><line style="stroke:#181818;stroke-width:1.0;" x1="540.5" x2="1370" y1="766.8984" y2="766.8984"/><text fill="#000000" font-family="sans-serif" font-size="13" font-weight="bold" lengthAdjust="spacing" textLength="39" x="547.5" y="762.1563">30.13</text><text fill="#000000" font-family="sans-serif" font-size="13" lengthAdjust="spacing" textLength="58" x="590.5" y="762.1563">create(...)</text><rect fill="#E3E3E3" height="46.9766" rx="2.5" ry="2.5" style="stroke:#181818;stroke-width:0.5;" width="80" x="1376" y="745.5879"/><text fill="#000000" font-family="sans-serif" font-size="14" lengthAdjust="spacing" textLength="58" x="1387" y="766.123">taskDTO</text><text fill="#000000" font-family="sans-serif" font-size="14" lengthAdjust="spacing" textLength="66" x="1383" y="782.6113">:TaskDTO</text><polygon fill="#181818" points="1250,820.875,1260,824.875,1250,828.875,1254,824.875" style="stroke:#181818;stroke-width:1.0;"/><line style="stroke:#181818;stroke-width:1.0;" x1="540.5" x2="1256" y1="824.875" y2="824.875"/><text fill="#000000" font-family="sans-serif" font-size="13" font-weight="bold" lengthAdjust="spacing" textLength="39" x="547.5" y="820.1328">30.14</text><text fill="#000000" font-family="sans-serif" font-size="13" lengthAdjust="spacing" textLength="74" x="590.5" y="820.1328">add(objDto)</text><polygon fill="#181818" points="284,887.1855,274,891.1855,284,895.1855,280,891.1855" style="stroke:#181818;stroke-width:1.0;"/><line style="stroke:#181818;stroke-width:1.0;stroke-dasharray:2.0,2.0;" x1="278" x2="534.5" y1="891.1855" y2="891.1855"/><text fill="#000000" font-family="sans-serif" font-size="13" font-weight="bold" lengthAdjust="spacing" textLength="39" x="290" y="886.4434">30.15</text><text fill="#000000" font-family="sans-serif" font-size="13" lengthAdjust="spacing" textLength="171" x="333" y="886.4434">tasksListByGreenSpaceDTO</text><polygon fill="#181818" points="11,923.4961,1,927.4961,11,931.4961,7,927.4961" style="stroke:#181818;stroke-width:1.0;"/><line style="stroke:#181818;stroke-width:1.0;stroke-dasharray:2.0,2.0;" x1="5" x2="262" y1="927.4961" y2="927.4961"/><text fill="#000000" font-family="sans-serif" font-size="13" font-weight="bold" lengthAdjust="spacing" textLength="18" x="17" y="922.7539">46</text><text fill="#000000" font-family="sans-serif" font-size="13" lengthAdjust="spacing" textLength="171" x="39" y="922.7539">tasksListByGreenSpaceDTO</text><!--SRC=[fLNBRjim4BphAnOvoG5ij6ZHWn4RoAF8nKM3nCTU68cHLSkaGD8DzFTTahAqiaZ7RdMmHN5sPtOv9FMs53LJR0SxAMIsKNB7mQWzJtGtKxDiomh-OfgAW-APOQAeA41lM2xVIr706wiqJnByRCgih9amS3L_ajhKKl3lmgZcNkAlh2gkhe1fk5y_huPmnMkfIoDLoVKlCNycGnVnjBfT3oCCqziVhAwvGlow6pXqFnp6O3qYPuY_TIyEwr-7E8vgaNbLQeDW-tTZKovT09aSAtAVxvf7nRbumHRoSNmGDixKLjM5dC7riFv9wN1uWX5dnobzXZQuQwM59cnlfDZlNhc2Bv-IwT8j8ioXuCPYDCsT5jthv2XozXa_PARymmptFW1y2YNtDJnou_Wqt3NWie5l3lIFOqLsQmZFxXSmdL1Kn-1yGsTStBINxor14JcFHn_OFIVbTxe7TOVaj6QZSsqgAocuJjVNI9CfZk5O8usifApXJIf0mHlO2lakl5D2wPVKjvZH0c5XzQTbM2lrURWz517cT2oUhA_8qlR63r6xAiASem9bRKWwM2pyGHQLCsgmDK6UfxQOPXALCzwnSNqdiQZ5QawElzdLZ1cZzUebEW9EEvYtFnrjJecxEoKh6Mu1EL7fF4aLDJ3cFzV3pYwbY1GQ8uwlgtpzVThZ_x-oSL63DgEI1oDHZEyt3l-vpyl3cKoxEflD9X7TPwMChLoxERpy2tfehumBskXkc8ysn97PJcsAE3tjXcLnDm-zehv-Iswcqm-p_mK0]--></g></svg>