<?xml version="1.0" encoding="us-ascii" standalone="no"?><svg xmlns="http://www.w3.org/2000/svg" xmlns:xlink="http://www.w3.org/1999/xlink" contentStyleType="text/css" height="920px" preserveAspectRatio="none" style="width:1319px;height:920px;background:#FFFFFF;" version="1.1" viewBox="0 0 1319 920" width="1319px" zoomAndPan="magnify"><defs/><g><text fill="#000000" font-family="sans-serif" font-size="14" font-weight="bold" lengthAdjust="spacing" textLength="298" x="509.5" y="28.5352">US024 - Postpone an entry in the agenda</text><rect fill="#FFFFFF" height="692.2754" style="stroke:#181818;stroke-width:1.0;" width="10" x="18" y="128.9766"/><rect fill="#FFFFFF" height="173.8633" style="stroke:#181818;stroke-width:1.0;" width="10" x="458" y="150.2871"/><rect fill="#FFFFFF" height="132.375" style="stroke:#181818;stroke-width:1.0;" width="10" x="458" y="353.4609"/><rect fill="#FFFFFF" height="29.3105" style="stroke:#181818;stroke-width:1.0;" width="10" x="458" y="515.1465"/><rect fill="#FFFFFF" height="247.4844" style="stroke:#181818;stroke-width:1.0;" width="10" x="458" y="573.7676"/><rect fill="#FFFFFF" height="73.7539" style="stroke:#181818;stroke-width:1.0;" width="10" x="725" y="221.0859"/><rect fill="#FFFFFF" height="73.7539" style="stroke:#181818;stroke-width:1.0;" width="10" x="725" y="382.7715"/><rect fill="#FFFFFF" height="188.8633" style="stroke:#181818;stroke-width:1.0;" width="10" x="725" y="603.0781"/><rect fill="#FFFFFF" height="87.9316" style="stroke:#181818;stroke-width:1.0;" width="10" x="992" y="674.6992"/><rect fill="#FFFFFF" height="29.3105" style="stroke:#181818;stroke-width:1.0;" width="10" x="1259" y="704.0098"/><line style="stroke:#181818;stroke-width:0.5;stroke-dasharray:5.0,5.0;" x1="23" x2="23" y1="118.9766" y2="839.252"/><line style="stroke:#181818;stroke-width:0.5;stroke-dasharray:5.0,5.0;" x1="462.5" x2="462.5" y1="118.9766" y2="839.252"/><line style="stroke:#181818;stroke-width:0.5;stroke-dasharray:5.0,5.0;" x1="729.5" x2="729.5" y1="189.0313" y2="839.252"/><line style="stroke:#181818;stroke-width:0.5;stroke-dasharray:5.0,5.0;" x1="996.5" x2="996.5" y1="118.9766" y2="839.252"/><line style="stroke:#181818;stroke-width:0.5;stroke-dasharray:5.0,5.0;" x1="1264" x2="1264" y1="118.9766" y2="839.252"/><text fill="#000000" font-family="sans-serif" font-size="14" lengthAdjust="spacing" textLength="30" x="5" y="116.0234">GSM</text><ellipse cx="23" cy="50.9883" fill="#E3E3E3" rx="8" ry="8" style="stroke:#181818;stroke-width:0.5;"/><path d="M23,58.9883 L23,85.9883 M10,66.9883 L36,66.9883 M23,85.9883 L10,100.9883 M23,85.9883 L36,100.9883 " fill="none" style="stroke:#181818;stroke-width:0.5;"/><text fill="#000000" font-family="sans-serif" font-size="14" lengthAdjust="spacing" textLength="30" x="5" y="851.7871">GSM</text><ellipse cx="23" cy="863.2402" fill="#E3E3E3" rx="8" ry="8" style="stroke:#181818;stroke-width:0.5;"/><path d="M23,871.2402 L23,898.2402 M10,879.2402 L36,879.2402 M23,898.2402 L10,913.2402 M23,898.2402 L36,913.2402 " fill="none" style="stroke:#181818;stroke-width:0.5;"/><rect fill="#E3E3E3" height="30.4883" rx="2.5" ry="2.5" style="stroke:#181818;stroke-width:0.5;" width="131" x="397.5" y="87.4883"/><text fill="#000000" font-family="sans-serif" font-size="14" lengthAdjust="spacing" textLength="117" x="404.5" y="108.0234">:PostponeEntryUI</text><rect fill="#E3E3E3" height="30.4883" rx="2.5" ry="2.5" style="stroke:#181818;stroke-width:0.5;" width="131" x="397.5" y="838.252"/><text fill="#000000" font-family="sans-serif" font-size="14" lengthAdjust="spacing" textLength="117" x="404.5" y="858.7871">:PostponeEntryUI</text><rect fill="#E3E3E3" height="30.4883" rx="2.5" ry="2.5" style="stroke:#181818;stroke-width:0.5;" width="187" x="636.5" y="838.252"/><text fill="#000000" font-family="sans-serif" font-size="14" lengthAdjust="spacing" textLength="173" x="643.5" y="858.7871">:PostponeEntryController</text><rect fill="#E3E3E3" height="46.9766" rx="2.5" ry="2.5" style="stroke:#181818;stroke-width:0.5;" width="71" x="961.5" y="71"/><text fill="#000000" font-family="sans-serif" font-size="14" lengthAdjust="spacing" textLength="51" x="971.5" y="91.5352">agenda</text><text fill="#000000" font-family="sans-serif" font-size="14" lengthAdjust="spacing" textLength="57" x="968.5" y="108.0234">:Agenda</text><rect fill="#E3E3E3" height="46.9766" rx="2.5" ry="2.5" style="stroke:#181818;stroke-width:0.5;" width="71" x="961.5" y="838.252"/><text fill="#000000" font-family="sans-serif" font-size="14" lengthAdjust="spacing" textLength="51" x="971.5" y="858.7871">agenda</text><text fill="#000000" font-family="sans-serif" font-size="14" lengthAdjust="spacing" textLength="57" x="968.5" y="875.2754">:Agenda</text><rect fill="#E3E3E3" height="46.9766" rx="2.5" ry="2.5" style="stroke:#181818;stroke-width:0.5;" width="98" x="1215" y="71"/><text fill="#000000" font-family="sans-serif" font-size="14" lengthAdjust="spacing" textLength="80" x="1224" y="91.5352">GSTaskDTO</text><text fill="#000000" font-family="sans-serif" font-size="14" lengthAdjust="spacing" textLength="84" x="1222" y="108.0234">:GSTaskDTO</text><rect fill="#E3E3E3" height="46.9766" rx="2.5" ry="2.5" style="stroke:#181818;stroke-width:0.5;" width="98" x="1215" y="838.252"/><text fill="#000000" font-family="sans-serif" font-size="14" lengthAdjust="spacing" textLength="80" x="1224" y="858.7871">GSTaskDTO</text><text fill="#000000" font-family="sans-serif" font-size="14" lengthAdjust="spacing" textLength="84" x="1222" y="875.2754">:GSTaskDTO</text><rect fill="#FFFFFF" height="692.2754" style="stroke:#181818;stroke-width:1.0;" width="10" x="18" y="128.9766"/><rect fill="#FFFFFF" height="173.8633" style="stroke:#181818;stroke-width:1.0;" width="10" x="458" y="150.2871"/><rect fill="#FFFFFF" height="132.375" style="stroke:#181818;stroke-width:1.0;" width="10" x="458" y="353.4609"/><rect fill="#FFFFFF" height="29.3105" style="stroke:#181818;stroke-width:1.0;" width="10" x="458" y="515.1465"/><rect fill="#FFFFFF" height="247.4844" style="stroke:#181818;stroke-width:1.0;" width="10" x="458" y="573.7676"/><rect fill="#FFFFFF" height="73.7539" style="stroke:#181818;stroke-width:1.0;" width="10" x="725" y="221.0859"/><rect fill="#FFFFFF" height="73.7539" style="stroke:#181818;stroke-width:1.0;" width="10" x="725" y="382.7715"/><rect fill="#FFFFFF" height="188.8633" style="stroke:#181818;stroke-width:1.0;" width="10" x="725" y="603.0781"/><rect fill="#FFFFFF" height="87.9316" style="stroke:#181818;stroke-width:1.0;" width="10" x="992" y="674.6992"/><rect fill="#FFFFFF" height="29.3105" style="stroke:#181818;stroke-width:1.0;" width="10" x="1259" y="704.0098"/><polygon fill="#181818" points="446,146.2871,456,150.2871,446,154.2871,450,150.2871" style="stroke:#181818;stroke-width:1.0;"/><line style="stroke:#181818;stroke-width:1.0;" x1="28" x2="452" y1="150.2871" y2="150.2871"/><text fill="#000000" font-family="sans-serif" font-size="13" font-weight="bold" lengthAdjust="spacing" textLength="9" x="35" y="145.5449">1</text><text fill="#000000" font-family="sans-serif" font-size="13" lengthAdjust="spacing" textLength="253" x="48" y="145.5449">asks to postpone an entry in the agenda</text><polygon fill="#181818" points="624.5,175.5977,634.5,179.5977,624.5,183.5977,628.5,179.5977" style="stroke:#181818;stroke-width:1.0;"/><line style="stroke:#181818;stroke-width:1.0;stroke-dasharray:2.0,2.0;" x1="468" x2="630.5" y1="179.5977" y2="179.5977"/><text fill="#000000" font-family="sans-serif" font-size="13" font-weight="bold" lengthAdjust="spacing" textLength="9" x="475" y="174.8555">2</text><text fill="#000000" font-family="sans-serif" font-size="13" lengthAdjust="spacing" textLength="46" x="488" y="174.8555">create()</text><rect fill="#E3E3E3" height="30.4883" rx="2.5" ry="2.5" style="stroke:#181818;stroke-width:0.5;" width="187" x="636.5" y="158.2871"/><text fill="#000000" font-family="sans-serif" font-size="14" lengthAdjust="spacing" textLength="173" x="643.5" y="178.8223">:PostponeEntryController</text><polygon fill="#181818" points="713,217.0859,723,221.0859,713,225.0859,717,221.0859" style="stroke:#181818;stroke-width:1.0;"/><line style="stroke:#181818;stroke-width:1.0;" x1="468" x2="719" y1="221.0859" y2="221.0859"/><text fill="#000000" font-family="sans-serif" font-size="13" font-weight="bold" lengthAdjust="spacing" textLength="9" x="475" y="216.3438">3</text><text fill="#000000" font-family="sans-serif" font-size="13" lengthAdjust="spacing" textLength="107" x="488" y="216.3438">getGreenSpaces()</text><rect fill="none" height="39.4434" style="stroke:#000000;stroke-width:1.5;" width="193" x="633.5" y="229.0859"/><path d="M633.5,229.0859 L697.5,229.0859 L697.5,236.0859 L687.5,246.0859 L633.5,246.0859 L633.5,229.0859 " fill="#EEEEEE" style="stroke:#000000;stroke-width:2.0;"/><text fill="#000000" font-family="sans-serif" font-size="13" font-weight="bold" lengthAdjust="spacing" textLength="19" x="646.5" y="243.6543">ref</text><text fill="#000000" font-family="sans-serif" font-size="12" lengthAdjust="spacing" textLength="103" x="678.5" y="261.6875">Get Green Spaces</text><polygon fill="#181818" points="479,290.8398,469,294.8398,479,298.8398,475,294.8398" style="stroke:#181818;stroke-width:1.0;"/><line style="stroke:#181818;stroke-width:1.0;stroke-dasharray:2.0,2.0;" x1="473" x2="729" y1="294.8398" y2="294.8398"/><text fill="#000000" font-family="sans-serif" font-size="13" font-weight="bold" lengthAdjust="spacing" textLength="9" x="485" y="290.0977">4</text><text fill="#000000" font-family="sans-serif" font-size="13" lengthAdjust="spacing" textLength="152" x="498" y="290.0977">GSMGreenSpacesListDto</text><polygon fill="#181818" points="39,320.1504,29,324.1504,39,328.1504,35,324.1504" style="stroke:#181818;stroke-width:1.0;"/><line style="stroke:#181818;stroke-width:1.0;stroke-dasharray:2.0,2.0;" x1="33" x2="462" y1="324.1504" y2="324.1504"/><text fill="#000000" font-family="sans-serif" font-size="13" font-weight="bold" lengthAdjust="spacing" textLength="9" x="45" y="319.4082">5</text><text fill="#000000" font-family="sans-serif" font-size="13" lengthAdjust="spacing" textLength="252" x="58" y="319.4082">shows list of green spaces to select one</text><polygon fill="#181818" points="446,349.4609,456,353.4609,446,357.4609,450,353.4609" style="stroke:#181818;stroke-width:1.0;"/><line style="stroke:#181818;stroke-width:1.0;" x1="28" x2="452" y1="353.4609" y2="353.4609"/><text fill="#000000" font-family="sans-serif" font-size="13" font-weight="bold" lengthAdjust="spacing" textLength="9" x="35" y="348.7188">6</text><text fill="#000000" font-family="sans-serif" font-size="13" lengthAdjust="spacing" textLength="150" x="48" y="348.7188">selects one green space</text><polygon fill="#181818" points="713,378.7715,723,382.7715,713,386.7715,717,382.7715" style="stroke:#181818;stroke-width:1.0;"/><line style="stroke:#181818;stroke-width:1.0;" x1="468" x2="719" y1="382.7715" y2="382.7715"/><text fill="#000000" font-family="sans-serif" font-size="13" font-weight="bold" lengthAdjust="spacing" textLength="9" x="475" y="378.0293">7</text><text fill="#000000" font-family="sans-serif" font-size="13" lengthAdjust="spacing" textLength="157" x="488" y="378.0293">getEntriesByGreenSpace()</text><rect fill="none" height="39.4434" style="stroke:#000000;stroke-width:1.5;" width="193" x="633.5" y="390.7715"/><path d="M633.5,390.7715 L697.5,390.7715 L697.5,397.7715 L687.5,407.7715 L633.5,407.7715 L633.5,390.7715 " fill="#EEEEEE" style="stroke:#000000;stroke-width:2.0;"/><text fill="#000000" font-family="sans-serif" font-size="13" font-weight="bold" lengthAdjust="spacing" textLength="19" x="646.5" y="405.3398">ref</text><text fill="#000000" font-family="sans-serif" font-size="12" lengthAdjust="spacing" textLength="153" x="653.5" y="423.373">Get Tasks by Green Space</text><polygon fill="#181818" points="479,452.5254,469,456.5254,479,460.5254,475,456.5254" style="stroke:#181818;stroke-width:1.0;"/><line style="stroke:#181818;stroke-width:1.0;stroke-dasharray:2.0,2.0;" x1="473" x2="729" y1="456.5254" y2="456.5254"/><text fill="#000000" font-family="sans-serif" font-size="13" font-weight="bold" lengthAdjust="spacing" textLength="9" x="485" y="451.7832">8</text><text fill="#000000" font-family="sans-serif" font-size="13" lengthAdjust="spacing" textLength="180" x="498" y="451.7832">entriesListByGreenSpaceDTO</text><polygon fill="#181818" points="39,481.8359,29,485.8359,39,489.8359,35,485.8359" style="stroke:#181818;stroke-width:1.0;"/><line style="stroke:#181818;stroke-width:1.0;stroke-dasharray:2.0,2.0;" x1="33" x2="462" y1="485.8359" y2="485.8359"/><text fill="#000000" font-family="sans-serif" font-size="13" font-weight="bold" lengthAdjust="spacing" textLength="9" x="45" y="481.0938">9</text><text fill="#000000" font-family="sans-serif" font-size="13" lengthAdjust="spacing" textLength="393" x="58" y="481.0938">shows list of entries in the agenda of the selected green space</text><polygon fill="#181818" points="446,511.1465,456,515.1465,446,519.1465,450,515.1465" style="stroke:#181818;stroke-width:1.0;"/><line style="stroke:#181818;stroke-width:1.0;" x1="28" x2="452" y1="515.1465" y2="515.1465"/><text fill="#000000" font-family="sans-serif" font-size="13" font-weight="bold" lengthAdjust="spacing" textLength="18" x="35" y="510.4043">10</text><text fill="#000000" font-family="sans-serif" font-size="13" lengthAdjust="spacing" textLength="107" x="57" y="510.4043">selects one entry</text><polygon fill="#181818" points="39,540.457,29,544.457,39,548.457,35,544.457" style="stroke:#181818;stroke-width:1.0;"/><line style="stroke:#181818;stroke-width:1.0;stroke-dasharray:2.0,2.0;" x1="33" x2="462" y1="544.457" y2="544.457"/><text fill="#000000" font-family="sans-serif" font-size="13" font-weight="bold" lengthAdjust="spacing" textLength="18" x="45" y="539.7148">11</text><text fill="#000000" font-family="sans-serif" font-size="13" lengthAdjust="spacing" textLength="138" x="67" y="539.7148">requests the new date</text><polygon fill="#181818" points="446,569.7676,456,573.7676,446,577.7676,450,573.7676" style="stroke:#181818;stroke-width:1.0;"/><line style="stroke:#181818;stroke-width:1.0;" x1="28" x2="452" y1="573.7676" y2="573.7676"/><text fill="#000000" font-family="sans-serif" font-size="13" font-weight="bold" lengthAdjust="spacing" textLength="18" x="35" y="569.0254">12</text><text fill="#000000" font-family="sans-serif" font-size="13" lengthAdjust="spacing" textLength="118" x="57" y="569.0254">types the new date</text><polygon fill="#181818" points="713,599.0781,723,603.0781,713,607.0781,717,603.0781" style="stroke:#181818;stroke-width:1.0;"/><line style="stroke:#181818;stroke-width:1.0;" x1="468" x2="719" y1="603.0781" y2="603.0781"/><text fill="#000000" font-family="sans-serif" font-size="13" font-weight="bold" lengthAdjust="spacing" textLength="18" x="475" y="598.3359">13</text><text fill="#000000" font-family="sans-serif" font-size="13" lengthAdjust="spacing" textLength="216" x="497" y="598.3359">postponeEntry(taskDTO, newDate)</text><line style="stroke:#181818;stroke-width:1.0;stroke-dasharray:2.0,2.0;" x1="735" x2="777" y1="632.3887" y2="632.3887"/><line style="stroke:#181818;stroke-width:1.0;stroke-dasharray:2.0,2.0;" x1="777" x2="777" y1="632.3887" y2="645.3887"/><line style="stroke:#181818;stroke-width:1.0;stroke-dasharray:2.0,2.0;" x1="736" x2="777" y1="645.3887" y2="645.3887"/><polygon fill="#181818" points="746,641.3887,736,645.3887,746,649.3887,742,645.3887" style="stroke:#181818;stroke-width:1.0;"/><text fill="#000000" font-family="sans-serif" font-size="13" font-weight="bold" lengthAdjust="spacing" textLength="18" x="742" y="627.6465">14</text><text fill="#000000" font-family="sans-serif" font-size="13" lengthAdjust="spacing" textLength="167" x="764" y="627.6465">validateNewDate(newDate)</text><polygon fill="#181818" points="980,670.6992,990,674.6992,980,678.6992,984,674.6992" style="stroke:#181818;stroke-width:1.0;"/><line style="stroke:#181818;stroke-width:1.0;" x1="735" x2="986" y1="674.6992" y2="674.6992"/><text fill="#000000" font-family="sans-serif" font-size="13" font-weight="bold" lengthAdjust="spacing" textLength="18" x="742" y="669.957">15</text><text fill="#000000" font-family="sans-serif" font-size="13" lengthAdjust="spacing" textLength="216" x="764" y="669.957">postponeEntry(taskDTO, newDate)</text><polygon fill="#181818" points="1247,700.0098,1257,704.0098,1247,708.0098,1251,704.0098" style="stroke:#181818;stroke-width:1.0;"/><line style="stroke:#181818;stroke-width:1.0;" x1="1002" x2="1253" y1="704.0098" y2="704.0098"/><text fill="#000000" font-family="sans-serif" font-size="13" font-weight="bold" lengthAdjust="spacing" textLength="18" x="1009" y="699.2676">16</text><text fill="#000000" font-family="sans-serif" font-size="13" lengthAdjust="spacing" textLength="216" x="1031" y="699.2676">postponeEntry(taskDTO, newDate)</text><polygon fill="#181818" points="1013,729.3203,1003,733.3203,1013,737.3203,1009,733.3203" style="stroke:#181818;stroke-width:1.0;"/><line style="stroke:#181818;stroke-width:1.0;stroke-dasharray:2.0,2.0;" x1="1007" x2="1263" y1="733.3203" y2="733.3203"/><text fill="#000000" font-family="sans-serif" font-size="13" font-weight="bold" lengthAdjust="spacing" textLength="18" x="1019" y="728.5781">17</text><text fill="#000000" font-family="sans-serif" font-size="13" lengthAdjust="spacing" textLength="55" x="1041" y="728.5781">taskDTO</text><polygon fill="#181818" points="746,758.6309,736,762.6309,746,766.6309,742,762.6309" style="stroke:#181818;stroke-width:1.0;"/><line style="stroke:#181818;stroke-width:1.0;stroke-dasharray:2.0,2.0;" x1="740" x2="996" y1="762.6309" y2="762.6309"/><text fill="#000000" font-family="sans-serif" font-size="13" font-weight="bold" lengthAdjust="spacing" textLength="18" x="752" y="757.8887">18</text><text fill="#000000" font-family="sans-serif" font-size="13" lengthAdjust="spacing" textLength="55" x="774" y="757.8887">taskDTO</text><polygon fill="#181818" points="479,787.9414,469,791.9414,479,795.9414,475,791.9414" style="stroke:#181818;stroke-width:1.0;"/><line style="stroke:#181818;stroke-width:1.0;stroke-dasharray:2.0,2.0;" x1="473" x2="729" y1="791.9414" y2="791.9414"/><text fill="#000000" font-family="sans-serif" font-size="13" font-weight="bold" lengthAdjust="spacing" textLength="18" x="485" y="787.1992">19</text><text fill="#000000" font-family="sans-serif" font-size="13" lengthAdjust="spacing" textLength="55" x="507" y="787.1992">taskDTO</text><polygon fill="#181818" points="34,817.252,24,821.252,34,825.252,30,821.252" style="stroke:#181818;stroke-width:1.0;"/><line style="stroke:#181818;stroke-width:1.0;stroke-dasharray:2.0,2.0;" x1="28" x2="462" y1="821.252" y2="821.252"/><text fill="#000000" font-family="sans-serif" font-size="13" font-weight="bold" lengthAdjust="spacing" textLength="18" x="40" y="816.5098">20</text><text fill="#000000" font-family="sans-serif" font-size="13" lengthAdjust="spacing" textLength="170" x="62" y="816.5098">displays operation success</text><!--SRC=[dLHDRzf04BtxLumuqQX8LTGJXqXjY52afAqAt7hPs8DPOU-wkmF8_xwp7pRh14Y93sW_tdipytOOkvMg4KRKK6kbyutHDGAP7MQslsb4lXKbBgYj40pc95HPfG2x4OK-I5N2MbGMiumaCNIr-7Bx5IRmIrjgj48G2b2HQK4ge0tlIrI5o3An8wrszGiQNkUa3OpcY-SH20iFTLFf5Z7ZI2HpsGX5C9fsaWzERlNeeQl7Iw1xpR-wgj1uyFtozzCG7fBvewRV_CAZmdA8co-MmcvdovyCxTSU7TUPBqBk1U4n_GpuwtOmkUDiOSgahGNIqBpZa2FtcbodFs252GkvIcvkM2mtoDVZJ_rbkEER4cbk4DM2Nn9jHFHwtWf_P70DUeyc747yvaZWwH3u_eBJSl30ys4cNL7yT4cq9sbfHjhZ2ZmHD9RHUpFbTj872nKJGQ-XzA6j5tDUMQou1O7TUgtP6VF6va2nZfFAdRSrTSvrZqJxlJqMzH47b_wjNzhKolUSn13QMPY6TptsOJkZvh31t8NR1QEmUEFIjIxx9hxOjac21l_kq3BJfQ3m00NZ_piijGsUe5v-roOT3MCAVzpFJc76dBFFspzFbDcBIhg8Fm9lFE07y5qS8jS6ZQF77qO5reeZvbgnVZAvqqvZakOM1LwxFY1sQHphFyDASnzsz1d2fVOjf6qgqN9VDMW4ISrzkSjv6DXJBP9i-zdx3m00]--></g></svg>