<?xml version="1.0" encoding="us-ascii" standalone="no"?><svg xmlns="http://www.w3.org/2000/svg" xmlns:xlink="http://www.w3.org/1999/xlink" contentStyleType="text/css" height="1130px" preserveAspectRatio="none" style="width:1066px;height:1130px;background:#FFFFFF;" version="1.1" viewBox="0 0 1066 1130" width="1066px" zoomAndPan="magnify"><defs/><g><text fill="#000000" font-family="sans-serif" font-size="14" font-weight="bold" lengthAdjust="spacing" textLength="298" x="377" y="23.5352">US024 - Postpone an entry in the agenda</text><!--class PostponeEntryUI--><g id="elem_PostponeEntryUI"><rect codeLine="13" fill="#F1F1F1" height="48" id="PostponeEntryUI" rx="2.5" ry="2.5" style="stroke:#181818;stroke-width:0.5;" width="145" x="413.5" y="44.4883"/><ellipse cx="428.5" cy="60.4883" fill="#ADD1B2" rx="11" ry="11" style="stroke:#181818;stroke-width:1.0;"/><path d="M431.4731,66.1313 Q430.8921,66.4302 430.2529,66.5796 Q429.6138,66.729 428.9082,66.729 Q426.4014,66.729 425.0815,65.0771 Q423.7617,63.4253 423.7617,60.3042 Q423.7617,57.1748 425.0815,55.5229 Q426.4014,53.8711 428.9082,53.8711 Q429.6138,53.8711 430.2612,54.0205 Q430.9087,54.1699 431.4731,54.4688 L431.4731,57.1914 Q430.8423,56.6104 430.2488,56.3406 Q429.6553,56.0708 429.0244,56.0708 Q427.6797,56.0708 426.9949,57.1375 Q426.3101,58.2041 426.3101,60.3042 Q426.3101,62.396 426.9949,63.4626 Q427.6797,64.5293 429.0244,64.5293 Q429.6553,64.5293 430.2488,64.2595 Q430.8423,63.9897 431.4731,63.4087 Z " fill="#000000"/><text fill="#000000" font-family="sans-serif" font-size="14" lengthAdjust="spacing" textLength="113" x="442.5" y="65.7793">PostponeEntryUI</text><line style="stroke:#181818;stroke-width:0.5;" x1="414.5" x2="557.5" y1="76.4883" y2="76.4883"/><line style="stroke:#181818;stroke-width:0.5;" x1="414.5" x2="557.5" y1="84.4883" y2="84.4883"/></g><!--class PostponeEntryController--><g id="elem_PostponeEntryController"><rect codeLine="16" fill="#F1F1F1" height="130.4414" id="PostponeEntryController" rx="2.5" ry="2.5" style="stroke:#181818;stroke-width:0.5;" width="465" x="253.5" y="153.4883"/><ellipse cx="397.25" cy="169.4883" fill="#ADD1B2" rx="11" ry="11" style="stroke:#181818;stroke-width:1.0;"/><path d="M400.2231,175.1313 Q399.6421,175.4302 399.0029,175.5796 Q398.3638,175.729 397.6582,175.729 Q395.1514,175.729 393.8315,174.0771 Q392.5117,172.4253 392.5117,169.3042 Q392.5117,166.1748 393.8315,164.5229 Q395.1514,162.8711 397.6582,162.8711 Q398.3638,162.8711 399.0112,163.0205 Q399.6587,163.1699 400.2231,163.4688 L400.2231,166.1914 Q399.5923,165.6104 398.9988,165.3406 Q398.4053,165.0708 397.7744,165.0708 Q396.4297,165.0708 395.7449,166.1375 Q395.0601,167.2041 395.0601,169.3042 Q395.0601,171.396 395.7449,172.4626 Q396.4297,173.5293 397.7744,173.5293 Q398.4053,173.5293 398.9988,173.2595 Q399.5923,172.9897 400.2231,172.4087 Z " fill="#000000"/><text fill="#000000" font-family="sans-serif" font-size="14" lengthAdjust="spacing" textLength="169" x="417.75" y="174.7793">PostponeEntryController</text><line style="stroke:#181818;stroke-width:0.5;" x1="254.5" x2="717.5" y1="185.4883" y2="185.4883"/><line style="stroke:#181818;stroke-width:0.5;" x1="254.5" x2="717.5" y1="193.4883" y2="193.4883"/><text fill="#000000" font-family="sans-serif" font-size="14" lengthAdjust="spacing" textLength="453" x="259.5" y="211.0234">+postponeEntryController(taskRepository, greenSpaceRepository)</text><text fill="#000000" font-family="sans-serif" font-size="14" lengthAdjust="spacing" textLength="131" x="259.5" y="227.5117">+getGreenSpaces()</text><text fill="#000000" font-family="sans-serif" font-size="14" lengthAdjust="spacing" textLength="291" x="259.5" y="244">+List&lt;GreenSpaceDTO&gt; getGreenSpaces()</text><text fill="#000000" font-family="sans-serif" font-size="14" lengthAdjust="spacing" textLength="399" x="259.5" y="260.4883">+List&lt;TaskDTO&gt; getTasksByGreenSpace(greenSpaceDTO)</text><text fill="#000000" font-family="sans-serif" font-size="14" lengthAdjust="spacing" textLength="246" x="259.5" y="276.9766">+postponeEntry(taskDTO, newDate)</text></g><!--class Repositories--><g id="elem_Repositories"><rect codeLine="25" fill="#F1F1F1" height="113.9531" id="Repositories" rx="2.5" ry="2.5" style="stroke:#181818;stroke-width:0.5;" width="209" x="381.5" y="422.9383"/><ellipse cx="439.25" cy="438.9383" fill="#ADD1B2" rx="11" ry="11" style="stroke:#181818;stroke-width:1.0;"/><path d="M442.2231,444.5813 Q441.6421,444.8802 441.0029,445.0296 Q440.3638,445.179 439.6582,445.179 Q437.1514,445.179 435.8315,443.5271 Q434.5117,441.8753 434.5117,438.7542 Q434.5117,435.6248 435.8315,433.9729 Q437.1514,432.3211 439.6582,432.3211 Q440.3638,432.3211 441.0112,432.4705 Q441.6587,432.6199 442.2231,432.9187 L442.2231,435.6414 Q441.5923,435.0604 440.9988,434.7906 Q440.4053,434.5208 439.7744,434.5208 Q438.4297,434.5208 437.7449,435.5875 Q437.0601,436.6541 437.0601,438.7542 Q437.0601,440.846 437.7449,441.9126 Q438.4297,442.9793 439.7744,442.9793 Q440.4053,442.9793 440.9988,442.7095 Q441.5923,442.4397 442.2231,441.8587 Z " fill="#000000"/><text fill="#000000" font-family="sans-serif" font-size="14" lengthAdjust="spacing" textLength="85" x="459.75" y="444.2293">Repositories</text><line style="stroke:#181818;stroke-width:0.5;" x1="382.5" x2="589.5" y1="454.9383" y2="454.9383"/><line style="stroke:#181818;stroke-width:0.5;" x1="382.5" x2="589.5" y1="462.9383" y2="462.9383"/><text fill="#000000" font-family="sans-serif" font-size="14" lengthAdjust="spacing" textLength="103" x="387.5" y="480.4734">-Repositories()</text><text fill="#000000" font-family="sans-serif" font-size="14" lengthAdjust="spacing" textLength="197" x="387.5" y="496.9617">+getInstance() : Repositories</text><text fill="#000000" font-family="sans-serif" font-size="14" lengthAdjust="spacing" textLength="197" x="387.5" y="513.45">+getGreenSpaceRepository()</text><text fill="#000000" font-family="sans-serif" font-size="14" lengthAdjust="spacing" textLength="148" x="387.5" y="529.9383">+getTaskRepository()</text></g><!--class TaskRepository--><g id="elem_TaskRepository"><rect codeLine="32" fill="#F1F1F1" height="97.4648" id="TaskRepository" rx="2.5" ry="2.5" style="stroke:#181818;stroke-width:0.5;" width="270" x="182" y="675.8883"/><ellipse cx="260.25" cy="691.8883" fill="#ADD1B2" rx="11" ry="11" style="stroke:#181818;stroke-width:1.0;"/><path d="M263.2231,697.5313 Q262.6421,697.8302 262.0029,697.9796 Q261.3638,698.129 260.6582,698.129 Q258.1514,698.129 256.8315,696.4771 Q255.5117,694.8253 255.5117,691.7042 Q255.5117,688.5748 256.8315,686.9229 Q258.1514,685.2711 260.6582,685.2711 Q261.3638,685.2711 262.0112,685.4205 Q262.6587,685.5699 263.2231,685.8688 L263.2231,688.5914 Q262.5923,688.0104 261.9988,687.7406 Q261.4053,687.4708 260.7744,687.4708 Q259.4297,687.4708 258.7449,688.5375 Q258.0601,689.6041 258.0601,691.7042 Q258.0601,693.796 258.7449,694.8626 Q259.4297,695.9293 260.7744,695.9293 Q261.4053,695.9293 261.9988,695.6595 Q262.5923,695.3897 263.2231,694.8087 Z " fill="#000000"/><text fill="#000000" font-family="sans-serif" font-size="14" lengthAdjust="spacing" textLength="105" x="280.75" y="697.1793">TaskRepository</text><line style="stroke:#181818;stroke-width:0.5;" x1="183" x2="451" y1="707.8883" y2="707.8883"/><line style="stroke:#181818;stroke-width:0.5;" x1="183" x2="451" y1="715.8883" y2="715.8883"/><text fill="#000000" font-family="sans-serif" font-size="14" lengthAdjust="spacing" textLength="258" x="188" y="733.4234">+getTasksByGreenSpace(greenSpace)</text><text fill="#000000" font-family="sans-serif" font-size="14" lengthAdjust="spacing" textLength="100" x="188" y="749.9117">+toDTO(tasks)</text><text fill="#000000" font-family="sans-serif" font-size="14" lengthAdjust="spacing" textLength="216" x="188" y="766.4">+postponeEntry(task, newDate)</text></g><!--class GreenSpaceRepository--><g id="elem_GreenSpaceRepository"><rect codeLine="38" fill="#F1F1F1" height="80.9766" id="GreenSpaceRepository" rx="2.5" ry="2.5" style="stroke:#181818;stroke-width:0.5;" width="273" x="591.5" y="684.1283"/><ellipse cx="646.75" cy="700.1283" fill="#ADD1B2" rx="11" ry="11" style="stroke:#181818;stroke-width:1.0;"/><path d="M649.7231,705.7713 Q649.1421,706.0702 648.5029,706.2196 Q647.8638,706.369 647.1582,706.369 Q644.6514,706.369 643.3315,704.7171 Q642.0117,703.0653 642.0117,699.9442 Q642.0117,696.8148 643.3315,695.1629 Q644.6514,693.5111 647.1582,693.5111 Q647.8638,693.5111 648.5112,693.6605 Q649.1587,693.8099 649.7231,694.1088 L649.7231,696.8314 Q649.0923,696.2504 648.4988,695.9806 Q647.9053,695.7108 647.2744,695.7108 Q645.9297,695.7108 645.2449,696.7775 Q644.5601,697.8441 644.5601,699.9442 Q644.5601,702.036 645.2449,703.1026 Q645.9297,704.1693 647.2744,704.1693 Q647.9053,704.1693 648.4988,703.8995 Q649.0923,703.6297 649.7231,703.0487 Z " fill="#000000"/><text fill="#000000" font-family="sans-serif" font-size="14" lengthAdjust="spacing" textLength="154" x="667.25" y="705.4193">GreenSpaceRepository</text><line style="stroke:#181818;stroke-width:0.5;" x1="592.5" x2="863.5" y1="716.1283" y2="716.1283"/><line style="stroke:#181818;stroke-width:0.5;" x1="592.5" x2="863.5" y1="724.1283" y2="724.1283"/><text fill="#000000" font-family="sans-serif" font-size="14" lengthAdjust="spacing" textLength="261" x="597.5" y="741.6634">+List&lt;GreenSpace&gt; getGreenSpaces()</text><text fill="#000000" font-family="sans-serif" font-size="14" lengthAdjust="spacing" textLength="152" x="597.5" y="758.1517">+toDTO(greenSpaces)</text></g><!--class GreenSpaceMapper--><g id="elem_GreenSpaceMapper"><rect codeLine="44" fill="#F1F1F1" height="80.9766" id="GreenSpaceMapper" rx="2.5" ry="2.5" style="stroke:#181818;stroke-width:0.5;" width="454" x="484" y="834.3483"/><ellipse cx="640.25" cy="850.3483" fill="#ADD1B2" rx="11" ry="11" style="stroke:#181818;stroke-width:1.0;"/><path d="M643.2231,855.9913 Q642.6421,856.2902 642.0029,856.4396 Q641.3638,856.589 640.6582,856.589 Q638.1514,856.589 636.8315,854.9371 Q635.5117,853.2853 635.5117,850.1642 Q635.5117,847.0348 636.8315,845.3829 Q638.1514,843.7311 640.6582,843.7311 Q641.3638,843.7311 642.0112,843.8805 Q642.6587,844.0299 643.2231,844.3287 L643.2231,847.0514 Q642.5923,846.4704 641.9988,846.2006 Q641.4053,845.9308 640.7744,845.9308 Q639.4297,845.9308 638.7449,846.9975 Q638.0601,848.0641 638.0601,850.1642 Q638.0601,852.256 638.7449,853.3226 Q639.4297,854.3893 640.7744,854.3893 Q641.4053,854.3893 641.9988,854.1195 Q642.5923,853.8497 643.2231,853.2687 Z " fill="#000000"/><text fill="#000000" font-family="sans-serif" font-size="14" lengthAdjust="spacing" textLength="133" x="660.75" y="855.6393">GreenSpaceMapper</text><line style="stroke:#181818;stroke-width:0.5;" x1="485" x2="937" y1="866.3483" y2="866.3483"/><line style="stroke:#181818;stroke-width:0.5;" x1="485" x2="937" y1="874.3483" y2="874.3483"/><text fill="#000000" font-family="sans-serif" font-size="14" lengthAdjust="spacing" textLength="442" x="490" y="891.8834">+List&lt;GreenSpaceDTO&gt; toDTO(List&lt;GreenSpace&gt; greenSpaces)</text><text fill="#000000" font-family="sans-serif" font-size="14" lengthAdjust="spacing" textLength="345" x="490" y="908.3717">+GreenSpaceDTO toDTO(GreenSpace greenSpace)</text></g><!--class TaskMapper--><g id="elem_TaskMapper"><rect codeLine="49" fill="#F1F1F1" height="80.9766" id="TaskMapper" rx="2.5" ry="2.5" style="stroke:#181818;stroke-width:0.5;" width="304" x="7" y="834.3483"/><ellipse cx="112.75" cy="850.3483" fill="#ADD1B2" rx="11" ry="11" style="stroke:#181818;stroke-width:1.0;"/><path d="M115.7231,855.9913 Q115.1421,856.2902 114.5029,856.4396 Q113.8638,856.589 113.1582,856.589 Q110.6514,856.589 109.3315,854.9371 Q108.0117,853.2853 108.0117,850.1642 Q108.0117,847.0348 109.3315,845.3829 Q110.6514,843.7311 113.1582,843.7311 Q113.8638,843.7311 114.5112,843.8805 Q115.1587,844.0299 115.7231,844.3287 L115.7231,847.0514 Q115.0923,846.4704 114.4988,846.2006 Q113.9053,845.9308 113.2744,845.9308 Q111.9297,845.9308 111.2449,846.9975 Q110.5601,848.0641 110.5601,850.1642 Q110.5601,852.256 111.2449,853.3226 Q111.9297,854.3893 113.2744,854.3893 Q113.9053,854.3893 114.4988,854.1195 Q115.0923,853.8497 115.7231,853.2687 Z " fill="#000000"/><text fill="#000000" font-family="sans-serif" font-size="14" lengthAdjust="spacing" textLength="84" x="133.25" y="855.6393">TaskMapper</text><line style="stroke:#181818;stroke-width:0.5;" x1="8" x2="310" y1="866.3483" y2="866.3483"/><line style="stroke:#181818;stroke-width:0.5;" x1="8" x2="310" y1="874.3483" y2="874.3483"/><text fill="#000000" font-family="sans-serif" font-size="14" lengthAdjust="spacing" textLength="292" x="13" y="891.8834">+List&lt;TaskDTO&gt; toDTO(List&lt;Task&gt; tasks)</text><text fill="#000000" font-family="sans-serif" font-size="14" lengthAdjust="spacing" textLength="195" x="13" y="908.3717">+TaskDTO toDTO(Task task)</text></g><!--class GreenSpaceDTO--><g id="elem_GreenSpaceDTO"><rect codeLine="54" fill="#F1F1F1" height="113.9531" id="GreenSpaceDTO" rx="2.5" ry="2.5" style="stroke:#181818;stroke-width:0.5;" width="143" x="639.5" y="992.8183"/><ellipse cx="654.5" cy="1008.8183" fill="#ADD1B2" rx="11" ry="11" style="stroke:#181818;stroke-width:1.0;"/><path d="M657.4731,1014.4613 Q656.8921,1014.7602 656.2529,1014.9096 Q655.6138,1015.059 654.9082,1015.059 Q652.4014,1015.059 651.0815,1013.4071 Q649.7617,1011.7553 649.7617,1008.6342 Q649.7617,1005.5048 651.0815,1003.8529 Q652.4014,1002.2011 654.9082,1002.2011 Q655.6138,1002.2011 656.2612,1002.3505 Q656.9087,1002.4999 657.4731,1002.7987 L657.4731,1005.5214 Q656.8423,1004.9404 656.2488,1004.6706 Q655.6553,1004.4008 655.0244,1004.4008 Q653.6797,1004.4008 652.9949,1005.4675 Q652.3101,1006.5341 652.3101,1008.6342 Q652.3101,1010.726 652.9949,1011.7926 Q653.6797,1012.8593 655.0244,1012.8593 Q655.6553,1012.8593 656.2488,1012.5895 Q656.8423,1012.3197 657.4731,1011.7387 Z " fill="#000000"/><text fill="#000000" font-family="sans-serif" font-size="14" lengthAdjust="spacing" textLength="111" x="668.5" y="1014.1093">GreenSpaceDTO</text><line style="stroke:#181818;stroke-width:0.5;" x1="640.5" x2="781.5" y1="1024.8183" y2="1024.8183"/><text fill="#000000" font-family="sans-serif" font-size="14" lengthAdjust="spacing" textLength="38" x="645.5" y="1042.3534">name</text><text fill="#000000" font-family="sans-serif" font-size="14" lengthAdjust="spacing" textLength="30" x="645.5" y="1058.8417">area</text><text fill="#000000" font-family="sans-serif" font-size="14" lengthAdjust="spacing" textLength="29" x="645.5" y="1075.33">type</text><text fill="#000000" font-family="sans-serif" font-size="14" lengthAdjust="spacing" textLength="54" x="645.5" y="1091.8183">address</text><line style="stroke:#181818;stroke-width:0.5;" x1="640.5" x2="781.5" y1="1098.7714" y2="1098.7714"/></g><!--class TaskDTO--><g id="elem_TaskDTO"><rect codeLine="61" fill="#F1F1F1" height="146.9297" id="TaskDTO" rx="2.5" ry="2.5" style="stroke:#181818;stroke-width:0.5;" width="135" x="91.5" y="976.3283"/><ellipse cx="124.95" cy="992.3283" fill="#ADD1B2" rx="11" ry="11" style="stroke:#181818;stroke-width:1.0;"/><path d="M127.9231,997.9713 Q127.3421,998.2702 126.7029,998.4196 Q126.0638,998.569 125.3582,998.569 Q122.8514,998.569 121.5315,996.9171 Q120.2117,995.2653 120.2117,992.1442 Q120.2117,989.0148 121.5315,987.3629 Q122.8514,985.7111 125.3582,985.7111 Q126.0638,985.7111 126.7112,985.8605 Q127.3587,986.0099 127.9231,986.3087 L127.9231,989.0314 Q127.2923,988.4504 126.6988,988.1806 Q126.1053,987.9108 125.4744,987.9108 Q124.1297,987.9108 123.4449,988.9775 Q122.7601,990.0441 122.7601,992.1442 Q122.7601,994.236 123.4449,995.3026 Q124.1297,996.3693 125.4744,996.3693 Q126.1053,996.3693 126.6988,996.0995 Q127.2923,995.8297 127.9231,995.2487 Z " fill="#000000"/><text fill="#000000" font-family="sans-serif" font-size="14" lengthAdjust="spacing" textLength="62" x="143.05" y="997.6193">TaskDTO</text><line style="stroke:#181818;stroke-width:0.5;" x1="92.5" x2="225.5" y1="1008.3283" y2="1008.3283"/><text fill="#000000" font-family="sans-serif" font-size="14" lengthAdjust="spacing" textLength="26" x="97.5" y="1025.8634">title</text><text fill="#000000" font-family="sans-serif" font-size="14" lengthAdjust="spacing" textLength="77" x="97.5" y="1042.3517">description</text><text fill="#000000" font-family="sans-serif" font-size="14" lengthAdjust="spacing" textLength="120" x="97.5" y="1058.84">degreeOfUrgency</text><text fill="#000000" font-family="sans-serif" font-size="14" lengthAdjust="spacing" textLength="123" x="97.5" y="1075.3283">expectedDuration</text><text fill="#000000" font-family="sans-serif" font-size="14" lengthAdjust="spacing" textLength="41" x="97.5" y="1091.8166">status</text><text fill="#000000" font-family="sans-serif" font-size="14" lengthAdjust="spacing" textLength="84" x="97.5" y="1108.3048">startingDate</text><line style="stroke:#181818;stroke-width:0.5;" x1="92.5" x2="225.5" y1="1115.258" y2="1115.258"/></g><!--class Task--><g id="elem_Task"><rect codeLine="70" fill="#F1F1F1" height="146.9297" id="Task" rx="2.5" ry="2.5" style="stroke:#181818;stroke-width:0.5;" width="135" x="290.5" y="976.3283"/><ellipse cx="337.75" cy="992.3283" fill="#ADD1B2" rx="11" ry="11" style="stroke:#181818;stroke-width:1.0;"/><path d="M340.7231,997.9713 Q340.1421,998.2702 339.5029,998.4196 Q338.8638,998.569 338.1582,998.569 Q335.6514,998.569 334.3315,996.9171 Q333.0117,995.2653 333.0117,992.1442 Q333.0117,989.0148 334.3315,987.3629 Q335.6514,985.7111 338.1582,985.7111 Q338.8638,985.7111 339.5112,985.8605 Q340.1587,986.0099 340.7231,986.3087 L340.7231,989.0314 Q340.0923,988.4504 339.4988,988.1806 Q338.9053,987.9108 338.2744,987.9108 Q336.9297,987.9108 336.2449,988.9775 Q335.5601,990.0441 335.5601,992.1442 Q335.5601,994.236 336.2449,995.3026 Q336.9297,996.3693 338.2744,996.3693 Q338.9053,996.3693 339.4988,996.0995 Q340.0923,995.8297 340.7231,995.2487 Z " fill="#000000"/><text fill="#000000" font-family="sans-serif" font-size="14" lengthAdjust="spacing" textLength="32" x="358.25" y="997.6193">Task</text><line style="stroke:#181818;stroke-width:0.5;" x1="291.5" x2="424.5" y1="1008.3283" y2="1008.3283"/><text fill="#000000" font-family="sans-serif" font-size="14" lengthAdjust="spacing" textLength="26" x="296.5" y="1025.8634">title</text><text fill="#000000" font-family="sans-serif" font-size="14" lengthAdjust="spacing" textLength="77" x="296.5" y="1042.3517">description</text><text fill="#000000" font-family="sans-serif" font-size="14" lengthAdjust="spacing" textLength="120" x="296.5" y="1058.84">degreeOfUrgency</text><text fill="#000000" font-family="sans-serif" font-size="14" lengthAdjust="spacing" textLength="123" x="296.5" y="1075.3283">expectedDuration</text><text fill="#000000" font-family="sans-serif" font-size="14" lengthAdjust="spacing" textLength="41" x="296.5" y="1091.8166">status</text><text fill="#000000" font-family="sans-serif" font-size="14" lengthAdjust="spacing" textLength="84" x="296.5" y="1108.3048">startingDate</text><line style="stroke:#181818;stroke-width:0.5;" x1="291.5" x2="424.5" y1="1115.258" y2="1115.258"/></g><!--class GreenSpace--><g id="elem_GreenSpace"><rect codeLine="79" fill="#F1F1F1" height="113.9531" id="GreenSpace" rx="2.5" ry="2.5" style="stroke:#181818;stroke-width:0.5;" width="113" x="884.5" y="992.8183"/><ellipse cx="899.5" cy="1008.8183" fill="#ADD1B2" rx="11" ry="11" style="stroke:#181818;stroke-width:1.0;"/><path d="M902.4731,1014.4613 Q901.8921,1014.7602 901.2529,1014.9096 Q900.6138,1015.059 899.9082,1015.059 Q897.4014,1015.059 896.0815,1013.4071 Q894.7617,1011.7553 894.7617,1008.6342 Q894.7617,1005.5048 896.0815,1003.8529 Q897.4014,1002.2011 899.9082,1002.2011 Q900.6138,1002.2011 901.2612,1002.3505 Q901.9087,1002.4999 902.4731,1002.7987 L902.4731,1005.5214 Q901.8423,1004.9404 901.2488,1004.6706 Q900.6553,1004.4008 900.0244,1004.4008 Q898.6797,1004.4008 897.9949,1005.4675 Q897.3101,1006.5341 897.3101,1008.6342 Q897.3101,1010.726 897.9949,1011.7926 Q898.6797,1012.8593 900.0244,1012.8593 Q900.6553,1012.8593 901.2488,1012.5895 Q901.8423,1012.3197 902.4731,1011.7387 Z " fill="#000000"/><text fill="#000000" font-family="sans-serif" font-size="14" lengthAdjust="spacing" textLength="81" x="913.5" y="1014.1093">GreenSpace</text><line style="stroke:#181818;stroke-width:0.5;" x1="885.5" x2="996.5" y1="1024.8183" y2="1024.8183"/><text fill="#000000" font-family="sans-serif" font-size="14" lengthAdjust="spacing" textLength="38" x="890.5" y="1042.3534">name</text><text fill="#000000" font-family="sans-serif" font-size="14" lengthAdjust="spacing" textLength="30" x="890.5" y="1058.8417">area</text><text fill="#000000" font-family="sans-serif" font-size="14" lengthAdjust="spacing" textLength="29" x="890.5" y="1075.33">type</text><text fill="#000000" font-family="sans-serif" font-size="14" lengthAdjust="spacing" textLength="54" x="890.5" y="1091.8183">address</text><line style="stroke:#181818;stroke-width:0.5;" x1="885.5" x2="996.5" y1="1098.7714" y2="1098.7714"/></g><!--link PostponeEntryUI to PostponeEntryController--><g id="link_PostponeEntryUI_PostponeEntryController"><path codeLine="86" d="M486,92.9783 C486,109.2183 486,125.6783 486,147.0683 " fill="none" id="PostponeEntryUI-to-PostponeEntryController" style="stroke:#181818;stroke-width:1.0;stroke-dasharray:7.0,7.0;"/><polygon fill="#181818" points="486,153.0683,490,144.0683,486,148.0683,482,144.0683,486,153.0683" style="stroke:#181818;stroke-width:1.0;"/></g><!--link PostponeEntryController to Repositories--><g id="link_PostponeEntryController_Repositories"><path codeLine="87" d="M486,284.1183 C486,326.6983 486,375.9783 486,416.7583 " fill="none" id="PostponeEntryController-to-Repositories" style="stroke:#181818;stroke-width:1.0;stroke-dasharray:7.0,7.0;"/><polygon fill="#181818" points="486,422.7583,490,413.7583,486,417.7583,482,413.7583,486,422.7583" style="stroke:#181818;stroke-width:1.0;"/><text fill="#000000" font-family="sans-serif" font-size="13" lengthAdjust="spacing" textLength="75" x="487" y="358.5066">repositories</text></g><!--link PostponeEntryController to TaskRepository--><g id="link_PostponeEntryController_TaskRepository"><path codeLine="88" d="M282.81,284.3783 C262.96,301.9583 250,324.2283 250,352.4383 C250,352.4383 250,352.4383 250,607.3883 C250,631.8483 257.9186,650.8115 271.2186,670.5615 " fill="none" id="PostponeEntryController-to-TaskRepository" style="stroke:#181818;stroke-width:1.0;stroke-dasharray:7.0,7.0;"/><polygon fill="#181818" points="274.57,675.5383,272.8607,665.8389,271.7771,671.391,266.225,670.3075,274.57,675.5383" style="stroke:#181818;stroke-width:1.0;"/><text fill="#000000" font-family="sans-serif" font-size="13" lengthAdjust="spacing" textLength="94" x="251" y="484.9766">taskRepository</text></g><!--link PostponeEntryController to GreenSpaceRepository--><g id="link_PostponeEntryController_GreenSpaceRepository"><path codeLine="89" d="M712.11,284.2783 C731.54,301.8083 744,324.0983 744,352.4383 C744,352.4383 744,352.4383 744,607.3883 C744,632.9483 741.187,655.4786 737.267,677.8186 " fill="none" id="PostponeEntryController-to-GreenSpaceRepository" style="stroke:#181818;stroke-width:1.0;stroke-dasharray:7.0,7.0;"/><polygon fill="#181818" points="736.23,683.7283,741.7253,675.555,737.0941,678.8035,733.8457,674.1724,736.23,683.7283" style="stroke:#181818;stroke-width:1.0;"/><text fill="#000000" font-family="sans-serif" font-size="13" lengthAdjust="spacing" textLength="138" x="745" y="484.9766">greenSpaceRepository</text></g><!--link Repositories to Repositories--><g id="link_Repositories_Repositories"><path codeLine="91" d="M590.94,464.2683 C611.17,466.1083 625.5,471.3283 625.5,479.9083 C625.5,488.4983 617.1451,493.1619 596.9151,495.0119 " fill="none" id="Repositories-to-Repositories" style="stroke:#181818;stroke-width:1.0;"/><polygon fill="#181818" points="590.94,495.5583,600.2669,498.722,595.9192,495.1029,599.5383,490.7553,590.94,495.5583" style="stroke:#181818;stroke-width:1.0;"/><text fill="#000000" font-family="sans-serif" font-size="13" lengthAdjust="spacing" textLength="53" x="631.5" y="484.9766">instance</text></g><!--link Repositories to TaskRepository--><g id="link_Repositories_TaskRepository"><path codeLine="92" d="M443.64,537.3183 C429.55,556.3983 413.91,577.9283 400,597.8883 C382.35,623.2083 366.6164,646.8718 351.2464,670.4518 " fill="none" id="Repositories-to-TaskRepository" style="stroke:#181818;stroke-width:1.0;"/><polygon fill="#181818" points="347.97,675.4783,356.2355,670.1228,350.7003,671.2896,349.5336,665.7543,347.97,675.4783" style="stroke:#181818;stroke-width:1.0;"/><text fill="#000000" font-family="sans-serif" font-size="13" lengthAdjust="spacing" textLength="94" x="401" y="611.4566">taskRepository</text><text fill="#000000" font-family="sans-serif" font-size="13" lengthAdjust="spacing" textLength="8" x="343.7627" y="665.1031">1</text></g><!--link Repositories to GreenSpaceRepository--><g id="link_Repositories_GreenSpaceRepository"><path codeLine="93" d="M518.58,537.2583 C534.67,562.5083 555.45,591.7583 578,614.8883 C603.26,640.7983 630.3094,661.5778 658.2794,680.4878 " fill="none" id="Repositories-to-GreenSpaceRepository" style="stroke:#181818;stroke-width:1.0;"/><polygon fill="#181818" points="663.25,683.8483,658.0345,675.4938,659.1078,681.0478,653.5538,682.1212,663.25,683.8483" style="stroke:#181818;stroke-width:1.0;"/><text fill="#000000" font-family="sans-serif" font-size="13" lengthAdjust="spacing" textLength="138" x="579" y="611.4566">greenSpaceRepository</text><text fill="#000000" font-family="sans-serif" font-size="13" lengthAdjust="spacing" textLength="8" x="643.8633" y="673.4479">1</text></g><!--link TaskRepository to Task--><g id="link_TaskRepository_Task"><path codeLine="95" d="M323.09,773.6483 C329.88,827.1083 340.1545,908.126 348.0045,969.976 " fill="none" id="TaskRepository-to-Task" style="stroke:#181818;stroke-width:1.0;"/><polygon fill="#181818" points="348.76,975.9283,351.595,966.4963,348.1305,970.9681,343.6586,967.5035,348.76,975.9283" style="stroke:#181818;stroke-width:1.0;"/><text fill="#000000" font-family="sans-serif" font-size="13" lengthAdjust="spacing" textLength="34" x="342" y="879.9066">tasks</text></g><!--link GreenSpaceRepository to GreenSpace--><g id="link_GreenSpaceRepository_GreenSpace"><path codeLine="96" d="M864.71,761.3783 C900.51,777.6283 934.94,800.9683 956,834.3483 C985.67,881.3783 977.4076,940.5505 963.9076,986.6105 " fill="none" id="GreenSpaceRepository-to-GreenSpace" style="stroke:#181818;stroke-width:1.0;"/><polygon fill="#181818" points="962.22,992.3683,968.5899,984.8567,963.6263,987.5701,960.9129,982.6066,962.22,992.3683" style="stroke:#181818;stroke-width:1.0;"/><text fill="#000000" font-family="sans-serif" font-size="13" lengthAdjust="spacing" textLength="82" x="976" y="879.9066">green spaces</text></g><!--link TaskRepository to TaskMapper--><g id="link_TaskRepository_TaskMapper"><path codeLine="98" d="M265.7,773.7383 C244.98,793.1883 225.7156,811.2529 205.9656,829.7829 " fill="none" id="TaskRepository-to-TaskMapper" style="stroke:#181818;stroke-width:1.0;stroke-dasharray:7.0,7.0;"/><polygon fill="#181818" points="201.59,833.8883,210.8903,830.6474,205.2364,830.4672,205.4166,824.8132,201.59,833.8883" style="stroke:#181818;stroke-width:1.0;"/></g><!--link TaskMapper to TaskDTO--><g id="link_TaskMapper_TaskDTO"><path codeLine="99" d="M159,915.5183 C159,933.4683 159,949.2683 159,969.9983 " fill="none" id="TaskMapper-to-TaskDTO" style="stroke:#181818;stroke-width:1.0;stroke-dasharray:7.0,7.0;"/><polygon fill="#181818" points="159,975.9983,163,966.9983,159,970.9983,155,966.9983,159,975.9983" style="stroke:#181818;stroke-width:1.0;"/></g><!--link TaskMapper to Task--><g id="link_TaskMapper_Task"><path codeLine="100" d="M204.65,915.5183 C230.01,937.5583 257.521,961.4728 285.751,986.0028 " fill="none" id="TaskMapper-to-Task" style="stroke:#181818;stroke-width:1.0;stroke-dasharray:7.0,7.0;"/><polygon fill="#181818" points="290.28,989.9383,286.1101,981.0158,286.5058,986.6587,280.8628,987.0545,290.28,989.9383" style="stroke:#181818;stroke-width:1.0;"/></g><!--link GreenSpaceRepository to GreenSpaceMapper--><g id="link_GreenSpaceRepository_GreenSpaceMapper"><path codeLine="101" d="M723.44,765.3383 C721.01,786.6083 718.6935,806.7673 716.2535,828.0473 " fill="none" id="GreenSpaceRepository-to-GreenSpaceMapper" style="stroke:#181818;stroke-width:1.0;stroke-dasharray:7.0,7.0;"/><polygon fill="#181818" points="715.57,834.0083,720.5692,825.5225,716.1396,829.0408,712.6213,824.6112,715.57,834.0083" style="stroke:#181818;stroke-width:1.0;"/></g><!--link GreenSpaceMapper to GreenSpaceDTO--><g id="link_GreenSpaceMapper_GreenSpaceDTO"><path codeLine="102" d="M711,915.5183 C711,938.3583 711,961.4283 711,986.5883 " fill="none" id="GreenSpaceMapper-to-GreenSpaceDTO" style="stroke:#181818;stroke-width:1.0;stroke-dasharray:7.0,7.0;"/><polygon fill="#181818" points="711,992.5883,715,983.5883,711,987.5883,707,983.5883,711,992.5883" style="stroke:#181818;stroke-width:1.0;"/></g><!--link GreenSpaceMapper to GreenSpace--><g id="link_GreenSpaceMapper_GreenSpace"><path codeLine="103" d="M764.06,915.7383 C800.01,942.7683 842.6744,974.8624 879.3944,1002.4724 " fill="none" id="GreenSpaceMapper-to-GreenSpace" style="stroke:#181818;stroke-width:1.0;stroke-dasharray:7.0,7.0;"/><polygon fill="#181818" points="884.19,1006.0783,879.4005,997.4724,880.1937,1003.0734,874.5927,1003.8666,884.19,1006.0783" style="stroke:#181818;stroke-width:1.0;"/></g><!--SRC=[lLHDZzem4BtxLupsig0kQ5lrX5P8RQagf5PRbUK7kCaGB88TsOEsQTN_td4I4XlCehsK0xBdlVcCvzswdTALj78FUwDDjhLcZq3sW690AfdjP84hgai4Ynb9NPGXmMrbRfwLBc0ZInSYfT98TOLGcRBsbnHcB1aH05afdVj0PDNF0-4oCtgbVYFS2t5RueQ035XLR0bovQjHHWj1YhYuzUh-tNkOm7VZg38QGMf0JRO6fO6sV2zGvrA89aLF- -mfwoNy4N-Jq2V3_wOiqJ85-FU6-qdY8v9kzmCPLMHiVGU5HTGhdY0Erd4Neq3wqiDkT3H_LOuU1c3nz3X_aVh4AOyaVtOVwu4xAi90urJrJSqCte76vuKa78jX3dtL2btN_2GoZe9kbjhns-2aOvX5f5J3mpp244_H_1ZfAucH_aDSQVeOcWnts7JgBWyXc42VDbLmd_paKrtyJctseIeNZdXm-2QhAdXZgOVGHZhF6uPklIF7pc-mGJYYQCQf8led5gJtDZQ44-re7SlV6ZmvJSzhSsYvn-OWBShcu5MXjUIvHUVY0WVFPkcRKuukiwfgjA2z-_uUDslB2v_LZGr_LQmMc2yELlP4Vh1qSCUZ9HOn_m3YZFynNV25NZETKoMRJkUN94nSahQfTmgtTiPY7-pmPR_voNBE89R15rrJ2pPBwgOGaHfDucfPSbIdFoUy2JDltjvSApBjz9hoJYJAX_2cDfCJIIdnf07e8eDhLlaiud7KxOwAO5sF22z7ofpE7O-_2tecHp7B9xX24Vy0]--></g></svg>