<?xml version="1.0" encoding="us-ascii" standalone="no"?><svg xmlns="http://www.w3.org/2000/svg" xmlns:xlink="http://www.w3.org/1999/xlink" contentStyleType="text/css" height="797.6px" preserveAspectRatio="none" style="width:1231px;height:797px;background:#FFFFFF;" version="1.1" viewBox="0 0 1231 797" width="1231.2px" zoomAndPan="magnify"><defs/><g><rect fill="#FFFFFF" height="681.7672" style="stroke:#181818;stroke-width:0.8000000000000002;" width="8" x="232.8" y="67.4297"/><rect fill="#FFFFFF" height="23.4484" style="stroke:#181818;stroke-width:0.8000000000000002;" width="8" x="356.8" y="110.3266"/><rect fill="#FFFFFF" height="270.0047" style="stroke:#181818;stroke-width:0.8000000000000002;" width="8" x="446.8" y="442.9438"/><rect fill="#FFFFFF" height="27.4484" style="stroke:#181818;stroke-width:0.8000000000000002;" width="8" x="450.8" y="586.0703"/><rect fill="#FFFFFF" height="262.2719" style="stroke:#181818;stroke-width:0.8000000000000002;" width="8" x="604.4" y="157.2234"/><rect fill="#FFFFFF" height="24" style="stroke:#181818;stroke-width:0.8000000000000002;" width="8" x="720.4" y="246.5016"/><rect fill="#FFFFFF" height="24" style="stroke:#181818;stroke-width:0.8000000000000002;" width="8" x="838.4" y="360.8469"/><rect fill="#FFFFFF" height="24" style="stroke:#181818;stroke-width:0.8000000000000002;" width="8" x="838.4" y="532.2219"/><rect fill="#FFFFFF" height="24" style="stroke:#181818;stroke-width:0.8000000000000002;" width="8" x="938.4" y="293.95"/><rect fill="#FFFFFF" height="24" style="stroke:#181818;stroke-width:0.8000000000000002;" width="8" x="1050.4" y="659.9"/><rect fill="none" height="639.9188" style="stroke:#000000;stroke-width:1.2000000000000002;" width="1072.4" x="154" y="79.4297"/><rect fill="none" height="181.2422" style="stroke:#000000;stroke-width:1.2000000000000002;" width="406.4" x="564" y="215.6047"/><rect fill="none" height="61.2969" style="stroke:#000000;stroke-width:1.2000000000000002;" width="350.4" x="572" y="329.95"/><rect fill="none" height="188.975" style="stroke:#000000;stroke-width:1.2000000000000002;" width="816.4" x="402" y="501.325"/><line style="stroke:#181818;stroke-width:0.4000000000000001;stroke-dasharray:5.0,5.0;" x1="236.4" x2="236.4" y1="42.3813" y2="756.3969"/><line style="stroke:#181818;stroke-width:0.4000000000000001;stroke-dasharray:5.0,5.0;" x1="360.4" x2="360.4" y1="42.3813" y2="756.3969"/><line style="stroke:#181818;stroke-width:0.4000000000000001;stroke-dasharray:5.0,5.0;" x1="450.8" x2="450.8" y1="42.3813" y2="756.3969"/><line style="stroke:#181818;stroke-width:0.4000000000000001;stroke-dasharray:5.0,5.0;" x1="608" x2="608" y1="42.3813" y2="756.3969"/><line style="stroke:#181818;stroke-width:0.4000000000000001;stroke-dasharray:5.0,5.0;" x1="724" x2="724" y1="42.3813" y2="756.3969"/><line style="stroke:#181818;stroke-width:0.4000000000000001;stroke-dasharray:5.0,5.0;" x1="842.4" x2="842.4" y1="194.8141" y2="756.3969"/><line style="stroke:#181818;stroke-width:0.4000000000000001;stroke-dasharray:5.0,5.0;" x1="942.4" x2="942.4" y1="42.3813" y2="756.3969"/><line style="stroke:#181818;stroke-width:0.4000000000000001;stroke-dasharray:5.0,5.0;" x1="1054.4" x2="1054.4" y1="480.5344" y2="756.3969"/><line style="stroke:#181818;stroke-width:0.4000000000000001;stroke-dasharray:5.0,5.0;" x1="1178.4" x2="1178.4" y1="627.6609" y2="756.3969"/><rect fill="#E3E3E3" height="24.3906" rx="2" ry="2" style="stroke:#181818;stroke-width:0.4000000000000001;" width="149.6" x="162" y="17.1906"/><text fill="#000000" font-family="sans-serif" font-size="11.2" lengthAdjust="spacing" textLength="138.4" x="167.6" y="33.6188">:PostponeEntryController</text><rect fill="#E3E3E3" height="24.3906" rx="2" ry="2" style="stroke:#181818;stroke-width:0.4000000000000001;" width="149.6" x="162" y="755.5969"/><text fill="#000000" font-family="sans-serif" font-size="11.2" lengthAdjust="spacing" textLength="138.4" x="167.6" y="772.025">:PostponeEntryController</text><rect fill="#E3E3E3" height="37.5813" rx="2" ry="2" style="stroke:#181818;stroke-width:0.4000000000000001;" width="82.4" x="319.6" y="4"/><text fill="#000000" font-family="sans-serif" font-size="11.2" lengthAdjust="spacing" textLength="65.6" x="328" y="20.4281">repositories</text><text fill="#000000" font-family="sans-serif" font-size="11.2" lengthAdjust="spacing" textLength="71.2" x="325.2" y="33.6188">:Repositories</text><rect fill="#E3E3E3" height="37.5813" rx="2" ry="2" style="stroke:#181818;stroke-width:0.4000000000000001;" width="82.4" x="319.6" y="755.5969"/><text fill="#000000" font-family="sans-serif" font-size="11.2" lengthAdjust="spacing" textLength="65.6" x="328" y="772.025">repositories</text><text fill="#000000" font-family="sans-serif" font-size="11.2" lengthAdjust="spacing" textLength="71.2" x="325.2" y="785.2156">:Repositories</text><rect fill="#E3E3E3" height="37.5813" rx="2" ry="2" style="stroke:#181818;stroke-width:0.4000000000000001;" width="81.6" x="410" y="4"/><text fill="#000000" font-family="sans-serif" font-size="11.2" lengthAdjust="spacing" textLength="64" x="418.8" y="20.4281">taskMapper</text><text fill="#000000" font-family="sans-serif" font-size="11.2" lengthAdjust="spacing" textLength="70.4" x="415.6" y="33.6188">:TaskMapper</text><rect fill="#E3E3E3" height="37.5813" rx="2" ry="2" style="stroke:#181818;stroke-width:0.4000000000000001;" width="81.6" x="410" y="755.5969"/><text fill="#000000" font-family="sans-serif" font-size="11.2" lengthAdjust="spacing" textLength="64" x="418.8" y="772.025">taskMapper</text><text fill="#000000" font-family="sans-serif" font-size="11.2" lengthAdjust="spacing" textLength="70.4" x="415.6" y="785.2156">:TaskMapper</text><rect fill="#E3E3E3" height="37.5813" rx="2" ry="2" style="stroke:#181818;stroke-width:0.4000000000000001;" width="56.8" x="580" y="4"/><text fill="#000000" font-family="sans-serif" font-size="11.2" lengthAdjust="spacing" textLength="40.8" x="588" y="20.4281">agenda</text><text fill="#000000" font-family="sans-serif" font-size="11.2" lengthAdjust="spacing" textLength="45.6" x="585.6" y="33.6188">:Agenda</text><rect fill="#E3E3E3" height="37.5813" rx="2" ry="2" style="stroke:#181818;stroke-width:0.4000000000000001;" width="56.8" x="580" y="755.5969"/><text fill="#000000" font-family="sans-serif" font-size="11.2" lengthAdjust="spacing" textLength="40.8" x="588" y="772.025">agenda</text><text fill="#000000" font-family="sans-serif" font-size="11.2" lengthAdjust="spacing" textLength="45.6" x="585.6" y="785.2156">:Agenda</text><rect fill="#E3E3E3" height="37.5813" rx="2" ry="2" style="stroke:#181818;stroke-width:0.4000000000000001;" width="76" x="686.4" y="4"/><text fill="#000000" font-family="sans-serif" font-size="11.2" lengthAdjust="spacing" textLength="56" x="696.4" y="20.4281">entriesList</text><text fill="#000000" font-family="sans-serif" font-size="11.2" lengthAdjust="spacing" textLength="64.8" x="692" y="33.6188">:List&lt;Task&gt;</text><rect fill="#E3E3E3" height="37.5813" rx="2" ry="2" style="stroke:#181818;stroke-width:0.4000000000000001;" width="76" x="686.4" y="755.5969"/><text fill="#000000" font-family="sans-serif" font-size="11.2" lengthAdjust="spacing" textLength="56" x="696.4" y="772.025">entriesList</text><text fill="#000000" font-family="sans-serif" font-size="11.2" lengthAdjust="spacing" textLength="64.8" x="692" y="785.2156">:List&lt;Task&gt;</text><rect fill="#E3E3E3" height="37.5813" rx="2" ry="2" style="stroke:#181818;stroke-width:0.4000000000000001;" width="144" x="770.4" y="755.5969"/><text fill="#000000" font-family="sans-serif" font-size="11.2" lengthAdjust="spacing" textLength="132.8" x="776" y="772.025">entriesListByGreenSpace</text><text fill="#000000" font-family="sans-serif" font-size="11.2" lengthAdjust="spacing" textLength="64.8" x="810" y="785.2156">:List&lt;Task&gt;</text><rect fill="#E3E3E3" height="37.5813" rx="2" ry="2" style="stroke:#181818;stroke-width:0.4000000000000001;" width="40" x="922.4" y="4"/><text fill="#000000" font-family="sans-serif" font-size="11.2" lengthAdjust="spacing" textLength="22.4" x="931.2" y="20.4281">task</text><text fill="#000000" font-family="sans-serif" font-size="11.2" lengthAdjust="spacing" textLength="28.8" x="928" y="33.6188">:Task</text><rect fill="#E3E3E3" height="37.5813" rx="2" ry="2" style="stroke:#181818;stroke-width:0.4000000000000001;" width="40" x="922.4" y="755.5969"/><text fill="#000000" font-family="sans-serif" font-size="11.2" lengthAdjust="spacing" textLength="22.4" x="931.2" y="772.025">task</text><text fill="#000000" font-family="sans-serif" font-size="11.2" lengthAdjust="spacing" textLength="28.8" x="928" y="785.2156">:Task</text><rect fill="#E3E3E3" height="37.5813" rx="2" ry="2" style="stroke:#181818;stroke-width:0.4000000000000001;" width="168" x="970.4" y="755.5969"/><text fill="#000000" font-family="sans-serif" font-size="11.2" lengthAdjust="spacing" textLength="156.8" x="976" y="772.025">entriesListByGreenSpaceDTO</text><text fill="#000000" font-family="sans-serif" font-size="11.2" lengthAdjust="spacing" textLength="88.8" x="1010" y="785.2156">:List&lt;TaskDTO&gt;</text><rect fill="#E3E3E3" height="37.5813" rx="2" ry="2" style="stroke:#181818;stroke-width:0.4000000000000001;" width="64" x="1146.4" y="755.5969"/><text fill="#000000" font-family="sans-serif" font-size="11.2" lengthAdjust="spacing" textLength="46.4" x="1155.2" y="772.025">taskDTO</text><text fill="#000000" font-family="sans-serif" font-size="11.2" lengthAdjust="spacing" textLength="52.8" x="1152" y="785.2156">:TaskDTO</text><rect fill="#FFFFFF" height="681.7672" style="stroke:#181818;stroke-width:0.8000000000000002;" width="8" x="232.8" y="67.4297"/><rect fill="#FFFFFF" height="23.4484" style="stroke:#181818;stroke-width:0.8000000000000002;" width="8" x="356.8" y="110.3266"/><rect fill="#FFFFFF" height="270.0047" style="stroke:#181818;stroke-width:0.8000000000000002;" width="8" x="446.8" y="442.9438"/><rect fill="#FFFFFF" height="27.4484" style="stroke:#181818;stroke-width:0.8000000000000002;" width="8" x="450.8" y="586.0703"/><rect fill="#FFFFFF" height="262.2719" style="stroke:#181818;stroke-width:0.8000000000000002;" width="8" x="604.4" y="157.2234"/><rect fill="#FFFFFF" height="24" style="stroke:#181818;stroke-width:0.8000000000000002;" width="8" x="720.4" y="246.5016"/><rect fill="#FFFFFF" height="24" style="stroke:#181818;stroke-width:0.8000000000000002;" width="8" x="838.4" y="360.8469"/><rect fill="#FFFFFF" height="24" style="stroke:#181818;stroke-width:0.8000000000000002;" width="8" x="838.4" y="532.2219"/><rect fill="#FFFFFF" height="24" style="stroke:#181818;stroke-width:0.8000000000000002;" width="8" x="938.4" y="293.95"/><rect fill="#FFFFFF" height="24" style="stroke:#181818;stroke-width:0.8000000000000002;" width="8" x="1050.4" y="659.9"/><polygon fill="#181818" points="223.2,64.2297,231.2,67.4297,223.2,70.6297,226.4,67.4297" style="stroke:#181818;stroke-width:0.8000000000000002;"/><line style="stroke:#181818;stroke-width:0.8000000000000002;" x1="0" x2="228" y1="67.4297" y2="67.4297"/><text fill="#000000" font-family="sans-serif" font-size="10.4" font-weight="bold" lengthAdjust="spacing" textLength="14.4" x="5.6" y="63.6359">30</text><text fill="#000000" font-family="sans-serif" font-size="10.4" lengthAdjust="spacing" textLength="200" x="23.2" y="63.6359">getTasksByGreenSpace(greenSpaceDTO)</text><path d="M154,79.4297 L329.2,79.4297 L329.2,85.2781 L321.2,93.2781 L154,93.2781 L154,79.4297 " fill="#EEEEEE" style="stroke:#000000;stroke-width:1.2000000000000002;"/><rect fill="none" height="639.9188" style="stroke:#000000;stroke-width:1.2000000000000002;" width="1072.4" x="154" y="79.4297"/><text fill="#000000" font-family="sans-serif" font-size="10.4" font-weight="bold" lengthAdjust="spacing" textLength="139.2" x="166" y="90.2844">Get Tasks By Green Space</text><polygon fill="#181818" points="347.2,107.1266,355.2,110.3266,347.2,113.5266,350.4,110.3266" style="stroke:#181818;stroke-width:0.8000000000000002;"/><line style="stroke:#181818;stroke-width:0.8000000000000002;" x1="240.8" x2="352" y1="110.3266" y2="110.3266"/><text fill="#000000" font-family="sans-serif" font-size="10.4" font-weight="bold" lengthAdjust="spacing" textLength="24" x="246.4" y="106.5328">30.1</text><text fill="#000000" font-family="sans-serif" font-size="10.4" lengthAdjust="spacing" textLength="60" x="273.6" y="106.5328">getAgenda()</text><polygon fill="#181818" points="249.6,130.575,241.6,133.775,249.6,136.975,246.4,133.775" style="stroke:#181818;stroke-width:0.8000000000000002;"/><line style="stroke:#181818;stroke-width:0.8000000000000002;stroke-dasharray:2.0,2.0;" x1="244.8" x2="360" y1="133.775" y2="133.775"/><text fill="#000000" font-family="sans-serif" font-size="10.4" font-weight="bold" lengthAdjust="spacing" textLength="24" x="254.4" y="129.9813">30.2</text><text fill="#000000" font-family="sans-serif" font-size="10.4" lengthAdjust="spacing" textLength="36" x="281.6" y="129.9813">agenda</text><polygon fill="#181818" points="594.8,154.0234,602.8,157.2234,594.8,160.4234,598,157.2234" style="stroke:#181818;stroke-width:0.8000000000000002;"/><line style="stroke:#181818;stroke-width:0.8000000000000002;" x1="240.8" x2="599.6" y1="157.2234" y2="157.2234"/><text fill="#000000" font-family="sans-serif" font-size="10.4" font-weight="bold" lengthAdjust="spacing" textLength="24" x="246.4" y="153.4297">30.3</text><text fill="#000000" font-family="sans-serif" font-size="10.4" lengthAdjust="spacing" textLength="151.2" x="273.6" y="153.4297">getAgendaEntries(greenSpace)</text><polygon fill="#181818" points="760.8,177.4719,768.8,180.6719,760.8,183.8719,764,180.6719" style="stroke:#181818;stroke-width:0.8000000000000002;"/><line style="stroke:#181818;stroke-width:0.8000000000000002;stroke-dasharray:2.0,2.0;" x1="612.4" x2="765.6" y1="180.6719" y2="180.6719"/><text fill="#000000" font-family="sans-serif" font-size="10.4" font-weight="bold" lengthAdjust="spacing" textLength="24" x="618" y="176.8781">30.4</text><text fill="#000000" font-family="sans-serif" font-size="10.4" lengthAdjust="spacing" textLength="36.8" x="645.2" y="176.8781">create()</text><rect fill="#E3E3E3" height="37.5813" rx="2" ry="2" style="stroke:#181818;stroke-width:0.4000000000000001;" width="144" x="770.4" y="163.6234"/><text fill="#000000" font-family="sans-serif" font-size="11.2" lengthAdjust="spacing" textLength="132.8" x="776" y="180.0516">entriesListByGreenSpace</text><text fill="#000000" font-family="sans-serif" font-size="11.2" lengthAdjust="spacing" textLength="64.8" x="810" y="193.2422">:List&lt;Task&gt;</text><path d="M564,215.6047 L623.2,215.6047 L623.2,221.4531 L615.2,229.4531 L564,229.4531 L564,215.6047 " fill="#EEEEEE" style="stroke:#000000;stroke-width:1.2000000000000002;"/><rect fill="none" height="181.2422" style="stroke:#000000;stroke-width:1.2000000000000002;" width="406.4" x="564" y="215.6047"/><text fill="#000000" font-family="sans-serif" font-size="10.4" font-weight="bold" lengthAdjust="spacing" textLength="23.2" x="576" y="226.4594">loop</text><text fill="#000000" font-family="sans-serif" font-size="8.8" font-weight="bold" lengthAdjust="spacing" textLength="97.6" x="635.2" y="225.7125">[for each known task]</text><polygon fill="#181818" points="710.8,243.3016,718.8,246.5016,710.8,249.7016,714,246.5016" style="stroke:#181818;stroke-width:0.8000000000000002;"/><line style="stroke:#181818;stroke-width:0.8000000000000002;" x1="612.4" x2="715.6" y1="246.5016" y2="246.5016"/><text fill="#000000" font-family="sans-serif" font-size="10.4" font-weight="bold" lengthAdjust="spacing" textLength="24" x="618" y="242.7078">30.5</text><text fill="#000000" font-family="sans-serif" font-size="10.4" lengthAdjust="spacing" textLength="65.6" x="645.2" y="242.7078">entry = get(i)</text><polygon fill="#181818" points="928.8,290.75,936.8,293.95,928.8,297.15,932,293.95" style="stroke:#181818;stroke-width:0.8000000000000002;"/><line style="stroke:#181818;stroke-width:0.8000000000000002;" x1="612.4" x2="933.6" y1="293.95" y2="293.95"/><text fill="#000000" font-family="sans-serif" font-size="10.4" font-weight="bold" lengthAdjust="spacing" textLength="24" x="618" y="290.1563">30.6</text><text fill="#000000" font-family="sans-serif" font-size="10.4" lengthAdjust="spacing" textLength="150.4" x="645.2" y="290.1563">taskGreenSpace = greenSpace</text><path d="M572,329.95 L625.6,329.95 L625.6,335.7984 L617.6,343.7984 L572,343.7984 L572,329.95 " fill="#EEEEEE" style="stroke:#000000;stroke-width:1.2000000000000002;"/><rect fill="none" height="61.2969" style="stroke:#000000;stroke-width:1.2000000000000002;" width="350.4" x="572" y="329.95"/><text fill="#000000" font-family="sans-serif" font-size="10.4" font-weight="bold" lengthAdjust="spacing" textLength="17.6" x="584" y="340.8047">opt</text><text fill="#000000" font-family="sans-serif" font-size="8.8" font-weight="bold" lengthAdjust="spacing" textLength="94.4" x="637.6" y="340.0578">[greenSpace == true]</text><polygon fill="#181818" points="828.8,357.6469,836.8,360.8469,828.8,364.0469,832,360.8469" style="stroke:#181818;stroke-width:0.8000000000000002;"/><line style="stroke:#181818;stroke-width:0.8000000000000002;" x1="612.4" x2="833.6" y1="360.8469" y2="360.8469"/><text fill="#000000" font-family="sans-serif" font-size="10.4" font-weight="bold" lengthAdjust="spacing" textLength="24" x="618" y="357.0531">30.7</text><text fill="#000000" font-family="sans-serif" font-size="10.4" lengthAdjust="spacing" textLength="50.4" x="645.2" y="357.0531">add(entry)</text><polygon fill="#181818" points="249.6,416.2953,241.6,419.4953,249.6,422.6953,246.4,419.4953" style="stroke:#181818;stroke-width:0.8000000000000002;"/><line style="stroke:#181818;stroke-width:0.8000000000000002;stroke-dasharray:2.0,2.0;" x1="244.8" x2="607.6" y1="419.4953" y2="419.4953"/><text fill="#000000" font-family="sans-serif" font-size="10.4" font-weight="bold" lengthAdjust="spacing" textLength="24" x="254.4" y="415.7016">30.8</text><text fill="#000000" font-family="sans-serif" font-size="10.4" lengthAdjust="spacing" textLength="121.6" x="281.6" y="415.7016">entriesListByGreenSpace</text><polygon fill="#181818" points="437.2,439.7438,445.2,442.9438,437.2,446.1438,440.4,442.9438" style="stroke:#181818;stroke-width:0.8000000000000002;"/><line style="stroke:#181818;stroke-width:0.8000000000000002;" x1="240.8" x2="442" y1="442.9438" y2="442.9438"/><text fill="#000000" font-family="sans-serif" font-size="10.4" font-weight="bold" lengthAdjust="spacing" textLength="24" x="246.4" y="439.15">30.9</text><text fill="#000000" font-family="sans-serif" font-size="10.4" lengthAdjust="spacing" textLength="92" x="273.6" y="439.15">toDTO(entriesList)</text><polygon fill="#181818" points="960.8,463.1922,968.8,466.3922,960.8,469.5922,964,466.3922" style="stroke:#181818;stroke-width:0.8000000000000002;"/><line style="stroke:#181818;stroke-width:0.8000000000000002;stroke-dasharray:2.0,2.0;" x1="454.8" x2="965.6" y1="466.3922" y2="466.3922"/><text fill="#000000" font-family="sans-serif" font-size="10.4" font-weight="bold" lengthAdjust="spacing" textLength="31.2" x="460.4" y="462.5984">30.10</text><text fill="#000000" font-family="sans-serif" font-size="10.4" lengthAdjust="spacing" textLength="36.8" x="494.8" y="462.5984">create()</text><rect fill="#E3E3E3" height="37.5813" rx="2" ry="2" style="stroke:#181818;stroke-width:0.4000000000000001;" width="168" x="970.4" y="449.3438"/><text fill="#000000" font-family="sans-serif" font-size="11.2" lengthAdjust="spacing" textLength="156.8" x="976" y="465.7719">entriesListByGreenSpaceDTO</text><text fill="#000000" font-family="sans-serif" font-size="11.2" lengthAdjust="spacing" textLength="88.8" x="1010" y="478.9625">:List&lt;TaskDTO&gt;</text><path d="M402,501.325 L461.2,501.325 L461.2,507.1734 L453.2,515.1734 L402,515.1734 L402,501.325 " fill="#EEEEEE" style="stroke:#000000;stroke-width:1.2000000000000002;"/><rect fill="none" height="188.975" style="stroke:#000000;stroke-width:1.2000000000000002;" width="816.4" x="402" y="501.325"/><text fill="#000000" font-family="sans-serif" font-size="10.4" font-weight="bold" lengthAdjust="spacing" textLength="23.2" x="414" y="512.1797">loop</text><text fill="#000000" font-family="sans-serif" font-size="8.8" font-weight="bold" lengthAdjust="spacing" textLength="187.2" x="473.2" y="511.4328">[for each task in entriesListByGreenSpace]</text><polygon fill="#181818" points="828.8,529.0219,836.8,532.2219,828.8,535.4219,832,532.2219" style="stroke:#181818;stroke-width:0.8000000000000002;"/><line style="stroke:#181818;stroke-width:0.8000000000000002;" x1="454.8" x2="833.6" y1="532.2219" y2="532.2219"/><text fill="#000000" font-family="sans-serif" font-size="10.4" font-weight="bold" lengthAdjust="spacing" textLength="31.2" x="460.4" y="528.4281">30.11</text><text fill="#000000" font-family="sans-serif" font-size="10.4" lengthAdjust="spacing" textLength="56" x="494.8" y="528.4281">obj = get(i)</text><line style="stroke:#181818;stroke-width:0.8000000000000002;" x1="454.8" x2="492.4" y1="575.6703" y2="575.6703"/><line style="stroke:#181818;stroke-width:0.8000000000000002;" x1="492.4" x2="492.4" y1="575.6703" y2="586.0703"/><line style="stroke:#181818;stroke-width:0.8000000000000002;" x1="459.6" x2="492.4" y1="586.0703" y2="586.0703"/><polygon fill="#181818" points="467.6,582.8703,459.6,586.0703,467.6,589.2703,464.4,586.0703" style="stroke:#181818;stroke-width:0.8000000000000002;"/><text fill="#000000" font-family="sans-serif" font-size="10.4" font-weight="bold" lengthAdjust="spacing" textLength="31.2" x="464.4" y="571.8766">30.12</text><text fill="#000000" font-family="sans-serif" font-size="10.4" lengthAdjust="spacing" textLength="104" x="498.8" y="571.8766">objDto = toDTO(obj)</text><polygon fill="#181818" points="1136.8,610.3188,1144.8,613.5188,1136.8,616.7188,1140,613.5188" style="stroke:#181818;stroke-width:0.8000000000000002;"/><line style="stroke:#181818;stroke-width:0.8000000000000002;" x1="454.8" x2="1141.6" y1="613.5188" y2="613.5188"/><text fill="#000000" font-family="sans-serif" font-size="10.4" font-weight="bold" lengthAdjust="spacing" textLength="31.2" x="460.4" y="609.725">30.13</text><text fill="#000000" font-family="sans-serif" font-size="10.4" lengthAdjust="spacing" textLength="46.4" x="494.8" y="609.725">create(...)</text><rect fill="#E3E3E3" height="37.5813" rx="2" ry="2" style="stroke:#181818;stroke-width:0.4000000000000001;" width="64" x="1146.4" y="596.4703"/><text fill="#000000" font-family="sans-serif" font-size="11.2" lengthAdjust="spacing" textLength="46.4" x="1155.2" y="612.8984">taskDTO</text><text fill="#000000" font-family="sans-serif" font-size="11.2" lengthAdjust="spacing" textLength="52.8" x="1152" y="626.0891">:TaskDTO</text><polygon fill="#181818" points="1040.8,656.7,1048.8,659.9,1040.8,663.1,1044,659.9" style="stroke:#181818;stroke-width:0.8000000000000002;"/><line style="stroke:#181818;stroke-width:0.8000000000000002;" x1="454.8" x2="1045.6" y1="659.9" y2="659.9"/><text fill="#000000" font-family="sans-serif" font-size="10.4" font-weight="bold" lengthAdjust="spacing" textLength="31.2" x="460.4" y="656.1063">30.14</text><text fill="#000000" font-family="sans-serif" font-size="10.4" lengthAdjust="spacing" textLength="59.2" x="494.8" y="656.1063">add(objDto)</text><polygon fill="#181818" points="249.6,709.7484,241.6,712.9484,249.6,716.1484,246.4,712.9484" style="stroke:#181818;stroke-width:0.8000000000000002;"/><line style="stroke:#181818;stroke-width:0.8000000000000002;stroke-dasharray:2.0,2.0;" x1="244.8" x2="450" y1="712.9484" y2="712.9484"/><text fill="#000000" font-family="sans-serif" font-size="10.4" font-weight="bold" lengthAdjust="spacing" textLength="31.2" x="254.4" y="709.1547">30.15</text><text fill="#000000" font-family="sans-serif" font-size="10.4" lengthAdjust="spacing" textLength="144" x="288.8" y="709.1547">entriesListByGreenSpaceDTO</text><polygon fill="#181818" points="8.8,738.7969,0.8,741.9969,8.8,745.1969,5.6,741.9969" style="stroke:#181818;stroke-width:0.8000000000000002;"/><line style="stroke:#181818;stroke-width:0.8000000000000002;stroke-dasharray:2.0,2.0;" x1="4" x2="232" y1="741.9969" y2="741.9969"/><text fill="#000000" font-family="sans-serif" font-size="10.4" font-weight="bold" lengthAdjust="spacing" textLength="14.4" x="13.6" y="738.2031">46</text><text fill="#000000" font-family="sans-serif" font-size="10.4" lengthAdjust="spacing" textLength="144" x="31.2" y="738.2031">entriesListByGreenSpaceDTO</text><!--SRC=[fLLDZzem4BtdLups55O2jMhL0rgGzajxeUfgbsCltZ0RKe8TsQOh_dt7TY0JY25iSu0udfdtvldPDgj2LaABDQoLLDbIgpM2rHjCp7wc4jbAvFXgjoM2nimAcPSym2p5GdqKCeTtKHfC4lfiYwoeXBHmDNvMnbPAugEqUdklw5UL9Ueh40Rkvo-pThZ6Ifd2AbsW-It7BspeCvvdj_DsXXLczLDK5MgAd-y7FhePjdEe7xaG57_hNtniU6t78R4bv5bXB0MxlnjNSkeJs6Gqwsxxf17bAuc89olmmEF-wivyaXltmdkO_-AGD3o9IlF7mA56dRwNr8KcOcELtApVKCEtBybmwXSJnf2ZTJ66rqvp3ZCuI1vzfG-PBVuAYy4IG4-krQQ29xGUqi3T5dn121f1ytXW8k2y4GY4jKm7F6gFu2t4PtpUiEaWk8D7B32UlKCFc1p_CGZDckycL3kFpzN57Ad8SbrV4rIcaGfGdpotLAg2TwM1I2zX9TM73ARf0cZLfufkj8M9Qo8jkkbottThn2EwGHqVGdD_JKiEjja4NT2-ZMxCemvLPLavc4p2mNPE0wwnyy9YaNfDpchHsi5dTOb54oF7F3dyvXOrvf3QjfTnwJ3TpidDgUcMID6EJLdjRY7OISldMQaJNYQ4ldRsnYbajDaO-AarLcz_UZl-FrOvJgqbEB5vi8e81ULf-6d5fxlJcgix6eq64UQzIiRNiDukeO6Bb7GNoaLY-Xlet1OvCD_fRHAdm5LnEFvYuZVOzn_9pN3Oe_u_]--></g></svg>