<?xml version="1.0" encoding="us-ascii" standalone="no"?><svg xmlns="http://www.w3.org/2000/svg" xmlns:xlink="http://www.w3.org/1999/xlink" contentStyleType="text/css" height="993.3px" preserveAspectRatio="none" style="width:1666px;height:993px;background:#FFFFFF;" version="1.1" viewBox="0 0 1666 993" width="1666.7px" zoomAndPan="magnify"><defs/><g><rect fill="#FFFFFF" height="857.6162" style="stroke:#181818;stroke-width:0.6999999999999998;" width="7" x="12.95" y="65.5348"/><rect fill="#FFFFFF" height="52.4385" style="stroke:#181818;stroke-width:0.6999999999999998;" width="7" x="163.45" y="81.8385"/><rect fill="#FFFFFF" height="766.9703" style="stroke:#181818;stroke-width:0.6999999999999998;" width="7" x="163.45" y="156.1807"/><rect fill="#FFFFFF" height="723.1629" style="stroke:#181818;stroke-width:0.6999999999999998;" width="7" x="353.15" y="178.0844"/><rect fill="#FFFFFF" height="21.9037" style="stroke:#181818;stroke-width:0.6999999999999998;" width="7" x="503.65" y="230.9918"/><rect fill="#FFFFFF" height="21.9037" style="stroke:#181818;stroke-width:0.6999999999999998;" width="7" x="606.55" y="274.7992"/><rect fill="#FFFFFF" height="21.9037" style="stroke:#181818;stroke-width:0.6999999999999998;" width="7" x="778.75" y="318.6066"/><rect fill="#FFFFFF" height="21.9037" style="stroke:#181818;stroke-width:0.6999999999999998;" width="7" x="853.65" y="362.4141"/><rect fill="#FFFFFF" height="323.7377" style="stroke:#181818;stroke-width:0.6999999999999998;" width="7" x="952.7" y="406.2215"/><rect fill="#FFFFFF" height="127.4807" style="stroke:#181818;stroke-width:0.6999999999999998;" width="7" x="952.7" y="751.8629"/><rect fill="#FFFFFF" height="174.1496" style="stroke:#181818;stroke-width:0.6999999999999998;" width="7" x="1295" y="533.9059"/><rect fill="#FFFFFF" height="21.9037" style="stroke:#181818;stroke-width:0.6999999999999998;" width="7" x="1518.3" y="428.1252"/><rect fill="#FFFFFF" height="21" style="stroke:#181818;stroke-width:0.6999999999999998;" width="7" x="1518.3" y="555.8096"/><rect fill="#FFFFFF" height="21" style="stroke:#181818;stroke-width:0.6999999999999998;" width="7" x="1518.3" y="660.2518"/><rect fill="none" height="182.7533" style="stroke:#000000;stroke-width:1.0499999999999998;" width="771.4" x="891.1" y="504.0984"/><line style="stroke:#181818;stroke-width:0.3499999999999999;stroke-dasharray:5.0,5.0;" x1="16.1" x2="16.1" y1="58.5348" y2="935.751"/><line style="stroke:#181818;stroke-width:0.3499999999999999;stroke-dasharray:5.0,5.0;" x1="166.6" x2="166.6" y1="58.5348" y2="935.751"/><line style="stroke:#181818;stroke-width:0.3499999999999999;stroke-dasharray:5.0,5.0;" x1="356.3" x2="356.3" y1="109.7059" y2="935.751"/><line style="stroke:#181818;stroke-width:0.3499999999999999;stroke-dasharray:5.0,5.0;" x1="506.8" x2="506.8" y1="58.5348" y2="935.751"/><line style="stroke:#181818;stroke-width:0.3499999999999999;stroke-dasharray:5.0,5.0;" x1="609.7" x2="609.7" y1="58.5348" y2="935.751"/><line style="stroke:#181818;stroke-width:0.3499999999999999;stroke-dasharray:5.0,5.0;" x1="702.8" x2="702.8" y1="58.5348" y2="935.751"/><line style="stroke:#181818;stroke-width:0.3499999999999999;stroke-dasharray:5.0,5.0;" x1="781.9" x2="781.9" y1="58.5348" y2="935.751"/><line style="stroke:#181818;stroke-width:0.3499999999999999;stroke-dasharray:5.0,5.0;" x1="856.8" x2="856.8" y1="58.5348" y2="935.751"/><line style="stroke:#181818;stroke-width:0.3499999999999999;stroke-dasharray:5.0,5.0;" x1="956.2" x2="956.2" y1="58.5348" y2="935.751"/><line style="stroke:#181818;stroke-width:0.3499999999999999;stroke-dasharray:5.0,5.0;" x1="1206.1" x2="1206.1" y1="786.2477" y2="935.751"/><line style="stroke:#181818;stroke-width:0.3499999999999999;stroke-dasharray:5.0,5.0;" x1="1298.5" x2="1298.5" y1="58.5348" y2="935.751"/><line style="stroke:#181818;stroke-width:0.3499999999999999;stroke-dasharray:5.0,5.0;" x1="1521.8" x2="1521.8" y1="484.4137" y2="935.751"/><line style="stroke:#181818;stroke-width:0.3499999999999999;stroke-dasharray:5.0,5.0;" x1="1615.6" x2="1615.6" y1="635.6807" y2="935.751"/><text fill="#000000" font-family="sans-serif" font-size="9.8" lengthAdjust="spacing" textLength="21.7" x="3.5" y="56.0752">GSM</text><ellipse cx="16.45" cy="9.45" fill="#E3E3E3" rx="5.6" ry="5.6" style="stroke:#181818;stroke-width:0.3499999999999999;"/><path d="M16.45,15.05 L16.45,33.95 M7.35,20.65 L25.55,20.65 M16.45,33.95 L7.35,44.45 M16.45,33.95 L25.55,44.45 " fill="none" style="stroke:#181818;stroke-width:0.3499999999999999;"/><text fill="#000000" font-family="sans-serif" font-size="9.8" lengthAdjust="spacing" textLength="21.7" x="3.5" y="945.6262">GSM</text><ellipse cx="16.45" cy="954.0357" fill="#E3E3E3" rx="5.6" ry="5.6" style="stroke:#181818;stroke-width:0.3499999999999999;"/><path d="M16.45,959.6357 L16.45,978.5357 M7.35,965.2357 L25.55,965.2357 M16.45,978.5357 L7.35,989.0357 M16.45,978.5357 L25.55,989.0357 " fill="none" style="stroke:#181818;stroke-width:0.3499999999999999;"/><rect fill="#E3E3E3" height="22.8348" rx="1.75" ry="1.75" style="stroke:#181818;stroke-width:0.3499999999999999;" width="114.1" x="109.9" y="35"/><text fill="#000000" font-family="sans-serif" font-size="9.8" lengthAdjust="spacing" textLength="104.3" x="114.8" y="50.4752">:RegisterGreenSpaceUI</text><rect fill="#E3E3E3" height="22.8348" rx="1.75" ry="1.75" style="stroke:#181818;stroke-width:0.3499999999999999;" width="114.1" x="109.9" y="935.051"/><text fill="#000000" font-family="sans-serif" font-size="9.8" lengthAdjust="spacing" textLength="104.3" x="114.8" y="950.5262">:RegisterGreenSpaceUI</text><rect fill="#E3E3E3" height="22.8348" rx="1.75" ry="1.75" style="stroke:#181818;stroke-width:0.3499999999999999;" width="149.1" x="282.1" y="935.051"/><text fill="#000000" font-family="sans-serif" font-size="9.8" lengthAdjust="spacing" textLength="139.3" x="287" y="950.5262">:RegisterGreenSpaceController</text><rect fill="#E3E3E3" height="22.8348" rx="1.75" ry="1.75" style="stroke:#181818;stroke-width:0.3499999999999999;" width="95.9" x="459.2" y="35"/><text fill="#000000" font-family="sans-serif" font-size="9.8" lengthAdjust="spacing" textLength="86.1" x="464.1" y="50.4752">:ApplicationSession</text><rect fill="#E3E3E3" height="22.8348" rx="1.75" ry="1.75" style="stroke:#181818;stroke-width:0.3499999999999999;" width="95.9" x="459.2" y="935.051"/><text fill="#000000" font-family="sans-serif" font-size="9.8" lengthAdjust="spacing" textLength="86.1" x="464.1" y="950.5262">:ApplicationSession</text><rect fill="#E3E3E3" height="35.8695" rx="1.75" ry="1.75" style="stroke:#181818;stroke-width:0.3499999999999999;" width="95.9" x="562.1" y="21.9652"/><text fill="#000000" font-family="sans-serif" font-size="9.8" lengthAdjust="spacing" textLength="51.8" x="584.15" y="37.4404">appSession</text><text fill="#000000" font-family="sans-serif" font-size="9.8" lengthAdjust="spacing" textLength="86.1" x="567" y="50.4752">:ApplicationSession</text><rect fill="#E3E3E3" height="35.8695" rx="1.75" ry="1.75" style="stroke:#181818;stroke-width:0.3499999999999999;" width="95.9" x="562.1" y="935.051"/><text fill="#000000" font-family="sans-serif" font-size="9.8" lengthAdjust="spacing" textLength="51.8" x="584.15" y="950.5262">appSession</text><text fill="#000000" font-family="sans-serif" font-size="9.8" lengthAdjust="spacing" textLength="86.1" x="567" y="963.5609">:ApplicationSession</text><rect fill="#E3E3E3" height="35.8695" rx="1.75" ry="1.75" style="stroke:#181818;stroke-width:0.3499999999999999;" width="76.3" x="665" y="21.9652"/><text fill="#000000" font-family="sans-serif" font-size="9.8" lengthAdjust="spacing" textLength="66.5" x="669.9" y="37.4404">currentSession</text><text fill="#000000" font-family="sans-serif" font-size="9.8" lengthAdjust="spacing" textLength="58.1" x="674.1" y="50.4752">:UserSession</text><rect fill="#E3E3E3" height="35.8695" rx="1.75" ry="1.75" style="stroke:#181818;stroke-width:0.3499999999999999;" width="76.3" x="665" y="935.051"/><text fill="#000000" font-family="sans-serif" font-size="9.8" lengthAdjust="spacing" textLength="66.5" x="669.9" y="950.5262">currentSession</text><text fill="#000000" font-family="sans-serif" font-size="9.8" lengthAdjust="spacing" textLength="58.1" x="674.1" y="963.5609">:UserSession</text><rect fill="#E3E3E3" height="22.8348" rx="1.75" ry="1.75" style="stroke:#181818;stroke-width:0.3499999999999999;" width="67.9" x="748.3" y="35"/><text fill="#000000" font-family="sans-serif" font-size="9.8" lengthAdjust="spacing" textLength="58.1" x="753.2" y="50.4752">:Repositories</text><rect fill="#E3E3E3" height="22.8348" rx="1.75" ry="1.75" style="stroke:#181818;stroke-width:0.3499999999999999;" width="67.9" x="748.3" y="935.051"/><text fill="#000000" font-family="sans-serif" font-size="9.8" lengthAdjust="spacing" textLength="58.1" x="753.2" y="950.5262">:Repositories</text><rect fill="#E3E3E3" height="35.8695" rx="1.75" ry="1.75" style="stroke:#181818;stroke-width:0.3499999999999999;" width="67.9" x="823.2" y="21.9652"/><text fill="#000000" font-family="sans-serif" font-size="9.8" lengthAdjust="spacing" textLength="51.8" x="831.25" y="37.4404">repositories</text><text fill="#000000" font-family="sans-serif" font-size="9.8" lengthAdjust="spacing" textLength="58.1" x="828.1" y="50.4752">:Repositories</text><rect fill="#E3E3E3" height="35.8695" rx="1.75" ry="1.75" style="stroke:#181818;stroke-width:0.3499999999999999;" width="67.9" x="823.2" y="935.051"/><text fill="#000000" font-family="sans-serif" font-size="9.8" lengthAdjust="spacing" textLength="51.8" x="831.25" y="950.5262">repositories</text><text fill="#000000" font-family="sans-serif" font-size="9.8" lengthAdjust="spacing" textLength="58.1" x="828.1" y="963.5609">:Repositories</text><rect fill="#E3E3E3" height="35.8695" rx="1.75" ry="1.75" style="stroke:#181818;stroke-width:0.3499999999999999;" width="116.2" x="898.1" y="21.9652"/><text fill="#000000" font-family="sans-serif" font-size="9.8" lengthAdjust="spacing" textLength="106.4" x="903" y="37.4404">GreenSpaceRepository:</text><text fill="#000000" font-family="sans-serif" font-size="9.8" lengthAdjust="spacing" textLength="103.6" x="904.4" y="50.4752">GreenSpaceRepository</text><rect fill="#E3E3E3" height="35.8695" rx="1.75" ry="1.75" style="stroke:#181818;stroke-width:0.3499999999999999;" width="116.2" x="898.1" y="935.051"/><text fill="#000000" font-family="sans-serif" font-size="9.8" lengthAdjust="spacing" textLength="106.4" x="903" y="950.5262">GreenSpaceRepository:</text><text fill="#000000" font-family="sans-serif" font-size="9.8" lengthAdjust="spacing" textLength="103.6" x="904.4" y="963.5609">GreenSpaceRepository</text><rect fill="#E3E3E3" height="35.8695" rx="1.75" ry="1.75" style="stroke:#181818;stroke-width:0.3499999999999999;" width="68.6" x="1171.8" y="935.051"/><text fill="#000000" font-family="sans-serif" font-size="9.8" lengthAdjust="spacing" textLength="56" x="1178.1" y="950.5262">GreenSpace</text><text fill="#000000" font-family="sans-serif" font-size="9.8" lengthAdjust="spacing" textLength="58.8" x="1176.7" y="963.5609">:GreenSpace</text><rect fill="#E3E3E3" height="35.8695" rx="1.75" ry="1.75" style="stroke:#181818;stroke-width:0.3499999999999999;" width="102.2" x="1247.4" y="21.9652"/><text fill="#000000" font-family="sans-serif" font-size="9.8" lengthAdjust="spacing" textLength="89.6" x="1253.7" y="37.4404">GreenSpaceMapper</text><text fill="#000000" font-family="sans-serif" font-size="9.8" lengthAdjust="spacing" textLength="92.4" x="1252.3" y="50.4752">:GreenSpaceMapper</text><rect fill="#E3E3E3" height="35.8695" rx="1.75" ry="1.75" style="stroke:#181818;stroke-width:0.3499999999999999;" width="102.2" x="1247.4" y="935.051"/><text fill="#000000" font-family="sans-serif" font-size="9.8" lengthAdjust="spacing" textLength="89.6" x="1253.7" y="950.5262">GreenSpaceMapper</text><text fill="#000000" font-family="sans-serif" font-size="9.8" lengthAdjust="spacing" textLength="92.4" x="1252.3" y="963.5609">:GreenSpaceMapper</text><rect fill="#E3E3E3" height="35.8695" rx="1.75" ry="1.75" style="stroke:#181818;stroke-width:0.3499999999999999;" width="95.2" x="1474.2" y="935.051"/><text fill="#000000" font-family="sans-serif" font-size="9.8" lengthAdjust="spacing" textLength="71.4" x="1486.1" y="950.5262">GreenSpaceList</text><text fill="#000000" font-family="sans-serif" font-size="9.8" lengthAdjust="spacing" textLength="85.4" x="1479.1" y="963.5609">:List&lt;GreenSpace&gt;</text><rect fill="#E3E3E3" height="22.8348" rx="1.75" ry="1.75" style="stroke:#181818;stroke-width:0.3499999999999999;" width="79.1" x="1576.4" y="935.051"/><text fill="#000000" font-family="sans-serif" font-size="9.8" lengthAdjust="spacing" textLength="69.3" x="1581.3" y="950.5262">greenSpaceDto</text><rect fill="#FFFFFF" height="857.6162" style="stroke:#181818;stroke-width:0.6999999999999998;" width="7" x="12.95" y="65.5348"/><rect fill="#FFFFFF" height="52.4385" style="stroke:#181818;stroke-width:0.6999999999999998;" width="7" x="163.45" y="81.8385"/><rect fill="#FFFFFF" height="766.9703" style="stroke:#181818;stroke-width:0.6999999999999998;" width="7" x="163.45" y="156.1807"/><rect fill="#FFFFFF" height="723.1629" style="stroke:#181818;stroke-width:0.6999999999999998;" width="7" x="353.15" y="178.0844"/><rect fill="#FFFFFF" height="21.9037" style="stroke:#181818;stroke-width:0.6999999999999998;" width="7" x="503.65" y="230.9918"/><rect fill="#FFFFFF" height="21.9037" style="stroke:#181818;stroke-width:0.6999999999999998;" width="7" x="606.55" y="274.7992"/><rect fill="#FFFFFF" height="21.9037" style="stroke:#181818;stroke-width:0.6999999999999998;" width="7" x="778.75" y="318.6066"/><rect fill="#FFFFFF" height="21.9037" style="stroke:#181818;stroke-width:0.6999999999999998;" width="7" x="853.65" y="362.4141"/><rect fill="#FFFFFF" height="323.7377" style="stroke:#181818;stroke-width:0.6999999999999998;" width="7" x="952.7" y="406.2215"/><rect fill="#FFFFFF" height="127.4807" style="stroke:#181818;stroke-width:0.6999999999999998;" width="7" x="952.7" y="751.8629"/><rect fill="#FFFFFF" height="174.1496" style="stroke:#181818;stroke-width:0.6999999999999998;" width="7" x="1295" y="533.9059"/><rect fill="#FFFFFF" height="21.9037" style="stroke:#181818;stroke-width:0.6999999999999998;" width="7" x="1518.3" y="428.1252"/><rect fill="#FFFFFF" height="21" style="stroke:#181818;stroke-width:0.6999999999999998;" width="7" x="1518.3" y="555.8096"/><rect fill="#FFFFFF" height="21" style="stroke:#181818;stroke-width:0.6999999999999998;" width="7" x="1518.3" y="660.2518"/><polygon fill="#181818" points="155.05,79.0385,162.05,81.8385,155.05,84.6385,157.85,81.8385" style="stroke:#181818;stroke-width:0.6999999999999998;"/><line style="stroke:#181818;stroke-width:0.6999999999999998;" x1="19.95" x2="159.25" y1="81.8385" y2="81.8385"/><text fill="#000000" font-family="sans-serif" font-size="9.1" font-weight="bold" lengthAdjust="spacing" textLength="4.9" x="24.85" y="78.1546">1</text><text fill="#000000" font-family="sans-serif" font-size="9.1" lengthAdjust="spacing" textLength="122.5" x="32.55" y="78.1546">asks to Register Green Space</text><polygon fill="#181818" points="273.7,100.9422,280.7,103.7422,273.7,106.5422,276.5,103.7422" style="stroke:#181818;stroke-width:0.6999999999999998;"/><line style="stroke:#181818;stroke-width:0.6999999999999998;" x1="170.45" x2="277.9" y1="103.7422" y2="103.7422"/><text fill="#000000" font-family="sans-serif" font-size="9.1" font-weight="bold" lengthAdjust="spacing" textLength="4.9" x="175.35" y="100.0583">2</text><text fill="#000000" font-family="sans-serif" font-size="9.1" lengthAdjust="spacing" textLength="33.6" x="183.05" y="100.0583">Register</text><rect fill="#E3E3E3" height="22.8348" rx="1.75" ry="1.75" style="stroke:#181818;stroke-width:0.3499999999999999;" width="149.1" x="282.1" y="87.4385"/><text fill="#000000" font-family="sans-serif" font-size="9.8" lengthAdjust="spacing" textLength="139.3" x="287" y="102.9137">:RegisterGreenSpaceController</text><polygon fill="#181818" points="27.65,131.477,20.65,134.277,27.65,137.077,24.85,134.277" style="stroke:#181818;stroke-width:0.6999999999999998;"/><line style="stroke:#181818;stroke-width:0.6999999999999998;" x1="23.45" x2="166.25" y1="134.277" y2="134.277"/><text fill="#000000" font-family="sans-serif" font-size="9.1" font-weight="bold" lengthAdjust="spacing" textLength="4.9" x="31.85" y="130.5931">3</text><text fill="#000000" font-family="sans-serif" font-size="9.1" lengthAdjust="spacing" textLength="111.3" x="39.55" y="130.5931">Request Green Space Data</text><polygon fill="#181818" points="155.05,153.3807,162.05,156.1807,155.05,158.9807,157.85,156.1807" style="stroke:#181818;stroke-width:0.6999999999999998;"/><line style="stroke:#181818;stroke-width:0.6999999999999998;" x1="19.95" x2="159.25" y1="156.1807" y2="156.1807"/><text fill="#000000" font-family="sans-serif" font-size="9.1" font-weight="bold" lengthAdjust="spacing" textLength="4.9" x="24.85" y="152.4968">4</text><text fill="#000000" font-family="sans-serif" font-size="9.1" lengthAdjust="spacing" textLength="106.4" x="32.55" y="152.4968">Submit Green Space Data</text><polygon fill="#181818" points="344.75,175.2844,351.75,178.0844,344.75,180.8844,347.55,178.0844" style="stroke:#181818;stroke-width:0.6999999999999998;"/><line style="stroke:#181818;stroke-width:0.6999999999999998;" x1="170.45" x2="348.95" y1="178.0844" y2="178.0844"/><text fill="#000000" font-family="sans-serif" font-size="9.1" font-weight="bold" lengthAdjust="spacing" textLength="4.9" x="175.35" y="174.4005">5</text><text fill="#000000" font-family="sans-serif" font-size="9.1" lengthAdjust="spacing" textLength="161.7" x="183.05" y="174.4005">Green space (name, area, type, adress)</text><line style="stroke:#181818;stroke-width:0.6999999999999998;" x1="360.15" x2="389.55" y1="199.9881" y2="199.9881"/><line style="stroke:#181818;stroke-width:0.6999999999999998;" x1="389.55" x2="389.55" y1="199.9881" y2="209.0881"/><line style="stroke:#181818;stroke-width:0.6999999999999998;" x1="360.85" x2="389.55" y1="209.0881" y2="209.0881"/><polygon fill="#181818" points="367.85,206.2881,360.85,209.0881,367.85,211.8881,365.05,209.0881" style="stroke:#181818;stroke-width:0.6999999999999998;"/><text fill="#000000" font-family="sans-serif" font-size="9.1" font-weight="bold" lengthAdjust="spacing" textLength="4.9" x="365.05" y="196.3042">6</text><text fill="#000000" font-family="sans-serif" font-size="9.1" lengthAdjust="spacing" textLength="126" x="372.75" y="196.3042">getGreenSpaceByName(name)</text><polygon fill="#181818" points="495.25,228.1918,502.25,230.9918,495.25,233.7918,498.05,230.9918" style="stroke:#181818;stroke-width:0.6999999999999998;"/><line style="stroke:#181818;stroke-width:0.6999999999999998;" x1="360.15" x2="499.45" y1="230.9918" y2="230.9918"/><text fill="#000000" font-family="sans-serif" font-size="9.1" font-weight="bold" lengthAdjust="spacing" textLength="4.9" x="365.05" y="227.3079">7</text><text fill="#000000" font-family="sans-serif" font-size="9.1" lengthAdjust="spacing" textLength="52.5" x="372.75" y="227.3079">getInstance()</text><polygon fill="#181818" points="367.85,250.0955,360.85,252.8955,367.85,255.6955,365.05,252.8955" style="stroke:#181818;stroke-width:0.6999999999999998;"/><line style="stroke:#181818;stroke-width:0.6999999999999998;" x1="363.65" x2="506.45" y1="252.8955" y2="252.8955"/><text fill="#000000" font-family="sans-serif" font-size="9.1" font-weight="bold" lengthAdjust="spacing" textLength="4.9" x="372.05" y="249.2116">8</text><text fill="#000000" font-family="sans-serif" font-size="9.1" lengthAdjust="spacing" textLength="47.6" x="379.75" y="249.2116">appSession</text><polygon fill="#181818" points="598.15,271.9992,605.15,274.7992,598.15,277.5992,600.95,274.7992" style="stroke:#181818;stroke-width:0.6999999999999998;"/><line style="stroke:#181818;stroke-width:0.6999999999999998;" x1="360.15" x2="602.35" y1="274.7992" y2="274.7992"/><text fill="#000000" font-family="sans-serif" font-size="9.1" font-weight="bold" lengthAdjust="spacing" textLength="4.9" x="365.05" y="271.1153">9</text><text fill="#000000" font-family="sans-serif" font-size="9.1" lengthAdjust="spacing" textLength="80.5" x="372.75" y="271.1153">getCurrentSession()</text><polygon fill="#181818" points="367.85,293.9029,360.85,296.7029,367.85,299.5029,365.05,296.7029" style="stroke:#181818;stroke-width:0.6999999999999998;"/><line style="stroke:#181818;stroke-width:0.6999999999999998;" x1="363.65" x2="609.35" y1="296.7029" y2="296.7029"/><text fill="#000000" font-family="sans-serif" font-size="9.1" font-weight="bold" lengthAdjust="spacing" textLength="9.8" x="372.05" y="293.019">10</text><text fill="#000000" font-family="sans-serif" font-size="9.1" lengthAdjust="spacing" textLength="60.9" x="384.65" y="293.019">currentSession</text><polygon fill="#181818" points="770.35,315.8066,777.35,318.6066,770.35,321.4066,773.15,318.6066" style="stroke:#181818;stroke-width:0.6999999999999998;"/><line style="stroke:#181818;stroke-width:0.6999999999999998;" x1="360.15" x2="774.55" y1="318.6066" y2="318.6066"/><text fill="#000000" font-family="sans-serif" font-size="9.1" font-weight="bold" lengthAdjust="spacing" textLength="9.8" x="365.05" y="314.9228">11</text><text fill="#000000" font-family="sans-serif" font-size="9.1" lengthAdjust="spacing" textLength="52.5" x="377.65" y="314.9228">getInstance()</text><polygon fill="#181818" points="367.85,337.7104,360.85,340.5104,367.85,343.3104,365.05,340.5104" style="stroke:#181818;stroke-width:0.6999999999999998;"/><line style="stroke:#181818;stroke-width:0.6999999999999998;" x1="363.65" x2="781.55" y1="340.5104" y2="340.5104"/><text fill="#000000" font-family="sans-serif" font-size="9.1" font-weight="bold" lengthAdjust="spacing" textLength="9.8" x="372.05" y="336.8265">12</text><text fill="#000000" font-family="sans-serif" font-size="9.1" lengthAdjust="spacing" textLength="112" x="384.65" y="336.8265">getGreenSpaceRepository()</text><polygon fill="#181818" points="845.25,359.6141,852.25,362.4141,845.25,365.2141,848.05,362.4141" style="stroke:#181818;stroke-width:0.6999999999999998;"/><line style="stroke:#181818;stroke-width:0.6999999999999998;" x1="360.15" x2="849.45" y1="362.4141" y2="362.4141"/><text fill="#000000" font-family="sans-serif" font-size="9.1" font-weight="bold" lengthAdjust="spacing" textLength="9.8" x="365.05" y="358.7302">13</text><text fill="#000000" font-family="sans-serif" font-size="9.1" lengthAdjust="spacing" textLength="92.4" x="377.65" y="358.7302">getGreenSpaceName()</text><polygon fill="#181818" points="367.85,381.5178,360.85,384.3178,367.85,387.1178,365.05,384.3178" style="stroke:#181818;stroke-width:0.6999999999999998;"/><line style="stroke:#181818;stroke-width:0.6999999999999998;" x1="363.65" x2="856.45" y1="384.3178" y2="384.3178"/><text fill="#000000" font-family="sans-serif" font-size="9.1" font-weight="bold" lengthAdjust="spacing" textLength="9.8" x="372.05" y="380.6339">14</text><text fill="#000000" font-family="sans-serif" font-size="9.1" lengthAdjust="spacing" textLength="74.2" x="384.65" y="380.6339">GreenSpaceName</text><polygon fill="#181818" points="944.3,403.4215,951.3,406.2215,944.3,409.0215,947.1,406.2215" style="stroke:#181818;stroke-width:0.6999999999999998;"/><line style="stroke:#181818;stroke-width:0.6999999999999998;" x1="360.15" x2="948.5" y1="406.2215" y2="406.2215"/><text fill="#000000" font-family="sans-serif" font-size="9.1" font-weight="bold" lengthAdjust="spacing" textLength="9.8" x="365.05" y="402.5376">15</text><text fill="#000000" font-family="sans-serif" font-size="9.1" lengthAdjust="spacing" textLength="126" x="377.65" y="402.5376">getGreenSpaceByName(name)</text><polygon fill="#181818" points="1509.9,425.3252,1516.9,428.1252,1509.9,430.9252,1512.7,428.1252" style="stroke:#181818;stroke-width:0.6999999999999998;"/><line style="stroke:#181818;stroke-width:0.6999999999999998;" x1="959.7" x2="1514.1" y1="428.1252" y2="428.1252"/><text fill="#000000" font-family="sans-serif" font-size="9.1" font-weight="bold" lengthAdjust="spacing" textLength="9.8" x="964.6" y="424.4413">16</text><text fill="#000000" font-family="sans-serif" font-size="9.1" lengthAdjust="spacing" textLength="68.6" x="977.2" y="424.4413">getGreenSpace()</text><polygon fill="#181818" points="967.4,447.2289,960.4,450.0289,967.4,452.8289,964.6,450.0289" style="stroke:#181818;stroke-width:0.6999999999999998;"/><line style="stroke:#181818;stroke-width:0.6999999999999998;" x1="963.2" x2="1521.1" y1="450.0289" y2="450.0289"/><text fill="#000000" font-family="sans-serif" font-size="9.1" font-weight="bold" lengthAdjust="spacing" textLength="9.8" x="971.6" y="446.345">17</text><text fill="#000000" font-family="sans-serif" font-size="9.1" lengthAdjust="spacing" textLength="65.1" x="984.2" y="446.345">GreenSpaceList</text><polygon fill="#181818" points="1465.8,469.1326,1472.8,471.9326,1465.8,474.7326,1468.6,471.9326" style="stroke:#181818;stroke-width:0.6999999999999998;"/><line style="stroke:#181818;stroke-width:0.6999999999999998;" x1="959.7" x2="1470" y1="471.9326" y2="471.9326"/><text fill="#000000" font-family="sans-serif" font-size="9.1" font-weight="bold" lengthAdjust="spacing" textLength="9.8" x="964.6" y="468.2487">18</text><text fill="#000000" font-family="sans-serif" font-size="9.1" lengthAdjust="spacing" textLength="26.6" x="977.2" y="468.2487">Create</text><rect fill="#E3E3E3" height="35.8695" rx="1.75" ry="1.75" style="stroke:#181818;stroke-width:0.3499999999999999;" width="95.2" x="1474.2" y="455.6289"/><text fill="#000000" font-family="sans-serif" font-size="9.8" lengthAdjust="spacing" textLength="71.4" x="1486.1" y="471.1041">GreenSpaceList</text><text fill="#000000" font-family="sans-serif" font-size="9.8" lengthAdjust="spacing" textLength="85.4" x="1479.1" y="484.1389">:List&lt;GreenSpace&gt;</text><path d="M891.1,504.0984 L942.2,504.0984 L942.2,510.6021 L935.2,517.6021 L891.1,517.6021 L891.1,504.0984 " fill="#EEEEEE" style="stroke:#000000;stroke-width:1.0499999999999998;"/><rect fill="none" height="182.7533" style="stroke:#000000;stroke-width:1.0499999999999998;" width="771.4" x="891.1" y="504.0984"/><text fill="#000000" font-family="sans-serif" font-size="9.1" font-weight="bold" lengthAdjust="spacing" textLength="19.6" x="901.6" y="514.6183">loop</text><text fill="#000000" font-family="sans-serif" font-size="7.7" font-weight="bold" lengthAdjust="spacing" textLength="158.2" x="952.7" y="513.8075">[for each greenSpace in GreenSpaceList]</text><polygon fill="#181818" points="1286.6,531.1059,1293.6,533.9059,1286.6,536.7059,1289.4,533.9059" style="stroke:#181818;stroke-width:0.6999999999999998;"/><line style="stroke:#181818;stroke-width:0.6999999999999998;" x1="959.7" x2="1290.8" y1="533.9059" y2="533.9059"/><text fill="#000000" font-family="sans-serif" font-size="9.1" font-weight="bold" lengthAdjust="spacing" textLength="9.8" x="964.6" y="530.222">19</text><text fill="#000000" font-family="sans-serif" font-size="9.1" lengthAdjust="spacing" textLength="123.9" x="977.2" y="530.222">dtoGreenSpaces(GreenSpace)</text><polygon fill="#181818" points="1509.9,553.0096,1516.9,555.8096,1509.9,558.6096,1512.7,555.8096" style="stroke:#181818;stroke-width:0.6999999999999998;"/><line style="stroke:#181818;stroke-width:0.6999999999999998;" x1="1302" x2="1514.1" y1="555.8096" y2="555.8096"/><text fill="#000000" font-family="sans-serif" font-size="9.1" font-weight="bold" lengthAdjust="spacing" textLength="9.8" x="1306.9" y="552.1257">20</text><text fill="#000000" font-family="sans-serif" font-size="9.1" lengthAdjust="spacing" textLength="72.1" x="1319.5" y="552.1257">greenSpace=get()</text><line style="stroke:#181818;stroke-width:0.6999999999999998;" x1="1302" x2="1331.4" y1="598.7133" y2="598.7133"/><line style="stroke:#181818;stroke-width:0.6999999999999998;" x1="1331.4" x2="1331.4" y1="598.7133" y2="607.8133"/><line style="stroke:#181818;stroke-width:0.6999999999999998;" x1="1302.7" x2="1331.4" y1="607.8133" y2="607.8133"/><polygon fill="#181818" points="1309.7,605.0133,1302.7,607.8133,1309.7,610.6133,1306.9,607.8133" style="stroke:#181818;stroke-width:0.6999999999999998;"/><text fill="#000000" font-family="sans-serif" font-size="9.1" font-weight="bold" lengthAdjust="spacing" textLength="9.8" x="1306.9" y="595.0294">21</text><text fill="#000000" font-family="sans-serif" font-size="9.1" lengthAdjust="spacing" textLength="193.9" x="1319.5" y="595.0294">greenSpaceDto(greenSpace) = dto(greenSpace)</text><polygon fill="#181818" points="1568,626.917,1575,629.717,1568,632.517,1570.8,629.717" style="stroke:#181818;stroke-width:0.6999999999999998;"/><line style="stroke:#181818;stroke-width:0.6999999999999998;" x1="1302" x2="1572.2" y1="629.717" y2="629.717"/><text fill="#000000" font-family="sans-serif" font-size="9.1" font-weight="bold" lengthAdjust="spacing" textLength="9.8" x="1306.9" y="626.0331">22</text><text fill="#000000" font-family="sans-serif" font-size="9.1" lengthAdjust="spacing" textLength="95.9" x="1319.5" y="626.0331">create greenSpaceDto()</text><rect fill="#E3E3E3" height="22.8348" rx="1.75" ry="1.75" style="stroke:#181818;stroke-width:0.3499999999999999;" width="79.1" x="1576.4" y="613.4133"/><text fill="#000000" font-family="sans-serif" font-size="9.8" lengthAdjust="spacing" textLength="69.3" x="1581.3" y="628.8885">greenSpaceDto</text><polygon fill="#181818" points="1509.9,657.4518,1516.9,660.2518,1509.9,663.0518,1512.7,660.2518" style="stroke:#181818;stroke-width:0.6999999999999998;"/><line style="stroke:#181818;stroke-width:0.6999999999999998;" x1="1302" x2="1514.1" y1="660.2518" y2="660.2518"/><text fill="#000000" font-family="sans-serif" font-size="9.1" font-weight="bold" lengthAdjust="spacing" textLength="9.8" x="1306.9" y="656.5679">23</text><text fill="#000000" font-family="sans-serif" font-size="9.1" lengthAdjust="spacing" textLength="82.6" x="1319.5" y="656.5679">add(greenSpaceDto)</text><polygon fill="#181818" points="967.4,705.2555,960.4,708.0555,967.4,710.8555,964.6,708.0555" style="stroke:#181818;stroke-width:0.6999999999999998;"/><line style="stroke:#181818;stroke-width:0.6999999999999998;" x1="963.2" x2="1297.8" y1="708.0555" y2="708.0555"/><text fill="#000000" font-family="sans-serif" font-size="9.1" font-weight="bold" lengthAdjust="spacing" textLength="9.8" x="971.6" y="704.3716">24</text><text fill="#000000" font-family="sans-serif" font-size="9.1" lengthAdjust="spacing" textLength="60.9" x="984.2" y="704.3716">greenSpacedto</text><polygon fill="#181818" points="367.85,727.1592,360.85,729.9592,367.85,732.7592,365.05,729.9592" style="stroke:#181818;stroke-width:0.6999999999999998;"/><line style="stroke:#181818;stroke-width:0.6999999999999998;" x1="363.65" x2="955.5" y1="729.9592" y2="729.9592"/><text fill="#000000" font-family="sans-serif" font-size="9.1" font-weight="bold" lengthAdjust="spacing" textLength="9.8" x="372.05" y="726.2753">25</text><text fill="#000000" font-family="sans-serif" font-size="9.1" lengthAdjust="spacing" textLength="63" x="384.65" y="726.2753">GreenSpacedto</text><polygon fill="#181818" points="944.3,749.0629,951.3,751.8629,944.3,754.6629,947.1,751.8629" style="stroke:#181818;stroke-width:0.6999999999999998;"/><line style="stroke:#181818;stroke-width:0.6999999999999998;" x1="360.15" x2="948.5" y1="751.8629" y2="751.8629"/><text fill="#000000" font-family="sans-serif" font-size="9.1" font-weight="bold" lengthAdjust="spacing" textLength="9.8" x="365.05" y="748.179">26</text><text fill="#000000" font-family="sans-serif" font-size="9.1" lengthAdjust="spacing" textLength="191.1" x="377.65" y="748.179">RegisterGreenSpace(name, area, type, adress)</text><polygon fill="#181818" points="1163.4,770.9666,1170.4,773.7666,1163.4,776.5666,1166.2,773.7666" style="stroke:#181818;stroke-width:0.6999999999999998;"/><line style="stroke:#181818;stroke-width:0.6999999999999998;" x1="959.7" x2="1167.6" y1="773.7666" y2="773.7666"/><text fill="#000000" font-family="sans-serif" font-size="9.1" font-weight="bold" lengthAdjust="spacing" textLength="9.8" x="964.6" y="770.0827">27</text><text fill="#000000" font-family="sans-serif" font-size="9.1" lengthAdjust="spacing" textLength="182.7" x="977.2" y="770.0827">createGreenSpace(name, area, type, adress)</text><rect fill="#E3E3E3" height="35.8695" rx="1.75" ry="1.75" style="stroke:#181818;stroke-width:0.3499999999999999;" width="68.6" x="1171.8" y="757.4629"/><text fill="#000000" font-family="sans-serif" font-size="9.8" lengthAdjust="spacing" textLength="56" x="1178.1" y="772.9381">GreenSpace</text><text fill="#000000" font-family="sans-serif" font-size="9.8" lengthAdjust="spacing" textLength="58.8" x="1176.7" y="785.9729">:GreenSpace</text><line style="stroke:#181818;stroke-width:0.6999999999999998;" x1="959.7" x2="989.1" y1="817.3361" y2="817.3361"/><line style="stroke:#181818;stroke-width:0.6999999999999998;" x1="989.1" x2="989.1" y1="817.3361" y2="826.4361"/><line style="stroke:#181818;stroke-width:0.6999999999999998;" x1="960.4" x2="989.1" y1="826.4361" y2="826.4361"/><polygon fill="#181818" points="967.4,823.6361,960.4,826.4361,967.4,829.2361,964.6,826.4361" style="stroke:#181818;stroke-width:0.6999999999999998;"/><text fill="#000000" font-family="sans-serif" font-size="9.1" font-weight="bold" lengthAdjust="spacing" textLength="9.8" x="964.6" y="813.6522">28</text><text fill="#000000" font-family="sans-serif" font-size="9.1" lengthAdjust="spacing" textLength="124.6" x="977.2" y="813.6522">saveGreenSpace(GreenSpace)</text><line style="stroke:#181818;stroke-width:0.6999999999999998;" x1="959.7" x2="989.1" y1="848.3398" y2="848.3398"/><line style="stroke:#181818;stroke-width:0.6999999999999998;" x1="989.1" x2="989.1" y1="848.3398" y2="857.4398"/><line style="stroke:#181818;stroke-width:0.6999999999999998;" x1="960.4" x2="989.1" y1="857.4398" y2="857.4398"/><polygon fill="#181818" points="967.4,854.6398,960.4,857.4398,967.4,860.2398,964.6,857.4398" style="stroke:#181818;stroke-width:0.6999999999999998;"/><text fill="#000000" font-family="sans-serif" font-size="9.1" font-weight="bold" lengthAdjust="spacing" textLength="9.8" x="964.6" y="844.656">29</text><text fill="#000000" font-family="sans-serif" font-size="9.1" lengthAdjust="spacing" textLength="129.5" x="977.2" y="844.656">VerifyGreenSpace(GreenSpace)</text><polygon fill="#181818" points="367.85,876.5436,360.85,879.3436,367.85,882.1436,365.05,879.3436" style="stroke:#181818;stroke-width:0.6999999999999998;"/><line style="stroke:#181818;stroke-width:0.6999999999999998;" x1="363.65" x2="955.5" y1="879.3436" y2="879.3436"/><text fill="#000000" font-family="sans-serif" font-size="9.1" font-weight="bold" lengthAdjust="spacing" textLength="9.8" x="372.05" y="875.6597">30</text><text fill="#000000" font-family="sans-serif" font-size="9.1" lengthAdjust="spacing" textLength="50.4" x="384.65" y="875.6597">GreenSpace</text><polygon fill="#181818" points="178.15,898.4473,171.15,901.2473,178.15,904.0473,175.35,901.2473" style="stroke:#181818;stroke-width:0.6999999999999998;"/><line style="stroke:#181818;stroke-width:0.6999999999999998;" x1="173.95" x2="355.95" y1="901.2473" y2="901.2473"/><text fill="#000000" font-family="sans-serif" font-size="9.1" font-weight="bold" lengthAdjust="spacing" textLength="9.8" x="182.35" y="897.5634">31</text><text fill="#000000" font-family="sans-serif" font-size="9.1" lengthAdjust="spacing" textLength="50.4" x="194.95" y="897.5634">GreenSpace</text><polygon fill="#181818" points="24.15,920.351,17.15,923.151,24.15,925.951,21.35,923.151" style="stroke:#181818;stroke-width:0.6999999999999998;"/><line style="stroke:#181818;stroke-width:0.6999999999999998;" x1="19.95" x2="166.25" y1="923.151" y2="923.151"/><text fill="#000000" font-family="sans-serif" font-size="9.1" font-weight="bold" lengthAdjust="spacing" textLength="9.8" x="28.35" y="919.4671">32</text><text fill="#000000" font-family="sans-serif" font-size="9.1" lengthAdjust="spacing" textLength="87.5" x="40.95" y="919.4671">dysplay Green Space</text><!--SRC=[fLRRJkCm47tlLrWyjOZz0RGWiGMXIeL51FO9QMMIeRMQs5dROPM_tudJ-f8uIRlq9SrupZdZcV74QiTuIIKjI26uIBTI542qh62cx4f9qntTGABh78Y4L5E-oNq7jQMP-CluXdpGNC5iHYijU5MyWyJ_gHQIdDqd3sU4AeBF6Q8qIrb9kIPdby-mOKg3l9S0F44nU5qPrzVLfETIS2r5deCqYENByxg3kIdBdALKCy4JK0eVnlFtpTDJw4dBSk_mneTGFL1QIGbSE-2h0kaZahiaMVryx6sa58fXNXWeusODTSAQv6BwGeZq42ZJ8tXQtxo429SaHtxvncFcjZ2HXI56ZC2zTD13c0TCCCW0sPew-DOunBB61a2Evl7TMQyx7CtopBGU-wGQJDFDoFw7B-JRDNONkKJKJX4joA6pMWxIRiGYB0zsf3KY7bcQZZi_HwO3GyUX4MiM_rIWjCzERgccpZc3g8WVQrAz5soCOo9Cf6Ynoc3dd1PmGQW4Ua5qNJR_CucjkuWmceDbpORDiMv0kzJ_g1-Hrv0l-eZcsBM85LSuHrAOn-JCwRHc0t9oxg16qnTY3y9MTncSsAXwG11gX-Szgc_G_G0Y9_o8HCJcWlMAKGvKnRdwCbxKeqA7FJH3fijigkrnzhPW9bDlsL1r6jFozTszI4E-GsYnhHxNccv8n0QWEuanWK2u6JfToVcuK3kd-XA6QdXNGmHUbgOrnhPX9jeI9uFsQf4BKP8F_9QZofPiB80m_WMvTjoZNAQ5iwgv-p-Umltd8gAuPuxMo1gki5md5Uca7CT2i1jsGTngCNTl2tBL9CEtZ7C7H4tfKbEvZe0ZwNB4CaIpR1xW7Nng_zCP0fuD1ZDscAqPqpCkDzmLOH_sne_F7AUE3OU9ATI_jvxqyVtgO3AdkUs9uo8uWJlOfwAVliBzU0CVHVaB9Fke_vUqLzulrDRSmIQOmcjIU_LgRu1PhSgSrl7xvS3bpmyHBx3_0000]--></g></svg>