<?xml version="1.0" encoding="us-ascii" standalone="no"?><svg xmlns="http://www.w3.org/2000/svg" xmlns:xlink="http://www.w3.org/1999/xlink" contentStyleType="text/css" height="921px" preserveAspectRatio="none" style="width:927px;height:921px;background:#FFFFFF;" version="1.1" viewBox="0 0 927 921" width="927px" zoomAndPan="magnify"><defs/><g><!--class RegisterGreenSpaceController--><g id="elem_RegisterGreenSpaceController"><rect codeLine="3" fill="#F1F1F1" height="85.2422" id="RegisterGreenSpaceController" rx="2.5" ry="2.5" style="stroke:#181818;stroke-width:0.5;" width="373" x="203" y="116"/><ellipse cx="287.75" cy="132" fill="#ADD1B2" rx="11" ry="11" style="stroke:#181818;stroke-width:1.0;"/><path d="M290.5156,127.875 Q290.6719,127.6563 290.8594,127.5469 Q291.0469,127.4375 291.2656,127.4375 Q291.6406,127.4375 291.875,127.7031 Q292.1094,127.9531 292.1094,128.5625 L292.1094,130.0156 Q292.1094,130.625 291.875,130.8906 Q291.6406,131.1563 291.2656,131.1563 Q290.9219,131.1563 290.7188,130.9531 Q290.5156,130.7656 290.4063,130.25 Q290.3594,129.8906 290.1719,129.7031 Q289.8438,129.3281 289.2344,129.1094 Q288.625,128.8906 288,128.8906 Q287.2344,128.8906 286.5938,129.2188 Q285.9688,129.5469 285.4688,130.2969 Q284.9844,131.0469 284.9844,132.0781 L284.9844,133.1719 Q284.9844,134.4063 285.875,135.2344 Q286.7656,136.0469 288.3594,136.0469 Q289.2969,136.0469 289.9531,135.7969 Q290.3438,135.6406 290.7656,135.2031 Q291.0313,134.9375 291.1719,134.8594 Q291.3281,134.7813 291.5313,134.7813 Q291.8594,134.7813 292.1094,135.0469 Q292.375,135.2969 292.375,135.6406 Q292.375,135.9844 292.0313,136.3906 Q291.5313,136.9688 290.7344,137.2969 Q289.6563,137.75 288.3594,137.75 Q286.8438,137.75 285.6406,137.125 Q284.6563,136.625 283.9688,135.5625 Q283.2813,134.4844 283.2813,133.2031 L283.2813,132.0469 Q283.2813,130.7188 283.8906,129.5781 Q284.5156,128.4219 285.6094,127.8125 Q286.7031,127.1875 287.9375,127.1875 Q288.6719,127.1875 289.3125,127.3594 Q289.9688,127.5156 290.5156,127.875 Z " fill="#000000"/><text fill="#000000" font-family="sans-serif" font-size="14" lengthAdjust="spacing" textLength="195" x="308.25" y="137.7969">RegisterGreenSpaceController</text><line style="stroke:#181818;stroke-width:0.5;" x1="204" x2="575" y1="148" y2="148"/><line style="stroke:#181818;stroke-width:0.5;" x1="204" x2="575" y1="156" y2="156"/><text fill="#000000" font-family="sans-serif" font-size="14" lengthAdjust="spacing" textLength="361" x="209" y="175.1074">+RegisterGreenSpaceController(GreenSpaceRepository)</text><text fill="#000000" font-family="sans-serif" font-size="14" lengthAdjust="spacing" textLength="293" x="209" y="193.7285">+GreenSpace(name, type, area, adress,email)</text></g><!--class RegisterGreenSpaceUI--><g id="elem_RegisterGreenSpaceUI"><rect codeLine="10" fill="#F1F1F1" height="48" id="RegisterGreenSpaceUI" rx="2.5" ry="2.5" style="stroke:#181818;stroke-width:0.5;" width="177" x="301" y="7"/><ellipse cx="316" cy="23" fill="#ADD1B2" rx="11" ry="11" style="stroke:#181818;stroke-width:1.0;"/><path d="M318.7656,18.875 Q318.9219,18.6563 319.1094,18.5469 Q319.2969,18.4375 319.5156,18.4375 Q319.8906,18.4375 320.125,18.7031 Q320.3594,18.9531 320.3594,19.5625 L320.3594,21.0156 Q320.3594,21.625 320.125,21.8906 Q319.8906,22.1563 319.5156,22.1563 Q319.1719,22.1563 318.9688,21.9531 Q318.7656,21.7656 318.6563,21.25 Q318.6094,20.8906 318.4219,20.7031 Q318.0938,20.3281 317.4844,20.1094 Q316.875,19.8906 316.25,19.8906 Q315.4844,19.8906 314.8438,20.2188 Q314.2188,20.5469 313.7188,21.2969 Q313.2344,22.0469 313.2344,23.0781 L313.2344,24.1719 Q313.2344,25.4063 314.125,26.2344 Q315.0156,27.0469 316.6094,27.0469 Q317.5469,27.0469 318.2031,26.7969 Q318.5938,26.6406 319.0156,26.2031 Q319.2813,25.9375 319.4219,25.8594 Q319.5781,25.7813 319.7813,25.7813 Q320.1094,25.7813 320.3594,26.0469 Q320.625,26.2969 320.625,26.6406 Q320.625,26.9844 320.2813,27.3906 Q319.7813,27.9688 318.9844,28.2969 Q317.9063,28.75 316.6094,28.75 Q315.0938,28.75 313.8906,28.125 Q312.9063,27.625 312.2188,26.5625 Q311.5313,25.4844 311.5313,24.2031 L311.5313,23.0469 Q311.5313,21.7188 312.1406,20.5781 Q312.7656,19.4219 313.8594,18.8125 Q314.9531,18.1875 316.1875,18.1875 Q316.9219,18.1875 317.5625,18.3594 Q318.2188,18.5156 318.7656,18.875 Z " fill="#000000"/><text fill="#000000" font-family="sans-serif" font-size="14" lengthAdjust="spacing" textLength="145" x="330" y="28.7969">RegisterGreenSpaceUI</text><line style="stroke:#181818;stroke-width:0.5;" x1="302" x2="477" y1="39" y2="39"/><line style="stroke:#181818;stroke-width:0.5;" x1="302" x2="477" y1="47" y2="47"/></g><!--class ApplicationSession--><g id="elem_ApplicationSession"><rect codeLine="12" fill="#F1F1F1" height="85.2422" id="ApplicationSession" rx="2.5" ry="2.5" style="stroke:#181818;stroke-width:0.5;" width="151" x="7" y="289.5"/><ellipse cx="22" cy="305.5" fill="#ADD1B2" rx="11" ry="11" style="stroke:#181818;stroke-width:1.0;"/><path d="M24.7656,301.375 Q24.9219,301.1563 25.1094,301.0469 Q25.2969,300.9375 25.5156,300.9375 Q25.8906,300.9375 26.125,301.2031 Q26.3594,301.4531 26.3594,302.0625 L26.3594,303.5156 Q26.3594,304.125 26.125,304.3906 Q25.8906,304.6563 25.5156,304.6563 Q25.1719,304.6563 24.9688,304.4531 Q24.7656,304.2656 24.6563,303.75 Q24.6094,303.3906 24.4219,303.2031 Q24.0938,302.8281 23.4844,302.6094 Q22.875,302.3906 22.25,302.3906 Q21.4844,302.3906 20.8438,302.7188 Q20.2188,303.0469 19.7188,303.7969 Q19.2344,304.5469 19.2344,305.5781 L19.2344,306.6719 Q19.2344,307.9063 20.125,308.7344 Q21.0156,309.5469 22.6094,309.5469 Q23.5469,309.5469 24.2031,309.2969 Q24.5938,309.1406 25.0156,308.7031 Q25.2813,308.4375 25.4219,308.3594 Q25.5781,308.2813 25.7813,308.2813 Q26.1094,308.2813 26.3594,308.5469 Q26.625,308.7969 26.625,309.1406 Q26.625,309.4844 26.2813,309.8906 Q25.7813,310.4688 24.9844,310.7969 Q23.9063,311.25 22.6094,311.25 Q21.0938,311.25 19.8906,310.625 Q18.9063,310.125 18.2188,309.0625 Q17.5313,307.9844 17.5313,306.7031 L17.5313,305.5469 Q17.5313,304.2188 18.1406,303.0781 Q18.7656,301.9219 19.8594,301.3125 Q20.9531,300.6875 22.1875,300.6875 Q22.9219,300.6875 23.5625,300.8594 Q24.2188,301.0156 24.7656,301.375 Z " fill="#000000"/><text fill="#000000" font-family="sans-serif" font-size="14" lengthAdjust="spacing" textLength="119" x="36" y="311.2969">ApplicationSession</text><line style="stroke:#181818;stroke-width:0.5;" x1="8" x2="157" y1="321.5" y2="321.5"/><line style="stroke:#181818;stroke-width:0.5;" x1="8" x2="157" y1="329.5" y2="329.5"/><text fill="#000000" font-family="sans-serif" font-size="14" lengthAdjust="spacing" textLength="128" x="13" y="348.6074">+static getInstance()</text><text fill="#000000" font-family="sans-serif" font-size="14" lengthAdjust="spacing" textLength="136" x="13" y="367.2285">+getCurrentSession()</text></g><!--class UserSession--><g id="elem_UserSession"><rect codeLine="17" fill="#F1F1F1" height="66.6211" id="UserSession" rx="2.5" ry="2.5" style="stroke:#181818;stroke-width:0.5;" width="113" x="26" y="463"/><ellipse cx="41.9" cy="479" fill="#ADD1B2" rx="11" ry="11" style="stroke:#181818;stroke-width:1.0;"/><path d="M44.6656,474.875 Q44.8219,474.6563 45.0094,474.5469 Q45.1969,474.4375 45.4156,474.4375 Q45.7906,474.4375 46.025,474.7031 Q46.2594,474.9531 46.2594,475.5625 L46.2594,477.0156 Q46.2594,477.625 46.025,477.8906 Q45.7906,478.1563 45.4156,478.1563 Q45.0719,478.1563 44.8688,477.9531 Q44.6656,477.7656 44.5563,477.25 Q44.5094,476.8906 44.3219,476.7031 Q43.9938,476.3281 43.3844,476.1094 Q42.775,475.8906 42.15,475.8906 Q41.3844,475.8906 40.7438,476.2188 Q40.1188,476.5469 39.6188,477.2969 Q39.1344,478.0469 39.1344,479.0781 L39.1344,480.1719 Q39.1344,481.4063 40.025,482.2344 Q40.9156,483.0469 42.5094,483.0469 Q43.4469,483.0469 44.1031,482.7969 Q44.4938,482.6406 44.9156,482.2031 Q45.1813,481.9375 45.3219,481.8594 Q45.4781,481.7813 45.6813,481.7813 Q46.0094,481.7813 46.2594,482.0469 Q46.525,482.2969 46.525,482.6406 Q46.525,482.9844 46.1813,483.3906 Q45.6813,483.9688 44.8844,484.2969 Q43.8063,484.75 42.5094,484.75 Q40.9938,484.75 39.7906,484.125 Q38.8063,483.625 38.1188,482.5625 Q37.4313,481.4844 37.4313,480.2031 L37.4313,479.0469 Q37.4313,477.7188 38.0406,476.5781 Q38.6656,475.4219 39.7594,474.8125 Q40.8531,474.1875 42.0875,474.1875 Q42.8219,474.1875 43.4625,474.3594 Q44.1188,474.5156 44.6656,474.875 Z " fill="#000000"/><text fill="#000000" font-family="sans-serif" font-size="14" lengthAdjust="spacing" textLength="79" x="56.1" y="484.7969">UserSession</text><line style="stroke:#181818;stroke-width:0.5;" x1="27" x2="138" y1="495" y2="495"/><line style="stroke:#181818;stroke-width:0.5;" x1="27" x2="138" y1="503" y2="503"/><text fill="#000000" font-family="sans-serif" font-size="14" lengthAdjust="spacing" textLength="101" x="32" y="522.1074">+getUserEmail()</text></g><!--class GreenSpace--><g id="elem_GreenSpace"><rect codeLine="22" fill="#F1F1F1" height="159.7266" id="GreenSpace" rx="2.5" ry="2.5" style="stroke:#181818;stroke-width:0.5;" width="305" x="232" y="755"/><ellipse cx="340.25" cy="771" fill="#ADD1B2" rx="11" ry="11" style="stroke:#181818;stroke-width:1.0;"/><path d="M343.0156,766.875 Q343.1719,766.6563 343.3594,766.5469 Q343.5469,766.4375 343.7656,766.4375 Q344.1406,766.4375 344.375,766.7031 Q344.6094,766.9531 344.6094,767.5625 L344.6094,769.0156 Q344.6094,769.625 344.375,769.8906 Q344.1406,770.1563 343.7656,770.1563 Q343.4219,770.1563 343.2188,769.9531 Q343.0156,769.7656 342.9063,769.25 Q342.8594,768.8906 342.6719,768.7031 Q342.3438,768.3281 341.7344,768.1094 Q341.125,767.8906 340.5,767.8906 Q339.7344,767.8906 339.0938,768.2188 Q338.4688,768.5469 337.9688,769.2969 Q337.4844,770.0469 337.4844,771.0781 L337.4844,772.1719 Q337.4844,773.4063 338.375,774.2344 Q339.2656,775.0469 340.8594,775.0469 Q341.7969,775.0469 342.4531,774.7969 Q342.8438,774.6406 343.2656,774.2031 Q343.5313,773.9375 343.6719,773.8594 Q343.8281,773.7813 344.0313,773.7813 Q344.3594,773.7813 344.6094,774.0469 Q344.875,774.2969 344.875,774.6406 Q344.875,774.9844 344.5313,775.3906 Q344.0313,775.9688 343.2344,776.2969 Q342.1563,776.75 340.8594,776.75 Q339.3438,776.75 338.1406,776.125 Q337.1563,775.625 336.4688,774.5625 Q335.7813,773.4844 335.7813,772.2031 L335.7813,771.0469 Q335.7813,769.7188 336.3906,768.5781 Q337.0156,767.4219 338.1094,766.8125 Q339.2031,766.1875 340.4375,766.1875 Q341.1719,766.1875 341.8125,766.3594 Q342.4688,766.5156 343.0156,766.875 Z " fill="#000000"/><text fill="#000000" font-family="sans-serif" font-size="14" lengthAdjust="spacing" textLength="80" x="360.75" y="776.7969">GreenSpace</text><line style="stroke:#181818;stroke-width:0.5;" x1="233" x2="536" y1="787" y2="787"/><text fill="#000000" font-family="sans-serif" font-size="14" lengthAdjust="spacing" textLength="81" x="238" y="806.1074">-String name</text><text fill="#000000" font-family="sans-serif" font-size="14" lengthAdjust="spacing" textLength="78" x="238" y="824.7285">-String Type</text><text fill="#000000" font-family="sans-serif" font-size="14" lengthAdjust="spacing" textLength="53" x="238" y="843.3496">-int area</text><text fill="#000000" font-family="sans-serif" font-size="14" lengthAdjust="spacing" textLength="67" x="238" y="861.9707">-int adress</text><text fill="#000000" font-family="sans-serif" font-size="14" lengthAdjust="spacing" textLength="76" x="238" y="880.5918">-Email email</text><line style="stroke:#181818;stroke-width:0.5;" x1="233" x2="536" y1="888.1055" y2="888.1055"/><text fill="#000000" font-family="sans-serif" font-size="14" lengthAdjust="spacing" textLength="293" x="238" y="907.2129">+GreenSpace(name, type, area, adress,email)</text></g><!--class Repositories--><g id="elem_Repositories"><rect codeLine="31" fill="#F1F1F1" height="103.8633" id="Repositories" rx="2.5" ry="2.5" style="stroke:#181818;stroke-width:0.5;" width="198" x="290.5" y="280"/><ellipse cx="345.75" cy="296" fill="#ADD1B2" rx="11" ry="11" style="stroke:#181818;stroke-width:1.0;"/><path d="M348.5156,291.875 Q348.6719,291.6563 348.8594,291.5469 Q349.0469,291.4375 349.2656,291.4375 Q349.6406,291.4375 349.875,291.7031 Q350.1094,291.9531 350.1094,292.5625 L350.1094,294.0156 Q350.1094,294.625 349.875,294.8906 Q349.6406,295.1563 349.2656,295.1563 Q348.9219,295.1563 348.7188,294.9531 Q348.5156,294.7656 348.4063,294.25 Q348.3594,293.8906 348.1719,293.7031 Q347.8438,293.3281 347.2344,293.1094 Q346.625,292.8906 346,292.8906 Q345.2344,292.8906 344.5938,293.2188 Q343.9688,293.5469 343.4688,294.2969 Q342.9844,295.0469 342.9844,296.0781 L342.9844,297.1719 Q342.9844,298.4063 343.875,299.2344 Q344.7656,300.0469 346.3594,300.0469 Q347.2969,300.0469 347.9531,299.7969 Q348.3438,299.6406 348.7656,299.2031 Q349.0313,298.9375 349.1719,298.8594 Q349.3281,298.7813 349.5313,298.7813 Q349.8594,298.7813 350.1094,299.0469 Q350.375,299.2969 350.375,299.6406 Q350.375,299.9844 350.0313,300.3906 Q349.5313,300.9688 348.7344,301.2969 Q347.6563,301.75 346.3594,301.75 Q344.8438,301.75 343.6406,301.125 Q342.6563,300.625 341.9688,299.5625 Q341.2813,298.4844 341.2813,297.2031 L341.2813,296.0469 Q341.2813,294.7188 341.8906,293.5781 Q342.5156,292.4219 343.6094,291.8125 Q344.7031,291.1875 345.9375,291.1875 Q346.6719,291.1875 347.3125,291.3594 Q347.9688,291.5156 348.5156,291.875 Z " fill="#000000"/><text fill="#000000" font-family="sans-serif" font-size="14" lengthAdjust="spacing" textLength="79" x="366.25" y="301.7969">Repositories</text><line style="stroke:#181818;stroke-width:0.5;" x1="291.5" x2="487.5" y1="312" y2="312"/><line style="stroke:#181818;stroke-width:0.5;" x1="291.5" x2="487.5" y1="320" y2="320"/><text fill="#000000" font-family="sans-serif" font-size="14" lengthAdjust="spacing" textLength="94" x="296.5" y="339.1074">-Repositories()</text><text fill="#000000" font-family="sans-serif" font-size="14" lengthAdjust="spacing" textLength="182" x="296.5" y="357.7285">+getInstance() : Repositories</text><text fill="#000000" font-family="sans-serif" font-size="14" lengthAdjust="spacing" textLength="186" x="296.5" y="376.3496">+getGreenSpaceRepository()</text></g><!--class GreenSpaceRepository--><g id="elem_GreenSpaceRepository"><rect codeLine="37" fill="#F1F1F1" height="66.6211" id="GreenSpaceRepository" rx="2.5" ry="2.5" style="stroke:#181818;stroke-width:0.5;" width="216" x="371.5" y="463"/><ellipse cx="402.7" cy="479" fill="#ADD1B2" rx="11" ry="11" style="stroke:#181818;stroke-width:1.0;"/><path d="M405.4656,474.875 Q405.6219,474.6563 405.8094,474.5469 Q405.9969,474.4375 406.2156,474.4375 Q406.5906,474.4375 406.825,474.7031 Q407.0594,474.9531 407.0594,475.5625 L407.0594,477.0156 Q407.0594,477.625 406.825,477.8906 Q406.5906,478.1563 406.2156,478.1563 Q405.8719,478.1563 405.6688,477.9531 Q405.4656,477.7656 405.3563,477.25 Q405.3094,476.8906 405.1219,476.7031 Q404.7938,476.3281 404.1844,476.1094 Q403.575,475.8906 402.95,475.8906 Q402.1844,475.8906 401.5438,476.2188 Q400.9188,476.5469 400.4188,477.2969 Q399.9344,478.0469 399.9344,479.0781 L399.9344,480.1719 Q399.9344,481.4063 400.825,482.2344 Q401.7156,483.0469 403.3094,483.0469 Q404.2469,483.0469 404.9031,482.7969 Q405.2938,482.6406 405.7156,482.2031 Q405.9813,481.9375 406.1219,481.8594 Q406.2781,481.7813 406.4813,481.7813 Q406.8094,481.7813 407.0594,482.0469 Q407.325,482.2969 407.325,482.6406 Q407.325,482.9844 406.9813,483.3906 Q406.4813,483.9688 405.6844,484.2969 Q404.6063,484.75 403.3094,484.75 Q401.7938,484.75 400.5906,484.125 Q399.6063,483.625 398.9188,482.5625 Q398.2313,481.4844 398.2313,480.2031 L398.2313,479.0469 Q398.2313,477.7188 398.8406,476.5781 Q399.4656,475.4219 400.5594,474.8125 Q401.6531,474.1875 402.8875,474.1875 Q403.6219,474.1875 404.2625,474.3594 Q404.9188,474.5156 405.4656,474.875 Z " fill="#000000"/><text fill="#000000" font-family="sans-serif" font-size="14" lengthAdjust="spacing" textLength="148" x="420.3" y="484.7969">GreenSpaceRepository</text><line style="stroke:#181818;stroke-width:0.5;" x1="372.5" x2="586.5" y1="495" y2="495"/><line style="stroke:#181818;stroke-width:0.5;" x1="372.5" x2="586.5" y1="503" y2="503"/><text fill="#000000" font-family="sans-serif" font-size="14" lengthAdjust="spacing" textLength="204" x="377.5" y="522.1074">+getGreenSpacebyName(name)</text></g><!--class GreenSpaceMapper--><g id="elem_GreenSpaceMapper"><rect codeLine="41" fill="#F1F1F1" height="85.2422" id="GreenSpaceMapper" rx="2.5" ry="2.5" style="stroke:#181818;stroke-width:0.5;" width="430" x="490.5" y="609"/><ellipse cx="637.25" cy="625" fill="#ADD1B2" rx="11" ry="11" style="stroke:#181818;stroke-width:1.0;"/><path d="M640.0156,620.875 Q640.1719,620.6563 640.3594,620.5469 Q640.5469,620.4375 640.7656,620.4375 Q641.1406,620.4375 641.375,620.7031 Q641.6094,620.9531 641.6094,621.5625 L641.6094,623.0156 Q641.6094,623.625 641.375,623.8906 Q641.1406,624.1563 640.7656,624.1563 Q640.4219,624.1563 640.2188,623.9531 Q640.0156,623.7656 639.9063,623.25 Q639.8594,622.8906 639.6719,622.7031 Q639.3438,622.3281 638.7344,622.1094 Q638.125,621.8906 637.5,621.8906 Q636.7344,621.8906 636.0938,622.2188 Q635.4688,622.5469 634.9688,623.2969 Q634.4844,624.0469 634.4844,625.0781 L634.4844,626.1719 Q634.4844,627.4063 635.375,628.2344 Q636.2656,629.0469 637.8594,629.0469 Q638.7969,629.0469 639.4531,628.7969 Q639.8438,628.6406 640.2656,628.2031 Q640.5313,627.9375 640.6719,627.8594 Q640.8281,627.7813 641.0313,627.7813 Q641.3594,627.7813 641.6094,628.0469 Q641.875,628.2969 641.875,628.6406 Q641.875,628.9844 641.5313,629.3906 Q641.0313,629.9688 640.2344,630.2969 Q639.1563,630.75 637.8594,630.75 Q636.3438,630.75 635.1406,630.125 Q634.1563,629.625 633.4688,628.5625 Q632.7813,627.4844 632.7813,626.2031 L632.7813,625.0469 Q632.7813,623.7188 633.3906,622.5781 Q634.0156,621.4219 635.1094,620.8125 Q636.2031,620.1875 637.4375,620.1875 Q638.1719,620.1875 638.8125,620.3594 Q639.4688,620.5156 640.0156,620.875 Z " fill="#000000"/><text fill="#000000" font-family="sans-serif" font-size="14" lengthAdjust="spacing" textLength="128" x="657.75" y="630.7969">GreenSpaceMapper</text><line style="stroke:#181818;stroke-width:0.5;" x1="491.5" x2="919.5" y1="641" y2="641"/><line style="stroke:#181818;stroke-width:0.5;" x1="491.5" x2="919.5" y1="649" y2="649"/><text fill="#000000" font-family="sans-serif" font-size="14" lengthAdjust="spacing" textLength="418" x="496.5" y="668.1074">+List&lt;GreenSpaceDTO&gt; toDTO(List&lt;GreenSpace&gt; greenSpaces)</text><text fill="#000000" font-family="sans-serif" font-size="14" lengthAdjust="spacing" textLength="335" x="496.5" y="686.7285">+GreenSpaceDTO toDTO(GreenSpace greenSpace)</text></g><!--class GreenSpaceDTO--><g id="elem_GreenSpaceDTO"><rect codeLine="45" fill="#F1F1F1" height="159.7266" id="GreenSpaceDTO" rx="2.5" ry="2.5" style="stroke:#181818;stroke-width:0.5;" width="339" x="572" y="755"/><ellipse cx="682.25" cy="771" fill="#ADD1B2" rx="11" ry="11" style="stroke:#181818;stroke-width:1.0;"/><path d="M685.0156,766.875 Q685.1719,766.6563 685.3594,766.5469 Q685.5469,766.4375 685.7656,766.4375 Q686.1406,766.4375 686.375,766.7031 Q686.6094,766.9531 686.6094,767.5625 L686.6094,769.0156 Q686.6094,769.625 686.375,769.8906 Q686.1406,770.1563 685.7656,770.1563 Q685.4219,770.1563 685.2188,769.9531 Q685.0156,769.7656 684.9063,769.25 Q684.8594,768.8906 684.6719,768.7031 Q684.3438,768.3281 683.7344,768.1094 Q683.125,767.8906 682.5,767.8906 Q681.7344,767.8906 681.0938,768.2188 Q680.4688,768.5469 679.9688,769.2969 Q679.4844,770.0469 679.4844,771.0781 L679.4844,772.1719 Q679.4844,773.4063 680.375,774.2344 Q681.2656,775.0469 682.8594,775.0469 Q683.7969,775.0469 684.4531,774.7969 Q684.8438,774.6406 685.2656,774.2031 Q685.5313,773.9375 685.6719,773.8594 Q685.8281,773.7813 686.0313,773.7813 Q686.3594,773.7813 686.6094,774.0469 Q686.875,774.2969 686.875,774.6406 Q686.875,774.9844 686.5313,775.3906 Q686.0313,775.9688 685.2344,776.2969 Q684.1563,776.75 682.8594,776.75 Q681.3438,776.75 680.1406,776.125 Q679.1563,775.625 678.4688,774.5625 Q677.7813,773.4844 677.7813,772.2031 L677.7813,771.0469 Q677.7813,769.7188 678.3906,768.5781 Q679.0156,767.4219 680.1094,766.8125 Q681.2031,766.1875 682.4375,766.1875 Q683.1719,766.1875 683.8125,766.3594 Q684.4688,766.5156 685.0156,766.875 Z " fill="#000000"/><text fill="#000000" font-family="sans-serif" font-size="14" lengthAdjust="spacing" textLength="110" x="702.75" y="776.7969">GreenSpaceDTO</text><line style="stroke:#181818;stroke-width:0.5;" x1="573" x2="910" y1="787" y2="787"/><text fill="#000000" font-family="sans-serif" font-size="14" lengthAdjust="spacing" textLength="81" x="578" y="806.1074">-String name</text><text fill="#000000" font-family="sans-serif" font-size="14" lengthAdjust="spacing" textLength="78" x="578" y="824.7285">-String Type</text><text fill="#000000" font-family="sans-serif" font-size="14" lengthAdjust="spacing" textLength="53" x="578" y="843.3496">-int area</text><text fill="#000000" font-family="sans-serif" font-size="14" lengthAdjust="spacing" textLength="67" x="578" y="861.9707">-int adress</text><text fill="#000000" font-family="sans-serif" font-size="14" lengthAdjust="spacing" textLength="76" x="578" y="880.5918">-Email email</text><line style="stroke:#181818;stroke-width:0.5;" x1="573" x2="910" y1="888.1055" y2="888.1055"/><text fill="#000000" font-family="sans-serif" font-size="14" lengthAdjust="spacing" textLength="327" x="578" y="907.2129">+GreenSpaceDTO(name, type, area, adress, email)</text></g><!--link RegisterGreenSpaceUI to RegisterGreenSpaceController--><g id="link_RegisterGreenSpaceUI_RegisterGreenSpaceController"><path codeLine="54" d="M389.5,55.02 C389.5,72 389.5,89.58 389.5,109.84 " fill="none" id="RegisterGreenSpaceUI-to-RegisterGreenSpaceController" style="stroke:#181818;stroke-width:1.0;stroke-dasharray:7.0,7.0;"/><polygon fill="#181818" points="389.5,115.84,393.5,106.84,389.5,110.84,385.5,106.84,389.5,115.84" style="stroke:#181818;stroke-width:1.0;"/></g><!--link RegisterGreenSpaceController to GreenSpaceRepository--><g id="link_RegisterGreenSpaceController_GreenSpaceRepository"><path codeLine="55" d="M442.79,201.25 C465.88,222.32 490.92,249.8 505.5,280 C535.67,342.48 561.57,368.31 536.5,433 C532.31,443.82 529.2423,449.4044 521.5123,458.1944 " fill="none" id="RegisterGreenSpaceController-to-GreenSpaceRepository" style="stroke:#181818;stroke-width:1.0;stroke-dasharray:7.0,7.0;"/><polygon fill="#181818" points="517.55,462.7,526.4971,458.5831,520.8519,458.9453,520.4897,453.3001,517.55,462.7" style="stroke:#181818;stroke-width:1.0;"/><text fill="#000000" font-family="sans-serif" font-size="13" lengthAdjust="spacing" textLength="131" x="547.5" y="337.5283">greenSpaceRepository</text></g><!--link GreenSpaceRepository to GreenSpace--><g id="link_GreenSpaceRepository_GreenSpace"><path codeLine="56" d="M449.31,530.44 C432.09,551.34 411.91,579.85 401.5,609 C384.9,655.49 380.5531,704.72 380.3831,748.83 " fill="none" id="GreenSpaceRepository-to-GreenSpace" style="stroke:#181818;stroke-width:1.0;"/><polygon fill="#181818" points="380.36,754.83,384.3947,745.8455,380.3793,749.83,376.3947,745.8147,380.36,754.83" style="stroke:#181818;stroke-width:1.0;"/><text fill="#000000" font-family="sans-serif" font-size="13" lengthAdjust="spacing" textLength="69" x="402.5" y="657.0283">greenSpace</text></g><!--link Repositories to GreenSpaceRepository--><g id="link_Repositories_GreenSpaceRepository"><path codeLine="57" d="M386.86,384.17 C387.99,400.6 391.42,418.33 399.5,433 C405.79,444.42 410.5416,450.5939 420.6416,459.1039 " fill="none" id="Repositories-to-GreenSpaceRepository" style="stroke:#181818;stroke-width:1.0;stroke-dasharray:7.0,7.0;"/><polygon fill="#181818" points="425.23,462.97,420.9248,454.112,421.4063,459.7483,415.77,460.2298,425.23,462.97" style="stroke:#181818;stroke-width:1.0;"/><text fill="#000000" font-family="sans-serif" font-size="13" lengthAdjust="spacing" textLength="131" x="400.5" y="429.0283">greenSpaceRepository</text></g><!--link RegisterGreenSpaceController to Repositories--><g id="link_RegisterGreenSpaceController_Repositories"><path codeLine="58" d="M389.5,201.02 C389.5,224.71 389.5,248.6 389.5,273.75 " fill="none" id="RegisterGreenSpaceController-to-Repositories" style="stroke:#181818;stroke-width:1.0;stroke-dasharray:7.0,7.0;"/><polygon fill="#181818" points="389.5,279.75,393.5,270.75,389.5,274.75,385.5,270.75,389.5,279.75" style="stroke:#181818;stroke-width:1.0;"/><text fill="#000000" font-family="sans-serif" font-size="13" lengthAdjust="spacing" textLength="67" x="390.5" y="246.0283">repositories</text></g><!--link GreenSpaceMapper to GreenSpace--><g id="link_GreenSpaceMapper_GreenSpace"><path codeLine="59" d="M631.86,694.14 C599.93,712.19 566.653,731.0069 529.653,751.9269 " fill="none" id="GreenSpaceMapper-to-GreenSpace" style="stroke:#181818;stroke-width:1.0;stroke-dasharray:7.0,7.0;"/><polygon fill="#181818" points="524.43,754.88,534.2332,753.9323,528.7825,752.4191,530.2957,746.9684,524.43,754.88" style="stroke:#181818;stroke-width:1.0;"/></g><!--link GreenSpaceMapper to GreenSpaceDTO--><g id="link_GreenSpaceMapper_GreenSpaceDTO"><path codeLine="60" d="M713.76,694.14 C717.33,712.14 720.4625,727.9447 724.6025,748.8147 " fill="none" id="GreenSpaceMapper-to-GreenSpaceDTO" style="stroke:#181818;stroke-width:1.0;stroke-dasharray:7.0,7.0;"/><polygon fill="#181818" points="725.77,754.7,727.9423,745.0937,724.7971,749.7956,720.0952,746.6503,725.77,754.7" style="stroke:#181818;stroke-width:1.0;"/></g><!--link GreenSpaceRepository to GreenSpaceMapper--><g id="link_GreenSpaceRepository_GreenSpaceMapper"><path codeLine="61" d="M527.71,530.13 C561.67,553.13 602.4614,580.7465 639.0514,605.5165 " fill="none" id="GreenSpaceRepository-to-GreenSpaceMapper" style="stroke:#181818;stroke-width:1.0;stroke-dasharray:7.0,7.0;"/><polygon fill="#181818" points="644.02,608.88,638.8095,600.5223,639.8795,606.0771,634.3248,607.1471,644.02,608.88" style="stroke:#181818;stroke-width:1.0;"/><text fill="#000000" font-family="sans-serif" font-size="13" lengthAdjust="spacing" textLength="112" x="599.5" y="575.0283">greenSpaceMapper</text></g><!--link RegisterGreenSpaceController to ApplicationSession--><g id="link_RegisterGreenSpaceController_ApplicationSession"><path codeLine="62" d="M315.18,201.02 C267.18,227.83 210.1879,259.6635 162.1679,286.4935 " fill="none" id="RegisterGreenSpaceController-to-ApplicationSession" style="stroke:#181818;stroke-width:1.0;stroke-dasharray:7.0,7.0;"/><polygon fill="#181818" points="156.93,289.42,166.7378,288.5221,161.2949,286.9812,162.8358,281.5383,156.93,289.42" style="stroke:#181818;stroke-width:1.0;"/></g><!--link ApplicationSession to UserSession--><g id="link_ApplicationSession_UserSession"><path codeLine="63" d="M82.5,374.85 C82.5,402.21 82.5,431.45 82.5,456.76 " fill="none" id="ApplicationSession-to-UserSession" style="stroke:#181818;stroke-width:1.0;stroke-dasharray:7.0,7.0;"/><polygon fill="#181818" points="82.5,462.76,86.5,453.76,82.5,457.76,78.5,453.76,82.5,462.76" style="stroke:#181818;stroke-width:1.0;"/><text fill="#000000" font-family="sans-serif" font-size="13" lengthAdjust="spacing" textLength="72" x="83.5" y="429.0283">userSession</text></g><!--link ApplicationSession to ApplicationSession--><g id="link_ApplicationSession_ApplicationSession"><path codeLine="64" d="M158.16,315.29 C178,316.28 193,321.85 193,332 C193,342.15 183.9925,347.421 164.1525,348.411 " fill="none" id="ApplicationSession-to-ApplicationSession" style="stroke:#181818;stroke-width:1.0;stroke-dasharray:7.0,7.0;"/><polygon fill="#181818" points="158.16,348.71,167.3482,352.2565,163.1538,348.4608,166.9495,344.2664,158.16,348.71" style="stroke:#181818;stroke-width:1.0;"/><text fill="#000000" font-family="sans-serif" font-size="13" lengthAdjust="spacing" textLength="67" x="199" y="337.5283">getInstance</text></g><!--SRC=[lLJBRi8m4BpxA_P8144zHnKIQgiAgG-9nmUOT1LP3KvacmEj-FTk78DjC20kvP24sHdlxgnj_IraonNVG5bphQV6AB7U6foLZLo87uG7ncm4vbW9RL2zAaIvQ7c9JuqqggbhLF3BeFiDhx867fnZssXX6hNBUgKL-_X0yWsEmEnQUdA5d9vV2hKUuOQBEcDipouNjffHGNiNdhPjBKfk13L42z2BzTKEGHk2IwZGp2HzIygRkH1XJrkbK1edeiXXnPL6TReKyJlufQlEKXtN5-MeEIp8Obb1rs6CBAbRXmXfRDlXNzk_0smUi5wmkxtR7urpGn2euL1T28PkU8UWY4YUaXflsWiVx_EUoDUx3sh1zf6Kl_EsFMww8RpH-1zzz7dvEG7Jq6jm4fb0TVpMsPbnf70wZmKARrma-Q-nTdLTd2mSHykIns4ydbmzckpgwUxKoU4LWJqUPabkdkVXAf6MHLlntdGtQuzMBq25k_TiLyNPRyLfAkbsOvhJXWtqqEtY4_VNEMIPmRr4cRR1BNL1a82BuAZ_0G00]--></g></svg>