<?xml version="1.0" encoding="us-ascii" standalone="no"?><svg xmlns="http://www.w3.org/2000/svg" xmlns:xlink="http://www.w3.org/1999/xlink" contentStyleType="text/css" height="488px" preserveAspectRatio="none" style="width:445px;height:488px;background:#FFFFFF;" version="1.1" viewBox="0 0 445 488" width="445px" zoomAndPan="magnify"><defs/><g><text fill="#000000" font-family="sans-serif" font-size="14" font-weight="bold" lengthAdjust="spacing" textLength="284" x="79.5" y="30.1074">System Sequence Diagram (SSD) - US022</text><rect fill="#FFFFFF" height="188.7461" style="stroke:#181818;stroke-width:1.0;" width="10" x="31" y="170.4844"/><rect fill="#FFFFFF" height="31.291" style="stroke:#181818;stroke-width:1.0;" width="10" x="402" y="193.7754"/><rect fill="#FFFFFF" height="31.291" style="stroke:#181818;stroke-width:1.0;" width="10" x="402" y="256.3574"/><rect fill="#FFFFFF" height="31.291" style="stroke:#181818;stroke-width:1.0;" width="10" x="402" y="318.9395"/><line style="stroke:#181818;stroke-width:0.5;stroke-dasharray:5.0,5.0;" x1="36" x2="36" y1="160.4844" y2="368.2305"/><line style="stroke:#181818;stroke-width:0.5;stroke-dasharray:5.0,5.0;" x1="407" x2="407" y1="160.4844" y2="368.2305"/><text fill="#000000" font-family="sans-serif" font-size="14" lengthAdjust="spacing" textLength="40" x="13" y="119.7285">Green</text><text fill="#000000" font-family="sans-serif" font-size="14" lengthAdjust="spacing" textLength="47" x="9.5" y="138.3496">Spaces</text><text fill="#000000" font-family="sans-serif" font-size="14" lengthAdjust="spacing" textLength="56" x="5" y="156.9707">Manager</text><ellipse cx="36" cy="53.1211" fill="#E3E3E3" rx="8" ry="8" style="stroke:#181818;stroke-width:0.5;"/><path d="M36,61.1211 L36,88.1211 M23,69.1211 L49,69.1211 M36,88.1211 L23,103.1211 M36,88.1211 L49,103.1211 " fill="none" style="stroke:#181818;stroke-width:0.5;"/><text fill="#000000" font-family="sans-serif" font-size="14" lengthAdjust="spacing" textLength="40" x="13" y="382.3379">Green</text><text fill="#000000" font-family="sans-serif" font-size="14" lengthAdjust="spacing" textLength="47" x="9.5" y="400.959">Spaces</text><text fill="#000000" font-family="sans-serif" font-size="14" lengthAdjust="spacing" textLength="56" x="5" y="419.5801">Manager</text><ellipse cx="36" cy="431.5938" fill="#E3E3E3" rx="8" ry="8" style="stroke:#181818;stroke-width:0.5;"/><path d="M36,439.5938 L36,466.5938 M23,447.5938 L49,447.5938 M36,466.5938 L23,481.5938 M36,466.5938 L49,481.5938 " fill="none" style="stroke:#181818;stroke-width:0.5;"/><rect fill="#E3E3E3" height="32.6211" rx="2.5" ry="2.5" style="stroke:#181818;stroke-width:0.5;" width="64" x="375" y="126.8633"/><text fill="#000000" font-family="sans-serif" font-size="14" lengthAdjust="spacing" textLength="50" x="382" y="148.9707">:System</text><rect fill="#E3E3E3" height="32.6211" rx="2.5" ry="2.5" style="stroke:#181818;stroke-width:0.5;" width="64" x="375" y="367.2305"/><text fill="#000000" font-family="sans-serif" font-size="14" lengthAdjust="spacing" textLength="50" x="382" y="389.3379">:System</text><rect fill="#FFFFFF" height="188.7461" style="stroke:#181818;stroke-width:1.0;" width="10" x="31" y="170.4844"/><rect fill="#FFFFFF" height="31.291" style="stroke:#181818;stroke-width:1.0;" width="10" x="402" y="193.7754"/><rect fill="#FFFFFF" height="31.291" style="stroke:#181818;stroke-width:1.0;" width="10" x="402" y="256.3574"/><rect fill="#FFFFFF" height="31.291" style="stroke:#181818;stroke-width:1.0;" width="10" x="402" y="318.9395"/><polygon fill="#181818" points="390,189.7754,400,193.7754,390,197.7754,394,193.7754" style="stroke:#181818;stroke-width:1.0;"/><line style="stroke:#181818;stroke-width:1.0;" x1="41" x2="396" y1="193.7754" y2="193.7754"/><text fill="#000000" font-family="sans-serif" font-size="13" font-weight="bold" lengthAdjust="spacing" textLength="7" x="48" y="188.5127">1</text><text fill="#000000" font-family="sans-serif" font-size="13" lengthAdjust="spacing" textLength="224" x="59" y="188.5127">asks to add a new entry to the Agenda</text><polygon fill="#181818" points="52,221.0664,42,225.0664,52,229.0664,48,225.0664" style="stroke:#181818;stroke-width:1.0;"/><line style="stroke:#181818;stroke-width:1.0;stroke-dasharray:2.0,2.0;" x1="46" x2="406" y1="225.0664" y2="225.0664"/><text fill="#000000" font-family="sans-serif" font-size="13" font-weight="bold" lengthAdjust="spacing" textLength="7" x="58" y="219.8037">2</text><text fill="#000000" font-family="sans-serif" font-size="13" lengthAdjust="spacing" textLength="326" x="69" y="219.8037">shows entries from the To-Do list and asks to select one</text><polygon fill="#181818" points="390,252.3574,400,256.3574,390,260.3574,394,256.3574" style="stroke:#181818;stroke-width:1.0;"/><line style="stroke:#181818;stroke-width:1.0;" x1="41" x2="396" y1="256.3574" y2="256.3574"/><text fill="#000000" font-family="sans-serif" font-size="13" font-weight="bold" lengthAdjust="spacing" textLength="7" x="48" y="251.0947">3</text><text fill="#000000" font-family="sans-serif" font-size="13" lengthAdjust="spacing" textLength="93" x="59" y="251.0947">selects an entry</text><polygon fill="#181818" points="52,283.6484,42,287.6484,52,291.6484,48,287.6484" style="stroke:#181818;stroke-width:1.0;"/><line style="stroke:#181818;stroke-width:1.0;stroke-dasharray:2.0,2.0;" x1="46" x2="406" y1="287.6484" y2="287.6484"/><text fill="#000000" font-family="sans-serif" font-size="13" font-weight="bold" lengthAdjust="spacing" textLength="7" x="58" y="282.3857">4</text><text fill="#000000" font-family="sans-serif" font-size="13" lengthAdjust="spacing" textLength="137" x="69" y="282.3857">requests a starting date</text><polygon fill="#181818" points="390,314.9395,400,318.9395,390,322.9395,394,318.9395" style="stroke:#181818;stroke-width:1.0;"/><line style="stroke:#181818;stroke-width:1.0;" x1="41" x2="396" y1="318.9395" y2="318.9395"/><text fill="#000000" font-family="sans-serif" font-size="13" font-weight="bold" lengthAdjust="spacing" textLength="7" x="48" y="313.6768">5</text><text fill="#000000" font-family="sans-serif" font-size="13" lengthAdjust="spacing" textLength="136" x="59" y="313.6768">introduces starting date</text><polygon fill="#181818" points="52,346.2305,42,350.2305,52,354.2305,48,350.2305" style="stroke:#181818;stroke-width:1.0;"/><line style="stroke:#181818;stroke-width:1.0;stroke-dasharray:2.0,2.0;" x1="46" x2="406" y1="350.2305" y2="350.2305"/><text fill="#000000" font-family="sans-serif" font-size="13" font-weight="bold" lengthAdjust="spacing" textLength="7" x="58" y="344.9678">6</text><text fill="#000000" font-family="sans-serif" font-size="13" lengthAdjust="spacing" textLength="158" x="69" y="344.9678">displays operation success</text><!--SRC=[bP4nQyD038Nt-nKYKpiOIiOCXK8WKwPBjopgdU8SiNNkIMxmlwzi9w6K59gRnEdfUmz9JeaxBDX2cpc7OyajWPQUdDmw7OOJrkHrQ0WA1KMkcvy2EMBCvyGr7B0HSawJcjGFejI2fy-UE12i4zQZ_CdxzJDKyEvVbaldiDVCVVj1nUgWkS1YKuXupzwSIVQyHJR_iW0KsFYjCrTD8NN82elLR3CrvtB2f2zKcjGEx5a1rUirqih49m7DW3420jCPYBKCuvSU2TvgueZJv8rrXSFbNLYLOKVwojQGpp9n4WaSR9KJQvUhTOOcYG9ol3aBDRPAo4mJCT9Tez-vvoanqXpumOXbl8MCyo0wRj5k5ctoaGZ9V7FixJ9t6F-F4fDq3Gu2kQE2cZA3zC6eyaUORm00]--></g></svg>