<?xml version="1.0" encoding="us-ascii" standalone="no"?><svg xmlns="http://www.w3.org/2000/svg" xmlns:xlink="http://www.w3.org/1999/xlink" contentStyleType="text/css" height="1184px" preserveAspectRatio="none" style="width:2063px;height:1184px;background:#FFFFFF;" version="1.1" viewBox="0 0 2063 1184" width="2063px" zoomAndPan="magnify"><defs/><g><!--class AssignTeamUI--><g id="elem_AssignTeamUI"><rect codeLine="11" fill="#F1F1F1" height="48" id="AssignTeamUI" rx="2.5" ry="2.5" style="stroke:#181818;stroke-width:0.5;" width="122" x="299.5" y="44"/><ellipse cx="314.5" cy="60" fill="#ADD1B2" rx="11" ry="11" style="stroke:#181818;stroke-width:1.0;"/><path d="M317.2656,55.875 Q317.4219,55.6563 317.6094,55.5469 Q317.7969,55.4375 318.0156,55.4375 Q318.3906,55.4375 318.625,55.7031 Q318.8594,55.9531 318.8594,56.5625 L318.8594,58.0156 Q318.8594,58.625 318.625,58.8906 Q318.3906,59.1563 318.0156,59.1563 Q317.6719,59.1563 317.4688,58.9531 Q317.2656,58.7656 317.1563,58.25 Q317.1094,57.8906 316.9219,57.7031 Q316.5938,57.3281 315.9844,57.1094 Q315.375,56.8906 314.75,56.8906 Q313.9844,56.8906 313.3438,57.2188 Q312.7188,57.5469 312.2188,58.2969 Q311.7344,59.0469 311.7344,60.0781 L311.7344,61.1719 Q311.7344,62.4063 312.625,63.2344 Q313.5156,64.0469 315.1094,64.0469 Q316.0469,64.0469 316.7031,63.7969 Q317.0938,63.6406 317.5156,63.2031 Q317.7813,62.9375 317.9219,62.8594 Q318.0781,62.7813 318.2813,62.7813 Q318.6094,62.7813 318.8594,63.0469 Q319.125,63.2969 319.125,63.6406 Q319.125,63.9844 318.7813,64.3906 Q318.2813,64.9688 317.4844,65.2969 Q316.4063,65.75 315.1094,65.75 Q313.5938,65.75 312.3906,65.125 Q311.4063,64.625 310.7188,63.5625 Q310.0313,62.4844 310.0313,61.2031 L310.0313,60.0469 Q310.0313,58.7188 310.6406,57.5781 Q311.2656,56.4219 312.3594,55.8125 Q313.4531,55.1875 314.6875,55.1875 Q315.4219,55.1875 316.0625,55.3594 Q316.7188,55.5156 317.2656,55.875 Z " fill="#000000"/><text fill="#000000" font-family="sans-serif" font-size="14" lengthAdjust="spacing" textLength="90" x="328.5" y="65.7969">AssignTeamUI</text><line style="stroke:#181818;stroke-width:0.5;" x1="300.5" x2="420.5" y1="76" y2="76"/><line style="stroke:#181818;stroke-width:0.5;" x1="300.5" x2="420.5" y1="84" y2="84"/></g><!--class AssignTeamController--><g id="elem_AssignTeamController"><rect codeLine="16" fill="#F1F1F1" height="122.4844" id="AssignTeamController" rx="2.5" ry="2.5" style="stroke:#181818;stroke-width:0.5;" width="172" x="456.5" y="7"/><ellipse cx="471.5" cy="23" fill="#ADD1B2" rx="11" ry="11" style="stroke:#181818;stroke-width:1.0;"/><path d="M474.2656,18.875 Q474.4219,18.6563 474.6094,18.5469 Q474.7969,18.4375 475.0156,18.4375 Q475.3906,18.4375 475.625,18.7031 Q475.8594,18.9531 475.8594,19.5625 L475.8594,21.0156 Q475.8594,21.625 475.625,21.8906 Q475.3906,22.1563 475.0156,22.1563 Q474.6719,22.1563 474.4688,21.9531 Q474.2656,21.7656 474.1563,21.25 Q474.1094,20.8906 473.9219,20.7031 Q473.5938,20.3281 472.9844,20.1094 Q472.375,19.8906 471.75,19.8906 Q470.9844,19.8906 470.3438,20.2188 Q469.7188,20.5469 469.2188,21.2969 Q468.7344,22.0469 468.7344,23.0781 L468.7344,24.1719 Q468.7344,25.4063 469.625,26.2344 Q470.5156,27.0469 472.1094,27.0469 Q473.0469,27.0469 473.7031,26.7969 Q474.0938,26.6406 474.5156,26.2031 Q474.7813,25.9375 474.9219,25.8594 Q475.0781,25.7813 475.2813,25.7813 Q475.6094,25.7813 475.8594,26.0469 Q476.125,26.2969 476.125,26.6406 Q476.125,26.9844 475.7813,27.3906 Q475.2813,27.9688 474.4844,28.2969 Q473.4063,28.75 472.1094,28.75 Q470.5938,28.75 469.3906,28.125 Q468.4063,27.625 467.7188,26.5625 Q467.0313,25.4844 467.0313,24.2031 L467.0313,23.0469 Q467.0313,21.7188 467.6406,20.5781 Q468.2656,19.4219 469.3594,18.8125 Q470.4531,18.1875 471.6875,18.1875 Q472.4219,18.1875 473.0625,18.3594 Q473.7188,18.5156 474.2656,18.875 Z " fill="#000000"/><text fill="#000000" font-family="sans-serif" font-size="14" lengthAdjust="spacing" textLength="140" x="485.5" y="28.7969">AssignTeamController</text><line style="stroke:#181818;stroke-width:0.5;" x1="457.5" x2="627.5" y1="39" y2="39"/><line style="stroke:#181818;stroke-width:0.5;" x1="457.5" x2="627.5" y1="47" y2="47"/><text fill="#000000" font-family="sans-serif" font-size="14" lengthAdjust="spacing" textLength="158" x="462.5" y="66.1074">+AssignTeamController()</text><text fill="#000000" font-family="sans-serif" font-size="14" lengthAdjust="spacing" textLength="131" x="462.5" y="84.7285">+getAgendaEntries()</text><text fill="#000000" font-family="sans-serif" font-size="14" lengthAdjust="spacing" textLength="127" x="462.5" y="103.3496">+getSelectedTask(i)</text><text fill="#000000" font-family="sans-serif" font-size="14" lengthAdjust="spacing" textLength="98" x="462.5" y="121.9707">+assignTeam(i)</text></g><!--class ApplicationSession--><g id="elem_ApplicationSession"><rect codeLine="24" fill="#F1F1F1" height="85.2422" id="ApplicationSession" rx="2.5" ry="2.5" style="stroke:#181818;stroke-width:0.5;" width="151" x="374" y="254.5"/><ellipse cx="389" cy="270.5" fill="#ADD1B2" rx="11" ry="11" style="stroke:#181818;stroke-width:1.0;"/><path d="M391.7656,266.375 Q391.9219,266.1563 392.1094,266.0469 Q392.2969,265.9375 392.5156,265.9375 Q392.8906,265.9375 393.125,266.2031 Q393.3594,266.4531 393.3594,267.0625 L393.3594,268.5156 Q393.3594,269.125 393.125,269.3906 Q392.8906,269.6563 392.5156,269.6563 Q392.1719,269.6563 391.9688,269.4531 Q391.7656,269.2656 391.6563,268.75 Q391.6094,268.3906 391.4219,268.2031 Q391.0938,267.8281 390.4844,267.6094 Q389.875,267.3906 389.25,267.3906 Q388.4844,267.3906 387.8438,267.7188 Q387.2188,268.0469 386.7188,268.7969 Q386.2344,269.5469 386.2344,270.5781 L386.2344,271.6719 Q386.2344,272.9063 387.125,273.7344 Q388.0156,274.5469 389.6094,274.5469 Q390.5469,274.5469 391.2031,274.2969 Q391.5938,274.1406 392.0156,273.7031 Q392.2813,273.4375 392.4219,273.3594 Q392.5781,273.2813 392.7813,273.2813 Q393.1094,273.2813 393.3594,273.5469 Q393.625,273.7969 393.625,274.1406 Q393.625,274.4844 393.2813,274.8906 Q392.7813,275.4688 391.9844,275.7969 Q390.9063,276.25 389.6094,276.25 Q388.0938,276.25 386.8906,275.625 Q385.9063,275.125 385.2188,274.0625 Q384.5313,272.9844 384.5313,271.7031 L384.5313,270.5469 Q384.5313,269.2188 385.1406,268.0781 Q385.7656,266.9219 386.8594,266.3125 Q387.9531,265.6875 389.1875,265.6875 Q389.9219,265.6875 390.5625,265.8594 Q391.2188,266.0156 391.7656,266.375 Z " fill="#000000"/><text fill="#000000" font-family="sans-serif" font-size="14" lengthAdjust="spacing" textLength="119" x="403" y="276.2969">ApplicationSession</text><line style="stroke:#181818;stroke-width:0.5;" x1="375" x2="524" y1="286.5" y2="286.5"/><line style="stroke:#181818;stroke-width:0.5;" x1="375" x2="524" y1="294.5" y2="294.5"/><text fill="#000000" font-family="sans-serif" font-size="14" lengthAdjust="spacing" textLength="128" x="380" y="313.6074">+static getInstance()</text><text fill="#000000" font-family="sans-serif" font-size="14" lengthAdjust="spacing" textLength="136" x="380" y="332.2285">+getCurrentSession()</text></g><!--class Repositories--><g id="elem_Repositories"><rect codeLine="30" fill="#F1F1F1" height="122.4844" id="Repositories" rx="2.5" ry="2.5" style="stroke:#181818;stroke-width:0.5;" width="194" x="732.5" y="7"/><ellipse cx="785.75" cy="23" fill="#ADD1B2" rx="11" ry="11" style="stroke:#181818;stroke-width:1.0;"/><path d="M788.5156,18.875 Q788.6719,18.6563 788.8594,18.5469 Q789.0469,18.4375 789.2656,18.4375 Q789.6406,18.4375 789.875,18.7031 Q790.1094,18.9531 790.1094,19.5625 L790.1094,21.0156 Q790.1094,21.625 789.875,21.8906 Q789.6406,22.1563 789.2656,22.1563 Q788.9219,22.1563 788.7188,21.9531 Q788.5156,21.7656 788.4063,21.25 Q788.3594,20.8906 788.1719,20.7031 Q787.8438,20.3281 787.2344,20.1094 Q786.625,19.8906 786,19.8906 Q785.2344,19.8906 784.5938,20.2188 Q783.9688,20.5469 783.4688,21.2969 Q782.9844,22.0469 782.9844,23.0781 L782.9844,24.1719 Q782.9844,25.4063 783.875,26.2344 Q784.7656,27.0469 786.3594,27.0469 Q787.2969,27.0469 787.9531,26.7969 Q788.3438,26.6406 788.7656,26.2031 Q789.0313,25.9375 789.1719,25.8594 Q789.3281,25.7813 789.5313,25.7813 Q789.8594,25.7813 790.1094,26.0469 Q790.375,26.2969 790.375,26.6406 Q790.375,26.9844 790.0313,27.3906 Q789.5313,27.9688 788.7344,28.2969 Q787.6563,28.75 786.3594,28.75 Q784.8438,28.75 783.6406,28.125 Q782.6563,27.625 781.9688,26.5625 Q781.2813,25.4844 781.2813,24.2031 L781.2813,23.0469 Q781.2813,21.7188 781.8906,20.5781 Q782.5156,19.4219 783.6094,18.8125 Q784.7031,18.1875 785.9375,18.1875 Q786.6719,18.1875 787.3125,18.3594 Q787.9688,18.5156 788.5156,18.875 Z " fill="#000000"/><text fill="#000000" font-family="sans-serif" font-size="14" lengthAdjust="spacing" textLength="79" x="806.25" y="28.7969">Repositories</text><line style="stroke:#181818;stroke-width:0.5;" x1="733.5" x2="925.5" y1="39" y2="39"/><line style="stroke:#181818;stroke-width:0.5;" x1="733.5" x2="925.5" y1="47" y2="47"/><text fill="#000000" font-family="sans-serif" font-size="14" lengthAdjust="spacing" textLength="94" x="738.5" y="66.1074">-Repositories()</text><text fill="#000000" font-family="sans-serif" font-size="14" lengthAdjust="spacing" textLength="182" x="738.5" y="84.7285">+getInstance() : Repositories</text><text fill="#000000" font-family="sans-serif" font-size="14" lengthAdjust="spacing" textLength="87" x="738.5" y="103.3496">+getAgenda()</text><text fill="#000000" font-family="sans-serif" font-size="14" lengthAdjust="spacing" textLength="142" x="738.5" y="121.9707">+getTeamRepository()</text></g><!--class UserSession--><g id="elem_UserSession"><rect codeLine="38" fill="#F1F1F1" height="66.6211" id="UserSession" rx="2.5" ry="2.5" style="stroke:#181818;stroke-width:0.5;" width="113" x="348" y="558"/><ellipse cx="363.9" cy="574" fill="#ADD1B2" rx="11" ry="11" style="stroke:#181818;stroke-width:1.0;"/><path d="M366.6656,569.875 Q366.8219,569.6563 367.0094,569.5469 Q367.1969,569.4375 367.4156,569.4375 Q367.7906,569.4375 368.025,569.7031 Q368.2594,569.9531 368.2594,570.5625 L368.2594,572.0156 Q368.2594,572.625 368.025,572.8906 Q367.7906,573.1563 367.4156,573.1563 Q367.0719,573.1563 366.8688,572.9531 Q366.6656,572.7656 366.5563,572.25 Q366.5094,571.8906 366.3219,571.7031 Q365.9938,571.3281 365.3844,571.1094 Q364.775,570.8906 364.15,570.8906 Q363.3844,570.8906 362.7438,571.2188 Q362.1188,571.5469 361.6188,572.2969 Q361.1344,573.0469 361.1344,574.0781 L361.1344,575.1719 Q361.1344,576.4063 362.025,577.2344 Q362.9156,578.0469 364.5094,578.0469 Q365.4469,578.0469 366.1031,577.7969 Q366.4938,577.6406 366.9156,577.2031 Q367.1813,576.9375 367.3219,576.8594 Q367.4781,576.7813 367.6813,576.7813 Q368.0094,576.7813 368.2594,577.0469 Q368.525,577.2969 368.525,577.6406 Q368.525,577.9844 368.1813,578.3906 Q367.6813,578.9688 366.8844,579.2969 Q365.8063,579.75 364.5094,579.75 Q362.9938,579.75 361.7906,579.125 Q360.8063,578.625 360.1188,577.5625 Q359.4313,576.4844 359.4313,575.2031 L359.4313,574.0469 Q359.4313,572.7188 360.0406,571.5781 Q360.6656,570.4219 361.7594,569.8125 Q362.8531,569.1875 364.0875,569.1875 Q364.8219,569.1875 365.4625,569.3594 Q366.1188,569.5156 366.6656,569.875 Z " fill="#000000"/><text fill="#000000" font-family="sans-serif" font-size="14" lengthAdjust="spacing" textLength="79" x="378.1" y="579.7969">UserSession</text><line style="stroke:#181818;stroke-width:0.5;" x1="349" x2="460" y1="590" y2="590"/><line style="stroke:#181818;stroke-width:0.5;" x1="349" x2="460" y1="598" y2="598"/><text fill="#000000" font-family="sans-serif" font-size="14" lengthAdjust="spacing" textLength="101" x="354" y="617.1074">+getUserEmail()</text></g><!--class Agenda--><g id="elem_Agenda"><rect codeLine="43" fill="#F1F1F1" height="178.3477" id="Agenda" rx="2.5" ry="2.5" style="stroke:#181818;stroke-width:0.5;" width="343" x="1139" y="208"/><ellipse cx="1281.75" cy="224" fill="#ADD1B2" rx="11" ry="11" style="stroke:#181818;stroke-width:1.0;"/><path d="M1284.5156,219.875 Q1284.6719,219.6563 1284.8594,219.5469 Q1285.0469,219.4375 1285.2656,219.4375 Q1285.6406,219.4375 1285.875,219.7031 Q1286.1094,219.9531 1286.1094,220.5625 L1286.1094,222.0156 Q1286.1094,222.625 1285.875,222.8906 Q1285.6406,223.1563 1285.2656,223.1563 Q1284.9219,223.1563 1284.7188,222.9531 Q1284.5156,222.7656 1284.4063,222.25 Q1284.3594,221.8906 1284.1719,221.7031 Q1283.8438,221.3281 1283.2344,221.1094 Q1282.625,220.8906 1282,220.8906 Q1281.2344,220.8906 1280.5938,221.2188 Q1279.9688,221.5469 1279.4688,222.2969 Q1278.9844,223.0469 1278.9844,224.0781 L1278.9844,225.1719 Q1278.9844,226.4063 1279.875,227.2344 Q1280.7656,228.0469 1282.3594,228.0469 Q1283.2969,228.0469 1283.9531,227.7969 Q1284.3438,227.6406 1284.7656,227.2031 Q1285.0313,226.9375 1285.1719,226.8594 Q1285.3281,226.7813 1285.5313,226.7813 Q1285.8594,226.7813 1286.1094,227.0469 Q1286.375,227.2969 1286.375,227.6406 Q1286.375,227.9844 1286.0313,228.3906 Q1285.5313,228.9688 1284.7344,229.2969 Q1283.6563,229.75 1282.3594,229.75 Q1280.8438,229.75 1279.6406,229.125 Q1278.6563,228.625 1277.9688,227.5625 Q1277.2813,226.4844 1277.2813,225.2031 L1277.2813,224.0469 Q1277.2813,222.7188 1277.8906,221.5781 Q1278.5156,220.4219 1279.6094,219.8125 Q1280.7031,219.1875 1281.9375,219.1875 Q1282.6719,219.1875 1283.3125,219.3594 Q1283.9688,219.5156 1284.5156,219.875 Z " fill="#000000"/><text fill="#000000" font-family="sans-serif" font-size="14" lengthAdjust="spacing" textLength="49" x="1302.25" y="229.7969">Agenda</text><line style="stroke:#181818;stroke-width:0.5;" x1="1140" x2="1481" y1="240" y2="240"/><text fill="#000000" font-family="sans-serif" font-size="14" lengthAdjust="spacing" textLength="143" x="1145" y="259.1074">-List&lt;Task&gt; entriesList</text><text fill="#000000" font-family="sans-serif" font-size="14" lengthAdjust="spacing" textLength="218" x="1145" y="277.7285">-List&lt;Task&gt; freeAgendaEntriesList</text><text fill="#000000" font-family="sans-serif" font-size="14" lengthAdjust="spacing" textLength="168" x="1145" y="296.3496">-List&lt;Task&gt; teamSchedule</text><line style="stroke:#181818;stroke-width:0.5;" x1="1140" x2="1481" y1="303.8633" y2="303.8633"/><text fill="#000000" font-family="sans-serif" font-size="14" lengthAdjust="spacing" textLength="164" x="1145" y="322.9707">+getAgendaEntries(email)</text><text fill="#000000" font-family="sans-serif" font-size="14" lengthAdjust="spacing" textLength="127" x="1145" y="341.5918">+getSelectedTask(i)</text><text fill="#000000" font-family="sans-serif" font-size="14" lengthAdjust="spacing" textLength="331" x="1145" y="360.2129">+checkTeamSchedule(selectedTeam, selectedTask)</text><text fill="#000000" font-family="sans-serif" font-size="14" lengthAdjust="spacing" textLength="276" x="1145" y="378.834">+assignTeam(selectedTask, selectedTeam)</text></g><!--class TaskMapper--><g id="elem_TaskMapper"><rect codeLine="54" fill="#F1F1F1" height="103.8633" id="TaskMapper" rx="2.5" ry="2.5" style="stroke:#181818;stroke-width:0.5;" width="274" x="829.5" y="245"/><ellipse cx="922.75" cy="261" fill="#ADD1B2" rx="11" ry="11" style="stroke:#181818;stroke-width:1.0;"/><path d="M925.5156,256.875 Q925.6719,256.6563 925.8594,256.5469 Q926.0469,256.4375 926.2656,256.4375 Q926.6406,256.4375 926.875,256.7031 Q927.1094,256.9531 927.1094,257.5625 L927.1094,259.0156 Q927.1094,259.625 926.875,259.8906 Q926.6406,260.1563 926.2656,260.1563 Q925.9219,260.1563 925.7188,259.9531 Q925.5156,259.7656 925.4063,259.25 Q925.3594,258.8906 925.1719,258.7031 Q924.8438,258.3281 924.2344,258.1094 Q923.625,257.8906 923,257.8906 Q922.2344,257.8906 921.5938,258.2188 Q920.9688,258.5469 920.4688,259.2969 Q919.9844,260.0469 919.9844,261.0781 L919.9844,262.1719 Q919.9844,263.4063 920.875,264.2344 Q921.7656,265.0469 923.3594,265.0469 Q924.2969,265.0469 924.9531,264.7969 Q925.3438,264.6406 925.7656,264.2031 Q926.0313,263.9375 926.1719,263.8594 Q926.3281,263.7813 926.5313,263.7813 Q926.8594,263.7813 927.1094,264.0469 Q927.375,264.2969 927.375,264.6406 Q927.375,264.9844 927.0313,265.3906 Q926.5313,265.9688 925.7344,266.2969 Q924.6563,266.75 923.3594,266.75 Q921.8438,266.75 920.6406,266.125 Q919.6563,265.625 918.9688,264.5625 Q918.2813,263.4844 918.2813,262.2031 L918.2813,261.0469 Q918.2813,259.7188 918.8906,258.5781 Q919.5156,257.4219 920.6094,256.8125 Q921.7031,256.1875 922.9375,256.1875 Q923.6719,256.1875 924.3125,256.3594 Q924.9688,256.5156 925.5156,256.875 Z " fill="#000000"/><text fill="#000000" font-family="sans-serif" font-size="14" lengthAdjust="spacing" textLength="79" x="943.25" y="266.7969">TaskMapper</text><line style="stroke:#181818;stroke-width:0.5;" x1="830.5" x2="1102.5" y1="277" y2="277"/><text fill="#000000" font-family="sans-serif" font-size="14" lengthAdjust="spacing" textLength="262" x="835.5" y="296.1074">-List&lt;TaskDto&gt; freeAgendaEntriesListDto</text><line style="stroke:#181818;stroke-width:0.5;" x1="830.5" x2="1102.5" y1="303.6211" y2="303.6211"/><text fill="#000000" font-family="sans-serif" font-size="14" lengthAdjust="spacing" textLength="200" x="835.5" y="322.7285">+toDTO(freeAgendaEntriesList)</text><text fill="#000000" font-family="sans-serif" font-size="14" lengthAdjust="spacing" textLength="76" x="835.5" y="341.3496">-toDTO(obj)</text></g><!--class TaskDto--><g id="elem_TaskDto"><rect codeLine="61" fill="#F1F1F1" height="159.7266" id="TaskDto" rx="2.5" ry="2.5" style="stroke:#181818;stroke-width:0.5;" width="647" x="643" y="797"/><ellipse cx="935.75" cy="813" fill="#ADD1B2" rx="11" ry="11" style="stroke:#181818;stroke-width:1.0;"/><path d="M938.5156,808.875 Q938.6719,808.6563 938.8594,808.5469 Q939.0469,808.4375 939.2656,808.4375 Q939.6406,808.4375 939.875,808.7031 Q940.1094,808.9531 940.1094,809.5625 L940.1094,811.0156 Q940.1094,811.625 939.875,811.8906 Q939.6406,812.1563 939.2656,812.1563 Q938.9219,812.1563 938.7188,811.9531 Q938.5156,811.7656 938.4063,811.25 Q938.3594,810.8906 938.1719,810.7031 Q937.8438,810.3281 937.2344,810.1094 Q936.625,809.8906 936,809.8906 Q935.2344,809.8906 934.5938,810.2188 Q933.9688,810.5469 933.4688,811.2969 Q932.9844,812.0469 932.9844,813.0781 L932.9844,814.1719 Q932.9844,815.4063 933.875,816.2344 Q934.7656,817.0469 936.3594,817.0469 Q937.2969,817.0469 937.9531,816.7969 Q938.3438,816.6406 938.7656,816.2031 Q939.0313,815.9375 939.1719,815.8594 Q939.3281,815.7813 939.5313,815.7813 Q939.8594,815.7813 940.1094,816.0469 Q940.375,816.2969 940.375,816.6406 Q940.375,816.9844 940.0313,817.3906 Q939.5313,817.9688 938.7344,818.2969 Q937.6563,818.75 936.3594,818.75 Q934.8438,818.75 933.6406,818.125 Q932.6563,817.625 931.9688,816.5625 Q931.2813,815.4844 931.2813,814.2031 L931.2813,813.0469 Q931.2813,811.7188 931.8906,810.5781 Q932.5156,809.4219 933.6094,808.8125 Q934.7031,808.1875 935.9375,808.1875 Q936.6719,808.1875 937.3125,808.3594 Q937.9688,808.5156 938.5156,808.875 Z " fill="#000000"/><text fill="#000000" font-family="sans-serif" font-size="14" lengthAdjust="spacing" textLength="53" x="956.25" y="818.7969">TaskDto</text><line style="stroke:#181818;stroke-width:0.5;" x1="644" x2="1289" y1="829" y2="829"/><text fill="#000000" font-family="sans-serif" font-size="14" lengthAdjust="spacing" textLength="68" x="649" y="848.1074">-String title</text><text fill="#000000" font-family="sans-serif" font-size="14" lengthAdjust="spacing" textLength="115" x="649" y="866.7285">-String description</text><text fill="#000000" font-family="sans-serif" font-size="14" lengthAdjust="spacing" textLength="158" x="649" y="885.3496">-String degreeOfUrgency</text><text fill="#000000" font-family="sans-serif" font-size="14" lengthAdjust="spacing" textLength="135" x="649" y="903.9707">-int expectedDuration</text><text fill="#000000" font-family="sans-serif" font-size="14" lengthAdjust="spacing" textLength="144" x="649" y="922.5918">-Calendar startingDate</text><line style="stroke:#181818;stroke-width:0.5;" x1="644" x2="1289" y1="930.1055" y2="930.1055"/><text fill="#000000" font-family="sans-serif" font-size="14" lengthAdjust="spacing" textLength="635" x="649" y="949.2129">+TaskDto(title, description, degreeOfUrgency, expectedDuration, selectedGreenSpace, startingDate)</text></g><!--class Task--><g id="elem_Task"><rect codeLine="71" fill="#F1F1F1" height="252.832" id="Task" rx="2.5" ry="2.5" style="stroke:#181818;stroke-width:0.5;" width="222" x="1165.5" y="465"/><ellipse cx="1256.75" cy="481" fill="#ADD1B2" rx="11" ry="11" style="stroke:#181818;stroke-width:1.0;"/><path d="M1259.5156,476.875 Q1259.6719,476.6563 1259.8594,476.5469 Q1260.0469,476.4375 1260.2656,476.4375 Q1260.6406,476.4375 1260.875,476.7031 Q1261.1094,476.9531 1261.1094,477.5625 L1261.1094,479.0156 Q1261.1094,479.625 1260.875,479.8906 Q1260.6406,480.1563 1260.2656,480.1563 Q1259.9219,480.1563 1259.7188,479.9531 Q1259.5156,479.7656 1259.4063,479.25 Q1259.3594,478.8906 1259.1719,478.7031 Q1258.8438,478.3281 1258.2344,478.1094 Q1257.625,477.8906 1257,477.8906 Q1256.2344,477.8906 1255.5938,478.2188 Q1254.9688,478.5469 1254.4688,479.2969 Q1253.9844,480.0469 1253.9844,481.0781 L1253.9844,482.1719 Q1253.9844,483.4063 1254.875,484.2344 Q1255.7656,485.0469 1257.3594,485.0469 Q1258.2969,485.0469 1258.9531,484.7969 Q1259.3438,484.6406 1259.7656,484.2031 Q1260.0313,483.9375 1260.1719,483.8594 Q1260.3281,483.7813 1260.5313,483.7813 Q1260.8594,483.7813 1261.1094,484.0469 Q1261.375,484.2969 1261.375,484.6406 Q1261.375,484.9844 1261.0313,485.3906 Q1260.5313,485.9688 1259.7344,486.2969 Q1258.6563,486.75 1257.3594,486.75 Q1255.8438,486.75 1254.6406,486.125 Q1253.6563,485.625 1252.9688,484.5625 Q1252.2813,483.4844 1252.2813,482.2031 L1252.2813,481.0469 Q1252.2813,479.7188 1252.8906,478.5781 Q1253.5156,477.4219 1254.6094,476.8125 Q1255.7031,476.1875 1256.9375,476.1875 Q1257.6719,476.1875 1258.3125,476.3594 Q1258.9688,476.5156 1259.5156,476.875 Z " fill="#000000"/><text fill="#000000" font-family="sans-serif" font-size="14" lengthAdjust="spacing" textLength="31" x="1277.25" y="486.7969">Task</text><line style="stroke:#181818;stroke-width:0.5;" x1="1166.5" x2="1386.5" y1="497" y2="497"/><text fill="#000000" font-family="sans-serif" font-size="14" lengthAdjust="spacing" textLength="68" x="1171.5" y="516.1074">-String title</text><text fill="#000000" font-family="sans-serif" font-size="14" lengthAdjust="spacing" textLength="115" x="1171.5" y="534.7285">-String description</text><text fill="#000000" font-family="sans-serif" font-size="14" lengthAdjust="spacing" textLength="158" x="1171.5" y="553.3496">-String degreeOfUrgency</text><text fill="#000000" font-family="sans-serif" font-size="14" lengthAdjust="spacing" textLength="135" x="1171.5" y="571.9707">-int expectedDuration</text><text fill="#000000" font-family="sans-serif" font-size="14" lengthAdjust="spacing" textLength="84" x="1171.5" y="590.5918">-String status</text><text fill="#000000" font-family="sans-serif" font-size="14" lengthAdjust="spacing" textLength="144" x="1171.5" y="609.2129">-Calendar startingDate</text><line style="stroke:#181818;stroke-width:0.5;" x1="1166.5" x2="1386.5" y1="616.7266" y2="616.7266"/><text fill="#000000" font-family="sans-serif" font-size="14" lengthAdjust="spacing" textLength="77" x="1171.5" y="635.834">+hasTeam()</text><text fill="#000000" font-family="sans-serif" font-size="14" lengthAdjust="spacing" textLength="137" x="1171.5" y="654.4551">+hasUserEmail(email)</text><text fill="#000000" font-family="sans-serif" font-size="14" lengthAdjust="spacing" textLength="210" x="1171.5" y="673.0762">+belongsToTeam(selectedTeam)</text><text fill="#000000" font-family="sans-serif" font-size="14" lengthAdjust="spacing" textLength="172" x="1171.5" y="691.6973">+hasConflict(selectedTask)</text><text fill="#000000" font-family="sans-serif" font-size="14" lengthAdjust="spacing" textLength="184" x="1171.5" y="710.3184">+assignTeam(selectedTeam)</text></g><!--class TeamRepository--><g id="elem_TeamRepository"><rect codeLine="86" fill="#F1F1F1" height="103.8633" id="TeamRepository" rx="2.5" ry="2.5" style="stroke:#181818;stroke-width:0.5;" width="155" x="639" y="245"/><ellipse cx="662.55" cy="261" fill="#ADD1B2" rx="11" ry="11" style="stroke:#181818;stroke-width:1.0;"/><path d="M665.3156,256.875 Q665.4719,256.6563 665.6594,256.5469 Q665.8469,256.4375 666.0656,256.4375 Q666.4406,256.4375 666.675,256.7031 Q666.9094,256.9531 666.9094,257.5625 L666.9094,259.0156 Q666.9094,259.625 666.675,259.8906 Q666.4406,260.1563 666.0656,260.1563 Q665.7219,260.1563 665.5188,259.9531 Q665.3156,259.7656 665.2063,259.25 Q665.1594,258.8906 664.9719,258.7031 Q664.6438,258.3281 664.0344,258.1094 Q663.425,257.8906 662.8,257.8906 Q662.0344,257.8906 661.3938,258.2188 Q660.7688,258.5469 660.2688,259.2969 Q659.7844,260.0469 659.7844,261.0781 L659.7844,262.1719 Q659.7844,263.4063 660.675,264.2344 Q661.5656,265.0469 663.1594,265.0469 Q664.0969,265.0469 664.7531,264.7969 Q665.1438,264.6406 665.5656,264.2031 Q665.8313,263.9375 665.9719,263.8594 Q666.1281,263.7813 666.3313,263.7813 Q666.6594,263.7813 666.9094,264.0469 Q667.175,264.2969 667.175,264.6406 Q667.175,264.9844 666.8313,265.3906 Q666.3313,265.9688 665.5344,266.2969 Q664.4563,266.75 663.1594,266.75 Q661.6438,266.75 660.4406,266.125 Q659.4563,265.625 658.7688,264.5625 Q658.0813,263.4844 658.0813,262.2031 L658.0813,261.0469 Q658.0813,259.7188 658.6906,258.5781 Q659.3156,257.4219 660.4094,256.8125 Q661.5031,256.1875 662.7375,256.1875 Q663.4719,256.1875 664.1125,256.3594 Q664.7688,256.5156 665.3156,256.875 Z " fill="#000000"/><text fill="#000000" font-family="sans-serif" font-size="14" lengthAdjust="spacing" textLength="104" x="678.45" y="266.7969">TeamRepository</text><line style="stroke:#181818;stroke-width:0.5;" x1="640" x2="793" y1="277" y2="277"/><text fill="#000000" font-family="sans-serif" font-size="14" lengthAdjust="spacing" textLength="143" x="645" y="296.1074">-List&lt;Team&gt; teamsList</text><line style="stroke:#181818;stroke-width:0.5;" x1="640" x2="793" y1="303.6211" y2="303.6211"/><text fill="#000000" font-family="sans-serif" font-size="14" lengthAdjust="spacing" textLength="81" x="645" y="322.7285">+getTeams()</text><text fill="#000000" font-family="sans-serif" font-size="14" lengthAdjust="spacing" textLength="132" x="645" y="341.3496">+getSelectedTeam(i)</text></g><!--class TeamMapper--><g id="elem_TeamMapper"><rect codeLine="93" fill="#F1F1F1" height="103.8633" id="TeamMapper" rx="2.5" ry="2.5" style="stroke:#181818;stroke-width:0.5;" width="199" x="68" y="245"/><ellipse cx="121.25" cy="261" fill="#ADD1B2" rx="11" ry="11" style="stroke:#181818;stroke-width:1.0;"/><path d="M124.0156,256.875 Q124.1719,256.6563 124.3594,256.5469 Q124.5469,256.4375 124.7656,256.4375 Q125.1406,256.4375 125.375,256.7031 Q125.6094,256.9531 125.6094,257.5625 L125.6094,259.0156 Q125.6094,259.625 125.375,259.8906 Q125.1406,260.1563 124.7656,260.1563 Q124.4219,260.1563 124.2188,259.9531 Q124.0156,259.7656 123.9063,259.25 Q123.8594,258.8906 123.6719,258.7031 Q123.3438,258.3281 122.7344,258.1094 Q122.125,257.8906 121.5,257.8906 Q120.7344,257.8906 120.0938,258.2188 Q119.4688,258.5469 118.9688,259.2969 Q118.4844,260.0469 118.4844,261.0781 L118.4844,262.1719 Q118.4844,263.4063 119.375,264.2344 Q120.2656,265.0469 121.8594,265.0469 Q122.7969,265.0469 123.4531,264.7969 Q123.8438,264.6406 124.2656,264.2031 Q124.5313,263.9375 124.6719,263.8594 Q124.8281,263.7813 125.0313,263.7813 Q125.3594,263.7813 125.6094,264.0469 Q125.875,264.2969 125.875,264.6406 Q125.875,264.9844 125.5313,265.3906 Q125.0313,265.9688 124.2344,266.2969 Q123.1563,266.75 121.8594,266.75 Q120.3438,266.75 119.1406,266.125 Q118.1563,265.625 117.4688,264.5625 Q116.7813,263.4844 116.7813,262.2031 L116.7813,261.0469 Q116.7813,259.7188 117.3906,258.5781 Q118.0156,257.4219 119.1094,256.8125 Q120.2031,256.1875 121.4375,256.1875 Q122.1719,256.1875 122.8125,256.3594 Q123.4688,256.5156 124.0156,256.875 Z " fill="#000000"/><text fill="#000000" font-family="sans-serif" font-size="14" lengthAdjust="spacing" textLength="84" x="141.75" y="266.7969">TeamMapper</text><line style="stroke:#181818;stroke-width:0.5;" x1="69" x2="266" y1="277" y2="277"/><text fill="#000000" font-family="sans-serif" font-size="14" lengthAdjust="spacing" textLength="187" x="74" y="296.1074">-List&lt;TeamDto&gt; teamsListDto</text><line style="stroke:#181818;stroke-width:0.5;" x1="69" x2="266" y1="303.6211" y2="303.6211"/><text fill="#000000" font-family="sans-serif" font-size="14" lengthAdjust="spacing" textLength="120" x="74" y="322.7285">+toDTO(teamsList)</text><text fill="#000000" font-family="sans-serif" font-size="14" lengthAdjust="spacing" textLength="76" x="74" y="341.3496">-toDTO(obj)</text></g><!--class TeamDto--><g id="elem_TeamDto"><rect codeLine="100" fill="#F1F1F1" height="85.2422" id="TeamDto" rx="2.5" ry="2.5" style="stroke:#181818;stroke-width:0.5;" width="219" x="7" y="549"/><ellipse cx="83.25" cy="565" fill="#ADD1B2" rx="11" ry="11" style="stroke:#181818;stroke-width:1.0;"/><path d="M86.0156,560.875 Q86.1719,560.6563 86.3594,560.5469 Q86.5469,560.4375 86.7656,560.4375 Q87.1406,560.4375 87.375,560.7031 Q87.6094,560.9531 87.6094,561.5625 L87.6094,563.0156 Q87.6094,563.625 87.375,563.8906 Q87.1406,564.1563 86.7656,564.1563 Q86.4219,564.1563 86.2188,563.9531 Q86.0156,563.7656 85.9063,563.25 Q85.8594,562.8906 85.6719,562.7031 Q85.3438,562.3281 84.7344,562.1094 Q84.125,561.8906 83.5,561.8906 Q82.7344,561.8906 82.0938,562.2188 Q81.4688,562.5469 80.9688,563.2969 Q80.4844,564.0469 80.4844,565.0781 L80.4844,566.1719 Q80.4844,567.4063 81.375,568.2344 Q82.2656,569.0469 83.8594,569.0469 Q84.7969,569.0469 85.4531,568.7969 Q85.8438,568.6406 86.2656,568.2031 Q86.5313,567.9375 86.6719,567.8594 Q86.8281,567.7813 87.0313,567.7813 Q87.3594,567.7813 87.6094,568.0469 Q87.875,568.2969 87.875,568.6406 Q87.875,568.9844 87.5313,569.3906 Q87.0313,569.9688 86.2344,570.2969 Q85.1563,570.75 83.8594,570.75 Q82.3438,570.75 81.1406,570.125 Q80.1563,569.625 79.4688,568.5625 Q78.7813,567.4844 78.7813,566.2031 L78.7813,565.0469 Q78.7813,563.7188 79.3906,562.5781 Q80.0156,561.4219 81.1094,560.8125 Q82.2031,560.1875 83.4375,560.1875 Q84.1719,560.1875 84.8125,560.3594 Q85.4688,560.5156 86.0156,560.875 Z " fill="#000000"/><text fill="#000000" font-family="sans-serif" font-size="14" lengthAdjust="spacing" textLength="58" x="103.75" y="570.7969">TeamDto</text><line style="stroke:#181818;stroke-width:0.5;" x1="8" x2="225" y1="581" y2="581"/><text fill="#000000" font-family="sans-serif" font-size="14" lengthAdjust="spacing" textLength="207" x="13" y="600.1074">-List&lt;Collaborator&gt; collaborators</text><line style="stroke:#181818;stroke-width:0.5;" x1="8" x2="225" y1="607.6211" y2="607.6211"/><text fill="#000000" font-family="sans-serif" font-size="14" lengthAdjust="spacing" textLength="158" x="13" y="626.7285">+TeamDto(collaborators)</text></g><!--class Team--><g id="elem_Team"><rect codeLine="106" fill="#F1F1F1" height="66.6211" id="Team" rx="2.5" ry="2.5" style="stroke:#181818;stroke-width:0.5;" width="219" x="389" y="843.5"/><ellipse cx="476.25" cy="859.5" fill="#ADD1B2" rx="11" ry="11" style="stroke:#181818;stroke-width:1.0;"/><path d="M479.0156,855.375 Q479.1719,855.1563 479.3594,855.0469 Q479.5469,854.9375 479.7656,854.9375 Q480.1406,854.9375 480.375,855.2031 Q480.6094,855.4531 480.6094,856.0625 L480.6094,857.5156 Q480.6094,858.125 480.375,858.3906 Q480.1406,858.6563 479.7656,858.6563 Q479.4219,858.6563 479.2188,858.4531 Q479.0156,858.2656 478.9063,857.75 Q478.8594,857.3906 478.6719,857.2031 Q478.3438,856.8281 477.7344,856.6094 Q477.125,856.3906 476.5,856.3906 Q475.7344,856.3906 475.0938,856.7188 Q474.4688,857.0469 473.9688,857.7969 Q473.4844,858.5469 473.4844,859.5781 L473.4844,860.6719 Q473.4844,861.9063 474.375,862.7344 Q475.2656,863.5469 476.8594,863.5469 Q477.7969,863.5469 478.4531,863.2969 Q478.8438,863.1406 479.2656,862.7031 Q479.5313,862.4375 479.6719,862.3594 Q479.8281,862.2813 480.0313,862.2813 Q480.3594,862.2813 480.6094,862.5469 Q480.875,862.7969 480.875,863.1406 Q480.875,863.4844 480.5313,863.8906 Q480.0313,864.4688 479.2344,864.7969 Q478.1563,865.25 476.8594,865.25 Q475.3438,865.25 474.1406,864.625 Q473.1563,864.125 472.4688,863.0625 Q471.7813,861.9844 471.7813,860.7031 L471.7813,859.5469 Q471.7813,858.2188 472.3906,857.0781 Q473.0156,855.9219 474.1094,855.3125 Q475.2031,854.6875 476.4375,854.6875 Q477.1719,854.6875 477.8125,854.8594 Q478.4688,855.0156 479.0156,855.375 Z " fill="#000000"/><text fill="#000000" font-family="sans-serif" font-size="14" lengthAdjust="spacing" textLength="36" x="496.75" y="865.2969">Team</text><line style="stroke:#181818;stroke-width:0.5;" x1="390" x2="607" y1="875.5" y2="875.5"/><text fill="#000000" font-family="sans-serif" font-size="14" lengthAdjust="spacing" textLength="207" x="395" y="894.6074">-List&lt;Collaborator&gt; collaborators</text><line style="stroke:#181818;stroke-width:0.5;" x1="390" x2="607" y1="902.1211" y2="902.1211"/></g><!--class GreenSpace--><g id="elem_GreenSpace"><rect codeLine="111" fill="#F1F1F1" height="159.7266" id="GreenSpace" rx="2.5" ry="2.5" style="stroke:#181818;stroke-width:0.5;" width="149" x="1080" y="1018"/><ellipse cx="1111.65" cy="1034" fill="#ADD1B2" rx="11" ry="11" style="stroke:#181818;stroke-width:1.0;"/><path d="M1114.4156,1029.875 Q1114.5719,1029.6563 1114.7594,1029.5469 Q1114.9469,1029.4375 1115.1656,1029.4375 Q1115.5406,1029.4375 1115.775,1029.7031 Q1116.0094,1029.9531 1116.0094,1030.5625 L1116.0094,1032.0156 Q1116.0094,1032.625 1115.775,1032.8906 Q1115.5406,1033.1563 1115.1656,1033.1563 Q1114.8219,1033.1563 1114.6188,1032.9531 Q1114.4156,1032.7656 1114.3063,1032.25 Q1114.2594,1031.8906 1114.0719,1031.7031 Q1113.7438,1031.3281 1113.1344,1031.1094 Q1112.525,1030.8906 1111.9,1030.8906 Q1111.1344,1030.8906 1110.4938,1031.2188 Q1109.8688,1031.5469 1109.3688,1032.2969 Q1108.8844,1033.0469 1108.8844,1034.0781 L1108.8844,1035.1719 Q1108.8844,1036.4063 1109.775,1037.2344 Q1110.6656,1038.0469 1112.2594,1038.0469 Q1113.1969,1038.0469 1113.8531,1037.7969 Q1114.2438,1037.6406 1114.6656,1037.2031 Q1114.9313,1036.9375 1115.0719,1036.8594 Q1115.2281,1036.7813 1115.4313,1036.7813 Q1115.7594,1036.7813 1116.0094,1037.0469 Q1116.275,1037.2969 1116.275,1037.6406 Q1116.275,1037.9844 1115.9313,1038.3906 Q1115.4313,1038.9688 1114.6344,1039.2969 Q1113.5563,1039.75 1112.2594,1039.75 Q1110.7438,1039.75 1109.5406,1039.125 Q1108.5563,1038.625 1107.8688,1037.5625 Q1107.1813,1036.4844 1107.1813,1035.2031 L1107.1813,1034.0469 Q1107.1813,1032.7188 1107.7906,1031.5781 Q1108.4156,1030.4219 1109.5094,1029.8125 Q1110.6031,1029.1875 1111.8375,1029.1875 Q1112.5719,1029.1875 1113.2125,1029.3594 Q1113.8688,1029.5156 1114.4156,1029.875 Z " fill="#000000"/><text fill="#000000" font-family="sans-serif" font-size="14" lengthAdjust="spacing" textLength="80" x="1129.35" y="1039.7969">GreenSpace</text><line style="stroke:#181818;stroke-width:0.5;" x1="1081" x2="1228" y1="1050" y2="1050"/><text fill="#000000" font-family="sans-serif" font-size="14" lengthAdjust="spacing" textLength="81" x="1086" y="1069.1074">-String name</text><text fill="#000000" font-family="sans-serif" font-size="14" lengthAdjust="spacing" textLength="73" x="1086" y="1087.7285">-String type</text><text fill="#000000" font-family="sans-serif" font-size="14" lengthAdjust="spacing" textLength="53" x="1086" y="1106.3496">-int area</text><text fill="#000000" font-family="sans-serif" font-size="14" lengthAdjust="spacing" textLength="97" x="1086" y="1124.9707">-String address</text><text fill="#000000" font-family="sans-serif" font-size="14" lengthAdjust="spacing" textLength="106" x="1086" y="1143.5918">-String gsmEmail</text><line style="stroke:#181818;stroke-width:0.5;" x1="1081" x2="1228" y1="1151.1055" y2="1151.1055"/><text fill="#000000" font-family="sans-serif" font-size="14" lengthAdjust="spacing" textLength="137" x="1086" y="1170.2129">+hasUserEmail(email)</text></g><!--class EmailGenerator--><g id="elem_EmailGenerator"><rect codeLine="121" fill="#F1F1F1" height="66.6211" id="EmailGenerator" rx="2.5" ry="2.5" style="stroke:#181818;stroke-width:0.5;" width="299" x="1423" y="843.5"/><ellipse cx="1518.75" cy="859.5" fill="#B4A7E5" rx="11" ry="11" style="stroke:#181818;stroke-width:1.0;"/><path d="M1519.7031,856.1406 L1519.7031,862.7969 L1521.4219,862.7969 Q1522.0313,862.7969 1522.2969,863.0313 Q1522.5625,863.2656 1522.5625,863.6563 Q1522.5625,864.0313 1522.2969,864.2656 Q1522.0313,864.5 1521.4219,864.5 L1516.2813,864.5 Q1515.6719,864.5 1515.4063,864.2656 Q1515.1406,864.0313 1515.1406,863.6406 Q1515.1406,863.2656 1515.4063,863.0313 Q1515.6719,862.7969 1516.2813,862.7969 L1518,862.7969 L1518,856.1406 L1516.2813,856.1406 Q1515.6719,856.1406 1515.4063,855.9063 Q1515.1406,855.6719 1515.1406,855.2813 Q1515.1406,854.9063 1515.4063,854.6719 Q1515.6719,854.4375 1516.2813,854.4375 L1521.4219,854.4375 Q1522.0313,854.4375 1522.2969,854.6719 Q1522.5625,854.9063 1522.5625,855.2813 Q1522.5625,855.6719 1522.2969,855.9063 Q1522.0313,856.1406 1521.4219,856.1406 L1519.7031,856.1406 Z " fill="#000000"/><text fill="#000000" font-family="sans-serif" font-size="14" font-style="italic" lengthAdjust="spacing" textLength="99" x="1539.25" y="865.2969">EmailGenerator</text><line style="stroke:#181818;stroke-width:0.5;" x1="1424" x2="1721" y1="875.5" y2="875.5"/><line style="stroke:#181818;stroke-width:0.5;" x1="1424" x2="1721" y1="883.5" y2="883.5"/><text fill="#000000" font-family="sans-serif" font-size="14" lengthAdjust="spacing" textLength="287" x="1429" y="902.6074">+sendEmail(title, startingDate, selectedTeam)</text></g><!--class EmailThroughGmail--><g id="elem_EmailThroughGmail"><rect codeLine="126" fill="#F1F1F1" height="66.6211" id="EmailThroughGmail" rx="2.5" ry="2.5" style="stroke:#181818;stroke-width:0.5;" width="299" x="1423" y="558"/><ellipse cx="1506.25" cy="574" fill="#ADD1B2" rx="11" ry="11" style="stroke:#181818;stroke-width:1.0;"/><path d="M1509.0156,569.875 Q1509.1719,569.6563 1509.3594,569.5469 Q1509.5469,569.4375 1509.7656,569.4375 Q1510.1406,569.4375 1510.375,569.7031 Q1510.6094,569.9531 1510.6094,570.5625 L1510.6094,572.0156 Q1510.6094,572.625 1510.375,572.8906 Q1510.1406,573.1563 1509.7656,573.1563 Q1509.4219,573.1563 1509.2188,572.9531 Q1509.0156,572.7656 1508.9063,572.25 Q1508.8594,571.8906 1508.6719,571.7031 Q1508.3438,571.3281 1507.7344,571.1094 Q1507.125,570.8906 1506.5,570.8906 Q1505.7344,570.8906 1505.0938,571.2188 Q1504.4688,571.5469 1503.9688,572.2969 Q1503.4844,573.0469 1503.4844,574.0781 L1503.4844,575.1719 Q1503.4844,576.4063 1504.375,577.2344 Q1505.2656,578.0469 1506.8594,578.0469 Q1507.7969,578.0469 1508.4531,577.7969 Q1508.8438,577.6406 1509.2656,577.2031 Q1509.5313,576.9375 1509.6719,576.8594 Q1509.8281,576.7813 1510.0313,576.7813 Q1510.3594,576.7813 1510.6094,577.0469 Q1510.875,577.2969 1510.875,577.6406 Q1510.875,577.9844 1510.5313,578.3906 Q1510.0313,578.9688 1509.2344,579.2969 Q1508.1563,579.75 1506.8594,579.75 Q1505.3438,579.75 1504.1406,579.125 Q1503.1563,578.625 1502.4688,577.5625 Q1501.7813,576.4844 1501.7813,575.2031 L1501.7813,574.0469 Q1501.7813,572.7188 1502.3906,571.5781 Q1503.0156,570.4219 1504.1094,569.8125 Q1505.2031,569.1875 1506.4375,569.1875 Q1507.1719,569.1875 1507.8125,569.3594 Q1508.4688,569.5156 1509.0156,569.875 Z " fill="#000000"/><text fill="#000000" font-family="sans-serif" font-size="14" lengthAdjust="spacing" textLength="124" x="1526.75" y="579.7969">EmailThroughGmail</text><line style="stroke:#181818;stroke-width:0.5;" x1="1424" x2="1721" y1="590" y2="590"/><line style="stroke:#181818;stroke-width:0.5;" x1="1424" x2="1721" y1="598" y2="598"/><text fill="#000000" font-family="sans-serif" font-size="14" lengthAdjust="spacing" textLength="287" x="1429" y="617.1074">+sendEmail(title, startingDate, selectedTeam)</text></g><!--class EmailThroughDEIService--><g id="elem_EmailThroughDEIService"><rect codeLine="131" fill="#F1F1F1" height="66.6211" id="EmailThroughDEIService" rx="2.5" ry="2.5" style="stroke:#181818;stroke-width:0.5;" width="299" x="1757" y="558"/><ellipse cx="1823.75" cy="574" fill="#ADD1B2" rx="11" ry="11" style="stroke:#181818;stroke-width:1.0;"/><path d="M1826.5156,569.875 Q1826.6719,569.6563 1826.8594,569.5469 Q1827.0469,569.4375 1827.2656,569.4375 Q1827.6406,569.4375 1827.875,569.7031 Q1828.1094,569.9531 1828.1094,570.5625 L1828.1094,572.0156 Q1828.1094,572.625 1827.875,572.8906 Q1827.6406,573.1563 1827.2656,573.1563 Q1826.9219,573.1563 1826.7188,572.9531 Q1826.5156,572.7656 1826.4063,572.25 Q1826.3594,571.8906 1826.1719,571.7031 Q1825.8438,571.3281 1825.2344,571.1094 Q1824.625,570.8906 1824,570.8906 Q1823.2344,570.8906 1822.5938,571.2188 Q1821.9688,571.5469 1821.4688,572.2969 Q1820.9844,573.0469 1820.9844,574.0781 L1820.9844,575.1719 Q1820.9844,576.4063 1821.875,577.2344 Q1822.7656,578.0469 1824.3594,578.0469 Q1825.2969,578.0469 1825.9531,577.7969 Q1826.3438,577.6406 1826.7656,577.2031 Q1827.0313,576.9375 1827.1719,576.8594 Q1827.3281,576.7813 1827.5313,576.7813 Q1827.8594,576.7813 1828.1094,577.0469 Q1828.375,577.2969 1828.375,577.6406 Q1828.375,577.9844 1828.0313,578.3906 Q1827.5313,578.9688 1826.7344,579.2969 Q1825.6563,579.75 1824.3594,579.75 Q1822.8438,579.75 1821.6406,579.125 Q1820.6563,578.625 1819.9688,577.5625 Q1819.2813,576.4844 1819.2813,575.2031 L1819.2813,574.0469 Q1819.2813,572.7188 1819.8906,571.5781 Q1820.5156,570.4219 1821.6094,569.8125 Q1822.7031,569.1875 1823.9375,569.1875 Q1824.6719,569.1875 1825.3125,569.3594 Q1825.9688,569.5156 1826.5156,569.875 Z " fill="#000000"/><text fill="#000000" font-family="sans-serif" font-size="14" lengthAdjust="spacing" textLength="157" x="1844.25" y="579.7969">EmailThroughDEIService</text><line style="stroke:#181818;stroke-width:0.5;" x1="1758" x2="2055" y1="590" y2="590"/><line style="stroke:#181818;stroke-width:0.5;" x1="1758" x2="2055" y1="598" y2="598"/><text fill="#000000" font-family="sans-serif" font-size="14" lengthAdjust="spacing" textLength="287" x="1763" y="617.1074">+sendEmail(title, startingDate, selectedTeam)</text></g><!--link Repositories to Repositories--><g id="link_Repositories_Repositories"><path codeLine="136" d="M926.78,49.91 C946.98,51.81 961.5,57.84 961.5,68 C961.5,78.16 952.9536,83.6281 932.7536,85.5281 " fill="none" id="Repositories-to-Repositories" style="stroke:#181818;stroke-width:1.0;"/><polygon fill="#181818" points="926.78,86.09,936.115,89.2296,931.758,85.6218,935.3659,81.2648,926.78,86.09" style="stroke:#181818;stroke-width:1.0;"/><text fill="#000000" font-family="sans-serif" font-size="13" lengthAdjust="spacing" textLength="49" x="967.5" y="73.5283">instance</text></g><!--link ApplicationSession to ApplicationSession--><g id="link_ApplicationSession_ApplicationSession"><path codeLine="137" d="M525.16,273.23 C545,274.64 560,282.56 560,297 C560,311.44 550.9849,318.9347 531.1449,320.3447 " fill="none" id="ApplicationSession-to-ApplicationSession" style="stroke:#181818;stroke-width:1.0;"/><polygon fill="#181818" points="525.16,320.77,534.4209,324.1219,530.1474,320.4156,533.8538,316.1421,525.16,320.77" style="stroke:#181818;stroke-width:1.0;"/><text fill="#000000" font-family="sans-serif" font-size="13" lengthAdjust="spacing" textLength="49" x="566" y="302.5283">instance</text></g><!--link AssignTeamUI to AssignTeamController--><g id="link_AssignTeamUI_AssignTeamController"><path codeLine="139" d="M421.55,68 C424.3,68 435.14,68 450.32,68 " fill="none" id="AssignTeamUI-to-AssignTeamController" style="stroke:#181818;stroke-width:1.0;stroke-dasharray:7.0,7.0;"/><polygon fill="#181818" points="456.32,68,447.32,64,451.32,68,447.32,72,456.32,68" style="stroke:#181818;stroke-width:1.0;"/></g><!--link AssignTeamController to Repositories--><g id="link_AssignTeamController_Repositories"><path codeLine="141" d="M628.61,68 C661.3,68 692.75,68 726.39,68 " fill="none" id="AssignTeamController-to-Repositories" style="stroke:#181818;stroke-width:1.0;stroke-dasharray:7.0,7.0;"/><polygon fill="#181818" points="732.39,68,723.39,64,727.39,68,723.39,72,732.39,68" style="stroke:#181818;stroke-width:1.0;"/><text fill="#000000" font-family="sans-serif" font-size="13" lengthAdjust="spacing" textLength="67" x="647" y="61.0283">repositories</text></g><!--link Repositories to TeamRepository--><g id="link_Repositories_TeamRepository"><path codeLine="143" d="M799.51,129.24 C781.6,165.23 761.7532,205.0784 744.6932,239.3584 " fill="none" id="Repositories-to-TeamRepository" style="stroke:#181818;stroke-width:1.0;"/><polygon fill="#181818" points="742.02,244.73,749.6109,238.4548,744.2477,240.2537,742.4488,234.8905,742.02,244.73" style="stroke:#181818;stroke-width:1.0;"/><text fill="#000000" font-family="sans-serif" font-size="13" lengthAdjust="spacing" textLength="7" x="737.9789" y="233.6211">1</text></g><!--link Repositories to Agenda--><g id="link_Repositories_Agenda"><path codeLine="144" d="M926.93,94.79 C1027.4,121.39 1169.5,159 1169.5,159 C1169.5,159 1188.0271,176.9985 1215.3071,203.5085 " fill="none" id="Repositories-to-Agenda" style="stroke:#181818;stroke-width:1.0;"/><polygon fill="#181818" points="1219.61,207.69,1215.9433,198.5492,1216.0242,204.2054,1210.3679,204.2864,1219.61,207.69" style="stroke:#181818;stroke-width:1.0;"/><text fill="#000000" font-family="sans-serif" font-size="13" lengthAdjust="spacing" textLength="7" x="1204.7933" y="196.6161">1</text></g><!--link AssignTeamController to ApplicationSession--><g id="link_AssignTeamController_ApplicationSession"><path codeLine="146" d="M517.82,129.24 C501.68,168.64 483.2747,213.5679 468.9147,248.6179 " fill="none" id="AssignTeamController-to-ApplicationSession" style="stroke:#181818;stroke-width:1.0;stroke-dasharray:7.0,7.0;"/><polygon fill="#181818" points="466.64,254.17,473.7534,247.3583,468.5356,249.5433,466.3506,244.3254,466.64,254.17" style="stroke:#181818;stroke-width:1.0;"/></g><!--link AssignTeamController to UserSession--><g id="link_AssignTeamController_UserSession"><path codeLine="147" d="M462,129.16 C411.73,166.73 356.5,208 356.5,208 C356.5,208 356.5,386 356.5,386 C356.5,386 381.8486,493.9988 395.4186,551.7988 " fill="none" id="AssignTeamController-to-UserSession" style="stroke:#181818;stroke-width:1.0;stroke-dasharray:7.0,7.0;"/><polygon fill="#181818" points="396.79,557.64,398.6271,547.964,395.6472,552.7724,390.8388,549.7925,396.79,557.64" style="stroke:#181818;stroke-width:1.0;"/></g><!--link ApplicationSession to UserSession--><g id="link_ApplicationSession_UserSession"><path codeLine="148" d="M443.1,339.6 C434.07,398.27 418.7021,498.1997 410.4721,551.7097 " fill="none" id="ApplicationSession-to-UserSession" style="stroke:#181818;stroke-width:1.0;"/><polygon fill="#181818" points="409.56,557.64,414.8817,549.3527,410.3201,552.6981,406.9746,548.1365,409.56,557.64" style="stroke:#181818;stroke-width:1.0;"/><text fill="#000000" font-family="sans-serif" font-size="13" lengthAdjust="spacing" textLength="72" x="432.5" y="431.0283">userSession</text><text fill="#000000" font-family="sans-serif" font-size="13" lengthAdjust="spacing" textLength="7" x="402.8574" y="546.6573">1</text></g><!--link AssignTeamController to Agenda--><g id="link_AssignTeamController_Agenda"><path codeLine="149" d="M628.75,99.09 C671.67,114.06 714.5,129 714.5,129 C714.5,129 1120.5,208 1120.5,208 C1120.5,208 1122.0165,208.6965 1133.2765,213.9165 " fill="none" id="AssignTeamController-to-Agenda" style="stroke:#181818;stroke-width:1.0;stroke-dasharray:7.0,7.0;"/><polygon fill="#181818" points="1138.72,216.44,1132.2371,209.0257,1134.1837,214.337,1128.8724,216.2837,1138.72,216.44" style="stroke:#181818;stroke-width:1.0;"/><text fill="#000000" font-family="sans-serif" font-size="13" lengthAdjust="spacing" textLength="42" x="967.5" y="174.0283">agenda</text></g><!--link AssignTeamController to TeamRepository--><g id="link_AssignTeamController_TeamRepository"><path codeLine="150" d="M588.67,129.24 C616.26,165.23 647.2804,205.6876 673.5504,239.9676 " fill="none" id="AssignTeamController-to-TeamRepository" style="stroke:#181818;stroke-width:1.0;stroke-dasharray:7.0,7.0;"/><polygon fill="#181818" points="677.2,244.73,674.9005,235.1533,674.1587,240.7613,668.5507,240.0195,677.2,244.73" style="stroke:#181818;stroke-width:1.0;"/><text fill="#000000" font-family="sans-serif" font-size="13" lengthAdjust="spacing" textLength="91" x="625.5" y="174.0283">teamRepository</text></g><!--link AssignTeamController to TaskMapper--><g id="link_AssignTeamController_TaskMapper"><path codeLine="151" d="M628.64,111.36 C676.11,134.71 725.5,159 725.5,159 C725.5,159 803.0239,203.0749 871.5439,242.0249 " fill="none" id="AssignTeamController-to-TaskMapper" style="stroke:#181818;stroke-width:1.0;stroke-dasharray:7.0,7.0;"/><polygon fill="#181818" points="876.76,244.99,870.9125,237.0649,872.4132,242.5191,866.959,244.0198,876.76,244.99" style="stroke:#181818;stroke-width:1.0;"/></g><!--link AssignTeamController to TeamMapper--><g id="link_AssignTeamController_TeamMapper"><path codeLine="152" d="M456.14,118.82 C445.62,124.89 438.5,129 438.5,129 C438.5,129 294.5,159 294.5,159 C294.5,159 254.9792,201.64 218.8692,240.59 " fill="none" id="AssignTeamController-to-TeamMapper" style="stroke:#181818;stroke-width:1.0;stroke-dasharray:7.0,7.0;"/><polygon fill="#181818" points="214.79,244.99,223.8421,241.1094,218.1893,241.3233,217.9754,235.6705,214.79,244.99" style="stroke:#181818;stroke-width:1.0;"/></g><!--link Agenda to Task--><g id="link_Agenda_Task"><path codeLine="154" d="M1300.25,386.16 C1297.37,410.97 1294.8736,432.4802 1291.7836,459.0302 " fill="none" id="Agenda-to-Task" style="stroke:#181818;stroke-width:1.0;"/><polygon fill="#181818" points="1291.09,464.99,1296.1036,456.5128,1291.668,460.0235,1288.1573,455.5879,1291.09,464.99" style="stroke:#181818;stroke-width:1.0;"/><text fill="#000000" font-family="sans-serif" font-size="13" lengthAdjust="spacing" textLength="7" x="1292.1113" y="408.2734">1</text><text fill="#000000" font-family="sans-serif" font-size="13" lengthAdjust="spacing" textLength="5" x="1286.8267" y="453.8051">*</text></g><!--link TeamRepository to Team--><g id="link_TeamRepository_Team"><path codeLine="155" d="M697.25,349.04 C653.39,465.32 549.1676,741.6661 512.9376,837.7161 " fill="none" id="TeamRepository-to-Team" style="stroke:#181818;stroke-width:1.0;"/><polygon fill="#181818" points="510.82,843.33,517.7389,836.3208,512.5846,838.6517,510.2537,833.4974,510.82,843.33" style="stroke:#181818;stroke-width:1.0;"/><text fill="#000000" font-family="sans-serif" font-size="13" lengthAdjust="spacing" textLength="7" x="687.3352" y="370.8524">1</text><text fill="#000000" font-family="sans-serif" font-size="13" lengthAdjust="spacing" textLength="5" x="507.7533" y="832.122">*</text></g><!--link TaskMapper to TaskDto--><g id="link_TaskMapper_TaskDto"><path codeLine="157" d="M966.5,349.04 C966.5,450.01 966.5,669.9 966.5,790.52 " fill="none" id="TaskMapper-to-TaskDto" style="stroke:#181818;stroke-width:1.0;stroke-dasharray:7.0,7.0;"/><polygon fill="#181818" points="966.5,796.52,970.5,787.52,966.5,791.52,962.5,787.52,966.5,796.52" style="stroke:#181818;stroke-width:1.0;"/></g><!--link TaskMapper to Task--><g id="link_TaskMapper_Task"><path codeLine="158" d="M1020.85,349.28 C1060.7,386.89 1111.8256,435.1227 1160.9356,481.4527 " fill="none" id="TaskMapper-to-Task" style="stroke:#181818;stroke-width:1.0;stroke-dasharray:7.0,7.0;"/><polygon fill="#181818" points="1165.3,485.57,1161.4983,476.4844,1161.663,482.1389,1156.0086,482.3036,1165.3,485.57" style="stroke:#181818;stroke-width:1.0;"/></g><!--link Task to GreenSpace--><g id="link_Task_GreenSpace"><path codeLine="160" d="M1295.56,718.23 C1301.96,760.43 1307.5,797 1307.5,797 C1307.5,797 1307.5,957 1307.5,957 C1307.5,957 1272.4765,989.0496 1233.6365,1024.5896 " fill="none" id="Task-to-GreenSpace" style="stroke:#181818;stroke-width:1.0;"/><polygon fill="#181818" points="1229.21,1028.64,1238.5501,1025.5154,1232.8988,1025.2646,1233.1495,1019.6134,1229.21,1028.64" style="stroke:#181818;stroke-width:1.0;"/><text fill="#000000" font-family="sans-serif" font-size="13" lengthAdjust="spacing" textLength="5" x="1291.4656" y="739.6663">*</text><text fill="#000000" font-family="sans-serif" font-size="13" lengthAdjust="spacing" textLength="7" x="1236.9088" y="1018.0318">1</text></g><!--link TaskDto to GreenSpace--><g id="link_TaskDto_GreenSpace"><path codeLine="161" d="M1034.37,957.06 C1051.31,976.79 1065.5615,993.3977 1082.5015,1013.1277 " fill="none" id="TaskDto-to-GreenSpace" style="stroke:#181818;stroke-width:1.0;"/><polygon fill="#181818" points="1086.41,1017.68,1083.582,1008.2459,1083.1529,1013.8864,1077.5123,1013.4573,1086.41,1017.68" style="stroke:#181818;stroke-width:1.0;"/><text fill="#000000" font-family="sans-serif" font-size="13" lengthAdjust="spacing" textLength="5" x="1034.9877" y="978.7232">*</text><text fill="#000000" font-family="sans-serif" font-size="13" lengthAdjust="spacing" textLength="7" x="1073.034" y="1006.8229">1</text></g><!--link TeamMapper to TeamDto--><g id="link_TeamMapper_TeamDto"><path codeLine="163" d="M158.56,349.28 C148.67,405.97 133.9703,490.2891 124.8103,542.8391 " fill="none" id="TeamMapper-to-TeamDto" style="stroke:#181818;stroke-width:1.0;stroke-dasharray:7.0,7.0;"/><polygon fill="#181818" points="123.78,548.75,129.2661,540.5706,124.6386,543.8243,121.3849,539.1968,123.78,548.75" style="stroke:#181818;stroke-width:1.0;"/></g><!--link TeamMapper to Team--><g id="link_TeamMapper_Team"><path codeLine="164" d="M190.72,349.01 C213.07,398.12 243.5,465 243.5,465 C243.5,465 330.5,718 330.5,718 C330.5,718 410.1092,792.8695 459.3192,839.1495 " fill="none" id="TeamMapper-to-Team" style="stroke:#181818;stroke-width:1.0;stroke-dasharray:7.0,7.0;"/><polygon fill="#181818" points="463.69,843.26,459.8742,834.1804,460.0477,839.8346,454.3935,840.0081,463.69,843.26" style="stroke:#181818;stroke-width:1.0;"/></g><!--link Task to Team--><g id="link_Task_Team"><path codeLine="166" d="M1165.33,627.42 C979.4,685.83 625.5,797 625.5,797 C625.5,797 590.9647,818.4807 555.9847,840.2407 " fill="none" id="Task-to-Team" style="stroke:#181818;stroke-width:1.0;"/><polygon fill="#181818" points="550.89,843.41,560.6449,842.0526,555.1356,840.769,556.4192,835.2597,550.89,843.41" style="stroke:#181818;stroke-width:1.0;"/><text fill="#000000" font-family="sans-serif" font-size="13" lengthAdjust="spacing" textLength="5" x="1152.3376" y="626.3924">*</text><text fill="#000000" font-family="sans-serif" font-size="13" lengthAdjust="spacing" textLength="7" x="553.5152" y="832.2178">1</text></g><!--link Task to EmailGenerator--><g id="link_Task_EmailGenerator"><path codeLine="168" d="M1387.56,700.55 C1398.41,711.11 1405.5,718 1405.5,718 C1405.5,718 1484.6214,792.8566 1533.5414,839.1366 " fill="none" id="Task-to-EmailGenerator" style="stroke:#181818;stroke-width:1.0;"/><polygon fill="#181818" points="1537.9,843.26,1534.111,834.1692,1534.2678,839.8238,1528.6131,839.9806,1537.9,843.26" style="stroke:#181818;stroke-width:1.0;"/><text fill="#000000" font-family="sans-serif" font-size="13" lengthAdjust="spacing" textLength="78" x="1456.5" y="763.0283">makes use of</text><text fill="#000000" font-family="sans-serif" font-size="13" lengthAdjust="spacing" textLength="5" x="1395.5447" y="704.6644">*</text><text fill="#000000" font-family="sans-serif" font-size="13" lengthAdjust="spacing" textLength="7" x="1523.6372" y="832.3002">1</text></g><!--link EmailThroughGmail to EmailGenerator--><g id="link_EmailThroughGmail_EmailGenerator"><path codeLine="170" d="M1572.5,625.02 C1572.5,679.56 1572.5,770.84 1572.5,825.42 " fill="none" id="EmailThroughGmail-to-EmailGenerator" style="stroke:#181818;stroke-width:1.0;stroke-dasharray:7.0,7.0;"/><polygon fill="none" points="1572.5,843.42,1578.5,825.42,1566.5,825.42,1572.5,843.42" style="stroke:#181818;stroke-width:1.0;"/></g><!--link EmailThroughDEIService to EmailGenerator--><g id="link_EmailThroughDEIService_EmailGenerator"><path codeLine="171" d="M1868.19,625.02 C1803.93,679.56 1688.9028,777.1916 1624.6028,831.7716 " fill="none" id="EmailThroughDEIService-to-EmailGenerator" style="stroke:#181818;stroke-width:1.0;stroke-dasharray:7.0,7.0;"/><polygon fill="none" points="1610.88,843.42,1628.4856,836.3459,1620.72,827.1974,1610.88,843.42" style="stroke:#181818;stroke-width:1.0;"/></g><!--SRC=[lLR9Rjim4BtpAuXSehHEq5wBma1W1u615W4gvmCOQIopbaY1fDkwoxztI54IHLDf2XJDAPxbpPlXBBhK1ovQfbX36obaiLUo0MhK4SYeQLbnO1NavbG3LL0O9gewDD1xLiglN5HqnseTQcekm9nQeAsiJ_O7kKmefJAI15v5pRI-DKRnfwE1JI55phy3VKF8PGqxGusaYbTxGqjkwN0f274-z5PhNeajiEPnGtuGykjSiPB2A5dNeD20uj_hf3AxyieAp6q5ecHtgEAWGqKEDSQ7Silq8UEzWWrmLZPIQDkQ5ypIpG5Da7LFG1iK5nPn8_1_KK0OPNLK2eJnJba0-GbQgRcHbfS7kvu8GvWHchwRUaQ9XausYy7s5CP-rA3YFD31YkyQnklGjiCT67xWshotDLjIw8fg9UVAdGAOr3vjPf1ZNkoXF69NpZmQM4f_V3a4AGxR02xJlHqA5rG7NedN3jM1CQg2MbZbHzQsG_y5kQoDdCaQDJwUaUljGvOqkl9udOby-Xo5jI1zp1ozS60DDxveWwW4NIZUkh6A51L6VTWzAWnSdBoI2qFXM-jINHyL2_nMhBOCbUrlPH1YpKp_GfvFvWWimg2BED3Y37yixZqQYXmt56A4KQBC_slQtiyEzL6_e1HxfbtxN8s_nocQDEuJr59KUYkdxUOQRF357RR3HMEobtPhr9-JYOzw57NTl8sZEAo9z6QCjw0L9DiVvQxz1_IuvGV5istUmKonLxZHsPF4Hv9gIOlWLx_xl5isqKMmBySStCRkZ1jGi2RgFti9WzvY2jZKW9Mbmdqx5LQwSNtoJEiW6mG4jKCQr6dkGO2ZEXuWRCxEoSzZsAQpgynvRF6RuLZjxnsBVuUtljlaeBxmeNH_3nhUE7gzdDmyF87StqDoVfYjTK8Q-93mIuFUBDCV62GbjTOH5HLUuuWtKhbuUn6FPTB6dzcPg3UfdEPjm_kUgf2F6PXX8iVGQPQ5eudMhECxQpZD6HtCj0ZpZkEDVHRSsn3FoERZydfrqLsDY42dxmtiIY1Z90JraUt-cSWxSMViVFlY1Vl1EywfoKXtOE_Yd8iJSMR4qsM0zMtO0Ti97v7A7I5duuqXVYxZ5P8UsgJfRm00]--></g></svg>