<?xml version="1.0" encoding="us-ascii" standalone="no"?><svg xmlns="http://www.w3.org/2000/svg" xmlns:xlink="http://www.w3.org/1999/xlink" contentStyleType="text/css" height="790.2px" preserveAspectRatio="none" style="width:1811px;height:790px;background:#FFFFFF;" version="1.1" viewBox="0 0 1811 790" width="1811.4px" zoomAndPan="magnify"><defs/><g><!--cluster UI--><g id="cluster_UI"><rect fill="none" height="60.6" rx="1.5" ry="1.5" style="stroke:#000000;stroke-width:0.8999999999999999;" width="92.4" x="1341" y="53.4"/><text fill="#000000" font-family="sans-serif" font-size="8.4" font-weight="bold" lengthAdjust="spacing" textLength="8.4" x="1383" y="63.6645">UI</text></g><!--cluster Controller--><g id="cluster_Controller"><rect fill="none" height="116.4" rx="1.5" ry="1.5" style="stroke:#000000;stroke-width:0.8999999999999999;" width="122.4" x="1204.2" y="25.5"/><text fill="#000000" font-family="sans-serif" font-size="8.4" font-weight="bold" lengthAdjust="spacing" textLength="42.6" x="1244.1" y="35.7645">Controller</text></g><!--cluster Domain--><g id="cluster_Domain"><rect fill="none" height="645.9" rx="1.5" ry="1.5" style="stroke:#000000;stroke-width:0.8999999999999999;" width="771.6" x="418.2" y="4.2"/><text fill="#000000" font-family="sans-serif" font-size="8.4" font-weight="bold" lengthAdjust="spacing" textLength="31.2" x="788.4" y="14.4645">Domain</text></g><!--cluster Repository--><g id="cluster_Repository"><rect fill="none" height="266.1" rx="1.5" ry="1.5" style="stroke:#000000;stroke-width:0.8999999999999999;" width="339.6" x="779.4" y="31.2"/><text fill="#000000" font-family="sans-serif" font-size="8.4" font-weight="bold" lengthAdjust="spacing" textLength="45.6" x="926.4" y="41.4645">Repository</text></g><!--cluster Model--><g id="cluster_Model"><rect fill="none" height="318.6" rx="1.5" ry="1.5" style="stroke:#000000;stroke-width:0.8999999999999999;" width="742.8" x="432.6" y="317.1"/><text fill="#000000" font-family="sans-serif" font-size="8.4" font-weight="bold" lengthAdjust="spacing" textLength="26.4" x="790.8" y="327.3645">Model</text></g><!--cluster Mapper--><g id="cluster_Mapper"><rect fill="none" height="606" rx="1.5" ry="1.5" style="stroke:#000000;stroke-width:0.8999999999999999;" width="597" x="1210.8" y="180.9"/><text fill="#000000" font-family="sans-serif" font-size="8.4" font-weight="bold" lengthAdjust="spacing" textLength="32.4" x="1493.1" y="191.1645">Mapper</text></g><!--cluster DTO--><g id="cluster_DTO"><rect fill="none" height="264.6" rx="1.5" ry="1.5" style="stroke:#000000;stroke-width:0.8999999999999999;" width="560.4" x="1225.2" y="507.9"/><text fill="#000000" font-family="sans-serif" font-size="8.4" font-weight="bold" lengthAdjust="spacing" textLength="17.4" x="1496.7" y="518.1645">DTO</text></g><!--cluster ExternalModules--><g id="cluster_ExternalModules"><rect fill="none" height="72" rx="1.5" ry="1.5" style="stroke:#000000;stroke-width:0.8999999999999999;" width="399.6" x="4.2" y="361.8"/><text fill="#000000" font-family="sans-serif" font-size="8.4" font-weight="bold" lengthAdjust="spacing" textLength="71.4" x="168.3" y="372.0645">ExternalModules</text></g><!--class AssignTeamUI--><g id="elem_AssignTeamUI"><rect codeLine="12" fill="#F1F1F1" height="28.8" id="AssignTeamUI" rx="1.5" ry="1.5" style="stroke:#181818;stroke-width:0.3;" width="73.2" x="1350.6" y="75.6"/><ellipse cx="1359.6" cy="85.2" fill="#ADD1B2" rx="6.6" ry="6.6" style="stroke:#181818;stroke-width:0.6;"/><path d="M1361.2594,82.725 Q1361.3531,82.5938 1361.4656,82.5281 Q1361.5781,82.4625 1361.7094,82.4625 Q1361.9344,82.4625 1362.075,82.6219 Q1362.2156,82.7719 1362.2156,83.1375 L1362.2156,84.0094 Q1362.2156,84.375 1362.075,84.5344 Q1361.9344,84.6938 1361.7094,84.6938 Q1361.5031,84.6938 1361.3813,84.5719 Q1361.2594,84.4594 1361.1938,84.15 Q1361.1656,83.9344 1361.0531,83.8219 Q1360.8563,83.5969 1360.4906,83.4656 Q1360.125,83.3344 1359.75,83.3344 Q1359.2906,83.3344 1358.9063,83.5313 Q1358.5313,83.7281 1358.2313,84.1781 Q1357.9406,84.6281 1357.9406,85.2469 L1357.9406,85.9031 Q1357.9406,86.6438 1358.475,87.1406 Q1359.0094,87.6281 1359.9656,87.6281 Q1360.5281,87.6281 1360.9219,87.4781 Q1361.1563,87.3844 1361.4094,87.1219 Q1361.5688,86.9625 1361.6531,86.9156 Q1361.7469,86.8687 1361.8687,86.8687 Q1362.0656,86.8687 1362.2156,87.0281 Q1362.375,87.1781 1362.375,87.3844 Q1362.375,87.5906 1362.1688,87.8344 Q1361.8687,88.1812 1361.3906,88.3781 Q1360.7437,88.65 1359.9656,88.65 Q1359.0562,88.65 1358.3344,88.275 Q1357.7437,87.975 1357.3313,87.3375 Q1356.9188,86.6906 1356.9188,85.9219 L1356.9188,85.2281 Q1356.9188,84.4312 1357.2844,83.7469 Q1357.6594,83.0531 1358.3156,82.6875 Q1358.9719,82.3125 1359.7125,82.3125 Q1360.1531,82.3125 1360.5375,82.4156 Q1360.9312,82.5094 1361.2594,82.725 Z " fill="#000000"/><text fill="#000000" font-family="sans-serif" font-size="8.4" lengthAdjust="spacing" textLength="54" x="1368" y="88.6781">AssignTeamUI</text><line style="stroke:#181818;stroke-width:0.3;" x1="1351.2" x2="1423.2" y1="94.8" y2="94.8"/><line style="stroke:#181818;stroke-width:0.3;" x1="1351.2" x2="1423.2" y1="99.6" y2="99.6"/></g><!--class AssignTeamController--><g id="elem_AssignTeamController"><rect codeLine="19" fill="#F1F1F1" height="84.6633" id="AssignTeamController" rx="1.5" ry="1.5" style="stroke:#181818;stroke-width:0.3;" width="103.2" x="1213.8" y="47.7"/><ellipse cx="1222.8" cy="57.3" fill="#ADD1B2" rx="6.6" ry="6.6" style="stroke:#181818;stroke-width:0.6;"/><path d="M1224.4594,54.825 Q1224.5531,54.6938 1224.6656,54.6281 Q1224.7781,54.5625 1224.9094,54.5625 Q1225.1344,54.5625 1225.275,54.7219 Q1225.4156,54.8719 1225.4156,55.2375 L1225.4156,56.1094 Q1225.4156,56.475 1225.275,56.6344 Q1225.1344,56.7937 1224.9094,56.7937 Q1224.7031,56.7937 1224.5813,56.6719 Q1224.4594,56.5594 1224.3938,56.25 Q1224.3656,56.0344 1224.2531,55.9219 Q1224.0562,55.6969 1223.6906,55.5656 Q1223.325,55.4344 1222.95,55.4344 Q1222.4906,55.4344 1222.1063,55.6313 Q1221.7313,55.8281 1221.4312,56.2781 Q1221.1406,56.7281 1221.1406,57.3469 L1221.1406,58.0031 Q1221.1406,58.7438 1221.675,59.2406 Q1222.2094,59.7281 1223.1656,59.7281 Q1223.7281,59.7281 1224.1219,59.5781 Q1224.3563,59.4844 1224.6094,59.2219 Q1224.7688,59.0625 1224.8531,59.0156 Q1224.9469,58.9688 1225.0688,58.9688 Q1225.2656,58.9688 1225.4156,59.1281 Q1225.575,59.2781 1225.575,59.4844 Q1225.575,59.6906 1225.3687,59.9344 Q1225.0688,60.2813 1224.5906,60.4781 Q1223.9438,60.75 1223.1656,60.75 Q1222.2563,60.75 1221.5344,60.375 Q1220.9438,60.075 1220.5313,59.4375 Q1220.1187,58.7906 1220.1187,58.0219 L1220.1187,57.3281 Q1220.1187,56.5313 1220.4844,55.8469 Q1220.8594,55.1531 1221.5156,54.7875 Q1222.1719,54.4125 1222.9125,54.4125 Q1223.3531,54.4125 1223.7375,54.5156 Q1224.1313,54.6094 1224.4594,54.825 Z " fill="#000000"/><text fill="#000000" font-family="sans-serif" font-size="8.4" lengthAdjust="spacing" textLength="84" x="1231.2" y="60.7781">AssignTeamController</text><line style="stroke:#181818;stroke-width:0.3;" x1="1214.4" x2="1316.4" y1="66.9" y2="66.9"/><line style="stroke:#181818;stroke-width:0.3;" x1="1214.4" x2="1316.4" y1="71.7" y2="71.7"/><text fill="#000000" font-family="sans-serif" font-size="8.4" lengthAdjust="spacing" textLength="94.8" x="1217.4" y="83.1645">+AssignTeamController()</text><text fill="#000000" font-family="sans-serif" font-size="8.4" lengthAdjust="spacing" textLength="78.6" x="1217.4" y="94.3371">+getAgendaEntries()</text><text fill="#000000" font-family="sans-serif" font-size="8.4" lengthAdjust="spacing" textLength="48.6" x="1217.4" y="105.5098">+getTeams()</text><text fill="#000000" font-family="sans-serif" font-size="8.4" lengthAdjust="spacing" textLength="76.2" x="1217.4" y="116.6824">+getSelectedTask(i)</text><text fill="#000000" font-family="sans-serif" font-size="8.4" lengthAdjust="spacing" textLength="58.8" x="1217.4" y="127.8551">+assignTeam(i)</text></g><!--class Repositories--><g id="elem_Repositories"><rect codeLine="31" fill="#F1F1F1" height="73.4906" id="Repositories" rx="1.5" ry="1.5" style="stroke:#181818;stroke-width:0.3;" width="116.4" x="938.4" y="53.4"/><ellipse cx="970.35" cy="63" fill="#ADD1B2" rx="6.6" ry="6.6" style="stroke:#181818;stroke-width:0.6;"/><path d="M972.0094,60.525 Q972.1031,60.3938 972.2156,60.3281 Q972.3281,60.2625 972.4594,60.2625 Q972.6844,60.2625 972.825,60.4219 Q972.9656,60.5719 972.9656,60.9375 L972.9656,61.8094 Q972.9656,62.175 972.825,62.3344 Q972.6844,62.4938 972.4594,62.4938 Q972.2531,62.4938 972.1312,62.3719 Q972.0094,62.2594 971.9437,61.95 Q971.9156,61.7344 971.8031,61.6219 Q971.6062,61.3969 971.2406,61.2656 Q970.875,61.1344 970.5,61.1344 Q970.0406,61.1344 969.6563,61.3313 Q969.2813,61.5281 968.9812,61.9781 Q968.6906,62.4281 968.6906,63.0469 L968.6906,63.7031 Q968.6906,64.4438 969.225,64.9406 Q969.7594,65.4281 970.7156,65.4281 Q971.2781,65.4281 971.6719,65.2781 Q971.9063,65.1844 972.1594,64.9219 Q972.3187,64.7625 972.4031,64.7156 Q972.4969,64.6688 972.6188,64.6688 Q972.8156,64.6688 972.9656,64.8281 Q973.125,64.9781 973.125,65.1844 Q973.125,65.3906 972.9187,65.6344 Q972.6188,65.9813 972.1406,66.1781 Q971.4938,66.45 970.7156,66.45 Q969.8063,66.45 969.0844,66.075 Q968.4938,65.775 968.0813,65.1375 Q967.6687,64.4906 967.6687,63.7219 L967.6687,63.0281 Q967.6687,62.2312 968.0344,61.5469 Q968.4094,60.8531 969.0656,60.4875 Q969.7219,60.1125 970.4625,60.1125 Q970.9031,60.1125 971.2875,60.2156 Q971.6813,60.3094 972.0094,60.525 Z " fill="#000000"/><text fill="#000000" font-family="sans-serif" font-size="8.4" lengthAdjust="spacing" textLength="47.4" x="982.65" y="66.4781">Repositories</text><line style="stroke:#181818;stroke-width:0.3;" x1="939" x2="1054.2" y1="72.6" y2="72.6"/><line style="stroke:#181818;stroke-width:0.3;" x1="939" x2="1054.2" y1="77.4" y2="77.4"/><text fill="#000000" font-family="sans-serif" font-size="8.4" lengthAdjust="spacing" textLength="56.4" x="942" y="88.8645">-Repositories()</text><text fill="#000000" font-family="sans-serif" font-size="8.4" lengthAdjust="spacing" textLength="109.2" x="942" y="100.0371">+getInstance() : Repositories</text><text fill="#000000" font-family="sans-serif" font-size="8.4" lengthAdjust="spacing" textLength="52.2" x="942" y="111.2098">+getAgenda()</text><text fill="#000000" font-family="sans-serif" font-size="8.4" lengthAdjust="spacing" textLength="85.2" x="942" y="122.3824">+getTeamRepository()</text></g><!--class Agenda--><g id="elem_Agenda"><rect codeLine="39" fill="#F1F1F1" height="107.0086" id="Agenda" rx="1.5" ry="1.5" style="stroke:#181818;stroke-width:0.3;" width="205.8" x="903.3" y="180.9"/><ellipse cx="988.95" cy="190.5" fill="#ADD1B2" rx="6.6" ry="6.6" style="stroke:#181818;stroke-width:0.6;"/><path d="M990.6094,188.025 Q990.7031,187.8937 990.8156,187.8281 Q990.9281,187.7625 991.0594,187.7625 Q991.2844,187.7625 991.425,187.9219 Q991.5656,188.0719 991.5656,188.4375 L991.5656,189.3094 Q991.5656,189.675 991.425,189.8344 Q991.2844,189.9938 991.0594,189.9938 Q990.8531,189.9938 990.7312,189.8719 Q990.6094,189.7594 990.5437,189.45 Q990.5156,189.2344 990.4031,189.1219 Q990.2063,188.8969 989.8406,188.7656 Q989.475,188.6344 989.1,188.6344 Q988.6406,188.6344 988.2562,188.8312 Q987.8812,189.0281 987.5813,189.4781 Q987.2906,189.9281 987.2906,190.5469 L987.2906,191.2031 Q987.2906,191.9438 987.825,192.4406 Q988.3594,192.9281 989.3156,192.9281 Q989.8781,192.9281 990.2719,192.7781 Q990.5062,192.6844 990.7594,192.4219 Q990.9187,192.2625 991.0031,192.2156 Q991.0969,192.1688 991.2188,192.1688 Q991.4156,192.1688 991.5656,192.3281 Q991.725,192.4781 991.725,192.6844 Q991.725,192.8906 991.5188,193.1344 Q991.2188,193.4813 990.7406,193.6781 Q990.0938,193.95 989.3156,193.95 Q988.4063,193.95 987.6844,193.575 Q987.0938,193.275 986.6813,192.6375 Q986.2688,191.9906 986.2688,191.2219 L986.2688,190.5281 Q986.2688,189.7313 986.6344,189.0469 Q987.0094,188.3531 987.6656,187.9875 Q988.3219,187.6125 989.0625,187.6125 Q989.5031,187.6125 989.8875,187.7156 Q990.2813,187.8094 990.6094,188.025 Z " fill="#000000"/><text fill="#000000" font-family="sans-serif" font-size="8.4" lengthAdjust="spacing" textLength="29.4" x="1001.25" y="193.9781">Agenda</text><line style="stroke:#181818;stroke-width:0.3;" x1="903.9" x2="1108.5" y1="200.1" y2="200.1"/><text fill="#000000" font-family="sans-serif" font-size="8.4" lengthAdjust="spacing" textLength="85.8" x="906.9" y="211.5645">-List&lt;Task&gt; entriesList</text><text fill="#000000" font-family="sans-serif" font-size="8.4" lengthAdjust="spacing" textLength="130.8" x="906.9" y="222.7371">-List&lt;Task&gt; freeAgendaEntriesList</text><text fill="#000000" font-family="sans-serif" font-size="8.4" lengthAdjust="spacing" textLength="100.8" x="906.9" y="233.9098">-List&lt;Task&gt; teamSchedule</text><line style="stroke:#181818;stroke-width:0.3;" x1="903.9" x2="1108.5" y1="238.418" y2="238.418"/><text fill="#000000" font-family="sans-serif" font-size="8.4" lengthAdjust="spacing" textLength="98.4" x="906.9" y="249.8824">+getAgendaEntries(email)</text><text fill="#000000" font-family="sans-serif" font-size="8.4" lengthAdjust="spacing" textLength="76.2" x="906.9" y="261.0551">+getSelectedTask(i)</text><text fill="#000000" font-family="sans-serif" font-size="8.4" lengthAdjust="spacing" textLength="198.6" x="906.9" y="272.2277">+checkTeamSchedule(selectedTeam, selectedTask)</text><text fill="#000000" font-family="sans-serif" font-size="8.4" lengthAdjust="spacing" textLength="165.6" x="906.9" y="283.4004">+assignTeam(selectedTask, selectedTeam)</text></g><!--class TeamRepository--><g id="elem_TeamRepository"><rect codeLine="50" fill="#F1F1F1" height="62.318" id="TeamRepository" rx="1.5" ry="1.5" style="stroke:#181818;stroke-width:0.3;" width="93" x="789.3" y="203.1"/><ellipse cx="803.43" cy="212.7" fill="#ADD1B2" rx="6.6" ry="6.6" style="stroke:#181818;stroke-width:0.6;"/><path d="M805.0894,210.225 Q805.1831,210.0938 805.2956,210.0281 Q805.4081,209.9625 805.5394,209.9625 Q805.7644,209.9625 805.905,210.1219 Q806.0456,210.2719 806.0456,210.6375 L806.0456,211.5094 Q806.0456,211.875 805.905,212.0344 Q805.7644,212.1938 805.5394,212.1938 Q805.3331,212.1938 805.2113,212.0719 Q805.0894,211.9594 805.0238,211.65 Q804.9956,211.4344 804.8831,211.3219 Q804.6863,211.0969 804.3206,210.9656 Q803.955,210.8344 803.58,210.8344 Q803.1206,210.8344 802.7362,211.0313 Q802.3612,211.2281 802.0613,211.6781 Q801.7706,212.1281 801.7706,212.7469 L801.7706,213.4031 Q801.7706,214.1437 802.305,214.6406 Q802.8394,215.1281 803.7956,215.1281 Q804.3581,215.1281 804.7519,214.9781 Q804.9862,214.8844 805.2394,214.6219 Q805.3988,214.4625 805.4831,214.4156 Q805.5769,214.3688 805.6987,214.3688 Q805.8956,214.3688 806.0456,214.5281 Q806.205,214.6781 806.205,214.8844 Q806.205,215.0906 805.9988,215.3344 Q805.6987,215.6813 805.2206,215.8781 Q804.5737,216.15 803.7956,216.15 Q802.8862,216.15 802.1644,215.775 Q801.5737,215.475 801.1613,214.8375 Q800.7488,214.1906 800.7488,213.4219 L800.7488,212.7281 Q800.7488,211.9313 801.1144,211.2469 Q801.4894,210.5531 802.1456,210.1875 Q802.8019,209.8125 803.5425,209.8125 Q803.9831,209.8125 804.3675,209.9156 Q804.7612,210.0094 805.0894,210.225 Z " fill="#000000"/><text fill="#000000" font-family="sans-serif" font-size="8.4" lengthAdjust="spacing" textLength="62.4" x="812.97" y="216.1781">TeamRepository</text><line style="stroke:#181818;stroke-width:0.3;" x1="789.9" x2="881.7" y1="222.3" y2="222.3"/><text fill="#000000" font-family="sans-serif" font-size="8.4" lengthAdjust="spacing" textLength="85.8" x="792.9" y="233.7645">-List&lt;Team&gt; teamsList</text><line style="stroke:#181818;stroke-width:0.3;" x1="789.9" x2="881.7" y1="238.2727" y2="238.2727"/><text fill="#000000" font-family="sans-serif" font-size="8.4" lengthAdjust="spacing" textLength="48.6" x="792.9" y="249.7371">+getTeams()</text><text fill="#000000" font-family="sans-serif" font-size="8.4" lengthAdjust="spacing" textLength="79.2" x="792.9" y="260.9098">+getSelectedTeam(i)</text></g><!--class ApplicationSession--><g id="elem_ApplicationSession"><rect codeLine="59" fill="#F1F1F1" height="51.1453" id="ApplicationSession" rx="1.5" ry="1.5" style="stroke:#181818;stroke-width:0.3;" width="90.6" x="1020.3" y="378.6"/><ellipse cx="1029.3" cy="388.2" fill="#ADD1B2" rx="6.6" ry="6.6" style="stroke:#181818;stroke-width:0.6;"/><path d="M1030.9594,385.725 Q1031.0531,385.5938 1031.1656,385.5281 Q1031.2781,385.4625 1031.4094,385.4625 Q1031.6344,385.4625 1031.775,385.6219 Q1031.9156,385.7719 1031.9156,386.1375 L1031.9156,387.0094 Q1031.9156,387.375 1031.775,387.5344 Q1031.6344,387.6937 1031.4094,387.6937 Q1031.2031,387.6937 1031.0813,387.5719 Q1030.9594,387.4594 1030.8938,387.15 Q1030.8656,386.9344 1030.7531,386.8219 Q1030.5562,386.5969 1030.1906,386.4656 Q1029.825,386.3344 1029.45,386.3344 Q1028.9906,386.3344 1028.6063,386.5313 Q1028.2313,386.7281 1027.9312,387.1781 Q1027.6406,387.6281 1027.6406,388.2469 L1027.6406,388.9031 Q1027.6406,389.6438 1028.175,390.1406 Q1028.7094,390.6281 1029.6656,390.6281 Q1030.2281,390.6281 1030.6219,390.4781 Q1030.8563,390.3844 1031.1094,390.1219 Q1031.2688,389.9625 1031.3531,389.9156 Q1031.4469,389.8688 1031.5688,389.8688 Q1031.7656,389.8688 1031.9156,390.0281 Q1032.075,390.1781 1032.075,390.3844 Q1032.075,390.5906 1031.8687,390.8344 Q1031.5688,391.1813 1031.0906,391.3781 Q1030.4438,391.65 1029.6656,391.65 Q1028.7563,391.65 1028.0344,391.275 Q1027.4438,390.975 1027.0313,390.3375 Q1026.6187,389.6906 1026.6187,388.9219 L1026.6187,388.2281 Q1026.6187,387.4313 1026.9844,386.7469 Q1027.3594,386.0531 1028.0156,385.6875 Q1028.6719,385.3125 1029.4125,385.3125 Q1029.8531,385.3125 1030.2375,385.4156 Q1030.6313,385.5094 1030.9594,385.725 Z " fill="#000000"/><text fill="#000000" font-family="sans-serif" font-size="8.4" lengthAdjust="spacing" textLength="71.4" x="1037.7" y="391.6781">ApplicationSession</text><line style="stroke:#181818;stroke-width:0.3;" x1="1020.9" x2="1110.3" y1="397.8" y2="397.8"/><line style="stroke:#181818;stroke-width:0.3;" x1="1020.9" x2="1110.3" y1="402.6" y2="402.6"/><text fill="#000000" font-family="sans-serif" font-size="8.4" lengthAdjust="spacing" textLength="76.8" x="1023.9" y="414.0645">+static getInstance()</text><text fill="#000000" font-family="sans-serif" font-size="8.4" lengthAdjust="spacing" textLength="81.6" x="1023.9" y="425.2371">+getCurrentSession()</text></g><!--class UserSession--><g id="elem_UserSession"><rect codeLine="65" fill="#F1F1F1" height="39.9727" id="UserSession" rx="1.5" ry="1.5" style="stroke:#181818;stroke-width:0.3;" width="67.8" x="1097.7" y="558"/><ellipse cx="1107.24" cy="567.6" fill="#ADD1B2" rx="6.6" ry="6.6" style="stroke:#181818;stroke-width:0.6;"/><path d="M1108.8994,565.125 Q1108.9931,564.9938 1109.1056,564.9281 Q1109.2181,564.8625 1109.3494,564.8625 Q1109.5744,564.8625 1109.715,565.0219 Q1109.8556,565.1719 1109.8556,565.5375 L1109.8556,566.4094 Q1109.8556,566.775 1109.715,566.9344 Q1109.5744,567.0938 1109.3494,567.0938 Q1109.1431,567.0938 1109.0213,566.9719 Q1108.8994,566.8594 1108.8338,566.55 Q1108.8056,566.3344 1108.6931,566.2219 Q1108.4963,565.9969 1108.1306,565.8656 Q1107.765,565.7344 1107.39,565.7344 Q1106.9306,565.7344 1106.5463,565.9313 Q1106.1713,566.1281 1105.8713,566.5781 Q1105.5806,567.0281 1105.5806,567.6469 L1105.5806,568.3031 Q1105.5806,569.0437 1106.115,569.5406 Q1106.6494,570.0281 1107.6056,570.0281 Q1108.1681,570.0281 1108.5619,569.8781 Q1108.7963,569.7844 1109.0494,569.5219 Q1109.2088,569.3625 1109.2931,569.3156 Q1109.3869,569.2688 1109.5088,569.2688 Q1109.7056,569.2688 1109.8556,569.4281 Q1110.015,569.5781 1110.015,569.7844 Q1110.015,569.9906 1109.8088,570.2344 Q1109.5088,570.5813 1109.0306,570.7781 Q1108.3838,571.05 1107.6056,571.05 Q1106.6963,571.05 1105.9744,570.675 Q1105.3838,570.375 1104.9713,569.7375 Q1104.5588,569.0906 1104.5588,568.3219 L1104.5588,567.6281 Q1104.5588,566.8313 1104.9244,566.1469 Q1105.2994,565.4531 1105.9556,565.0875 Q1106.6119,564.7125 1107.3525,564.7125 Q1107.7931,564.7125 1108.1775,564.8156 Q1108.5713,564.9094 1108.8994,565.125 Z " fill="#000000"/><text fill="#000000" font-family="sans-serif" font-size="8.4" lengthAdjust="spacing" textLength="47.4" x="1115.76" y="571.0781">UserSession</text><line style="stroke:#181818;stroke-width:0.3;" x1="1098.3" x2="1164.9" y1="577.2" y2="577.2"/><line style="stroke:#181818;stroke-width:0.3;" x1="1098.3" x2="1164.9" y1="582" y2="582"/><text fill="#000000" font-family="sans-serif" font-size="8.4" lengthAdjust="spacing" textLength="60.6" x="1101.3" y="593.4645">+getUserEmail()</text></g><!--class Team--><g id="elem_Team"><rect codeLine="70" fill="#F1F1F1" height="39.9727" id="Team" rx="1.5" ry="1.5" style="stroke:#181818;stroke-width:0.3;" width="131.4" x="834.9" y="558"/><ellipse cx="887.25" cy="567.6" fill="#ADD1B2" rx="6.6" ry="6.6" style="stroke:#181818;stroke-width:0.6;"/><path d="M888.9094,565.125 Q889.0031,564.9938 889.1156,564.9281 Q889.2281,564.8625 889.3594,564.8625 Q889.5844,564.8625 889.725,565.0219 Q889.8656,565.1719 889.8656,565.5375 L889.8656,566.4094 Q889.8656,566.775 889.725,566.9344 Q889.5844,567.0938 889.3594,567.0938 Q889.1531,567.0938 889.0313,566.9719 Q888.9094,566.8594 888.8438,566.55 Q888.8156,566.3344 888.7031,566.2219 Q888.5063,565.9969 888.1406,565.8656 Q887.775,565.7344 887.4,565.7344 Q886.9406,565.7344 886.5563,565.9313 Q886.1813,566.1281 885.8813,566.5781 Q885.5906,567.0281 885.5906,567.6469 L885.5906,568.3031 Q885.5906,569.0437 886.125,569.5406 Q886.6594,570.0281 887.6156,570.0281 Q888.1781,570.0281 888.5719,569.8781 Q888.8063,569.7844 889.0594,569.5219 Q889.2188,569.3625 889.3031,569.3156 Q889.3969,569.2688 889.5188,569.2688 Q889.7156,569.2688 889.8656,569.4281 Q890.025,569.5781 890.025,569.7844 Q890.025,569.9906 889.8188,570.2344 Q889.5188,570.5813 889.0406,570.7781 Q888.3938,571.05 887.6156,571.05 Q886.7063,571.05 885.9844,570.675 Q885.3938,570.375 884.9812,569.7375 Q884.5688,569.0906 884.5688,568.3219 L884.5688,567.6281 Q884.5688,566.8313 884.9344,566.1469 Q885.3094,565.4531 885.9656,565.0875 Q886.6219,564.7125 887.3625,564.7125 Q887.8031,564.7125 888.1875,564.8156 Q888.5813,564.9094 888.9094,565.125 Z " fill="#000000"/><text fill="#000000" font-family="sans-serif" font-size="8.4" lengthAdjust="spacing" textLength="21.6" x="899.55" y="571.0781">Team</text><line style="stroke:#181818;stroke-width:0.3;" x1="835.5" x2="965.7" y1="577.2" y2="577.2"/><text fill="#000000" font-family="sans-serif" font-size="8.4" lengthAdjust="spacing" textLength="124.2" x="838.5" y="588.6645">-List&lt;Collaborator&gt; collaborators</text><line style="stroke:#181818;stroke-width:0.3;" x1="835.5" x2="965.7" y1="593.1727" y2="593.1727"/></g><!--class GreenSpace--><g id="elem_GreenSpace"><rect codeLine="75" fill="#F1F1F1" height="95.8359" id="GreenSpace" rx="1.5" ry="1.5" style="stroke:#181818;stroke-width:0.3;" width="89.4" x="987.3" y="530.1"/><ellipse cx="1006.29" cy="539.7" fill="#ADD1B2" rx="6.6" ry="6.6" style="stroke:#181818;stroke-width:0.6;"/><path d="M1007.9494,537.225 Q1008.0431,537.0938 1008.1556,537.0281 Q1008.2681,536.9625 1008.3994,536.9625 Q1008.6244,536.9625 1008.765,537.1219 Q1008.9056,537.2719 1008.9056,537.6375 L1008.9056,538.5094 Q1008.9056,538.875 1008.765,539.0344 Q1008.6244,539.1938 1008.3994,539.1938 Q1008.1931,539.1938 1008.0713,539.0719 Q1007.9494,538.9594 1007.8838,538.65 Q1007.8556,538.4344 1007.7431,538.3219 Q1007.5463,538.0969 1007.1806,537.9656 Q1006.815,537.8344 1006.44,537.8344 Q1005.9806,537.8344 1005.5963,538.0313 Q1005.2213,538.2281 1004.9213,538.6781 Q1004.6306,539.1281 1004.6306,539.7469 L1004.6306,540.4031 Q1004.6306,541.1438 1005.165,541.6406 Q1005.6994,542.1281 1006.6556,542.1281 Q1007.2181,542.1281 1007.6119,541.9781 Q1007.8463,541.8844 1008.0994,541.6219 Q1008.2588,541.4625 1008.3431,541.4156 Q1008.4369,541.3688 1008.5588,541.3688 Q1008.7556,541.3688 1008.9056,541.5281 Q1009.065,541.6781 1009.065,541.8844 Q1009.065,542.0906 1008.8588,542.3344 Q1008.5588,542.6813 1008.0806,542.8781 Q1007.4338,543.15 1006.6556,543.15 Q1005.7463,543.15 1005.0244,542.775 Q1004.4338,542.475 1004.0213,541.8375 Q1003.6088,541.1906 1003.6088,540.4219 L1003.6088,539.7281 Q1003.6088,538.9313 1003.9744,538.2469 Q1004.3494,537.5531 1005.0056,537.1875 Q1005.6619,536.8125 1006.4025,536.8125 Q1006.8431,536.8125 1007.2275,536.9156 Q1007.6213,537.0094 1007.9494,537.225 Z " fill="#000000"/><text fill="#000000" font-family="sans-serif" font-size="8.4" lengthAdjust="spacing" textLength="48" x="1016.91" y="543.1781">GreenSpace</text><line style="stroke:#181818;stroke-width:0.3;" x1="987.9" x2="1076.1" y1="549.3" y2="549.3"/><text fill="#000000" font-family="sans-serif" font-size="8.4" lengthAdjust="spacing" textLength="48.6" x="990.9" y="560.7645">-String name</text><text fill="#000000" font-family="sans-serif" font-size="8.4" lengthAdjust="spacing" textLength="43.8" x="990.9" y="571.9371">-String type</text><text fill="#000000" font-family="sans-serif" font-size="8.4" lengthAdjust="spacing" textLength="31.8" x="990.9" y="583.1098">-int area</text><text fill="#000000" font-family="sans-serif" font-size="8.4" lengthAdjust="spacing" textLength="58.2" x="990.9" y="594.2824">-String address</text><text fill="#000000" font-family="sans-serif" font-size="8.4" lengthAdjust="spacing" textLength="63.6" x="990.9" y="605.4551">-String gsmEmail</text><line style="stroke:#181818;stroke-width:0.3;" x1="987.9" x2="1076.1" y1="609.9633" y2="609.9633"/><text fill="#000000" font-family="sans-serif" font-size="8.4" lengthAdjust="spacing" textLength="82.2" x="990.9" y="621.4277">+hasUserEmail(email)</text></g><!--class Task--><g id="elem_Task"><rect codeLine="85" fill="#F1F1F1" height="129.3539" id="Task" rx="1.5" ry="1.5" style="stroke:#181818;stroke-width:0.3;" width="133.2" x="857.4" y="339.3"/><ellipse cx="912.15" cy="348.9" fill="#ADD1B2" rx="6.6" ry="6.6" style="stroke:#181818;stroke-width:0.6;"/><path d="M913.8094,346.425 Q913.9031,346.2938 914.0156,346.2281 Q914.1281,346.1625 914.2594,346.1625 Q914.4844,346.1625 914.625,346.3219 Q914.7656,346.4719 914.7656,346.8375 L914.7656,347.7094 Q914.7656,348.075 914.625,348.2344 Q914.4844,348.3938 914.2594,348.3938 Q914.0531,348.3938 913.9313,348.2719 Q913.8094,348.1594 913.7438,347.85 Q913.7156,347.6344 913.6031,347.5219 Q913.4063,347.2969 913.0406,347.1656 Q912.675,347.0344 912.3,347.0344 Q911.8406,347.0344 911.4563,347.2313 Q911.0813,347.4281 910.7813,347.8781 Q910.4906,348.3281 910.4906,348.9469 L910.4906,349.6031 Q910.4906,350.3438 911.025,350.8406 Q911.5594,351.3281 912.5156,351.3281 Q913.0781,351.3281 913.4719,351.1781 Q913.7063,351.0844 913.9594,350.8219 Q914.1188,350.6625 914.2031,350.6156 Q914.2969,350.5687 914.4187,350.5687 Q914.6156,350.5687 914.7656,350.7281 Q914.925,350.8781 914.925,351.0844 Q914.925,351.2906 914.7188,351.5344 Q914.4187,351.8812 913.9406,352.0781 Q913.2937,352.35 912.5156,352.35 Q911.6062,352.35 910.8844,351.975 Q910.2937,351.675 909.8813,351.0375 Q909.4688,350.3906 909.4688,349.6219 L909.4688,348.9281 Q909.4688,348.1312 909.8344,347.4469 Q910.2094,346.7531 910.8656,346.3875 Q911.5219,346.0125 912.2625,346.0125 Q912.7031,346.0125 913.0875,346.1156 Q913.4812,346.2094 913.8094,346.425 Z " fill="#000000"/><text fill="#000000" font-family="sans-serif" font-size="8.4" lengthAdjust="spacing" textLength="18.6" x="924.45" y="352.3781">Task</text><line style="stroke:#181818;stroke-width:0.3;" x1="858" x2="990" y1="358.5" y2="358.5"/><text fill="#000000" font-family="sans-serif" font-size="8.4" lengthAdjust="spacing" textLength="40.8" x="861" y="369.9645">-String title</text><text fill="#000000" font-family="sans-serif" font-size="8.4" lengthAdjust="spacing" textLength="69" x="861" y="381.1371">-String description</text><text fill="#000000" font-family="sans-serif" font-size="8.4" lengthAdjust="spacing" textLength="81" x="861" y="392.3098">-int expectedDuration</text><text fill="#000000" font-family="sans-serif" font-size="8.4" lengthAdjust="spacing" textLength="86.4" x="861" y="403.4824">-Calendar startingDate</text><line style="stroke:#181818;stroke-width:0.3;" x1="858" x2="990" y1="407.9906" y2="407.9906"/><text fill="#000000" font-family="sans-serif" font-size="8.4" lengthAdjust="spacing" textLength="46.2" x="861" y="419.4551">+hasTeam()</text><text fill="#000000" font-family="sans-serif" font-size="8.4" lengthAdjust="spacing" textLength="82.2" x="861" y="430.6277">+hasUserEmail(email)</text><text fill="#000000" font-family="sans-serif" font-size="8.4" lengthAdjust="spacing" textLength="126" x="861" y="441.8004">+belongsToTeam(selectedTeam)</text><text fill="#000000" font-family="sans-serif" font-size="8.4" lengthAdjust="spacing" textLength="103.2" x="861" y="452.973">+hasConflict(selectedTask)</text><text fill="#000000" font-family="sans-serif" font-size="8.4" lengthAdjust="spacing" textLength="110.4" x="861" y="464.1457">+assignTeam(selectedTeam)</text></g><!--class DegreeOfUrgency--><g id="elem_DegreeOfUrgency"><rect codeLine="98" fill="#F1F1F1" height="62.318" id="DegreeOfUrgency" rx="1.5" ry="1.5" style="stroke:#181818;stroke-width:0.3;" width="87.6" x="643.2" y="546.9"/><ellipse cx="652.2" cy="556.5" fill="#EB937F" rx="6.6" ry="6.6" style="stroke:#181818;stroke-width:0.6;"/><path d="M651.5156,556.9781 L651.5156,558.4781 L654.1125,558.4781 L654.1125,557.925 Q654.1125,557.5594 654.2531,557.4 Q654.4031,557.2406 654.6281,557.2406 Q654.8531,557.2406 654.9938,557.4 Q655.1344,557.5594 655.1344,557.925 L655.1344,559.5 L650.3344,559.5 Q649.9594,559.5 649.8,559.3594 Q649.65,559.2188 649.65,558.9844 Q649.65,558.7594 649.8094,558.6188 Q649.9688,558.4781 650.3344,558.4781 L650.4938,558.4781 L650.4938,554.4844 L650.3344,554.4844 Q649.9594,554.4844 649.8,554.3438 Q649.65,554.2031 649.65,553.9688 Q649.65,553.7438 649.8,553.6031 Q649.9594,553.4625 650.3344,553.4625 L654.9094,553.4625 L654.9094,555.0188 Q654.9094,555.3844 654.7688,555.5437 Q654.6375,555.6938 654.4031,555.6938 Q654.1781,555.6938 654.0375,555.5437 Q653.8969,555.3844 653.8969,555.0188 L653.8969,554.4844 L651.5156,554.4844 L651.5156,555.9563 L652.4063,555.9563 Q652.4063,555.5625 652.4812,555.45 Q652.6406,555.2063 652.9219,555.2063 Q653.1469,555.2063 653.2875,555.3656 Q653.4281,555.5156 653.4281,555.8813 L653.4281,557.0625 Q653.4281,557.3906 653.3531,557.5031 Q653.1938,557.7375 652.9219,557.7375 Q652.6406,557.7375 652.4812,557.4938 Q652.4063,557.3813 652.4063,556.9781 L651.5156,556.9781 Z " fill="#000000"/><text fill="#000000" font-family="sans-serif" font-size="8.4" lengthAdjust="spacing" textLength="68.4" x="660.6" y="559.9781">DegreeOfUrgency</text><line style="stroke:#181818;stroke-width:0.3;" x1="643.8" x2="730.2" y1="566.1" y2="566.1"/><text fill="#000000" font-family="sans-serif" font-size="8.4" lengthAdjust="spacing" textLength="15" x="646.8" y="577.5645">Low</text><text fill="#000000" font-family="sans-serif" font-size="8.4" lengthAdjust="spacing" textLength="29.4" x="646.8" y="588.7371">Medium</text><text fill="#000000" font-family="sans-serif" font-size="8.4" lengthAdjust="spacing" textLength="16.8" x="646.8" y="599.9098">High</text><line style="stroke:#181818;stroke-width:0.3;" x1="643.8" x2="730.2" y1="604.418" y2="604.418"/></g><!--class TaskStatus--><g id="elem_TaskStatus"><rect codeLine="105" fill="#F1F1F1" height="95.8359" id="TaskStatus" rx="1.5" ry="1.5" style="stroke:#181818;stroke-width:0.3;" width="61.8" x="752.1" y="530.1"/><ellipse cx="761.1" cy="539.7" fill="#EB937F" rx="6.6" ry="6.6" style="stroke:#181818;stroke-width:0.6;"/><path d="M760.4156,540.1781 L760.4156,541.6781 L763.0125,541.6781 L763.0125,541.125 Q763.0125,540.7594 763.1531,540.6 Q763.3031,540.4406 763.5281,540.4406 Q763.7531,540.4406 763.8938,540.6 Q764.0344,540.7594 764.0344,541.125 L764.0344,542.7 L759.2344,542.7 Q758.8594,542.7 758.7,542.5594 Q758.55,542.4187 758.55,542.1844 Q758.55,541.9594 758.7094,541.8188 Q758.8688,541.6781 759.2344,541.6781 L759.3938,541.6781 L759.3938,537.6844 L759.2344,537.6844 Q758.8594,537.6844 758.7,537.5437 Q758.55,537.4031 758.55,537.1687 Q758.55,536.9438 758.7,536.8031 Q758.8594,536.6625 759.2344,536.6625 L763.8094,536.6625 L763.8094,538.2188 Q763.8094,538.5844 763.6687,538.7438 Q763.5375,538.8938 763.3031,538.8938 Q763.0781,538.8938 762.9375,538.7438 Q762.7969,538.5844 762.7969,538.2188 L762.7969,537.6844 L760.4156,537.6844 L760.4156,539.1563 L761.3063,539.1563 Q761.3063,538.7625 761.3813,538.65 Q761.5406,538.4063 761.8219,538.4063 Q762.0469,538.4063 762.1875,538.5656 Q762.3281,538.7156 762.3281,539.0813 L762.3281,540.2625 Q762.3281,540.5906 762.2531,540.7031 Q762.0938,540.9375 761.8219,540.9375 Q761.5406,540.9375 761.3813,540.6938 Q761.3063,540.5813 761.3063,540.1781 L760.4156,540.1781 Z " fill="#000000"/><text fill="#000000" font-family="sans-serif" font-size="8.4" lengthAdjust="spacing" textLength="42.6" x="769.5" y="543.1781">TaskStatus</text><line style="stroke:#181818;stroke-width:0.3;" x1="752.7" x2="813.3" y1="549.3" y2="549.3"/><text fill="#000000" font-family="sans-serif" font-size="8.4" lengthAdjust="spacing" textLength="31.2" x="755.7" y="560.7645">Pending</text><text fill="#000000" font-family="sans-serif" font-size="8.4" lengthAdjust="spacing" textLength="40.2" x="755.7" y="571.9371">Processed</text><text fill="#000000" font-family="sans-serif" font-size="8.4" lengthAdjust="spacing" textLength="31.2" x="755.7" y="583.1098">Planned</text><text fill="#000000" font-family="sans-serif" font-size="8.4" lengthAdjust="spacing" textLength="40.8" x="755.7" y="594.2824">Postponed</text><text fill="#000000" font-family="sans-serif" font-size="8.4" lengthAdjust="spacing" textLength="36" x="755.7" y="605.4551">Canceled</text><text fill="#000000" font-family="sans-serif" font-size="8.4" lengthAdjust="spacing" textLength="20.4" x="755.7" y="616.6277">Done</text><line style="stroke:#181818;stroke-width:0.3;" x1="752.7" x2="813.3" y1="621.1359" y2="621.1359"/></g><!--class EmailGenerator--><g id="elem_EmailGenerator"><rect codeLine="115" fill="#F1F1F1" height="39.9727" id="EmailGenerator" rx="1.5" ry="1.5" style="stroke:#181818;stroke-width:0.3;" width="179.4" x="442.5" y="558"/><ellipse cx="499.95" cy="567.6" fill="#B4A7E5" rx="6.6" ry="6.6" style="stroke:#181818;stroke-width:0.6;"/><path d="M500.5219,565.5844 L500.5219,569.5781 L501.5531,569.5781 Q501.9188,569.5781 502.0781,569.7188 Q502.2375,569.8594 502.2375,570.0938 Q502.2375,570.3188 502.0781,570.4594 Q501.9188,570.6 501.5531,570.6 L498.4688,570.6 Q498.1031,570.6 497.9437,570.4594 Q497.7844,570.3188 497.7844,570.0844 Q497.7844,569.8594 497.9437,569.7188 Q498.1031,569.5781 498.4688,569.5781 L499.5,569.5781 L499.5,565.5844 L498.4688,565.5844 Q498.1031,565.5844 497.9437,565.4438 Q497.7844,565.3031 497.7844,565.0688 Q497.7844,564.8438 497.9437,564.7031 Q498.1031,564.5625 498.4688,564.5625 L501.5531,564.5625 Q501.9188,564.5625 502.0781,564.7031 Q502.2375,564.8438 502.2375,565.0688 Q502.2375,565.3031 502.0781,565.4438 Q501.9188,565.5844 501.5531,565.5844 L500.5219,565.5844 Z " fill="#000000"/><text fill="#000000" font-family="sans-serif" font-size="8.4" font-style="italic" lengthAdjust="spacing" textLength="59.4" x="512.25" y="571.0781">EmailGenerator</text><line style="stroke:#181818;stroke-width:0.3;" x1="443.1" x2="621.3" y1="577.2" y2="577.2"/><line style="stroke:#181818;stroke-width:0.3;" x1="443.1" x2="621.3" y1="582" y2="582"/><text fill="#000000" font-family="sans-serif" font-size="8.4" lengthAdjust="spacing" textLength="172.2" x="446.1" y="593.4645">+sendEmail(title, startingDate, selectedTeam)</text></g><!--class TaskMapper--><g id="elem_TaskMapper"><rect codeLine="123" fill="#F1F1F1" height="62.318" id="TaskMapper" rx="1.5" ry="1.5" style="stroke:#181818;stroke-width:0.3;" width="164.4" x="1253.4" y="203.1"/><ellipse cx="1309.35" cy="212.7" fill="#ADD1B2" rx="6.6" ry="6.6" style="stroke:#181818;stroke-width:0.6;"/><path d="M1311.0094,210.225 Q1311.1031,210.0938 1311.2156,210.0281 Q1311.3281,209.9625 1311.4594,209.9625 Q1311.6844,209.9625 1311.825,210.1219 Q1311.9656,210.2719 1311.9656,210.6375 L1311.9656,211.5094 Q1311.9656,211.875 1311.825,212.0344 Q1311.6844,212.1938 1311.4594,212.1938 Q1311.2531,212.1938 1311.1313,212.0719 Q1311.0094,211.9594 1310.9438,211.65 Q1310.9156,211.4344 1310.8031,211.3219 Q1310.6063,211.0969 1310.2406,210.9656 Q1309.875,210.8344 1309.5,210.8344 Q1309.0406,210.8344 1308.6563,211.0313 Q1308.2813,211.2281 1307.9813,211.6781 Q1307.6906,212.1281 1307.6906,212.7469 L1307.6906,213.4031 Q1307.6906,214.1437 1308.225,214.6406 Q1308.7594,215.1281 1309.7156,215.1281 Q1310.2781,215.1281 1310.6719,214.9781 Q1310.9063,214.8844 1311.1594,214.6219 Q1311.3188,214.4625 1311.4031,214.4156 Q1311.4969,214.3688 1311.6187,214.3688 Q1311.8156,214.3688 1311.9656,214.5281 Q1312.125,214.6781 1312.125,214.8844 Q1312.125,215.0906 1311.9188,215.3344 Q1311.6187,215.6813 1311.1406,215.8781 Q1310.4937,216.15 1309.7156,216.15 Q1308.8062,216.15 1308.0844,215.775 Q1307.4937,215.475 1307.0813,214.8375 Q1306.6688,214.1906 1306.6688,213.4219 L1306.6688,212.7281 Q1306.6688,211.9313 1307.0344,211.2469 Q1307.4094,210.5531 1308.0656,210.1875 Q1308.7219,209.8125 1309.4625,209.8125 Q1309.9031,209.8125 1310.2875,209.9156 Q1310.6812,210.0094 1311.0094,210.225 Z " fill="#000000"/><text fill="#000000" font-family="sans-serif" font-size="8.4" lengthAdjust="spacing" textLength="47.4" x="1321.65" y="216.1781">TaskMapper</text><line style="stroke:#181818;stroke-width:0.3;" x1="1254" x2="1417.2" y1="222.3" y2="222.3"/><text fill="#000000" font-family="sans-serif" font-size="8.4" lengthAdjust="spacing" textLength="157.2" x="1257" y="233.7645">-List&lt;TaskDto&gt; freeAgendaEntriesListDto</text><line style="stroke:#181818;stroke-width:0.3;" x1="1254" x2="1417.2" y1="238.2727" y2="238.2727"/><text fill="#000000" font-family="sans-serif" font-size="8.4" lengthAdjust="spacing" textLength="120" x="1257" y="249.7371">+toDTO(freeAgendaEntriesList)</text><text fill="#000000" font-family="sans-serif" font-size="8.4" lengthAdjust="spacing" textLength="45.6" x="1257" y="260.9098">-toDTO(obj)</text></g><!--class TeamMapper--><g id="elem_TeamMapper"><rect codeLine="130" fill="#F1F1F1" height="62.318" id="TeamMapper" rx="1.5" ry="1.5" style="stroke:#181818;stroke-width:0.3;" width="119.4" x="1650.3" y="372.9"/><ellipse cx="1682.25" cy="382.5" fill="#ADD1B2" rx="6.6" ry="6.6" style="stroke:#181818;stroke-width:0.6;"/><path d="M1683.9094,380.025 Q1684.0031,379.8938 1684.1156,379.8281 Q1684.2281,379.7625 1684.3594,379.7625 Q1684.5844,379.7625 1684.725,379.9219 Q1684.8656,380.0719 1684.8656,380.4375 L1684.8656,381.3094 Q1684.8656,381.675 1684.725,381.8344 Q1684.5844,381.9938 1684.3594,381.9938 Q1684.1531,381.9938 1684.0313,381.8719 Q1683.9094,381.7594 1683.8438,381.45 Q1683.8156,381.2344 1683.7031,381.1219 Q1683.5063,380.8969 1683.1406,380.7656 Q1682.775,380.6344 1682.4,380.6344 Q1681.9406,380.6344 1681.5562,380.8313 Q1681.1812,381.0281 1680.8813,381.4781 Q1680.5906,381.9281 1680.5906,382.5469 L1680.5906,383.2031 Q1680.5906,383.9437 1681.125,384.4406 Q1681.6594,384.9281 1682.6156,384.9281 Q1683.1781,384.9281 1683.5719,384.7781 Q1683.8062,384.6844 1684.0594,384.4219 Q1684.2188,384.2625 1684.3031,384.2156 Q1684.3969,384.1688 1684.5188,384.1688 Q1684.7156,384.1688 1684.8656,384.3281 Q1685.025,384.4781 1685.025,384.6844 Q1685.025,384.8906 1684.8188,385.1344 Q1684.5188,385.4813 1684.0406,385.6781 Q1683.3938,385.95 1682.6156,385.95 Q1681.7063,385.95 1680.9844,385.575 Q1680.3938,385.275 1679.9813,384.6375 Q1679.5688,383.9906 1679.5688,383.2219 L1679.5688,382.5281 Q1679.5688,381.7313 1679.9344,381.0469 Q1680.3094,380.3531 1680.9656,379.9875 Q1681.6219,379.6125 1682.3625,379.6125 Q1682.8031,379.6125 1683.1875,379.7156 Q1683.5813,379.8094 1683.9094,380.025 Z " fill="#000000"/><text fill="#000000" font-family="sans-serif" font-size="8.4" lengthAdjust="spacing" textLength="50.4" x="1694.55" y="385.9781">TeamMapper</text><line style="stroke:#181818;stroke-width:0.3;" x1="1650.9" x2="1769.1" y1="392.1" y2="392.1"/><text fill="#000000" font-family="sans-serif" font-size="8.4" lengthAdjust="spacing" textLength="112.2" x="1653.9" y="403.5645">-List&lt;TeamDto&gt; teamsListDto</text><line style="stroke:#181818;stroke-width:0.3;" x1="1650.9" x2="1769.1" y1="408.0727" y2="408.0727"/><text fill="#000000" font-family="sans-serif" font-size="8.4" lengthAdjust="spacing" textLength="72" x="1653.9" y="419.5371">+toDTO(teamsList)</text><text fill="#000000" font-family="sans-serif" font-size="8.4" lengthAdjust="spacing" textLength="45.6" x="1653.9" y="430.7098">-toDTO(obj)</text></g><!--class TaskDto--><g id="elem_TaskDto"><rect codeLine="138" fill="#F1F1F1" height="95.8359" id="TaskDto" rx="1.5" ry="1.5" style="stroke:#181818;stroke-width:0.3;" width="388.2" x="1235.1" y="530.1"/><ellipse cx="1410.75" cy="539.7" fill="#ADD1B2" rx="6.6" ry="6.6" style="stroke:#181818;stroke-width:0.6;"/><path d="M1412.4094,537.225 Q1412.5031,537.0938 1412.6156,537.0281 Q1412.7281,536.9625 1412.8594,536.9625 Q1413.0844,536.9625 1413.225,537.1219 Q1413.3656,537.2719 1413.3656,537.6375 L1413.3656,538.5094 Q1413.3656,538.875 1413.225,539.0344 Q1413.0844,539.1938 1412.8594,539.1938 Q1412.6531,539.1938 1412.5313,539.0719 Q1412.4094,538.9594 1412.3438,538.65 Q1412.3156,538.4344 1412.2031,538.3219 Q1412.0063,538.0969 1411.6406,537.9656 Q1411.275,537.8344 1410.9,537.8344 Q1410.4406,537.8344 1410.0562,538.0313 Q1409.6812,538.2281 1409.3813,538.6781 Q1409.0906,539.1281 1409.0906,539.7469 L1409.0906,540.4031 Q1409.0906,541.1438 1409.625,541.6406 Q1410.1594,542.1281 1411.1156,542.1281 Q1411.6781,542.1281 1412.0719,541.9781 Q1412.3062,541.8844 1412.5594,541.6219 Q1412.7188,541.4625 1412.8031,541.4156 Q1412.8969,541.3688 1413.0188,541.3688 Q1413.2156,541.3688 1413.3656,541.5281 Q1413.525,541.6781 1413.525,541.8844 Q1413.525,542.0906 1413.3188,542.3344 Q1413.0188,542.6813 1412.5406,542.8781 Q1411.8938,543.15 1411.1156,543.15 Q1410.2063,543.15 1409.4844,542.775 Q1408.8938,542.475 1408.4813,541.8375 Q1408.0688,541.1906 1408.0688,540.4219 L1408.0688,539.7281 Q1408.0688,538.9313 1408.4344,538.2469 Q1408.8094,537.5531 1409.4656,537.1875 Q1410.1219,536.8125 1410.8625,536.8125 Q1411.3031,536.8125 1411.6875,536.9156 Q1412.0813,537.0094 1412.4094,537.225 Z " fill="#000000"/><text fill="#000000" font-family="sans-serif" font-size="8.4" lengthAdjust="spacing" textLength="31.8" x="1423.05" y="543.1781">TaskDto</text><line style="stroke:#181818;stroke-width:0.3;" x1="1235.7" x2="1622.7" y1="549.3" y2="549.3"/><text fill="#000000" font-family="sans-serif" font-size="8.4" lengthAdjust="spacing" textLength="40.8" x="1238.7" y="560.7645">-String title</text><text fill="#000000" font-family="sans-serif" font-size="8.4" lengthAdjust="spacing" textLength="69" x="1238.7" y="571.9371">-String description</text><text fill="#000000" font-family="sans-serif" font-size="8.4" lengthAdjust="spacing" textLength="94.8" x="1238.7" y="583.1098">-String degreeOfUrgency</text><text fill="#000000" font-family="sans-serif" font-size="8.4" lengthAdjust="spacing" textLength="81" x="1238.7" y="594.2824">-int expectedDuration</text><text fill="#000000" font-family="sans-serif" font-size="8.4" lengthAdjust="spacing" textLength="86.4" x="1238.7" y="605.4551">-Calendar startingDate</text><line style="stroke:#181818;stroke-width:0.3;" x1="1235.7" x2="1622.7" y1="609.9633" y2="609.9633"/><text fill="#000000" font-family="sans-serif" font-size="8.4" lengthAdjust="spacing" textLength="381" x="1238.7" y="621.4277">+TaskDto(title, description, degreeOfUrgency, expectedDuration, selectedGreenSpace, startingDate)</text></g><!--class GreenSpaceDto--><g id="elem_GreenSpaceDto"><rect codeLine="148" fill="#F1F1F1" height="84.6633" id="GreenSpaceDto" rx="1.5" ry="1.5" style="stroke:#181818;stroke-width:0.3;" width="178.8" x="1468.8" y="678.3"/><ellipse cx="1525.05" cy="687.9" fill="#ADD1B2" rx="6.6" ry="6.6" style="stroke:#181818;stroke-width:0.6;"/><path d="M1526.7094,685.425 Q1526.8031,685.2937 1526.9156,685.2281 Q1527.0281,685.1625 1527.1594,685.1625 Q1527.3844,685.1625 1527.525,685.3219 Q1527.6656,685.4719 1527.6656,685.8375 L1527.6656,686.7094 Q1527.6656,687.075 1527.525,687.2344 Q1527.3844,687.3938 1527.1594,687.3938 Q1526.9531,687.3938 1526.8313,687.2719 Q1526.7094,687.1594 1526.6438,686.85 Q1526.6156,686.6344 1526.5031,686.5219 Q1526.3062,686.2969 1525.9406,686.1656 Q1525.575,686.0344 1525.2,686.0344 Q1524.7406,686.0344 1524.3563,686.2312 Q1523.9813,686.4281 1523.6812,686.8781 Q1523.3906,687.3281 1523.3906,687.9469 L1523.3906,688.6031 Q1523.3906,689.3438 1523.925,689.8406 Q1524.4594,690.3281 1525.4156,690.3281 Q1525.9781,690.3281 1526.3719,690.1781 Q1526.6063,690.0844 1526.8594,689.8219 Q1527.0188,689.6625 1527.1031,689.6156 Q1527.1969,689.5688 1527.3188,689.5688 Q1527.5156,689.5688 1527.6656,689.7281 Q1527.825,689.8781 1527.825,690.0844 Q1527.825,690.2906 1527.6187,690.5344 Q1527.3188,690.8813 1526.8406,691.0781 Q1526.1938,691.35 1525.4156,691.35 Q1524.5063,691.35 1523.7844,690.975 Q1523.1938,690.675 1522.7813,690.0375 Q1522.3687,689.3906 1522.3687,688.6219 L1522.3687,687.9281 Q1522.3687,687.1313 1522.7344,686.4469 Q1523.1094,685.7531 1523.7656,685.3875 Q1524.4219,685.0125 1525.1625,685.0125 Q1525.6031,685.0125 1525.9875,685.1156 Q1526.3813,685.2094 1526.7094,685.425 Z " fill="#000000"/><text fill="#000000" font-family="sans-serif" font-size="8.4" lengthAdjust="spacing" textLength="61.2" x="1537.35" y="691.3781">GreenSpaceDto</text><line style="stroke:#181818;stroke-width:0.3;" x1="1469.4" x2="1647" y1="697.5" y2="697.5"/><text fill="#000000" font-family="sans-serif" font-size="8.4" lengthAdjust="spacing" textLength="48.6" x="1472.4" y="708.9645">-String name</text><text fill="#000000" font-family="sans-serif" font-size="8.4" lengthAdjust="spacing" textLength="43.8" x="1472.4" y="720.1371">-String type</text><text fill="#000000" font-family="sans-serif" font-size="8.4" lengthAdjust="spacing" textLength="31.8" x="1472.4" y="731.3098">-int area</text><text fill="#000000" font-family="sans-serif" font-size="8.4" lengthAdjust="spacing" textLength="58.2" x="1472.4" y="742.4824">-String address</text><line style="stroke:#181818;stroke-width:0.3;" x1="1469.4" x2="1647" y1="746.9906" y2="746.9906"/><text fill="#000000" font-family="sans-serif" font-size="8.4" lengthAdjust="spacing" textLength="171.6" x="1472.4" y="758.4551">+GreenSpaceDto(name, type, area, address)</text></g><!--class TeamDto--><g id="elem_TeamDto"><rect codeLine="157" fill="#F1F1F1" height="51.1453" id="TeamDto" rx="1.5" ry="1.5" style="stroke:#181818;stroke-width:0.3;" width="131.4" x="1644.3" y="552.6"/><ellipse cx="1690.05" cy="562.2" fill="#ADD1B2" rx="6.6" ry="6.6" style="stroke:#181818;stroke-width:0.6;"/><path d="M1691.7094,559.725 Q1691.8031,559.5938 1691.9156,559.5281 Q1692.0281,559.4625 1692.1594,559.4625 Q1692.3844,559.4625 1692.525,559.6219 Q1692.6656,559.7719 1692.6656,560.1375 L1692.6656,561.0094 Q1692.6656,561.375 1692.525,561.5344 Q1692.3844,561.6938 1692.1594,561.6938 Q1691.9531,561.6938 1691.8313,561.5719 Q1691.7094,561.4594 1691.6438,561.15 Q1691.6156,560.9344 1691.5031,560.8219 Q1691.3062,560.5969 1690.9406,560.4656 Q1690.575,560.3344 1690.2,560.3344 Q1689.7406,560.3344 1689.3563,560.5313 Q1688.9813,560.7281 1688.6812,561.1781 Q1688.3906,561.6281 1688.3906,562.2469 L1688.3906,562.9031 Q1688.3906,563.6438 1688.925,564.1406 Q1689.4594,564.6281 1690.4156,564.6281 Q1690.9781,564.6281 1691.3719,564.4781 Q1691.6063,564.3844 1691.8594,564.1219 Q1692.0188,563.9625 1692.1031,563.9156 Q1692.1969,563.8688 1692.3188,563.8688 Q1692.5156,563.8688 1692.6656,564.0281 Q1692.825,564.1781 1692.825,564.3844 Q1692.825,564.5906 1692.6187,564.8344 Q1692.3188,565.1813 1691.8406,565.3781 Q1691.1938,565.65 1690.4156,565.65 Q1689.5063,565.65 1688.7844,565.275 Q1688.1938,564.975 1687.7813,564.3375 Q1687.3687,563.6906 1687.3687,562.9219 L1687.3687,562.2281 Q1687.3687,561.4313 1687.7344,560.7469 Q1688.1094,560.0531 1688.7656,559.6875 Q1689.4219,559.3125 1690.1625,559.3125 Q1690.6031,559.3125 1690.9875,559.4156 Q1691.3813,559.5094 1691.7094,559.725 Z " fill="#000000"/><text fill="#000000" font-family="sans-serif" font-size="8.4" lengthAdjust="spacing" textLength="34.8" x="1702.35" y="565.6781">TeamDto</text><line style="stroke:#181818;stroke-width:0.3;" x1="1644.9" x2="1775.1" y1="571.8" y2="571.8"/><text fill="#000000" font-family="sans-serif" font-size="8.4" lengthAdjust="spacing" textLength="124.2" x="1647.9" y="583.2645">-List&lt;Collaborator&gt; collaborators</text><line style="stroke:#181818;stroke-width:0.3;" x1="1644.9" x2="1775.1" y1="587.7727" y2="587.7727"/><text fill="#000000" font-family="sans-serif" font-size="8.4" lengthAdjust="spacing" textLength="94.8" x="1647.9" y="599.2371">+TeamDto(collaborators)</text></g><!--class EmailThroughGmail--><g id="elem_EmailThroughGmail"><rect codeLine="166" fill="#F1F1F1" height="39.9727" id="EmailThroughGmail" rx="1.5" ry="1.5" style="stroke:#181818;stroke-width:0.3;" width="179.4" x="14.1" y="384"/><ellipse cx="64.05" cy="393.6" fill="#ADD1B2" rx="6.6" ry="6.6" style="stroke:#181818;stroke-width:0.6;"/><path d="M65.7094,391.125 Q65.8031,390.9938 65.9156,390.9281 Q66.0281,390.8625 66.1594,390.8625 Q66.3844,390.8625 66.525,391.0219 Q66.6656,391.1719 66.6656,391.5375 L66.6656,392.4094 Q66.6656,392.775 66.525,392.9344 Q66.3844,393.0938 66.1594,393.0938 Q65.9531,393.0938 65.8313,392.9719 Q65.7094,392.8594 65.6438,392.55 Q65.6156,392.3344 65.5031,392.2219 Q65.3062,391.9969 64.9406,391.8656 Q64.575,391.7344 64.2,391.7344 Q63.7406,391.7344 63.3562,391.9313 Q62.9812,392.1281 62.6813,392.5781 Q62.3906,393.0281 62.3906,393.6469 L62.3906,394.3031 Q62.3906,395.0438 62.925,395.5406 Q63.4594,396.0281 64.4156,396.0281 Q64.9781,396.0281 65.3719,395.8781 Q65.6063,395.7844 65.8594,395.5219 Q66.0188,395.3625 66.1031,395.3156 Q66.1969,395.2688 66.3188,395.2688 Q66.5156,395.2688 66.6656,395.4281 Q66.825,395.5781 66.825,395.7844 Q66.825,395.9906 66.6187,396.2344 Q66.3188,396.5813 65.8406,396.7781 Q65.1938,397.05 64.4156,397.05 Q63.5062,397.05 62.7844,396.675 Q62.1937,396.375 61.7813,395.7375 Q61.3688,395.0906 61.3688,394.3219 L61.3688,393.6281 Q61.3688,392.8313 61.7344,392.1469 Q62.1094,391.4531 62.7656,391.0875 Q63.4219,390.7125 64.1625,390.7125 Q64.6031,390.7125 64.9875,390.8156 Q65.3813,390.9094 65.7094,391.125 Z " fill="#000000"/><text fill="#000000" font-family="sans-serif" font-size="8.4" lengthAdjust="spacing" textLength="74.4" x="76.35" y="397.0781">EmailThroughGmail</text><line style="stroke:#181818;stroke-width:0.3;" x1="14.7" x2="192.9" y1="403.2" y2="403.2"/><line style="stroke:#181818;stroke-width:0.3;" x1="14.7" x2="192.9" y1="408" y2="408"/><text fill="#000000" font-family="sans-serif" font-size="8.4" lengthAdjust="spacing" textLength="172.2" x="17.7" y="419.4645">+sendEmail(title, startingDate, selectedTeam)</text></g><!--class EmailThroughDEIService--><g id="elem_EmailThroughDEIService"><rect codeLine="171" fill="#F1F1F1" height="39.9727" id="EmailThroughDEIService" rx="1.5" ry="1.5" style="stroke:#181818;stroke-width:0.3;" width="179.4" x="214.5" y="384"/><ellipse cx="254.55" cy="393.6" fill="#ADD1B2" rx="6.6" ry="6.6" style="stroke:#181818;stroke-width:0.6;"/><path d="M256.2094,391.125 Q256.3031,390.9938 256.4156,390.9281 Q256.5281,390.8625 256.6594,390.8625 Q256.8844,390.8625 257.025,391.0219 Q257.1656,391.1719 257.1656,391.5375 L257.1656,392.4094 Q257.1656,392.775 257.025,392.9344 Q256.8844,393.0938 256.6594,393.0938 Q256.4531,393.0938 256.3313,392.9719 Q256.2094,392.8594 256.1438,392.55 Q256.1156,392.3344 256.0031,392.2219 Q255.8062,391.9969 255.4406,391.8656 Q255.075,391.7344 254.7,391.7344 Q254.2406,391.7344 253.8563,391.9313 Q253.4813,392.1281 253.1812,392.5781 Q252.8906,393.0281 252.8906,393.6469 L252.8906,394.3031 Q252.8906,395.0438 253.425,395.5406 Q253.9594,396.0281 254.9156,396.0281 Q255.4781,396.0281 255.8719,395.8781 Q256.1063,395.7844 256.3594,395.5219 Q256.5188,395.3625 256.6031,395.3156 Q256.6969,395.2688 256.8187,395.2688 Q257.0156,395.2688 257.1656,395.4281 Q257.325,395.5781 257.325,395.7844 Q257.325,395.9906 257.1188,396.2344 Q256.8187,396.5813 256.3406,396.7781 Q255.6938,397.05 254.9156,397.05 Q254.0063,397.05 253.2844,396.675 Q252.6938,396.375 252.2813,395.7375 Q251.8687,395.0906 251.8687,394.3219 L251.8687,393.6281 Q251.8687,392.8313 252.2344,392.1469 Q252.6094,391.4531 253.2656,391.0875 Q253.9219,390.7125 254.6625,390.7125 Q255.1031,390.7125 255.4875,390.8156 Q255.8813,390.9094 256.2094,391.125 Z " fill="#000000"/><text fill="#000000" font-family="sans-serif" font-size="8.4" lengthAdjust="spacing" textLength="94.2" x="266.85" y="397.0781">EmailThroughDEIService</text><line style="stroke:#181818;stroke-width:0.3;" x1="215.1" x2="393.3" y1="403.2" y2="403.2"/><line style="stroke:#181818;stroke-width:0.3;" x1="215.1" x2="393.3" y1="408" y2="408"/><text fill="#000000" font-family="sans-serif" font-size="8.4" lengthAdjust="spacing" textLength="172.2" x="218.1" y="419.4645">+sendEmail(title, startingDate, selectedTeam)</text></g><!--reverse link Task to DegreeOfUrgency--><g id="link_Task_DegreeOfUrgency"><path codeLine="177" d="M914.0713,478.4559 C911.8693,494.7879 911.4,498.3 911.4,498.3 C911.4,498.3 741.6,503.1 741.6,503.1 C741.6,503.1 724.566,526.314 709.524,546.81 " fill="none" id="Task-backto-DegreeOfUrgency" style="stroke:#181818;stroke-width:0.6;"/><ellipse cx="914.7126" cy="473.699" fill="#FFFFFF" rx="4.8" ry="4.8" style="stroke:#181818;stroke-width:0.6;"/><line style="stroke:#181818;stroke-width:0.6;" x1="914.0713" x2="915.354" y1="478.4559" y2="468.942"/><line style="stroke:#181818;stroke-width:0.6;" x1="909.9557" x2="919.4696" y1="473.0576" y2="474.3403"/></g><!--reverse link Task to TaskStatus--><g id="link_Task_TaskStatus"><path codeLine="178" d="M917.8502,478.5088 C916.4882,494.8408 916.2,498.3 916.2,498.3 C916.2,498.3 824.4,503.1 824.4,503.1 C824.4,503.1 817.566,515.376 809.454,529.962 " fill="none" id="Task-backto-TaskStatus" style="stroke:#181818;stroke-width:0.6;"/><ellipse cx="918.2491" cy="473.7254" fill="#FFFFFF" rx="4.8" ry="4.8" style="stroke:#181818;stroke-width:0.6;"/><line style="stroke:#181818;stroke-width:0.6;" x1="917.8502" x2="918.648" y1="478.5088" y2="468.942"/><line style="stroke:#181818;stroke-width:0.6;" x1="913.4657" x2="923.0325" y1="473.3265" y2="474.1243"/></g><!--link Repositories to Repositories--><g id="link_Repositories_Repositories"><path codeLine="180" d="M1054.968,77.844 C1067.088,79.122 1075.8,83.172 1075.8,90 C1075.8,96.828 1070.6682,100.5005 1058.5482,101.7785 " fill="none" id="Repositories-to-Repositories" style="stroke:#181818;stroke-width:0.6;"/><polygon fill="#181818" points="1054.968,102.156,1060.5899,103.9765,1057.9515,101.8414,1060.0866,99.203,1054.968,102.156" style="stroke:#181818;stroke-width:0.6;"/><text fill="#000000" font-family="sans-serif" font-size="7.8" lengthAdjust="spacing" textLength="29.4" x="1079.4" y="93.317">instance</text></g><!--link ApplicationSession to ApplicationSession--><g id="link_ApplicationSession_ApplicationSession"><path codeLine="181" d="M1110.996,387.834 C1122.9,388.794 1131.9,394.218 1131.9,404.1 C1131.9,413.982 1126.4884,419.1166 1114.5844,420.0766 " fill="none" id="ApplicationSession-to-ApplicationSession" style="stroke:#181818;stroke-width:0.6;"/><polygon fill="#181818" points="1110.996,420.366,1116.5714,422.3242,1113.9863,420.1248,1116.1856,417.5397,1110.996,420.366" style="stroke:#181818;stroke-width:0.6;"/><text fill="#000000" font-family="sans-serif" font-size="7.8" lengthAdjust="spacing" textLength="29.4" x="1135.5" y="407.417">instance</text></g><!--link AssignTeamUI to AssignTeamController--><g id="link_AssignTeamUI_AssignTeamController"><path codeLine="183" d="M1350.492,90 C1348.086,90 1346.598,90 1346.598,90 C1346.598,90 1332.714,90 1320.696,90 " fill="none" id="AssignTeamUI-to-AssignTeamController" style="stroke:#181818;stroke-width:0.6;stroke-dasharray:7.0,7.0;"/><polygon fill="#181818" points="1317.096,90,1322.496,92.4,1320.096,90,1322.496,87.6,1317.096,90" style="stroke:#181818;stroke-width:0.6;"/></g><!--link AssignTeamController to Repositories--><g id="link_AssignTeamController_Repositories"><path codeLine="185" d="M1213.77,90 C1168.344,90 1105.854,90 1058.526,90 " fill="none" id="AssignTeamController-to-Repositories" style="stroke:#181818;stroke-width:0.6;stroke-dasharray:7.0,7.0;"/><polygon fill="#181818" points="1054.926,90,1060.326,92.4,1057.926,90,1060.326,87.6,1054.926,90" style="stroke:#181818;stroke-width:0.6;"/><text fill="#000000" font-family="sans-serif" font-size="7.8" lengthAdjust="spacing" textLength="40.2" x="1114.2" y="85.817">repositories</text></g><!--link Repositories to TeamRepository--><g id="link_Repositories_TeamRepository"><path codeLine="187" d="M952.878,126.612 C924.51,149.976 892.8,176.1 892.8,176.1 C892.8,176.1 882.2822,186.7291 868.6682,200.4871 " fill="none" id="Repositories-to-TeamRepository" style="stroke:#181818;stroke-width:0.6;"/><polygon fill="#181818" points="866.136,203.046,871.6402,200.8957,868.2461,200.9135,868.2283,197.5195,866.136,203.046" style="stroke:#181818;stroke-width:0.6;"/><text fill="#000000" font-family="sans-serif" font-size="7.8" lengthAdjust="spacing" textLength="4.2" x="865.7302" y="196.3952">1</text></g><!--link Repositories to Agenda--><g id="link_Repositories_Agenda"><path codeLine="188" d="M998.1,126.75 C998.85,144.828 999.6,162.9 999.6,162.9 C999.6,162.9 999.9722,166.9357 1000.9322,177.1837 " fill="none" id="Repositories-to-Agenda" style="stroke:#181818;stroke-width:0.6;"/><polygon fill="#181818" points="1001.268,180.768,1003.1539,175.1677,1000.9882,177.7811,998.3748,175.6154,1001.268,180.768" style="stroke:#181818;stroke-width:0.6;"/><text fill="#000000" font-family="sans-serif" font-size="7.8" lengthAdjust="spacing" textLength="4.2" x="996.4857" y="174.1281">1</text></g><!--link AssignTeamController to ApplicationSession--><g id="link_AssignTeamController_ApplicationSession"><path codeLine="190" d="M1213.746,125.322 C1193.4,138.996 1174.8,151.5 1174.8,151.5 C1174.8,151.5 1119,302.1 1119,302.1 C1119,302.1 1096.2938,345.2229 1080.4778,375.2469 " fill="none" id="AssignTeamController-to-ApplicationSession" style="stroke:#181818;stroke-width:0.6;stroke-dasharray:7.0,7.0;"/><polygon fill="#181818" points="1078.8,378.432,1083.4402,374.7729,1080.1982,375.7778,1079.1934,372.5358,1078.8,378.432" style="stroke:#181818;stroke-width:0.6;"/></g><!--link AssignTeamController to UserSession--><g id="link_AssignTeamController_UserSession"><path codeLine="191" d="M1238.742,132.348 C1224.882,154.05 1210.8,176.1 1210.8,176.1 C1210.8,176.1 1168.8,468.9 1168.8,468.9 C1168.8,468.9 1150.2202,523.1301 1139.5042,554.4261 " fill="none" id="AssignTeamController-to-UserSession" style="stroke:#181818;stroke-width:0.6;stroke-dasharray:7.0,7.0;"/><polygon fill="#181818" points="1138.338,557.832,1142.3579,553.5007,1139.3098,554.9938,1137.8167,551.9457,1138.338,557.832" style="stroke:#181818;stroke-width:0.6;"/></g><!--link ApplicationSession to UserSession--><g id="link_ApplicationSession_UserSession"><path codeLine="192" d="M1075.128,429.642 C1088.37,464.316 1110.7851,523.0111 1122.8391,554.5591 " fill="none" id="ApplicationSession-to-UserSession" style="stroke:#181818;stroke-width:0.6;"/><polygon fill="#181818" points="1124.124,557.922,1124.4386,552.0211,1123.0532,555.1196,1119.9547,553.7343,1124.124,557.922" style="stroke:#181818;stroke-width:0.6;"/><text fill="#000000" font-family="sans-serif" font-size="7.8" lengthAdjust="spacing" textLength="43.2" x="1101" y="495.917">userSession</text><text fill="#000000" font-family="sans-serif" font-size="7.8" lengthAdjust="spacing" textLength="4.2" x="1118.0387" y="551.202">1</text></g><!--link AssignTeamController to Agenda--><g id="link_AssignTeamController_Agenda"><path codeLine="193" d="M1213.782,110.376 C1171.638,126.528 1119,146.7 1119,146.7 C1119,146.7 1099.2,151.5 1099.2,151.5 C1099.2,151.5 1086.8433,162.4237 1068.8493,178.3297 " fill="none" id="AssignTeamController-to-Agenda" style="stroke:#181818;stroke-width:0.6;stroke-dasharray:7.0,7.0;"/><polygon fill="#181818" points="1066.152,180.714,1071.7874,178.9358,1068.3997,178.7271,1068.6084,175.3394,1066.152,180.714" style="stroke:#181818;stroke-width:0.6;"/><text fill="#000000" font-family="sans-serif" font-size="7.8" lengthAdjust="spacing" textLength="25.2" x="1099.8" y="160.517">agenda</text></g><!--link AssignTeamController to TeamRepository--><g id="link_AssignTeamController_TeamRepository"><path codeLine="194" d="M1213.782,110.376 C1171.638,126.528 1119,146.7 1119,146.7 C1119,146.7 1026.6,151.5 1026.6,151.5 C1026.6,151.5 892.8,176.1 892.8,176.1 C892.8,176.1 882.2822,186.7291 868.6682,200.4871 " fill="none" id="AssignTeamController-to-TeamRepository" style="stroke:#181818;stroke-width:0.6;stroke-dasharray:7.0,7.0;"/><polygon fill="#181818" points="866.136,203.046,871.6402,200.8957,868.2461,200.9135,868.2283,197.5195,866.136,203.046" style="stroke:#181818;stroke-width:0.6;"/><text fill="#000000" font-family="sans-serif" font-size="7.8" lengthAdjust="spacing" textLength="54.6" x="1027.2" y="160.517">teamRepository</text></g><!--link AssignTeamController to TaskMapper--><g id="link_AssignTeamController_TaskMapper"><path codeLine="195" d="M1285.896,132.378 C1296.984,154.98 1308.8502,179.1741 1318.9662,199.7901 " fill="none" id="AssignTeamController-to-TaskMapper" style="stroke:#181818;stroke-width:0.6;stroke-dasharray:7.0,7.0;"/><polygon fill="#181818" points="1320.552,203.022,1320.3278,197.1169,1319.2305,200.3288,1316.0186,199.2314,1320.552,203.022" style="stroke:#181818;stroke-width:0.6;"/></g><!--link AssignTeamController to TeamMapper--><g id="link_AssignTeamController_TeamMapper"><path codeLine="196" d="M1317.078,128.952 C1330.368,138.81 1341,146.7 1341,146.7 C1341,146.7 1428.6,176.1 1428.6,176.1 C1428.6,176.1 1592.4379,308.5013 1669.2499,370.5713 " fill="none" id="AssignTeamController-to-TeamMapper" style="stroke:#181818;stroke-width:0.6;stroke-dasharray:7.0,7.0;"/><polygon fill="#181818" points="1672.05,372.834,1669.3584,367.5733,1669.7166,370.9484,1666.3415,371.3067,1672.05,372.834" style="stroke:#181818;stroke-width:0.6;"/></g><!--link Agenda to Task--><g id="link_Agenda_Task"><path codeLine="198" d="M980.418,287.784 C972.462,304.104 965.1904,319.0245 956.8984,336.0225 " fill="none" id="Agenda-to-Task" style="stroke:#181818;stroke-width:0.6;"/><polygon fill="#181818" points="955.32,339.258,959.8446,335.4569,956.6353,336.5617,955.5305,333.3524,955.32,339.258" style="stroke:#181818;stroke-width:0.6;"/><text fill="#000000" font-family="sans-serif" font-size="7.8" lengthAdjust="spacing" textLength="4.2" x="973.909" y="301.0511">1</text><text fill="#000000" font-family="sans-serif" font-size="7.8" lengthAdjust="spacing" textLength="3" x="954.4167" y="332.572">*</text></g><!--link TeamRepository to Team--><g id="link_TeamRepository_Team"><path codeLine="199" d="M836.148,265.632 C836.94,335.112 838.8,498.3 838.8,498.3 C838.8,498.3 864.8094,531.6297 883.1094,555.0837 " fill="none" id="TeamRepository-to-Team" style="stroke:#181818;stroke-width:0.6;"/><polygon fill="#181818" points="885.324,557.922,883.8943,552.1882,883.4785,555.5568,880.11,555.141,885.324,557.922" style="stroke:#181818;stroke-width:0.6;"/><text fill="#000000" font-family="sans-serif" font-size="7.8" lengthAdjust="spacing" textLength="4.2" x="831.7235" y="278.7333">1</text><text fill="#000000" font-family="sans-serif" font-size="7.8" lengthAdjust="spacing" textLength="3" x="879.0212" y="551.202">*</text></g><!--link TaskMapper to TaskDto--><g id="link_TaskMapper_TaskDto"><path codeLine="201" d="M1343.988,265.602 C1360.368,325.554 1395.7492,455.0653 1415.2612,526.4833 " fill="none" id="TaskMapper-to-TaskDto" style="stroke:#181818;stroke-width:0.6;stroke-dasharray:7.0,7.0;"/><polygon fill="#181818" points="1416.21,529.956,1417.102,524.1144,1415.4194,527.0621,1412.4717,525.3794,1416.21,529.956" style="stroke:#181818;stroke-width:0.6;"/></g><!--link TaskMapper to Task--><g id="link_TaskMapper_Task"><path codeLine="202" d="M1253.25,260.448 C1192.008,279.45 1119,302.1 1119,302.1 C1119,302.1 1009.8,312.3 1009.8,312.3 C1009.8,312.3 1001.1847,321.4559 986.9887,336.5459 " fill="none" id="TaskMapper-to-Task" style="stroke:#181818;stroke-width:0.6;stroke-dasharray:7.0,7.0;"/><polygon fill="#181818" points="984.522,339.168,989.9701,336.8794,986.5776,336.9829,986.474,333.5904,984.522,339.168" style="stroke:#181818;stroke-width:0.6;"/></g><!--link Task to GreenSpace--><g id="link_Task_GreenSpace"><path codeLine="204" d="M964.218,469.044 C976.812,489.198 988.5659,508.0093 1000.3079,526.7953 " fill="none" id="Task-to-GreenSpace" style="stroke:#181818;stroke-width:0.6;"/><polygon fill="#181818" points="1002.216,529.848,1001.389,523.9968,1000.6259,527.3041,997.3187,526.5409,1002.216,529.848" style="stroke:#181818;stroke-width:0.6;"/><text fill="#000000" font-family="sans-serif" font-size="7.8" lengthAdjust="spacing" textLength="3" x="963.6984" y="481.9617">*</text><text fill="#000000" font-family="sans-serif" font-size="7.8" lengthAdjust="spacing" textLength="4.2" x="995.1763" y="523.3284">1</text></g><!--link TaskDto to GreenSpaceDto--><g id="link_TaskDto_GreenSpaceDto"><path codeLine="205" d="M1468.29,626.166 C1483.074,644.118 1496.4,660.3 1496.4,660.3 C1496.4,660.3 1501.9647,665.6769 1512.3507,675.7089 " fill="none" id="TaskDto-to-GreenSpaceDto" style="stroke:#181818;stroke-width:0.6;"/><polygon fill="#181818" points="1514.94,678.21,1512.7234,672.7322,1512.7822,676.1258,1509.3886,676.1846,1514.94,678.21" style="stroke:#181818;stroke-width:0.6;"/><text fill="#000000" font-family="sans-serif" font-size="7.8" lengthAdjust="spacing" textLength="3" x="1468.5204" y="639.1665">*</text><text fill="#000000" font-family="sans-serif" font-size="7.8" lengthAdjust="spacing" textLength="4.2" x="1506.0623" y="671.5353">1</text></g><!--link TeamMapper to TeamDto--><g id="link_TeamMapper_TeamDto"><path codeLine="207" d="M1710,435.396 C1710,468.756 1710,517.836 1710,548.814 " fill="none" id="TeamMapper-to-TeamDto" style="stroke:#181818;stroke-width:0.6;stroke-dasharray:7.0,7.0;"/><polygon fill="#181818" points="1710,552.414,1712.4,547.014,1710,549.414,1707.6,547.014,1710,552.414" style="stroke:#181818;stroke-width:0.6;"/></g><!--link TeamMapper to Team--><g id="link_TeamMapper_Team"><path codeLine="208" d="M1650.282,414.366 C1502.502,438.276 1131.6,498.3 1131.6,498.3 C1131.6,498.3 976.8,503.1 976.8,503.1 C976.8,503.1 945.7759,533.3931 923.1979,555.4371 " fill="none" id="TeamMapper-to-Team" style="stroke:#181818;stroke-width:0.6;stroke-dasharray:7.0,7.0;"/><polygon fill="#181818" points="920.622,557.952,926.1624,555.8968,922.7686,555.8562,922.8092,552.4623,920.622,557.952" style="stroke:#181818;stroke-width:0.6;"/></g><!--link TaskMapper to GreenSpaceDto--><g id="link_TaskMapper_GreenSpaceDto"><path codeLine="209" d="M1417.926,249.234 C1546.446,271.608 1780.2,312.3 1780.2,312.3 C1780.2,312.3 1786.2,503.1 1786.2,503.1 C1786.2,503.1 1786.2,654.9 1786.2,654.9 C1786.2,654.9 1714.9916,675.2294 1651.1216,693.4694 " fill="none" id="TaskMapper-to-GreenSpaceDto" style="stroke:#181818;stroke-width:0.6;stroke-dasharray:7.0,7.0;"/><polygon fill="#181818" points="1647.66,694.458,1653.5115,695.2829,1650.5447,693.6342,1652.1934,690.6674,1647.66,694.458" style="stroke:#181818;stroke-width:0.6;"/></g><!--link Task to Team--><g id="link_Task_Team"><path codeLine="211" d="M921.942,468.942 C921.42,485.274 921,498.3 921,498.3 C921,498.3 912.5801,530.9818 906.5381,554.4358 " fill="none" id="Task-to-Team" style="stroke:#181818;stroke-width:0.6;"/><polygon fill="#181818" points="905.64,557.922,909.3112,553.2914,906.3884,555.0168,904.663,552.094,905.64,557.922" style="stroke:#181818;stroke-width:0.6;"/><text fill="#000000" font-family="sans-serif" font-size="7.8" lengthAdjust="spacing" textLength="3" x="918.7141" y="481.8531">*</text><text fill="#000000" font-family="sans-serif" font-size="7.8" lengthAdjust="spacing" textLength="13.2" x="892.1329" y="551.202">0..1</text></g><!--link Task to EmailGenerator--><g id="link_Task_EmailGenerator"><path codeLine="213" d="M857.238,427.272 C771.324,456.324 633,503.1 633,503.1 C633,503.1 591.4485,533.7702 561.5805,555.8142 " fill="none" id="Task-to-EmailGenerator" style="stroke:#181818;stroke-width:0.6;"/><polygon fill="#181818" points="558.684,557.952,564.454,556.6764,561.0978,556.1705,561.6036,552.8143,558.684,557.952" style="stroke:#181818;stroke-width:0.6;"/><text fill="#000000" font-family="sans-serif" font-size="7.8" lengthAdjust="spacing" textLength="46.8" x="675.6" y="495.917">makes use of</text><text fill="#000000" font-family="sans-serif" font-size="7.8" lengthAdjust="spacing" textLength="3" x="849.6516" y="426.7173">*</text><text fill="#000000" font-family="sans-serif" font-size="7.8" lengthAdjust="spacing" textLength="4.2" x="559.2846" y="551.2379">1</text></g><!--link EmailThroughGmail to EmailGenerator--><g id="link_EmailThroughGmail_EmailGenerator"><path codeLine="215" d="M134.406,424.308 C163.872,443.19 204,468.9 204,468.9 C204,468.9 368.4007,523.2994 462.8947,554.5654 " fill="none" id="EmailThroughGmail-to-EmailGenerator" style="stroke:#181818;stroke-width:0.6;stroke-dasharray:7.0,7.0;"/><polygon fill="none" points="473.148,557.958,464.0256,551.1476,461.7638,557.9832,473.148,557.958" style="stroke:#181818;stroke-width:0.6;"/></g><!--link EmailThroughDEIService to EmailGenerator--><g id="link_EmailThroughDEIService_EmailGenerator"><path codeLine="216" d="M330.132,424.356 C374.076,457.656 454.0525,518.2729 497.8585,551.4709 " fill="none" id="EmailThroughDEIService-to-EmailGenerator" style="stroke:#181818;stroke-width:0.6;stroke-dasharray:7.0,7.0;"/><polygon fill="none" points="506.466,557.994,500.0329,548.6017,495.6841,554.34,506.466,557.994" style="stroke:#181818;stroke-width:0.6;"/></g><!--SRC=[fLRDRjiu4BxpAOXSecoSeBqk5WO2EqWDj4YnTXw0aSOornGfa5JRR7RVVOSK9P4otIpIvb1hVh-P-JZafJbosJBD6jeegSg3LWrGgpiWawPbvP7LiBKl0gY6qZ9PYzZ075YbldDPqpqJ9jO8Bi6-j41R9LxS1xdCA9MsYaHUfM36t5ch-NDdOLCgkUL_0_r0oAM0lQLMKSthWwKLTt2uaeHyxK7Ifmrz9Ju0lJE6rt87h7dQa5T2_iM_qMwbfDLA2D0P-qc9VXJ_NMULnLLGrc3lQf0LkqSL1nChd4iYs890q53jc3aMV52mCRwJ9L3Ngc5SlexVVqAh3BTAlmp8Hmdc3eXl4c6SVoCDJh24ueh-ddhEYfbNCUKj7CAXQzvspFgP6_k7Asr9eM-6avmgzneWwLdUp6BURNc0gaF6dMasO7l4cmt68ELn5uKhp627mWKraLTcAB4wCaPLr8kqIxEUeAwlPohr3OBaoF15LI0cohQju2LpHs0B21PFma1O7BBbPJhmASUgqnhd4vpYUJuPqFDOwE34zwxHnQpUjCeL7Wpsh3J31Ynf6NsPoUq1Po-tk5PWTDxYA75_IDP0Ad4B8aYuj9HfOAa1gogDS5DXRHeFDk0_C3FX3tIPYi29pd5ORiKCI0McrBprssR20pzQFwjrfrcaMZ7X6AhT5BH5zpMpC87naxtw2RXUymn2oThiLCf0pxdH5zVH7ZbWY_zBu86o8Bk6hg76OJpkdpGUgNAWx6VrtV__1IhUDVxd9rouevTBiKL-TSEs-OhLOfNzRwrA70XK_PTWKWw_bR6j6hvMZfCYVAnHxC9ZJq7laHdKz-C197ZsJBJ6J7sh_8mMIOTF3sPwTbZRHllULT6BJhVNsgepEmer0OfLwzrZaJMw2l5w4_Nyr-pGPDEYtASTTyGyrQZ8Xn_lYzrZKgCBynv-ZugK8hz4_e1d65wKT35Fj3Y9FurtsY0f0QvoIoPJ_o_kcUiqUk72BNo8XVTS3DQpiST8tboNeM6zMv7eJfXz_mEFZMG2RmUysSmmVNzGTlYew-h3Wz-7xpn6cNZh-yqMz3S-Bl5td4tYw42lRsvEzj2eY5ODYHyhz6QPF5xmBSF3FKTERqLddP56FYH-BTBRPVurI79IPps3ekDdrGmtGhduU35_AsHjmjlgJDRRN4tdRUEBFTUXa3ComqAwsEai2WyJhLcFzwnXMZCwsBG9vnsdLVtJuC6614Ik7b_NRnVzDJy3qEi70_UO8LCc31eoksERo7jneA_p7PeNlMo2uncr2qacn6C1FjMfU9v-7YZ1yU7szcDSJW8XlLPn10qx8kDmpbJj2JdP69Zkd-NyCixlWQpfVm00]--></g></svg>