<?xml version="1.0" encoding="us-ascii" standalone="no"?><svg xmlns="http://www.w3.org/2000/svg" xmlns:xlink="http://www.w3.org/1999/xlink" contentStyleType="text/css" height="803.6px" preserveAspectRatio="none" style="width:1599px;height:803px;background:#FFFFFF;" version="1.1" viewBox="0 0 1599 803" width="1599.5px" zoomAndPan="magnify"><defs/><g><!--class AssignTeamUI--><g id="elem_AssignTeamUI"><rect codeLine="11" fill="#F1F1F1" height="33.6" id="AssignTeamUI" rx="1.75" ry="1.75" style="stroke:#181818;stroke-width:0.3499999999999999;" width="85.4" x="253.05" y="37.45"/><ellipse cx="263.55" cy="48.65" fill="#ADD1B2" rx="7.7" ry="7.7" style="stroke:#181818;stroke-width:0.6999999999999998;"/><path d="M265.4859,45.7625 Q265.5953,45.6094 265.7266,45.5328 Q265.8578,45.4562 266.0109,45.4562 Q266.2734,45.4562 266.4375,45.6422 Q266.6016,45.8172 266.6016,46.2437 L266.6016,47.2609 Q266.6016,47.6875 266.4375,47.8734 Q266.2734,48.0594 266.0109,48.0594 Q265.7703,48.0594 265.6281,47.9172 Q265.4859,47.7859 265.4094,47.425 Q265.3766,47.1734 265.2453,47.0422 Q265.0156,46.7797 264.5891,46.6266 Q264.1625,46.4734 263.725,46.4734 Q263.1891,46.4734 262.7406,46.7031 Q262.3031,46.9328 261.9531,47.4578 Q261.6141,47.9828 261.6141,48.7047 L261.6141,49.4703 Q261.6141,50.3344 262.2375,50.9141 Q262.8609,51.4828 263.9766,51.4828 Q264.6328,51.4828 265.0922,51.3078 Q265.3656,51.1984 265.6609,50.8922 Q265.8469,50.7062 265.9453,50.6516 Q266.0547,50.5969 266.1969,50.5969 Q266.4266,50.5969 266.6016,50.7828 Q266.7875,50.9578 266.7875,51.1984 Q266.7875,51.4391 266.5469,51.7234 Q266.1969,52.1281 265.6391,52.3578 Q264.8844,52.675 263.9766,52.675 Q262.9156,52.675 262.0734,52.2375 Q261.3844,51.8875 260.9031,51.1437 Q260.4219,50.3891 260.4219,49.4922 L260.4219,48.6828 Q260.4219,47.7531 260.8484,46.9547 Q261.2859,46.1453 262.0516,45.7187 Q262.8172,45.2812 263.6812,45.2812 Q264.1953,45.2812 264.6437,45.4016 Q265.1031,45.5109 265.4859,45.7625 Z " fill="#000000"/><text fill="#000000" font-family="sans-serif" font-size="9.8" lengthAdjust="spacing" textLength="63" x="273.35" y="52.7078">AssignTeamUI</text><line style="stroke:#181818;stroke-width:0.3499999999999999;" x1="253.75" x2="337.75" y1="59.85" y2="59.85"/><line style="stroke:#181818;stroke-width:0.3499999999999999;" x1="253.75" x2="337.75" y1="65.45" y2="65.45"/></g><!--class AssignTeamController--><g id="elem_AssignTeamController"><rect codeLine="16" fill="#F1F1F1" height="98.7738" id="AssignTeamController" rx="1.75" ry="1.75" style="stroke:#181818;stroke-width:0.3499999999999999;" width="120.4" x="362.95" y="4.9"/><ellipse cx="373.45" cy="16.1" fill="#ADD1B2" rx="7.7" ry="7.7" style="stroke:#181818;stroke-width:0.6999999999999998;"/><path d="M375.3859,13.2125 Q375.4953,13.0594 375.6266,12.9828 Q375.7578,12.9062 375.9109,12.9062 Q376.1734,12.9062 376.3375,13.0922 Q376.5016,13.2672 376.5016,13.6937 L376.5016,14.7109 Q376.5016,15.1375 376.3375,15.3234 Q376.1734,15.5094 375.9109,15.5094 Q375.6703,15.5094 375.5281,15.3672 Q375.3859,15.2359 375.3094,14.875 Q375.2766,14.6234 375.1453,14.4922 Q374.9156,14.2297 374.4891,14.0766 Q374.0625,13.9234 373.625,13.9234 Q373.0891,13.9234 372.6406,14.1531 Q372.2031,14.3828 371.8531,14.9078 Q371.5141,15.4328 371.5141,16.1547 L371.5141,16.9203 Q371.5141,17.7844 372.1375,18.3641 Q372.7609,18.9328 373.8766,18.9328 Q374.5328,18.9328 374.9922,18.7578 Q375.2656,18.6484 375.5609,18.3422 Q375.7469,18.1562 375.8453,18.1016 Q375.9547,18.0469 376.0969,18.0469 Q376.3266,18.0469 376.5016,18.2328 Q376.6875,18.4078 376.6875,18.6484 Q376.6875,18.8891 376.4469,19.1734 Q376.0969,19.5781 375.5391,19.8078 Q374.7844,20.125 373.8766,20.125 Q372.8156,20.125 371.9734,19.6875 Q371.2844,19.3375 370.8031,18.5937 Q370.3219,17.8391 370.3219,16.9422 L370.3219,16.1328 Q370.3219,15.2031 370.7484,14.4047 Q371.1859,13.5953 371.9516,13.1687 Q372.7172,12.7312 373.5812,12.7312 Q374.0953,12.7312 374.5437,12.8516 Q375.0031,12.9609 375.3859,13.2125 Z " fill="#000000"/><text fill="#000000" font-family="sans-serif" font-size="9.8" lengthAdjust="spacing" textLength="98" x="383.25" y="20.1578">AssignTeamController</text><line style="stroke:#181818;stroke-width:0.3499999999999999;" x1="363.65" x2="482.65" y1="27.3" y2="27.3"/><line style="stroke:#181818;stroke-width:0.3499999999999999;" x1="363.65" x2="482.65" y1="32.9" y2="32.9"/><text fill="#000000" font-family="sans-serif" font-size="9.8" lengthAdjust="spacing" textLength="110.6" x="367.15" y="46.2752">+AssignTeamController()</text><text fill="#000000" font-family="sans-serif" font-size="9.8" lengthAdjust="spacing" textLength="91.7" x="367.15" y="59.31">+getAgendaEntries()</text><text fill="#000000" font-family="sans-serif" font-size="9.8" lengthAdjust="spacing" textLength="56.7" x="367.15" y="72.3447">+getTeams()</text><text fill="#000000" font-family="sans-serif" font-size="9.8" lengthAdjust="spacing" textLength="88.9" x="367.15" y="85.3795">+getSelectedTask(i)</text><text fill="#000000" font-family="sans-serif" font-size="9.8" lengthAdjust="spacing" textLength="68.6" x="367.15" y="98.4143">+assignTeam(i)</text></g><!--class ApplicationSession--><g id="elem_ApplicationSession"><rect codeLine="25" fill="#F1F1F1" height="59.6695" id="ApplicationSession" rx="1.75" ry="1.75" style="stroke:#181818;stroke-width:0.3499999999999999;" width="105.7" x="49" y="191.45"/><ellipse cx="59.5" cy="202.65" fill="#ADD1B2" rx="7.7" ry="7.7" style="stroke:#181818;stroke-width:0.6999999999999998;"/><path d="M61.4359,199.7625 Q61.5453,199.6094 61.6766,199.5328 Q61.8078,199.4562 61.9609,199.4562 Q62.2234,199.4562 62.3875,199.6422 Q62.5516,199.8172 62.5516,200.2437 L62.5516,201.2609 Q62.5516,201.6875 62.3875,201.8734 Q62.2234,202.0594 61.9609,202.0594 Q61.7203,202.0594 61.5781,201.9172 Q61.4359,201.7859 61.3594,201.425 Q61.3266,201.1734 61.1953,201.0422 Q60.9656,200.7797 60.5391,200.6266 Q60.1125,200.4734 59.675,200.4734 Q59.1391,200.4734 58.6906,200.7031 Q58.2531,200.9328 57.9031,201.4578 Q57.5641,201.9828 57.5641,202.7047 L57.5641,203.4703 Q57.5641,204.3344 58.1875,204.9141 Q58.8109,205.4828 59.9266,205.4828 Q60.5828,205.4828 61.0422,205.3078 Q61.3156,205.1984 61.6109,204.8922 Q61.7969,204.7062 61.8953,204.6516 Q62.0047,204.5969 62.1469,204.5969 Q62.3766,204.5969 62.5516,204.7828 Q62.7375,204.9578 62.7375,205.1984 Q62.7375,205.4391 62.4969,205.7234 Q62.1469,206.1281 61.5891,206.3578 Q60.8344,206.675 59.9266,206.675 Q58.8656,206.675 58.0234,206.2375 Q57.3344,205.8875 56.8531,205.1437 Q56.3719,204.3891 56.3719,203.4922 L56.3719,202.6828 Q56.3719,201.7531 56.7984,200.9547 Q57.2359,200.1453 58.0016,199.7187 Q58.7672,199.2812 59.6312,199.2812 Q60.1453,199.2812 60.5937,199.4016 Q61.0531,199.5109 61.4359,199.7625 Z " fill="#000000"/><text fill="#000000" font-family="sans-serif" font-size="9.8" lengthAdjust="spacing" textLength="83.3" x="69.3" y="206.7078">ApplicationSession</text><line style="stroke:#181818;stroke-width:0.3499999999999999;" x1="49.7" x2="154" y1="213.85" y2="213.85"/><line style="stroke:#181818;stroke-width:0.3499999999999999;" x1="49.7" x2="154" y1="219.45" y2="219.45"/><text fill="#000000" font-family="sans-serif" font-size="9.8" lengthAdjust="spacing" textLength="89.6" x="53.2" y="232.8252">+static getInstance()</text><text fill="#000000" font-family="sans-serif" font-size="9.8" lengthAdjust="spacing" textLength="95.2" x="53.2" y="245.86">+getCurrentSession()</text></g><!--class Repositories--><g id="elem_Repositories"><rect codeLine="31" fill="#F1F1F1" height="85.7391" id="Repositories" rx="1.75" ry="1.75" style="stroke:#181818;stroke-width:0.3499999999999999;" width="135.8" x="556.15" y="11.55"/><ellipse cx="593.425" cy="22.75" fill="#ADD1B2" rx="7.7" ry="7.7" style="stroke:#181818;stroke-width:0.6999999999999998;"/><path d="M595.3609,19.8625 Q595.4703,19.7094 595.6016,19.6328 Q595.7328,19.5562 595.8859,19.5562 Q596.1484,19.5562 596.3125,19.7422 Q596.4766,19.9172 596.4766,20.3437 L596.4766,21.3609 Q596.4766,21.7875 596.3125,21.9734 Q596.1484,22.1594 595.8859,22.1594 Q595.6453,22.1594 595.5031,22.0172 Q595.3609,21.8859 595.2844,21.525 Q595.2516,21.2734 595.1203,21.1422 Q594.8906,20.8797 594.4641,20.7266 Q594.0375,20.5734 593.6,20.5734 Q593.0641,20.5734 592.6156,20.8031 Q592.1781,21.0328 591.8281,21.5578 Q591.4891,22.0828 591.4891,22.8047 L591.4891,23.5703 Q591.4891,24.4344 592.1125,25.0141 Q592.7359,25.5828 593.8516,25.5828 Q594.5078,25.5828 594.9672,25.4078 Q595.2406,25.2984 595.5359,24.9922 Q595.7219,24.8062 595.8203,24.7516 Q595.9297,24.6969 596.0719,24.6969 Q596.3016,24.6969 596.4766,24.8828 Q596.6625,25.0578 596.6625,25.2984 Q596.6625,25.5391 596.4219,25.8234 Q596.0719,26.2281 595.5141,26.4578 Q594.7594,26.775 593.8516,26.775 Q592.7906,26.775 591.9484,26.3375 Q591.2594,25.9875 590.7781,25.2437 Q590.2969,24.4891 590.2969,23.5922 L590.2969,22.7828 Q590.2969,21.8531 590.7234,21.0547 Q591.1609,20.2453 591.9266,19.8187 Q592.6922,19.3812 593.5562,19.3812 Q594.0703,19.3812 594.5187,19.5016 Q594.9781,19.6109 595.3609,19.8625 Z " fill="#000000"/><text fill="#000000" font-family="sans-serif" font-size="9.8" lengthAdjust="spacing" textLength="55.3" x="607.775" y="26.8078">Repositories</text><line style="stroke:#181818;stroke-width:0.3499999999999999;" x1="556.85" x2="691.25" y1="33.95" y2="33.95"/><line style="stroke:#181818;stroke-width:0.3499999999999999;" x1="556.85" x2="691.25" y1="39.55" y2="39.55"/><text fill="#000000" font-family="sans-serif" font-size="9.8" lengthAdjust="spacing" textLength="65.8" x="560.35" y="52.9252">-Repositories()</text><text fill="#000000" font-family="sans-serif" font-size="9.8" lengthAdjust="spacing" textLength="127.4" x="560.35" y="65.96">+getInstance() : Repositories</text><text fill="#000000" font-family="sans-serif" font-size="9.8" lengthAdjust="spacing" textLength="60.9" x="560.35" y="78.9947">+getAgenda()</text><text fill="#000000" font-family="sans-serif" font-size="9.8" lengthAdjust="spacing" textLength="99.4" x="560.35" y="92.0295">+getTeamRepository()</text></g><!--class UserSession--><g id="elem_UserSession"><rect codeLine="39" fill="#F1F1F1" height="46.6348" id="UserSession" rx="1.75" ry="1.75" style="stroke:#181818;stroke-width:0.3499999999999999;" width="79.1" x="4.9" y="390.95"/><ellipse cx="16.03" cy="402.15" fill="#ADD1B2" rx="7.7" ry="7.7" style="stroke:#181818;stroke-width:0.6999999999999998;"/><path d="M17.9659,399.2625 Q18.0753,399.1094 18.2066,399.0328 Q18.3378,398.9562 18.4909,398.9562 Q18.7534,398.9562 18.9175,399.1422 Q19.0816,399.3172 19.0816,399.7437 L19.0816,400.7609 Q19.0816,401.1875 18.9175,401.3734 Q18.7534,401.5594 18.4909,401.5594 Q18.2503,401.5594 18.1081,401.4172 Q17.9659,401.2859 17.8894,400.925 Q17.8566,400.6734 17.7253,400.5422 Q17.4956,400.2797 17.0691,400.1266 Q16.6425,399.9734 16.205,399.9734 Q15.6691,399.9734 15.2206,400.2031 Q14.7831,400.4328 14.4331,400.9578 Q14.0941,401.4828 14.0941,402.2047 L14.0941,402.9703 Q14.0941,403.8344 14.7175,404.4141 Q15.3409,404.9828 16.4566,404.9828 Q17.1128,404.9828 17.5722,404.8078 Q17.8456,404.6984 18.1409,404.3922 Q18.3269,404.2062 18.4253,404.1516 Q18.5347,404.0969 18.6769,404.0969 Q18.9066,404.0969 19.0816,404.2828 Q19.2675,404.4578 19.2675,404.6984 Q19.2675,404.9391 19.0269,405.2234 Q18.6769,405.6281 18.1191,405.8578 Q17.3644,406.175 16.4566,406.175 Q15.3956,406.175 14.5534,405.7375 Q13.8644,405.3875 13.3831,404.6437 Q12.9019,403.8891 12.9019,402.9922 L12.9019,402.1828 Q12.9019,401.2531 13.3284,400.4547 Q13.7659,399.6453 14.5316,399.2187 Q15.2972,398.7812 16.1612,398.7812 Q16.6753,398.7812 17.1237,398.9016 Q17.5831,399.0109 17.9659,399.2625 Z " fill="#000000"/><text fill="#000000" font-family="sans-serif" font-size="9.8" lengthAdjust="spacing" textLength="55.3" x="25.97" y="406.2078">UserSession</text><line style="stroke:#181818;stroke-width:0.3499999999999999;" x1="5.6" x2="83.3" y1="413.35" y2="413.35"/><line style="stroke:#181818;stroke-width:0.3499999999999999;" x1="5.6" x2="83.3" y1="418.95" y2="418.95"/><text fill="#000000" font-family="sans-serif" font-size="9.8" lengthAdjust="spacing" textLength="70.7" x="9.1" y="432.3252">+getUserEmail()</text></g><!--class Agenda--><g id="elem_Agenda"><rect codeLine="44" fill="#F1F1F1" height="124.8434" id="Agenda" rx="1.75" ry="1.75" style="stroke:#181818;stroke-width:0.3499999999999999;" width="240.1" x="748.3" y="158.9"/><ellipse cx="848.225" cy="170.1" fill="#ADD1B2" rx="7.7" ry="7.7" style="stroke:#181818;stroke-width:0.6999999999999998;"/><path d="M850.1609,167.2125 Q850.2703,167.0594 850.4016,166.9828 Q850.5328,166.9062 850.6859,166.9062 Q850.9484,166.9062 851.1125,167.0922 Q851.2766,167.2672 851.2766,167.6937 L851.2766,168.7109 Q851.2766,169.1375 851.1125,169.3234 Q850.9484,169.5094 850.6859,169.5094 Q850.4453,169.5094 850.3031,169.3672 Q850.1609,169.2359 850.0844,168.875 Q850.0516,168.6234 849.9203,168.4922 Q849.6906,168.2297 849.2641,168.0766 Q848.8375,167.9234 848.4,167.9234 Q847.8641,167.9234 847.4156,168.1531 Q846.9781,168.3828 846.6281,168.9078 Q846.2891,169.4328 846.2891,170.1547 L846.2891,170.9203 Q846.2891,171.7844 846.9125,172.3641 Q847.5359,172.9328 848.6516,172.9328 Q849.3078,172.9328 849.7672,172.7578 Q850.0406,172.6484 850.3359,172.3422 Q850.5219,172.1562 850.6203,172.1016 Q850.7297,172.0469 850.8719,172.0469 Q851.1016,172.0469 851.2766,172.2328 Q851.4625,172.4078 851.4625,172.6484 Q851.4625,172.8891 851.2219,173.1734 Q850.8719,173.5781 850.3141,173.8078 Q849.5594,174.125 848.6516,174.125 Q847.5906,174.125 846.7484,173.6875 Q846.0594,173.3375 845.5781,172.5937 Q845.0969,171.8391 845.0969,170.9422 L845.0969,170.1328 Q845.0969,169.2031 845.5234,168.4047 Q845.9609,167.5953 846.7266,167.1687 Q847.4922,166.7312 848.3562,166.7312 Q848.8703,166.7312 849.3187,166.8516 Q849.7781,166.9609 850.1609,167.2125 Z " fill="#000000"/><text fill="#000000" font-family="sans-serif" font-size="9.8" lengthAdjust="spacing" textLength="34.3" x="862.575" y="174.1578">Agenda</text><line style="stroke:#181818;stroke-width:0.3499999999999999;" x1="749" x2="987.7" y1="181.3" y2="181.3"/><text fill="#000000" font-family="sans-serif" font-size="9.8" lengthAdjust="spacing" textLength="100.1" x="752.5" y="194.6752">-List&lt;Task&gt; entriesList</text><text fill="#000000" font-family="sans-serif" font-size="9.8" lengthAdjust="spacing" textLength="152.6" x="752.5" y="207.71">-List&lt;Task&gt; freeAgendaEntriesList</text><text fill="#000000" font-family="sans-serif" font-size="9.8" lengthAdjust="spacing" textLength="117.6" x="752.5" y="220.7447">-List&lt;Task&gt; teamSchedule</text><line style="stroke:#181818;stroke-width:0.3499999999999999;" x1="749" x2="987.7" y1="226.0043" y2="226.0043"/><text fill="#000000" font-family="sans-serif" font-size="9.8" lengthAdjust="spacing" textLength="114.8" x="752.5" y="239.3795">+getAgendaEntries(email)</text><text fill="#000000" font-family="sans-serif" font-size="9.8" lengthAdjust="spacing" textLength="88.9" x="752.5" y="252.4143">+getSelectedTask(i)</text><text fill="#000000" font-family="sans-serif" font-size="9.8" lengthAdjust="spacing" textLength="231.7" x="752.5" y="265.449">+checkTeamSchedule(selectedTeam, selectedTask)</text><text fill="#000000" font-family="sans-serif" font-size="9.8" lengthAdjust="spacing" textLength="193.2" x="752.5" y="278.4838">+assignTeam(selectedTask, selectedTeam)</text></g><!--class TaskMapper--><g id="elem_TaskMapper"><rect codeLine="55" fill="#F1F1F1" height="72.7043" id="TaskMapper" rx="1.75" ry="1.75" style="stroke:#181818;stroke-width:0.3499999999999999;" width="191.8" x="531.65" y="184.8"/><ellipse cx="596.925" cy="196" fill="#ADD1B2" rx="7.7" ry="7.7" style="stroke:#181818;stroke-width:0.6999999999999998;"/><path d="M598.8609,193.1125 Q598.9703,192.9594 599.1016,192.8828 Q599.2328,192.8062 599.3859,192.8062 Q599.6484,192.8062 599.8125,192.9922 Q599.9766,193.1672 599.9766,193.5937 L599.9766,194.6109 Q599.9766,195.0375 599.8125,195.2234 Q599.6484,195.4094 599.3859,195.4094 Q599.1453,195.4094 599.0031,195.2672 Q598.8609,195.1359 598.7844,194.775 Q598.7516,194.5234 598.6203,194.3922 Q598.3906,194.1297 597.9641,193.9766 Q597.5375,193.8234 597.1,193.8234 Q596.5641,193.8234 596.1156,194.0531 Q595.6781,194.2828 595.3281,194.8078 Q594.9891,195.3328 594.9891,196.0547 L594.9891,196.8203 Q594.9891,197.6844 595.6125,198.2641 Q596.2359,198.8328 597.3516,198.8328 Q598.0078,198.8328 598.4672,198.6578 Q598.7406,198.5484 599.0359,198.2422 Q599.2219,198.0562 599.3203,198.0016 Q599.4297,197.9469 599.5719,197.9469 Q599.8016,197.9469 599.9766,198.1328 Q600.1625,198.3078 600.1625,198.5484 Q600.1625,198.7891 599.9219,199.0734 Q599.5719,199.4781 599.0141,199.7078 Q598.2594,200.025 597.3516,200.025 Q596.2906,200.025 595.4484,199.5875 Q594.7594,199.2375 594.2781,198.4937 Q593.7969,197.7391 593.7969,196.8422 L593.7969,196.0328 Q593.7969,195.1031 594.2234,194.3047 Q594.6609,193.4953 595.4266,193.0687 Q596.1922,192.6312 597.0562,192.6312 Q597.5703,192.6312 598.0187,192.7516 Q598.4781,192.8609 598.8609,193.1125 Z " fill="#000000"/><text fill="#000000" font-family="sans-serif" font-size="9.8" lengthAdjust="spacing" textLength="55.3" x="611.275" y="200.0578">TaskMapper</text><line style="stroke:#181818;stroke-width:0.3499999999999999;" x1="532.35" x2="722.75" y1="207.2" y2="207.2"/><text fill="#000000" font-family="sans-serif" font-size="9.8" lengthAdjust="spacing" textLength="183.4" x="535.85" y="220.5752">-List&lt;TaskDto&gt; freeAgendaEntriesListDto</text><line style="stroke:#181818;stroke-width:0.3499999999999999;" x1="532.35" x2="722.75" y1="225.8348" y2="225.8348"/><text fill="#000000" font-family="sans-serif" font-size="9.8" lengthAdjust="spacing" textLength="140" x="535.85" y="239.21">+toDTO(freeAgendaEntriesList)</text><text fill="#000000" font-family="sans-serif" font-size="9.8" lengthAdjust="spacing" textLength="53.2" x="535.85" y="252.2447">-toDTO(obj)</text></g><!--class TaskDto--><g id="elem_TaskDto"><rect codeLine="62" fill="#F1F1F1" height="111.8086" id="TaskDto" rx="1.75" ry="1.75" style="stroke:#181818;stroke-width:0.3499999999999999;" width="452.9" x="274.4" y="545.3"/><ellipse cx="479.325" cy="556.5" fill="#ADD1B2" rx="7.7" ry="7.7" style="stroke:#181818;stroke-width:0.6999999999999998;"/><path d="M481.2609,553.6125 Q481.3703,553.4594 481.5016,553.3828 Q481.6328,553.3062 481.7859,553.3062 Q482.0484,553.3062 482.2125,553.4922 Q482.3766,553.6672 482.3766,554.0937 L482.3766,555.1109 Q482.3766,555.5375 482.2125,555.7234 Q482.0484,555.9094 481.7859,555.9094 Q481.5453,555.9094 481.4031,555.7672 Q481.2609,555.6359 481.1844,555.275 Q481.1516,555.0234 481.0203,554.8922 Q480.7906,554.6297 480.3641,554.4766 Q479.9375,554.3234 479.5,554.3234 Q478.9641,554.3234 478.5156,554.5531 Q478.0781,554.7828 477.7281,555.3078 Q477.3891,555.8328 477.3891,556.5547 L477.3891,557.3203 Q477.3891,558.1844 478.0125,558.7641 Q478.6359,559.3328 479.7516,559.3328 Q480.4078,559.3328 480.8672,559.1578 Q481.1406,559.0484 481.4359,558.7422 Q481.6219,558.5562 481.7203,558.5016 Q481.8297,558.4469 481.9719,558.4469 Q482.2016,558.4469 482.3766,558.6328 Q482.5625,558.8078 482.5625,559.0484 Q482.5625,559.2891 482.3219,559.5734 Q481.9719,559.9781 481.4141,560.2078 Q480.6594,560.525 479.7516,560.525 Q478.6906,560.525 477.8484,560.0875 Q477.1594,559.7375 476.6781,558.9937 Q476.1969,558.2391 476.1969,557.3422 L476.1969,556.5328 Q476.1969,555.6031 476.6234,554.8047 Q477.0609,553.9953 477.8266,553.5687 Q478.5922,553.1312 479.4562,553.1312 Q479.9703,553.1312 480.4187,553.2516 Q480.8781,553.3609 481.2609,553.6125 Z " fill="#000000"/><text fill="#000000" font-family="sans-serif" font-size="9.8" lengthAdjust="spacing" textLength="37.1" x="493.675" y="560.5578">TaskDto</text><line style="stroke:#181818;stroke-width:0.3499999999999999;" x1="275.1" x2="726.6" y1="567.7" y2="567.7"/><text fill="#000000" font-family="sans-serif" font-size="9.8" lengthAdjust="spacing" textLength="47.6" x="278.6" y="581.0752">-String title</text><text fill="#000000" font-family="sans-serif" font-size="9.8" lengthAdjust="spacing" textLength="80.5" x="278.6" y="594.11">-String description</text><text fill="#000000" font-family="sans-serif" font-size="9.8" lengthAdjust="spacing" textLength="110.6" x="278.6" y="607.1447">-String degreeOfUrgency</text><text fill="#000000" font-family="sans-serif" font-size="9.8" lengthAdjust="spacing" textLength="94.5" x="278.6" y="620.1795">-int expectedDuration</text><text fill="#000000" font-family="sans-serif" font-size="9.8" lengthAdjust="spacing" textLength="100.8" x="278.6" y="633.2143">-Calendar startingDate</text><line style="stroke:#181818;stroke-width:0.3499999999999999;" x1="275.1" x2="726.6" y1="638.4738" y2="638.4738"/><text fill="#000000" font-family="sans-serif" font-size="9.8" lengthAdjust="spacing" textLength="444.5" x="278.6" y="651.849">+TaskDto(title, description, degreeOfUrgency, expectedDuration, selectedGreenSpace, startingDate)</text></g><!--class GreenSpaceDto--><g id="elem_GreenSpaceDto"><rect codeLine="72" fill="#F1F1F1" height="98.7738" id="GreenSpaceDto" rx="1.75" ry="1.75" style="stroke:#181818;stroke-width:0.3499999999999999;" width="208.6" x="528.15" y="700"/><ellipse cx="593.775" cy="711.2" fill="#ADD1B2" rx="7.7" ry="7.7" style="stroke:#181818;stroke-width:0.6999999999999998;"/><path d="M595.7109,708.3125 Q595.8203,708.1594 595.9516,708.0828 Q596.0828,708.0062 596.2359,708.0062 Q596.4984,708.0062 596.6625,708.1922 Q596.8266,708.3672 596.8266,708.7937 L596.8266,709.8109 Q596.8266,710.2375 596.6625,710.4234 Q596.4984,710.6094 596.2359,710.6094 Q595.9953,710.6094 595.8531,710.4672 Q595.7109,710.3359 595.6344,709.975 Q595.6016,709.7234 595.4703,709.5922 Q595.2406,709.3297 594.8141,709.1766 Q594.3875,709.0234 593.95,709.0234 Q593.4141,709.0234 592.9656,709.2531 Q592.5281,709.4828 592.1781,710.0078 Q591.8391,710.5328 591.8391,711.2547 L591.8391,712.0203 Q591.8391,712.8844 592.4625,713.4641 Q593.0859,714.0328 594.2016,714.0328 Q594.8578,714.0328 595.3172,713.8578 Q595.5906,713.7484 595.8859,713.4422 Q596.0719,713.2562 596.1703,713.2016 Q596.2797,713.1469 596.4219,713.1469 Q596.6516,713.1469 596.8266,713.3328 Q597.0125,713.5078 597.0125,713.7484 Q597.0125,713.9891 596.7719,714.2734 Q596.4219,714.6781 595.8641,714.9078 Q595.1094,715.225 594.2016,715.225 Q593.1406,715.225 592.2984,714.7875 Q591.6094,714.4375 591.1281,713.6937 Q590.6469,712.9391 590.6469,712.0422 L590.6469,711.2328 Q590.6469,710.3031 591.0734,709.5047 Q591.5109,708.6953 592.2766,708.2687 Q593.0422,707.8312 593.9062,707.8312 Q594.4203,707.8312 594.8687,707.9516 Q595.3281,708.0609 595.7109,708.3125 Z " fill="#000000"/><text fill="#000000" font-family="sans-serif" font-size="9.8" lengthAdjust="spacing" textLength="71.4" x="608.125" y="715.2578">GreenSpaceDto</text><line style="stroke:#181818;stroke-width:0.3499999999999999;" x1="528.85" x2="736.05" y1="722.4" y2="722.4"/><text fill="#000000" font-family="sans-serif" font-size="9.8" lengthAdjust="spacing" textLength="56.7" x="532.35" y="735.7752">-String name</text><text fill="#000000" font-family="sans-serif" font-size="9.8" lengthAdjust="spacing" textLength="51.1" x="532.35" y="748.81">-String type</text><text fill="#000000" font-family="sans-serif" font-size="9.8" lengthAdjust="spacing" textLength="37.1" x="532.35" y="761.8447">-int area</text><text fill="#000000" font-family="sans-serif" font-size="9.8" lengthAdjust="spacing" textLength="67.9" x="532.35" y="774.8795">-String address</text><line style="stroke:#181818;stroke-width:0.3499999999999999;" x1="528.85" x2="736.05" y1="780.1391" y2="780.1391"/><text fill="#000000" font-family="sans-serif" font-size="9.8" lengthAdjust="spacing" textLength="200.2" x="532.35" y="793.5143">+GreenSpaceDto(name, type, area, address)</text></g><!--class Task--><g id="elem_Task"><rect codeLine="81" fill="#F1F1F1" height="150.9129" id="Task" rx="1.75" ry="1.75" style="stroke:#181818;stroke-width:0.3499999999999999;" width="155.4" x="801.85" y="338.8"/><ellipse cx="865.725" cy="350" fill="#ADD1B2" rx="7.7" ry="7.7" style="stroke:#181818;stroke-width:0.6999999999999998;"/><path d="M867.6609,347.1125 Q867.7703,346.9594 867.9016,346.8828 Q868.0328,346.8062 868.1859,346.8062 Q868.4484,346.8062 868.6125,346.9922 Q868.7766,347.1672 868.7766,347.5937 L868.7766,348.6109 Q868.7766,349.0375 868.6125,349.2234 Q868.4484,349.4094 868.1859,349.4094 Q867.9453,349.4094 867.8031,349.2672 Q867.6609,349.1359 867.5844,348.775 Q867.5516,348.5234 867.4203,348.3922 Q867.1906,348.1297 866.7641,347.9766 Q866.3375,347.8234 865.9,347.8234 Q865.3641,347.8234 864.9156,348.0531 Q864.4781,348.2828 864.1281,348.8078 Q863.7891,349.3328 863.7891,350.0547 L863.7891,350.8203 Q863.7891,351.6844 864.4125,352.2641 Q865.0359,352.8328 866.1516,352.8328 Q866.8078,352.8328 867.2672,352.6578 Q867.5406,352.5484 867.8359,352.2422 Q868.0219,352.0562 868.1203,352.0016 Q868.2297,351.9469 868.3719,351.9469 Q868.6016,351.9469 868.7766,352.1328 Q868.9625,352.3078 868.9625,352.5484 Q868.9625,352.7891 868.7219,353.0734 Q868.3719,353.4781 867.8141,353.7078 Q867.0594,354.025 866.1516,354.025 Q865.0906,354.025 864.2484,353.5875 Q863.5594,353.2375 863.0781,352.4937 Q862.5969,351.7391 862.5969,350.8422 L862.5969,350.0328 Q862.5969,349.1031 863.0234,348.3047 Q863.4609,347.4953 864.2266,347.0687 Q864.9922,346.6312 865.8562,346.6312 Q866.3703,346.6312 866.8187,346.7516 Q867.2781,346.8609 867.6609,347.1125 Z " fill="#000000"/><text fill="#000000" font-family="sans-serif" font-size="9.8" lengthAdjust="spacing" textLength="21.7" x="880.075" y="354.0578">Task</text><line style="stroke:#181818;stroke-width:0.3499999999999999;" x1="802.55" x2="956.55" y1="361.2" y2="361.2"/><text fill="#000000" font-family="sans-serif" font-size="9.8" lengthAdjust="spacing" textLength="47.6" x="806.05" y="374.5752">-String title</text><text fill="#000000" font-family="sans-serif" font-size="9.8" lengthAdjust="spacing" textLength="80.5" x="806.05" y="387.61">-String description</text><text fill="#000000" font-family="sans-serif" font-size="9.8" lengthAdjust="spacing" textLength="94.5" x="806.05" y="400.6447">-int expectedDuration</text><text fill="#000000" font-family="sans-serif" font-size="9.8" lengthAdjust="spacing" textLength="100.8" x="806.05" y="413.6795">-Calendar startingDate</text><line style="stroke:#181818;stroke-width:0.3499999999999999;" x1="802.55" x2="956.55" y1="418.9391" y2="418.9391"/><text fill="#000000" font-family="sans-serif" font-size="9.8" lengthAdjust="spacing" textLength="53.9" x="806.05" y="432.3143">+hasTeam()</text><text fill="#000000" font-family="sans-serif" font-size="9.8" lengthAdjust="spacing" textLength="95.9" x="806.05" y="445.349">+hasUserEmail(email)</text><text fill="#000000" font-family="sans-serif" font-size="9.8" lengthAdjust="spacing" textLength="147" x="806.05" y="458.3838">+belongsToTeam(selectedTeam)</text><text fill="#000000" font-family="sans-serif" font-size="9.8" lengthAdjust="spacing" textLength="120.4" x="806.05" y="471.4186">+hasConflict(selectedTask)</text><text fill="#000000" font-family="sans-serif" font-size="9.8" lengthAdjust="spacing" textLength="128.8" x="806.05" y="484.4533">+assignTeam(selectedTeam)</text></g><!--class DegreeOfUrgency--><g id="elem_DegreeOfUrgency"><rect codeLine="94" fill="#F1F1F1" height="72.7043" id="DegreeOfUrgency" rx="1.75" ry="1.75" style="stroke:#181818;stroke-width:0.3499999999999999;" width="102.2" x="1041.95" y="564.9"/><ellipse cx="1052.45" cy="576.1" fill="#EB937F" rx="7.7" ry="7.7" style="stroke:#181818;stroke-width:0.6999999999999998;"/><path d="M1051.6516,576.6578 L1051.6516,578.4078 L1054.6812,578.4078 L1054.6812,577.7625 Q1054.6812,577.3359 1054.8453,577.15 Q1055.0203,576.9641 1055.2828,576.9641 Q1055.5453,576.9641 1055.7094,577.15 Q1055.8734,577.3359 1055.8734,577.7625 L1055.8734,579.6 L1050.2734,579.6 Q1049.8359,579.6 1049.65,579.4359 Q1049.475,579.2719 1049.475,578.9984 Q1049.475,578.7359 1049.6609,578.5719 Q1049.8469,578.4078 1050.2734,578.4078 L1050.4594,578.4078 L1050.4594,573.7484 L1050.2734,573.7484 Q1049.8359,573.7484 1049.65,573.5844 Q1049.475,573.4203 1049.475,573.1469 Q1049.475,572.8844 1049.65,572.7203 Q1049.8359,572.5562 1050.2734,572.5562 L1055.6109,572.5562 L1055.6109,574.3719 Q1055.6109,574.7984 1055.4469,574.9844 Q1055.2937,575.1594 1055.0203,575.1594 Q1054.7578,575.1594 1054.5937,574.9844 Q1054.4297,574.7984 1054.4297,574.3719 L1054.4297,573.7484 L1051.6516,573.7484 L1051.6516,575.4656 L1052.6906,575.4656 Q1052.6906,575.0062 1052.7781,574.875 Q1052.9641,574.5906 1053.2922,574.5906 Q1053.5547,574.5906 1053.7187,574.7766 Q1053.8828,574.9516 1053.8828,575.3781 L1053.8828,576.7562 Q1053.8828,577.1391 1053.7953,577.2703 Q1053.6094,577.5437 1053.2922,577.5437 Q1052.9641,577.5437 1052.7781,577.2594 Q1052.6906,577.1281 1052.6906,576.6578 L1051.6516,576.6578 Z " fill="#000000"/><text fill="#000000" font-family="sans-serif" font-size="9.8" lengthAdjust="spacing" textLength="79.8" x="1062.25" y="580.1578">DegreeOfUrgency</text><line style="stroke:#181818;stroke-width:0.3499999999999999;" x1="1042.65" x2="1143.45" y1="587.3" y2="587.3"/><text fill="#000000" font-family="sans-serif" font-size="9.8" lengthAdjust="spacing" textLength="17.5" x="1046.15" y="600.6752">Low</text><text fill="#000000" font-family="sans-serif" font-size="9.8" lengthAdjust="spacing" textLength="34.3" x="1046.15" y="613.71">Medium</text><text fill="#000000" font-family="sans-serif" font-size="9.8" lengthAdjust="spacing" textLength="19.6" x="1046.15" y="626.7447">High</text><line style="stroke:#181818;stroke-width:0.3499999999999999;" x1="1042.65" x2="1143.45" y1="632.0043" y2="632.0043"/></g><!--class GSTaskStatus--><g id="elem_GSTaskStatus"><rect codeLine="101" fill="#F1F1F1" height="111.8086" id="GSTaskStatus" rx="1.75" ry="1.75" style="stroke:#181818;stroke-width:0.3499999999999999;" width="86.1" x="802.2" y="545.3"/><ellipse cx="812.7" cy="556.5" fill="#EB937F" rx="7.7" ry="7.7" style="stroke:#181818;stroke-width:0.6999999999999998;"/><path d="M811.9016,557.0578 L811.9016,558.8078 L814.9312,558.8078 L814.9312,558.1625 Q814.9312,557.7359 815.0953,557.55 Q815.2703,557.3641 815.5328,557.3641 Q815.7953,557.3641 815.9594,557.55 Q816.1234,557.7359 816.1234,558.1625 L816.1234,560 L810.5234,560 Q810.0859,560 809.9,559.8359 Q809.725,559.6719 809.725,559.3984 Q809.725,559.1359 809.9109,558.9719 Q810.0969,558.8078 810.5234,558.8078 L810.7094,558.8078 L810.7094,554.1484 L810.5234,554.1484 Q810.0859,554.1484 809.9,553.9844 Q809.725,553.8203 809.725,553.5469 Q809.725,553.2844 809.9,553.1203 Q810.0859,552.9562 810.5234,552.9562 L815.8609,552.9562 L815.8609,554.7719 Q815.8609,555.1984 815.6969,555.3844 Q815.5437,555.5594 815.2703,555.5594 Q815.0078,555.5594 814.8437,555.3844 Q814.6797,555.1984 814.6797,554.7719 L814.6797,554.1484 L811.9016,554.1484 L811.9016,555.8656 L812.9406,555.8656 Q812.9406,555.4062 813.0281,555.275 Q813.2141,554.9906 813.5422,554.9906 Q813.8047,554.9906 813.9687,555.1766 Q814.1328,555.3516 814.1328,555.7781 L814.1328,557.1562 Q814.1328,557.5391 814.0453,557.6703 Q813.8594,557.9437 813.5422,557.9437 Q813.2141,557.9437 813.0281,557.6594 Q812.9406,557.5281 812.9406,557.0578 L811.9016,557.0578 Z " fill="#000000"/><text fill="#000000" font-family="sans-serif" font-size="9.8" lengthAdjust="spacing" textLength="63.7" x="822.5" y="560.5578">GSTaskStatus</text><line style="stroke:#181818;stroke-width:0.3499999999999999;" x1="802.9" x2="887.6" y1="567.7" y2="567.7"/><text fill="#000000" font-family="sans-serif" font-size="9.8" lengthAdjust="spacing" textLength="36.4" x="806.4" y="581.0752">Pending</text><text fill="#000000" font-family="sans-serif" font-size="9.8" lengthAdjust="spacing" textLength="46.9" x="806.4" y="594.11">Processed</text><text fill="#000000" font-family="sans-serif" font-size="9.8" lengthAdjust="spacing" textLength="36.4" x="806.4" y="607.1447">Planned</text><text fill="#000000" font-family="sans-serif" font-size="9.8" lengthAdjust="spacing" textLength="47.6" x="806.4" y="620.1795">Postponed</text><text fill="#000000" font-family="sans-serif" font-size="9.8" lengthAdjust="spacing" textLength="42" x="806.4" y="633.2143">Canceled</text><text fill="#000000" font-family="sans-serif" font-size="9.8" lengthAdjust="spacing" textLength="23.8" x="806.4" y="646.249">Done</text><line style="stroke:#181818;stroke-width:0.3499999999999999;" x1="802.9" x2="887.6" y1="651.5086" y2="651.5086"/></g><!--class TeamRepository--><g id="elem_TeamRepository"><rect codeLine="111" fill="#F1F1F1" height="72.7043" id="TeamRepository" rx="1.75" ry="1.75" style="stroke:#181818;stroke-width:0.3499999999999999;" width="108.5" x="398.3" y="184.8"/><ellipse cx="414.785" cy="196" fill="#ADD1B2" rx="7.7" ry="7.7" style="stroke:#181818;stroke-width:0.6999999999999998;"/><path d="M416.7209,193.1125 Q416.8303,192.9594 416.9616,192.8828 Q417.0928,192.8062 417.2459,192.8062 Q417.5084,192.8062 417.6725,192.9922 Q417.8366,193.1672 417.8366,193.5937 L417.8366,194.6109 Q417.8366,195.0375 417.6725,195.2234 Q417.5084,195.4094 417.2459,195.4094 Q417.0053,195.4094 416.8631,195.2672 Q416.7209,195.1359 416.6444,194.775 Q416.6116,194.5234 416.4803,194.3922 Q416.2506,194.1297 415.8241,193.9766 Q415.3975,193.8234 414.96,193.8234 Q414.4241,193.8234 413.9756,194.0531 Q413.5381,194.2828 413.1881,194.8078 Q412.8491,195.3328 412.8491,196.0547 L412.8491,196.8203 Q412.8491,197.6844 413.4725,198.2641 Q414.0959,198.8328 415.2116,198.8328 Q415.8678,198.8328 416.3272,198.6578 Q416.6006,198.5484 416.8959,198.2422 Q417.0819,198.0562 417.1803,198.0016 Q417.2897,197.9469 417.4319,197.9469 Q417.6616,197.9469 417.8366,198.1328 Q418.0225,198.3078 418.0225,198.5484 Q418.0225,198.7891 417.7819,199.0734 Q417.4319,199.4781 416.8741,199.7078 Q416.1194,200.025 415.2116,200.025 Q414.1506,200.025 413.3084,199.5875 Q412.6194,199.2375 412.1381,198.4937 Q411.6569,197.7391 411.6569,196.8422 L411.6569,196.0328 Q411.6569,195.1031 412.0834,194.3047 Q412.5209,193.4953 413.2866,193.0687 Q414.0522,192.6312 414.9162,192.6312 Q415.4303,192.6312 415.8787,192.7516 Q416.3381,192.8609 416.7209,193.1125 Z " fill="#000000"/><text fill="#000000" font-family="sans-serif" font-size="9.8" lengthAdjust="spacing" textLength="72.8" x="425.915" y="200.0578">TeamRepository</text><line style="stroke:#181818;stroke-width:0.3499999999999999;" x1="399" x2="506.1" y1="207.2" y2="207.2"/><text fill="#000000" font-family="sans-serif" font-size="9.8" lengthAdjust="spacing" textLength="100.1" x="402.5" y="220.5752">-List&lt;Team&gt; teamsList</text><line style="stroke:#181818;stroke-width:0.3499999999999999;" x1="399" x2="506.1" y1="225.8348" y2="225.8348"/><text fill="#000000" font-family="sans-serif" font-size="9.8" lengthAdjust="spacing" textLength="56.7" x="402.5" y="239.21">+getTeams()</text><text fill="#000000" font-family="sans-serif" font-size="9.8" lengthAdjust="spacing" textLength="92.4" x="402.5" y="252.2447">+getSelectedTeam(i)</text></g><!--class TeamMapper--><g id="elem_TeamMapper"><rect codeLine="118" fill="#F1F1F1" height="72.7043" id="TeamMapper" rx="1.75" ry="1.75" style="stroke:#181818;stroke-width:0.3499999999999999;" width="139.3" x="234.5" y="184.8"/><ellipse cx="271.775" cy="196" fill="#ADD1B2" rx="7.7" ry="7.7" style="stroke:#181818;stroke-width:0.6999999999999998;"/><path d="M273.7109,193.1125 Q273.8203,192.9594 273.9516,192.8828 Q274.0828,192.8062 274.2359,192.8062 Q274.4984,192.8062 274.6625,192.9922 Q274.8266,193.1672 274.8266,193.5937 L274.8266,194.6109 Q274.8266,195.0375 274.6625,195.2234 Q274.4984,195.4094 274.2359,195.4094 Q273.9953,195.4094 273.8531,195.2672 Q273.7109,195.1359 273.6344,194.775 Q273.6016,194.5234 273.4703,194.3922 Q273.2406,194.1297 272.8141,193.9766 Q272.3875,193.8234 271.95,193.8234 Q271.4141,193.8234 270.9656,194.0531 Q270.5281,194.2828 270.1781,194.8078 Q269.8391,195.3328 269.8391,196.0547 L269.8391,196.8203 Q269.8391,197.6844 270.4625,198.2641 Q271.0859,198.8328 272.2016,198.8328 Q272.8578,198.8328 273.3172,198.6578 Q273.5906,198.5484 273.8859,198.2422 Q274.0719,198.0562 274.1703,198.0016 Q274.2797,197.9469 274.4219,197.9469 Q274.6516,197.9469 274.8266,198.1328 Q275.0125,198.3078 275.0125,198.5484 Q275.0125,198.7891 274.7719,199.0734 Q274.4219,199.4781 273.8641,199.7078 Q273.1094,200.025 272.2016,200.025 Q271.1406,200.025 270.2984,199.5875 Q269.6094,199.2375 269.1281,198.4937 Q268.6469,197.7391 268.6469,196.8422 L268.6469,196.0328 Q268.6469,195.1031 269.0734,194.3047 Q269.5109,193.4953 270.2766,193.0687 Q271.0422,192.6312 271.9062,192.6312 Q272.4203,192.6312 272.8687,192.7516 Q273.3281,192.8609 273.7109,193.1125 Z " fill="#000000"/><text fill="#000000" font-family="sans-serif" font-size="9.8" lengthAdjust="spacing" textLength="58.8" x="286.125" y="200.0578">TeamMapper</text><line style="stroke:#181818;stroke-width:0.3499999999999999;" x1="235.2" x2="373.1" y1="207.2" y2="207.2"/><text fill="#000000" font-family="sans-serif" font-size="9.8" lengthAdjust="spacing" textLength="130.9" x="238.7" y="220.5752">-List&lt;TeamDto&gt; teamsListDto</text><line style="stroke:#181818;stroke-width:0.3499999999999999;" x1="235.2" x2="373.1" y1="225.8348" y2="225.8348"/><text fill="#000000" font-family="sans-serif" font-size="9.8" lengthAdjust="spacing" textLength="84" x="238.7" y="239.21">+toDTO(teamsList)</text><text fill="#000000" font-family="sans-serif" font-size="9.8" lengthAdjust="spacing" textLength="53.2" x="238.7" y="252.2447">-toDTO(obj)</text></g><!--class TeamDto--><g id="elem_TeamDto"><rect codeLine="125" fill="#F1F1F1" height="59.6695" id="TeamDto" rx="1.75" ry="1.75" style="stroke:#181818;stroke-width:0.3499999999999999;" width="153.3" x="227.5" y="384.65"/><ellipse cx="280.875" cy="395.85" fill="#ADD1B2" rx="7.7" ry="7.7" style="stroke:#181818;stroke-width:0.6999999999999998;"/><path d="M282.8109,392.9625 Q282.9203,392.8094 283.0516,392.7328 Q283.1828,392.6562 283.3359,392.6562 Q283.5984,392.6562 283.7625,392.8422 Q283.9266,393.0172 283.9266,393.4437 L283.9266,394.4609 Q283.9266,394.8875 283.7625,395.0734 Q283.5984,395.2594 283.3359,395.2594 Q283.0953,395.2594 282.9531,395.1172 Q282.8109,394.9859 282.7344,394.625 Q282.7016,394.3734 282.5703,394.2422 Q282.3406,393.9797 281.9141,393.8266 Q281.4875,393.6734 281.05,393.6734 Q280.5141,393.6734 280.0656,393.9031 Q279.6281,394.1328 279.2781,394.6578 Q278.9391,395.1828 278.9391,395.9047 L278.9391,396.6703 Q278.9391,397.5344 279.5625,398.1141 Q280.1859,398.6828 281.3016,398.6828 Q281.9578,398.6828 282.4172,398.5078 Q282.6906,398.3984 282.9859,398.0922 Q283.1719,397.9062 283.2703,397.8516 Q283.3797,397.7969 283.5219,397.7969 Q283.7516,397.7969 283.9266,397.9828 Q284.1125,398.1578 284.1125,398.3984 Q284.1125,398.6391 283.8719,398.9234 Q283.5219,399.3281 282.9641,399.5578 Q282.2094,399.875 281.3016,399.875 Q280.2406,399.875 279.3984,399.4375 Q278.7094,399.0875 278.2281,398.3437 Q277.7469,397.5891 277.7469,396.6922 L277.7469,395.8828 Q277.7469,394.9531 278.1734,394.1547 Q278.6109,393.3453 279.3766,392.9187 Q280.1422,392.4812 281.0062,392.4812 Q281.5203,392.4812 281.9687,392.6016 Q282.4281,392.7109 282.8109,392.9625 Z " fill="#000000"/><text fill="#000000" font-family="sans-serif" font-size="9.8" lengthAdjust="spacing" textLength="40.6" x="295.225" y="399.9078">TeamDto</text><line style="stroke:#181818;stroke-width:0.3499999999999999;" x1="228.2" x2="380.1" y1="407.05" y2="407.05"/><text fill="#000000" font-family="sans-serif" font-size="9.8" lengthAdjust="spacing" textLength="144.9" x="231.7" y="420.4252">-List&lt;Collaborator&gt; collaborators</text><line style="stroke:#181818;stroke-width:0.3499999999999999;" x1="228.2" x2="380.1" y1="425.6848" y2="425.6848"/><text fill="#000000" font-family="sans-serif" font-size="9.8" lengthAdjust="spacing" textLength="110.6" x="231.7" y="439.06">+TeamDto(collaborators)</text></g><!--class Team--><g id="elem_Team"><rect codeLine="131" fill="#F1F1F1" height="46.6348" id="Team" rx="1.75" ry="1.75" style="stroke:#181818;stroke-width:0.3499999999999999;" width="153.3" x="96.6" y="577.85"/><ellipse cx="157.675" cy="589.05" fill="#ADD1B2" rx="7.7" ry="7.7" style="stroke:#181818;stroke-width:0.6999999999999998;"/><path d="M159.6109,586.1625 Q159.7203,586.0094 159.8516,585.9328 Q159.9828,585.8562 160.1359,585.8562 Q160.3984,585.8562 160.5625,586.0422 Q160.7266,586.2172 160.7266,586.6437 L160.7266,587.6609 Q160.7266,588.0875 160.5625,588.2734 Q160.3984,588.4594 160.1359,588.4594 Q159.8953,588.4594 159.7531,588.3172 Q159.6109,588.1859 159.5344,587.825 Q159.5016,587.5734 159.3703,587.4422 Q159.1406,587.1797 158.7141,587.0266 Q158.2875,586.8734 157.85,586.8734 Q157.3141,586.8734 156.8656,587.1031 Q156.4281,587.3328 156.0781,587.8578 Q155.7391,588.3828 155.7391,589.1047 L155.7391,589.8703 Q155.7391,590.7344 156.3625,591.3141 Q156.9859,591.8828 158.1016,591.8828 Q158.7578,591.8828 159.2172,591.7078 Q159.4906,591.5984 159.7859,591.2922 Q159.9719,591.1062 160.0703,591.0516 Q160.1797,590.9969 160.3219,590.9969 Q160.5516,590.9969 160.7266,591.1828 Q160.9125,591.3578 160.9125,591.5984 Q160.9125,591.8391 160.6719,592.1234 Q160.3219,592.5281 159.7641,592.7578 Q159.0094,593.075 158.1016,593.075 Q157.0406,593.075 156.1984,592.6375 Q155.5094,592.2875 155.0281,591.5437 Q154.5469,590.7891 154.5469,589.8922 L154.5469,589.0828 Q154.5469,588.1531 154.9734,587.3547 Q155.4109,586.5453 156.1766,586.1187 Q156.9422,585.6812 157.8062,585.6812 Q158.3203,585.6812 158.7687,585.8016 Q159.2281,585.9109 159.6109,586.1625 Z " fill="#000000"/><text fill="#000000" font-family="sans-serif" font-size="9.8" lengthAdjust="spacing" textLength="25.2" x="172.025" y="593.1078">Team</text><line style="stroke:#181818;stroke-width:0.3499999999999999;" x1="97.3" x2="249.2" y1="600.25" y2="600.25"/><text fill="#000000" font-family="sans-serif" font-size="9.8" lengthAdjust="spacing" textLength="144.9" x="100.8" y="613.6252">-List&lt;Collaborator&gt; collaborators</text><line style="stroke:#181818;stroke-width:0.3499999999999999;" x1="97.3" x2="249.2" y1="618.8848" y2="618.8848"/></g><!--class GreenSpace--><g id="elem_GreenSpace"><rect codeLine="136" fill="#F1F1F1" height="111.8086" id="GreenSpace" rx="1.75" ry="1.75" style="stroke:#181818;stroke-width:0.3499999999999999;" width="104.3" x="912.8" y="545.3"/><ellipse cx="934.955" cy="556.5" fill="#ADD1B2" rx="7.7" ry="7.7" style="stroke:#181818;stroke-width:0.6999999999999998;"/><path d="M936.8909,553.6125 Q937.0003,553.4594 937.1316,553.3828 Q937.2628,553.3062 937.4159,553.3062 Q937.6784,553.3062 937.8425,553.4922 Q938.0066,553.6672 938.0066,554.0937 L938.0066,555.1109 Q938.0066,555.5375 937.8425,555.7234 Q937.6784,555.9094 937.4159,555.9094 Q937.1753,555.9094 937.0331,555.7672 Q936.8909,555.6359 936.8144,555.275 Q936.7816,555.0234 936.6503,554.8922 Q936.4206,554.6297 935.9941,554.4766 Q935.5675,554.3234 935.13,554.3234 Q934.5941,554.3234 934.1456,554.5531 Q933.7081,554.7828 933.3581,555.3078 Q933.0191,555.8328 933.0191,556.5547 L933.0191,557.3203 Q933.0191,558.1844 933.6425,558.7641 Q934.2659,559.3328 935.3816,559.3328 Q936.0378,559.3328 936.4972,559.1578 Q936.7706,559.0484 937.0659,558.7422 Q937.2519,558.5562 937.3503,558.5016 Q937.4597,558.4469 937.6019,558.4469 Q937.8316,558.4469 938.0066,558.6328 Q938.1925,558.8078 938.1925,559.0484 Q938.1925,559.2891 937.9519,559.5734 Q937.6019,559.9781 937.0441,560.2078 Q936.2894,560.525 935.3816,560.525 Q934.3206,560.525 933.4784,560.0875 Q932.7894,559.7375 932.3081,558.9937 Q931.8269,558.2391 931.8269,557.3422 L931.8269,556.5328 Q931.8269,555.6031 932.2534,554.8047 Q932.6909,553.9953 933.4566,553.5687 Q934.2222,553.1312 935.0862,553.1312 Q935.6003,553.1312 936.0487,553.2516 Q936.5081,553.3609 936.8909,553.6125 Z " fill="#000000"/><text fill="#000000" font-family="sans-serif" font-size="9.8" lengthAdjust="spacing" textLength="56" x="947.345" y="560.5578">GreenSpace</text><line style="stroke:#181818;stroke-width:0.3499999999999999;" x1="913.5" x2="1016.4" y1="567.7" y2="567.7"/><text fill="#000000" font-family="sans-serif" font-size="9.8" lengthAdjust="spacing" textLength="56.7" x="917" y="581.0752">-String name</text><text fill="#000000" font-family="sans-serif" font-size="9.8" lengthAdjust="spacing" textLength="51.1" x="917" y="594.11">-String type</text><text fill="#000000" font-family="sans-serif" font-size="9.8" lengthAdjust="spacing" textLength="37.1" x="917" y="607.1447">-int area</text><text fill="#000000" font-family="sans-serif" font-size="9.8" lengthAdjust="spacing" textLength="67.9" x="917" y="620.1795">-String address</text><text fill="#000000" font-family="sans-serif" font-size="9.8" lengthAdjust="spacing" textLength="74.2" x="917" y="633.2143">-String gsmEmail</text><line style="stroke:#181818;stroke-width:0.3499999999999999;" x1="913.5" x2="1016.4" y1="638.4738" y2="638.4738"/><text fill="#000000" font-family="sans-serif" font-size="9.8" lengthAdjust="spacing" textLength="95.9" x="917" y="651.849">+hasUserEmail(email)</text></g><!--class EmailGenerator--><g id="elem_EmailGenerator"><rect codeLine="146" fill="#F1F1F1" height="46.6348" id="EmailGenerator" rx="1.75" ry="1.75" style="stroke:#181818;stroke-width:0.3499999999999999;" width="209.3" x="1169" y="577.85"/><ellipse cx="1236.025" cy="589.05" fill="#B4A7E5" rx="7.7" ry="7.7" style="stroke:#181818;stroke-width:0.6999999999999998;"/><path d="M1236.6922,586.6984 L1236.6922,591.3578 L1237.8953,591.3578 Q1238.3219,591.3578 1238.5078,591.5219 Q1238.6937,591.6859 1238.6937,591.9594 Q1238.6937,592.2219 1238.5078,592.3859 Q1238.3219,592.55 1237.8953,592.55 L1234.2969,592.55 Q1233.8703,592.55 1233.6844,592.3859 Q1233.4984,592.2219 1233.4984,591.9484 Q1233.4984,591.6859 1233.6844,591.5219 Q1233.8703,591.3578 1234.2969,591.3578 L1235.5,591.3578 L1235.5,586.6984 L1234.2969,586.6984 Q1233.8703,586.6984 1233.6844,586.5344 Q1233.4984,586.3703 1233.4984,586.0969 Q1233.4984,585.8344 1233.6844,585.6703 Q1233.8703,585.5062 1234.2969,585.5062 L1237.8953,585.5062 Q1238.3219,585.5062 1238.5078,585.6703 Q1238.6937,585.8344 1238.6937,586.0969 Q1238.6937,586.3703 1238.5078,586.5344 Q1238.3219,586.6984 1237.8953,586.6984 L1236.6922,586.6984 Z " fill="#000000"/><text fill="#000000" font-family="sans-serif" font-size="9.8" font-style="italic" lengthAdjust="spacing" textLength="69.3" x="1250.375" y="593.1078">EmailGenerator</text><line style="stroke:#181818;stroke-width:0.3499999999999999;" x1="1169.7" x2="1377.6" y1="600.25" y2="600.25"/><line style="stroke:#181818;stroke-width:0.3499999999999999;" x1="1169.7" x2="1377.6" y1="605.85" y2="605.85"/><text fill="#000000" font-family="sans-serif" font-size="9.8" lengthAdjust="spacing" textLength="200.9" x="1173.2" y="619.2252">+sendEmail(title, startingDate, selectedTeam)</text></g><!--class EmailThroughGmail--><g id="elem_EmailThroughGmail"><rect codeLine="151" fill="#F1F1F1" height="46.6348" id="EmailThroughGmail" rx="1.75" ry="1.75" style="stroke:#181818;stroke-width:0.3499999999999999;" width="209.3" x="1385.3" y="390.95"/><ellipse cx="1443.575" cy="402.15" fill="#ADD1B2" rx="7.7" ry="7.7" style="stroke:#181818;stroke-width:0.6999999999999998;"/><path d="M1445.5109,399.2625 Q1445.6203,399.1094 1445.7516,399.0328 Q1445.8828,398.9562 1446.0359,398.9562 Q1446.2984,398.9562 1446.4625,399.1422 Q1446.6266,399.3172 1446.6266,399.7437 L1446.6266,400.7609 Q1446.6266,401.1875 1446.4625,401.3734 Q1446.2984,401.5594 1446.0359,401.5594 Q1445.7953,401.5594 1445.6531,401.4172 Q1445.5109,401.2859 1445.4344,400.925 Q1445.4016,400.6734 1445.2703,400.5422 Q1445.0406,400.2797 1444.6141,400.1266 Q1444.1875,399.9734 1443.75,399.9734 Q1443.2141,399.9734 1442.7656,400.2031 Q1442.3281,400.4328 1441.9781,400.9578 Q1441.6391,401.4828 1441.6391,402.2047 L1441.6391,402.9703 Q1441.6391,403.8344 1442.2625,404.4141 Q1442.8859,404.9828 1444.0016,404.9828 Q1444.6578,404.9828 1445.1172,404.8078 Q1445.3906,404.6984 1445.6859,404.3922 Q1445.8719,404.2062 1445.9703,404.1516 Q1446.0797,404.0969 1446.2219,404.0969 Q1446.4516,404.0969 1446.6266,404.2828 Q1446.8125,404.4578 1446.8125,404.6984 Q1446.8125,404.9391 1446.5719,405.2234 Q1446.2219,405.6281 1445.6641,405.8578 Q1444.9094,406.175 1444.0016,406.175 Q1442.9406,406.175 1442.0984,405.7375 Q1441.4094,405.3875 1440.9281,404.6437 Q1440.4469,403.8891 1440.4469,402.9922 L1440.4469,402.1828 Q1440.4469,401.2531 1440.8734,400.4547 Q1441.3109,399.6453 1442.0766,399.2187 Q1442.8422,398.7812 1443.7062,398.7812 Q1444.2203,398.7812 1444.6687,398.9016 Q1445.1281,399.0109 1445.5109,399.2625 Z " fill="#000000"/><text fill="#000000" font-family="sans-serif" font-size="9.8" lengthAdjust="spacing" textLength="86.8" x="1457.925" y="406.2078">EmailThroughGmail</text><line style="stroke:#181818;stroke-width:0.3499999999999999;" x1="1386" x2="1593.9" y1="413.35" y2="413.35"/><line style="stroke:#181818;stroke-width:0.3499999999999999;" x1="1386" x2="1593.9" y1="418.95" y2="418.95"/><text fill="#000000" font-family="sans-serif" font-size="9.8" lengthAdjust="spacing" textLength="200.9" x="1389.5" y="432.3252">+sendEmail(title, startingDate, selectedTeam)</text></g><!--class EmailThroughDEIService--><g id="elem_EmailThroughDEIService"><rect codeLine="156" fill="#F1F1F1" height="46.6348" id="EmailThroughDEIService" rx="1.75" ry="1.75" style="stroke:#181818;stroke-width:0.3499999999999999;" width="209.3" x="1151.5" y="390.95"/><ellipse cx="1198.225" cy="402.15" fill="#ADD1B2" rx="7.7" ry="7.7" style="stroke:#181818;stroke-width:0.6999999999999998;"/><path d="M1200.1609,399.2625 Q1200.2703,399.1094 1200.4016,399.0328 Q1200.5328,398.9562 1200.6859,398.9562 Q1200.9484,398.9562 1201.1125,399.1422 Q1201.2766,399.3172 1201.2766,399.7437 L1201.2766,400.7609 Q1201.2766,401.1875 1201.1125,401.3734 Q1200.9484,401.5594 1200.6859,401.5594 Q1200.4453,401.5594 1200.3031,401.4172 Q1200.1609,401.2859 1200.0844,400.925 Q1200.0516,400.6734 1199.9203,400.5422 Q1199.6906,400.2797 1199.2641,400.1266 Q1198.8375,399.9734 1198.4,399.9734 Q1197.8641,399.9734 1197.4156,400.2031 Q1196.9781,400.4328 1196.6281,400.9578 Q1196.2891,401.4828 1196.2891,402.2047 L1196.2891,402.9703 Q1196.2891,403.8344 1196.9125,404.4141 Q1197.5359,404.9828 1198.6516,404.9828 Q1199.3078,404.9828 1199.7672,404.8078 Q1200.0406,404.6984 1200.3359,404.3922 Q1200.5219,404.2062 1200.6203,404.1516 Q1200.7297,404.0969 1200.8719,404.0969 Q1201.1016,404.0969 1201.2766,404.2828 Q1201.4625,404.4578 1201.4625,404.6984 Q1201.4625,404.9391 1201.2219,405.2234 Q1200.8719,405.6281 1200.3141,405.8578 Q1199.5594,406.175 1198.6516,406.175 Q1197.5906,406.175 1196.7484,405.7375 Q1196.0594,405.3875 1195.5781,404.6437 Q1195.0969,403.8891 1195.0969,402.9922 L1195.0969,402.1828 Q1195.0969,401.2531 1195.5234,400.4547 Q1195.9609,399.6453 1196.7266,399.2187 Q1197.4922,398.7812 1198.3562,398.7812 Q1198.8703,398.7812 1199.3187,398.9016 Q1199.7781,399.0109 1200.1609,399.2625 Z " fill="#000000"/><text fill="#000000" font-family="sans-serif" font-size="9.8" lengthAdjust="spacing" textLength="109.9" x="1212.575" y="406.2078">EmailThroughDEIService</text><line style="stroke:#181818;stroke-width:0.3499999999999999;" x1="1152.2" x2="1360.1" y1="413.35" y2="413.35"/><line style="stroke:#181818;stroke-width:0.3499999999999999;" x1="1152.2" x2="1360.1" y1="418.95" y2="418.95"/><text fill="#000000" font-family="sans-serif" font-size="9.8" lengthAdjust="spacing" textLength="200.9" x="1155.7" y="432.3252">+sendEmail(title, startingDate, selectedTeam)</text></g><!--reverse link Task to DegreeOfUrgency--><g id="link_Task_DegreeOfUrgency"><path codeLine="161" d="M965.9915,490.2058 C997.9115,517.9398 1025.094,541.555 1051.806,564.76 " fill="none" id="Task-backto-DegreeOfUrgency" style="stroke:#181818;stroke-width:0.6999999999999998;"/><ellipse cx="961.7643" cy="486.5329" fill="#FFFFFF" rx="5.6" ry="5.6" style="stroke:#181818;stroke-width:0.6999999999999998;"/><line style="stroke:#181818;stroke-width:0.6999999999999998;" x1="965.9915" x2="957.537" y1="490.2058" y2="482.86"/><line style="stroke:#181818;stroke-width:0.6999999999999998;" x1="958.0914" x2="965.4372" y1="490.7602" y2="482.3056"/></g><!--reverse link Task to GSTaskStatus--><g id="link_Task_GSTaskStatus"><path codeLine="162" d="M863.6611,501.0274 C860.2591,519.4304 858.711,527.793 855.512,545.09 " fill="none" id="Task-backto-GSTaskStatus" style="stroke:#181818;stroke-width:0.6999999999999998;"/><ellipse cx="864.679" cy="495.5207" fill="#FFFFFF" rx="5.6" ry="5.6" style="stroke:#181818;stroke-width:0.6999999999999998;"/><line style="stroke:#181818;stroke-width:0.6999999999999998;" x1="863.6611" x2="865.697" y1="501.0274" y2="490.014"/><line style="stroke:#181818;stroke-width:0.6999999999999998;" x1="859.1723" x2="870.1857" y1="494.5027" y2="496.5387"/></g><!--link Repositories to Repositories--><g id="link_Repositories_Repositories"><path codeLine="164" d="M692.146,40.32 C706.286,41.783 716.45,46.431 716.45,54.25 C716.45,62.069 710.4637,66.2848 696.3237,67.7478 " fill="none" id="Repositories-to-Repositories" style="stroke:#181818;stroke-width:0.6999999999999998;"/><polygon fill="#181818" points="692.146,68.18,698.7007,70.3168,695.6274,67.8198,698.1244,64.7465,692.146,68.18" style="stroke:#181818;stroke-width:0.6999999999999998;"/><text fill="#000000" font-family="sans-serif" font-size="9.1" lengthAdjust="spacing" textLength="34.3" x="720.65" y="58.1198">instance</text></g><!--link ApplicationSession to ApplicationSession--><g id="link_ApplicationSession_ApplicationSession"><path codeLine="165" d="M154.812,204.561 C168.7,205.548 179.2,211.092 179.2,221.2 C179.2,231.308 172.8894,236.5543 159.0014,237.5413 " fill="none" id="ApplicationSession-to-ApplicationSession" style="stroke:#181818;stroke-width:0.6999999999999998;"/><polygon fill="#181818" points="154.812,237.839,161.2946,240.1854,158.3032,237.5909,160.8977,234.5994,154.812,237.839" style="stroke:#181818;stroke-width:0.6999999999999998;"/><text fill="#000000" font-family="sans-serif" font-size="9.1" lengthAdjust="spacing" textLength="34.3" x="183.4" y="225.0698">instance</text></g><!--link AssignTeamUI to AssignTeamController--><g id="link_AssignTeamUI_AssignTeamController"><path codeLine="167" d="M338.485,54.25 C340.41,54.25 347.998,54.25 358.624,54.25 " fill="none" id="AssignTeamUI-to-AssignTeamController" style="stroke:#181818;stroke-width:0.6999999999999998;stroke-dasharray:7.0,7.0;"/><polygon fill="#181818" points="362.824,54.25,356.524,51.45,359.324,54.25,356.524,57.05,362.824,54.25" style="stroke:#181818;stroke-width:0.6999999999999998;"/></g><!--link AssignTeamController to Repositories--><g id="link_AssignTeamController_Repositories"><path codeLine="169" d="M483.427,54.25 C506.31,54.25 528.325,54.25 551.873,54.25 " fill="none" id="AssignTeamController-to-Repositories" style="stroke:#181818;stroke-width:0.6999999999999998;stroke-dasharray:7.0,7.0;"/><polygon fill="#181818" points="556.073,54.25,549.773,51.45,552.573,54.25,549.773,57.05,556.073,54.25" style="stroke:#181818;stroke-width:0.6999999999999998;"/><text fill="#000000" font-family="sans-serif" font-size="9.1" lengthAdjust="spacing" textLength="46.9" x="496.3" y="49.3698">repositories</text></g><!--link Repositories to TeamRepository--><g id="link_Repositories_TeamRepository"><path codeLine="171" d="M615.146,97.153 C610.82,117.649 606.55,137.9 606.55,137.9 C606.55,137.9 519.05,158.9 519.05,158.9 C519.05,158.9 508.9432,168.2608 494.3132,181.8128 " fill="none" id="Repositories-to-TeamRepository" style="stroke:#181818;stroke-width:0.6999999999999998;"/><polygon fill="#181818" points="491.232,184.667,497.7566,182.4399,493.7997,182.2885,493.951,178.3316,491.232,184.667" style="stroke:#181818;stroke-width:0.6999999999999998;"/><text fill="#000000" font-family="sans-serif" font-size="9.1" lengthAdjust="spacing" textLength="4.9" x="491.2007" y="176.8983">1</text></g><!--link Repositories to Agenda--><g id="link_Repositories_Agenda"><path codeLine="172" d="M686.329,97.153 C713.965,115.885 743.556,135.936 773.887,156.488 " fill="none" id="Repositories-to-Agenda" style="stroke:#181818;stroke-width:0.6999999999999998;"/><polygon fill="#181818" points="777.364,158.844,773.7192,152.9921,774.4665,156.8807,770.5779,157.628,777.364,158.844" style="stroke:#181818;stroke-width:0.6999999999999998;"/><text fill="#000000" font-family="sans-serif" font-size="9.1" lengthAdjust="spacing" textLength="4.9" x="764.7263" y="151.1056">1</text></g><!--link AssignTeamController to ApplicationSession--><g id="link_AssignTeamController_ApplicationSession"><path codeLine="174" d="M362.698,95.347 C355.334,100.268 350.35,103.6 350.35,103.6 C350.35,103.6 222.25,158.9 222.25,158.9 C222.25,158.9 190.8771,174.9491 158.5721,191.4761 " fill="none" id="AssignTeamController-to-ApplicationSession" style="stroke:#181818;stroke-width:0.6999999999999998;stroke-dasharray:7.0,7.0;"/><polygon fill="#181818" points="154.833,193.389,161.7169,193.0124,157.9489,191.7949,159.1664,188.0269,154.833,193.389" style="stroke:#181818;stroke-width:0.6999999999999998;"/></g><!--link AssignTeamController to UserSession--><g id="link_AssignTeamController_UserSession"><path codeLine="175" d="M362.698,95.347 C355.334,100.268 350.35,103.6 350.35,103.6 C350.35,103.6 36.75,158.9 36.75,158.9 C36.75,158.9 36.75,283.5 36.75,283.5 C36.75,283.5 40.6319,349.1533 42.8439,386.5333 " fill="none" id="AssignTeamController-to-UserSession" style="stroke:#181818;stroke-width:0.6999999999999998;stroke-dasharray:7.0,7.0;"/><polygon fill="#181818" points="43.092,390.726,45.515,384.2716,42.8852,387.2321,39.9247,384.6024,43.092,390.726" style="stroke:#181818;stroke-width:0.6999999999999998;"/></g><!--link ApplicationSession to UserSession--><g id="link_ApplicationSession_UserSession"><path codeLine="176" d="M93.135,251.027 C81.655,289.387 62.9165,352.0034 52.4725,386.8914 " fill="none" id="ApplicationSession-to-UserSession" style="stroke:#181818;stroke-width:0.6999999999999998;"/><polygon fill="#181818" points="51.268,390.915,55.7571,385.6826,52.2717,387.562,50.3923,384.0766,51.268,390.915" style="stroke:#181818;stroke-width:0.6999999999999998;"/><text fill="#000000" font-family="sans-serif" font-size="9.1" lengthAdjust="spacing" textLength="50.4" x="77.35" y="315.0198">userSession</text><text fill="#000000" font-family="sans-serif" font-size="9.1" lengthAdjust="spacing" textLength="4.9" x="47.2279" y="383.086">1</text></g><!--link AssignTeamController to Agenda--><g id="link_AssignTeamController_Agenda"><path codeLine="177" d="M483.525,79.345 C513.569,91.483 543.55,103.6 543.55,103.6 C543.55,103.6 735.35,158.9 735.35,158.9 C735.35,158.9 736.4115,159.3875 744.2935,163.0415 " fill="none" id="AssignTeamController-to-Agenda" style="stroke:#181818;stroke-width:0.6999999999999998;stroke-dasharray:7.0,7.0;"/><polygon fill="#181818" points="748.104,164.808,743.566,159.618,744.9286,163.3359,741.2107,164.6986,748.104,164.808" style="stroke:#181818;stroke-width:0.6999999999999998;"/><text fill="#000000" font-family="sans-serif" font-size="9.1" lengthAdjust="spacing" textLength="29.4" x="663.25" y="135.1198">agenda</text></g><!--link AssignTeamController to TeamRepository--><g id="link_AssignTeamController_TeamRepository"><path codeLine="178" d="M431.809,103.726 C436.422,129.668 441.2535,156.8645 445.4535,180.5455 " fill="none" id="AssignTeamController-to-TeamRepository" style="stroke:#181818;stroke-width:0.6999999999999998;stroke-dasharray:7.0,7.0;"/><polygon fill="#181818" points="446.187,184.681,447.8438,177.9888,445.5758,181.2348,442.3298,178.9668,446.187,184.681" style="stroke:#181818;stroke-width:0.6999999999999998;"/><text fill="#000000" font-family="sans-serif" font-size="9.1" lengthAdjust="spacing" textLength="63.7" x="438.55" y="135.1198">teamRepository</text></g><!--link AssignTeamController to TaskMapper--><g id="link_AssignTeamController_TaskMapper"><path codeLine="179" d="M483.371,103.726 C515.403,129.668 550.8285,158.3562 580.0605,182.0372 " fill="none" id="AssignTeamController-to-TaskMapper" style="stroke:#181818;stroke-width:0.6999999999999998;stroke-dasharray:7.0,7.0;"/><polygon fill="#181818" points="583.324,184.681,580.1913,178.5397,580.6044,182.4779,576.6662,182.891,583.324,184.681" style="stroke:#181818;stroke-width:0.6999999999999998;"/></g><!--link AssignTeamController to TeamMapper--><g id="link_AssignTeamController_TeamMapper"><path codeLine="180" d="M388.087,103.726 C369.439,129.668 349.3716,157.5898 332.3476,181.2708 " fill="none" id="AssignTeamController-to-TeamMapper" style="stroke:#181818;stroke-width:0.6999999999999998;stroke-dasharray:7.0,7.0;"/><polygon fill="#181818" points="329.896,184.681,335.8469,181.2,331.939,181.8391,331.2999,177.9313,329.896,184.681" style="stroke:#181818;stroke-width:0.6999999999999998;"/></g><!--link Agenda to Task--><g id="link_Agenda_Task"><path codeLine="182" d="M871.955,283.64 C872.977,301.161 873.8591,316.2461 874.9231,334.4601 " fill="none" id="Agenda-to-Task" style="stroke:#181818;stroke-width:0.6999999999999998;"/><polygon fill="#181818" points="875.168,338.653,877.5958,332.2004,874.9639,335.159,872.0054,332.527,875.168,338.653" style="stroke:#181818;stroke-width:0.6999999999999998;"/><text fill="#000000" font-family="sans-serif" font-size="9.1" lengthAdjust="spacing" textLength="4.9" x="867.1506" y="299.1217">1</text><text fill="#000000" font-family="sans-serif" font-size="9.1" lengthAdjust="spacing" textLength="3.5" x="871.2368" y="330.8458">*</text></g><!--link TeamRepository to Team--><g id="link_TeamRepository_Team"><path codeLine="183" d="M444.584,257.782 C428.372,330.834 393.05,490 393.05,490 C393.05,490 262.15,545.3 262.15,545.3 C262.15,545.3 237.9753,560.3365 213.4893,575.5685 " fill="none" id="TeamRepository-to-Team" style="stroke:#181818;stroke-width:0.6999999999999998;"/><polygon fill="#181818" points="209.923,577.787,216.7514,576.8368,212.8949,575.9383,213.7934,572.0818,209.923,577.787" style="stroke:#181818;stroke-width:0.6999999999999998;"/><text fill="#000000" font-family="sans-serif" font-size="9.1" lengthAdjust="spacing" textLength="4.9" x="438.4145" y="272.8037">1</text><text fill="#000000" font-family="sans-serif" font-size="9.1" lengthAdjust="spacing" textLength="3.5" x="217.4875" y="569.9525">*</text></g><!--link TaskMapper to TaskDto--><g id="link_TaskMapper_TaskDto"><path codeLine="185" d="M615.517,257.866 C593.313,324.24 547.0875,462.399 520.7325,541.177 " fill="none" id="TaskMapper-to-TaskDto" style="stroke:#181818;stroke-width:0.6999999999999998;stroke-dasharray:7.0,7.0;"/><polygon fill="#181818" points="519.4,545.16,524.0541,540.0738,520.5104,541.8408,518.7434,538.2971,519.4,545.16" style="stroke:#181818;stroke-width:0.6999999999999998;"/></g><!--link TaskMapper to Task--><g id="link_TaskMapper_Task"><path codeLine="186" d="M690.662,257.733 C714.532,271.285 736.05,283.5 736.05,283.5 C736.05,283.5 782.95,304.5 782.95,304.5 C782.95,304.5 793.6065,316.5518 810.4695,335.6058 " fill="none" id="TaskMapper-to-Task" style="stroke:#181818;stroke-width:0.6999999999999998;stroke-dasharray:7.0,7.0;"/><polygon fill="#181818" points="813.253,338.751,811.1745,332.1776,810.9334,336.13,806.981,335.8889,813.253,338.751" style="stroke:#181818;stroke-width:0.6999999999999998;"/></g><!--link Task to GreenSpace--><g id="link_Task_GreenSpace"><path codeLine="188" d="M914.039,490.014 C922.509,508.417 929.6701,523.9781 937.6361,541.2751 " fill="none" id="Task-to-GreenSpace" style="stroke:#181818;stroke-width:0.6999999999999998;"/><polygon fill="#181818" points="939.393,545.09,939.3009,538.1964,937.9289,541.9109,934.2144,540.539,939.393,545.09" style="stroke:#181818;stroke-width:0.6999999999999998;"/><text fill="#000000" font-family="sans-serif" font-size="9.1" lengthAdjust="spacing" textLength="3.5" x="912.6363" y="505.0747">*</text><text fill="#000000" font-family="sans-serif" font-size="9.1" lengthAdjust="spacing" textLength="4.9" x="931.9986" y="537.4913">1</text></g><!--link TaskDto to GreenSpaceDto--><g id="link_TaskDto_GreenSpaceDto"><path codeLine="189" d="M550.599,657.44 C563.122,671.391 573.6577,683.1411 585.8657,696.7351 " fill="none" id="TaskDto-to-GreenSpaceDto" style="stroke:#181818;stroke-width:0.6999999999999998;"/><polygon fill="#181818" points="588.672,699.86,586.5458,693.3018,586.3334,697.2559,582.3793,697.0435,588.672,699.86" style="stroke:#181818;stroke-width:0.6999999999999998;"/><text fill="#000000" font-family="sans-serif" font-size="9.1" lengthAdjust="spacing" textLength="3.5" x="551.2239" y="672.6127">*</text><text fill="#000000" font-family="sans-serif" font-size="9.1" lengthAdjust="spacing" textLength="4.9" x="579.0047" y="692.0693">1</text></g><!--link TeamMapper to TeamDto--><g id="link_TeamMapper_TeamDto"><path codeLine="191" d="M304.15,257.754 C304.15,294.399 304.15,346.423 304.15,380.408 " fill="none" id="TeamMapper-to-TeamDto" style="stroke:#181818;stroke-width:0.6999999999999998;stroke-dasharray:7.0,7.0;"/><polygon fill="#181818" points="304.15,384.608,306.95,378.308,304.15,381.108,301.35,378.308,304.15,384.608" style="stroke:#181818;stroke-width:0.6999999999999998;"/></g><!--link TeamMapper to Team--><g id="link_TeamMapper_Team"><path codeLine="192" d="M276.997,257.607 C250.852,291.984 215.25,338.8 215.25,338.8 C215.25,338.8 187.7894,509.982 177.5694,573.675 " fill="none" id="TeamMapper-to-Team" style="stroke:#181818;stroke-width:0.6999999999999998;stroke-dasharray:7.0,7.0;"/><polygon fill="#181818" points="176.904,577.822,180.6667,572.0452,177.4585,574.3662,175.1375,571.158,176.904,577.822" style="stroke:#181818;stroke-width:0.6999999999999998;"/></g><!--link TaskMapper to GreenSpaceDto--><g id="link_TaskMapper_GreenSpaceDto"><path codeLine="193" d="M639.961,257.747 C669.123,341.943 739.55,545.3 739.55,545.3 C739.55,545.3 739.55,657.3 739.55,657.3 C739.55,657.3 718.4205,675.3224 692.9545,697.0434 " fill="none" id="TaskMapper-to-GreenSpaceDto" style="stroke:#181818;stroke-width:0.6999999999999998;stroke-dasharray:7.0,7.0;"/><polygon fill="#181818" points="689.759,699.769,696.3693,697.811,692.4219,697.4977,692.7352,693.5503,689.759,699.769" style="stroke:#181818;stroke-width:0.6999999999999998;"/></g><!--link Task to Team--><g id="link_Task_Team"><path codeLine="195" d="M801.738,435.064 C678.923,466.578 453.95,524.3 453.95,524.3 C453.95,524.3 262.15,545.3 262.15,545.3 C262.15,545.3 237.9753,560.3365 213.4893,575.5685 " fill="none" id="Task-to-Team" style="stroke:#181818;stroke-width:0.6999999999999998;"/><polygon fill="#181818" points="209.923,577.787,216.7514,576.8368,212.8949,575.9383,213.7934,572.0818,209.923,577.787" style="stroke:#181818;stroke-width:0.6999999999999998;"/><text fill="#000000" font-family="sans-serif" font-size="9.1" lengthAdjust="spacing" textLength="3.5" x="792.6438" y="434.0357">*</text><text fill="#000000" font-family="sans-serif" font-size="9.1" lengthAdjust="spacing" textLength="15.4" x="200.2271" y="569.9525">0..1</text></g><!--link Task to EmailGenerator--><g id="link_Task_EmailGenerator"><path codeLine="197" d="M957.411,451.752 C1037.043,489.23 1154.4829,544.5053 1221.3469,575.9773 " fill="none" id="Task-to-EmailGenerator" style="stroke:#181818;stroke-width:0.6999999999999998;"/><polygon fill="#181818" points="1225.147,577.766,1220.6393,572.5496,1221.9803,576.2755,1218.2544,577.6164,1225.147,577.766" style="stroke:#181818;stroke-width:0.6999999999999998;"/><text fill="#000000" font-family="sans-serif" font-size="9.1" lengthAdjust="spacing" textLength="54.6" x="1101.45" y="521.5198">makes use of</text><text fill="#000000" font-family="sans-serif" font-size="9.1" lengthAdjust="spacing" textLength="3.5" x="962.7599" y="451.7981">*</text><text fill="#000000" font-family="sans-serif" font-size="9.1" lengthAdjust="spacing" textLength="4.9" x="1210.2156" y="569.9273">1</text></g><!--link EmailThroughGmail to EmailGenerator--><g id="link_EmailThroughGmail_EmailGenerator"><path codeLine="199" d="M1463.21,438.032 C1421.616,473.704 1351.4509,533.878 1309.8919,569.515 " fill="none" id="EmailThroughGmail-to-EmailGenerator" style="stroke:#181818;stroke-width:0.6999999999999998;stroke-dasharray:7.0,7.0;"/><polygon fill="none" points="1300.327,577.717,1312.6259,572.7033,1307.1579,566.3267,1300.327,577.717" style="stroke:#181818;stroke-width:0.6999999999999998;"/></g><!--link EmailThroughDEIService to EmailGenerator--><g id="link_EmailThroughDEIService_EmailGenerator"><path codeLine="200" d="M1258.313,438.032 C1261.68,473.704 1266.9418,529.5359 1270.3088,565.1729 " fill="none" id="EmailThroughDEIService-to-EmailGenerator" style="stroke:#181818;stroke-width:0.6999999999999998;stroke-dasharray:7.0,7.0;"/><polygon fill="none" points="1271.494,577.717,1274.4902,564.7778,1266.1274,565.5679,1271.494,577.717" style="stroke:#181818;stroke-width:0.6999999999999998;"/></g><!--SRC=[hLRTRjiw3BxNKmYzgRkbnNPxC0Geag8hi673SVe0giquMcp9aEHjsTdU_L2oR4kAtVrWkOdDduyV9PBcfJvoqJB56jf88Ok3aWrGepeWawPbnP5La9jJ3LH1OPYewj107rWflt1HqJshTQYfkG1pQe6siZxP5t8vevJAI19u5JNJ-jOOnPyw0m-553d_1lGL8PSrx0qraYfU7GmjkQN3fI34-T1RhNabTi2QnmVo7o4_pXKRAOoITGqA3IZ-NiugioklhC3SLY1ATeSg3ZfKM9T8a4EDXA3SCNtC-A1W8xwLJPpQjkO5i_npG1DCOs2a3OeBY_WWy5aK44RPT4g1CDuf2o3_XLPgRgGbwi6k8s48Cq7JVsBF9FCqvT7s5CP-rA3IFD31YkyQnklGjiST6RxZshonPxQcq9-obPmhzmeWkenvCuCSy-80POTbkd2BO2dzzEOGf3Zk0hXC3tOeN54TUCtSTgWEZ54Ld8LLlcTjEnPaaClMo8MiKUFZ6RdTVSXcZQuyNcyYdpubOIt843D7B-nWmuq_j55KWYuKRrsV9OeAetxOFoeCN9oyaWj3uMlhKjrsYWL-6rPRXihMjp88iMLck27F9tC4Lc7GLHfeTOO_7Uuz6eeSHnPYX562p2UJcVm5QvBqxOWAKcCAM6p0ob9XtViy8lJCmgqSnCfvhWRhv2R-w1h-yAGFJBlgl9hUfoQD-k89QYaglPDnDRlw7NrnPkvnZfdiLvjXA7yGNKEtIGtrv_1EVd7_xw7aNUCUt-B47xtkSnianodP3NFk8-QBUVRFIXPunb3sRpKJOdYMshHoUDlOyLVxbosAWqk9vbpIcQZhfymqW7xoFKXdlnNCDZtANTEFw6cZZufdcxk7YR4t-65ZJnBhHAerBOAteNQzMnRf4jXVnvnfkB_SRQEmqeqhtsSg6jaW8AWzqg1ESmy27DNfiuirr3lvAHHsp-80TnuxN9swwd3lMFmzlEtTGmxgCn-FxlT1RQVGbzVNPwqsAg9k8k4cGA_NqMQ0YmBtMmCvNr-izOmqy27XWaPlrlDx6PcJMkk4YWftbeGtKhbuVP6syQoDNqOMejxCvRHi6sv1SoVaOmPcc4WNEYsoS3JHclLy5mtZdD71n8Umx3Xj8i-2UnlY6TbyN5ulBlflMKAWrmy6TeIGAHA2-iXsNaNoNkmBsFeEXnVC4- -ueBQGP68y9k12dOlJy2bGnEFLpSthC9s8GZnVy0eQTiIAmtkcSa_8sSJ0SD_NwLIQdmEpfly3]--></g></svg>