<?xml version="1.0" encoding="us-ascii" standalone="no"?><svg xmlns="http://www.w3.org/2000/svg" xmlns:xlink="http://www.w3.org/1999/xlink" contentStyleType="text/css" height="802.9px" preserveAspectRatio="none" style="width:1495px;height:802px;background:#FFFFFF;" version="1.1" viewBox="0 0 1495 802" width="1495.2px" zoomAndPan="magnify"><defs/><g><!--class AssignTeamUI--><g id="elem_AssignTeamUI"><rect codeLine="11" fill="#F1F1F1" height="33.6" id="AssignTeamUI" rx="1.75" ry="1.75" style="stroke:#181818;stroke-width:0.3499999999999999;" width="85.4" x="351.75" y="30.8"/><ellipse cx="362.25" cy="42" fill="#ADD1B2" rx="7.7" ry="7.7" style="stroke:#181818;stroke-width:0.6999999999999998;"/><path d="M364.1859,39.1125 Q364.2953,38.9594 364.4266,38.8828 Q364.5578,38.8062 364.7109,38.8062 Q364.9734,38.8062 365.1375,38.9922 Q365.3016,39.1672 365.3016,39.5937 L365.3016,40.6109 Q365.3016,41.0375 365.1375,41.2234 Q364.9734,41.4094 364.7109,41.4094 Q364.4703,41.4094 364.3281,41.2672 Q364.1859,41.1359 364.1094,40.775 Q364.0766,40.5234 363.9453,40.3922 Q363.7156,40.1297 363.2891,39.9766 Q362.8625,39.8234 362.425,39.8234 Q361.8891,39.8234 361.4406,40.0531 Q361.0031,40.2828 360.6531,40.8078 Q360.3141,41.3328 360.3141,42.0547 L360.3141,42.8203 Q360.3141,43.6844 360.9375,44.2641 Q361.5609,44.8328 362.6766,44.8328 Q363.3328,44.8328 363.7922,44.6578 Q364.0656,44.5484 364.3609,44.2422 Q364.5469,44.0562 364.6453,44.0016 Q364.7547,43.9469 364.8969,43.9469 Q365.1266,43.9469 365.3016,44.1328 Q365.4875,44.3078 365.4875,44.5484 Q365.4875,44.7891 365.2469,45.0734 Q364.8969,45.4781 364.3391,45.7078 Q363.5844,46.025 362.6766,46.025 Q361.6156,46.025 360.7734,45.5875 Q360.0844,45.2375 359.6031,44.4937 Q359.1219,43.7391 359.1219,42.8422 L359.1219,42.0328 Q359.1219,41.1031 359.5484,40.3047 Q359.9859,39.4953 360.7516,39.0687 Q361.5172,38.6312 362.3812,38.6312 Q362.8953,38.6312 363.3437,38.7516 Q363.8031,38.8609 364.1859,39.1125 Z " fill="#000000"/><text fill="#000000" font-family="sans-serif" font-size="9.8" lengthAdjust="spacing" textLength="63" x="372.05" y="46.0578">AssignTeamUI</text><line style="stroke:#181818;stroke-width:0.3499999999999999;" x1="352.45" x2="436.45" y1="53.2" y2="53.2"/><line style="stroke:#181818;stroke-width:0.3499999999999999;" x1="352.45" x2="436.45" y1="58.8" y2="58.8"/></g><!--class AssignTeamController--><g id="elem_AssignTeamController"><rect codeLine="16" fill="#F1F1F1" height="85.7391" id="AssignTeamController" rx="1.75" ry="1.75" style="stroke:#181818;stroke-width:0.3499999999999999;" width="120.4" x="461.65" y="4.9"/><ellipse cx="472.15" cy="16.1" fill="#ADD1B2" rx="7.7" ry="7.7" style="stroke:#181818;stroke-width:0.6999999999999998;"/><path d="M474.0859,13.2125 Q474.1953,13.0594 474.3266,12.9828 Q474.4578,12.9062 474.6109,12.9062 Q474.8734,12.9062 475.0375,13.0922 Q475.2016,13.2672 475.2016,13.6937 L475.2016,14.7109 Q475.2016,15.1375 475.0375,15.3234 Q474.8734,15.5094 474.6109,15.5094 Q474.3703,15.5094 474.2281,15.3672 Q474.0859,15.2359 474.0094,14.875 Q473.9766,14.6234 473.8453,14.4922 Q473.6156,14.2297 473.1891,14.0766 Q472.7625,13.9234 472.325,13.9234 Q471.7891,13.9234 471.3406,14.1531 Q470.9031,14.3828 470.5531,14.9078 Q470.2141,15.4328 470.2141,16.1547 L470.2141,16.9203 Q470.2141,17.7844 470.8375,18.3641 Q471.4609,18.9328 472.5766,18.9328 Q473.2328,18.9328 473.6922,18.7578 Q473.9656,18.6484 474.2609,18.3422 Q474.4469,18.1562 474.5453,18.1016 Q474.6547,18.0469 474.7969,18.0469 Q475.0266,18.0469 475.2016,18.2328 Q475.3875,18.4078 475.3875,18.6484 Q475.3875,18.8891 475.1469,19.1734 Q474.7969,19.5781 474.2391,19.8078 Q473.4844,20.125 472.5766,20.125 Q471.5156,20.125 470.6734,19.6875 Q469.9844,19.3375 469.5031,18.5937 Q469.0219,17.8391 469.0219,16.9422 L469.0219,16.1328 Q469.0219,15.2031 469.4484,14.4047 Q469.8859,13.5953 470.6516,13.1687 Q471.4172,12.7312 472.2812,12.7312 Q472.7953,12.7312 473.2437,12.8516 Q473.7031,12.9609 474.0859,13.2125 Z " fill="#000000"/><text fill="#000000" font-family="sans-serif" font-size="9.8" lengthAdjust="spacing" textLength="98" x="481.95" y="20.1578">AssignTeamController</text><line style="stroke:#181818;stroke-width:0.3499999999999999;" x1="462.35" x2="581.35" y1="27.3" y2="27.3"/><line style="stroke:#181818;stroke-width:0.3499999999999999;" x1="462.35" x2="581.35" y1="32.9" y2="32.9"/><text fill="#000000" font-family="sans-serif" font-size="9.8" lengthAdjust="spacing" textLength="110.6" x="465.85" y="46.2752">+AssignTeamController()</text><text fill="#000000" font-family="sans-serif" font-size="9.8" lengthAdjust="spacing" textLength="91.7" x="465.85" y="59.31">+getAgendaEntries()</text><text fill="#000000" font-family="sans-serif" font-size="9.8" lengthAdjust="spacing" textLength="88.9" x="465.85" y="72.3447">+getSelectedTask(i)</text><text fill="#000000" font-family="sans-serif" font-size="9.8" lengthAdjust="spacing" textLength="68.6" x="465.85" y="85.3795">+assignTeam(i)</text></g><!--class ApplicationSession--><g id="elem_ApplicationSession"><rect codeLine="24" fill="#F1F1F1" height="59.6695" id="ApplicationSession" rx="1.75" ry="1.75" style="stroke:#181818;stroke-width:0.3499999999999999;" width="105.7" x="478.1" y="178.15"/><ellipse cx="488.6" cy="189.35" fill="#ADD1B2" rx="7.7" ry="7.7" style="stroke:#181818;stroke-width:0.6999999999999998;"/><path d="M490.5359,186.4625 Q490.6453,186.3094 490.7766,186.2328 Q490.9078,186.1562 491.0609,186.1562 Q491.3234,186.1562 491.4875,186.3422 Q491.6516,186.5172 491.6516,186.9437 L491.6516,187.9609 Q491.6516,188.3875 491.4875,188.5734 Q491.3234,188.7594 491.0609,188.7594 Q490.8203,188.7594 490.6781,188.6172 Q490.5359,188.4859 490.4594,188.125 Q490.4266,187.8734 490.2953,187.7422 Q490.0656,187.4797 489.6391,187.3266 Q489.2125,187.1734 488.775,187.1734 Q488.2391,187.1734 487.7906,187.4031 Q487.3531,187.6328 487.0031,188.1578 Q486.6641,188.6828 486.6641,189.4047 L486.6641,190.1703 Q486.6641,191.0344 487.2875,191.6141 Q487.9109,192.1828 489.0266,192.1828 Q489.6828,192.1828 490.1422,192.0078 Q490.4156,191.8984 490.7109,191.5922 Q490.8969,191.4062 490.9953,191.3516 Q491.1047,191.2969 491.2469,191.2969 Q491.4766,191.2969 491.6516,191.4828 Q491.8375,191.6578 491.8375,191.8984 Q491.8375,192.1391 491.5969,192.4234 Q491.2469,192.8281 490.6891,193.0578 Q489.9344,193.375 489.0266,193.375 Q487.9656,193.375 487.1234,192.9375 Q486.4344,192.5875 485.9531,191.8437 Q485.4719,191.0891 485.4719,190.1922 L485.4719,189.3828 Q485.4719,188.4531 485.8984,187.6547 Q486.3359,186.8453 487.1016,186.4187 Q487.8672,185.9812 488.7312,185.9812 Q489.2453,185.9812 489.6937,186.1016 Q490.1531,186.2109 490.5359,186.4625 Z " fill="#000000"/><text fill="#000000" font-family="sans-serif" font-size="9.8" lengthAdjust="spacing" textLength="83.3" x="498.4" y="193.4078">ApplicationSession</text><line style="stroke:#181818;stroke-width:0.3499999999999999;" x1="478.8" x2="583.1" y1="200.55" y2="200.55"/><line style="stroke:#181818;stroke-width:0.3499999999999999;" x1="478.8" x2="583.1" y1="206.15" y2="206.15"/><text fill="#000000" font-family="sans-serif" font-size="9.8" lengthAdjust="spacing" textLength="89.6" x="482.3" y="219.5252">+static getInstance()</text><text fill="#000000" font-family="sans-serif" font-size="9.8" lengthAdjust="spacing" textLength="95.2" x="482.3" y="232.56">+getCurrentSession()</text></g><!--class Repositories--><g id="elem_Repositories"><rect codeLine="30" fill="#F1F1F1" height="85.7391" id="Repositories" rx="1.75" ry="1.75" style="stroke:#181818;stroke-width:0.3499999999999999;" width="135.8" x="654.85" y="4.9"/><ellipse cx="692.125" cy="16.1" fill="#ADD1B2" rx="7.7" ry="7.7" style="stroke:#181818;stroke-width:0.6999999999999998;"/><path d="M694.0609,13.2125 Q694.1703,13.0594 694.3016,12.9828 Q694.4328,12.9062 694.5859,12.9062 Q694.8484,12.9062 695.0125,13.0922 Q695.1766,13.2672 695.1766,13.6937 L695.1766,14.7109 Q695.1766,15.1375 695.0125,15.3234 Q694.8484,15.5094 694.5859,15.5094 Q694.3453,15.5094 694.2031,15.3672 Q694.0609,15.2359 693.9844,14.875 Q693.9516,14.6234 693.8203,14.4922 Q693.5906,14.2297 693.1641,14.0766 Q692.7375,13.9234 692.3,13.9234 Q691.7641,13.9234 691.3156,14.1531 Q690.8781,14.3828 690.5281,14.9078 Q690.1891,15.4328 690.1891,16.1547 L690.1891,16.9203 Q690.1891,17.7844 690.8125,18.3641 Q691.4359,18.9328 692.5516,18.9328 Q693.2078,18.9328 693.6672,18.7578 Q693.9406,18.6484 694.2359,18.3422 Q694.4219,18.1562 694.5203,18.1016 Q694.6297,18.0469 694.7719,18.0469 Q695.0016,18.0469 695.1766,18.2328 Q695.3625,18.4078 695.3625,18.6484 Q695.3625,18.8891 695.1219,19.1734 Q694.7719,19.5781 694.2141,19.8078 Q693.4594,20.125 692.5516,20.125 Q691.4906,20.125 690.6484,19.6875 Q689.9594,19.3375 689.4781,18.5937 Q688.9969,17.8391 688.9969,16.9422 L688.9969,16.1328 Q688.9969,15.2031 689.4234,14.4047 Q689.8609,13.5953 690.6266,13.1687 Q691.3922,12.7312 692.2562,12.7312 Q692.7703,12.7312 693.2187,12.8516 Q693.6781,12.9609 694.0609,13.2125 Z " fill="#000000"/><text fill="#000000" font-family="sans-serif" font-size="9.8" lengthAdjust="spacing" textLength="55.3" x="706.475" y="20.1578">Repositories</text><line style="stroke:#181818;stroke-width:0.3499999999999999;" x1="655.55" x2="789.95" y1="27.3" y2="27.3"/><line style="stroke:#181818;stroke-width:0.3499999999999999;" x1="655.55" x2="789.95" y1="32.9" y2="32.9"/><text fill="#000000" font-family="sans-serif" font-size="9.8" lengthAdjust="spacing" textLength="65.8" x="659.05" y="46.2752">-Repositories()</text><text fill="#000000" font-family="sans-serif" font-size="9.8" lengthAdjust="spacing" textLength="127.4" x="659.05" y="59.31">+getInstance() : Repositories</text><text fill="#000000" font-family="sans-serif" font-size="9.8" lengthAdjust="spacing" textLength="60.9" x="659.05" y="72.3447">+getAgenda()</text><text fill="#000000" font-family="sans-serif" font-size="9.8" lengthAdjust="spacing" textLength="99.4" x="659.05" y="85.3795">+getTeamRepository()</text></g><!--class UserSession--><g id="elem_UserSession"><rect codeLine="38" fill="#F1F1F1" height="46.6348" id="UserSession" rx="1.75" ry="1.75" style="stroke:#181818;stroke-width:0.3499999999999999;" width="79.1" x="235.2" y="377.65"/><ellipse cx="246.33" cy="388.85" fill="#ADD1B2" rx="7.7" ry="7.7" style="stroke:#181818;stroke-width:0.6999999999999998;"/><path d="M248.2659,385.9625 Q248.3753,385.8094 248.5066,385.7328 Q248.6378,385.6562 248.7909,385.6562 Q249.0534,385.6562 249.2175,385.8422 Q249.3816,386.0172 249.3816,386.4437 L249.3816,387.4609 Q249.3816,387.8875 249.2175,388.0734 Q249.0534,388.2594 248.7909,388.2594 Q248.5503,388.2594 248.4081,388.1172 Q248.2659,387.9859 248.1894,387.625 Q248.1566,387.3734 248.0253,387.2422 Q247.7956,386.9797 247.3691,386.8266 Q246.9425,386.6734 246.505,386.6734 Q245.9691,386.6734 245.5206,386.9031 Q245.0831,387.1328 244.7331,387.6578 Q244.3941,388.1828 244.3941,388.9047 L244.3941,389.6703 Q244.3941,390.5344 245.0175,391.1141 Q245.6409,391.6828 246.7566,391.6828 Q247.4128,391.6828 247.8722,391.5078 Q248.1456,391.3984 248.4409,391.0922 Q248.6269,390.9062 248.7253,390.8516 Q248.8347,390.7969 248.9769,390.7969 Q249.2066,390.7969 249.3816,390.9828 Q249.5675,391.1578 249.5675,391.3984 Q249.5675,391.6391 249.3269,391.9234 Q248.9769,392.3281 248.4191,392.5578 Q247.6644,392.875 246.7566,392.875 Q245.6956,392.875 244.8534,392.4375 Q244.1644,392.0875 243.6831,391.3437 Q243.2019,390.5891 243.2019,389.6922 L243.2019,388.8828 Q243.2019,387.9531 243.6284,387.1547 Q244.0659,386.3453 244.8316,385.9187 Q245.5972,385.4812 246.4612,385.4812 Q246.9753,385.4812 247.4237,385.6016 Q247.8831,385.7109 248.2659,385.9625 Z " fill="#000000"/><text fill="#000000" font-family="sans-serif" font-size="9.8" lengthAdjust="spacing" textLength="55.3" x="256.27" y="392.9078">UserSession</text><line style="stroke:#181818;stroke-width:0.3499999999999999;" x1="235.9" x2="313.6" y1="400.05" y2="400.05"/><line style="stroke:#181818;stroke-width:0.3499999999999999;" x1="235.9" x2="313.6" y1="405.65" y2="405.65"/><text fill="#000000" font-family="sans-serif" font-size="9.8" lengthAdjust="spacing" textLength="70.7" x="239.4" y="419.0252">+getUserEmail()</text></g><!--class Agenda--><g id="elem_Agenda"><rect codeLine="43" fill="#F1F1F1" height="124.8434" id="Agenda" rx="1.75" ry="1.75" style="stroke:#181818;stroke-width:0.3499999999999999;" width="240.1" x="796.6" y="145.6"/><ellipse cx="896.525" cy="156.8" fill="#ADD1B2" rx="7.7" ry="7.7" style="stroke:#181818;stroke-width:0.6999999999999998;"/><path d="M898.4609,153.9125 Q898.5703,153.7594 898.7016,153.6828 Q898.8328,153.6062 898.9859,153.6062 Q899.2484,153.6062 899.4125,153.7922 Q899.5766,153.9672 899.5766,154.3937 L899.5766,155.4109 Q899.5766,155.8375 899.4125,156.0234 Q899.2484,156.2094 898.9859,156.2094 Q898.7453,156.2094 898.6031,156.0672 Q898.4609,155.9359 898.3844,155.575 Q898.3516,155.3234 898.2203,155.1922 Q897.9906,154.9297 897.5641,154.7766 Q897.1375,154.6234 896.7,154.6234 Q896.1641,154.6234 895.7156,154.8531 Q895.2781,155.0828 894.9281,155.6078 Q894.5891,156.1328 894.5891,156.8547 L894.5891,157.6203 Q894.5891,158.4844 895.2125,159.0641 Q895.8359,159.6328 896.9516,159.6328 Q897.6078,159.6328 898.0672,159.4578 Q898.3406,159.3484 898.6359,159.0422 Q898.8219,158.8562 898.9203,158.8016 Q899.0297,158.7469 899.1719,158.7469 Q899.4016,158.7469 899.5766,158.9328 Q899.7625,159.1078 899.7625,159.3484 Q899.7625,159.5891 899.5219,159.8734 Q899.1719,160.2781 898.6141,160.5078 Q897.8594,160.825 896.9516,160.825 Q895.8906,160.825 895.0484,160.3875 Q894.3594,160.0375 893.8781,159.2937 Q893.3969,158.5391 893.3969,157.6422 L893.3969,156.8328 Q893.3969,155.9031 893.8234,155.1047 Q894.2609,154.2953 895.0266,153.8687 Q895.7922,153.4312 896.6562,153.4312 Q897.1703,153.4312 897.6187,153.5516 Q898.0781,153.6609 898.4609,153.9125 Z " fill="#000000"/><text fill="#000000" font-family="sans-serif" font-size="9.8" lengthAdjust="spacing" textLength="34.3" x="910.875" y="160.8578">Agenda</text><line style="stroke:#181818;stroke-width:0.3499999999999999;" x1="797.3" x2="1036" y1="168" y2="168"/><text fill="#000000" font-family="sans-serif" font-size="9.8" lengthAdjust="spacing" textLength="100.1" x="800.8" y="181.3752">-List&lt;Task&gt; entriesList</text><text fill="#000000" font-family="sans-serif" font-size="9.8" lengthAdjust="spacing" textLength="152.6" x="800.8" y="194.41">-List&lt;Task&gt; freeAgendaEntriesList</text><text fill="#000000" font-family="sans-serif" font-size="9.8" lengthAdjust="spacing" textLength="117.6" x="800.8" y="207.4447">-List&lt;Task&gt; teamSchedule</text><line style="stroke:#181818;stroke-width:0.3499999999999999;" x1="797.3" x2="1036" y1="212.7043" y2="212.7043"/><text fill="#000000" font-family="sans-serif" font-size="9.8" lengthAdjust="spacing" textLength="114.8" x="800.8" y="226.0795">+getAgendaEntries(email)</text><text fill="#000000" font-family="sans-serif" font-size="9.8" lengthAdjust="spacing" textLength="88.9" x="800.8" y="239.1143">+getSelectedTask(i)</text><text fill="#000000" font-family="sans-serif" font-size="9.8" lengthAdjust="spacing" textLength="231.7" x="800.8" y="252.149">+checkTeamSchedule(selectedTeam, selectedTask)</text><text fill="#000000" font-family="sans-serif" font-size="9.8" lengthAdjust="spacing" textLength="193.2" x="800.8" y="265.1838">+assignTeam(selectedTask, selectedTeam)</text></g><!--class TaskMapper--><g id="elem_TaskMapper"><rect codeLine="54" fill="#F1F1F1" height="72.7043" id="TaskMapper" rx="1.75" ry="1.75" style="stroke:#181818;stroke-width:0.3499999999999999;" width="191.8" x="261.45" y="171.5"/><ellipse cx="326.725" cy="182.7" fill="#ADD1B2" rx="7.7" ry="7.7" style="stroke:#181818;stroke-width:0.6999999999999998;"/><path d="M328.6609,179.8125 Q328.7703,179.6594 328.9016,179.5828 Q329.0328,179.5062 329.1859,179.5062 Q329.4484,179.5062 329.6125,179.6922 Q329.7766,179.8672 329.7766,180.2937 L329.7766,181.3109 Q329.7766,181.7375 329.6125,181.9234 Q329.4484,182.1094 329.1859,182.1094 Q328.9453,182.1094 328.8031,181.9672 Q328.6609,181.8359 328.5844,181.475 Q328.5516,181.2234 328.4203,181.0922 Q328.1906,180.8297 327.7641,180.6766 Q327.3375,180.5234 326.9,180.5234 Q326.3641,180.5234 325.9156,180.7531 Q325.4781,180.9828 325.1281,181.5078 Q324.7891,182.0328 324.7891,182.7547 L324.7891,183.5203 Q324.7891,184.3844 325.4125,184.9641 Q326.0359,185.5328 327.1516,185.5328 Q327.8078,185.5328 328.2672,185.3578 Q328.5406,185.2484 328.8359,184.9422 Q329.0219,184.7562 329.1203,184.7016 Q329.2297,184.6469 329.3719,184.6469 Q329.6016,184.6469 329.7766,184.8328 Q329.9625,185.0078 329.9625,185.2484 Q329.9625,185.4891 329.7219,185.7734 Q329.3719,186.1781 328.8141,186.4078 Q328.0594,186.725 327.1516,186.725 Q326.0906,186.725 325.2484,186.2875 Q324.5594,185.9375 324.0781,185.1937 Q323.5969,184.4391 323.5969,183.5422 L323.5969,182.7328 Q323.5969,181.8031 324.0234,181.0047 Q324.4609,180.1953 325.2266,179.7687 Q325.9922,179.3312 326.8562,179.3312 Q327.3703,179.3312 327.8187,179.4516 Q328.2781,179.5609 328.6609,179.8125 Z " fill="#000000"/><text fill="#000000" font-family="sans-serif" font-size="9.8" lengthAdjust="spacing" textLength="55.3" x="341.075" y="186.7578">TaskMapper</text><line style="stroke:#181818;stroke-width:0.3499999999999999;" x1="262.15" x2="452.55" y1="193.9" y2="193.9"/><text fill="#000000" font-family="sans-serif" font-size="9.8" lengthAdjust="spacing" textLength="183.4" x="265.65" y="207.2752">-List&lt;TaskDto&gt; freeAgendaEntriesListDto</text><line style="stroke:#181818;stroke-width:0.3499999999999999;" x1="262.15" x2="452.55" y1="212.5348" y2="212.5348"/><text fill="#000000" font-family="sans-serif" font-size="9.8" lengthAdjust="spacing" textLength="140" x="265.65" y="225.91">+toDTO(freeAgendaEntriesList)</text><text fill="#000000" font-family="sans-serif" font-size="9.8" lengthAdjust="spacing" textLength="53.2" x="265.65" y="238.9447">-toDTO(obj)</text></g><!--class TaskDto--><g id="elem_TaskDto"><rect codeLine="61" fill="#F1F1F1" height="111.8086" id="TaskDto" rx="1.75" ry="1.75" style="stroke:#181818;stroke-width:0.3499999999999999;" width="452.9" x="112" y="532"/><ellipse cx="316.925" cy="543.2" fill="#ADD1B2" rx="7.7" ry="7.7" style="stroke:#181818;stroke-width:0.6999999999999998;"/><path d="M318.8609,540.3125 Q318.9703,540.1594 319.1016,540.0828 Q319.2328,540.0062 319.3859,540.0062 Q319.6484,540.0062 319.8125,540.1922 Q319.9766,540.3672 319.9766,540.7937 L319.9766,541.8109 Q319.9766,542.2375 319.8125,542.4234 Q319.6484,542.6094 319.3859,542.6094 Q319.1453,542.6094 319.0031,542.4672 Q318.8609,542.3359 318.7844,541.975 Q318.7516,541.7234 318.6203,541.5922 Q318.3906,541.3297 317.9641,541.1766 Q317.5375,541.0234 317.1,541.0234 Q316.5641,541.0234 316.1156,541.2531 Q315.6781,541.4828 315.3281,542.0078 Q314.9891,542.5328 314.9891,543.2547 L314.9891,544.0203 Q314.9891,544.8844 315.6125,545.4641 Q316.2359,546.0328 317.3516,546.0328 Q318.0078,546.0328 318.4672,545.8578 Q318.7406,545.7484 319.0359,545.4422 Q319.2219,545.2562 319.3203,545.2016 Q319.4297,545.1469 319.5719,545.1469 Q319.8016,545.1469 319.9766,545.3328 Q320.1625,545.5078 320.1625,545.7484 Q320.1625,545.9891 319.9219,546.2734 Q319.5719,546.6781 319.0141,546.9078 Q318.2594,547.225 317.3516,547.225 Q316.2906,547.225 315.4484,546.7875 Q314.7594,546.4375 314.2781,545.6937 Q313.7969,544.9391 313.7969,544.0422 L313.7969,543.2328 Q313.7969,542.3031 314.2234,541.5047 Q314.6609,540.6953 315.4266,540.2687 Q316.1922,539.8312 317.0562,539.8312 Q317.5703,539.8312 318.0187,539.9516 Q318.4781,540.0609 318.8609,540.3125 Z " fill="#000000"/><text fill="#000000" font-family="sans-serif" font-size="9.8" lengthAdjust="spacing" textLength="37.1" x="331.275" y="547.2578">TaskDto</text><line style="stroke:#181818;stroke-width:0.3499999999999999;" x1="112.7" x2="564.2" y1="554.4" y2="554.4"/><text fill="#000000" font-family="sans-serif" font-size="9.8" lengthAdjust="spacing" textLength="47.6" x="116.2" y="567.7752">-String title</text><text fill="#000000" font-family="sans-serif" font-size="9.8" lengthAdjust="spacing" textLength="80.5" x="116.2" y="580.81">-String description</text><text fill="#000000" font-family="sans-serif" font-size="9.8" lengthAdjust="spacing" textLength="110.6" x="116.2" y="593.8447">-String degreeOfUrgency</text><text fill="#000000" font-family="sans-serif" font-size="9.8" lengthAdjust="spacing" textLength="94.5" x="116.2" y="606.8795">-int expectedDuration</text><text fill="#000000" font-family="sans-serif" font-size="9.8" lengthAdjust="spacing" textLength="100.8" x="116.2" y="619.9143">-Calendar startingDate</text><line style="stroke:#181818;stroke-width:0.3499999999999999;" x1="112.7" x2="564.2" y1="625.1738" y2="625.1738"/><text fill="#000000" font-family="sans-serif" font-size="9.8" lengthAdjust="spacing" textLength="444.5" x="116.2" y="638.549">+TaskDto(title, description, degreeOfUrgency, expectedDuration, selectedGreenSpace, startingDate)</text></g><!--class Task--><g id="elem_Task"><rect codeLine="71" fill="#F1F1F1" height="150.9129" id="Task" rx="1.75" ry="1.75" style="stroke:#181818;stroke-width:0.3499999999999999;" width="155.4" x="838.95" y="325.5"/><ellipse cx="902.825" cy="336.7" fill="#ADD1B2" rx="7.7" ry="7.7" style="stroke:#181818;stroke-width:0.6999999999999998;"/><path d="M904.7609,333.8125 Q904.8703,333.6594 905.0016,333.5828 Q905.1328,333.5062 905.2859,333.5062 Q905.5484,333.5062 905.7125,333.6922 Q905.8766,333.8672 905.8766,334.2937 L905.8766,335.3109 Q905.8766,335.7375 905.7125,335.9234 Q905.5484,336.1094 905.2859,336.1094 Q905.0453,336.1094 904.9031,335.9672 Q904.7609,335.8359 904.6844,335.475 Q904.6516,335.2234 904.5203,335.0922 Q904.2906,334.8297 903.8641,334.6766 Q903.4375,334.5234 903,334.5234 Q902.4641,334.5234 902.0156,334.7531 Q901.5781,334.9828 901.2281,335.5078 Q900.8891,336.0328 900.8891,336.7547 L900.8891,337.5203 Q900.8891,338.3844 901.5125,338.9641 Q902.1359,339.5328 903.2516,339.5328 Q903.9078,339.5328 904.3672,339.3578 Q904.6406,339.2484 904.9359,338.9422 Q905.1219,338.7562 905.2203,338.7016 Q905.3297,338.6469 905.4719,338.6469 Q905.7016,338.6469 905.8766,338.8328 Q906.0625,339.0078 906.0625,339.2484 Q906.0625,339.4891 905.8219,339.7734 Q905.4719,340.1781 904.9141,340.4078 Q904.1594,340.725 903.2516,340.725 Q902.1906,340.725 901.3484,340.2875 Q900.6594,339.9375 900.1781,339.1937 Q899.6969,338.4391 899.6969,337.5422 L899.6969,336.7328 Q899.6969,335.8031 900.1234,335.0047 Q900.5609,334.1953 901.3266,333.7687 Q902.0922,333.3312 902.9562,333.3312 Q903.4703,333.3312 903.9187,333.4516 Q904.3781,333.5609 904.7609,333.8125 Z " fill="#000000"/><text fill="#000000" font-family="sans-serif" font-size="9.8" lengthAdjust="spacing" textLength="21.7" x="917.175" y="340.7578">Task</text><line style="stroke:#181818;stroke-width:0.3499999999999999;" x1="839.65" x2="993.65" y1="347.9" y2="347.9"/><text fill="#000000" font-family="sans-serif" font-size="9.8" lengthAdjust="spacing" textLength="47.6" x="843.15" y="361.2752">-String title</text><text fill="#000000" font-family="sans-serif" font-size="9.8" lengthAdjust="spacing" textLength="80.5" x="843.15" y="374.31">-String description</text><text fill="#000000" font-family="sans-serif" font-size="9.8" lengthAdjust="spacing" textLength="94.5" x="843.15" y="387.3447">-int expectedDuration</text><text fill="#000000" font-family="sans-serif" font-size="9.8" lengthAdjust="spacing" textLength="100.8" x="843.15" y="400.3795">-Calendar startingDate</text><line style="stroke:#181818;stroke-width:0.3499999999999999;" x1="839.65" x2="993.65" y1="405.6391" y2="405.6391"/><text fill="#000000" font-family="sans-serif" font-size="9.8" lengthAdjust="spacing" textLength="53.9" x="843.15" y="419.0143">+hasTeam()</text><text fill="#000000" font-family="sans-serif" font-size="9.8" lengthAdjust="spacing" textLength="95.9" x="843.15" y="432.049">+hasUserEmail(email)</text><text fill="#000000" font-family="sans-serif" font-size="9.8" lengthAdjust="spacing" textLength="147" x="843.15" y="445.0838">+belongsToTeam(selectedTeam)</text><text fill="#000000" font-family="sans-serif" font-size="9.8" lengthAdjust="spacing" textLength="120.4" x="843.15" y="458.1186">+hasConflict(selectedTask)</text><text fill="#000000" font-family="sans-serif" font-size="9.8" lengthAdjust="spacing" textLength="128.8" x="843.15" y="471.1533">+assignTeam(selectedTeam)</text></g><!--class DegreeOfUrgency--><g id="elem_DegreeOfUrgency"><rect codeLine="84" fill="#F1F1F1" height="72.7043" id="DegreeOfUrgency" rx="1.75" ry="1.75" style="stroke:#181818;stroke-width:0.3499999999999999;" width="102.2" x="878.15" y="551.6"/><ellipse cx="888.65" cy="562.8" fill="#EB937F" rx="7.7" ry="7.7" style="stroke:#181818;stroke-width:0.6999999999999998;"/><path d="M887.8516,563.3578 L887.8516,565.1078 L890.8812,565.1078 L890.8812,564.4625 Q890.8812,564.0359 891.0453,563.85 Q891.2203,563.6641 891.4828,563.6641 Q891.7453,563.6641 891.9094,563.85 Q892.0734,564.0359 892.0734,564.4625 L892.0734,566.3 L886.4734,566.3 Q886.0359,566.3 885.85,566.1359 Q885.675,565.9719 885.675,565.6984 Q885.675,565.4359 885.8609,565.2719 Q886.0469,565.1078 886.4734,565.1078 L886.6594,565.1078 L886.6594,560.4484 L886.4734,560.4484 Q886.0359,560.4484 885.85,560.2844 Q885.675,560.1203 885.675,559.8469 Q885.675,559.5844 885.85,559.4203 Q886.0359,559.2562 886.4734,559.2562 L891.8109,559.2562 L891.8109,561.0719 Q891.8109,561.4984 891.6469,561.6844 Q891.4937,561.8594 891.2203,561.8594 Q890.9578,561.8594 890.7937,561.6844 Q890.6297,561.4984 890.6297,561.0719 L890.6297,560.4484 L887.8516,560.4484 L887.8516,562.1656 L888.8906,562.1656 Q888.8906,561.7062 888.9781,561.575 Q889.1641,561.2906 889.4922,561.2906 Q889.7547,561.2906 889.9187,561.4766 Q890.0828,561.6516 890.0828,562.0781 L890.0828,563.4562 Q890.0828,563.8391 889.9953,563.9703 Q889.8094,564.2437 889.4922,564.2437 Q889.1641,564.2437 888.9781,563.9594 Q888.8906,563.8281 888.8906,563.3578 L887.8516,563.3578 Z " fill="#000000"/><text fill="#000000" font-family="sans-serif" font-size="9.8" lengthAdjust="spacing" textLength="79.8" x="898.45" y="566.8578">DegreeOfUrgency</text><line style="stroke:#181818;stroke-width:0.3499999999999999;" x1="878.85" x2="979.65" y1="574" y2="574"/><text fill="#000000" font-family="sans-serif" font-size="9.8" lengthAdjust="spacing" textLength="17.5" x="882.35" y="587.3752">Low</text><text fill="#000000" font-family="sans-serif" font-size="9.8" lengthAdjust="spacing" textLength="34.3" x="882.35" y="600.41">Medium</text><text fill="#000000" font-family="sans-serif" font-size="9.8" lengthAdjust="spacing" textLength="19.6" x="882.35" y="613.4447">High</text><line style="stroke:#181818;stroke-width:0.3499999999999999;" x1="878.85" x2="979.65" y1="618.7043" y2="618.7043"/></g><!--class GSTaskStatus--><g id="elem_GSTaskStatus"><rect codeLine="91" fill="#F1F1F1" height="111.8086" id="GSTaskStatus" rx="1.75" ry="1.75" style="stroke:#181818;stroke-width:0.3499999999999999;" width="86.1" x="767.2" y="532"/><ellipse cx="777.7" cy="543.2" fill="#EB937F" rx="7.7" ry="7.7" style="stroke:#181818;stroke-width:0.6999999999999998;"/><path d="M776.9016,543.7578 L776.9016,545.5078 L779.9312,545.5078 L779.9312,544.8625 Q779.9312,544.4359 780.0953,544.25 Q780.2703,544.0641 780.5328,544.0641 Q780.7953,544.0641 780.9594,544.25 Q781.1234,544.4359 781.1234,544.8625 L781.1234,546.7 L775.5234,546.7 Q775.0859,546.7 774.9,546.5359 Q774.725,546.3719 774.725,546.0984 Q774.725,545.8359 774.9109,545.6719 Q775.0969,545.5078 775.5234,545.5078 L775.7094,545.5078 L775.7094,540.8484 L775.5234,540.8484 Q775.0859,540.8484 774.9,540.6844 Q774.725,540.5203 774.725,540.2469 Q774.725,539.9844 774.9,539.8203 Q775.0859,539.6562 775.5234,539.6562 L780.8609,539.6562 L780.8609,541.4719 Q780.8609,541.8984 780.6969,542.0844 Q780.5437,542.2594 780.2703,542.2594 Q780.0078,542.2594 779.8437,542.0844 Q779.6797,541.8984 779.6797,541.4719 L779.6797,540.8484 L776.9016,540.8484 L776.9016,542.5656 L777.9406,542.5656 Q777.9406,542.1062 778.0281,541.975 Q778.2141,541.6906 778.5422,541.6906 Q778.8047,541.6906 778.9687,541.8766 Q779.1328,542.0516 779.1328,542.4781 L779.1328,543.8562 Q779.1328,544.2391 779.0453,544.3703 Q778.8594,544.6437 778.5422,544.6437 Q778.2141,544.6437 778.0281,544.3594 Q777.9406,544.2281 777.9406,543.7578 L776.9016,543.7578 Z " fill="#000000"/><text fill="#000000" font-family="sans-serif" font-size="9.8" lengthAdjust="spacing" textLength="63.7" x="787.5" y="547.2578">GSTaskStatus</text><line style="stroke:#181818;stroke-width:0.3499999999999999;" x1="767.9" x2="852.6" y1="554.4" y2="554.4"/><text fill="#000000" font-family="sans-serif" font-size="9.8" lengthAdjust="spacing" textLength="36.4" x="771.4" y="567.7752">Pending</text><text fill="#000000" font-family="sans-serif" font-size="9.8" lengthAdjust="spacing" textLength="46.9" x="771.4" y="580.81">Processed</text><text fill="#000000" font-family="sans-serif" font-size="9.8" lengthAdjust="spacing" textLength="36.4" x="771.4" y="593.8447">Planned</text><text fill="#000000" font-family="sans-serif" font-size="9.8" lengthAdjust="spacing" textLength="47.6" x="771.4" y="606.8795">Postponed</text><text fill="#000000" font-family="sans-serif" font-size="9.8" lengthAdjust="spacing" textLength="42" x="771.4" y="619.9143">Canceled</text><text fill="#000000" font-family="sans-serif" font-size="9.8" lengthAdjust="spacing" textLength="23.8" x="771.4" y="632.949">Done</text><line style="stroke:#181818;stroke-width:0.3499999999999999;" x1="767.9" x2="852.6" y1="638.2086" y2="638.2086"/></g><!--class TeamRepository--><g id="elem_TeamRepository"><rect codeLine="101" fill="#F1F1F1" height="72.7043" id="TeamRepository" rx="1.75" ry="1.75" style="stroke:#181818;stroke-width:0.3499999999999999;" width="108.5" x="663.6" y="171.5"/><ellipse cx="680.085" cy="182.7" fill="#ADD1B2" rx="7.7" ry="7.7" style="stroke:#181818;stroke-width:0.6999999999999998;"/><path d="M682.0209,179.8125 Q682.1303,179.6594 682.2616,179.5828 Q682.3928,179.5062 682.5459,179.5062 Q682.8084,179.5062 682.9725,179.6922 Q683.1366,179.8672 683.1366,180.2937 L683.1366,181.3109 Q683.1366,181.7375 682.9725,181.9234 Q682.8084,182.1094 682.5459,182.1094 Q682.3053,182.1094 682.1631,181.9672 Q682.0209,181.8359 681.9444,181.475 Q681.9116,181.2234 681.7803,181.0922 Q681.5506,180.8297 681.1241,180.6766 Q680.6975,180.5234 680.26,180.5234 Q679.7241,180.5234 679.2756,180.7531 Q678.8381,180.9828 678.4881,181.5078 Q678.1491,182.0328 678.1491,182.7547 L678.1491,183.5203 Q678.1491,184.3844 678.7725,184.9641 Q679.3959,185.5328 680.5116,185.5328 Q681.1678,185.5328 681.6272,185.3578 Q681.9006,185.2484 682.1959,184.9422 Q682.3819,184.7562 682.4803,184.7016 Q682.5897,184.6469 682.7319,184.6469 Q682.9616,184.6469 683.1366,184.8328 Q683.3225,185.0078 683.3225,185.2484 Q683.3225,185.4891 683.0819,185.7734 Q682.7319,186.1781 682.1741,186.4078 Q681.4194,186.725 680.5116,186.725 Q679.4506,186.725 678.6084,186.2875 Q677.9194,185.9375 677.4381,185.1937 Q676.9569,184.4391 676.9569,183.5422 L676.9569,182.7328 Q676.9569,181.8031 677.3834,181.0047 Q677.8209,180.1953 678.5866,179.7687 Q679.3522,179.3312 680.2162,179.3312 Q680.7303,179.3312 681.1787,179.4516 Q681.6381,179.5609 682.0209,179.8125 Z " fill="#000000"/><text fill="#000000" font-family="sans-serif" font-size="9.8" lengthAdjust="spacing" textLength="72.8" x="691.215" y="186.7578">TeamRepository</text><line style="stroke:#181818;stroke-width:0.3499999999999999;" x1="664.3" x2="771.4" y1="193.9" y2="193.9"/><text fill="#000000" font-family="sans-serif" font-size="9.8" lengthAdjust="spacing" textLength="100.1" x="667.8" y="207.2752">-List&lt;Team&gt; teamsList</text><line style="stroke:#181818;stroke-width:0.3499999999999999;" x1="664.3" x2="771.4" y1="212.5348" y2="212.5348"/><text fill="#000000" font-family="sans-serif" font-size="9.8" lengthAdjust="spacing" textLength="56.7" x="667.8" y="225.91">+getTeams()</text><text fill="#000000" font-family="sans-serif" font-size="9.8" lengthAdjust="spacing" textLength="92.4" x="667.8" y="238.9447">+getSelectedTeam(i)</text></g><!--class TeamMapper--><g id="elem_TeamMapper"><rect codeLine="108" fill="#F1F1F1" height="72.7043" id="TeamMapper" rx="1.75" ry="1.75" style="stroke:#181818;stroke-width:0.3499999999999999;" width="139.3" x="47.6" y="171.5"/><ellipse cx="84.875" cy="182.7" fill="#ADD1B2" rx="7.7" ry="7.7" style="stroke:#181818;stroke-width:0.6999999999999998;"/><path d="M86.8109,179.8125 Q86.9203,179.6594 87.0516,179.5828 Q87.1828,179.5062 87.3359,179.5062 Q87.5984,179.5062 87.7625,179.6922 Q87.9266,179.8672 87.9266,180.2937 L87.9266,181.3109 Q87.9266,181.7375 87.7625,181.9234 Q87.5984,182.1094 87.3359,182.1094 Q87.0953,182.1094 86.9531,181.9672 Q86.8109,181.8359 86.7344,181.475 Q86.7016,181.2234 86.5703,181.0922 Q86.3406,180.8297 85.9141,180.6766 Q85.4875,180.5234 85.05,180.5234 Q84.5141,180.5234 84.0656,180.7531 Q83.6281,180.9828 83.2781,181.5078 Q82.9391,182.0328 82.9391,182.7547 L82.9391,183.5203 Q82.9391,184.3844 83.5625,184.9641 Q84.1859,185.5328 85.3016,185.5328 Q85.9578,185.5328 86.4172,185.3578 Q86.6906,185.2484 86.9859,184.9422 Q87.1719,184.7562 87.2703,184.7016 Q87.3797,184.6469 87.5219,184.6469 Q87.7516,184.6469 87.9266,184.8328 Q88.1125,185.0078 88.1125,185.2484 Q88.1125,185.4891 87.8719,185.7734 Q87.5219,186.1781 86.9641,186.4078 Q86.2094,186.725 85.3016,186.725 Q84.2406,186.725 83.3984,186.2875 Q82.7094,185.9375 82.2281,185.1937 Q81.7469,184.4391 81.7469,183.5422 L81.7469,182.7328 Q81.7469,181.8031 82.1734,181.0047 Q82.6109,180.1953 83.3766,179.7687 Q84.1422,179.3312 85.0062,179.3312 Q85.5203,179.3312 85.9687,179.4516 Q86.4281,179.5609 86.8109,179.8125 Z " fill="#000000"/><text fill="#000000" font-family="sans-serif" font-size="9.8" lengthAdjust="spacing" textLength="58.8" x="99.225" y="186.7578">TeamMapper</text><line style="stroke:#181818;stroke-width:0.3499999999999999;" x1="48.3" x2="186.2" y1="193.9" y2="193.9"/><text fill="#000000" font-family="sans-serif" font-size="9.8" lengthAdjust="spacing" textLength="130.9" x="51.8" y="207.2752">-List&lt;TeamDto&gt; teamsListDto</text><line style="stroke:#181818;stroke-width:0.3499999999999999;" x1="48.3" x2="186.2" y1="212.5348" y2="212.5348"/><text fill="#000000" font-family="sans-serif" font-size="9.8" lengthAdjust="spacing" textLength="84" x="51.8" y="225.91">+toDTO(teamsList)</text><text fill="#000000" font-family="sans-serif" font-size="9.8" lengthAdjust="spacing" textLength="53.2" x="51.8" y="238.9447">-toDTO(obj)</text></g><!--class TeamDto--><g id="elem_TeamDto"><rect codeLine="115" fill="#F1F1F1" height="59.6695" id="TeamDto" rx="1.75" ry="1.75" style="stroke:#181818;stroke-width:0.3499999999999999;" width="153.3" x="4.9" y="371.35"/><ellipse cx="58.275" cy="382.55" fill="#ADD1B2" rx="7.7" ry="7.7" style="stroke:#181818;stroke-width:0.6999999999999998;"/><path d="M60.2109,379.6625 Q60.3203,379.5094 60.4516,379.4328 Q60.5828,379.3562 60.7359,379.3562 Q60.9984,379.3562 61.1625,379.5422 Q61.3266,379.7172 61.3266,380.1437 L61.3266,381.1609 Q61.3266,381.5875 61.1625,381.7734 Q60.9984,381.9594 60.7359,381.9594 Q60.4953,381.9594 60.3531,381.8172 Q60.2109,381.6859 60.1344,381.325 Q60.1016,381.0734 59.9703,380.9422 Q59.7406,380.6797 59.3141,380.5266 Q58.8875,380.3734 58.45,380.3734 Q57.9141,380.3734 57.4656,380.6031 Q57.0281,380.8328 56.6781,381.3578 Q56.3391,381.8828 56.3391,382.6047 L56.3391,383.3703 Q56.3391,384.2344 56.9625,384.8141 Q57.5859,385.3828 58.7016,385.3828 Q59.3578,385.3828 59.8172,385.2078 Q60.0906,385.0984 60.3859,384.7922 Q60.5719,384.6062 60.6703,384.5516 Q60.7797,384.4969 60.9219,384.4969 Q61.1516,384.4969 61.3266,384.6828 Q61.5125,384.8578 61.5125,385.0984 Q61.5125,385.3391 61.2719,385.6234 Q60.9219,386.0281 60.3641,386.2578 Q59.6094,386.575 58.7016,386.575 Q57.6406,386.575 56.7984,386.1375 Q56.1094,385.7875 55.6281,385.0437 Q55.1469,384.2891 55.1469,383.3922 L55.1469,382.5828 Q55.1469,381.6531 55.5734,380.8547 Q56.0109,380.0453 56.7766,379.6187 Q57.5422,379.1812 58.4062,379.1812 Q58.9203,379.1812 59.3687,379.3016 Q59.8281,379.4109 60.2109,379.6625 Z " fill="#000000"/><text fill="#000000" font-family="sans-serif" font-size="9.8" lengthAdjust="spacing" textLength="40.6" x="72.625" y="386.6078">TeamDto</text><line style="stroke:#181818;stroke-width:0.3499999999999999;" x1="5.6" x2="157.5" y1="393.75" y2="393.75"/><text fill="#000000" font-family="sans-serif" font-size="9.8" lengthAdjust="spacing" textLength="144.9" x="9.1" y="407.1252">-List&lt;Collaborator&gt; collaborators</text><line style="stroke:#181818;stroke-width:0.3499999999999999;" x1="5.6" x2="157.5" y1="412.3848" y2="412.3848"/><text fill="#000000" font-family="sans-serif" font-size="9.8" lengthAdjust="spacing" textLength="110.6" x="9.1" y="425.76">+TeamDto(collaborators)</text></g><!--class Team--><g id="elem_Team"><rect codeLine="121" fill="#F1F1F1" height="46.6348" id="Team" rx="1.75" ry="1.75" style="stroke:#181818;stroke-width:0.3499999999999999;" width="153.3" x="589.4" y="564.55"/><ellipse cx="650.475" cy="575.75" fill="#ADD1B2" rx="7.7" ry="7.7" style="stroke:#181818;stroke-width:0.6999999999999998;"/><path d="M652.4109,572.8625 Q652.5203,572.7094 652.6516,572.6328 Q652.7828,572.5562 652.9359,572.5562 Q653.1984,572.5562 653.3625,572.7422 Q653.5266,572.9172 653.5266,573.3437 L653.5266,574.3609 Q653.5266,574.7875 653.3625,574.9734 Q653.1984,575.1594 652.9359,575.1594 Q652.6953,575.1594 652.5531,575.0172 Q652.4109,574.8859 652.3344,574.525 Q652.3016,574.2734 652.1703,574.1422 Q651.9406,573.8797 651.5141,573.7266 Q651.0875,573.5734 650.65,573.5734 Q650.1141,573.5734 649.6656,573.8031 Q649.2281,574.0328 648.8781,574.5578 Q648.5391,575.0828 648.5391,575.8047 L648.5391,576.5703 Q648.5391,577.4344 649.1625,578.0141 Q649.7859,578.5828 650.9016,578.5828 Q651.5578,578.5828 652.0172,578.4078 Q652.2906,578.2984 652.5859,577.9922 Q652.7719,577.8062 652.8703,577.7516 Q652.9797,577.6969 653.1219,577.6969 Q653.3516,577.6969 653.5266,577.8828 Q653.7125,578.0578 653.7125,578.2984 Q653.7125,578.5391 653.4719,578.8234 Q653.1219,579.2281 652.5641,579.4578 Q651.8094,579.775 650.9016,579.775 Q649.8406,579.775 648.9984,579.3375 Q648.3094,578.9875 647.8281,578.2437 Q647.3469,577.4891 647.3469,576.5922 L647.3469,575.7828 Q647.3469,574.8531 647.7734,574.0547 Q648.2109,573.2453 648.9766,572.8187 Q649.7422,572.3812 650.6062,572.3812 Q651.1203,572.3812 651.5687,572.5016 Q652.0281,572.6109 652.4109,572.8625 Z " fill="#000000"/><text fill="#000000" font-family="sans-serif" font-size="9.8" lengthAdjust="spacing" textLength="25.2" x="664.825" y="579.8078">Team</text><line style="stroke:#181818;stroke-width:0.3499999999999999;" x1="590.1" x2="742" y1="586.95" y2="586.95"/><text fill="#000000" font-family="sans-serif" font-size="9.8" lengthAdjust="spacing" textLength="144.9" x="593.6" y="600.3252">-List&lt;Collaborator&gt; collaborators</text><line style="stroke:#181818;stroke-width:0.3499999999999999;" x1="590.1" x2="742" y1="605.5848" y2="605.5848"/></g><!--class GreenSpace--><g id="elem_GreenSpace"><rect codeLine="126" fill="#F1F1F1" height="111.8086" id="GreenSpace" rx="1.75" ry="1.75" style="stroke:#181818;stroke-width:0.3499999999999999;" width="104.3" x="625.8" y="686.7"/><ellipse cx="647.955" cy="697.9" fill="#ADD1B2" rx="7.7" ry="7.7" style="stroke:#181818;stroke-width:0.6999999999999998;"/><path d="M649.8909,695.0125 Q650.0003,694.8594 650.1316,694.7828 Q650.2628,694.7062 650.4159,694.7062 Q650.6784,694.7062 650.8425,694.8922 Q651.0066,695.0672 651.0066,695.4937 L651.0066,696.5109 Q651.0066,696.9375 650.8425,697.1234 Q650.6784,697.3094 650.4159,697.3094 Q650.1753,697.3094 650.0331,697.1672 Q649.8909,697.0359 649.8144,696.675 Q649.7816,696.4234 649.6503,696.2922 Q649.4206,696.0297 648.9941,695.8766 Q648.5675,695.7234 648.13,695.7234 Q647.5941,695.7234 647.1456,695.9531 Q646.7081,696.1828 646.3581,696.7078 Q646.0191,697.2328 646.0191,697.9547 L646.0191,698.7203 Q646.0191,699.5844 646.6425,700.1641 Q647.2659,700.7328 648.3816,700.7328 Q649.0378,700.7328 649.4972,700.5578 Q649.7706,700.4484 650.0659,700.1422 Q650.2519,699.9562 650.3503,699.9016 Q650.4597,699.8469 650.6019,699.8469 Q650.8316,699.8469 651.0066,700.0328 Q651.1925,700.2078 651.1925,700.4484 Q651.1925,700.6891 650.9519,700.9734 Q650.6019,701.3781 650.0441,701.6078 Q649.2894,701.925 648.3816,701.925 Q647.3206,701.925 646.4784,701.4875 Q645.7894,701.1375 645.3081,700.3937 Q644.8269,699.6391 644.8269,698.7422 L644.8269,697.9328 Q644.8269,697.0031 645.2534,696.2047 Q645.6909,695.3953 646.4566,694.9687 Q647.2222,694.5312 648.0862,694.5312 Q648.6003,694.5312 649.0487,694.6516 Q649.5081,694.7609 649.8909,695.0125 Z " fill="#000000"/><text fill="#000000" font-family="sans-serif" font-size="9.8" lengthAdjust="spacing" textLength="56" x="660.345" y="701.9578">GreenSpace</text><line style="stroke:#181818;stroke-width:0.3499999999999999;" x1="626.5" x2="729.4" y1="709.1" y2="709.1"/><text fill="#000000" font-family="sans-serif" font-size="9.8" lengthAdjust="spacing" textLength="56.7" x="630" y="722.4752">-String name</text><text fill="#000000" font-family="sans-serif" font-size="9.8" lengthAdjust="spacing" textLength="51.1" x="630" y="735.51">-String type</text><text fill="#000000" font-family="sans-serif" font-size="9.8" lengthAdjust="spacing" textLength="37.1" x="630" y="748.5447">-int area</text><text fill="#000000" font-family="sans-serif" font-size="9.8" lengthAdjust="spacing" textLength="67.9" x="630" y="761.5795">-String address</text><text fill="#000000" font-family="sans-serif" font-size="9.8" lengthAdjust="spacing" textLength="74.2" x="630" y="774.6143">-String gsmEmail</text><line style="stroke:#181818;stroke-width:0.3499999999999999;" x1="626.5" x2="729.4" y1="779.8738" y2="779.8738"/><text fill="#000000" font-family="sans-serif" font-size="9.8" lengthAdjust="spacing" textLength="95.9" x="630" y="793.249">+hasUserEmail(email)</text></g><!--class EmailGenerator--><g id="elem_EmailGenerator"><rect codeLine="136" fill="#F1F1F1" height="46.6348" id="EmailGenerator" rx="1.75" ry="1.75" style="stroke:#181818;stroke-width:0.3499999999999999;" width="209.3" x="1054.9" y="564.55"/><ellipse cx="1121.925" cy="575.75" fill="#B4A7E5" rx="7.7" ry="7.7" style="stroke:#181818;stroke-width:0.6999999999999998;"/><path d="M1122.5922,573.3984 L1122.5922,578.0578 L1123.7953,578.0578 Q1124.2219,578.0578 1124.4078,578.2219 Q1124.5937,578.3859 1124.5937,578.6594 Q1124.5937,578.9219 1124.4078,579.0859 Q1124.2219,579.25 1123.7953,579.25 L1120.1969,579.25 Q1119.7703,579.25 1119.5844,579.0859 Q1119.3984,578.9219 1119.3984,578.6484 Q1119.3984,578.3859 1119.5844,578.2219 Q1119.7703,578.0578 1120.1969,578.0578 L1121.4,578.0578 L1121.4,573.3984 L1120.1969,573.3984 Q1119.7703,573.3984 1119.5844,573.2344 Q1119.3984,573.0703 1119.3984,572.7969 Q1119.3984,572.5344 1119.5844,572.3703 Q1119.7703,572.2062 1120.1969,572.2062 L1123.7953,572.2062 Q1124.2219,572.2062 1124.4078,572.3703 Q1124.5937,572.5344 1124.5937,572.7969 Q1124.5937,573.0703 1124.4078,573.2344 Q1124.2219,573.3984 1123.7953,573.3984 L1122.5922,573.3984 Z " fill="#000000"/><text fill="#000000" font-family="sans-serif" font-size="9.8" font-style="italic" lengthAdjust="spacing" textLength="69.3" x="1136.275" y="579.8078">EmailGenerator</text><line style="stroke:#181818;stroke-width:0.3499999999999999;" x1="1055.6" x2="1263.5" y1="586.95" y2="586.95"/><line style="stroke:#181818;stroke-width:0.3499999999999999;" x1="1055.6" x2="1263.5" y1="592.55" y2="592.55"/><text fill="#000000" font-family="sans-serif" font-size="9.8" lengthAdjust="spacing" textLength="200.9" x="1059.1" y="605.9252">+sendEmail(title, startingDate, selectedTeam)</text></g><!--class EmailThroughGmail--><g id="elem_EmailThroughGmail"><rect codeLine="141" fill="#F1F1F1" height="46.6348" id="EmailThroughGmail" rx="1.75" ry="1.75" style="stroke:#181818;stroke-width:0.3499999999999999;" width="209.3" x="1047.2" y="377.65"/><ellipse cx="1105.475" cy="388.85" fill="#ADD1B2" rx="7.7" ry="7.7" style="stroke:#181818;stroke-width:0.6999999999999998;"/><path d="M1107.4109,385.9625 Q1107.5203,385.8094 1107.6516,385.7328 Q1107.7828,385.6562 1107.9359,385.6562 Q1108.1984,385.6562 1108.3625,385.8422 Q1108.5266,386.0172 1108.5266,386.4437 L1108.5266,387.4609 Q1108.5266,387.8875 1108.3625,388.0734 Q1108.1984,388.2594 1107.9359,388.2594 Q1107.6953,388.2594 1107.5531,388.1172 Q1107.4109,387.9859 1107.3344,387.625 Q1107.3016,387.3734 1107.1703,387.2422 Q1106.9406,386.9797 1106.5141,386.8266 Q1106.0875,386.6734 1105.65,386.6734 Q1105.1141,386.6734 1104.6656,386.9031 Q1104.2281,387.1328 1103.8781,387.6578 Q1103.5391,388.1828 1103.5391,388.9047 L1103.5391,389.6703 Q1103.5391,390.5344 1104.1625,391.1141 Q1104.7859,391.6828 1105.9016,391.6828 Q1106.5578,391.6828 1107.0172,391.5078 Q1107.2906,391.3984 1107.5859,391.0922 Q1107.7719,390.9062 1107.8703,390.8516 Q1107.9797,390.7969 1108.1219,390.7969 Q1108.3516,390.7969 1108.5266,390.9828 Q1108.7125,391.1578 1108.7125,391.3984 Q1108.7125,391.6391 1108.4719,391.9234 Q1108.1219,392.3281 1107.5641,392.5578 Q1106.8094,392.875 1105.9016,392.875 Q1104.8406,392.875 1103.9984,392.4375 Q1103.3094,392.0875 1102.8281,391.3437 Q1102.3469,390.5891 1102.3469,389.6922 L1102.3469,388.8828 Q1102.3469,387.9531 1102.7734,387.1547 Q1103.2109,386.3453 1103.9766,385.9187 Q1104.7422,385.4812 1105.6062,385.4812 Q1106.1203,385.4812 1106.5687,385.6016 Q1107.0281,385.7109 1107.4109,385.9625 Z " fill="#000000"/><text fill="#000000" font-family="sans-serif" font-size="9.8" lengthAdjust="spacing" textLength="86.8" x="1119.825" y="392.9078">EmailThroughGmail</text><line style="stroke:#181818;stroke-width:0.3499999999999999;" x1="1047.9" x2="1255.8" y1="400.05" y2="400.05"/><line style="stroke:#181818;stroke-width:0.3499999999999999;" x1="1047.9" x2="1255.8" y1="405.65" y2="405.65"/><text fill="#000000" font-family="sans-serif" font-size="9.8" lengthAdjust="spacing" textLength="200.9" x="1051.4" y="419.0252">+sendEmail(title, startingDate, selectedTeam)</text></g><!--class EmailThroughDEIService--><g id="elem_EmailThroughDEIService"><rect codeLine="146" fill="#F1F1F1" height="46.6348" id="EmailThroughDEIService" rx="1.75" ry="1.75" style="stroke:#181818;stroke-width:0.3499999999999999;" width="209.3" x="1281" y="377.65"/><ellipse cx="1327.725" cy="388.85" fill="#ADD1B2" rx="7.7" ry="7.7" style="stroke:#181818;stroke-width:0.6999999999999998;"/><path d="M1329.6609,385.9625 Q1329.7703,385.8094 1329.9016,385.7328 Q1330.0328,385.6562 1330.1859,385.6562 Q1330.4484,385.6562 1330.6125,385.8422 Q1330.7766,386.0172 1330.7766,386.4437 L1330.7766,387.4609 Q1330.7766,387.8875 1330.6125,388.0734 Q1330.4484,388.2594 1330.1859,388.2594 Q1329.9453,388.2594 1329.8031,388.1172 Q1329.6609,387.9859 1329.5844,387.625 Q1329.5516,387.3734 1329.4203,387.2422 Q1329.1906,386.9797 1328.7641,386.8266 Q1328.3375,386.6734 1327.9,386.6734 Q1327.3641,386.6734 1326.9156,386.9031 Q1326.4781,387.1328 1326.1281,387.6578 Q1325.7891,388.1828 1325.7891,388.9047 L1325.7891,389.6703 Q1325.7891,390.5344 1326.4125,391.1141 Q1327.0359,391.6828 1328.1516,391.6828 Q1328.8078,391.6828 1329.2672,391.5078 Q1329.5406,391.3984 1329.8359,391.0922 Q1330.0219,390.9062 1330.1203,390.8516 Q1330.2297,390.7969 1330.3719,390.7969 Q1330.6016,390.7969 1330.7766,390.9828 Q1330.9625,391.1578 1330.9625,391.3984 Q1330.9625,391.6391 1330.7219,391.9234 Q1330.3719,392.3281 1329.8141,392.5578 Q1329.0594,392.875 1328.1516,392.875 Q1327.0906,392.875 1326.2484,392.4375 Q1325.5594,392.0875 1325.0781,391.3437 Q1324.5969,390.5891 1324.5969,389.6922 L1324.5969,388.8828 Q1324.5969,387.9531 1325.0234,387.1547 Q1325.4609,386.3453 1326.2266,385.9187 Q1326.9922,385.4812 1327.8562,385.4812 Q1328.3703,385.4812 1328.8187,385.6016 Q1329.2781,385.7109 1329.6609,385.9625 Z " fill="#000000"/><text fill="#000000" font-family="sans-serif" font-size="9.8" lengthAdjust="spacing" textLength="109.9" x="1342.075" y="392.9078">EmailThroughDEIService</text><line style="stroke:#181818;stroke-width:0.3499999999999999;" x1="1281.7" x2="1489.6" y1="400.05" y2="400.05"/><line style="stroke:#181818;stroke-width:0.3499999999999999;" x1="1281.7" x2="1489.6" y1="405.65" y2="405.65"/><text fill="#000000" font-family="sans-serif" font-size="9.8" lengthAdjust="spacing" textLength="200.9" x="1285.2" y="419.0252">+sendEmail(title, startingDate, selectedTeam)</text></g><!--reverse link Task to DegreeOfUrgency--><g id="link_Task_DegreeOfUrgency"><path codeLine="151" d="M922.4987,487.8882 C924.2557,513.7322 925.379,530.32 926.821,551.565 " fill="none" id="Task-backto-DegreeOfUrgency" style="stroke:#181818;stroke-width:0.6999999999999998;"/><ellipse cx="922.1188" cy="482.3011" fill="#FFFFFF" rx="5.6" ry="5.6" style="stroke:#181818;stroke-width:0.6999999999999998;"/><line style="stroke:#181818;stroke-width:0.6999999999999998;" x1="922.4987" x2="921.739" y1="487.8882" y2="476.714"/><line style="stroke:#181818;stroke-width:0.6999999999999998;" x1="916.5317" x2="927.7059" y1="482.6809" y2="481.9213"/></g><!--reverse link Task to GSTaskStatus--><g id="link_Task_GSTaskStatus"><path codeLine="152" d="M868.1071,486.4308 C857.5581,504.8338 852.012,514.493 842.086,531.79 " fill="none" id="Task-backto-GSTaskStatus" style="stroke:#181818;stroke-width:0.6999999999999998;"/><ellipse cx="870.8921" cy="481.5724" fill="#FFFFFF" rx="5.6" ry="5.6" style="stroke:#181818;stroke-width:0.6999999999999998;"/><line style="stroke:#181818;stroke-width:0.6999999999999998;" x1="868.1071" x2="873.677" y1="486.4308" y2="476.714"/><line style="stroke:#181818;stroke-width:0.6999999999999998;" x1="866.0337" x2="875.7505" y1="478.7875" y2="484.3573"/></g><!--link Repositories to Repositories--><g id="link_Repositories_Repositories"><path codeLine="154" d="M790.846,34.937 C804.986,36.267 815.15,40.488 815.15,47.6 C815.15,54.712 809.1675,58.5397 795.0275,59.8697 " fill="none" id="Repositories-to-Repositories" style="stroke:#181818;stroke-width:0.6999999999999998;"/><polygon fill="#181818" points="790.846,60.263,797.3805,62.4607,794.3306,59.9352,796.8561,56.8853,790.846,60.263" style="stroke:#181818;stroke-width:0.6999999999999998;"/><text fill="#000000" font-family="sans-serif" font-size="9.1" lengthAdjust="spacing" textLength="34.3" x="819.35" y="51.4698">instance</text></g><!--link ApplicationSession to ApplicationSession--><g id="link_ApplicationSession_ApplicationSession"><path codeLine="155" d="M583.912,191.261 C597.8,192.248 608.3,197.792 608.3,207.9 C608.3,218.008 601.9894,223.2543 588.1014,224.2413 " fill="none" id="ApplicationSession-to-ApplicationSession" style="stroke:#181818;stroke-width:0.6999999999999998;"/><polygon fill="#181818" points="583.912,224.539,590.3946,226.8854,587.4032,224.2909,589.9977,221.2994,583.912,224.539" style="stroke:#181818;stroke-width:0.6999999999999998;"/><text fill="#000000" font-family="sans-serif" font-size="9.1" lengthAdjust="spacing" textLength="34.3" x="612.5" y="211.7698">instance</text></g><!--link AssignTeamUI to AssignTeamController--><g id="link_AssignTeamUI_AssignTeamController"><path codeLine="157" d="M437.185,47.6 C439.11,47.6 446.698,47.6 457.324,47.6 " fill="none" id="AssignTeamUI-to-AssignTeamController" style="stroke:#181818;stroke-width:0.6999999999999998;stroke-dasharray:7.0,7.0;"/><polygon fill="#181818" points="461.524,47.6,455.224,44.8,458.024,47.6,455.224,50.4,461.524,47.6" style="stroke:#181818;stroke-width:0.6999999999999998;"/></g><!--link AssignTeamController to Repositories--><g id="link_AssignTeamController_Repositories"><path codeLine="159" d="M582.127,47.6 C605.01,47.6 627.025,47.6 650.573,47.6 " fill="none" id="AssignTeamController-to-Repositories" style="stroke:#181818;stroke-width:0.6999999999999998;stroke-dasharray:7.0,7.0;"/><polygon fill="#181818" points="654.773,47.6,648.473,44.8,651.273,47.6,648.473,50.4,654.773,47.6" style="stroke:#181818;stroke-width:0.6999999999999998;"/><text fill="#000000" font-family="sans-serif" font-size="9.1" lengthAdjust="spacing" textLength="46.9" x="595" y="42.7198">repositories</text></g><!--link Repositories to TeamRepository--><g id="link_Repositories_TeamRepository"><path codeLine="161" d="M721.448,90.468 C720.671,115.661 719.8278,143.117 719.0858,167.113 " fill="none" id="Repositories-to-TeamRepository" style="stroke:#181818;stroke-width:0.6999999999999998;"/><polygon fill="#181818" points="718.956,171.311,721.9494,165.1005,719.0642,167.8127,716.3521,164.9275,718.956,171.311" style="stroke:#181818;stroke-width:0.6999999999999998;"/><text fill="#000000" font-family="sans-serif" font-size="9.1" lengthAdjust="spacing" textLength="4.9" x="713.8754" y="163.5348">1</text></g><!--link Repositories to Agenda--><g id="link_Repositories_Agenda"><path codeLine="162" d="M774.2,90.468 C794.787,107.338 815.6675,124.4439 838.1585,142.8749 " fill="none" id="Repositories-to-Agenda" style="stroke:#181818;stroke-width:0.6999999999999998;"/><polygon fill="#181818" points="841.407,145.537,838.3089,139.3781,838.6999,143.3186,834.7594,143.7095,841.407,145.537" style="stroke:#181818;stroke-width:0.6999999999999998;"/><text fill="#000000" font-family="sans-serif" font-size="9.1" lengthAdjust="spacing" textLength="4.9" x="830.073" y="137.798">1</text></g><!--link AssignTeamController to ApplicationSession--><g id="link_AssignTeamController_ApplicationSession"><path codeLine="164" d="M524.265,90.468 C525.847,118.048 527.6307,149.1908 529.0307,173.7258 " fill="none" id="AssignTeamController-to-ApplicationSession" style="stroke:#181818;stroke-width:0.6999999999999998;stroke-dasharray:7.0,7.0;"/><polygon fill="#181818" points="529.27,177.919,531.7066,171.4697,529.0706,174.4247,526.1156,171.7887,529.27,177.919" style="stroke:#181818;stroke-width:0.6999999999999998;"/></g><!--link AssignTeamController to UserSession--><g id="link_AssignTeamController_UserSession"><path codeLine="165" d="M461.398,83.174 C454.034,87.423 449.05,90.3 449.05,90.3 C449.05,90.3 248.85,145.6 248.85,145.6 C248.85,145.6 248.85,270.2 248.85,270.2 C248.85,270.2 261.9258,335.9267 269.3598,373.3067 " fill="none" id="AssignTeamController-to-UserSession" style="stroke:#181818;stroke-width:0.6999999999999998;stroke-dasharray:7.0,7.0;"/><polygon fill="#181818" points="270.179,377.426,271.6964,370.7009,269.4963,373.9932,266.2039,371.7932,270.179,377.426" style="stroke:#181818;stroke-width:0.6999999999999998;"/></g><!--link ApplicationSession to UserSession--><g id="link_ApplicationSession_UserSession"><path codeLine="166" d="M499.786,237.776 C482.776,253.701 465.15,270.2 465.15,270.2 C465.15,270.2 366.2068,337.8571 311.5998,375.2021 " fill="none" id="ApplicationSession-to-UserSession" style="stroke:#181818;stroke-width:0.6999999999999998;"/><polygon fill="#181818" points="308.133,377.573,314.9138,376.3278,311.022,375.5972,311.7526,371.7054,308.133,377.573" style="stroke:#181818;stroke-width:0.6999999999999998;"/><text fill="#000000" font-family="sans-serif" font-size="9.1" lengthAdjust="spacing" textLength="50.4" x="434.35" y="301.7198">userSession</text><text fill="#000000" font-family="sans-serif" font-size="9.1" lengthAdjust="spacing" textLength="4.9" x="309.3229" y="369.7357">1</text></g><!--link AssignTeamController to Agenda--><g id="link_AssignTeamController_Agenda"><path codeLine="167" d="M582.071,70.623 C659.575,99.351 784.35,145.6 784.35,145.6 C784.35,145.6 785.1907,145.9898 792.7507,149.5108 " fill="none" id="AssignTeamController-to-Agenda" style="stroke:#181818;stroke-width:0.6999999999999998;stroke-dasharray:7.0,7.0;"/><polygon fill="#181818" points="796.558,151.284,792.0292,146.086,793.3852,149.8063,789.6649,151.1624,796.558,151.284" style="stroke:#181818;stroke-width:0.6999999999999998;"/><text fill="#000000" font-family="sans-serif" font-size="9.1" lengthAdjust="spacing" textLength="29.4" x="728.35" y="121.8198">agenda</text></g><!--link AssignTeamController to TeamRepository--><g id="link_AssignTeamController_TeamRepository"><path codeLine="168" d="M550.48,90.468 C562.457,108.115 573.65,124.6 573.65,124.6 C573.65,124.6 651.35,145.6 651.35,145.6 C651.35,145.6 661.4568,154.9608 676.0868,168.5128 " fill="none" id="AssignTeamController-to-TeamRepository" style="stroke:#181818;stroke-width:0.6999999999999998;stroke-dasharray:7.0,7.0;"/><polygon fill="#181818" points="679.168,171.367,676.449,165.0316,676.6003,168.9885,672.6434,169.1399,679.168,171.367" style="stroke:#181818;stroke-width:0.6999999999999998;"/><text fill="#000000" font-family="sans-serif" font-size="9.1" lengthAdjust="spacing" textLength="63.7" x="574.35" y="121.8198">teamRepository</text></g><!--link AssignTeamController to TaskMapper--><g id="link_AssignTeamController_TaskMapper"><path codeLine="169" d="M478.198,90.468 C452.116,115.661 422.3625,144.3967 397.5265,168.3927 " fill="none" id="AssignTeamController-to-TaskMapper" style="stroke:#181818;stroke-width:0.6999999999999998;stroke-dasharray:7.0,7.0;"/><polygon fill="#181818" points="394.506,171.311,400.9823,168.9472,397.0231,168.8791,397.0912,164.9198,394.506,171.311" style="stroke:#181818;stroke-width:0.6999999999999998;"/></g><!--link AssignTeamController to TeamMapper--><g id="link_AssignTeamController_TeamMapper"><path codeLine="170" d="M461.398,83.174 C454.034,87.423 449.05,90.3 449.05,90.3 C449.05,90.3 206.15,111.3 206.15,111.3 C206.15,111.3 178.4854,141.148 153.2084,168.413 " fill="none" id="AssignTeamController-to-TeamMapper" style="stroke:#181818;stroke-width:0.6999999999999998;stroke-dasharray:7.0,7.0;"/><polygon fill="#181818" points="150.353,171.493,156.6895,168.7766,152.7325,168.9263,152.5828,164.9694,150.353,171.493" style="stroke:#181818;stroke-width:0.6999999999999998;"/></g><!--link Agenda to Task--><g id="link_Agenda_Task"><path codeLine="172" d="M916.65,270.34 C916.65,287.861 916.65,302.939 916.65,321.153 " fill="none" id="Agenda-to-Task" style="stroke:#181818;stroke-width:0.6999999999999998;"/><polygon fill="#181818" points="916.65,325.353,919.45,319.053,916.65,321.853,913.85,319.053,916.65,325.353" style="stroke:#181818;stroke-width:0.6999999999999998;"/><text fill="#000000" font-family="sans-serif" font-size="9.1" lengthAdjust="spacing" textLength="4.9" x="911.5471" y="285.8217">1</text><text fill="#000000" font-family="sans-serif" font-size="9.1" lengthAdjust="spacing" textLength="3.5" x="913.027" y="317.5458">*</text></g><!--link TeamRepository to Team--><g id="link_TeamRepository_Team"><path codeLine="173" d="M712.929,244.566 C702.387,321.65 678.4353,496.7518 669.7413,560.2978 " fill="none" id="TeamRepository-to-Team" style="stroke:#181818;stroke-width:0.6999999999999998;"/><polygon fill="#181818" points="669.172,564.459,672.8001,558.5967,669.6464,560.9913,667.2518,557.8376,669.172,564.459" style="stroke:#181818;stroke-width:0.6999999999999998;"/><text fill="#000000" font-family="sans-serif" font-size="9.1" lengthAdjust="spacing" textLength="4.9" x="707.1307" y="259.5979">1</text><text fill="#000000" font-family="sans-serif" font-size="9.1" lengthAdjust="spacing" textLength="3.5" x="665.9421" y="556.6189">*</text></g><!--link TaskMapper to TaskDto--><g id="link_TaskMapper_TaskDto"><path codeLine="175" d="M355.558,244.566 C352.24,310.94 345.3585,448.8872 341.4245,527.6652 " fill="none" id="TaskMapper-to-TaskDto" style="stroke:#181818;stroke-width:0.6999999999999998;stroke-dasharray:7.0,7.0;"/><polygon fill="#181818" points="341.215,531.86,344.3257,525.7075,341.3896,528.3644,338.7327,525.4282,341.215,531.86" style="stroke:#181818;stroke-width:0.6999999999999998;"/></g><!--link TaskMapper to Task--><g id="link_TaskMapper_Task"><path codeLine="176" d="M420.462,244.433 C444.332,257.985 465.85,270.2 465.85,270.2 C465.85,270.2 705.9049,339.5316 834.8659,376.7786 " fill="none" id="TaskMapper-to-Task" style="stroke:#181818;stroke-width:0.6999999999999998;stroke-dasharray:7.0,7.0;"/><polygon fill="#181818" points="838.901,377.944,833.6253,373.5058,835.5384,376.9728,832.0714,378.8859,838.901,377.944" style="stroke:#181818;stroke-width:0.6999999999999998;"/></g><!--link Task to GreenSpace--><g id="link_Task_GreenSpace"><path codeLine="178" d="M960.19,476.784 C976.997,505.729 992.25,532 992.25,532 C992.25,532 992.25,644 992.25,644 C992.25,644 823.5837,696.594 734.2147,724.454 " fill="none" id="Task-to-GreenSpace" style="stroke:#181818;stroke-width:0.6999999999999998;"/><polygon fill="#181818" points="730.205,725.704,737.0528,726.5021,733.5464,724.6623,735.3862,721.1559,730.205,725.704" style="stroke:#181818;stroke-width:0.6999999999999998;"/><text fill="#000000" font-family="sans-serif" font-size="9.1" lengthAdjust="spacing" textLength="3.5" x="959.3672" y="491.8492">*</text><text fill="#000000" font-family="sans-serif" font-size="9.1" lengthAdjust="spacing" textLength="4.9" x="735.8465" y="721.2779">1</text></g><!--link TaskDto to GreenSpace--><g id="link_TaskDto_GreenSpace"><path codeLine="179" d="M461.02,644.042 C517.615,669.599 577.9911,696.8648 621.7761,716.6328 " fill="none" id="TaskDto-to-GreenSpace" style="stroke:#181818;stroke-width:0.6999999999999998;"/><polygon fill="#181818" points="625.604,718.361,621.0142,713.2167,622.414,716.9208,618.7099,718.3206,625.604,718.361" style="stroke:#181818;stroke-width:0.6999999999999998;"/><text fill="#000000" font-family="sans-serif" font-size="9.1" lengthAdjust="spacing" textLength="3.5" x="467.903" y="659.2062">*</text><text fill="#000000" font-family="sans-serif" font-size="9.1" lengthAdjust="spacing" textLength="4.9" x="615.31" y="713.3187">1</text></g><!--link TeamMapper to TeamDto--><g id="link_TeamMapper_TeamDto"><path codeLine="181" d="M110.579,244.454 C103.754,281.099 94.057,333.1938 87.736,367.1788 " fill="none" id="TeamMapper-to-TeamDto" style="stroke:#181818;stroke-width:0.6999999999999998;stroke-dasharray:7.0,7.0;"/><polygon fill="#181818" points="86.968,371.308,90.8728,365.6262,87.608,367.867,85.3672,364.6022,86.968,371.308" style="stroke:#181818;stroke-width:0.6999999999999998;"/></g><!--link TeamMapper to Team--><g id="link_TeamMapper_Team"><path codeLine="182" d="M133.504,244.307 C149.149,278.684 170.45,325.5 170.45,325.5 C170.45,325.5 222.95,476.7 222.95,476.7 C222.95,476.7 577.15,532 577.15,532 C577.15,532 601.3247,547.0365 625.8107,562.2685 " fill="none" id="TeamMapper-to-Team" style="stroke:#181818;stroke-width:0.6999999999999998;stroke-dasharray:7.0,7.0;"/><polygon fill="#181818" points="629.377,564.487,625.5066,558.7818,626.4051,562.6383,622.5486,563.5368,629.377,564.487" style="stroke:#181818;stroke-width:0.6999999999999998;"/></g><!--link Task to Team--><g id="link_Task_Team"><path codeLine="184" d="M838.733,459.48 C790.888,494.893 735.6111,535.8156 700.4431,561.8416 " fill="none" id="Task-to-Team" style="stroke:#181818;stroke-width:0.6999999999999998;"/><polygon fill="#181818" points="697.067,564.34,703.7967,562.843,699.8804,562.258,700.4655,558.3416,697.067,564.34" style="stroke:#181818;stroke-width:0.6999999999999998;"/><text fill="#000000" font-family="sans-serif" font-size="9.1" lengthAdjust="spacing" textLength="3.5" x="829.8804" y="460.939">*</text><text fill="#000000" font-family="sans-serif" font-size="9.1" lengthAdjust="spacing" textLength="4.9" x="697.6126" y="556.6601">1</text></g><!--link Task to EmailGenerator--><g id="link_Task_EmailGenerator"><path codeLine="186" d="M994.504,461.258 C1040.438,496.335 1092.6242,536.1847 1126.1402,561.7837 " fill="none" id="Task-to-EmailGenerator" style="stroke:#181818;stroke-width:0.6999999999999998;"/><polygon fill="#181818" points="1129.478,564.333,1126.1709,558.2838,1126.6965,562.2085,1122.7718,562.7342,1129.478,564.333" style="stroke:#181818;stroke-width:0.6999999999999998;"/><text fill="#000000" font-family="sans-serif" font-size="9.1" lengthAdjust="spacing" textLength="54.6" x="1053.85" y="508.2198">makes use of</text><text fill="#000000" font-family="sans-serif" font-size="9.1" lengthAdjust="spacing" textLength="3.5" x="999.8524" y="462.8364">*</text><text fill="#000000" font-family="sans-serif" font-size="9.1" lengthAdjust="spacing" textLength="4.9" x="1118.3785" y="556.6518">1</text></g><!--link EmailThroughGmail to EmailGenerator--><g id="link_EmailThroughGmail_EmailGenerator"><path codeLine="188" d="M1152.802,424.732 C1154.286,460.404 1156.5992,516.1908 1158.0762,551.8278 " fill="none" id="EmailThroughGmail-to-EmailGenerator" style="stroke:#181818;stroke-width:0.6999999999999998;stroke-dasharray:7.0,7.0;"/><polygon fill="none" points="1158.598,564.417,1162.2726,551.6539,1153.8798,552.0017,1158.598,564.417" style="stroke:#181818;stroke-width:0.6999999999999998;"/></g><!--link EmailThroughDEIService to EmailGenerator--><g id="link_EmailThroughDEIService_EmailGenerator"><path codeLine="189" d="M1357.699,424.732 C1314.222,460.404 1240.6216,520.7886 1197.1796,556.4256 " fill="none" id="EmailThroughDEIService-to-EmailGenerator" style="stroke:#181818;stroke-width:0.6999999999999998;stroke-dasharray:7.0,7.0;"/><polygon fill="none" points="1187.438,564.417,1199.8434,559.6728,1194.5158,553.1785,1187.438,564.417" style="stroke:#181818;stroke-width:0.6999999999999998;"/></g><!--SRC=[hLRRRjim37tNLmXzQResnVOw306AfCWAjEWmfn-Ws8oZnPOCITwMNVvzb2pRic9tNR6ynEBby50YAPth0nSLKwoafHGotIjP0ZMg1j9hAfOUM0w9EHP05QI6YRm83VIUPV8R5pdTiKA7ce8BCCSAQ2MBersGyn6bL4QIm2ijcDOtnYY-hGtSfL8a_0VGjuIS5x0pr4YgUButDEEM3fU24ET3RxJckTW0Av_ko4z2Vfygbb8O9Oi251fG_5sEAcSNNfc3kSb1PEmMLHnqg4YWmFYGRPW-p7YhO1sSbVKKgghWARDq4q0JPDqIq0R5gKMy4_WjKWYZB6kbG1ZlD0iWFqCbDJVIyl9Wyu4mXEcXwVkXPvHew6Ipw6oFOUmd3IhE0nsi-BPal0Xj6zoEuJtNveFTimM5PbEjv5IvKm23lHytCyWnIVUGrLYL4uS6bj9VJmv1qiCcW9lfrWw5LrG7NYEd7Qe3OrG5Us6L3wogkleBSbaPEP4rQdmy8rURnzceqON7QqpazaiKreAqCHFqmeOrtFXDwqGPw5JnohLLfCWnwkFkIM7WzEYLN1WAtokNwgfMBF1Rii8oLBQ-bK685JFj2Na-CqVWAWnw5GUwEi7lDtUDXYB12OKOOPGeyrUb_ShCzaoxQhZertrJ3Efm2uKKkTx8OVMuUkbySIJjS6wOsKkBhoqt47L9Lz6PDVjmBx-v_mV8U5swpuyuK3klTMA393YLwdQkVC9yCS_cMyaKEn-oPbKm8TflgKqbszNIZfl2BrOe3WvbC5UYJa1TqzLzmtV3Q7p-nhFM2aQR3EMkoJhqkB4wnRFDrC0CiPTuRx2jn3gHQa7JODLEMEys6-WYs9TZTcvz3yHbBbWPLRczRuFoPWhOq81bcSAp7GfpNRhoVQQYaGq2WjeX3UeqQn3WgFRN7DPGu-IxFkoUoO7fF3RuCgdp_Tgn-7zugzkx1DHNtctTluFQJg6Ny_b9gtMAGJUHyEQbyyNW9iQBcVjRcfm-5wprY3Jm8U7xXrulnfyzP4nghICgAdmZHBoHojcxixYDHstyvJyHzNeifsdRyDKnjaC-Pc26YTIXqoGBHnEjMSDtqd2OCpgOuIPCE_Ot_xFWtePuHZOVbzURi-OkYmWq-jR0ZX3IHq9G7zdEgu6y4Vi2jhxjvWNpn3jEgKbFjsFlufoAH-9CY8V30_UtP0Si9pn4AdU4d8m33F5h4O-SyIOVDVq3]--></g></svg>