<?xml version="1.0" encoding="us-ascii" standalone="no"?><svg xmlns="http://www.w3.org/2000/svg" xmlns:xlink="http://www.w3.org/1999/xlink" contentStyleType="text/css" height="831.6px" preserveAspectRatio="none" style="width:1839px;height:831px;background:#FFFFFF;" version="1.1" viewBox="0 0 1839 831" width="1839px" zoomAndPan="magnify"><defs/><g><!--cluster UI--><g id="cluster_UI"><rect fill="none" height="60.6" rx="1.5" ry="1.5" style="stroke:#000000;stroke-width:0.8999999999999999;" width="92.4" x="1435.8" y="80.4"/><text fill="#000000" font-family="sans-serif" font-size="8.4" font-weight="bold" lengthAdjust="spacing" textLength="8.4" x="1477.8" y="90.6645">UI</text></g><!--cluster Core--><g id="cluster_Core"><rect fill="none" height="824.1" rx="1.5" ry="1.5" style="stroke:#000000;stroke-width:0.8999999999999999;" width="1417.2" x="4.2" y="4.2"/><text fill="#000000" font-family="sans-serif" font-size="8.4" font-weight="bold" lengthAdjust="spacing" textLength="20.4" x="702.6" y="14.4645">Core</text></g><!--cluster Controller--><g id="cluster_Controller"><rect fill="none" height="116.4" rx="1.5" ry="1.5" style="stroke:#000000;stroke-width:0.8999999999999999;" width="122.4" x="813" y="52.5"/><text fill="#000000" font-family="sans-serif" font-size="8.4" font-weight="bold" lengthAdjust="spacing" textLength="42.6" x="852.9" y="62.7645">Controller</text></g><!--cluster Domain--><g id="cluster_Domain"><rect fill="none" height="645.9" rx="1.5" ry="1.5" style="stroke:#000000;stroke-width:0.8999999999999999;" width="771" x="18.6" y="31.2"/><text fill="#000000" font-family="sans-serif" font-size="8.4" font-weight="bold" lengthAdjust="spacing" textLength="31.2" x="388.5" y="41.4645">Domain</text></g><!--cluster Repository--><g id="cluster_Repository"><rect fill="none" height="266.1" rx="1.5" ry="1.5" style="stroke:#000000;stroke-width:0.8999999999999999;" width="339.6" x="433.2" y="58.2"/><text fill="#000000" font-family="sans-serif" font-size="8.4" font-weight="bold" lengthAdjust="spacing" textLength="45.6" x="580.2" y="68.4645">Repository</text></g><!--cluster Model--><g id="cluster_Model"><rect fill="none" height="318.6" rx="1.5" ry="1.5" style="stroke:#000000;stroke-width:0.8999999999999999;" width="742.2" x="33" y="344.1"/><text fill="#000000" font-family="sans-serif" font-size="8.4" font-weight="bold" lengthAdjust="spacing" textLength="26.4" x="390.9" y="354.3645">Model</text></g><!--cluster Mapper--><g id="cluster_Mapper"><rect fill="none" height="606" rx="1.5" ry="1.5" style="stroke:#000000;stroke-width:0.8999999999999999;" width="597" x="804" y="207.9"/><text fill="#000000" font-family="sans-serif" font-size="8.4" font-weight="bold" lengthAdjust="spacing" textLength="32.4" x="1086.3" y="218.1645">Mapper</text></g><!--cluster DTO--><g id="cluster_DTO"><rect fill="none" height="264.6" rx="1.5" ry="1.5" style="stroke:#000000;stroke-width:0.8999999999999999;" width="560.4" x="818.4" y="534.9"/><text fill="#000000" font-family="sans-serif" font-size="8.4" font-weight="bold" lengthAdjust="spacing" textLength="17.4" x="1089.9" y="545.1645">DTO</text></g><!--cluster ExternalModules--><g id="cluster_ExternalModules"><rect fill="none" height="72" rx="1.5" ry="1.5" style="stroke:#000000;stroke-width:0.8999999999999999;" width="399.6" x="1435.8" y="388.8"/><text fill="#000000" font-family="sans-serif" font-size="8.4" font-weight="bold" lengthAdjust="spacing" textLength="71.4" x="1599.9" y="399.0645">ExternalModules</text></g><!--class AssignTeamUI--><g id="elem_AssignTeamUI"><rect codeLine="12" fill="#F1F1F1" height="28.8" id="AssignTeamUI" rx="1.5" ry="1.5" style="stroke:#181818;stroke-width:0.3;" width="73.2" x="1445.4" y="102.6"/><ellipse cx="1454.4" cy="112.2" fill="#ADD1B2" rx="6.6" ry="6.6" style="stroke:#181818;stroke-width:0.6;"/><path d="M1456.0594,109.725 Q1456.1531,109.5938 1456.2656,109.5281 Q1456.3781,109.4625 1456.5094,109.4625 Q1456.7344,109.4625 1456.875,109.6219 Q1457.0156,109.7719 1457.0156,110.1375 L1457.0156,111.0094 Q1457.0156,111.375 1456.875,111.5344 Q1456.7344,111.6938 1456.5094,111.6938 Q1456.3031,111.6938 1456.1812,111.5719 Q1456.0594,111.4594 1455.9937,111.15 Q1455.9656,110.9344 1455.8531,110.8219 Q1455.6563,110.5969 1455.2906,110.4656 Q1454.925,110.3344 1454.55,110.3344 Q1454.0906,110.3344 1453.7063,110.5313 Q1453.3313,110.7281 1453.0313,111.1781 Q1452.7406,111.6281 1452.7406,112.2469 L1452.7406,112.9031 Q1452.7406,113.6438 1453.275,114.1406 Q1453.8094,114.6281 1454.7656,114.6281 Q1455.3281,114.6281 1455.7219,114.4781 Q1455.9563,114.3844 1456.2094,114.1219 Q1456.3687,113.9625 1456.4531,113.9156 Q1456.5469,113.8687 1456.6688,113.8687 Q1456.8656,113.8687 1457.0156,114.0281 Q1457.175,114.1781 1457.175,114.3844 Q1457.175,114.5906 1456.9688,114.8344 Q1456.6688,115.1812 1456.1906,115.3781 Q1455.5438,115.65 1454.7656,115.65 Q1453.8563,115.65 1453.1344,115.275 Q1452.5438,114.975 1452.1313,114.3375 Q1451.7188,113.6906 1451.7188,112.9219 L1451.7188,112.2281 Q1451.7188,111.4312 1452.0844,110.7469 Q1452.4594,110.0531 1453.1156,109.6875 Q1453.7719,109.3125 1454.5125,109.3125 Q1454.9531,109.3125 1455.3375,109.4156 Q1455.7313,109.5094 1456.0594,109.725 Z " fill="#000000"/><text fill="#000000" font-family="sans-serif" font-size="8.4" lengthAdjust="spacing" textLength="54" x="1462.8" y="115.6781">AssignTeamUI</text><line style="stroke:#181818;stroke-width:0.3;" x1="1446" x2="1518" y1="121.8" y2="121.8"/><line style="stroke:#181818;stroke-width:0.3;" x1="1446" x2="1518" y1="126.6" y2="126.6"/></g><!--class AssignTeamController--><g id="elem_AssignTeamController"><rect codeLine="19" fill="#F1F1F1" height="84.6633" id="AssignTeamController" rx="1.5" ry="1.5" style="stroke:#181818;stroke-width:0.3;" width="103.2" x="822.6" y="74.7"/><ellipse cx="831.6" cy="84.3" fill="#ADD1B2" rx="6.6" ry="6.6" style="stroke:#181818;stroke-width:0.6;"/><path d="M833.2594,81.825 Q833.3531,81.6938 833.4656,81.6281 Q833.5781,81.5625 833.7094,81.5625 Q833.9344,81.5625 834.075,81.7219 Q834.2156,81.8719 834.2156,82.2375 L834.2156,83.1094 Q834.2156,83.475 834.075,83.6344 Q833.9344,83.7938 833.7094,83.7938 Q833.5031,83.7938 833.3813,83.6719 Q833.2594,83.5594 833.1938,83.25 Q833.1656,83.0344 833.0531,82.9219 Q832.8562,82.6969 832.4906,82.5656 Q832.125,82.4344 831.75,82.4344 Q831.2906,82.4344 830.9063,82.6313 Q830.5313,82.8281 830.2312,83.2781 Q829.9406,83.7281 829.9406,84.3469 L829.9406,85.0031 Q829.9406,85.7437 830.475,86.2406 Q831.0094,86.7281 831.9656,86.7281 Q832.5281,86.7281 832.9219,86.5781 Q833.1563,86.4844 833.4094,86.2219 Q833.5688,86.0625 833.6531,86.0156 Q833.7469,85.9688 833.8688,85.9688 Q834.0656,85.9688 834.2156,86.1281 Q834.375,86.2781 834.375,86.4844 Q834.375,86.6906 834.1687,86.9344 Q833.8688,87.2813 833.3906,87.4781 Q832.7438,87.75 831.9656,87.75 Q831.0563,87.75 830.3344,87.375 Q829.7438,87.075 829.3313,86.4375 Q828.9187,85.7906 828.9187,85.0219 L828.9187,84.3281 Q828.9187,83.5313 829.2844,82.8469 Q829.6594,82.1531 830.3156,81.7875 Q830.9719,81.4125 831.7125,81.4125 Q832.1531,81.4125 832.5375,81.5156 Q832.9313,81.6094 833.2594,81.825 Z " fill="#000000"/><text fill="#000000" font-family="sans-serif" font-size="8.4" lengthAdjust="spacing" textLength="84" x="840" y="87.7781">AssignTeamController</text><line style="stroke:#181818;stroke-width:0.3;" x1="823.2" x2="925.2" y1="93.9" y2="93.9"/><line style="stroke:#181818;stroke-width:0.3;" x1="823.2" x2="925.2" y1="98.7" y2="98.7"/><text fill="#000000" font-family="sans-serif" font-size="8.4" lengthAdjust="spacing" textLength="94.8" x="826.2" y="110.1645">+AssignTeamController()</text><text fill="#000000" font-family="sans-serif" font-size="8.4" lengthAdjust="spacing" textLength="78.6" x="826.2" y="121.3371">+getAgendaEntries()</text><text fill="#000000" font-family="sans-serif" font-size="8.4" lengthAdjust="spacing" textLength="48.6" x="826.2" y="132.5098">+getTeams()</text><text fill="#000000" font-family="sans-serif" font-size="8.4" lengthAdjust="spacing" textLength="76.2" x="826.2" y="143.6824">+getSelectedTask(i)</text><text fill="#000000" font-family="sans-serif" font-size="8.4" lengthAdjust="spacing" textLength="58.8" x="826.2" y="154.8551">+assignTeam(i)</text></g><!--class Repositories--><g id="elem_Repositories"><rect codeLine="31" fill="#F1F1F1" height="73.4906" id="Repositories" rx="1.5" ry="1.5" style="stroke:#181818;stroke-width:0.3;" width="116.4" x="596.4" y="80.4"/><ellipse cx="628.35" cy="90" fill="#ADD1B2" rx="6.6" ry="6.6" style="stroke:#181818;stroke-width:0.6;"/><path d="M630.0094,87.525 Q630.1031,87.3938 630.2156,87.3281 Q630.3281,87.2625 630.4594,87.2625 Q630.6844,87.2625 630.825,87.4219 Q630.9656,87.5719 630.9656,87.9375 L630.9656,88.8094 Q630.9656,89.175 630.825,89.3344 Q630.6844,89.4937 630.4594,89.4937 Q630.2531,89.4937 630.1313,89.3719 Q630.0094,89.2594 629.9438,88.95 Q629.9156,88.7344 629.8031,88.6219 Q629.6062,88.3969 629.2406,88.2656 Q628.875,88.1344 628.5,88.1344 Q628.0406,88.1344 627.6563,88.3313 Q627.2813,88.5281 626.9812,88.9781 Q626.6906,89.4281 626.6906,90.0469 L626.6906,90.7031 Q626.6906,91.4438 627.225,91.9406 Q627.7594,92.4281 628.7156,92.4281 Q629.2781,92.4281 629.6719,92.2781 Q629.9063,92.1844 630.1594,91.9219 Q630.3188,91.7625 630.4031,91.7156 Q630.4969,91.6688 630.6188,91.6688 Q630.8156,91.6688 630.9656,91.8281 Q631.125,91.9781 631.125,92.1844 Q631.125,92.3906 630.9187,92.6344 Q630.6188,92.9813 630.1406,93.1781 Q629.4938,93.45 628.7156,93.45 Q627.8063,93.45 627.0844,93.075 Q626.4938,92.775 626.0813,92.1375 Q625.6687,91.4906 625.6687,90.7219 L625.6687,90.0281 Q625.6687,89.2313 626.0344,88.5469 Q626.4094,87.8531 627.0656,87.4875 Q627.7219,87.1125 628.4625,87.1125 Q628.9031,87.1125 629.2875,87.2156 Q629.6813,87.3094 630.0094,87.525 Z " fill="#000000"/><text fill="#000000" font-family="sans-serif" font-size="8.4" lengthAdjust="spacing" textLength="47.4" x="640.65" y="93.4781">Repositories</text><line style="stroke:#181818;stroke-width:0.3;" x1="597" x2="712.2" y1="99.6" y2="99.6"/><line style="stroke:#181818;stroke-width:0.3;" x1="597" x2="712.2" y1="104.4" y2="104.4"/><text fill="#000000" font-family="sans-serif" font-size="8.4" lengthAdjust="spacing" textLength="56.4" x="600" y="115.8645">-Repositories()</text><text fill="#000000" font-family="sans-serif" font-size="8.4" lengthAdjust="spacing" textLength="109.2" x="600" y="127.0371">+getInstance() : Repositories</text><text fill="#000000" font-family="sans-serif" font-size="8.4" lengthAdjust="spacing" textLength="52.2" x="600" y="138.2098">+getAgenda()</text><text fill="#000000" font-family="sans-serif" font-size="8.4" lengthAdjust="spacing" textLength="85.2" x="600" y="149.3824">+getTeamRepository()</text></g><!--class Agenda--><g id="elem_Agenda"><rect codeLine="39" fill="#F1F1F1" height="107.0086" id="Agenda" rx="1.5" ry="1.5" style="stroke:#181818;stroke-width:0.3;" width="205.8" x="557.1" y="207.9"/><ellipse cx="642.75" cy="217.5" fill="#ADD1B2" rx="6.6" ry="6.6" style="stroke:#181818;stroke-width:0.6;"/><path d="M644.4094,215.025 Q644.5031,214.8937 644.6156,214.8281 Q644.7281,214.7625 644.8594,214.7625 Q645.0844,214.7625 645.225,214.9219 Q645.3656,215.0719 645.3656,215.4375 L645.3656,216.3094 Q645.3656,216.675 645.225,216.8344 Q645.0844,216.9938 644.8594,216.9938 Q644.6531,216.9938 644.5313,216.8719 Q644.4094,216.7594 644.3438,216.45 Q644.3156,216.2344 644.2031,216.1219 Q644.0063,215.8969 643.6406,215.7656 Q643.275,215.6344 642.9,215.6344 Q642.4406,215.6344 642.0563,215.8312 Q641.6813,216.0281 641.3813,216.4781 Q641.0906,216.9281 641.0906,217.5469 L641.0906,218.2031 Q641.0906,218.9438 641.625,219.4406 Q642.1594,219.9281 643.1156,219.9281 Q643.6781,219.9281 644.0719,219.7781 Q644.3063,219.6844 644.5594,219.4219 Q644.7188,219.2625 644.8031,219.2156 Q644.8969,219.1688 645.0188,219.1688 Q645.2156,219.1688 645.3656,219.3281 Q645.525,219.4781 645.525,219.6844 Q645.525,219.8906 645.3188,220.1344 Q645.0188,220.4813 644.5406,220.6781 Q643.8938,220.95 643.1156,220.95 Q642.2063,220.95 641.4844,220.575 Q640.8938,220.275 640.4812,219.6375 Q640.0688,218.9906 640.0688,218.2219 L640.0688,217.5281 Q640.0688,216.7313 640.4344,216.0469 Q640.8094,215.3531 641.4656,214.9875 Q642.1219,214.6125 642.8625,214.6125 Q643.3031,214.6125 643.6875,214.7156 Q644.0813,214.8094 644.4094,215.025 Z " fill="#000000"/><text fill="#000000" font-family="sans-serif" font-size="8.4" lengthAdjust="spacing" textLength="29.4" x="655.05" y="220.9781">Agenda</text><line style="stroke:#181818;stroke-width:0.3;" x1="557.7" x2="762.3" y1="227.1" y2="227.1"/><text fill="#000000" font-family="sans-serif" font-size="8.4" lengthAdjust="spacing" textLength="85.8" x="560.7" y="238.5645">-List&lt;Task&gt; entriesList</text><text fill="#000000" font-family="sans-serif" font-size="8.4" lengthAdjust="spacing" textLength="130.8" x="560.7" y="249.7371">-List&lt;Task&gt; freeAgendaEntriesList</text><text fill="#000000" font-family="sans-serif" font-size="8.4" lengthAdjust="spacing" textLength="100.8" x="560.7" y="260.9098">-List&lt;Task&gt; teamSchedule</text><line style="stroke:#181818;stroke-width:0.3;" x1="557.7" x2="762.3" y1="265.418" y2="265.418"/><text fill="#000000" font-family="sans-serif" font-size="8.4" lengthAdjust="spacing" textLength="98.4" x="560.7" y="276.8824">+getAgendaEntries(email)</text><text fill="#000000" font-family="sans-serif" font-size="8.4" lengthAdjust="spacing" textLength="76.2" x="560.7" y="288.0551">+getSelectedTask(i)</text><text fill="#000000" font-family="sans-serif" font-size="8.4" lengthAdjust="spacing" textLength="198.6" x="560.7" y="299.2277">+checkTeamSchedule(selectedTeam, selectedTask)</text><text fill="#000000" font-family="sans-serif" font-size="8.4" lengthAdjust="spacing" textLength="165.6" x="560.7" y="310.4004">+assignTeam(selectedTask, selectedTeam)</text></g><!--class TeamRepository--><g id="elem_TeamRepository"><rect codeLine="50" fill="#F1F1F1" height="62.318" id="TeamRepository" rx="1.5" ry="1.5" style="stroke:#181818;stroke-width:0.3;" width="93" x="443.1" y="230.1"/><ellipse cx="457.23" cy="239.7" fill="#ADD1B2" rx="6.6" ry="6.6" style="stroke:#181818;stroke-width:0.6;"/><path d="M458.8894,237.225 Q458.9831,237.0938 459.0956,237.0281 Q459.2081,236.9625 459.3394,236.9625 Q459.5644,236.9625 459.705,237.1219 Q459.8456,237.2719 459.8456,237.6375 L459.8456,238.5094 Q459.8456,238.875 459.705,239.0344 Q459.5644,239.1938 459.3394,239.1938 Q459.1331,239.1938 459.0112,239.0719 Q458.8894,238.9594 458.8237,238.65 Q458.7956,238.4344 458.6831,238.3219 Q458.4863,238.0969 458.1206,237.9656 Q457.755,237.8344 457.38,237.8344 Q456.9206,237.8344 456.5362,238.0313 Q456.1612,238.2281 455.8613,238.6781 Q455.5706,239.1281 455.5706,239.7469 L455.5706,240.4031 Q455.5706,241.1437 456.105,241.6406 Q456.6394,242.1281 457.5956,242.1281 Q458.1581,242.1281 458.5519,241.9781 Q458.7862,241.8844 459.0394,241.6219 Q459.1987,241.4625 459.2831,241.4156 Q459.3769,241.3687 459.4988,241.3687 Q459.6956,241.3687 459.8456,241.5281 Q460.005,241.6781 460.005,241.8844 Q460.005,242.0906 459.7988,242.3344 Q459.4988,242.6812 459.0206,242.8781 Q458.3738,243.15 457.5956,243.15 Q456.6863,243.15 455.9644,242.775 Q455.3738,242.475 454.9612,241.8375 Q454.5488,241.1906 454.5488,240.4219 L454.5488,239.7281 Q454.5488,238.9312 454.9144,238.2469 Q455.2894,237.5531 455.9456,237.1875 Q456.6019,236.8125 457.3425,236.8125 Q457.7831,236.8125 458.1675,236.9156 Q458.5613,237.0094 458.8894,237.225 Z " fill="#000000"/><text fill="#000000" font-family="sans-serif" font-size="8.4" lengthAdjust="spacing" textLength="62.4" x="466.77" y="243.1781">TeamRepository</text><line style="stroke:#181818;stroke-width:0.3;" x1="443.7" x2="535.5" y1="249.3" y2="249.3"/><text fill="#000000" font-family="sans-serif" font-size="8.4" lengthAdjust="spacing" textLength="85.8" x="446.7" y="260.7645">-List&lt;Team&gt; teamsList</text><line style="stroke:#181818;stroke-width:0.3;" x1="443.7" x2="535.5" y1="265.2727" y2="265.2727"/><text fill="#000000" font-family="sans-serif" font-size="8.4" lengthAdjust="spacing" textLength="48.6" x="446.7" y="276.7371">+getTeams()</text><text fill="#000000" font-family="sans-serif" font-size="8.4" lengthAdjust="spacing" textLength="79.2" x="446.7" y="287.9098">+getSelectedTeam(i)</text></g><!--class ApplicationSession--><g id="elem_ApplicationSession"><rect codeLine="59" fill="#F1F1F1" height="51.1453" id="ApplicationSession" rx="1.5" ry="1.5" style="stroke:#181818;stroke-width:0.3;" width="90.6" x="591.9" y="405.6"/><ellipse cx="600.9" cy="415.2" fill="#ADD1B2" rx="6.6" ry="6.6" style="stroke:#181818;stroke-width:0.6;"/><path d="M602.5594,412.725 Q602.6531,412.5938 602.7656,412.5281 Q602.8781,412.4625 603.0094,412.4625 Q603.2344,412.4625 603.375,412.6219 Q603.5156,412.7719 603.5156,413.1375 L603.5156,414.0094 Q603.5156,414.375 603.375,414.5344 Q603.2344,414.6937 603.0094,414.6937 Q602.8031,414.6937 602.6813,414.5719 Q602.5594,414.4594 602.4938,414.15 Q602.4656,413.9344 602.3531,413.8219 Q602.1563,413.5969 601.7906,413.4656 Q601.425,413.3344 601.05,413.3344 Q600.5906,413.3344 600.2063,413.5313 Q599.8313,413.7281 599.5313,414.1781 Q599.2406,414.6281 599.2406,415.2469 L599.2406,415.9031 Q599.2406,416.6438 599.775,417.1406 Q600.3094,417.6281 601.2656,417.6281 Q601.8281,417.6281 602.2219,417.4781 Q602.4563,417.3844 602.7094,417.1219 Q602.8688,416.9625 602.9531,416.9156 Q603.0469,416.8688 603.1687,416.8688 Q603.3656,416.8688 603.5156,417.0281 Q603.675,417.1781 603.675,417.3844 Q603.675,417.5906 603.4688,417.8344 Q603.1687,418.1813 602.6906,418.3781 Q602.0437,418.65 601.2656,418.65 Q600.3562,418.65 599.6344,418.275 Q599.0437,417.975 598.6313,417.3375 Q598.2188,416.6906 598.2188,415.9219 L598.2188,415.2281 Q598.2188,414.4313 598.5844,413.7469 Q598.9594,413.0531 599.6156,412.6875 Q600.2719,412.3125 601.0125,412.3125 Q601.4531,412.3125 601.8375,412.4156 Q602.2312,412.5094 602.5594,412.725 Z " fill="#000000"/><text fill="#000000" font-family="sans-serif" font-size="8.4" lengthAdjust="spacing" textLength="71.4" x="609.3" y="418.6781">ApplicationSession</text><line style="stroke:#181818;stroke-width:0.3;" x1="592.5" x2="681.9" y1="424.8" y2="424.8"/><line style="stroke:#181818;stroke-width:0.3;" x1="592.5" x2="681.9" y1="429.6" y2="429.6"/><text fill="#000000" font-family="sans-serif" font-size="8.4" lengthAdjust="spacing" textLength="76.8" x="595.5" y="441.0645">+static getInstance()</text><text fill="#000000" font-family="sans-serif" font-size="8.4" lengthAdjust="spacing" textLength="81.6" x="595.5" y="452.2371">+getCurrentSession()</text></g><!--class UserSession--><g id="elem_UserSession"><rect codeLine="65" fill="#F1F1F1" height="39.9727" id="UserSession" rx="1.5" ry="1.5" style="stroke:#181818;stroke-width:0.3;" width="67.8" x="497.1" y="585"/><ellipse cx="506.64" cy="594.6" fill="#ADD1B2" rx="6.6" ry="6.6" style="stroke:#181818;stroke-width:0.6;"/><path d="M508.2994,592.125 Q508.3931,591.9938 508.5056,591.9281 Q508.6181,591.8625 508.7494,591.8625 Q508.9744,591.8625 509.115,592.0219 Q509.2556,592.1719 509.2556,592.5375 L509.2556,593.4094 Q509.2556,593.775 509.115,593.9344 Q508.9744,594.0938 508.7494,594.0938 Q508.5431,594.0938 508.4213,593.9719 Q508.2994,593.8594 508.2338,593.55 Q508.2056,593.3344 508.0931,593.2219 Q507.8962,592.9969 507.5306,592.8656 Q507.165,592.7344 506.79,592.7344 Q506.3306,592.7344 505.9462,592.9313 Q505.5712,593.1281 505.2712,593.5781 Q504.9806,594.0281 504.9806,594.6469 L504.9806,595.3031 Q504.9806,596.0437 505.515,596.5406 Q506.0494,597.0281 507.0056,597.0281 Q507.5681,597.0281 507.9619,596.8781 Q508.1962,596.7844 508.4494,596.5219 Q508.6088,596.3625 508.6931,596.3156 Q508.7869,596.2688 508.9087,596.2688 Q509.1056,596.2688 509.2556,596.4281 Q509.415,596.5781 509.415,596.7844 Q509.415,596.9906 509.2087,597.2344 Q508.9087,597.5813 508.4306,597.7781 Q507.7837,598.05 507.0056,598.05 Q506.0962,598.05 505.3744,597.675 Q504.7837,597.375 504.3713,596.7375 Q503.9587,596.0906 503.9587,595.3219 L503.9587,594.6281 Q503.9587,593.8313 504.3244,593.1469 Q504.6994,592.4531 505.3556,592.0875 Q506.0119,591.7125 506.7525,591.7125 Q507.1931,591.7125 507.5775,591.8156 Q507.9712,591.9094 508.2994,592.125 Z " fill="#000000"/><text fill="#000000" font-family="sans-serif" font-size="8.4" lengthAdjust="spacing" textLength="47.4" x="515.16" y="598.0781">UserSession</text><line style="stroke:#181818;stroke-width:0.3;" x1="497.7" x2="564.3" y1="604.2" y2="604.2"/><line style="stroke:#181818;stroke-width:0.3;" x1="497.7" x2="564.3" y1="609" y2="609"/><text fill="#000000" font-family="sans-serif" font-size="8.4" lengthAdjust="spacing" textLength="60.6" x="500.7" y="620.4645">+getUserEmail()</text></g><!--class Team--><g id="elem_Team"><rect codeLine="70" fill="#F1F1F1" height="39.9727" id="Team" rx="1.5" ry="1.5" style="stroke:#181818;stroke-width:0.3;" width="131.4" x="234.3" y="585"/><ellipse cx="286.65" cy="594.6" fill="#ADD1B2" rx="6.6" ry="6.6" style="stroke:#181818;stroke-width:0.6;"/><path d="M288.3094,592.125 Q288.4031,591.9938 288.5156,591.9281 Q288.6281,591.8625 288.7594,591.8625 Q288.9844,591.8625 289.125,592.0219 Q289.2656,592.1719 289.2656,592.5375 L289.2656,593.4094 Q289.2656,593.775 289.125,593.9344 Q288.9844,594.0938 288.7594,594.0938 Q288.5531,594.0938 288.4313,593.9719 Q288.3094,593.8594 288.2438,593.55 Q288.2156,593.3344 288.1031,593.2219 Q287.9063,592.9969 287.5406,592.8656 Q287.175,592.7344 286.8,592.7344 Q286.3406,592.7344 285.9563,592.9313 Q285.5813,593.1281 285.2813,593.5781 Q284.9906,594.0281 284.9906,594.6469 L284.9906,595.3031 Q284.9906,596.0437 285.525,596.5406 Q286.0594,597.0281 287.0156,597.0281 Q287.5781,597.0281 287.9719,596.8781 Q288.2063,596.7844 288.4594,596.5219 Q288.6188,596.3625 288.7031,596.3156 Q288.7969,596.2688 288.9188,596.2688 Q289.1156,596.2688 289.2656,596.4281 Q289.425,596.5781 289.425,596.7844 Q289.425,596.9906 289.2188,597.2344 Q288.9188,597.5813 288.4406,597.7781 Q287.7938,598.05 287.0156,598.05 Q286.1063,598.05 285.3844,597.675 Q284.7938,597.375 284.3812,596.7375 Q283.9688,596.0906 283.9688,595.3219 L283.9688,594.6281 Q283.9688,593.8313 284.3344,593.1469 Q284.7094,592.4531 285.3656,592.0875 Q286.0219,591.7125 286.7625,591.7125 Q287.2031,591.7125 287.5875,591.8156 Q287.9813,591.9094 288.3094,592.125 Z " fill="#000000"/><text fill="#000000" font-family="sans-serif" font-size="8.4" lengthAdjust="spacing" textLength="21.6" x="298.95" y="598.0781">Team</text><line style="stroke:#181818;stroke-width:0.3;" x1="234.9" x2="365.1" y1="604.2" y2="604.2"/><text fill="#000000" font-family="sans-serif" font-size="8.4" lengthAdjust="spacing" textLength="124.2" x="237.9" y="615.6645">-List&lt;Collaborator&gt; collaborators</text><line style="stroke:#181818;stroke-width:0.3;" x1="234.9" x2="365.1" y1="620.1727" y2="620.1727"/></g><!--class GreenSpace--><g id="elem_GreenSpace"><rect codeLine="75" fill="#F1F1F1" height="95.8359" id="GreenSpace" rx="1.5" ry="1.5" style="stroke:#181818;stroke-width:0.3;" width="89.4" x="386.7" y="557.1"/><ellipse cx="405.69" cy="566.7" fill="#ADD1B2" rx="6.6" ry="6.6" style="stroke:#181818;stroke-width:0.6;"/><path d="M407.3494,564.225 Q407.4431,564.0938 407.5556,564.0281 Q407.6681,563.9625 407.7994,563.9625 Q408.0244,563.9625 408.165,564.1219 Q408.3056,564.2719 408.3056,564.6375 L408.3056,565.5094 Q408.3056,565.875 408.165,566.0344 Q408.0244,566.1938 407.7994,566.1938 Q407.5931,566.1938 407.4713,566.0719 Q407.3494,565.9594 407.2838,565.65 Q407.2556,565.4344 407.1431,565.3219 Q406.9462,565.0969 406.5806,564.9656 Q406.215,564.8344 405.84,564.8344 Q405.3806,564.8344 404.9963,565.0313 Q404.6213,565.2281 404.3212,565.6781 Q404.0306,566.1281 404.0306,566.7469 L404.0306,567.4031 Q404.0306,568.1438 404.565,568.6406 Q405.0994,569.1281 406.0556,569.1281 Q406.6181,569.1281 407.0119,568.9781 Q407.2463,568.8844 407.4994,568.6219 Q407.6588,568.4625 407.7431,568.4156 Q407.8369,568.3688 407.9587,568.3688 Q408.1556,568.3688 408.3056,568.5281 Q408.465,568.6781 408.465,568.8844 Q408.465,569.0906 408.2587,569.3344 Q407.9587,569.6813 407.4806,569.8781 Q406.8337,570.15 406.0556,570.15 Q405.1462,570.15 404.4244,569.775 Q403.8337,569.475 403.4213,568.8375 Q403.0087,568.1906 403.0087,567.4219 L403.0087,566.7281 Q403.0087,565.9313 403.3744,565.2469 Q403.7494,564.5531 404.4056,564.1875 Q405.0619,563.8125 405.8025,563.8125 Q406.2431,563.8125 406.6275,563.9156 Q407.0212,564.0094 407.3494,564.225 Z " fill="#000000"/><text fill="#000000" font-family="sans-serif" font-size="8.4" lengthAdjust="spacing" textLength="48" x="416.31" y="570.1781">GreenSpace</text><line style="stroke:#181818;stroke-width:0.3;" x1="387.3" x2="475.5" y1="576.3" y2="576.3"/><text fill="#000000" font-family="sans-serif" font-size="8.4" lengthAdjust="spacing" textLength="48.6" x="390.3" y="587.7645">-String name</text><text fill="#000000" font-family="sans-serif" font-size="8.4" lengthAdjust="spacing" textLength="43.8" x="390.3" y="598.9371">-String type</text><text fill="#000000" font-family="sans-serif" font-size="8.4" lengthAdjust="spacing" textLength="31.8" x="390.3" y="610.1098">-int area</text><text fill="#000000" font-family="sans-serif" font-size="8.4" lengthAdjust="spacing" textLength="58.2" x="390.3" y="621.2824">-String address</text><text fill="#000000" font-family="sans-serif" font-size="8.4" lengthAdjust="spacing" textLength="63.6" x="390.3" y="632.4551">-String gsmEmail</text><line style="stroke:#181818;stroke-width:0.3;" x1="387.3" x2="475.5" y1="636.9633" y2="636.9633"/><text fill="#000000" font-family="sans-serif" font-size="8.4" lengthAdjust="spacing" textLength="82.2" x="390.3" y="648.4277">+hasUserEmail(email)</text></g><!--class Task--><g id="elem_Task"><rect codeLine="85" fill="#F1F1F1" height="129.3539" id="Task" rx="1.5" ry="1.5" style="stroke:#181818;stroke-width:0.3;" width="133.2" x="364.8" y="366.3"/><ellipse cx="419.55" cy="375.9" fill="#ADD1B2" rx="6.6" ry="6.6" style="stroke:#181818;stroke-width:0.6;"/><path d="M421.2094,373.425 Q421.3031,373.2938 421.4156,373.2281 Q421.5281,373.1625 421.6594,373.1625 Q421.8844,373.1625 422.025,373.3219 Q422.1656,373.4719 422.1656,373.8375 L422.1656,374.7094 Q422.1656,375.075 422.025,375.2344 Q421.8844,375.3938 421.6594,375.3938 Q421.4531,375.3938 421.3313,375.2719 Q421.2094,375.1594 421.1438,374.85 Q421.1156,374.6344 421.0031,374.5219 Q420.8063,374.2969 420.4406,374.1656 Q420.075,374.0344 419.7,374.0344 Q419.2406,374.0344 418.8563,374.2313 Q418.4813,374.4281 418.1813,374.8781 Q417.8906,375.3281 417.8906,375.9469 L417.8906,376.6031 Q417.8906,377.3438 418.425,377.8406 Q418.9594,378.3281 419.9156,378.3281 Q420.4781,378.3281 420.8719,378.1781 Q421.1063,378.0844 421.3594,377.8219 Q421.5188,377.6625 421.6031,377.6156 Q421.6969,377.5687 421.8187,377.5687 Q422.0156,377.5687 422.1656,377.7281 Q422.325,377.8781 422.325,378.0844 Q422.325,378.2906 422.1188,378.5344 Q421.8187,378.8812 421.3406,379.0781 Q420.6937,379.35 419.9156,379.35 Q419.0062,379.35 418.2844,378.975 Q417.6937,378.675 417.2813,378.0375 Q416.8688,377.3906 416.8688,376.6219 L416.8688,375.9281 Q416.8688,375.1312 417.2344,374.4469 Q417.6094,373.7531 418.2656,373.3875 Q418.9219,373.0125 419.6625,373.0125 Q420.1031,373.0125 420.4875,373.1156 Q420.8812,373.2094 421.2094,373.425 Z " fill="#000000"/><text fill="#000000" font-family="sans-serif" font-size="8.4" lengthAdjust="spacing" textLength="18.6" x="431.85" y="379.3781">Task</text><line style="stroke:#181818;stroke-width:0.3;" x1="365.4" x2="497.4" y1="385.5" y2="385.5"/><text fill="#000000" font-family="sans-serif" font-size="8.4" lengthAdjust="spacing" textLength="40.8" x="368.4" y="396.9645">-String title</text><text fill="#000000" font-family="sans-serif" font-size="8.4" lengthAdjust="spacing" textLength="69" x="368.4" y="408.1371">-String description</text><text fill="#000000" font-family="sans-serif" font-size="8.4" lengthAdjust="spacing" textLength="81" x="368.4" y="419.3098">-int expectedDuration</text><text fill="#000000" font-family="sans-serif" font-size="8.4" lengthAdjust="spacing" textLength="86.4" x="368.4" y="430.4824">-Calendar startingDate</text><line style="stroke:#181818;stroke-width:0.3;" x1="365.4" x2="497.4" y1="434.9906" y2="434.9906"/><text fill="#000000" font-family="sans-serif" font-size="8.4" lengthAdjust="spacing" textLength="46.2" x="368.4" y="446.4551">+hasTeam()</text><text fill="#000000" font-family="sans-serif" font-size="8.4" lengthAdjust="spacing" textLength="82.2" x="368.4" y="457.6277">+hasUserEmail(email)</text><text fill="#000000" font-family="sans-serif" font-size="8.4" lengthAdjust="spacing" textLength="126" x="368.4" y="468.8004">+belongsToTeam(selectedTeam)</text><text fill="#000000" font-family="sans-serif" font-size="8.4" lengthAdjust="spacing" textLength="103.2" x="368.4" y="479.973">+hasConflict(selectedTask)</text><text fill="#000000" font-family="sans-serif" font-size="8.4" lengthAdjust="spacing" textLength="110.4" x="368.4" y="491.1457">+assignTeam(selectedTeam)</text></g><!--class DegreeOfUrgency--><g id="elem_DegreeOfUrgency"><rect codeLine="98" fill="#F1F1F1" height="62.318" id="DegreeOfUrgency" rx="1.5" ry="1.5" style="stroke:#181818;stroke-width:0.3;" width="87.6" x="42.6" y="573.9"/><ellipse cx="51.6" cy="583.5" fill="#EB937F" rx="6.6" ry="6.6" style="stroke:#181818;stroke-width:0.6;"/><path d="M50.9156,583.9781 L50.9156,585.4781 L53.5125,585.4781 L53.5125,584.925 Q53.5125,584.5594 53.6531,584.4 Q53.8031,584.2406 54.0281,584.2406 Q54.2531,584.2406 54.3938,584.4 Q54.5344,584.5594 54.5344,584.925 L54.5344,586.5 L49.7344,586.5 Q49.3594,586.5 49.2,586.3594 Q49.05,586.2188 49.05,585.9844 Q49.05,585.7594 49.2094,585.6188 Q49.3688,585.4781 49.7344,585.4781 L49.8938,585.4781 L49.8938,581.4844 L49.7344,581.4844 Q49.3594,581.4844 49.2,581.3438 Q49.05,581.2031 49.05,580.9688 Q49.05,580.7438 49.2,580.6031 Q49.3594,580.4625 49.7344,580.4625 L54.3094,580.4625 L54.3094,582.0188 Q54.3094,582.3844 54.1687,582.5437 Q54.0375,582.6938 53.8031,582.6938 Q53.5781,582.6938 53.4375,582.5437 Q53.2969,582.3844 53.2969,582.0188 L53.2969,581.4844 L50.9156,581.4844 L50.9156,582.9563 L51.8063,582.9563 Q51.8063,582.5625 51.8813,582.45 Q52.0406,582.2063 52.3219,582.2063 Q52.5469,582.2063 52.6875,582.3656 Q52.8281,582.5156 52.8281,582.8813 L52.8281,584.0625 Q52.8281,584.3906 52.7531,584.5031 Q52.5938,584.7375 52.3219,584.7375 Q52.0406,584.7375 51.8813,584.4938 Q51.8063,584.3813 51.8063,583.9781 L50.9156,583.9781 Z " fill="#000000"/><text fill="#000000" font-family="sans-serif" font-size="8.4" lengthAdjust="spacing" textLength="68.4" x="60" y="586.9781">DegreeOfUrgency</text><line style="stroke:#181818;stroke-width:0.3;" x1="43.2" x2="129.6" y1="593.1" y2="593.1"/><text fill="#000000" font-family="sans-serif" font-size="8.4" lengthAdjust="spacing" textLength="15" x="46.2" y="604.5645">Low</text><text fill="#000000" font-family="sans-serif" font-size="8.4" lengthAdjust="spacing" textLength="29.4" x="46.2" y="615.7371">Medium</text><text fill="#000000" font-family="sans-serif" font-size="8.4" lengthAdjust="spacing" textLength="16.8" x="46.2" y="626.9098">High</text><line style="stroke:#181818;stroke-width:0.3;" x1="43.2" x2="129.6" y1="631.418" y2="631.418"/></g><!--class TaskStatus--><g id="elem_TaskStatus"><rect codeLine="105" fill="#F1F1F1" height="95.8359" id="TaskStatus" rx="1.5" ry="1.5" style="stroke:#181818;stroke-width:0.3;" width="61.8" x="151.5" y="557.1"/><ellipse cx="160.5" cy="566.7" fill="#EB937F" rx="6.6" ry="6.6" style="stroke:#181818;stroke-width:0.6;"/><path d="M159.8156,567.1781 L159.8156,568.6781 L162.4125,568.6781 L162.4125,568.125 Q162.4125,567.7594 162.5531,567.6 Q162.7031,567.4406 162.9281,567.4406 Q163.1531,567.4406 163.2938,567.6 Q163.4344,567.7594 163.4344,568.125 L163.4344,569.7 L158.6344,569.7 Q158.2594,569.7 158.1,569.5594 Q157.95,569.4187 157.95,569.1844 Q157.95,568.9594 158.1094,568.8188 Q158.2687,568.6781 158.6344,568.6781 L158.7938,568.6781 L158.7938,564.6844 L158.6344,564.6844 Q158.2594,564.6844 158.1,564.5437 Q157.95,564.4031 157.95,564.1687 Q157.95,563.9438 158.1,563.8031 Q158.2594,563.6625 158.6344,563.6625 L163.2094,563.6625 L163.2094,565.2188 Q163.2094,565.5844 163.0688,565.7438 Q162.9375,565.8938 162.7031,565.8938 Q162.4781,565.8938 162.3375,565.7438 Q162.1969,565.5844 162.1969,565.2188 L162.1969,564.6844 L159.8156,564.6844 L159.8156,566.1563 L160.7062,566.1563 Q160.7062,565.7625 160.7813,565.65 Q160.9406,565.4063 161.2219,565.4063 Q161.4469,565.4063 161.5875,565.5656 Q161.7281,565.7156 161.7281,566.0813 L161.7281,567.2625 Q161.7281,567.5906 161.6531,567.7031 Q161.4938,567.9375 161.2219,567.9375 Q160.9406,567.9375 160.7813,567.6938 Q160.7062,567.5813 160.7062,567.1781 L159.8156,567.1781 Z " fill="#000000"/><text fill="#000000" font-family="sans-serif" font-size="8.4" lengthAdjust="spacing" textLength="42.6" x="168.9" y="570.1781">TaskStatus</text><line style="stroke:#181818;stroke-width:0.3;" x1="152.1" x2="212.7" y1="576.3" y2="576.3"/><text fill="#000000" font-family="sans-serif" font-size="8.4" lengthAdjust="spacing" textLength="31.2" x="155.1" y="587.7645">Pending</text><text fill="#000000" font-family="sans-serif" font-size="8.4" lengthAdjust="spacing" textLength="40.2" x="155.1" y="598.9371">Processed</text><text fill="#000000" font-family="sans-serif" font-size="8.4" lengthAdjust="spacing" textLength="31.2" x="155.1" y="610.1098">Planned</text><text fill="#000000" font-family="sans-serif" font-size="8.4" lengthAdjust="spacing" textLength="40.8" x="155.1" y="621.2824">Postponed</text><text fill="#000000" font-family="sans-serif" font-size="8.4" lengthAdjust="spacing" textLength="36" x="155.1" y="632.4551">Canceled</text><text fill="#000000" font-family="sans-serif" font-size="8.4" lengthAdjust="spacing" textLength="20.4" x="155.1" y="643.6277">Done</text><line style="stroke:#181818;stroke-width:0.3;" x1="152.1" x2="212.7" y1="648.1359" y2="648.1359"/></g><!--class EmailGenerator--><g id="elem_EmailGenerator"><rect codeLine="115" fill="#F1F1F1" height="39.9727" id="EmailGenerator" rx="1.5" ry="1.5" style="stroke:#181818;stroke-width:0.3;" width="179.4" x="585.9" y="585"/><ellipse cx="643.35" cy="594.6" fill="#B4A7E5" rx="6.6" ry="6.6" style="stroke:#181818;stroke-width:0.6;"/><path d="M643.9219,592.5844 L643.9219,596.5781 L644.9531,596.5781 Q645.3188,596.5781 645.4781,596.7188 Q645.6375,596.8594 645.6375,597.0938 Q645.6375,597.3188 645.4781,597.4594 Q645.3188,597.6 644.9531,597.6 L641.8688,597.6 Q641.5031,597.6 641.3438,597.4594 Q641.1844,597.3188 641.1844,597.0844 Q641.1844,596.8594 641.3438,596.7188 Q641.5031,596.5781 641.8688,596.5781 L642.9,596.5781 L642.9,592.5844 L641.8688,592.5844 Q641.5031,592.5844 641.3438,592.4438 Q641.1844,592.3031 641.1844,592.0688 Q641.1844,591.8438 641.3438,591.7031 Q641.5031,591.5625 641.8688,591.5625 L644.9531,591.5625 Q645.3188,591.5625 645.4781,591.7031 Q645.6375,591.8438 645.6375,592.0688 Q645.6375,592.3031 645.4781,592.4438 Q645.3188,592.5844 644.9531,592.5844 L643.9219,592.5844 Z " fill="#000000"/><text fill="#000000" font-family="sans-serif" font-size="8.4" font-style="italic" lengthAdjust="spacing" textLength="59.4" x="655.65" y="598.0781">EmailGenerator</text><line style="stroke:#181818;stroke-width:0.3;" x1="586.5" x2="764.7" y1="604.2" y2="604.2"/><line style="stroke:#181818;stroke-width:0.3;" x1="586.5" x2="764.7" y1="609" y2="609"/><text fill="#000000" font-family="sans-serif" font-size="8.4" lengthAdjust="spacing" textLength="172.2" x="589.5" y="620.4645">+sendEmail(title, startingDate, selectedTeam)</text></g><!--class TaskMapper--><g id="elem_TaskMapper"><rect codeLine="123" fill="#F1F1F1" height="62.318" id="TaskMapper" rx="1.5" ry="1.5" style="stroke:#181818;stroke-width:0.3;" width="164.4" x="981.6" y="230.1"/><ellipse cx="1037.55" cy="239.7" fill="#ADD1B2" rx="6.6" ry="6.6" style="stroke:#181818;stroke-width:0.6;"/><path d="M1039.2094,237.225 Q1039.3031,237.0938 1039.4156,237.0281 Q1039.5281,236.9625 1039.6594,236.9625 Q1039.8844,236.9625 1040.025,237.1219 Q1040.1656,237.2719 1040.1656,237.6375 L1040.1656,238.5094 Q1040.1656,238.875 1040.025,239.0344 Q1039.8844,239.1938 1039.6594,239.1938 Q1039.4531,239.1938 1039.3313,239.0719 Q1039.2094,238.9594 1039.1438,238.65 Q1039.1156,238.4344 1039.0031,238.3219 Q1038.8062,238.0969 1038.4406,237.9656 Q1038.075,237.8344 1037.7,237.8344 Q1037.2406,237.8344 1036.8563,238.0313 Q1036.4813,238.2281 1036.1812,238.6781 Q1035.8906,239.1281 1035.8906,239.7469 L1035.8906,240.4031 Q1035.8906,241.1437 1036.425,241.6406 Q1036.9594,242.1281 1037.9156,242.1281 Q1038.4781,242.1281 1038.8719,241.9781 Q1039.1063,241.8844 1039.3594,241.6219 Q1039.5188,241.4625 1039.6031,241.4156 Q1039.6969,241.3687 1039.8188,241.3687 Q1040.0156,241.3687 1040.1656,241.5281 Q1040.325,241.6781 1040.325,241.8844 Q1040.325,242.0906 1040.1187,242.3344 Q1039.8188,242.6812 1039.3406,242.8781 Q1038.6938,243.15 1037.9156,243.15 Q1037.0063,243.15 1036.2844,242.775 Q1035.6938,242.475 1035.2813,241.8375 Q1034.8687,241.1906 1034.8687,240.4219 L1034.8687,239.7281 Q1034.8687,238.9312 1035.2344,238.2469 Q1035.6094,237.5531 1036.2656,237.1875 Q1036.9219,236.8125 1037.6625,236.8125 Q1038.1031,236.8125 1038.4875,236.9156 Q1038.8813,237.0094 1039.2094,237.225 Z " fill="#000000"/><text fill="#000000" font-family="sans-serif" font-size="8.4" lengthAdjust="spacing" textLength="47.4" x="1049.85" y="243.1781">TaskMapper</text><line style="stroke:#181818;stroke-width:0.3;" x1="982.2" x2="1145.4" y1="249.3" y2="249.3"/><text fill="#000000" font-family="sans-serif" font-size="8.4" lengthAdjust="spacing" textLength="157.2" x="985.2" y="260.7645">-List&lt;TaskDto&gt; freeAgendaEntriesListDto</text><line style="stroke:#181818;stroke-width:0.3;" x1="982.2" x2="1145.4" y1="265.2727" y2="265.2727"/><text fill="#000000" font-family="sans-serif" font-size="8.4" lengthAdjust="spacing" textLength="120" x="985.2" y="276.7371">+toDTO(freeAgendaEntriesList)</text><text fill="#000000" font-family="sans-serif" font-size="8.4" lengthAdjust="spacing" textLength="45.6" x="985.2" y="287.9098">-toDTO(obj)</text></g><!--class TeamMapper--><g id="elem_TeamMapper"><rect codeLine="130" fill="#F1F1F1" height="62.318" id="TeamMapper" rx="1.5" ry="1.5" style="stroke:#181818;stroke-width:0.3;" width="119.4" x="814.5" y="399.9"/><ellipse cx="846.45" cy="409.5" fill="#ADD1B2" rx="6.6" ry="6.6" style="stroke:#181818;stroke-width:0.6;"/><path d="M848.1094,407.025 Q848.2031,406.8938 848.3156,406.8281 Q848.4281,406.7625 848.5594,406.7625 Q848.7844,406.7625 848.925,406.9219 Q849.0656,407.0719 849.0656,407.4375 L849.0656,408.3094 Q849.0656,408.675 848.925,408.8344 Q848.7844,408.9938 848.5594,408.9938 Q848.3531,408.9938 848.2312,408.8719 Q848.1094,408.7594 848.0437,408.45 Q848.0156,408.2344 847.9031,408.1219 Q847.7063,407.8969 847.3406,407.7656 Q846.975,407.6344 846.6,407.6344 Q846.1406,407.6344 845.7563,407.8313 Q845.3813,408.0281 845.0813,408.4781 Q844.7906,408.9281 844.7906,409.5469 L844.7906,410.2031 Q844.7906,410.9437 845.325,411.4406 Q845.8594,411.9281 846.8156,411.9281 Q847.3781,411.9281 847.7719,411.7781 Q848.0063,411.6844 848.2594,411.4219 Q848.4187,411.2625 848.5031,411.2156 Q848.5969,411.1688 848.7188,411.1688 Q848.9156,411.1688 849.0656,411.3281 Q849.225,411.4781 849.225,411.6844 Q849.225,411.8906 849.0188,412.1344 Q848.7188,412.4813 848.2406,412.6781 Q847.5938,412.95 846.8156,412.95 Q845.9063,412.95 845.1844,412.575 Q844.5938,412.275 844.1813,411.6375 Q843.7688,410.9906 843.7688,410.2219 L843.7688,409.5281 Q843.7688,408.7313 844.1344,408.0469 Q844.5094,407.3531 845.1656,406.9875 Q845.8219,406.6125 846.5625,406.6125 Q847.0031,406.6125 847.3875,406.7156 Q847.7813,406.8094 848.1094,407.025 Z " fill="#000000"/><text fill="#000000" font-family="sans-serif" font-size="8.4" lengthAdjust="spacing" textLength="50.4" x="858.75" y="412.9781">TeamMapper</text><line style="stroke:#181818;stroke-width:0.3;" x1="815.1" x2="933.3" y1="419.1" y2="419.1"/><text fill="#000000" font-family="sans-serif" font-size="8.4" lengthAdjust="spacing" textLength="112.2" x="818.1" y="430.5645">-List&lt;TeamDto&gt; teamsListDto</text><line style="stroke:#181818;stroke-width:0.3;" x1="815.1" x2="933.3" y1="435.0727" y2="435.0727"/><text fill="#000000" font-family="sans-serif" font-size="8.4" lengthAdjust="spacing" textLength="72" x="818.1" y="446.5371">+toDTO(teamsList)</text><text fill="#000000" font-family="sans-serif" font-size="8.4" lengthAdjust="spacing" textLength="45.6" x="818.1" y="457.7098">-toDTO(obj)</text></g><!--class TaskDto--><g id="elem_TaskDto"><rect codeLine="138" fill="#F1F1F1" height="95.8359" id="TaskDto" rx="1.5" ry="1.5" style="stroke:#181818;stroke-width:0.3;" width="388.2" x="980.7" y="557.1"/><ellipse cx="1156.35" cy="566.7" fill="#ADD1B2" rx="6.6" ry="6.6" style="stroke:#181818;stroke-width:0.6;"/><path d="M1158.0094,564.225 Q1158.1031,564.0938 1158.2156,564.0281 Q1158.3281,563.9625 1158.4594,563.9625 Q1158.6844,563.9625 1158.825,564.1219 Q1158.9656,564.2719 1158.9656,564.6375 L1158.9656,565.5094 Q1158.9656,565.875 1158.825,566.0344 Q1158.6844,566.1938 1158.4594,566.1938 Q1158.2531,566.1938 1158.1313,566.0719 Q1158.0094,565.9594 1157.9438,565.65 Q1157.9156,565.4344 1157.8031,565.3219 Q1157.6063,565.0969 1157.2406,564.9656 Q1156.875,564.8344 1156.5,564.8344 Q1156.0406,564.8344 1155.6563,565.0313 Q1155.2813,565.2281 1154.9813,565.6781 Q1154.6906,566.1281 1154.6906,566.7469 L1154.6906,567.4031 Q1154.6906,568.1438 1155.225,568.6406 Q1155.7594,569.1281 1156.7156,569.1281 Q1157.2781,569.1281 1157.6719,568.9781 Q1157.9063,568.8844 1158.1594,568.6219 Q1158.3188,568.4625 1158.4031,568.4156 Q1158.4969,568.3688 1158.6187,568.3688 Q1158.8156,568.3688 1158.9656,568.5281 Q1159.125,568.6781 1159.125,568.8844 Q1159.125,569.0906 1158.9188,569.3344 Q1158.6187,569.6813 1158.1406,569.8781 Q1157.4937,570.15 1156.7156,570.15 Q1155.8062,570.15 1155.0844,569.775 Q1154.4937,569.475 1154.0813,568.8375 Q1153.6688,568.1906 1153.6688,567.4219 L1153.6688,566.7281 Q1153.6688,565.9313 1154.0344,565.2469 Q1154.4094,564.5531 1155.0656,564.1875 Q1155.7219,563.8125 1156.4625,563.8125 Q1156.9031,563.8125 1157.2875,563.9156 Q1157.6812,564.0094 1158.0094,564.225 Z " fill="#000000"/><text fill="#000000" font-family="sans-serif" font-size="8.4" lengthAdjust="spacing" textLength="31.8" x="1168.65" y="570.1781">TaskDto</text><line style="stroke:#181818;stroke-width:0.3;" x1="981.3" x2="1368.3" y1="576.3" y2="576.3"/><text fill="#000000" font-family="sans-serif" font-size="8.4" lengthAdjust="spacing" textLength="40.8" x="984.3" y="587.7645">-String title</text><text fill="#000000" font-family="sans-serif" font-size="8.4" lengthAdjust="spacing" textLength="69" x="984.3" y="598.9371">-String description</text><text fill="#000000" font-family="sans-serif" font-size="8.4" lengthAdjust="spacing" textLength="94.8" x="984.3" y="610.1098">-String degreeOfUrgency</text><text fill="#000000" font-family="sans-serif" font-size="8.4" lengthAdjust="spacing" textLength="81" x="984.3" y="621.2824">-int expectedDuration</text><text fill="#000000" font-family="sans-serif" font-size="8.4" lengthAdjust="spacing" textLength="86.4" x="984.3" y="632.4551">-Calendar startingDate</text><line style="stroke:#181818;stroke-width:0.3;" x1="981.3" x2="1368.3" y1="636.9633" y2="636.9633"/><text fill="#000000" font-family="sans-serif" font-size="8.4" lengthAdjust="spacing" textLength="381" x="984.3" y="648.4277">+TaskDto(title, description, degreeOfUrgency, expectedDuration, selectedGreenSpace, startingDate)</text></g><!--class GreenSpaceDto--><g id="elem_GreenSpaceDto"><rect codeLine="148" fill="#F1F1F1" height="84.6633" id="GreenSpaceDto" rx="1.5" ry="1.5" style="stroke:#181818;stroke-width:0.3;" width="178.8" x="1138.2" y="705.3"/><ellipse cx="1194.45" cy="714.9" fill="#ADD1B2" rx="6.6" ry="6.6" style="stroke:#181818;stroke-width:0.6;"/><path d="M1196.1094,712.425 Q1196.2031,712.2937 1196.3156,712.2281 Q1196.4281,712.1625 1196.5594,712.1625 Q1196.7844,712.1625 1196.925,712.3219 Q1197.0656,712.4719 1197.0656,712.8375 L1197.0656,713.7094 Q1197.0656,714.075 1196.925,714.2344 Q1196.7844,714.3938 1196.5594,714.3938 Q1196.3531,714.3938 1196.2313,714.2719 Q1196.1094,714.1594 1196.0438,713.85 Q1196.0156,713.6344 1195.9031,713.5219 Q1195.7063,713.2969 1195.3406,713.1656 Q1194.975,713.0344 1194.6,713.0344 Q1194.1406,713.0344 1193.7563,713.2312 Q1193.3813,713.4281 1193.0813,713.8781 Q1192.7906,714.3281 1192.7906,714.9469 L1192.7906,715.6031 Q1192.7906,716.3438 1193.325,716.8406 Q1193.8594,717.3281 1194.8156,717.3281 Q1195.3781,717.3281 1195.7719,717.1781 Q1196.0063,717.0844 1196.2594,716.8219 Q1196.4188,716.6625 1196.5031,716.6156 Q1196.5969,716.5688 1196.7188,716.5688 Q1196.9156,716.5688 1197.0656,716.7281 Q1197.225,716.8781 1197.225,717.0844 Q1197.225,717.2906 1197.0188,717.5344 Q1196.7188,717.8813 1196.2406,718.0781 Q1195.5938,718.35 1194.8156,718.35 Q1193.9063,718.35 1193.1844,717.975 Q1192.5938,717.675 1192.1812,717.0375 Q1191.7688,716.3906 1191.7688,715.6219 L1191.7688,714.9281 Q1191.7688,714.1313 1192.1344,713.4469 Q1192.5094,712.7531 1193.1656,712.3875 Q1193.8219,712.0125 1194.5625,712.0125 Q1195.0031,712.0125 1195.3875,712.1156 Q1195.7813,712.2094 1196.1094,712.425 Z " fill="#000000"/><text fill="#000000" font-family="sans-serif" font-size="8.4" lengthAdjust="spacing" textLength="61.2" x="1206.75" y="718.3781">GreenSpaceDto</text><line style="stroke:#181818;stroke-width:0.3;" x1="1138.8" x2="1316.4" y1="724.5" y2="724.5"/><text fill="#000000" font-family="sans-serif" font-size="8.4" lengthAdjust="spacing" textLength="48.6" x="1141.8" y="735.9645">-String name</text><text fill="#000000" font-family="sans-serif" font-size="8.4" lengthAdjust="spacing" textLength="43.8" x="1141.8" y="747.1371">-String type</text><text fill="#000000" font-family="sans-serif" font-size="8.4" lengthAdjust="spacing" textLength="31.8" x="1141.8" y="758.3098">-int area</text><text fill="#000000" font-family="sans-serif" font-size="8.4" lengthAdjust="spacing" textLength="58.2" x="1141.8" y="769.4824">-String address</text><line style="stroke:#181818;stroke-width:0.3;" x1="1138.8" x2="1316.4" y1="773.9906" y2="773.9906"/><text fill="#000000" font-family="sans-serif" font-size="8.4" lengthAdjust="spacing" textLength="171.6" x="1141.8" y="785.4551">+GreenSpaceDto(name, type, area, address)</text></g><!--class TeamDto--><g id="elem_TeamDto"><rect codeLine="157" fill="#F1F1F1" height="51.1453" id="TeamDto" rx="1.5" ry="1.5" style="stroke:#181818;stroke-width:0.3;" width="131.4" x="828.3" y="579.6"/><ellipse cx="874.05" cy="589.2" fill="#ADD1B2" rx="6.6" ry="6.6" style="stroke:#181818;stroke-width:0.6;"/><path d="M875.7094,586.725 Q875.8031,586.5938 875.9156,586.5281 Q876.0281,586.4625 876.1594,586.4625 Q876.3844,586.4625 876.525,586.6219 Q876.6656,586.7719 876.6656,587.1375 L876.6656,588.0094 Q876.6656,588.375 876.525,588.5344 Q876.3844,588.6938 876.1594,588.6938 Q875.9531,588.6938 875.8313,588.5719 Q875.7094,588.4594 875.6438,588.15 Q875.6156,587.9344 875.5031,587.8219 Q875.3063,587.5969 874.9406,587.4656 Q874.575,587.3344 874.2,587.3344 Q873.7406,587.3344 873.3562,587.5313 Q872.9812,587.7281 872.6813,588.1781 Q872.3906,588.6281 872.3906,589.2469 L872.3906,589.9031 Q872.3906,590.6438 872.925,591.1406 Q873.4594,591.6281 874.4156,591.6281 Q874.9781,591.6281 875.3719,591.4781 Q875.6062,591.3844 875.8594,591.1219 Q876.0188,590.9625 876.1031,590.9156 Q876.1969,590.8688 876.3188,590.8688 Q876.5156,590.8688 876.6656,591.0281 Q876.825,591.1781 876.825,591.3844 Q876.825,591.5906 876.6188,591.8344 Q876.3188,592.1813 875.8406,592.3781 Q875.1938,592.65 874.4156,592.65 Q873.5063,592.65 872.7844,592.275 Q872.1938,591.975 871.7813,591.3375 Q871.3688,590.6906 871.3688,589.9219 L871.3688,589.2281 Q871.3688,588.4313 871.7344,587.7469 Q872.1094,587.0531 872.7656,586.6875 Q873.4219,586.3125 874.1625,586.3125 Q874.6031,586.3125 874.9875,586.4156 Q875.3813,586.5094 875.7094,586.725 Z " fill="#000000"/><text fill="#000000" font-family="sans-serif" font-size="8.4" lengthAdjust="spacing" textLength="34.8" x="886.35" y="592.6781">TeamDto</text><line style="stroke:#181818;stroke-width:0.3;" x1="828.9" x2="959.1" y1="598.8" y2="598.8"/><text fill="#000000" font-family="sans-serif" font-size="8.4" lengthAdjust="spacing" textLength="124.2" x="831.9" y="610.2645">-List&lt;Collaborator&gt; collaborators</text><line style="stroke:#181818;stroke-width:0.3;" x1="828.9" x2="959.1" y1="614.7727" y2="614.7727"/><text fill="#000000" font-family="sans-serif" font-size="8.4" lengthAdjust="spacing" textLength="94.8" x="831.9" y="626.2371">+TeamDto(collaborators)</text></g><!--class EmailThroughGmail--><g id="elem_EmailThroughGmail"><rect codeLine="166" fill="#F1F1F1" height="39.9727" id="EmailThroughGmail" rx="1.5" ry="1.5" style="stroke:#181818;stroke-width:0.3;" width="179.4" x="1445.7" y="411"/><ellipse cx="1495.65" cy="420.6" fill="#ADD1B2" rx="6.6" ry="6.6" style="stroke:#181818;stroke-width:0.6;"/><path d="M1497.3094,418.125 Q1497.4031,417.9938 1497.5156,417.9281 Q1497.6281,417.8625 1497.7594,417.8625 Q1497.9844,417.8625 1498.125,418.0219 Q1498.2656,418.1719 1498.2656,418.5375 L1498.2656,419.4094 Q1498.2656,419.775 1498.125,419.9344 Q1497.9844,420.0938 1497.7594,420.0938 Q1497.5531,420.0938 1497.4312,419.9719 Q1497.3094,419.8594 1497.2437,419.55 Q1497.2156,419.3344 1497.1031,419.2219 Q1496.9063,418.9969 1496.5406,418.8656 Q1496.175,418.7344 1495.8,418.7344 Q1495.3406,418.7344 1494.9563,418.9313 Q1494.5813,419.1281 1494.2813,419.5781 Q1493.9906,420.0281 1493.9906,420.6469 L1493.9906,421.3031 Q1493.9906,422.0438 1494.525,422.5406 Q1495.0594,423.0281 1496.0156,423.0281 Q1496.5781,423.0281 1496.9719,422.8781 Q1497.2063,422.7844 1497.4594,422.5219 Q1497.6187,422.3625 1497.7031,422.3156 Q1497.7969,422.2688 1497.9188,422.2688 Q1498.1156,422.2688 1498.2656,422.4281 Q1498.425,422.5781 1498.425,422.7844 Q1498.425,422.9906 1498.2188,423.2344 Q1497.9188,423.5813 1497.4406,423.7781 Q1496.7938,424.05 1496.0156,424.05 Q1495.1063,424.05 1494.3844,423.675 Q1493.7938,423.375 1493.3813,422.7375 Q1492.9688,422.0906 1492.9688,421.3219 L1492.9688,420.6281 Q1492.9688,419.8313 1493.3344,419.1469 Q1493.7094,418.4531 1494.3656,418.0875 Q1495.0219,417.7125 1495.7625,417.7125 Q1496.2031,417.7125 1496.5875,417.8156 Q1496.9813,417.9094 1497.3094,418.125 Z " fill="#000000"/><text fill="#000000" font-family="sans-serif" font-size="8.4" lengthAdjust="spacing" textLength="74.4" x="1507.95" y="424.0781">EmailThroughGmail</text><line style="stroke:#181818;stroke-width:0.3;" x1="1446.3" x2="1624.5" y1="430.2" y2="430.2"/><line style="stroke:#181818;stroke-width:0.3;" x1="1446.3" x2="1624.5" y1="435" y2="435"/><text fill="#000000" font-family="sans-serif" font-size="8.4" lengthAdjust="spacing" textLength="172.2" x="1449.3" y="446.4645">+sendEmail(title, startingDate, selectedTeam)</text></g><!--class EmailThroughDEIService--><g id="elem_EmailThroughDEIService"><rect codeLine="171" fill="#F1F1F1" height="39.9727" id="EmailThroughDEIService" rx="1.5" ry="1.5" style="stroke:#181818;stroke-width:0.3;" width="179.4" x="1646.1" y="411"/><ellipse cx="1686.15" cy="420.6" fill="#ADD1B2" rx="6.6" ry="6.6" style="stroke:#181818;stroke-width:0.6;"/><path d="M1687.8094,418.125 Q1687.9031,417.9938 1688.0156,417.9281 Q1688.1281,417.8625 1688.2594,417.8625 Q1688.4844,417.8625 1688.625,418.0219 Q1688.7656,418.1719 1688.7656,418.5375 L1688.7656,419.4094 Q1688.7656,419.775 1688.625,419.9344 Q1688.4844,420.0938 1688.2594,420.0938 Q1688.0531,420.0938 1687.9312,419.9719 Q1687.8094,419.8594 1687.7437,419.55 Q1687.7156,419.3344 1687.6031,419.2219 Q1687.4063,418.9969 1687.0406,418.8656 Q1686.675,418.7344 1686.3,418.7344 Q1685.8406,418.7344 1685.4563,418.9313 Q1685.0813,419.1281 1684.7813,419.5781 Q1684.4906,420.0281 1684.4906,420.6469 L1684.4906,421.3031 Q1684.4906,422.0438 1685.025,422.5406 Q1685.5594,423.0281 1686.5156,423.0281 Q1687.0781,423.0281 1687.4719,422.8781 Q1687.7063,422.7844 1687.9594,422.5219 Q1688.1187,422.3625 1688.2031,422.3156 Q1688.2969,422.2688 1688.4188,422.2688 Q1688.6156,422.2688 1688.7656,422.4281 Q1688.925,422.5781 1688.925,422.7844 Q1688.925,422.9906 1688.7188,423.2344 Q1688.4188,423.5813 1687.9406,423.7781 Q1687.2938,424.05 1686.5156,424.05 Q1685.6063,424.05 1684.8844,423.675 Q1684.2938,423.375 1683.8813,422.7375 Q1683.4688,422.0906 1683.4688,421.3219 L1683.4688,420.6281 Q1683.4688,419.8313 1683.8344,419.1469 Q1684.2094,418.4531 1684.8656,418.0875 Q1685.5219,417.7125 1686.2625,417.7125 Q1686.7031,417.7125 1687.0875,417.8156 Q1687.4813,417.9094 1687.8094,418.125 Z " fill="#000000"/><text fill="#000000" font-family="sans-serif" font-size="8.4" lengthAdjust="spacing" textLength="94.2" x="1698.45" y="424.0781">EmailThroughDEIService</text><line style="stroke:#181818;stroke-width:0.3;" x1="1646.7" x2="1824.9" y1="430.2" y2="430.2"/><line style="stroke:#181818;stroke-width:0.3;" x1="1646.7" x2="1824.9" y1="435" y2="435"/><text fill="#000000" font-family="sans-serif" font-size="8.4" lengthAdjust="spacing" textLength="172.2" x="1649.7" y="446.4645">+sendEmail(title, startingDate, selectedTeam)</text></g><!--reverse link Task to DegreeOfUrgency--><g id="link_Task_DegreeOfUrgency"><path codeLine="177" d="M355.6838,457.353 C269.9498,486.405 141,530.1 141,530.1 C141,530.1 123.966,553.314 108.924,573.81 " fill="none" id="Task-backto-DegreeOfUrgency" style="stroke:#181818;stroke-width:0.6;"/><ellipse cx="360.2299" cy="455.8125" fill="#FFFFFF" rx="4.8" ry="4.8" style="stroke:#181818;stroke-width:0.6;"/><line style="stroke:#181818;stroke-width:0.6;" x1="355.6838" x2="364.776" y1="457.353" y2="454.272"/><line style="stroke:#181818;stroke-width:0.6;" x1="358.6894" x2="361.7704" y1="451.2664" y2="460.3586"/></g><!--reverse link Task to TaskStatus--><g id="link_Task_TaskStatus"><path codeLine="178" d="M386.8348,504.118 C376.7848,520.45 373.8,525.3 373.8,525.3 C373.8,525.3 223.8,530.1 223.8,530.1 C223.8,530.1 216.966,542.376 208.854,556.962 " fill="none" id="Task-backto-TaskStatus" style="stroke:#181818;stroke-width:0.6;"/><ellipse cx="389.3504" cy="500.03" fill="#FFFFFF" rx="4.8" ry="4.8" style="stroke:#181818;stroke-width:0.6;"/><line style="stroke:#181818;stroke-width:0.6;" x1="386.8348" x2="391.866" y1="504.118" y2="495.942"/><line style="stroke:#181818;stroke-width:0.6;" x1="385.2624" x2="393.4384" y1="497.5144" y2="502.5456"/></g><!--link Repositories to Repositories--><g id="link_Repositories_Repositories"><path codeLine="180" d="M712.968,104.844 C725.088,106.122 733.8,110.172 733.8,117 C733.8,123.828 728.6682,127.5005 716.5482,128.7785 " fill="none" id="Repositories-to-Repositories" style="stroke:#181818;stroke-width:0.6;"/><polygon fill="#181818" points="712.968,129.156,718.5899,130.9765,715.9515,128.8414,718.0866,126.203,712.968,129.156" style="stroke:#181818;stroke-width:0.6;"/><text fill="#000000" font-family="sans-serif" font-size="7.8" lengthAdjust="spacing" textLength="29.4" x="737.4" y="120.317">instance</text></g><!--link ApplicationSession to ApplicationSession--><g id="link_ApplicationSession_ApplicationSession"><path codeLine="181" d="M682.596,414.834 C694.5,415.794 703.5,421.218 703.5,431.1 C703.5,440.982 698.0884,446.1166 686.1844,447.0766 " fill="none" id="ApplicationSession-to-ApplicationSession" style="stroke:#181818;stroke-width:0.6;"/><polygon fill="#181818" points="682.596,447.366,688.1714,449.3242,685.5863,447.1248,687.7856,444.5397,682.596,447.366" style="stroke:#181818;stroke-width:0.6;"/><text fill="#000000" font-family="sans-serif" font-size="7.8" lengthAdjust="spacing" textLength="29.4" x="707.1" y="434.417">instance</text></g><!--link AssignTeamUI to AssignTeamController--><g id="link_AssignTeamUI_AssignTeamController"><path codeLine="183" d="M1445.31,117 C1386.924,117 1279.398,117 1279.398,117 C1279.398,117 1076.802,117 1076.802,117 C1076.802,117 989.472,117 929.448,117 " fill="none" id="AssignTeamUI-to-AssignTeamController" style="stroke:#181818;stroke-width:0.6;stroke-dasharray:7.0,7.0;"/><polygon fill="#181818" points="925.848,117,931.248,119.4,928.848,117,931.248,114.6,925.848,117" style="stroke:#181818;stroke-width:0.6;"/></g><!--link AssignTeamController to Repositories--><g id="link_AssignTeamController_Repositories"><path codeLine="185" d="M822.588,117 C789.69,117 750.588,117 716.472,117 " fill="none" id="AssignTeamController-to-Repositories" style="stroke:#181818;stroke-width:0.6;stroke-dasharray:7.0,7.0;"/><polygon fill="#181818" points="712.872,117,718.272,119.4,715.872,117,718.272,114.6,712.872,117" style="stroke:#181818;stroke-width:0.6;"/><text fill="#000000" font-family="sans-serif" font-size="7.8" lengthAdjust="spacing" textLength="40.2" x="747.6" y="112.817">repositories</text></g><!--link Repositories to TeamRepository--><g id="link_Repositories_TeamRepository"><path codeLine="187" d="M609.114,153.612 C579.594,176.976 546.6,203.1 546.6,203.1 C546.6,203.1 536.0822,213.7291 522.4682,227.4871 " fill="none" id="Repositories-to-TeamRepository" style="stroke:#181818;stroke-width:0.6;"/><polygon fill="#181818" points="519.936,230.046,525.4402,227.8957,522.0461,227.9135,522.0283,224.5195,519.936,230.046" style="stroke:#181818;stroke-width:0.6;"/><text fill="#000000" font-family="sans-serif" font-size="7.8" lengthAdjust="spacing" textLength="4.2" x="519.5302" y="223.3952">1</text></g><!--link Repositories to Agenda--><g id="link_Repositories_Agenda"><path codeLine="188" d="M655.962,153.708 C656.58,170.106 657.1874,186.2186 657.8714,204.2366 " fill="none" id="Repositories-to-Agenda" style="stroke:#181818;stroke-width:0.6;"/><polygon fill="#181818" points="658.008,207.834,660.2014,202.3468,657.8942,204.8362,655.4049,202.5289,658.008,207.834" style="stroke:#181818;stroke-width:0.6;"/><text fill="#000000" font-family="sans-serif" font-size="7.8" lengthAdjust="spacing" textLength="4.2" x="653.4691" y="201.1996">1</text></g><!--link AssignTeamController to ApplicationSession--><g id="link_AssignTeamController_ApplicationSession"><path codeLine="190" d="M839.922,159.348 C822.102,181.05 804,203.1 804,203.1 C804,203.1 772.8,329.1 772.8,329.1 C772.8,329.1 713.5769,373.3839 673.4309,403.4079 " fill="none" id="AssignTeamController-to-ApplicationSession" style="stroke:#181818;stroke-width:0.6;stroke-dasharray:7.0,7.0;"/><polygon fill="#181818" points="670.548,405.564,676.3098,404.2519,672.9505,403.7673,673.435,400.4079,670.548,405.564" style="stroke:#181818;stroke-width:0.6;"/></g><!--link AssignTeamController to UserSession--><g id="link_AssignTeamController_UserSession"><path codeLine="191" d="M925.914,125.994 C1058.64,147.534 1401,203.1 1401,203.1 C1401,203.1 1401,495.9 1401,495.9 C1401,495.9 575.4,530.1 575.4,530.1 C575.4,530.1 557.6671,559.8168 544.5091,581.8608 " fill="none" id="AssignTeamController-to-UserSession" style="stroke:#181818;stroke-width:0.6;stroke-dasharray:7.0,7.0;"/><polygon fill="#181818" points="542.664,584.952,547.4925,581.5453,544.2016,582.376,543.3709,579.0851,542.664,584.952" style="stroke:#181818;stroke-width:0.6;"/></g><!--link ApplicationSession to UserSession--><g id="link_ApplicationSession_UserSession"><path codeLine="192" d="M621.444,456.786 C603.138,485.94 575.4,530.1 575.4,530.1 C575.4,530.1 557.6671,559.8168 544.5091,581.8608 " fill="none" id="ApplicationSession-to-UserSession" style="stroke:#181818;stroke-width:0.6;"/><polygon fill="#181818" points="542.664,584.952,547.4925,581.5453,544.2016,582.376,543.3709,579.0851,542.664,584.952" style="stroke:#181818;stroke-width:0.6;"/><text fill="#000000" font-family="sans-serif" font-size="7.8" lengthAdjust="spacing" textLength="43.2" x="585" y="522.917">userSession</text><text fill="#000000" font-family="sans-serif" font-size="7.8" lengthAdjust="spacing" textLength="4.2" x="540.3469" y="578.2379">1</text></g><!--link AssignTeamController to Agenda--><g id="link_AssignTeamController_Agenda"><path codeLine="193" d="M822.312,146.31 C797.364,160.11 772.8,173.7 772.8,173.7 C772.8,173.7 761.4,178.5 761.4,178.5 C761.4,178.5 747.7805,189.5409 728.1605,205.4469 " fill="none" id="AssignTeamController-to-Agenda" style="stroke:#181818;stroke-width:0.6;stroke-dasharray:7.0,7.0;"/><polygon fill="#181818" points="725.364,207.714,731.0701,206.1777,727.6944,205.8247,728.0473,202.449,725.364,207.714" style="stroke:#181818;stroke-width:0.6;"/><text fill="#000000" font-family="sans-serif" font-size="7.8" lengthAdjust="spacing" textLength="25.2" x="762" y="187.517">agenda</text></g><!--link AssignTeamController to TeamRepository--><g id="link_AssignTeamController_TeamRepository"><path codeLine="194" d="M822.312,146.31 C797.364,160.11 772.8,173.7 772.8,173.7 C772.8,173.7 688.2,178.5 688.2,178.5 C688.2,178.5 546.6,203.1 546.6,203.1 C546.6,203.1 536.0822,213.7291 522.4682,227.4871 " fill="none" id="AssignTeamController-to-TeamRepository" style="stroke:#181818;stroke-width:0.6;stroke-dasharray:7.0,7.0;"/><polygon fill="#181818" points="519.936,230.046,525.4402,227.8957,522.0461,227.9135,522.0283,224.5195,519.936,230.046" style="stroke:#181818;stroke-width:0.6;"/><text fill="#000000" font-family="sans-serif" font-size="7.8" lengthAdjust="spacing" textLength="54.6" x="688.8" y="187.517">teamRepository</text></g><!--link AssignTeamController to TaskMapper--><g id="link_AssignTeamController_TaskMapper"><path codeLine="195" d="M926.01,156.702 C956.598,179.79 991.8906,206.4273 1020.2946,227.8653 " fill="none" id="AssignTeamController-to-TaskMapper" style="stroke:#181818;stroke-width:0.6;stroke-dasharray:7.0,7.0;"/><polygon fill="#181818" points="1023.168,230.034,1020.3037,224.8653,1020.7735,228.2267,1017.412,228.6965,1023.168,230.034" style="stroke:#181818;stroke-width:0.6;"/></g><!--link AssignTeamController to TeamMapper--><g id="link_AssignTeamController_TeamMapper"><path codeLine="196" d="M874.2,159.312 C874.2,223.122 874.2,339.888 874.2,396.288 " fill="none" id="AssignTeamController-to-TeamMapper" style="stroke:#181818;stroke-width:0.6;stroke-dasharray:7.0,7.0;"/><polygon fill="#181818" points="874.2,399.888,876.6,394.488,874.2,396.888,871.8,394.488,874.2,399.888" style="stroke:#181818;stroke-width:0.6;"/></g><!--link Agenda to Task--><g id="link_Agenda_Task"><path codeLine="198" d="M588.294,314.784 C559.488,336.03 529.3674,358.2474 501.0774,379.1094 " fill="none" id="Agenda-to-Task" style="stroke:#181818;stroke-width:0.6;"/><polygon fill="#181818" points="498.18,381.246,503.9505,379.9726,500.5945,379.4655,501.1017,376.1095,498.18,381.246" style="stroke:#181818;stroke-width:0.6;"/><text fill="#000000" font-family="sans-serif" font-size="7.8" lengthAdjust="spacing" textLength="4.2" x="577.9819" y="328.0511">1</text><text fill="#000000" font-family="sans-serif" font-size="7.8" lengthAdjust="spacing" textLength="3" x="502.7676" y="375.7849">*</text></g><!--link TeamRepository to Team--><g id="link_TeamRepository_Team"><path codeLine="199" d="M442.932,288.534 C403.71,310.926 354,339.3 354,339.3 C354,339.3 317.1581,520.2243 304.6901,581.4723 " fill="none" id="TeamRepository-to-Team" style="stroke:#181818;stroke-width:0.6;"/><polygon fill="#181818" points="303.972,585,307.4009,580.1873,304.5704,582.0603,302.6974,579.2298,303.972,585" style="stroke:#181818;stroke-width:0.6;"/><text fill="#000000" font-family="sans-serif" font-size="7.8" lengthAdjust="spacing" textLength="4.2" x="434.0838" y="288.8729">1</text><text fill="#000000" font-family="sans-serif" font-size="7.8" lengthAdjust="spacing" textLength="3" x="301.4587" y="578.2953">*</text></g><!--link TaskMapper to TaskDto--><g id="link_TaskMapper_TaskDto"><path codeLine="201" d="M1073.748,292.602 C1093.17,352.554 1135.1463,482.1133 1158.2883,553.5313 " fill="none" id="TaskMapper-to-TaskDto" style="stroke:#181818;stroke-width:0.6;stroke-dasharray:7.0,7.0;"/><polygon fill="#181818" points="1159.398,556.956,1160.0165,551.0791,1158.4732,554.1021,1155.4503,552.5588,1159.398,556.956" style="stroke:#181818;stroke-width:0.6;"/></g><!--link TaskMapper to Task--><g id="link_TaskMapper_Task"><path codeLine="202" d="M981.576,280.89 C895.524,300.762 772.8,329.1 772.8,329.1 C772.8,329.1 581.4,339.3 581.4,339.3 C581.4,339.3 541.204,363.7396 501.142,388.0996 " fill="none" id="TaskMapper-to-Task" style="stroke:#181818;stroke-width:0.6;stroke-dasharray:7.0,7.0;"/><polygon fill="#181818" points="498.066,389.97,503.9269,389.2151,500.6293,388.4114,501.4331,385.1138,498.066,389.97" style="stroke:#181818;stroke-width:0.6;"/></g><!--link Task to GreenSpace--><g id="link_Task_GreenSpace"><path codeLine="204" d="M431.4,496.044 C431.4,516.198 431.4,534.462 431.4,553.248 " fill="none" id="Task-to-GreenSpace" style="stroke:#181818;stroke-width:0.6;"/><polygon fill="#181818" points="431.4,556.848,433.8,551.448,431.4,553.848,429,551.448,431.4,556.848" style="stroke:#181818;stroke-width:0.6;"/><text fill="#000000" font-family="sans-serif" font-size="7.8" lengthAdjust="spacing" textLength="3" x="428.3039" y="508.9617">*</text><text fill="#000000" font-family="sans-serif" font-size="7.8" lengthAdjust="spacing" textLength="4.2" x="427.013" y="550.3284">1</text></g><!--link TaskDto to GreenSpaceDto--><g id="link_TaskDto_GreenSpaceDto"><path codeLine="205" d="M1191.9,653.166 C1198.368,671.118 1204.2,687.3 1204.2,687.3 C1204.2,687.3 1205.9769,691.826 1209.9069,701.858 " fill="none" id="TaskDto-to-GreenSpaceDto" style="stroke:#181818;stroke-width:0.6;"/><polygon fill="#181818" points="1211.22,705.21,1211.485,699.3066,1210.1257,702.4167,1207.0157,701.0575,1211.22,705.21" style="stroke:#181818;stroke-width:0.6;"/><text fill="#000000" font-family="sans-serif" font-size="7.8" lengthAdjust="spacing" textLength="3" x="1190.2406" y="666.1665">*</text><text fill="#000000" font-family="sans-serif" font-size="7.8" lengthAdjust="spacing" textLength="4.2" x="1205.1143" y="698.5353">1</text></g><!--link TeamMapper to TeamDto--><g id="link_TeamMapper_TeamDto"><path codeLine="207" d="M877.716,462.396 C881.538,495.756 887.1639,544.8594 890.7159,575.8374 " fill="none" id="TeamMapper-to-TeamDto" style="stroke:#181818;stroke-width:0.6;stroke-dasharray:7.0,7.0;"/><polygon fill="#181818" points="891.126,579.414,892.8952,573.7758,890.7843,576.4335,888.1265,574.3225,891.126,579.414" style="stroke:#181818;stroke-width:0.6;"/></g><!--link TeamMapper to Team--><g id="link_TeamMapper_Team"><path codeLine="208" d="M826.728,462.486 C801.324,478.962 775.2,495.9 775.2,495.9 C775.2,495.9 633.6,525.3 633.6,525.3 C633.6,525.3 376.2,530.1 376.2,530.1 C376.2,530.1 345.1759,560.3931 322.5979,582.4371 " fill="none" id="TeamMapper-to-Team" style="stroke:#181818;stroke-width:0.6;stroke-dasharray:7.0,7.0;"/><polygon fill="#181818" points="320.022,584.952,325.5624,582.8968,322.1686,582.8562,322.2092,579.4623,320.022,584.952" style="stroke:#181818;stroke-width:0.6;"/></g><!--link TaskMapper to GreenSpaceDto--><g id="link_TaskMapper_GreenSpaceDto"><path codeLine="209" d="M1099.848,292.536 C1182.66,362.904 1379.4,530.1 1379.4,530.1 C1379.4,530.1 1379.4,681.9 1379.4,681.9 C1379.4,681.9 1353.3925,693.051 1320.5305,707.145 " fill="none" id="TaskMapper-to-GreenSpaceDto" style="stroke:#181818;stroke-width:0.6;stroke-dasharray:7.0,7.0;"/><polygon fill="#181818" points="1317.222,708.564,1323.1308,708.6412,1319.9791,707.3815,1321.2388,704.2298,1317.222,708.564" style="stroke:#181818;stroke-width:0.6;"/></g><!--link Task to Team--><g id="link_Task_Team"><path codeLine="211" d="M414.516,495.942 C410.226,512.274 406.8,525.3 406.8,525.3 C406.8,525.3 376.2,530.1 376.2,530.1 C376.2,530.1 345.1759,560.3931 322.5979,582.4371 " fill="none" id="Task-to-Team" style="stroke:#181818;stroke-width:0.6;"/><polygon fill="#181818" points="320.022,584.952,325.5624,582.8968,322.1686,582.8562,322.2092,579.4623,320.022,584.952" style="stroke:#181818;stroke-width:0.6;"/><text fill="#000000" font-family="sans-serif" font-size="7.8" lengthAdjust="spacing" textLength="3" x="410.3383" y="508.8531">*</text><text fill="#000000" font-family="sans-serif" font-size="7.8" lengthAdjust="spacing" textLength="13.2" x="309.4645" y="578.2379">0..1</text></g><!--link Task to EmailGenerator--><g id="link_Task_EmailGenerator"><path codeLine="213" d="M496.464,495.942 C513.006,512.274 526.2,525.3 526.2,525.3 C526.2,525.3 575.4,530.1 575.4,530.1 C575.4,530.1 616.6937,560.7619 646.3817,582.8059 " fill="none" id="Task-to-EmailGenerator" style="stroke:#181818;stroke-width:0.6;"/><polygon fill="#181818" points="649.272,584.952,646.3672,579.8059,646.8634,583.1635,643.5057,583.6597,649.272,584.952" style="stroke:#181818;stroke-width:0.6;"/><text fill="#000000" font-family="sans-serif" font-size="7.8" lengthAdjust="spacing" textLength="46.8" x="526.8" y="522.917">makes use of</text><text fill="#000000" font-family="sans-serif" font-size="7.8" lengthAdjust="spacing" textLength="3" x="497.5361" y="508.8531">*</text><text fill="#000000" font-family="sans-serif" font-size="7.8" lengthAdjust="spacing" textLength="4.2" x="639.4752" y="578.2379">1</text></g><!--link EmailThroughGmail to EmailGenerator--><g id="link_EmailThroughGmail_EmailGenerator"><path codeLine="215" d="M1510.494,451.32 C1475.658,478.77 1416.6,525.3 1416.6,525.3 C1416.6,525.3 818.4,530.1 818.4,530.1 C818.4,530.1 765.0081,557.918 722.6961,579.962 " fill="none" id="EmailThroughGmail-to-EmailGenerator" style="stroke:#181818;stroke-width:0.6;stroke-dasharray:7.0,7.0;"/><polygon fill="none" points="713.118,584.952,724.3594,583.1546,721.0327,576.7693,713.118,584.952" style="stroke:#181818;stroke-width:0.6;"/></g><!--link EmailThroughDEIService to EmailGenerator--><g id="link_EmailThroughDEIService_EmailGenerator"><path codeLine="216" d="M1705.194,451.308 C1675.728,470.19 1635.6,495.9 1635.6,495.9 C1635.6,495.9 1438.2,525.3 1438.2,525.3 C1438.2,525.3 818.4,530.1 818.4,530.1 C818.4,530.1 765.0081,557.918 722.6961,579.962 " fill="none" id="EmailThroughDEIService-to-EmailGenerator" style="stroke:#181818;stroke-width:0.6;stroke-dasharray:7.0,7.0;"/><polygon fill="none" points="713.118,584.952,724.3594,583.1546,721.0327,576.7693,713.118,584.952" style="stroke:#181818;stroke-width:0.6;"/></g><!--SRC=[fLRDRjiu4BxpAOXSecoSeBqk5WO2EqWDj4YnTXw0aSOornGfa5JRR7RVVOSK9P4otIpIvb1hVh-P-JZafJbosJBD6jeegSg3LWrGgpiWawPbvP7LiBKl0gY6qZ9PYzZ075YbldDPqpqJ9jO8Bi6-j41R9LxS1xdCA9MsYaHUfM36t5ch-NDdOLCgkUL_0_r0oAM0lQLMKSthWwKLTt2uaeHyxK7Ifmrz9Ju0lJE6rt87h7dQa5T2_iM_mMobDBn6Nz9g9GJeZFEan20K_rrdbSLLKDPWxsgG5Rj75GSJAvnB8jY2m0gWsZ5pBFYWO6Dy9tEuHwXhrJ0k9-X_GgiCjqg_3CX72UOEY6yIOPn_8msEiuJYYlwUUiwAcLSnvIqSmg5htdRC-faR-uShRKcXRuQJd2ht6Y3fMTxCOjvjUO2gG_gTQJPWUyIR3SOWvN4NXIlCO8V21JMHLsOeiJeoHbNKYxHBivwWhgzdAlKDWkJ8y4LL82RAjgtW9NFdOGi85e_5G5WSikLbEl0fnwhJ6kSJdE9vFXdGyrZeuCJthj75hDwqoXKU3FQiDCC6B6aPVPd9xG5dBxUuOs1qtk8eSPb8ra0gSTiYIBYqb6bWgG6hAermKs5j6Wysu3ymC-4FT9cAm8dESLXknGn81QRKlFMhPy83Fre_gtMdMQHQCU4OgjqKj4NtDRCmWV6JlVe9k5xp34B9sknKoa3FkT4Nrz4UEM2B_qlWWR8WkuQkeSPXFEwVD1wfSg3iP_NT__y5Ajur_kSdtBwZbqknHNvrmxRvYjLYbVrlhKeS25Jzbs1I3h-LiQqQlbQEao9yh57imcDFGU-H6TJtum4aUFPCjCPCVQlyZ1P9XqyFPdfsMDj6-zvLqOjEjzVQgZCx2ZK1YbNhtMEHDReAyNeJzVpNxD1aqwBSfnrtn3pLgCY77- -BtMDIemlp7dwFYfGYlqJ-W6SONfHqCK-qE8a_ZNVQ82a1hd9B9bF_B-wPwpHwuS8jV8Y5zrmCrhEnnqZUN9UXORrRaUW6Pa-Fc_iVU6ua4tWzuDLcXl7xaxB39rvN7nxyGdpdESh4Mzzljg2_yN6Bl-Dm4iS7UdrpSxA8HaMqQqZyMg4to-JrWeyP7YuwSdejEkkCDF8XyTkHtYxppq6Iaphh6HGTlwjck17AnSUB-MCXQnCULsUotkPgEcyRt-ov3eMSaHaMqiLEPr5uc6ZDUhnd3TEQqS6cJJZlEEtgdmOFDYGWSlNukdwxwE_v6O1UFnYurmoPCc7GaDcTsqJUYmDzdU_GlEXf4npFg5r8CY4U2_2fJiNpzFD02OuFjxSVut8I2EczYYDes14PXtEcQa_8oSR0TFyivxTnVWzaJVy3]--></g></svg>