<?xml version="1.0" encoding="us-ascii" standalone="no"?><svg xmlns="http://www.w3.org/2000/svg" xmlns:xlink="http://www.w3.org/1999/xlink" contentStyleType="text/css" height="1166px" preserveAspectRatio="none" style="width:2136px;height:1166px;background:#FFFFFF;" version="1.1" viewBox="0 0 2136 1166" width="2136px" zoomAndPan="magnify"><defs/><g><!--class AssignTeamUI--><g id="elem_AssignTeamUI"><rect codeLine="11" fill="#F1F1F1" height="48" id="AssignTeamUI" rx="2.5" ry="2.5" style="stroke:#181818;stroke-width:0.5;" width="122" x="502.5" y="53.5"/><ellipse cx="517.5" cy="69.5" fill="#ADD1B2" rx="11" ry="11" style="stroke:#181818;stroke-width:1.0;"/><path d="M520.2656,65.375 Q520.4219,65.1563 520.6094,65.0469 Q520.7969,64.9375 521.0156,64.9375 Q521.3906,64.9375 521.625,65.2031 Q521.8594,65.4531 521.8594,66.0625 L521.8594,67.5156 Q521.8594,68.125 521.625,68.3906 Q521.3906,68.6563 521.0156,68.6563 Q520.6719,68.6563 520.4688,68.4531 Q520.2656,68.2656 520.1563,67.75 Q520.1094,67.3906 519.9219,67.2031 Q519.5938,66.8281 518.9844,66.6094 Q518.375,66.3906 517.75,66.3906 Q516.9844,66.3906 516.3438,66.7188 Q515.7188,67.0469 515.2188,67.7969 Q514.7344,68.5469 514.7344,69.5781 L514.7344,70.6719 Q514.7344,71.9063 515.625,72.7344 Q516.5156,73.5469 518.1094,73.5469 Q519.0469,73.5469 519.7031,73.2969 Q520.0938,73.1406 520.5156,72.7031 Q520.7813,72.4375 520.9219,72.3594 Q521.0781,72.2813 521.2813,72.2813 Q521.6094,72.2813 521.8594,72.5469 Q522.125,72.7969 522.125,73.1406 Q522.125,73.4844 521.7813,73.8906 Q521.2813,74.4688 520.4844,74.7969 Q519.4063,75.25 518.1094,75.25 Q516.5938,75.25 515.3906,74.625 Q514.4063,74.125 513.7188,73.0625 Q513.0313,71.9844 513.0313,70.7031 L513.0313,69.5469 Q513.0313,68.2188 513.6406,67.0781 Q514.2656,65.9219 515.3594,65.3125 Q516.4531,64.6875 517.6875,64.6875 Q518.4219,64.6875 519.0625,64.8594 Q519.7188,65.0156 520.2656,65.375 Z " fill="#000000"/><text fill="#000000" font-family="sans-serif" font-size="14" lengthAdjust="spacing" textLength="90" x="531.5" y="75.2969">AssignTeamUI</text><line style="stroke:#181818;stroke-width:0.5;" x1="503.5" x2="623.5" y1="85.5" y2="85.5"/><line style="stroke:#181818;stroke-width:0.5;" x1="503.5" x2="623.5" y1="93.5" y2="93.5"/></g><!--class AssignTeamController--><g id="elem_AssignTeamController"><rect codeLine="16" fill="#F1F1F1" height="141.1055" id="AssignTeamController" rx="2.5" ry="2.5" style="stroke:#181818;stroke-width:0.5;" width="172" x="659.5" y="7"/><ellipse cx="674.5" cy="23" fill="#ADD1B2" rx="11" ry="11" style="stroke:#181818;stroke-width:1.0;"/><path d="M677.2656,18.875 Q677.4219,18.6563 677.6094,18.5469 Q677.7969,18.4375 678.0156,18.4375 Q678.3906,18.4375 678.625,18.7031 Q678.8594,18.9531 678.8594,19.5625 L678.8594,21.0156 Q678.8594,21.625 678.625,21.8906 Q678.3906,22.1563 678.0156,22.1563 Q677.6719,22.1563 677.4688,21.9531 Q677.2656,21.7656 677.1563,21.25 Q677.1094,20.8906 676.9219,20.7031 Q676.5938,20.3281 675.9844,20.1094 Q675.375,19.8906 674.75,19.8906 Q673.9844,19.8906 673.3438,20.2188 Q672.7188,20.5469 672.2188,21.2969 Q671.7344,22.0469 671.7344,23.0781 L671.7344,24.1719 Q671.7344,25.4063 672.625,26.2344 Q673.5156,27.0469 675.1094,27.0469 Q676.0469,27.0469 676.7031,26.7969 Q677.0938,26.6406 677.5156,26.2031 Q677.7813,25.9375 677.9219,25.8594 Q678.0781,25.7813 678.2813,25.7813 Q678.6094,25.7813 678.8594,26.0469 Q679.125,26.2969 679.125,26.6406 Q679.125,26.9844 678.7813,27.3906 Q678.2813,27.9688 677.4844,28.2969 Q676.4063,28.75 675.1094,28.75 Q673.5938,28.75 672.3906,28.125 Q671.4063,27.625 670.7188,26.5625 Q670.0313,25.4844 670.0313,24.2031 L670.0313,23.0469 Q670.0313,21.7188 670.6406,20.5781 Q671.2656,19.4219 672.3594,18.8125 Q673.4531,18.1875 674.6875,18.1875 Q675.4219,18.1875 676.0625,18.3594 Q676.7188,18.5156 677.2656,18.875 Z " fill="#000000"/><text fill="#000000" font-family="sans-serif" font-size="14" lengthAdjust="spacing" textLength="140" x="688.5" y="28.7969">AssignTeamController</text><line style="stroke:#181818;stroke-width:0.5;" x1="660.5" x2="830.5" y1="39" y2="39"/><line style="stroke:#181818;stroke-width:0.5;" x1="660.5" x2="830.5" y1="47" y2="47"/><text fill="#000000" font-family="sans-serif" font-size="14" lengthAdjust="spacing" textLength="158" x="665.5" y="66.1074">+AssignTeamController()</text><text fill="#000000" font-family="sans-serif" font-size="14" lengthAdjust="spacing" textLength="131" x="665.5" y="84.7285">+getAgendaEntries()</text><text fill="#000000" font-family="sans-serif" font-size="14" lengthAdjust="spacing" textLength="81" x="665.5" y="103.3496">+getTeams()</text><text fill="#000000" font-family="sans-serif" font-size="14" lengthAdjust="spacing" textLength="127" x="665.5" y="121.9707">+getSelectedTask(i)</text><text fill="#000000" font-family="sans-serif" font-size="14" lengthAdjust="spacing" textLength="98" x="665.5" y="140.5918">+assignTeam(i)</text></g><!--class ApplicationSession--><g id="elem_ApplicationSession"><rect codeLine="25" fill="#F1F1F1" height="85.2422" id="ApplicationSession" rx="2.5" ry="2.5" style="stroke:#181818;stroke-width:0.5;" width="151" x="683" y="273.5"/><ellipse cx="698" cy="289.5" fill="#ADD1B2" rx="11" ry="11" style="stroke:#181818;stroke-width:1.0;"/><path d="M700.7656,285.375 Q700.9219,285.1563 701.1094,285.0469 Q701.2969,284.9375 701.5156,284.9375 Q701.8906,284.9375 702.125,285.2031 Q702.3594,285.4531 702.3594,286.0625 L702.3594,287.5156 Q702.3594,288.125 702.125,288.3906 Q701.8906,288.6563 701.5156,288.6563 Q701.1719,288.6563 700.9688,288.4531 Q700.7656,288.2656 700.6563,287.75 Q700.6094,287.3906 700.4219,287.2031 Q700.0938,286.8281 699.4844,286.6094 Q698.875,286.3906 698.25,286.3906 Q697.4844,286.3906 696.8438,286.7188 Q696.2188,287.0469 695.7188,287.7969 Q695.2344,288.5469 695.2344,289.5781 L695.2344,290.6719 Q695.2344,291.9063 696.125,292.7344 Q697.0156,293.5469 698.6094,293.5469 Q699.5469,293.5469 700.2031,293.2969 Q700.5938,293.1406 701.0156,292.7031 Q701.2813,292.4375 701.4219,292.3594 Q701.5781,292.2813 701.7813,292.2813 Q702.1094,292.2813 702.3594,292.5469 Q702.625,292.7969 702.625,293.1406 Q702.625,293.4844 702.2813,293.8906 Q701.7813,294.4688 700.9844,294.7969 Q699.9063,295.25 698.6094,295.25 Q697.0938,295.25 695.8906,294.625 Q694.9063,294.125 694.2188,293.0625 Q693.5313,291.9844 693.5313,290.7031 L693.5313,289.5469 Q693.5313,288.2188 694.1406,287.0781 Q694.7656,285.9219 695.8594,285.3125 Q696.9531,284.6875 698.1875,284.6875 Q698.9219,284.6875 699.5625,284.8594 Q700.2188,285.0156 700.7656,285.375 Z " fill="#000000"/><text fill="#000000" font-family="sans-serif" font-size="14" lengthAdjust="spacing" textLength="119" x="712" y="295.2969">ApplicationSession</text><line style="stroke:#181818;stroke-width:0.5;" x1="684" x2="833" y1="305.5" y2="305.5"/><line style="stroke:#181818;stroke-width:0.5;" x1="684" x2="833" y1="313.5" y2="313.5"/><text fill="#000000" font-family="sans-serif" font-size="14" lengthAdjust="spacing" textLength="128" x="689" y="332.6074">+static getInstance()</text><text fill="#000000" font-family="sans-serif" font-size="14" lengthAdjust="spacing" textLength="136" x="689" y="351.2285">+getCurrentSession()</text></g><!--class Repositories--><g id="elem_Repositories"><rect codeLine="31" fill="#F1F1F1" height="122.4844" id="Repositories" rx="2.5" ry="2.5" style="stroke:#181818;stroke-width:0.5;" width="194" x="935.5" y="16.5"/><ellipse cx="988.75" cy="32.5" fill="#ADD1B2" rx="11" ry="11" style="stroke:#181818;stroke-width:1.0;"/><path d="M991.5156,28.375 Q991.6719,28.1563 991.8594,28.0469 Q992.0469,27.9375 992.2656,27.9375 Q992.6406,27.9375 992.875,28.2031 Q993.1094,28.4531 993.1094,29.0625 L993.1094,30.5156 Q993.1094,31.125 992.875,31.3906 Q992.6406,31.6563 992.2656,31.6563 Q991.9219,31.6563 991.7188,31.4531 Q991.5156,31.2656 991.4063,30.75 Q991.3594,30.3906 991.1719,30.2031 Q990.8438,29.8281 990.2344,29.6094 Q989.625,29.3906 989,29.3906 Q988.2344,29.3906 987.5938,29.7188 Q986.9688,30.0469 986.4688,30.7969 Q985.9844,31.5469 985.9844,32.5781 L985.9844,33.6719 Q985.9844,34.9063 986.875,35.7344 Q987.7656,36.5469 989.3594,36.5469 Q990.2969,36.5469 990.9531,36.2969 Q991.3438,36.1406 991.7656,35.7031 Q992.0313,35.4375 992.1719,35.3594 Q992.3281,35.2813 992.5313,35.2813 Q992.8594,35.2813 993.1094,35.5469 Q993.375,35.7969 993.375,36.1406 Q993.375,36.4844 993.0313,36.8906 Q992.5313,37.4688 991.7344,37.7969 Q990.6563,38.25 989.3594,38.25 Q987.8438,38.25 986.6406,37.625 Q985.6563,37.125 984.9688,36.0625 Q984.2813,34.9844 984.2813,33.7031 L984.2813,32.5469 Q984.2813,31.2188 984.8906,30.0781 Q985.5156,28.9219 986.6094,28.3125 Q987.7031,27.6875 988.9375,27.6875 Q989.6719,27.6875 990.3125,27.8594 Q990.9688,28.0156 991.5156,28.375 Z " fill="#000000"/><text fill="#000000" font-family="sans-serif" font-size="14" lengthAdjust="spacing" textLength="79" x="1009.25" y="38.2969">Repositories</text><line style="stroke:#181818;stroke-width:0.5;" x1="936.5" x2="1128.5" y1="48.5" y2="48.5"/><line style="stroke:#181818;stroke-width:0.5;" x1="936.5" x2="1128.5" y1="56.5" y2="56.5"/><text fill="#000000" font-family="sans-serif" font-size="14" lengthAdjust="spacing" textLength="94" x="941.5" y="75.6074">-Repositories()</text><text fill="#000000" font-family="sans-serif" font-size="14" lengthAdjust="spacing" textLength="182" x="941.5" y="94.2285">+getInstance() : Repositories</text><text fill="#000000" font-family="sans-serif" font-size="14" lengthAdjust="spacing" textLength="87" x="941.5" y="112.8496">+getAgenda()</text><text fill="#000000" font-family="sans-serif" font-size="14" lengthAdjust="spacing" textLength="142" x="941.5" y="131.4707">+getTeamRepository()</text></g><!--class UserSession--><g id="elem_UserSession"><rect codeLine="39" fill="#F1F1F1" height="66.6211" id="UserSession" rx="2.5" ry="2.5" style="stroke:#181818;stroke-width:0.5;" width="113" x="336" y="558.5"/><ellipse cx="351.9" cy="574.5" fill="#ADD1B2" rx="11" ry="11" style="stroke:#181818;stroke-width:1.0;"/><path d="M354.6656,570.375 Q354.8219,570.1563 355.0094,570.0469 Q355.1969,569.9375 355.4156,569.9375 Q355.7906,569.9375 356.025,570.2031 Q356.2594,570.4531 356.2594,571.0625 L356.2594,572.5156 Q356.2594,573.125 356.025,573.3906 Q355.7906,573.6563 355.4156,573.6563 Q355.0719,573.6563 354.8688,573.4531 Q354.6656,573.2656 354.5563,572.75 Q354.5094,572.3906 354.3219,572.2031 Q353.9938,571.8281 353.3844,571.6094 Q352.775,571.3906 352.15,571.3906 Q351.3844,571.3906 350.7438,571.7188 Q350.1188,572.0469 349.6188,572.7969 Q349.1344,573.5469 349.1344,574.5781 L349.1344,575.6719 Q349.1344,576.9063 350.025,577.7344 Q350.9156,578.5469 352.5094,578.5469 Q353.4469,578.5469 354.1031,578.2969 Q354.4938,578.1406 354.9156,577.7031 Q355.1813,577.4375 355.3219,577.3594 Q355.4781,577.2813 355.6813,577.2813 Q356.0094,577.2813 356.2594,577.5469 Q356.525,577.7969 356.525,578.1406 Q356.525,578.4844 356.1813,578.8906 Q355.6813,579.4688 354.8844,579.7969 Q353.8063,580.25 352.5094,580.25 Q350.9938,580.25 349.7906,579.625 Q348.8063,579.125 348.1188,578.0625 Q347.4313,576.9844 347.4313,575.7031 L347.4313,574.5469 Q347.4313,573.2188 348.0406,572.0781 Q348.6656,570.9219 349.7594,570.3125 Q350.8531,569.6875 352.0875,569.6875 Q352.8219,569.6875 353.4625,569.8594 Q354.1188,570.0156 354.6656,570.375 Z " fill="#000000"/><text fill="#000000" font-family="sans-serif" font-size="14" lengthAdjust="spacing" textLength="79" x="366.1" y="580.2969">UserSession</text><line style="stroke:#181818;stroke-width:0.5;" x1="337" x2="448" y1="590.5" y2="590.5"/><line style="stroke:#181818;stroke-width:0.5;" x1="337" x2="448" y1="598.5" y2="598.5"/><text fill="#000000" font-family="sans-serif" font-size="14" lengthAdjust="spacing" textLength="101" x="342" y="617.6074">+getUserEmail()</text></g><!--class Agenda--><g id="elem_Agenda"><rect codeLine="44" fill="#F1F1F1" height="178.3477" id="Agenda" rx="2.5" ry="2.5" style="stroke:#181818;stroke-width:0.5;" width="343" x="1138" y="227"/><ellipse cx="1280.75" cy="243" fill="#ADD1B2" rx="11" ry="11" style="stroke:#181818;stroke-width:1.0;"/><path d="M1283.5156,238.875 Q1283.6719,238.6563 1283.8594,238.5469 Q1284.0469,238.4375 1284.2656,238.4375 Q1284.6406,238.4375 1284.875,238.7031 Q1285.1094,238.9531 1285.1094,239.5625 L1285.1094,241.0156 Q1285.1094,241.625 1284.875,241.8906 Q1284.6406,242.1563 1284.2656,242.1563 Q1283.9219,242.1563 1283.7188,241.9531 Q1283.5156,241.7656 1283.4063,241.25 Q1283.3594,240.8906 1283.1719,240.7031 Q1282.8438,240.3281 1282.2344,240.1094 Q1281.625,239.8906 1281,239.8906 Q1280.2344,239.8906 1279.5938,240.2188 Q1278.9688,240.5469 1278.4688,241.2969 Q1277.9844,242.0469 1277.9844,243.0781 L1277.9844,244.1719 Q1277.9844,245.4063 1278.875,246.2344 Q1279.7656,247.0469 1281.3594,247.0469 Q1282.2969,247.0469 1282.9531,246.7969 Q1283.3438,246.6406 1283.7656,246.2031 Q1284.0313,245.9375 1284.1719,245.8594 Q1284.3281,245.7813 1284.5313,245.7813 Q1284.8594,245.7813 1285.1094,246.0469 Q1285.375,246.2969 1285.375,246.6406 Q1285.375,246.9844 1285.0313,247.3906 Q1284.5313,247.9688 1283.7344,248.2969 Q1282.6563,248.75 1281.3594,248.75 Q1279.8438,248.75 1278.6406,248.125 Q1277.6563,247.625 1276.9688,246.5625 Q1276.2813,245.4844 1276.2813,244.2031 L1276.2813,243.0469 Q1276.2813,241.7188 1276.8906,240.5781 Q1277.5156,239.4219 1278.6094,238.8125 Q1279.7031,238.1875 1280.9375,238.1875 Q1281.6719,238.1875 1282.3125,238.3594 Q1282.9688,238.5156 1283.5156,238.875 Z " fill="#000000"/><text fill="#000000" font-family="sans-serif" font-size="14" lengthAdjust="spacing" textLength="49" x="1301.25" y="248.7969">Agenda</text><line style="stroke:#181818;stroke-width:0.5;" x1="1139" x2="1480" y1="259" y2="259"/><text fill="#000000" font-family="sans-serif" font-size="14" lengthAdjust="spacing" textLength="143" x="1144" y="278.1074">-List&lt;Task&gt; entriesList</text><text fill="#000000" font-family="sans-serif" font-size="14" lengthAdjust="spacing" textLength="218" x="1144" y="296.7285">-List&lt;Task&gt; freeAgendaEntriesList</text><text fill="#000000" font-family="sans-serif" font-size="14" lengthAdjust="spacing" textLength="168" x="1144" y="315.3496">-List&lt;Task&gt; teamSchedule</text><line style="stroke:#181818;stroke-width:0.5;" x1="1139" x2="1480" y1="322.8633" y2="322.8633"/><text fill="#000000" font-family="sans-serif" font-size="14" lengthAdjust="spacing" textLength="164" x="1144" y="341.9707">+getAgendaEntries(email)</text><text fill="#000000" font-family="sans-serif" font-size="14" lengthAdjust="spacing" textLength="127" x="1144" y="360.5918">+getSelectedTask(i)</text><text fill="#000000" font-family="sans-serif" font-size="14" lengthAdjust="spacing" textLength="331" x="1144" y="379.2129">+checkTeamSchedule(selectedTeam, selectedTask)</text><text fill="#000000" font-family="sans-serif" font-size="14" lengthAdjust="spacing" textLength="276" x="1144" y="397.834">+assignTeam(selectedTask, selectedTeam)</text></g><!--class TaskMapper--><g id="elem_TaskMapper"><rect codeLine="55" fill="#F1F1F1" height="103.8633" id="TaskMapper" rx="2.5" ry="2.5" style="stroke:#181818;stroke-width:0.5;" width="274" x="373.5" y="264"/><ellipse cx="466.75" cy="280" fill="#ADD1B2" rx="11" ry="11" style="stroke:#181818;stroke-width:1.0;"/><path d="M469.5156,275.875 Q469.6719,275.6563 469.8594,275.5469 Q470.0469,275.4375 470.2656,275.4375 Q470.6406,275.4375 470.875,275.7031 Q471.1094,275.9531 471.1094,276.5625 L471.1094,278.0156 Q471.1094,278.625 470.875,278.8906 Q470.6406,279.1563 470.2656,279.1563 Q469.9219,279.1563 469.7188,278.9531 Q469.5156,278.7656 469.4063,278.25 Q469.3594,277.8906 469.1719,277.7031 Q468.8438,277.3281 468.2344,277.1094 Q467.625,276.8906 467,276.8906 Q466.2344,276.8906 465.5938,277.2188 Q464.9688,277.5469 464.4688,278.2969 Q463.9844,279.0469 463.9844,280.0781 L463.9844,281.1719 Q463.9844,282.4063 464.875,283.2344 Q465.7656,284.0469 467.3594,284.0469 Q468.2969,284.0469 468.9531,283.7969 Q469.3438,283.6406 469.7656,283.2031 Q470.0313,282.9375 470.1719,282.8594 Q470.3281,282.7813 470.5313,282.7813 Q470.8594,282.7813 471.1094,283.0469 Q471.375,283.2969 471.375,283.6406 Q471.375,283.9844 471.0313,284.3906 Q470.5313,284.9688 469.7344,285.2969 Q468.6563,285.75 467.3594,285.75 Q465.8438,285.75 464.6406,285.125 Q463.6563,284.625 462.9688,283.5625 Q462.2813,282.4844 462.2813,281.2031 L462.2813,280.0469 Q462.2813,278.7188 462.8906,277.5781 Q463.5156,276.4219 464.6094,275.8125 Q465.7031,275.1875 466.9375,275.1875 Q467.6719,275.1875 468.3125,275.3594 Q468.9688,275.5156 469.5156,275.875 Z " fill="#000000"/><text fill="#000000" font-family="sans-serif" font-size="14" lengthAdjust="spacing" textLength="79" x="487.25" y="285.7969">TaskMapper</text><line style="stroke:#181818;stroke-width:0.5;" x1="374.5" x2="646.5" y1="296" y2="296"/><text fill="#000000" font-family="sans-serif" font-size="14" lengthAdjust="spacing" textLength="262" x="379.5" y="315.1074">-List&lt;TaskDto&gt; freeAgendaEntriesListDto</text><line style="stroke:#181818;stroke-width:0.5;" x1="374.5" x2="646.5" y1="322.6211" y2="322.6211"/><text fill="#000000" font-family="sans-serif" font-size="14" lengthAdjust="spacing" textLength="200" x="379.5" y="341.7285">+toDTO(freeAgendaEntriesList)</text><text fill="#000000" font-family="sans-serif" font-size="14" lengthAdjust="spacing" textLength="76" x="379.5" y="360.3496">-toDTO(obj)</text></g><!--class TaskDto--><g id="elem_TaskDto"><rect codeLine="62" fill="#F1F1F1" height="159.7266" id="TaskDto" rx="2.5" ry="2.5" style="stroke:#181818;stroke-width:0.5;" width="647" x="160" y="779"/><ellipse cx="452.75" cy="795" fill="#ADD1B2" rx="11" ry="11" style="stroke:#181818;stroke-width:1.0;"/><path d="M455.5156,790.875 Q455.6719,790.6563 455.8594,790.5469 Q456.0469,790.4375 456.2656,790.4375 Q456.6406,790.4375 456.875,790.7031 Q457.1094,790.9531 457.1094,791.5625 L457.1094,793.0156 Q457.1094,793.625 456.875,793.8906 Q456.6406,794.1563 456.2656,794.1563 Q455.9219,794.1563 455.7188,793.9531 Q455.5156,793.7656 455.4063,793.25 Q455.3594,792.8906 455.1719,792.7031 Q454.8438,792.3281 454.2344,792.1094 Q453.625,791.8906 453,791.8906 Q452.2344,791.8906 451.5938,792.2188 Q450.9688,792.5469 450.4688,793.2969 Q449.9844,794.0469 449.9844,795.0781 L449.9844,796.1719 Q449.9844,797.4063 450.875,798.2344 Q451.7656,799.0469 453.3594,799.0469 Q454.2969,799.0469 454.9531,798.7969 Q455.3438,798.6406 455.7656,798.2031 Q456.0313,797.9375 456.1719,797.8594 Q456.3281,797.7813 456.5313,797.7813 Q456.8594,797.7813 457.1094,798.0469 Q457.375,798.2969 457.375,798.6406 Q457.375,798.9844 457.0313,799.3906 Q456.5313,799.9688 455.7344,800.2969 Q454.6563,800.75 453.3594,800.75 Q451.8438,800.75 450.6406,800.125 Q449.6563,799.625 448.9688,798.5625 Q448.2813,797.4844 448.2813,796.2031 L448.2813,795.0469 Q448.2813,793.7188 448.8906,792.5781 Q449.5156,791.4219 450.6094,790.8125 Q451.7031,790.1875 452.9375,790.1875 Q453.6719,790.1875 454.3125,790.3594 Q454.9688,790.5156 455.5156,790.875 Z " fill="#000000"/><text fill="#000000" font-family="sans-serif" font-size="14" lengthAdjust="spacing" textLength="53" x="473.25" y="800.7969">TaskDto</text><line style="stroke:#181818;stroke-width:0.5;" x1="161" x2="806" y1="811" y2="811"/><text fill="#000000" font-family="sans-serif" font-size="14" lengthAdjust="spacing" textLength="68" x="166" y="830.1074">-String title</text><text fill="#000000" font-family="sans-serif" font-size="14" lengthAdjust="spacing" textLength="115" x="166" y="848.7285">-String description</text><text fill="#000000" font-family="sans-serif" font-size="14" lengthAdjust="spacing" textLength="158" x="166" y="867.3496">-String degreeOfUrgency</text><text fill="#000000" font-family="sans-serif" font-size="14" lengthAdjust="spacing" textLength="135" x="166" y="885.9707">-int expectedDuration</text><text fill="#000000" font-family="sans-serif" font-size="14" lengthAdjust="spacing" textLength="144" x="166" y="904.5918">-Calendar startingDate</text><line style="stroke:#181818;stroke-width:0.5;" x1="161" x2="806" y1="912.1055" y2="912.1055"/><text fill="#000000" font-family="sans-serif" font-size="14" lengthAdjust="spacing" textLength="635" x="166" y="931.2129">+TaskDto(title, description, degreeOfUrgency, expectedDuration, selectedGreenSpace, startingDate)</text></g><!--class Task--><g id="elem_Task"><rect codeLine="72" fill="#F1F1F1" height="215.5898" id="Task" rx="2.5" ry="2.5" style="stroke:#181818;stroke-width:0.5;" width="222" x="1198.5" y="484"/><ellipse cx="1289.75" cy="500" fill="#ADD1B2" rx="11" ry="11" style="stroke:#181818;stroke-width:1.0;"/><path d="M1292.5156,495.875 Q1292.6719,495.6563 1292.8594,495.5469 Q1293.0469,495.4375 1293.2656,495.4375 Q1293.6406,495.4375 1293.875,495.7031 Q1294.1094,495.9531 1294.1094,496.5625 L1294.1094,498.0156 Q1294.1094,498.625 1293.875,498.8906 Q1293.6406,499.1563 1293.2656,499.1563 Q1292.9219,499.1563 1292.7188,498.9531 Q1292.5156,498.7656 1292.4063,498.25 Q1292.3594,497.8906 1292.1719,497.7031 Q1291.8438,497.3281 1291.2344,497.1094 Q1290.625,496.8906 1290,496.8906 Q1289.2344,496.8906 1288.5938,497.2188 Q1287.9688,497.5469 1287.4688,498.2969 Q1286.9844,499.0469 1286.9844,500.0781 L1286.9844,501.1719 Q1286.9844,502.4063 1287.875,503.2344 Q1288.7656,504.0469 1290.3594,504.0469 Q1291.2969,504.0469 1291.9531,503.7969 Q1292.3438,503.6406 1292.7656,503.2031 Q1293.0313,502.9375 1293.1719,502.8594 Q1293.3281,502.7813 1293.5313,502.7813 Q1293.8594,502.7813 1294.1094,503.0469 Q1294.375,503.2969 1294.375,503.6406 Q1294.375,503.9844 1294.0313,504.3906 Q1293.5313,504.9688 1292.7344,505.2969 Q1291.6563,505.75 1290.3594,505.75 Q1288.8438,505.75 1287.6406,505.125 Q1286.6563,504.625 1285.9688,503.5625 Q1285.2813,502.4844 1285.2813,501.2031 L1285.2813,500.0469 Q1285.2813,498.7188 1285.8906,497.5781 Q1286.5156,496.4219 1287.6094,495.8125 Q1288.7031,495.1875 1289.9375,495.1875 Q1290.6719,495.1875 1291.3125,495.3594 Q1291.9688,495.5156 1292.5156,495.875 Z " fill="#000000"/><text fill="#000000" font-family="sans-serif" font-size="14" lengthAdjust="spacing" textLength="31" x="1310.25" y="505.7969">Task</text><line style="stroke:#181818;stroke-width:0.5;" x1="1199.5" x2="1419.5" y1="516" y2="516"/><text fill="#000000" font-family="sans-serif" font-size="14" lengthAdjust="spacing" textLength="68" x="1204.5" y="535.1074">-String title</text><text fill="#000000" font-family="sans-serif" font-size="14" lengthAdjust="spacing" textLength="115" x="1204.5" y="553.7285">-String description</text><text fill="#000000" font-family="sans-serif" font-size="14" lengthAdjust="spacing" textLength="135" x="1204.5" y="572.3496">-int expectedDuration</text><text fill="#000000" font-family="sans-serif" font-size="14" lengthAdjust="spacing" textLength="144" x="1204.5" y="590.9707">-Calendar startingDate</text><line style="stroke:#181818;stroke-width:0.5;" x1="1199.5" x2="1419.5" y1="598.4844" y2="598.4844"/><text fill="#000000" font-family="sans-serif" font-size="14" lengthAdjust="spacing" textLength="77" x="1204.5" y="617.5918">+hasTeam()</text><text fill="#000000" font-family="sans-serif" font-size="14" lengthAdjust="spacing" textLength="137" x="1204.5" y="636.2129">+hasUserEmail(email)</text><text fill="#000000" font-family="sans-serif" font-size="14" lengthAdjust="spacing" textLength="210" x="1204.5" y="654.834">+belongsToTeam(selectedTeam)</text><text fill="#000000" font-family="sans-serif" font-size="14" lengthAdjust="spacing" textLength="172" x="1204.5" y="673.4551">+hasConflict(selectedTask)</text><text fill="#000000" font-family="sans-serif" font-size="14" lengthAdjust="spacing" textLength="184" x="1204.5" y="692.0762">+assignTeam(selectedTeam)</text></g><!--class DegreeOfUrgency--><g id="elem_DegreeOfUrgency"><rect codeLine="85" fill="#F1F1F1" height="103.8633" id="DegreeOfUrgency" rx="2.5" ry="2.5" style="stroke:#181818;stroke-width:0.5;" width="146" x="1254.5" y="807"/><ellipse cx="1269.5" cy="823" fill="#EB937F" rx="11" ry="11" style="stroke:#181818;stroke-width:1.0;"/><path d="M1268.3594,823.7969 L1268.3594,826.2969 L1272.6875,826.2969 L1272.6875,825.375 Q1272.6875,824.7656 1272.9219,824.5 Q1273.1719,824.2344 1273.5469,824.2344 Q1273.9219,824.2344 1274.1563,824.5 Q1274.3906,824.7656 1274.3906,825.375 L1274.3906,828 L1266.3906,828 Q1265.7656,828 1265.5,827.7656 Q1265.25,827.5313 1265.25,827.1406 Q1265.25,826.7656 1265.5156,826.5313 Q1265.7813,826.2969 1266.3906,826.2969 L1266.6563,826.2969 L1266.6563,819.6406 L1266.3906,819.6406 Q1265.7656,819.6406 1265.5,819.4063 Q1265.25,819.1719 1265.25,818.7813 Q1265.25,818.4063 1265.5,818.1719 Q1265.7656,817.9375 1266.3906,817.9375 L1274.0156,817.9375 L1274.0156,820.5313 Q1274.0156,821.1406 1273.7813,821.4063 Q1273.5625,821.6563 1273.1719,821.6563 Q1272.7969,821.6563 1272.5625,821.4063 Q1272.3281,821.1406 1272.3281,820.5313 L1272.3281,819.6406 L1268.3594,819.6406 L1268.3594,822.0938 L1269.8438,822.0938 Q1269.8438,821.4375 1269.9688,821.25 Q1270.2344,820.8438 1270.7031,820.8438 Q1271.0781,820.8438 1271.3125,821.1094 Q1271.5469,821.3594 1271.5469,821.9688 L1271.5469,823.9375 Q1271.5469,824.4844 1271.4219,824.6719 Q1271.1563,825.0625 1270.7031,825.0625 Q1270.2344,825.0625 1269.9688,824.6563 Q1269.8438,824.4688 1269.8438,823.7969 L1268.3594,823.7969 Z " fill="#000000"/><text fill="#000000" font-family="sans-serif" font-size="14" lengthAdjust="spacing" textLength="114" x="1283.5" y="828.7969">DegreeOfUrgency</text><line style="stroke:#181818;stroke-width:0.5;" x1="1255.5" x2="1399.5" y1="839" y2="839"/><text fill="#000000" font-family="sans-serif" font-size="14" lengthAdjust="spacing" textLength="25" x="1260.5" y="858.1074">Low</text><text fill="#000000" font-family="sans-serif" font-size="14" lengthAdjust="spacing" textLength="49" x="1260.5" y="876.7285">Medium</text><text fill="#000000" font-family="sans-serif" font-size="14" lengthAdjust="spacing" textLength="28" x="1260.5" y="895.3496">High</text><line style="stroke:#181818;stroke-width:0.5;" x1="1255.5" x2="1399.5" y1="902.8633" y2="902.8633"/></g><!--class GSTaskStatus--><g id="elem_GSTaskStatus"><rect codeLine="92" fill="#F1F1F1" height="159.7266" id="GSTaskStatus" rx="2.5" ry="2.5" style="stroke:#181818;stroke-width:0.5;" width="123" x="1096" y="779"/><ellipse cx="1111" cy="795" fill="#EB937F" rx="11" ry="11" style="stroke:#181818;stroke-width:1.0;"/><path d="M1109.8594,795.7969 L1109.8594,798.2969 L1114.1875,798.2969 L1114.1875,797.375 Q1114.1875,796.7656 1114.4219,796.5 Q1114.6719,796.2344 1115.0469,796.2344 Q1115.4219,796.2344 1115.6563,796.5 Q1115.8906,796.7656 1115.8906,797.375 L1115.8906,800 L1107.8906,800 Q1107.2656,800 1107,799.7656 Q1106.75,799.5313 1106.75,799.1406 Q1106.75,798.7656 1107.0156,798.5313 Q1107.2813,798.2969 1107.8906,798.2969 L1108.1563,798.2969 L1108.1563,791.6406 L1107.8906,791.6406 Q1107.2656,791.6406 1107,791.4063 Q1106.75,791.1719 1106.75,790.7813 Q1106.75,790.4063 1107,790.1719 Q1107.2656,789.9375 1107.8906,789.9375 L1115.5156,789.9375 L1115.5156,792.5313 Q1115.5156,793.1406 1115.2813,793.4063 Q1115.0625,793.6563 1114.6719,793.6563 Q1114.2969,793.6563 1114.0625,793.4063 Q1113.8281,793.1406 1113.8281,792.5313 L1113.8281,791.6406 L1109.8594,791.6406 L1109.8594,794.0938 L1111.3438,794.0938 Q1111.3438,793.4375 1111.4688,793.25 Q1111.7344,792.8438 1112.2031,792.8438 Q1112.5781,792.8438 1112.8125,793.1094 Q1113.0469,793.3594 1113.0469,793.9688 L1113.0469,795.9375 Q1113.0469,796.4844 1112.9219,796.6719 Q1112.6563,797.0625 1112.2031,797.0625 Q1111.7344,797.0625 1111.4688,796.6563 Q1111.3438,796.4688 1111.3438,795.7969 L1109.8594,795.7969 Z " fill="#000000"/><text fill="#000000" font-family="sans-serif" font-size="14" lengthAdjust="spacing" textLength="91" x="1125" y="800.7969">GSTaskStatus</text><line style="stroke:#181818;stroke-width:0.5;" x1="1097" x2="1218" y1="811" y2="811"/><text fill="#000000" font-family="sans-serif" font-size="14" lengthAdjust="spacing" textLength="52" x="1102" y="830.1074">Pending</text><text fill="#000000" font-family="sans-serif" font-size="14" lengthAdjust="spacing" textLength="67" x="1102" y="848.7285">Processed</text><text fill="#000000" font-family="sans-serif" font-size="14" lengthAdjust="spacing" textLength="52" x="1102" y="867.3496">Planned</text><text fill="#000000" font-family="sans-serif" font-size="14" lengthAdjust="spacing" textLength="68" x="1102" y="885.9707">Postponed</text><text fill="#000000" font-family="sans-serif" font-size="14" lengthAdjust="spacing" textLength="60" x="1102" y="904.5918">Canceled</text><text fill="#000000" font-family="sans-serif" font-size="14" lengthAdjust="spacing" textLength="34" x="1102" y="923.2129">Done</text><line style="stroke:#181818;stroke-width:0.5;" x1="1097" x2="1218" y1="930.7266" y2="930.7266"/></g><!--class TeamRepository--><g id="elem_TeamRepository"><rect codeLine="102" fill="#F1F1F1" height="103.8633" id="TeamRepository" rx="2.5" ry="2.5" style="stroke:#181818;stroke-width:0.5;" width="155" x="948" y="264"/><ellipse cx="971.55" cy="280" fill="#ADD1B2" rx="11" ry="11" style="stroke:#181818;stroke-width:1.0;"/><path d="M974.3156,275.875 Q974.4719,275.6563 974.6594,275.5469 Q974.8469,275.4375 975.0656,275.4375 Q975.4406,275.4375 975.675,275.7031 Q975.9094,275.9531 975.9094,276.5625 L975.9094,278.0156 Q975.9094,278.625 975.675,278.8906 Q975.4406,279.1563 975.0656,279.1563 Q974.7219,279.1563 974.5188,278.9531 Q974.3156,278.7656 974.2063,278.25 Q974.1594,277.8906 973.9719,277.7031 Q973.6438,277.3281 973.0344,277.1094 Q972.425,276.8906 971.8,276.8906 Q971.0344,276.8906 970.3938,277.2188 Q969.7688,277.5469 969.2688,278.2969 Q968.7844,279.0469 968.7844,280.0781 L968.7844,281.1719 Q968.7844,282.4063 969.675,283.2344 Q970.5656,284.0469 972.1594,284.0469 Q973.0969,284.0469 973.7531,283.7969 Q974.1438,283.6406 974.5656,283.2031 Q974.8313,282.9375 974.9719,282.8594 Q975.1281,282.7813 975.3313,282.7813 Q975.6594,282.7813 975.9094,283.0469 Q976.175,283.2969 976.175,283.6406 Q976.175,283.9844 975.8313,284.3906 Q975.3313,284.9688 974.5344,285.2969 Q973.4563,285.75 972.1594,285.75 Q970.6438,285.75 969.4406,285.125 Q968.4563,284.625 967.7688,283.5625 Q967.0813,282.4844 967.0813,281.2031 L967.0813,280.0469 Q967.0813,278.7188 967.6906,277.5781 Q968.3156,276.4219 969.4094,275.8125 Q970.5031,275.1875 971.7375,275.1875 Q972.4719,275.1875 973.1125,275.3594 Q973.7688,275.5156 974.3156,275.875 Z " fill="#000000"/><text fill="#000000" font-family="sans-serif" font-size="14" lengthAdjust="spacing" textLength="104" x="987.45" y="285.7969">TeamRepository</text><line style="stroke:#181818;stroke-width:0.5;" x1="949" x2="1102" y1="296" y2="296"/><text fill="#000000" font-family="sans-serif" font-size="14" lengthAdjust="spacing" textLength="143" x="954" y="315.1074">-List&lt;Team&gt; teamsList</text><line style="stroke:#181818;stroke-width:0.5;" x1="949" x2="1102" y1="322.6211" y2="322.6211"/><text fill="#000000" font-family="sans-serif" font-size="14" lengthAdjust="spacing" textLength="81" x="954" y="341.7285">+getTeams()</text><text fill="#000000" font-family="sans-serif" font-size="14" lengthAdjust="spacing" textLength="132" x="954" y="360.3496">+getSelectedTeam(i)</text></g><!--class TeamMapper--><g id="elem_TeamMapper"><rect codeLine="109" fill="#F1F1F1" height="103.8633" id="TeamMapper" rx="2.5" ry="2.5" style="stroke:#181818;stroke-width:0.5;" width="199" x="68" y="264"/><ellipse cx="121.25" cy="280" fill="#ADD1B2" rx="11" ry="11" style="stroke:#181818;stroke-width:1.0;"/><path d="M124.0156,275.875 Q124.1719,275.6563 124.3594,275.5469 Q124.5469,275.4375 124.7656,275.4375 Q125.1406,275.4375 125.375,275.7031 Q125.6094,275.9531 125.6094,276.5625 L125.6094,278.0156 Q125.6094,278.625 125.375,278.8906 Q125.1406,279.1563 124.7656,279.1563 Q124.4219,279.1563 124.2188,278.9531 Q124.0156,278.7656 123.9063,278.25 Q123.8594,277.8906 123.6719,277.7031 Q123.3438,277.3281 122.7344,277.1094 Q122.125,276.8906 121.5,276.8906 Q120.7344,276.8906 120.0938,277.2188 Q119.4688,277.5469 118.9688,278.2969 Q118.4844,279.0469 118.4844,280.0781 L118.4844,281.1719 Q118.4844,282.4063 119.375,283.2344 Q120.2656,284.0469 121.8594,284.0469 Q122.7969,284.0469 123.4531,283.7969 Q123.8438,283.6406 124.2656,283.2031 Q124.5313,282.9375 124.6719,282.8594 Q124.8281,282.7813 125.0313,282.7813 Q125.3594,282.7813 125.6094,283.0469 Q125.875,283.2969 125.875,283.6406 Q125.875,283.9844 125.5313,284.3906 Q125.0313,284.9688 124.2344,285.2969 Q123.1563,285.75 121.8594,285.75 Q120.3438,285.75 119.1406,285.125 Q118.1563,284.625 117.4688,283.5625 Q116.7813,282.4844 116.7813,281.2031 L116.7813,280.0469 Q116.7813,278.7188 117.3906,277.5781 Q118.0156,276.4219 119.1094,275.8125 Q120.2031,275.1875 121.4375,275.1875 Q122.1719,275.1875 122.8125,275.3594 Q123.4688,275.5156 124.0156,275.875 Z " fill="#000000"/><text fill="#000000" font-family="sans-serif" font-size="14" lengthAdjust="spacing" textLength="84" x="141.75" y="285.7969">TeamMapper</text><line style="stroke:#181818;stroke-width:0.5;" x1="69" x2="266" y1="296" y2="296"/><text fill="#000000" font-family="sans-serif" font-size="14" lengthAdjust="spacing" textLength="187" x="74" y="315.1074">-List&lt;TeamDto&gt; teamsListDto</text><line style="stroke:#181818;stroke-width:0.5;" x1="69" x2="266" y1="322.6211" y2="322.6211"/><text fill="#000000" font-family="sans-serif" font-size="14" lengthAdjust="spacing" textLength="120" x="74" y="341.7285">+toDTO(teamsList)</text><text fill="#000000" font-family="sans-serif" font-size="14" lengthAdjust="spacing" textLength="76" x="74" y="360.3496">-toDTO(obj)</text></g><!--class TeamDto--><g id="elem_TeamDto"><rect codeLine="116" fill="#F1F1F1" height="85.2422" id="TeamDto" rx="2.5" ry="2.5" style="stroke:#181818;stroke-width:0.5;" width="219" x="7" y="549.5"/><ellipse cx="83.25" cy="565.5" fill="#ADD1B2" rx="11" ry="11" style="stroke:#181818;stroke-width:1.0;"/><path d="M86.0156,561.375 Q86.1719,561.1563 86.3594,561.0469 Q86.5469,560.9375 86.7656,560.9375 Q87.1406,560.9375 87.375,561.2031 Q87.6094,561.4531 87.6094,562.0625 L87.6094,563.5156 Q87.6094,564.125 87.375,564.3906 Q87.1406,564.6563 86.7656,564.6563 Q86.4219,564.6563 86.2188,564.4531 Q86.0156,564.2656 85.9063,563.75 Q85.8594,563.3906 85.6719,563.2031 Q85.3438,562.8281 84.7344,562.6094 Q84.125,562.3906 83.5,562.3906 Q82.7344,562.3906 82.0938,562.7188 Q81.4688,563.0469 80.9688,563.7969 Q80.4844,564.5469 80.4844,565.5781 L80.4844,566.6719 Q80.4844,567.9063 81.375,568.7344 Q82.2656,569.5469 83.8594,569.5469 Q84.7969,569.5469 85.4531,569.2969 Q85.8438,569.1406 86.2656,568.7031 Q86.5313,568.4375 86.6719,568.3594 Q86.8281,568.2813 87.0313,568.2813 Q87.3594,568.2813 87.6094,568.5469 Q87.875,568.7969 87.875,569.1406 Q87.875,569.4844 87.5313,569.8906 Q87.0313,570.4688 86.2344,570.7969 Q85.1563,571.25 83.8594,571.25 Q82.3438,571.25 81.1406,570.625 Q80.1563,570.125 79.4688,569.0625 Q78.7813,567.9844 78.7813,566.7031 L78.7813,565.5469 Q78.7813,564.2188 79.3906,563.0781 Q80.0156,561.9219 81.1094,561.3125 Q82.2031,560.6875 83.4375,560.6875 Q84.1719,560.6875 84.8125,560.8594 Q85.4688,561.0156 86.0156,561.375 Z " fill="#000000"/><text fill="#000000" font-family="sans-serif" font-size="14" lengthAdjust="spacing" textLength="58" x="103.75" y="571.2969">TeamDto</text><line style="stroke:#181818;stroke-width:0.5;" x1="8" x2="225" y1="581.5" y2="581.5"/><text fill="#000000" font-family="sans-serif" font-size="14" lengthAdjust="spacing" textLength="207" x="13" y="600.6074">-List&lt;Collaborator&gt; collaborators</text><line style="stroke:#181818;stroke-width:0.5;" x1="8" x2="225" y1="608.1211" y2="608.1211"/><text fill="#000000" font-family="sans-serif" font-size="14" lengthAdjust="spacing" textLength="158" x="13" y="627.2285">+TeamDto(collaborators)</text></g><!--class Team--><g id="elem_Team"><rect codeLine="122" fill="#F1F1F1" height="66.6211" id="Team" rx="2.5" ry="2.5" style="stroke:#181818;stroke-width:0.5;" width="219" x="842" y="825.5"/><ellipse cx="929.25" cy="841.5" fill="#ADD1B2" rx="11" ry="11" style="stroke:#181818;stroke-width:1.0;"/><path d="M932.0156,837.375 Q932.1719,837.1563 932.3594,837.0469 Q932.5469,836.9375 932.7656,836.9375 Q933.1406,836.9375 933.375,837.2031 Q933.6094,837.4531 933.6094,838.0625 L933.6094,839.5156 Q933.6094,840.125 933.375,840.3906 Q933.1406,840.6563 932.7656,840.6563 Q932.4219,840.6563 932.2188,840.4531 Q932.0156,840.2656 931.9063,839.75 Q931.8594,839.3906 931.6719,839.2031 Q931.3438,838.8281 930.7344,838.6094 Q930.125,838.3906 929.5,838.3906 Q928.7344,838.3906 928.0938,838.7188 Q927.4688,839.0469 926.9688,839.7969 Q926.4844,840.5469 926.4844,841.5781 L926.4844,842.6719 Q926.4844,843.9063 927.375,844.7344 Q928.2656,845.5469 929.8594,845.5469 Q930.7969,845.5469 931.4531,845.2969 Q931.8438,845.1406 932.2656,844.7031 Q932.5313,844.4375 932.6719,844.3594 Q932.8281,844.2813 933.0313,844.2813 Q933.3594,844.2813 933.6094,844.5469 Q933.875,844.7969 933.875,845.1406 Q933.875,845.4844 933.5313,845.8906 Q933.0313,846.4688 932.2344,846.7969 Q931.1563,847.25 929.8594,847.25 Q928.3438,847.25 927.1406,846.625 Q926.1563,846.125 925.4688,845.0625 Q924.7813,843.9844 924.7813,842.7031 L924.7813,841.5469 Q924.7813,840.2188 925.3906,839.0781 Q926.0156,837.9219 927.1094,837.3125 Q928.2031,836.6875 929.4375,836.6875 Q930.1719,836.6875 930.8125,836.8594 Q931.4688,837.0156 932.0156,837.375 Z " fill="#000000"/><text fill="#000000" font-family="sans-serif" font-size="14" lengthAdjust="spacing" textLength="36" x="949.75" y="847.2969">Team</text><line style="stroke:#181818;stroke-width:0.5;" x1="843" x2="1060" y1="857.5" y2="857.5"/><text fill="#000000" font-family="sans-serif" font-size="14" lengthAdjust="spacing" textLength="207" x="848" y="876.6074">-List&lt;Collaborator&gt; collaborators</text><line style="stroke:#181818;stroke-width:0.5;" x1="843" x2="1060" y1="884.1211" y2="884.1211"/></g><!--class GreenSpace--><g id="elem_GreenSpace"><rect codeLine="127" fill="#F1F1F1" height="159.7266" id="GreenSpace" rx="2.5" ry="2.5" style="stroke:#181818;stroke-width:0.5;" width="149" x="894" y="1000"/><ellipse cx="925.65" cy="1016" fill="#ADD1B2" rx="11" ry="11" style="stroke:#181818;stroke-width:1.0;"/><path d="M928.4156,1011.875 Q928.5719,1011.6563 928.7594,1011.5469 Q928.9469,1011.4375 929.1656,1011.4375 Q929.5406,1011.4375 929.775,1011.7031 Q930.0094,1011.9531 930.0094,1012.5625 L930.0094,1014.0156 Q930.0094,1014.625 929.775,1014.8906 Q929.5406,1015.1563 929.1656,1015.1563 Q928.8219,1015.1563 928.6188,1014.9531 Q928.4156,1014.7656 928.3063,1014.25 Q928.2594,1013.8906 928.0719,1013.7031 Q927.7438,1013.3281 927.1344,1013.1094 Q926.525,1012.8906 925.9,1012.8906 Q925.1344,1012.8906 924.4938,1013.2188 Q923.8688,1013.5469 923.3688,1014.2969 Q922.8844,1015.0469 922.8844,1016.0781 L922.8844,1017.1719 Q922.8844,1018.4063 923.775,1019.2344 Q924.6656,1020.0469 926.2594,1020.0469 Q927.1969,1020.0469 927.8531,1019.7969 Q928.2438,1019.6406 928.6656,1019.2031 Q928.9313,1018.9375 929.0719,1018.8594 Q929.2281,1018.7813 929.4313,1018.7813 Q929.7594,1018.7813 930.0094,1019.0469 Q930.275,1019.2969 930.275,1019.6406 Q930.275,1019.9844 929.9313,1020.3906 Q929.4313,1020.9688 928.6344,1021.2969 Q927.5563,1021.75 926.2594,1021.75 Q924.7438,1021.75 923.5406,1021.125 Q922.5563,1020.625 921.8688,1019.5625 Q921.1813,1018.4844 921.1813,1017.2031 L921.1813,1016.0469 Q921.1813,1014.7188 921.7906,1013.5781 Q922.4156,1012.4219 923.5094,1011.8125 Q924.6031,1011.1875 925.8375,1011.1875 Q926.5719,1011.1875 927.2125,1011.3594 Q927.8688,1011.5156 928.4156,1011.875 Z " fill="#000000"/><text fill="#000000" font-family="sans-serif" font-size="14" lengthAdjust="spacing" textLength="80" x="943.35" y="1021.7969">GreenSpace</text><line style="stroke:#181818;stroke-width:0.5;" x1="895" x2="1042" y1="1032" y2="1032"/><text fill="#000000" font-family="sans-serif" font-size="14" lengthAdjust="spacing" textLength="81" x="900" y="1051.1074">-String name</text><text fill="#000000" font-family="sans-serif" font-size="14" lengthAdjust="spacing" textLength="73" x="900" y="1069.7285">-String type</text><text fill="#000000" font-family="sans-serif" font-size="14" lengthAdjust="spacing" textLength="53" x="900" y="1088.3496">-int area</text><text fill="#000000" font-family="sans-serif" font-size="14" lengthAdjust="spacing" textLength="97" x="900" y="1106.9707">-String address</text><text fill="#000000" font-family="sans-serif" font-size="14" lengthAdjust="spacing" textLength="106" x="900" y="1125.5918">-String gsmEmail</text><line style="stroke:#181818;stroke-width:0.5;" x1="895" x2="1042" y1="1133.1055" y2="1133.1055"/><text fill="#000000" font-family="sans-serif" font-size="14" lengthAdjust="spacing" textLength="137" x="900" y="1152.2129">+hasUserEmail(email)</text></g><!--class EmailGenerator--><g id="elem_EmailGenerator"><rect codeLine="137" fill="#F1F1F1" height="66.6211" id="EmailGenerator" rx="2.5" ry="2.5" style="stroke:#181818;stroke-width:0.5;" width="299" x="1507" y="825.5"/><ellipse cx="1602.75" cy="841.5" fill="#B4A7E5" rx="11" ry="11" style="stroke:#181818;stroke-width:1.0;"/><path d="M1603.7031,838.1406 L1603.7031,844.7969 L1605.4219,844.7969 Q1606.0313,844.7969 1606.2969,845.0313 Q1606.5625,845.2656 1606.5625,845.6563 Q1606.5625,846.0313 1606.2969,846.2656 Q1606.0313,846.5 1605.4219,846.5 L1600.2813,846.5 Q1599.6719,846.5 1599.4063,846.2656 Q1599.1406,846.0313 1599.1406,845.6406 Q1599.1406,845.2656 1599.4063,845.0313 Q1599.6719,844.7969 1600.2813,844.7969 L1602,844.7969 L1602,838.1406 L1600.2813,838.1406 Q1599.6719,838.1406 1599.4063,837.9063 Q1599.1406,837.6719 1599.1406,837.2813 Q1599.1406,836.9063 1599.4063,836.6719 Q1599.6719,836.4375 1600.2813,836.4375 L1605.4219,836.4375 Q1606.0313,836.4375 1606.2969,836.6719 Q1606.5625,836.9063 1606.5625,837.2813 Q1606.5625,837.6719 1606.2969,837.9063 Q1606.0313,838.1406 1605.4219,838.1406 L1603.7031,838.1406 Z " fill="#000000"/><text fill="#000000" font-family="sans-serif" font-size="14" font-style="italic" lengthAdjust="spacing" textLength="99" x="1623.25" y="847.2969">EmailGenerator</text><line style="stroke:#181818;stroke-width:0.5;" x1="1508" x2="1805" y1="857.5" y2="857.5"/><line style="stroke:#181818;stroke-width:0.5;" x1="1508" x2="1805" y1="865.5" y2="865.5"/><text fill="#000000" font-family="sans-serif" font-size="14" lengthAdjust="spacing" textLength="287" x="1513" y="884.6074">+sendEmail(title, startingDate, selectedTeam)</text></g><!--class EmailThroughGmail--><g id="elem_EmailThroughGmail"><rect codeLine="142" fill="#F1F1F1" height="66.6211" id="EmailThroughGmail" rx="2.5" ry="2.5" style="stroke:#181818;stroke-width:0.5;" width="299" x="1496" y="558.5"/><ellipse cx="1579.25" cy="574.5" fill="#ADD1B2" rx="11" ry="11" style="stroke:#181818;stroke-width:1.0;"/><path d="M1582.0156,570.375 Q1582.1719,570.1563 1582.3594,570.0469 Q1582.5469,569.9375 1582.7656,569.9375 Q1583.1406,569.9375 1583.375,570.2031 Q1583.6094,570.4531 1583.6094,571.0625 L1583.6094,572.5156 Q1583.6094,573.125 1583.375,573.3906 Q1583.1406,573.6563 1582.7656,573.6563 Q1582.4219,573.6563 1582.2188,573.4531 Q1582.0156,573.2656 1581.9063,572.75 Q1581.8594,572.3906 1581.6719,572.2031 Q1581.3438,571.8281 1580.7344,571.6094 Q1580.125,571.3906 1579.5,571.3906 Q1578.7344,571.3906 1578.0938,571.7188 Q1577.4688,572.0469 1576.9688,572.7969 Q1576.4844,573.5469 1576.4844,574.5781 L1576.4844,575.6719 Q1576.4844,576.9063 1577.375,577.7344 Q1578.2656,578.5469 1579.8594,578.5469 Q1580.7969,578.5469 1581.4531,578.2969 Q1581.8438,578.1406 1582.2656,577.7031 Q1582.5313,577.4375 1582.6719,577.3594 Q1582.8281,577.2813 1583.0313,577.2813 Q1583.3594,577.2813 1583.6094,577.5469 Q1583.875,577.7969 1583.875,578.1406 Q1583.875,578.4844 1583.5313,578.8906 Q1583.0313,579.4688 1582.2344,579.7969 Q1581.1563,580.25 1579.8594,580.25 Q1578.3438,580.25 1577.1406,579.625 Q1576.1563,579.125 1575.4688,578.0625 Q1574.7813,576.9844 1574.7813,575.7031 L1574.7813,574.5469 Q1574.7813,573.2188 1575.3906,572.0781 Q1576.0156,570.9219 1577.1094,570.3125 Q1578.2031,569.6875 1579.4375,569.6875 Q1580.1719,569.6875 1580.8125,569.8594 Q1581.4688,570.0156 1582.0156,570.375 Z " fill="#000000"/><text fill="#000000" font-family="sans-serif" font-size="14" lengthAdjust="spacing" textLength="124" x="1599.75" y="580.2969">EmailThroughGmail</text><line style="stroke:#181818;stroke-width:0.5;" x1="1497" x2="1794" y1="590.5" y2="590.5"/><line style="stroke:#181818;stroke-width:0.5;" x1="1497" x2="1794" y1="598.5" y2="598.5"/><text fill="#000000" font-family="sans-serif" font-size="14" lengthAdjust="spacing" textLength="287" x="1502" y="617.6074">+sendEmail(title, startingDate, selectedTeam)</text></g><!--class EmailThroughDEIService--><g id="elem_EmailThroughDEIService"><rect codeLine="147" fill="#F1F1F1" height="66.6211" id="EmailThroughDEIService" rx="2.5" ry="2.5" style="stroke:#181818;stroke-width:0.5;" width="299" x="1830" y="558.5"/><ellipse cx="1896.75" cy="574.5" fill="#ADD1B2" rx="11" ry="11" style="stroke:#181818;stroke-width:1.0;"/><path d="M1899.5156,570.375 Q1899.6719,570.1563 1899.8594,570.0469 Q1900.0469,569.9375 1900.2656,569.9375 Q1900.6406,569.9375 1900.875,570.2031 Q1901.1094,570.4531 1901.1094,571.0625 L1901.1094,572.5156 Q1901.1094,573.125 1900.875,573.3906 Q1900.6406,573.6563 1900.2656,573.6563 Q1899.9219,573.6563 1899.7188,573.4531 Q1899.5156,573.2656 1899.4063,572.75 Q1899.3594,572.3906 1899.1719,572.2031 Q1898.8438,571.8281 1898.2344,571.6094 Q1897.625,571.3906 1897,571.3906 Q1896.2344,571.3906 1895.5938,571.7188 Q1894.9688,572.0469 1894.4688,572.7969 Q1893.9844,573.5469 1893.9844,574.5781 L1893.9844,575.6719 Q1893.9844,576.9063 1894.875,577.7344 Q1895.7656,578.5469 1897.3594,578.5469 Q1898.2969,578.5469 1898.9531,578.2969 Q1899.3438,578.1406 1899.7656,577.7031 Q1900.0313,577.4375 1900.1719,577.3594 Q1900.3281,577.2813 1900.5313,577.2813 Q1900.8594,577.2813 1901.1094,577.5469 Q1901.375,577.7969 1901.375,578.1406 Q1901.375,578.4844 1901.0313,578.8906 Q1900.5313,579.4688 1899.7344,579.7969 Q1898.6563,580.25 1897.3594,580.25 Q1895.8438,580.25 1894.6406,579.625 Q1893.6563,579.125 1892.9688,578.0625 Q1892.2813,576.9844 1892.2813,575.7031 L1892.2813,574.5469 Q1892.2813,573.2188 1892.8906,572.0781 Q1893.5156,570.9219 1894.6094,570.3125 Q1895.7031,569.6875 1896.9375,569.6875 Q1897.6719,569.6875 1898.3125,569.8594 Q1898.9688,570.0156 1899.5156,570.375 Z " fill="#000000"/><text fill="#000000" font-family="sans-serif" font-size="14" lengthAdjust="spacing" textLength="157" x="1917.25" y="580.2969">EmailThroughDEIService</text><line style="stroke:#181818;stroke-width:0.5;" x1="1831" x2="2128" y1="590.5" y2="590.5"/><line style="stroke:#181818;stroke-width:0.5;" x1="1831" x2="2128" y1="598.5" y2="598.5"/><text fill="#000000" font-family="sans-serif" font-size="14" lengthAdjust="spacing" textLength="287" x="1836" y="617.6074">+sendEmail(title, startingDate, selectedTeam)</text></g><!--reverse link Task to DegreeOfUrgency--><g id="link_Task_DegreeOfUrgency"><path codeLine="152" d="M1317.8553,715.9832 C1320.3653,752.9032 1321.97,776.6 1324.03,806.95 " fill="none" id="Task-backto-DegreeOfUrgency" style="stroke:#181818;stroke-width:1.0;"/><ellipse cx="1317.3126" cy="708.0016" fill="#FFFFFF" rx="8" ry="8" style="stroke:#181818;stroke-width:1.0;"/><line style="stroke:#181818;stroke-width:1.0;" x1="1317.8553" x2="1316.77" y1="715.9832" y2="700.02"/><line style="stroke:#181818;stroke-width:1.0;" x1="1309.3311" x2="1325.2942" y1="708.5442" y2="707.4589"/></g><!--reverse link Task to GSTaskStatus--><g id="link_Task_GSTaskStatus"><path codeLine="153" d="M1240.153,713.9012 C1225.083,740.1912 1217.16,753.99 1202.98,778.7 " fill="none" id="Task-backto-GSTaskStatus" style="stroke:#181818;stroke-width:1.0;"/><ellipse cx="1244.1315" cy="706.9606" fill="#FFFFFF" rx="8" ry="8" style="stroke:#181818;stroke-width:1.0;"/><line style="stroke:#181818;stroke-width:1.0;" x1="1240.153" x2="1248.11" y1="713.9012" y2="700.02"/><line style="stroke:#181818;stroke-width:1.0;" x1="1237.1909" x2="1251.0721" y1="702.9821" y2="710.9391"/></g><!--link Repositories to Repositories--><g id="link_Repositories_Repositories"><path codeLine="155" d="M1129.78,57.6 C1149.98,59.69 1164.5,66.33 1164.5,77.5 C1164.5,88.67 1155.9481,94.6925 1135.7481,96.7825 " fill="none" id="Repositories-to-Repositories" style="stroke:#181818;stroke-width:1.0;"/><polygon fill="#181818" points="1129.78,97.4,1139.1439,100.4525,1134.7535,96.8854,1138.3205,92.495,1129.78,97.4" style="stroke:#181818;stroke-width:1.0;"/><text fill="#000000" font-family="sans-serif" font-size="13" lengthAdjust="spacing" textLength="49" x="1170.5" y="83.0283">instance</text></g><!--link ApplicationSession to ApplicationSession--><g id="link_ApplicationSession_ApplicationSession"><path codeLine="156" d="M834.16,292.23 C854,293.64 869,301.56 869,316 C869,330.44 859.9849,337.9347 840.1449,339.3447 " fill="none" id="ApplicationSession-to-ApplicationSession" style="stroke:#181818;stroke-width:1.0;"/><polygon fill="#181818" points="834.16,339.77,843.4209,343.1219,839.1474,339.4156,842.8538,335.1421,834.16,339.77" style="stroke:#181818;stroke-width:1.0;"/><text fill="#000000" font-family="sans-serif" font-size="13" lengthAdjust="spacing" textLength="49" x="875" y="321.5283">instance</text></g><!--link AssignTeamUI to AssignTeamController--><g id="link_AssignTeamUI_AssignTeamController"><path codeLine="158" d="M624.55,77.5 C627.3,77.5 638.14,77.5 653.32,77.5 " fill="none" id="AssignTeamUI-to-AssignTeamController" style="stroke:#181818;stroke-width:1.0;stroke-dasharray:7.0,7.0;"/><polygon fill="#181818" points="659.32,77.5,650.32,73.5,654.32,77.5,650.32,81.5,659.32,77.5" style="stroke:#181818;stroke-width:1.0;"/></g><!--link AssignTeamController to Repositories--><g id="link_AssignTeamController_Repositories"><path codeLine="160" d="M831.61,77.5 C864.3,77.5 895.75,77.5 929.39,77.5 " fill="none" id="AssignTeamController-to-Repositories" style="stroke:#181818;stroke-width:1.0;stroke-dasharray:7.0,7.0;"/><polygon fill="#181818" points="935.39,77.5,926.39,73.5,930.39,77.5,926.39,81.5,935.39,77.5" style="stroke:#181818;stroke-width:1.0;"/><text fill="#000000" font-family="sans-serif" font-size="13" lengthAdjust="spacing" textLength="67" x="850" y="70.5283">repositories</text></g><!--link Repositories to TeamRepository--><g id="link_Repositories_TeamRepository"><path codeLine="162" d="M1030.72,138.79 C1029.57,177.38 1028.288,220.9226 1027.198,257.6426 " fill="none" id="Repositories-to-TeamRepository" style="stroke:#181818;stroke-width:1.0;"/><polygon fill="#181818" points="1027.02,263.64,1031.2853,254.7626,1027.1684,258.6422,1023.2888,254.5253,1027.02,263.64" style="stroke:#181818;stroke-width:1.0;"/><text fill="#000000" font-family="sans-serif" font-size="13" lengthAdjust="spacing" textLength="7" x="1019.7663" y="252.898">1</text></g><!--link Repositories to Agenda--><g id="link_Repositories_Agenda"><path codeLine="163" d="M1103.12,138.79 C1134.45,165.55 1167.3873,193.6636 1201.7673,223.0236 " fill="none" id="Repositories-to-Agenda" style="stroke:#181818;stroke-width:1.0;"/><polygon fill="#181818" points="1206.33,226.92,1202.0836,218.0336,1202.5278,223.673,1196.8884,224.1171,1206.33,226.92" style="stroke:#181818;stroke-width:1.0;"/><text fill="#000000" font-family="sans-serif" font-size="13" lengthAdjust="spacing" textLength="7" x="1190.4964" y="215.8651">1</text></g><!--link AssignTeamController to ApplicationSession--><g id="link_AssignTeamController_ApplicationSession"><path codeLine="165" d="M749.33,148.18 C751.56,188.78 753.9708,232.639 755.8708,267.219 " fill="none" id="AssignTeamController-to-ApplicationSession" style="stroke:#181818;stroke-width:1.0;stroke-dasharray:7.0,7.0;"/><polygon fill="#181818" points="756.2,273.21,759.7002,264.0041,755.9257,268.2175,751.7123,264.443,756.2,273.21" style="stroke:#181818;stroke-width:1.0;"/></g><!--link AssignTeamController to UserSession--><g id="link_AssignTeamController_UserSession"><path codeLine="166" d="M659.14,136.21 C648.62,143.24 641.5,148 641.5,148 C641.5,148 355.5,227 355.5,227 C355.5,227 355.5,405 355.5,405 C355.5,405 374.1797,498.8952 384.7997,552.2952 " fill="none" id="AssignTeamController-to-UserSession" style="stroke:#181818;stroke-width:1.0;stroke-dasharray:7.0,7.0;"/><polygon fill="#181818" points="385.97,558.18,388.1377,548.5726,384.9947,553.276,380.2913,550.1331,385.97,558.18" style="stroke:#181818;stroke-width:1.0;"/></g><!--link ApplicationSession to UserSession--><g id="link_ApplicationSession_UserSession"><path codeLine="167" d="M713.98,358.68 C689.68,381.43 664.5,405 664.5,405 C664.5,405 523.1526,501.653 445.1426,555.003 " fill="none" id="ApplicationSession-to-UserSession" style="stroke:#181818;stroke-width:1.0;"/><polygon fill="#181818" points="440.19,558.39,449.8769,556.6112,444.3172,555.5675,445.3609,550.0078,440.19,558.39" style="stroke:#181818;stroke-width:1.0;"/><text fill="#000000" font-family="sans-serif" font-size="13" lengthAdjust="spacing" textLength="72" x="620.5" y="450.0283">userSession</text><text fill="#000000" font-family="sans-serif" font-size="13" lengthAdjust="spacing" textLength="7" x="441.8899" y="547.1939">1</text></g><!--link AssignTeamController to Agenda--><g id="link_AssignTeamController_Agenda"><path codeLine="168" d="M831.75,113.35 C874.67,130.69 917.5,148 917.5,148 C917.5,148 1120.5,227 1120.5,227 C1120.5,227 1121.701,227.5568 1132.501,232.5868 " fill="none" id="AssignTeamController-to-Agenda" style="stroke:#181818;stroke-width:1.0;stroke-dasharray:7.0,7.0;"/><polygon fill="#181818" points="1137.94,235.12,1131.4702,227.6942,1133.4075,233.009,1128.0927,234.9463,1137.94,235.12" style="stroke:#181818;stroke-width:1.0;"/><text fill="#000000" font-family="sans-serif" font-size="13" lengthAdjust="spacing" textLength="42" x="1044.5" y="193.0283">agenda</text></g><!--link AssignTeamController to TeamRepository--><g id="link_AssignTeamController_TeamRepository"><path codeLine="169" d="M788.97,148.12 C805.08,173.91 819.5,197 819.5,197 C819.5,197 930.5,227 930.5,227 C930.5,227 944.9383,240.3726 965.8383,259.7326 " fill="none" id="AssignTeamController-to-TeamRepository" style="stroke:#181818;stroke-width:1.0;stroke-dasharray:7.0,7.0;"/><polygon fill="#181818" points="970.24,263.81,966.3557,254.7595,966.5719,260.4122,960.9192,260.6284,970.24,263.81" style="stroke:#181818;stroke-width:1.0;"/><text fill="#000000" font-family="sans-serif" font-size="13" lengthAdjust="spacing" textLength="91" x="820.5" y="193.0283">teamRepository</text></g><!--link AssignTeamController to TaskMapper--><g id="link_AssignTeamController_TaskMapper"><path codeLine="170" d="M676.26,148.18 C639.44,185.24 599.1888,225.7435 565.5788,259.5735 " fill="none" id="AssignTeamController-to-TaskMapper" style="stroke:#181818;stroke-width:1.0;stroke-dasharray:7.0,7.0;"/><polygon fill="#181818" points="561.35,263.83,570.5308,260.2645,564.874,260.283,564.8555,254.6261,561.35,263.83" style="stroke:#181818;stroke-width:1.0;"/></g><!--link AssignTeamController to TeamMapper--><g id="link_AssignTeamController_TeamMapper"><path codeLine="171" d="M659.14,136.21 C648.62,143.24 641.5,148 641.5,148 C641.5,148 294.5,178 294.5,178 C294.5,178 254.9792,220.64 218.8692,259.59 " fill="none" id="AssignTeamController-to-TeamMapper" style="stroke:#181818;stroke-width:1.0;stroke-dasharray:7.0,7.0;"/><polygon fill="#181818" points="214.79,263.99,223.8421,260.1094,218.1893,260.3233,217.9754,254.6705,214.79,263.99" style="stroke:#181818;stroke-width:1.0;"/></g><!--link Agenda to Task--><g id="link_Agenda_Task"><path codeLine="173" d="M1309.5,405.2 C1309.5,430.23 1309.5,451.77 1309.5,477.79 " fill="none" id="Agenda-to-Task" style="stroke:#181818;stroke-width:1.0;"/><polygon fill="#181818" points="1309.5,483.79,1313.5,474.79,1309.5,478.79,1305.5,474.79,1309.5,483.79" style="stroke:#181818;stroke-width:1.0;"/><text fill="#000000" font-family="sans-serif" font-size="13" lengthAdjust="spacing" textLength="7" x="1302.2102" y="427.3168">1</text><text fill="#000000" font-family="sans-serif" font-size="13" lengthAdjust="spacing" textLength="5" x="1304.3242" y="472.6368">*</text></g><!--link TeamRepository to Team--><g id="link_TeamRepository_Team"><path codeLine="174" d="M1018.47,368.38 C1003.41,478.5 969.1933,728.6454 956.7733,819.4254 " fill="none" id="TeamRepository-to-Team" style="stroke:#181818;stroke-width:1.0;"/><polygon fill="#181818" points="955.96,825.37,961.143,816.9953,956.6378,820.4161,953.2169,815.9109,955.96,825.37" style="stroke:#181818;stroke-width:1.0;"/><text fill="#000000" font-family="sans-serif" font-size="13" lengthAdjust="spacing" textLength="7" x="1010.1867" y="389.8541">1</text><text fill="#000000" font-family="sans-serif" font-size="13" lengthAdjust="spacing" textLength="5" x="951.3459" y="814.1699">*</text></g><!--link TaskMapper to TaskDto--><g id="link_TaskMapper_TaskDto"><path codeLine="176" d="M507.94,368.38 C503.2,463.2 493.3693,660.2675 487.7493,772.8075 " fill="none" id="TaskMapper-to-TaskDto" style="stroke:#181818;stroke-width:1.0;stroke-dasharray:7.0,7.0;"/><polygon fill="#181818" points="487.45,778.8,491.8939,770.0107,487.6994,773.8062,483.9039,769.6117,487.45,778.8" style="stroke:#181818;stroke-width:1.0;"/></g><!--link TaskMapper to Task--><g id="link_TaskMapper_Task"><path codeLine="177" d="M600.66,368.19 C634.76,387.55 665.5,405 665.5,405 C665.5,405 1008.4356,504.0451 1192.6656,557.2551 " fill="none" id="TaskMapper-to-Task" style="stroke:#181818;stroke-width:1.0;stroke-dasharray:7.0,7.0;"/><polygon fill="#181818" points="1198.43,558.92,1190.8933,552.5797,1193.6263,557.5326,1188.6735,560.2656,1198.43,558.92" style="stroke:#181818;stroke-width:1.0;"/></g><!--link Task to GreenSpace--><g id="link_Task_GreenSpace"><path codeLine="179" d="M1371.7,700.12 C1395.71,741.47 1417.5,779 1417.5,779 C1417.5,779 1417.5,939 1417.5,939 C1417.5,939 1176.5481,1014.1343 1048.8781,1053.9343 " fill="none" id="Task-to-GreenSpace" style="stroke:#181818;stroke-width:1.0;"/><polygon fill="#181818" points="1043.15,1055.72,1052.9326,1056.8602,1047.9234,1054.2319,1050.5517,1049.2227,1043.15,1055.72" style="stroke:#181818;stroke-width:1.0;"/><text fill="#000000" font-family="sans-serif" font-size="13" lengthAdjust="spacing" textLength="5" x="1370.5245" y="721.6417">*</text><text fill="#000000" font-family="sans-serif" font-size="13" lengthAdjust="spacing" textLength="7" x="1051.2092" y="1049.397">1</text></g><!--link TaskDto to GreenSpace--><g id="link_TaskDto_GreenSpace"><path codeLine="180" d="M658.6,939.06 C739.45,975.57 825.7015,1014.5211 888.2515,1042.7611 " fill="none" id="TaskDto-to-GreenSpace" style="stroke:#181818;stroke-width:1.0;"/><polygon fill="#181818" points="893.72,1045.23,887.1632,1037.881,889.1629,1043.1726,883.8713,1045.1723,893.72,1045.23" style="stroke:#181818;stroke-width:1.0;"/><text fill="#000000" font-family="sans-serif" font-size="13" lengthAdjust="spacing" textLength="5" x="668.4328" y="960.7232">*</text><text fill="#000000" font-family="sans-serif" font-size="13" lengthAdjust="spacing" textLength="7" x="879.0143" y="1038.0267">1</text></g><!--link TeamMapper to TeamDto--><g id="link_TeamMapper_TeamDto"><path codeLine="182" d="M157.97,368.22 C148.22,420.57 134.3671,494.9912 125.3371,543.5412 " fill="none" id="TeamMapper-to-TeamDto" style="stroke:#181818;stroke-width:1.0;stroke-dasharray:7.0,7.0;"/><polygon fill="#181818" points="124.24,549.44,129.8183,541.3232,125.1543,544.5243,121.9532,539.8603,124.24,549.44" style="stroke:#181818;stroke-width:1.0;"/></g><!--link TeamMapper to Team--><g id="link_TeamMapper_Team"><path codeLine="183" d="M190.72,368.01 C213.07,417.12 243.5,484 243.5,484 C243.5,484 318.5,700 318.5,700 C318.5,700 824.5,779 824.5,779 C824.5,779 859.0353,800.4807 894.0153,822.2407 " fill="none" id="TeamMapper-to-Team" style="stroke:#181818;stroke-width:1.0;stroke-dasharray:7.0,7.0;"/><polygon fill="#181818" points="899.11,825.41,893.5808,817.2597,894.8644,822.769,889.3551,824.0526,899.11,825.41" style="stroke:#181818;stroke-width:1.0;"/></g><!--link Task to Team--><g id="link_Task_Team"><path codeLine="185" d="M1198.19,675.4 C1129.84,725.99 1050.8729,784.4508 1000.6329,821.6308 " fill="none" id="Task-to-Team" style="stroke:#181818;stroke-width:1.0;"/><polygon fill="#181818" points="995.81,825.2,1005.4239,823.0615,999.8291,822.2257,1000.6649,816.6309,995.81,825.2" style="stroke:#181818;stroke-width:1.0;"/><text fill="#000000" font-family="sans-serif" font-size="13" lengthAdjust="spacing" textLength="5" x="1185.5434" y="677.4842">*</text><text fill="#000000" font-family="sans-serif" font-size="13" lengthAdjust="spacing" textLength="22" x="980.1597" y="814.2287">0..1</text></g><!--link Task to EmailGenerator--><g id="link_Task_EmailGenerator"><path codeLine="187" d="M1420.72,677.94 C1486.34,728.05 1560.8917,784.9781 1608.7717,821.5481 " fill="none" id="Task-to-EmailGenerator" style="stroke:#181818;stroke-width:1.0;"/><polygon fill="#181818" points="1613.54,825.19,1608.8156,816.5483,1609.5664,822.1551,1603.9596,822.906,1613.54,825.19" style="stroke:#181818;stroke-width:1.0;"/><text fill="#000000" font-family="sans-serif" font-size="13" lengthAdjust="spacing" textLength="78" x="1505.5" y="745.0283">makes use of</text><text fill="#000000" font-family="sans-serif" font-size="13" lengthAdjust="spacing" textLength="5" x="1428.3606" y="680.1949">*</text><text fill="#000000" font-family="sans-serif" font-size="13" lengthAdjust="spacing" textLength="7" x="1597.6836" y="814.2168">1</text></g><!--link EmailThroughGmail to EmailGenerator--><g id="link_EmailThroughGmail_EmailGenerator"><path codeLine="189" d="M1646.86,625.76 C1648.98,676.72 1652.2846,756.4154 1654.3946,807.3254 " fill="none" id="EmailThroughGmail-to-EmailGenerator" style="stroke:#181818;stroke-width:1.0;stroke-dasharray:7.0,7.0;"/><polygon fill="none" points="1655.14,825.31,1660.3895,807.077,1648.3998,807.5739,1655.14,825.31" style="stroke:#181818;stroke-width:1.0;"/></g><!--link EmailThroughDEIService to EmailGenerator--><g id="link_EmailThroughDEIService_EmailGenerator"><path codeLine="190" d="M1939.57,625.76 C1877.46,676.72 1772.3165,762.9838 1710.2565,813.8938 " fill="none" id="EmailThroughDEIService-to-EmailGenerator" style="stroke:#181818;stroke-width:1.0;stroke-dasharray:7.0,7.0;"/><polygon fill="none" points="1696.34,825.31,1714.0619,818.5326,1706.4511,809.2549,1696.34,825.31" style="stroke:#181818;stroke-width:1.0;"/></g><!--SRC=[hLRRRjim37tNLmXzQRgrHViw306AfEWAREWmfn-WseoZnPOCILwNNVvzb2pRac9t5omliNWvF9H8IgTwpqN35AjfBONCTqhMG8rgWOoQXkLxLa9c3XLG1RbXegn20xrZXNpcegHRLkbGKt41vj00RMHri0joEg6KoaWIUEKLq_h66CMVMWFtkHGP_mRqYf3J2hQ66aaLBtU65jpIuL8GudpeZTQy51jWzUCz-Kx8psF5IWgZP5M1GWEAlzUJoiMPLvPWRaeG1Rj55GSTAgnB9CYWGa9GR9ZUBtYlO0E-bOsScgRYERFyCq0JJADdf0sASujuB_1Rv116MRLAWJ3UQH50Ve96Qcwa9Uh1BY9X23D2qpUnPv9vcl9WUmXZFsfGQHxeOCMtDUDLQDlX3WpVSstUsZrRKkXssKgEbLi541t6j9b1Zbc-WwB5CfqvHR2KVdjo29BlDm7SGlTsA3odEl2QEErG7HYZAjWBg_p0ccOeo22NjP4pMQF6npDolNbOJ1gTURpEH3vzJi9Qa3vcXbxOmOORlsc3g02TAzwuFaiK9KPzs3ug39mVl98BG-5hur9Tjue5VYjMMORArhSo2B5cfZyXpsVX29o7GS_JGET7-EFctg6Xo71a8KOO9SdydzB-nynsJBjgE1lNOrD4TVW4bHIbtiYuUboz3BuuexOuDypYJuklBpSGRKtNoPbr-_1UFhl_3r3mjdQVxt323bvtcGsIuLHg-xdo4VF5FBjl9NFiV2YwLSM4wB-bDetiLoixRYg_MACuE9HehYITWBgkgyU6_ytyJMUj5Kms6SfTamteQMCDYXURgOE9iLTuaR0dYNKYrPBcmQgViDvj4UaIs3_77Dp67aZBNB0wgN9x0GVbpHIms80LXSApZOMbhbtvlb3Ho0O1GMsH1dMQEn3Wg8xN7DPGv-IxFkoUsO7fF3RuL6dBtPrZyV_mrhVt6QWlVDYwlmUrdK9VNrmSjTgWYBg9X3SllLX6Dp5UpDpVqkJukM2j9wI13maVHFHoEVqE8bDIQvrGKU4R8U6DL4wkJz8sdhJnb_zCrCkfdEPjmrV7r0xvc84P9jA6JhCi74sqPXtVMSCuPtGmyIRCEuut_ulWtePuHZOVbzUha-ukImXq-jx0ZX0oHa9G7zdEgqZUYNq1Mzz-yu9vuXtdr6IaEx1tSOx5QPohoylhaqaDYkFvWLjSiprM59uZbLj2ZYO2HlcnJAVET9zFclu2]--></g></svg>