<?xml version="1.0" encoding="us-ascii" standalone="no"?><svg xmlns="http://www.w3.org/2000/svg" xmlns:xlink="http://www.w3.org/1999/xlink" contentStyleType="text/css" height="447px" preserveAspectRatio="none" style="width:486px;height:447px;background:#FFFFFF;" version="1.1" viewBox="0 0 486 447" width="486px" zoomAndPan="magnify"><defs/><g><text fill="#000000" font-family="sans-serif" font-size="14" font-weight="bold" lengthAdjust="spacing" textLength="333" x="78.25" y="30.1074">US027- As a GSM, I need to list all green spaces</text><rect fill="#FFFFFF" height="222.0371" style="stroke:#181818;stroke-width:1.0;" width="10" x="33.5" y="133.2422"/><rect fill="#FFFFFF" height="57.582" style="stroke:#181818;stroke-width:1.0;" width="10" x="433.5" y="156.5332"/><rect fill="#FFFFFF" height="100.873" style="stroke:#181818;stroke-width:1.0;" width="10" x="433.5" y="245.4063"/><rect fill="none" height="81.873" style="stroke:#000000;stroke-width:1.5;" width="470.5" x="10" y="171.5332"/><line style="stroke:#181818;stroke-width:0.5;stroke-dasharray:5.0,5.0;" x1="38" x2="38" y1="123.2422" y2="364.2793"/><line style="stroke:#181818;stroke-width:0.5;stroke-dasharray:5.0,5.0;" x1="438.5" x2="438.5" y1="123.2422" y2="364.2793"/><text fill="#000000" font-family="sans-serif" font-size="14" lengthAdjust="spacing" textLength="31" x="20" y="119.7285">GSM</text><ellipse cx="38.5" cy="53.1211" fill="#E3E3E3" rx="8" ry="8" style="stroke:#181818;stroke-width:0.5;"/><path d="M38.5,61.1211 L38.5,88.1211 M25.5,69.1211 L51.5,69.1211 M38.5,88.1211 L25.5,103.1211 M38.5,88.1211 L51.5,103.1211 " fill="none" style="stroke:#181818;stroke-width:0.5;"/><text fill="#000000" font-family="sans-serif" font-size="14" lengthAdjust="spacing" textLength="31" x="20" y="378.3867">GSM</text><ellipse cx="38.5" cy="390.4004" fill="#E3E3E3" rx="8" ry="8" style="stroke:#181818;stroke-width:0.5;"/><path d="M38.5,398.4004 L38.5,425.4004 M25.5,406.4004 L51.5,406.4004 M38.5,425.4004 L25.5,440.4004 M38.5,425.4004 L51.5,440.4004 " fill="none" style="stroke:#181818;stroke-width:0.5;"/><rect fill="#E3E3E3" height="32.6211" rx="2.5" ry="2.5" style="stroke:#181818;stroke-width:0.5;" width="64" x="406.5" y="89.6211"/><text fill="#000000" font-family="sans-serif" font-size="14" lengthAdjust="spacing" textLength="50" x="413.5" y="111.7285">:System</text><rect fill="#E3E3E3" height="32.6211" rx="2.5" ry="2.5" style="stroke:#181818;stroke-width:0.5;" width="64" x="406.5" y="363.2793"/><text fill="#000000" font-family="sans-serif" font-size="14" lengthAdjust="spacing" textLength="50" x="413.5" y="385.3867">:System</text><rect fill="#FFFFFF" height="222.0371" style="stroke:#181818;stroke-width:1.0;" width="10" x="33.5" y="133.2422"/><rect fill="#FFFFFF" height="57.582" style="stroke:#181818;stroke-width:1.0;" width="10" x="433.5" y="156.5332"/><rect fill="#FFFFFF" height="100.873" style="stroke:#181818;stroke-width:1.0;" width="10" x="433.5" y="245.4063"/><polygon fill="#181818" points="421.5,152.5332,431.5,156.5332,421.5,160.5332,425.5,156.5332" style="stroke:#181818;stroke-width:1.0;"/><line style="stroke:#181818;stroke-width:1.0;" x1="43.5" x2="427.5" y1="156.5332" y2="156.5332"/><text fill="#000000" font-family="sans-serif" font-size="13" font-weight="bold" lengthAdjust="spacing" textLength="7" x="50.5" y="151.2705">1</text><text fill="#000000" font-family="sans-serif" font-size="13" lengthAdjust="spacing" textLength="248" x="61.5" y="151.2705">asks to produce a list of the Green Spaces</text><path d="M10,171.5332 L83,171.5332 L83,180.8242 L73,190.8242 L10,190.8242 L10,171.5332 " fill="#EEEEEE" style="stroke:#000000;stroke-width:1.5;"/><rect fill="none" height="81.873" style="stroke:#000000;stroke-width:1.5;" width="470.5" x="10" y="171.5332"/><text fill="#000000" font-family="sans-serif" font-size="13" font-weight="bold" lengthAdjust="spacing" textLength="28" x="25" y="186.5615">loop</text><text fill="#000000" font-family="sans-serif" font-size="11" font-weight="bold" lengthAdjust="spacing" textLength="163" x="98" y="185.4033">[until end of Green Space list]</text><polygon fill="#181818" points="54.5,210.1152,44.5,214.1152,54.5,218.1152,50.5,214.1152" style="stroke:#181818;stroke-width:1.0;"/><line style="stroke:#181818;stroke-width:1.0;stroke-dasharray:2.0,2.0;" x1="48.5" x2="437.5" y1="214.1152" y2="214.1152"/><text fill="#000000" font-family="sans-serif" font-size="13" font-weight="bold" lengthAdjust="spacing" textLength="7" x="60.5" y="208.8525">2</text><text fill="#000000" font-family="sans-serif" font-size="13" lengthAdjust="spacing" textLength="333" x="71.5" y="208.8525">requests to update the current names of the Green Space</text><polygon fill="#181818" points="421.5,241.4063,431.5,245.4063,421.5,249.4063,425.5,245.4063" style="stroke:#181818;stroke-width:1.0;"/><line style="stroke:#181818;stroke-width:1.0;" x1="43.5" x2="427.5" y1="245.4063" y2="245.4063"/><text fill="#000000" font-family="sans-serif" font-size="13" font-weight="bold" lengthAdjust="spacing" textLength="7" x="50.5" y="240.1436">3</text><text fill="#000000" font-family="sans-serif" font-size="13" lengthAdjust="spacing" textLength="199" x="61.5" y="240.1436">updates the current Green Spaces</text><polygon fill="#181818" points="54.5,279.6973,44.5,283.6973,54.5,287.6973,50.5,283.6973" style="stroke:#181818;stroke-width:1.0;"/><line style="stroke:#181818;stroke-width:1.0;stroke-dasharray:2.0,2.0;" x1="48.5" x2="432.5" y1="283.6973" y2="283.6973"/><text fill="#000000" font-family="sans-serif" font-size="13" font-weight="bold" lengthAdjust="spacing" textLength="7" x="60.5" y="278.4346">4</text><text fill="#000000" font-family="sans-serif" font-size="13" lengthAdjust="spacing" textLength="208" x="71.5" y="278.4346">produces a list of the Green Spaces</text><polygon fill="#181818" points="421.5,310.9883,431.5,314.9883,421.5,318.9883,425.5,314.9883" style="stroke:#181818;stroke-width:1.0;"/><line style="stroke:#181818;stroke-width:1.0;stroke-dasharray:2.0,2.0;" x1="43.5" x2="427.5" y1="314.9883" y2="314.9883"/><text fill="#000000" font-family="sans-serif" font-size="13" font-weight="bold" lengthAdjust="spacing" textLength="7" x="50.5" y="309.7256">5</text><text fill="#000000" font-family="sans-serif" font-size="13" lengthAdjust="spacing" textLength="355" x="61.5" y="309.7256">requests to sort the list of Green Spaces in two specific ways</text><polygon fill="#181818" points="54.5,342.2793,44.5,346.2793,54.5,350.2793,50.5,346.2793" style="stroke:#181818;stroke-width:1.0;"/><line style="stroke:#181818;stroke-width:1.0;stroke-dasharray:2.0,2.0;" x1="48.5" x2="437.5" y1="346.2793" y2="346.2793"/><text fill="#000000" font-family="sans-serif" font-size="13" font-weight="bold" lengthAdjust="spacing" textLength="7" x="60.5" y="341.0166">6</text><text fill="#000000" font-family="sans-serif" font-size="13" lengthAdjust="spacing" textLength="237" x="71.5" y="341.0166">produces the sorted list of Green Spaces</text><!--SRC=[XPBDQiCm3CVlVWhHymfZbq4EWvt63Zk5FO3cgAcfOxkMlD2td-n-a8sCvcJi_yTF8dnm8M762QOOejtdE158BcJuzfBG7d2aNawU89CL3ADV2dYFGvnT6667diaOSQBIp_xnwNaBhmm8R_t70xn381f08dZ70kWzZ9ae06i5iJ5O98OoVL7MivMOOQF63I3N0ADjugnB60GsNNzYeQazde_DuxvHgAaDwAS7sBvS1D2f-C0L8EKu54jArb3Y3cIljaRJdscg_HPuRQYNFiO49OZpG66eteMlvJNPfNEhzPMYqzKT2x6q_fA66bjBRScPTAA04_4AIGiRw2_AsdJdLFuLUtUcUgTpc7NeowButgOQof9bEIt7BCrsZLZQmGMGMKM9hDiv2pEU-0vCpQgX-ZUjHVwpiXy0]--></g></svg>