<?xml version="1.0" encoding="us-ascii" standalone="no"?><svg xmlns="http://www.w3.org/2000/svg" xmlns:xlink="http://www.w3.org/1999/xlink" contentStyleType="text/css" height="2023.8px" preserveAspectRatio="none" style="width:660px;height:2023px;background:#FFFFFF;" version="1.1" viewBox="0 0 660 2023" width="660.6px" zoomAndPan="magnify"><defs/><g><!--cluster GreenSpaceManagement--><g id="cluster_GreenSpaceManagement"><rect fill="none" height="2016" rx="1.5" ry="1.5" style="stroke:#181818;stroke-width:0.6;" width="457.2" x="199.8" y="4.2"/><text fill="#000000" font-family="sans-serif" font-size="8.4" font-weight="bold" lengthAdjust="spacing" textLength="106.8" x="375" y="14.4645">GreenSpaceManagement</text></g><g id="elem_UC 001 - Register skills"><ellipse cx="428.2627" cy="251.9725" fill="#F1F1F1" rx="57.1627" ry="12.8725" style="stroke:#181818;stroke-width:0.3;"/><text fill="#000000" font-family="sans-serif" font-size="8.4" lengthAdjust="spacing" textLength="88.2" x="382.6003" y="254.7843">UC 001 - Register skills</text></g><g id="elem_UC 002 - Register a job"><ellipse cx="428.513" cy="39.6226" fill="#F1F1F1" rx="57.413" ry="12.9226" style="stroke:#181818;stroke-width:0.3;"/><text fill="#000000" font-family="sans-serif" font-size="8.4" lengthAdjust="spacing" textLength="88.8" x="382.6352" y="42.4087">UC 002 - Register a job</text></g><g id="elem_UC 003 - Register a collaborator"><ellipse cx="428.4636" cy="89.4127" fill="#F1F1F1" rx="72.3636" ry="15.9127" style="stroke:#181818;stroke-width:0.3;"/><text fill="#000000" font-family="sans-serif" font-size="8.4" lengthAdjust="spacing" textLength="122.4" x="367.2636" y="91.6908">UC 003 - Register a collaborator</text></g><g id="elem_UC 004 - Assign skills to a collaborator"><ellipse cx="428.5397" cy="144.6879" fill="#F1F1F1" rx="83.2397" ry="18.0879" style="stroke:#181818;stroke-width:0.3;"/><text fill="#000000" font-family="sans-serif" font-size="8.4" lengthAdjust="spacing" textLength="145.8" x="355.6397" y="146.9661">UC 004 - Assign skills to a collaborator</text></g><g id="elem_UC 005 - Generate a team proposal"><ellipse cx="428.269" cy="201.0338" fill="#F1F1F1" rx="78.469" ry="17.1338" style="stroke:#181818;stroke-width:0.3;"/><text fill="#000000" font-family="sans-serif" font-size="8.4" lengthAdjust="spacing" textLength="135.6" x="360.469" y="203.3119">UC 005 - Generate a team proposal</text></g><g id="elem_UC 006 - Register a vehicle"><ellipse cx="428.4323" cy="416.5265" fill="#F1F1F1" rx="63.9323" ry="14.2265" style="stroke:#181818;stroke-width:0.3;"/><text fill="#000000" font-family="sans-serif" font-size="8.4" lengthAdjust="spacing" textLength="103.8" x="376.5323" y="418.8046">UC 006 - Register a vehicle</text></g><g id="elem_UC 007 - Register a vehicle&#8217;s check-up"><ellipse cx="428.5036" cy="304.1007" fill="#F1F1F1" rx="83.8036" ry="18.2007" style="stroke:#181818;stroke-width:0.3;"/><text fill="#000000" font-family="sans-serif" font-size="8.4" lengthAdjust="spacing" textLength="147" x="355.0036" y="306.3788">UC 007 - Register a vehicle&#8217;s check-up</text></g><g id="elem_UC 008 - List vehicles needing check-up"><ellipse cx="428.3471" cy="362.5094" fill="#F1F1F1" rx="86.3471" ry="18.7094" style="stroke:#181818;stroke-width:0.3;"/><text fill="#000000" font-family="sans-serif" font-size="8.4" lengthAdjust="spacing" textLength="152.4" x="352.1471" y="364.7876">UC 008 - List vehicles needing check-up</text></g><g id="elem_UC 009 - List the  costs referring to water consumption of specific green space"><ellipse cx="428.2533" cy="1396.1107" fill="#F1F1F1" rx="155.8533" ry="32.6107" style="stroke:#181818;stroke-width:0.3;"/><text fill="#000000" font-family="sans-serif" font-size="8.4" lengthAdjust="spacing" textLength="295.8" x="280.3533" y="1398.3888">UC 009 - List the  costs referring to water consumption of specific green space</text></g><g id="elem_UC 010 - List which piece/s of equipment is are used in each day"><ellipse cx="428.4659" cy="1477.7532" fill="#F1F1F1" rx="130.5659" ry="27.5532" style="stroke:#181818;stroke-width:0.3;"/><text fill="#000000" font-family="sans-serif" font-size="8.4" lengthAdjust="spacing" textLength="244.2" x="306.3659" y="1480.0313">UC 010 - List which piece/s of equipment is are used in each day</text></g><g id="elem_UC 011 - Collect data from the user portal about the use of the park"><ellipse cx="428.3359" cy="1555.0672" fill="#F1F1F1" rx="136.1359" ry="28.6672" style="stroke:#181818;stroke-width:0.3;"/><text fill="#000000" font-family="sans-serif" font-size="8.4" lengthAdjust="spacing" textLength="255.6" x="300.5359" y="1557.3453">UC 011 - Collect data from the user portal about the use of the park</text></g><g id="elem_UC 012 - Import a .csv file"><ellipse cx="428.5084" cy="465.1417" fill="#F1F1F1" rx="61.0084" ry="13.6417" style="stroke:#181818;stroke-width:0.3;"/><text fill="#000000" font-family="sans-serif" font-size="8.4" lengthAdjust="spacing" textLength="97.2" x="379.5362" y="467.5589">UC 012 - Import a .csv file</text></g><g id="elem_UC 013 - Apply an algorithm to find the cheapest way to connect all points"><ellipse cx="428.4061" cy="530.4012" fill="#F1F1F1" rx="147.3061" ry="30.9012" style="stroke:#181818;stroke-width:0.3;"/><text fill="#000000" font-family="sans-serif" font-size="8.4" lengthAdjust="spacing" textLength="278.4" x="289.2061" y="532.6793">UC 013 - Apply an algorithm to find the cheapest way to connect all points</text></g><g id="elem_UC 014 - Run tests to observe the asymptotic behavior of the execution time of the US13 algorithm"><ellipse cx="428.3496" cy="1645.0699" fill="#F1F1F1" rx="193.1496" ry="40.0699" style="stroke:#181818;stroke-width:0.3;"/><text fill="#000000" font-family="sans-serif" font-size="8.4" lengthAdjust="spacing" textLength="371.4" x="242.6496" y="1647.348">UC 014 - Run tests to observe the asymptotic behavior of the execution time of the US13 algorithm</text></g><g id="elem_UC 015 - Predict the average monthly cost that will be paid for water consumption in a new park"><ellipse cx="428.4159" cy="621.4832" fill="#F1F1F1" rx="187.2159" ry="38.8832" style="stroke:#181818;stroke-width:0.3;"/><text fill="#000000" font-family="sans-serif" font-size="8.4" lengthAdjust="spacing" textLength="359.4" x="248.7159" y="623.7613">UC 015 - Predict the average monthly cost that will be paid for water consumption in a new park</text></g><g id="elem_UC 016 - Determine the best line that fits the data of US014"><ellipse cx="428.421" cy="1843.9242" fill="#F1F1F1" rx="120.921" ry="25.6242" style="stroke:#181818;stroke-width:0.3;"/><text fill="#000000" font-family="sans-serif" font-size="8.4" lengthAdjust="spacing" textLength="224.4" x="316.221" y="1846.2023">UC 016 - Determine the best line that fits the data of US014</text></g><g id="elem_UC 017 - Place signs to evacuate, in case of emergency, park users to an Assembly Point"><ellipse cx="428.5429" cy="718.7086" fill="#F1F1F1" rx="176.8429" ry="36.8086" style="stroke:#181818;stroke-width:0.3;"/><text fill="#000000" font-family="sans-serif" font-size="8.4" lengthAdjust="spacing" textLength="338.4" x="259.3429" y="720.9867">UC 017 - Place signs to evacuate, in case of emergency, park users to an Assembly Point</text></g><g id="elem_UC 018 - Place signs to evacuate, in case of emergency, park users to one of the several Assembly Points"><ellipse cx="428.5005" cy="819.7401" fill="#F1F1F1" rx="208.0005" ry="43.0401" style="stroke:#181818;stroke-width:0.3;"/><text fill="#000000" font-family="sans-serif" font-size="8.4" lengthAdjust="spacing" textLength="401.4" x="227.8005" y="822.0182">UC 018 - Place signs to evacuate, in case of emergency, park users to one of the several Assembly Points</text></g><g id="elem_UC 019 - Conclude about the worst-case time complexity of the procedures developed in US13, US17, and US18"><ellipse cx="428.4034" cy="1751.9407" fill="#F1F1F1" rx="219.0034" ry="45.2407" style="stroke:#181818;stroke-width:0.3;"/><text fill="#000000" font-family="sans-serif" font-size="8.4" lengthAdjust="spacing" textLength="423.6" x="216.6034" y="1754.2188">UC 019 - Conclude about the worst-case time complexity of the procedures developed in US13, US17, and US18</text></g><g id="elem_UC 020 - Register a green space"><ellipse cx="428.3671" cy="899.9334" fill="#F1F1F1" rx="73.4671" ry="16.1334" style="stroke:#181818;stroke-width:0.3;"/><text fill="#000000" font-family="sans-serif" font-size="8.4" lengthAdjust="spacing" textLength="124.8" x="365.9671" y="902.2115">UC 020 - Register a green space</text></g><g id="elem_UC 021 - Add a new entry to the To-Do List"><ellipse cx="428.3617" cy="956.9323" fill="#F1F1F1" rx="91.4617" ry="19.7323" style="stroke:#181818;stroke-width:0.3;"/><text fill="#000000" font-family="sans-serif" font-size="8.4" lengthAdjust="spacing" textLength="163.2" x="346.7617" y="959.2105">UC 021 - Add a new entry to the To-Do List</text></g><g id="elem_UC 022 - Add a new entry in the Agenda"><ellipse cx="428.3471" cy="1016.5094" fill="#F1F1F1" rx="86.3471" ry="18.7094" style="stroke:#181818;stroke-width:0.3;"/><text fill="#000000" font-family="sans-serif" font-size="8.4" lengthAdjust="spacing" textLength="152.4" x="352.1471" y="1018.7876">UC 022 - Add a new entry in the Agenda</text></g><g id="elem_UC 023 - Assign a Team to an entry in the Agenda"><ellipse cx="428.3648" cy="1078.673" fill="#F1F1F1" rx="104.6648" ry="22.373" style="stroke:#181818;stroke-width:0.3;"/><text fill="#000000" font-family="sans-serif" font-size="8.4" lengthAdjust="spacing" textLength="190.8" x="332.9648" y="1080.9511">UC 023 - Assign a Team to an entry in the Agenda</text></g><g id="elem_UC 024 - Postpone an entry in the agenda"><ellipse cx="428.4376" cy="1141.7475" fill="#F1F1F1" rx="90.0376" ry="19.4475" style="stroke:#181818;stroke-width:0.3;"/><text fill="#000000" font-family="sans-serif" font-size="8.4" lengthAdjust="spacing" textLength="160.2" x="348.3376" y="1144.0256">UC 024 - Postpone an entry in the agenda</text></g><g id="elem_UC 025 - Cancel an entry in the agenda"><ellipse cx="428.3982" cy="1201.1396" fill="#F1F1F1" rx="85.4982" ry="18.5396" style="stroke:#181818;stroke-width:0.3;"/><text fill="#000000" font-family="sans-serif" font-size="8.4" lengthAdjust="spacing" textLength="150.6" x="353.0982" y="1203.4178">UC 025 - Cancel an entry in the agenda</text></g><g id="elem_UC 026 - Assign vehicles to the Agenda"><ellipse cx="428.4154" cy="1259.2831" fill="#F1F1F1" rx="85.2154" ry="18.4831" style="stroke:#181818;stroke-width:0.3;"/><text fill="#000000" font-family="sans-serif" font-size="8.4" lengthAdjust="spacing" textLength="150" x="353.4154" y="1261.5612">UC 026 - Assign vehicles to the Agenda</text></g><g id="elem_UC 027 - List all green spaces managed by GSM"><ellipse cx="428.4929" cy="1320.7386" fill="#F1F1F1" rx="101.4929" ry="21.7386" style="stroke:#181818;stroke-width:0.3;"/><text fill="#000000" font-family="sans-serif" font-size="8.4" lengthAdjust="spacing" textLength="184.2" x="336.3929" y="1323.0167">UC 027 - List all green spaces managed by GSM</text></g><g id="elem_UC 028 - Consult the tasks assigned to a collaborator between two dates"><ellipse cx="428.44" cy="1979.948" fill="#F1F1F1" rx="145.54" ry="30.548" style="stroke:#181818;stroke-width:0.3;"/><text fill="#000000" font-family="sans-serif" font-size="8.4" lengthAdjust="spacing" textLength="274.8" x="291.04" y="1982.2261">UC 028 - Consult the tasks assigned to a collaborator between two dates</text></g><g id="elem_UC 029 - Record the completion of a task"><ellipse cx="428.5481" cy="1909.3496" fill="#F1F1F1" rx="88.0481" ry="19.0496" style="stroke:#181818;stroke-width:0.3;"/><text fill="#000000" font-family="sans-serif" font-size="8.4" lengthAdjust="spacing" textLength="156" x="350.5481" y="1911.6277">UC 029 - Record the completion of a task</text></g><!--entity HRM--><g id="elem_HRM"><ellipse cx="88.5" cy="126" fill="#F1F1F1" rx="4.8" ry="4.8" style="stroke:#181818;stroke-width:0.3;"/><path d="M88.5,130.8 L88.5,147 M80.7,135.6 L96.3,135.6 M88.5,147 L80.7,156 M88.5,147 L96.3,156 " fill="none" style="stroke:#181818;stroke-width:0.3;"/><text fill="#000000" font-family="sans-serif" font-size="8.4" lengthAdjust="spacing" textLength="105.6" x="35.7" y="165.9645">Human Resources Manager</text></g><!--entity VFM--><g id="elem_VFM"><ellipse cx="88.5" cy="343.8" fill="#F1F1F1" rx="4.8" ry="4.8" style="stroke:#181818;stroke-width:0.3;"/><path d="M88.5,348.6 L88.5,364.8 M80.7,353.4 L96.3,353.4 M88.5,364.8 L80.7,373.8 M88.5,364.8 L96.3,373.8 " fill="none" style="stroke:#181818;stroke-width:0.3;"/><text fill="#000000" font-family="sans-serif" font-size="8.4" lengthAdjust="spacing" textLength="144.6" x="16.2" y="383.7645">Vehicle and Equipment Fleet Manager</text></g><!--entity GSM--><g id="elem_GSM"><ellipse cx="88.5" cy="1029" fill="#F1F1F1" rx="4.8" ry="4.8" style="stroke:#181818;stroke-width:0.3;"/><path d="M88.5,1033.8 L88.5,1050 M80.7,1038.6 L96.3,1038.6 M88.5,1050 L80.7,1059 M88.5,1050 L96.3,1059 " fill="none" style="stroke:#181818;stroke-width:0.3;"/><text fill="#000000" font-family="sans-serif" font-size="8.4" lengthAdjust="spacing" textLength="90.6" x="43.2" y="1068.9645">Green Spaces Manager</text></g><!--entity QAM--><g id="elem_QAM"><ellipse cx="88.5" cy="1733.4" fill="#F1F1F1" rx="4.8" ry="4.8" style="stroke:#181818;stroke-width:0.3;"/><path d="M88.5,1738.2 L88.5,1754.4 M80.7,1743 L96.3,1743 M88.5,1754.4 L80.7,1763.4 M88.5,1754.4 L96.3,1763.4 " fill="none" style="stroke:#181818;stroke-width:0.3;"/><text fill="#000000" font-family="sans-serif" font-size="8.4" lengthAdjust="spacing" textLength="169.8" x="3.6" y="1773.3645">Software Quality Assessment Team Manager</text></g><!--entity Collab--><g id="elem_Collab"><ellipse cx="88.5" cy="1926" fill="#F1F1F1" rx="4.8" ry="4.8" style="stroke:#181818;stroke-width:0.3;"/><path d="M88.5,1930.8 L88.5,1947 M80.7,1935.6 L96.3,1935.6 M88.5,1947 L80.7,1956 M88.5,1947 L96.3,1956 " fill="none" style="stroke:#181818;stroke-width:0.3;"/><text fill="#000000" font-family="sans-serif" font-size="8.4" lengthAdjust="spacing" textLength="46.8" x="65.1" y="1965.9645">Collaborator</text></g><!--link HRM to UC 001 - Register skills--><g id="link_HRM_UC 001 - Register skills"><path d="M111.162,168.48 C131.016,188.268 162.054,215.238 195,228.6 C252.402,251.886 320.4304,255.7836 368.9584,255.0876 " fill="none" id="HRM-to-UC 001 - Register skills" style="stroke:#181818;stroke-width:0.6;"/><polygon fill="#181818" points="372.558,255.036,367.1241,252.7137,369.5583,255.079,367.193,257.5132,372.558,255.036" style="stroke:#181818;stroke-width:0.6;"/></g><!--link HRM to UC 002 - Register a job--><g id="link_HRM_UC 002 - Register a job"><path d="M111.894,120.828 C131.85,101.664 162.648,75.858 195,63 C252.468,40.158 320.3222,36.163 368.8022,36.715 " fill="none" id="HRM-to-UC 002 - Register a job" style="stroke:#181818;stroke-width:0.6;"/><polygon fill="#181818" points="372.402,36.756,367.0297,34.2947,369.4022,36.7218,366.975,39.0944,372.402,36.756" style="stroke:#181818;stroke-width:0.6;"/></g><!--link HRM to UC 003 - Register a collaborator--><g id="link_HRM_UC 003 - Register a collaborator"><path d="M141.516,128.646 C158.46,123.948 177.408,119.166 195,115.8 C249.93,105.282 309.4277,98.7553 356.0597,94.6813 " fill="none" id="HRM-to-UC 003 - Register a collaborator" style="stroke:#181818;stroke-width:0.6;"/><polygon fill="#181818" points="359.646,94.368,354.0576,92.4471,356.6574,94.6291,354.4754,97.2289,359.646,94.368" style="stroke:#181818;stroke-width:0.6;"/></g><!--link HRM to UC 004 - Assign skills to a collaborator--><g id="link_HRM_UC 004 - Assign skills to a collaborator"><path d="M141.462,144.6 C195.822,144.6 278.034,144.6 341.556,144.6 " fill="none" id="HRM-to-UC 004 - Assign skills to a collaborator" style="stroke:#181818;stroke-width:0.6;"/><polygon fill="#181818" points="345.156,144.6,339.756,142.2,342.156,144.6,339.756,147,345.156,144.6" style="stroke:#181818;stroke-width:0.6;"/></g><!--link HRM to UC 005 - Generate a team proposal--><g id="link_HRM_UC 005 - Generate a team proposal"><path d="M141.552,160.122 C158.496,164.712 177.438,169.416 195,172.8 C248.166,183.048 305.3455,189.9057 351.4555,194.4657 " fill="none" id="HRM-to-UC 005 - Generate a team proposal" style="stroke:#181818;stroke-width:0.6;"/><polygon fill="#181818" points="355.038,194.82,349.9004,191.9002,352.0526,194.5248,349.428,196.6769,355.038,194.82" style="stroke:#181818;stroke-width:0.6;"/></g><!--link VFM to UC 006 - Register a vehicle--><g id="link_VFM_UC 006 - Register a vehicle"><path d="M160.806,383.538 C172.176,386.412 183.858,389.094 195,391.2 C252.822,402.12 316.097,408.4689 363.287,412.1649 " fill="none" id="VFM-to-UC 006 - Register a vehicle" style="stroke:#181818;stroke-width:0.6;"/><polygon fill="#181818" points="366.876,412.446,361.6799,409.6317,363.8852,412.2118,361.3051,414.417,366.876,412.446" style="stroke:#181818;stroke-width:0.6;"/></g><!--link VFM to UC 007 - Register a vehicle?s check-up--><g id="link_VFM_UC 007 - Register a vehicle&#8217;s check-up"><path d="M160.818,340.95 C172.188,337.998 183.864,335.22 195,333 C246.318,322.758 301.1947,315.912 346.6927,311.262 " fill="none" id="VFM-to-UC 007 - Register a vehicle&#8217;s check-up" style="stroke:#181818;stroke-width:0.6;"/><polygon fill="#181818" points="350.274,310.896,344.658,309.0575,347.2895,311.201,345.146,313.8326,350.274,310.896" style="stroke:#181818;stroke-width:0.6;"/></g><!--link VFM to UC 008 - List vehicles needing check-up--><g id="link_VFM_UC 008 - List vehicles needing check-up"><path d="M160.932,362.4 C213.846,362.4 282.432,362.4 338.382,362.4 " fill="none" id="VFM-to-UC 008 - List vehicles needing check-up" style="stroke:#181818;stroke-width:0.6;"/><polygon fill="#181818" points="341.982,362.4,336.582,360,338.982,362.4,336.582,364.8,341.982,362.4" style="stroke:#181818;stroke-width:0.6;"/></g><!--link GSM to UC 009 - List the  costs referring to water consumption of specific green space--><g id="link_GSM_UC 009 - List the  costs referring to water consumption of specific green space"><path d="M89.736,1071.408 C92.658,1129.278 108.636,1277.988 195,1352.4 C217.392,1371.696 242.0673,1382.7416 271.0053,1389.8996 " fill="none" id="GSM-to-UC 009 - List the  costs referring to water consumption of specific green space" style="stroke:#181818;stroke-width:0.6;"/><polygon fill="#181818" points="274.5,1390.764,269.8343,1387.1376,271.5878,1390.0436,268.6817,1391.7971,274.5,1390.764" style="stroke:#181818;stroke-width:0.6;"/></g><!--link GSM to UC 010 - List which piece/s of equipment is are used in each day--><g id="link_GSM_UC 010 - List which piece/s of equipment is are used in each day"><path d="M92.166,1071.426 C102.564,1148.46 139.014,1388.772 195,1439.4 C223.296,1464.984 258.2412,1476.5648 295.7952,1481.5448 " fill="none" id="GSM-to-UC 010 - List which piece/s of equipment is are used in each day" style="stroke:#181818;stroke-width:0.6;"/><polygon fill="#181818" points="299.364,1482.018,294.3264,1478.929,296.39,1481.6236,293.6954,1483.6873,299.364,1482.018" style="stroke:#181818;stroke-width:0.6;"/></g><!--link GSM to UC 011 - Collect data from the user portal about the use of the park--><g id="link_GSM_UC 011 - Collect data from the user portal about the use of the park"><path d="M91.05,1071.348 C98.634,1157.688 129.084,1453.152 195,1515.6 C221.34,1540.554 253.7351,1552.4305 289.5011,1558.0165 " fill="none" id="GSM-to-UC 011 - Collect data from the user portal about the use of the park" style="stroke:#181818;stroke-width:0.6;"/><polygon fill="#181818" points="293.058,1558.572,288.093,1555.3675,290.0939,1558.1091,287.3523,1560.11,293.058,1558.572" style="stroke:#181818;stroke-width:0.6;"/></g><!--link GSM to UC 012 - Import a .csv file--><g id="link_GSM_UC 012 - Import a .csv file"><path d="M89.97,1023.762 C94.044,926.706 114.546,562.92 195,489 C246.09,442.062 329.0397,446.4761 380.9877,455.0141 " fill="none" id="GSM-to-UC 012 - Import a .csv file" style="stroke:#181818;stroke-width:0.6;"/><polygon fill="#181818" points="384.54,455.598,379.6007,452.354,381.5797,455.1115,378.8223,457.0905,384.54,455.598" style="stroke:#181818;stroke-width:0.6;"/></g><!--link GSM to UC 013 - Apply an algorithm to find the cheapest way to connect all points--><g id="link_GSM_UC 013 - Apply an algorithm to find the cheapest way to connect all points"><path d="M90.978,1023.78 C98.364,936.462 128.31,635.682 195,571.8 C218.31,549.474 245.7343,537.695 277.4323,531.065 " fill="none" id="GSM-to-UC 013 - Apply an algorithm to find the cheapest way to connect all points" style="stroke:#181818;stroke-width:0.6;"/><polygon fill="#181818" points="280.956,530.328,275.179,529.0844,278.0195,530.9422,276.1617,533.7827,280.956,530.328" style="stroke:#181818;stroke-width:0.6;"/></g><!--link QAM to UC 014 - Run tests to observe the asymptotic behavior of the execution time of the US13 algorithm--><g id="link_QAM_UC 014 - Run tests to observe the asymptotic behavior of the execution time of the US13 algorithm"><path d="M128.166,1728.174 C147.666,1717.128 171.966,1704.618 195,1696.2 C222.156,1686.276 248.3291,1678.8026 277.1231,1671.9746 " fill="none" id="QAM-to-UC 014 - Run tests to observe the asymptotic behavior of the execution time of the US13 algorithm" style="stroke:#181818;stroke-width:0.6;"/><polygon fill="#181818" points="280.626,1671.144,274.8179,1670.0547,277.7069,1671.8362,275.9255,1674.7252,280.626,1671.144" style="stroke:#181818;stroke-width:0.6;"/></g><!--link GSM to UC 015 - Predict the average monthly cost that will be paid for water consumption in a new park--><g id="link_GSM_UC 015 - Predict the average monthly cost that will be paid for water consumption in a new park"><path d="M92.562,1023.774 C103.896,948.978 142.242,720.9 195,671.4 C211.956,655.494 229.3132,645.3979 251.3632,637.4119 " fill="none" id="GSM-to-UC 015 - Predict the average monthly cost that will be paid for water consumption in a new park" style="stroke:#181818;stroke-width:0.6;"/><polygon fill="#181818" points="254.748,636.186,248.8535,635.7683,251.9273,637.2076,250.488,640.2814,254.748,636.186" style="stroke:#181818;stroke-width:0.6;"/></g><!--link QAM to UC 016 - Determine the best line that fits the data of US014--><g id="link_QAM_UC 016 - Determine the best line that fits the data of US014"><path d="M126.714,1775.748 C146.364,1787.118 171.222,1799.94 195,1807.8 C233.538,1820.538 273.6215,1828.316 312.6215,1833.674 " fill="none" id="QAM-to-UC 016 - Determine the best line that fits the data of US014" style="stroke:#181818;stroke-width:0.6;"/><polygon fill="#181818" points="316.188,1834.164,311.1649,1831.0514,313.2159,1833.7557,310.5116,1835.8067,316.188,1834.164" style="stroke:#181818;stroke-width:0.6;"/></g><!--link GSM to UC 017 - Place signs to evacuate, in case of emergency, park users to an Assembly Point--><g id="link_GSM_UC 017 - Place signs to evacuate, in case of emergency, park users to an Assembly Point"><path d="M90.588,1023.846 C95.358,969.252 115.05,834.348 195,766.2 C214.068,749.946 233.7654,739.8229 257.9514,732.1789 " fill="none" id="GSM-to-UC 017 - Place signs to evacuate, in case of emergency, park users to an Assembly Point" style="stroke:#181818;stroke-width:0.6;"/><polygon fill="#181818" points="261.384,731.094,255.5118,730.4329,258.5235,731.9981,256.9583,735.0098,261.384,731.094" style="stroke:#181818;stroke-width:0.6;"/></g><!--link GSM to UC 018 - Place signs to evacuate, in case of emergency, park users to one of the several Assembly Points--><g id="link_GSM_UC 018 - Place signs to evacuate, in case of emergency, park users to one of the several Assembly Points"><path d="M96.696,1023.774 C110.118,985.686 141.762,911.454 195,873 C212.646,860.256 229.4569,851.6964 250.4209,844.2264 " fill="none" id="GSM-to-UC 018 - Place signs to evacuate, in case of emergency, park users to one of the several Assembly Points" style="stroke:#181818;stroke-width:0.6;"/><polygon fill="#181818" points="253.812,843.018,247.9197,842.5698,250.986,844.025,249.5308,847.0913,253.812,843.018" style="stroke:#181818;stroke-width:0.6;"/></g><!--link QAM to UC 019 - Conclude about the worst-case time complexity of the procedures developed in US13, US17, and US18--><g id="link_QAM_UC 019 - Conclude about the worst-case time complexity of the procedures developed in US13, US17, and US18"><path d="M173.478,1752 C184.842,1752 193.296,1752 205.734,1752 " fill="none" id="QAM-to-UC 019 - Conclude about the worst-case time complexity of the procedures developed in US13, US17, and US18" style="stroke:#181818;stroke-width:0.6;"/><polygon fill="#181818" points="209.334,1752,203.934,1749.6,206.334,1752,203.934,1754.4,209.334,1752" style="stroke:#181818;stroke-width:0.6;"/></g><!--link GSM to UC 020 - Register a green space--><g id="link_GSM_UC 020 - Register a green space"><path d="M102.378,1023.726 C119.646,995.208 152.682,948.582 195,926.4 C245.256,900.054 306.2702,894.5463 354.6662,895.0263 " fill="none" id="GSM-to-UC 020 - Register a green space" style="stroke:#181818;stroke-width:0.6;"/><polygon fill="#181818" points="358.266,895.062,352.8901,892.6086,355.2661,895.0322,352.8425,897.4083,358.266,895.062" style="stroke:#181818;stroke-width:0.6;"/></g><!--link GSM to UC 021 - Add a new entry to the To-Do List--><g id="link_GSM_UC 021 - Add a new entry to the To-Do List"><path d="M122.772,1023.774 C142.824,1010.778 169.296,995.628 195,987 C240.78,971.628 290.4666,964.3631 334.4946,960.6671 " fill="none" id="GSM-to-UC 021 - Add a new entry to the To-Do List" style="stroke:#181818;stroke-width:0.6;"/><polygon fill="#181818" points="338.082,960.366,332.5002,958.4261,335.0925,960.617,332.9017,963.2093,338.082,960.366" style="stroke:#181818;stroke-width:0.6;"/></g><!--link GSM to UC 022 - Add a new entry in the Agenda--><g id="link_GSM_UC 022 - Add a new entry in the Agenda"><path d="M133.902,1043.472 C188.556,1038.438 278.3372,1030.1702 345.1712,1024.0142 " fill="none" id="GSM-to-UC 022 - Add a new entry in the Agenda" style="stroke:#181818;stroke-width:0.6;"/><polygon fill="#181818" points="348.756,1023.684,343.1586,1021.7894,345.7686,1023.9592,343.5989,1026.5692,348.756,1023.684" style="stroke:#181818;stroke-width:0.6;"/></g><!--link GSM to UC 023 - Assign a Team to an entry in the Agenda--><g id="link_GSM_UC 023 - Assign a Team to an entry in the Agenda"><path d="M133.902,1051.728 C184.11,1056.354 263.3912,1063.6559 328.3532,1069.6379 " fill="none" id="GSM-to-UC 023 - Assign a Team to an entry in the Agenda" style="stroke:#181818;stroke-width:0.6;"/><polygon fill="#181818" points="331.938,1069.968,326.7808,1067.0829,328.9506,1069.6929,326.3407,1071.8627,331.938,1069.968" style="stroke:#181818;stroke-width:0.6;"/></g><!--link GSM to UC 024 - Postpone an entry in the agenda--><g id="link_GSM_UC 024 - Postpone an entry in the agenda"><path d="M120.486,1071.438 C140.688,1085.526 168.108,1102.392 195,1111.8 C240.966,1127.88 291.1554,1135.2011 335.4354,1138.7411 " fill="none" id="GSM-to-UC 024 - Postpone an entry in the agenda" style="stroke:#181818;stroke-width:0.6;"/><polygon fill="#181818" points="339.024,1139.028,333.8324,1136.2053,336.0335,1138.7889,333.4499,1140.99,339.024,1139.028" style="stroke:#181818;stroke-width:0.6;"/></g><!--link GSM to UC 025 - Cancel an entry in the agenda--><g id="link_GSM_UC 025 - Cancel an entry in the agenda"><path d="M101.97,1071.462 C119.052,1100.532 152.118,1148.64 195,1171.8 C240.522,1196.388 294.5713,1203.72 341.1133,1204.962 " fill="none" id="GSM-to-UC 025 - Cancel an entry in the agenda" style="stroke:#181818;stroke-width:0.6;"/><polygon fill="#181818" points="344.712,1205.058,339.3779,1202.5148,341.7131,1204.978,339.2499,1207.3131,344.712,1205.058" style="stroke:#181818;stroke-width:0.6;"/></g><!--link GSM to UC 026 - Assign vehicles to the Agenda--><g id="link_GSM_UC 026 - Assign vehicles to the Agenda"><path d="M95.4,1071.324 C107.4,1111.428 137.616,1191.978 195,1230 C240.078,1259.874 297.4081,1266.6942 345.6241,1266.3162 " fill="none" id="GSM-to-UC 026 - Assign vehicles to the Agenda" style="stroke:#181818;stroke-width:0.6;"/><polygon fill="#181818" points="349.224,1266.288,343.8054,1263.9304,346.2241,1266.3115,343.843,1268.7303,349.224,1266.288" style="stroke:#181818;stroke-width:0.6;"/></g><!--link GSM to UC 027 - List all green spaces managed by GSM--><g id="link_GSM_UC 027 - List all green spaces managed by GSM"><path d="M91.956,1071.408 C99.228,1120.734 123.276,1233.99 195,1288.2 C233.82,1317.54 283.3874,1326.475 329.1134,1327.759 " fill="none" id="GSM-to-UC 027 - List all green spaces managed by GSM" style="stroke:#181818;stroke-width:0.6;"/><polygon fill="#181818" points="332.712,1327.86,327.3815,1325.3094,329.7132,1327.7758,327.2468,1330.1075,332.712,1327.86" style="stroke:#181818;stroke-width:0.6;"/></g><!--link Collab to UC 028 - Consult the tasks assigned to a collaborator between two dates--><g id="link_Collab_UC 028 - Consult the tasks assigned to a collaborator between two dates"><path d="M112.116,1947.006 C150.12,1950.978 225.1095,1958.8178 294.3555,1966.0538 " fill="none" id="Collab-to-UC 028 - Consult the tasks assigned to a collaborator between two dates" style="stroke:#181818;stroke-width:0.6;"/><polygon fill="#181818" points="297.936,1966.428,292.8147,1963.4798,294.9522,1966.1162,292.3158,1968.2538,297.936,1966.428" style="stroke:#181818;stroke-width:0.6;"/></g><!--link Collab to UC 029 - Record the completion of a task--><g id="link_Collab_UC 029 - Record the completion of a task"><path d="M112.116,1942.194 C159.984,1937.19 268.6275,1925.8341 345.5115,1917.8001 " fill="none" id="Collab-to-UC 029 - Record the completion of a task" style="stroke:#181818;stroke-width:0.6;"/><polygon fill="#181818" points="349.092,1917.426,343.4718,1915.6002,346.1082,1917.7378,343.9707,1920.3742,349.092,1917.426" style="stroke:#181818;stroke-width:0.6;"/></g><!--SRC=[fLNRJXj137tFLrWy5OcqN5e8BvKYA52fI420TsVMkvaoExETcKs8gahzZVvUlwJsRB8aR6YH-X8bMH_Rn-VOQoYF41ruNKmYPDgJYjhPNWzLT1wsBkeIBTnGSBLN5E0IBHRajm03NDnSBiFkQQAL8K2RmQTljQvAiX7E355SWzoVjP1pJsHXLE7pjEUZDcRayZX3Jt1Tez5n3iCGA8IK_9QmNCDT3rlSYJC6nyuZ_qhFcZzwlPxmGrjmgwb-AjyaIKc_zq1eGR__4TxSdS3kxXxqcNwXGoGFuK4R4xOxGVkhGGXVtRWRSx0UerPQx0Q_vs3cgWkxg2aQ_GlqWK7dP8aVin8GPK2LTvKBQ2IQXxyIVRZUpxHHi1jtj37kzyzV0TI4r4E_hhgW0OE-C6GP7i0IPTeMQnXMUWLplCJ42G5J3J60fvoy5nppdw6qe9mDTLc9Iy7b42fIEjSAYkId889sSk_jBdFFk9q9L9eKlGk2fzQjEe1OhGwKWRP0o84Pphl9n19YABOI1qI4tBioTSrO3vNp4GsmJdLS_YkLv6k5_g6RKEppkHGS3_Yj2bF8jTd0GYmqh2epvpq3D8NpEavA6KskUV6a08yNAnAYE9S7F2qhVQ8nt9YsCRcNLsKbhPZjfhPi61avWzoOUKmf9SGmvs6xo1CUqmIdclThGOOUITL9XwZBbkBTYFjic-kI49TUUJQ3QgQ3KpPiGL0w6oTCJOJd1yWKsFXSb8UcCyYvRjS0h1EojMRjODUPYSTFYK6bjWsTiSp6DB-uHAw5CV-VT6G6ToEUHxTfMO8hmzO2sSaq99gYghcX7Mb2OQCnNn5Va5NpdTHHCaIpkpRThdBC3Az4XswDmV_MSBOL8P1CrJohkK7xu-HbgqoTqOfbPyw7s4yLaxRAbPMXHpd1IoTxfoYhFQzsniMCgvgr4VbtvFDe9xqD-DkWmtL_T_se_6rtzsNTXbcs49etrITdInEthd_gqc9tOViRODoVm8OylWoxa8EdgulD-wLHxbLWsQ8hzcubCZm7uGiWMOOJj8hCgo67JqssntKnZfTQErfUFxa2AxCEKAPNNmRZkK04sRmfLy23nY6XDeqr8eO7lfIf0qPstakyOd4c9UBCoLfHs9ZsE3b0ER-uMybWowEEgSfsxqVl3m00]--></g></svg>