<?xml version="1.0" encoding="us-ascii" standalone="no"?><svg xmlns="http://www.w3.org/2000/svg" xmlns:xlink="http://www.w3.org/1999/xlink" contentStyleType="text/css" height="1062px" preserveAspectRatio="none" style="width:425px;height:1062px;background:#FFFFFF;" version="1.1" viewBox="0 0 425 1062" width="425px" zoomAndPan="magnify"><defs/><g><!--class Vehicle--><g id="elem_Vehicle"><rect codeLine="11" fill="#F1F1F1" height="212.8828" id="Vehicle" rx="2.5" ry="2.5" style="stroke:#181818;stroke-width:0.5;" width="202" x="131.5" y="667.93"/><ellipse cx="203.75" cy="683.93" fill="#ADD1B2" rx="11" ry="11" style="stroke:#181818;stroke-width:1.0;"/><path d="M206.7231,689.5731 Q206.1421,689.8719 205.5029,690.0213 Q204.8638,690.1707 204.1582,690.1707 Q201.6514,690.1707 200.3315,688.5189 Q199.0117,686.867 199.0117,683.7459 Q199.0117,680.6165 200.3315,678.9647 Q201.6514,677.3128 204.1582,677.3128 Q204.8638,677.3128 205.5112,677.4622 Q206.1587,677.6116 206.7231,677.9105 L206.7231,680.6331 Q206.0923,680.0521 205.4988,679.7823 Q204.9053,679.5125 204.2744,679.5125 Q202.9297,679.5125 202.2449,680.5792 Q201.5601,681.6458 201.5601,683.7459 Q201.5601,685.8377 202.2449,686.9044 Q202.9297,687.971 204.2744,687.971 Q204.9053,687.971 205.4988,687.7012 Q206.0923,687.4315 206.7231,686.8504 Z " fill="#000000"/><text fill="#000000" font-family="sans-serif" font-size="14" lengthAdjust="spacing" textLength="49" x="224.25" y="689.221">Vehicle</text><line style="stroke:#181818;stroke-width:0.5;" x1="132.5" x2="332.5" y1="699.93" y2="699.93"/><text fill="#000000" font-family="sans-serif" font-size="14" lengthAdjust="spacing" textLength="133" x="137.5" y="717.4652">-String vehiclePlate</text><text fill="#000000" font-family="sans-serif" font-size="14" lengthAdjust="spacing" textLength="94" x="137.5" y="733.9534">-String brand</text><text fill="#000000" font-family="sans-serif" font-size="14" lengthAdjust="spacing" textLength="96" x="137.5" y="750.4417">-String model</text><text fill="#000000" font-family="sans-serif" font-size="14" lengthAdjust="spacing" textLength="82" x="137.5" y="766.93">-String type</text><text fill="#000000" font-family="sans-serif" font-size="14" lengthAdjust="spacing" textLength="88" x="137.5" y="783.4183">-Integer tare</text><text fill="#000000" font-family="sans-serif" font-size="14" lengthAdjust="spacing" textLength="146" x="137.5" y="799.9066">-Integer grossWeight</text><text fill="#000000" font-family="sans-serif" font-size="14" lengthAdjust="spacing" textLength="140" x="137.5" y="816.3948">-Integer currentKms</text><text fill="#000000" font-family="sans-serif" font-size="14" lengthAdjust="spacing" textLength="190" x="137.5" y="832.8831">-Integer checkUpFrequency</text><text fill="#000000" font-family="sans-serif" font-size="14" lengthAdjust="spacing" textLength="127" x="137.5" y="849.3714">-Date registerDate</text><text fill="#000000" font-family="sans-serif" font-size="14" lengthAdjust="spacing" textLength="149" x="137.5" y="865.8597">-Date acquisitionDate</text><line style="stroke:#181818;stroke-width:0.5;" x1="132.5" x2="332.5" y1="872.8128" y2="872.8128"/></g><!--class Maintenance--><g id="elem_Maintenance"><rect codeLine="24" fill="#F1F1F1" height="97.4648" id="Maintenance" rx="2.5" ry="2.5" style="stroke:#181818;stroke-width:0.5;" width="145" x="160" y="957.82"/><ellipse cx="186.7" cy="973.82" fill="#ADD1B2" rx="11" ry="11" style="stroke:#181818;stroke-width:1.0;"/><path d="M189.6731,979.4631 Q189.0921,979.7619 188.4529,979.9113 Q187.8138,980.0607 187.1082,980.0607 Q184.6014,980.0607 183.2815,978.4089 Q181.9617,976.757 181.9617,973.6359 Q181.9617,970.5065 183.2815,968.8547 Q184.6014,967.2028 187.1082,967.2028 Q187.8138,967.2028 188.4612,967.3522 Q189.1087,967.5016 189.6731,967.8005 L189.6731,970.5231 Q189.0423,969.9421 188.4488,969.6723 Q187.8553,969.4025 187.2244,969.4025 Q185.8797,969.4025 185.1949,970.4692 Q184.5101,971.5358 184.5101,973.6359 Q184.5101,975.7277 185.1949,976.7944 Q185.8797,977.861 187.2244,977.861 Q187.8553,977.861 188.4488,977.5912 Q189.0423,977.3215 189.6731,976.7404 Z " fill="#000000"/><text fill="#000000" font-family="sans-serif" font-size="14" lengthAdjust="spacing" textLength="87" x="203.3" y="979.111">Maintenance</text><line style="stroke:#181818;stroke-width:0.5;" x1="161" x2="304" y1="989.82" y2="989.82"/><text fill="#000000" font-family="sans-serif" font-size="14" lengthAdjust="spacing" textLength="133" x="166" y="1007.3552">-String vehiclePlate</text><text fill="#000000" font-family="sans-serif" font-size="14" lengthAdjust="spacing" textLength="73" x="166" y="1023.8434">-Date date</text><text fill="#000000" font-family="sans-serif" font-size="14" lengthAdjust="spacing" textLength="89" x="166" y="1040.3317">-Integer kms</text><line style="stroke:#181818;stroke-width:0.5;" x1="161" x2="304" y1="1047.2848" y2="1047.2848"/></g><!--class ProduceListMaintenceUI--><g id="elem_ProduceListMaintenceUI"><rect codeLine="30" fill="#F1F1F1" height="48" id="ProduceListMaintenceUI" rx="2.5" ry="2.5" style="stroke:#181818;stroke-width:0.5;" width="195" x="135" y="7"/><ellipse cx="150" cy="23" fill="#ADD1B2" rx="11" ry="11" style="stroke:#181818;stroke-width:1.0;"/><path d="M152.9731,28.6431 Q152.3921,28.9419 151.7529,29.0913 Q151.1138,29.2407 150.4082,29.2407 Q147.9014,29.2407 146.5815,27.5889 Q145.2617,25.937 145.2617,22.8159 Q145.2617,19.6865 146.5815,18.0347 Q147.9014,16.3828 150.4082,16.3828 Q151.1138,16.3828 151.7612,16.5322 Q152.4087,16.6816 152.9731,16.9805 L152.9731,19.7031 Q152.3423,19.1221 151.7488,18.8523 Q151.1553,18.5825 150.5244,18.5825 Q149.1797,18.5825 148.4949,19.6492 Q147.8101,20.7158 147.8101,22.8159 Q147.8101,24.9077 148.4949,25.9744 Q149.1797,27.041 150.5244,27.041 Q151.1553,27.041 151.7488,26.7712 Q152.3423,26.5015 152.9731,25.9204 Z " fill="#000000"/><text fill="#000000" font-family="sans-serif" font-size="14" lengthAdjust="spacing" textLength="163" x="164" y="28.291">ProduceListMaintenceUI</text><line style="stroke:#181818;stroke-width:0.5;" x1="136" x2="329" y1="39" y2="39"/><line style="stroke:#181818;stroke-width:0.5;" x1="136" x2="329" y1="47" y2="47"/></g><!--class ProduceListMaintenceController--><g id="elem_ProduceListMaintenceController"><rect codeLine="33" fill="#F1F1F1" height="80.9766" id="ProduceListMaintenceController" rx="2.5" ry="2.5" style="stroke:#181818;stroke-width:0.5;" width="372" x="46.5" y="116"/><ellipse cx="118.75" cy="132" fill="#ADD1B2" rx="11" ry="11" style="stroke:#181818;stroke-width:1.0;"/><path d="M121.7231,137.6431 Q121.1421,137.9419 120.5029,138.0913 Q119.8638,138.2407 119.1582,138.2407 Q116.6514,138.2407 115.3315,136.5889 Q114.0117,134.937 114.0117,131.8159 Q114.0117,128.6865 115.3315,127.0347 Q116.6514,125.3828 119.1582,125.3828 Q119.8638,125.3828 120.5112,125.5322 Q121.1587,125.6816 121.7231,125.9805 L121.7231,128.7031 Q121.0923,128.1221 120.4988,127.8523 Q119.9053,127.5825 119.2744,127.5825 Q117.9297,127.5825 117.2449,128.6492 Q116.5601,129.7158 116.5601,131.8159 Q116.5601,133.9077 117.2449,134.9744 Q117.9297,136.041 119.2744,136.041 Q119.9053,136.041 120.4988,135.7712 Q121.0923,135.5015 121.7231,134.9204 Z " fill="#000000"/><text fill="#000000" font-family="sans-serif" font-size="14" lengthAdjust="spacing" textLength="219" x="139.25" y="137.291">ProduceListMaintenceController</text><line style="stroke:#181818;stroke-width:0.5;" x1="47.5" x2="417.5" y1="148" y2="148"/><line style="stroke:#181818;stroke-width:0.5;" x1="47.5" x2="417.5" y1="156" y2="156"/><text fill="#000000" font-family="sans-serif" font-size="14" lengthAdjust="spacing" textLength="360" x="52.5" y="173.5352">+ProduceListMaintenceController(vehicleRepository)</text><text fill="#000000" font-family="sans-serif" font-size="14" lengthAdjust="spacing" textLength="243" x="52.5" y="190.0234">+getVehiclesNeedingMaintenance()</text></g><!--class Repositories--><g id="elem_Repositories"><rect codeLine="38" fill="#F1F1F1" height="97.4648" id="Repositories" rx="2.5" ry="2.5" style="stroke:#181818;stroke-width:0.5;" width="209" x="7" y="351.98"/><ellipse cx="64.75" cy="367.98" fill="#ADD1B2" rx="11" ry="11" style="stroke:#181818;stroke-width:1.0;"/><path d="M67.7231,373.6231 Q67.1421,373.9219 66.5029,374.0713 Q65.8638,374.2207 65.1582,374.2207 Q62.6514,374.2207 61.3315,372.5689 Q60.0117,370.917 60.0117,367.7959 Q60.0117,364.6665 61.3315,363.0147 Q62.6514,361.3628 65.1582,361.3628 Q65.8638,361.3628 66.5112,361.5122 Q67.1587,361.6616 67.7231,361.9605 L67.7231,364.6831 Q67.0923,364.1021 66.4988,363.8323 Q65.9053,363.5625 65.2744,363.5625 Q63.9297,363.5625 63.2449,364.6292 Q62.5601,365.6958 62.5601,367.7959 Q62.5601,369.8877 63.2449,370.9544 Q63.9297,372.021 65.2744,372.021 Q65.9053,372.021 66.4988,371.7512 Q67.0923,371.4815 67.7231,370.9004 Z " fill="#000000"/><text fill="#000000" font-family="sans-serif" font-size="14" lengthAdjust="spacing" textLength="85" x="85.25" y="373.271">Repositories</text><line style="stroke:#181818;stroke-width:0.5;" x1="8" x2="215" y1="383.98" y2="383.98"/><line style="stroke:#181818;stroke-width:0.5;" x1="8" x2="215" y1="391.98" y2="391.98"/><text fill="#000000" font-family="sans-serif" font-size="14" lengthAdjust="spacing" textLength="103" x="13" y="409.5152">-Repositories()</text><text fill="#000000" font-family="sans-serif" font-size="14" lengthAdjust="spacing" textLength="197" x="13" y="426.0034">+getInstance() : Repositories</text><text fill="#000000" font-family="sans-serif" font-size="14" lengthAdjust="spacing" textLength="165" x="13" y="442.4917">+getVehicleRepository()</text></g><!--class VehicleRepository--><g id="elem_VehicleRepository"><rect codeLine="44" fill="#F1F1F1" height="64.4883" id="VehicleRepository" rx="2.5" ry="2.5" style="stroke:#181818;stroke-width:0.5;" width="255" x="105" y="526.44"/><ellipse cx="167.25" cy="542.44" fill="#ADD1B2" rx="11" ry="11" style="stroke:#181818;stroke-width:1.0;"/><path d="M170.2231,548.0831 Q169.6421,548.3819 169.0029,548.5313 Q168.3638,548.6807 167.6582,548.6807 Q165.1514,548.6807 163.8315,547.0289 Q162.5117,545.377 162.5117,542.2559 Q162.5117,539.1265 163.8315,537.4747 Q165.1514,535.8228 167.6582,535.8228 Q168.3638,535.8228 169.0112,535.9722 Q169.6587,536.1216 170.2231,536.4205 L170.2231,539.1431 Q169.5923,538.5621 168.9988,538.2923 Q168.4053,538.0225 167.7744,538.0225 Q166.4297,538.0225 165.7449,539.0892 Q165.0601,540.1558 165.0601,542.2559 Q165.0601,544.3477 165.7449,545.4144 Q166.4297,546.481 167.7744,546.481 Q168.4053,546.481 168.9988,546.2112 Q169.5923,545.9415 170.2231,545.3604 Z " fill="#000000"/><text fill="#000000" font-family="sans-serif" font-size="14" lengthAdjust="spacing" textLength="122" x="187.75" y="547.731">VehicleRepository</text><line style="stroke:#181818;stroke-width:0.5;" x1="106" x2="359" y1="558.44" y2="558.44"/><line style="stroke:#181818;stroke-width:0.5;" x1="106" x2="359" y1="566.44" y2="566.44"/><text fill="#000000" font-family="sans-serif" font-size="14" lengthAdjust="spacing" textLength="243" x="111" y="583.9752">+getVehiclesNeedingMaintenance()</text></g><!--link Repositories to Repositories--><g id="link_Repositories_Repositories"><path codeLine="49" d="M216.44,385.11 C236.67,386.95 251,392.15 251,400.71 C251,409.27 242.6453,413.9265 222.4153,415.7665 " fill="none" id="Repositories-to-Repositories" style="stroke:#181818;stroke-width:1.0;"/><polygon fill="#181818" points="216.44,416.31,225.7653,419.4783,221.4194,415.8571,225.0407,411.5112,216.44,416.31" style="stroke:#181818;stroke-width:1.0;"/><text fill="#000000" font-family="sans-serif" font-size="13" lengthAdjust="spacing" textLength="53" x="257" y="405.7784">instance</text></g><!--link Repositories to VehicleRepository--><g id="link_Repositories_VehicleRepository"><path codeLine="50" d="M148.79,449.78 C168.1,474.67 187.4326,499.599 204.4426,521.529 " fill="none" id="Repositories-to-VehicleRepository" style="stroke:#181818;stroke-width:1.0;"/><polygon fill="#181818" points="208.12,526.27,205.7646,516.7069,205.0555,522.3192,199.4433,521.6101,208.12,526.27" style="stroke:#181818;stroke-width:1.0;"/><text fill="#000000" font-family="sans-serif" font-size="13" lengthAdjust="spacing" textLength="111" x="184.5" y="493.0084">vehicleRepository</text><text fill="#000000" font-family="sans-serif" font-size="13" lengthAdjust="spacing" textLength="8" x="194.2666" y="515.6381">1</text></g><!--link ProduceListMaintenceController to Repositories--><g id="link_ProduceListMaintenceController_Repositories"><path codeLine="51" d="M212.65,197.22 C191.54,239.49 160.7914,301.0325 138.2014,346.2525 " fill="none" id="ProduceListMaintenceController-to-Repositories" style="stroke:#181818;stroke-width:1.0;stroke-dasharray:7.0,7.0;"/><polygon fill="#181818" points="135.52,351.62,143.1204,345.3563,137.7545,347.1471,135.9637,341.7811,135.52,351.62" style="stroke:#181818;stroke-width:1.0;"/><text fill="#000000" font-family="sans-serif" font-size="13" lengthAdjust="spacing" textLength="75" x="183.5" y="271.5484">repositories</text></g><!--link ProduceListMaintenceController to VehicleRepository--><g id="link_ProduceListMaintenceController_VehicleRepository"><path codeLine="52" d="M249.7,197.32 C274.28,254.22 316.5,351.98 316.5,351.98 C316.5,351.98 316.5,449.44 316.5,449.44 C316.5,449.44 304.5,496.44 304.5,496.44 C304.5,496.44 291.8998,507.162 274.3398,522.102 " fill="none" id="ProduceListMaintenceController-to-VehicleRepository" style="stroke:#181818;stroke-width:1.0;stroke-dasharray:7.0,7.0;"/><polygon fill="#181818" points="269.77,525.99,279.2168,523.2046,273.5782,522.75,274.0328,517.1114,269.77,525.99" style="stroke:#181818;stroke-width:1.0;"/><text fill="#000000" font-family="sans-serif" font-size="13" lengthAdjust="spacing" textLength="111" x="303.5" y="318.5484">vehicleRepository</text></g><!--link ProduceListMaintenceUI to ProduceListMaintenceController--><g id="link_ProduceListMaintenceUI_ProduceListMaintenceController"><path codeLine="54" d="M232.5,55.23 C232.5,72.28 232.5,89.85 232.5,109.85 " fill="none" id="ProduceListMaintenceUI-to-ProduceListMaintenceController" style="stroke:#181818;stroke-width:1.0;stroke-dasharray:7.0,7.0;"/><polygon fill="#181818" points="232.5,115.85,236.5,106.85,232.5,110.85,228.5,106.85,232.5,115.85" style="stroke:#181818;stroke-width:1.0;"/></g><!--link Vehicle to Maintenance--><g id="link_Vehicle_Maintenance"><path codeLine="55" d="M232.5,881.03 C232.5,907.74 232.5,929.13 232.5,951.4 " fill="none" id="Vehicle-to-Maintenance" style="stroke:#181818;stroke-width:1.0;"/><polygon fill="#181818" points="232.5,957.4,236.5,948.4,232.5,952.4,228.5,948.4,232.5,957.4" style="stroke:#181818;stroke-width:1.0;"/><text fill="#000000" font-family="sans-serif" font-size="13" lengthAdjust="spacing" textLength="22" x="233.5" y="924.3884">has</text><text fill="#000000" font-family="sans-serif" font-size="13" lengthAdjust="spacing" textLength="8" x="224.2313" y="901.2788">1</text><text fill="#000000" font-family="sans-serif" font-size="13" lengthAdjust="spacing" textLength="6" x="226.0781" y="947.0234">*</text></g><!--link VehicleRepository to Vehicle--><g id="link_VehicleRepository_Vehicle"><path codeLine="57" d="M232.5,591.22 C232.5,611.77 232.5,633.88 232.5,661.87 " fill="none" id="VehicleRepository-to-Vehicle" style="stroke:#181818;stroke-width:1.0;"/><polygon fill="#181818" points="232.5,667.87,236.5,658.87,232.5,662.87,228.5,658.87,232.5,667.87" style="stroke:#181818;stroke-width:1.0;"/><text fill="#000000" font-family="sans-serif" font-size="13" lengthAdjust="spacing" textLength="51" x="233.5" y="634.4984">vehicles</text><text fill="#000000" font-family="sans-serif" font-size="13" lengthAdjust="spacing" textLength="8" x="223.7375" y="611.4498">1</text><text fill="#000000" font-family="sans-serif" font-size="13" lengthAdjust="spacing" textLength="6" x="226.2797" y="657.0778">*</text></g><!--SRC=[ZPD1RzGm48Nl_XMZlUmMr1LSSwY4g2gj2gXYLJYxpZInrl6aumae8FuxJZR9EeHsUyoRcJVVivrrE5XVQzOLLEJ9b4mLWd23wbIfjJde0lVIEWH68zeNBcq8fSxff_K5F6eNqegp7gMj4MfoRVUXrlyf4WkfPCeu7S874ROFZU3EaD_RNmZlb5exV1GG0hP5AP3R3iUILwgVWMzOMXCfVok0IzX7XmZruoZUEIsOwW-iVPuA5UNeKg6ZwxztNh101j4y5mgc4BvZHpFJJSECNcwhC9TBD8Vx-eRngK5lshvu7RdYkHOs2FBr2DchsZmrDjWkOb_uCmRzh6sqzDgROzZduqvU-Ubxn3b4lCdoZYbl37wA68ExmVjTT7-nuoDvON8kkXqvtfvfsmnyNx6cc8oulHZc2fJX_i8Nn3ncIL9kBauSqwZ5CALFnKrYkVD1ZWQGpPeMMqz4wR95SShv2burGxsycgDdO0UuV_fYu-hzQhawWyNXgJENijrkvrkp-DIIGpWxVlKw3FNCy-aCNjwXnf-sYzn7VxEQlUyCIXsKMbv4EZ2QJ6nnuYy0]--></g></svg>