<?xml version="1.0" encoding="us-ascii" standalone="no"?><svg xmlns="http://www.w3.org/2000/svg" xmlns:xlink="http://www.w3.org/1999/xlink" contentStyleType="text/css" height="1029px" preserveAspectRatio="none" style="width:1686px;height:1029px;background:#FFFFFF;" version="1.1" viewBox="0 0 1686 1029" width="1686px" zoomAndPan="magnify"><defs/><g><text fill="#000000" font-family="sans-serif" font-size="14" font-weight="bold" lengthAdjust="spacing" textLength="404" x="640.25" y="28.5352">US008 - Produce a list of vehicles needing maintenance</text><rect fill="#FFFFFF" height="801.6504" style="stroke:#181818;stroke-width:1.0;" width="10" x="32.5" y="128.9766"/><rect fill="#FFFFFF" height="273.2832" style="stroke:#181818;stroke-width:1.0;" width="10" x="444.5" y="150.2871"/><rect fill="#FFFFFF" height="477.7461" style="stroke:#181818;stroke-width:1.0;" width="10" x="444.5" y="452.8809"/><rect fill="#FFFFFF" height="58.6211" style="stroke:#181818;stroke-width:1.0;" width="10" x="822.5" y="179.5977"/><rect fill="#FFFFFF" height="73.7539" style="stroke:#181818;stroke-width:1.0;" width="10" x="822.5" y="296.1953"/><rect fill="#FFFFFF" height="73.7539" style="stroke:#181818;stroke-width:1.0;" width="10" x="822.5" y="482.1914"/><rect fill="#FFFFFF" height="73.7539" style="stroke:#181818;stroke-width:1.0;" width="10" x="822.5" y="585.2559"/><rect fill="#FFFFFF" height="71.6211" style="stroke:#181818;stroke-width:1.0;" width="10" x="822.5" y="688.3203"/><rect fill="#FFFFFF" height="73.7539" style="stroke:#181818;stroke-width:1.0;" width="10" x="822.5" y="813.5625"/><rect fill="#FFFFFF" height="29.3105" style="stroke:#181818;stroke-width:1.0;" width="10" x="1329.5" y="208.9082"/><rect fill="none" height="517.3672" style="stroke:#000000;stroke-width:1.5;" width="1324.5" x="10" y="384.9492"/><rect fill="none" height="120.375" style="stroke:#000000;stroke-width:1.5;" width="681" x="312" y="774.9414"/><line style="stroke:#181818;stroke-width:0.5;stroke-dasharray:5.0,5.0;" x1="37" x2="37" y1="118.9766" y2="948.627"/><line style="stroke:#181818;stroke-width:0.5;stroke-dasharray:5.0,5.0;" x1="449" x2="449" y1="118.9766" y2="948.627"/><line style="stroke:#181818;stroke-width:0.5;stroke-dasharray:5.0,5.0;" x1="827" x2="827" y1="118.9766" y2="948.627"/><line style="stroke:#181818;stroke-width:0.5;stroke-dasharray:5.0,5.0;" x1="1334.5" x2="1334.5" y1="118.9766" y2="948.627"/><line style="stroke:#181818;stroke-width:0.5;stroke-dasharray:5.0,5.0;" x1="1562.5" x2="1562.5" y1="255.8965" y2="948.627"/><text fill="#000000" font-family="sans-serif" font-size="14" lengthAdjust="spacing" textLength="29" x="20" y="116.0234">VFM</text><ellipse cx="37.5" cy="50.9883" fill="#E3E3E3" rx="8" ry="8" style="stroke:#181818;stroke-width:0.5;"/><path d="M37.5,58.9883 L37.5,85.9883 M24.5,66.9883 L50.5,66.9883 M37.5,85.9883 L24.5,100.9883 M37.5,85.9883 L50.5,100.9883 " fill="none" style="stroke:#181818;stroke-width:0.5;"/><text fill="#000000" font-family="sans-serif" font-size="14" lengthAdjust="spacing" textLength="29" x="20" y="961.1621">VFM</text><ellipse cx="37.5" cy="972.6152" fill="#E3E3E3" rx="8" ry="8" style="stroke:#181818;stroke-width:0.5;"/><path d="M37.5,980.6152 L37.5,1007.6152 M24.5,988.6152 L50.5,988.6152 M37.5,1007.6152 L24.5,1022.6152 M37.5,1007.6152 L50.5,1022.6152 " fill="none" style="stroke:#181818;stroke-width:0.5;"/><rect fill="#E3E3E3" height="30.4883" rx="2.5" ry="2.5" style="stroke:#181818;stroke-width:0.5;" width="255" x="322" y="87.4883"/><text fill="#000000" font-family="sans-serif" font-size="14" lengthAdjust="spacing" textLength="241" x="329" y="108.0234">:ListVehiclesNeedingMaintenanceUI</text><rect fill="#E3E3E3" height="30.4883" rx="2.5" ry="2.5" style="stroke:#181818;stroke-width:0.5;" width="255" x="322" y="947.627"/><text fill="#000000" font-family="sans-serif" font-size="14" lengthAdjust="spacing" textLength="241" x="329" y="968.1621">:ListVehiclesNeedingMaintenanceUI</text><rect fill="#E3E3E3" height="30.4883" rx="2.5" ry="2.5" style="stroke:#181818;stroke-width:0.5;" width="311" x="672" y="87.4883"/><text fill="#000000" font-family="sans-serif" font-size="14" lengthAdjust="spacing" textLength="297" x="679" y="108.0234">:ListVehiclesNeedingMaintenanceController</text><rect fill="#E3E3E3" height="30.4883" rx="2.5" ry="2.5" style="stroke:#181818;stroke-width:0.5;" width="311" x="672" y="947.627"/><text fill="#000000" font-family="sans-serif" font-size="14" lengthAdjust="spacing" textLength="297" x="679" y="968.1621">:ListVehiclesNeedingMaintenanceController</text><rect fill="#E3E3E3" height="46.9766" rx="2.5" ry="2.5" style="stroke:#181818;stroke-width:0.5;" width="138" x="1265.5" y="71"/><text fill="#000000" font-family="sans-serif" font-size="14" lengthAdjust="spacing" textLength="124" x="1272.5" y="91.5352">vehicleRepository:</text><text fill="#000000" font-family="sans-serif" font-size="14" lengthAdjust="spacing" textLength="122" x="1273.5" y="108.0234">VehicleRepository</text><rect fill="#E3E3E3" height="46.9766" rx="2.5" ry="2.5" style="stroke:#181818;stroke-width:0.5;" width="138" x="1265.5" y="947.627"/><text fill="#000000" font-family="sans-serif" font-size="14" lengthAdjust="spacing" textLength="124" x="1272.5" y="968.1621">vehicleRepository:</text><text fill="#000000" font-family="sans-serif" font-size="14" lengthAdjust="spacing" textLength="122" x="1273.5" y="984.6504">VehicleRepository</text><rect fill="#E3E3E3" height="46.9766" rx="2.5" ry="2.5" style="stroke:#181818;stroke-width:0.5;" width="235" x="1445.5" y="947.627"/><text fill="#000000" font-family="sans-serif" font-size="14" lengthAdjust="spacing" textLength="221" x="1452.5" y="968.1621">vehiclesNeedingMaintenanceList</text><text fill="#000000" font-family="sans-serif" font-size="14" lengthAdjust="spacing" textLength="94" x="1516" y="984.6504">List&lt;Vehicle&gt;</text><rect fill="#FFFFFF" height="801.6504" style="stroke:#181818;stroke-width:1.0;" width="10" x="32.5" y="128.9766"/><rect fill="#FFFFFF" height="273.2832" style="stroke:#181818;stroke-width:1.0;" width="10" x="444.5" y="150.2871"/><rect fill="#FFFFFF" height="477.7461" style="stroke:#181818;stroke-width:1.0;" width="10" x="444.5" y="452.8809"/><rect fill="#FFFFFF" height="58.6211" style="stroke:#181818;stroke-width:1.0;" width="10" x="822.5" y="179.5977"/><rect fill="#FFFFFF" height="73.7539" style="stroke:#181818;stroke-width:1.0;" width="10" x="822.5" y="296.1953"/><rect fill="#FFFFFF" height="73.7539" style="stroke:#181818;stroke-width:1.0;" width="10" x="822.5" y="482.1914"/><rect fill="#FFFFFF" height="73.7539" style="stroke:#181818;stroke-width:1.0;" width="10" x="822.5" y="585.2559"/><rect fill="#FFFFFF" height="71.6211" style="stroke:#181818;stroke-width:1.0;" width="10" x="822.5" y="688.3203"/><rect fill="#FFFFFF" height="73.7539" style="stroke:#181818;stroke-width:1.0;" width="10" x="822.5" y="813.5625"/><rect fill="#FFFFFF" height="29.3105" style="stroke:#181818;stroke-width:1.0;" width="10" x="1329.5" y="208.9082"/><polygon fill="#181818" points="432.5,146.2871,442.5,150.2871,432.5,154.2871,436.5,150.2871" style="stroke:#181818;stroke-width:1.0;"/><line style="stroke:#181818;stroke-width:1.0;" x1="42.5" x2="438.5" y1="150.2871" y2="150.2871"/><text fill="#000000" font-family="sans-serif" font-size="13" font-weight="bold" lengthAdjust="spacing" textLength="9" x="49.5" y="145.5449">1</text><text fill="#000000" font-family="sans-serif" font-size="13" lengthAdjust="spacing" textLength="370" x="62.5" y="145.5449">asks to produce a list of the vehicles needing maintenance</text><polygon fill="#181818" points="810.5,175.5977,820.5,179.5977,810.5,183.5977,814.5,179.5977" style="stroke:#181818;stroke-width:1.0;"/><line style="stroke:#181818;stroke-width:1.0;" x1="454.5" x2="816.5" y1="179.5977" y2="179.5977"/><text fill="#000000" font-family="sans-serif" font-size="13" font-weight="bold" lengthAdjust="spacing" textLength="9" x="461.5" y="174.8555">2</text><text fill="#000000" font-family="sans-serif" font-size="13" lengthAdjust="spacing" textLength="69" x="474.5" y="174.8555">createList()</text><polygon fill="#181818" points="1317.5,204.9082,1327.5,208.9082,1317.5,212.9082,1321.5,208.9082" style="stroke:#181818;stroke-width:1.0;"/><line style="stroke:#181818;stroke-width:1.0;" x1="832.5" x2="1323.5" y1="208.9082" y2="208.9082"/><text fill="#000000" font-family="sans-serif" font-size="13" font-weight="bold" lengthAdjust="spacing" textLength="9" x="839.5" y="204.166">3</text><text fill="#000000" font-family="sans-serif" font-size="13" lengthAdjust="spacing" textLength="69" x="852.5" y="204.166">createList()</text><polygon fill="#181818" points="1433.5,234.2188,1443.5,238.2188,1433.5,242.2188,1437.5,238.2188" style="stroke:#181818;stroke-width:1.0;"/><line style="stroke:#181818;stroke-width:1.0;" x1="1334.5" x2="1439.5" y1="238.2188" y2="238.2188"/><text fill="#000000" font-family="sans-serif" font-size="13" font-weight="bold" lengthAdjust="spacing" textLength="9" x="1341.5" y="233.4766">4</text><text fill="#000000" font-family="sans-serif" font-size="13" lengthAdjust="spacing" textLength="69" x="1354.5" y="233.4766">createList()</text><rect fill="#E3E3E3" height="46.9766" rx="2.5" ry="2.5" style="stroke:#181818;stroke-width:0.5;" width="235" x="1445.5" y="216.9082"/><text fill="#000000" font-family="sans-serif" font-size="14" lengthAdjust="spacing" textLength="221" x="1452.5" y="237.4434">vehiclesNeedingMaintenanceList</text><text fill="#000000" font-family="sans-serif" font-size="14" lengthAdjust="spacing" textLength="94" x="1516" y="253.9316">List&lt;Vehicle&gt;</text><polygon fill="#181818" points="810.5,292.1953,820.5,296.1953,810.5,300.1953,814.5,296.1953" style="stroke:#181818;stroke-width:1.0;"/><line style="stroke:#181818;stroke-width:1.0;" x1="454.5" x2="816.5" y1="296.1953" y2="296.1953"/><text fill="#000000" font-family="sans-serif" font-size="13" font-weight="bold" lengthAdjust="spacing" textLength="9" x="461.5" y="291.4531">5</text><text fill="#000000" font-family="sans-serif" font-size="13" lengthAdjust="spacing" textLength="103" x="474.5" y="291.4531">getVehiclesList()</text><rect fill="none" height="39.4434" style="stroke:#000000;stroke-width:1.5;" width="317" x="669" y="304.1953"/><path d="M669,304.1953 L733,304.1953 L733,311.1953 L723,321.1953 L669,321.1953 L669,304.1953 " fill="#EEEEEE" style="stroke:#000000;stroke-width:2.0;"/><text fill="#000000" font-family="sans-serif" font-size="13" font-weight="bold" lengthAdjust="spacing" textLength="19" x="682" y="318.7637">ref</text><text fill="#000000" font-family="sans-serif" font-size="12" lengthAdjust="spacing" textLength="94" x="780.5" y="336.7969">Get Vehicles List</text><polygon fill="#181818" points="465.5,365.9492,455.5,369.9492,465.5,373.9492,461.5,369.9492" style="stroke:#181818;stroke-width:1.0;"/><line style="stroke:#181818;stroke-width:1.0;stroke-dasharray:2.0,2.0;" x1="459.5" x2="826.5" y1="369.9492" y2="369.9492"/><text fill="#000000" font-family="sans-serif" font-size="13" font-weight="bold" lengthAdjust="spacing" textLength="9" x="471.5" y="365.207">6</text><text fill="#000000" font-family="sans-serif" font-size="13" lengthAdjust="spacing" textLength="74" x="484.5" y="365.207">vehiclesList</text><path d="M10,384.9492 L84,384.9492 L84,392.2598 L74,402.2598 L10,402.2598 L10,384.9492 " fill="#EEEEEE" style="stroke:#000000;stroke-width:1.5;"/><rect fill="none" height="517.3672" style="stroke:#000000;stroke-width:1.5;" width="1324.5" x="10" y="384.9492"/><text fill="#000000" font-family="sans-serif" font-size="13" font-weight="bold" lengthAdjust="spacing" textLength="29" x="25" y="398.5176">loop</text><text fill="#000000" font-family="sans-serif" font-size="11" font-weight="bold" lengthAdjust="spacing" textLength="146" x="99" y="397.584">[until end of vehicles list]</text><polygon fill="#181818" points="53.5,419.5703,43.5,423.5703,53.5,427.5703,49.5,423.5703" style="stroke:#181818;stroke-width:1.0;"/><line style="stroke:#181818;stroke-width:1.0;stroke-dasharray:2.0,2.0;" x1="47.5" x2="448.5" y1="423.5703" y2="423.5703"/><text fill="#000000" font-family="sans-serif" font-size="13" font-weight="bold" lengthAdjust="spacing" textLength="9" x="59.5" y="418.8281">7</text><text fill="#000000" font-family="sans-serif" font-size="13" lengthAdjust="spacing" textLength="311" x="72.5" y="418.8281">requests to update the current kms of the vehicle</text><polygon fill="#181818" points="432.5,448.8809,442.5,452.8809,432.5,456.8809,436.5,452.8809" style="stroke:#181818;stroke-width:1.0;"/><line style="stroke:#181818;stroke-width:1.0;" x1="42.5" x2="438.5" y1="452.8809" y2="452.8809"/><text fill="#000000" font-family="sans-serif" font-size="13" font-weight="bold" lengthAdjust="spacing" textLength="9" x="49.5" y="448.1387">8</text><text fill="#000000" font-family="sans-serif" font-size="13" lengthAdjust="spacing" textLength="232" x="62.5" y="448.1387">enters the current kms of the vehicle</text><polygon fill="#181818" points="810.5,478.1914,820.5,482.1914,810.5,486.1914,814.5,482.1914" style="stroke:#181818;stroke-width:1.0;"/><line style="stroke:#181818;stroke-width:1.0;" x1="454.5" x2="816.5" y1="482.1914" y2="482.1914"/><text fill="#000000" font-family="sans-serif" font-size="13" font-weight="bold" lengthAdjust="spacing" textLength="9" x="461.5" y="477.4492">9</text><text fill="#000000" font-family="sans-serif" font-size="13" lengthAdjust="spacing" textLength="232" x="474.5" y="477.4492">updateVehicleKms(vehiclePlate, kms)</text><rect fill="none" height="39.4434" style="stroke:#000000;stroke-width:1.5;" width="317" x="669" y="490.1914"/><path d="M669,490.1914 L733,490.1914 L733,497.1914 L723,507.1914 L669,507.1914 L669,490.1914 " fill="#EEEEEE" style="stroke:#000000;stroke-width:2.0;"/><text fill="#000000" font-family="sans-serif" font-size="13" font-weight="bold" lengthAdjust="spacing" textLength="19" x="682" y="504.7598">ref</text><text fill="#000000" font-family="sans-serif" font-size="12" lengthAdjust="spacing" textLength="125" x="765" y="522.793">Update Vehicle's Kms</text><polygon fill="#181818" points="465.5,551.9453,455.5,555.9453,465.5,559.9453,461.5,555.9453" style="stroke:#181818;stroke-width:1.0;"/><line style="stroke:#181818;stroke-width:1.0;stroke-dasharray:2.0,2.0;" x1="459.5" x2="826.5" y1="555.9453" y2="555.9453"/><text fill="#000000" font-family="sans-serif" font-size="13" font-weight="bold" lengthAdjust="spacing" textLength="18" x="471.5" y="551.2031">10</text><text fill="#000000" font-family="sans-serif" font-size="13" lengthAdjust="spacing" textLength="44" x="493.5" y="551.2031">vehicle</text><polygon fill="#181818" points="810.5,581.2559,820.5,585.2559,810.5,589.2559,814.5,585.2559" style="stroke:#181818;stroke-width:1.0;"/><line style="stroke:#181818;stroke-width:1.0;" x1="454.5" x2="816.5" y1="585.2559" y2="585.2559"/><text fill="#000000" font-family="sans-serif" font-size="13" font-weight="bold" lengthAdjust="spacing" textLength="18" x="461.5" y="580.5137">11</text><text fill="#000000" font-family="sans-serif" font-size="13" lengthAdjust="spacing" textLength="207" x="483.5" y="580.5137">getLastMaintenance(vehiclePlate)</text><rect fill="none" height="39.4434" style="stroke:#000000;stroke-width:1.5;" width="317" x="669" y="593.2559"/><path d="M669,593.2559 L733,593.2559 L733,600.2559 L723,610.2559 L669,610.2559 L669,593.2559 " fill="#EEEEEE" style="stroke:#000000;stroke-width:2.0;"/><text fill="#000000" font-family="sans-serif" font-size="13" font-weight="bold" lengthAdjust="spacing" textLength="19" x="682" y="607.8242">ref</text><text fill="#000000" font-family="sans-serif" font-size="12" lengthAdjust="spacing" textLength="177" x="739" y="625.8574">Get Vehicle's Last Maintenance</text><polygon fill="#181818" points="465.5,655.0098,455.5,659.0098,465.5,663.0098,461.5,659.0098" style="stroke:#181818;stroke-width:1.0;"/><line style="stroke:#181818;stroke-width:1.0;stroke-dasharray:2.0,2.0;" x1="459.5" x2="826.5" y1="659.0098" y2="659.0098"/><text fill="#000000" font-family="sans-serif" font-size="13" font-weight="bold" lengthAdjust="spacing" textLength="18" x="471.5" y="654.2676">12</text><text fill="#000000" font-family="sans-serif" font-size="13" lengthAdjust="spacing" textLength="102" x="493.5" y="654.2676">lastMaintenance</text><polygon fill="#181818" points="810.5,684.3203,820.5,688.3203,810.5,692.3203,814.5,688.3203" style="stroke:#181818;stroke-width:1.0;"/><line style="stroke:#181818;stroke-width:1.0;" x1="454.5" x2="816.5" y1="688.3203" y2="688.3203"/><text fill="#000000" font-family="sans-serif" font-size="13" font-weight="bold" lengthAdjust="spacing" textLength="18" x="461.5" y="683.5781">13</text><text fill="#000000" font-family="sans-serif" font-size="13" lengthAdjust="spacing" textLength="327" x="483.5" y="683.5781">calculateNextMaintenance(vehicle, lastMaintenance)</text><line style="stroke:#181818;stroke-width:1.0;" x1="832.5" x2="874.5" y1="717.6309" y2="717.6309"/><line style="stroke:#181818;stroke-width:1.0;" x1="874.5" x2="874.5" y1="717.6309" y2="730.6309"/><line style="stroke:#181818;stroke-width:1.0;" x1="833.5" x2="874.5" y1="730.6309" y2="730.6309"/><polygon fill="#181818" points="843.5,726.6309,833.5,730.6309,843.5,734.6309,839.5,730.6309" style="stroke:#181818;stroke-width:1.0;"/><text fill="#000000" font-family="sans-serif" font-size="13" font-weight="bold" lengthAdjust="spacing" textLength="18" x="839.5" y="712.8887">14</text><text fill="#000000" font-family="sans-serif" font-size="13" lengthAdjust="spacing" textLength="461" x="861.5" y="712.8887">needsMaintenance = calculateNextMaintenance(vehicle, lastMaintenance)</text><polygon fill="#181818" points="465.5,755.9414,455.5,759.9414,465.5,763.9414,461.5,759.9414" style="stroke:#181818;stroke-width:1.0;"/><line style="stroke:#181818;stroke-width:1.0;stroke-dasharray:2.0,2.0;" x1="459.5" x2="826.5" y1="759.9414" y2="759.9414"/><text fill="#000000" font-family="sans-serif" font-size="13" font-weight="bold" lengthAdjust="spacing" textLength="18" x="471.5" y="755.1992">15</text><text fill="#000000" font-family="sans-serif" font-size="13" lengthAdjust="spacing" textLength="116" x="493.5" y="755.1992">needsMaintenance</text><path d="M312,774.9414 L379,774.9414 L379,782.252 L369,792.252 L312,792.252 L312,774.9414 " fill="#EEEEEE" style="stroke:#000000;stroke-width:1.5;"/><rect fill="none" height="120.375" style="stroke:#000000;stroke-width:1.5;" width="681" x="312" y="774.9414"/><text fill="#000000" font-family="sans-serif" font-size="13" font-weight="bold" lengthAdjust="spacing" textLength="22" x="327" y="788.5098">opt</text><text fill="#000000" font-family="sans-serif" font-size="11" font-weight="bold" lengthAdjust="spacing" textLength="148" x="394" y="787.5762">[needsMaintenance = true]</text><polygon fill="#181818" points="810.5,809.5625,820.5,813.5625,810.5,817.5625,814.5,813.5625" style="stroke:#181818;stroke-width:1.0;"/><line style="stroke:#181818;stroke-width:1.0;" x1="454.5" x2="816.5" y1="813.5625" y2="813.5625"/><text fill="#000000" font-family="sans-serif" font-size="13" font-weight="bold" lengthAdjust="spacing" textLength="18" x="461.5" y="808.8203">16</text><text fill="#000000" font-family="sans-serif" font-size="13" lengthAdjust="spacing" textLength="159" x="483.5" y="808.8203">addVehicleToList(vehicle)</text><rect fill="none" height="39.4434" style="stroke:#000000;stroke-width:1.5;" width="317" x="669" y="821.5625"/><path d="M669,821.5625 L733,821.5625 L733,828.5625 L723,838.5625 L669,838.5625 L669,821.5625 " fill="#EEEEEE" style="stroke:#000000;stroke-width:2.0;"/><text fill="#000000" font-family="sans-serif" font-size="13" font-weight="bold" lengthAdjust="spacing" textLength="19" x="682" y="836.1309">ref</text><text fill="#000000" font-family="sans-serif" font-size="12" lengthAdjust="spacing" textLength="286" x="684.5" y="854.1641">Add Vehicle to Vehicles Needing Maintenance List</text><polygon fill="#181818" points="465.5,883.3164,455.5,887.3164,465.5,891.3164,461.5,887.3164" style="stroke:#181818;stroke-width:1.0;"/><line style="stroke:#181818;stroke-width:1.0;stroke-dasharray:2.0,2.0;" x1="459.5" x2="826.5" y1="887.3164" y2="887.3164"/><text fill="#000000" font-family="sans-serif" font-size="13" font-weight="bold" lengthAdjust="spacing" textLength="18" x="471.5" y="882.5742">17</text><text fill="#000000" font-family="sans-serif" font-size="13" lengthAdjust="spacing" textLength="205" x="493.5" y="882.5742">vehiclesNeedingMaintenanceList</text><polygon fill="#181818" points="48.5,926.627,38.5,930.627,48.5,934.627,44.5,930.627" style="stroke:#181818;stroke-width:1.0;"/><line style="stroke:#181818;stroke-width:1.0;stroke-dasharray:2.0,2.0;" x1="42.5" x2="448.5" y1="930.627" y2="930.627"/><text fill="#000000" font-family="sans-serif" font-size="13" font-weight="bold" lengthAdjust="spacing" textLength="18" x="54.5" y="925.8848">18</text><text fill="#000000" font-family="sans-serif" font-size="13" lengthAdjust="spacing" textLength="274" x="76.5" y="925.8848">shows list of vehicles needing maintenance</text><!--SRC=[dLNBRjim4BphAnQ-v844oB4msW15q1H1xI18OfzoOQcrJPWYLP9owh_lafPaFIZ5gGwsH75cPsTtARiLAcU6PP1ffVd6w0p1cG8JMx_96T-oDRwulKGmo1rJQzdSO3SirUz2hM75fCKaSSBHriNBpSqNk8OdezE28p2GmZhGAzZXHd295XHYwd4P4ygXOeeJcXLEgoBxZORkkTC69ilx-GIOXHzPBlKUCQ70Jd2HC-LWCfqHxxBaV3nGpe-CYuU0NJny2dMdbJDQIZG1VVVwF6lZooIUCTTMaChzz4qjksi1srkD4aKqU8Llolz-BJbk0-4u8hWcTipXqQy4wAgUuFgMt80fKMqjE0rvhq9kW-DLydnr6B8sB10fKNkhY9mRf7TUqFb5Utlmqg-4dOJe6JGAxzlfN_SvY7ZSgClBM9mKFuZKs10owQU-nhgnHlCtk0AzGtDSyTTFT5La2w6WVXLLwlStVAkgk6k46XOejSwXK4x8GDMSGba1VHB4MlV9b2B-AT2wq2L5ddfAtngyC0QfTxUPxNHBLm2rHhJr28t6daBMfMevVT1KklKhi-SbyadIyfMdZ7a_RFxYa6D9U6Q1E4-p__JMc37h6ftOalmvjOrE8QcU5-QT6QrqHuJBjeve0lsfPf8NNkaZ_erbSTMb_MZsIrv_njW63BxzRwXsabtUmInrxc8YmhUmcioM4onDI-zVTPZoKjP5lJrInk6ff-jxcbRbzFDMdm7bwTMixV5Sw1Lv-80O-5nKe9Whn5p_3nmHTgFVxMcVzlxPa3GUAyv_]--></g></svg>