<?xml version="1.0" encoding="us-ascii" standalone="no"?><svg xmlns="http://www.w3.org/2000/svg" xmlns:xlink="http://www.w3.org/1999/xlink" contentStyleType="text/css" height="544px" preserveAspectRatio="none" style="width:1083px;height:544px;background:#FFFFFF;" version="1.1" viewBox="0 0 1083 544" width="1083px" zoomAndPan="magnify"><defs/><g><text fill="#000000" font-family="sans-serif" font-size="14" font-weight="bold" lengthAdjust="spacing" textLength="404" x="341" y="28.5352">US008 - Produce a list of vehicles needing maintenance</text><rect fill="#FFFFFF" height="295.1055" style="stroke:#181818;stroke-width:1.0;" width="10" x="273" y="150.2871"/><rect fill="#FFFFFF" height="29.3105" style="stroke:#181818;stroke-width:1.0;" width="10" x="490" y="203.9082"/><rect fill="#FFFFFF" height="29.3105" style="stroke:#181818;stroke-width:1.0;" width="10" x="603" y="262.5293"/><rect fill="#FFFFFF" height="87.9316" style="stroke:#181818;stroke-width:1.0;" width="10" x="733.5" y="321.1504"/><rect fill="#FFFFFF" height="29.3105" style="stroke:#181818;stroke-width:1.0;" width="10" x="1028.5" y="350.4609"/><rect fill="none" height="251.7949" style="stroke:#000000;stroke-width:1.5;" width="964.5" x="112.5" y="165.2871"/><line style="stroke:#181818;stroke-width:0.5;stroke-dasharray:5.0,5.0;" x1="22" x2="22" y1="118.9766" y2="463.3926"/><line style="stroke:#181818;stroke-width:0.5;stroke-dasharray:5.0,5.0;" x1="277.5" x2="277.5" y1="118.9766" y2="463.3926"/><line style="stroke:#181818;stroke-width:0.5;stroke-dasharray:5.0,5.0;" x1="494.5" x2="494.5" y1="118.9766" y2="463.3926"/><line style="stroke:#181818;stroke-width:0.5;stroke-dasharray:5.0,5.0;" x1="607.5" x2="607.5" y1="118.9766" y2="463.3926"/><line style="stroke:#181818;stroke-width:0.5;stroke-dasharray:5.0,5.0;" x1="738.5" x2="738.5" y1="118.9766" y2="463.3926"/><line style="stroke:#181818;stroke-width:0.5;stroke-dasharray:5.0,5.0;" x1="1033" x2="1033" y1="118.9766" y2="463.3926"/><text fill="#000000" font-family="sans-serif" font-size="14" lengthAdjust="spacing" textLength="29" x="5" y="116.0234">VFM</text><ellipse cx="22.5" cy="50.9883" fill="#E3E3E3" rx="8" ry="8" style="stroke:#181818;stroke-width:0.5;"/><path d="M22.5,58.9883 L22.5,85.9883 M9.5,66.9883 L35.5,66.9883 M22.5,85.9883 L9.5,100.9883 M22.5,85.9883 L35.5,100.9883 " fill="none" style="stroke:#181818;stroke-width:0.5;"/><text fill="#000000" font-family="sans-serif" font-size="14" lengthAdjust="spacing" textLength="29" x="5" y="475.9277">VFM</text><ellipse cx="22.5" cy="487.3809" fill="#E3E3E3" rx="8" ry="8" style="stroke:#181818;stroke-width:0.5;"/><path d="M22.5,495.3809 L22.5,522.3809 M9.5,503.3809 L35.5,503.3809 M22.5,522.3809 L9.5,537.3809 M22.5,522.3809 L35.5,537.3809 " fill="none" style="stroke:#181818;stroke-width:0.5;"/><rect fill="#E3E3E3" height="30.4883" rx="2.5" ry="2.5" style="stroke:#181818;stroke-width:0.5;" width="311" x="122.5" y="87.4883"/><text fill="#000000" font-family="sans-serif" font-size="14" lengthAdjust="spacing" textLength="297" x="129.5" y="108.0234">:ListVehiclesNeedingMaintenanceController</text><rect fill="#E3E3E3" height="30.4883" rx="2.5" ry="2.5" style="stroke:#181818;stroke-width:0.5;" width="311" x="122.5" y="462.3926"/><text fill="#000000" font-family="sans-serif" font-size="14" lengthAdjust="spacing" textLength="297" x="129.5" y="482.9277">:ListVehiclesNeedingMaintenanceController</text><rect fill="#E3E3E3" height="30.4883" rx="2.5" ry="2.5" style="stroke:#181818;stroke-width:0.5;" width="103" x="443.5" y="87.4883"/><text fill="#000000" font-family="sans-serif" font-size="14" lengthAdjust="spacing" textLength="89" x="450.5" y="108.0234">:Repositories</text><rect fill="#E3E3E3" height="30.4883" rx="2.5" ry="2.5" style="stroke:#181818;stroke-width:0.5;" width="103" x="443.5" y="462.3926"/><text fill="#000000" font-family="sans-serif" font-size="14" lengthAdjust="spacing" textLength="89" x="450.5" y="482.9277">:Repositories</text><rect fill="#E3E3E3" height="46.9766" rx="2.5" ry="2.5" style="stroke:#181818;stroke-width:0.5;" width="103" x="556.5" y="71"/><text fill="#000000" font-family="sans-serif" font-size="14" lengthAdjust="spacing" textLength="82" x="567" y="91.5352">repositories</text><text fill="#000000" font-family="sans-serif" font-size="14" lengthAdjust="spacing" textLength="89" x="563.5" y="108.0234">:Repositories</text><rect fill="#E3E3E3" height="46.9766" rx="2.5" ry="2.5" style="stroke:#181818;stroke-width:0.5;" width="103" x="556.5" y="462.3926"/><text fill="#000000" font-family="sans-serif" font-size="14" lengthAdjust="spacing" textLength="82" x="567" y="482.9277">repositories</text><text fill="#000000" font-family="sans-serif" font-size="14" lengthAdjust="spacing" textLength="89" x="563.5" y="499.416">:Repositories</text><rect fill="#E3E3E3" height="46.9766" rx="2.5" ry="2.5" style="stroke:#181818;stroke-width:0.5;" width="138" x="669.5" y="71"/><text fill="#000000" font-family="sans-serif" font-size="14" lengthAdjust="spacing" textLength="124" x="676.5" y="91.5352">vehicleRepository:</text><text fill="#000000" font-family="sans-serif" font-size="14" lengthAdjust="spacing" textLength="122" x="677.5" y="108.0234">VehicleRepository</text><rect fill="#E3E3E3" height="46.9766" rx="2.5" ry="2.5" style="stroke:#181818;stroke-width:0.5;" width="138" x="669.5" y="462.3926"/><text fill="#000000" font-family="sans-serif" font-size="14" lengthAdjust="spacing" textLength="124" x="676.5" y="482.9277">vehicleRepository:</text><text fill="#000000" font-family="sans-serif" font-size="14" lengthAdjust="spacing" textLength="122" x="677.5" y="499.416">VehicleRepository</text><rect fill="#E3E3E3" height="46.9766" rx="2.5" ry="2.5" style="stroke:#181818;stroke-width:0.5;" width="67" x="1000" y="71"/><text fill="#000000" font-family="sans-serif" font-size="14" lengthAdjust="spacing" textLength="47" x="1010" y="91.5352">vehicle</text><text fill="#000000" font-family="sans-serif" font-size="14" lengthAdjust="spacing" textLength="53" x="1007" y="108.0234">:Vehicle</text><rect fill="#E3E3E3" height="46.9766" rx="2.5" ry="2.5" style="stroke:#181818;stroke-width:0.5;" width="67" x="1000" y="462.3926"/><text fill="#000000" font-family="sans-serif" font-size="14" lengthAdjust="spacing" textLength="47" x="1010" y="482.9277">vehicle</text><text fill="#000000" font-family="sans-serif" font-size="14" lengthAdjust="spacing" textLength="53" x="1007" y="499.416">:Vehicle</text><rect fill="#FFFFFF" height="295.1055" style="stroke:#181818;stroke-width:1.0;" width="10" x="273" y="150.2871"/><rect fill="#FFFFFF" height="29.3105" style="stroke:#181818;stroke-width:1.0;" width="10" x="490" y="203.9082"/><rect fill="#FFFFFF" height="29.3105" style="stroke:#181818;stroke-width:1.0;" width="10" x="603" y="262.5293"/><rect fill="#FFFFFF" height="87.9316" style="stroke:#181818;stroke-width:1.0;" width="10" x="733.5" y="321.1504"/><rect fill="#FFFFFF" height="29.3105" style="stroke:#181818;stroke-width:1.0;" width="10" x="1028.5" y="350.4609"/><polygon fill="#181818" points="261,146.2871,271,150.2871,261,154.2871,265,150.2871" style="stroke:#181818;stroke-width:1.0;"/><line style="stroke:#181818;stroke-width:1.0;" x1="0" x2="267" y1="150.2871" y2="150.2871"/><text fill="#000000" font-family="sans-serif" font-size="13" font-weight="bold" lengthAdjust="spacing" textLength="18" x="7" y="145.5449">15</text><text fill="#000000" font-family="sans-serif" font-size="13" lengthAdjust="spacing" textLength="232" x="29" y="145.5449">updateVehicleKms(vehiclePlate, kms)</text><path d="M112.5,165.2871 L259.5,165.2871 L259.5,172.5977 L249.5,182.5977 L112.5,182.5977 L112.5,165.2871 " fill="#EEEEEE" style="stroke:#000000;stroke-width:1.5;"/><rect fill="none" height="251.7949" style="stroke:#000000;stroke-width:1.5;" width="964.5" x="112.5" y="165.2871"/><text fill="#000000" font-family="sans-serif" font-size="13" font-weight="bold" lengthAdjust="spacing" textLength="102" x="127.5" y="178.8555">Update Vehicle</text><polygon fill="#181818" points="478,199.9082,488,203.9082,478,207.9082,482,203.9082" style="stroke:#181818;stroke-width:1.0;"/><line style="stroke:#181818;stroke-width:1.0;" x1="283" x2="484" y1="203.9082" y2="203.9082"/><text fill="#000000" font-family="sans-serif" font-size="13" font-weight="bold" lengthAdjust="spacing" textLength="30" x="290" y="199.166">15.1</text><text fill="#000000" font-family="sans-serif" font-size="13" lengthAdjust="spacing" textLength="81" x="324" y="199.166">getInstance()</text><polygon fill="#181818" points="294,229.2188,284,233.2188,294,237.2188,290,233.2188" style="stroke:#181818;stroke-width:1.0;"/><line style="stroke:#181818;stroke-width:1.0;stroke-dasharray:2.0,2.0;" x1="288" x2="494" y1="233.2188" y2="233.2188"/><text fill="#000000" font-family="sans-serif" font-size="13" font-weight="bold" lengthAdjust="spacing" textLength="30" x="300" y="228.4766">15.2</text><text fill="#000000" font-family="sans-serif" font-size="13" lengthAdjust="spacing" textLength="75" x="334" y="228.4766">repositories</text><polygon fill="#181818" points="591,258.5293,601,262.5293,591,266.5293,595,262.5293" style="stroke:#181818;stroke-width:1.0;"/><line style="stroke:#181818;stroke-width:1.0;" x1="283" x2="597" y1="262.5293" y2="262.5293"/><text fill="#000000" font-family="sans-serif" font-size="13" font-weight="bold" lengthAdjust="spacing" textLength="30" x="290" y="257.7871">15.3</text><text fill="#000000" font-family="sans-serif" font-size="13" lengthAdjust="spacing" textLength="140" x="324" y="257.7871">getVehicleRepository()</text><polygon fill="#181818" points="294,287.8398,284,291.8398,294,295.8398,290,291.8398" style="stroke:#181818;stroke-width:1.0;"/><line style="stroke:#181818;stroke-width:1.0;stroke-dasharray:2.0,2.0;" x1="288" x2="607" y1="291.8398" y2="291.8398"/><text fill="#000000" font-family="sans-serif" font-size="13" font-weight="bold" lengthAdjust="spacing" textLength="30" x="300" y="287.0977">15.4</text><text fill="#000000" font-family="sans-serif" font-size="13" lengthAdjust="spacing" textLength="111" x="334" y="287.0977">vehicleRepository</text><polygon fill="#181818" points="721.5,317.1504,731.5,321.1504,721.5,325.1504,725.5,321.1504" style="stroke:#181818;stroke-width:1.0;"/><line style="stroke:#181818;stroke-width:1.0;" x1="283" x2="727.5" y1="321.1504" y2="321.1504"/><text fill="#000000" font-family="sans-serif" font-size="13" font-weight="bold" lengthAdjust="spacing" textLength="30" x="290" y="316.4082">15.5</text><text fill="#000000" font-family="sans-serif" font-size="13" lengthAdjust="spacing" textLength="232" x="324" y="316.4082">updateVehicleKms(vehiclePlate, kms)</text><polygon fill="#181818" points="1016.5,346.4609,1026.5,350.4609,1016.5,354.4609,1020.5,350.4609" style="stroke:#181818;stroke-width:1.0;"/><line style="stroke:#181818;stroke-width:1.0;" x1="743.5" x2="1022.5" y1="350.4609" y2="350.4609"/><text fill="#000000" font-family="sans-serif" font-size="13" font-weight="bold" lengthAdjust="spacing" textLength="30" x="750.5" y="345.7188">15.6</text><text fill="#000000" font-family="sans-serif" font-size="13" lengthAdjust="spacing" textLength="232" x="784.5" y="345.7188">updateVehicleKms(vehiclePlate, kms)</text><polygon fill="#181818" points="754.5,375.7715,744.5,379.7715,754.5,383.7715,750.5,379.7715" style="stroke:#181818;stroke-width:1.0;"/><line style="stroke:#181818;stroke-width:1.0;stroke-dasharray:2.0,2.0;" x1="748.5" x2="1032.5" y1="379.7715" y2="379.7715"/><text fill="#000000" font-family="sans-serif" font-size="13" font-weight="bold" lengthAdjust="spacing" textLength="30" x="760.5" y="375.0293">15.7</text><text fill="#000000" font-family="sans-serif" font-size="13" lengthAdjust="spacing" textLength="44" x="794.5" y="375.0293">vehicle</text><polygon fill="#181818" points="294,405.082,284,409.082,294,413.082,290,409.082" style="stroke:#181818;stroke-width:1.0;"/><line style="stroke:#181818;stroke-width:1.0;stroke-dasharray:2.0,2.0;" x1="288" x2="737.5" y1="409.082" y2="409.082"/><text fill="#000000" font-family="sans-serif" font-size="13" font-weight="bold" lengthAdjust="spacing" textLength="30" x="300" y="404.3398">15.8</text><text fill="#000000" font-family="sans-serif" font-size="13" lengthAdjust="spacing" textLength="44" x="334" y="404.3398">vehicle</text><polygon fill="#181818" points="11,441.3926,1,445.3926,11,449.3926,7,445.3926" style="stroke:#181818;stroke-width:1.0;"/><line style="stroke:#181818;stroke-width:1.0;stroke-dasharray:2.0,2.0;" x1="5" x2="277" y1="445.3926" y2="445.3926"/><text fill="#000000" font-family="sans-serif" font-size="13" font-weight="bold" lengthAdjust="spacing" textLength="18" x="17" y="440.6504">16</text><text fill="#000000" font-family="sans-serif" font-size="13" lengthAdjust="spacing" textLength="44" x="39" y="440.6504">vehicle</text><!--SRC=[fP9TIyCm58Rl-oiEkzh0odQXo111XeAuoTZNrMvYUzQ5fKb9qid-lMdQjMbJKJ2N9-TztlEbJfHdH98KKi55T9GYHT0onq3LFnc9JYJ1jRum18cH9ZnXRe8wabXyKPx0WJ25GQ2fDgdRzNZy024ifOZp2840eqg3EC0PZpHYg80ZneKk9PHhv8H7HaqYBIGCTg-B0H05Bsd6n0KnC6QQHZGZNCDWEZUiNSNvA36BXZ8JN4l164hBc6rMyuv-XPbGr3XHL3Qd3bpMj6XG2zwMI4UnvpvWEN_Uj1LLdmrvkkUxRinglMWloBXMYQx8J2mtnURf9qgOt0NXa-qNff1dCT5OfRsdQbXnbio4R-2Kgb57V3knywTdar1E3SnBfCWps5fQxLfyM1_ZrpCxOv-WVkDA5_iOZcn-ZUuRjite8uLDH-uER7wClpElLHOBAilonjsjp-xIXgp8gS3RQRUCHdhrzTp-k9fMHVw5s7-VtHZ-mwO5j-ttDN5sJi6PG1_3BT0RvW-0peoHn-Kbjc_sFdWCmoumS6ZsZBy1]--></g></svg>