<?xml version="1.0" encoding="us-ascii" standalone="no"?><svg xmlns="http://www.w3.org/2000/svg" xmlns:xlink="http://www.w3.org/1999/xlink" contentStyleType="text/css" height="1538px" preserveAspectRatio="none" style="width:2184px;height:1538px;background:#FFFFFF;" version="1.1" viewBox="0 0 2184 1538" width="2184px" zoomAndPan="magnify"><defs/><g><text fill="#000000" font-family="sans-serif" font-size="14" font-weight="bold" lengthAdjust="spacing" textLength="404" x="891.5" y="28.5352">US008 - Produce a list of vehicles needing maintenance</text><rect fill="#FFFFFF" height="1310.1973" style="stroke:#181818;stroke-width:1.0;" width="10" x="32.5" y="128.9766"/><rect fill="#FFFFFF" height="446.1914" style="stroke:#181818;stroke-width:1.0;" width="10" x="444.5" y="150.2871"/><rect fill="#FFFFFF" height="813.3848" style="stroke:#181818;stroke-width:1.0;" width="10" x="444.5" y="625.7891"/><rect fill="#FFFFFF" height="58.6211" style="stroke:#181818;stroke-width:1.0;" width="10" x="822.5" y="221.0859"/><rect fill="#FFFFFF" height="205.1738" style="stroke:#181818;stroke-width:1.0;" width="10" x="822.5" y="337.6836"/><rect fill="#FFFFFF" height="263.7949" style="stroke:#181818;stroke-width:1.0;" width="10" x="822.5" y="655.0996"/><rect fill="#FFFFFF" height="205.1738" style="stroke:#181818;stroke-width:1.0;" width="10" x="822.5" y="948.2051"/><rect fill="#FFFFFF" height="71.6211" style="stroke:#181818;stroke-width:1.0;" width="10" x="822.5" y="1182.6895"/><rect fill="#FFFFFF" height="87.9316" style="stroke:#181818;stroke-width:1.0;" width="10" x="822.5" y="1307.9316"/><rect fill="#FFFFFF" height="29.3105" style="stroke:#181818;stroke-width:1.0;" width="10" x="1329.5" y="366.9941"/><rect fill="#FFFFFF" height="29.3105" style="stroke:#181818;stroke-width:1.0;" width="10" x="1329.5" y="684.4102"/><rect fill="#FFFFFF" height="29.3105" style="stroke:#181818;stroke-width:1.0;" width="10" x="1329.5" y="977.5156"/><rect fill="#FFFFFF" height="29.3105" style="stroke:#181818;stroke-width:1.0;" width="10" x="1442.5" y="425.6152"/><rect fill="#FFFFFF" height="29.3105" style="stroke:#181818;stroke-width:1.0;" width="10" x="1442.5" y="743.0313"/><rect fill="#FFFFFF" height="29.3105" style="stroke:#181818;stroke-width:1.0;" width="10" x="1442.5" y="1036.1367"/><rect fill="#FFFFFF" height="29.3105" style="stroke:#181818;stroke-width:1.0;" width="10" x="1573" y="250.3965"/><rect fill="#FFFFFF" height="29.3105" style="stroke:#181818;stroke-width:1.0;" width="10" x="1573" y="484.2363"/><rect fill="#FFFFFF" height="87.9316" style="stroke:#181818;stroke-width:1.0;" width="10" x="1573" y="801.6523"/><rect fill="#FFFFFF" height="29.3105" style="stroke:#181818;stroke-width:1.0;" width="10" x="1741.5" y="1094.7578"/><rect fill="#FFFFFF" height="29.3105" style="stroke:#181818;stroke-width:1.0;" width="10" x="1874.5" y="830.9629"/><rect fill="#FFFFFF" height="29.3105" style="stroke:#181818;stroke-width:1.0;" width="10" x="2035.5" y="1337.2422"/><rect fill="none" height="853.0059" style="stroke:#000000;stroke-width:1.5;" width="2168" x="10" y="557.8574"/><rect fill="none" height="134.5527" style="stroke:#000000;stroke-width:1.5;" width="1856" x="312" y="1269.3105"/><line style="stroke:#181818;stroke-width:0.5;stroke-dasharray:5.0,5.0;" x1="37" x2="37" y1="118.9766" y2="1457.1738"/><line style="stroke:#181818;stroke-width:0.5;stroke-dasharray:5.0,5.0;" x1="449" x2="449" y1="118.9766" y2="1457.1738"/><line style="stroke:#181818;stroke-width:0.5;stroke-dasharray:5.0,5.0;" x1="827" x2="827" y1="189.0313" y2="1457.1738"/><line style="stroke:#181818;stroke-width:0.5;stroke-dasharray:5.0,5.0;" x1="1334" x2="1334" y1="118.9766" y2="1457.1738"/><line style="stroke:#181818;stroke-width:0.5;stroke-dasharray:5.0,5.0;" x1="1447" x2="1447" y1="118.9766" y2="1457.1738"/><line style="stroke:#181818;stroke-width:0.5;stroke-dasharray:5.0,5.0;" x1="1578" x2="1578" y1="118.9766" y2="1457.1738"/><line style="stroke:#181818;stroke-width:0.5;stroke-dasharray:5.0,5.0;" x1="1746" x2="1746" y1="118.9766" y2="1457.1738"/><line style="stroke:#181818;stroke-width:0.5;stroke-dasharray:5.0,5.0;" x1="1879" x2="1879" y1="118.9766" y2="1457.1738"/><line style="stroke:#181818;stroke-width:0.5;stroke-dasharray:5.0,5.0;" x1="2040" x2="2040" y1="297.3848" y2="1457.1738"/><text fill="#000000" font-family="sans-serif" font-size="14" lengthAdjust="spacing" textLength="29" x="20" y="116.0234">VFM</text><ellipse cx="37.5" cy="50.9883" fill="#E3E3E3" rx="8" ry="8" style="stroke:#181818;stroke-width:0.5;"/><path d="M37.5,58.9883 L37.5,85.9883 M24.5,66.9883 L50.5,66.9883 M37.5,85.9883 L24.5,100.9883 M37.5,85.9883 L50.5,100.9883 " fill="none" style="stroke:#181818;stroke-width:0.5;"/><text fill="#000000" font-family="sans-serif" font-size="14" lengthAdjust="spacing" textLength="29" x="20" y="1469.709">VFM</text><ellipse cx="37.5" cy="1481.1621" fill="#E3E3E3" rx="8" ry="8" style="stroke:#181818;stroke-width:0.5;"/><path d="M37.5,1489.1621 L37.5,1516.1621 M24.5,1497.1621 L50.5,1497.1621 M37.5,1516.1621 L24.5,1531.1621 M37.5,1516.1621 L50.5,1531.1621 " fill="none" style="stroke:#181818;stroke-width:0.5;"/><rect fill="#E3E3E3" height="30.4883" rx="2.5" ry="2.5" style="stroke:#181818;stroke-width:0.5;" width="255" x="322" y="87.4883"/><text fill="#000000" font-family="sans-serif" font-size="14" lengthAdjust="spacing" textLength="241" x="329" y="108.0234">:ListVehiclesNeedingMaintenanceUI</text><rect fill="#E3E3E3" height="30.4883" rx="2.5" ry="2.5" style="stroke:#181818;stroke-width:0.5;" width="255" x="322" y="1456.1738"/><text fill="#000000" font-family="sans-serif" font-size="14" lengthAdjust="spacing" textLength="241" x="329" y="1476.709">:ListVehiclesNeedingMaintenanceUI</text><rect fill="#E3E3E3" height="30.4883" rx="2.5" ry="2.5" style="stroke:#181818;stroke-width:0.5;" width="311" x="672" y="1456.1738"/><text fill="#000000" font-family="sans-serif" font-size="14" lengthAdjust="spacing" textLength="297" x="679" y="1476.709">:ListVehiclesNeedingMaintenanceController</text><rect fill="#E3E3E3" height="30.4883" rx="2.5" ry="2.5" style="stroke:#181818;stroke-width:0.5;" width="103" x="1283" y="87.4883"/><text fill="#000000" font-family="sans-serif" font-size="14" lengthAdjust="spacing" textLength="89" x="1290" y="108.0234">:Repositories</text><rect fill="#E3E3E3" height="30.4883" rx="2.5" ry="2.5" style="stroke:#181818;stroke-width:0.5;" width="103" x="1283" y="1456.1738"/><text fill="#000000" font-family="sans-serif" font-size="14" lengthAdjust="spacing" textLength="89" x="1290" y="1476.709">:Repositories</text><rect fill="#E3E3E3" height="46.9766" rx="2.5" ry="2.5" style="stroke:#181818;stroke-width:0.5;" width="103" x="1396" y="71"/><text fill="#000000" font-family="sans-serif" font-size="14" lengthAdjust="spacing" textLength="82" x="1406.5" y="91.5352">repositories</text><text fill="#000000" font-family="sans-serif" font-size="14" lengthAdjust="spacing" textLength="89" x="1403" y="108.0234">:Repositories</text><rect fill="#E3E3E3" height="46.9766" rx="2.5" ry="2.5" style="stroke:#181818;stroke-width:0.5;" width="103" x="1396" y="1456.1738"/><text fill="#000000" font-family="sans-serif" font-size="14" lengthAdjust="spacing" textLength="82" x="1406.5" y="1476.709">repositories</text><text fill="#000000" font-family="sans-serif" font-size="14" lengthAdjust="spacing" textLength="89" x="1403" y="1493.1973">:Repositories</text><rect fill="#E3E3E3" height="46.9766" rx="2.5" ry="2.5" style="stroke:#181818;stroke-width:0.5;" width="138" x="1509" y="71"/><text fill="#000000" font-family="sans-serif" font-size="14" lengthAdjust="spacing" textLength="124" x="1516" y="91.5352">vehicleRepository:</text><text fill="#000000" font-family="sans-serif" font-size="14" lengthAdjust="spacing" textLength="122" x="1517" y="108.0234">VehicleRepository</text><rect fill="#E3E3E3" height="46.9766" rx="2.5" ry="2.5" style="stroke:#181818;stroke-width:0.5;" width="138" x="1509" y="1456.1738"/><text fill="#000000" font-family="sans-serif" font-size="14" lengthAdjust="spacing" textLength="124" x="1516" y="1476.709">vehicleRepository:</text><text fill="#000000" font-family="sans-serif" font-size="14" lengthAdjust="spacing" textLength="122" x="1517" y="1493.1973">VehicleRepository</text><rect fill="#E3E3E3" height="46.9766" rx="2.5" ry="2.5" style="stroke:#181818;stroke-width:0.5;" width="179" x="1657" y="71"/><text fill="#000000" font-family="sans-serif" font-size="14" lengthAdjust="spacing" textLength="165" x="1664" y="91.5352">maintenanceRepository:</text><text fill="#000000" font-family="sans-serif" font-size="14" lengthAdjust="spacing" textLength="160" x="1666.5" y="108.0234">MaintenanceRepository</text><rect fill="#E3E3E3" height="46.9766" rx="2.5" ry="2.5" style="stroke:#181818;stroke-width:0.5;" width="179" x="1657" y="1456.1738"/><text fill="#000000" font-family="sans-serif" font-size="14" lengthAdjust="spacing" textLength="165" x="1664" y="1476.709">maintenanceRepository:</text><text fill="#000000" font-family="sans-serif" font-size="14" lengthAdjust="spacing" textLength="160" x="1666.5" y="1493.1973">MaintenanceRepository</text><rect fill="#E3E3E3" height="46.9766" rx="2.5" ry="2.5" style="stroke:#181818;stroke-width:0.5;" width="67" x="1846" y="71"/><text fill="#000000" font-family="sans-serif" font-size="14" lengthAdjust="spacing" textLength="47" x="1856" y="91.5352">vehicle</text><text fill="#000000" font-family="sans-serif" font-size="14" lengthAdjust="spacing" textLength="53" x="1853" y="108.0234">:Vehicle</text><rect fill="#E3E3E3" height="46.9766" rx="2.5" ry="2.5" style="stroke:#181818;stroke-width:0.5;" width="67" x="1846" y="1456.1738"/><text fill="#000000" font-family="sans-serif" font-size="14" lengthAdjust="spacing" textLength="47" x="1856" y="1476.709">vehicle</text><text fill="#000000" font-family="sans-serif" font-size="14" lengthAdjust="spacing" textLength="53" x="1853" y="1493.1973">:Vehicle</text><rect fill="#E3E3E3" height="46.9766" rx="2.5" ry="2.5" style="stroke:#181818;stroke-width:0.5;" width="235" x="1923" y="1456.1738"/><text fill="#000000" font-family="sans-serif" font-size="14" lengthAdjust="spacing" textLength="221" x="1930" y="1476.709">vehiclesNeedingMaintenanceList</text><text fill="#000000" font-family="sans-serif" font-size="14" lengthAdjust="spacing" textLength="94" x="1993.5" y="1493.1973">List&lt;Vehicle&gt;</text><rect fill="#FFFFFF" height="1310.1973" style="stroke:#181818;stroke-width:1.0;" width="10" x="32.5" y="128.9766"/><rect fill="#FFFFFF" height="446.1914" style="stroke:#181818;stroke-width:1.0;" width="10" x="444.5" y="150.2871"/><rect fill="#FFFFFF" height="813.3848" style="stroke:#181818;stroke-width:1.0;" width="10" x="444.5" y="625.7891"/><rect fill="#FFFFFF" height="58.6211" style="stroke:#181818;stroke-width:1.0;" width="10" x="822.5" y="221.0859"/><rect fill="#FFFFFF" height="205.1738" style="stroke:#181818;stroke-width:1.0;" width="10" x="822.5" y="337.6836"/><rect fill="#FFFFFF" height="263.7949" style="stroke:#181818;stroke-width:1.0;" width="10" x="822.5" y="655.0996"/><rect fill="#FFFFFF" height="205.1738" style="stroke:#181818;stroke-width:1.0;" width="10" x="822.5" y="948.2051"/><rect fill="#FFFFFF" height="71.6211" style="stroke:#181818;stroke-width:1.0;" width="10" x="822.5" y="1182.6895"/><rect fill="#FFFFFF" height="87.9316" style="stroke:#181818;stroke-width:1.0;" width="10" x="822.5" y="1307.9316"/><rect fill="#FFFFFF" height="29.3105" style="stroke:#181818;stroke-width:1.0;" width="10" x="1329.5" y="366.9941"/><rect fill="#FFFFFF" height="29.3105" style="stroke:#181818;stroke-width:1.0;" width="10" x="1329.5" y="684.4102"/><rect fill="#FFFFFF" height="29.3105" style="stroke:#181818;stroke-width:1.0;" width="10" x="1329.5" y="977.5156"/><rect fill="#FFFFFF" height="29.3105" style="stroke:#181818;stroke-width:1.0;" width="10" x="1442.5" y="425.6152"/><rect fill="#FFFFFF" height="29.3105" style="stroke:#181818;stroke-width:1.0;" width="10" x="1442.5" y="743.0313"/><rect fill="#FFFFFF" height="29.3105" style="stroke:#181818;stroke-width:1.0;" width="10" x="1442.5" y="1036.1367"/><rect fill="#FFFFFF" height="29.3105" style="stroke:#181818;stroke-width:1.0;" width="10" x="1573" y="250.3965"/><rect fill="#FFFFFF" height="29.3105" style="stroke:#181818;stroke-width:1.0;" width="10" x="1573" y="484.2363"/><rect fill="#FFFFFF" height="87.9316" style="stroke:#181818;stroke-width:1.0;" width="10" x="1573" y="801.6523"/><rect fill="#FFFFFF" height="29.3105" style="stroke:#181818;stroke-width:1.0;" width="10" x="1741.5" y="1094.7578"/><rect fill="#FFFFFF" height="29.3105" style="stroke:#181818;stroke-width:1.0;" width="10" x="1874.5" y="830.9629"/><rect fill="#FFFFFF" height="29.3105" style="stroke:#181818;stroke-width:1.0;" width="10" x="2035.5" y="1337.2422"/><polygon fill="#181818" points="432.5,146.2871,442.5,150.2871,432.5,154.2871,436.5,150.2871" style="stroke:#181818;stroke-width:1.0;"/><line style="stroke:#181818;stroke-width:1.0;" x1="42.5" x2="438.5" y1="150.2871" y2="150.2871"/><text fill="#000000" font-family="sans-serif" font-size="13" font-weight="bold" lengthAdjust="spacing" textLength="9" x="49.5" y="145.5449">1</text><text fill="#000000" font-family="sans-serif" font-size="13" lengthAdjust="spacing" textLength="370" x="62.5" y="145.5449">asks to produce a list of the vehicles needing maintenance</text><polygon fill="#181818" points="660,175.5977,670,179.5977,660,183.5977,664,179.5977" style="stroke:#181818;stroke-width:1.0;"/><line style="stroke:#181818;stroke-width:1.0;" x1="454.5" x2="666" y1="179.5977" y2="179.5977"/><text fill="#000000" font-family="sans-serif" font-size="13" font-weight="bold" lengthAdjust="spacing" textLength="9" x="461.5" y="174.8555">2</text><text fill="#000000" font-family="sans-serif" font-size="13" lengthAdjust="spacing" textLength="38" x="474.5" y="174.8555">create</text><rect fill="#E3E3E3" height="30.4883" rx="2.5" ry="2.5" style="stroke:#181818;stroke-width:0.5;" width="311" x="672" y="158.2871"/><text fill="#000000" font-family="sans-serif" font-size="14" lengthAdjust="spacing" textLength="297" x="679" y="178.8223">:ListVehiclesNeedingMaintenanceController</text><polygon fill="#181818" points="810.5,217.0859,820.5,221.0859,810.5,225.0859,814.5,221.0859" style="stroke:#181818;stroke-width:1.0;"/><line style="stroke:#181818;stroke-width:1.0;" x1="454.5" x2="816.5" y1="221.0859" y2="221.0859"/><text fill="#000000" font-family="sans-serif" font-size="13" font-weight="bold" lengthAdjust="spacing" textLength="9" x="461.5" y="216.3438">3</text><text fill="#000000" font-family="sans-serif" font-size="13" lengthAdjust="spacing" textLength="69" x="474.5" y="216.3438">createList()</text><polygon fill="#181818" points="1561,246.3965,1571,250.3965,1561,254.3965,1565,250.3965" style="stroke:#181818;stroke-width:1.0;"/><line style="stroke:#181818;stroke-width:1.0;" x1="832.5" x2="1567" y1="250.3965" y2="250.3965"/><text fill="#000000" font-family="sans-serif" font-size="13" font-weight="bold" lengthAdjust="spacing" textLength="9" x="839.5" y="245.6543">4</text><text fill="#000000" font-family="sans-serif" font-size="13" lengthAdjust="spacing" textLength="69" x="852.5" y="245.6543">createList()</text><polygon fill="#181818" points="1911,275.707,1921,279.707,1911,283.707,1915,279.707" style="stroke:#181818;stroke-width:1.0;"/><line style="stroke:#181818;stroke-width:1.0;" x1="1578" x2="1917" y1="279.707" y2="279.707"/><text fill="#000000" font-family="sans-serif" font-size="13" font-weight="bold" lengthAdjust="spacing" textLength="9" x="1585" y="274.9648">5</text><text fill="#000000" font-family="sans-serif" font-size="13" lengthAdjust="spacing" textLength="69" x="1598" y="274.9648">createList()</text><rect fill="#E3E3E3" height="46.9766" rx="2.5" ry="2.5" style="stroke:#181818;stroke-width:0.5;" width="235" x="1923" y="258.3965"/><text fill="#000000" font-family="sans-serif" font-size="14" lengthAdjust="spacing" textLength="221" x="1930" y="278.9316">vehiclesNeedingMaintenanceList</text><text fill="#000000" font-family="sans-serif" font-size="14" lengthAdjust="spacing" textLength="94" x="1993.5" y="295.4199">List&lt;Vehicle&gt;</text><polygon fill="#181818" points="810.5,333.6836,820.5,337.6836,810.5,341.6836,814.5,337.6836" style="stroke:#181818;stroke-width:1.0;"/><line style="stroke:#181818;stroke-width:1.0;" x1="454.5" x2="816.5" y1="337.6836" y2="337.6836"/><text fill="#000000" font-family="sans-serif" font-size="13" font-weight="bold" lengthAdjust="spacing" textLength="9" x="461.5" y="332.9414">6</text><text fill="#000000" font-family="sans-serif" font-size="13" lengthAdjust="spacing" textLength="103" x="474.5" y="332.9414">getVehiclesList()</text><polygon fill="#181818" points="1317.5,362.9941,1327.5,366.9941,1317.5,370.9941,1321.5,366.9941" style="stroke:#181818;stroke-width:1.0;"/><line style="stroke:#181818;stroke-width:1.0;" x1="832.5" x2="1323.5" y1="366.9941" y2="366.9941"/><text fill="#000000" font-family="sans-serif" font-size="13" font-weight="bold" lengthAdjust="spacing" textLength="9" x="839.5" y="362.252">7</text><text fill="#000000" font-family="sans-serif" font-size="13" lengthAdjust="spacing" textLength="81" x="852.5" y="362.252">getInstance()</text><polygon fill="#181818" points="843.5,392.3047,833.5,396.3047,843.5,400.3047,839.5,396.3047" style="stroke:#181818;stroke-width:1.0;"/><line style="stroke:#181818;stroke-width:1.0;stroke-dasharray:2.0,2.0;" x1="837.5" x2="1333.5" y1="396.3047" y2="396.3047"/><text fill="#000000" font-family="sans-serif" font-size="13" font-weight="bold" lengthAdjust="spacing" textLength="9" x="849.5" y="391.5625">8</text><text fill="#000000" font-family="sans-serif" font-size="13" lengthAdjust="spacing" textLength="75" x="862.5" y="391.5625">repositories</text><polygon fill="#181818" points="1430.5,421.6152,1440.5,425.6152,1430.5,429.6152,1434.5,425.6152" style="stroke:#181818;stroke-width:1.0;"/><line style="stroke:#181818;stroke-width:1.0;" x1="832.5" x2="1436.5" y1="425.6152" y2="425.6152"/><text fill="#000000" font-family="sans-serif" font-size="13" font-weight="bold" lengthAdjust="spacing" textLength="9" x="839.5" y="420.873">9</text><text fill="#000000" font-family="sans-serif" font-size="13" lengthAdjust="spacing" textLength="140" x="852.5" y="420.873">getVehicleRepository()</text><polygon fill="#181818" points="843.5,450.9258,833.5,454.9258,843.5,458.9258,839.5,454.9258" style="stroke:#181818;stroke-width:1.0;"/><line style="stroke:#181818;stroke-width:1.0;stroke-dasharray:2.0,2.0;" x1="837.5" x2="1446.5" y1="454.9258" y2="454.9258"/><text fill="#000000" font-family="sans-serif" font-size="13" font-weight="bold" lengthAdjust="spacing" textLength="18" x="849.5" y="450.1836">10</text><text fill="#000000" font-family="sans-serif" font-size="13" lengthAdjust="spacing" textLength="111" x="871.5" y="450.1836">vehicleRepository</text><polygon fill="#181818" points="1561,480.2363,1571,484.2363,1561,488.2363,1565,484.2363" style="stroke:#181818;stroke-width:1.0;"/><line style="stroke:#181818;stroke-width:1.0;" x1="832.5" x2="1567" y1="484.2363" y2="484.2363"/><text fill="#000000" font-family="sans-serif" font-size="13" font-weight="bold" lengthAdjust="spacing" textLength="18" x="839.5" y="479.4941">11</text><text fill="#000000" font-family="sans-serif" font-size="13" lengthAdjust="spacing" textLength="103" x="861.5" y="479.4941">getVehiclesList()</text><polygon fill="#181818" points="843.5,509.5469,833.5,513.5469,843.5,517.5469,839.5,513.5469" style="stroke:#181818;stroke-width:1.0;"/><line style="stroke:#181818;stroke-width:1.0;stroke-dasharray:2.0,2.0;" x1="837.5" x2="1577" y1="513.5469" y2="513.5469"/><text fill="#000000" font-family="sans-serif" font-size="13" font-weight="bold" lengthAdjust="spacing" textLength="18" x="849.5" y="508.8047">12</text><text fill="#000000" font-family="sans-serif" font-size="13" lengthAdjust="spacing" textLength="74" x="871.5" y="508.8047">vehiclesList</text><polygon fill="#181818" points="465.5,538.8574,455.5,542.8574,465.5,546.8574,461.5,542.8574" style="stroke:#181818;stroke-width:1.0;"/><line style="stroke:#181818;stroke-width:1.0;stroke-dasharray:2.0,2.0;" x1="459.5" x2="826.5" y1="542.8574" y2="542.8574"/><text fill="#000000" font-family="sans-serif" font-size="13" font-weight="bold" lengthAdjust="spacing" textLength="18" x="471.5" y="538.1152">13</text><text fill="#000000" font-family="sans-serif" font-size="13" lengthAdjust="spacing" textLength="74" x="493.5" y="538.1152">vehiclesList</text><path d="M10,557.8574 L84,557.8574 L84,565.168 L74,575.168 L10,575.168 L10,557.8574 " fill="#EEEEEE" style="stroke:#000000;stroke-width:1.5;"/><rect fill="none" height="853.0059" style="stroke:#000000;stroke-width:1.5;" width="2168" x="10" y="557.8574"/><text fill="#000000" font-family="sans-serif" font-size="13" font-weight="bold" lengthAdjust="spacing" textLength="29" x="25" y="571.4258">loop</text><text fill="#000000" font-family="sans-serif" font-size="11" font-weight="bold" lengthAdjust="spacing" textLength="146" x="99" y="570.4922">[until end of vehicles list]</text><polygon fill="#181818" points="53.5,592.4785,43.5,596.4785,53.5,600.4785,49.5,596.4785" style="stroke:#181818;stroke-width:1.0;"/><line style="stroke:#181818;stroke-width:1.0;stroke-dasharray:2.0,2.0;" x1="47.5" x2="448.5" y1="596.4785" y2="596.4785"/><text fill="#000000" font-family="sans-serif" font-size="13" font-weight="bold" lengthAdjust="spacing" textLength="18" x="59.5" y="591.7363">14</text><text fill="#000000" font-family="sans-serif" font-size="13" lengthAdjust="spacing" textLength="311" x="81.5" y="591.7363">requests to update the current kms of the vehicle</text><polygon fill="#181818" points="432.5,621.7891,442.5,625.7891,432.5,629.7891,436.5,625.7891" style="stroke:#181818;stroke-width:1.0;"/><line style="stroke:#181818;stroke-width:1.0;" x1="42.5" x2="438.5" y1="625.7891" y2="625.7891"/><text fill="#000000" font-family="sans-serif" font-size="13" font-weight="bold" lengthAdjust="spacing" textLength="18" x="49.5" y="621.0469">15</text><text fill="#000000" font-family="sans-serif" font-size="13" lengthAdjust="spacing" textLength="232" x="71.5" y="621.0469">enters the current kms of the vehicle</text><polygon fill="#181818" points="810.5,651.0996,820.5,655.0996,810.5,659.0996,814.5,655.0996" style="stroke:#181818;stroke-width:1.0;"/><line style="stroke:#181818;stroke-width:1.0;" x1="454.5" x2="816.5" y1="655.0996" y2="655.0996"/><text fill="#000000" font-family="sans-serif" font-size="13" font-weight="bold" lengthAdjust="spacing" textLength="18" x="461.5" y="650.3574">16</text><text fill="#000000" font-family="sans-serif" font-size="13" lengthAdjust="spacing" textLength="232" x="483.5" y="650.3574">updateVehicleKms(vehiclePlate, kms)</text><polygon fill="#181818" points="1317.5,680.4102,1327.5,684.4102,1317.5,688.4102,1321.5,684.4102" style="stroke:#181818;stroke-width:1.0;"/><line style="stroke:#181818;stroke-width:1.0;" x1="832.5" x2="1323.5" y1="684.4102" y2="684.4102"/><text fill="#000000" font-family="sans-serif" font-size="13" font-weight="bold" lengthAdjust="spacing" textLength="18" x="839.5" y="679.668">17</text><text fill="#000000" font-family="sans-serif" font-size="13" lengthAdjust="spacing" textLength="81" x="861.5" y="679.668">getInstance()</text><polygon fill="#181818" points="843.5,709.7207,833.5,713.7207,843.5,717.7207,839.5,713.7207" style="stroke:#181818;stroke-width:1.0;"/><line style="stroke:#181818;stroke-width:1.0;stroke-dasharray:2.0,2.0;" x1="837.5" x2="1333.5" y1="713.7207" y2="713.7207"/><text fill="#000000" font-family="sans-serif" font-size="13" font-weight="bold" lengthAdjust="spacing" textLength="18" x="849.5" y="708.9785">18</text><text fill="#000000" font-family="sans-serif" font-size="13" lengthAdjust="spacing" textLength="75" x="871.5" y="708.9785">repositories</text><polygon fill="#181818" points="1430.5,739.0313,1440.5,743.0313,1430.5,747.0313,1434.5,743.0313" style="stroke:#181818;stroke-width:1.0;"/><line style="stroke:#181818;stroke-width:1.0;" x1="832.5" x2="1436.5" y1="743.0313" y2="743.0313"/><text fill="#000000" font-family="sans-serif" font-size="13" font-weight="bold" lengthAdjust="spacing" textLength="18" x="839.5" y="738.2891">19</text><text fill="#000000" font-family="sans-serif" font-size="13" lengthAdjust="spacing" textLength="140" x="861.5" y="738.2891">getVehicleRepository()</text><polygon fill="#181818" points="843.5,768.3418,833.5,772.3418,843.5,776.3418,839.5,772.3418" style="stroke:#181818;stroke-width:1.0;"/><line style="stroke:#181818;stroke-width:1.0;stroke-dasharray:2.0,2.0;" x1="837.5" x2="1446.5" y1="772.3418" y2="772.3418"/><text fill="#000000" font-family="sans-serif" font-size="13" font-weight="bold" lengthAdjust="spacing" textLength="18" x="849.5" y="767.5996">20</text><text fill="#000000" font-family="sans-serif" font-size="13" lengthAdjust="spacing" textLength="111" x="871.5" y="767.5996">vehicleRepository</text><polygon fill="#181818" points="1561,797.6523,1571,801.6523,1561,805.6523,1565,801.6523" style="stroke:#181818;stroke-width:1.0;"/><line style="stroke:#181818;stroke-width:1.0;" x1="832.5" x2="1567" y1="801.6523" y2="801.6523"/><text fill="#000000" font-family="sans-serif" font-size="13" font-weight="bold" lengthAdjust="spacing" textLength="18" x="839.5" y="796.9102">21</text><text fill="#000000" font-family="sans-serif" font-size="13" lengthAdjust="spacing" textLength="232" x="861.5" y="796.9102">updateVehicleKms(vehiclePlate, kms)</text><polygon fill="#181818" points="1862.5,826.9629,1872.5,830.9629,1862.5,834.9629,1866.5,830.9629" style="stroke:#181818;stroke-width:1.0;"/><line style="stroke:#181818;stroke-width:1.0;" x1="1583" x2="1868.5" y1="830.9629" y2="830.9629"/><text fill="#000000" font-family="sans-serif" font-size="13" font-weight="bold" lengthAdjust="spacing" textLength="18" x="1590" y="826.2207">22</text><text fill="#000000" font-family="sans-serif" font-size="13" lengthAdjust="spacing" textLength="232" x="1612" y="826.2207">updateVehicleKms(vehiclePlate, kms)</text><polygon fill="#181818" points="1594,856.2734,1584,860.2734,1594,864.2734,1590,860.2734" style="stroke:#181818;stroke-width:1.0;"/><line style="stroke:#181818;stroke-width:1.0;stroke-dasharray:2.0,2.0;" x1="1588" x2="1878.5" y1="860.2734" y2="860.2734"/><text fill="#000000" font-family="sans-serif" font-size="13" font-weight="bold" lengthAdjust="spacing" textLength="18" x="1600" y="855.5313">23</text><text fill="#000000" font-family="sans-serif" font-size="13" lengthAdjust="spacing" textLength="44" x="1622" y="855.5313">vehicle</text><polygon fill="#181818" points="843.5,885.584,833.5,889.584,843.5,893.584,839.5,889.584" style="stroke:#181818;stroke-width:1.0;"/><line style="stroke:#181818;stroke-width:1.0;stroke-dasharray:2.0,2.0;" x1="837.5" x2="1577" y1="889.584" y2="889.584"/><text fill="#000000" font-family="sans-serif" font-size="13" font-weight="bold" lengthAdjust="spacing" textLength="18" x="849.5" y="884.8418">24</text><text fill="#000000" font-family="sans-serif" font-size="13" lengthAdjust="spacing" textLength="44" x="871.5" y="884.8418">vehicle</text><polygon fill="#181818" points="465.5,914.8945,455.5,918.8945,465.5,922.8945,461.5,918.8945" style="stroke:#181818;stroke-width:1.0;"/><line style="stroke:#181818;stroke-width:1.0;stroke-dasharray:2.0,2.0;" x1="459.5" x2="826.5" y1="918.8945" y2="918.8945"/><text fill="#000000" font-family="sans-serif" font-size="13" font-weight="bold" lengthAdjust="spacing" textLength="18" x="471.5" y="914.1523">25</text><text fill="#000000" font-family="sans-serif" font-size="13" lengthAdjust="spacing" textLength="44" x="493.5" y="914.1523">vehicle</text><polygon fill="#181818" points="810.5,944.2051,820.5,948.2051,810.5,952.2051,814.5,948.2051" style="stroke:#181818;stroke-width:1.0;"/><line style="stroke:#181818;stroke-width:1.0;" x1="454.5" x2="816.5" y1="948.2051" y2="948.2051"/><text fill="#000000" font-family="sans-serif" font-size="13" font-weight="bold" lengthAdjust="spacing" textLength="18" x="461.5" y="943.4629">26</text><text fill="#000000" font-family="sans-serif" font-size="13" lengthAdjust="spacing" textLength="207" x="483.5" y="943.4629">getLastMaintenance(vehiclePlate)</text><polygon fill="#181818" points="1317.5,973.5156,1327.5,977.5156,1317.5,981.5156,1321.5,977.5156" style="stroke:#181818;stroke-width:1.0;"/><line style="stroke:#181818;stroke-width:1.0;" x1="832.5" x2="1323.5" y1="977.5156" y2="977.5156"/><text fill="#000000" font-family="sans-serif" font-size="13" font-weight="bold" lengthAdjust="spacing" textLength="18" x="839.5" y="972.7734">27</text><text fill="#000000" font-family="sans-serif" font-size="13" lengthAdjust="spacing" textLength="81" x="861.5" y="972.7734">getInstance()</text><polygon fill="#181818" points="843.5,1002.8262,833.5,1006.8262,843.5,1010.8262,839.5,1006.8262" style="stroke:#181818;stroke-width:1.0;"/><line style="stroke:#181818;stroke-width:1.0;stroke-dasharray:2.0,2.0;" x1="837.5" x2="1333.5" y1="1006.8262" y2="1006.8262"/><text fill="#000000" font-family="sans-serif" font-size="13" font-weight="bold" lengthAdjust="spacing" textLength="18" x="849.5" y="1002.084">28</text><text fill="#000000" font-family="sans-serif" font-size="13" lengthAdjust="spacing" textLength="75" x="871.5" y="1002.084">repositories</text><polygon fill="#181818" points="1430.5,1032.1367,1440.5,1036.1367,1430.5,1040.1367,1434.5,1036.1367" style="stroke:#181818;stroke-width:1.0;"/><line style="stroke:#181818;stroke-width:1.0;" x1="832.5" x2="1436.5" y1="1036.1367" y2="1036.1367"/><text fill="#000000" font-family="sans-serif" font-size="13" font-weight="bold" lengthAdjust="spacing" textLength="18" x="839.5" y="1031.3945">29</text><text fill="#000000" font-family="sans-serif" font-size="13" lengthAdjust="spacing" textLength="174" x="861.5" y="1031.3945">getMaintenanceRepository()</text><polygon fill="#181818" points="843.5,1061.4473,833.5,1065.4473,843.5,1069.4473,839.5,1065.4473" style="stroke:#181818;stroke-width:1.0;"/><line style="stroke:#181818;stroke-width:1.0;stroke-dasharray:2.0,2.0;" x1="837.5" x2="1446.5" y1="1065.4473" y2="1065.4473"/><text fill="#000000" font-family="sans-serif" font-size="13" font-weight="bold" lengthAdjust="spacing" textLength="18" x="849.5" y="1060.7051">30</text><text fill="#000000" font-family="sans-serif" font-size="13" lengthAdjust="spacing" textLength="147" x="871.5" y="1060.7051">maintenanceRepository</text><polygon fill="#181818" points="1729.5,1090.7578,1739.5,1094.7578,1729.5,1098.7578,1733.5,1094.7578" style="stroke:#181818;stroke-width:1.0;"/><line style="stroke:#181818;stroke-width:1.0;" x1="832.5" x2="1735.5" y1="1094.7578" y2="1094.7578"/><text fill="#000000" font-family="sans-serif" font-size="13" font-weight="bold" lengthAdjust="spacing" textLength="18" x="839.5" y="1090.0156">31</text><text fill="#000000" font-family="sans-serif" font-size="13" lengthAdjust="spacing" textLength="207" x="861.5" y="1090.0156">getLastMaintenance(vehiclePlate)</text><polygon fill="#181818" points="843.5,1120.0684,833.5,1124.0684,843.5,1128.0684,839.5,1124.0684" style="stroke:#181818;stroke-width:1.0;"/><line style="stroke:#181818;stroke-width:1.0;stroke-dasharray:2.0,2.0;" x1="837.5" x2="1745.5" y1="1124.0684" y2="1124.0684"/><text fill="#000000" font-family="sans-serif" font-size="13" font-weight="bold" lengthAdjust="spacing" textLength="18" x="849.5" y="1119.3262">32</text><text fill="#000000" font-family="sans-serif" font-size="13" lengthAdjust="spacing" textLength="102" x="871.5" y="1119.3262">lastMaintenance</text><polygon fill="#181818" points="465.5,1149.3789,455.5,1153.3789,465.5,1157.3789,461.5,1153.3789" style="stroke:#181818;stroke-width:1.0;"/><line style="stroke:#181818;stroke-width:1.0;stroke-dasharray:2.0,2.0;" x1="459.5" x2="826.5" y1="1153.3789" y2="1153.3789"/><text fill="#000000" font-family="sans-serif" font-size="13" font-weight="bold" lengthAdjust="spacing" textLength="18" x="471.5" y="1148.6367">33</text><text fill="#000000" font-family="sans-serif" font-size="13" lengthAdjust="spacing" textLength="102" x="493.5" y="1148.6367">lastMaintenance</text><polygon fill="#181818" points="810.5,1178.6895,820.5,1182.6895,810.5,1186.6895,814.5,1182.6895" style="stroke:#181818;stroke-width:1.0;"/><line style="stroke:#181818;stroke-width:1.0;" x1="454.5" x2="816.5" y1="1182.6895" y2="1182.6895"/><text fill="#000000" font-family="sans-serif" font-size="13" font-weight="bold" lengthAdjust="spacing" textLength="18" x="461.5" y="1177.9473">34</text><text fill="#000000" font-family="sans-serif" font-size="13" lengthAdjust="spacing" textLength="327" x="483.5" y="1177.9473">calculateNextMaintenance(vehicle, lastMaintenance)</text><line style="stroke:#181818;stroke-width:1.0;" x1="832.5" x2="874.5" y1="1212" y2="1212"/><line style="stroke:#181818;stroke-width:1.0;" x1="874.5" x2="874.5" y1="1212" y2="1225"/><line style="stroke:#181818;stroke-width:1.0;" x1="833.5" x2="874.5" y1="1225" y2="1225"/><polygon fill="#181818" points="843.5,1221,833.5,1225,843.5,1229,839.5,1225" style="stroke:#181818;stroke-width:1.0;"/><text fill="#000000" font-family="sans-serif" font-size="13" font-weight="bold" lengthAdjust="spacing" textLength="18" x="839.5" y="1207.2578">35</text><text fill="#000000" font-family="sans-serif" font-size="13" lengthAdjust="spacing" textLength="461" x="861.5" y="1207.2578">needsMaintenance = calculateNextMaintenance(vehicle, lastMaintenance)</text><polygon fill="#181818" points="465.5,1250.3105,455.5,1254.3105,465.5,1258.3105,461.5,1254.3105" style="stroke:#181818;stroke-width:1.0;"/><line style="stroke:#181818;stroke-width:1.0;stroke-dasharray:2.0,2.0;" x1="459.5" x2="826.5" y1="1254.3105" y2="1254.3105"/><text fill="#000000" font-family="sans-serif" font-size="13" font-weight="bold" lengthAdjust="spacing" textLength="18" x="471.5" y="1249.5684">36</text><text fill="#000000" font-family="sans-serif" font-size="13" lengthAdjust="spacing" textLength="116" x="493.5" y="1249.5684">needsMaintenance</text><path d="M312,1269.3105 L379,1269.3105 L379,1276.6211 L369,1286.6211 L312,1286.6211 L312,1269.3105 " fill="#EEEEEE" style="stroke:#000000;stroke-width:1.5;"/><rect fill="none" height="134.5527" style="stroke:#000000;stroke-width:1.5;" width="1856" x="312" y="1269.3105"/><text fill="#000000" font-family="sans-serif" font-size="13" font-weight="bold" lengthAdjust="spacing" textLength="22" x="327" y="1282.8789">opt</text><text fill="#000000" font-family="sans-serif" font-size="11" font-weight="bold" lengthAdjust="spacing" textLength="148" x="394" y="1281.9453">[needsMaintenance = true]</text><polygon fill="#181818" points="810.5,1303.9316,820.5,1307.9316,810.5,1311.9316,814.5,1307.9316" style="stroke:#181818;stroke-width:1.0;"/><line style="stroke:#181818;stroke-width:1.0;" x1="454.5" x2="816.5" y1="1307.9316" y2="1307.9316"/><text fill="#000000" font-family="sans-serif" font-size="13" font-weight="bold" lengthAdjust="spacing" textLength="18" x="461.5" y="1303.1895">37</text><text fill="#000000" font-family="sans-serif" font-size="13" lengthAdjust="spacing" textLength="159" x="483.5" y="1303.1895">addVehicleToList(vehicle)</text><polygon fill="#181818" points="2023.5,1333.2422,2033.5,1337.2422,2023.5,1341.2422,2027.5,1337.2422" style="stroke:#181818;stroke-width:1.0;"/><line style="stroke:#181818;stroke-width:1.0;" x1="832.5" x2="2029.5" y1="1337.2422" y2="1337.2422"/><text fill="#000000" font-family="sans-serif" font-size="13" font-weight="bold" lengthAdjust="spacing" textLength="18" x="839.5" y="1332.5">38</text><text fill="#000000" font-family="sans-serif" font-size="13" lengthAdjust="spacing" textLength="159" x="861.5" y="1332.5">addVehicleToList(vehicle)</text><polygon fill="#181818" points="843.5,1362.5527,833.5,1366.5527,843.5,1370.5527,839.5,1366.5527" style="stroke:#181818;stroke-width:1.0;"/><line style="stroke:#181818;stroke-width:1.0;stroke-dasharray:2.0,2.0;" x1="837.5" x2="2039.5" y1="1366.5527" y2="1366.5527"/><text fill="#000000" font-family="sans-serif" font-size="13" font-weight="bold" lengthAdjust="spacing" textLength="18" x="849.5" y="1361.8105">39</text><text fill="#000000" font-family="sans-serif" font-size="13" lengthAdjust="spacing" textLength="205" x="871.5" y="1361.8105">vehiclesNeedingMaintenanceList</text><polygon fill="#181818" points="465.5,1391.8633,455.5,1395.8633,465.5,1399.8633,461.5,1395.8633" style="stroke:#181818;stroke-width:1.0;"/><line style="stroke:#181818;stroke-width:1.0;stroke-dasharray:2.0,2.0;" x1="459.5" x2="826.5" y1="1395.8633" y2="1395.8633"/><text fill="#000000" font-family="sans-serif" font-size="13" font-weight="bold" lengthAdjust="spacing" textLength="18" x="471.5" y="1391.1211">40</text><text fill="#000000" font-family="sans-serif" font-size="13" lengthAdjust="spacing" textLength="205" x="493.5" y="1391.1211">vehiclesNeedingMaintenanceList</text><polygon fill="#181818" points="48.5,1435.1738,38.5,1439.1738,48.5,1443.1738,44.5,1439.1738" style="stroke:#181818;stroke-width:1.0;"/><line style="stroke:#181818;stroke-width:1.0;stroke-dasharray:2.0,2.0;" x1="42.5" x2="448.5" y1="1439.1738" y2="1439.1738"/><text fill="#000000" font-family="sans-serif" font-size="13" font-weight="bold" lengthAdjust="spacing" textLength="18" x="54.5" y="1434.4316">41</text><text fill="#000000" font-family="sans-serif" font-size="13" lengthAdjust="spacing" textLength="274" x="76.5" y="1434.4316">shows list of vehicles needing maintenance</text><!--SRC=[tLTTRzem57tFhx1uQgiYzN52MwMfsYGqg53vUEB5JMx1mh4psw7Ztyys8TYEISBwC6qy0B7lEVV3voOtSaTOWGNEKSuPJxU2vu2KA26HzKw1qntUm5mTA201gS9iGrq3kSKPVoTiWzumbP0aYYXjkfm_F7n2GpGJF2jJG1XH8XNYRsWFMv9Ia8W1P0QNOy8KCCnIZSQbugpCNq7e_wdY0WrMtwS3X2NwbXUK7m0IxLYHb1IOAJGOJJJlgk9yFb9EpupBiSKknrUXdZXJWbCAmgAV5Y-J0Fy21PT4nqT0MfjwuJ0dfaGw3HyY7CIQDGbcawyB7r5LwimyMhDLk6QnZLMVoAcmHpQDhLl2w4uqEfrAvTsD96eQARGvXZKptvyhvAEbQKTOQP0zLd0MHOBqvtI5Xe_woD58K-qaKXmL3HcgBRHBqV3LRhH-x88crTH63tTtcZuLe7V3hNh3n7fpwpDPBPaLQwaHZRDhXJTFscmtEJHnUmsT-1q_6NHuSWni9itKDr0tLg_y8urpP1apgKoq8KEiqun1Z6XuZiljlp2L6AKNf6bEBxSp8WpFzh5PiHWdW7rNGIsoKniTzUqja4PWbgwV2exndPgi3NyM2UMyG2LJX29WcVSae2UW4P9chTlOdDhF4gIoJLmMcQ4qdPkMGe2-jUno6JHp683ktEYTGQD1o3va8PMdzcDCLPL-vFAcGiweNhutbF-g_l-E_BlKVtMzhxXXLeiVyE9osznZALmGQeIYjLq_qAdH9etTo2TOAkUvuPNX_z9rTE3fhUteWDMfxwZFgmi_lUWxpk-4JNqlOS2NcNrLTT34rPLYcfOcdMVu5KlrFgJjqbl5QqOvwS3GbpzrvISPybxCaXSg5eHzhqBLnwi4phAgTnVSFj6hi6vhywOJD_7sEUyw1nrpzyc-msLajkWWT0hP4n4VGVgxgKkfXv7wzy8G8hVyNVPxWMrE7ubpUUBy3G00]--></g></svg>