<?xml version="1.0" encoding="us-ascii" standalone="no"?><svg xmlns="http://www.w3.org/2000/svg" xmlns:xlink="http://www.w3.org/1999/xlink" contentStyleType="text/css" height="1496px" preserveAspectRatio="none" style="width:2184px;height:1496px;background:#FFFFFF;" version="1.1" viewBox="0 0 2184 1496" width="2184px" zoomAndPan="magnify"><defs/><g><text fill="#000000" font-family="sans-serif" font-size="14" font-weight="bold" lengthAdjust="spacing" textLength="404" x="891.5" y="28.5352">US008 - Produce a list of vehicles needing maintenance</text><rect fill="#FFFFFF" height="1268.709" style="stroke:#181818;stroke-width:1.0;" width="10" x="32.5" y="128.9766"/><rect fill="#FFFFFF" height="404.7031" style="stroke:#181818;stroke-width:1.0;" width="10" x="444.5" y="150.2871"/><rect fill="#FFFFFF" height="813.3848" style="stroke:#181818;stroke-width:1.0;" width="10" x="444.5" y="584.3008"/><rect fill="#FFFFFF" height="58.6211" style="stroke:#181818;stroke-width:1.0;" width="10" x="822.5" y="179.5977"/><rect fill="#FFFFFF" height="205.1738" style="stroke:#181818;stroke-width:1.0;" width="10" x="822.5" y="296.1953"/><rect fill="#FFFFFF" height="263.7949" style="stroke:#181818;stroke-width:1.0;" width="10" x="822.5" y="613.6113"/><rect fill="#FFFFFF" height="205.1738" style="stroke:#181818;stroke-width:1.0;" width="10" x="822.5" y="906.7168"/><rect fill="#FFFFFF" height="71.6211" style="stroke:#181818;stroke-width:1.0;" width="10" x="822.5" y="1141.2012"/><rect fill="#FFFFFF" height="87.9316" style="stroke:#181818;stroke-width:1.0;" width="10" x="822.5" y="1266.4434"/><rect fill="#FFFFFF" height="29.3105" style="stroke:#181818;stroke-width:1.0;" width="10" x="1329.5" y="325.5059"/><rect fill="#FFFFFF" height="29.3105" style="stroke:#181818;stroke-width:1.0;" width="10" x="1329.5" y="642.9219"/><rect fill="#FFFFFF" height="29.3105" style="stroke:#181818;stroke-width:1.0;" width="10" x="1329.5" y="936.0273"/><rect fill="#FFFFFF" height="29.3105" style="stroke:#181818;stroke-width:1.0;" width="10" x="1442.5" y="384.127"/><rect fill="#FFFFFF" height="29.3105" style="stroke:#181818;stroke-width:1.0;" width="10" x="1442.5" y="701.543"/><rect fill="#FFFFFF" height="29.3105" style="stroke:#181818;stroke-width:1.0;" width="10" x="1442.5" y="994.6484"/><rect fill="#FFFFFF" height="29.3105" style="stroke:#181818;stroke-width:1.0;" width="10" x="1573" y="208.9082"/><rect fill="#FFFFFF" height="29.3105" style="stroke:#181818;stroke-width:1.0;" width="10" x="1573" y="442.748"/><rect fill="#FFFFFF" height="87.9316" style="stroke:#181818;stroke-width:1.0;" width="10" x="1573" y="760.1641"/><rect fill="#FFFFFF" height="29.3105" style="stroke:#181818;stroke-width:1.0;" width="10" x="1741.5" y="1053.2695"/><rect fill="#FFFFFF" height="29.3105" style="stroke:#181818;stroke-width:1.0;" width="10" x="1874.5" y="789.4746"/><rect fill="#FFFFFF" height="29.3105" style="stroke:#181818;stroke-width:1.0;" width="10" x="2035.5" y="1295.7539"/><rect fill="none" height="853.0059" style="stroke:#000000;stroke-width:1.5;" width="2168" x="10" y="516.3691"/><rect fill="none" height="134.5527" style="stroke:#000000;stroke-width:1.5;" width="1856" x="312" y="1227.8223"/><line style="stroke:#181818;stroke-width:0.5;stroke-dasharray:5.0,5.0;" x1="37" x2="37" y1="118.9766" y2="1415.6855"/><line style="stroke:#181818;stroke-width:0.5;stroke-dasharray:5.0,5.0;" x1="449" x2="449" y1="118.9766" y2="1415.6855"/><line style="stroke:#181818;stroke-width:0.5;stroke-dasharray:5.0,5.0;" x1="827" x2="827" y1="118.9766" y2="1415.6855"/><line style="stroke:#181818;stroke-width:0.5;stroke-dasharray:5.0,5.0;" x1="1334" x2="1334" y1="118.9766" y2="1415.6855"/><line style="stroke:#181818;stroke-width:0.5;stroke-dasharray:5.0,5.0;" x1="1447" x2="1447" y1="118.9766" y2="1415.6855"/><line style="stroke:#181818;stroke-width:0.5;stroke-dasharray:5.0,5.0;" x1="1578" x2="1578" y1="118.9766" y2="1415.6855"/><line style="stroke:#181818;stroke-width:0.5;stroke-dasharray:5.0,5.0;" x1="1746" x2="1746" y1="118.9766" y2="1415.6855"/><line style="stroke:#181818;stroke-width:0.5;stroke-dasharray:5.0,5.0;" x1="1879" x2="1879" y1="118.9766" y2="1415.6855"/><line style="stroke:#181818;stroke-width:0.5;stroke-dasharray:5.0,5.0;" x1="2040" x2="2040" y1="255.8965" y2="1415.6855"/><text fill="#000000" font-family="sans-serif" font-size="14" lengthAdjust="spacing" textLength="29" x="20" y="116.0234">VFM</text><ellipse cx="37.5" cy="50.9883" fill="#E3E3E3" rx="8" ry="8" style="stroke:#181818;stroke-width:0.5;"/><path d="M37.5,58.9883 L37.5,85.9883 M24.5,66.9883 L50.5,66.9883 M37.5,85.9883 L24.5,100.9883 M37.5,85.9883 L50.5,100.9883 " fill="none" style="stroke:#181818;stroke-width:0.5;"/><text fill="#000000" font-family="sans-serif" font-size="14" lengthAdjust="spacing" textLength="29" x="20" y="1428.2207">VFM</text><ellipse cx="37.5" cy="1439.6738" fill="#E3E3E3" rx="8" ry="8" style="stroke:#181818;stroke-width:0.5;"/><path d="M37.5,1447.6738 L37.5,1474.6738 M24.5,1455.6738 L50.5,1455.6738 M37.5,1474.6738 L24.5,1489.6738 M37.5,1474.6738 L50.5,1489.6738 " fill="none" style="stroke:#181818;stroke-width:0.5;"/><rect fill="#E3E3E3" height="30.4883" rx="2.5" ry="2.5" style="stroke:#181818;stroke-width:0.5;" width="255" x="322" y="87.4883"/><text fill="#000000" font-family="sans-serif" font-size="14" lengthAdjust="spacing" textLength="241" x="329" y="108.0234">:ListVehiclesNeedingMaintenanceUI</text><rect fill="#E3E3E3" height="30.4883" rx="2.5" ry="2.5" style="stroke:#181818;stroke-width:0.5;" width="255" x="322" y="1414.6855"/><text fill="#000000" font-family="sans-serif" font-size="14" lengthAdjust="spacing" textLength="241" x="329" y="1435.2207">:ListVehiclesNeedingMaintenanceUI</text><rect fill="#E3E3E3" height="30.4883" rx="2.5" ry="2.5" style="stroke:#181818;stroke-width:0.5;" width="311" x="672" y="87.4883"/><text fill="#000000" font-family="sans-serif" font-size="14" lengthAdjust="spacing" textLength="297" x="679" y="108.0234">:ListVehiclesNeedingMaintenanceController</text><rect fill="#E3E3E3" height="30.4883" rx="2.5" ry="2.5" style="stroke:#181818;stroke-width:0.5;" width="311" x="672" y="1414.6855"/><text fill="#000000" font-family="sans-serif" font-size="14" lengthAdjust="spacing" textLength="297" x="679" y="1435.2207">:ListVehiclesNeedingMaintenanceController</text><rect fill="#E3E3E3" height="30.4883" rx="2.5" ry="2.5" style="stroke:#181818;stroke-width:0.5;" width="103" x="1283" y="87.4883"/><text fill="#000000" font-family="sans-serif" font-size="14" lengthAdjust="spacing" textLength="89" x="1290" y="108.0234">:Repositories</text><rect fill="#E3E3E3" height="30.4883" rx="2.5" ry="2.5" style="stroke:#181818;stroke-width:0.5;" width="103" x="1283" y="1414.6855"/><text fill="#000000" font-family="sans-serif" font-size="14" lengthAdjust="spacing" textLength="89" x="1290" y="1435.2207">:Repositories</text><rect fill="#E3E3E3" height="46.9766" rx="2.5" ry="2.5" style="stroke:#181818;stroke-width:0.5;" width="103" x="1396" y="71"/><text fill="#000000" font-family="sans-serif" font-size="14" lengthAdjust="spacing" textLength="82" x="1406.5" y="91.5352">repositories</text><text fill="#000000" font-family="sans-serif" font-size="14" lengthAdjust="spacing" textLength="89" x="1403" y="108.0234">:Repositories</text><rect fill="#E3E3E3" height="46.9766" rx="2.5" ry="2.5" style="stroke:#181818;stroke-width:0.5;" width="103" x="1396" y="1414.6855"/><text fill="#000000" font-family="sans-serif" font-size="14" lengthAdjust="spacing" textLength="82" x="1406.5" y="1435.2207">repositories</text><text fill="#000000" font-family="sans-serif" font-size="14" lengthAdjust="spacing" textLength="89" x="1403" y="1451.709">:Repositories</text><rect fill="#E3E3E3" height="46.9766" rx="2.5" ry="2.5" style="stroke:#181818;stroke-width:0.5;" width="138" x="1509" y="71"/><text fill="#000000" font-family="sans-serif" font-size="14" lengthAdjust="spacing" textLength="124" x="1516" y="91.5352">vehicleRepository:</text><text fill="#000000" font-family="sans-serif" font-size="14" lengthAdjust="spacing" textLength="122" x="1517" y="108.0234">VehicleRepository</text><rect fill="#E3E3E3" height="46.9766" rx="2.5" ry="2.5" style="stroke:#181818;stroke-width:0.5;" width="138" x="1509" y="1414.6855"/><text fill="#000000" font-family="sans-serif" font-size="14" lengthAdjust="spacing" textLength="124" x="1516" y="1435.2207">vehicleRepository:</text><text fill="#000000" font-family="sans-serif" font-size="14" lengthAdjust="spacing" textLength="122" x="1517" y="1451.709">VehicleRepository</text><rect fill="#E3E3E3" height="46.9766" rx="2.5" ry="2.5" style="stroke:#181818;stroke-width:0.5;" width="179" x="1657" y="71"/><text fill="#000000" font-family="sans-serif" font-size="14" lengthAdjust="spacing" textLength="165" x="1664" y="91.5352">maintenanceRepository:</text><text fill="#000000" font-family="sans-serif" font-size="14" lengthAdjust="spacing" textLength="160" x="1666.5" y="108.0234">MaintenanceRepository</text><rect fill="#E3E3E3" height="46.9766" rx="2.5" ry="2.5" style="stroke:#181818;stroke-width:0.5;" width="179" x="1657" y="1414.6855"/><text fill="#000000" font-family="sans-serif" font-size="14" lengthAdjust="spacing" textLength="165" x="1664" y="1435.2207">maintenanceRepository:</text><text fill="#000000" font-family="sans-serif" font-size="14" lengthAdjust="spacing" textLength="160" x="1666.5" y="1451.709">MaintenanceRepository</text><rect fill="#E3E3E3" height="46.9766" rx="2.5" ry="2.5" style="stroke:#181818;stroke-width:0.5;" width="67" x="1846" y="71"/><text fill="#000000" font-family="sans-serif" font-size="14" lengthAdjust="spacing" textLength="47" x="1856" y="91.5352">vehicle</text><text fill="#000000" font-family="sans-serif" font-size="14" lengthAdjust="spacing" textLength="53" x="1853" y="108.0234">:Vehicle</text><rect fill="#E3E3E3" height="46.9766" rx="2.5" ry="2.5" style="stroke:#181818;stroke-width:0.5;" width="67" x="1846" y="1414.6855"/><text fill="#000000" font-family="sans-serif" font-size="14" lengthAdjust="spacing" textLength="47" x="1856" y="1435.2207">vehicle</text><text fill="#000000" font-family="sans-serif" font-size="14" lengthAdjust="spacing" textLength="53" x="1853" y="1451.709">:Vehicle</text><rect fill="#E3E3E3" height="46.9766" rx="2.5" ry="2.5" style="stroke:#181818;stroke-width:0.5;" width="235" x="1923" y="1414.6855"/><text fill="#000000" font-family="sans-serif" font-size="14" lengthAdjust="spacing" textLength="221" x="1930" y="1435.2207">vehiclesNeedingMaintenanceList</text><text fill="#000000" font-family="sans-serif" font-size="14" lengthAdjust="spacing" textLength="94" x="1993.5" y="1451.709">List&lt;Vehicle&gt;</text><rect fill="#FFFFFF" height="1268.709" style="stroke:#181818;stroke-width:1.0;" width="10" x="32.5" y="128.9766"/><rect fill="#FFFFFF" height="404.7031" style="stroke:#181818;stroke-width:1.0;" width="10" x="444.5" y="150.2871"/><rect fill="#FFFFFF" height="813.3848" style="stroke:#181818;stroke-width:1.0;" width="10" x="444.5" y="584.3008"/><rect fill="#FFFFFF" height="58.6211" style="stroke:#181818;stroke-width:1.0;" width="10" x="822.5" y="179.5977"/><rect fill="#FFFFFF" height="205.1738" style="stroke:#181818;stroke-width:1.0;" width="10" x="822.5" y="296.1953"/><rect fill="#FFFFFF" height="263.7949" style="stroke:#181818;stroke-width:1.0;" width="10" x="822.5" y="613.6113"/><rect fill="#FFFFFF" height="205.1738" style="stroke:#181818;stroke-width:1.0;" width="10" x="822.5" y="906.7168"/><rect fill="#FFFFFF" height="71.6211" style="stroke:#181818;stroke-width:1.0;" width="10" x="822.5" y="1141.2012"/><rect fill="#FFFFFF" height="87.9316" style="stroke:#181818;stroke-width:1.0;" width="10" x="822.5" y="1266.4434"/><rect fill="#FFFFFF" height="29.3105" style="stroke:#181818;stroke-width:1.0;" width="10" x="1329.5" y="325.5059"/><rect fill="#FFFFFF" height="29.3105" style="stroke:#181818;stroke-width:1.0;" width="10" x="1329.5" y="642.9219"/><rect fill="#FFFFFF" height="29.3105" style="stroke:#181818;stroke-width:1.0;" width="10" x="1329.5" y="936.0273"/><rect fill="#FFFFFF" height="29.3105" style="stroke:#181818;stroke-width:1.0;" width="10" x="1442.5" y="384.127"/><rect fill="#FFFFFF" height="29.3105" style="stroke:#181818;stroke-width:1.0;" width="10" x="1442.5" y="701.543"/><rect fill="#FFFFFF" height="29.3105" style="stroke:#181818;stroke-width:1.0;" width="10" x="1442.5" y="994.6484"/><rect fill="#FFFFFF" height="29.3105" style="stroke:#181818;stroke-width:1.0;" width="10" x="1573" y="208.9082"/><rect fill="#FFFFFF" height="29.3105" style="stroke:#181818;stroke-width:1.0;" width="10" x="1573" y="442.748"/><rect fill="#FFFFFF" height="87.9316" style="stroke:#181818;stroke-width:1.0;" width="10" x="1573" y="760.1641"/><rect fill="#FFFFFF" height="29.3105" style="stroke:#181818;stroke-width:1.0;" width="10" x="1741.5" y="1053.2695"/><rect fill="#FFFFFF" height="29.3105" style="stroke:#181818;stroke-width:1.0;" width="10" x="1874.5" y="789.4746"/><rect fill="#FFFFFF" height="29.3105" style="stroke:#181818;stroke-width:1.0;" width="10" x="2035.5" y="1295.7539"/><polygon fill="#181818" points="432.5,146.2871,442.5,150.2871,432.5,154.2871,436.5,150.2871" style="stroke:#181818;stroke-width:1.0;"/><line style="stroke:#181818;stroke-width:1.0;" x1="42.5" x2="438.5" y1="150.2871" y2="150.2871"/><text fill="#000000" font-family="sans-serif" font-size="13" font-weight="bold" lengthAdjust="spacing" textLength="9" x="49.5" y="145.5449">1</text><text fill="#000000" font-family="sans-serif" font-size="13" lengthAdjust="spacing" textLength="370" x="62.5" y="145.5449">asks to produce a list of the vehicles needing maintenance</text><polygon fill="#181818" points="810.5,175.5977,820.5,179.5977,810.5,183.5977,814.5,179.5977" style="stroke:#181818;stroke-width:1.0;"/><line style="stroke:#181818;stroke-width:1.0;" x1="454.5" x2="816.5" y1="179.5977" y2="179.5977"/><text fill="#000000" font-family="sans-serif" font-size="13" font-weight="bold" lengthAdjust="spacing" textLength="9" x="461.5" y="174.8555">2</text><text fill="#000000" font-family="sans-serif" font-size="13" lengthAdjust="spacing" textLength="69" x="474.5" y="174.8555">createList()</text><polygon fill="#181818" points="1561,204.9082,1571,208.9082,1561,212.9082,1565,208.9082" style="stroke:#181818;stroke-width:1.0;"/><line style="stroke:#181818;stroke-width:1.0;" x1="832.5" x2="1567" y1="208.9082" y2="208.9082"/><text fill="#000000" font-family="sans-serif" font-size="13" font-weight="bold" lengthAdjust="spacing" textLength="9" x="839.5" y="204.166">3</text><text fill="#000000" font-family="sans-serif" font-size="13" lengthAdjust="spacing" textLength="69" x="852.5" y="204.166">createList()</text><polygon fill="#181818" points="1911,234.2188,1921,238.2188,1911,242.2188,1915,238.2188" style="stroke:#181818;stroke-width:1.0;"/><line style="stroke:#181818;stroke-width:1.0;" x1="1578" x2="1917" y1="238.2188" y2="238.2188"/><text fill="#000000" font-family="sans-serif" font-size="13" font-weight="bold" lengthAdjust="spacing" textLength="9" x="1585" y="233.4766">4</text><text fill="#000000" font-family="sans-serif" font-size="13" lengthAdjust="spacing" textLength="69" x="1598" y="233.4766">createList()</text><rect fill="#E3E3E3" height="46.9766" rx="2.5" ry="2.5" style="stroke:#181818;stroke-width:0.5;" width="235" x="1923" y="216.9082"/><text fill="#000000" font-family="sans-serif" font-size="14" lengthAdjust="spacing" textLength="221" x="1930" y="237.4434">vehiclesNeedingMaintenanceList</text><text fill="#000000" font-family="sans-serif" font-size="14" lengthAdjust="spacing" textLength="94" x="1993.5" y="253.9316">List&lt;Vehicle&gt;</text><polygon fill="#181818" points="810.5,292.1953,820.5,296.1953,810.5,300.1953,814.5,296.1953" style="stroke:#181818;stroke-width:1.0;"/><line style="stroke:#181818;stroke-width:1.0;" x1="454.5" x2="816.5" y1="296.1953" y2="296.1953"/><text fill="#000000" font-family="sans-serif" font-size="13" font-weight="bold" lengthAdjust="spacing" textLength="9" x="461.5" y="291.4531">5</text><text fill="#000000" font-family="sans-serif" font-size="13" lengthAdjust="spacing" textLength="103" x="474.5" y="291.4531">getVehiclesList()</text><polygon fill="#181818" points="1317.5,321.5059,1327.5,325.5059,1317.5,329.5059,1321.5,325.5059" style="stroke:#181818;stroke-width:1.0;"/><line style="stroke:#181818;stroke-width:1.0;" x1="832.5" x2="1323.5" y1="325.5059" y2="325.5059"/><text fill="#000000" font-family="sans-serif" font-size="13" font-weight="bold" lengthAdjust="spacing" textLength="9" x="839.5" y="320.7637">6</text><text fill="#000000" font-family="sans-serif" font-size="13" lengthAdjust="spacing" textLength="81" x="852.5" y="320.7637">getInstance()</text><polygon fill="#181818" points="843.5,350.8164,833.5,354.8164,843.5,358.8164,839.5,354.8164" style="stroke:#181818;stroke-width:1.0;"/><line style="stroke:#181818;stroke-width:1.0;" x1="837.5" x2="1333.5" y1="354.8164" y2="354.8164"/><text fill="#000000" font-family="sans-serif" font-size="13" font-weight="bold" lengthAdjust="spacing" textLength="9" x="849.5" y="350.0742">7</text><text fill="#000000" font-family="sans-serif" font-size="13" lengthAdjust="spacing" textLength="75" x="862.5" y="350.0742">repositories</text><polygon fill="#181818" points="1430.5,380.127,1440.5,384.127,1430.5,388.127,1434.5,384.127" style="stroke:#181818;stroke-width:1.0;"/><line style="stroke:#181818;stroke-width:1.0;" x1="832.5" x2="1436.5" y1="384.127" y2="384.127"/><text fill="#000000" font-family="sans-serif" font-size="13" font-weight="bold" lengthAdjust="spacing" textLength="9" x="839.5" y="379.3848">8</text><text fill="#000000" font-family="sans-serif" font-size="13" lengthAdjust="spacing" textLength="140" x="852.5" y="379.3848">getVehicleRepository()</text><polygon fill="#181818" points="843.5,409.4375,833.5,413.4375,843.5,417.4375,839.5,413.4375" style="stroke:#181818;stroke-width:1.0;"/><line style="stroke:#181818;stroke-width:1.0;" x1="837.5" x2="1446.5" y1="413.4375" y2="413.4375"/><text fill="#000000" font-family="sans-serif" font-size="13" font-weight="bold" lengthAdjust="spacing" textLength="9" x="849.5" y="408.6953">9</text><text fill="#000000" font-family="sans-serif" font-size="13" lengthAdjust="spacing" textLength="111" x="862.5" y="408.6953">vehicleRepository</text><polygon fill="#181818" points="1561,438.748,1571,442.748,1561,446.748,1565,442.748" style="stroke:#181818;stroke-width:1.0;"/><line style="stroke:#181818;stroke-width:1.0;" x1="832.5" x2="1567" y1="442.748" y2="442.748"/><text fill="#000000" font-family="sans-serif" font-size="13" font-weight="bold" lengthAdjust="spacing" textLength="18" x="839.5" y="438.0059">10</text><text fill="#000000" font-family="sans-serif" font-size="13" lengthAdjust="spacing" textLength="103" x="861.5" y="438.0059">getVehiclesList()</text><polygon fill="#181818" points="843.5,468.0586,833.5,472.0586,843.5,476.0586,839.5,472.0586" style="stroke:#181818;stroke-width:1.0;"/><line style="stroke:#181818;stroke-width:1.0;" x1="837.5" x2="1577" y1="472.0586" y2="472.0586"/><text fill="#000000" font-family="sans-serif" font-size="13" font-weight="bold" lengthAdjust="spacing" textLength="18" x="849.5" y="467.3164">11</text><text fill="#000000" font-family="sans-serif" font-size="13" lengthAdjust="spacing" textLength="74" x="871.5" y="467.3164">vehiclesList</text><polygon fill="#181818" points="465.5,497.3691,455.5,501.3691,465.5,505.3691,461.5,501.3691" style="stroke:#181818;stroke-width:1.0;"/><line style="stroke:#181818;stroke-width:1.0;" x1="459.5" x2="826.5" y1="501.3691" y2="501.3691"/><text fill="#000000" font-family="sans-serif" font-size="13" font-weight="bold" lengthAdjust="spacing" textLength="18" x="471.5" y="496.627">12</text><text fill="#000000" font-family="sans-serif" font-size="13" lengthAdjust="spacing" textLength="74" x="493.5" y="496.627">vehiclesList</text><path d="M10,516.3691 L84,516.3691 L84,523.6797 L74,533.6797 L10,533.6797 L10,516.3691 " fill="#EEEEEE" style="stroke:#000000;stroke-width:1.5;"/><rect fill="none" height="853.0059" style="stroke:#000000;stroke-width:1.5;" width="2168" x="10" y="516.3691"/><text fill="#000000" font-family="sans-serif" font-size="13" font-weight="bold" lengthAdjust="spacing" textLength="29" x="25" y="529.9375">loop</text><text fill="#000000" font-family="sans-serif" font-size="11" font-weight="bold" lengthAdjust="spacing" textLength="180" x="99" y="529.0039">[while until end of vehicles list]</text><polygon fill="#181818" points="53.5,550.9902,43.5,554.9902,53.5,558.9902,49.5,554.9902" style="stroke:#181818;stroke-width:1.0;"/><line style="stroke:#181818;stroke-width:1.0;stroke-dasharray:2.0,2.0;" x1="47.5" x2="448.5" y1="554.9902" y2="554.9902"/><text fill="#000000" font-family="sans-serif" font-size="13" font-weight="bold" lengthAdjust="spacing" textLength="18" x="59.5" y="550.248">13</text><text fill="#000000" font-family="sans-serif" font-size="13" lengthAdjust="spacing" textLength="311" x="81.5" y="550.248">requests to update the current kms of the vehicle</text><polygon fill="#181818" points="432.5,580.3008,442.5,584.3008,432.5,588.3008,436.5,584.3008" style="stroke:#181818;stroke-width:1.0;"/><line style="stroke:#181818;stroke-width:1.0;" x1="42.5" x2="438.5" y1="584.3008" y2="584.3008"/><text fill="#000000" font-family="sans-serif" font-size="13" font-weight="bold" lengthAdjust="spacing" textLength="18" x="49.5" y="579.5586">14</text><text fill="#000000" font-family="sans-serif" font-size="13" lengthAdjust="spacing" textLength="232" x="71.5" y="579.5586">enters the current kms of the vehicle</text><polygon fill="#181818" points="810.5,609.6113,820.5,613.6113,810.5,617.6113,814.5,613.6113" style="stroke:#181818;stroke-width:1.0;"/><line style="stroke:#181818;stroke-width:1.0;" x1="454.5" x2="816.5" y1="613.6113" y2="613.6113"/><text fill="#000000" font-family="sans-serif" font-size="13" font-weight="bold" lengthAdjust="spacing" textLength="18" x="461.5" y="608.8691">15</text><text fill="#000000" font-family="sans-serif" font-size="13" lengthAdjust="spacing" textLength="232" x="483.5" y="608.8691">updateVehicleKms(vehiclePlate, kms)</text><polygon fill="#181818" points="1317.5,638.9219,1327.5,642.9219,1317.5,646.9219,1321.5,642.9219" style="stroke:#181818;stroke-width:1.0;"/><line style="stroke:#181818;stroke-width:1.0;" x1="832.5" x2="1323.5" y1="642.9219" y2="642.9219"/><text fill="#000000" font-family="sans-serif" font-size="13" font-weight="bold" lengthAdjust="spacing" textLength="18" x="839.5" y="638.1797">16</text><text fill="#000000" font-family="sans-serif" font-size="13" lengthAdjust="spacing" textLength="81" x="861.5" y="638.1797">getInstance()</text><polygon fill="#181818" points="843.5,668.2324,833.5,672.2324,843.5,676.2324,839.5,672.2324" style="stroke:#181818;stroke-width:1.0;"/><line style="stroke:#181818;stroke-width:1.0;" x1="837.5" x2="1333.5" y1="672.2324" y2="672.2324"/><text fill="#000000" font-family="sans-serif" font-size="13" font-weight="bold" lengthAdjust="spacing" textLength="18" x="849.5" y="667.4902">17</text><text fill="#000000" font-family="sans-serif" font-size="13" lengthAdjust="spacing" textLength="75" x="871.5" y="667.4902">repositories</text><polygon fill="#181818" points="1430.5,697.543,1440.5,701.543,1430.5,705.543,1434.5,701.543" style="stroke:#181818;stroke-width:1.0;"/><line style="stroke:#181818;stroke-width:1.0;" x1="832.5" x2="1436.5" y1="701.543" y2="701.543"/><text fill="#000000" font-family="sans-serif" font-size="13" font-weight="bold" lengthAdjust="spacing" textLength="18" x="839.5" y="696.8008">18</text><text fill="#000000" font-family="sans-serif" font-size="13" lengthAdjust="spacing" textLength="140" x="861.5" y="696.8008">getVehicleRepository()</text><polygon fill="#181818" points="843.5,726.8535,833.5,730.8535,843.5,734.8535,839.5,730.8535" style="stroke:#181818;stroke-width:1.0;"/><line style="stroke:#181818;stroke-width:1.0;" x1="837.5" x2="1446.5" y1="730.8535" y2="730.8535"/><text fill="#000000" font-family="sans-serif" font-size="13" font-weight="bold" lengthAdjust="spacing" textLength="18" x="849.5" y="726.1113">19</text><text fill="#000000" font-family="sans-serif" font-size="13" lengthAdjust="spacing" textLength="111" x="871.5" y="726.1113">vehicleRepository</text><polygon fill="#181818" points="1561,756.1641,1571,760.1641,1561,764.1641,1565,760.1641" style="stroke:#181818;stroke-width:1.0;"/><line style="stroke:#181818;stroke-width:1.0;" x1="832.5" x2="1567" y1="760.1641" y2="760.1641"/><text fill="#000000" font-family="sans-serif" font-size="13" font-weight="bold" lengthAdjust="spacing" textLength="18" x="839.5" y="755.4219">20</text><text fill="#000000" font-family="sans-serif" font-size="13" lengthAdjust="spacing" textLength="232" x="861.5" y="755.4219">updateVehicleKms(vehiclePlate, kms)</text><polygon fill="#181818" points="1862.5,785.4746,1872.5,789.4746,1862.5,793.4746,1866.5,789.4746" style="stroke:#181818;stroke-width:1.0;"/><line style="stroke:#181818;stroke-width:1.0;" x1="1583" x2="1868.5" y1="789.4746" y2="789.4746"/><text fill="#000000" font-family="sans-serif" font-size="13" font-weight="bold" lengthAdjust="spacing" textLength="18" x="1590" y="784.7324">21</text><text fill="#000000" font-family="sans-serif" font-size="13" lengthAdjust="spacing" textLength="232" x="1612" y="784.7324">updateVehicleKms(vehiclePlate, kms)</text><polygon fill="#181818" points="1594,814.7852,1584,818.7852,1594,822.7852,1590,818.7852" style="stroke:#181818;stroke-width:1.0;"/><line style="stroke:#181818;stroke-width:1.0;" x1="1588" x2="1878.5" y1="818.7852" y2="818.7852"/><text fill="#000000" font-family="sans-serif" font-size="13" font-weight="bold" lengthAdjust="spacing" textLength="18" x="1600" y="814.043">22</text><text fill="#000000" font-family="sans-serif" font-size="13" lengthAdjust="spacing" textLength="44" x="1622" y="814.043">vehicle</text><polygon fill="#181818" points="843.5,844.0957,833.5,848.0957,843.5,852.0957,839.5,848.0957" style="stroke:#181818;stroke-width:1.0;"/><line style="stroke:#181818;stroke-width:1.0;" x1="837.5" x2="1577" y1="848.0957" y2="848.0957"/><text fill="#000000" font-family="sans-serif" font-size="13" font-weight="bold" lengthAdjust="spacing" textLength="18" x="849.5" y="843.3535">23</text><text fill="#000000" font-family="sans-serif" font-size="13" lengthAdjust="spacing" textLength="44" x="871.5" y="843.3535">vehicle</text><polygon fill="#181818" points="465.5,873.4063,455.5,877.4063,465.5,881.4063,461.5,877.4063" style="stroke:#181818;stroke-width:1.0;"/><line style="stroke:#181818;stroke-width:1.0;" x1="459.5" x2="826.5" y1="877.4063" y2="877.4063"/><text fill="#000000" font-family="sans-serif" font-size="13" font-weight="bold" lengthAdjust="spacing" textLength="18" x="471.5" y="872.6641">24</text><text fill="#000000" font-family="sans-serif" font-size="13" lengthAdjust="spacing" textLength="44" x="493.5" y="872.6641">vehicle</text><polygon fill="#181818" points="810.5,902.7168,820.5,906.7168,810.5,910.7168,814.5,906.7168" style="stroke:#181818;stroke-width:1.0;"/><line style="stroke:#181818;stroke-width:1.0;" x1="454.5" x2="816.5" y1="906.7168" y2="906.7168"/><text fill="#000000" font-family="sans-serif" font-size="13" font-weight="bold" lengthAdjust="spacing" textLength="18" x="461.5" y="901.9746">25</text><text fill="#000000" font-family="sans-serif" font-size="13" lengthAdjust="spacing" textLength="207" x="483.5" y="901.9746">getLastMaintenance(vehiclePlate)</text><polygon fill="#181818" points="1317.5,932.0273,1327.5,936.0273,1317.5,940.0273,1321.5,936.0273" style="stroke:#181818;stroke-width:1.0;"/><line style="stroke:#181818;stroke-width:1.0;" x1="832.5" x2="1323.5" y1="936.0273" y2="936.0273"/><text fill="#000000" font-family="sans-serif" font-size="13" font-weight="bold" lengthAdjust="spacing" textLength="18" x="839.5" y="931.2852">26</text><text fill="#000000" font-family="sans-serif" font-size="13" lengthAdjust="spacing" textLength="81" x="861.5" y="931.2852">getInstance()</text><polygon fill="#181818" points="843.5,961.3379,833.5,965.3379,843.5,969.3379,839.5,965.3379" style="stroke:#181818;stroke-width:1.0;"/><line style="stroke:#181818;stroke-width:1.0;" x1="837.5" x2="1333.5" y1="965.3379" y2="965.3379"/><text fill="#000000" font-family="sans-serif" font-size="13" font-weight="bold" lengthAdjust="spacing" textLength="18" x="849.5" y="960.5957">27</text><text fill="#000000" font-family="sans-serif" font-size="13" lengthAdjust="spacing" textLength="75" x="871.5" y="960.5957">repositories</text><polygon fill="#181818" points="1430.5,990.6484,1440.5,994.6484,1430.5,998.6484,1434.5,994.6484" style="stroke:#181818;stroke-width:1.0;"/><line style="stroke:#181818;stroke-width:1.0;" x1="832.5" x2="1436.5" y1="994.6484" y2="994.6484"/><text fill="#000000" font-family="sans-serif" font-size="13" font-weight="bold" lengthAdjust="spacing" textLength="18" x="839.5" y="989.9063">28</text><text fill="#000000" font-family="sans-serif" font-size="13" lengthAdjust="spacing" textLength="174" x="861.5" y="989.9063">getMaintenanceRepository()</text><polygon fill="#181818" points="843.5,1019.959,833.5,1023.959,843.5,1027.959,839.5,1023.959" style="stroke:#181818;stroke-width:1.0;"/><line style="stroke:#181818;stroke-width:1.0;" x1="837.5" x2="1446.5" y1="1023.959" y2="1023.959"/><text fill="#000000" font-family="sans-serif" font-size="13" font-weight="bold" lengthAdjust="spacing" textLength="18" x="849.5" y="1019.2168">29</text><text fill="#000000" font-family="sans-serif" font-size="13" lengthAdjust="spacing" textLength="147" x="871.5" y="1019.2168">maintenanceRepository</text><polygon fill="#181818" points="1729.5,1049.2695,1739.5,1053.2695,1729.5,1057.2695,1733.5,1053.2695" style="stroke:#181818;stroke-width:1.0;"/><line style="stroke:#181818;stroke-width:1.0;" x1="832.5" x2="1735.5" y1="1053.2695" y2="1053.2695"/><text fill="#000000" font-family="sans-serif" font-size="13" font-weight="bold" lengthAdjust="spacing" textLength="18" x="839.5" y="1048.5273">30</text><text fill="#000000" font-family="sans-serif" font-size="13" lengthAdjust="spacing" textLength="207" x="861.5" y="1048.5273">getLastMaintenance(vehiclePlate)</text><polygon fill="#181818" points="843.5,1078.5801,833.5,1082.5801,843.5,1086.5801,839.5,1082.5801" style="stroke:#181818;stroke-width:1.0;"/><line style="stroke:#181818;stroke-width:1.0;" x1="837.5" x2="1745.5" y1="1082.5801" y2="1082.5801"/><text fill="#000000" font-family="sans-serif" font-size="13" font-weight="bold" lengthAdjust="spacing" textLength="18" x="849.5" y="1077.8379">31</text><text fill="#000000" font-family="sans-serif" font-size="13" lengthAdjust="spacing" textLength="102" x="871.5" y="1077.8379">lastMaintenance</text><polygon fill="#181818" points="465.5,1107.8906,455.5,1111.8906,465.5,1115.8906,461.5,1111.8906" style="stroke:#181818;stroke-width:1.0;"/><line style="stroke:#181818;stroke-width:1.0;" x1="459.5" x2="826.5" y1="1111.8906" y2="1111.8906"/><text fill="#000000" font-family="sans-serif" font-size="13" font-weight="bold" lengthAdjust="spacing" textLength="18" x="471.5" y="1107.1484">32</text><text fill="#000000" font-family="sans-serif" font-size="13" lengthAdjust="spacing" textLength="102" x="493.5" y="1107.1484">lastMaintenance</text><polygon fill="#181818" points="810.5,1137.2012,820.5,1141.2012,810.5,1145.2012,814.5,1141.2012" style="stroke:#181818;stroke-width:1.0;"/><line style="stroke:#181818;stroke-width:1.0;" x1="454.5" x2="816.5" y1="1141.2012" y2="1141.2012"/><text fill="#000000" font-family="sans-serif" font-size="13" font-weight="bold" lengthAdjust="spacing" textLength="18" x="461.5" y="1136.459">33</text><text fill="#000000" font-family="sans-serif" font-size="13" lengthAdjust="spacing" textLength="327" x="483.5" y="1136.459">calculateNextMaintenance(vehicle, lastMaintenance)</text><line style="stroke:#181818;stroke-width:1.0;" x1="832.5" x2="874.5" y1="1170.5117" y2="1170.5117"/><line style="stroke:#181818;stroke-width:1.0;" x1="874.5" x2="874.5" y1="1170.5117" y2="1183.5117"/><line style="stroke:#181818;stroke-width:1.0;" x1="833.5" x2="874.5" y1="1183.5117" y2="1183.5117"/><polygon fill="#181818" points="843.5,1179.5117,833.5,1183.5117,843.5,1187.5117,839.5,1183.5117" style="stroke:#181818;stroke-width:1.0;"/><text fill="#000000" font-family="sans-serif" font-size="13" font-weight="bold" lengthAdjust="spacing" textLength="18" x="839.5" y="1165.7695">34</text><text fill="#000000" font-family="sans-serif" font-size="13" lengthAdjust="spacing" textLength="461" x="861.5" y="1165.7695">needsMaintenance = calculateNextMaintenance(vehicle, lastMaintenance)</text><polygon fill="#181818" points="465.5,1208.8223,455.5,1212.8223,465.5,1216.8223,461.5,1212.8223" style="stroke:#181818;stroke-width:1.0;"/><line style="stroke:#181818;stroke-width:1.0;" x1="459.5" x2="826.5" y1="1212.8223" y2="1212.8223"/><text fill="#000000" font-family="sans-serif" font-size="13" font-weight="bold" lengthAdjust="spacing" textLength="18" x="471.5" y="1208.0801">35</text><text fill="#000000" font-family="sans-serif" font-size="13" lengthAdjust="spacing" textLength="116" x="493.5" y="1208.0801">needsMaintenance</text><path d="M312,1227.8223 L379,1227.8223 L379,1235.1328 L369,1245.1328 L312,1245.1328 L312,1227.8223 " fill="#EEEEEE" style="stroke:#000000;stroke-width:1.5;"/><rect fill="none" height="134.5527" style="stroke:#000000;stroke-width:1.5;" width="1856" x="312" y="1227.8223"/><text fill="#000000" font-family="sans-serif" font-size="13" font-weight="bold" lengthAdjust="spacing" textLength="22" x="327" y="1241.3906">opt</text><text fill="#000000" font-family="sans-serif" font-size="11" font-weight="bold" lengthAdjust="spacing" textLength="148" x="394" y="1240.457">[needsMaintenance = true]</text><polygon fill="#181818" points="810.5,1262.4434,820.5,1266.4434,810.5,1270.4434,814.5,1266.4434" style="stroke:#181818;stroke-width:1.0;"/><line style="stroke:#181818;stroke-width:1.0;" x1="454.5" x2="816.5" y1="1266.4434" y2="1266.4434"/><text fill="#000000" font-family="sans-serif" font-size="13" font-weight="bold" lengthAdjust="spacing" textLength="18" x="461.5" y="1261.7012">36</text><text fill="#000000" font-family="sans-serif" font-size="13" lengthAdjust="spacing" textLength="159" x="483.5" y="1261.7012">addVehicleToList(vehicle)</text><polygon fill="#181818" points="2023.5,1291.7539,2033.5,1295.7539,2023.5,1299.7539,2027.5,1295.7539" style="stroke:#181818;stroke-width:1.0;"/><line style="stroke:#181818;stroke-width:1.0;" x1="832.5" x2="2029.5" y1="1295.7539" y2="1295.7539"/><text fill="#000000" font-family="sans-serif" font-size="13" font-weight="bold" lengthAdjust="spacing" textLength="18" x="839.5" y="1291.0117">37</text><text fill="#000000" font-family="sans-serif" font-size="13" lengthAdjust="spacing" textLength="159" x="861.5" y="1291.0117">addVehicleToList(vehicle)</text><polygon fill="#181818" points="843.5,1321.0645,833.5,1325.0645,843.5,1329.0645,839.5,1325.0645" style="stroke:#181818;stroke-width:1.0;"/><line style="stroke:#181818;stroke-width:1.0;" x1="837.5" x2="2039.5" y1="1325.0645" y2="1325.0645"/><text fill="#000000" font-family="sans-serif" font-size="13" font-weight="bold" lengthAdjust="spacing" textLength="18" x="849.5" y="1320.3223">38</text><text fill="#000000" font-family="sans-serif" font-size="13" lengthAdjust="spacing" textLength="205" x="871.5" y="1320.3223">vehiclesNeedingMaintenanceList</text><polygon fill="#181818" points="465.5,1350.375,455.5,1354.375,465.5,1358.375,461.5,1354.375" style="stroke:#181818;stroke-width:1.0;"/><line style="stroke:#181818;stroke-width:1.0;" x1="459.5" x2="826.5" y1="1354.375" y2="1354.375"/><text fill="#000000" font-family="sans-serif" font-size="13" font-weight="bold" lengthAdjust="spacing" textLength="18" x="471.5" y="1349.6328">39</text><text fill="#000000" font-family="sans-serif" font-size="13" lengthAdjust="spacing" textLength="205" x="493.5" y="1349.6328">vehiclesNeedingMaintenanceList</text><polygon fill="#181818" points="48.5,1393.6855,38.5,1397.6855,48.5,1401.6855,44.5,1397.6855" style="stroke:#181818;stroke-width:1.0;"/><line style="stroke:#181818;stroke-width:1.0;stroke-dasharray:2.0,2.0;" x1="42.5" x2="448.5" y1="1397.6855" y2="1397.6855"/><text fill="#000000" font-family="sans-serif" font-size="13" font-weight="bold" lengthAdjust="spacing" textLength="18" x="54.5" y="1392.9434">40</text><text fill="#000000" font-family="sans-serif" font-size="13" lengthAdjust="spacing" textLength="274" x="76.5" y="1392.9434">shows list of vehicles needing maintenance</text><!--SRC=[tLTDR-8m4BtpAonERTLAFQxGRgLLjIkXXGgLZnCNDvc2XMDdRGUMVxzZ4v8uCKde7bQx75gOp7lpuJTcq3icKgfeGX8fPBHLCW5YL0O3NJn9QRIZ6vYR8mUY839KR7ZLGMzfB0zCRCWxvHe60yCCkYxdZu-Vo0EPAHbd4H1AEDE6o7UoXosBE6WY06ABIoWJ1WGL4Q9fPgJ8aZTG-3uoKf7XwljqIAWctvAKooF000CR5h6K2aE6emdohdBEbnFbj6HSZXrsERuAzIo5KP9pK0xzl7YTrF2la4hDC3y6slaKXkESsHPX6Jv4LH1hqIIOJRukV4JUgP9vj1QhkirX6rQVgD9XZsmQiZl2u9DWTbXA7hsQIT0rq6Xx36jX_txEaK-EfXtXfC7sr40fYW71r_aJUNZ28oSZfDffOYH96p8qMsYNekKhmg1-d059aThg0SaZ1VZC9dHpwxixmLYByqH4uu1QuStZj8-R74ZStgYxkr2S63eYLHnS9StIDr1CJw_w0zDnOXaBRMosTORGE5c7456PLdN6wfM46BqSxG1wfPM8UdPkLgt5OShu-wvsEc2dCZgwUuKy_BmSMpy9dDDpKzG6BmN2fKp9OSlmzi-4OPo0YBqBdv_XLah8NKohFRYV6MZZPZLBOqji1pJAb0AyGNQ9hiriFGqSqE05W6XGkWzPdShJ-ocdl5K_4dsJ8sSSpVUMyX-TWByo05twlxhRLqn4Rlo3A5NkInLSK6c0eMrUFpwgmIaDtU8JgatbIyFhmNybwU16qrVMmGMgKzh1a5UtVNenTfY_p9hxGUhvNYRs5DN14bPMH7cKsM9Uu5UeqFiwRPVMSbwxgEaAZ7pvQ2YlnZhjnI9bQa8vk1zD97zvZQ1nd4_jGhhlyZohsyAz6QIQNlj-Trs0ZgNwxDyHihbLTF1L-jWJ4Lm- -aSf6eaBIF7_mkAXj_AW-_qsRMuSWyh7C-Tl]--></g></svg>