<?xml version="1.0" encoding="us-ascii" standalone="no"?><svg xmlns="http://www.w3.org/2000/svg" xmlns:xlink="http://www.w3.org/1999/xlink" contentStyleType="text/css" height="383px" preserveAspectRatio="none" style="width:780px;height:383px;background:#FFFFFF;" version="1.1" viewBox="0 0 780 383" width="780px" zoomAndPan="magnify"><defs/><g><text fill="#000000" font-family="sans-serif" font-size="14" font-weight="bold" lengthAdjust="spacing" textLength="404" x="189.75" y="28.5352">US008 - Produce a list of vehicles needing maintenance</text><rect fill="#FFFFFF" height="134.5527" style="stroke:#181818;stroke-width:1.0;" width="10" x="246" y="150.2871"/><rect fill="#FFFFFF" height="29.3105" style="stroke:#181818;stroke-width:1.0;" width="10" x="642" y="219.2188"/><rect fill="none" height="91.2422" style="stroke:#000000;stroke-width:1.5;" width="689" x="85.5" y="165.2871"/><line style="stroke:#181818;stroke-width:0.5;stroke-dasharray:5.0,5.0;" x1="22" x2="22" y1="118.9766" y2="302.8398"/><line style="stroke:#181818;stroke-width:0.5;stroke-dasharray:5.0,5.0;" x1="250.5" x2="250.5" y1="118.9766" y2="302.8398"/><line style="stroke:#181818;stroke-width:0.5;stroke-dasharray:5.0,5.0;" x1="467.5" x2="467.5" y1="118.9766" y2="302.8398"/><line style="stroke:#181818;stroke-width:0.5;stroke-dasharray:5.0,5.0;" x1="646.5" x2="646.5" y1="118.9766" y2="302.8398"/><text fill="#000000" font-family="sans-serif" font-size="14" lengthAdjust="spacing" textLength="29" x="5" y="116.0234">VFM</text><ellipse cx="22.5" cy="50.9883" fill="#E3E3E3" rx="8" ry="8" style="stroke:#181818;stroke-width:0.5;"/><path d="M22.5,58.9883 L22.5,85.9883 M9.5,66.9883 L35.5,66.9883 M22.5,85.9883 L9.5,100.9883 M22.5,85.9883 L35.5,100.9883 " fill="none" style="stroke:#181818;stroke-width:0.5;"/><text fill="#000000" font-family="sans-serif" font-size="14" lengthAdjust="spacing" textLength="29" x="5" y="315.375">VFM</text><ellipse cx="22.5" cy="326.8281" fill="#E3E3E3" rx="8" ry="8" style="stroke:#181818;stroke-width:0.5;"/><path d="M22.5,334.8281 L22.5,361.8281 M9.5,342.8281 L35.5,342.8281 M22.5,361.8281 L9.5,376.8281 M22.5,361.8281 L35.5,376.8281 " fill="none" style="stroke:#181818;stroke-width:0.5;"/><rect fill="#E3E3E3" height="30.4883" rx="2.5" ry="2.5" style="stroke:#181818;stroke-width:0.5;" width="311" x="95.5" y="87.4883"/><text fill="#000000" font-family="sans-serif" font-size="14" lengthAdjust="spacing" textLength="297" x="102.5" y="108.0234">:ListVehiclesNeedingMaintenanceController</text><rect fill="#E3E3E3" height="30.4883" rx="2.5" ry="2.5" style="stroke:#181818;stroke-width:0.5;" width="311" x="95.5" y="301.8398"/><text fill="#000000" font-family="sans-serif" font-size="14" lengthAdjust="spacing" textLength="297" x="102.5" y="322.375">:ListVehiclesNeedingMaintenanceController</text><rect fill="#E3E3E3" height="30.4883" rx="2.5" ry="2.5" style="stroke:#181818;stroke-width:0.5;" width="103" x="416.5" y="87.4883"/><text fill="#000000" font-family="sans-serif" font-size="14" lengthAdjust="spacing" textLength="89" x="423.5" y="108.0234">:Repositories</text><rect fill="#E3E3E3" height="30.4883" rx="2.5" ry="2.5" style="stroke:#181818;stroke-width:0.5;" width="103" x="416.5" y="301.8398"/><text fill="#000000" font-family="sans-serif" font-size="14" lengthAdjust="spacing" textLength="89" x="423.5" y="322.375">:Repositories</text><rect fill="#E3E3E3" height="46.9766" rx="2.5" ry="2.5" style="stroke:#181818;stroke-width:0.5;" width="235" x="529.5" y="71"/><text fill="#000000" font-family="sans-serif" font-size="14" lengthAdjust="spacing" textLength="221" x="536.5" y="91.5352">vehiclesNeedingMaintenanceList</text><text fill="#000000" font-family="sans-serif" font-size="14" lengthAdjust="spacing" textLength="94" x="600" y="108.0234">List&lt;Vehicle&gt;</text><rect fill="#E3E3E3" height="46.9766" rx="2.5" ry="2.5" style="stroke:#181818;stroke-width:0.5;" width="235" x="529.5" y="301.8398"/><text fill="#000000" font-family="sans-serif" font-size="14" lengthAdjust="spacing" textLength="221" x="536.5" y="322.375">vehiclesNeedingMaintenanceList</text><text fill="#000000" font-family="sans-serif" font-size="14" lengthAdjust="spacing" textLength="94" x="600" y="338.8633">List&lt;Vehicle&gt;</text><rect fill="#FFFFFF" height="134.5527" style="stroke:#181818;stroke-width:1.0;" width="10" x="246" y="150.2871"/><rect fill="#FFFFFF" height="29.3105" style="stroke:#181818;stroke-width:1.0;" width="10" x="642" y="219.2188"/><polygon fill="#181818" points="234,146.2871,244,150.2871,234,154.2871,238,150.2871" style="stroke:#181818;stroke-width:1.0;"/><line style="stroke:#181818;stroke-width:1.0;" x1="0" x2="240" y1="150.2871" y2="150.2871"/><text fill="#000000" font-family="sans-serif" font-size="13" font-weight="bold" lengthAdjust="spacing" textLength="18" x="7" y="145.5449">36</text><text fill="#000000" font-family="sans-serif" font-size="13" lengthAdjust="spacing" textLength="159" x="29" y="145.5449">addVehicleToList(vehicle)</text><path d="M85.5,165.2871 L337.5,165.2871 L337.5,187.9082 L327.5,197.9082 L85.5,197.9082 L85.5,165.2871 " fill="#EEEEEE" style="stroke:#000000;stroke-width:1.5;"/><rect fill="none" height="91.2422" style="stroke:#000000;stroke-width:1.5;" width="689" x="85.5" y="165.2871"/><text fill="#000000" font-family="sans-serif" font-size="13" font-weight="bold" lengthAdjust="spacing" textLength="138" x="100.5" y="178.8555">Add vehicle to list of</text><text fill="#000000" font-family="sans-serif" font-size="13" font-weight="bold" lengthAdjust="spacing" textLength="207" x="100.5" y="194.166">vehicles needing maintenance</text><polygon fill="#181818" points="630,215.2188,640,219.2188,630,223.2188,634,219.2188" style="stroke:#181818;stroke-width:1.0;"/><line style="stroke:#181818;stroke-width:1.0;" x1="256" x2="636" y1="219.2188" y2="219.2188"/><text fill="#000000" font-family="sans-serif" font-size="13" font-weight="bold" lengthAdjust="spacing" textLength="30" x="263" y="214.4766">36.1</text><text fill="#000000" font-family="sans-serif" font-size="13" lengthAdjust="spacing" textLength="159" x="297" y="214.4766">addVehicleToList(vehicle)</text><polygon fill="#181818" points="267,244.5293,257,248.5293,267,252.5293,263,248.5293" style="stroke:#181818;stroke-width:1.0;"/><line style="stroke:#181818;stroke-width:1.0;stroke-dasharray:2.0,2.0;" x1="261" x2="646" y1="248.5293" y2="248.5293"/><text fill="#000000" font-family="sans-serif" font-size="13" font-weight="bold" lengthAdjust="spacing" textLength="30" x="273" y="243.7871">36.2</text><text fill="#000000" font-family="sans-serif" font-size="13" lengthAdjust="spacing" textLength="205" x="307" y="243.7871">vehiclesNeedingMaintenanceList</text><polygon fill="#181818" points="11,280.8398,1,284.8398,11,288.8398,7,284.8398" style="stroke:#181818;stroke-width:1.0;"/><line style="stroke:#181818;stroke-width:1.0;stroke-dasharray:2.0,2.0;" x1="5" x2="250" y1="284.8398" y2="284.8398"/><text fill="#000000" font-family="sans-serif" font-size="13" font-weight="bold" lengthAdjust="spacing" textLength="18" x="17" y="280.0977">37</text><text fill="#000000" font-family="sans-serif" font-size="13" lengthAdjust="spacing" textLength="205" x="39" y="280.0977">vehiclesNeedingMaintenanceList</text><!--SRC=[bP5FJm8n4CNl-oacdFIm1cEYXXWIG_G4nW1ouZAsmzBGxMpQBePlRrlMvK_YedleOJllzzwykeqo5LeieMJ3Ocsv9F2sfiorDnMA3HOqypjDO4buD8K-7d1hbFobJ04hr8wop2iVHZzc_VuZvF1kMTQ2044hvu5NiAMr4feS628PTIKguycW4K6DmhE5tk9rqWDqy59McdT4MJ3pIgWAZOVUO1nOYuRpjiTC3fGH6szPQxA9CPfFnsVwALNiL71IvD9C-sCtKt51p-PKiltLBMPPcdW-DP662TcjoCAgTN2foq-oS7UVvSCK50Q0KZQWESVHguPqVIQvkKrrgIrwsYy9uIiirnKyI_aJ03ottIzDP_jHdqA4CDtnEsD6J1liKWrn-89NVkZc0Yt29FtBcupSTtRQxaFsbET_T3roJC_m3G00]--></g></svg>