<?xml version="1.0" encoding="us-ascii" standalone="no"?><svg xmlns="http://www.w3.org/2000/svg" xmlns:xlink="http://www.w3.org/1999/xlink" contentStyleType="text/css" height="647px" preserveAspectRatio="none" style="width:400px;height:647px;background:#FFFFFF;" version="1.1" viewBox="0 0 400 647" width="400px" zoomAndPan="magnify"><defs/><g><text fill="#000000" font-family="sans-serif" font-size="14" font-weight="bold" lengthAdjust="spacing" textLength="284" x="59.5" y="30.1074">System Sequence Diagram (SSD) - US005</text><rect fill="#FFFFFF" height="347.2012" style="stroke:#181818;stroke-width:1.0;" width="10" x="52" y="170.4844"/><rect fill="#FFFFFF" height="31.291" style="stroke:#181818;stroke-width:1.0;" width="10" x="347" y="193.7754"/><rect fill="#FFFFFF" height="57.582" style="stroke:#181818;stroke-width:1.0;" width="10" x="347" y="256.3574"/><rect fill="#FFFFFF" height="31.291" style="stroke:#181818;stroke-width:1.0;" width="10" x="347" y="345.2305"/><rect fill="#FFFFFF" height="38.291" style="stroke:#181818;stroke-width:1.0;" width="10" x="347" y="407.8125"/><rect fill="#FFFFFF" height="31.291" style="stroke:#181818;stroke-width:1.0;" width="10" x="347" y="477.3945"/><rect fill="none" height="144.4551" style="stroke:#000000;stroke-width:1.5;" width="384" x="10" y="271.3574"/><line style="stroke:#181818;stroke-width:0.5;stroke-dasharray:5.0,5.0;" x1="57" x2="57" y1="160.4844" y2="526.6855"/><line style="stroke:#181818;stroke-width:0.5;stroke-dasharray:5.0,5.0;" x1="352" x2="352" y1="160.4844" y2="526.6855"/><text fill="#000000" font-family="sans-serif" font-size="14" lengthAdjust="spacing" textLength="44" x="32" y="119.7285">Human</text><text fill="#000000" font-family="sans-serif" font-size="14" lengthAdjust="spacing" textLength="68" x="20" y="138.3496">Resources</text><text fill="#000000" font-family="sans-serif" font-size="14" lengthAdjust="spacing" textLength="56" x="26" y="156.9707">Manager</text><ellipse cx="57" cy="53.1211" fill="#E3E3E3" rx="8" ry="8" style="stroke:#181818;stroke-width:0.5;"/><path d="M57,61.1211 L57,88.1211 M44,69.1211 L70,69.1211 M57,88.1211 L44,103.1211 M57,88.1211 L70,103.1211 " fill="none" style="stroke:#181818;stroke-width:0.5;"/><text fill="#000000" font-family="sans-serif" font-size="14" lengthAdjust="spacing" textLength="44" x="32" y="540.793">Human</text><text fill="#000000" font-family="sans-serif" font-size="14" lengthAdjust="spacing" textLength="68" x="20" y="559.4141">Resources</text><text fill="#000000" font-family="sans-serif" font-size="14" lengthAdjust="spacing" textLength="56" x="26" y="578.0352">Manager</text><ellipse cx="57" cy="590.0488" fill="#E3E3E3" rx="8" ry="8" style="stroke:#181818;stroke-width:0.5;"/><path d="M57,598.0488 L57,625.0488 M44,606.0488 L70,606.0488 M57,625.0488 L44,640.0488 M57,625.0488 L70,640.0488 " fill="none" style="stroke:#181818;stroke-width:0.5;"/><rect fill="#E3E3E3" height="32.6211" rx="2.5" ry="2.5" style="stroke:#181818;stroke-width:0.5;" width="64" x="320" y="126.8633"/><text fill="#000000" font-family="sans-serif" font-size="14" lengthAdjust="spacing" textLength="50" x="327" y="148.9707">:System</text><rect fill="#E3E3E3" height="32.6211" rx="2.5" ry="2.5" style="stroke:#181818;stroke-width:0.5;" width="64" x="320" y="525.6855"/><text fill="#000000" font-family="sans-serif" font-size="14" lengthAdjust="spacing" textLength="50" x="327" y="547.793">:System</text><rect fill="#FFFFFF" height="347.2012" style="stroke:#181818;stroke-width:1.0;" width="10" x="52" y="170.4844"/><rect fill="#FFFFFF" height="31.291" style="stroke:#181818;stroke-width:1.0;" width="10" x="347" y="193.7754"/><rect fill="#FFFFFF" height="57.582" style="stroke:#181818;stroke-width:1.0;" width="10" x="347" y="256.3574"/><rect fill="#FFFFFF" height="31.291" style="stroke:#181818;stroke-width:1.0;" width="10" x="347" y="345.2305"/><rect fill="#FFFFFF" height="38.291" style="stroke:#181818;stroke-width:1.0;" width="10" x="347" y="407.8125"/><rect fill="#FFFFFF" height="31.291" style="stroke:#181818;stroke-width:1.0;" width="10" x="347" y="477.3945"/><polygon fill="#181818" points="335,189.7754,345,193.7754,335,197.7754,339,193.7754" style="stroke:#181818;stroke-width:1.0;"/><line style="stroke:#181818;stroke-width:1.0;" x1="62" x2="341" y1="193.7754" y2="193.7754"/><text fill="#000000" font-family="sans-serif" font-size="13" font-weight="bold" lengthAdjust="spacing" textLength="7" x="69" y="188.5127">1</text><text fill="#000000" font-family="sans-serif" font-size="13" lengthAdjust="spacing" textLength="143" x="80" y="188.5127">asks for a team proposal</text><polygon fill="#181818" points="73,221.0664,63,225.0664,73,229.0664,69,225.0664" style="stroke:#181818;stroke-width:1.0;"/><line style="stroke:#181818;stroke-width:1.0;stroke-dasharray:2.0,2.0;" x1="67" x2="351" y1="225.0664" y2="225.0664"/><text fill="#000000" font-family="sans-serif" font-size="13" font-weight="bold" lengthAdjust="spacing" textLength="7" x="79" y="219.8037">2</text><text fill="#000000" font-family="sans-serif" font-size="13" lengthAdjust="spacing" textLength="250" x="90" y="219.8037">asks for minimum and maximum team size</text><polygon fill="#181818" points="335,252.3574,345,256.3574,335,260.3574,339,256.3574" style="stroke:#181818;stroke-width:1.0;"/><line style="stroke:#181818;stroke-width:1.0;" x1="62" x2="341" y1="256.3574" y2="256.3574"/><text fill="#000000" font-family="sans-serif" font-size="13" font-weight="bold" lengthAdjust="spacing" textLength="7" x="69" y="251.0947">3</text><text fill="#000000" font-family="sans-serif" font-size="13" lengthAdjust="spacing" textLength="244" x="80" y="251.0947">enters  minimum and maximum team size</text><path d="M10,271.3574 L83,271.3574 L83,280.6484 L73,290.6484 L10,290.6484 L10,271.3574 " fill="#EEEEEE" style="stroke:#000000;stroke-width:1.5;"/><rect fill="none" height="144.4551" style="stroke:#000000;stroke-width:1.5;" width="384" x="10" y="271.3574"/><text fill="#000000" font-family="sans-serif" font-size="13" font-weight="bold" lengthAdjust="spacing" textLength="28" x="25" y="286.3857">loop</text><text fill="#000000" font-family="sans-serif" font-size="11" font-weight="bold" lengthAdjust="spacing" textLength="96" x="98" y="285.2275">[while continues]</text><polygon fill="#181818" points="73,309.9395,63,313.9395,73,317.9395,69,313.9395" style="stroke:#181818;stroke-width:1.0;"/><line style="stroke:#181818;stroke-width:1.0;stroke-dasharray:2.0,2.0;" x1="67" x2="351" y1="313.9395" y2="313.9395"/><text fill="#000000" font-family="sans-serif" font-size="13" font-weight="bold" lengthAdjust="spacing" textLength="7" x="79" y="308.6768">4</text><text fill="#000000" font-family="sans-serif" font-size="13" lengthAdjust="spacing" textLength="205" x="90" y="308.6768">shows skills list and asks for a skill</text><polygon fill="#181818" points="335,341.2305,345,345.2305,335,349.2305,339,345.2305" style="stroke:#181818;stroke-width:1.0;"/><line style="stroke:#181818;stroke-width:1.0;" x1="62" x2="341" y1="345.2305" y2="345.2305"/><text fill="#000000" font-family="sans-serif" font-size="13" font-weight="bold" lengthAdjust="spacing" textLength="7" x="69" y="339.9678">5</text><text fill="#000000" font-family="sans-serif" font-size="13" lengthAdjust="spacing" textLength="80" x="80" y="339.9678">selects a skill</text><polygon fill="#181818" points="73,372.5215,63,376.5215,73,380.5215,69,376.5215" style="stroke:#181818;stroke-width:1.0;"/><line style="stroke:#181818;stroke-width:1.0;stroke-dasharray:2.0,2.0;" x1="67" x2="351" y1="376.5215" y2="376.5215"/><text fill="#000000" font-family="sans-serif" font-size="13" font-weight="bold" lengthAdjust="spacing" textLength="7" x="79" y="371.2588">6</text><text fill="#000000" font-family="sans-serif" font-size="13" lengthAdjust="spacing" textLength="96" x="90" y="371.2588">asks to continue</text><polygon fill="#181818" points="335,403.8125,345,407.8125,335,411.8125,339,407.8125" style="stroke:#181818;stroke-width:1.0;"/><line style="stroke:#181818;stroke-width:1.0;" x1="62" x2="341" y1="407.8125" y2="407.8125"/><text fill="#000000" font-family="sans-serif" font-size="13" font-weight="bold" lengthAdjust="spacing" textLength="7" x="69" y="402.5498">7</text><text fill="#000000" font-family="sans-serif" font-size="13" lengthAdjust="spacing" textLength="181" x="80" y="402.5498">answers positively or negatively</text><polygon fill="#181818" points="73,442.1035,63,446.1035,73,450.1035,69,446.1035" style="stroke:#181818;stroke-width:1.0;"/><line style="stroke:#181818;stroke-width:1.0;stroke-dasharray:2.0,2.0;" x1="67" x2="351" y1="446.1035" y2="446.1035"/><text fill="#000000" font-family="sans-serif" font-size="13" font-weight="bold" lengthAdjust="spacing" textLength="7" x="79" y="440.8408">8</text><text fill="#000000" font-family="sans-serif" font-size="13" lengthAdjust="spacing" textLength="134" x="90" y="440.8408">shows a team proposal</text><polygon fill="#181818" points="335,473.3945,345,477.3945,335,481.3945,339,477.3945" style="stroke:#181818;stroke-width:1.0;"/><line style="stroke:#181818;stroke-width:1.0;" x1="62" x2="341" y1="477.3945" y2="477.3945"/><text fill="#000000" font-family="sans-serif" font-size="13" font-weight="bold" lengthAdjust="spacing" textLength="7" x="69" y="472.1318">9</text><text fill="#000000" font-family="sans-serif" font-size="13" lengthAdjust="spacing" textLength="215" x="80" y="472.1318">accepts or refuses the team proposal</text><polygon fill="#181818" points="73,504.6855,63,508.6855,73,512.6855,69,508.6855" style="stroke:#181818;stroke-width:1.0;"/><line style="stroke:#181818;stroke-width:1.0;stroke-dasharray:2.0,2.0;" x1="67" x2="351" y1="508.6855" y2="508.6855"/><text fill="#000000" font-family="sans-serif" font-size="13" font-weight="bold" lengthAdjust="spacing" textLength="14" x="79" y="503.4229">10</text><text fill="#000000" font-family="sans-serif" font-size="13" lengthAdjust="spacing" textLength="141" x="97" y="503.4229">displays operation result</text><!--SRC=[fL8zJmCn3DtpAwnEC5HYOM5WOc1XuSJ6OdBkNTJ4EMA7KduzlXIgWegW8fFl_FpUyuUi0qzOC47AdFrOSYBGKid9FZEXN-D0dMuZGI6lo4Cy1CY8VTu47c25KSWv3MhGRYjA2JfwhiIUu2RWCCFFkkxc79Rmq5rSN3g7LJFNz4J5Og-vmEAs9kH7lYV9jNYIHxv3DWjb0IXmUt_dJ5Y33nEomk9gfzIIkx0nXHTKQcW7zYo0vVMdgoi3hmLM9eUWDBTPyfG5OmFlop_vuEDzb2-DQIOye4c1Gwe9a7j8-DhYHYpXZLfzJqTflniZLYe2Vo0yIXTpdc0p1jk0pwo1AydFzcNC6m7RPOm2COWskOFPjDGfzeMYtOXyAJrnd9htrjqfqiYocKTdUmm6fxW5wu5fmDtNKI_pF-BU_JQZOsVoLr_UqsGZCJE5LbN8MXpfNsVN1vaYRerpecBjPJPggL5_yFKE]--></g></svg>