<?xml version="1.0" encoding="us-ascii" standalone="no"?><svg xmlns="http://www.w3.org/2000/svg" xmlns:xlink="http://www.w3.org/1999/xlink" contentStyleType="text/css" height="882px" preserveAspectRatio="none" style="width:749px;height:882px;background:#FFFFFF;" version="1.1" viewBox="0 0 749 882" width="749px" zoomAndPan="magnify"><defs/><g><!--cluster RealEstateUSA--><g id="cluster_RealEstateUSA"><rect fill="none" height="869" rx="2.5" ry="2.5" style="stroke:#181818;stroke-width:1.0;" width="517" x="226" y="7"/><text fill="#000000" font-family="sans-serif" font-size="14" font-weight="bold" lengthAdjust="spacing" textLength="103" x="433" y="24.1074">RealEstateUSA</text></g><g id="elem_US 01 - Register skills that might be appointed to a collaborator"><ellipse cx="484.7193" cy="89.0439" fill="#F1F1F1" rx="213.2193" ry="45.0439" style="stroke:#181818;stroke-width:0.5;"/><text fill="#000000" font-family="sans-serif" font-size="14" lengthAdjust="spacing" textLength="398" x="285.7193" y="92.8407">US 01 - Register skills that might be appointed to a collaborator</text></g><g id="elem_US 02 - Register a job"><ellipse cx="484.4801" cy="189.796" fill="#F1F1F1" rx="91.9801" ry="20.796" style="stroke:#181818;stroke-width:0.5;"/><text fill="#000000" font-family="sans-serif" font-size="14" lengthAdjust="spacing" textLength="139" x="411.9801" y="194.5997">US 02 - Register a job</text></g><g id="elem_US 03 - register a collaborator with a job and fundamental characteristics"><ellipse cx="484.5666" cy="296.9133" fill="#F1F1F1" rx="242.5666" ry="50.9133" style="stroke:#181818;stroke-width:0.5;"/><text fill="#000000" font-family="sans-serif" font-size="14" lengthAdjust="spacing" textLength="458" x="255.5666" y="300.7102">US 03 - register a collaborator with a job and fundamental characteristics</text></g><g id="elem_US 04 - Assign one or more skills to a collaborator"><ellipse cx="484.4983" cy="419.9997" fill="#F1F1F1" rx="172.9983" ry="36.9997" style="stroke:#181818;stroke-width:0.5;"/><text fill="#000000" font-family="sans-serif" font-size="14" lengthAdjust="spacing" textLength="315" x="326.9983" y="423.7965">US 04 - Assign one or more skills to a collaborator</text></g><g id="elem_US 05 - Generate a team proposal automatically"><ellipse cx="484.7358" cy="527.8472" fill="#F1F1F1" rx="167.2358" ry="35.8472" style="stroke:#181818;stroke-width:0.5;"/><text fill="#000000" font-family="sans-serif" font-size="14" lengthAdjust="spacing" textLength="303" x="333.2358" y="531.644">US 05 - Generate a team proposal automatically</text></g><g id="elem_US 06 - Register a vehicle's information"><ellipse cx="484.5839" cy="630.1168" fill="#F1F1F1" rx="141.0839" ry="30.6168" style="stroke:#181818;stroke-width:0.5;"/><text fill="#000000" font-family="sans-serif" font-size="14" lengthAdjust="spacing" textLength="248" x="360.5839" y="633.9137">US 06 - Register a vehicle's information</text></g><g id="elem_US 07 - Register a vehicle&#8217;s check-up"><ellipse cx="484.4506" cy="724.9901" fill="#F1F1F1" rx="135.4506" ry="29.4901" style="stroke:#181818;stroke-width:0.5;"/><text fill="#000000" font-family="sans-serif" font-size="14" lengthAdjust="spacing" textLength="236" x="366.4506" y="728.787">US 07 - Register a vehicle&#8217;s check-up</text></g><g id="elem_US 08 - List the vehicles needing the check-up"><ellipse cx="484.4472" cy="824.8894" fill="#F1F1F1" rx="162.4472" ry="34.8894" style="stroke:#181818;stroke-width:0.5;"/><text fill="#000000" font-family="sans-serif" font-size="14" lengthAdjust="spacing" textLength="293" x="337.9472" y="828.6863">US 08 - List the vehicles needing the check-up</text></g><!--entity HRM--><g id="elem_HRM"><ellipse cx="94" cy="266" fill="#F1F1F1" rx="8" ry="8" style="stroke:#181818;stroke-width:0.5;"/><path d="M94,274 L94,301 M81,282 L107,282 M94,301 L81,316 M94,301 L107,316 " fill="none" style="stroke:#181818;stroke-width:0.5;"/><text fill="#000000" font-family="sans-serif" font-size="14" lengthAdjust="spacing" textLength="176" x="6" y="332.6074">Human Resources Manager</text></g><!--entity FM--><g id="elem_FM"><ellipse cx="94" cy="694" fill="#F1F1F1" rx="8" ry="8" style="stroke:#181818;stroke-width:0.5;"/><path d="M94,702 L94,729 M81,710 L107,710 M94,729 L81,744 M94,729 L107,744 " fill="none" style="stroke:#181818;stroke-width:0.5;"/><text fill="#000000" font-family="sans-serif" font-size="14" lengthAdjust="spacing" textLength="92" x="48" y="760.6074">Fleet Manager</text></g><!--link HRM to US 01 - Register skills that might be appointed to a collaborator--><g id="link_HRM_US 01 - Register skills that might be appointed to a collaborator"><path d="M118.14,257.33 C139.74,223.87 175.05,177.33 218,151 C244.73,134.61 269.6445,124.2109 300.4345,115.3409 " fill="none" id="HRM-to-US 01 - Register skills that might be appointed to a collaborator" style="stroke:#181818;stroke-width:1.0;"/><polygon fill="#181818" points="306.2,113.68,296.4444,112.3277,301.3954,115.0641,298.659,120.0151,306.2,113.68" style="stroke:#181818;stroke-width:1.0;"/></g><!--link HRM to US 02 - Register a job--><g id="link_HRM_US 02 - Register a job"><path d="M155.18,257.41 C174.54,246.29 196.55,235.27 218,228 C275,208.69 336.1436,199.7217 388.6336,195.0517 " fill="none" id="HRM-to-US 02 - Register a job" style="stroke:#181818;stroke-width:1.0;"/><polygon fill="#181818" points="394.61,194.52,385.2909,191.3333,389.6297,194.9631,385.9999,199.3018,394.61,194.52" style="stroke:#181818;stroke-width:1.0;"/></g><!--link HRM to US 03 - register a collaborator with a job and fundamental characteristics--><g id="link_HRM_US 03 - register a collaborator with a job and fundamental characteristics"><path d="M182.19,297 C200.53,297 214.73,297 235.72,297 " fill="none" id="HRM-to-US 03 - register a collaborator with a job and fundamental characteristics" style="stroke:#181818;stroke-width:1.0;"/><polygon fill="#181818" points="241.72,297,232.72,293,236.72,297,232.72,301,241.72,297" style="stroke:#181818;stroke-width:1.0;"/></g><!--link HRM to US 04 - Assign one or more skills to a collaborator--><g id="link_HRM_US 04 - Assign one or more skills to a collaborator"><path d="M158.06,336.61 C176.8,347.06 197.75,357.5 218,365 C257.29,379.55 295.4695,389.4383 336.2295,397.6983 " fill="none" id="HRM-to-US 04 - Assign one or more skills to a collaborator" style="stroke:#181818;stroke-width:1.0;"/><polygon fill="#181818" points="342.11,398.89,334.0837,393.1822,337.2096,397.8969,332.4948,401.0228,342.11,398.89" style="stroke:#181818;stroke-width:1.0;"/></g><!--link HRM to US 05 - Generate a team proposal automatically--><g id="link_HRM_US 05 - Generate a team proposal automatically"><path d="M111.73,336.83 C131.12,377.88 167.05,440.47 218,474 C250.02,495.08 282.7045,506.9369 320.3645,515.0469 " fill="none" id="HRM-to-US 05 - Generate a team proposal automatically" style="stroke:#181818;stroke-width:1.0;"/><polygon fill="#181818" points="326.23,516.31,318.2738,510.5049,321.3421,515.2574,316.5896,518.3257,326.23,516.31" style="stroke:#181818;stroke-width:1.0;"/></g><!--link FM to US 06 - Register a vehicle's information--><g id="link_FM_US 06 - Register a vehicle's information"><path d="M140.17,705.42 C163.14,696.07 191.69,685.34 218,678 C265.6,664.73 313.1418,655.2272 359.5418,647.4872 " fill="none" id="FM-to-US 06 - Register a vehicle's information" style="stroke:#181818;stroke-width:1.0;"/><polygon fill="#181818" points="365.46,646.5,355.9245,644.0353,360.5281,647.3227,357.2408,651.9263,365.46,646.5" style="stroke:#181818;stroke-width:1.0;"/></g><!--link FM to US 07 - Register a vehicle?s check-up--><g id="link_FM_US 07 - Register a vehicle&#8217;s check-up"><path d="M140.33,725 C191.17,725 270.02,725 342.63,725 " fill="none" id="FM-to-US 07 - Register a vehicle&#8217;s check-up" style="stroke:#181818;stroke-width:1.0;"/><polygon fill="#181818" points="348.63,725,339.63,721,343.63,725,339.63,729,348.63,725" style="stroke:#181818;stroke-width:1.0;"/></g><!--link FM to US 08 - List the vehicles needing the check-up--><g id="link_FM_US 08 - List the vehicles needing the check-up"><path d="M140.23,744.38 C163.21,753.68 191.75,764.42 218,772 C262.03,784.71 305.1371,794.3015 348.9471,802.6915 " fill="none" id="FM-to-US 08 - List the vehicles needing the check-up" style="stroke:#181818;stroke-width:1.0;"/><polygon fill="#181818" points="354.84,803.82,346.753,798.1986,349.9292,802.8795,345.2483,806.0558,354.84,803.82" style="stroke:#181818;stroke-width:1.0;"/></g><!--SRC=[XP5BJWCn38RtEONL3R2en1jMI5rGkg2RLZs0ct5dGZFsAF6044BY6boFa-0fAdqXiOt_xxD_9T92GGLIA2k58YJo6eITGw-Ie3TgQsIOK9OsUSemHiQIKWymmsWoNiU6aKXtXiEnSwwp8PUHp83nFYigpQO3U7FGqT3lty7nR0gdPz2tI1coKeAy335cq0eLwjLTSm9i6WciL7JN8dY94UUIqDQVxDlEjsq8Jp8_Y5nO96qYspfu2LhzO81SmABb0cjYnGY-mcILAHaOV3xGNffsa7Ce6OG9J5PBejz6_rv-PVm3CTdKAeCIrj0aQIJRScnLQhIz6EDhXmwtoElTpizK1H_fA4FWXQGE4zvdRlvalZu-inKbl-otpJvoQyYZ0VOxj0OoC54Hk5mzRaZtxhu1]--></g></svg>