<?xml version="1.0" encoding="us-ascii" standalone="no"?><svg xmlns="http://www.w3.org/2000/svg" xmlns:xlink="http://www.w3.org/1999/xlink" contentStyleType="text/css" height="520px" preserveAspectRatio="none" style="width:337px;height:520px;background:#FFFFFF;" version="1.1" viewBox="0 0 337 520" width="337.6px" zoomAndPan="magnify"><defs/><g><text fill="#000000" font-family="sans-serif" font-size="11.2" font-weight="bold" lengthAdjust="spacing" textLength="271.2" x="27.6" y="20.0859">Register a job  that a collaborator needs to have</text><!--class Repositories--><g id="elem_Repositories"><rect codeLine="5" fill="#F1F1F1" height="83.0906" id="Repositories" rx="2" ry="2" style="stroke:#181818;stroke-width:0.4000000000000001;" width="108.8" x="77.2" y="37.2969"/><ellipse cx="98.2" cy="50.0969" fill="#ADD1B2" rx="8.8" ry="8.8" style="stroke:#181818;stroke-width:0.8000000000000002;"/><path d="M100.4125,46.7969 Q100.5375,46.6219 100.6875,46.5344 Q100.8375,46.4469 101.0125,46.4469 Q101.3125,46.4469 101.5,46.6594 Q101.6875,46.8594 101.6875,47.3469 L101.6875,48.5094 Q101.6875,48.9969 101.5,49.2094 Q101.3125,49.4219 101.0125,49.4219 Q100.7375,49.4219 100.575,49.2594 Q100.4125,49.1094 100.325,48.6969 Q100.2875,48.4094 100.1375,48.2594 Q99.875,47.9594 99.3875,47.7844 Q98.9,47.6094 98.4,47.6094 Q97.7875,47.6094 97.275,47.8719 Q96.775,48.1344 96.375,48.7344 Q95.9875,49.3344 95.9875,50.1594 L95.9875,51.0344 Q95.9875,52.0219 96.7,52.6844 Q97.4125,53.3344 98.6875,53.3344 Q99.4375,53.3344 99.9625,53.1344 Q100.275,53.0094 100.6125,52.6594 Q100.825,52.4469 100.9375,52.3844 Q101.0625,52.3219 101.225,52.3219 Q101.4875,52.3219 101.6875,52.5344 Q101.9,52.7344 101.9,53.0094 Q101.9,53.2844 101.625,53.6094 Q101.225,54.0719 100.5875,54.3344 Q99.725,54.6969 98.6875,54.6969 Q97.475,54.6969 96.5125,54.1969 Q95.725,53.7969 95.175,52.9469 Q94.625,52.0844 94.625,51.0594 L94.625,50.1344 Q94.625,49.0719 95.1125,48.1594 Q95.6125,47.2344 96.4875,46.7469 Q97.3625,46.2469 98.35,46.2469 Q98.9375,46.2469 99.45,46.3844 Q99.975,46.5094 100.4125,46.7969 Z " fill="#000000"/><text fill="#000000" font-family="sans-serif" font-size="11.2" lengthAdjust="spacing" textLength="63.2" x="111.4" y="54.7344">Repositories</text><line style="stroke:#181818;stroke-width:0.4000000000000001;" x1="78" x2="185.2" y1="62.8969" y2="62.8969"/><line style="stroke:#181818;stroke-width:0.4000000000000001;" x1="78" x2="185.2" y1="69.2969" y2="69.2969"/><text fill="#000000" font-family="sans-serif" font-size="11.2" lengthAdjust="spacing" textLength="99.2" x="82" y="84.5828">getJobRepository();</text><text fill="#000000" font-family="sans-serif" font-size="11.2" lengthAdjust="spacing" textLength="69.6" x="82" y="99.4797">getinstance();</text><text fill="#000000" font-family="sans-serif" font-size="11.2" lengthAdjust="spacing" textLength="74.4" x="82" y="114.3766">Repositories();</text></g><!--class RegisterJobController--><g id="elem_RegisterJobController"><rect codeLine="10" fill="#F1F1F1" height="83.0906" id="RegisterJobController" rx="2" ry="2" style="stroke:#181818;stroke-width:0.4000000000000001;" width="135.2" x="126.4" y="431.6969"/><ellipse cx="138.4" cy="444.4969" fill="#ADD1B2" rx="8.8" ry="8.8" style="stroke:#181818;stroke-width:0.8000000000000002;"/><path d="M140.6125,441.1969 Q140.7375,441.0219 140.8875,440.9344 Q141.0375,440.8469 141.2125,440.8469 Q141.5125,440.8469 141.7,441.0594 Q141.8875,441.2594 141.8875,441.7469 L141.8875,442.9094 Q141.8875,443.3969 141.7,443.6094 Q141.5125,443.8219 141.2125,443.8219 Q140.9375,443.8219 140.775,443.6594 Q140.6125,443.5094 140.525,443.0969 Q140.4875,442.8094 140.3375,442.6594 Q140.075,442.3594 139.5875,442.1844 Q139.1,442.0094 138.6,442.0094 Q137.9875,442.0094 137.475,442.2719 Q136.975,442.5344 136.575,443.1344 Q136.1875,443.7344 136.1875,444.5594 L136.1875,445.4344 Q136.1875,446.4219 136.9,447.0844 Q137.6125,447.7344 138.8875,447.7344 Q139.6375,447.7344 140.1625,447.5344 Q140.475,447.4094 140.8125,447.0594 Q141.025,446.8469 141.1375,446.7844 Q141.2625,446.7219 141.425,446.7219 Q141.6875,446.7219 141.8875,446.9344 Q142.1,447.1344 142.1,447.4094 Q142.1,447.6844 141.825,448.0094 Q141.425,448.4719 140.7875,448.7344 Q139.925,449.0969 138.8875,449.0969 Q137.675,449.0969 136.7125,448.5969 Q135.925,448.1969 135.375,447.3469 Q134.825,446.4844 134.825,445.4594 L134.825,444.5344 Q134.825,443.4719 135.3125,442.5594 Q135.8125,441.6344 136.6875,441.1469 Q137.5625,440.6469 138.55,440.6469 Q139.1375,440.6469 139.65,440.7844 Q140.175,440.9094 140.6125,441.1969 Z " fill="#000000"/><text fill="#000000" font-family="sans-serif" font-size="11.2" lengthAdjust="spacing" textLength="109.6" x="149.6" y="449.1344">RegisterJobController</text><line style="stroke:#181818;stroke-width:0.4000000000000001;" x1="127.2" x2="260.8" y1="457.2969" y2="457.2969"/><line style="stroke:#181818;stroke-width:0.4000000000000001;" x1="127.2" x2="260.8" y1="463.6969" y2="463.6969"/><text fill="#000000" font-family="sans-serif" font-size="11.2" lengthAdjust="spacing" textLength="124" x="131.2" y="478.9828">+RegisterJobController()</text><text fill="#000000" font-family="sans-serif" font-size="11.2" lengthAdjust="spacing" textLength="48" x="131.2" y="493.8797">+geJob();</text><text fill="#000000" font-family="sans-serif" font-size="11.2" lengthAdjust="spacing" textLength="90.4" x="131.2" y="508.7766">-getJobByName();</text></g><!--class RegisterJobUI--><g id="elem_RegisterJobUI"><rect codeLine="18" fill="#F1F1F1" height="38.4" id="RegisterJobUI" rx="2" ry="2" style="stroke:#181818;stroke-width:0.4000000000000001;" width="95.2" x="236.8" y="322.4969"/><ellipse cx="248.8" cy="335.2969" fill="#ADD1B2" rx="8.8" ry="8.8" style="stroke:#181818;stroke-width:0.8000000000000002;"/><path d="M251.0125,331.9969 Q251.1375,331.8219 251.2875,331.7344 Q251.4375,331.6469 251.6125,331.6469 Q251.9125,331.6469 252.1,331.8594 Q252.2875,332.0594 252.2875,332.5469 L252.2875,333.7094 Q252.2875,334.1969 252.1,334.4094 Q251.9125,334.6219 251.6125,334.6219 Q251.3375,334.6219 251.175,334.4594 Q251.0125,334.3094 250.925,333.8969 Q250.8875,333.6094 250.7375,333.4594 Q250.475,333.1594 249.9875,332.9844 Q249.5,332.8094 249,332.8094 Q248.3875,332.8094 247.875,333.0719 Q247.375,333.3344 246.975,333.9344 Q246.5875,334.5344 246.5875,335.3594 L246.5875,336.2344 Q246.5875,337.2219 247.3,337.8844 Q248.0125,338.5344 249.2875,338.5344 Q250.0375,338.5344 250.5625,338.3344 Q250.875,338.2094 251.2125,337.8594 Q251.425,337.6469 251.5375,337.5844 Q251.6625,337.5219 251.825,337.5219 Q252.0875,337.5219 252.2875,337.7344 Q252.5,337.9344 252.5,338.2094 Q252.5,338.4844 252.225,338.8094 Q251.825,339.2719 251.1875,339.5344 Q250.325,339.8969 249.2875,339.8969 Q248.075,339.8969 247.1125,339.3969 Q246.325,338.9969 245.775,338.1469 Q245.225,337.2844 245.225,336.2594 L245.225,335.3344 Q245.225,334.2719 245.7125,333.3594 Q246.2125,332.4344 247.0875,331.9469 Q247.9625,331.4469 248.95,331.4469 Q249.5375,331.4469 250.05,331.5844 Q250.575,331.7094 251.0125,331.9969 Z " fill="#000000"/><text fill="#000000" font-family="sans-serif" font-size="11.2" lengthAdjust="spacing" textLength="69.6" x="260" y="339.9344">RegisterJobUI</text><line style="stroke:#181818;stroke-width:0.4000000000000001;" x1="237.6" x2="331.2" y1="348.0969" y2="348.0969"/><line style="stroke:#181818;stroke-width:0.4000000000000001;" x1="237.6" x2="331.2" y1="354.4969" y2="354.4969"/></g><!--class RegisterJobRepository--><g id="elem_RegisterJobRepository"><rect codeLine="22" fill="#F1F1F1" height="68.1938" id="RegisterJobRepository" rx="2" ry="2" style="stroke:#181818;stroke-width:0.4000000000000001;" width="140" x="5.6" y="183.6969"/><ellipse cx="17.6" cy="196.4969" fill="#ADD1B2" rx="8.8" ry="8.8" style="stroke:#181818;stroke-width:0.8000000000000002;"/><path d="M19.8125,193.1969 Q19.9375,193.0219 20.0875,192.9344 Q20.2375,192.8469 20.4125,192.8469 Q20.7125,192.8469 20.9,193.0594 Q21.0875,193.2594 21.0875,193.7469 L21.0875,194.9094 Q21.0875,195.3969 20.9,195.6094 Q20.7125,195.8219 20.4125,195.8219 Q20.1375,195.8219 19.975,195.6594 Q19.8125,195.5094 19.725,195.0969 Q19.6875,194.8094 19.5375,194.6594 Q19.275,194.3594 18.7875,194.1844 Q18.3,194.0094 17.8,194.0094 Q17.1875,194.0094 16.675,194.2719 Q16.175,194.5344 15.775,195.1344 Q15.3875,195.7344 15.3875,196.5594 L15.3875,197.4344 Q15.3875,198.4219 16.1,199.0844 Q16.8125,199.7344 18.0875,199.7344 Q18.8375,199.7344 19.3625,199.5344 Q19.675,199.4094 20.0125,199.0594 Q20.225,198.8469 20.3375,198.7844 Q20.4625,198.7219 20.625,198.7219 Q20.8875,198.7219 21.0875,198.9344 Q21.3,199.1344 21.3,199.4094 Q21.3,199.6844 21.025,200.0094 Q20.625,200.4719 19.9875,200.7344 Q19.125,201.0969 18.0875,201.0969 Q16.875,201.0969 15.9125,200.5969 Q15.125,200.1969 14.575,199.3469 Q14.025,198.4844 14.025,197.4594 L14.025,196.5344 Q14.025,195.4719 14.5125,194.5594 Q15.0125,193.6344 15.8875,193.1469 Q16.7625,192.6469 17.75,192.6469 Q18.3375,192.6469 18.85,192.7844 Q19.375,192.9094 19.8125,193.1969 Z " fill="#000000"/><text fill="#000000" font-family="sans-serif" font-size="11.2" lengthAdjust="spacing" textLength="114.4" x="28.8" y="201.1344">RegisterJobRepository</text><line style="stroke:#181818;stroke-width:0.4000000000000001;" x1="6.4" x2="144.8" y1="209.2969" y2="209.2969"/><line style="stroke:#181818;stroke-width:0.4000000000000001;" x1="6.4" x2="144.8" y1="215.6969" y2="215.6969"/><text fill="#000000" font-family="sans-serif" font-size="11.2" lengthAdjust="spacing" textLength="76.8" x="10.4" y="230.9828">RegisterJobs();</text><text fill="#000000" font-family="sans-serif" font-size="11.2" lengthAdjust="spacing" textLength="86.4" x="10.4" y="245.8797">getJobByName();</text></g><!--class job--><g id="elem_job"><rect codeLine="26" fill="#F1F1F1" height="53.2969" id="job" rx="2" ry="2" style="stroke:#181818;stroke-width:0.4000000000000001;" width="76.8" x="54.8" y="314.8969"/><ellipse cx="83" cy="327.6969" fill="#ADD1B2" rx="8.8" ry="8.8" style="stroke:#181818;stroke-width:0.8000000000000002;"/><path d="M85.2125,324.3969 Q85.3375,324.2219 85.4875,324.1344 Q85.6375,324.0469 85.8125,324.0469 Q86.1125,324.0469 86.3,324.2594 Q86.4875,324.4594 86.4875,324.9469 L86.4875,326.1094 Q86.4875,326.5969 86.3,326.8094 Q86.1125,327.0219 85.8125,327.0219 Q85.5375,327.0219 85.375,326.8594 Q85.2125,326.7094 85.125,326.2969 Q85.0875,326.0094 84.9375,325.8594 Q84.675,325.5594 84.1875,325.3844 Q83.7,325.2094 83.2,325.2094 Q82.5875,325.2094 82.075,325.4719 Q81.575,325.7344 81.175,326.3344 Q80.7875,326.9344 80.7875,327.7594 L80.7875,328.6344 Q80.7875,329.6219 81.5,330.2844 Q82.2125,330.9344 83.4875,330.9344 Q84.2375,330.9344 84.7625,330.7344 Q85.075,330.6094 85.4125,330.2594 Q85.625,330.0469 85.7375,329.9844 Q85.8625,329.9219 86.025,329.9219 Q86.2875,329.9219 86.4875,330.1344 Q86.7,330.3344 86.7,330.6094 Q86.7,330.8844 86.425,331.2094 Q86.025,331.6719 85.3875,331.9344 Q84.525,332.2969 83.4875,332.2969 Q82.275,332.2969 81.3125,331.7969 Q80.525,331.3969 79.975,330.5469 Q79.425,329.6844 79.425,328.6594 L79.425,327.7344 Q79.425,326.6719 79.9125,325.7594 Q80.4125,324.8344 81.2875,324.3469 Q82.1625,323.8469 83.15,323.8469 Q83.7375,323.8469 84.25,323.9844 Q84.775,324.1094 85.2125,324.3969 Z " fill="#000000"/><text fill="#000000" font-family="sans-serif" font-size="11.2" lengthAdjust="spacing" textLength="15.2" x="97.8" y="332.3344">job</text><line style="stroke:#181818;stroke-width:0.4000000000000001;" x1="55.6" x2="130.8" y1="340.4969" y2="340.4969"/><text fill="#000000" font-family="sans-serif" font-size="11.2" lengthAdjust="spacing" textLength="67.2" x="59.6" y="355.7828">+String name</text><line style="stroke:#181818;stroke-width:0.4000000000000001;" x1="55.6" x2="130.8" y1="361.7938" y2="361.7938"/></g><!--link RegisterJobUI to RegisterJobController--><g id="link_RegisterJobUI_RegisterJobController"><path codeLine="31" d="M271.448,361.1209 C258.704,379.4489 241.5735,404.0928 225.1415,427.7088 " fill="none" id="RegisterJobUI-to-RegisterJobController" style="stroke:#181818;stroke-width:0.8000000000000002;stroke-dasharray:7.0,7.0;"/><polygon fill="#181818" points="222.4,431.6489,229.139,427.5664,224.6846,428.3655,223.8855,423.9111,222.4,431.6489" style="stroke:#181818;stroke-width:0.8000000000000002;"/></g><!--link RegisterJobController to Repositories--><g id="link_RegisterJobController_Repositories"><path codeLine="32" d="M198.776,431.5209 C204.656,368.0809 210.096,243.1129 176.4,144.4969 C173.616,136.3449 172.0066,132.367 167.3666,124.839 " fill="none" id="RegisterJobController-to-Repositories" style="stroke:#181818;stroke-width:0.8000000000000002;stroke-dasharray:7.0,7.0;"/><polygon fill="#181818" points="164.848,120.7529,165.9017,128.5612,166.9468,124.158,171.35,125.2031,164.848,120.7529" style="stroke:#181818;stroke-width:0.8000000000000002;"/><text fill="#000000" font-family="sans-serif" font-size="10.4" lengthAdjust="spacing" textLength="57.6" x="202" y="287.7195">Repositories</text></g><!--link Repositories to RegisterJobRepository--><g id="link_Repositories_RegisterJobRepository"><path codeLine="33" d="M82.216,120.8009 C76.272,128.0489 71.08,136.0169 67.6,144.4969 C62.608,156.6649 62.1611,166.1693 64.3771,178.7773 " fill="none" id="Repositories-to-RegisterJobRepository" style="stroke:#181818;stroke-width:0.8000000000000002;stroke-dasharray:7.0,7.0;"/><polygon fill="#181818" points="65.208,183.5049,67.1133,175.8596,64.5156,179.5653,60.8099,176.9675,65.208,183.5049" style="stroke:#181818;stroke-width:0.8000000000000002;"/><text fill="#000000" font-family="sans-serif" font-size="10.4" lengthAdjust="spacing" textLength="104" x="68.4" y="156.5195">RegisterJobRepository</text></g><!--link RegisterJobRepository to job--><g id="link_RegisterJobRepository_job"><path codeLine="34" d="M80.408,251.9449 C83.256,271.7609 86.1328,291.7537 88.7728,310.1137 " fill="none" id="RegisterJobRepository-to-job" style="stroke:#181818;stroke-width:0.8000000000000002;stroke-dasharray:7.0,7.0;"/><polygon fill="#181818" points="89.456,314.8649,91.5987,307.2827,88.8867,310.9056,85.2638,308.1936,89.456,314.8649" style="stroke:#181818;stroke-width:0.8000000000000002;"/><text fill="#000000" font-family="sans-serif" font-size="10.4" lengthAdjust="spacing" textLength="13.6" x="86.8" y="287.7195">job</text></g><!--link job to RegisterJobController--><g id="link_job_RegisterJobController"><path codeLine="35" d="M92.392,368.5529 C93.112,381.1849 95.688,396.0889 102.8,407.6969 C108.888,417.6329 113.4736,423.3608 122.5296,431.0728 " fill="none" id="job-to-RegisterJobController" style="stroke:#181818;stroke-width:0.8000000000000002;stroke-dasharray:7.0,7.0;"/><polygon fill="#181818" points="126.184,434.1849,122.7771,427.0805,123.1386,431.5915,118.6276,431.953,126.184,434.1849" style="stroke:#181818;stroke-width:0.8000000000000002;"/><text fill="#000000" font-family="sans-serif" font-size="10.4" lengthAdjust="spacing" textLength="68.8" x="103.6" y="404.5195">will be inserted</text></g><!--SRC=[TL9DJyCm3BtxL_Yu2J5nBX8ISDeE79Zu0KvdTO4icHApQI3-EyxQZXH23rNwdli-t8eLn_ZCdKt24GbVWq6KBOcUs-0ScH19GaJFl4ae0RTqO83qPlsU8ksmTPJIlKYqvbrusGQ_jX-CDm1dHiNt8LcLi9pm4r2lZcKLp8KupUQt8svz4l8jZr3vTiQ-BgfzPDLv35wYHjNylVnLdPtD1xPZnKU3wpxCm-c9TcTNK8-_9YzB5QyoFpK6-u9BHRE9oLX3rpraNki2VOTU1x8DJBqNYxjwAQWlefyl5jzC7c72_H8l2ZLr7EhJMIV_Fqs-Gpxz6rjdZjOvD8pwnJaARxu1]--></g></svg>