<?xml version="1.0" encoding="us-ascii" standalone="no"?><svg xmlns="http://www.w3.org/2000/svg" xmlns:xlink="http://www.w3.org/1999/xlink" contentStyleType="text/css" height="800px" preserveAspectRatio="none" style="width:1134px;height:800px;background:#FFFFFF;" version="1.1" viewBox="0 0 1134 800" width="1134px" zoomAndPan="magnify"><defs/><g><rect fill="#FFFFFF" height="614.8984" style="stroke:#181818;stroke-width:1.0;" width="10" x="18" y="93.6211"/><rect fill="#FFFFFF" height="74.9121" style="stroke:#181818;stroke-width:1.0;" width="10" x="364" y="116.9121"/><rect fill="#FFFFFF" height="75.582" style="stroke:#181818;stroke-width:1.0;" width="10" x="364" y="223.1152"/><rect fill="#FFFFFF" height="369.5313" style="stroke:#181818;stroke-width:1.0;" width="10" x="364" y="329.9883"/><rect fill="#FFFFFF" height="306.9492" style="stroke:#181818;stroke-width:1.0;" width="10" x="556" y="361.2793"/><rect fill="#FFFFFF" height="31.291" style="stroke:#181818;stroke-width:1.0;" width="10" x="690" y="392.5703"/><rect fill="#FFFFFF" height="31.291" style="stroke:#181818;stroke-width:1.0;" width="10" x="795" y="455.1523"/><rect fill="#FFFFFF" height="119.2031" style="stroke:#181818;stroke-width:1.0;" width="10" x="932" y="517.7344"/><line style="stroke:#181818;stroke-width:0.5;stroke-dasharray:5.0,5.0;" x1="23" x2="23" y1="83.6211" y2="717.5195"/><line style="stroke:#181818;stroke-width:0.5;stroke-dasharray:5.0,5.0;" x1="368.5" x2="368.5" y1="83.6211" y2="717.5195"/><line style="stroke:#181818;stroke-width:0.5;stroke-dasharray:5.0,5.0;" x1="560.5" x2="560.5" y1="156.7227" y2="717.5195"/><line style="stroke:#181818;stroke-width:0.5;stroke-dasharray:5.0,5.0;" x1="694.5" x2="694.5" y1="83.6211" y2="717.5195"/><line style="stroke:#181818;stroke-width:0.5;stroke-dasharray:5.0,5.0;" x1="799.5" x2="799.5" y1="83.6211" y2="717.5195"/><line style="stroke:#181818;stroke-width:0.5;stroke-dasharray:5.0,5.0;" x1="936.5" x2="936.5" y1="83.6211" y2="717.5195"/><line style="stroke:#181818;stroke-width:0.5;stroke-dasharray:5.0,5.0;" x1="1110" x2="1110" y1="557.5449" y2="717.5195"/><text fill="#000000" font-family="sans-serif" font-size="14" lengthAdjust="spacing" textLength="30" x="5" y="80.1074">HRM</text><ellipse cx="23" cy="13.5" fill="#E3E3E3" rx="8" ry="8" style="stroke:#181818;stroke-width:0.5;"/><path d="M23,21.5 L23,48.5 M10,29.5 L36,29.5 M23,48.5 L10,63.5 M23,48.5 L36,63.5 " fill="none" style="stroke:#181818;stroke-width:0.5;"/><text fill="#000000" font-family="sans-serif" font-size="14" lengthAdjust="spacing" textLength="30" x="5" y="731.627">HRM</text><ellipse cx="23" cy="743.6406" fill="#E3E3E3" rx="8" ry="8" style="stroke:#181818;stroke-width:0.5;"/><path d="M23,751.6406 L23,778.6406 M10,759.6406 L36,759.6406 M23,778.6406 L10,793.6406 M23,778.6406 L36,793.6406 " fill="none" style="stroke:#181818;stroke-width:0.5;"/><rect fill="#E3E3E3" height="32.6211" rx="2.5" ry="2.5" style="stroke:#181818;stroke-width:0.5;" width="105" x="316.5" y="50"/><text fill="#000000" font-family="sans-serif" font-size="14" lengthAdjust="spacing" textLength="91" x="323.5" y="72.1074">:RegisterJobUI</text><rect fill="#E3E3E3" height="32.6211" rx="2.5" ry="2.5" style="stroke:#181818;stroke-width:0.5;" width="105" x="316.5" y="716.5195"/><text fill="#000000" font-family="sans-serif" font-size="14" lengthAdjust="spacing" textLength="91" x="323.5" y="738.627">:RegisterJobUI</text><rect fill="#E3E3E3" height="32.6211" rx="2.5" ry="2.5" style="stroke:#181818;stroke-width:0.5;" width="155" x="483.5" y="716.5195"/><text fill="#000000" font-family="sans-serif" font-size="14" lengthAdjust="spacing" textLength="141" x="490.5" y="738.627">:RegisterJobController</text><rect fill="#E3E3E3" height="32.6211" rx="2.5" ry="2.5" style="stroke:#181818;stroke-width:0.5;" width="93" x="648.5" y="50"/><text fill="#000000" font-family="sans-serif" font-size="14" lengthAdjust="spacing" textLength="79" x="655.5" y="72.1074">Repositories</text><rect fill="#E3E3E3" height="32.6211" rx="2.5" ry="2.5" style="stroke:#181818;stroke-width:0.5;" width="93" x="648.5" y="716.5195"/><text fill="#000000" font-family="sans-serif" font-size="14" lengthAdjust="spacing" textLength="79" x="655.5" y="738.627">Repositories</text><rect fill="#E3E3E3" height="51.2422" rx="2.5" ry="2.5" style="stroke:#181818;stroke-width:0.5;" width="97" x="751.5" y="31.3789"/><text fill="#000000" font-family="sans-serif" font-size="14" lengthAdjust="spacing" textLength="74" x="763" y="53.4863">repositories</text><text fill="#000000" font-family="sans-serif" font-size="14" lengthAdjust="spacing" textLength="83" x="758.5" y="72.1074">:Repositories</text><rect fill="#E3E3E3" height="51.2422" rx="2.5" ry="2.5" style="stroke:#181818;stroke-width:0.5;" width="97" x="751.5" y="716.5195"/><text fill="#000000" font-family="sans-serif" font-size="14" lengthAdjust="spacing" textLength="74" x="763" y="738.627">repositories</text><text fill="#000000" font-family="sans-serif" font-size="14" lengthAdjust="spacing" textLength="83" x="758.5" y="757.248">:Repositories</text><rect fill="#E3E3E3" height="32.6211" rx="2.5" ry="2.5" style="stroke:#181818;stroke-width:0.5;" width="157" x="858.5" y="50"/><text fill="#000000" font-family="sans-serif" font-size="14" lengthAdjust="spacing" textLength="143" x="865.5" y="72.1074">RegisterJobRepository</text><rect fill="#E3E3E3" height="32.6211" rx="2.5" ry="2.5" style="stroke:#181818;stroke-width:0.5;" width="157" x="858.5" y="716.5195"/><text fill="#000000" font-family="sans-serif" font-size="14" lengthAdjust="spacing" textLength="143" x="865.5" y="738.627">RegisterJobRepository</text><rect fill="#E3E3E3" height="32.6211" rx="2.5" ry="2.5" style="stroke:#181818;stroke-width:0.5;" width="36" x="1092" y="716.5195"/><text fill="#000000" font-family="sans-serif" font-size="14" lengthAdjust="spacing" textLength="22" x="1099" y="738.627">Job</text><rect fill="#FFFFFF" height="614.8984" style="stroke:#181818;stroke-width:1.0;" width="10" x="18" y="93.6211"/><rect fill="#FFFFFF" height="74.9121" style="stroke:#181818;stroke-width:1.0;" width="10" x="364" y="116.9121"/><rect fill="#FFFFFF" height="75.582" style="stroke:#181818;stroke-width:1.0;" width="10" x="364" y="223.1152"/><rect fill="#FFFFFF" height="369.5313" style="stroke:#181818;stroke-width:1.0;" width="10" x="364" y="329.9883"/><rect fill="#FFFFFF" height="306.9492" style="stroke:#181818;stroke-width:1.0;" width="10" x="556" y="361.2793"/><rect fill="#FFFFFF" height="31.291" style="stroke:#181818;stroke-width:1.0;" width="10" x="690" y="392.5703"/><rect fill="#FFFFFF" height="31.291" style="stroke:#181818;stroke-width:1.0;" width="10" x="795" y="455.1523"/><rect fill="#FFFFFF" height="119.2031" style="stroke:#181818;stroke-width:1.0;" width="10" x="932" y="517.7344"/><polygon fill="#181818" points="352,112.9121,362,116.9121,352,120.9121,356,116.9121" style="stroke:#181818;stroke-width:1.0;"/><line style="stroke:#181818;stroke-width:1.0;" x1="28" x2="358" y1="116.9121" y2="116.9121"/><text fill="#000000" font-family="sans-serif" font-size="13" font-weight="bold" lengthAdjust="spacing" textLength="7" x="35" y="111.6494">1</text><text fill="#000000" font-family="sans-serif" font-size="13" lengthAdjust="spacing" textLength="149" x="46" y="111.6494">Requeste to register a job</text><polygon fill="#181818" points="471.5,144.2031,481.5,148.2031,471.5,152.2031,475.5,148.2031" style="stroke:#181818;stroke-width:1.0;"/><line style="stroke:#181818;stroke-width:1.0;" x1="374" x2="477.5" y1="148.2031" y2="148.2031"/><text fill="#000000" font-family="sans-serif" font-size="13" font-weight="bold" lengthAdjust="spacing" textLength="7" x="381" y="142.9404">2</text><text fill="#000000" font-family="sans-serif" font-size="13" lengthAdjust="spacing" textLength="38" x="392" y="142.9404">Create</text><rect fill="#E3E3E3" height="32.6211" rx="2.5" ry="2.5" style="stroke:#181818;stroke-width:0.5;" width="155" x="483.5" y="124.9121"/><text fill="#000000" font-family="sans-serif" font-size="14" lengthAdjust="spacing" textLength="141" x="490.5" y="147.0195">:RegisterJobController</text><polygon fill="#181818" points="39,187.8242,29,191.8242,39,195.8242,35,191.8242" style="stroke:#181818;stroke-width:1.0;"/><line style="stroke:#181818;stroke-width:1.0;" x1="33" x2="368" y1="191.8242" y2="191.8242"/><text fill="#000000" font-family="sans-serif" font-size="13" font-weight="bold" lengthAdjust="spacing" textLength="7" x="45" y="186.5615">3</text><text fill="#000000" font-family="sans-serif" font-size="13" lengthAdjust="spacing" textLength="100" x="56" y="186.5615">requests job data</text><polygon fill="#181818" points="352,219.1152,362,223.1152,352,227.1152,356,223.1152" style="stroke:#181818;stroke-width:1.0;"/><line style="stroke:#181818;stroke-width:1.0;" x1="28" x2="358" y1="223.1152" y2="223.1152"/><text fill="#000000" font-family="sans-serif" font-size="13" font-weight="bold" lengthAdjust="spacing" textLength="7" x="35" y="217.8525">4</text><text fill="#000000" font-family="sans-serif" font-size="13" lengthAdjust="spacing" textLength="142" x="46" y="217.8525">Types job details (name)</text><line style="stroke:#181818;stroke-width:1.0;" x1="374" x2="416" y1="254.4063" y2="254.4063"/><line style="stroke:#181818;stroke-width:1.0;" x1="416" x2="416" y1="254.4063" y2="267.4063"/><line style="stroke:#181818;stroke-width:1.0;" x1="375" x2="416" y1="267.4063" y2="267.4063"/><polygon fill="#181818" points="385,263.4063,375,267.4063,385,271.4063,381,267.4063" style="stroke:#181818;stroke-width:1.0;"/><text fill="#000000" font-family="sans-serif" font-size="13" font-weight="bold" lengthAdjust="spacing" textLength="7" x="381" y="249.1436">5</text><text fill="#000000" font-family="sans-serif" font-size="13" lengthAdjust="spacing" textLength="157" x="392" y="249.1436">Keeps and stores that data</text><polygon fill="#181818" points="39,294.6973,29,298.6973,39,302.6973,35,298.6973" style="stroke:#181818;stroke-width:1.0;"/><line style="stroke:#181818;stroke-width:1.0;" x1="33" x2="368" y1="298.6973" y2="298.6973"/><text fill="#000000" font-family="sans-serif" font-size="13" font-weight="bold" lengthAdjust="spacing" textLength="7" x="45" y="293.4346">6</text><text fill="#000000" font-family="sans-serif" font-size="13" lengthAdjust="spacing" textLength="301" x="56" y="293.4346">Shows the thyped data and a comfirmation requests</text><polygon fill="#181818" points="352,325.9883,362,329.9883,352,333.9883,356,329.9883" style="stroke:#181818;stroke-width:1.0;"/><line style="stroke:#181818;stroke-width:1.0;" x1="28" x2="358" y1="329.9883" y2="329.9883"/><text fill="#000000" font-family="sans-serif" font-size="13" font-weight="bold" lengthAdjust="spacing" textLength="7" x="35" y="324.7256">7</text><text fill="#000000" font-family="sans-serif" font-size="13" lengthAdjust="spacing" textLength="102" x="46" y="324.7256">Confirms the data</text><polygon fill="#181818" points="544,357.2793,554,361.2793,544,365.2793,548,361.2793" style="stroke:#181818;stroke-width:1.0;"/><line style="stroke:#181818;stroke-width:1.0;" x1="374" x2="550" y1="361.2793" y2="361.2793"/><text fill="#000000" font-family="sans-serif" font-size="13" font-weight="bold" lengthAdjust="spacing" textLength="7" x="381" y="356.0166">8</text><text fill="#000000" font-family="sans-serif" font-size="13" lengthAdjust="spacing" textLength="73" x="392" y="356.0166">Registerjob()</text><polygon fill="#181818" points="678,388.5703,688,392.5703,678,396.5703,682,392.5703" style="stroke:#181818;stroke-width:1.0;"/><line style="stroke:#181818;stroke-width:1.0;" x1="566" x2="684" y1="392.5703" y2="392.5703"/><text fill="#000000" font-family="sans-serif" font-size="13" font-weight="bold" lengthAdjust="spacing" textLength="7" x="573" y="387.3076">9</text><text fill="#000000" font-family="sans-serif" font-size="13" lengthAdjust="spacing" textLength="75" x="584" y="387.3076">getinstance()</text><polygon fill="#181818" points="577,419.8613,567,423.8613,577,427.8613,573,423.8613" style="stroke:#181818;stroke-width:1.0;"/><line style="stroke:#181818;stroke-width:1.0;" x1="571" x2="694" y1="423.8613" y2="423.8613"/><text fill="#000000" font-family="sans-serif" font-size="13" font-weight="bold" lengthAdjust="spacing" textLength="14" x="583" y="418.5986">10</text><text fill="#000000" font-family="sans-serif" font-size="13" lengthAdjust="spacing" textLength="72" x="601" y="418.5986">Repositories</text><polygon fill="#181818" points="783,451.1523,793,455.1523,783,459.1523,787,455.1523" style="stroke:#181818;stroke-width:1.0;"/><line style="stroke:#181818;stroke-width:1.0;" x1="566" x2="789" y1="455.1523" y2="455.1523"/><text fill="#000000" font-family="sans-serif" font-size="13" font-weight="bold" lengthAdjust="spacing" textLength="14" x="573" y="449.8896">11</text><text fill="#000000" font-family="sans-serif" font-size="13" lengthAdjust="spacing" textLength="108" x="591" y="449.8896">getJobRepository()</text><polygon fill="#181818" points="577,482.4434,567,486.4434,577,490.4434,573,486.4434" style="stroke:#181818;stroke-width:1.0;"/><line style="stroke:#181818;stroke-width:1.0;" x1="571" x2="799" y1="486.4434" y2="486.4434"/><text fill="#000000" font-family="sans-serif" font-size="13" font-weight="bold" lengthAdjust="spacing" textLength="14" x="583" y="481.1807">12</text><text fill="#000000" font-family="sans-serif" font-size="13" lengthAdjust="spacing" textLength="82" x="601" y="481.1807">JobRepository</text><polygon fill="#181818" points="920,513.7344,930,517.7344,920,521.7344,924,517.7344" style="stroke:#181818;stroke-width:1.0;"/><line style="stroke:#181818;stroke-width:1.0;" x1="566" x2="926" y1="517.7344" y2="517.7344"/><text fill="#000000" font-family="sans-serif" font-size="13" font-weight="bold" lengthAdjust="spacing" textLength="14" x="573" y="512.4717">13</text><text fill="#000000" font-family="sans-serif" font-size="13" lengthAdjust="spacing" textLength="108" x="591" y="512.4717">RegisterJob(name)</text><polygon fill="#181818" points="1080,545.0254,1090,549.0254,1080,553.0254,1084,549.0254" style="stroke:#181818;stroke-width:1.0;"/><line style="stroke:#181818;stroke-width:1.0;" x1="942" x2="1086" y1="549.0254" y2="549.0254"/><text fill="#000000" font-family="sans-serif" font-size="13" font-weight="bold" lengthAdjust="spacing" textLength="14" x="949" y="543.7627">14</text><text fill="#000000" font-family="sans-serif" font-size="13" lengthAdjust="spacing" textLength="108" x="967" y="543.7627">RegisterJob(name)</text><rect fill="#E3E3E3" height="32.6211" rx="2.5" ry="2.5" style="stroke:#181818;stroke-width:0.5;" width="36" x="1092" y="525.7344"/><text fill="#000000" font-family="sans-serif" font-size="14" lengthAdjust="spacing" textLength="22" x="1099" y="547.8418">Job</text><line style="stroke:#181818;stroke-width:1.0;" x1="942" x2="984" y1="592.6465" y2="592.6465"/><line style="stroke:#181818;stroke-width:1.0;" x1="984" x2="984" y1="592.6465" y2="605.6465"/><line style="stroke:#181818;stroke-width:1.0;" x1="943" x2="984" y1="605.6465" y2="605.6465"/><polygon fill="#181818" points="953,601.6465,943,605.6465,953,609.6465,949,605.6465" style="stroke:#181818;stroke-width:1.0;"/><text fill="#000000" font-family="sans-serif" font-size="13" font-weight="bold" lengthAdjust="spacing" textLength="14" x="949" y="587.3838">15</text><text fill="#000000" font-family="sans-serif" font-size="13" lengthAdjust="spacing" textLength="49" x="967" y="587.3838">Save job</text><polygon fill="#181818" points="577,632.9375,567,636.9375,577,640.9375,573,636.9375" style="stroke:#181818;stroke-width:1.0;"/><line style="stroke:#181818;stroke-width:1.0;" x1="571" x2="936" y1="636.9375" y2="636.9375"/><text fill="#000000" font-family="sans-serif" font-size="13" font-weight="bold" lengthAdjust="spacing" textLength="14" x="583" y="631.6748">16</text><text fill="#000000" font-family="sans-serif" font-size="13" lengthAdjust="spacing" textLength="17" x="601" y="631.6748">job</text><polygon fill="#181818" points="385,664.2285,375,668.2285,385,672.2285,381,668.2285" style="stroke:#181818;stroke-width:1.0;"/><line style="stroke:#181818;stroke-width:1.0;" x1="379" x2="560" y1="668.2285" y2="668.2285"/><text fill="#000000" font-family="sans-serif" font-size="13" font-weight="bold" lengthAdjust="spacing" textLength="14" x="391" y="662.9658">17</text><text fill="#000000" font-family="sans-serif" font-size="13" lengthAdjust="spacing" textLength="17" x="409" y="662.9658">job</text><polygon fill="#181818" points="39,695.5195,29,699.5195,39,703.5195,35,699.5195" style="stroke:#181818;stroke-width:1.0;"/><line style="stroke:#181818;stroke-width:1.0;" x1="33" x2="368" y1="699.5195" y2="699.5195"/><text fill="#000000" font-family="sans-serif" font-size="13" font-weight="bold" lengthAdjust="spacing" textLength="14" x="45" y="694.2568">18</text><text fill="#000000" font-family="sans-serif" font-size="13" lengthAdjust="spacing" textLength="143" x="63" y="694.2568">Shows the registered job</text><!--SRC=[fLJ1Rjim3BthAuXSrXRO3-ImIp6WxR1BijvsOMp6LcjBdiIqoz-FbbrRIgoWxIuEJF8zFZthnJzhqw735bfhR54xsnAmEv3oKwV3uXahslAn8N1KC9ggYGTyZQLzrQQ2FJQUbC83MtDeT-IK-bBhac1lBU_iNuK5MmUhkytF5Q27n-ttZLB2mhhG7Hg6rNf3bVPCxi7k7k_3L5B9JzzQmyus3RbJrDn9qHlghDUYI9CVCNCX7NLHvxTPdo6bBxLJ-ad1D7yyrJPtKh2qmgZygjus_O9CWs7z0xv-Its1jRp_EP0KWAte6Ng0y2GC4q7gPSgGKiwctTm8-QqZmPyZWfYrx0kxVRyDIcHK9MMMvkJ_EdOquebHDnwk3BPq_HdnWV07KUS1JGbU_1Lkhf47SRbZR6lxsi-9XxN8ASDqe40eRBlNhaNMrapd_VWnnTUUPjWInFpNnmdVVQYBTLVBRaK1M2O9xFEL5jAAM1ilMIye9OqIaa0k2en0YM49MKRO4Ar1KXAOMDUOlt7sWfOqSf6OaU62FmkPZToN-eNx6krS9f8DKWXHEsVCGdAYjlX28VZlGIR-zA3bExryXAn9uRBdsPQlP2QCR_zc4iWyeqH6_GC0]--></g></svg>