<?xml version="1.0" encoding="us-ascii" standalone="no"?><svg xmlns="http://www.w3.org/2000/svg" xmlns:xlink="http://www.w3.org/1999/xlink" contentStyleType="text/css" height="433px" preserveAspectRatio="none" style="width:647px;height:433px;background:#FFFFFF;" version="1.1" viewBox="0 0 647 433" width="647px" zoomAndPan="magnify"><defs/><g><rect fill="#FFFFFF" height="247.3672" style="stroke:#181818;stroke-width:1.0;" width="10" x="33" y="93.6211"/><rect fill="#FFFFFF" height="74.9121" style="stroke:#181818;stroke-width:1.0;" width="10" x="368" y="143.2031"/><rect fill="#FFFFFF" height="75.582" style="stroke:#181818;stroke-width:1.0;" width="10" x="368" y="249.4063"/><rect fill="none" height="232.3672" style="stroke:#000000;stroke-width:1.5;" width="631.5" x="10" y="100.6211"/><line style="stroke:#181818;stroke-width:0.5;stroke-dasharray:5.0,5.0;" x1="38" x2="38" y1="83.6211" y2="349.9883"/><line style="stroke:#181818;stroke-width:0.5;stroke-dasharray:5.0,5.0;" x1="372.5" x2="372.5" y1="83.6211" y2="349.9883"/><line style="stroke:#181818;stroke-width:0.5;stroke-dasharray:5.0,5.0;" x1="553.5" x2="553.5" y1="183.0137" y2="349.9883"/><text fill="#000000" font-family="sans-serif" font-size="14" lengthAdjust="spacing" textLength="30" x="20" y="80.1074">HRM</text><ellipse cx="38" cy="13.5" fill="#E2E2F0" rx="8" ry="8" style="stroke:#181818;stroke-width:0.5;"/><path d="M38,21.5 L38,48.5 M25,29.5 L51,29.5 M38,48.5 L25,63.5 M38,48.5 L51,63.5 " fill="none" style="stroke:#181818;stroke-width:0.5;"/><text fill="#000000" font-family="sans-serif" font-size="14" lengthAdjust="spacing" textLength="30" x="20" y="364.0957">HRM</text><ellipse cx="38" cy="376.1094" fill="#E2E2F0" rx="8" ry="8" style="stroke:#181818;stroke-width:0.5;"/><path d="M38,384.1094 L38,411.1094 M25,392.1094 L51,392.1094 M38,411.1094 L25,426.1094 M38,411.1094 L51,426.1094 " fill="none" style="stroke:#181818;stroke-width:0.5;"/><rect fill="#E2E2F0" height="32.6211" rx="2.5" ry="2.5" style="stroke:#181818;stroke-width:0.5;" width="105" x="320.5" y="50"/><text fill="#000000" font-family="sans-serif" font-size="14" lengthAdjust="spacing" textLength="91" x="327.5" y="72.1074">:RegisterJobUI</text><rect fill="#E2E2F0" height="32.6211" rx="2.5" ry="2.5" style="stroke:#181818;stroke-width:0.5;" width="105" x="320.5" y="348.9883"/><text fill="#000000" font-family="sans-serif" font-size="14" lengthAdjust="spacing" textLength="91" x="327.5" y="371.0957">:RegisterJobUI</text><rect fill="#E2E2F0" height="32.6211" rx="2.5" ry="2.5" style="stroke:#181818;stroke-width:0.5;" width="155" x="476.5" y="348.9883"/><text fill="#000000" font-family="sans-serif" font-size="14" lengthAdjust="spacing" textLength="141" x="483.5" y="371.0957">:RegisterJobController</text><rect fill="#FFFFFF" height="247.3672" style="stroke:#181818;stroke-width:1.0;" width="10" x="33" y="93.6211"/><rect fill="#FFFFFF" height="74.9121" style="stroke:#181818;stroke-width:1.0;" width="10" x="368" y="143.2031"/><rect fill="#FFFFFF" height="75.582" style="stroke:#181818;stroke-width:1.0;" width="10" x="368" y="249.4063"/><path d="M10,100.6211 L143,100.6211 L143,109.9121 L133,119.9121 L10,119.9121 L10,100.6211 " fill="#EEEEEE" style="stroke:#000000;stroke-width:1.5;"/><rect fill="none" height="232.3672" style="stroke:#000000;stroke-width:1.5;" width="631.5" x="10" y="100.6211"/><text fill="#000000" font-family="sans-serif" font-size="13" font-weight="bold" lengthAdjust="spacing" textLength="88" x="25" y="115.6494">Register a job</text><polygon fill="#181818" points="356,139.2031,366,143.2031,356,147.2031,360,143.2031" style="stroke:#181818;stroke-width:1.0;"/><line style="stroke:#181818;stroke-width:1.0;" x1="43" x2="362" y1="143.2031" y2="143.2031"/><text fill="#000000" font-family="sans-serif" font-size="13" lengthAdjust="spacing" textLength="149" x="50" y="137.9404">Requeste to register a job</text><polygon fill="#181818" points="464.5,170.4941,474.5,174.4941,464.5,178.4941,468.5,174.4941" style="stroke:#181818;stroke-width:1.0;"/><line style="stroke:#181818;stroke-width:1.0;" x1="378" x2="470.5" y1="174.4941" y2="174.4941"/><text fill="#000000" font-family="sans-serif" font-size="13" lengthAdjust="spacing" textLength="38" x="385" y="169.2314">Create</text><rect fill="#E2E2F0" height="32.6211" rx="2.5" ry="2.5" style="stroke:#181818;stroke-width:0.5;" width="155" x="476.5" y="151.2031"/><text fill="#000000" font-family="sans-serif" font-size="14" lengthAdjust="spacing" textLength="141" x="483.5" y="173.3105">:RegisterJobController</text><polygon fill="#181818" points="54,214.1152,44,218.1152,54,222.1152,50,218.1152" style="stroke:#181818;stroke-width:1.0;"/><line style="stroke:#181818;stroke-width:1.0;" x1="48" x2="372" y1="218.1152" y2="218.1152"/><text fill="#000000" font-family="sans-serif" font-size="13" lengthAdjust="spacing" textLength="100" x="60" y="212.8525">requests job data</text><polygon fill="#181818" points="356,245.4063,366,249.4063,356,253.4063,360,249.4063" style="stroke:#181818;stroke-width:1.0;"/><line style="stroke:#181818;stroke-width:1.0;" x1="43" x2="362" y1="249.4063" y2="249.4063"/><text fill="#000000" font-family="sans-serif" font-size="13" lengthAdjust="spacing" textLength="142" x="50" y="244.1436">Types job details (name)</text><line style="stroke:#181818;stroke-width:1.0;" x1="378" x2="420" y1="280.6973" y2="280.6973"/><line style="stroke:#181818;stroke-width:1.0;" x1="420" x2="420" y1="280.6973" y2="293.6973"/><line style="stroke:#181818;stroke-width:1.0;" x1="379" x2="420" y1="293.6973" y2="293.6973"/><polygon fill="#181818" points="389,289.6973,379,293.6973,389,297.6973,385,293.6973" style="stroke:#181818;stroke-width:1.0;"/><text fill="#000000" font-family="sans-serif" font-size="13" lengthAdjust="spacing" textLength="157" x="385" y="275.4346">Keeps and stores that data</text><polygon fill="#181818" points="54,320.9883,44,324.9883,54,328.9883,50,324.9883" style="stroke:#181818;stroke-width:1.0;"/><line style="stroke:#181818;stroke-width:1.0;" x1="48" x2="372" y1="324.9883" y2="324.9883"/><text fill="#000000" font-family="sans-serif" font-size="13" lengthAdjust="spacing" textLength="301" x="60" y="319.7256">Shows the thyped data and a comfirmation requests</text><!--SRC=[dP51RW8n34NtEOKrguBK2yoY6uJKKdKpb0EOYSi4pSHfObhrzdW20gLLDjr4Yltz_tE2lN24vhbxQm0JxBRhpfY0KLpl0dg1fkteu99GtF1-zv9LHQMkNh6NoED8yVVKlMFC8V8ft9g0SEIzmLxS5mfTWEO37f_AN6Zr_daYBO0mn8f1oLewb9PtgELIpLUHTFxlH8PfDIzdfpaDB0eQIvNG6lxxJw3hF0cwCS63nuaM_u7FXgz48G5w2qb_LRrbGBd0rTRO3lmzw_GD1yMnMPqj47gUFboSK1pxsxxrDSbROyu0]--></g></svg>