<?xml version="1.0" encoding="us-ascii" standalone="no"?><svg xmlns="http://www.w3.org/2000/svg" xmlns:xlink="http://www.w3.org/1999/xlink" contentStyleType="text/css" height="351px" preserveAspectRatio="none" style="width:516px;height:351px;background:#FFFFFF;" version="1.1" viewBox="0 0 516 351" width="516px" zoomAndPan="magnify"><defs/><g><rect fill="#FFFFFF" height="229.8633" style="stroke:#181818;stroke-width:1.0;" width="10" x="292" y="67.7988"/><rect fill="#FFFFFF" height="124.9316" style="stroke:#181818;stroke-width:1.0;" width="10" x="297" y="129.4199"/><rect fill="#FFFFFF" height="40.3105" style="stroke:#181818;stroke-width:1.0;" width="10" x="302" y="171.7305"/><rect fill="none" height="186.5527" style="stroke:#000000;stroke-width:1.5;" width="325.5" x="184.5" y="82.7988"/><line style="stroke:#181818;stroke-width:0.5;stroke-dasharray:5.0,5.0;" x1="296.5" x2="296.5" y1="36.4883" y2="315.6621"/><rect fill="#E3E3E3" height="30.4883" rx="2.5" ry="2.5" style="stroke:#181818;stroke-width:0.5;" width="205" x="194.5" y="5"/><text fill="#000000" font-family="sans-serif" font-size="14" lengthAdjust="spacing" textLength="191" x="201.5" y="25.5352">:RegisterCheckUpController</text><rect fill="#E3E3E3" height="30.4883" rx="2.5" ry="2.5" style="stroke:#181818;stroke-width:0.5;" width="205" x="194.5" y="314.6621"/><text fill="#000000" font-family="sans-serif" font-size="14" lengthAdjust="spacing" textLength="191" x="201.5" y="335.1973">:RegisterCheckUpController</text><rect fill="#FFFFFF" height="229.8633" style="stroke:#181818;stroke-width:1.0;" width="10" x="292" y="67.7988"/><rect fill="#FFFFFF" height="124.9316" style="stroke:#181818;stroke-width:1.0;" width="10" x="297" y="129.4199"/><rect fill="#FFFFFF" height="40.3105" style="stroke:#181818;stroke-width:1.0;" width="10" x="302" y="171.7305"/><polygon fill="#181818" points="280,63.7988,290,67.7988,280,71.7988,284,67.7988" style="stroke:#181818;stroke-width:1.0;"/><line style="stroke:#181818;stroke-width:1.0;" x1="0" x2="286" y1="67.7988" y2="67.7988"/><text fill="#000000" font-family="sans-serif" font-size="13" font-weight="bold" lengthAdjust="spacing" textLength="9" x="7" y="63.0566">1</text><text fill="#000000" font-family="sans-serif" font-size="13" lengthAdjust="spacing" textLength="260" x="20" y="63.0566">registerCheckUp (vehiclePlate, date, kms)</text><path d="M184.5,82.7988 L354.5,82.7988 L354.5,90.1094 L344.5,100.1094 L184.5,100.1094 L184.5,82.7988 " fill="#EEEEEE" style="stroke:#000000;stroke-width:1.5;"/><rect fill="none" height="186.5527" style="stroke:#000000;stroke-width:1.5;" width="325.5" x="184.5" y="82.7988"/><text fill="#000000" font-family="sans-serif" font-size="13" font-weight="bold" lengthAdjust="spacing" textLength="125" x="199.5" y="96.3672">Schedule CheckUp</text><line style="stroke:#181818;stroke-width:1.0;" x1="302" x2="349" y1="116.4199" y2="116.4199"/><line style="stroke:#181818;stroke-width:1.0;" x1="349" x2="349" y1="116.4199" y2="129.4199"/><line style="stroke:#181818;stroke-width:1.0;" x1="308" x2="349" y1="129.4199" y2="129.4199"/><polygon fill="#181818" points="318,125.4199,308,129.4199,318,133.4199,314,129.4199" style="stroke:#181818;stroke-width:1.0;"/><text fill="#000000" font-family="sans-serif" font-size="13" font-weight="bold" lengthAdjust="spacing" textLength="9" x="314" y="111.6777">2</text><text fill="#000000" font-family="sans-serif" font-size="13" lengthAdjust="spacing" textLength="140" x="327" y="111.6777">addCheckUp(checkup)</text><line style="stroke:#181818;stroke-width:1.0;" x1="307" x2="354" y1="158.7305" y2="158.7305"/><line style="stroke:#181818;stroke-width:1.0;" x1="354" x2="354" y1="158.7305" y2="171.7305"/><line style="stroke:#181818;stroke-width:1.0;" x1="313" x2="354" y1="171.7305" y2="171.7305"/><polygon fill="#181818" points="323,167.7305,313,171.7305,323,175.7305,319,171.7305" style="stroke:#181818;stroke-width:1.0;"/><text fill="#000000" font-family="sans-serif" font-size="13" font-weight="bold" lengthAdjust="spacing" textLength="9" x="319" y="153.9883">3</text><text fill="#000000" font-family="sans-serif" font-size="13" lengthAdjust="spacing" textLength="166" x="332" y="153.9883">validateCheckUp(checkup)</text><line style="stroke:#181818;stroke-width:1.0;stroke-dasharray:2.0,2.0;" x1="312" x2="354" y1="211.041" y2="211.041"/><line style="stroke:#181818;stroke-width:1.0;stroke-dasharray:2.0,2.0;" x1="354" x2="354" y1="211.041" y2="224.041"/><line style="stroke:#181818;stroke-width:1.0;stroke-dasharray:2.0,2.0;" x1="307" x2="354" y1="224.041" y2="224.041"/><polygon fill="#181818" points="317,220.041,307,224.041,317,228.041,313,224.041" style="stroke:#181818;stroke-width:1.0;"/><text fill="#000000" font-family="sans-serif" font-size="13" font-weight="bold" lengthAdjust="spacing" textLength="9" x="319" y="206.2988">4</text><text fill="#000000" font-family="sans-serif" font-size="13" lengthAdjust="spacing" textLength="4" x="332" y="206.2988">&#160;</text><line style="stroke:#181818;stroke-width:1.0;stroke-dasharray:2.0,2.0;" x1="307" x2="349" y1="253.3516" y2="253.3516"/><line style="stroke:#181818;stroke-width:1.0;stroke-dasharray:2.0,2.0;" x1="349" x2="349" y1="253.3516" y2="266.3516"/><line style="stroke:#181818;stroke-width:1.0;stroke-dasharray:2.0,2.0;" x1="302" x2="349" y1="266.3516" y2="266.3516"/><polygon fill="#181818" points="312,262.3516,302,266.3516,312,270.3516,308,266.3516" style="stroke:#181818;stroke-width:1.0;"/><text fill="#000000" font-family="sans-serif" font-size="13" font-weight="bold" lengthAdjust="spacing" textLength="9" x="314" y="248.6094">5</text><text fill="#000000" font-family="sans-serif" font-size="13" lengthAdjust="spacing" textLength="4" x="327" y="248.6094">&#160;</text><polygon fill="#181818" points="11,293.6621,1,297.6621,11,301.6621,7,297.6621" style="stroke:#181818;stroke-width:1.0;"/><line style="stroke:#181818;stroke-width:1.0;stroke-dasharray:2.0,2.0;" x1="5" x2="296" y1="297.6621" y2="297.6621"/><text fill="#000000" font-family="sans-serif" font-size="13" font-weight="bold" lengthAdjust="spacing" textLength="9" x="17" y="292.9199">6</text><text fill="#000000" font-family="sans-serif" font-size="13" lengthAdjust="spacing" textLength="56" x="30" y="292.9199">CheckUp</text><!--SRC=[tPDBJiCm48RtFiMe6rg9N212RB9bWTfoWAazZQtu9Jy2t9uafD0aKWKIsV0lRCap_cU-aIOsodeCQC0uwxWCpX2aa8d5huX7tc1DX_Ik2GBnXBRMrmbHed2lojPmHXs9CSp9sMnE51YxaqeGd9rB9_V6kWz9SUNH9jYKUwfLJ1GgIRnvyPMpAJYjAMm08rJ7_HCR17CLZqCKogwVYGLiMvAAQthMcEWUn70s9kwM9jT2dbJRvNuMxL_guBA70vSaSiSz-hFRDZCDFOwzbe12Z2vRtj_PxtvdzmCjEVvOKwGMjUf7lE1QeVBgQDzu8zyQHGHDETX_W5YX15ancyr3KLoM_hACDmVRwmC0]--></g></svg>