<?xml version="1.0" encoding="us-ascii" standalone="no"?><svg xmlns="http://www.w3.org/2000/svg" xmlns:xlink="http://www.w3.org/1999/xlink" contentStyleType="text/css" height="1129px" preserveAspectRatio="none" style="width:1066px;height:1129px;background:#FFFFFF;" version="1.1" viewBox="0 0 1066 1129" width="1066px" zoomAndPan="magnify"><defs/><g><text fill="#000000" font-family="sans-serif" font-size="14" font-weight="bold" lengthAdjust="spacing" textLength="299" x="376.5" y="23.5352">US029 - Record the completion of a task.</text><!--class CompleteTaskUI--><g id="elem_CompleteTaskUI"><rect codeLine="14" fill="#F1F1F1" height="48" id="CompleteTaskUI" rx="2.5" ry="2.5" style="stroke:#181818;stroke-width:0.5;" width="144" x="414" y="44.4883"/><ellipse cx="429" cy="60.4883" fill="#ADD1B2" rx="11" ry="11" style="stroke:#181818;stroke-width:1.0;"/><path d="M431.9731,66.1313 Q431.3921,66.4302 430.7529,66.5796 Q430.1138,66.729 429.4082,66.729 Q426.9014,66.729 425.5815,65.0771 Q424.2617,63.4253 424.2617,60.3042 Q424.2617,57.1748 425.5815,55.5229 Q426.9014,53.8711 429.4082,53.8711 Q430.1138,53.8711 430.7612,54.0205 Q431.4087,54.1699 431.9731,54.4688 L431.9731,57.1914 Q431.3423,56.6104 430.7488,56.3406 Q430.1553,56.0708 429.5244,56.0708 Q428.1797,56.0708 427.4949,57.1375 Q426.8101,58.2041 426.8101,60.3042 Q426.8101,62.396 427.4949,63.4626 Q428.1797,64.5293 429.5244,64.5293 Q430.1553,64.5293 430.7488,64.2595 Q431.3423,63.9897 431.9731,63.4087 Z " fill="#000000"/><text fill="#000000" font-family="sans-serif" font-size="14" lengthAdjust="spacing" textLength="112" x="443" y="65.7793">CompleteTaskUI</text><line style="stroke:#181818;stroke-width:0.5;" x1="415" x2="557" y1="76.4883" y2="76.4883"/><line style="stroke:#181818;stroke-width:0.5;" x1="415" x2="557" y1="84.4883" y2="84.4883"/></g><!--class CompleteTaskController--><g id="elem_CompleteTaskController"><rect codeLine="17" fill="#F1F1F1" height="130.4414" id="CompleteTaskController" rx="2.5" ry="2.5" style="stroke:#181818;stroke-width:0.5;" width="460" x="256" y="152.4883"/><ellipse cx="397.75" cy="168.4883" fill="#ADD1B2" rx="11" ry="11" style="stroke:#181818;stroke-width:1.0;"/><path d="M400.7231,174.1313 Q400.1421,174.4302 399.5029,174.5796 Q398.8638,174.729 398.1582,174.729 Q395.6514,174.729 394.3315,173.0771 Q393.0117,171.4253 393.0117,168.3042 Q393.0117,165.1748 394.3315,163.5229 Q395.6514,161.8711 398.1582,161.8711 Q398.8638,161.8711 399.5112,162.0205 Q400.1587,162.1699 400.7231,162.4688 L400.7231,165.1914 Q400.0923,164.6104 399.4988,164.3406 Q398.9053,164.0708 398.2744,164.0708 Q396.9297,164.0708 396.2449,165.1375 Q395.5601,166.2041 395.5601,168.3042 Q395.5601,170.396 396.2449,171.4626 Q396.9297,172.5293 398.2744,172.5293 Q398.9053,172.5293 399.4988,172.2595 Q400.0923,171.9897 400.7231,171.4087 Z " fill="#000000"/><text fill="#000000" font-family="sans-serif" font-size="14" lengthAdjust="spacing" textLength="168" x="418.25" y="173.7793">CompleteTaskController</text><line style="stroke:#181818;stroke-width:0.5;" x1="257" x2="715" y1="184.4883" y2="184.4883"/><line style="stroke:#181818;stroke-width:0.5;" x1="257" x2="715" y1="192.4883" y2="192.4883"/><text fill="#000000" font-family="sans-serif" font-size="14" lengthAdjust="spacing" textLength="448" x="262" y="210.0234">+completeTaskController(taskRepository, greenSpaceRepository)</text><text fill="#000000" font-family="sans-serif" font-size="14" lengthAdjust="spacing" textLength="131" x="262" y="226.5117">+getGreenSpaces()</text><text fill="#000000" font-family="sans-serif" font-size="14" lengthAdjust="spacing" textLength="291" x="262" y="243">+List&lt;GreenSpaceDTO&gt; getGreenSpaces()</text><text fill="#000000" font-family="sans-serif" font-size="14" lengthAdjust="spacing" textLength="399" x="262" y="259.4883">+List&lt;TaskDTO&gt; getTasksByGreenSpace(greenSpaceDTO)</text><text fill="#000000" font-family="sans-serif" font-size="14" lengthAdjust="spacing" textLength="252" x="262" y="275.9766">+completeTask(taskDTO, newStatus)</text></g><!--class Repositories--><g id="elem_Repositories"><rect codeLine="26" fill="#F1F1F1" height="113.9531" id="Repositories" rx="2.5" ry="2.5" style="stroke:#181818;stroke-width:0.5;" width="209" x="381.5" y="421.9383"/><ellipse cx="439.25" cy="437.9383" fill="#ADD1B2" rx="11" ry="11" style="stroke:#181818;stroke-width:1.0;"/><path d="M442.2231,443.5813 Q441.6421,443.8802 441.0029,444.0296 Q440.3638,444.179 439.6582,444.179 Q437.1514,444.179 435.8315,442.5271 Q434.5117,440.8753 434.5117,437.7542 Q434.5117,434.6248 435.8315,432.9729 Q437.1514,431.3211 439.6582,431.3211 Q440.3638,431.3211 441.0112,431.4705 Q441.6587,431.6199 442.2231,431.9187 L442.2231,434.6414 Q441.5923,434.0604 440.9988,433.7906 Q440.4053,433.5208 439.7744,433.5208 Q438.4297,433.5208 437.7449,434.5875 Q437.0601,435.6541 437.0601,437.7542 Q437.0601,439.846 437.7449,440.9126 Q438.4297,441.9793 439.7744,441.9793 Q440.4053,441.9793 440.9988,441.7095 Q441.5923,441.4397 442.2231,440.8587 Z " fill="#000000"/><text fill="#000000" font-family="sans-serif" font-size="14" lengthAdjust="spacing" textLength="85" x="459.75" y="443.2293">Repositories</text><line style="stroke:#181818;stroke-width:0.5;" x1="382.5" x2="589.5" y1="453.9383" y2="453.9383"/><line style="stroke:#181818;stroke-width:0.5;" x1="382.5" x2="589.5" y1="461.9383" y2="461.9383"/><text fill="#000000" font-family="sans-serif" font-size="14" lengthAdjust="spacing" textLength="103" x="387.5" y="479.4734">-Repositories()</text><text fill="#000000" font-family="sans-serif" font-size="14" lengthAdjust="spacing" textLength="197" x="387.5" y="495.9617">+getInstance() : Repositories</text><text fill="#000000" font-family="sans-serif" font-size="14" lengthAdjust="spacing" textLength="197" x="387.5" y="512.45">+getGreenSpaceRepository()</text><text fill="#000000" font-family="sans-serif" font-size="14" lengthAdjust="spacing" textLength="148" x="387.5" y="528.9383">+getTaskRepository()</text></g><!--class TaskRepository--><g id="elem_TaskRepository"><rect codeLine="33" fill="#F1F1F1" height="97.4648" id="TaskRepository" rx="2.5" ry="2.5" style="stroke:#181818;stroke-width:0.5;" width="270" x="182" y="674.8883"/><ellipse cx="260.25" cy="690.8883" fill="#ADD1B2" rx="11" ry="11" style="stroke:#181818;stroke-width:1.0;"/><path d="M263.2231,696.5313 Q262.6421,696.8302 262.0029,696.9796 Q261.3638,697.129 260.6582,697.129 Q258.1514,697.129 256.8315,695.4771 Q255.5117,693.8253 255.5117,690.7042 Q255.5117,687.5748 256.8315,685.9229 Q258.1514,684.2711 260.6582,684.2711 Q261.3638,684.2711 262.0112,684.4205 Q262.6587,684.5699 263.2231,684.8688 L263.2231,687.5914 Q262.5923,687.0104 261.9988,686.7406 Q261.4053,686.4708 260.7744,686.4708 Q259.4297,686.4708 258.7449,687.5375 Q258.0601,688.6041 258.0601,690.7042 Q258.0601,692.796 258.7449,693.8626 Q259.4297,694.9293 260.7744,694.9293 Q261.4053,694.9293 261.9988,694.6595 Q262.5923,694.3897 263.2231,693.8087 Z " fill="#000000"/><text fill="#000000" font-family="sans-serif" font-size="14" lengthAdjust="spacing" textLength="105" x="280.75" y="696.1793">TaskRepository</text><line style="stroke:#181818;stroke-width:0.5;" x1="183" x2="451" y1="706.8883" y2="706.8883"/><line style="stroke:#181818;stroke-width:0.5;" x1="183" x2="451" y1="714.8883" y2="714.8883"/><text fill="#000000" font-family="sans-serif" font-size="14" lengthAdjust="spacing" textLength="258" x="188" y="732.4234">+getTasksByGreenSpace(greenSpace)</text><text fill="#000000" font-family="sans-serif" font-size="14" lengthAdjust="spacing" textLength="100" x="188" y="748.9117">+toDTO(tasks)</text><text fill="#000000" font-family="sans-serif" font-size="14" lengthAdjust="spacing" textLength="252" x="188" y="765.4">+completeTask(taskDTO, newStatus)</text></g><!--class GreenSpaceRepository--><g id="elem_GreenSpaceRepository"><rect codeLine="39" fill="#F1F1F1" height="80.9766" id="GreenSpaceRepository" rx="2.5" ry="2.5" style="stroke:#181818;stroke-width:0.5;" width="273" x="591.5" y="683.1283"/><ellipse cx="646.75" cy="699.1283" fill="#ADD1B2" rx="11" ry="11" style="stroke:#181818;stroke-width:1.0;"/><path d="M649.7231,704.7713 Q649.1421,705.0702 648.5029,705.2196 Q647.8638,705.369 647.1582,705.369 Q644.6514,705.369 643.3315,703.7171 Q642.0117,702.0653 642.0117,698.9442 Q642.0117,695.8148 643.3315,694.1629 Q644.6514,692.5111 647.1582,692.5111 Q647.8638,692.5111 648.5112,692.6605 Q649.1587,692.8099 649.7231,693.1088 L649.7231,695.8314 Q649.0923,695.2504 648.4988,694.9806 Q647.9053,694.7108 647.2744,694.7108 Q645.9297,694.7108 645.2449,695.7775 Q644.5601,696.8441 644.5601,698.9442 Q644.5601,701.036 645.2449,702.1026 Q645.9297,703.1693 647.2744,703.1693 Q647.9053,703.1693 648.4988,702.8995 Q649.0923,702.6297 649.7231,702.0487 Z " fill="#000000"/><text fill="#000000" font-family="sans-serif" font-size="14" lengthAdjust="spacing" textLength="154" x="667.25" y="704.4193">GreenSpaceRepository</text><line style="stroke:#181818;stroke-width:0.5;" x1="592.5" x2="863.5" y1="715.1283" y2="715.1283"/><line style="stroke:#181818;stroke-width:0.5;" x1="592.5" x2="863.5" y1="723.1283" y2="723.1283"/><text fill="#000000" font-family="sans-serif" font-size="14" lengthAdjust="spacing" textLength="261" x="597.5" y="740.6634">+List&lt;GreenSpace&gt; getGreenSpaces()</text><text fill="#000000" font-family="sans-serif" font-size="14" lengthAdjust="spacing" textLength="152" x="597.5" y="757.1517">+toDTO(greenSpaces)</text></g><!--class GreenSpaceMapper--><g id="elem_GreenSpaceMapper"><rect codeLine="45" fill="#F1F1F1" height="80.9766" id="GreenSpaceMapper" rx="2.5" ry="2.5" style="stroke:#181818;stroke-width:0.5;" width="454" x="484" y="833.3483"/><ellipse cx="640.25" cy="849.3483" fill="#ADD1B2" rx="11" ry="11" style="stroke:#181818;stroke-width:1.0;"/><path d="M643.2231,854.9913 Q642.6421,855.2902 642.0029,855.4396 Q641.3638,855.589 640.6582,855.589 Q638.1514,855.589 636.8315,853.9371 Q635.5117,852.2853 635.5117,849.1642 Q635.5117,846.0348 636.8315,844.3829 Q638.1514,842.7311 640.6582,842.7311 Q641.3638,842.7311 642.0112,842.8805 Q642.6587,843.0299 643.2231,843.3287 L643.2231,846.0514 Q642.5923,845.4704 641.9988,845.2006 Q641.4053,844.9308 640.7744,844.9308 Q639.4297,844.9308 638.7449,845.9975 Q638.0601,847.0641 638.0601,849.1642 Q638.0601,851.256 638.7449,852.3226 Q639.4297,853.3893 640.7744,853.3893 Q641.4053,853.3893 641.9988,853.1195 Q642.5923,852.8497 643.2231,852.2687 Z " fill="#000000"/><text fill="#000000" font-family="sans-serif" font-size="14" lengthAdjust="spacing" textLength="133" x="660.75" y="854.6393">GreenSpaceMapper</text><line style="stroke:#181818;stroke-width:0.5;" x1="485" x2="937" y1="865.3483" y2="865.3483"/><line style="stroke:#181818;stroke-width:0.5;" x1="485" x2="937" y1="873.3483" y2="873.3483"/><text fill="#000000" font-family="sans-serif" font-size="14" lengthAdjust="spacing" textLength="442" x="490" y="890.8834">+List&lt;GreenSpaceDTO&gt; toDTO(List&lt;GreenSpace&gt; greenSpaces)</text><text fill="#000000" font-family="sans-serif" font-size="14" lengthAdjust="spacing" textLength="345" x="490" y="907.3717">+GreenSpaceDTO toDTO(GreenSpace greenSpace)</text></g><!--class TaskMapper--><g id="elem_TaskMapper"><rect codeLine="50" fill="#F1F1F1" height="80.9766" id="TaskMapper" rx="2.5" ry="2.5" style="stroke:#181818;stroke-width:0.5;" width="304" x="7" y="833.3483"/><ellipse cx="112.75" cy="849.3483" fill="#ADD1B2" rx="11" ry="11" style="stroke:#181818;stroke-width:1.0;"/><path d="M115.7231,854.9913 Q115.1421,855.2902 114.5029,855.4396 Q113.8638,855.589 113.1582,855.589 Q110.6514,855.589 109.3315,853.9371 Q108.0117,852.2853 108.0117,849.1642 Q108.0117,846.0348 109.3315,844.3829 Q110.6514,842.7311 113.1582,842.7311 Q113.8638,842.7311 114.5112,842.8805 Q115.1587,843.0299 115.7231,843.3287 L115.7231,846.0514 Q115.0923,845.4704 114.4988,845.2006 Q113.9053,844.9308 113.2744,844.9308 Q111.9297,844.9308 111.2449,845.9975 Q110.5601,847.0641 110.5601,849.1642 Q110.5601,851.256 111.2449,852.3226 Q111.9297,853.3893 113.2744,853.3893 Q113.9053,853.3893 114.4988,853.1195 Q115.0923,852.8497 115.7231,852.2687 Z " fill="#000000"/><text fill="#000000" font-family="sans-serif" font-size="14" lengthAdjust="spacing" textLength="84" x="133.25" y="854.6393">TaskMapper</text><line style="stroke:#181818;stroke-width:0.5;" x1="8" x2="310" y1="865.3483" y2="865.3483"/><line style="stroke:#181818;stroke-width:0.5;" x1="8" x2="310" y1="873.3483" y2="873.3483"/><text fill="#000000" font-family="sans-serif" font-size="14" lengthAdjust="spacing" textLength="292" x="13" y="890.8834">+List&lt;TaskDTO&gt; toDTO(List&lt;Task&gt; tasks)</text><text fill="#000000" font-family="sans-serif" font-size="14" lengthAdjust="spacing" textLength="195" x="13" y="907.3717">+TaskDTO toDTO(Task task)</text></g><!--class GreenSpaceDTO--><g id="elem_GreenSpaceDTO"><rect codeLine="55" fill="#F1F1F1" height="113.9531" id="GreenSpaceDTO" rx="2.5" ry="2.5" style="stroke:#181818;stroke-width:0.5;" width="143" x="639.5" y="991.8183"/><ellipse cx="654.5" cy="1007.8183" fill="#ADD1B2" rx="11" ry="11" style="stroke:#181818;stroke-width:1.0;"/><path d="M657.4731,1013.4613 Q656.8921,1013.7602 656.2529,1013.9096 Q655.6138,1014.059 654.9082,1014.059 Q652.4014,1014.059 651.0815,1012.4071 Q649.7617,1010.7553 649.7617,1007.6342 Q649.7617,1004.5048 651.0815,1002.8529 Q652.4014,1001.2011 654.9082,1001.2011 Q655.6138,1001.2011 656.2612,1001.3505 Q656.9087,1001.4999 657.4731,1001.7987 L657.4731,1004.5214 Q656.8423,1003.9404 656.2488,1003.6706 Q655.6553,1003.4008 655.0244,1003.4008 Q653.6797,1003.4008 652.9949,1004.4675 Q652.3101,1005.5341 652.3101,1007.6342 Q652.3101,1009.726 652.9949,1010.7926 Q653.6797,1011.8593 655.0244,1011.8593 Q655.6553,1011.8593 656.2488,1011.5895 Q656.8423,1011.3197 657.4731,1010.7387 Z " fill="#000000"/><text fill="#000000" font-family="sans-serif" font-size="14" lengthAdjust="spacing" textLength="111" x="668.5" y="1013.1093">GreenSpaceDTO</text><line style="stroke:#181818;stroke-width:0.5;" x1="640.5" x2="781.5" y1="1023.8183" y2="1023.8183"/><text fill="#000000" font-family="sans-serif" font-size="14" lengthAdjust="spacing" textLength="38" x="645.5" y="1041.3534">name</text><text fill="#000000" font-family="sans-serif" font-size="14" lengthAdjust="spacing" textLength="30" x="645.5" y="1057.8417">area</text><text fill="#000000" font-family="sans-serif" font-size="14" lengthAdjust="spacing" textLength="29" x="645.5" y="1074.33">type</text><text fill="#000000" font-family="sans-serif" font-size="14" lengthAdjust="spacing" textLength="54" x="645.5" y="1090.8183">address</text><line style="stroke:#181818;stroke-width:0.5;" x1="640.5" x2="781.5" y1="1097.7714" y2="1097.7714"/></g><!--class TaskDTO--><g id="elem_TaskDTO"><rect codeLine="62" fill="#F1F1F1" height="146.9297" id="TaskDTO" rx="2.5" ry="2.5" style="stroke:#181818;stroke-width:0.5;" width="135" x="91.5" y="975.3283"/><ellipse cx="124.95" cy="991.3283" fill="#ADD1B2" rx="11" ry="11" style="stroke:#181818;stroke-width:1.0;"/><path d="M127.9231,996.9713 Q127.3421,997.2702 126.7029,997.4196 Q126.0638,997.569 125.3582,997.569 Q122.8514,997.569 121.5315,995.9171 Q120.2117,994.2653 120.2117,991.1442 Q120.2117,988.0148 121.5315,986.3629 Q122.8514,984.7111 125.3582,984.7111 Q126.0638,984.7111 126.7112,984.8605 Q127.3587,985.0099 127.9231,985.3087 L127.9231,988.0314 Q127.2923,987.4504 126.6988,987.1806 Q126.1053,986.9108 125.4744,986.9108 Q124.1297,986.9108 123.4449,987.9775 Q122.7601,989.0441 122.7601,991.1442 Q122.7601,993.236 123.4449,994.3026 Q124.1297,995.3693 125.4744,995.3693 Q126.1053,995.3693 126.6988,995.0995 Q127.2923,994.8297 127.9231,994.2487 Z " fill="#000000"/><text fill="#000000" font-family="sans-serif" font-size="14" lengthAdjust="spacing" textLength="62" x="143.05" y="996.6193">TaskDTO</text><line style="stroke:#181818;stroke-width:0.5;" x1="92.5" x2="225.5" y1="1007.3283" y2="1007.3283"/><text fill="#000000" font-family="sans-serif" font-size="14" lengthAdjust="spacing" textLength="26" x="97.5" y="1024.8634">title</text><text fill="#000000" font-family="sans-serif" font-size="14" lengthAdjust="spacing" textLength="77" x="97.5" y="1041.3517">description</text><text fill="#000000" font-family="sans-serif" font-size="14" lengthAdjust="spacing" textLength="120" x="97.5" y="1057.84">degreeOfUrgency</text><text fill="#000000" font-family="sans-serif" font-size="14" lengthAdjust="spacing" textLength="123" x="97.5" y="1074.3283">expectedDuration</text><text fill="#000000" font-family="sans-serif" font-size="14" lengthAdjust="spacing" textLength="41" x="97.5" y="1090.8166">status</text><text fill="#000000" font-family="sans-serif" font-size="14" lengthAdjust="spacing" textLength="84" x="97.5" y="1107.3048">startingDate</text><line style="stroke:#181818;stroke-width:0.5;" x1="92.5" x2="225.5" y1="1114.258" y2="1114.258"/></g><!--class Task--><g id="elem_Task"><rect codeLine="71" fill="#F1F1F1" height="146.9297" id="Task" rx="2.5" ry="2.5" style="stroke:#181818;stroke-width:0.5;" width="135" x="294.5" y="975.3283"/><ellipse cx="341.75" cy="991.3283" fill="#ADD1B2" rx="11" ry="11" style="stroke:#181818;stroke-width:1.0;"/><path d="M344.7231,996.9713 Q344.1421,997.2702 343.5029,997.4196 Q342.8638,997.569 342.1582,997.569 Q339.6514,997.569 338.3315,995.9171 Q337.0117,994.2653 337.0117,991.1442 Q337.0117,988.0148 338.3315,986.3629 Q339.6514,984.7111 342.1582,984.7111 Q342.8638,984.7111 343.5112,984.8605 Q344.1587,985.0099 344.7231,985.3087 L344.7231,988.0314 Q344.0923,987.4504 343.4988,987.1806 Q342.9053,986.9108 342.2744,986.9108 Q340.9297,986.9108 340.2449,987.9775 Q339.5601,989.0441 339.5601,991.1442 Q339.5601,993.236 340.2449,994.3026 Q340.9297,995.3693 342.2744,995.3693 Q342.9053,995.3693 343.4988,995.0995 Q344.0923,994.8297 344.7231,994.2487 Z " fill="#000000"/><text fill="#000000" font-family="sans-serif" font-size="14" lengthAdjust="spacing" textLength="32" x="362.25" y="996.6193">Task</text><line style="stroke:#181818;stroke-width:0.5;" x1="295.5" x2="428.5" y1="1007.3283" y2="1007.3283"/><text fill="#000000" font-family="sans-serif" font-size="14" lengthAdjust="spacing" textLength="26" x="300.5" y="1024.8634">title</text><text fill="#000000" font-family="sans-serif" font-size="14" lengthAdjust="spacing" textLength="77" x="300.5" y="1041.3517">description</text><text fill="#000000" font-family="sans-serif" font-size="14" lengthAdjust="spacing" textLength="120" x="300.5" y="1057.84">degreeOfUrgency</text><text fill="#000000" font-family="sans-serif" font-size="14" lengthAdjust="spacing" textLength="123" x="300.5" y="1074.3283">expectedDuration</text><text fill="#000000" font-family="sans-serif" font-size="14" lengthAdjust="spacing" textLength="41" x="300.5" y="1090.8166">status</text><text fill="#000000" font-family="sans-serif" font-size="14" lengthAdjust="spacing" textLength="84" x="300.5" y="1107.3048">startingDate</text><line style="stroke:#181818;stroke-width:0.5;" x1="295.5" x2="428.5" y1="1114.258" y2="1114.258"/></g><!--class GreenSpace--><g id="elem_GreenSpace"><rect codeLine="80" fill="#F1F1F1" height="113.9531" id="GreenSpace" rx="2.5" ry="2.5" style="stroke:#181818;stroke-width:0.5;" width="113" x="884.5" y="991.8183"/><ellipse cx="899.5" cy="1007.8183" fill="#ADD1B2" rx="11" ry="11" style="stroke:#181818;stroke-width:1.0;"/><path d="M902.4731,1013.4613 Q901.8921,1013.7602 901.2529,1013.9096 Q900.6138,1014.059 899.9082,1014.059 Q897.4014,1014.059 896.0815,1012.4071 Q894.7617,1010.7553 894.7617,1007.6342 Q894.7617,1004.5048 896.0815,1002.8529 Q897.4014,1001.2011 899.9082,1001.2011 Q900.6138,1001.2011 901.2612,1001.3505 Q901.9087,1001.4999 902.4731,1001.7987 L902.4731,1004.5214 Q901.8423,1003.9404 901.2488,1003.6706 Q900.6553,1003.4008 900.0244,1003.4008 Q898.6797,1003.4008 897.9949,1004.4675 Q897.3101,1005.5341 897.3101,1007.6342 Q897.3101,1009.726 897.9949,1010.7926 Q898.6797,1011.8593 900.0244,1011.8593 Q900.6553,1011.8593 901.2488,1011.5895 Q901.8423,1011.3197 902.4731,1010.7387 Z " fill="#000000"/><text fill="#000000" font-family="sans-serif" font-size="14" lengthAdjust="spacing" textLength="81" x="913.5" y="1013.1093">GreenSpace</text><line style="stroke:#181818;stroke-width:0.5;" x1="885.5" x2="996.5" y1="1023.8183" y2="1023.8183"/><text fill="#000000" font-family="sans-serif" font-size="14" lengthAdjust="spacing" textLength="38" x="890.5" y="1041.3534">name</text><text fill="#000000" font-family="sans-serif" font-size="14" lengthAdjust="spacing" textLength="30" x="890.5" y="1057.8417">area</text><text fill="#000000" font-family="sans-serif" font-size="14" lengthAdjust="spacing" textLength="29" x="890.5" y="1074.33">type</text><text fill="#000000" font-family="sans-serif" font-size="14" lengthAdjust="spacing" textLength="54" x="890.5" y="1090.8183">address</text><line style="stroke:#181818;stroke-width:0.5;" x1="885.5" x2="996.5" y1="1097.7714" y2="1097.7714"/></g><!--link CompleteTaskUI to CompleteTaskController--><g id="link_CompleteTaskUI_CompleteTaskController"><path codeLine="87" d="M486,92.8183 C486,108.8783 486,125.0383 486,146.1883 " fill="none" id="CompleteTaskUI-to-CompleteTaskController" style="stroke:#181818;stroke-width:1.0;stroke-dasharray:7.0,7.0;"/><polygon fill="#181818" points="486,152.1883,490,143.1883,486,147.1883,482,143.1883,486,152.1883" style="stroke:#181818;stroke-width:1.0;"/></g><!--link CompleteTaskController to Repositories--><g id="link_CompleteTaskController_Repositories"><path codeLine="88" d="M486,283.1183 C486,325.6983 486,374.9783 486,415.7583 " fill="none" id="CompleteTaskController-to-Repositories" style="stroke:#181818;stroke-width:1.0;stroke-dasharray:7.0,7.0;"/><polygon fill="#181818" points="486,421.7583,490,412.7583,486,416.7583,482,412.7583,486,421.7583" style="stroke:#181818;stroke-width:1.0;"/><text fill="#000000" font-family="sans-serif" font-size="13" lengthAdjust="spacing" textLength="75" x="487" y="357.5066">repositories</text></g><!--link CompleteTaskController to TaskRepository--><g id="link_CompleteTaskController_TaskRepository"><path codeLine="89" d="M282.81,283.3783 C262.96,300.9583 250,323.2283 250,351.4383 C250,351.4383 250,351.4383 250,606.3883 C250,630.8483 257.9186,649.8115 271.2186,669.5615 " fill="none" id="CompleteTaskController-to-TaskRepository" style="stroke:#181818;stroke-width:1.0;stroke-dasharray:7.0,7.0;"/><polygon fill="#181818" points="274.57,674.5383,272.8607,664.8389,271.7771,670.391,266.225,669.3075,274.57,674.5383" style="stroke:#181818;stroke-width:1.0;"/><text fill="#000000" font-family="sans-serif" font-size="13" lengthAdjust="spacing" textLength="94" x="251" y="483.9766">taskRepository</text></g><!--link CompleteTaskController to GreenSpaceRepository--><g id="link_CompleteTaskController_GreenSpaceRepository"><path codeLine="90" d="M712.11,283.2783 C731.54,300.8083 744,323.0983 744,351.4383 C744,351.4383 744,351.4383 744,606.3883 C744,631.9483 741.187,654.4786 737.267,676.8186 " fill="none" id="CompleteTaskController-to-GreenSpaceRepository" style="stroke:#181818;stroke-width:1.0;stroke-dasharray:7.0,7.0;"/><polygon fill="#181818" points="736.23,682.7283,741.7253,674.555,737.0941,677.8035,733.8457,673.1724,736.23,682.7283" style="stroke:#181818;stroke-width:1.0;"/><text fill="#000000" font-family="sans-serif" font-size="13" lengthAdjust="spacing" textLength="138" x="745" y="483.9766">greenSpaceRepository</text></g><!--link Repositories to Repositories--><g id="link_Repositories_Repositories"><path codeLine="92" d="M590.94,463.2683 C611.17,465.1083 625.5,470.3283 625.5,478.9083 C625.5,487.4983 617.1451,492.1619 596.9151,494.0119 " fill="none" id="Repositories-to-Repositories" style="stroke:#181818;stroke-width:1.0;"/><polygon fill="#181818" points="590.94,494.5583,600.2669,497.722,595.9192,494.1029,599.5383,489.7553,590.94,494.5583" style="stroke:#181818;stroke-width:1.0;"/><text fill="#000000" font-family="sans-serif" font-size="13" lengthAdjust="spacing" textLength="53" x="631.5" y="483.9766">instance</text></g><!--link Repositories to TaskRepository--><g id="link_Repositories_TaskRepository"><path codeLine="93" d="M443.64,536.3183 C429.55,555.3983 413.91,576.9283 400,596.8883 C382.35,622.2083 366.6164,645.8718 351.2464,669.4518 " fill="none" id="Repositories-to-TaskRepository" style="stroke:#181818;stroke-width:1.0;"/><polygon fill="#181818" points="347.97,674.4783,356.2355,669.1228,350.7003,670.2896,349.5336,664.7543,347.97,674.4783" style="stroke:#181818;stroke-width:1.0;"/><text fill="#000000" font-family="sans-serif" font-size="13" lengthAdjust="spacing" textLength="94" x="401" y="610.4566">taskRepository</text><text fill="#000000" font-family="sans-serif" font-size="13" lengthAdjust="spacing" textLength="8" x="343.7627" y="664.1031">1</text></g><!--link Repositories to GreenSpaceRepository--><g id="link_Repositories_GreenSpaceRepository"><path codeLine="94" d="M518.58,536.2583 C534.67,561.5083 555.45,590.7583 578,613.8883 C603.26,639.7983 630.3094,660.5778 658.2794,679.4878 " fill="none" id="Repositories-to-GreenSpaceRepository" style="stroke:#181818;stroke-width:1.0;"/><polygon fill="#181818" points="663.25,682.8483,658.0345,674.4938,659.1078,680.0478,653.5538,681.1212,663.25,682.8483" style="stroke:#181818;stroke-width:1.0;"/><text fill="#000000" font-family="sans-serif" font-size="13" lengthAdjust="spacing" textLength="138" x="579" y="610.4566">greenSpaceRepository</text><text fill="#000000" font-family="sans-serif" font-size="13" lengthAdjust="spacing" textLength="8" x="643.8633" y="672.4479">1</text></g><!--link TaskRepository to Task--><g id="link_TaskRepository_Task"><path codeLine="96" d="M323.69,772.6483 C331.13,826.1083 342.4127,907.1356 351.0227,968.9856 " fill="none" id="TaskRepository-to-Task" style="stroke:#181818;stroke-width:1.0;"/><polygon fill="#181818" points="351.85,974.9283,354.5709,965.4627,351.1606,969.976,346.6473,966.5658,351.85,974.9283" style="stroke:#181818;stroke-width:1.0;"/><text fill="#000000" font-family="sans-serif" font-size="13" lengthAdjust="spacing" textLength="34" x="345" y="878.9066">tasks</text></g><!--link GreenSpaceRepository to GreenSpace--><g id="link_GreenSpaceRepository_GreenSpace"><path codeLine="97" d="M864.71,760.3783 C900.51,776.6283 934.94,799.9683 956,833.3483 C985.67,880.3783 977.4076,939.5505 963.9076,985.6105 " fill="none" id="GreenSpaceRepository-to-GreenSpace" style="stroke:#181818;stroke-width:1.0;"/><polygon fill="#181818" points="962.22,991.3683,968.5899,983.8567,963.6263,986.5701,960.9129,981.6066,962.22,991.3683" style="stroke:#181818;stroke-width:1.0;"/><text fill="#000000" font-family="sans-serif" font-size="13" lengthAdjust="spacing" textLength="82" x="976" y="878.9066">green spaces</text></g><!--link TaskRepository to TaskMapper--><g id="link_TaskRepository_TaskMapper"><path codeLine="99" d="M265.7,772.7383 C244.98,792.1883 225.7156,810.2529 205.9656,828.7829 " fill="none" id="TaskRepository-to-TaskMapper" style="stroke:#181818;stroke-width:1.0;stroke-dasharray:7.0,7.0;"/><polygon fill="#181818" points="201.59,832.8883,210.8903,829.6474,205.2364,829.4672,205.4166,823.8132,201.59,832.8883" style="stroke:#181818;stroke-width:1.0;"/></g><!--link TaskMapper to TaskDTO--><g id="link_TaskMapper_TaskDTO"><path codeLine="100" d="M159,914.5183 C159,932.4683 159,948.2683 159,968.9983 " fill="none" id="TaskMapper-to-TaskDTO" style="stroke:#181818;stroke-width:1.0;stroke-dasharray:7.0,7.0;"/><polygon fill="#181818" points="159,974.9983,163,965.9983,159,969.9983,155,965.9983,159,974.9983" style="stroke:#181818;stroke-width:1.0;"/></g><!--link TaskMapper to Task--><g id="link_TaskMapper_Task"><path codeLine="101" d="M205.83,914.7383 C232.06,937.0783 260.6625,961.4576 289.6825,986.1776 " fill="none" id="TaskMapper-to-Task" style="stroke:#181818;stroke-width:1.0;stroke-dasharray:7.0,7.0;"/><polygon fill="#181818" points="294.25,990.0683,289.9925,981.1872,290.4437,986.826,284.8049,987.2772,294.25,990.0683" style="stroke:#181818;stroke-width:1.0;"/></g><!--link GreenSpaceRepository to GreenSpaceMapper--><g id="link_GreenSpaceRepository_GreenSpaceMapper"><path codeLine="102" d="M723.44,764.3383 C721.01,785.6083 718.6935,805.7673 716.2535,827.0473 " fill="none" id="GreenSpaceRepository-to-GreenSpaceMapper" style="stroke:#181818;stroke-width:1.0;stroke-dasharray:7.0,7.0;"/><polygon fill="#181818" points="715.57,833.0083,720.5692,824.5225,716.1396,828.0408,712.6213,823.6112,715.57,833.0083" style="stroke:#181818;stroke-width:1.0;"/></g><!--link GreenSpaceMapper to GreenSpaceDTO--><g id="link_GreenSpaceMapper_GreenSpaceDTO"><path codeLine="103" d="M711,914.5183 C711,937.3583 711,960.4283 711,985.5883 " fill="none" id="GreenSpaceMapper-to-GreenSpaceDTO" style="stroke:#181818;stroke-width:1.0;stroke-dasharray:7.0,7.0;"/><polygon fill="#181818" points="711,991.5883,715,982.5883,711,986.5883,707,982.5883,711,991.5883" style="stroke:#181818;stroke-width:1.0;"/></g><!--link GreenSpaceMapper to GreenSpace--><g id="link_GreenSpaceMapper_GreenSpace"><path codeLine="104" d="M764.06,914.7383 C800.01,941.7683 842.6744,973.8624 879.3944,1001.4724 " fill="none" id="GreenSpaceMapper-to-GreenSpace" style="stroke:#181818;stroke-width:1.0;stroke-dasharray:7.0,7.0;"/><polygon fill="#181818" points="884.19,1005.0783,879.4005,996.4724,880.1937,1002.0734,874.5927,1002.8666,884.19,1005.0783" style="stroke:#181818;stroke-width:1.0;"/></g><!--SRC=[xLRVRzem47xFNt7gIq4hYDAgsg89hItRH5T4rK0VzkObHx0QxCXssh5f__li04aSGiecJLgby4Hyt_sslpk0z7Si7ocBYI1BM7B6_ONWImGb4dJM0CW1CV4VIOYUMaK80dr5M1XLuEI21FoPiX3c998LW8WoLAiO8URHodpKGBXGtDcL-n6Hyb8fGRyb2aS-PnxzWT3BeCSHpXKe3eA62mK1DG5JpZA0eagdCVDw_NVGWNlqkGX0BH1ylemZD5ZWSo2WY7piPcgfOxXUOt2gPRCH_DnAVzNWhZbJWaSHYXnlVc-s7akebd5yZp6NL76nEe5G839FTm7pqxPjAKJrEKF9LabwIwLwdyk7qydW40qJrXPh_ikhLQxI2elssliJIzFHa1DW-EmfeXBPTlRLBKkGehIhrR5ahTtyHqpgYwa3QuDhOMigbTUpmk3KQaCEACTiuyezVg5s9RUAwqgb5PD_Mj8zqLKbMuwnT3zUkXph8FCSQlgPMncJEDvz0LKtSsr-DwQYFyk8fRzHpy-WejXLBQm9C7i8XT3CsG2gEhL1Ry3cAuKTq26ZPVbdP8d5RoAG5ByDKrho810ePLsQEpvIFYmU12XzGUEKDArZKyZ9V2P2PFwgACBliIPP38Q986KrcLxFqebGUaeCYSAwI5z1c8LRzc_wLfettUvWpsYfKYWCdgxHB9AYgmVvBaNkrHwKMCu5UqWTOA2AYDpAsPPbRqs3Zfs09dcwOVngU4Sh79qU7HXujUvVn5oQ1iQIELhxpGfToSe6cmisVa2cbBVF_hOrQ_OgWZPyjWNeTryZhOtBxfxjQOVWRN31wml8BC4Fo89a6JdEQrr4cqMpMJIRHRDPD9j5iraqcqMpMJIRHVC_NpJl8iBKR7mBJoYasSfEk_rU_xnxtlA8WijOGEy2Ji_TipEttuFBhnDl2WRGTbhZqHGaJuH-bu4cwtGPr1RQpWrv8d2VC4MNki2J6DdDyCls03wo9oeuMo9Jpit3E0TSd7Ukg08FXOu57iRE4ESaYPJMy7cWISA5sVHJvwrpgrVVHE_2BiJAkURQhhamTzFV]--></g></svg>