<?xml version="1.0" encoding="us-ascii" standalone="no"?><svg xmlns="http://www.w3.org/2000/svg" xmlns:xlink="http://www.w3.org/1999/xlink" contentStyleType="text/css" height="1726px" preserveAspectRatio="none" style="width:2563px;height:1726px;background:#FFFFFF;" version="1.1" viewBox="0 0 2563 1726" width="2563px" zoomAndPan="magnify"><defs/><g><text fill="#000000" font-family="sans-serif" font-size="14" font-weight="bold" lengthAdjust="spacing" textLength="299" x="1133.75" y="28.5352">US029 - Record the completion of a task.</text><rect fill="#FFFFFF" height="1498.9082" style="stroke:#181818;stroke-width:1.0;" width="10" x="46.5" y="128.9766"/><rect fill="#FFFFFF" height="1142.1816" style="stroke:#181818;stroke-width:1.0;" width="10" x="381.5" y="150.2871"/><rect fill="#FFFFFF" height="29.3105" style="stroke:#181818;stroke-width:1.0;" width="10" x="381.5" y="1321.7793"/><rect fill="#FFFFFF" height="247.4844" style="stroke:#181818;stroke-width:1.0;" width="10" x="381.5" y="1380.4004"/><rect fill="#FFFFFF" height="1042.0723" style="stroke:#181818;stroke-width:1.0;" width="10" x="655.5" y="221.0859"/><rect fill="#FFFFFF" height="188.8633" style="stroke:#181818;stroke-width:1.0;" width="10" x="655.5" y="1409.7109"/><rect fill="#FFFFFF" height="29.3105" style="stroke:#181818;stroke-width:1.0;" width="10" x="1009.5" y="250.3965"/><rect fill="#FFFFFF" height="29.3105" style="stroke:#181818;stroke-width:1.0;" width="10" x="1167.5" y="309.0176"/><rect fill="#FFFFFF" height="29.3105" style="stroke:#181818;stroke-width:1.0;" width="10" x="1309.5" y="367.6387"/><rect fill="#FFFFFF" height="29.3105" style="stroke:#181818;stroke-width:1.0;" width="10" x="1429" y="426.2598"/><rect fill="#FFFFFF" height="29.3105" style="stroke:#181818;stroke-width:1.0;" width="10" x="1542" y="484.8809"/><rect fill="#FFFFFF" height="327.8398" style="stroke:#181818;stroke-width:1.0;" width="10" x="1665" y="543.502"/><rect fill="#FFFFFF" height="87.9316" style="stroke:#181818;stroke-width:1.0;" width="10" x="1665" y="1481.332"/><rect fill="#FFFFFF" height="323.1953" style="stroke:#181818;stroke-width:1.0;" width="10" x="1787.5" y="910.6523"/><rect fill="#FFFFFF" height="34.3105" style="stroke:#181818;stroke-width:1.0;" width="10" x="1792.5" y="1091.7383"/><rect fill="#FFFFFF" height="30" style="stroke:#181818;stroke-width:1.0;" width="10" x="1963.5" y="714.4102"/><rect fill="#FFFFFF" height="30" style="stroke:#181818;stroke-width:1.0;" width="10" x="2046" y="655.0996"/><rect fill="#FFFFFF" height="30" style="stroke:#181818;stroke-width:1.0;" width="10" x="2181.5" y="798.0313"/><rect fill="#FFFFFF" height="30" style="stroke:#181818;stroke-width:1.0;" width="10" x="2181.5" y="1024.4277"/><rect fill="#FFFFFF" height="30" style="stroke:#181818;stroke-width:1.0;" width="10" x="2363" y="1167.5371"/><rect fill="#FFFFFF" height="29.3105" style="stroke:#181818;stroke-width:1.0;" width="10" x="2504.5" y="1510.6426"/><rect fill="none" height="226.5527" style="stroke:#000000;stroke-width:1.5;" width="696" x="1588.5" y="616.4785"/><rect fill="none" height="76.6211" style="stroke:#000000;stroke-width:1.5;" width="676" x="1598.5" y="759.4102"/><rect fill="none" height="219.7305" style="stroke:#000000;stroke-width:1.5;" width="826" x="1731.5" y="985.8066"/><line style="stroke:#181818;stroke-width:0.5;stroke-dasharray:5.0,5.0;" x1="51" x2="51" y1="118.9766" y2="1645.8848"/><line style="stroke:#181818;stroke-width:0.5;stroke-dasharray:5.0,5.0;" x1="386.5" x2="386.5" y1="118.9766" y2="1645.8848"/><line style="stroke:#181818;stroke-width:0.5;stroke-dasharray:5.0,5.0;" x1="660.5" x2="660.5" y1="189.0313" y2="1645.8848"/><line style="stroke:#181818;stroke-width:0.5;stroke-dasharray:5.0,5.0;" x1="893.5" x2="893.5" y1="118.9766" y2="1645.8848"/><line style="stroke:#181818;stroke-width:0.5;stroke-dasharray:5.0,5.0;" x1="1014.5" x2="1014.5" y1="118.9766" y2="1645.8848"/><line style="stroke:#181818;stroke-width:0.5;stroke-dasharray:5.0,5.0;" x1="1172.5" x2="1172.5" y1="118.9766" y2="1645.8848"/><line style="stroke:#181818;stroke-width:0.5;stroke-dasharray:5.0,5.0;" x1="1314.5" x2="1314.5" y1="118.9766" y2="1645.8848"/><line style="stroke:#181818;stroke-width:0.5;stroke-dasharray:5.0,5.0;" x1="1433.5" x2="1433.5" y1="118.9766" y2="1645.8848"/><line style="stroke:#181818;stroke-width:0.5;stroke-dasharray:5.0,5.0;" x1="1546.5" x2="1546.5" y1="118.9766" y2="1645.8848"/><line style="stroke:#181818;stroke-width:0.5;stroke-dasharray:5.0,5.0;" x1="1669.5" x2="1669.5" y1="118.9766" y2="1645.8848"/><line style="stroke:#181818;stroke-width:0.5;stroke-dasharray:5.0,5.0;" x1="1792.5" x2="1792.5" y1="918.3301" y2="1645.8848"/><line style="stroke:#181818;stroke-width:0.5;stroke-dasharray:5.0,5.0;" x1="1968.5" x2="1968.5" y1="118.9766" y2="1645.8848"/><line style="stroke:#181818;stroke-width:0.5;stroke-dasharray:5.0,5.0;" x1="2050.5" x2="2050.5" y1="118.9766" y2="1645.8848"/><line style="stroke:#181818;stroke-width:0.5;stroke-dasharray:5.0,5.0;" x1="2186.5" x2="2186.5" y1="590.4902" y2="1645.8848"/><line style="stroke:#181818;stroke-width:0.5;stroke-dasharray:5.0,5.0;" x1="2367.5" x2="2367.5" y1="968.0625" y2="1645.8848"/><line style="stroke:#181818;stroke-width:0.5;stroke-dasharray:5.0,5.0;" x1="2509.5" x2="2509.5" y1="1135.4824" y2="1645.8848"/><text fill="#000000" font-family="sans-serif" font-size="14" lengthAdjust="spacing" textLength="87" x="5" y="116.0234">Collaborator</text><ellipse cx="51.5" cy="50.9883" fill="#E3E3E3" rx="8" ry="8" style="stroke:#181818;stroke-width:0.5;"/><path d="M51.5,58.9883 L51.5,85.9883 M38.5,66.9883 L64.5,66.9883 M51.5,85.9883 L38.5,100.9883 M51.5,85.9883 L64.5,100.9883 " fill="none" style="stroke:#181818;stroke-width:0.5;"/><text fill="#000000" font-family="sans-serif" font-size="14" lengthAdjust="spacing" textLength="87" x="5" y="1658.4199">Collaborator</text><ellipse cx="51.5" cy="1669.873" fill="#E3E3E3" rx="8" ry="8" style="stroke:#181818;stroke-width:0.5;"/><path d="M51.5,1677.873 L51.5,1704.873 M38.5,1685.873 L64.5,1685.873 M51.5,1704.873 L38.5,1719.873 M51.5,1704.873 L64.5,1719.873 " fill="none" style="stroke:#181818;stroke-width:0.5;"/><rect fill="#E3E3E3" height="30.4883" rx="2.5" ry="2.5" style="stroke:#181818;stroke-width:0.5;" width="130" x="321.5" y="87.4883"/><text fill="#000000" font-family="sans-serif" font-size="14" lengthAdjust="spacing" textLength="116" x="328.5" y="108.0234">:CompleteTaskUI</text><rect fill="#E3E3E3" height="30.4883" rx="2.5" ry="2.5" style="stroke:#181818;stroke-width:0.5;" width="130" x="321.5" y="1644.8848"/><text fill="#000000" font-family="sans-serif" font-size="14" lengthAdjust="spacing" textLength="116" x="328.5" y="1665.4199">:CompleteTaskUI</text><rect fill="#E3E3E3" height="30.4883" rx="2.5" ry="2.5" style="stroke:#181818;stroke-width:0.5;" width="186" x="567.5" y="1644.8848"/><text fill="#000000" font-family="sans-serif" font-size="14" lengthAdjust="spacing" textLength="172" x="574.5" y="1665.4199">:CompleteTaskController</text><rect fill="#E3E3E3" height="46.9766" rx="2.5" ry="2.5" style="stroke:#181818;stroke-width:0.5;" width="74" x="856.5" y="71"/><text fill="#000000" font-family="sans-serif" font-size="14" lengthAdjust="spacing" textLength="52" x="867.5" y="91.5352">taskDto</text><text fill="#000000" font-family="sans-serif" font-size="14" lengthAdjust="spacing" textLength="60" x="863.5" y="108.0234">:TaskDto</text><rect fill="#E3E3E3" height="46.9766" rx="2.5" ry="2.5" style="stroke:#181818;stroke-width:0.5;" width="74" x="856.5" y="1644.8848"/><text fill="#000000" font-family="sans-serif" font-size="14" lengthAdjust="spacing" textLength="52" x="867.5" y="1665.4199">taskDto</text><text fill="#000000" font-family="sans-serif" font-size="14" lengthAdjust="spacing" textLength="60" x="863.5" y="1681.9082">:TaskDto</text><rect fill="#E3E3E3" height="30.4883" rx="2.5" ry="2.5" style="stroke:#181818;stroke-width:0.5;" width="148" x="940.5" y="87.4883"/><text fill="#000000" font-family="sans-serif" font-size="14" lengthAdjust="spacing" textLength="134" x="947.5" y="108.0234">:ApplicationSession</text><rect fill="#E3E3E3" height="30.4883" rx="2.5" ry="2.5" style="stroke:#181818;stroke-width:0.5;" width="148" x="940.5" y="1644.8848"/><text fill="#000000" font-family="sans-serif" font-size="14" lengthAdjust="spacing" textLength="134" x="947.5" y="1665.4199">:ApplicationSession</text><rect fill="#E3E3E3" height="46.9766" rx="2.5" ry="2.5" style="stroke:#181818;stroke-width:0.5;" width="148" x="1098.5" y="71"/><text fill="#000000" font-family="sans-serif" font-size="14" lengthAdjust="spacing" textLength="78" x="1133.5" y="91.5352">appSession</text><text fill="#000000" font-family="sans-serif" font-size="14" lengthAdjust="spacing" textLength="134" x="1105.5" y="108.0234">:ApplicationSession</text><rect fill="#E3E3E3" height="46.9766" rx="2.5" ry="2.5" style="stroke:#181818;stroke-width:0.5;" width="148" x="1098.5" y="1644.8848"/><text fill="#000000" font-family="sans-serif" font-size="14" lengthAdjust="spacing" textLength="78" x="1133.5" y="1665.4199">appSession</text><text fill="#000000" font-family="sans-serif" font-size="14" lengthAdjust="spacing" textLength="134" x="1105.5" y="1681.9082">:ApplicationSession</text><rect fill="#E3E3E3" height="46.9766" rx="2.5" ry="2.5" style="stroke:#181818;stroke-width:0.5;" width="116" x="1256.5" y="71"/><text fill="#000000" font-family="sans-serif" font-size="14" lengthAdjust="spacing" textLength="102" x="1263.5" y="91.5352">currentSession</text><text fill="#000000" font-family="sans-serif" font-size="14" lengthAdjust="spacing" textLength="87" x="1271" y="108.0234">:UserSession</text><rect fill="#E3E3E3" height="46.9766" rx="2.5" ry="2.5" style="stroke:#181818;stroke-width:0.5;" width="116" x="1256.5" y="1644.8848"/><text fill="#000000" font-family="sans-serif" font-size="14" lengthAdjust="spacing" textLength="102" x="1263.5" y="1665.4199">currentSession</text><text fill="#000000" font-family="sans-serif" font-size="14" lengthAdjust="spacing" textLength="87" x="1271" y="1681.9082">:UserSession</text><rect fill="#E3E3E3" height="30.4883" rx="2.5" ry="2.5" style="stroke:#181818;stroke-width:0.5;" width="103" x="1382.5" y="87.4883"/><text fill="#000000" font-family="sans-serif" font-size="14" lengthAdjust="spacing" textLength="89" x="1389.5" y="108.0234">:Repositories</text><rect fill="#E3E3E3" height="30.4883" rx="2.5" ry="2.5" style="stroke:#181818;stroke-width:0.5;" width="103" x="1382.5" y="1644.8848"/><text fill="#000000" font-family="sans-serif" font-size="14" lengthAdjust="spacing" textLength="89" x="1389.5" y="1665.4199">:Repositories</text><rect fill="#E3E3E3" height="46.9766" rx="2.5" ry="2.5" style="stroke:#181818;stroke-width:0.5;" width="103" x="1495.5" y="71"/><text fill="#000000" font-family="sans-serif" font-size="14" lengthAdjust="spacing" textLength="82" x="1506" y="91.5352">repositories</text><text fill="#000000" font-family="sans-serif" font-size="14" lengthAdjust="spacing" textLength="89" x="1502.5" y="108.0234">:Repositories</text><rect fill="#E3E3E3" height="46.9766" rx="2.5" ry="2.5" style="stroke:#181818;stroke-width:0.5;" width="103" x="1495.5" y="1644.8848"/><text fill="#000000" font-family="sans-serif" font-size="14" lengthAdjust="spacing" textLength="82" x="1506" y="1665.4199">repositories</text><text fill="#000000" font-family="sans-serif" font-size="14" lengthAdjust="spacing" textLength="89" x="1502.5" y="1681.9082">:Repositories</text><rect fill="#E3E3E3" height="46.9766" rx="2.5" ry="2.5" style="stroke:#181818;stroke-width:0.5;" width="123" x="1608.5" y="71"/><text fill="#000000" font-family="sans-serif" font-size="14" lengthAdjust="spacing" textLength="101" x="1619.5" y="91.5352">taskRepository</text><text fill="#000000" font-family="sans-serif" font-size="14" lengthAdjust="spacing" textLength="109" x="1615.5" y="108.0234">:TaskRepository</text><rect fill="#E3E3E3" height="46.9766" rx="2.5" ry="2.5" style="stroke:#181818;stroke-width:0.5;" width="123" x="1608.5" y="1644.8848"/><text fill="#000000" font-family="sans-serif" font-size="14" lengthAdjust="spacing" textLength="101" x="1619.5" y="1665.4199">taskRepository</text><text fill="#000000" font-family="sans-serif" font-size="14" lengthAdjust="spacing" textLength="109" x="1615.5" y="1681.9082">:TaskRepository</text><rect fill="#E3E3E3" height="46.9766" rx="2.5" ry="2.5" style="stroke:#181818;stroke-width:0.5;" width="102" x="1741.5" y="1644.8848"/><text fill="#000000" font-family="sans-serif" font-size="14" lengthAdjust="spacing" textLength="80" x="1752.5" y="1665.4199">taskMapper</text><text fill="#000000" font-family="sans-serif" font-size="14" lengthAdjust="spacing" textLength="88" x="1748.5" y="1681.9082">:TaskMapper</text><rect fill="#E3E3E3" height="46.9766" rx="2.5" ry="2.5" style="stroke:#181818;stroke-width:0.5;" width="50" x="1943.5" y="71"/><text fill="#000000" font-family="sans-serif" font-size="14" lengthAdjust="spacing" textLength="28" x="1954.5" y="91.5352">task</text><text fill="#000000" font-family="sans-serif" font-size="14" lengthAdjust="spacing" textLength="36" x="1950.5" y="108.0234">:Task</text><rect fill="#E3E3E3" height="46.9766" rx="2.5" ry="2.5" style="stroke:#181818;stroke-width:0.5;" width="50" x="1943.5" y="1644.8848"/><text fill="#000000" font-family="sans-serif" font-size="14" lengthAdjust="spacing" textLength="28" x="1954.5" y="1665.4199">task</text><text fill="#000000" font-family="sans-serif" font-size="14" lengthAdjust="spacing" textLength="36" x="1950.5" y="1681.9082">:Task</text><rect fill="#E3E3E3" height="46.9766" rx="2.5" ry="2.5" style="stroke:#181818;stroke-width:0.5;" width="95" x="2003.5" y="71"/><text fill="#000000" font-family="sans-serif" font-size="14" lengthAdjust="spacing" textLength="51" x="2025.5" y="91.5352">taskList</text><text fill="#000000" font-family="sans-serif" font-size="14" lengthAdjust="spacing" textLength="81" x="2010.5" y="108.0234">:List&lt;Task&gt;</text><rect fill="#E3E3E3" height="46.9766" rx="2.5" ry="2.5" style="stroke:#181818;stroke-width:0.5;" width="95" x="2003.5" y="1644.8848"/><text fill="#000000" font-family="sans-serif" font-size="14" lengthAdjust="spacing" textLength="51" x="2025.5" y="1665.4199">taskList</text><text fill="#000000" font-family="sans-serif" font-size="14" lengthAdjust="spacing" textLength="81" x="2010.5" y="1681.9082">:List&lt;Task&gt;</text><rect fill="#E3E3E3" height="46.9766" rx="2.5" ry="2.5" style="stroke:#181818;stroke-width:0.5;" width="156" x="2108.5" y="1644.8848"/><text fill="#000000" font-family="sans-serif" font-size="14" lengthAdjust="spacing" textLength="142" x="2115.5" y="1665.4199">CollaboratorTaskList</text><text fill="#000000" font-family="sans-serif" font-size="14" lengthAdjust="spacing" textLength="81" x="2146" y="1681.9082">:List&lt;Task&gt;</text><rect fill="#E3E3E3" height="30.4883" rx="2.5" ry="2.5" style="stroke:#181818;stroke-width:0.5;" width="187" x="2274.5" y="1644.8848"/><text fill="#000000" font-family="sans-serif" font-size="14" lengthAdjust="spacing" textLength="173" x="2281.5" y="1665.4199">CollaboratorTasksListDto</text><rect fill="#E3E3E3" height="30.4883" rx="2.5" ry="2.5" style="stroke:#181818;stroke-width:0.5;" width="76" x="2471.5" y="1644.8848"/><text fill="#000000" font-family="sans-serif" font-size="14" lengthAdjust="spacing" textLength="62" x="2478.5" y="1665.4199">TaskDTO</text><rect fill="#FFFFFF" height="1498.9082" style="stroke:#181818;stroke-width:1.0;" width="10" x="46.5" y="128.9766"/><rect fill="#FFFFFF" height="1142.1816" style="stroke:#181818;stroke-width:1.0;" width="10" x="381.5" y="150.2871"/><rect fill="#FFFFFF" height="29.3105" style="stroke:#181818;stroke-width:1.0;" width="10" x="381.5" y="1321.7793"/><rect fill="#FFFFFF" height="247.4844" style="stroke:#181818;stroke-width:1.0;" width="10" x="381.5" y="1380.4004"/><rect fill="#FFFFFF" height="1042.0723" style="stroke:#181818;stroke-width:1.0;" width="10" x="655.5" y="221.0859"/><rect fill="#FFFFFF" height="188.8633" style="stroke:#181818;stroke-width:1.0;" width="10" x="655.5" y="1409.7109"/><rect fill="#FFFFFF" height="29.3105" style="stroke:#181818;stroke-width:1.0;" width="10" x="1009.5" y="250.3965"/><rect fill="#FFFFFF" height="29.3105" style="stroke:#181818;stroke-width:1.0;" width="10" x="1167.5" y="309.0176"/><rect fill="#FFFFFF" height="29.3105" style="stroke:#181818;stroke-width:1.0;" width="10" x="1309.5" y="367.6387"/><rect fill="#FFFFFF" height="29.3105" style="stroke:#181818;stroke-width:1.0;" width="10" x="1429" y="426.2598"/><rect fill="#FFFFFF" height="29.3105" style="stroke:#181818;stroke-width:1.0;" width="10" x="1542" y="484.8809"/><rect fill="#FFFFFF" height="327.8398" style="stroke:#181818;stroke-width:1.0;" width="10" x="1665" y="543.502"/><rect fill="#FFFFFF" height="87.9316" style="stroke:#181818;stroke-width:1.0;" width="10" x="1665" y="1481.332"/><rect fill="#FFFFFF" height="323.1953" style="stroke:#181818;stroke-width:1.0;" width="10" x="1787.5" y="910.6523"/><rect fill="#FFFFFF" height="34.3105" style="stroke:#181818;stroke-width:1.0;" width="10" x="1792.5" y="1091.7383"/><rect fill="#FFFFFF" height="30" style="stroke:#181818;stroke-width:1.0;" width="10" x="1963.5" y="714.4102"/><rect fill="#FFFFFF" height="30" style="stroke:#181818;stroke-width:1.0;" width="10" x="2046" y="655.0996"/><rect fill="#FFFFFF" height="30" style="stroke:#181818;stroke-width:1.0;" width="10" x="2181.5" y="798.0313"/><rect fill="#FFFFFF" height="30" style="stroke:#181818;stroke-width:1.0;" width="10" x="2181.5" y="1024.4277"/><rect fill="#FFFFFF" height="30" style="stroke:#181818;stroke-width:1.0;" width="10" x="2363" y="1167.5371"/><rect fill="#FFFFFF" height="29.3105" style="stroke:#181818;stroke-width:1.0;" width="10" x="2504.5" y="1510.6426"/><polygon fill="#181818" points="369.5,146.2871,379.5,150.2871,369.5,154.2871,373.5,150.2871" style="stroke:#181818;stroke-width:1.0;"/><line style="stroke:#181818;stroke-width:1.0;" x1="56.5" x2="375.5" y1="150.2871" y2="150.2871"/><text fill="#000000" font-family="sans-serif" font-size="13" font-weight="bold" lengthAdjust="spacing" textLength="9" x="63.5" y="145.5449">1</text><text fill="#000000" font-family="sans-serif" font-size="13" lengthAdjust="spacing" textLength="248" x="76.5" y="145.5449">asks to change task status to complete</text><polygon fill="#181818" points="555.5,175.5977,565.5,179.5977,555.5,183.5977,559.5,179.5977" style="stroke:#181818;stroke-width:1.0;"/><line style="stroke:#181818;stroke-width:1.0;stroke-dasharray:2.0,2.0;" x1="391.5" x2="561.5" y1="179.5977" y2="179.5977"/><text fill="#000000" font-family="sans-serif" font-size="13" font-weight="bold" lengthAdjust="spacing" textLength="9" x="398.5" y="174.8555">2</text><text fill="#000000" font-family="sans-serif" font-size="13" lengthAdjust="spacing" textLength="46" x="411.5" y="174.8555">create()</text><rect fill="#E3E3E3" height="30.4883" rx="2.5" ry="2.5" style="stroke:#181818;stroke-width:0.5;" width="186" x="567.5" y="158.2871"/><text fill="#000000" font-family="sans-serif" font-size="14" lengthAdjust="spacing" textLength="172" x="574.5" y="178.8223">:CompleteTaskController</text><polygon fill="#181818" points="643.5,217.0859,653.5,221.0859,643.5,225.0859,647.5,221.0859" style="stroke:#181818;stroke-width:1.0;"/><line style="stroke:#181818;stroke-width:1.0;" x1="391.5" x2="649.5" y1="221.0859" y2="221.0859"/><text fill="#000000" font-family="sans-serif" font-size="13" font-weight="bold" lengthAdjust="spacing" textLength="9" x="398.5" y="216.3438">3</text><text fill="#000000" font-family="sans-serif" font-size="13" lengthAdjust="spacing" textLength="65" x="411.5" y="216.3438">getTasks()</text><polygon fill="#181818" points="997.5,246.3965,1007.5,250.3965,997.5,254.3965,1001.5,250.3965" style="stroke:#181818;stroke-width:1.0;"/><line style="stroke:#181818;stroke-width:1.0;" x1="665.5" x2="1003.5" y1="250.3965" y2="250.3965"/><text fill="#000000" font-family="sans-serif" font-size="13" font-weight="bold" lengthAdjust="spacing" textLength="9" x="672.5" y="245.6543">4</text><text fill="#000000" font-family="sans-serif" font-size="13" lengthAdjust="spacing" textLength="81" x="685.5" y="245.6543">getInstance()</text><polygon fill="#181818" points="676.5,275.707,666.5,279.707,676.5,283.707,672.5,279.707" style="stroke:#181818;stroke-width:1.0;"/><line style="stroke:#181818;stroke-width:1.0;" x1="670.5" x2="1013.5" y1="279.707" y2="279.707"/><text fill="#000000" font-family="sans-serif" font-size="13" font-weight="bold" lengthAdjust="spacing" textLength="9" x="682.5" y="274.9648">5</text><text fill="#000000" font-family="sans-serif" font-size="13" lengthAdjust="spacing" textLength="71" x="695.5" y="274.9648">appSession</text><polygon fill="#181818" points="1155.5,305.0176,1165.5,309.0176,1155.5,313.0176,1159.5,309.0176" style="stroke:#181818;stroke-width:1.0;"/><line style="stroke:#181818;stroke-width:1.0;" x1="665.5" x2="1161.5" y1="309.0176" y2="309.0176"/><text fill="#000000" font-family="sans-serif" font-size="13" font-weight="bold" lengthAdjust="spacing" textLength="9" x="672.5" y="304.2754">6</text><text fill="#000000" font-family="sans-serif" font-size="13" lengthAdjust="spacing" textLength="123" x="685.5" y="304.2754">getCurrentSession()</text><polygon fill="#181818" points="676.5,334.3281,666.5,338.3281,676.5,342.3281,672.5,338.3281" style="stroke:#181818;stroke-width:1.0;"/><line style="stroke:#181818;stroke-width:1.0;stroke-dasharray:2.0,2.0;" x1="670.5" x2="1171.5" y1="338.3281" y2="338.3281"/><text fill="#000000" font-family="sans-serif" font-size="13" font-weight="bold" lengthAdjust="spacing" textLength="9" x="682.5" y="333.5859">7</text><text fill="#000000" font-family="sans-serif" font-size="13" lengthAdjust="spacing" textLength="93" x="695.5" y="333.5859">currentSession</text><polygon fill="#181818" points="1297.5,363.6387,1307.5,367.6387,1297.5,371.6387,1301.5,367.6387" style="stroke:#181818;stroke-width:1.0;"/><line style="stroke:#181818;stroke-width:1.0;" x1="665.5" x2="1303.5" y1="367.6387" y2="367.6387"/><text fill="#000000" font-family="sans-serif" font-size="13" font-weight="bold" lengthAdjust="spacing" textLength="9" x="672.5" y="362.8965">8</text><text fill="#000000" font-family="sans-serif" font-size="13" lengthAdjust="spacing" textLength="142" x="685.5" y="362.8965">email = getUserEmail()</text><polygon fill="#181818" points="676.5,392.9492,666.5,396.9492,676.5,400.9492,672.5,396.9492" style="stroke:#181818;stroke-width:1.0;"/><line style="stroke:#181818;stroke-width:1.0;stroke-dasharray:2.0,2.0;" x1="670.5" x2="1313.5" y1="396.9492" y2="396.9492"/><text fill="#000000" font-family="sans-serif" font-size="13" font-weight="bold" lengthAdjust="spacing" textLength="9" x="682.5" y="392.207">9</text><text fill="#000000" font-family="sans-serif" font-size="13" lengthAdjust="spacing" textLength="34" x="695.5" y="392.207">email</text><polygon fill="#181818" points="1417,422.2598,1427,426.2598,1417,430.2598,1421,426.2598" style="stroke:#181818;stroke-width:1.0;"/><line style="stroke:#181818;stroke-width:1.0;" x1="665.5" x2="1423" y1="426.2598" y2="426.2598"/><text fill="#000000" font-family="sans-serif" font-size="13" font-weight="bold" lengthAdjust="spacing" textLength="18" x="672.5" y="421.5176">10</text><text fill="#000000" font-family="sans-serif" font-size="13" lengthAdjust="spacing" textLength="81" x="694.5" y="421.5176">getInstance()</text><polygon fill="#181818" points="676.5,451.5703,666.5,455.5703,676.5,459.5703,672.5,455.5703" style="stroke:#181818;stroke-width:1.0;"/><line style="stroke:#181818;stroke-width:1.0;stroke-dasharray:2.0,2.0;" x1="670.5" x2="1433" y1="455.5703" y2="455.5703"/><text fill="#000000" font-family="sans-serif" font-size="13" font-weight="bold" lengthAdjust="spacing" textLength="18" x="682.5" y="450.8281">11</text><text fill="#000000" font-family="sans-serif" font-size="13" lengthAdjust="spacing" textLength="75" x="704.5" y="450.8281">repositories</text><polygon fill="#181818" points="1530,480.8809,1540,484.8809,1530,488.8809,1534,484.8809" style="stroke:#181818;stroke-width:1.0;"/><line style="stroke:#181818;stroke-width:1.0;" x1="665.5" x2="1536" y1="484.8809" y2="484.8809"/><text fill="#000000" font-family="sans-serif" font-size="13" font-weight="bold" lengthAdjust="spacing" textLength="18" x="672.5" y="480.1387">12</text><text fill="#000000" font-family="sans-serif" font-size="13" lengthAdjust="spacing" textLength="132" x="694.5" y="480.1387">getTasksRepository()</text><polygon fill="#181818" points="676.5,510.1914,666.5,514.1914,676.5,518.1914,672.5,514.1914" style="stroke:#181818;stroke-width:1.0;"/><line style="stroke:#181818;stroke-width:1.0;stroke-dasharray:2.0,2.0;" x1="670.5" x2="1546" y1="514.1914" y2="514.1914"/><text fill="#000000" font-family="sans-serif" font-size="13" font-weight="bold" lengthAdjust="spacing" textLength="18" x="682.5" y="509.4492">13</text><text fill="#000000" font-family="sans-serif" font-size="13" lengthAdjust="spacing" textLength="97" x="704.5" y="509.4492">TaskRepository</text><polygon fill="#181818" points="1653,539.502,1663,543.502,1653,547.502,1657,543.502" style="stroke:#181818;stroke-width:1.0;"/><line style="stroke:#181818;stroke-width:1.0;" x1="665.5" x2="1659" y1="543.502" y2="543.502"/><text fill="#000000" font-family="sans-serif" font-size="13" font-weight="bold" lengthAdjust="spacing" textLength="18" x="672.5" y="538.7598">14</text><text fill="#000000" font-family="sans-serif" font-size="13" lengthAdjust="spacing" textLength="99" x="694.5" y="538.7598">getTasks(email)</text><polygon fill="#181818" points="2096.5,568.8125,2106.5,572.8125,2096.5,576.8125,2100.5,572.8125" style="stroke:#181818;stroke-width:1.0;"/><line style="stroke:#181818;stroke-width:1.0;stroke-dasharray:2.0,2.0;" x1="1675" x2="2102.5" y1="572.8125" y2="572.8125"/><text fill="#000000" font-family="sans-serif" font-size="13" font-weight="bold" lengthAdjust="spacing" textLength="18" x="1682" y="568.0703">15</text><text fill="#000000" font-family="sans-serif" font-size="13" lengthAdjust="spacing" textLength="46" x="1704" y="568.0703">create()</text><rect fill="#E3E3E3" height="46.9766" rx="2.5" ry="2.5" style="stroke:#181818;stroke-width:0.5;" width="156" x="2108.5" y="551.502"/><text fill="#000000" font-family="sans-serif" font-size="14" lengthAdjust="spacing" textLength="142" x="2115.5" y="572.0371">CollaboratorTaskList</text><text fill="#000000" font-family="sans-serif" font-size="14" lengthAdjust="spacing" textLength="81" x="2146" y="588.5254">:List&lt;Task&gt;</text><path d="M1588.5,616.4785 L1662.5,616.4785 L1662.5,623.7891 L1652.5,633.7891 L1588.5,633.7891 L1588.5,616.4785 " fill="#EEEEEE" style="stroke:#000000;stroke-width:1.5;"/><rect fill="none" height="226.5527" style="stroke:#000000;stroke-width:1.5;" width="696" x="1588.5" y="616.4785"/><text fill="#000000" font-family="sans-serif" font-size="13" font-weight="bold" lengthAdjust="spacing" textLength="29" x="1603.5" y="630.0469">loop</text><text fill="#000000" font-family="sans-serif" font-size="11" font-weight="bold" lengthAdjust="spacing" textLength="126" x="1677.5" y="629.1133">[for each known Task]</text><polygon fill="#181818" points="2034,651.0996,2044,655.0996,2034,659.0996,2038,655.0996" style="stroke:#181818;stroke-width:1.0;"/><line style="stroke:#181818;stroke-width:1.0;" x1="1675" x2="2040" y1="655.0996" y2="655.0996"/><text fill="#000000" font-family="sans-serif" font-size="13" font-weight="bold" lengthAdjust="spacing" textLength="18" x="1682" y="650.3574">16</text><text fill="#000000" font-family="sans-serif" font-size="13" lengthAdjust="spacing" textLength="77" x="1704" y="650.3574">task = get(i)</text><polygon fill="#181818" points="1951.5,710.4102,1961.5,714.4102,1951.5,718.4102,1955.5,714.4102" style="stroke:#181818;stroke-width:1.0;"/><line style="stroke:#181818;stroke-width:1.0;" x1="1675" x2="1957.5" y1="714.4102" y2="714.4102"/><text fill="#000000" font-family="sans-serif" font-size="13" font-weight="bold" lengthAdjust="spacing" textLength="18" x="1682" y="709.668">17</text><text fill="#000000" font-family="sans-serif" font-size="13" lengthAdjust="spacing" textLength="222" x="1704" y="709.668">Collaborator = hasUserEmail(email)</text><path d="M1598.5,759.4102 L1665.5,759.4102 L1665.5,766.7207 L1655.5,776.7207 L1598.5,776.7207 L1598.5,759.4102 " fill="#EEEEEE" style="stroke:#000000;stroke-width:1.5;"/><rect fill="none" height="76.6211" style="stroke:#000000;stroke-width:1.5;" width="676" x="1598.5" y="759.4102"/><text fill="#000000" font-family="sans-serif" font-size="13" font-weight="bold" lengthAdjust="spacing" textLength="22" x="1613.5" y="772.9785">opt</text><text fill="#000000" font-family="sans-serif" font-size="11" font-weight="bold" lengthAdjust="spacing" textLength="84" x="1680.5" y="772.0449">[hasUserEmail]</text><polygon fill="#181818" points="2169.5,794.0313,2179.5,798.0313,2169.5,802.0313,2173.5,798.0313" style="stroke:#181818;stroke-width:1.0;"/><line style="stroke:#181818;stroke-width:1.0;" x1="1675" x2="2175.5" y1="798.0313" y2="798.0313"/><text fill="#000000" font-family="sans-serif" font-size="13" font-weight="bold" lengthAdjust="spacing" textLength="18" x="1682" y="793.2891">18</text><text fill="#000000" font-family="sans-serif" font-size="13" lengthAdjust="spacing" textLength="58" x="1704" y="793.2891">add(task)</text><polygon fill="#181818" points="676.5,867.3418,666.5,871.3418,676.5,875.3418,672.5,871.3418" style="stroke:#181818;stroke-width:1.0;"/><line style="stroke:#181818;stroke-width:1.0;stroke-dasharray:2.0,2.0;" x1="670.5" x2="1669" y1="871.3418" y2="871.3418"/><text fill="#000000" font-family="sans-serif" font-size="13" font-weight="bold" lengthAdjust="spacing" textLength="18" x="682.5" y="866.5996">19</text><text fill="#000000" font-family="sans-serif" font-size="13" lengthAdjust="spacing" textLength="161" x="704.5" y="866.5996">CollaboratorTasksListDto</text><polygon fill="#181818" points="1729.5,896.6523,1739.5,900.6523,1729.5,904.6523,1733.5,900.6523" style="stroke:#181818;stroke-width:1.0;"/><line style="stroke:#181818;stroke-width:1.0;" x1="665.5" x2="1735.5" y1="900.6523" y2="900.6523"/><text fill="#000000" font-family="sans-serif" font-size="13" font-weight="bold" lengthAdjust="spacing" textLength="18" x="672.5" y="895.9102">20</text><text fill="#000000" font-family="sans-serif" font-size="13" lengthAdjust="spacing" textLength="210" x="694.5" y="895.9102">toDTO(CollaboratorTasksListDto)</text><rect fill="#E3E3E3" height="46.9766" rx="2.5" ry="2.5" style="stroke:#181818;stroke-width:0.5;" width="102" x="1741.5" y="879.3418"/><text fill="#000000" font-family="sans-serif" font-size="14" lengthAdjust="spacing" textLength="80" x="1752.5" y="899.877">taskMapper</text><text fill="#000000" font-family="sans-serif" font-size="14" lengthAdjust="spacing" textLength="88" x="1748.5" y="916.3652">:TaskMapper</text><polygon fill="#181818" points="2262.5,954.6289,2272.5,958.6289,2262.5,962.6289,2266.5,958.6289" style="stroke:#181818;stroke-width:1.0;"/><line style="stroke:#181818;stroke-width:1.0;stroke-dasharray:2.0,2.0;" x1="1797.5" x2="2268.5" y1="958.6289" y2="958.6289"/><text fill="#000000" font-family="sans-serif" font-size="13" font-weight="bold" lengthAdjust="spacing" textLength="18" x="1804.5" y="953.8867">21</text><text fill="#000000" font-family="sans-serif" font-size="13" lengthAdjust="spacing" textLength="46" x="1826.5" y="953.8867">create()</text><rect fill="#E3E3E3" height="30.4883" rx="2.5" ry="2.5" style="stroke:#181818;stroke-width:0.5;" width="187" x="2274.5" y="937.3184"/><text fill="#000000" font-family="sans-serif" font-size="14" lengthAdjust="spacing" textLength="173" x="2281.5" y="957.8535">CollaboratorTasksListDto</text><path d="M1731.5,985.8066 L1805.5,985.8066 L1805.5,993.1172 L1795.5,1003.1172 L1731.5,1003.1172 L1731.5,985.8066 " fill="#EEEEEE" style="stroke:#000000;stroke-width:1.5;"/><rect fill="none" height="219.7305" style="stroke:#000000;stroke-width:1.5;" width="826" x="1731.5" y="985.8066"/><text fill="#000000" font-family="sans-serif" font-size="13" font-weight="bold" lengthAdjust="spacing" textLength="29" x="1746.5" y="999.375">loop</text><text fill="#000000" font-family="sans-serif" font-size="11" font-weight="bold" lengthAdjust="spacing" textLength="254" x="1820.5" y="998.4414">[for each object in CollaboratorTasksListDto]</text><polygon fill="#181818" points="2169.5,1020.4277,2179.5,1024.4277,2169.5,1028.4277,2173.5,1024.4277" style="stroke:#181818;stroke-width:1.0;"/><line style="stroke:#181818;stroke-width:1.0;" x1="1797.5" x2="2175.5" y1="1024.4277" y2="1024.4277"/><text fill="#000000" font-family="sans-serif" font-size="13" font-weight="bold" lengthAdjust="spacing" textLength="18" x="1804.5" y="1019.6855">22</text><text fill="#000000" font-family="sans-serif" font-size="13" lengthAdjust="spacing" textLength="70" x="1826.5" y="1019.6855">obj = get(i)</text><line style="stroke:#181818;stroke-width:1.0;" x1="1797.5" x2="1844.5" y1="1078.7383" y2="1078.7383"/><line style="stroke:#181818;stroke-width:1.0;" x1="1844.5" x2="1844.5" y1="1078.7383" y2="1091.7383"/><line style="stroke:#181818;stroke-width:1.0;" x1="1803.5" x2="1844.5" y1="1091.7383" y2="1091.7383"/><polygon fill="#181818" points="1813.5,1087.7383,1803.5,1091.7383,1813.5,1095.7383,1809.5,1091.7383" style="stroke:#181818;stroke-width:1.0;"/><text fill="#000000" font-family="sans-serif" font-size="13" font-weight="bold" lengthAdjust="spacing" textLength="18" x="1809.5" y="1073.9961">23</text><text fill="#000000" font-family="sans-serif" font-size="13" lengthAdjust="spacing" textLength="130" x="1831.5" y="1073.9961">objDto = toDTO(obj)</text><polygon fill="#181818" points="2459.5,1122.0488,2469.5,1126.0488,2459.5,1130.0488,2463.5,1126.0488" style="stroke:#181818;stroke-width:1.0;"/><line style="stroke:#181818;stroke-width:1.0;" x1="1797.5" x2="2465.5" y1="1126.0488" y2="1126.0488"/><text fill="#000000" font-family="sans-serif" font-size="13" font-weight="bold" lengthAdjust="spacing" textLength="18" x="1804.5" y="1121.3066">24</text><text fill="#000000" font-family="sans-serif" font-size="13" lengthAdjust="spacing" textLength="58" x="1826.5" y="1121.3066">create(...)</text><rect fill="#E3E3E3" height="30.4883" rx="2.5" ry="2.5" style="stroke:#181818;stroke-width:0.5;" width="76" x="2471.5" y="1104.7383"/><text fill="#000000" font-family="sans-serif" font-size="14" lengthAdjust="spacing" textLength="62" x="2478.5" y="1125.2734">TaskDTO</text><polygon fill="#181818" points="2351,1163.5371,2361,1167.5371,2351,1171.5371,2355,1167.5371" style="stroke:#181818;stroke-width:1.0;"/><line style="stroke:#181818;stroke-width:1.0;" x1="1797.5" x2="2357" y1="1167.5371" y2="1167.5371"/><text fill="#000000" font-family="sans-serif" font-size="13" font-weight="bold" lengthAdjust="spacing" textLength="18" x="1804.5" y="1162.7949">25</text><text fill="#000000" font-family="sans-serif" font-size="13" lengthAdjust="spacing" textLength="74" x="1826.5" y="1162.7949">add(objDto)</text><polygon fill="#181818" points="676.5,1229.8477,666.5,1233.8477,676.5,1237.8477,672.5,1233.8477" style="stroke:#181818;stroke-width:1.0;"/><line style="stroke:#181818;stroke-width:1.0;stroke-dasharray:2.0,2.0;" x1="670.5" x2="1791.5" y1="1233.8477" y2="1233.8477"/><text fill="#000000" font-family="sans-serif" font-size="13" font-weight="bold" lengthAdjust="spacing" textLength="18" x="682.5" y="1229.1055">26</text><text fill="#000000" font-family="sans-serif" font-size="13" lengthAdjust="spacing" textLength="161" x="704.5" y="1229.1055">CollaboratorTasksListDto</text><polygon fill="#181818" points="402.5,1259.1582,392.5,1263.1582,402.5,1267.1582,398.5,1263.1582" style="stroke:#181818;stroke-width:1.0;"/><line style="stroke:#181818;stroke-width:1.0;stroke-dasharray:2.0,2.0;" x1="396.5" x2="659.5" y1="1263.1582" y2="1263.1582"/><text fill="#000000" font-family="sans-serif" font-size="13" font-weight="bold" lengthAdjust="spacing" textLength="18" x="408.5" y="1258.416">27</text><text fill="#000000" font-family="sans-serif" font-size="13" lengthAdjust="spacing" textLength="161" x="430.5" y="1258.416">CollaboratorTasksListDto</text><polygon fill="#181818" points="67.5,1288.4688,57.5,1292.4688,67.5,1296.4688,63.5,1292.4688" style="stroke:#181818;stroke-width:1.0;"/><line style="stroke:#181818;stroke-width:1.0;stroke-dasharray:2.0,2.0;" x1="61.5" x2="385.5" y1="1292.4688" y2="1292.4688"/><text fill="#000000" font-family="sans-serif" font-size="13" font-weight="bold" lengthAdjust="spacing" textLength="18" x="73.5" y="1287.7266">28</text><text fill="#000000" font-family="sans-serif" font-size="13" lengthAdjust="spacing" textLength="149" x="95.5" y="1287.7266">shows list of own tasks</text><polygon fill="#181818" points="369.5,1317.7793,379.5,1321.7793,369.5,1325.7793,373.5,1321.7793" style="stroke:#181818;stroke-width:1.0;"/><line style="stroke:#181818;stroke-width:1.0;" x1="56.5" x2="375.5" y1="1321.7793" y2="1321.7793"/><text fill="#000000" font-family="sans-serif" font-size="13" font-weight="bold" lengthAdjust="spacing" textLength="18" x="63.5" y="1317.0371">29</text><text fill="#000000" font-family="sans-serif" font-size="13" lengthAdjust="spacing" textLength="86" x="85.5" y="1317.0371">selects a task</text><polygon fill="#181818" points="67.5,1347.0898,57.5,1351.0898,67.5,1355.0898,63.5,1351.0898" style="stroke:#181818;stroke-width:1.0;"/><line style="stroke:#181818;stroke-width:1.0;stroke-dasharray:2.0,2.0;" x1="61.5" x2="385.5" y1="1351.0898" y2="1351.0898"/><text fill="#000000" font-family="sans-serif" font-size="13" font-weight="bold" lengthAdjust="spacing" textLength="18" x="73.5" y="1346.3477">30</text><text fill="#000000" font-family="sans-serif" font-size="13" lengthAdjust="spacing" textLength="279" x="95.5" y="1346.3477">requests confirmation of completion of task</text><polygon fill="#181818" points="369.5,1376.4004,379.5,1380.4004,369.5,1384.4004,373.5,1380.4004" style="stroke:#181818;stroke-width:1.0;"/><line style="stroke:#181818;stroke-width:1.0;" x1="56.5" x2="375.5" y1="1380.4004" y2="1380.4004"/><text fill="#000000" font-family="sans-serif" font-size="13" font-weight="bold" lengthAdjust="spacing" textLength="18" x="63.5" y="1375.6582">31</text><text fill="#000000" font-family="sans-serif" font-size="13" lengthAdjust="spacing" textLength="56" x="85.5" y="1375.6582">confirms</text><polygon fill="#181818" points="643.5,1405.7109,653.5,1409.7109,643.5,1413.7109,647.5,1409.7109" style="stroke:#181818;stroke-width:1.0;"/><line style="stroke:#181818;stroke-width:1.0;" x1="391.5" x2="649.5" y1="1409.7109" y2="1409.7109"/><text fill="#000000" font-family="sans-serif" font-size="13" font-weight="bold" lengthAdjust="spacing" textLength="18" x="398.5" y="1404.9688">32</text><text fill="#000000" font-family="sans-serif" font-size="13" lengthAdjust="spacing" textLength="223" x="420.5" y="1404.9688">completeTask(taskDTO, newStatus)</text><line style="stroke:#181818;stroke-width:1.0;stroke-dasharray:2.0,2.0;" x1="665.5" x2="707.5" y1="1439.0215" y2="1439.0215"/><line style="stroke:#181818;stroke-width:1.0;stroke-dasharray:2.0,2.0;" x1="707.5" x2="707.5" y1="1439.0215" y2="1452.0215"/><line style="stroke:#181818;stroke-width:1.0;stroke-dasharray:2.0,2.0;" x1="666.5" x2="707.5" y1="1452.0215" y2="1452.0215"/><polygon fill="#181818" points="676.5,1448.0215,666.5,1452.0215,676.5,1456.0215,672.5,1452.0215" style="stroke:#181818;stroke-width:1.0;"/><text fill="#000000" font-family="sans-serif" font-size="13" font-weight="bold" lengthAdjust="spacing" textLength="18" x="672.5" y="1434.2793">33</text><text fill="#000000" font-family="sans-serif" font-size="13" lengthAdjust="spacing" textLength="187" x="694.5" y="1434.2793">validateNewStatus(newStatus)</text><polygon fill="#181818" points="1653,1477.332,1663,1481.332,1653,1485.332,1657,1481.332" style="stroke:#181818;stroke-width:1.0;"/><line style="stroke:#181818;stroke-width:1.0;" x1="665.5" x2="1659" y1="1481.332" y2="1481.332"/><text fill="#000000" font-family="sans-serif" font-size="13" font-weight="bold" lengthAdjust="spacing" textLength="18" x="672.5" y="1476.5898">34</text><text fill="#000000" font-family="sans-serif" font-size="13" lengthAdjust="spacing" textLength="223" x="694.5" y="1476.5898">completeTask(taskDTO, newStatus)</text><polygon fill="#181818" points="2492.5,1506.6426,2502.5,1510.6426,2492.5,1514.6426,2496.5,1510.6426" style="stroke:#181818;stroke-width:1.0;"/><line style="stroke:#181818;stroke-width:1.0;" x1="1675" x2="2498.5" y1="1510.6426" y2="1510.6426"/><text fill="#000000" font-family="sans-serif" font-size="13" font-weight="bold" lengthAdjust="spacing" textLength="18" x="1682" y="1505.9004">35</text><text fill="#000000" font-family="sans-serif" font-size="13" lengthAdjust="spacing" textLength="223" x="1704" y="1505.9004">completeTask(taskDTO, newStatus)</text><polygon fill="#181818" points="1686,1535.9531,1676,1539.9531,1686,1543.9531,1682,1539.9531" style="stroke:#181818;stroke-width:1.0;"/><line style="stroke:#181818;stroke-width:1.0;stroke-dasharray:2.0,2.0;" x1="1680" x2="2508.5" y1="1539.9531" y2="1539.9531"/><text fill="#000000" font-family="sans-serif" font-size="13" font-weight="bold" lengthAdjust="spacing" textLength="18" x="1692" y="1535.2109">36</text><text fill="#000000" font-family="sans-serif" font-size="13" lengthAdjust="spacing" textLength="55" x="1714" y="1535.2109">taskDTO</text><polygon fill="#181818" points="676.5,1565.2637,666.5,1569.2637,676.5,1573.2637,672.5,1569.2637" style="stroke:#181818;stroke-width:1.0;"/><line style="stroke:#181818;stroke-width:1.0;stroke-dasharray:2.0,2.0;" x1="670.5" x2="1669" y1="1569.2637" y2="1569.2637"/><text fill="#000000" font-family="sans-serif" font-size="13" font-weight="bold" lengthAdjust="spacing" textLength="18" x="682.5" y="1564.5215">37</text><text fill="#000000" font-family="sans-serif" font-size="13" lengthAdjust="spacing" textLength="55" x="704.5" y="1564.5215">taskDTO</text><polygon fill="#181818" points="402.5,1594.5742,392.5,1598.5742,402.5,1602.5742,398.5,1598.5742" style="stroke:#181818;stroke-width:1.0;"/><line style="stroke:#181818;stroke-width:1.0;stroke-dasharray:2.0,2.0;" x1="396.5" x2="659.5" y1="1598.5742" y2="1598.5742"/><text fill="#000000" font-family="sans-serif" font-size="13" font-weight="bold" lengthAdjust="spacing" textLength="18" x="408.5" y="1593.832">38</text><text fill="#000000" font-family="sans-serif" font-size="13" lengthAdjust="spacing" textLength="55" x="430.5" y="1593.832">taskDTO</text><polygon fill="#181818" points="62.5,1623.8848,52.5,1627.8848,62.5,1631.8848,58.5,1627.8848" style="stroke:#181818;stroke-width:1.0;"/><line style="stroke:#181818;stroke-width:1.0;stroke-dasharray:2.0,2.0;" x1="56.5" x2="385.5" y1="1627.8848" y2="1627.8848"/><text fill="#000000" font-family="sans-serif" font-size="13" font-weight="bold" lengthAdjust="spacing" textLength="18" x="68.5" y="1623.1426">39</text><text fill="#000000" font-family="sans-serif" font-size="13" lengthAdjust="spacing" textLength="170" x="90.5" y="1623.1426">displays operation success</text><!--SRC=[hLZ1RkCu3BtxAuYUac9J3EQsmMw18jD3WKwdQDBR0WlLKHfj7SaZALFqxvUIR5csfTXEnnTRDlduI96KPFN6U4aaES11S97lfJXGqF98C-M_b2H_8wzqhJyA2fBccl3N8XHGUx8Lxuo_meuKYcOPk4ipZHhFwozV_uG5FD5So2teFOLS7Cg2QYOuY1qGq4IzNMKPEMh1ZuSNAl4vrqB2nKeK1NaHak3e0eY2MzGK7vHcQ5gpd9M4QxXOhXmYtI3IyvsLVBux8RCIN4l4fWvrjNcwRqiRIj-q-8SlD-x9obNF7U2RiYnOJem_QweKtgpmlpUFZsr9KfQL0E8cj7fA-L5AodMZ-Aoe33NMj-lrtO-73gadMWh5C6oCAYlcNtoicPb0Z7LRHGOQQAO7y7X_i-a7gO6jOjMyy25hNlNrlsDGgAnqtS3hkM5VfvAsScRSbxXdIgEKkVrbHA-zh7dLbWzpR9FKxKef2sJobFqYcZQ9QRE_7i7Y6XCHbc0qG0l8zrWzr381fOa-khTLQbfT3uaPx4e94HO8PBBqyXB1Sadn-snU5nfuAIU48gzKMvPT8GzkKxxzpLnM7M5CybgKEuuqUTwprWEqwGwfotojwM4qV274DRQq3HkNghdML5UjIXaad0Osb-Nh2RUBS93qCEUgQ9T03uGLyBVXRmhxrWm7gTSbdwPVIGGkM4E3pDF8DVD87u5fcHBhH6bFOlOQhyAcDUZSUCEriwRd1TNK00mwQRjbsYiBl6ZgjTCcXpmvXLvpRqE6FS6cmZnDBkbKX-Lu17Dr-5ZdOqsrtUAcsIY4A667EmSCrHxUk7Zdrkuqb1ZRQxzw83lRlctDpjXyEhQFfr-G9aC4kU11VfUJw60uCUZedgYcEKtDdgZNd_Ru36z5gLkUJ4U8nooQnMRDtsvdXkhyF4FDKXtTUfo56GJnDw5IlZM1dJWTHilKwWcrMBjmlJBAt6pBXrmUrRx2zkaseBOXQV5jysEMCZsq6WIxsTCUEw5qSqHRO_jZknUAb__mw0QCJmnVZ5mwvT7AoBuua8VPvrDvYZ_1o3g1uK0_t9pZSAmlewOvpG2jcScjvlRgwce-AGoZhO-OInC0ry5SD3urcoQvFZ-XmoWZkqfOO-TqbAbXTnsbFWcUtRtiYIqu3lepvXBKNhmhA4mDYXsOJOzPTzo6E42e3vIzqwcY1JO7LVsAYPz2-rOb_Nca2jLomNTC7aZzHwVzVyT3Zc5IGQaUX_RnDW_-vTWr5ald3-3qVMtFrFCiSTRrKr7X_285swB8Gwqvws0aDzCJASIMdlvEece2vy6ZG8DhK1OntXLK5adY5a1ywJsXtVMkdVK9nMPc-kcrPQeio8V2xGMLBhVKCS_n21xBfc1OO_mF]--></g></svg>