<?xml version="1.0" encoding="us-ascii" standalone="no"?><svg xmlns="http://www.w3.org/2000/svg" xmlns:xlink="http://www.w3.org/1999/xlink" contentStyleType="text/css" height="1233px" preserveAspectRatio="none" style="width:2017px;height:1233px;background:#FFFFFF;" version="1.1" viewBox="0 0 2017 1233" width="2017px" zoomAndPan="magnify"><defs/><g><text fill="#000000" font-family="sans-serif" font-size="14" font-weight="bold" lengthAdjust="spacing" textLength="299" x="860.5" y="28.5352">US029 - Record the completion of a task.</text><rect fill="#FFFFFF" height="1042.0723" style="stroke:#181818;stroke-width:1.0;" width="10" x="202" y="121.7754"/><rect fill="#FFFFFF" height="29.3105" style="stroke:#181818;stroke-width:1.0;" width="10" x="463" y="151.0859"/><rect fill="#FFFFFF" height="29.3105" style="stroke:#181818;stroke-width:1.0;" width="10" x="621" y="209.707"/><rect fill="#FFFFFF" height="29.3105" style="stroke:#181818;stroke-width:1.0;" width="10" x="763" y="268.3281"/><rect fill="#FFFFFF" height="29.3105" style="stroke:#181818;stroke-width:1.0;" width="10" x="882.5" y="326.9492"/><rect fill="#FFFFFF" height="29.3105" style="stroke:#181818;stroke-width:1.0;" width="10" x="995.5" y="385.5703"/><rect fill="#FFFFFF" height="327.8398" style="stroke:#181818;stroke-width:1.0;" width="10" x="1118.5" y="444.1914"/><rect fill="#FFFFFF" height="323.1953" style="stroke:#181818;stroke-width:1.0;" width="10" x="1241" y="811.3418"/><rect fill="#FFFFFF" height="34.3105" style="stroke:#181818;stroke-width:1.0;" width="10" x="1246" y="992.4277"/><rect fill="#FFFFFF" height="30" style="stroke:#181818;stroke-width:1.0;" width="10" x="1417" y="615.0996"/><rect fill="#FFFFFF" height="30" style="stroke:#181818;stroke-width:1.0;" width="10" x="1499.5" y="555.7891"/><rect fill="#FFFFFF" height="30" style="stroke:#181818;stroke-width:1.0;" width="10" x="1635" y="698.7207"/><rect fill="#FFFFFF" height="30" style="stroke:#181818;stroke-width:1.0;" width="10" x="1635" y="925.1172"/><rect fill="#FFFFFF" height="30" style="stroke:#181818;stroke-width:1.0;" width="10" x="1816.5" y="1068.2266"/><rect fill="none" height="226.5527" style="stroke:#000000;stroke-width:1.5;" width="696" x="1042" y="517.168"/><rect fill="none" height="76.6211" style="stroke:#000000;stroke-width:1.5;" width="676" x="1052" y="660.0996"/><rect fill="none" height="219.7305" style="stroke:#000000;stroke-width:1.5;" width="826" x="1185" y="886.4961"/><line style="stroke:#181818;stroke-width:0.5;stroke-dasharray:5.0,5.0;" x1="207" x2="207" y1="90.4648" y2="1181.8477"/><line style="stroke:#181818;stroke-width:0.5;stroke-dasharray:5.0,5.0;" x1="347" x2="347" y1="90.4648" y2="1181.8477"/><line style="stroke:#181818;stroke-width:0.5;stroke-dasharray:5.0,5.0;" x1="468" x2="468" y1="90.4648" y2="1181.8477"/><line style="stroke:#181818;stroke-width:0.5;stroke-dasharray:5.0,5.0;" x1="626" x2="626" y1="90.4648" y2="1181.8477"/><line style="stroke:#181818;stroke-width:0.5;stroke-dasharray:5.0,5.0;" x1="768" x2="768" y1="90.4648" y2="1181.8477"/><line style="stroke:#181818;stroke-width:0.5;stroke-dasharray:5.0,5.0;" x1="887" x2="887" y1="90.4648" y2="1181.8477"/><line style="stroke:#181818;stroke-width:0.5;stroke-dasharray:5.0,5.0;" x1="1000" x2="1000" y1="90.4648" y2="1181.8477"/><line style="stroke:#181818;stroke-width:0.5;stroke-dasharray:5.0,5.0;" x1="1123" x2="1123" y1="90.4648" y2="1181.8477"/><line style="stroke:#181818;stroke-width:0.5;stroke-dasharray:5.0,5.0;" x1="1246" x2="1246" y1="819.0195" y2="1181.8477"/><line style="stroke:#181818;stroke-width:0.5;stroke-dasharray:5.0,5.0;" x1="1422" x2="1422" y1="90.4648" y2="1181.8477"/><line style="stroke:#181818;stroke-width:0.5;stroke-dasharray:5.0,5.0;" x1="1504" x2="1504" y1="90.4648" y2="1181.8477"/><line style="stroke:#181818;stroke-width:0.5;stroke-dasharray:5.0,5.0;" x1="1640" x2="1640" y1="491.1797" y2="1181.8477"/><line style="stroke:#181818;stroke-width:0.5;stroke-dasharray:5.0,5.0;" x1="1821" x2="1821" y1="868.752" y2="1181.8477"/><line style="stroke:#181818;stroke-width:0.5;stroke-dasharray:5.0,5.0;" x1="1963" x2="1963" y1="1036.1719" y2="1181.8477"/><rect fill="#E3E3E3" height="30.4883" rx="2.5" ry="2.5" style="stroke:#181818;stroke-width:0.5;" width="186" x="114" y="58.9766"/><text fill="#000000" font-family="sans-serif" font-size="14" lengthAdjust="spacing" textLength="172" x="121" y="79.5117">:CompleteTaskController</text><rect fill="#E3E3E3" height="30.4883" rx="2.5" ry="2.5" style="stroke:#181818;stroke-width:0.5;" width="186" x="114" y="1180.8477"/><text fill="#000000" font-family="sans-serif" font-size="14" lengthAdjust="spacing" textLength="172" x="121" y="1201.3828">:CompleteTaskController</text><rect fill="#E3E3E3" height="46.9766" rx="2.5" ry="2.5" style="stroke:#181818;stroke-width:0.5;" width="74" x="310" y="42.4883"/><text fill="#000000" font-family="sans-serif" font-size="14" lengthAdjust="spacing" textLength="52" x="321" y="63.0234">taskDto</text><text fill="#000000" font-family="sans-serif" font-size="14" lengthAdjust="spacing" textLength="60" x="317" y="79.5117">:TaskDto</text><rect fill="#E3E3E3" height="46.9766" rx="2.5" ry="2.5" style="stroke:#181818;stroke-width:0.5;" width="74" x="310" y="1180.8477"/><text fill="#000000" font-family="sans-serif" font-size="14" lengthAdjust="spacing" textLength="52" x="321" y="1201.3828">taskDto</text><text fill="#000000" font-family="sans-serif" font-size="14" lengthAdjust="spacing" textLength="60" x="317" y="1217.8711">:TaskDto</text><rect fill="#E3E3E3" height="30.4883" rx="2.5" ry="2.5" style="stroke:#181818;stroke-width:0.5;" width="148" x="394" y="58.9766"/><text fill="#000000" font-family="sans-serif" font-size="14" lengthAdjust="spacing" textLength="134" x="401" y="79.5117">:ApplicationSession</text><rect fill="#E3E3E3" height="30.4883" rx="2.5" ry="2.5" style="stroke:#181818;stroke-width:0.5;" width="148" x="394" y="1180.8477"/><text fill="#000000" font-family="sans-serif" font-size="14" lengthAdjust="spacing" textLength="134" x="401" y="1201.3828">:ApplicationSession</text><rect fill="#E3E3E3" height="46.9766" rx="2.5" ry="2.5" style="stroke:#181818;stroke-width:0.5;" width="148" x="552" y="42.4883"/><text fill="#000000" font-family="sans-serif" font-size="14" lengthAdjust="spacing" textLength="78" x="587" y="63.0234">appSession</text><text fill="#000000" font-family="sans-serif" font-size="14" lengthAdjust="spacing" textLength="134" x="559" y="79.5117">:ApplicationSession</text><rect fill="#E3E3E3" height="46.9766" rx="2.5" ry="2.5" style="stroke:#181818;stroke-width:0.5;" width="148" x="552" y="1180.8477"/><text fill="#000000" font-family="sans-serif" font-size="14" lengthAdjust="spacing" textLength="78" x="587" y="1201.3828">appSession</text><text fill="#000000" font-family="sans-serif" font-size="14" lengthAdjust="spacing" textLength="134" x="559" y="1217.8711">:ApplicationSession</text><rect fill="#E3E3E3" height="46.9766" rx="2.5" ry="2.5" style="stroke:#181818;stroke-width:0.5;" width="116" x="710" y="42.4883"/><text fill="#000000" font-family="sans-serif" font-size="14" lengthAdjust="spacing" textLength="102" x="717" y="63.0234">currentSession</text><text fill="#000000" font-family="sans-serif" font-size="14" lengthAdjust="spacing" textLength="87" x="724.5" y="79.5117">:UserSession</text><rect fill="#E3E3E3" height="46.9766" rx="2.5" ry="2.5" style="stroke:#181818;stroke-width:0.5;" width="116" x="710" y="1180.8477"/><text fill="#000000" font-family="sans-serif" font-size="14" lengthAdjust="spacing" textLength="102" x="717" y="1201.3828">currentSession</text><text fill="#000000" font-family="sans-serif" font-size="14" lengthAdjust="spacing" textLength="87" x="724.5" y="1217.8711">:UserSession</text><rect fill="#E3E3E3" height="30.4883" rx="2.5" ry="2.5" style="stroke:#181818;stroke-width:0.5;" width="103" x="836" y="58.9766"/><text fill="#000000" font-family="sans-serif" font-size="14" lengthAdjust="spacing" textLength="89" x="843" y="79.5117">:Repositories</text><rect fill="#E3E3E3" height="30.4883" rx="2.5" ry="2.5" style="stroke:#181818;stroke-width:0.5;" width="103" x="836" y="1180.8477"/><text fill="#000000" font-family="sans-serif" font-size="14" lengthAdjust="spacing" textLength="89" x="843" y="1201.3828">:Repositories</text><rect fill="#E3E3E3" height="46.9766" rx="2.5" ry="2.5" style="stroke:#181818;stroke-width:0.5;" width="103" x="949" y="42.4883"/><text fill="#000000" font-family="sans-serif" font-size="14" lengthAdjust="spacing" textLength="82" x="959.5" y="63.0234">repositories</text><text fill="#000000" font-family="sans-serif" font-size="14" lengthAdjust="spacing" textLength="89" x="956" y="79.5117">:Repositories</text><rect fill="#E3E3E3" height="46.9766" rx="2.5" ry="2.5" style="stroke:#181818;stroke-width:0.5;" width="103" x="949" y="1180.8477"/><text fill="#000000" font-family="sans-serif" font-size="14" lengthAdjust="spacing" textLength="82" x="959.5" y="1201.3828">repositories</text><text fill="#000000" font-family="sans-serif" font-size="14" lengthAdjust="spacing" textLength="89" x="956" y="1217.8711">:Repositories</text><rect fill="#E3E3E3" height="46.9766" rx="2.5" ry="2.5" style="stroke:#181818;stroke-width:0.5;" width="123" x="1062" y="42.4883"/><text fill="#000000" font-family="sans-serif" font-size="14" lengthAdjust="spacing" textLength="101" x="1073" y="63.0234">taskRepository</text><text fill="#000000" font-family="sans-serif" font-size="14" lengthAdjust="spacing" textLength="109" x="1069" y="79.5117">:TaskRepository</text><rect fill="#E3E3E3" height="46.9766" rx="2.5" ry="2.5" style="stroke:#181818;stroke-width:0.5;" width="123" x="1062" y="1180.8477"/><text fill="#000000" font-family="sans-serif" font-size="14" lengthAdjust="spacing" textLength="101" x="1073" y="1201.3828">taskRepository</text><text fill="#000000" font-family="sans-serif" font-size="14" lengthAdjust="spacing" textLength="109" x="1069" y="1217.8711">:TaskRepository</text><rect fill="#E3E3E3" height="46.9766" rx="2.5" ry="2.5" style="stroke:#181818;stroke-width:0.5;" width="102" x="1195" y="1180.8477"/><text fill="#000000" font-family="sans-serif" font-size="14" lengthAdjust="spacing" textLength="80" x="1206" y="1201.3828">taskMapper</text><text fill="#000000" font-family="sans-serif" font-size="14" lengthAdjust="spacing" textLength="88" x="1202" y="1217.8711">:TaskMapper</text><rect fill="#E3E3E3" height="46.9766" rx="2.5" ry="2.5" style="stroke:#181818;stroke-width:0.5;" width="50" x="1397" y="42.4883"/><text fill="#000000" font-family="sans-serif" font-size="14" lengthAdjust="spacing" textLength="28" x="1408" y="63.0234">task</text><text fill="#000000" font-family="sans-serif" font-size="14" lengthAdjust="spacing" textLength="36" x="1404" y="79.5117">:Task</text><rect fill="#E3E3E3" height="46.9766" rx="2.5" ry="2.5" style="stroke:#181818;stroke-width:0.5;" width="50" x="1397" y="1180.8477"/><text fill="#000000" font-family="sans-serif" font-size="14" lengthAdjust="spacing" textLength="28" x="1408" y="1201.3828">task</text><text fill="#000000" font-family="sans-serif" font-size="14" lengthAdjust="spacing" textLength="36" x="1404" y="1217.8711">:Task</text><rect fill="#E3E3E3" height="46.9766" rx="2.5" ry="2.5" style="stroke:#181818;stroke-width:0.5;" width="95" x="1457" y="42.4883"/><text fill="#000000" font-family="sans-serif" font-size="14" lengthAdjust="spacing" textLength="51" x="1479" y="63.0234">taskList</text><text fill="#000000" font-family="sans-serif" font-size="14" lengthAdjust="spacing" textLength="81" x="1464" y="79.5117">:List&lt;Task&gt;</text><rect fill="#E3E3E3" height="46.9766" rx="2.5" ry="2.5" style="stroke:#181818;stroke-width:0.5;" width="95" x="1457" y="1180.8477"/><text fill="#000000" font-family="sans-serif" font-size="14" lengthAdjust="spacing" textLength="51" x="1479" y="1201.3828">taskList</text><text fill="#000000" font-family="sans-serif" font-size="14" lengthAdjust="spacing" textLength="81" x="1464" y="1217.8711">:List&lt;Task&gt;</text><rect fill="#E3E3E3" height="46.9766" rx="2.5" ry="2.5" style="stroke:#181818;stroke-width:0.5;" width="156" x="1562" y="1180.8477"/><text fill="#000000" font-family="sans-serif" font-size="14" lengthAdjust="spacing" textLength="142" x="1569" y="1201.3828">CollaboratorTaskList</text><text fill="#000000" font-family="sans-serif" font-size="14" lengthAdjust="spacing" textLength="81" x="1599.5" y="1217.8711">:List&lt;Task&gt;</text><rect fill="#E3E3E3" height="30.4883" rx="2.5" ry="2.5" style="stroke:#181818;stroke-width:0.5;" width="187" x="1728" y="1180.8477"/><text fill="#000000" font-family="sans-serif" font-size="14" lengthAdjust="spacing" textLength="173" x="1735" y="1201.3828">CollaboratorTasksListDto</text><rect fill="#E3E3E3" height="30.4883" rx="2.5" ry="2.5" style="stroke:#181818;stroke-width:0.5;" width="76" x="1925" y="1180.8477"/><text fill="#000000" font-family="sans-serif" font-size="14" lengthAdjust="spacing" textLength="62" x="1932" y="1201.3828">TaskDTO</text><rect fill="#FFFFFF" height="1042.0723" style="stroke:#181818;stroke-width:1.0;" width="10" x="202" y="121.7754"/><rect fill="#FFFFFF" height="29.3105" style="stroke:#181818;stroke-width:1.0;" width="10" x="463" y="151.0859"/><rect fill="#FFFFFF" height="29.3105" style="stroke:#181818;stroke-width:1.0;" width="10" x="621" y="209.707"/><rect fill="#FFFFFF" height="29.3105" style="stroke:#181818;stroke-width:1.0;" width="10" x="763" y="268.3281"/><rect fill="#FFFFFF" height="29.3105" style="stroke:#181818;stroke-width:1.0;" width="10" x="882.5" y="326.9492"/><rect fill="#FFFFFF" height="29.3105" style="stroke:#181818;stroke-width:1.0;" width="10" x="995.5" y="385.5703"/><rect fill="#FFFFFF" height="327.8398" style="stroke:#181818;stroke-width:1.0;" width="10" x="1118.5" y="444.1914"/><rect fill="#FFFFFF" height="323.1953" style="stroke:#181818;stroke-width:1.0;" width="10" x="1241" y="811.3418"/><rect fill="#FFFFFF" height="34.3105" style="stroke:#181818;stroke-width:1.0;" width="10" x="1246" y="992.4277"/><rect fill="#FFFFFF" height="30" style="stroke:#181818;stroke-width:1.0;" width="10" x="1417" y="615.0996"/><rect fill="#FFFFFF" height="30" style="stroke:#181818;stroke-width:1.0;" width="10" x="1499.5" y="555.7891"/><rect fill="#FFFFFF" height="30" style="stroke:#181818;stroke-width:1.0;" width="10" x="1635" y="698.7207"/><rect fill="#FFFFFF" height="30" style="stroke:#181818;stroke-width:1.0;" width="10" x="1635" y="925.1172"/><rect fill="#FFFFFF" height="30" style="stroke:#181818;stroke-width:1.0;" width="10" x="1816.5" y="1068.2266"/><polygon fill="#181818" points="190,117.7754,200,121.7754,190,125.7754,194,121.7754" style="stroke:#181818;stroke-width:1.0;"/><line style="stroke:#181818;stroke-width:1.0;" x1="0" x2="196" y1="121.7754" y2="121.7754"/><text fill="#000000" font-family="sans-serif" font-size="13" font-weight="bold" lengthAdjust="spacing" textLength="9" x="7" y="117.0332">1</text><text fill="#000000" font-family="sans-serif" font-size="13" lengthAdjust="spacing" textLength="65" x="20" y="117.0332">getTasks()</text><polygon fill="#181818" points="451,147.0859,461,151.0859,451,155.0859,455,151.0859" style="stroke:#181818;stroke-width:1.0;"/><line style="stroke:#181818;stroke-width:1.0;" x1="212" x2="457" y1="151.0859" y2="151.0859"/><text fill="#000000" font-family="sans-serif" font-size="13" font-weight="bold" lengthAdjust="spacing" textLength="9" x="219" y="146.3438">2</text><text fill="#000000" font-family="sans-serif" font-size="13" lengthAdjust="spacing" textLength="81" x="232" y="146.3438">getInstance()</text><polygon fill="#181818" points="223,176.3965,213,180.3965,223,184.3965,219,180.3965" style="stroke:#181818;stroke-width:1.0;"/><line style="stroke:#181818;stroke-width:1.0;" x1="217" x2="467" y1="180.3965" y2="180.3965"/><text fill="#000000" font-family="sans-serif" font-size="13" font-weight="bold" lengthAdjust="spacing" textLength="9" x="229" y="175.6543">3</text><text fill="#000000" font-family="sans-serif" font-size="13" lengthAdjust="spacing" textLength="71" x="242" y="175.6543">appSession</text><polygon fill="#181818" points="609,205.707,619,209.707,609,213.707,613,209.707" style="stroke:#181818;stroke-width:1.0;"/><line style="stroke:#181818;stroke-width:1.0;" x1="212" x2="615" y1="209.707" y2="209.707"/><text fill="#000000" font-family="sans-serif" font-size="13" font-weight="bold" lengthAdjust="spacing" textLength="9" x="219" y="204.9648">4</text><text fill="#000000" font-family="sans-serif" font-size="13" lengthAdjust="spacing" textLength="123" x="232" y="204.9648">getCurrentSession()</text><polygon fill="#181818" points="223,235.0176,213,239.0176,223,243.0176,219,239.0176" style="stroke:#181818;stroke-width:1.0;"/><line style="stroke:#181818;stroke-width:1.0;stroke-dasharray:2.0,2.0;" x1="217" x2="625" y1="239.0176" y2="239.0176"/><text fill="#000000" font-family="sans-serif" font-size="13" font-weight="bold" lengthAdjust="spacing" textLength="9" x="229" y="234.2754">5</text><text fill="#000000" font-family="sans-serif" font-size="13" lengthAdjust="spacing" textLength="93" x="242" y="234.2754">currentSession</text><polygon fill="#181818" points="751,264.3281,761,268.3281,751,272.3281,755,268.3281" style="stroke:#181818;stroke-width:1.0;"/><line style="stroke:#181818;stroke-width:1.0;" x1="212" x2="757" y1="268.3281" y2="268.3281"/><text fill="#000000" font-family="sans-serif" font-size="13" font-weight="bold" lengthAdjust="spacing" textLength="9" x="219" y="263.5859">6</text><text fill="#000000" font-family="sans-serif" font-size="13" lengthAdjust="spacing" textLength="142" x="232" y="263.5859">email = getUserEmail()</text><polygon fill="#181818" points="223,293.6387,213,297.6387,223,301.6387,219,297.6387" style="stroke:#181818;stroke-width:1.0;"/><line style="stroke:#181818;stroke-width:1.0;stroke-dasharray:2.0,2.0;" x1="217" x2="767" y1="297.6387" y2="297.6387"/><text fill="#000000" font-family="sans-serif" font-size="13" font-weight="bold" lengthAdjust="spacing" textLength="9" x="229" y="292.8965">7</text><text fill="#000000" font-family="sans-serif" font-size="13" lengthAdjust="spacing" textLength="34" x="242" y="292.8965">email</text><polygon fill="#181818" points="870.5,322.9492,880.5,326.9492,870.5,330.9492,874.5,326.9492" style="stroke:#181818;stroke-width:1.0;"/><line style="stroke:#181818;stroke-width:1.0;" x1="212" x2="876.5" y1="326.9492" y2="326.9492"/><text fill="#000000" font-family="sans-serif" font-size="13" font-weight="bold" lengthAdjust="spacing" textLength="9" x="219" y="322.207">8</text><text fill="#000000" font-family="sans-serif" font-size="13" lengthAdjust="spacing" textLength="81" x="232" y="322.207">getInstance()</text><polygon fill="#181818" points="223,352.2598,213,356.2598,223,360.2598,219,356.2598" style="stroke:#181818;stroke-width:1.0;"/><line style="stroke:#181818;stroke-width:1.0;stroke-dasharray:2.0,2.0;" x1="217" x2="886.5" y1="356.2598" y2="356.2598"/><text fill="#000000" font-family="sans-serif" font-size="13" font-weight="bold" lengthAdjust="spacing" textLength="9" x="229" y="351.5176">9</text><text fill="#000000" font-family="sans-serif" font-size="13" lengthAdjust="spacing" textLength="75" x="242" y="351.5176">repositories</text><polygon fill="#181818" points="983.5,381.5703,993.5,385.5703,983.5,389.5703,987.5,385.5703" style="stroke:#181818;stroke-width:1.0;"/><line style="stroke:#181818;stroke-width:1.0;" x1="212" x2="989.5" y1="385.5703" y2="385.5703"/><text fill="#000000" font-family="sans-serif" font-size="13" font-weight="bold" lengthAdjust="spacing" textLength="18" x="219" y="380.8281">10</text><text fill="#000000" font-family="sans-serif" font-size="13" lengthAdjust="spacing" textLength="132" x="241" y="380.8281">getTasksRepository()</text><polygon fill="#181818" points="223,410.8809,213,414.8809,223,418.8809,219,414.8809" style="stroke:#181818;stroke-width:1.0;"/><line style="stroke:#181818;stroke-width:1.0;stroke-dasharray:2.0,2.0;" x1="217" x2="999.5" y1="414.8809" y2="414.8809"/><text fill="#000000" font-family="sans-serif" font-size="13" font-weight="bold" lengthAdjust="spacing" textLength="18" x="229" y="410.1387">11</text><text fill="#000000" font-family="sans-serif" font-size="13" lengthAdjust="spacing" textLength="97" x="251" y="410.1387">TaskRepository</text><polygon fill="#181818" points="1106.5,440.1914,1116.5,444.1914,1106.5,448.1914,1110.5,444.1914" style="stroke:#181818;stroke-width:1.0;"/><line style="stroke:#181818;stroke-width:1.0;" x1="212" x2="1112.5" y1="444.1914" y2="444.1914"/><text fill="#000000" font-family="sans-serif" font-size="13" font-weight="bold" lengthAdjust="spacing" textLength="18" x="219" y="439.4492">12</text><text fill="#000000" font-family="sans-serif" font-size="13" lengthAdjust="spacing" textLength="99" x="241" y="439.4492">getTasks(email)</text><polygon fill="#181818" points="1550,469.502,1560,473.502,1550,477.502,1554,473.502" style="stroke:#181818;stroke-width:1.0;"/><line style="stroke:#181818;stroke-width:1.0;stroke-dasharray:2.0,2.0;" x1="1128.5" x2="1556" y1="473.502" y2="473.502"/><text fill="#000000" font-family="sans-serif" font-size="13" font-weight="bold" lengthAdjust="spacing" textLength="18" x="1135.5" y="468.7598">13</text><text fill="#000000" font-family="sans-serif" font-size="13" lengthAdjust="spacing" textLength="46" x="1157.5" y="468.7598">create()</text><rect fill="#E3E3E3" height="46.9766" rx="2.5" ry="2.5" style="stroke:#181818;stroke-width:0.5;" width="156" x="1562" y="452.1914"/><text fill="#000000" font-family="sans-serif" font-size="14" lengthAdjust="spacing" textLength="142" x="1569" y="472.7266">CollaboratorTaskList</text><text fill="#000000" font-family="sans-serif" font-size="14" lengthAdjust="spacing" textLength="81" x="1599.5" y="489.2148">:List&lt;Task&gt;</text><path d="M1042,517.168 L1116,517.168 L1116,524.4785 L1106,534.4785 L1042,534.4785 L1042,517.168 " fill="#EEEEEE" style="stroke:#000000;stroke-width:1.5;"/><rect fill="none" height="226.5527" style="stroke:#000000;stroke-width:1.5;" width="696" x="1042" y="517.168"/><text fill="#000000" font-family="sans-serif" font-size="13" font-weight="bold" lengthAdjust="spacing" textLength="29" x="1057" y="530.7363">loop</text><text fill="#000000" font-family="sans-serif" font-size="11" font-weight="bold" lengthAdjust="spacing" textLength="126" x="1131" y="529.8027">[for each known Task]</text><polygon fill="#181818" points="1487.5,551.7891,1497.5,555.7891,1487.5,559.7891,1491.5,555.7891" style="stroke:#181818;stroke-width:1.0;"/><line style="stroke:#181818;stroke-width:1.0;" x1="1128.5" x2="1493.5" y1="555.7891" y2="555.7891"/><text fill="#000000" font-family="sans-serif" font-size="13" font-weight="bold" lengthAdjust="spacing" textLength="18" x="1135.5" y="551.0469">14</text><text fill="#000000" font-family="sans-serif" font-size="13" lengthAdjust="spacing" textLength="77" x="1157.5" y="551.0469">task = get(i)</text><polygon fill="#181818" points="1405,611.0996,1415,615.0996,1405,619.0996,1409,615.0996" style="stroke:#181818;stroke-width:1.0;"/><line style="stroke:#181818;stroke-width:1.0;" x1="1128.5" x2="1411" y1="615.0996" y2="615.0996"/><text fill="#000000" font-family="sans-serif" font-size="13" font-weight="bold" lengthAdjust="spacing" textLength="18" x="1135.5" y="610.3574">15</text><text fill="#000000" font-family="sans-serif" font-size="13" lengthAdjust="spacing" textLength="222" x="1157.5" y="610.3574">Collaborator = hasUserEmail(email)</text><path d="M1052,660.0996 L1119,660.0996 L1119,667.4102 L1109,677.4102 L1052,677.4102 L1052,660.0996 " fill="#EEEEEE" style="stroke:#000000;stroke-width:1.5;"/><rect fill="none" height="76.6211" style="stroke:#000000;stroke-width:1.5;" width="676" x="1052" y="660.0996"/><text fill="#000000" font-family="sans-serif" font-size="13" font-weight="bold" lengthAdjust="spacing" textLength="22" x="1067" y="673.668">opt</text><text fill="#000000" font-family="sans-serif" font-size="11" font-weight="bold" lengthAdjust="spacing" textLength="84" x="1134" y="672.7344">[hasUserEmail]</text><polygon fill="#181818" points="1623,694.7207,1633,698.7207,1623,702.7207,1627,698.7207" style="stroke:#181818;stroke-width:1.0;"/><line style="stroke:#181818;stroke-width:1.0;" x1="1128.5" x2="1629" y1="698.7207" y2="698.7207"/><text fill="#000000" font-family="sans-serif" font-size="13" font-weight="bold" lengthAdjust="spacing" textLength="18" x="1135.5" y="693.9785">16</text><text fill="#000000" font-family="sans-serif" font-size="13" lengthAdjust="spacing" textLength="58" x="1157.5" y="693.9785">add(task)</text><polygon fill="#181818" points="223,768.0313,213,772.0313,223,776.0313,219,772.0313" style="stroke:#181818;stroke-width:1.0;"/><line style="stroke:#181818;stroke-width:1.0;stroke-dasharray:2.0,2.0;" x1="217" x2="1122.5" y1="772.0313" y2="772.0313"/><text fill="#000000" font-family="sans-serif" font-size="13" font-weight="bold" lengthAdjust="spacing" textLength="18" x="229" y="767.2891">17</text><text fill="#000000" font-family="sans-serif" font-size="13" lengthAdjust="spacing" textLength="161" x="251" y="767.2891">CollaboratorTasksListDto</text><polygon fill="#181818" points="1183,797.3418,1193,801.3418,1183,805.3418,1187,801.3418" style="stroke:#181818;stroke-width:1.0;"/><line style="stroke:#181818;stroke-width:1.0;" x1="212" x2="1189" y1="801.3418" y2="801.3418"/><text fill="#000000" font-family="sans-serif" font-size="13" font-weight="bold" lengthAdjust="spacing" textLength="18" x="219" y="796.5996">18</text><text fill="#000000" font-family="sans-serif" font-size="13" lengthAdjust="spacing" textLength="210" x="241" y="796.5996">toDTO(CollaboratorTasksListDto)</text><rect fill="#E3E3E3" height="46.9766" rx="2.5" ry="2.5" style="stroke:#181818;stroke-width:0.5;" width="102" x="1195" y="780.0313"/><text fill="#000000" font-family="sans-serif" font-size="14" lengthAdjust="spacing" textLength="80" x="1206" y="800.5664">taskMapper</text><text fill="#000000" font-family="sans-serif" font-size="14" lengthAdjust="spacing" textLength="88" x="1202" y="817.0547">:TaskMapper</text><polygon fill="#181818" points="1716,855.3184,1726,859.3184,1716,863.3184,1720,859.3184" style="stroke:#181818;stroke-width:1.0;"/><line style="stroke:#181818;stroke-width:1.0;stroke-dasharray:2.0,2.0;" x1="1251" x2="1722" y1="859.3184" y2="859.3184"/><text fill="#000000" font-family="sans-serif" font-size="13" font-weight="bold" lengthAdjust="spacing" textLength="18" x="1258" y="854.5762">19</text><text fill="#000000" font-family="sans-serif" font-size="13" lengthAdjust="spacing" textLength="46" x="1280" y="854.5762">create()</text><rect fill="#E3E3E3" height="30.4883" rx="2.5" ry="2.5" style="stroke:#181818;stroke-width:0.5;" width="187" x="1728" y="838.0078"/><text fill="#000000" font-family="sans-serif" font-size="14" lengthAdjust="spacing" textLength="173" x="1735" y="858.543">CollaboratorTasksListDto</text><path d="M1185,886.4961 L1259,886.4961 L1259,893.8066 L1249,903.8066 L1185,903.8066 L1185,886.4961 " fill="#EEEEEE" style="stroke:#000000;stroke-width:1.5;"/><rect fill="none" height="219.7305" style="stroke:#000000;stroke-width:1.5;" width="826" x="1185" y="886.4961"/><text fill="#000000" font-family="sans-serif" font-size="13" font-weight="bold" lengthAdjust="spacing" textLength="29" x="1200" y="900.0645">loop</text><text fill="#000000" font-family="sans-serif" font-size="11" font-weight="bold" lengthAdjust="spacing" textLength="254" x="1274" y="899.1309">[for each object in CollaboratorTasksListDto]</text><polygon fill="#181818" points="1623,921.1172,1633,925.1172,1623,929.1172,1627,925.1172" style="stroke:#181818;stroke-width:1.0;"/><line style="stroke:#181818;stroke-width:1.0;" x1="1251" x2="1629" y1="925.1172" y2="925.1172"/><text fill="#000000" font-family="sans-serif" font-size="13" font-weight="bold" lengthAdjust="spacing" textLength="18" x="1258" y="920.375">20</text><text fill="#000000" font-family="sans-serif" font-size="13" lengthAdjust="spacing" textLength="70" x="1280" y="920.375">obj = get(i)</text><line style="stroke:#181818;stroke-width:1.0;" x1="1251" x2="1298" y1="979.4277" y2="979.4277"/><line style="stroke:#181818;stroke-width:1.0;" x1="1298" x2="1298" y1="979.4277" y2="992.4277"/><line style="stroke:#181818;stroke-width:1.0;" x1="1257" x2="1298" y1="992.4277" y2="992.4277"/><polygon fill="#181818" points="1267,988.4277,1257,992.4277,1267,996.4277,1263,992.4277" style="stroke:#181818;stroke-width:1.0;"/><text fill="#000000" font-family="sans-serif" font-size="13" font-weight="bold" lengthAdjust="spacing" textLength="18" x="1263" y="974.6855">21</text><text fill="#000000" font-family="sans-serif" font-size="13" lengthAdjust="spacing" textLength="130" x="1285" y="974.6855">objDto = toDTO(obj)</text><polygon fill="#181818" points="1913,1022.7383,1923,1026.7383,1913,1030.7383,1917,1026.7383" style="stroke:#181818;stroke-width:1.0;"/><line style="stroke:#181818;stroke-width:1.0;" x1="1251" x2="1919" y1="1026.7383" y2="1026.7383"/><text fill="#000000" font-family="sans-serif" font-size="13" font-weight="bold" lengthAdjust="spacing" textLength="18" x="1258" y="1021.9961">22</text><text fill="#000000" font-family="sans-serif" font-size="13" lengthAdjust="spacing" textLength="58" x="1280" y="1021.9961">create(...)</text><rect fill="#E3E3E3" height="30.4883" rx="2.5" ry="2.5" style="stroke:#181818;stroke-width:0.5;" width="76" x="1925" y="1005.4277"/><text fill="#000000" font-family="sans-serif" font-size="14" lengthAdjust="spacing" textLength="62" x="1932" y="1025.9629">TaskDTO</text><polygon fill="#181818" points="1804.5,1064.2266,1814.5,1068.2266,1804.5,1072.2266,1808.5,1068.2266" style="stroke:#181818;stroke-width:1.0;"/><line style="stroke:#181818;stroke-width:1.0;" x1="1251" x2="1810.5" y1="1068.2266" y2="1068.2266"/><text fill="#000000" font-family="sans-serif" font-size="13" font-weight="bold" lengthAdjust="spacing" textLength="18" x="1258" y="1063.4844">23</text><text fill="#000000" font-family="sans-serif" font-size="13" lengthAdjust="spacing" textLength="74" x="1280" y="1063.4844">add(objDto)</text><polygon fill="#181818" points="223,1130.5371,213,1134.5371,223,1138.5371,219,1134.5371" style="stroke:#181818;stroke-width:1.0;"/><line style="stroke:#181818;stroke-width:1.0;stroke-dasharray:2.0,2.0;" x1="217" x2="1245" y1="1134.5371" y2="1134.5371"/><text fill="#000000" font-family="sans-serif" font-size="13" font-weight="bold" lengthAdjust="spacing" textLength="18" x="229" y="1129.7949">24</text><text fill="#000000" font-family="sans-serif" font-size="13" lengthAdjust="spacing" textLength="161" x="251" y="1129.7949">CollaboratorTasksListDto</text><polygon fill="#181818" points="11,1159.8477,1,1163.8477,11,1167.8477,7,1163.8477" style="stroke:#181818;stroke-width:1.0;"/><line style="stroke:#181818;stroke-width:1.0;stroke-dasharray:2.0,2.0;" x1="5" x2="206" y1="1163.8477" y2="1163.8477"/><text fill="#000000" font-family="sans-serif" font-size="13" font-weight="bold" lengthAdjust="spacing" textLength="18" x="17" y="1159.1055">25</text><text fill="#000000" font-family="sans-serif" font-size="13" lengthAdjust="spacing" textLength="161" x="39" y="1159.1055">CollaboratorTasksListDto</text><!--SRC=[jLXTRzem57tFhx3w19L0qzw6kaeLxKEbRgqQ-ZPfCi45Zs17jbdLVxzxxNmu8T5m4lm2Jk_NERu-brJlkSYeeWToa48cEoKFZ1XrP94k_vBHP4-tB3QVAIEA9OQARUeRw1tTo0ykjkITfff54N7BS0CUR_6Nhz_8ZBooHAeDCJj64dd8KcQu54I-4qeCrVjv5D6ZaU9uM3CLHH64DZpX6HM6N2sMpeEjm78fXL4oJPcw8bIJvUhrgMwDuUwD_2KMA_VDskNV6u7liYpb2SLQOgOrV5ZZttSlBtLBccMv0SJjy3fnIevACM4gnpVDbEyHFyJnu_FFHb6lB9EQ6wauqzQiVF0PSoGVUAgxACy3qfm4U7cwMvsIL8NDkQeUb9HLZqxzVm0fJEM-RbFwkUsfJsvjxN1_Ql74jG4h_BX1qzlI5X_LxPVG1tGj5OK2Lvs-JIjj0qLbe-PhTckRYIp8bXbhDvdMJMXY-5zgc6kwXZikwmzni7zic4UXuRuah1cfSvKfR0kIinUQ5mWMfEhMCqDiM3tncMu5tWBkijRmuQ03KkEoc4lGzTiM3hm7xlp-BWWxK9wIxyW1tl47t8R3B-GWW8BSnQF1bXAEFY1tWRv5biZ0hczJkW0ssYggcF5LCfoW0QKLXA4CU_9IHGmdoYfw03CszQoIk8Qs1xCHbB_0Nq_g2wrjsca0davY6i06XCJLgDWIs3PDhgy1JQ8OL01dEJ1fAcL6tgKYGFUEx8Ny4BQGWM7RyDoMWnNgnwzEmoPyEaAoyapAuJqyfjU2PTIByGAS-ASDtEoehlHzSDEs4ZK-IMCG93DJ0pz2o7RUMwyN70JTR2O8PZfIvkgtNEklmt6IU0TngJHCRF1mXfunXa7T2OdJ9evkkhI2nRUlODhwoRa_SDoRY1Le8-zNpvEkue9diFUU4yYQy-eU9r1DxubIdnvo_GTUsGaNGy-ahVpksmff-qwI_zoOw0AtS105tixY1ae1kcirsFQ6tw-xkck4Uh2dyfQQp-VJOLJsh- -C5a8IdUOxHiTj8kpw2_HHZx1zPTSNa54aD_HmRsQpVfbz4l6_AFy0]--></g></svg>