<?xml version="1.0" encoding="us-ascii" standalone="no"?><svg xmlns="http://www.w3.org/2000/svg" xmlns:xlink="http://www.w3.org/1999/xlink" contentStyleType="text/css" height="1311px" preserveAspectRatio="none" style="width:1907px;height:1311px;background:#FFFFFF;" version="1.1" viewBox="0 0 1907 1311" width="1907px" zoomAndPan="magnify"><defs/><g><text fill="#000000" font-family="sans-serif" font-size="14" font-weight="bold" lengthAdjust="spacing" textLength="284" x="811" y="30.1074">US024 - Postpone an entry in the agenda</text><rect fill="#FFFFFF" height="1076.6426" style="stroke:#181818;stroke-width:1.0;" width="10" x="42" y="133.2422"/><rect fill="#FFFFFF" height="760.0234" style="stroke:#181818;stroke-width:1.0;" width="10" x="342" y="156.5332"/><rect fill="#FFFFFF" height="31.291" style="stroke:#181818;stroke-width:1.0;" width="10" x="342" y="947.8477"/><rect fill="#FFFFFF" height="199.4551" style="stroke:#181818;stroke-width:1.0;" width="10" x="342" y="1010.4297"/><rect fill="#FFFFFF" height="219.0371" style="stroke:#181818;stroke-width:1.0;" width="10" x="659" y="231.4453"/><rect fill="#FFFFFF" height="403.4922" style="stroke:#181818;stroke-width:1.0;" width="10" x="659" y="481.7734"/><rect fill="#FFFFFF" height="136.873" style="stroke:#181818;stroke-width:1.0;" width="10" x="659" y="1041.7207"/><rect fill="#FFFFFF" height="31.291" style="stroke:#181818;stroke-width:1.0;" width="10" x="876" y="513.0645"/><rect fill="#FFFFFF" height="30" style="stroke:#181818;stroke-width:1.0;" width="10" x="970" y="1148.5938"/><rect fill="#FFFFFF" height="31.291" style="stroke:#181818;stroke-width:1.0;" width="10" x="1084" y="262.7363"/><rect fill="#FFFFFF" height="31.291" style="stroke:#181818;stroke-width:1.0;" width="10" x="1231" y="325.3184"/><rect fill="#FFFFFF" height="31.291" style="stroke:#181818;stroke-width:1.0;" width="10" x="1349" y="740.1016"/><rect fill="#FFFFFF" height="31.291" style="stroke:#181818;stroke-width:1.0;" width="10" x="1453" y="387.9004"/><rect fill="#FFFFFF" height="31.291" style="stroke:#181818;stroke-width:1.0;" width="10" x="1566" y="575.6465"/><rect fill="#FFFFFF" height="215.7461" style="stroke:#181818;stroke-width:1.0;" width="10" x="1683" y="638.2285"/><rect fill="#FFFFFF" height="138.1641" style="stroke:#181818;stroke-width:1.0;" width="10" x="1688" y="677.5195"/><rect fill="#FFFFFF" height="61.291" style="stroke:#181818;stroke-width:1.0;" width="10" x="1683" y="1117.3027"/><rect fill="none" height="81.873" style="stroke:#000000;stroke-width:1.5;" width="452" x="1304.5" y="697.5195"/><line style="stroke:#181818;stroke-width:0.5;stroke-dasharray:5.0,5.0;" x1="47" x2="47" y1="123.2422" y2="1227.8848"/><line style="stroke:#181818;stroke-width:0.5;stroke-dasharray:5.0,5.0;" x1="347" x2="347" y1="123.2422" y2="1227.8848"/><line style="stroke:#181818;stroke-width:0.5;stroke-dasharray:5.0,5.0;" x1="664" x2="664" y1="196.3438" y2="1227.8848"/><line style="stroke:#181818;stroke-width:0.5;stroke-dasharray:5.0,5.0;" x1="880.5" x2="880.5" y1="123.2422" y2="1227.8848"/><line style="stroke:#181818;stroke-width:0.5;stroke-dasharray:5.0,5.0;" x1="974.5" x2="974.5" y1="123.2422" y2="1227.8848"/><line style="stroke:#181818;stroke-width:0.5;stroke-dasharray:5.0,5.0;" x1="1088.5" x2="1088.5" y1="123.2422" y2="1227.8848"/><line style="stroke:#181818;stroke-width:0.5;stroke-dasharray:5.0,5.0;" x1="1235.5" x2="1235.5" y1="123.2422" y2="1227.8848"/><line style="stroke:#181818;stroke-width:0.5;stroke-dasharray:5.0,5.0;" x1="1353.5" x2="1353.5" y1="123.2422" y2="1227.8848"/><line style="stroke:#181818;stroke-width:0.5;stroke-dasharray:5.0,5.0;" x1="1457.5" x2="1457.5" y1="123.2422" y2="1227.8848"/><line style="stroke:#181818;stroke-width:0.5;stroke-dasharray:5.0,5.0;" x1="1570.5" x2="1570.5" y1="123.2422" y2="1227.8848"/><line style="stroke:#181818;stroke-width:0.5;stroke-dasharray:5.0,5.0;" x1="1687.5" x2="1687.5" y1="123.2422" y2="1227.8848"/><text fill="#000000" font-family="sans-serif" font-size="14" lengthAdjust="spacing" textLength="78" x="5" y="119.7285">Collaborator</text><ellipse cx="47" cy="53.1211" fill="#E3E3E3" rx="8" ry="8" style="stroke:#181818;stroke-width:0.5;"/><path d="M47,61.1211 L47,88.1211 M34,69.1211 L60,69.1211 M47,88.1211 L34,103.1211 M47,88.1211 L60,103.1211 " fill="none" style="stroke:#181818;stroke-width:0.5;"/><text fill="#000000" font-family="sans-serif" font-size="14" lengthAdjust="spacing" textLength="78" x="5" y="1241.9922">Collaborator</text><ellipse cx="47" cy="1254.0059" fill="#E3E3E3" rx="8" ry="8" style="stroke:#181818;stroke-width:0.5;"/><path d="M47,1262.0059 L47,1289.0059 M34,1270.0059 L60,1270.0059 M47,1289.0059 L34,1304.0059 M47,1289.0059 L60,1304.0059 " fill="none" style="stroke:#181818;stroke-width:0.5;"/><rect fill="#E3E3E3" height="32.6211" rx="2.5" ry="2.5" style="stroke:#181818;stroke-width:0.5;" width="120" x="287" y="89.6211"/><text fill="#000000" font-family="sans-serif" font-size="14" lengthAdjust="spacing" textLength="106" x="294" y="111.7285">:ChangeStatusUI</text><rect fill="#E3E3E3" height="32.6211" rx="2.5" ry="2.5" style="stroke:#181818;stroke-width:0.5;" width="120" x="287" y="1226.8848"/><text fill="#000000" font-family="sans-serif" font-size="14" lengthAdjust="spacing" textLength="106" x="294" y="1248.9922">:ChangeStatusUI</text><rect fill="#E3E3E3" height="32.6211" rx="2.5" ry="2.5" style="stroke:#181818;stroke-width:0.5;" width="170" x="579" y="1226.8848"/><text fill="#000000" font-family="sans-serif" font-size="14" lengthAdjust="spacing" textLength="156" x="586" y="1248.9922">:ChangeStatusController</text><rect fill="#E3E3E3" height="32.6211" rx="2.5" ry="2.5" style="stroke:#181818;stroke-width:0.5;" width="97" x="832.5" y="89.6211"/><text fill="#000000" font-family="sans-serif" font-size="14" lengthAdjust="spacing" textLength="83" x="839.5" y="111.7285">:Repositories</text><rect fill="#E3E3E3" height="32.6211" rx="2.5" ry="2.5" style="stroke:#181818;stroke-width:0.5;" width="97" x="832.5" y="1226.8848"/><text fill="#000000" font-family="sans-serif" font-size="14" lengthAdjust="spacing" textLength="83" x="839.5" y="1248.9922">:Repositories</text><rect fill="#E3E3E3" height="51.2422" rx="2.5" ry="2.5" style="stroke:#181818;stroke-width:0.5;" width="71" x="939.5" y="71"/><text fill="#000000" font-family="sans-serif" font-size="14" lengthAdjust="spacing" textLength="48" x="951" y="93.1074">taskDto</text><text fill="#000000" font-family="sans-serif" font-size="14" lengthAdjust="spacing" textLength="57" x="946.5" y="111.7285">:TaskDto</text><rect fill="#E3E3E3" height="51.2422" rx="2.5" ry="2.5" style="stroke:#181818;stroke-width:0.5;" width="71" x="939.5" y="1226.8848"/><text fill="#000000" font-family="sans-serif" font-size="14" lengthAdjust="spacing" textLength="48" x="951" y="1248.9922">taskDto</text><text fill="#000000" font-family="sans-serif" font-size="14" lengthAdjust="spacing" textLength="57" x="946.5" y="1267.6133">:TaskDto</text><rect fill="#E3E3E3" height="32.6211" rx="2.5" ry="2.5" style="stroke:#181818;stroke-width:0.5;" width="137" x="1020.5" y="89.6211"/><text fill="#000000" font-family="sans-serif" font-size="14" lengthAdjust="spacing" textLength="123" x="1027.5" y="111.7285">:ApplicationSession</text><rect fill="#E3E3E3" height="32.6211" rx="2.5" ry="2.5" style="stroke:#181818;stroke-width:0.5;" width="137" x="1020.5" y="1226.8848"/><text fill="#000000" font-family="sans-serif" font-size="14" lengthAdjust="spacing" textLength="123" x="1027.5" y="1248.9922">:ApplicationSession</text><rect fill="#E3E3E3" height="51.2422" rx="2.5" ry="2.5" style="stroke:#181818;stroke-width:0.5;" width="137" x="1167.5" y="71"/><text fill="#000000" font-family="sans-serif" font-size="14" lengthAdjust="spacing" textLength="74" x="1199" y="93.1074">appSession</text><text fill="#000000" font-family="sans-serif" font-size="14" lengthAdjust="spacing" textLength="123" x="1174.5" y="111.7285">:ApplicationSession</text><rect fill="#E3E3E3" height="51.2422" rx="2.5" ry="2.5" style="stroke:#181818;stroke-width:0.5;" width="137" x="1167.5" y="1226.8848"/><text fill="#000000" font-family="sans-serif" font-size="14" lengthAdjust="spacing" textLength="74" x="1199" y="1248.9922">appSession</text><text fill="#000000" font-family="sans-serif" font-size="14" lengthAdjust="spacing" textLength="123" x="1174.5" y="1267.6133">:ApplicationSession</text><rect fill="#E3E3E3" height="51.2422" rx="2.5" ry="2.5" style="stroke:#181818;stroke-width:0.5;" width="79" x="1314.5" y="71"/><text fill="#000000" font-family="sans-serif" font-size="14" lengthAdjust="spacing" textLength="56" x="1326" y="93.1074">taskDTO</text><text fill="#000000" font-family="sans-serif" font-size="14" lengthAdjust="spacing" textLength="65" x="1321.5" y="111.7285">:TaskDTO</text><rect fill="#E3E3E3" height="51.2422" rx="2.5" ry="2.5" style="stroke:#181818;stroke-width:0.5;" width="79" x="1314.5" y="1226.8848"/><text fill="#000000" font-family="sans-serif" font-size="14" lengthAdjust="spacing" textLength="56" x="1326" y="1248.9922">taskDTO</text><text fill="#000000" font-family="sans-serif" font-size="14" lengthAdjust="spacing" textLength="65" x="1321.5" y="1267.6133">:TaskDTO</text><rect fill="#E3E3E3" height="51.2422" rx="2.5" ry="2.5" style="stroke:#181818;stroke-width:0.5;" width="109" x="1403.5" y="71"/><text fill="#000000" font-family="sans-serif" font-size="14" lengthAdjust="spacing" textLength="95" x="1410.5" y="93.1074">currentSession</text><text fill="#000000" font-family="sans-serif" font-size="14" lengthAdjust="spacing" textLength="83" x="1416.5" y="111.7285">:UserSession</text><rect fill="#E3E3E3" height="51.2422" rx="2.5" ry="2.5" style="stroke:#181818;stroke-width:0.5;" width="109" x="1403.5" y="1226.8848"/><text fill="#000000" font-family="sans-serif" font-size="14" lengthAdjust="spacing" textLength="95" x="1410.5" y="1248.9922">currentSession</text><text fill="#000000" font-family="sans-serif" font-size="14" lengthAdjust="spacing" textLength="83" x="1416.5" y="1267.6133">:UserSession</text><rect fill="#E3E3E3" height="51.2422" rx="2.5" ry="2.5" style="stroke:#181818;stroke-width:0.5;" width="97" x="1522.5" y="71"/><text fill="#000000" font-family="sans-serif" font-size="14" lengthAdjust="spacing" textLength="74" x="1534" y="93.1074">repositories</text><text fill="#000000" font-family="sans-serif" font-size="14" lengthAdjust="spacing" textLength="83" x="1529.5" y="111.7285">:Repositories</text><rect fill="#E3E3E3" height="51.2422" rx="2.5" ry="2.5" style="stroke:#181818;stroke-width:0.5;" width="97" x="1522.5" y="1226.8848"/><text fill="#000000" font-family="sans-serif" font-size="14" lengthAdjust="spacing" textLength="74" x="1534" y="1248.9922">repositories</text><text fill="#000000" font-family="sans-serif" font-size="14" lengthAdjust="spacing" textLength="83" x="1529.5" y="1267.6133">:Repositories</text><rect fill="#E3E3E3" height="51.2422" rx="2.5" ry="2.5" style="stroke:#181818;stroke-width:0.5;" width="117" x="1629.5" y="71"/><text fill="#000000" font-family="sans-serif" font-size="14" lengthAdjust="spacing" textLength="94" x="1641" y="93.1074">taskRepository</text><text fill="#000000" font-family="sans-serif" font-size="14" lengthAdjust="spacing" textLength="103" x="1636.5" y="111.7285">:TaskRepository</text><rect fill="#E3E3E3" height="51.2422" rx="2.5" ry="2.5" style="stroke:#181818;stroke-width:0.5;" width="117" x="1629.5" y="1226.8848"/><text fill="#000000" font-family="sans-serif" font-size="14" lengthAdjust="spacing" textLength="94" x="1641" y="1248.9922">taskRepository</text><text fill="#000000" font-family="sans-serif" font-size="14" lengthAdjust="spacing" textLength="103" x="1636.5" y="1267.6133">:TaskRepository</text><rect fill="#FFFFFF" height="1076.6426" style="stroke:#181818;stroke-width:1.0;" width="10" x="42" y="133.2422"/><rect fill="#FFFFFF" height="760.0234" style="stroke:#181818;stroke-width:1.0;" width="10" x="342" y="156.5332"/><rect fill="#FFFFFF" height="31.291" style="stroke:#181818;stroke-width:1.0;" width="10" x="342" y="947.8477"/><rect fill="#FFFFFF" height="199.4551" style="stroke:#181818;stroke-width:1.0;" width="10" x="342" y="1010.4297"/><rect fill="#FFFFFF" height="219.0371" style="stroke:#181818;stroke-width:1.0;" width="10" x="659" y="231.4453"/><rect fill="#FFFFFF" height="403.4922" style="stroke:#181818;stroke-width:1.0;" width="10" x="659" y="481.7734"/><rect fill="#FFFFFF" height="136.873" style="stroke:#181818;stroke-width:1.0;" width="10" x="659" y="1041.7207"/><rect fill="#FFFFFF" height="31.291" style="stroke:#181818;stroke-width:1.0;" width="10" x="876" y="513.0645"/><rect fill="#FFFFFF" height="30" style="stroke:#181818;stroke-width:1.0;" width="10" x="970" y="1148.5938"/><rect fill="#FFFFFF" height="31.291" style="stroke:#181818;stroke-width:1.0;" width="10" x="1084" y="262.7363"/><rect fill="#FFFFFF" height="31.291" style="stroke:#181818;stroke-width:1.0;" width="10" x="1231" y="325.3184"/><rect fill="#FFFFFF" height="31.291" style="stroke:#181818;stroke-width:1.0;" width="10" x="1349" y="740.1016"/><rect fill="#FFFFFF" height="31.291" style="stroke:#181818;stroke-width:1.0;" width="10" x="1453" y="387.9004"/><rect fill="#FFFFFF" height="31.291" style="stroke:#181818;stroke-width:1.0;" width="10" x="1566" y="575.6465"/><rect fill="#FFFFFF" height="215.7461" style="stroke:#181818;stroke-width:1.0;" width="10" x="1683" y="638.2285"/><rect fill="#FFFFFF" height="138.1641" style="stroke:#181818;stroke-width:1.0;" width="10" x="1688" y="677.5195"/><rect fill="#FFFFFF" height="61.291" style="stroke:#181818;stroke-width:1.0;" width="10" x="1683" y="1117.3027"/><polygon fill="#181818" points="330,152.5332,340,156.5332,330,160.5332,334,156.5332" style="stroke:#181818;stroke-width:1.0;"/><line style="stroke:#181818;stroke-width:1.0;" x1="52" x2="336" y1="156.5332" y2="156.5332"/><text fill="#000000" font-family="sans-serif" font-size="13" font-weight="bold" lengthAdjust="spacing" textLength="7" x="59" y="151.2705">1</text><text fill="#000000" font-family="sans-serif" font-size="13" lengthAdjust="spacing" textLength="230" x="70" y="151.2705">asks to change task status to complete</text><polygon fill="#181818" points="567,183.8242,577,187.8242,567,191.8242,571,187.8242" style="stroke:#181818;stroke-width:1.0;"/><line style="stroke:#181818;stroke-width:1.0;" x1="352" x2="573" y1="187.8242" y2="187.8242"/><text fill="#000000" font-family="sans-serif" font-size="13" font-weight="bold" lengthAdjust="spacing" textLength="7" x="359" y="182.5615">2</text><text fill="#000000" font-family="sans-serif" font-size="13" lengthAdjust="spacing" textLength="36" x="370" y="182.5615">create</text><rect fill="#E3E3E3" height="32.6211" rx="2.5" ry="2.5" style="stroke:#181818;stroke-width:0.5;" width="170" x="579" y="164.5332"/><text fill="#000000" font-family="sans-serif" font-size="14" lengthAdjust="spacing" textLength="156" x="586" y="186.6406">:ChangeStatusController</text><polygon fill="#181818" points="647,227.4453,657,231.4453,647,235.4453,651,231.4453" style="stroke:#181818;stroke-width:1.0;"/><line style="stroke:#181818;stroke-width:1.0;" x1="352" x2="653" y1="231.4453" y2="231.4453"/><text fill="#000000" font-family="sans-serif" font-size="13" font-weight="bold" lengthAdjust="spacing" textLength="7" x="359" y="226.1826">3</text><text fill="#000000" font-family="sans-serif" font-size="13" lengthAdjust="spacing" textLength="128" x="370" y="226.1826">getEmailCollaborator()</text><polygon fill="#181818" points="1072,258.7363,1082,262.7363,1072,266.7363,1076,262.7363" style="stroke:#181818;stroke-width:1.0;"/><line style="stroke:#181818;stroke-width:1.0;" x1="669" x2="1078" y1="262.7363" y2="262.7363"/><text fill="#000000" font-family="sans-serif" font-size="13" font-weight="bold" lengthAdjust="spacing" textLength="7" x="676" y="257.4736">4</text><text fill="#000000" font-family="sans-serif" font-size="13" lengthAdjust="spacing" textLength="75" x="687" y="257.4736">getInstance()</text><polygon fill="#181818" points="680,290.0273,670,294.0273,680,298.0273,676,294.0273" style="stroke:#181818;stroke-width:1.0;"/><line style="stroke:#181818;stroke-width:1.0;stroke-dasharray:2.0,2.0;" x1="674" x2="1088" y1="294.0273" y2="294.0273"/><text fill="#000000" font-family="sans-serif" font-size="13" font-weight="bold" lengthAdjust="spacing" textLength="7" x="686" y="288.7646">5</text><text fill="#000000" font-family="sans-serif" font-size="13" lengthAdjust="spacing" textLength="68" x="697" y="288.7646">appSession</text><polygon fill="#181818" points="1219,321.3184,1229,325.3184,1219,329.3184,1223,325.3184" style="stroke:#181818;stroke-width:1.0;"/><line style="stroke:#181818;stroke-width:1.0;" x1="669" x2="1225" y1="325.3184" y2="325.3184"/><text fill="#000000" font-family="sans-serif" font-size="13" font-weight="bold" lengthAdjust="spacing" textLength="7" x="676" y="320.0557">6</text><text fill="#000000" font-family="sans-serif" font-size="13" lengthAdjust="spacing" textLength="115" x="687" y="320.0557">getCurrentSession()</text><polygon fill="#181818" points="680,352.6094,670,356.6094,680,360.6094,676,356.6094" style="stroke:#181818;stroke-width:1.0;"/><line style="stroke:#181818;stroke-width:1.0;stroke-dasharray:2.0,2.0;" x1="674" x2="1235" y1="356.6094" y2="356.6094"/><text fill="#000000" font-family="sans-serif" font-size="13" font-weight="bold" lengthAdjust="spacing" textLength="7" x="686" y="351.3467">7</text><text fill="#000000" font-family="sans-serif" font-size="13" lengthAdjust="spacing" textLength="87" x="697" y="351.3467">currentSession</text><polygon fill="#181818" points="1441,383.9004,1451,387.9004,1441,391.9004,1445,387.9004" style="stroke:#181818;stroke-width:1.0;"/><line style="stroke:#181818;stroke-width:1.0;" x1="669" x2="1447" y1="387.9004" y2="387.9004"/><text fill="#000000" font-family="sans-serif" font-size="13" font-weight="bold" lengthAdjust="spacing" textLength="7" x="676" y="382.6377">8</text><text fill="#000000" font-family="sans-serif" font-size="13" lengthAdjust="spacing" textLength="131" x="687" y="382.6377">email = getUser(email)</text><polygon fill="#181818" points="680,415.1914,670,419.1914,680,423.1914,676,419.1914" style="stroke:#181818;stroke-width:1.0;"/><line style="stroke:#181818;stroke-width:1.0;stroke-dasharray:2.0,2.0;" x1="674" x2="1457" y1="419.1914" y2="419.1914"/><text fill="#000000" font-family="sans-serif" font-size="13" font-weight="bold" lengthAdjust="spacing" textLength="7" x="686" y="413.9287">9</text><text fill="#000000" font-family="sans-serif" font-size="13" lengthAdjust="spacing" textLength="31" x="697" y="413.9287">email</text><polygon fill="#181818" points="363,446.4824,353,450.4824,363,454.4824,359,450.4824" style="stroke:#181818;stroke-width:1.0;"/><line style="stroke:#181818;stroke-width:1.0;stroke-dasharray:2.0,2.0;" x1="357" x2="663" y1="450.4824" y2="450.4824"/><text fill="#000000" font-family="sans-serif" font-size="13" font-weight="bold" lengthAdjust="spacing" textLength="14" x="369" y="445.2197">10</text><text fill="#000000" font-family="sans-serif" font-size="13" lengthAdjust="spacing" textLength="31" x="387" y="445.2197">email</text><polygon fill="#181818" points="647,477.7734,657,481.7734,647,485.7734,651,481.7734" style="stroke:#181818;stroke-width:1.0;"/><line style="stroke:#181818;stroke-width:1.0;" x1="352" x2="653" y1="481.7734" y2="481.7734"/><text fill="#000000" font-family="sans-serif" font-size="13" font-weight="bold" lengthAdjust="spacing" textLength="14" x="359" y="476.5107">11</text><text fill="#000000" font-family="sans-serif" font-size="13" lengthAdjust="spacing" textLength="177" x="377" y="476.5107">getTasksByCollaborator(email)</text><polygon fill="#181818" points="864,509.0645,874,513.0645,864,517.0645,868,513.0645" style="stroke:#181818;stroke-width:1.0;"/><line style="stroke:#181818;stroke-width:1.0;" x1="669" x2="870" y1="513.0645" y2="513.0645"/><text fill="#000000" font-family="sans-serif" font-size="13" font-weight="bold" lengthAdjust="spacing" textLength="14" x="676" y="507.8018">12</text><text fill="#000000" font-family="sans-serif" font-size="13" lengthAdjust="spacing" textLength="75" x="694" y="507.8018">getInstance()</text><polygon fill="#181818" points="680,540.3555,670,544.3555,680,548.3555,676,544.3555" style="stroke:#181818;stroke-width:1.0;"/><line style="stroke:#181818;stroke-width:1.0;stroke-dasharray:2.0,2.0;" x1="674" x2="880" y1="544.3555" y2="544.3555"/><text fill="#000000" font-family="sans-serif" font-size="13" font-weight="bold" lengthAdjust="spacing" textLength="14" x="686" y="539.0928">13</text><text fill="#000000" font-family="sans-serif" font-size="13" lengthAdjust="spacing" textLength="67" x="704" y="539.0928">repositories</text><polygon fill="#181818" points="1554,571.6465,1564,575.6465,1554,579.6465,1558,575.6465" style="stroke:#181818;stroke-width:1.0;"/><line style="stroke:#181818;stroke-width:1.0;" x1="669" x2="1560" y1="575.6465" y2="575.6465"/><text fill="#000000" font-family="sans-serif" font-size="13" font-weight="bold" lengthAdjust="spacing" textLength="14" x="676" y="570.3838">14</text><text fill="#000000" font-family="sans-serif" font-size="13" lengthAdjust="spacing" textLength="116" x="694" y="570.3838">getTaskRepository()</text><polygon fill="#181818" points="680,602.9375,670,606.9375,680,610.9375,676,606.9375" style="stroke:#181818;stroke-width:1.0;"/><line style="stroke:#181818;stroke-width:1.0;stroke-dasharray:2.0,2.0;" x1="674" x2="1570" y1="606.9375" y2="606.9375"/><text fill="#000000" font-family="sans-serif" font-size="13" font-weight="bold" lengthAdjust="spacing" textLength="14" x="686" y="601.6748">15</text><text fill="#000000" font-family="sans-serif" font-size="13" lengthAdjust="spacing" textLength="87" x="704" y="601.6748">taskRepository</text><polygon fill="#181818" points="1671,634.2285,1681,638.2285,1671,642.2285,1675,638.2285" style="stroke:#181818;stroke-width:1.0;"/><line style="stroke:#181818;stroke-width:1.0;" x1="669" x2="1677" y1="638.2285" y2="638.2285"/><text fill="#000000" font-family="sans-serif" font-size="13" font-weight="bold" lengthAdjust="spacing" textLength="14" x="676" y="632.9658">16</text><text fill="#000000" font-family="sans-serif" font-size="13" lengthAdjust="spacing" textLength="177" x="694" y="632.9658">getTasksByCollaborator(email)</text><line style="stroke:#181818;stroke-width:1.0;" x1="1693" x2="1740" y1="664.5195" y2="664.5195"/><line style="stroke:#181818;stroke-width:1.0;" x1="1740" x2="1740" y1="664.5195" y2="677.5195"/><line style="stroke:#181818;stroke-width:1.0;" x1="1699" x2="1740" y1="677.5195" y2="677.5195"/><polygon fill="#181818" points="1709,673.5195,1699,677.5195,1709,681.5195,1705,677.5195" style="stroke:#181818;stroke-width:1.0;"/><text fill="#000000" font-family="sans-serif" font-size="13" font-weight="bold" lengthAdjust="spacing" textLength="14" x="1705" y="659.2568">17</text><text fill="#000000" font-family="sans-serif" font-size="13" lengthAdjust="spacing" textLength="177" x="1723" y="659.2568">getTasksByCollaborator(email)</text><path d="M1304.5,697.5195 L1377.5,697.5195 L1377.5,706.8105 L1367.5,716.8105 L1304.5,716.8105 L1304.5,697.5195 " fill="#EEEEEE" style="stroke:#000000;stroke-width:1.5;"/><rect fill="none" height="81.873" style="stroke:#000000;stroke-width:1.5;" width="452" x="1304.5" y="697.5195"/><text fill="#000000" font-family="sans-serif" font-size="13" font-weight="bold" lengthAdjust="spacing" textLength="28" x="1319.5" y="712.5479">loop</text><text fill="#000000" font-family="sans-serif" font-size="11" font-weight="bold" lengthAdjust="spacing" textLength="80" x="1392.5" y="711.3896">[for each task]</text><polygon fill="#181818" points="1370,736.1016,1360,740.1016,1370,744.1016,1366,740.1016" style="stroke:#181818;stroke-width:1.0;"/><line style="stroke:#181818;stroke-width:1.0;" x1="1364" x2="1687" y1="740.1016" y2="740.1016"/><text fill="#000000" font-family="sans-serif" font-size="13" font-weight="bold" lengthAdjust="spacing" textLength="14" x="1376" y="734.8389">18</text><text fill="#000000" font-family="sans-serif" font-size="13" lengthAdjust="spacing" textLength="162" x="1394" y="734.8389">hasCollaboratorEmail(email)</text><polygon fill="#181818" points="1676,767.3926,1686,771.3926,1676,775.3926,1680,771.3926" style="stroke:#181818;stroke-width:1.0;"/><line style="stroke:#181818;stroke-width:1.0;stroke-dasharray:2.0,2.0;" x1="1354" x2="1682" y1="771.3926" y2="771.3926"/><text fill="#000000" font-family="sans-serif" font-size="13" font-weight="bold" lengthAdjust="spacing" textLength="14" x="1361" y="766.1299">19</text><text fill="#000000" font-family="sans-serif" font-size="13" lengthAdjust="spacing" textLength="53" x="1379" y="766.1299">true/false</text><line style="stroke:#181818;stroke-width:1.0;stroke-dasharray:2.0,2.0;" x1="1698" x2="1740" y1="814.6836" y2="814.6836"/><line style="stroke:#181818;stroke-width:1.0;stroke-dasharray:2.0,2.0;" x1="1740" x2="1740" y1="814.6836" y2="827.6836"/><line style="stroke:#181818;stroke-width:1.0;stroke-dasharray:2.0,2.0;" x1="1693" x2="1740" y1="827.6836" y2="827.6836"/><polygon fill="#181818" points="1703,823.6836,1693,827.6836,1703,831.6836,1699,827.6836" style="stroke:#181818;stroke-width:1.0;"/><text fill="#000000" font-family="sans-serif" font-size="13" font-weight="bold" lengthAdjust="spacing" textLength="14" x="1705" y="809.4209">20</text><text fill="#000000" font-family="sans-serif" font-size="13" lengthAdjust="spacing" textLength="117" x="1723" y="809.4209">tasksByCollaborator</text><polygon fill="#181818" points="680,849.9746,670,853.9746,680,857.9746,676,853.9746" style="stroke:#181818;stroke-width:1.0;"/><line style="stroke:#181818;stroke-width:1.0;stroke-dasharray:2.0,2.0;" x1="674" x2="1687" y1="853.9746" y2="853.9746"/><text fill="#000000" font-family="sans-serif" font-size="13" font-weight="bold" lengthAdjust="spacing" textLength="14" x="686" y="848.7119">21</text><text fill="#000000" font-family="sans-serif" font-size="13" lengthAdjust="spacing" textLength="117" x="704" y="848.7119">tasksByCollaborator</text><polygon fill="#181818" points="363,881.2656,353,885.2656,363,889.2656,359,885.2656" style="stroke:#181818;stroke-width:1.0;"/><line style="stroke:#181818;stroke-width:1.0;stroke-dasharray:2.0,2.0;" x1="357" x2="663" y1="885.2656" y2="885.2656"/><text fill="#000000" font-family="sans-serif" font-size="13" font-weight="bold" lengthAdjust="spacing" textLength="14" x="369" y="880.0029">22</text><text fill="#000000" font-family="sans-serif" font-size="13" lengthAdjust="spacing" textLength="117" x="387" y="880.0029">tasksByCollaborator</text><polygon fill="#181818" points="63,912.5566,53,916.5566,63,920.5566,59,916.5566" style="stroke:#181818;stroke-width:1.0;"/><line style="stroke:#181818;stroke-width:1.0;stroke-dasharray:2.0,2.0;" x1="57" x2="346" y1="916.5566" y2="916.5566"/><text fill="#000000" font-family="sans-serif" font-size="13" font-weight="bold" lengthAdjust="spacing" textLength="14" x="69" y="911.2939">23</text><text fill="#000000" font-family="sans-serif" font-size="13" lengthAdjust="spacing" textLength="135" x="87" y="911.2939">shows list of own tasks</text><polygon fill="#181818" points="330,943.8477,340,947.8477,330,951.8477,334,947.8477" style="stroke:#181818;stroke-width:1.0;"/><line style="stroke:#181818;stroke-width:1.0;" x1="52" x2="336" y1="947.8477" y2="947.8477"/><text fill="#000000" font-family="sans-serif" font-size="13" font-weight="bold" lengthAdjust="spacing" textLength="14" x="59" y="942.585">24</text><text fill="#000000" font-family="sans-serif" font-size="13" lengthAdjust="spacing" textLength="82" x="77" y="942.585">selects a task</text><polygon fill="#181818" points="63,975.1387,53,979.1387,63,983.1387,59,979.1387" style="stroke:#181818;stroke-width:1.0;"/><line style="stroke:#181818;stroke-width:1.0;stroke-dasharray:2.0,2.0;" x1="57" x2="346" y1="979.1387" y2="979.1387"/><text fill="#000000" font-family="sans-serif" font-size="13" font-weight="bold" lengthAdjust="spacing" textLength="14" x="69" y="973.876">25</text><text fill="#000000" font-family="sans-serif" font-size="13" lengthAdjust="spacing" textLength="248" x="87" y="973.876">requests confirmation of completion of task</text><polygon fill="#181818" points="330,1006.4297,340,1010.4297,330,1014.4297,334,1010.4297" style="stroke:#181818;stroke-width:1.0;"/><line style="stroke:#181818;stroke-width:1.0;" x1="52" x2="336" y1="1010.4297" y2="1010.4297"/><text fill="#000000" font-family="sans-serif" font-size="13" font-weight="bold" lengthAdjust="spacing" textLength="14" x="59" y="1005.167">26</text><text fill="#000000" font-family="sans-serif" font-size="13" lengthAdjust="spacing" textLength="49" x="77" y="1005.167">confirms</text><polygon fill="#181818" points="647,1037.7207,657,1041.7207,647,1045.7207,651,1041.7207" style="stroke:#181818;stroke-width:1.0;"/><line style="stroke:#181818;stroke-width:1.0;" x1="352" x2="653" y1="1041.7207" y2="1041.7207"/><text fill="#000000" font-family="sans-serif" font-size="13" font-weight="bold" lengthAdjust="spacing" textLength="14" x="359" y="1036.458">27</text><text fill="#000000" font-family="sans-serif" font-size="13" lengthAdjust="spacing" textLength="270" x="377" y="1036.458">completeTask(taskDTO, newStatusnewStatus)</text><line style="stroke:#181818;stroke-width:1.0;stroke-dasharray:2.0,2.0;" x1="669" x2="711" y1="1073.0117" y2="1073.0117"/><line style="stroke:#181818;stroke-width:1.0;stroke-dasharray:2.0,2.0;" x1="711" x2="711" y1="1073.0117" y2="1086.0117"/><line style="stroke:#181818;stroke-width:1.0;stroke-dasharray:2.0,2.0;" x1="670" x2="711" y1="1086.0117" y2="1086.0117"/><polygon fill="#181818" points="680,1082.0117,670,1086.0117,680,1090.0117,676,1086.0117" style="stroke:#181818;stroke-width:1.0;"/><text fill="#000000" font-family="sans-serif" font-size="13" font-weight="bold" lengthAdjust="spacing" textLength="14" x="676" y="1067.749">28</text><text fill="#000000" font-family="sans-serif" font-size="13" lengthAdjust="spacing" textLength="175" x="694" y="1067.749">validateNewStatus(newStatus)</text><polygon fill="#181818" points="1671,1113.3027,1681,1117.3027,1671,1121.3027,1675,1117.3027" style="stroke:#181818;stroke-width:1.0;"/><line style="stroke:#181818;stroke-width:1.0;" x1="669" x2="1677" y1="1117.3027" y2="1117.3027"/><text fill="#000000" font-family="sans-serif" font-size="13" font-weight="bold" lengthAdjust="spacing" textLength="14" x="676" y="1112.04">29</text><text fill="#000000" font-family="sans-serif" font-size="13" lengthAdjust="spacing" textLength="209" x="694" y="1112.04">completeTask(taskDTO, newStatus)</text><polygon fill="#181818" points="991,1144.5938,981,1148.5938,991,1152.5938,987,1148.5938" style="stroke:#181818;stroke-width:1.0;"/><line style="stroke:#181818;stroke-width:1.0;" x1="985" x2="1682" y1="1148.5938" y2="1148.5938"/><text fill="#000000" font-family="sans-serif" font-size="13" font-weight="bold" lengthAdjust="spacing" textLength="14" x="997" y="1143.3311">30</text><text fill="#000000" font-family="sans-serif" font-size="13" lengthAdjust="spacing" textLength="113" x="1015" y="1143.3311">status = newStatus</text><polygon fill="#181818" points="58,1205.8848,48,1209.8848,58,1213.8848,54,1209.8848" style="stroke:#181818;stroke-width:1.0;"/><line style="stroke:#181818;stroke-width:1.0;stroke-dasharray:2.0,2.0;" x1="52" x2="346" y1="1209.8848" y2="1209.8848"/><text fill="#000000" font-family="sans-serif" font-size="13" font-weight="bold" lengthAdjust="spacing" textLength="14" x="64" y="1204.6221">31</text><text fill="#000000" font-family="sans-serif" font-size="13" lengthAdjust="spacing" textLength="158" x="82" y="1204.6221">displays operation success</text><!--SRC=[hLPHRzem47xFhpZrYLP3cwOz8MrIn_g0L1LKu6tIv8O3B18xiqqH_tvd9uuJnz1kMbw8Z_k-x-oxyqKVkAYOOYMKKiXyhsI9ODGHCzt-Kx7ym7QuDES2GM5kcDWLNGUzPnjvuc87MrPep3B33Rckbvy-Vu4nBAGsbHG8J00Aeyx01PWzhNSeDYpBsD58SInVKD5xRgI2cwai2lOY5QFL3J0D3sLLo3DYHfA6vxnYmi3DPBgdO2WqPevwFNEUwzaLdwca08WRQzRfwlanydx6IcfEiXorysaDvoMt6wTO-n33zE67aJ_5P5M_ELZp7h7VLrN1SsQu54lKcdwSyw_xnQBloQggSI3U2wW1o4Moclj8LlCGoMhUTysFIb4oWiPQe-gIBn-MozdygOzIdSCXpE2i5e_tgs58uGIRo8AX3J2ON0tmLsOm93q3UlmAnjyeoJ0Xw463aP2x18EL0ktIxAoI_D6WmxQKL1tEG0H4O_D_TqTKkK9cNOEPZ3iq3oNZHRSOHxTzFbT1pkH01BQvhC4pGT6876ECoxOpETznK0nPTtzlC87nEgtCj9VAMAp5HLBz0eZb1cfDEH0GxP70LwjiQsRarf6eBnvdzT2EkCF4cZrGhUipdVGFHnzdpHQK_dxkvIqLvZ1vYMQ_dilKxU0yKap-12RGRQHuNnSfVP2soy96WtiSc-j6PtA8eDvlobW_mBnWN-RlpdWrr8he_hz08MK5MveZjAczs-qLNReQIN3FT5V9zVr5ENkRUa8B7wUsOAVenteWHWVSfQ09c8mjoJWyaHHrzogznDtqoZym3flp7IIkqNod4gwzoYVqyI1F6Wgk3SWjo9Ee-M86VsyFXe36WZv9DB2Gv-HbtrTL-Fk8cc2v55kkIZTRRG3Dr6XMBULx8ccez5i3XrmxZnzJzfn7pG3_009FzGTB-tARNR-x0lahA_Y6N9uyTDGXkThMxmyhZYPL9HVQZKRpn8_fhu4nqMNqzPJg73A_KQJ9GN6X4ZPSLmKxQv0LgheCz37FQIoc4jzPUeu_]--></g></svg>