<?xml version="1.0" encoding="us-ascii" standalone="no"?><svg xmlns="http://www.w3.org/2000/svg" xmlns:xlink="http://www.w3.org/1999/xlink" contentStyleType="text/css" height="847px" preserveAspectRatio="none" style="width:1112px;height:847px;background:#FFFFFF;" version="1.1" viewBox="0 0 1112 847" width="1112px" zoomAndPan="magnify"><defs/><g><text fill="#000000" font-family="sans-serif" font-size="14" font-weight="bold" lengthAdjust="spacing" textLength="365" x="372.75" y="30.1074">US028 - Consult the tasks assigned to a collaborator</text><rect fill="#FFFFFF" height="613.1992" style="stroke:#181818;stroke-width:1.0;" width="10" x="42" y="133.2422"/><rect fill="#FFFFFF" height="296.5801" style="stroke:#181818;stroke-width:1.0;" width="10" x="335" y="156.5332"/><rect fill="#FFFFFF" height="31.291" style="stroke:#181818;stroke-width:1.0;" width="10" x="335" y="484.4043"/><rect fill="#FFFFFF" height="199.4551" style="stroke:#181818;stroke-width:1.0;" width="10" x="335" y="546.9863"/><rect fill="#FFFFFF" height="79.543" style="stroke:#181818;stroke-width:1.0;" width="10" x="652" y="231.4453"/><rect fill="#FFFFFF" height="79.543" style="stroke:#181818;stroke-width:1.0;" width="10" x="652" y="342.2793"/><rect fill="#FFFFFF" height="136.873" style="stroke:#181818;stroke-width:1.0;" width="10" x="652" y="578.2773"/><rect fill="#FFFFFF" height="61.291" style="stroke:#181818;stroke-width:1.0;" width="10" x="908" y="653.8594"/><rect fill="#FFFFFF" height="30" style="stroke:#181818;stroke-width:1.0;" width="10" x="1068" y="685.1504"/><line style="stroke:#181818;stroke-width:0.5;stroke-dasharray:5.0,5.0;" x1="47" x2="47" y1="123.2422" y2="764.4414"/><line style="stroke:#181818;stroke-width:0.5;stroke-dasharray:5.0,5.0;" x1="340" x2="340" y1="123.2422" y2="764.4414"/><line style="stroke:#181818;stroke-width:0.5;stroke-dasharray:5.0,5.0;" x1="657" x2="657" y1="196.3438" y2="764.4414"/><line style="stroke:#181818;stroke-width:0.5;stroke-dasharray:5.0,5.0;" x1="912.5" x2="912.5" y1="123.2422" y2="764.4414"/><line style="stroke:#181818;stroke-width:0.5;stroke-dasharray:5.0,5.0;" x1="1072.5" x2="1072.5" y1="123.2422" y2="764.4414"/><text fill="#000000" font-family="sans-serif" font-size="14" lengthAdjust="spacing" textLength="78" x="5" y="119.7285">Collaborator</text><ellipse cx="47" cy="53.1211" fill="#E3E3E3" rx="8" ry="8" style="stroke:#181818;stroke-width:0.5;"/><path d="M47,61.1211 L47,88.1211 M34,69.1211 L60,69.1211 M47,88.1211 L34,103.1211 M47,88.1211 L60,103.1211 " fill="none" style="stroke:#181818;stroke-width:0.5;"/><text fill="#000000" font-family="sans-serif" font-size="14" lengthAdjust="spacing" textLength="78" x="5" y="778.5488">Collaborator</text><ellipse cx="47" cy="790.5625" fill="#E3E3E3" rx="8" ry="8" style="stroke:#181818;stroke-width:0.5;"/><path d="M47,798.5625 L47,825.5625 M34,806.5625 L60,806.5625 M47,825.5625 L34,840.5625 M47,825.5625 L60,840.5625 " fill="none" style="stroke:#181818;stroke-width:0.5;"/><rect fill="#E3E3E3" height="32.6211" rx="2.5" ry="2.5" style="stroke:#181818;stroke-width:0.5;" width="120" x="280" y="89.6211"/><text fill="#000000" font-family="sans-serif" font-size="14" lengthAdjust="spacing" textLength="106" x="287" y="111.7285">:ChangeStatusUI</text><rect fill="#E3E3E3" height="32.6211" rx="2.5" ry="2.5" style="stroke:#181818;stroke-width:0.5;" width="120" x="280" y="763.4414"/><text fill="#000000" font-family="sans-serif" font-size="14" lengthAdjust="spacing" textLength="106" x="287" y="785.5488">:ChangeStatusUI</text><rect fill="#E3E3E3" height="32.6211" rx="2.5" ry="2.5" style="stroke:#181818;stroke-width:0.5;" width="170" x="572" y="763.4414"/><text fill="#000000" font-family="sans-serif" font-size="14" lengthAdjust="spacing" textLength="156" x="579" y="785.5488">:ChangeStatusController</text><rect fill="#E3E3E3" height="51.2422" rx="2.5" ry="2.5" style="stroke:#181818;stroke-width:0.5;" width="117" x="854.5" y="71"/><text fill="#000000" font-family="sans-serif" font-size="14" lengthAdjust="spacing" textLength="94" x="866" y="93.1074">taskRepository</text><text fill="#000000" font-family="sans-serif" font-size="14" lengthAdjust="spacing" textLength="103" x="861.5" y="111.7285">:TaskRepository</text><rect fill="#E3E3E3" height="51.2422" rx="2.5" ry="2.5" style="stroke:#181818;stroke-width:0.5;" width="117" x="854.5" y="763.4414"/><text fill="#000000" font-family="sans-serif" font-size="14" lengthAdjust="spacing" textLength="94" x="866" y="785.5488">taskRepository</text><text fill="#000000" font-family="sans-serif" font-size="14" lengthAdjust="spacing" textLength="103" x="861.5" y="804.1699">:TaskRepository</text><rect fill="#E3E3E3" height="32.6211" rx="2.5" ry="2.5" style="stroke:#181818;stroke-width:0.5;" width="67" x="1039.5" y="89.6211"/><text fill="#000000" font-family="sans-serif" font-size="14" lengthAdjust="spacing" textLength="53" x="1046.5" y="111.7285">TaskDto</text><rect fill="#E3E3E3" height="32.6211" rx="2.5" ry="2.5" style="stroke:#181818;stroke-width:0.5;" width="67" x="1039.5" y="763.4414"/><text fill="#000000" font-family="sans-serif" font-size="14" lengthAdjust="spacing" textLength="53" x="1046.5" y="785.5488">TaskDto</text><rect fill="#FFFFFF" height="613.1992" style="stroke:#181818;stroke-width:1.0;" width="10" x="42" y="133.2422"/><rect fill="#FFFFFF" height="296.5801" style="stroke:#181818;stroke-width:1.0;" width="10" x="335" y="156.5332"/><rect fill="#FFFFFF" height="31.291" style="stroke:#181818;stroke-width:1.0;" width="10" x="335" y="484.4043"/><rect fill="#FFFFFF" height="199.4551" style="stroke:#181818;stroke-width:1.0;" width="10" x="335" y="546.9863"/><rect fill="#FFFFFF" height="79.543" style="stroke:#181818;stroke-width:1.0;" width="10" x="652" y="231.4453"/><rect fill="#FFFFFF" height="79.543" style="stroke:#181818;stroke-width:1.0;" width="10" x="652" y="342.2793"/><rect fill="#FFFFFF" height="136.873" style="stroke:#181818;stroke-width:1.0;" width="10" x="652" y="578.2773"/><rect fill="#FFFFFF" height="61.291" style="stroke:#181818;stroke-width:1.0;" width="10" x="908" y="653.8594"/><rect fill="#FFFFFF" height="30" style="stroke:#181818;stroke-width:1.0;" width="10" x="1068" y="685.1504"/><polygon fill="#181818" points="323,152.5332,333,156.5332,323,160.5332,327,156.5332" style="stroke:#181818;stroke-width:1.0;"/><line style="stroke:#181818;stroke-width:1.0;" x1="52" x2="329" y1="156.5332" y2="156.5332"/><text fill="#000000" font-family="sans-serif" font-size="13" font-weight="bold" lengthAdjust="spacing" textLength="7" x="59" y="151.2705">1</text><text fill="#000000" font-family="sans-serif" font-size="13" lengthAdjust="spacing" textLength="230" x="70" y="151.2705">asks to change task status to complete</text><polygon fill="#181818" points="560,183.8242,570,187.8242,560,191.8242,564,187.8242" style="stroke:#181818;stroke-width:1.0;"/><line style="stroke:#181818;stroke-width:1.0;" x1="345" x2="566" y1="187.8242" y2="187.8242"/><text fill="#000000" font-family="sans-serif" font-size="13" font-weight="bold" lengthAdjust="spacing" textLength="7" x="352" y="182.5615">2</text><text fill="#000000" font-family="sans-serif" font-size="13" lengthAdjust="spacing" textLength="36" x="363" y="182.5615">create</text><rect fill="#E3E3E3" height="32.6211" rx="2.5" ry="2.5" style="stroke:#181818;stroke-width:0.5;" width="170" x="572" y="164.5332"/><text fill="#000000" font-family="sans-serif" font-size="14" lengthAdjust="spacing" textLength="156" x="579" y="186.6406">:ChangeStatusController</text><polygon fill="#181818" points="640,227.4453,650,231.4453,640,235.4453,644,231.4453" style="stroke:#181818;stroke-width:1.0;"/><line style="stroke:#181818;stroke-width:1.0;" x1="345" x2="646" y1="231.4453" y2="231.4453"/><text fill="#000000" font-family="sans-serif" font-size="13" font-weight="bold" lengthAdjust="spacing" textLength="7" x="352" y="226.1826">3</text><text fill="#000000" font-family="sans-serif" font-size="13" lengthAdjust="spacing" textLength="128" x="363" y="226.1826">getEmailCollaborator()</text><rect fill="none" height="43.252" style="stroke:#000000;stroke-width:1.5;" width="176" x="569" y="239.4453"/><path d="M569,239.4453 L631,239.4453 L631,248.4453 L621,258.4453 L569,258.4453 L569,239.4453 " fill="#EEEEEE" style="stroke:#000000;stroke-width:2.0;"/><text fill="#000000" font-family="sans-serif" font-size="13" font-weight="bold" lengthAdjust="spacing" textLength="17" x="582" y="255.4736">ref</text><text fill="#000000" font-family="sans-serif" font-size="12" lengthAdjust="spacing" textLength="54" x="630" y="275.3945">Get Email</text><polygon fill="#181818" points="356,306.9883,346,310.9883,356,314.9883,352,310.9883" style="stroke:#181818;stroke-width:1.0;"/><line style="stroke:#181818;stroke-width:1.0;stroke-dasharray:2.0,2.0;" x1="350" x2="656" y1="310.9883" y2="310.9883"/><text fill="#000000" font-family="sans-serif" font-size="13" font-weight="bold" lengthAdjust="spacing" textLength="7" x="362" y="305.7256">4</text><text fill="#000000" font-family="sans-serif" font-size="13" lengthAdjust="spacing" textLength="31" x="373" y="305.7256">email</text><polygon fill="#181818" points="640,338.2793,650,342.2793,640,346.2793,644,342.2793" style="stroke:#181818;stroke-width:1.0;"/><line style="stroke:#181818;stroke-width:1.0;" x1="345" x2="646" y1="342.2793" y2="342.2793"/><text fill="#000000" font-family="sans-serif" font-size="13" font-weight="bold" lengthAdjust="spacing" textLength="7" x="352" y="337.0166">5</text><text fill="#000000" font-family="sans-serif" font-size="13" lengthAdjust="spacing" textLength="177" x="363" y="337.0166">getTasksByCollaborator(email)</text><rect fill="none" height="43.252" style="stroke:#000000;stroke-width:1.5;" width="176" x="569" y="350.2793"/><path d="M569,350.2793 L631,350.2793 L631,359.2793 L621,369.2793 L569,369.2793 L569,350.2793 " fill="#EEEEEE" style="stroke:#000000;stroke-width:2.0;"/><text fill="#000000" font-family="sans-serif" font-size="13" font-weight="bold" lengthAdjust="spacing" textLength="17" x="582" y="366.3076">ref</text><text fill="#000000" font-family="sans-serif" font-size="12" lengthAdjust="spacing" textLength="142" x="586" y="386.2285">Get Tasks by Collaborator</text><polygon fill="#181818" points="356,417.8223,346,421.8223,356,425.8223,352,421.8223" style="stroke:#181818;stroke-width:1.0;"/><line style="stroke:#181818;stroke-width:1.0;stroke-dasharray:2.0,2.0;" x1="350" x2="656" y1="421.8223" y2="421.8223"/><text fill="#000000" font-family="sans-serif" font-size="13" font-weight="bold" lengthAdjust="spacing" textLength="7" x="362" y="416.5596">6</text><text fill="#000000" font-family="sans-serif" font-size="13" lengthAdjust="spacing" textLength="117" x="373" y="416.5596">tasksByCollaborator</text><polygon fill="#181818" points="63,449.1133,53,453.1133,63,457.1133,59,453.1133" style="stroke:#181818;stroke-width:1.0;"/><line style="stroke:#181818;stroke-width:1.0;stroke-dasharray:2.0,2.0;" x1="57" x2="339" y1="453.1133" y2="453.1133"/><text fill="#000000" font-family="sans-serif" font-size="13" font-weight="bold" lengthAdjust="spacing" textLength="7" x="69" y="447.8506">7</text><text fill="#000000" font-family="sans-serif" font-size="13" lengthAdjust="spacing" textLength="135" x="80" y="447.8506">shows list of own tasks</text><polygon fill="#181818" points="323,480.4043,333,484.4043,323,488.4043,327,484.4043" style="stroke:#181818;stroke-width:1.0;"/><line style="stroke:#181818;stroke-width:1.0;" x1="52" x2="329" y1="484.4043" y2="484.4043"/><text fill="#000000" font-family="sans-serif" font-size="13" font-weight="bold" lengthAdjust="spacing" textLength="7" x="59" y="479.1416">8</text><text fill="#000000" font-family="sans-serif" font-size="13" lengthAdjust="spacing" textLength="82" x="70" y="479.1416">selects a task</text><polygon fill="#181818" points="63,511.6953,53,515.6953,63,519.6953,59,515.6953" style="stroke:#181818;stroke-width:1.0;"/><line style="stroke:#181818;stroke-width:1.0;stroke-dasharray:2.0,2.0;" x1="57" x2="339" y1="515.6953" y2="515.6953"/><text fill="#000000" font-family="sans-serif" font-size="13" font-weight="bold" lengthAdjust="spacing" textLength="7" x="69" y="510.4326">9</text><text fill="#000000" font-family="sans-serif" font-size="13" lengthAdjust="spacing" textLength="248" x="80" y="510.4326">requests confirmation of completion of task</text><polygon fill="#181818" points="323,542.9863,333,546.9863,323,550.9863,327,546.9863" style="stroke:#181818;stroke-width:1.0;"/><line style="stroke:#181818;stroke-width:1.0;" x1="52" x2="329" y1="546.9863" y2="546.9863"/><text fill="#000000" font-family="sans-serif" font-size="13" font-weight="bold" lengthAdjust="spacing" textLength="14" x="59" y="541.7236">10</text><text fill="#000000" font-family="sans-serif" font-size="13" lengthAdjust="spacing" textLength="49" x="77" y="541.7236">confirms</text><polygon fill="#181818" points="640,574.2773,650,578.2773,640,582.2773,644,578.2773" style="stroke:#181818;stroke-width:1.0;"/><line style="stroke:#181818;stroke-width:1.0;" x1="345" x2="646" y1="578.2773" y2="578.2773"/><text fill="#000000" font-family="sans-serif" font-size="13" font-weight="bold" lengthAdjust="spacing" textLength="14" x="352" y="573.0146">11</text><text fill="#000000" font-family="sans-serif" font-size="13" lengthAdjust="spacing" textLength="270" x="370" y="573.0146">completeTask(taskDTO, newStatusnewStatus)</text><line style="stroke:#181818;stroke-width:1.0;stroke-dasharray:2.0,2.0;" x1="662" x2="704" y1="609.5684" y2="609.5684"/><line style="stroke:#181818;stroke-width:1.0;stroke-dasharray:2.0,2.0;" x1="704" x2="704" y1="609.5684" y2="622.5684"/><line style="stroke:#181818;stroke-width:1.0;stroke-dasharray:2.0,2.0;" x1="663" x2="704" y1="622.5684" y2="622.5684"/><polygon fill="#181818" points="673,618.5684,663,622.5684,673,626.5684,669,622.5684" style="stroke:#181818;stroke-width:1.0;"/><text fill="#000000" font-family="sans-serif" font-size="13" font-weight="bold" lengthAdjust="spacing" textLength="14" x="669" y="604.3057">12</text><text fill="#000000" font-family="sans-serif" font-size="13" lengthAdjust="spacing" textLength="175" x="687" y="604.3057">validateNewStatus(newStatus)</text><polygon fill="#181818" points="896,649.8594,906,653.8594,896,657.8594,900,653.8594" style="stroke:#181818;stroke-width:1.0;"/><line style="stroke:#181818;stroke-width:1.0;" x1="662" x2="902" y1="653.8594" y2="653.8594"/><text fill="#000000" font-family="sans-serif" font-size="13" font-weight="bold" lengthAdjust="spacing" textLength="14" x="669" y="648.5967">13</text><text fill="#000000" font-family="sans-serif" font-size="13" lengthAdjust="spacing" textLength="209" x="687" y="648.5967">completeTask(taskDTO, newStatus)</text><polygon fill="#181818" points="1056,681.1504,1066,685.1504,1056,689.1504,1060,685.1504" style="stroke:#181818;stroke-width:1.0;"/><line style="stroke:#181818;stroke-width:1.0;" x1="918" x2="1062" y1="685.1504" y2="685.1504"/><text fill="#000000" font-family="sans-serif" font-size="13" font-weight="bold" lengthAdjust="spacing" textLength="14" x="925" y="679.8877">14</text><text fill="#000000" font-family="sans-serif" font-size="13" lengthAdjust="spacing" textLength="113" x="943" y="679.8877">status = newStatus</text><polygon fill="#181818" points="58,742.4414,48,746.4414,58,750.4414,54,746.4414" style="stroke:#181818;stroke-width:1.0;"/><line style="stroke:#181818;stroke-width:1.0;stroke-dasharray:2.0,2.0;" x1="52" x2="339" y1="746.4414" y2="746.4414"/><text fill="#000000" font-family="sans-serif" font-size="13" font-weight="bold" lengthAdjust="spacing" textLength="14" x="64" y="741.1787">15</text><text fill="#000000" font-family="sans-serif" font-size="13" lengthAdjust="spacing" textLength="158" x="82" y="741.1787">displays operation success</text><!--SRC=[bPDDRzim38Rl_XL4Jccn0CDEWu7riBGO2WmRq2QtNHIPIOJ8aYVI2VplHyiViPsqNNIogPSFNqaa7OmhL50vvDvvlGy-H-1GOaBzJg7qGUtmbIkB452pSZix5D1UPVvat0wsoX8c2HiMwVhryvUli82bTrHQ1juBMj61G16PdSCCs8C2xQrL6nyK-v0agcJlodo3zRUM4CoM0y5Cak4fBwol41EfpqQRGZc6MRhSYpFngRYazNDKhf_VqOWn3iB6XhfSlVmSgsktBrXuCbAv-kFIrIWGiyQXwDaS5UFPP0AokZzOF8WfI25UX9nVHqFnOe2YhHZreaV6cDiZvJGn8031r7xlxmMb0yfkqg-nH0GxvATS6JkyoFdTc1rF7qC1j-2F69eGjEi7CaH8ZA3B6d6iiEWEXRqWmolagQdwxkXxDR8L4JTwY-OY33OL377lcUNBwjUjzzubit_7LDhUdmYi8GOlhawk8KuPtQDTT02XbM6IQOXvRx_qk6h0loMIf6dljYRaYertjO6sPTg_7la_JbeKVTHj8XsihaVhYv_NzHvNlp-1mrCpNVt7NVBMQ_RlqSAFoffC9B-wrFa0Savuc0pTJRQcRgRpMszEy6t1HvdBj9lHRsVY9K-KqxllmjVYW_Atz5zcgB2g8l05XgODgDGQwMeB3duxnZy0]--></g></svg>