<?xml version="1.0" encoding="us-ascii" standalone="no"?><svg xmlns="http://www.w3.org/2000/svg" xmlns:xlink="http://www.w3.org/1999/xlink" contentStyleType="text/css" height="1178px" preserveAspectRatio="none" style="width:1014px;height:1178px;background:#FFFFFF;" version="1.1" viewBox="0 0 1014 1178" width="1014px" zoomAndPan="magnify"><defs/><g><text fill="#000000" font-family="sans-serif" font-size="14" font-weight="bold" lengthAdjust="spacing" textLength="277" x="361.75" y="25.1074">US029 - Change task status to complete</text><!--class ChangeStatusUI--><g id="elem_ChangeStatusUI"><rect codeLine="14" fill="#F1F1F1" height="48" id="ChangeStatusUI" rx="2.5" ry="2.5" style="stroke:#181818;stroke-width:0.5;" width="134" x="389.5" y="46.6211"/><ellipse cx="404.5" cy="62.6211" fill="#ADD1B2" rx="11" ry="11" style="stroke:#181818;stroke-width:1.0;"/><path d="M407.2656,58.4961 Q407.4219,58.2773 407.6094,58.168 Q407.7969,58.0586 408.0156,58.0586 Q408.3906,58.0586 408.625,58.3242 Q408.8594,58.5742 408.8594,59.1836 L408.8594,60.6367 Q408.8594,61.2461 408.625,61.5117 Q408.3906,61.7773 408.0156,61.7773 Q407.6719,61.7773 407.4688,61.5742 Q407.2656,61.3867 407.1563,60.8711 Q407.1094,60.5117 406.9219,60.3242 Q406.5938,59.9492 405.9844,59.7305 Q405.375,59.5117 404.75,59.5117 Q403.9844,59.5117 403.3438,59.8398 Q402.7188,60.168 402.2188,60.918 Q401.7344,61.668 401.7344,62.6992 L401.7344,63.793 Q401.7344,65.0273 402.625,65.8555 Q403.5156,66.668 405.1094,66.668 Q406.0469,66.668 406.7031,66.418 Q407.0938,66.2617 407.5156,65.8242 Q407.7813,65.5586 407.9219,65.4805 Q408.0781,65.4023 408.2813,65.4023 Q408.6094,65.4023 408.8594,65.668 Q409.125,65.918 409.125,66.2617 Q409.125,66.6055 408.7813,67.0117 Q408.2813,67.5898 407.4844,67.918 Q406.4063,68.3711 405.1094,68.3711 Q403.5938,68.3711 402.3906,67.7461 Q401.4063,67.2461 400.7188,66.1836 Q400.0313,65.1055 400.0313,63.8242 L400.0313,62.668 Q400.0313,61.3398 400.6406,60.1992 Q401.2656,59.043 402.3594,58.4336 Q403.4531,57.8086 404.6875,57.8086 Q405.4219,57.8086 406.0625,57.9805 Q406.7188,58.1367 407.2656,58.4961 Z " fill="#000000"/><text fill="#000000" font-family="sans-serif" font-size="14" lengthAdjust="spacing" textLength="102" x="418.5" y="68.418">ChangeStatusUI</text><line style="stroke:#181818;stroke-width:0.5;" x1="390.5" x2="522.5" y1="78.6211" y2="78.6211"/><line style="stroke:#181818;stroke-width:0.5;" x1="390.5" x2="522.5" y1="86.6211" y2="86.6211"/></g><!--class ChangeStatusController--><g id="elem_ChangeStatusController"><rect codeLine="17" fill="#F1F1F1" height="141.1055" id="ChangeStatusController" rx="2.5" ry="2.5" style="stroke:#181818;stroke-width:0.5;" width="427" x="243" y="155.6211"/><ellipse cx="376.25" cy="171.6211" fill="#ADD1B2" rx="11" ry="11" style="stroke:#181818;stroke-width:1.0;"/><path d="M379.0156,167.4961 Q379.1719,167.2773 379.3594,167.168 Q379.5469,167.0586 379.7656,167.0586 Q380.1406,167.0586 380.375,167.3242 Q380.6094,167.5742 380.6094,168.1836 L380.6094,169.6367 Q380.6094,170.2461 380.375,170.5117 Q380.1406,170.7773 379.7656,170.7773 Q379.4219,170.7773 379.2188,170.5742 Q379.0156,170.3867 378.9063,169.8711 Q378.8594,169.5117 378.6719,169.3242 Q378.3438,168.9492 377.7344,168.7305 Q377.125,168.5117 376.5,168.5117 Q375.7344,168.5117 375.0938,168.8398 Q374.4688,169.168 373.9688,169.918 Q373.4844,170.668 373.4844,171.6992 L373.4844,172.793 Q373.4844,174.0273 374.375,174.8555 Q375.2656,175.668 376.8594,175.668 Q377.7969,175.668 378.4531,175.418 Q378.8438,175.2617 379.2656,174.8242 Q379.5313,174.5586 379.6719,174.4805 Q379.8281,174.4023 380.0313,174.4023 Q380.3594,174.4023 380.6094,174.668 Q380.875,174.918 380.875,175.2617 Q380.875,175.6055 380.5313,176.0117 Q380.0313,176.5898 379.2344,176.918 Q378.1563,177.3711 376.8594,177.3711 Q375.3438,177.3711 374.1406,176.7461 Q373.1563,176.2461 372.4688,175.1836 Q371.7813,174.1055 371.7813,172.8242 L371.7813,171.668 Q371.7813,170.3398 372.3906,169.1992 Q373.0156,168.043 374.1094,167.4336 Q375.2031,166.8086 376.4375,166.8086 Q377.1719,166.8086 377.8125,166.9805 Q378.4688,167.1367 379.0156,167.4961 Z " fill="#000000"/><text fill="#000000" font-family="sans-serif" font-size="14" lengthAdjust="spacing" textLength="152" x="396.75" y="177.418">ChangeStatusController</text><line style="stroke:#181818;stroke-width:0.5;" x1="244" x2="669" y1="187.6211" y2="187.6211"/><line style="stroke:#181818;stroke-width:0.5;" x1="244" x2="669" y1="195.6211" y2="195.6211"/><text fill="#000000" font-family="sans-serif" font-size="14" lengthAdjust="spacing" textLength="415" x="249" y="214.7285">+completeTaskController(taskRepository, greenSpaceRepository)</text><text fill="#000000" font-family="sans-serif" font-size="14" lengthAdjust="spacing" textLength="125" x="249" y="233.3496">+getGreenSpaces()</text><text fill="#000000" font-family="sans-serif" font-size="14" lengthAdjust="spacing" textLength="277" x="249" y="251.9707">+List&lt;GreenSpaceDTO&gt; getGreenSpaces()</text><text fill="#000000" font-family="sans-serif" font-size="14" lengthAdjust="spacing" textLength="382" x="249" y="270.5918">+List&lt;TaskDTO&gt; getTasksByGreenSpace(greenSpaceDTO)</text><text fill="#000000" font-family="sans-serif" font-size="14" lengthAdjust="spacing" textLength="235" x="249" y="289.2129">+completeTask(taskDTO, newStatus)</text></g><!--class Repositories--><g id="elem_Repositories"><rect codeLine="26" fill="#F1F1F1" height="122.4844" id="Repositories" rx="2.5" ry="2.5" style="stroke:#181818;stroke-width:0.5;" width="198" x="357.5" y="437.6211"/><ellipse cx="412.75" cy="453.6211" fill="#ADD1B2" rx="11" ry="11" style="stroke:#181818;stroke-width:1.0;"/><path d="M415.5156,449.4961 Q415.6719,449.2773 415.8594,449.168 Q416.0469,449.0586 416.2656,449.0586 Q416.6406,449.0586 416.875,449.3242 Q417.1094,449.5742 417.1094,450.1836 L417.1094,451.6367 Q417.1094,452.2461 416.875,452.5117 Q416.6406,452.7773 416.2656,452.7773 Q415.9219,452.7773 415.7188,452.5742 Q415.5156,452.3867 415.4063,451.8711 Q415.3594,451.5117 415.1719,451.3242 Q414.8438,450.9492 414.2344,450.7305 Q413.625,450.5117 413,450.5117 Q412.2344,450.5117 411.5938,450.8398 Q410.9688,451.168 410.4688,451.918 Q409.9844,452.668 409.9844,453.6992 L409.9844,454.793 Q409.9844,456.0273 410.875,456.8555 Q411.7656,457.668 413.3594,457.668 Q414.2969,457.668 414.9531,457.418 Q415.3438,457.2617 415.7656,456.8242 Q416.0313,456.5586 416.1719,456.4805 Q416.3281,456.4023 416.5313,456.4023 Q416.8594,456.4023 417.1094,456.668 Q417.375,456.918 417.375,457.2617 Q417.375,457.6055 417.0313,458.0117 Q416.5313,458.5898 415.7344,458.918 Q414.6563,459.3711 413.3594,459.3711 Q411.8438,459.3711 410.6406,458.7461 Q409.6563,458.2461 408.9688,457.1836 Q408.2813,456.1055 408.2813,454.8242 L408.2813,453.668 Q408.2813,452.3398 408.8906,451.1992 Q409.5156,450.043 410.6094,449.4336 Q411.7031,448.8086 412.9375,448.8086 Q413.6719,448.8086 414.3125,448.9805 Q414.9688,449.1367 415.5156,449.4961 Z " fill="#000000"/><text fill="#000000" font-family="sans-serif" font-size="14" lengthAdjust="spacing" textLength="79" x="433.25" y="459.418">Repositories</text><line style="stroke:#181818;stroke-width:0.5;" x1="358.5" x2="554.5" y1="469.6211" y2="469.6211"/><line style="stroke:#181818;stroke-width:0.5;" x1="358.5" x2="554.5" y1="477.6211" y2="477.6211"/><text fill="#000000" font-family="sans-serif" font-size="14" lengthAdjust="spacing" textLength="94" x="363.5" y="496.7285">-Repositories()</text><text fill="#000000" font-family="sans-serif" font-size="14" lengthAdjust="spacing" textLength="182" x="363.5" y="515.3496">+getInstance() : Repositories</text><text fill="#000000" font-family="sans-serif" font-size="14" lengthAdjust="spacing" textLength="186" x="363.5" y="533.9707">+getGreenSpaceRepository()</text><text fill="#000000" font-family="sans-serif" font-size="14" lengthAdjust="spacing" textLength="137" x="363.5" y="552.5918">+getTaskRepository()</text></g><!--class TaskRepository--><g id="elem_TaskRepository"><rect codeLine="33" fill="#F1F1F1" height="103.8633" id="TaskRepository" rx="2.5" ry="2.5" style="stroke:#181818;stroke-width:0.5;" width="261" x="166" y="700.6211"/><ellipse cx="242.75" cy="716.6211" fill="#ADD1B2" rx="11" ry="11" style="stroke:#181818;stroke-width:1.0;"/><path d="M245.5156,712.4961 Q245.6719,712.2773 245.8594,712.168 Q246.0469,712.0586 246.2656,712.0586 Q246.6406,712.0586 246.875,712.3242 Q247.1094,712.5742 247.1094,713.1836 L247.1094,714.6367 Q247.1094,715.2461 246.875,715.5117 Q246.6406,715.7773 246.2656,715.7773 Q245.9219,715.7773 245.7188,715.5742 Q245.5156,715.3867 245.4063,714.8711 Q245.3594,714.5117 245.1719,714.3242 Q244.8438,713.9492 244.2344,713.7305 Q243.625,713.5117 243,713.5117 Q242.2344,713.5117 241.5938,713.8398 Q240.9688,714.168 240.4688,714.918 Q239.9844,715.668 239.9844,716.6992 L239.9844,717.793 Q239.9844,719.0273 240.875,719.8555 Q241.7656,720.668 243.3594,720.668 Q244.2969,720.668 244.9531,720.418 Q245.3438,720.2617 245.7656,719.8242 Q246.0313,719.5586 246.1719,719.4805 Q246.3281,719.4023 246.5313,719.4023 Q246.8594,719.4023 247.1094,719.668 Q247.375,719.918 247.375,720.2617 Q247.375,720.6055 247.0313,721.0117 Q246.5313,721.5898 245.7344,721.918 Q244.6563,722.3711 243.3594,722.3711 Q241.8438,722.3711 240.6406,721.7461 Q239.6563,721.2461 238.9688,720.1836 Q238.2813,719.1055 238.2813,717.8242 L238.2813,716.668 Q238.2813,715.3398 238.8906,714.1992 Q239.5156,713.043 240.6094,712.4336 Q241.7031,711.8086 242.9375,711.8086 Q243.6719,711.8086 244.3125,711.9805 Q244.9688,712.1367 245.5156,712.4961 Z " fill="#000000"/><text fill="#000000" font-family="sans-serif" font-size="14" lengthAdjust="spacing" textLength="99" x="263.25" y="722.418">TaskRepository</text><line style="stroke:#181818;stroke-width:0.5;" x1="167" x2="426" y1="732.6211" y2="732.6211"/><line style="stroke:#181818;stroke-width:0.5;" x1="167" x2="426" y1="740.6211" y2="740.6211"/><text fill="#000000" font-family="sans-serif" font-size="14" lengthAdjust="spacing" textLength="249" x="172" y="759.7285">+getTasksByGreenSpace(greenSpace)</text><text fill="#000000" font-family="sans-serif" font-size="14" lengthAdjust="spacing" textLength="93" x="172" y="778.3496">+toDTO(tasks)</text><text fill="#000000" font-family="sans-serif" font-size="14" lengthAdjust="spacing" textLength="235" x="172" y="796.9707">+completeTask(taskDTO, newStatus)</text></g><!--class GreenSpaceRepository--><g id="elem_GreenSpaceRepository"><rect codeLine="39" fill="#F1F1F1" height="85.2422" id="GreenSpaceRepository" rx="2.5" ry="2.5" style="stroke:#181818;stroke-width:0.5;" width="259" x="560" y="710.1211"/><ellipse cx="611.25" cy="726.1211" fill="#ADD1B2" rx="11" ry="11" style="stroke:#181818;stroke-width:1.0;"/><path d="M614.0156,721.9961 Q614.1719,721.7773 614.3594,721.668 Q614.5469,721.5586 614.7656,721.5586 Q615.1406,721.5586 615.375,721.8242 Q615.6094,722.0742 615.6094,722.6836 L615.6094,724.1367 Q615.6094,724.7461 615.375,725.0117 Q615.1406,725.2773 614.7656,725.2773 Q614.4219,725.2773 614.2188,725.0742 Q614.0156,724.8867 613.9063,724.3711 Q613.8594,724.0117 613.6719,723.8242 Q613.3438,723.4492 612.7344,723.2305 Q612.125,723.0117 611.5,723.0117 Q610.7344,723.0117 610.0938,723.3398 Q609.4688,723.668 608.9688,724.418 Q608.4844,725.168 608.4844,726.1992 L608.4844,727.293 Q608.4844,728.5273 609.375,729.3555 Q610.2656,730.168 611.8594,730.168 Q612.7969,730.168 613.4531,729.918 Q613.8438,729.7617 614.2656,729.3242 Q614.5313,729.0586 614.6719,728.9805 Q614.8281,728.9023 615.0313,728.9023 Q615.3594,728.9023 615.6094,729.168 Q615.875,729.418 615.875,729.7617 Q615.875,730.1055 615.5313,730.5117 Q615.0313,731.0898 614.2344,731.418 Q613.1563,731.8711 611.8594,731.8711 Q610.3438,731.8711 609.1406,731.2461 Q608.1563,730.7461 607.4688,729.6836 Q606.7813,728.6055 606.7813,727.3242 L606.7813,726.168 Q606.7813,724.8398 607.3906,723.6992 Q608.0156,722.543 609.1094,721.9336 Q610.2031,721.3086 611.4375,721.3086 Q612.1719,721.3086 612.8125,721.4805 Q613.4688,721.6367 614.0156,721.9961 Z " fill="#000000"/><text fill="#000000" font-family="sans-serif" font-size="14" lengthAdjust="spacing" textLength="148" x="631.75" y="731.918">GreenSpaceRepository</text><line style="stroke:#181818;stroke-width:0.5;" x1="561" x2="818" y1="742.1211" y2="742.1211"/><line style="stroke:#181818;stroke-width:0.5;" x1="561" x2="818" y1="750.1211" y2="750.1211"/><text fill="#000000" font-family="sans-serif" font-size="14" lengthAdjust="spacing" textLength="247" x="566" y="769.2285">+List&lt;GreenSpace&gt; getGreenSpaces()</text><text fill="#000000" font-family="sans-serif" font-size="14" lengthAdjust="spacing" textLength="144" x="566" y="787.8496">+toDTO(greenSpaces)</text></g><!--class GreenSpaceMapper--><g id="elem_GreenSpaceMapper"><rect codeLine="45" fill="#F1F1F1" height="85.2422" id="GreenSpaceMapper" rx="2.5" ry="2.5" style="stroke:#181818;stroke-width:0.5;" width="430" x="458.5" y="865.6211"/><ellipse cx="605.25" cy="881.6211" fill="#ADD1B2" rx="11" ry="11" style="stroke:#181818;stroke-width:1.0;"/><path d="M608.0156,877.4961 Q608.1719,877.2773 608.3594,877.168 Q608.5469,877.0586 608.7656,877.0586 Q609.1406,877.0586 609.375,877.3242 Q609.6094,877.5742 609.6094,878.1836 L609.6094,879.6367 Q609.6094,880.2461 609.375,880.5117 Q609.1406,880.7773 608.7656,880.7773 Q608.4219,880.7773 608.2188,880.5742 Q608.0156,880.3867 607.9063,879.8711 Q607.8594,879.5117 607.6719,879.3242 Q607.3438,878.9492 606.7344,878.7305 Q606.125,878.5117 605.5,878.5117 Q604.7344,878.5117 604.0938,878.8398 Q603.4688,879.168 602.9688,879.918 Q602.4844,880.668 602.4844,881.6992 L602.4844,882.793 Q602.4844,884.0273 603.375,884.8555 Q604.2656,885.668 605.8594,885.668 Q606.7969,885.668 607.4531,885.418 Q607.8438,885.2617 608.2656,884.8242 Q608.5313,884.5586 608.6719,884.4805 Q608.8281,884.4023 609.0313,884.4023 Q609.3594,884.4023 609.6094,884.668 Q609.875,884.918 609.875,885.2617 Q609.875,885.6055 609.5313,886.0117 Q609.0313,886.5898 608.2344,886.918 Q607.1563,887.3711 605.8594,887.3711 Q604.3438,887.3711 603.1406,886.7461 Q602.1563,886.2461 601.4688,885.1836 Q600.7813,884.1055 600.7813,882.8242 L600.7813,881.668 Q600.7813,880.3398 601.3906,879.1992 Q602.0156,878.043 603.1094,877.4336 Q604.2031,876.8086 605.4375,876.8086 Q606.1719,876.8086 606.8125,876.9805 Q607.4688,877.1367 608.0156,877.4961 Z " fill="#000000"/><text fill="#000000" font-family="sans-serif" font-size="14" lengthAdjust="spacing" textLength="128" x="625.75" y="887.418">GreenSpaceMapper</text><line style="stroke:#181818;stroke-width:0.5;" x1="459.5" x2="887.5" y1="897.6211" y2="897.6211"/><line style="stroke:#181818;stroke-width:0.5;" x1="459.5" x2="887.5" y1="905.6211" y2="905.6211"/><text fill="#000000" font-family="sans-serif" font-size="14" lengthAdjust="spacing" textLength="418" x="464.5" y="924.7285">+List&lt;GreenSpaceDTO&gt; toDTO(List&lt;GreenSpace&gt; greenSpaces)</text><text fill="#000000" font-family="sans-serif" font-size="14" lengthAdjust="spacing" textLength="335" x="464.5" y="943.3496">+GreenSpaceDTO toDTO(GreenSpace greenSpace)</text></g><!--class TaskMapper--><g id="elem_TaskMapper"><rect codeLine="50" fill="#F1F1F1" height="85.2422" id="TaskMapper" rx="2.5" ry="2.5" style="stroke:#181818;stroke-width:0.5;" width="281" x="7" y="865.6211"/><ellipse cx="103.75" cy="881.6211" fill="#ADD1B2" rx="11" ry="11" style="stroke:#181818;stroke-width:1.0;"/><path d="M106.5156,877.4961 Q106.6719,877.2773 106.8594,877.168 Q107.0469,877.0586 107.2656,877.0586 Q107.6406,877.0586 107.875,877.3242 Q108.1094,877.5742 108.1094,878.1836 L108.1094,879.6367 Q108.1094,880.2461 107.875,880.5117 Q107.6406,880.7773 107.2656,880.7773 Q106.9219,880.7773 106.7188,880.5742 Q106.5156,880.3867 106.4063,879.8711 Q106.3594,879.5117 106.1719,879.3242 Q105.8438,878.9492 105.2344,878.7305 Q104.625,878.5117 104,878.5117 Q103.2344,878.5117 102.5938,878.8398 Q101.9688,879.168 101.4688,879.918 Q100.9844,880.668 100.9844,881.6992 L100.9844,882.793 Q100.9844,884.0273 101.875,884.8555 Q102.7656,885.668 104.3594,885.668 Q105.2969,885.668 105.9531,885.418 Q106.3438,885.2617 106.7656,884.8242 Q107.0313,884.5586 107.1719,884.4805 Q107.3281,884.4023 107.5313,884.4023 Q107.8594,884.4023 108.1094,884.668 Q108.375,884.918 108.375,885.2617 Q108.375,885.6055 108.0313,886.0117 Q107.5313,886.5898 106.7344,886.918 Q105.6563,887.3711 104.3594,887.3711 Q102.8438,887.3711 101.6406,886.7461 Q100.6563,886.2461 99.9688,885.1836 Q99.2813,884.1055 99.2813,882.8242 L99.2813,881.668 Q99.2813,880.3398 99.8906,879.1992 Q100.5156,878.043 101.6094,877.4336 Q102.7031,876.8086 103.9375,876.8086 Q104.6719,876.8086 105.3125,876.9805 Q105.9688,877.1367 106.5156,877.4961 Z " fill="#000000"/><text fill="#000000" font-family="sans-serif" font-size="14" lengthAdjust="spacing" textLength="79" x="124.25" y="887.418">TaskMapper</text><line style="stroke:#181818;stroke-width:0.5;" x1="8" x2="287" y1="897.6211" y2="897.6211"/><line style="stroke:#181818;stroke-width:0.5;" x1="8" x2="287" y1="905.6211" y2="905.6211"/><text fill="#000000" font-family="sans-serif" font-size="14" lengthAdjust="spacing" textLength="269" x="13" y="924.7285">+List&lt;TaskDTO&gt; toDTO(List&lt;Task&gt; tasks)</text><text fill="#000000" font-family="sans-serif" font-size="14" lengthAdjust="spacing" textLength="186" x="13" y="943.3496">+TaskDTO toDTO(Task task)</text></g><!--class GreenSpaceDTO--><g id="elem_GreenSpaceDTO"><rect codeLine="55" fill="#F1F1F1" height="122.4844" id="GreenSpaceDTO" rx="2.5" ry="2.5" style="stroke:#181818;stroke-width:0.5;" width="142" x="602.5" y="1030.6211"/><ellipse cx="617.5" cy="1046.6211" fill="#ADD1B2" rx="11" ry="11" style="stroke:#181818;stroke-width:1.0;"/><path d="M620.2656,1042.4961 Q620.4219,1042.2773 620.6094,1042.168 Q620.7969,1042.0586 621.0156,1042.0586 Q621.3906,1042.0586 621.625,1042.3242 Q621.8594,1042.5742 621.8594,1043.1836 L621.8594,1044.6367 Q621.8594,1045.2461 621.625,1045.5117 Q621.3906,1045.7773 621.0156,1045.7773 Q620.6719,1045.7773 620.4688,1045.5742 Q620.2656,1045.3867 620.1563,1044.8711 Q620.1094,1044.5117 619.9219,1044.3242 Q619.5938,1043.9492 618.9844,1043.7305 Q618.375,1043.5117 617.75,1043.5117 Q616.9844,1043.5117 616.3438,1043.8398 Q615.7188,1044.168 615.2188,1044.918 Q614.7344,1045.668 614.7344,1046.6992 L614.7344,1047.793 Q614.7344,1049.0273 615.625,1049.8555 Q616.5156,1050.668 618.1094,1050.668 Q619.0469,1050.668 619.7031,1050.418 Q620.0938,1050.2617 620.5156,1049.8242 Q620.7813,1049.5586 620.9219,1049.4805 Q621.0781,1049.4023 621.2813,1049.4023 Q621.6094,1049.4023 621.8594,1049.668 Q622.125,1049.918 622.125,1050.2617 Q622.125,1050.6055 621.7813,1051.0117 Q621.2813,1051.5898 620.4844,1051.918 Q619.4063,1052.3711 618.1094,1052.3711 Q616.5938,1052.3711 615.3906,1051.7461 Q614.4063,1051.2461 613.7188,1050.1836 Q613.0313,1049.1055 613.0313,1047.8242 L613.0313,1046.668 Q613.0313,1045.3398 613.6406,1044.1992 Q614.2656,1043.043 615.3594,1042.4336 Q616.4531,1041.8086 617.6875,1041.8086 Q618.4219,1041.8086 619.0625,1041.9805 Q619.7188,1042.1367 620.2656,1042.4961 Z " fill="#000000"/><text fill="#000000" font-family="sans-serif" font-size="14" lengthAdjust="spacing" textLength="110" x="631.5" y="1052.418">GreenSpaceDTO</text><line style="stroke:#181818;stroke-width:0.5;" x1="603.5" x2="743.5" y1="1062.6211" y2="1062.6211"/><text fill="#000000" font-family="sans-serif" font-size="14" lengthAdjust="spacing" textLength="35" x="608.5" y="1081.7285">name</text><text fill="#000000" font-family="sans-serif" font-size="14" lengthAdjust="spacing" textLength="29" x="608.5" y="1100.3496">area</text><text fill="#000000" font-family="sans-serif" font-size="14" lengthAdjust="spacing" textLength="27" x="608.5" y="1118.9707">type</text><text fill="#000000" font-family="sans-serif" font-size="14" lengthAdjust="spacing" textLength="51" x="608.5" y="1137.5918">address</text><line style="stroke:#181818;stroke-width:0.5;" x1="603.5" x2="743.5" y1="1145.1055" y2="1145.1055"/></g><!--class TaskDTO--><g id="elem_TaskDTO"><rect codeLine="62" fill="#F1F1F1" height="159.7266" id="TaskDTO" rx="2.5" ry="2.5" style="stroke:#181818;stroke-width:0.5;" width="124" x="85.5" y="1011.6211"/><ellipse cx="114.45" cy="1027.6211" fill="#ADD1B2" rx="11" ry="11" style="stroke:#181818;stroke-width:1.0;"/><path d="M117.2156,1023.4961 Q117.3719,1023.2773 117.5594,1023.168 Q117.7469,1023.0586 117.9656,1023.0586 Q118.3406,1023.0586 118.575,1023.3242 Q118.8094,1023.5742 118.8094,1024.1836 L118.8094,1025.6367 Q118.8094,1026.2461 118.575,1026.5117 Q118.3406,1026.7773 117.9656,1026.7773 Q117.6219,1026.7773 117.4188,1026.5742 Q117.2156,1026.3867 117.1063,1025.8711 Q117.0594,1025.5117 116.8719,1025.3242 Q116.5438,1024.9492 115.9344,1024.7305 Q115.325,1024.5117 114.7,1024.5117 Q113.9344,1024.5117 113.2938,1024.8398 Q112.6688,1025.168 112.1688,1025.918 Q111.6844,1026.668 111.6844,1027.6992 L111.6844,1028.793 Q111.6844,1030.0273 112.575,1030.8555 Q113.4656,1031.668 115.0594,1031.668 Q115.9969,1031.668 116.6531,1031.418 Q117.0438,1031.2617 117.4656,1030.8242 Q117.7313,1030.5586 117.8719,1030.4805 Q118.0281,1030.4023 118.2313,1030.4023 Q118.5594,1030.4023 118.8094,1030.668 Q119.075,1030.918 119.075,1031.2617 Q119.075,1031.6055 118.7313,1032.0117 Q118.2313,1032.5898 117.4344,1032.918 Q116.3563,1033.3711 115.0594,1033.3711 Q113.5438,1033.3711 112.3406,1032.7461 Q111.3563,1032.2461 110.6688,1031.1836 Q109.9813,1030.1055 109.9813,1028.8242 L109.9813,1027.668 Q109.9813,1026.3398 110.5906,1025.1992 Q111.2156,1024.043 112.3094,1023.4336 Q113.4031,1022.8086 114.6375,1022.8086 Q115.3719,1022.8086 116.0125,1022.9805 Q116.6688,1023.1367 117.2156,1023.4961 Z " fill="#000000"/><text fill="#000000" font-family="sans-serif" font-size="14" lengthAdjust="spacing" textLength="61" x="131.55" y="1033.418">TaskDTO</text><line style="stroke:#181818;stroke-width:0.5;" x1="86.5" x2="208.5" y1="1043.6211" y2="1043.6211"/><text fill="#000000" font-family="sans-serif" font-size="14" lengthAdjust="spacing" textLength="22" x="91.5" y="1062.7285">title</text><text fill="#000000" font-family="sans-serif" font-size="14" lengthAdjust="spacing" textLength="69" x="91.5" y="1081.3496">description</text><text fill="#000000" font-family="sans-serif" font-size="14" lengthAdjust="spacing" textLength="112" x="91.5" y="1099.9707">degreeOfUrgency</text><text fill="#000000" font-family="sans-serif" font-size="14" lengthAdjust="spacing" textLength="111" x="91.5" y="1118.5918">expectedDuration</text><text fill="#000000" font-family="sans-serif" font-size="14" lengthAdjust="spacing" textLength="38" x="91.5" y="1137.2129">status</text><text fill="#000000" font-family="sans-serif" font-size="14" lengthAdjust="spacing" textLength="77" x="91.5" y="1155.834">startingDate</text><line style="stroke:#181818;stroke-width:0.5;" x1="86.5" x2="208.5" y1="1163.3477" y2="1163.3477"/></g><!--class Task--><g id="elem_Task"><rect codeLine="71" fill="#F1F1F1" height="159.7266" id="Task" rx="2.5" ry="2.5" style="stroke:#181818;stroke-width:0.5;" width="124" x="273.5" y="1011.6211"/><ellipse cx="315.95" cy="1027.6211" fill="#ADD1B2" rx="11" ry="11" style="stroke:#181818;stroke-width:1.0;"/><path d="M318.7156,1023.4961 Q318.8719,1023.2773 319.0594,1023.168 Q319.2469,1023.0586 319.4656,1023.0586 Q319.8406,1023.0586 320.075,1023.3242 Q320.3094,1023.5742 320.3094,1024.1836 L320.3094,1025.6367 Q320.3094,1026.2461 320.075,1026.5117 Q319.8406,1026.7773 319.4656,1026.7773 Q319.1219,1026.7773 318.9188,1026.5742 Q318.7156,1026.3867 318.6063,1025.8711 Q318.5594,1025.5117 318.3719,1025.3242 Q318.0438,1024.9492 317.4344,1024.7305 Q316.825,1024.5117 316.2,1024.5117 Q315.4344,1024.5117 314.7938,1024.8398 Q314.1688,1025.168 313.6688,1025.918 Q313.1844,1026.668 313.1844,1027.6992 L313.1844,1028.793 Q313.1844,1030.0273 314.075,1030.8555 Q314.9656,1031.668 316.5594,1031.668 Q317.4969,1031.668 318.1531,1031.418 Q318.5438,1031.2617 318.9656,1030.8242 Q319.2313,1030.5586 319.3719,1030.4805 Q319.5281,1030.4023 319.7313,1030.4023 Q320.0594,1030.4023 320.3094,1030.668 Q320.575,1030.918 320.575,1031.2617 Q320.575,1031.6055 320.2313,1032.0117 Q319.7313,1032.5898 318.9344,1032.918 Q317.8563,1033.3711 316.5594,1033.3711 Q315.0438,1033.3711 313.8406,1032.7461 Q312.8563,1032.2461 312.1688,1031.1836 Q311.4813,1030.1055 311.4813,1028.8242 L311.4813,1027.668 Q311.4813,1026.3398 312.0906,1025.1992 Q312.7156,1024.043 313.8094,1023.4336 Q314.9031,1022.8086 316.1375,1022.8086 Q316.8719,1022.8086 317.5125,1022.9805 Q318.1688,1023.1367 318.7156,1023.4961 Z " fill="#000000"/><text fill="#000000" font-family="sans-serif" font-size="14" lengthAdjust="spacing" textLength="31" x="336.05" y="1033.418">Task</text><line style="stroke:#181818;stroke-width:0.5;" x1="274.5" x2="396.5" y1="1043.6211" y2="1043.6211"/><text fill="#000000" font-family="sans-serif" font-size="14" lengthAdjust="spacing" textLength="22" x="279.5" y="1062.7285">title</text><text fill="#000000" font-family="sans-serif" font-size="14" lengthAdjust="spacing" textLength="69" x="279.5" y="1081.3496">description</text><text fill="#000000" font-family="sans-serif" font-size="14" lengthAdjust="spacing" textLength="112" x="279.5" y="1099.9707">degreeOfUrgency</text><text fill="#000000" font-family="sans-serif" font-size="14" lengthAdjust="spacing" textLength="111" x="279.5" y="1118.5918">expectedDuration</text><text fill="#000000" font-family="sans-serif" font-size="14" lengthAdjust="spacing" textLength="38" x="279.5" y="1137.2129">status</text><text fill="#000000" font-family="sans-serif" font-size="14" lengthAdjust="spacing" textLength="77" x="279.5" y="1155.834">startingDate</text><line style="stroke:#181818;stroke-width:0.5;" x1="274.5" x2="396.5" y1="1163.3477" y2="1163.3477"/></g><!--class GreenSpace--><g id="elem_GreenSpace"><rect codeLine="80" fill="#F1F1F1" height="122.4844" id="GreenSpace" rx="2.5" ry="2.5" style="stroke:#181818;stroke-width:0.5;" width="112" x="841.5" y="1030.6211"/><ellipse cx="856.5" cy="1046.6211" fill="#ADD1B2" rx="11" ry="11" style="stroke:#181818;stroke-width:1.0;"/><path d="M859.2656,1042.4961 Q859.4219,1042.2773 859.6094,1042.168 Q859.7969,1042.0586 860.0156,1042.0586 Q860.3906,1042.0586 860.625,1042.3242 Q860.8594,1042.5742 860.8594,1043.1836 L860.8594,1044.6367 Q860.8594,1045.2461 860.625,1045.5117 Q860.3906,1045.7773 860.0156,1045.7773 Q859.6719,1045.7773 859.4688,1045.5742 Q859.2656,1045.3867 859.1563,1044.8711 Q859.1094,1044.5117 858.9219,1044.3242 Q858.5938,1043.9492 857.9844,1043.7305 Q857.375,1043.5117 856.75,1043.5117 Q855.9844,1043.5117 855.3438,1043.8398 Q854.7188,1044.168 854.2188,1044.918 Q853.7344,1045.668 853.7344,1046.6992 L853.7344,1047.793 Q853.7344,1049.0273 854.625,1049.8555 Q855.5156,1050.668 857.1094,1050.668 Q858.0469,1050.668 858.7031,1050.418 Q859.0938,1050.2617 859.5156,1049.8242 Q859.7813,1049.5586 859.9219,1049.4805 Q860.0781,1049.4023 860.2813,1049.4023 Q860.6094,1049.4023 860.8594,1049.668 Q861.125,1049.918 861.125,1050.2617 Q861.125,1050.6055 860.7813,1051.0117 Q860.2813,1051.5898 859.4844,1051.918 Q858.4063,1052.3711 857.1094,1052.3711 Q855.5938,1052.3711 854.3906,1051.7461 Q853.4063,1051.2461 852.7188,1050.1836 Q852.0313,1049.1055 852.0313,1047.8242 L852.0313,1046.668 Q852.0313,1045.3398 852.6406,1044.1992 Q853.2656,1043.043 854.3594,1042.4336 Q855.4531,1041.8086 856.6875,1041.8086 Q857.4219,1041.8086 858.0625,1041.9805 Q858.7188,1042.1367 859.2656,1042.4961 Z " fill="#000000"/><text fill="#000000" font-family="sans-serif" font-size="14" lengthAdjust="spacing" textLength="80" x="870.5" y="1052.418">GreenSpace</text><line style="stroke:#181818;stroke-width:0.5;" x1="842.5" x2="952.5" y1="1062.6211" y2="1062.6211"/><text fill="#000000" font-family="sans-serif" font-size="14" lengthAdjust="spacing" textLength="35" x="847.5" y="1081.7285">name</text><text fill="#000000" font-family="sans-serif" font-size="14" lengthAdjust="spacing" textLength="29" x="847.5" y="1100.3496">area</text><text fill="#000000" font-family="sans-serif" font-size="14" lengthAdjust="spacing" textLength="27" x="847.5" y="1118.9707">type</text><text fill="#000000" font-family="sans-serif" font-size="14" lengthAdjust="spacing" textLength="51" x="847.5" y="1137.5918">address</text><line style="stroke:#181818;stroke-width:0.5;" x1="842.5" x2="952.5" y1="1145.1055" y2="1145.1055"/></g><!--link ChangeStatusUI to ChangeStatusController--><g id="link_ChangeStatusUI_ChangeStatusController"><path codeLine="87" d="M456.5,94.9311 C456.5,111.1211 456.5,127.6011 456.5,149.3311 " fill="none" id="ChangeStatusUI-to-ChangeStatusController" style="stroke:#181818;stroke-width:1.0;stroke-dasharray:7.0,7.0;"/><polygon fill="#181818" points="456.5,155.3311,460.5,146.3311,456.5,150.3311,452.5,146.3311,456.5,155.3311" style="stroke:#181818;stroke-width:1.0;"/></g><!--link ChangeStatusController to Repositories--><g id="link_ChangeStatusController_Repositories"><path codeLine="88" d="M456.5,296.7811 C456.5,340.3011 456.5,389.7711 456.5,431.3811 " fill="none" id="ChangeStatusController-to-Repositories" style="stroke:#181818;stroke-width:1.0;stroke-dasharray:7.0,7.0;"/><polygon fill="#181818" points="456.5,437.3811,460.5,428.3811,456.5,432.3811,452.5,428.3811,456.5,437.3811" style="stroke:#181818;stroke-width:1.0;"/><text fill="#000000" font-family="sans-serif" font-size="13" lengthAdjust="spacing" textLength="67" x="457.5" y="372.6494">repositories</text></g><!--link ChangeStatusController to TaskRepository--><g id="link_ChangeStatusController_TaskRepository"><path codeLine="89" d="M266.4,296.8811 C246.58,315.1011 233.5,337.8411 233.5,366.1211 C233.5,366.1211 233.5,366.1211 233.5,631.1211 C233.5,655.6711 240.7979,675.0253 253.1379,695.4553 " fill="none" id="ChangeStatusController-to-TaskRepository" style="stroke:#181818;stroke-width:1.0;stroke-dasharray:7.0,7.0;"/><polygon fill="#181818" points="256.24,700.5911,255.0107,690.8193,253.6549,696.3112,248.1629,694.9554,256.24,700.5911" style="stroke:#181818;stroke-width:1.0;"/><text fill="#000000" font-family="sans-serif" font-size="13" lengthAdjust="spacing" textLength="87" x="234.5" y="504.1494">taskRepository</text></g><!--link ChangeStatusController to GreenSpaceRepository--><g id="link_ChangeStatusController_GreenSpaceRepository"><path codeLine="90" d="M670.02,294.7111 C690.88,313.1411 704.5,336.5111 704.5,366.1211 C704.5,366.1211 704.5,366.1211 704.5,631.1211 C704.5,657.4711 701.8577,680.8948 698.1977,704.0248 " fill="none" id="ChangeStatusController-to-GreenSpaceRepository" style="stroke:#181818;stroke-width:1.0;stroke-dasharray:7.0,7.0;"/><polygon fill="#181818" points="697.26,709.9511,702.6175,701.6869,698.0415,705.0125,694.7158,700.4365,697.26,709.9511" style="stroke:#181818;stroke-width:1.0;"/><text fill="#000000" font-family="sans-serif" font-size="13" lengthAdjust="spacing" textLength="131" x="705.5" y="504.1494">greenSpaceRepository</text></g><!--link Repositories to Repositories--><g id="link_Repositories_Repositories"><path codeLine="92" d="M555.55,482.3611 C575.9,484.1011 590.5,489.5211 590.5,498.6211 C590.5,507.7211 581.8782,512.6299 561.5282,514.3699 " fill="none" id="Repositories-to-Repositories" style="stroke:#181818;stroke-width:1.0;"/><polygon fill="#181818" points="555.55,514.8811,564.8581,518.0998,560.5318,514.4551,564.1765,510.1289,555.55,514.8811" style="stroke:#181818;stroke-width:1.0;"/><text fill="#000000" font-family="sans-serif" font-size="13" lengthAdjust="spacing" textLength="49" x="596.5" y="504.1494">instance</text></g><!--link Repositories to TaskRepository--><g id="link_Repositories_TaskRepository"><path codeLine="93" d="M416.83,559.7511 C404.16,579.1211 390.15,600.7211 377.5,620.6211 C360.86,646.8011 345.8122,671.0397 330.8922,695.3097 " fill="none" id="Repositories-to-TaskRepository" style="stroke:#181818;stroke-width:1.0;"/><polygon fill="#181818" points="327.75,700.4211,335.8709,694.8488,330.3685,696.1616,329.0558,690.6592,327.75,700.4211" style="stroke:#181818;stroke-width:1.0;"/><text fill="#000000" font-family="sans-serif" font-size="13" lengthAdjust="spacing" textLength="87" x="378.5" y="635.6494">taskRepository</text><text fill="#000000" font-family="sans-serif" font-size="13" lengthAdjust="spacing" textLength="7" x="324.4789" y="689.3216">1</text></g><!--link Repositories to GreenSpaceRepository--><g id="link_Repositories_GreenSpaceRepository"><path codeLine="94" d="M488.49,559.6811 C503.87,585.7111 523.7,615.6511 545.5,639.6211 C569.37,665.8611 595.0577,687.0518 621.8677,706.5518 " fill="none" id="Repositories-to-GreenSpaceRepository" style="stroke:#181818;stroke-width:1.0;"/><polygon fill="#181818" points="626.72,710.0811,621.7944,701.5524,622.6765,707.1401,617.0888,708.0221,626.72,710.0811" style="stroke:#181818;stroke-width:1.0;"/><text fill="#000000" font-family="sans-serif" font-size="13" lengthAdjust="spacing" textLength="131" x="546.5" y="635.6494">greenSpaceRepository</text><text fill="#000000" font-family="sans-serif" font-size="13" lengthAdjust="spacing" textLength="7" x="609.1566" y="698.9788">1</text></g><!--link TaskRepository to Task--><g id="link_TaskRepository_Task"><path codeLine="96" d="M302.42,804.8011 C308.77,859.6711 318.2508,941.5408 325.6308,1005.3608 " fill="none" id="TaskRepository-to-Task" style="stroke:#181818;stroke-width:1.0;"/><polygon fill="#181818" points="326.32,1011.3211,329.2597,1001.9212,325.7456,1006.3542,321.3126,1002.8402,326.32,1011.3211" style="stroke:#181818;stroke-width:1.0;"/><text fill="#000000" font-family="sans-serif" font-size="13" lengthAdjust="spacing" textLength="32" x="320.5" y="913.6494">tasks</text></g><!--link GreenSpaceRepository to GreenSpace--><g id="link_GreenSpaceRepository_GreenSpace"><path codeLine="97" d="M819,792.3011 C853.39,809.1311 886.48,832.7611 906.5,865.6211 C936.5,914.8611 930.3681,976.2335 918.5781,1024.3435 " fill="none" id="GreenSpaceRepository-to-GreenSpace" style="stroke:#181818;stroke-width:1.0;"/><polygon fill="#181818" points="917.15,1030.1711,923.1772,1022.3818,918.3401,1025.3148,915.4071,1020.4777,917.15,1030.1711" style="stroke:#181818;stroke-width:1.0;"/><text fill="#000000" font-family="sans-serif" font-size="13" lengthAdjust="spacing" textLength="78" x="928.5" y="913.6494">green spaces</text></g><!--link TaskRepository to TaskMapper--><g id="link_TaskRepository_TaskMapper"><path codeLine="99" d="M246.89,804.7311 C227.75,824.4411 210.3289,842.3957 192.1589,861.1157 " fill="none" id="TaskRepository-to-TaskMapper" style="stroke:#181818;stroke-width:1.0;stroke-dasharray:7.0,7.0;"/><polygon fill="#181818" points="187.98,865.4211,197.1187,861.7489,191.4624,861.8332,191.3781,856.177,187.98,865.4211" style="stroke:#181818;stroke-width:1.0;"/></g><!--link TaskMapper to TaskDTO--><g id="link_TaskMapper_TaskDTO"><path codeLine="100" d="M147.5,950.7611 C147.5,968.7611 147.5,984.4511 147.5,1005.3211 " fill="none" id="TaskMapper-to-TaskDTO" style="stroke:#181818;stroke-width:1.0;stroke-dasharray:7.0,7.0;"/><polygon fill="#181818" points="147.5,1011.3211,151.5,1002.3211,147.5,1006.3211,143.5,1002.3211,147.5,1011.3211" style="stroke:#181818;stroke-width:1.0;"/></g><!--link TaskMapper to Task--><g id="link_TaskMapper_Task"><path codeLine="101" d="M190.63,950.7611 C215.13,974.4111 241.9139,1000.2632 269.0039,1026.4232 " fill="none" id="TaskMapper-to-Task" style="stroke:#181818;stroke-width:1.0;stroke-dasharray:7.0,7.0;"/><polygon fill="#181818" points="273.32,1030.5911,269.6245,1021.4618,269.7233,1027.1178,264.0673,1027.2166,273.32,1030.5911" style="stroke:#181818;stroke-width:1.0;"/></g><!--link GreenSpaceRepository to GreenSpaceMapper--><g id="link_GreenSpaceRepository_GreenSpaceMapper"><path codeLine="102" d="M685.17,795.1611 C682.89,817.0011 680.7327,837.7335 678.4527,859.5835 " fill="none" id="GreenSpaceRepository-to-GreenSpaceMapper" style="stroke:#181818;stroke-width:1.0;stroke-dasharray:7.0,7.0;"/><polygon fill="#181818" points="677.83,865.5511,682.7425,857.0148,678.3489,860.5781,674.7857,856.1846,677.83,865.5511" style="stroke:#181818;stroke-width:1.0;"/></g><!--link GreenSpaceMapper to GreenSpaceDTO--><g id="link_GreenSpaceMapper_GreenSpaceDTO"><path codeLine="103" d="M673.5,950.7611 C673.5,974.4111 673.5,998.4311 673.5,1024.5911 " fill="none" id="GreenSpaceMapper-to-GreenSpaceDTO" style="stroke:#181818;stroke-width:1.0;stroke-dasharray:7.0,7.0;"/><polygon fill="#181818" points="673.5,1030.5911,677.5,1021.5911,673.5,1025.5911,669.5,1021.5911,673.5,1030.5911" style="stroke:#181818;stroke-width:1.0;"/></g><!--link GreenSpaceMapper to GreenSpace--><g id="link_GreenSpaceMapper_GreenSpace"><path codeLine="104" d="M724.89,950.7611 C759.64,978.9111 800.8587,1012.3132 836.5787,1041.2632 " fill="none" id="GreenSpaceMapper-to-GreenSpace" style="stroke:#181818;stroke-width:1.0;stroke-dasharray:7.0,7.0;"/><polygon fill="#181818" points="841.24,1045.0411,836.7666,1036.2668,837.3556,1041.8929,831.7295,1042.4819,841.24,1045.0411" style="stroke:#181818;stroke-width:1.0;"/></g><!--SRC=[xLRVRzem47xFNt7QIq4hgD2jKgC9ROMgQWTgLQ1zzf8ZM4tio7RQiMd_- -m0IHn2oYPDMgNmH7pV_RQ_Eu3qToIVA8k98154d75lANY4e4I2pXe0EI0ctXC9SAfM8O90Jn4MX1KukIG-Vw4iW0K9PGKWf0pLAaQ8URWo7pKGBXHtTkLUIAJyefIWtnA5rnvdK_e3uII37eMuKA0u21ei5VZK14mvom2AAft6V7hIFuSE39Sw6PquaKyW5L69DBeUZ-8G5MPAgTiDU9h2vjVmSolzLOCRSgO43qCKETxytcTEPjftZcgPKEunvf8gBbR740X4DjKzmFoqRLiAK5rbADagISTKga-vV3Ix7HoYOSBQOir_UR7ALLf1qLvxVs9fEXfo30nVrXLfE_lgbYL8KThLwbYorcx-rqntZ-d0sk1Qs9fAvVMiC3Ypsf03oZ7Rk7AFNwbToQtYkb9fnUIVbdHFT5N9bcCitO_NBiSwo3o7cdxcLYOaZdTVGDNDN9lVZQdepp9YwM_KypEeA7PL2si2p1v28JHpDe2gJctG6x3vIc47TCXeMVuPYR3uJGIIuhVXIKlk-mAbh4jpnqVAXiK37wKdQ9nIfdLi2dcxc8i0cRSgYl1xh2aM_L4YI5bjJQcb4w7qZ1WHXNMHle4m2xVit_IjD6-wtS6UqLAbK1WyNQDP94LNZ_5TYjohFIYnd0lsa3h0G1KHkPMpBSlUcWOTEm5DydJ3-DNmZbPurtjtOE3LkdyHSsaQ64lcQEqtAtGbAnjiBjZu0PbItZxxszQisQi8sl3P5g3VVOsqDYwxUxQd7OAtmGMlho2p13yZyvCeT9otkeOsQsQpPZPhPhDcDcjcisOsQsQpPZPhvd-zPjw5XAdvP0pFAAH-hj3hza_wfzrUh_M8FamnXjufzCxT_fbxUWgFbzCP643RQLtTZK7oHEXtwMkoJbT1RQ7jt91d0lS9KpJI1RwDaTsClcuFu98zKy5PX4mvDm-J773seND1bNOfT2pmC756k219gBI6ntrD4YuCurx_OzyPw_kVw5NOXLWvGwuDcnjpD_iD]--></g></svg>