<?xml version="1.0" encoding="us-ascii" standalone="no"?><svg xmlns="http://www.w3.org/2000/svg" xmlns:xlink="http://www.w3.org/1999/xlink" contentStyleType="text/css" height="758px" preserveAspectRatio="none" style="width:1234px;height:758px;background:#FFFFFF;" version="1.1" viewBox="0 0 1234 758" width="1234px" zoomAndPan="magnify"><defs/><g><text fill="#000000" font-family="sans-serif" font-size="14" font-weight="bold" lengthAdjust="spacing" textLength="299" x="466.75" y="28.5352">US029 - Record the completion of a task.</text><rect fill="#FFFFFF" height="530.5898" style="stroke:#181818;stroke-width:1.0;" width="10" x="46.5" y="128.9766"/><rect fill="#FFFFFF" height="173.8633" style="stroke:#181818;stroke-width:1.0;" width="10" x="372.5" y="150.2871"/><rect fill="#FFFFFF" height="29.3105" style="stroke:#181818;stroke-width:1.0;" width="10" x="372.5" y="353.4609"/><rect fill="#FFFFFF" height="247.4844" style="stroke:#181818;stroke-width:1.0;" width="10" x="372.5" y="412.082"/><rect fill="#FFFFFF" height="73.7539" style="stroke:#181818;stroke-width:1.0;" width="10" x="637.5" y="221.0859"/><rect fill="#FFFFFF" height="188.8633" style="stroke:#181818;stroke-width:1.0;" width="10" x="637.5" y="441.3926"/><rect fill="#FFFFFF" height="87.9316" style="stroke:#181818;stroke-width:1.0;" width="10" x="911.5" y="513.0137"/><rect fill="#FFFFFF" height="29.3105" style="stroke:#181818;stroke-width:1.0;" width="10" x="1185.5" y="542.3242"/><line style="stroke:#181818;stroke-width:0.5;stroke-dasharray:5.0,5.0;" x1="51" x2="51" y1="118.9766" y2="677.5664"/><line style="stroke:#181818;stroke-width:0.5;stroke-dasharray:5.0,5.0;" x1="377.5" x2="377.5" y1="118.9766" y2="677.5664"/><line style="stroke:#181818;stroke-width:0.5;stroke-dasharray:5.0,5.0;" x1="642.5" x2="642.5" y1="189.0313" y2="677.5664"/><line style="stroke:#181818;stroke-width:0.5;stroke-dasharray:5.0,5.0;" x1="916" x2="916" y1="118.9766" y2="677.5664"/><line style="stroke:#181818;stroke-width:0.5;stroke-dasharray:5.0,5.0;" x1="1190.5" x2="1190.5" y1="118.9766" y2="677.5664"/><text fill="#000000" font-family="sans-serif" font-size="14" lengthAdjust="spacing" textLength="87" x="5" y="116.0234">Collaborator</text><ellipse cx="51.5" cy="50.9883" fill="#E3E3E3" rx="8" ry="8" style="stroke:#181818;stroke-width:0.5;"/><path d="M51.5,58.9883 L51.5,85.9883 M38.5,66.9883 L64.5,66.9883 M51.5,85.9883 L38.5,100.9883 M51.5,85.9883 L64.5,100.9883 " fill="none" style="stroke:#181818;stroke-width:0.5;"/><text fill="#000000" font-family="sans-serif" font-size="14" lengthAdjust="spacing" textLength="87" x="5" y="690.1016">Collaborator</text><ellipse cx="51.5" cy="701.5547" fill="#E3E3E3" rx="8" ry="8" style="stroke:#181818;stroke-width:0.5;"/><path d="M51.5,709.5547 L51.5,736.5547 M38.5,717.5547 L64.5,717.5547 M51.5,736.5547 L38.5,751.5547 M51.5,736.5547 L64.5,751.5547 " fill="none" style="stroke:#181818;stroke-width:0.5;"/><rect fill="#E3E3E3" height="30.4883" rx="2.5" ry="2.5" style="stroke:#181818;stroke-width:0.5;" width="130" x="312.5" y="87.4883"/><text fill="#000000" font-family="sans-serif" font-size="14" lengthAdjust="spacing" textLength="116" x="319.5" y="108.0234">:CompleteTaskUI</text><rect fill="#E3E3E3" height="30.4883" rx="2.5" ry="2.5" style="stroke:#181818;stroke-width:0.5;" width="130" x="312.5" y="676.5664"/><text fill="#000000" font-family="sans-serif" font-size="14" lengthAdjust="spacing" textLength="116" x="319.5" y="697.1016">:CompleteTaskUI</text><rect fill="#E3E3E3" height="30.4883" rx="2.5" ry="2.5" style="stroke:#181818;stroke-width:0.5;" width="186" x="549.5" y="676.5664"/><text fill="#000000" font-family="sans-serif" font-size="14" lengthAdjust="spacing" textLength="172" x="556.5" y="697.1016">:CompleteTaskController</text><rect fill="#E3E3E3" height="46.9766" rx="2.5" ry="2.5" style="stroke:#181818;stroke-width:0.5;" width="123" x="855" y="71"/><text fill="#000000" font-family="sans-serif" font-size="14" lengthAdjust="spacing" textLength="101" x="866" y="91.5352">taskRepository</text><text fill="#000000" font-family="sans-serif" font-size="14" lengthAdjust="spacing" textLength="109" x="862" y="108.0234">:TaskRepository</text><rect fill="#E3E3E3" height="46.9766" rx="2.5" ry="2.5" style="stroke:#181818;stroke-width:0.5;" width="123" x="855" y="676.5664"/><text fill="#000000" font-family="sans-serif" font-size="14" lengthAdjust="spacing" textLength="101" x="866" y="697.1016">taskRepository</text><text fill="#000000" font-family="sans-serif" font-size="14" lengthAdjust="spacing" textLength="109" x="862" y="713.5898">:TaskRepository</text><rect fill="#E3E3E3" height="30.4883" rx="2.5" ry="2.5" style="stroke:#181818;stroke-width:0.5;" width="76" x="1152.5" y="87.4883"/><text fill="#000000" font-family="sans-serif" font-size="14" lengthAdjust="spacing" textLength="62" x="1159.5" y="108.0234">TaskDTO</text><rect fill="#E3E3E3" height="30.4883" rx="2.5" ry="2.5" style="stroke:#181818;stroke-width:0.5;" width="76" x="1152.5" y="676.5664"/><text fill="#000000" font-family="sans-serif" font-size="14" lengthAdjust="spacing" textLength="62" x="1159.5" y="697.1016">TaskDTO</text><rect fill="#FFFFFF" height="530.5898" style="stroke:#181818;stroke-width:1.0;" width="10" x="46.5" y="128.9766"/><rect fill="#FFFFFF" height="173.8633" style="stroke:#181818;stroke-width:1.0;" width="10" x="372.5" y="150.2871"/><rect fill="#FFFFFF" height="29.3105" style="stroke:#181818;stroke-width:1.0;" width="10" x="372.5" y="353.4609"/><rect fill="#FFFFFF" height="247.4844" style="stroke:#181818;stroke-width:1.0;" width="10" x="372.5" y="412.082"/><rect fill="#FFFFFF" height="73.7539" style="stroke:#181818;stroke-width:1.0;" width="10" x="637.5" y="221.0859"/><rect fill="#FFFFFF" height="188.8633" style="stroke:#181818;stroke-width:1.0;" width="10" x="637.5" y="441.3926"/><rect fill="#FFFFFF" height="87.9316" style="stroke:#181818;stroke-width:1.0;" width="10" x="911.5" y="513.0137"/><rect fill="#FFFFFF" height="29.3105" style="stroke:#181818;stroke-width:1.0;" width="10" x="1185.5" y="542.3242"/><polygon fill="#181818" points="360.5,146.2871,370.5,150.2871,360.5,154.2871,364.5,150.2871" style="stroke:#181818;stroke-width:1.0;"/><line style="stroke:#181818;stroke-width:1.0;" x1="56.5" x2="366.5" y1="150.2871" y2="150.2871"/><text fill="#000000" font-family="sans-serif" font-size="13" font-weight="bold" lengthAdjust="spacing" textLength="9" x="63.5" y="145.5449">1</text><text fill="#000000" font-family="sans-serif" font-size="13" lengthAdjust="spacing" textLength="248" x="76.5" y="145.5449">asks to change task status to complete</text><polygon fill="#181818" points="537.5,175.5977,547.5,179.5977,537.5,183.5977,541.5,179.5977" style="stroke:#181818;stroke-width:1.0;"/><line style="stroke:#181818;stroke-width:1.0;stroke-dasharray:2.0,2.0;" x1="382.5" x2="543.5" y1="179.5977" y2="179.5977"/><text fill="#000000" font-family="sans-serif" font-size="13" font-weight="bold" lengthAdjust="spacing" textLength="9" x="389.5" y="174.8555">2</text><text fill="#000000" font-family="sans-serif" font-size="13" lengthAdjust="spacing" textLength="46" x="402.5" y="174.8555">create()</text><rect fill="#E3E3E3" height="30.4883" rx="2.5" ry="2.5" style="stroke:#181818;stroke-width:0.5;" width="186" x="549.5" y="158.2871"/><text fill="#000000" font-family="sans-serif" font-size="14" lengthAdjust="spacing" textLength="172" x="556.5" y="178.8223">:CompleteTaskController</text><polygon fill="#181818" points="625.5,217.0859,635.5,221.0859,625.5,225.0859,629.5,221.0859" style="stroke:#181818;stroke-width:1.0;"/><line style="stroke:#181818;stroke-width:1.0;" x1="382.5" x2="631.5" y1="221.0859" y2="221.0859"/><text fill="#000000" font-family="sans-serif" font-size="13" font-weight="bold" lengthAdjust="spacing" textLength="9" x="389.5" y="216.3438">3</text><text fill="#000000" font-family="sans-serif" font-size="13" lengthAdjust="spacing" textLength="65" x="402.5" y="216.3438">getTasks()</text><rect fill="none" height="39.4434" style="stroke:#000000;stroke-width:1.5;" width="192" x="546.5" y="229.0859"/><path d="M546.5,229.0859 L610.5,229.0859 L610.5,236.0859 L600.5,246.0859 L546.5,246.0859 L546.5,229.0859 " fill="#EEEEEE" style="stroke:#000000;stroke-width:2.0;"/><text fill="#000000" font-family="sans-serif" font-size="13" font-weight="bold" lengthAdjust="spacing" textLength="19" x="559.5" y="243.6543">ref</text><text fill="#000000" font-family="sans-serif" font-size="12" lengthAdjust="spacing" textLength="111" x="587" y="261.6875">Get Tasks by email</text><polygon fill="#181818" points="393.5,290.8398,383.5,294.8398,393.5,298.8398,389.5,294.8398" style="stroke:#181818;stroke-width:1.0;"/><line style="stroke:#181818;stroke-width:1.0;stroke-dasharray:2.0,2.0;" x1="387.5" x2="641.5" y1="294.8398" y2="294.8398"/><text fill="#000000" font-family="sans-serif" font-size="13" font-weight="bold" lengthAdjust="spacing" textLength="9" x="399.5" y="290.0977">4</text><text fill="#000000" font-family="sans-serif" font-size="13" lengthAdjust="spacing" textLength="161" x="412.5" y="290.0977">CollaboratorTasksListDto</text><polygon fill="#181818" points="67.5,320.1504,57.5,324.1504,67.5,328.1504,63.5,324.1504" style="stroke:#181818;stroke-width:1.0;"/><line style="stroke:#181818;stroke-width:1.0;stroke-dasharray:2.0,2.0;" x1="61.5" x2="376.5" y1="324.1504" y2="324.1504"/><text fill="#000000" font-family="sans-serif" font-size="13" font-weight="bold" lengthAdjust="spacing" textLength="9" x="73.5" y="319.4082">5</text><text fill="#000000" font-family="sans-serif" font-size="13" lengthAdjust="spacing" textLength="149" x="86.5" y="319.4082">shows list of own tasks</text><polygon fill="#181818" points="360.5,349.4609,370.5,353.4609,360.5,357.4609,364.5,353.4609" style="stroke:#181818;stroke-width:1.0;"/><line style="stroke:#181818;stroke-width:1.0;" x1="56.5" x2="366.5" y1="353.4609" y2="353.4609"/><text fill="#000000" font-family="sans-serif" font-size="13" font-weight="bold" lengthAdjust="spacing" textLength="9" x="63.5" y="348.7188">6</text><text fill="#000000" font-family="sans-serif" font-size="13" lengthAdjust="spacing" textLength="86" x="76.5" y="348.7188">selects a task</text><polygon fill="#181818" points="67.5,378.7715,57.5,382.7715,67.5,386.7715,63.5,382.7715" style="stroke:#181818;stroke-width:1.0;"/><line style="stroke:#181818;stroke-width:1.0;stroke-dasharray:2.0,2.0;" x1="61.5" x2="376.5" y1="382.7715" y2="382.7715"/><text fill="#000000" font-family="sans-serif" font-size="13" font-weight="bold" lengthAdjust="spacing" textLength="9" x="73.5" y="378.0293">7</text><text fill="#000000" font-family="sans-serif" font-size="13" lengthAdjust="spacing" textLength="279" x="86.5" y="378.0293">requests confirmation of completion of task</text><polygon fill="#181818" points="360.5,408.082,370.5,412.082,360.5,416.082,364.5,412.082" style="stroke:#181818;stroke-width:1.0;"/><line style="stroke:#181818;stroke-width:1.0;" x1="56.5" x2="366.5" y1="412.082" y2="412.082"/><text fill="#000000" font-family="sans-serif" font-size="13" font-weight="bold" lengthAdjust="spacing" textLength="9" x="63.5" y="407.3398">8</text><text fill="#000000" font-family="sans-serif" font-size="13" lengthAdjust="spacing" textLength="56" x="76.5" y="407.3398">confirms</text><polygon fill="#181818" points="625.5,437.3926,635.5,441.3926,625.5,445.3926,629.5,441.3926" style="stroke:#181818;stroke-width:1.0;"/><line style="stroke:#181818;stroke-width:1.0;" x1="382.5" x2="631.5" y1="441.3926" y2="441.3926"/><text fill="#000000" font-family="sans-serif" font-size="13" font-weight="bold" lengthAdjust="spacing" textLength="9" x="389.5" y="436.6504">9</text><text fill="#000000" font-family="sans-serif" font-size="13" lengthAdjust="spacing" textLength="223" x="402.5" y="436.6504">completeTask(taskDTO, newStatus)</text><line style="stroke:#181818;stroke-width:1.0;stroke-dasharray:2.0,2.0;" x1="647.5" x2="689.5" y1="470.7031" y2="470.7031"/><line style="stroke:#181818;stroke-width:1.0;stroke-dasharray:2.0,2.0;" x1="689.5" x2="689.5" y1="470.7031" y2="483.7031"/><line style="stroke:#181818;stroke-width:1.0;stroke-dasharray:2.0,2.0;" x1="648.5" x2="689.5" y1="483.7031" y2="483.7031"/><polygon fill="#181818" points="658.5,479.7031,648.5,483.7031,658.5,487.7031,654.5,483.7031" style="stroke:#181818;stroke-width:1.0;"/><text fill="#000000" font-family="sans-serif" font-size="13" font-weight="bold" lengthAdjust="spacing" textLength="18" x="654.5" y="465.9609">10</text><text fill="#000000" font-family="sans-serif" font-size="13" lengthAdjust="spacing" textLength="187" x="676.5" y="465.9609">validateNewStatus(newStatus)</text><polygon fill="#181818" points="899.5,509.0137,909.5,513.0137,899.5,517.0137,903.5,513.0137" style="stroke:#181818;stroke-width:1.0;"/><line style="stroke:#181818;stroke-width:1.0;" x1="647.5" x2="905.5" y1="513.0137" y2="513.0137"/><text fill="#000000" font-family="sans-serif" font-size="13" font-weight="bold" lengthAdjust="spacing" textLength="18" x="654.5" y="508.2715">11</text><text fill="#000000" font-family="sans-serif" font-size="13" lengthAdjust="spacing" textLength="223" x="676.5" y="508.2715">completeTask(taskDTO, newStatus)</text><polygon fill="#181818" points="1173.5,538.3242,1183.5,542.3242,1173.5,546.3242,1177.5,542.3242" style="stroke:#181818;stroke-width:1.0;"/><line style="stroke:#181818;stroke-width:1.0;" x1="921.5" x2="1179.5" y1="542.3242" y2="542.3242"/><text fill="#000000" font-family="sans-serif" font-size="13" font-weight="bold" lengthAdjust="spacing" textLength="18" x="928.5" y="537.582">12</text><text fill="#000000" font-family="sans-serif" font-size="13" lengthAdjust="spacing" textLength="223" x="950.5" y="537.582">completeTask(taskDTO, newStatus)</text><polygon fill="#181818" points="932.5,567.6348,922.5,571.6348,932.5,575.6348,928.5,571.6348" style="stroke:#181818;stroke-width:1.0;"/><line style="stroke:#181818;stroke-width:1.0;stroke-dasharray:2.0,2.0;" x1="926.5" x2="1189.5" y1="571.6348" y2="571.6348"/><text fill="#000000" font-family="sans-serif" font-size="13" font-weight="bold" lengthAdjust="spacing" textLength="18" x="938.5" y="566.8926">13</text><text fill="#000000" font-family="sans-serif" font-size="13" lengthAdjust="spacing" textLength="55" x="960.5" y="566.8926">taskDTO</text><polygon fill="#181818" points="658.5,596.9453,648.5,600.9453,658.5,604.9453,654.5,600.9453" style="stroke:#181818;stroke-width:1.0;"/><line style="stroke:#181818;stroke-width:1.0;stroke-dasharray:2.0,2.0;" x1="652.5" x2="915.5" y1="600.9453" y2="600.9453"/><text fill="#000000" font-family="sans-serif" font-size="13" font-weight="bold" lengthAdjust="spacing" textLength="18" x="664.5" y="596.2031">14</text><text fill="#000000" font-family="sans-serif" font-size="13" lengthAdjust="spacing" textLength="55" x="686.5" y="596.2031">taskDTO</text><polygon fill="#181818" points="393.5,626.2559,383.5,630.2559,393.5,634.2559,389.5,630.2559" style="stroke:#181818;stroke-width:1.0;"/><line style="stroke:#181818;stroke-width:1.0;stroke-dasharray:2.0,2.0;" x1="387.5" x2="641.5" y1="630.2559" y2="630.2559"/><text fill="#000000" font-family="sans-serif" font-size="13" font-weight="bold" lengthAdjust="spacing" textLength="18" x="399.5" y="625.5137">15</text><text fill="#000000" font-family="sans-serif" font-size="13" lengthAdjust="spacing" textLength="55" x="421.5" y="625.5137">taskDTO</text><polygon fill="#181818" points="62.5,655.5664,52.5,659.5664,62.5,663.5664,58.5,659.5664" style="stroke:#181818;stroke-width:1.0;"/><line style="stroke:#181818;stroke-width:1.0;stroke-dasharray:2.0,2.0;" x1="56.5" x2="376.5" y1="659.5664" y2="659.5664"/><text fill="#000000" font-family="sans-serif" font-size="13" font-weight="bold" lengthAdjust="spacing" textLength="18" x="68.5" y="654.8242">16</text><text fill="#000000" font-family="sans-serif" font-size="13" lengthAdjust="spacing" textLength="170" x="90.5" y="654.8242">displays operation success</text><!--SRC=[dLDDRzim3BtxLn0zfSKo3BijXrxIOIXGR40-RhieCfC8aKLFeXFatu-MPTUEtG2RJhR8z_X8FeMJSQNoge227EcZfmA1VOLPw2AbqYTrm3LVBO97pSeTR3yX75LE5-CEi5SsO9P1SzYm8BRhBr-_mHnMgCddm4S4JKLfaGqve3qeO1LEdxDCLKokAdRevLipUNXOahLgHrx9tmEe0Dy5ILV4J4gpqQPKZk5XiMmOSIDCszUOkNszaxCanrwuiM5TRbPlm-nQqWfB2aOgNt-xnMPm4L73gwZPd1NZkyWuYVOFviyY2XO2FGLW0dsKIMBi7W8hhfhR93DYEqhfHYu4FXUMMkxJap1fZnASFSRSEjZ49790hkM55EkVZZDsBHlT0vtHfzzqVY37_WBihe25CZQ6qEKr81kHjYUMdxUTzjSNsTvCu1Uc3-4vtgXhJkgxc-H2F4UN05ReQWlHnSKnXcpCqqnkOWq1hPWv9FzDZNkgiCS_5GQ1QN9xumlLsdXewevoh6Ga935rulk0qM9rpyMpkihBvjSdS7XPHmSzPfDRpcxNazZEoffSidws-DcOgS4ytzXTmF-kvVR5fFWDSwebPFzTH786x3NNVAg7H3ZXcocQliZt8TxdcEXt-4W-XWzMDxPYRa9frJK0bUWR7uPAQmntda7lfcNw2m00]--></g></svg>