<?xml version="1.0" encoding="us-ascii" standalone="no"?><svg xmlns="http://www.w3.org/2000/svg" xmlns:xlink="http://www.w3.org/1999/xlink" contentStyleType="text/css" height="601px" preserveAspectRatio="none" style="width:882px;height:601px;background:#FFFFFF;" version="1.1" viewBox="0 0 882 601" width="882px" zoomAndPan="magnify"><defs/><g><rect fill="#FFFFFF" height="445.7832" style="stroke:#181818;stroke-width:1.0;" width="10" x="214" y="90.5332"/><rect fill="#FFFFFF" height="31.291" style="stroke:#181818;stroke-width:1.0;" width="10" x="357.5" y="148.1152"/><rect fill="#FFFFFF" height="31.291" style="stroke:#181818;stroke-width:1.0;" width="10" x="464.5" y="210.6973"/><rect fill="#FFFFFF" height="215.7461" style="stroke:#181818;stroke-width:1.0;" width="10" x="581.5" y="273.2793"/><rect fill="#FFFFFF" height="138.1641" style="stroke:#181818;stroke-width:1.0;" width="10" x="586.5" y="312.5703"/><rect fill="#FFFFFF" height="31.291" style="stroke:#181818;stroke-width:1.0;" width="10" x="811.5" y="375.1523"/><rect fill="none" height="391.4922" style="stroke:#000000;stroke-width:1.5;" width="752" x="124" y="105.5332"/><rect fill="none" height="81.873" style="stroke:#000000;stroke-width:1.5;" width="348" x="518" y="332.5703"/><line style="stroke:#181818;stroke-width:0.5;stroke-dasharray:5.0,5.0;" x1="219" x2="219" y1="57.2422" y2="545.3164"/><line style="stroke:#181818;stroke-width:0.5;stroke-dasharray:5.0,5.0;" x1="362" x2="362" y1="57.2422" y2="545.3164"/><line style="stroke:#181818;stroke-width:0.5;stroke-dasharray:5.0,5.0;" x1="469" x2="469" y1="57.2422" y2="545.3164"/><line style="stroke:#181818;stroke-width:0.5;stroke-dasharray:5.0,5.0;" x1="586" x2="586" y1="57.2422" y2="545.3164"/><line style="stroke:#181818;stroke-width:0.5;stroke-dasharray:5.0,5.0;" x1="816" x2="816" y1="57.2422" y2="545.3164"/><rect fill="#E3E3E3" height="32.6211" rx="2.5" ry="2.5" style="stroke:#181818;stroke-width:0.5;" width="170" x="134" y="23.6211"/><text fill="#000000" font-family="sans-serif" font-size="14" lengthAdjust="spacing" textLength="156" x="141" y="45.7285">:ChangeStatusController</text><rect fill="#E3E3E3" height="32.6211" rx="2.5" ry="2.5" style="stroke:#181818;stroke-width:0.5;" width="170" x="134" y="544.3164"/><text fill="#000000" font-family="sans-serif" font-size="14" lengthAdjust="spacing" textLength="156" x="141" y="566.4238">:ChangeStatusController</text><rect fill="#E3E3E3" height="32.6211" rx="2.5" ry="2.5" style="stroke:#181818;stroke-width:0.5;" width="97" x="314" y="23.6211"/><text fill="#000000" font-family="sans-serif" font-size="14" lengthAdjust="spacing" textLength="83" x="321" y="45.7285">:Repositories</text><rect fill="#E3E3E3" height="32.6211" rx="2.5" ry="2.5" style="stroke:#181818;stroke-width:0.5;" width="97" x="314" y="544.3164"/><text fill="#000000" font-family="sans-serif" font-size="14" lengthAdjust="spacing" textLength="83" x="321" y="566.4238">:Repositories</text><rect fill="#E3E3E3" height="51.2422" rx="2.5" ry="2.5" style="stroke:#181818;stroke-width:0.5;" width="97" x="421" y="5"/><text fill="#000000" font-family="sans-serif" font-size="14" lengthAdjust="spacing" textLength="74" x="432.5" y="27.1074">repositories</text><text fill="#000000" font-family="sans-serif" font-size="14" lengthAdjust="spacing" textLength="83" x="428" y="45.7285">:Repositories</text><rect fill="#E3E3E3" height="51.2422" rx="2.5" ry="2.5" style="stroke:#181818;stroke-width:0.5;" width="97" x="421" y="544.3164"/><text fill="#000000" font-family="sans-serif" font-size="14" lengthAdjust="spacing" textLength="74" x="432.5" y="566.4238">repositories</text><text fill="#000000" font-family="sans-serif" font-size="14" lengthAdjust="spacing" textLength="83" x="428" y="585.0449">:Repositories</text><rect fill="#E3E3E3" height="51.2422" rx="2.5" ry="2.5" style="stroke:#181818;stroke-width:0.5;" width="117" x="528" y="5"/><text fill="#000000" font-family="sans-serif" font-size="14" lengthAdjust="spacing" textLength="94" x="539.5" y="27.1074">taskRepository</text><text fill="#000000" font-family="sans-serif" font-size="14" lengthAdjust="spacing" textLength="103" x="535" y="45.7285">:TaskRepository</text><rect fill="#E3E3E3" height="51.2422" rx="2.5" ry="2.5" style="stroke:#181818;stroke-width:0.5;" width="117" x="528" y="544.3164"/><text fill="#000000" font-family="sans-serif" font-size="14" lengthAdjust="spacing" textLength="94" x="539.5" y="566.4238">taskRepository</text><text fill="#000000" font-family="sans-serif" font-size="14" lengthAdjust="spacing" textLength="103" x="535" y="585.0449">:TaskRepository</text><rect fill="#E3E3E3" height="51.2422" rx="2.5" ry="2.5" style="stroke:#181818;stroke-width:0.5;" width="79" x="777" y="5"/><text fill="#000000" font-family="sans-serif" font-size="14" lengthAdjust="spacing" textLength="56" x="788.5" y="27.1074">taskDTO</text><text fill="#000000" font-family="sans-serif" font-size="14" lengthAdjust="spacing" textLength="65" x="784" y="45.7285">:TaskDTO</text><rect fill="#E3E3E3" height="51.2422" rx="2.5" ry="2.5" style="stroke:#181818;stroke-width:0.5;" width="79" x="777" y="544.3164"/><text fill="#000000" font-family="sans-serif" font-size="14" lengthAdjust="spacing" textLength="56" x="788.5" y="566.4238">taskDTO</text><text fill="#000000" font-family="sans-serif" font-size="14" lengthAdjust="spacing" textLength="65" x="784" y="585.0449">:TaskDTO</text><rect fill="#FFFFFF" height="445.7832" style="stroke:#181818;stroke-width:1.0;" width="10" x="214" y="90.5332"/><rect fill="#FFFFFF" height="31.291" style="stroke:#181818;stroke-width:1.0;" width="10" x="357.5" y="148.1152"/><rect fill="#FFFFFF" height="31.291" style="stroke:#181818;stroke-width:1.0;" width="10" x="464.5" y="210.6973"/><rect fill="#FFFFFF" height="215.7461" style="stroke:#181818;stroke-width:1.0;" width="10" x="581.5" y="273.2793"/><rect fill="#FFFFFF" height="138.1641" style="stroke:#181818;stroke-width:1.0;" width="10" x="586.5" y="312.5703"/><rect fill="#FFFFFF" height="31.291" style="stroke:#181818;stroke-width:1.0;" width="10" x="811.5" y="375.1523"/><polygon fill="#181818" points="202,86.5332,212,90.5332,202,94.5332,206,90.5332" style="stroke:#181818;stroke-width:1.0;"/><line style="stroke:#181818;stroke-width:1.0;" x1="0" x2="208" y1="90.5332" y2="90.5332"/><text fill="#000000" font-family="sans-serif" font-size="13" font-weight="bold" lengthAdjust="spacing" textLength="14" x="7" y="85.2705">11</text><text fill="#000000" font-family="sans-serif" font-size="13" lengthAdjust="spacing" textLength="177" x="25" y="85.2705">getTasksByCollaborator(email)</text><path d="M124,105.5332 L332,105.5332 L332,114.8242 L322,124.8242 L124,124.8242 L124,105.5332 " fill="#EEEEEE" style="stroke:#000000;stroke-width:1.5;"/><rect fill="none" height="391.4922" style="stroke:#000000;stroke-width:1.5;" width="752" x="124" y="105.5332"/><text fill="#000000" font-family="sans-serif" font-size="13" font-weight="bold" lengthAdjust="spacing" textLength="163" x="139" y="120.5615">Get Tasks by Collaborator</text><polygon fill="#181818" points="345.5,144.1152,355.5,148.1152,345.5,152.1152,349.5,148.1152" style="stroke:#181818;stroke-width:1.0;"/><line style="stroke:#181818;stroke-width:1.0;" x1="224" x2="351.5" y1="148.1152" y2="148.1152"/><text fill="#000000" font-family="sans-serif" font-size="13" font-weight="bold" lengthAdjust="spacing" textLength="25" x="231" y="142.8525">11.1</text><text fill="#000000" font-family="sans-serif" font-size="13" lengthAdjust="spacing" textLength="75" x="260" y="142.8525">getInstance()</text><polygon fill="#181818" points="235,175.4063,225,179.4063,235,183.4063,231,179.4063" style="stroke:#181818;stroke-width:1.0;"/><line style="stroke:#181818;stroke-width:1.0;stroke-dasharray:2.0,2.0;" x1="229" x2="361.5" y1="179.4063" y2="179.4063"/><text fill="#000000" font-family="sans-serif" font-size="13" font-weight="bold" lengthAdjust="spacing" textLength="25" x="241" y="174.1436">11.2</text><text fill="#000000" font-family="sans-serif" font-size="13" lengthAdjust="spacing" textLength="67" x="270" y="174.1436">repositories</text><polygon fill="#181818" points="452.5,206.6973,462.5,210.6973,452.5,214.6973,456.5,210.6973" style="stroke:#181818;stroke-width:1.0;"/><line style="stroke:#181818;stroke-width:1.0;" x1="224" x2="458.5" y1="210.6973" y2="210.6973"/><text fill="#000000" font-family="sans-serif" font-size="13" font-weight="bold" lengthAdjust="spacing" textLength="25" x="231" y="205.4346">11.3</text><text fill="#000000" font-family="sans-serif" font-size="13" lengthAdjust="spacing" textLength="116" x="260" y="205.4346">getTaskRepository()</text><polygon fill="#181818" points="235,237.9883,225,241.9883,235,245.9883,231,241.9883" style="stroke:#181818;stroke-width:1.0;"/><line style="stroke:#181818;stroke-width:1.0;stroke-dasharray:2.0,2.0;" x1="229" x2="468.5" y1="241.9883" y2="241.9883"/><text fill="#000000" font-family="sans-serif" font-size="13" font-weight="bold" lengthAdjust="spacing" textLength="25" x="241" y="236.7256">11.4</text><text fill="#000000" font-family="sans-serif" font-size="13" lengthAdjust="spacing" textLength="87" x="270" y="236.7256">taskRepository</text><polygon fill="#181818" points="569.5,269.2793,579.5,273.2793,569.5,277.2793,573.5,273.2793" style="stroke:#181818;stroke-width:1.0;"/><line style="stroke:#181818;stroke-width:1.0;" x1="224" x2="575.5" y1="273.2793" y2="273.2793"/><text fill="#000000" font-family="sans-serif" font-size="13" font-weight="bold" lengthAdjust="spacing" textLength="25" x="231" y="268.0166">11.5</text><text fill="#000000" font-family="sans-serif" font-size="13" lengthAdjust="spacing" textLength="177" x="260" y="268.0166">getTasksByCollaborator(email)</text><line style="stroke:#181818;stroke-width:1.0;" x1="591.5" x2="638.5" y1="299.5703" y2="299.5703"/><line style="stroke:#181818;stroke-width:1.0;" x1="638.5" x2="638.5" y1="299.5703" y2="312.5703"/><line style="stroke:#181818;stroke-width:1.0;" x1="597.5" x2="638.5" y1="312.5703" y2="312.5703"/><polygon fill="#181818" points="607.5,308.5703,597.5,312.5703,607.5,316.5703,603.5,312.5703" style="stroke:#181818;stroke-width:1.0;"/><text fill="#000000" font-family="sans-serif" font-size="13" font-weight="bold" lengthAdjust="spacing" textLength="25" x="603.5" y="294.3076">11.6</text><text fill="#000000" font-family="sans-serif" font-size="13" lengthAdjust="spacing" textLength="177" x="632.5" y="294.3076">getTasksByCollaborator(email)</text><path d="M518,332.5703 L591,332.5703 L591,341.8613 L581,351.8613 L518,351.8613 L518,332.5703 " fill="#EEEEEE" style="stroke:#000000;stroke-width:1.5;"/><rect fill="none" height="81.873" style="stroke:#000000;stroke-width:1.5;" width="348" x="518" y="332.5703"/><text fill="#000000" font-family="sans-serif" font-size="13" font-weight="bold" lengthAdjust="spacing" textLength="28" x="533" y="347.5986">loop</text><text fill="#000000" font-family="sans-serif" font-size="11" font-weight="bold" lengthAdjust="spacing" textLength="80" x="606" y="346.4404">[for each task]</text><polygon fill="#181818" points="799.5,371.1523,809.5,375.1523,799.5,379.1523,803.5,375.1523" style="stroke:#181818;stroke-width:1.0;"/><line style="stroke:#181818;stroke-width:1.0;" x1="596.5" x2="805.5" y1="375.1523" y2="375.1523"/><text fill="#000000" font-family="sans-serif" font-size="13" font-weight="bold" lengthAdjust="spacing" textLength="25" x="603.5" y="369.8896">11.7</text><text fill="#000000" font-family="sans-serif" font-size="13" lengthAdjust="spacing" textLength="162" x="632.5" y="369.8896">hasCollaboratorEmail(email)</text><polygon fill="#181818" points="607.5,402.4434,597.5,406.4434,607.5,410.4434,603.5,406.4434" style="stroke:#181818;stroke-width:1.0;"/><line style="stroke:#181818;stroke-width:1.0;stroke-dasharray:2.0,2.0;" x1="601.5" x2="815.5" y1="406.4434" y2="406.4434"/><text fill="#000000" font-family="sans-serif" font-size="13" font-weight="bold" lengthAdjust="spacing" textLength="25" x="613.5" y="401.1807">11.8</text><text fill="#000000" font-family="sans-serif" font-size="13" lengthAdjust="spacing" textLength="53" x="642.5" y="401.1807">true/false</text><line style="stroke:#181818;stroke-width:1.0;stroke-dasharray:2.0,2.0;" x1="596.5" x2="638.5" y1="449.7344" y2="449.7344"/><line style="stroke:#181818;stroke-width:1.0;stroke-dasharray:2.0,2.0;" x1="638.5" x2="638.5" y1="449.7344" y2="462.7344"/><line style="stroke:#181818;stroke-width:1.0;stroke-dasharray:2.0,2.0;" x1="591.5" x2="638.5" y1="462.7344" y2="462.7344"/><polygon fill="#181818" points="601.5,458.7344,591.5,462.7344,601.5,466.7344,597.5,462.7344" style="stroke:#181818;stroke-width:1.0;"/><text fill="#000000" font-family="sans-serif" font-size="13" font-weight="bold" lengthAdjust="spacing" textLength="25" x="603.5" y="444.4717">11.9</text><text fill="#000000" font-family="sans-serif" font-size="13" lengthAdjust="spacing" textLength="117" x="632.5" y="444.4717">tasksByCollaborator</text><polygon fill="#181818" points="235,485.0254,225,489.0254,235,493.0254,231,489.0254" style="stroke:#181818;stroke-width:1.0;"/><line style="stroke:#181818;stroke-width:1.0;stroke-dasharray:2.0,2.0;" x1="229" x2="585.5" y1="489.0254" y2="489.0254"/><text fill="#000000" font-family="sans-serif" font-size="13" font-weight="bold" lengthAdjust="spacing" textLength="32" x="241" y="483.7627">11.10</text><text fill="#000000" font-family="sans-serif" font-size="13" lengthAdjust="spacing" textLength="117" x="277" y="483.7627">tasksByCollaborator</text><polygon fill="#181818" points="11,523.3164,1,527.3164,11,531.3164,7,527.3164" style="stroke:#181818;stroke-width:1.0;"/><line style="stroke:#181818;stroke-width:1.0;stroke-dasharray:2.0,2.0;" x1="5" x2="213" y1="527.3164" y2="527.3164"/><text fill="#000000" font-family="sans-serif" font-size="13" font-weight="bold" lengthAdjust="spacing" textLength="14" x="17" y="522.0537">22</text><text fill="#000000" font-family="sans-serif" font-size="13" lengthAdjust="spacing" textLength="31" x="35" y="522.0537">email</text><!--SRC=[jLHBIyD04BxlhnWyjOSexR68e5L4A2XjZbwcwJHPcko6tOsIV-za-zgqQIE2EON9V8_v9hjs8rM91WiejD99PdH1u4n5mXw-b9XiCAM5gtC2Gub3bUPXWyrmfR-bIc6DkIKXkEna8ajK3cucqum134TNsQbMpkWy9tC3Q64QpsSdtNCgjPLE6qdMznmAzK8smawhDiG4Y4zrJl0nUupR28TsSwHbJDmgU5IxT8v_ZjztG7ux8FXT2ApOOrKioS1e9A87FoPC82NNzDYdUieHu58RPEu15IZpuGdiTiI5nCalTBID2VX9ZQvAU2NdnImiQmYfVC_kyPgitH7VrigRihp9X0R347RGx8ezREpYZNQpJY3SIOXQqQy5zWCqwpk6TqHTyEst7Nxn-AEpzkulU3iZsPjfM-ZTQPV1-AA14_B_bikrBc6j3V3ScS-btmp_t-mYGnlAlpJgVHwQat52tv15NLCs5z3TzYxftay78QdLDVkTCkT9Nj4BGXGzIhlp_dT-7cPxriDBOJmMzr6q9_TnYny0]--></g></svg>