<?xml version="1.0" encoding="us-ascii" standalone="no"?><svg xmlns="http://www.w3.org/2000/svg" xmlns:xlink="http://www.w3.org/1999/xlink" contentStyleType="text/css" height="770px" preserveAspectRatio="none" style="width:1626px;height:770px;background:#FFFFFF;" version="1.1" viewBox="0 0 1626 770" width="1626px" zoomAndPan="magnify"><defs/><g><!--class HRM--><g id="elem_HRM"><rect codeLine="17" fill="#F1F1F1" height="36.6211" id="HRM" rx="2.5" ry="2.5" style="stroke:#181818;stroke-width:0.5;" width="36" x="263" y="7"/><text fill="#000000" font-family="sans-serif" font-size="14" lengthAdjust="spacing" textLength="30" x="266" y="27.1074">HRM</text><line style="stroke:#181818;stroke-width:0.5;" x1="264" x2="298" y1="35.6211" y2="35.6211"/></g><!--class VFM--><g id="elem_VFM"><rect codeLine="20" fill="#F1F1F1" height="36.6211" id="VFM" rx="2.5" ry="2.5" style="stroke:#181818;stroke-width:0.5;" width="35" x="1449.5" y="7"/><text fill="#000000" font-family="sans-serif" font-size="14" lengthAdjust="spacing" textLength="29" x="1452.5" y="27.1074">VFM</text><line style="stroke:#181818;stroke-width:0.5;" x1="1450.5" x2="1483.5" y1="35.6211" y2="35.6211"/></g><!--class GSM--><g id="elem_GSM"><rect codeLine="23" fill="#F1F1F1" height="36.6211" id="GSM" rx="2.5" ry="2.5" style="stroke:#181818;stroke-width:0.5;" width="37" x="839.5" y="7"/><text fill="#000000" font-family="sans-serif" font-size="14" lengthAdjust="spacing" textLength="31" x="842.5" y="27.1074">GSM</text><line style="stroke:#181818;stroke-width:0.5;" x1="840.5" x2="875.5" y1="35.6211" y2="35.6211"/></g><!--class Skill--><g id="elem_Skill"><rect codeLine="26" fill="#F1F1F1" height="55.2422" id="Skill" rx="2.5" ry="2.5" style="stroke:#181818;stroke-width:0.5;" width="47" x="257.5" y="708"/><text fill="#000000" font-family="sans-serif" font-size="14" lengthAdjust="spacing" textLength="25" x="268.5" y="728.1074">Skill</text><line style="stroke:#181818;stroke-width:0.5;" x1="258.5" x2="303.5" y1="736.6211" y2="736.6211"/><text fill="#000000" font-family="sans-serif" font-size="14" lengthAdjust="spacing" textLength="35" x="263.5" y="755.7285">name</text></g><!--class Job--><g id="elem_Job"><rect codeLine="30" fill="#F1F1F1" height="55.2422" id="Job" rx="2.5" ry="2.5" style="stroke:#181818;stroke-width:0.5;" width="47" x="25.5" y="708"/><text fill="#000000" font-family="sans-serif" font-size="14" lengthAdjust="spacing" textLength="22" x="38" y="728.1074">Job</text><line style="stroke:#181818;stroke-width:0.5;" x1="26.5" x2="71.5" y1="736.6211" y2="736.6211"/><text fill="#000000" font-family="sans-serif" font-size="14" lengthAdjust="spacing" textLength="35" x="31.5" y="755.7285">name</text></g><!--class Collaborator--><g id="elem_Collaborator"><rect codeLine="34" fill="#F1F1F1" height="204.2109" id="Collaborator" rx="2.5" ry="2.5" style="stroke:#181818;stroke-width:0.5;" width="204" x="24" y="425"/><text fill="#000000" font-family="sans-serif" font-size="14" lengthAdjust="spacing" textLength="78" x="87" y="445.1074">Collaborator</text><line style="stroke:#181818;stroke-width:0.5;" x1="25" x2="227" y1="453.6211" y2="453.6211"/><text fill="#000000" font-family="sans-serif" font-size="14" lengthAdjust="spacing" textLength="35" x="30" y="472.7285">name</text><text fill="#000000" font-family="sans-serif" font-size="14" lengthAdjust="spacing" textLength="56" x="30" y="491.3496">birthdate</text><text fill="#000000" font-family="sans-serif" font-size="14" lengthAdjust="spacing" textLength="93" x="30" y="509.9707">admissionDate</text><text fill="#000000" font-family="sans-serif" font-size="14" lengthAdjust="spacing" textLength="51" x="30" y="528.5918">address</text><text fill="#000000" font-family="sans-serif" font-size="14" lengthAdjust="spacing" textLength="89" x="30" y="547.2129">phoneNumber</text><text fill="#000000" font-family="sans-serif" font-size="14" lengthAdjust="spacing" textLength="33" x="30" y="565.834">email</text><text fill="#000000" font-family="sans-serif" font-size="14" lengthAdjust="spacing" textLength="103" x="30" y="584.4551">taxpayerNumber</text><text fill="#000000" font-family="sans-serif" font-size="14" lengthAdjust="spacing" textLength="175" x="30" y="603.0762">identificationDocumentType</text><text fill="#000000" font-family="sans-serif" font-size="14" lengthAdjust="spacing" textLength="192" x="30" y="621.6973">identificationDocumentNumber</text></g><!--class Team--><g id="elem_Team"><rect codeLine="46" fill="#F1F1F1" height="36.6211" id="Team" rx="2.5" ry="2.5" style="stroke:#181818;stroke-width:0.5;" width="42" x="595" y="508.5"/><text fill="#000000" font-family="sans-serif" font-size="14" lengthAdjust="spacing" textLength="36" x="598" y="528.6074">Team</text><line style="stroke:#181818;stroke-width:0.5;" x1="596" x2="636" y1="537.1211" y2="537.1211"/></g><!--class Task--><g id="elem_Task"><rect codeLine="49" fill="#F1F1F1" height="36.6211" id="Task" rx="2.5" ry="2.5" style="stroke:#181818;stroke-width:0.5;" width="37" x="943.5" y="216"/><text fill="#000000" font-family="sans-serif" font-size="14" lengthAdjust="spacing" textLength="31" x="946.5" y="236.1074">Task</text><line style="stroke:#181818;stroke-width:0.5;" x1="944.5" x2="979.5" y1="244.6211" y2="244.6211"/></g><!--class Vehicle--><g id="elem_Vehicle"><rect codeLine="52" fill="#F1F1F1" height="222.832" id="Vehicle" rx="2.5" ry="2.5" style="stroke:#181818;stroke-width:0.5;" width="134" x="1326" y="123"/><text fill="#000000" font-family="sans-serif" font-size="14" lengthAdjust="spacing" textLength="46" x="1370" y="143.1074">Vehicle</text><line style="stroke:#181818;stroke-width:0.5;" x1="1327" x2="1459" y1="151.6211" y2="151.6211"/><text fill="#000000" font-family="sans-serif" font-size="14" lengthAdjust="spacing" textLength="76" x="1332" y="170.7285">vehiclePlate</text><text fill="#000000" font-family="sans-serif" font-size="14" lengthAdjust="spacing" textLength="37" x="1332" y="189.3496">brand</text><text fill="#000000" font-family="sans-serif" font-size="14" lengthAdjust="spacing" textLength="38" x="1332" y="207.9707">model</text><text fill="#000000" font-family="sans-serif" font-size="14" lengthAdjust="spacing" textLength="27" x="1332" y="226.5918">type</text><text fill="#000000" font-family="sans-serif" font-size="14" lengthAdjust="spacing" textLength="25" x="1332" y="245.2129">tare</text><text fill="#000000" font-family="sans-serif" font-size="14" lengthAdjust="spacing" textLength="79" x="1332" y="263.834">grossWeight</text><text fill="#000000" font-family="sans-serif" font-size="14" lengthAdjust="spacing" textLength="72" x="1332" y="282.4551">currentKms</text><text fill="#000000" font-family="sans-serif" font-size="14" lengthAdjust="spacing" textLength="78" x="1332" y="301.0762">registerDate</text><text fill="#000000" font-family="sans-serif" font-size="14" lengthAdjust="spacing" textLength="97" x="1332" y="319.6973">acquisitionDate</text><text fill="#000000" font-family="sans-serif" font-size="14" lengthAdjust="spacing" textLength="122" x="1332" y="338.3184">checkUpFrequency</text></g><!--class Maintenance--><g id="elem_Maintenance"><rect codeLine="65" fill="#F1F1F1" height="92.4844" id="Maintenance" rx="2.5" ry="2.5" style="stroke:#181818;stroke-width:0.5;" width="88" x="1531" y="188.5"/><text fill="#000000" font-family="sans-serif" font-size="14" lengthAdjust="spacing" textLength="81" x="1534.5" y="208.6074">Maintenance</text><line style="stroke:#181818;stroke-width:0.5;" x1="1532" x2="1618" y1="217.1211" y2="217.1211"/><text fill="#000000" font-family="sans-serif" font-size="14" lengthAdjust="spacing" textLength="76" x="1537" y="236.2285">vehiclePlate</text><text fill="#000000" font-family="sans-serif" font-size="14" lengthAdjust="spacing" textLength="28" x="1537" y="254.8496">date</text><text fill="#000000" font-family="sans-serif" font-size="14" lengthAdjust="spacing" textLength="25" x="1537" y="273.4707">kms</text></g><!--class GreenSpace--><g id="elem_GreenSpace"><rect codeLine="71" fill="#F1F1F1" height="129.7266" id="GreenSpace" rx="2.5" ry="2.5" style="stroke:#181818;stroke-width:0.5;" width="86" x="1112" y="462"/><text fill="#000000" font-family="sans-serif" font-size="14" lengthAdjust="spacing" textLength="80" x="1115" y="482.1074">GreenSpace</text><line style="stroke:#181818;stroke-width:0.5;" x1="1113" x2="1197" y1="490.6211" y2="490.6211"/><text fill="#000000" font-family="sans-serif" font-size="14" lengthAdjust="spacing" textLength="35" x="1118" y="509.7285">name</text><text fill="#000000" font-family="sans-serif" font-size="14" lengthAdjust="spacing" textLength="29" x="1118" y="528.3496">area</text><text fill="#000000" font-family="sans-serif" font-size="14" lengthAdjust="spacing" textLength="27" x="1118" y="546.9707">type</text><text fill="#000000" font-family="sans-serif" font-size="14" lengthAdjust="spacing" textLength="51" x="1118" y="565.5918">address</text><text fill="#000000" font-family="sans-serif" font-size="14" lengthAdjust="spacing" textLength="60" x="1118" y="584.2129">gsmEmail</text></g><!--class ToDoList--><g id="elem_ToDoList"><rect codeLine="79" fill="#F1F1F1" height="36.6211" id="ToDoList" rx="2.5" ry="2.5" style="stroke:#181818;stroke-width:0.5;" width="63" x="778.5" y="508.5"/><text fill="#000000" font-family="sans-serif" font-size="14" lengthAdjust="spacing" textLength="57" x="781.5" y="528.6074">ToDoList</text><line style="stroke:#181818;stroke-width:0.5;" x1="779.5" x2="840.5" y1="537.1211" y2="537.1211"/></g><!--class Agenda--><g id="elem_Agenda"><rect codeLine="82" fill="#F1F1F1" height="36.6211" id="Agenda" rx="2.5" ry="2.5" style="stroke:#181818;stroke-width:0.5;" width="55" x="897.5" y="508.5"/><text fill="#000000" font-family="sans-serif" font-size="14" lengthAdjust="spacing" textLength="49" x="900.5" y="528.6074">Agenda</text><line style="stroke:#181818;stroke-width:0.5;" x1="898.5" x2="951.5" y1="537.1211" y2="537.1211"/></g><!--link HRM to Skill--><g id="link_HRM_Skill"><path codeLine="86" d="M280.85,44.31 C280.24,115.53 278,376 278,376 C278,376 278,395 278,395 C278,395 280.06,627.83 280.76,707.86 " fill="none" id="HRM-Skill" style="stroke:#181818;stroke-width:1.0;"/><polygon fill="#000000" points="282.9993,390.6455,285.9395,381.6008,280.0616,381.6,282.9993,390.6455" style="stroke:#000000;stroke-width:1.0;"/><text fill="#000000" font-family="sans-serif" font-size="13" lengthAdjust="spacing" textLength="50" x="292" y="391.0283">registers</text><text fill="#000000" font-family="sans-serif" font-size="13" lengthAdjust="spacing" textLength="7" x="272.8691" y="65.7679">1</text><text fill="#000000" font-family="sans-serif" font-size="13" lengthAdjust="spacing" textLength="5" x="275.1264" y="696.5366">*</text></g><!--link HRM to Skill--><g id="link_HRM_Skill"><path codeLine="89" d="M290.68,44.19 C298.07,57.69 307,74 307,74 C307,74 347,376 347,376 C347,376 347,395 347,395 C347,395 307,678 307,678 C307,678 299.98,693.25 293.24,707.9 " fill="none" id="HRM-Skill-1" style="stroke:#181818;stroke-width:1.0;"/><polygon fill="#000000" points="352.0193,390.6455,354.9233,381.5891,349.0455,381.6118,352.0193,390.6455" style="stroke:#000000;stroke-width:1.0;"/><text fill="#000000" font-family="sans-serif" font-size="13" lengthAdjust="spacing" textLength="45" x="361" y="391.0283">assigns</text><text fill="#000000" font-family="sans-serif" font-size="13" lengthAdjust="spacing" textLength="7" x="285.3409" y="65.6157">1</text><text fill="#000000" font-family="sans-serif" font-size="13" lengthAdjust="spacing" textLength="5" x="290.4924" y="696.5858">*</text></g><!--link HRM to Job--><g id="link_HRM_Job"><path codeLine="87" d="M262.87,38.98 C242.43,53.05 212,74 212,74 C212,74 147,123 147,123 C147,123 6,425 6,425 C6,425 6,629 6,629 C6,629 25.41,676.62 38.15,707.88 " fill="none" id="HRM-Job" style="stroke:#181818;stroke-width:1.0;"/><polygon fill="#000000" points="32.4077,390.3852,38.0741,382.747,32.5023,380.8751,32.4077,390.3852" style="stroke:#000000;stroke-width:1.0;"/><text fill="#000000" font-family="sans-serif" font-size="13" lengthAdjust="spacing" textLength="50" x="43" y="391.0283">registers</text><text fill="#000000" font-family="sans-serif" font-size="13" lengthAdjust="spacing" textLength="7" x="247.8939" y="37.9682">1</text><text fill="#000000" font-family="sans-serif" font-size="13" lengthAdjust="spacing" textLength="5" x="30.0628" y="696.5612">*</text></g><!--link HRM to Collaborator--><g id="link_HRM_Collaborator"><path codeLine="88" d="M264.31,44.2 C238.04,72.06 190,123 190,123 C190,123 161.03,305.45 142.07,424.83 " fill="none" id="HRM-Collaborator" style="stroke:#181818;stroke-width:1.0;"/><polygon fill="#000000" points="193.4711,239.406,199.035,231.6928,193.4387,229.8955,193.4711,239.406" style="stroke:#000000;stroke-width:1.0;"/><text fill="#000000" font-family="sans-serif" font-size="13" lengthAdjust="spacing" textLength="50" x="204" y="240.0283">registers</text><text fill="#000000" font-family="sans-serif" font-size="13" lengthAdjust="spacing" textLength="7" x="251.8839" y="65.6283">1</text><text fill="#000000" font-family="sans-serif" font-size="13" lengthAdjust="spacing" textLength="5" x="138.0665" y="413.7339">*</text></g><!--link HRM to Team--><g id="link_HRM_Team"><path codeLine="90" d="M299.21,33.1 C335.21,46.16 412,74 412,74 C412,74 570.29,424.71 608,508.28 " fill="none" id="HRM-Team" style="stroke:#181818;stroke-width:1.0;"/><polygon fill="#000000" points="542.7245,238.838,540.2602,229.6523,535.3316,232.8551,542.7245,238.838" style="stroke:#000000;stroke-width:1.0;"/><text fill="#000000" font-family="sans-serif" font-size="13" lengthAdjust="spacing" textLength="57" x="549" y="240.0283">generates</text><text fill="#000000" font-family="sans-serif" font-size="13" lengthAdjust="spacing" textLength="7" x="306.9442" y="29.927">1</text><text fill="#000000" font-family="sans-serif" font-size="13" lengthAdjust="spacing" textLength="5" x="599.7844" y="497.0748">*</text></g><!--link Collaborator to Job--><g id="link_Collaborator_Job"><path codeLine="91" d="M88.29,629.13 C77.47,658.15 66.56,687.4 59,707.69 " fill="none" id="Collaborator-Job" style="stroke:#181818;stroke-width:1.0;"/><polygon fill="#000000" points="80.2533,673.3305,86.1669,665.882,80.6594,663.8286,80.2533,673.3305" style="stroke:#000000;stroke-width:1.0;"/><text fill="#000000" font-family="sans-serif" font-size="13" lengthAdjust="spacing" textLength="21" x="91" y="674.0283">has</text><text fill="#000000" font-family="sans-serif" font-size="13" lengthAdjust="spacing" textLength="5" x="80.3371" y="651.2857">*</text><text fill="#000000" font-family="sans-serif" font-size="13" lengthAdjust="spacing" textLength="7" x="53.4219" y="696.7808">1</text></g><!--link Collaborator to Skill--><g id="link_Collaborator_Skill"><path codeLine="92" d="M188.81,629.3 C205.51,656.24 219,678 219,678 C219,678 239.72,696.88 257.21,712.82 " fill="none" id="Collaborator-Skill" style="stroke:#181818;stroke-width:1.0;"/><polygon fill="#000000" points="227.168,672.5138,223.7108,663.6539,219.1633,667.3781,227.168,672.5138" style="stroke:#000000;stroke-width:1.0;"/><text fill="#000000" font-family="sans-serif" font-size="13" lengthAdjust="spacing" textLength="21" x="233" y="674.0283">has</text><text fill="#000000" font-family="sans-serif" font-size="13" lengthAdjust="spacing" textLength="7" x="185.9802" y="651.1218">1</text><text fill="#000000" font-family="sans-serif" font-size="13" lengthAdjust="spacing" textLength="5" x="244.4873" y="700.6964">*</text></g><!--link Team to Collaborator--><g id="link_Team_Collaborator"><path codeLine="93" d="M594.79,527 C532.35,527 346.2,527 228.12,527 " fill="none" id="Team-Collaborator" style="stroke:#181818;stroke-width:1.0;"/><polygon fill="#000000" points="393.5,514.6455,402.5451,517.5844,402.5451,511.7066,393.5,514.6455" style="stroke:#000000;stroke-width:1.0;"/><text fill="#000000" font-family="sans-serif" font-size="13" lengthAdjust="spacing" textLength="21" x="407.5" y="520.0283">has</text><text fill="#000000" font-family="sans-serif" font-size="13" lengthAdjust="spacing" textLength="7" x="579.9137" y="521.4257">1</text><text fill="#000000" font-family="sans-serif" font-size="13" lengthAdjust="spacing" textLength="20" x="236.0034" y="523.4335">1..*</text></g><!--link Task to Team--><g id="link_Task_Team"><path codeLine="94" d="M943.18,247 C888.25,280.55 732,376 732,376 C732,376 660.13,468.93 629.53,508.5 " fill="none" id="Task-Team" style="stroke:#181818;stroke-width:1.0;"/><polygon fill="#000000" points="733.1596,388.8473,741.9889,385.3125,738.2249,380.7979,733.1596,388.8473" style="stroke:#000000;stroke-width:1.0;"/><text fill="#000000" font-family="sans-serif" font-size="13" lengthAdjust="spacing" textLength="81" x="746" y="391.0283">is assigned to</text><text fill="#000000" font-family="sans-serif" font-size="13" lengthAdjust="spacing" textLength="5" x="930.5848" y="245.5727">*</text><text fill="#000000" font-family="sans-serif" font-size="13" lengthAdjust="spacing" textLength="22" x="637.0423" y="497.3622">0..1</text></g><!--link VFM to Vehicle--><g id="link_VFM_Vehicle"><path codeLine="95" d="M1449.17,34.34 C1418.49,47.83 1359,74 1359,74 C1359,74 1359,93 1359,93 C1359,93 1362,105.38 1366.21,122.8 " fill="none" id="VFM-Vehicle" style="stroke:#181818;stroke-width:1.0;"/><polygon fill="#000000" points="1360.5797,87.2926,1368.9108,82.7054,1364.6234,78.6845,1360.5797,87.2926" style="stroke:#000000;stroke-width:1.0;"/><text fill="#000000" font-family="sans-serif" font-size="13" lengthAdjust="spacing" textLength="50" x="1373" y="89.0283">registers</text><text fill="#000000" font-family="sans-serif" font-size="13" lengthAdjust="spacing" textLength="7" x="1434.5712" y="31.6088">1</text><text fill="#000000" font-family="sans-serif" font-size="13" lengthAdjust="spacing" textLength="5" x="1359.2421" y="111.7678">*</text></g><!--link VFM to Vehicle--><g id="link_VFM_Vehicle"><path codeLine="96" d="M1460.69,44.15 C1454.22,62.24 1443.59,91.97 1432.65,122.58 " fill="none" id="VFM-Vehicle-1" style="stroke:#181818;stroke-width:1.0;"/><polygon fill="#000000" points="1452.3168,88.3537,1458.1292,80.8259,1452.5944,78.8471,1452.3168,88.3537" style="stroke:#000000;stroke-width:1.0;"/><text fill="#000000" font-family="sans-serif" font-size="13" lengthAdjust="spacing" textLength="53" x="1463" y="89.0283">manages</text><text fill="#000000" font-family="sans-serif" font-size="13" lengthAdjust="spacing" textLength="7" x="1451.0536" y="65.5649">1</text><text fill="#000000" font-family="sans-serif" font-size="13" lengthAdjust="spacing" textLength="5" x="1430.0299" y="111.9086">*</text></g><!--link Vehicle to Maintenance--><g id="link_Vehicle_Maintenance"><path codeLine="97" d="M1460.25,234.5 C1483.85,234.5 1509.73,234.5 1530.93,234.5 " fill="none" id="Vehicle-Maintenance" style="stroke:#181818;stroke-width:1.0;"/><polygon fill="#000000" points="1487.5,222.1455,1478.4549,219.2066,1478.4549,225.0844,1487.5,222.1455" style="stroke:#000000;stroke-width:1.0;"/><text fill="#000000" font-family="sans-serif" font-size="13" lengthAdjust="spacing" textLength="21" x="1491.5" y="227.5283">has</text><text fill="#000000" font-family="sans-serif" font-size="13" lengthAdjust="spacing" textLength="7" x="1467.9883" y="230.6237">1</text><text fill="#000000" font-family="sans-serif" font-size="13" lengthAdjust="spacing" textLength="5" x="1517.9258" y="230.0508">*</text></g><!--link Task to Vehicle--><g id="link_Task_Vehicle"><path codeLine="98" d="M980.75,216.23 C1018.69,179.24 1101,99 1101,99 C1101,99 1193,99 1193,99 C1193,99 1299,123 1299,123 C1299,123 1310.75,136.93 1325.94,154.95 " fill="none" id="Task-Vehicle" style="stroke:#181818;stroke-width:1.0;"/><polygon fill="#000000" points="1110.923,82.7715,1101.5035,81.4589,1102.5309,87.2462,1110.923,82.7715" style="stroke:#000000;stroke-width:1.0;"/><text fill="#000000" font-family="sans-serif" font-size="13" lengthAdjust="spacing" textLength="77" x="1115" y="89.0283">has assigned</text><text fill="#000000" font-family="sans-serif" font-size="13" lengthAdjust="spacing" textLength="7" x="987.8422" y="204.8322">1</text><text fill="#000000" font-family="sans-serif" font-size="13" lengthAdjust="spacing" textLength="5" x="1312.8971" y="141.8241">*</text></g><!--link VFM to Maintenance--><g id="link_VFM_Maintenance"><path codeLine="99" d="M1484.72,41.01 C1501.77,54.98 1525,74 1525,74 C1525,74 1546.02,141.07 1560.81,188.22 " fill="none" id="VFM-Maintenance" style="stroke:#181818;stroke-width:1.0;"/><polygon fill="#000000" points="1537.2959,88.0872,1535.7534,78.7026,1530.5318,81.4015,1537.2959,88.0872" style="stroke:#000000;stroke-width:1.0;"/><text fill="#000000" font-family="sans-serif" font-size="13" lengthAdjust="spacing" textLength="50" x="1544" y="89.0283">registers</text><text fill="#000000" font-family="sans-serif" font-size="13" lengthAdjust="spacing" textLength="7" x="1492.5449" y="40.7468">1</text><text fill="#000000" font-family="sans-serif" font-size="13" lengthAdjust="spacing" textLength="5" x="1553.3587" y="177.1883">*</text></g><!--link Task to GreenSpace--><g id="link_Task_GreenSpace"><path codeLine="100" d="M973.78,253.23 C1000.71,293.76 1067.86,394.83 1112.42,461.9 " fill="none" id="Task-GreenSpace" style="stroke:#181818;stroke-width:1.0;"/><polygon fill="#000000" points="1072.767,389.8101,1070.2094,380.6499,1065.3136,383.9026,1072.767,389.8101" style="stroke:#000000;stroke-width:1.0;"/><text fill="#000000" font-family="sans-serif" font-size="13" lengthAdjust="spacing" textLength="104" x="1079" y="391.0283">is associated with</text><text fill="#000000" font-family="sans-serif" font-size="13" lengthAdjust="spacing" textLength="5" x="971.274" y="274.6664">*</text><text fill="#000000" font-family="sans-serif" font-size="13" lengthAdjust="spacing" textLength="7" x="1100.38" y="450.9092">1</text></g><!--link Task to ToDoList--><g id="link_Task_ToDoList"><path codeLine="101" d="M946.67,253.01 C913.7,290.67 839,376 839,376 C839,376 821.03,468.93 813.38,508.5 " fill="none" id="Task-ToDoList" style="stroke:#181818;stroke-width:1.0;"/><polygon fill="#000000" points="841.6873,390.0785,848.4767,383.4185,843.2654,380.6998,841.6873,390.0785" style="stroke:#000000;stroke-width:1.0;"/><text fill="#000000" font-family="sans-serif" font-size="13" lengthAdjust="spacing" textLength="60" x="853" y="391.0283">belongs to</text><text fill="#000000" font-family="sans-serif" font-size="13" lengthAdjust="spacing" textLength="5" x="936.6553" y="274.7291">*</text><text fill="#000000" font-family="sans-serif" font-size="13" lengthAdjust="spacing" textLength="7" x="806.3433" y="497.3622">1</text></g><!--link Task to Agenda--><g id="link_Task_Agenda"><path codeLine="102" d="M957.01,253.01 C946.29,290.67 922,376 922,376 C922,376 922,395 922,395 C922,395 923.78,472.58 924.6,508.33 " fill="none" id="Task-Agenda" style="stroke:#181818;stroke-width:1.0;"/><polygon fill="#000000" points="926.3704,390.6057,930.4249,382.0027,924.5939,381.2625,926.3704,390.6057" style="stroke:#000000;stroke-width:1.0;"/><text fill="#000000" font-family="sans-serif" font-size="13" lengthAdjust="spacing" textLength="104" x="936" y="391.0283">might be added to</text><text fill="#000000" font-family="sans-serif" font-size="13" lengthAdjust="spacing" textLength="5" x="949.9034" y="274.7291">*</text><text fill="#000000" font-family="sans-serif" font-size="13" lengthAdjust="spacing" textLength="7" x="916.4056" y="497.1401">1</text></g><!--link GSM to GreenSpace--><g id="link_GSM_GreenSpace"><path codeLine="103" d="M876.93,29.12 C948.84,39.08 1201,74 1201,74 C1201,74 1201,93 1201,93 C1201,93 1192,395 1192,395 C1192,395 1182.53,428.52 1173.17,461.65 " fill="none" id="GSM-GreenSpace" style="stroke:#181818;stroke-width:1.0;"/><polygon fill="#000000" points="1208.8254,238.7707,1206.139,229.6474,1201.2895,232.9688,1208.8254,238.7707" style="stroke:#000000;stroke-width:1.0;"/><text fill="#000000" font-family="sans-serif" font-size="13" lengthAdjust="spacing" textLength="50" x="1215" y="240.0283">registers</text><text fill="#000000" font-family="sans-serif" font-size="13" lengthAdjust="spacing" textLength="7" x="884.3599" y="24.6428">1</text><text fill="#000000" font-family="sans-serif" font-size="13" lengthAdjust="spacing" textLength="5" x="1169.8839" y="450.6318">*</text></g><!--link GSM to Task--><g id="link_GSM_Task"><path codeLine="104" d="M839.27,34.24 C806.68,47.7 743,74 743,74 C743,74 743,93 743,93 C743,93 890.37,187.54 943.33,221.52 " fill="none" id="GSM-Task" style="stroke:#181818;stroke-width:1.0;"/><polygon fill="#000000" points="750.4285,88.0161,748.6043,78.6822,743.4663,81.537,750.4285,88.0161" style="stroke:#000000;stroke-width:1.0;"/><text fill="#000000" font-family="sans-serif" font-size="13" lengthAdjust="spacing" textLength="170" x="757" y="89.0283">creates and adds to ToDoList</text><text fill="#000000" font-family="sans-serif" font-size="13" lengthAdjust="spacing" textLength="7" x="824.6284" y="54.3097">1</text><text fill="#000000" font-family="sans-serif" font-size="13" lengthAdjust="spacing" textLength="5" x="930.5236" y="210.7511">*</text></g><!--link GSM to Task--><g id="link_GSM_Task"><path codeLine="105" d="M876.67,38.49 C898.6,52.56 932,74 932,74 C932,74 950.86,174.29 958.67,215.82 " fill="none" id="GSM-Task-1" style="stroke:#181818;stroke-width:1.0;"/><polygon fill="#000000" points="943.0986,88.1838,941.9698,78.7405,936.6347,81.2075,943.0986,88.1838" style="stroke:#000000;stroke-width:1.0;"/><text fill="#000000" font-family="sans-serif" font-size="13" lengthAdjust="spacing" textLength="91" x="950" y="89.0283">adds to Agenda</text><text fill="#000000" font-family="sans-serif" font-size="13" lengthAdjust="spacing" textLength="7" x="884.5681" y="60.2935">1</text><text fill="#000000" font-family="sans-serif" font-size="13" lengthAdjust="spacing" textLength="5" x="951.8846" y="204.627">*</text></g><!--link GSM to Team--><g id="link_GSM_Team"><path codeLine="106" d="M839.32,33.71 C804.91,47 735,74 735,74 C735,74 642.67,424.71 620.66,508.28 " fill="none" id="GSM-Team" style="stroke:#181818;stroke-width:1.0;"/><polygon fill="#000000" points="724.9076,239.1867,731.362,232.2015,726.0235,229.7418,724.9076,239.1867" style="stroke:#000000;stroke-width:1.0;"/><text fill="#000000" font-family="sans-serif" font-size="13" lengthAdjust="spacing" textLength="92" x="736" y="240.0283">assigns to Task</text><text fill="#000000" font-family="sans-serif" font-size="13" lengthAdjust="spacing" textLength="7" x="824.4184" y="30.7543">1</text><text fill="#000000" font-family="sans-serif" font-size="13" lengthAdjust="spacing" textLength="5" x="616.3215" y="497.0748">*</text></g><!--SRC=[VLJ9Zjim3BtxAuHS0XIOO7BDOO11q-awHT5CspCjCROGBHv9xZGj-k-bv4tEKfz4yeby99_i3z8qu40pROtbjRCQMN0j5dwCDC0FKE4k71KoXpo0gLGEy3K8-o9DnVQWF1RBAQIamN1ia5aNQbjS23HM7QDHB1Nk0mkMELdLWGaPIqbhiajSWVVt8JXPjW7VSsjsyZUoswAM0XcNZXElTDP8vOGlYcMGWMXlhGPfsACLgCYP4h4l2iBUEit-54l6RWHwxcIJQYx_5aK7UlVraUAZ-VrXPhxTpSpTGIf53aQV0OrJv8CjB_fVMwMWj0w2TJaW7af9GnCGEWk4bjuJkUta4GwzJ-UcjWO_jxf4bsoaVbKw1VZLm15T5gG9cI3taaDiTcjvgydnHEluJxY_Fp9_Gj1vxq_W3xD9OIrf7trJFpihZhnlpe4HwQJJKXBLWK40rnqgPxt_WL4HoUQjSyJbe-wwTbX97z1D8-7FhVGov6FYDVB3j-R1uNEBXXydYe-aYO063BzASnp_WKfEQtU8PaSF0qztHiHXtak-fShhDsanqzJirdwY7lB9tLTe17IU8kfliLwm6xPujUW5jXaRz-pk1165TYL-qo5cahi6dLKZKh8o5m190nj6V97IOKJCiaTCXAu7NZMSOyxhTQYKl6zilLgTC-zXKNT3eTlLQZtIahvdZYB-L-wA-7YpSeD2vpEu2j9Ww3UO8Brlcdgkf3cn4J8bYk6Hs5d1UQgSsQnJkf2fS6ZMSabx4En5Xlh2ZL5j6rQYigRotM1ESRq2gUVqBoungdYOOlpdPNndB7Aw9xXKOyCuFP2e57hzCMaYCDAwTca0zhpEOTt21vt6bF7Y7RsVVm00]--></g></svg>