<?xml version="1.0" encoding="us-ascii" standalone="no"?><svg xmlns="http://www.w3.org/2000/svg" xmlns:xlink="http://www.w3.org/1999/xlink" contentStyleType="text/css" height="414px" preserveAspectRatio="none" style="width:978px;height:414px;background:#FFFFFF;" version="1.1" viewBox="0 0 978 414" width="978px" zoomAndPan="magnify"><defs/><g><text fill="#000000" font-family="sans-serif" font-size="14" font-weight="bold" lengthAdjust="spacing" textLength="282" x="347.25" y="30.1074">System Sequence Diagram (SSD) - us006</text><rect fill="#FFFFFF" height="188.7461" style="stroke:#181818;stroke-width:1.0;" width="10" x="13.5" y="133.2422"/><rect fill="#FFFFFF" height="31.291" style="stroke:#181818;stroke-width:1.0;" width="10" x="935.5" y="156.5332"/><rect fill="#FFFFFF" height="31.291" style="stroke:#181818;stroke-width:1.0;" width="10" x="935.5" y="219.1152"/><rect fill="#FFFFFF" height="31.291" style="stroke:#181818;stroke-width:1.0;" width="10" x="935.5" y="281.6973"/><line style="stroke:#181818;stroke-width:0.5;stroke-dasharray:5.0,5.0;" x1="18" x2="18" y1="123.2422" y2="330.9883"/><line style="stroke:#181818;stroke-width:0.5;stroke-dasharray:5.0,5.0;" x1="940.5" x2="940.5" y1="123.2422" y2="330.9883"/><text fill="#000000" font-family="sans-serif" font-size="14" lengthAdjust="spacing" textLength="20" x="5.5" y="119.7285">FM</text><ellipse cx="18.5" cy="53.1211" fill="#E3E3E3" rx="8" ry="8" style="stroke:#181818;stroke-width:0.5;"/><path d="M18.5,61.1211 L18.5,88.1211 M5.5,69.1211 L31.5,69.1211 M18.5,88.1211 L5.5,103.1211 M18.5,88.1211 L31.5,103.1211 " fill="none" style="stroke:#181818;stroke-width:0.5;"/><text fill="#000000" font-family="sans-serif" font-size="14" lengthAdjust="spacing" textLength="20" x="5.5" y="345.0957">FM</text><ellipse cx="18.5" cy="357.1094" fill="#E3E3E3" rx="8" ry="8" style="stroke:#181818;stroke-width:0.5;"/><path d="M18.5,365.1094 L18.5,392.1094 M5.5,373.1094 L31.5,373.1094 M18.5,392.1094 L5.5,407.1094 M18.5,392.1094 L31.5,407.1094 " fill="none" style="stroke:#181818;stroke-width:0.5;"/><rect fill="#E3E3E3" height="32.6211" rx="2.5" ry="2.5" style="stroke:#181818;stroke-width:0.5;" width="64" x="908.5" y="89.6211"/><text fill="#000000" font-family="sans-serif" font-size="14" lengthAdjust="spacing" textLength="50" x="915.5" y="111.7285">:System</text><rect fill="#E3E3E3" height="32.6211" rx="2.5" ry="2.5" style="stroke:#181818;stroke-width:0.5;" width="64" x="908.5" y="329.9883"/><text fill="#000000" font-family="sans-serif" font-size="14" lengthAdjust="spacing" textLength="50" x="915.5" y="352.0957">:System</text><rect fill="#FFFFFF" height="188.7461" style="stroke:#181818;stroke-width:1.0;" width="10" x="13.5" y="133.2422"/><rect fill="#FFFFFF" height="31.291" style="stroke:#181818;stroke-width:1.0;" width="10" x="935.5" y="156.5332"/><rect fill="#FFFFFF" height="31.291" style="stroke:#181818;stroke-width:1.0;" width="10" x="935.5" y="219.1152"/><rect fill="#FFFFFF" height="31.291" style="stroke:#181818;stroke-width:1.0;" width="10" x="935.5" y="281.6973"/><polygon fill="#181818" points="923.5,152.5332,933.5,156.5332,923.5,160.5332,927.5,156.5332" style="stroke:#181818;stroke-width:1.0;"/><line style="stroke:#181818;stroke-width:1.0;" x1="23.5" x2="929.5" y1="156.5332" y2="156.5332"/><text fill="#000000" font-family="sans-serif" font-size="13" font-weight="bold" lengthAdjust="spacing" textLength="7" x="30.5" y="151.2705">1</text><text fill="#000000" font-family="sans-serif" font-size="13" lengthAdjust="spacing" textLength="187" x="41.5" y="151.2705">Requests to register new vehicle</text><polygon fill="#181818" points="34.5,183.8242,24.5,187.8242,34.5,191.8242,30.5,187.8242" style="stroke:#181818;stroke-width:1.0;"/><line style="stroke:#181818;stroke-width:1.0;stroke-dasharray:2.0,2.0;" x1="28.5" x2="939.5" y1="187.8242" y2="187.8242"/><text fill="#000000" font-family="sans-serif" font-size="13" font-weight="bold" lengthAdjust="spacing" textLength="7" x="40.5" y="182.5615">2</text><text fill="#000000" font-family="sans-serif" font-size="13" lengthAdjust="spacing" textLength="92" x="51.5" y="182.5615">Requests data()</text><polygon fill="#181818" points="923.5,215.1152,933.5,219.1152,923.5,223.1152,927.5,219.1152" style="stroke:#181818;stroke-width:1.0;"/><line style="stroke:#181818;stroke-width:1.0;" x1="23.5" x2="929.5" y1="219.1152" y2="219.1152"/><text fill="#000000" font-family="sans-serif" font-size="13" font-weight="bold" lengthAdjust="spacing" textLength="7" x="30.5" y="213.8525">3</text><text fill="#000000" font-family="sans-serif" font-size="13" lengthAdjust="spacing" textLength="882" x="41.5" y="213.8525">Enter required data (Brand, Model, Type, Tare, Gross Weight, Current Km, Register Date, Acquisition Date, Maintenance or Checkup Frequency in Kms)</text><polygon fill="#181818" points="34.5,246.4063,24.5,250.4063,34.5,254.4063,30.5,250.4063" style="stroke:#181818;stroke-width:1.0;"/><line style="stroke:#181818;stroke-width:1.0;stroke-dasharray:2.0,2.0;" x1="28.5" x2="939.5" y1="250.4063" y2="250.4063"/><text fill="#000000" font-family="sans-serif" font-size="13" font-weight="bold" lengthAdjust="spacing" textLength="7" x="40.5" y="245.1436">4</text><text fill="#000000" font-family="sans-serif" font-size="13" lengthAdjust="spacing" textLength="142" x="51.5" y="245.1436">Lists all the inputed data</text><polygon fill="#181818" points="923.5,277.6973,933.5,281.6973,923.5,285.6973,927.5,281.6973" style="stroke:#181818;stroke-width:1.0;"/><line style="stroke:#181818;stroke-width:1.0;" x1="23.5" x2="929.5" y1="281.6973" y2="281.6973"/><text fill="#000000" font-family="sans-serif" font-size="13" font-weight="bold" lengthAdjust="spacing" textLength="7" x="30.5" y="276.4346">5</text><text fill="#000000" font-family="sans-serif" font-size="13" lengthAdjust="spacing" textLength="80" x="41.5" y="276.4346">Confirms data</text><polygon fill="#181818" points="34.5,308.9883,24.5,312.9883,34.5,316.9883,30.5,312.9883" style="stroke:#181818;stroke-width:1.0;"/><line style="stroke:#181818;stroke-width:1.0;stroke-dasharray:2.0,2.0;" x1="28.5" x2="939.5" y1="312.9883" y2="312.9883"/><text fill="#000000" font-family="sans-serif" font-size="13" font-weight="bold" lengthAdjust="spacing" textLength="7" x="40.5" y="307.7256">6</text><text fill="#000000" font-family="sans-serif" font-size="13" lengthAdjust="spacing" textLength="160" x="51.5" y="307.7256">Displays operation success</text><!--SRC=[bP51J-im3CVl_HJMJflKIJjnu8046t20NIZIE_kbfhNM92LsGFtsk5sPG6zFWXmYAx5__lzjEN3eCQ477qDqROgUG5EcGau_FRe3DbJfq14aSegXwRucI8jrVEVGm0jsGaMXh9PQ3QBaeQBNJC4Hx1YRCNrPLRiLh27BPdDH59WrXkp_KhBOQKomkDil00MkQy-Xi1xAZdiC2elB8tJwFePJ4R-XqfnVW9qfXFNLfuXBU1fbY0feD1CDstE2GE_mHYqxypEMdL2VR9ZFZ5aRyOZ-0gnHSRcQKciwI_XNpMqOsoT3SA9wGi3o9c6eIzZ7cheIdeUUxCPaztsA8l27k6crX6rEYMmQ3xuq5RELdJKjuTePKLWvXlbbZsoz0euRiDbkMtA7tCDTEgvb05Fsu6NrV_zdl3_oQ1ox3hGb8_HPPnUdYVru5DiONZXv-Lx-cqtiMFeE1u7OKyB9ksJdIEJyKZu0]--></g></svg>