<?xml version="1.0" encoding="us-ascii" standalone="no"?><svg xmlns="http://www.w3.org/2000/svg" xmlns:xlink="http://www.w3.org/1999/xlink" contentStyleType="text/css" height="889px" preserveAspectRatio="none" style="width:1165px;height:889px;background:#FFFFFF;" version="1.1" viewBox="0 0 1165 889" width="1165px" zoomAndPan="magnify"><defs/><g><!--class RegisterCollaboratorUI--><g id="elem_RegisterCollaboratorUI"><rect codeLine="11" fill="#F1F1F1" height="48" id="RegisterCollaboratorUI" rx="2.5" ry="2.5" style="stroke:#181818;stroke-width:0.5;" width="175" x="7" y="72"/><ellipse cx="22" cy="88" fill="#ADD1B2" rx="11" ry="11" style="stroke:#181818;stroke-width:1.0;"/><path d="M24.7656,83.875 Q24.9219,83.6563 25.1094,83.5469 Q25.2969,83.4375 25.5156,83.4375 Q25.8906,83.4375 26.125,83.7031 Q26.3594,83.9531 26.3594,84.5625 L26.3594,86.0156 Q26.3594,86.625 26.125,86.8906 Q25.8906,87.1563 25.5156,87.1563 Q25.1719,87.1563 24.9688,86.9531 Q24.7656,86.7656 24.6563,86.25 Q24.6094,85.8906 24.4219,85.7031 Q24.0938,85.3281 23.4844,85.1094 Q22.875,84.8906 22.25,84.8906 Q21.4844,84.8906 20.8438,85.2188 Q20.2188,85.5469 19.7188,86.2969 Q19.2344,87.0469 19.2344,88.0781 L19.2344,89.1719 Q19.2344,90.4063 20.125,91.2344 Q21.0156,92.0469 22.6094,92.0469 Q23.5469,92.0469 24.2031,91.7969 Q24.5938,91.6406 25.0156,91.2031 Q25.2813,90.9375 25.4219,90.8594 Q25.5781,90.7813 25.7813,90.7813 Q26.1094,90.7813 26.3594,91.0469 Q26.625,91.2969 26.625,91.6406 Q26.625,91.9844 26.2813,92.3906 Q25.7813,92.9688 24.9844,93.2969 Q23.9063,93.75 22.6094,93.75 Q21.0938,93.75 19.8906,93.125 Q18.9063,92.625 18.2188,91.5625 Q17.5313,90.4844 17.5313,89.2031 L17.5313,88.0469 Q17.5313,86.7188 18.1406,85.5781 Q18.7656,84.4219 19.8594,83.8125 Q20.9531,83.1875 22.1875,83.1875 Q22.9219,83.1875 23.5625,83.3594 Q24.2188,83.5156 24.7656,83.875 Z " fill="#000000"/><text fill="#000000" font-family="sans-serif" font-size="14" lengthAdjust="spacing" textLength="143" x="36" y="93.7969">RegisterCollaboratorUI</text><line style="stroke:#181818;stroke-width:0.5;" x1="8" x2="181" y1="104" y2="104"/><line style="stroke:#181818;stroke-width:0.5;" x1="8" x2="181" y1="112" y2="112"/></g><!--class RegisterCollaboratorController--><g id="elem_RegisterCollaboratorController"><rect codeLine="16" fill="#F1F1F1" height="178.3477" id="RegisterCollaboratorController" rx="2.5" ry="2.5" style="stroke:#181818;stroke-width:0.5;" width="343" x="217" y="7"/><ellipse cx="287.75" cy="23" fill="#ADD1B2" rx="11" ry="11" style="stroke:#181818;stroke-width:1.0;"/><path d="M290.5156,18.875 Q290.6719,18.6563 290.8594,18.5469 Q291.0469,18.4375 291.2656,18.4375 Q291.6406,18.4375 291.875,18.7031 Q292.1094,18.9531 292.1094,19.5625 L292.1094,21.0156 Q292.1094,21.625 291.875,21.8906 Q291.6406,22.1563 291.2656,22.1563 Q290.9219,22.1563 290.7188,21.9531 Q290.5156,21.7656 290.4063,21.25 Q290.3594,20.8906 290.1719,20.7031 Q289.8438,20.3281 289.2344,20.1094 Q288.625,19.8906 288,19.8906 Q287.2344,19.8906 286.5938,20.2188 Q285.9688,20.5469 285.4688,21.2969 Q284.9844,22.0469 284.9844,23.0781 L284.9844,24.1719 Q284.9844,25.4063 285.875,26.2344 Q286.7656,27.0469 288.3594,27.0469 Q289.2969,27.0469 289.9531,26.7969 Q290.3438,26.6406 290.7656,26.2031 Q291.0313,25.9375 291.1719,25.8594 Q291.3281,25.7813 291.5313,25.7813 Q291.8594,25.7813 292.1094,26.0469 Q292.375,26.2969 292.375,26.6406 Q292.375,26.9844 292.0313,27.3906 Q291.5313,27.9688 290.7344,28.2969 Q289.6563,28.75 288.3594,28.75 Q286.8438,28.75 285.6406,28.125 Q284.6563,27.625 283.9688,26.5625 Q283.2813,25.4844 283.2813,24.2031 L283.2813,23.0469 Q283.2813,21.7188 283.8906,20.5781 Q284.5156,19.4219 285.6094,18.8125 Q286.7031,18.1875 287.9375,18.1875 Q288.6719,18.1875 289.3125,18.3594 Q289.9688,18.5156 290.5156,18.875 Z " fill="#000000"/><text fill="#000000" font-family="sans-serif" font-size="14" lengthAdjust="spacing" textLength="193" x="308.25" y="28.7969">RegisterCollaboratorController</text><line style="stroke:#181818;stroke-width:0.5;" x1="218" x2="559" y1="39" y2="39"/><line style="stroke:#181818;stroke-width:0.5;" x1="218" x2="559" y1="47" y2="47"/><text fill="#000000" font-family="sans-serif" font-size="14" lengthAdjust="spacing" textLength="211" x="223" y="66.1074">+RegisterCollaboratorController()</text><text fill="#000000" font-family="sans-serif" font-size="14" lengthAdjust="spacing" textLength="67" x="223" y="84.7285">+getJobs()</text><text fill="#000000" font-family="sans-serif" font-size="14" lengthAdjust="spacing" textLength="242" x="223" y="103.3496">+registerCollaborator(name, birthdate,</text><text fill="#000000" font-family="sans-serif" font-size="14" lengthAdjust="spacing" textLength="253" x="223" y="121.9707">admissionDate, address, phoneNumber,</text><text fill="#000000" font-family="sans-serif" font-size="14" lengthAdjust="spacing" textLength="331" x="223" y="140.5918">email, taxpayerNumber, identificationDocumentType,</text><text fill="#000000" font-family="sans-serif" font-size="14" lengthAdjust="spacing" textLength="260" x="223" y="159.2129">identificationDocumentNumber, jobName)</text><text fill="#000000" font-family="sans-serif" font-size="14" lengthAdjust="spacing" textLength="164" x="223" y="177.834">-getJobByName(jobName)</text></g><!--class Repositories--><g id="elem_Repositories"><rect codeLine="27" fill="#F1F1F1" height="122.4844" id="Repositories" rx="2.5" ry="2.5" style="stroke:#181818;stroke-width:0.5;" width="196" x="660.5" y="35"/><ellipse cx="714.75" cy="51" fill="#ADD1B2" rx="11" ry="11" style="stroke:#181818;stroke-width:1.0;"/><path d="M717.5156,46.875 Q717.6719,46.6563 717.8594,46.5469 Q718.0469,46.4375 718.2656,46.4375 Q718.6406,46.4375 718.875,46.7031 Q719.1094,46.9531 719.1094,47.5625 L719.1094,49.0156 Q719.1094,49.625 718.875,49.8906 Q718.6406,50.1563 718.2656,50.1563 Q717.9219,50.1563 717.7188,49.9531 Q717.5156,49.7656 717.4063,49.25 Q717.3594,48.8906 717.1719,48.7031 Q716.8438,48.3281 716.2344,48.1094 Q715.625,47.8906 715,47.8906 Q714.2344,47.8906 713.5938,48.2188 Q712.9688,48.5469 712.4688,49.2969 Q711.9844,50.0469 711.9844,51.0781 L711.9844,52.1719 Q711.9844,53.4063 712.875,54.2344 Q713.7656,55.0469 715.3594,55.0469 Q716.2969,55.0469 716.9531,54.7969 Q717.3438,54.6406 717.7656,54.2031 Q718.0313,53.9375 718.1719,53.8594 Q718.3281,53.7813 718.5313,53.7813 Q718.8594,53.7813 719.1094,54.0469 Q719.375,54.2969 719.375,54.6406 Q719.375,54.9844 719.0313,55.3906 Q718.5313,55.9688 717.7344,56.2969 Q716.6563,56.75 715.3594,56.75 Q713.8438,56.75 712.6406,56.125 Q711.6563,55.625 710.9688,54.5625 Q710.2813,53.4844 710.2813,52.2031 L710.2813,51.0469 Q710.2813,49.7188 710.8906,48.5781 Q711.5156,47.4219 712.6094,46.8125 Q713.7031,46.1875 714.9375,46.1875 Q715.6719,46.1875 716.3125,46.3594 Q716.9688,46.5156 717.5156,46.875 Z " fill="#000000"/><text fill="#000000" font-family="sans-serif" font-size="14" lengthAdjust="spacing" textLength="79" x="735.25" y="56.7969">Repositories</text><line style="stroke:#181818;stroke-width:0.5;" x1="661.5" x2="855.5" y1="67" y2="67"/><line style="stroke:#181818;stroke-width:0.5;" x1="661.5" x2="855.5" y1="75" y2="75"/><text fill="#000000" font-family="sans-serif" font-size="14" lengthAdjust="spacing" textLength="94" x="666.5" y="94.1074">-Repositories()</text><text fill="#000000" font-family="sans-serif" font-size="14" lengthAdjust="spacing" textLength="182" x="666.5" y="112.7285">+getInstance() : Repositories</text><text fill="#000000" font-family="sans-serif" font-size="14" lengthAdjust="spacing" textLength="128" x="666.5" y="131.3496">+getJobRepository()</text><text fill="#000000" font-family="sans-serif" font-size="14" lengthAdjust="spacing" textLength="184" x="666.5" y="149.9707">+getCollaboratorRepository()</text></g><!--class JobRepository--><g id="elem_JobRepository"><rect codeLine="35" fill="#F1F1F1" height="85.2422" id="JobRepository" rx="2.5" ry="2.5" style="stroke:#181818;stroke-width:0.5;" width="179" x="669" y="264"/><ellipse cx="709.65" cy="280" fill="#ADD1B2" rx="11" ry="11" style="stroke:#181818;stroke-width:1.0;"/><path d="M712.4156,275.875 Q712.5719,275.6563 712.7594,275.5469 Q712.9469,275.4375 713.1656,275.4375 Q713.5406,275.4375 713.775,275.7031 Q714.0094,275.9531 714.0094,276.5625 L714.0094,278.0156 Q714.0094,278.625 713.775,278.8906 Q713.5406,279.1563 713.1656,279.1563 Q712.8219,279.1563 712.6188,278.9531 Q712.4156,278.7656 712.3063,278.25 Q712.2594,277.8906 712.0719,277.7031 Q711.7438,277.3281 711.1344,277.1094 Q710.525,276.8906 709.9,276.8906 Q709.1344,276.8906 708.4938,277.2188 Q707.8688,277.5469 707.3688,278.2969 Q706.8844,279.0469 706.8844,280.0781 L706.8844,281.1719 Q706.8844,282.4063 707.775,283.2344 Q708.6656,284.0469 710.2594,284.0469 Q711.1969,284.0469 711.8531,283.7969 Q712.2438,283.6406 712.6656,283.2031 Q712.9313,282.9375 713.0719,282.8594 Q713.2281,282.7813 713.4313,282.7813 Q713.7594,282.7813 714.0094,283.0469 Q714.275,283.2969 714.275,283.6406 Q714.275,283.9844 713.9313,284.3906 Q713.4313,284.9688 712.6344,285.2969 Q711.5563,285.75 710.2594,285.75 Q708.7438,285.75 707.5406,285.125 Q706.5563,284.625 705.8688,283.5625 Q705.1813,282.4844 705.1813,281.2031 L705.1813,280.0469 Q705.1813,278.7188 705.7906,277.5781 Q706.4156,276.4219 707.5094,275.8125 Q708.6031,275.1875 709.8375,275.1875 Q710.5719,275.1875 711.2125,275.3594 Q711.8688,275.5156 712.4156,275.875 Z " fill="#000000"/><text fill="#000000" font-family="sans-serif" font-size="14" lengthAdjust="spacing" textLength="90" x="729.35" y="285.7969">JobRepository</text><line style="stroke:#181818;stroke-width:0.5;" x1="670" x2="847" y1="296" y2="296"/><line style="stroke:#181818;stroke-width:0.5;" x1="670" x2="847" y1="304" y2="304"/><text fill="#000000" font-family="sans-serif" font-size="14" lengthAdjust="spacing" textLength="67" x="675" y="323.1074">+getJobs()</text><text fill="#000000" font-family="sans-serif" font-size="14" lengthAdjust="spacing" textLength="167" x="675" y="341.7285">+getJobByName(jobName)</text></g><!--class CollaboratorRepository--><g id="elem_CollaboratorRepository"><rect codeLine="41" fill="#F1F1F1" height="159.7266" id="CollaboratorRepository" rx="2.5" ry="2.5" style="stroke:#181818;stroke-width:0.5;" width="343" x="217" y="493"/><ellipse cx="311.25" cy="509" fill="#ADD1B2" rx="11" ry="11" style="stroke:#181818;stroke-width:1.0;"/><path d="M314.0156,504.875 Q314.1719,504.6563 314.3594,504.5469 Q314.5469,504.4375 314.7656,504.4375 Q315.1406,504.4375 315.375,504.7031 Q315.6094,504.9531 315.6094,505.5625 L315.6094,507.0156 Q315.6094,507.625 315.375,507.8906 Q315.1406,508.1563 314.7656,508.1563 Q314.4219,508.1563 314.2188,507.9531 Q314.0156,507.7656 313.9063,507.25 Q313.8594,506.8906 313.6719,506.7031 Q313.3438,506.3281 312.7344,506.1094 Q312.125,505.8906 311.5,505.8906 Q310.7344,505.8906 310.0938,506.2188 Q309.4688,506.5469 308.9688,507.2969 Q308.4844,508.0469 308.4844,509.0781 L308.4844,510.1719 Q308.4844,511.4063 309.375,512.2344 Q310.2656,513.0469 311.8594,513.0469 Q312.7969,513.0469 313.4531,512.7969 Q313.8438,512.6406 314.2656,512.2031 Q314.5313,511.9375 314.6719,511.8594 Q314.8281,511.7813 315.0313,511.7813 Q315.3594,511.7813 315.6094,512.0469 Q315.875,512.2969 315.875,512.6406 Q315.875,512.9844 315.5313,513.3906 Q315.0313,513.9688 314.2344,514.2969 Q313.1563,514.75 311.8594,514.75 Q310.3438,514.75 309.1406,514.125 Q308.1563,513.625 307.4688,512.5625 Q306.7813,511.4844 306.7813,510.2031 L306.7813,509.0469 Q306.7813,507.7188 307.3906,506.5781 Q308.0156,505.4219 309.1094,504.8125 Q310.2031,504.1875 311.4375,504.1875 Q312.1719,504.1875 312.8125,504.3594 Q313.4688,504.5156 314.0156,504.875 Z " fill="#000000"/><text fill="#000000" font-family="sans-serif" font-size="14" lengthAdjust="spacing" textLength="146" x="331.75" y="514.7969">CollaboratorRepository</text><line style="stroke:#181818;stroke-width:0.5;" x1="218" x2="559" y1="525" y2="525"/><line style="stroke:#181818;stroke-width:0.5;" x1="218" x2="559" y1="533" y2="533"/><text fill="#000000" font-family="sans-serif" font-size="14" lengthAdjust="spacing" textLength="242" x="223" y="552.1074">+registerCollaborator(name, birthdate,</text><text fill="#000000" font-family="sans-serif" font-size="14" lengthAdjust="spacing" textLength="253" x="223" y="570.7285">admissionDate, address, phoneNumber,</text><text fill="#000000" font-family="sans-serif" font-size="14" lengthAdjust="spacing" textLength="331" x="223" y="589.3496">email, taxpayerNumber, identificationDocumentType,</text><text fill="#000000" font-family="sans-serif" font-size="14" lengthAdjust="spacing" textLength="224" x="223" y="607.9707">identificationDocumentNumber, job)</text><text fill="#000000" font-family="sans-serif" font-size="14" lengthAdjust="spacing" textLength="192" x="223" y="626.5918">-addCollaborator(collaborator)</text><text fill="#000000" font-family="sans-serif" font-size="14" lengthAdjust="spacing" textLength="217" x="223" y="645.2129">-validateCollaborator(collaborator)</text></g><!--class Collaborator--><g id="elem_Collaborator"><rect codeLine="48" fill="#F1F1F1" height="290.0742" id="Collaborator" rx="2.5" ry="2.5" style="stroke:#181818;stroke-width:0.5;" width="343" x="664" y="428"/><ellipse cx="792.25" cy="444" fill="#ADD1B2" rx="11" ry="11" style="stroke:#181818;stroke-width:1.0;"/><path d="M795.0156,439.875 Q795.1719,439.6563 795.3594,439.5469 Q795.5469,439.4375 795.7656,439.4375 Q796.1406,439.4375 796.375,439.7031 Q796.6094,439.9531 796.6094,440.5625 L796.6094,442.0156 Q796.6094,442.625 796.375,442.8906 Q796.1406,443.1563 795.7656,443.1563 Q795.4219,443.1563 795.2188,442.9531 Q795.0156,442.7656 794.9063,442.25 Q794.8594,441.8906 794.6719,441.7031 Q794.3438,441.3281 793.7344,441.1094 Q793.125,440.8906 792.5,440.8906 Q791.7344,440.8906 791.0938,441.2188 Q790.4688,441.5469 789.9688,442.2969 Q789.4844,443.0469 789.4844,444.0781 L789.4844,445.1719 Q789.4844,446.4063 790.375,447.2344 Q791.2656,448.0469 792.8594,448.0469 Q793.7969,448.0469 794.4531,447.7969 Q794.8438,447.6406 795.2656,447.2031 Q795.5313,446.9375 795.6719,446.8594 Q795.8281,446.7813 796.0313,446.7813 Q796.3594,446.7813 796.6094,447.0469 Q796.875,447.2969 796.875,447.6406 Q796.875,447.9844 796.5313,448.3906 Q796.0313,448.9688 795.2344,449.2969 Q794.1563,449.75 792.8594,449.75 Q791.3438,449.75 790.1406,449.125 Q789.1563,448.625 788.4688,447.5625 Q787.7813,446.4844 787.7813,445.2031 L787.7813,444.0469 Q787.7813,442.7188 788.3906,441.5781 Q789.0156,440.4219 790.1094,439.8125 Q791.2031,439.1875 792.4375,439.1875 Q793.1719,439.1875 793.8125,439.3594 Q794.4688,439.5156 795.0156,439.875 Z " fill="#000000"/><text fill="#000000" font-family="sans-serif" font-size="14" lengthAdjust="spacing" textLength="78" x="812.75" y="449.7969">Collaborator</text><line style="stroke:#181818;stroke-width:0.5;" x1="665" x2="1006" y1="460" y2="460"/><text fill="#000000" font-family="sans-serif" font-size="14" lengthAdjust="spacing" textLength="81" x="670" y="479.1074">-String name</text><text fill="#000000" font-family="sans-serif" font-size="14" lengthAdjust="spacing" textLength="95" x="670" y="497.7285">-Date birthdate</text><text fill="#000000" font-family="sans-serif" font-size="14" lengthAdjust="spacing" textLength="132" x="670" y="516.3496">-Date admissionDate</text><text fill="#000000" font-family="sans-serif" font-size="14" lengthAdjust="spacing" textLength="97" x="670" y="534.9707">-String address</text><text fill="#000000" font-family="sans-serif" font-size="14" lengthAdjust="spacing" textLength="142" x="670" y="553.5918">-Integer phoneNumber</text><text fill="#000000" font-family="sans-serif" font-size="14" lengthAdjust="spacing" textLength="79" x="670" y="572.2129">-String email</text><text fill="#000000" font-family="sans-serif" font-size="14" lengthAdjust="spacing" textLength="156" x="670" y="590.834">-Integer taxpayerNumber</text><text fill="#000000" font-family="sans-serif" font-size="14" lengthAdjust="spacing" textLength="241" x="670" y="609.4551">-DocType identificationDocumentType</text><text fill="#000000" font-family="sans-serif" font-size="14" lengthAdjust="spacing" textLength="245" x="670" y="628.0762">-Integer identificationDocumentNumber</text><line style="stroke:#181818;stroke-width:0.5;" x1="665" x2="1006" y1="635.5898" y2="635.5898"/><text fill="#000000" font-family="sans-serif" font-size="14" lengthAdjust="spacing" textLength="194" x="670" y="654.6973">+Collaborator(name, birthdate,</text><text fill="#000000" font-family="sans-serif" font-size="14" lengthAdjust="spacing" textLength="253" x="670" y="673.3184">admissionDate, address, phoneNumber,</text><text fill="#000000" font-family="sans-serif" font-size="14" lengthAdjust="spacing" textLength="331" x="670" y="691.9395">email, taxpayerNumber, identificationDocumentType,</text><text fill="#000000" font-family="sans-serif" font-size="14" lengthAdjust="spacing" textLength="224" x="670" y="710.5605">identificationDocumentNumber, job)</text></g><!--class DocType--><g id="elem_DocType"><rect codeLine="62" fill="#F1F1F1" height="103.8633" id="DocType" rx="2.5" ry="2.5" style="stroke:#181818;stroke-width:0.5;" width="89" x="791" y="779"/><ellipse cx="806" cy="795" fill="#EB937F" rx="11" ry="11" style="stroke:#181818;stroke-width:1.0;"/><path d="M804.8594,795.7969 L804.8594,798.2969 L809.1875,798.2969 L809.1875,797.375 Q809.1875,796.7656 809.4219,796.5 Q809.6719,796.2344 810.0469,796.2344 Q810.4219,796.2344 810.6563,796.5 Q810.8906,796.7656 810.8906,797.375 L810.8906,800 L802.8906,800 Q802.2656,800 802,799.7656 Q801.75,799.5313 801.75,799.1406 Q801.75,798.7656 802.0156,798.5313 Q802.2813,798.2969 802.8906,798.2969 L803.1563,798.2969 L803.1563,791.6406 L802.8906,791.6406 Q802.2656,791.6406 802,791.4063 Q801.75,791.1719 801.75,790.7813 Q801.75,790.4063 802,790.1719 Q802.2656,789.9375 802.8906,789.9375 L810.5156,789.9375 L810.5156,792.5313 Q810.5156,793.1406 810.2813,793.4063 Q810.0625,793.6563 809.6719,793.6563 Q809.2969,793.6563 809.0625,793.4063 Q808.8281,793.1406 808.8281,792.5313 L808.8281,791.6406 L804.8594,791.6406 L804.8594,794.0938 L806.3438,794.0938 Q806.3438,793.4375 806.4688,793.25 Q806.7344,792.8438 807.2031,792.8438 Q807.5781,792.8438 807.8125,793.1094 Q808.0469,793.3594 808.0469,793.9688 L808.0469,795.9375 Q808.0469,796.4844 807.9219,796.6719 Q807.6563,797.0625 807.2031,797.0625 Q806.7344,797.0625 806.4688,796.6563 Q806.3438,796.4688 806.3438,795.7969 L804.8594,795.7969 Z " fill="#000000"/><text fill="#000000" font-family="sans-serif" font-size="14" lengthAdjust="spacing" textLength="57" x="820" y="800.7969">DocType</text><line style="stroke:#181818;stroke-width:0.5;" x1="792" x2="879" y1="811" y2="811"/><text fill="#000000" font-family="sans-serif" font-size="14" lengthAdjust="spacing" textLength="20" x="797" y="830.1074">CC</text><text fill="#000000" font-family="sans-serif" font-size="14" lengthAdjust="spacing" textLength="12" x="797" y="848.7285">BI</text><text fill="#000000" font-family="sans-serif" font-size="14" lengthAdjust="spacing" textLength="56" x="797" y="867.3496">Passport</text><line style="stroke:#181818;stroke-width:0.5;" x1="792" x2="879" y1="874.8633" y2="874.8633"/></g><!--class Job--><g id="elem_Job"><rect codeLine="69" fill="#F1F1F1" height="66.6211" id="Job" rx="2.5" ry="2.5" style="stroke:#181818;stroke-width:0.5;" width="93" x="1065" y="539.5"/><ellipse cx="1097.55" cy="555.5" fill="#ADD1B2" rx="11" ry="11" style="stroke:#181818;stroke-width:1.0;"/><path d="M1100.3156,551.375 Q1100.4719,551.1563 1100.6594,551.0469 Q1100.8469,550.9375 1101.0656,550.9375 Q1101.4406,550.9375 1101.675,551.2031 Q1101.9094,551.4531 1101.9094,552.0625 L1101.9094,553.5156 Q1101.9094,554.125 1101.675,554.3906 Q1101.4406,554.6563 1101.0656,554.6563 Q1100.7219,554.6563 1100.5188,554.4531 Q1100.3156,554.2656 1100.2063,553.75 Q1100.1594,553.3906 1099.9719,553.2031 Q1099.6438,552.8281 1099.0344,552.6094 Q1098.425,552.3906 1097.8,552.3906 Q1097.0344,552.3906 1096.3938,552.7188 Q1095.7688,553.0469 1095.2688,553.7969 Q1094.7844,554.5469 1094.7844,555.5781 L1094.7844,556.6719 Q1094.7844,557.9063 1095.675,558.7344 Q1096.5656,559.5469 1098.1594,559.5469 Q1099.0969,559.5469 1099.7531,559.2969 Q1100.1438,559.1406 1100.5656,558.7031 Q1100.8313,558.4375 1100.9719,558.3594 Q1101.1281,558.2813 1101.3313,558.2813 Q1101.6594,558.2813 1101.9094,558.5469 Q1102.175,558.7969 1102.175,559.1406 Q1102.175,559.4844 1101.8313,559.8906 Q1101.3313,560.4688 1100.5344,560.7969 Q1099.4563,561.25 1098.1594,561.25 Q1096.6438,561.25 1095.4406,560.625 Q1094.4563,560.125 1093.7688,559.0625 Q1093.0813,557.9844 1093.0813,556.7031 L1093.0813,555.5469 Q1093.0813,554.2188 1093.6906,553.0781 Q1094.3156,551.9219 1095.4094,551.3125 Q1096.5031,550.6875 1097.7375,550.6875 Q1098.4719,550.6875 1099.1125,550.8594 Q1099.7688,551.0156 1100.3156,551.375 Z " fill="#000000"/><text fill="#000000" font-family="sans-serif" font-size="14" lengthAdjust="spacing" textLength="22" x="1115.45" y="561.2969">Job</text><line style="stroke:#181818;stroke-width:0.5;" x1="1066" x2="1157" y1="571.5" y2="571.5"/><text fill="#000000" font-family="sans-serif" font-size="14" lengthAdjust="spacing" textLength="81" x="1071" y="590.6074">-String name</text><line style="stroke:#181818;stroke-width:0.5;" x1="1066" x2="1157" y1="598.1211" y2="598.1211"/></g><!--reverse link Collaborator to DocType--><g id="link_Collaborator_DocType"><path codeLine="74" d="M835.5,734.09 C835.5,755.8 835.5,760.89 835.5,778.8 " fill="none" id="Collaborator-backto-DocType" style="stroke:#181818;stroke-width:1.0;"/><ellipse cx="835.5" cy="726.09" fill="#FFFFFF" rx="8" ry="8" style="stroke:#181818;stroke-width:1.0;"/><line style="stroke:#181818;stroke-width:1.0;" x1="835.5" x2="835.5" y1="734.09" y2="718.09"/><line style="stroke:#181818;stroke-width:1.0;" x1="827.5" x2="843.5" y1="726.09" y2="726.09"/></g><!--link Repositories to Repositories--><g id="link_Repositories_Repositories"><path codeLine="76" d="M856.52,72.84 C876.87,75.28 891.5,83 891.5,96 C891.5,109 882.8273,116.0057 862.4773,118.4457 " fill="none" id="Repositories-to-Repositories" style="stroke:#181818;stroke-width:1.0;"/><polygon fill="#181818" points="856.52,119.16,865.9322,122.0601,861.4844,118.5648,864.9798,114.117,856.52,119.16" style="stroke:#181818;stroke-width:1.0;"/><text fill="#000000" font-family="sans-serif" font-size="13" lengthAdjust="spacing" textLength="49" x="897.5" y="101.5283">instance</text></g><!--link RegisterCollaboratorUI to RegisterCollaboratorController--><g id="link_RegisterCollaboratorUI_RegisterCollaboratorController"><path codeLine="78" d="M182.01,96 C188.46,96 192.5,96 192.5,96 C192.5,96 196.93,96 210.98,96 " fill="none" id="RegisterCollaboratorUI-to-RegisterCollaboratorController" style="stroke:#181818;stroke-width:1.0;stroke-dasharray:7.0,7.0;"/><polygon fill="#181818" points="216.98,96,207.98,92,211.98,96,207.98,100,216.98,96" style="stroke:#181818;stroke-width:1.0;"/></g><!--link RegisterCollaboratorController to Repositories--><g id="link_RegisterCollaboratorController_Repositories"><path codeLine="80" d="M560.23,96 C594.61,96 623.6,96 654.42,96 " fill="none" id="RegisterCollaboratorController-to-Repositories" style="stroke:#181818;stroke-width:1.0;stroke-dasharray:7.0,7.0;"/><polygon fill="#181818" points="660.42,96,651.42,92,655.42,96,651.42,100,660.42,96" style="stroke:#181818;stroke-width:1.0;"/><text fill="#000000" font-family="sans-serif" font-size="13" lengthAdjust="spacing" textLength="64" x="578.25" y="89.0283">repostories</text></g><!--link RegisterCollaboratorController to JobRepository--><g id="link_RegisterCollaboratorController_JobRepository"><path codeLine="81" d="M544.88,185.12 C593.4,212.46 639.3827,238.3747 679.4927,260.9747 " fill="none" id="RegisterCollaboratorController-to-JobRepository" style="stroke:#181818;stroke-width:1.0;stroke-dasharray:7.0,7.0;"/><polygon fill="#181818" points="684.72,263.92,678.8426,256.0171,680.3639,261.4655,674.9154,262.9869,684.72,263.92" style="stroke:#181818;stroke-width:1.0;"/><text fill="#000000" font-family="sans-serif" font-size="13" lengthAdjust="spacing" textLength="79" x="628.5" y="230.0283">jobRepository</text></g><!--link RegisterCollaboratorController to CollaboratorRepository--><g id="link_RegisterCollaboratorController_CollaboratorRepository"><path codeLine="82" d="M388.5,185.23 C388.5,273.5 388.5,402.03 388.5,486.92 " fill="none" id="RegisterCollaboratorController-to-CollaboratorRepository" style="stroke:#181818;stroke-width:1.0;stroke-dasharray:7.0,7.0;"/><polygon fill="#181818" points="388.5,492.92,392.5,483.92,388.5,487.92,384.5,483.92,388.5,492.92" style="stroke:#181818;stroke-width:1.0;"/><text fill="#000000" font-family="sans-serif" font-size="13" lengthAdjust="spacing" textLength="129" x="389.5" y="312.0283">collaboratorRepository</text></g><!--link Repositories to JobRepository--><g id="link_Repositories_JobRepository"><path codeLine="84" d="M758.5,157.03 C758.5,191.19 758.5,227.14 758.5,257.72 " fill="none" id="Repositories-to-JobRepository" style="stroke:#181818;stroke-width:1.0;"/><polygon fill="#181818" points="758.5,263.72,762.5,254.72,758.5,258.72,754.5,254.72,758.5,263.72" style="stroke:#181818;stroke-width:1.0;"/><text fill="#000000" font-family="sans-serif" font-size="13" lengthAdjust="spacing" textLength="7" x="750.9422" y="252.5795">1</text></g><!--link Repositories to CollaboratorRepository--><g id="link_Repositories_CollaboratorRepository"><path codeLine="85" d="M711.64,157.16 C645.23,242.41 527.3371,393.7566 453.7271,488.2566 " fill="none" id="Repositories-to-CollaboratorRepository" style="stroke:#181818;stroke-width:1.0;"/><polygon fill="#181818" points="450.04,492.99,458.7262,488.3479,453.1126,489.0455,452.415,483.4318,450.04,492.99" style="stroke:#181818;stroke-width:1.0;"/><text fill="#000000" font-family="sans-serif" font-size="13" lengthAdjust="spacing" textLength="7" x="448.5719" y="481.6091">1</text></g><!--link JobRepository to Job--><g id="link_JobRepository_Job"><path codeLine="87" d="M848.18,348.13 C925.41,383.11 1024.5,428 1024.5,428 C1024.5,428 1062.9869,491.7048 1088.6569,534.1848 " fill="none" id="JobRepository-to-Job" style="stroke:#181818;stroke-width:1.0;"/><polygon fill="#181818" points="1091.76,539.32,1090.5288,529.5484,1089.1741,535.0406,1083.6818,533.6859,1091.76,539.32" style="stroke:#181818;stroke-width:1.0;"/><text fill="#000000" font-family="sans-serif" font-size="13" lengthAdjust="spacing" textLength="17" x="953.5" y="394.0283">job</text><text fill="#000000" font-family="sans-serif" font-size="13" lengthAdjust="spacing" textLength="7" x="855.9922" y="370.7786">1</text><text fill="#000000" font-family="sans-serif" font-size="13" lengthAdjust="spacing" textLength="5" x="1082.3815" y="528.1101">*</text></g><!--link CollaboratorRepository to Collaborator--><g id="link_CollaboratorRepository_Collaborator"><path codeLine="88" d="M560.04,573 C594.02,573 623.69,573 657.68,573 " fill="none" id="CollaboratorRepository-to-Collaborator" style="stroke:#181818;stroke-width:1.0;"/><polygon fill="#181818" points="663.68,573,654.68,569,658.68,573,654.68,577,663.68,573" style="stroke:#181818;stroke-width:1.0;"/><text fill="#000000" font-family="sans-serif" font-size="13" lengthAdjust="spacing" textLength="67" x="578.5" y="566.0283">collaborator</text><text fill="#000000" font-family="sans-serif" font-size="13" lengthAdjust="spacing" textLength="7" x="567.9715" y="569.656">1</text><text fill="#000000" font-family="sans-serif" font-size="13" lengthAdjust="spacing" textLength="5" x="650.7811" y="569.6481">*</text></g><!--link Collaborator to Job--><g id="link_Collaborator_Job"><path codeLine="90" d="M1007.16,573 C1028.2,573 1042.14,573 1058.84,573 " fill="none" id="Collaborator-to-Job" style="stroke:#181818;stroke-width:1.0;"/><polygon fill="#181818" points="1064.84,573,1055.84,569,1059.84,573,1055.84,577,1064.84,573" style="stroke:#181818;stroke-width:1.0;"/><text fill="#000000" font-family="sans-serif" font-size="13" lengthAdjust="spacing" textLength="21" x="1025.5" y="566.0283">has</text><text fill="#000000" font-family="sans-serif" font-size="13" lengthAdjust="spacing" textLength="5" x="1015.0516" y="569.6481">*</text><text fill="#000000" font-family="sans-serif" font-size="13" lengthAdjust="spacing" textLength="7" x="1049.8458" y="568.727">1</text></g><!--SRC=[pLMnSjim3Dtv5RXqiDFOlNRjaBl6MTmXrwlRhGijmH8JYL19ketQorVr4_fZ1MLQ9dMotMpnuYFm00BlWT34FYZTI2Dhg4bJLXgg4PpPeZXu6fazo09NhgqG36PEwgAA0RQKEVrKke2Dh6pigPH6rpO83LMjFuZ9Y9EC8n55PPMqzeDpHgst3fSPwPNwXV1MY4c56mUEmAYYT90hNuuYBKGN0v-nKDQXML1LoJKPwSXyNOhVGZoTWYn8EyDdD0m5_bsTWKql0wn0zv7MjZ-RaR2fbZNEOAsCAtFfSFPDoxnMrdBXj_uCCiyDMZk3fYIDTzjwZOPHM4jLpS39nqQsQ88TL8xQgOtAf6_zbh9jpOOlp2J7Z3lteVUqlkDYTjNEG_KthRTDUz-JcBnwtazCc9gDChKqGD1yXvo0LRCyIDm_C1z0bhbfo2htzuzHVD84-8XrKz7ph-kbx1AIKMY3SFF46Ckqv7Aapd1w2U_Jo5Z9tj76iR6Q2QAVgYIq7wBXT1pZEoGPlwRFzl9dQpzNV6TIP1OTzfWVibA-uXF0KM9weLUy7tZbU0A2nJTye28s9foayO6VO5ngXmMFQqHM2kzu6u1J4lVtKkPfEy7e8CifTiC4l6JbMIpKsthVTv1fiUZ-RfRTtoSMi-5jdxoRKK4P43SBL_EUKI7Yrmlpw-Gry-DMuQLxuDZd0DvSd_iAYDF-NORaqcwvXOLoBfYZatt1uVV9_lYF1EExWZDbuqjaG1gpTl7kOh2s1f20ERALHDg2H_g0rrtINKVYI94HDX4vBNum0Hvzg9gnfRH2_0C0]--></g></svg>