<?xml version="1.0" encoding="us-ascii" standalone="no"?><svg xmlns="http://www.w3.org/2000/svg" xmlns:xlink="http://www.w3.org/1999/xlink" contentStyleType="text/css" height="1435.2px" preserveAspectRatio="none" style="width:1259px;height:1435px;background:#FFFFFF;" version="1.1" viewBox="0 0 1259 1435" width="1259.2px" zoomAndPan="magnify"><defs/><g><rect fill="#FFFFFF" height="1279.9344" style="stroke:#181818;stroke-width:0.8000000000000002;" width="8" x="72.8" y="74.8969"/><rect fill="#FFFFFF" height="260.1922" style="stroke:#181818;stroke-width:0.8000000000000002;" width="8" x="350.4" y="93.5297"/><rect fill="#FFFFFF" height="25.0328" style="stroke:#181818;stroke-width:0.8000000000000002;" width="8" x="350.4" y="378.7547"/><rect fill="#FFFFFF" height="25.0328" style="stroke:#181818;stroke-width:0.8000000000000002;" width="8" x="350.4" y="470.3188"/><rect fill="#FFFFFF" height="834.4469" style="stroke:#181818;stroke-width:0.8000000000000002;" width="8" x="350.4" y="520.3844"/><rect fill="#FFFFFF" height="175.2297" style="stroke:#181818;stroke-width:0.8000000000000002;" width="8" x="532" y="153.4594"/><rect fill="#FFFFFF" height="701.3844" style="stroke:#181818;stroke-width:0.8000000000000002;" width="8" x="532" y="628.4141"/><rect fill="#FFFFFF" height="184.0297" style="stroke:#181818;stroke-width:0.8000000000000002;" width="8" x="536" y="659.8469"/><rect fill="#FFFFFF" height="25.0328" style="stroke:#181818;stroke-width:0.8000000000000002;" width="8" x="683.2" y="178.4922"/><rect fill="#FFFFFF" height="25.0328" style="stroke:#181818;stroke-width:0.8000000000000002;" width="8" x="683.2" y="688.8797"/><rect fill="#FFFFFF" height="25.0328" style="stroke:#181818;stroke-width:0.8000000000000002;" width="8" x="683.2" y="874.5094"/><rect fill="#FFFFFF" height="25.0328" style="stroke:#181818;stroke-width:0.8000000000000002;" width="8" x="768.8" y="228.5578"/><rect fill="#FFFFFF" height="25.0328" style="stroke:#181818;stroke-width:0.8000000000000002;" width="8" x="768.8" y="738.9453"/><rect fill="#FFFFFF" height="25.0328" style="stroke:#181818;stroke-width:0.8000000000000002;" width="8" x="768.8" y="924.575"/><rect fill="#FFFFFF" height="25.0328" style="stroke:#181818;stroke-width:0.8000000000000002;" width="8" x="857.6" y="278.6234"/><rect fill="#FFFFFF" height="25.0328" style="stroke:#181818;stroke-width:0.8000000000000002;" width="8" x="857.6" y="789.0109"/><rect fill="#FFFFFF" height="260.9609" style="stroke:#181818;stroke-width:0.8000000000000002;" width="8" x="972" y="1043.8047"/><rect fill="#FFFFFF" height="104.6984" style="stroke:#181818;stroke-width:0.8000000000000002;" width="8" x="976" y="1169.4344"/><rect fill="#FFFFFF" height="33.8328" style="stroke:#181818;stroke-width:0.8000000000000002;" width="8" x="980" y="1204.8672"/><line style="stroke:#181818;stroke-width:0.4000000000000001;stroke-dasharray:5.0,5.0;" x1="76.8" x2="76.8" y1="66.8969" y2="1369.2313"/><line style="stroke:#181818;stroke-width:0.4000000000000001;stroke-dasharray:5.0,5.0;" x1="354" x2="354" y1="66.8969" y2="1369.2313"/><line style="stroke:#181818;stroke-width:0.4000000000000001;stroke-dasharray:5.0,5.0;" x1="535.6" x2="535.6" y1="125.3781" y2="1369.2313"/><line style="stroke:#181818;stroke-width:0.4000000000000001;stroke-dasharray:5.0,5.0;" x1="686.8" x2="686.8" y1="66.8969" y2="1369.2313"/><line style="stroke:#181818;stroke-width:0.4000000000000001;stroke-dasharray:5.0,5.0;" x1="772.4" x2="772.4" y1="66.8969" y2="1369.2313"/><line style="stroke:#181818;stroke-width:0.4000000000000001;stroke-dasharray:5.0,5.0;" x1="861.2" x2="861.2" y1="66.8969" y2="1369.2313"/><line style="stroke:#181818;stroke-width:0.4000000000000001;stroke-dasharray:5.0,5.0;" x1="975.6" x2="975.6" y1="66.8969" y2="1369.2313"/><line style="stroke:#181818;stroke-width:0.4000000000000001;stroke-dasharray:5.0,5.0;" x1="1216" x2="1216" y1="1105.3031" y2="1369.2313"/><text fill="#000000" font-family="sans-serif" font-size="11.2" lengthAdjust="spacing" textLength="140.8" x="4" y="64.0859">Human Resources Manager</text><ellipse cx="76.8" cy="10.8" fill="#E3E3E3" rx="6.4" ry="6.4" style="stroke:#181818;stroke-width:0.4000000000000001;"/><path d="M76.8,17.2 L76.8,38.8 M66.4,23.6 L87.2,23.6 M76.8,38.8 L66.4,50.8 M76.8,38.8 L87.2,50.8 " fill="none" style="stroke:#181818;stroke-width:0.4000000000000001;"/><text fill="#000000" font-family="sans-serif" font-size="11.2" lengthAdjust="spacing" textLength="140.8" x="4" y="1380.5172">Human Resources Manager</text><ellipse cx="76.8" cy="1390.1281" fill="#E3E3E3" rx="6.4" ry="6.4" style="stroke:#181818;stroke-width:0.4000000000000001;"/><path d="M76.8,1396.5281 L76.8,1418.1281 M66.4,1402.9281 L87.2,1402.9281 M76.8,1418.1281 L66.4,1430.1281 M76.8,1418.1281 L87.2,1430.1281 " fill="none" style="stroke:#181818;stroke-width:0.4000000000000001;"/><rect fill="#E3E3E3" height="26.0969" rx="2" ry="2" style="stroke:#181818;stroke-width:0.4000000000000001;" width="128.8" x="290" y="40"/><text fill="#000000" font-family="sans-serif" font-size="11.2" lengthAdjust="spacing" textLength="117.6" x="295.6" y="57.6859">:RegisterCollaboratorUI</text><rect fill="#E3E3E3" height="26.0969" rx="2" ry="2" style="stroke:#181818;stroke-width:0.4000000000000001;" width="128.8" x="290" y="1368.4313"/><text fill="#000000" font-family="sans-serif" font-size="11.2" lengthAdjust="spacing" textLength="117.6" x="295.6" y="1386.1172">:RegisterCollaboratorUI</text><rect fill="#E3E3E3" height="26.0969" rx="2" ry="2" style="stroke:#181818;stroke-width:0.4000000000000001;" width="168.8" x="451.6" y="1368.4313"/><text fill="#000000" font-family="sans-serif" font-size="11.2" lengthAdjust="spacing" textLength="157.6" x="457.2" y="1386.1172">:RegisterCollaboratorController</text><rect fill="#E3E3E3" height="26.0969" rx="2" ry="2" style="stroke:#181818;stroke-width:0.4000000000000001;" width="77.6" x="648.4" y="40"/><text fill="#000000" font-family="sans-serif" font-size="11.2" lengthAdjust="spacing" textLength="66.4" x="654" y="57.6859">:Repositories</text><rect fill="#E3E3E3" height="26.0969" rx="2" ry="2" style="stroke:#181818;stroke-width:0.4000000000000001;" width="77.6" x="648.4" y="1368.4313"/><text fill="#000000" font-family="sans-serif" font-size="11.2" lengthAdjust="spacing" textLength="66.4" x="654" y="1386.1172">:Repositories</text><rect fill="#E3E3E3" height="40.9938" rx="2" ry="2" style="stroke:#181818;stroke-width:0.4000000000000001;" width="77.6" x="734" y="25.1031"/><text fill="#000000" font-family="sans-serif" font-size="11.2" lengthAdjust="spacing" textLength="59.2" x="743.2" y="42.7891">repositories</text><text fill="#000000" font-family="sans-serif" font-size="11.2" lengthAdjust="spacing" textLength="66.4" x="739.6" y="57.6859">:Repositories</text><rect fill="#E3E3E3" height="40.9938" rx="2" ry="2" style="stroke:#181818;stroke-width:0.4000000000000001;" width="77.6" x="734" y="1368.4313"/><text fill="#000000" font-family="sans-serif" font-size="11.2" lengthAdjust="spacing" textLength="59.2" x="743.2" y="1386.1172">repositories</text><text fill="#000000" font-family="sans-serif" font-size="11.2" lengthAdjust="spacing" textLength="66.4" x="739.6" y="1401.0141">:Repositories</text><rect fill="#E3E3E3" height="40.9938" rx="2" ry="2" style="stroke:#181818;stroke-width:0.4000000000000001;" width="84" x="819.6" y="25.1031"/><text fill="#000000" font-family="sans-serif" font-size="11.2" lengthAdjust="spacing" textLength="72.8" x="825.2" y="42.7891">jobRepository:</text><text fill="#000000" font-family="sans-serif" font-size="11.2" lengthAdjust="spacing" textLength="72" x="825.6" y="57.6859">JobRepository</text><rect fill="#E3E3E3" height="40.9938" rx="2" ry="2" style="stroke:#181818;stroke-width:0.4000000000000001;" width="84" x="819.6" y="1368.4313"/><text fill="#000000" font-family="sans-serif" font-size="11.2" lengthAdjust="spacing" textLength="72.8" x="825.2" y="1386.1172">jobRepository:</text><text fill="#000000" font-family="sans-serif" font-size="11.2" lengthAdjust="spacing" textLength="72" x="825.6" y="1401.0141">JobRepository</text><rect fill="#E3E3E3" height="40.9938" rx="2" ry="2" style="stroke:#181818;stroke-width:0.4000000000000001;" width="128.8" x="911.6" y="25.1031"/><text fill="#000000" font-family="sans-serif" font-size="11.2" lengthAdjust="spacing" textLength="117.6" x="917.2" y="42.7891">collaboratorRepository:</text><text fill="#000000" font-family="sans-serif" font-size="11.2" lengthAdjust="spacing" textLength="116.8" x="917.6" y="57.6859">CollaboratorRepository</text><rect fill="#E3E3E3" height="40.9938" rx="2" ry="2" style="stroke:#181818;stroke-width:0.4000000000000001;" width="128.8" x="911.6" y="1368.4313"/><text fill="#000000" font-family="sans-serif" font-size="11.2" lengthAdjust="spacing" textLength="117.6" x="917.2" y="1386.1172">collaboratorRepository:</text><text fill="#000000" font-family="sans-serif" font-size="11.2" lengthAdjust="spacing" textLength="116.8" x="917.6" y="1401.0141">CollaboratorRepository</text><rect fill="#E3E3E3" height="40.9938" rx="2" ry="2" style="stroke:#181818;stroke-width:0.4000000000000001;" width="76.8" x="1177.6" y="1368.4313"/><text fill="#000000" font-family="sans-serif" font-size="11.2" lengthAdjust="spacing" textLength="60" x="1186" y="1386.1172">collaborator</text><text fill="#000000" font-family="sans-serif" font-size="11.2" lengthAdjust="spacing" textLength="65.6" x="1183.2" y="1401.0141">:Collaborator</text><rect fill="#FFFFFF" height="1279.9344" style="stroke:#181818;stroke-width:0.8000000000000002;" width="8" x="72.8" y="74.8969"/><rect fill="#FFFFFF" height="260.1922" style="stroke:#181818;stroke-width:0.8000000000000002;" width="8" x="350.4" y="93.5297"/><rect fill="#FFFFFF" height="25.0328" style="stroke:#181818;stroke-width:0.8000000000000002;" width="8" x="350.4" y="378.7547"/><rect fill="#FFFFFF" height="25.0328" style="stroke:#181818;stroke-width:0.8000000000000002;" width="8" x="350.4" y="470.3188"/><rect fill="#FFFFFF" height="834.4469" style="stroke:#181818;stroke-width:0.8000000000000002;" width="8" x="350.4" y="520.3844"/><rect fill="#FFFFFF" height="175.2297" style="stroke:#181818;stroke-width:0.8000000000000002;" width="8" x="532" y="153.4594"/><rect fill="#FFFFFF" height="701.3844" style="stroke:#181818;stroke-width:0.8000000000000002;" width="8" x="532" y="628.4141"/><rect fill="#FFFFFF" height="184.0297" style="stroke:#181818;stroke-width:0.8000000000000002;" width="8" x="536" y="659.8469"/><rect fill="#FFFFFF" height="25.0328" style="stroke:#181818;stroke-width:0.8000000000000002;" width="8" x="683.2" y="178.4922"/><rect fill="#FFFFFF" height="25.0328" style="stroke:#181818;stroke-width:0.8000000000000002;" width="8" x="683.2" y="688.8797"/><rect fill="#FFFFFF" height="25.0328" style="stroke:#181818;stroke-width:0.8000000000000002;" width="8" x="683.2" y="874.5094"/><rect fill="#FFFFFF" height="25.0328" style="stroke:#181818;stroke-width:0.8000000000000002;" width="8" x="768.8" y="228.5578"/><rect fill="#FFFFFF" height="25.0328" style="stroke:#181818;stroke-width:0.8000000000000002;" width="8" x="768.8" y="738.9453"/><rect fill="#FFFFFF" height="25.0328" style="stroke:#181818;stroke-width:0.8000000000000002;" width="8" x="768.8" y="924.575"/><rect fill="#FFFFFF" height="25.0328" style="stroke:#181818;stroke-width:0.8000000000000002;" width="8" x="857.6" y="278.6234"/><rect fill="#FFFFFF" height="25.0328" style="stroke:#181818;stroke-width:0.8000000000000002;" width="8" x="857.6" y="789.0109"/><rect fill="#FFFFFF" height="260.9609" style="stroke:#181818;stroke-width:0.8000000000000002;" width="8" x="972" y="1043.8047"/><rect fill="#FFFFFF" height="104.6984" style="stroke:#181818;stroke-width:0.8000000000000002;" width="8" x="976" y="1169.4344"/><rect fill="#FFFFFF" height="33.8328" style="stroke:#181818;stroke-width:0.8000000000000002;" width="8" x="980" y="1204.8672"/><polygon fill="#181818" points="340.8,90.3297,348.8,93.5297,340.8,96.7297,344,93.5297" style="stroke:#181818;stroke-width:0.8000000000000002;"/><line style="stroke:#181818;stroke-width:0.8000000000000002;" x1="80.8" x2="345.6" y1="93.5297" y2="93.5297"/><text fill="#000000" font-family="sans-serif" font-size="10.4" font-weight="bold" lengthAdjust="spacing" textLength="5.6" x="86.4" y="89.3195">1</text><text fill="#000000" font-family="sans-serif" font-size="10.4" lengthAdjust="spacing" textLength="159.2" x="95.2" y="89.3195">asks to register a new collaborator</text><polygon fill="#181818" points="442,115.3625,450,118.5625,442,121.7625,445.2,118.5625" style="stroke:#181818;stroke-width:0.8000000000000002;"/><line style="stroke:#181818;stroke-width:0.8000000000000002;" x1="358.4" x2="446.8" y1="118.5625" y2="118.5625"/><text fill="#000000" font-family="sans-serif" font-size="10.4" font-weight="bold" lengthAdjust="spacing" textLength="5.6" x="364" y="114.3523">2</text><text fill="#000000" font-family="sans-serif" font-size="10.4" lengthAdjust="spacing" textLength="28.8" x="372.8" y="114.3523">create</text><rect fill="#E3E3E3" height="26.0969" rx="2" ry="2" style="stroke:#181818;stroke-width:0.4000000000000001;" width="168.8" x="451.6" y="99.9297"/><text fill="#000000" font-family="sans-serif" font-size="11.2" lengthAdjust="spacing" textLength="157.6" x="457.2" y="117.6156">:RegisterCollaboratorController</text><polygon fill="#181818" points="522.4,150.2594,530.4,153.4594,522.4,156.6594,525.6,153.4594" style="stroke:#181818;stroke-width:0.8000000000000002;"/><line style="stroke:#181818;stroke-width:0.8000000000000002;" x1="358.4" x2="527.2" y1="153.4594" y2="153.4594"/><text fill="#000000" font-family="sans-serif" font-size="10.4" font-weight="bold" lengthAdjust="spacing" textLength="5.6" x="364" y="149.2492">3</text><text fill="#000000" font-family="sans-serif" font-size="10.4" lengthAdjust="spacing" textLength="42.4" x="372.8" y="149.2492">getJobs()</text><polygon fill="#181818" points="673.6,175.2922,681.6,178.4922,673.6,181.6922,676.8,178.4922" style="stroke:#181818;stroke-width:0.8000000000000002;"/><line style="stroke:#181818;stroke-width:0.8000000000000002;" x1="540" x2="678.4" y1="178.4922" y2="178.4922"/><text fill="#000000" font-family="sans-serif" font-size="10.4" font-weight="bold" lengthAdjust="spacing" textLength="5.6" x="545.6" y="174.282">4</text><text fill="#000000" font-family="sans-serif" font-size="10.4" lengthAdjust="spacing" textLength="60" x="554.4" y="174.282">getInstance()</text><polygon fill="#181818" points="548.8,200.325,540.8,203.525,548.8,206.725,545.6,203.525" style="stroke:#181818;stroke-width:0.8000000000000002;"/><line style="stroke:#181818;stroke-width:0.8000000000000002;stroke-dasharray:2.0,2.0;" x1="544" x2="686.4" y1="203.525" y2="203.525"/><text fill="#000000" font-family="sans-serif" font-size="10.4" font-weight="bold" lengthAdjust="spacing" textLength="5.6" x="553.6" y="199.3148">5</text><text fill="#000000" font-family="sans-serif" font-size="10.4" lengthAdjust="spacing" textLength="53.6" x="562.4" y="199.3148">repositories</text><polygon fill="#181818" points="759.2,225.3578,767.2,228.5578,759.2,231.7578,762.4,228.5578" style="stroke:#181818;stroke-width:0.8000000000000002;"/><line style="stroke:#181818;stroke-width:0.8000000000000002;" x1="540" x2="764" y1="228.5578" y2="228.5578"/><text fill="#000000" font-family="sans-serif" font-size="10.4" font-weight="bold" lengthAdjust="spacing" textLength="5.6" x="545.6" y="224.3477">6</text><text fill="#000000" font-family="sans-serif" font-size="10.4" lengthAdjust="spacing" textLength="86.4" x="554.4" y="224.3477">getJobRepository()</text><polygon fill="#181818" points="548.8,250.3906,540.8,253.5906,548.8,256.7906,545.6,253.5906" style="stroke:#181818;stroke-width:0.8000000000000002;"/><line style="stroke:#181818;stroke-width:0.8000000000000002;stroke-dasharray:2.0,2.0;" x1="544" x2="772" y1="253.5906" y2="253.5906"/><text fill="#000000" font-family="sans-serif" font-size="10.4" font-weight="bold" lengthAdjust="spacing" textLength="5.6" x="553.6" y="249.3805">7</text><text fill="#000000" font-family="sans-serif" font-size="10.4" lengthAdjust="spacing" textLength="63.2" x="562.4" y="249.3805">jobRepository</text><polygon fill="#181818" points="848,275.4234,856,278.6234,848,281.8234,851.2,278.6234" style="stroke:#181818;stroke-width:0.8000000000000002;"/><line style="stroke:#181818;stroke-width:0.8000000000000002;" x1="540" x2="852.8" y1="278.6234" y2="278.6234"/><text fill="#000000" font-family="sans-serif" font-size="10.4" font-weight="bold" lengthAdjust="spacing" textLength="5.6" x="545.6" y="274.4133">8</text><text fill="#000000" font-family="sans-serif" font-size="10.4" lengthAdjust="spacing" textLength="42.4" x="554.4" y="274.4133">getJobs()</text><polygon fill="#181818" points="548.8,300.4563,540.8,303.6563,548.8,306.8563,545.6,303.6563" style="stroke:#181818;stroke-width:0.8000000000000002;"/><line style="stroke:#181818;stroke-width:0.8000000000000002;stroke-dasharray:2.0,2.0;" x1="544" x2="860.8" y1="303.6563" y2="303.6563"/><text fill="#000000" font-family="sans-serif" font-size="10.4" font-weight="bold" lengthAdjust="spacing" textLength="5.6" x="553.6" y="299.4461">9</text><text fill="#000000" font-family="sans-serif" font-size="10.4" lengthAdjust="spacing" textLength="30.4" x="562.4" y="299.4461">jobList</text><polygon fill="#181818" points="367.2,325.4891,359.2,328.6891,367.2,331.8891,364,328.6891" style="stroke:#181818;stroke-width:0.8000000000000002;"/><line style="stroke:#181818;stroke-width:0.8000000000000002;stroke-dasharray:2.0,2.0;" x1="362.4" x2="535.2" y1="328.6891" y2="328.6891"/><text fill="#000000" font-family="sans-serif" font-size="10.4" font-weight="bold" lengthAdjust="spacing" textLength="11.2" x="372" y="324.4789">10</text><text fill="#000000" font-family="sans-serif" font-size="10.4" lengthAdjust="spacing" textLength="30.4" x="386.4" y="324.4789">jobList</text><polygon fill="#181818" points="89.6,350.5219,81.6,353.7219,89.6,356.9219,86.4,353.7219" style="stroke:#181818;stroke-width:0.8000000000000002;"/><line style="stroke:#181818;stroke-width:0.8000000000000002;stroke-dasharray:2.0,2.0;" x1="84.8" x2="353.6" y1="353.7219" y2="353.7219"/><text fill="#000000" font-family="sans-serif" font-size="10.4" font-weight="bold" lengthAdjust="spacing" textLength="11.2" x="94.4" y="349.5117">11</text><text fill="#000000" font-family="sans-serif" font-size="10.4" lengthAdjust="spacing" textLength="172" x="108.8" y="349.5117">shows job list and asks to select one</text><polygon fill="#181818" points="340.8,375.5547,348.8,378.7547,340.8,381.9547,344,378.7547" style="stroke:#181818;stroke-width:0.8000000000000002;"/><line style="stroke:#181818;stroke-width:0.8000000000000002;" x1="80.8" x2="345.6" y1="378.7547" y2="378.7547"/><text fill="#000000" font-family="sans-serif" font-size="10.4" font-weight="bold" lengthAdjust="spacing" textLength="11.2" x="86.4" y="374.5445">12</text><text fill="#000000" font-family="sans-serif" font-size="10.4" lengthAdjust="spacing" textLength="59.2" x="100.8" y="374.5445">selects a job</text><polygon fill="#181818" points="89.6,400.5875,81.6,403.7875,89.6,406.9875,86.4,403.7875" style="stroke:#181818;stroke-width:0.8000000000000002;"/><line style="stroke:#181818;stroke-width:0.8000000000000002;stroke-dasharray:2.0,2.0;" x1="84.8" x2="353.6" y1="403.7875" y2="403.7875"/><text fill="#000000" font-family="sans-serif" font-size="10.4" font-weight="bold" lengthAdjust="spacing" textLength="11.2" x="94.4" y="399.5773">13</text><text fill="#000000" font-family="sans-serif" font-size="10.4" lengthAdjust="spacing" textLength="63.2" x="108.8" y="399.5773">requests data</text><polygon fill="#181818" points="340.8,467.1188,348.8,470.3188,340.8,473.5188,344,470.3188" style="stroke:#181818;stroke-width:0.8000000000000002;"/><line style="stroke:#181818;stroke-width:0.8000000000000002;" x1="80.8" x2="345.6" y1="470.3188" y2="470.3188"/><text fill="#000000" font-family="sans-serif" font-size="10.4" font-weight="bold" lengthAdjust="spacing" textLength="11.2" x="86.4" y="445.3594">14</text><text fill="#000000" font-family="sans-serif" font-size="10.4" lengthAdjust="spacing" textLength="179.2" x="100.8" y="424.6102">types requested data (name, birthdate,</text><text fill="#000000" font-family="sans-serif" font-size="10.4" lengthAdjust="spacing" textLength="148" x="100.8" y="438.443">admission date, address, phone</text><text fill="#000000" font-family="sans-serif" font-size="10.4" lengthAdjust="spacing" textLength="152.8" x="100.8" y="452.2758">number, email, taxpayer number,</text><text fill="#000000" font-family="sans-serif" font-size="10.4" lengthAdjust="spacing" textLength="240" x="100.8" y="466.1086">identification document type and respective number)</text><polygon fill="#181818" points="89.6,492.1516,81.6,495.3516,89.6,498.5516,86.4,495.3516" style="stroke:#181818;stroke-width:0.8000000000000002;"/><line style="stroke:#181818;stroke-width:0.8000000000000002;stroke-dasharray:2.0,2.0;" x1="84.8" x2="353.6" y1="495.3516" y2="495.3516"/><text fill="#000000" font-family="sans-serif" font-size="10.4" font-weight="bold" lengthAdjust="spacing" textLength="11.2" x="94.4" y="491.1414">15</text><text fill="#000000" font-family="sans-serif" font-size="10.4" lengthAdjust="spacing" textLength="180.8" x="108.8" y="491.1414">shows selected job and requested data</text><polygon fill="#181818" points="340.8,517.1844,348.8,520.3844,340.8,523.5844,344,520.3844" style="stroke:#181818;stroke-width:0.8000000000000002;"/><line style="stroke:#181818;stroke-width:0.8000000000000002;" x1="80.8" x2="345.6" y1="520.3844" y2="520.3844"/><text fill="#000000" font-family="sans-serif" font-size="10.4" font-weight="bold" lengthAdjust="spacing" textLength="11.2" x="86.4" y="516.1742">16</text><text fill="#000000" font-family="sans-serif" font-size="10.4" lengthAdjust="spacing" textLength="60" x="100.8" y="516.1742">submits data</text><polygon fill="#181818" points="522.4,625.2141,530.4,628.4141,522.4,631.6141,525.6,628.4141" style="stroke:#181818;stroke-width:0.8000000000000002;"/><line style="stroke:#181818;stroke-width:0.8000000000000002;" x1="358.4" x2="527.2" y1="628.4141" y2="628.4141"/><text fill="#000000" font-family="sans-serif" font-size="10.4" font-weight="bold" lengthAdjust="spacing" textLength="11.2" x="364" y="582.7055">17</text><text fill="#000000" font-family="sans-serif" font-size="10.4" lengthAdjust="spacing" textLength="121.6" x="378.4" y="541.207">registerCollaborator(name,</text><text fill="#000000" font-family="sans-serif" font-size="10.4" lengthAdjust="spacing" textLength="118.4" x="378.4" y="555.0398">birthdate, admissionDate,</text><text fill="#000000" font-family="sans-serif" font-size="10.4" lengthAdjust="spacing" textLength="110.4" x="378.4" y="568.8727">address, phoneNumber,</text><text fill="#000000" font-family="sans-serif" font-size="10.4" lengthAdjust="spacing" textLength="110.4" x="378.4" y="582.7055">email, taxpayerNumber,</text><text fill="#000000" font-family="sans-serif" font-size="10.4" lengthAdjust="spacing" textLength="130.4" x="378.4" y="596.5383">identificationDocumentType,</text><text fill="#000000" font-family="sans-serif" font-size="10.4" lengthAdjust="spacing" textLength="144" x="378.4" y="610.3711">identificationDocumentNumber,</text><text fill="#000000" font-family="sans-serif" font-size="10.4" lengthAdjust="spacing" textLength="44" x="378.4" y="624.2039">jobName)</text><line style="stroke:#181818;stroke-width:0.8000000000000002;" x1="540" x2="577.6" y1="649.4469" y2="649.4469"/><line style="stroke:#181818;stroke-width:0.8000000000000002;" x1="577.6" x2="577.6" y1="649.4469" y2="659.8469"/><line style="stroke:#181818;stroke-width:0.8000000000000002;" x1="544.8" x2="577.6" y1="659.8469" y2="659.8469"/><polygon fill="#181818" points="552.8,656.6469,544.8,659.8469,552.8,663.0469,549.6,659.8469" style="stroke:#181818;stroke-width:0.8000000000000002;"/><text fill="#000000" font-family="sans-serif" font-size="10.4" font-weight="bold" lengthAdjust="spacing" textLength="11.2" x="549.6" y="645.2367">18</text><text fill="#000000" font-family="sans-serif" font-size="10.4" lengthAdjust="spacing" textLength="117.6" x="564" y="645.2367">getJobByName(jobName)</text><polygon fill="#181818" points="673.6,685.6797,681.6,688.8797,673.6,692.0797,676.8,688.8797" style="stroke:#181818;stroke-width:0.8000000000000002;"/><line style="stroke:#181818;stroke-width:0.8000000000000002;" x1="544" x2="678.4" y1="688.8797" y2="688.8797"/><text fill="#000000" font-family="sans-serif" font-size="10.4" font-weight="bold" lengthAdjust="spacing" textLength="11.2" x="549.6" y="684.6695">19</text><text fill="#000000" font-family="sans-serif" font-size="10.4" lengthAdjust="spacing" textLength="60" x="564" y="684.6695">getInstance()</text><polygon fill="#181818" points="552.8,710.7125,544.8,713.9125,552.8,717.1125,549.6,713.9125" style="stroke:#181818;stroke-width:0.8000000000000002;"/><line style="stroke:#181818;stroke-width:0.8000000000000002;stroke-dasharray:2.0,2.0;" x1="548" x2="686.4" y1="713.9125" y2="713.9125"/><text fill="#000000" font-family="sans-serif" font-size="10.4" font-weight="bold" lengthAdjust="spacing" textLength="11.2" x="557.6" y="709.7023">20</text><text fill="#000000" font-family="sans-serif" font-size="10.4" lengthAdjust="spacing" textLength="53.6" x="572" y="709.7023">repositories</text><polygon fill="#181818" points="759.2,735.7453,767.2,738.9453,759.2,742.1453,762.4,738.9453" style="stroke:#181818;stroke-width:0.8000000000000002;"/><line style="stroke:#181818;stroke-width:0.8000000000000002;" x1="544" x2="764" y1="738.9453" y2="738.9453"/><text fill="#000000" font-family="sans-serif" font-size="10.4" font-weight="bold" lengthAdjust="spacing" textLength="11.2" x="549.6" y="734.7352">21</text><text fill="#000000" font-family="sans-serif" font-size="10.4" lengthAdjust="spacing" textLength="86.4" x="564" y="734.7352">getJobRepository()</text><polygon fill="#181818" points="552.8,760.7781,544.8,763.9781,552.8,767.1781,549.6,763.9781" style="stroke:#181818;stroke-width:0.8000000000000002;"/><line style="stroke:#181818;stroke-width:0.8000000000000002;" x1="548" x2="772" y1="763.9781" y2="763.9781"/><text fill="#000000" font-family="sans-serif" font-size="10.4" font-weight="bold" lengthAdjust="spacing" textLength="11.2" x="557.6" y="759.768">22</text><text fill="#000000" font-family="sans-serif" font-size="10.4" lengthAdjust="spacing" textLength="63.2" x="572" y="759.768">jobRepository</text><polygon fill="#181818" points="848,785.8109,856,789.0109,848,792.2109,851.2,789.0109" style="stroke:#181818;stroke-width:0.8000000000000002;"/><line style="stroke:#181818;stroke-width:0.8000000000000002;" x1="544" x2="852.8" y1="789.0109" y2="789.0109"/><text fill="#000000" font-family="sans-serif" font-size="10.4" font-weight="bold" lengthAdjust="spacing" textLength="11.2" x="549.6" y="784.8008">23</text><text fill="#000000" font-family="sans-serif" font-size="10.4" lengthAdjust="spacing" textLength="117.6" x="564" y="784.8008">getJobByName(jobName)</text><polygon fill="#181818" points="552.8,810.8438,544.8,814.0438,552.8,817.2438,549.6,814.0438" style="stroke:#181818;stroke-width:0.8000000000000002;"/><line style="stroke:#181818;stroke-width:0.8000000000000002;stroke-dasharray:2.0,2.0;" x1="548" x2="860.8" y1="814.0438" y2="814.0438"/><text fill="#000000" font-family="sans-serif" font-size="10.4" font-weight="bold" lengthAdjust="spacing" textLength="11.2" x="557.6" y="809.8336">24</text><text fill="#000000" font-family="sans-serif" font-size="10.4" lengthAdjust="spacing" textLength="13.6" x="572" y="809.8336">job</text><line style="stroke:#181818;stroke-width:0.8000000000000002;stroke-dasharray:2.0,2.0;" x1="544" x2="577.6" y1="843.0766" y2="843.0766"/><line style="stroke:#181818;stroke-width:0.8000000000000002;stroke-dasharray:2.0,2.0;" x1="577.6" x2="577.6" y1="843.0766" y2="853.4766"/><line style="stroke:#181818;stroke-width:0.8000000000000002;stroke-dasharray:2.0,2.0;" x1="540" x2="577.6" y1="853.4766" y2="853.4766"/><polygon fill="#181818" points="548,850.2766,540,853.4766,548,856.6766,544.8,853.4766" style="stroke:#181818;stroke-width:0.8000000000000002;"/><text fill="#000000" font-family="sans-serif" font-size="10.4" font-weight="bold" lengthAdjust="spacing" textLength="11.2" x="549.6" y="838.8664">25</text><text fill="#000000" font-family="sans-serif" font-size="10.4" lengthAdjust="spacing" textLength="13.6" x="564" y="838.8664">job</text><polygon fill="#181818" points="673.6,871.3094,681.6,874.5094,673.6,877.7094,676.8,874.5094" style="stroke:#181818;stroke-width:0.8000000000000002;"/><line style="stroke:#181818;stroke-width:0.8000000000000002;" x1="540" x2="678.4" y1="874.5094" y2="874.5094"/><text fill="#000000" font-family="sans-serif" font-size="10.4" font-weight="bold" lengthAdjust="spacing" textLength="11.2" x="545.6" y="870.2992">26</text><text fill="#000000" font-family="sans-serif" font-size="10.4" lengthAdjust="spacing" textLength="60" x="560" y="870.2992">getInstance()</text><polygon fill="#181818" points="548.8,896.3422,540.8,899.5422,548.8,902.7422,545.6,899.5422" style="stroke:#181818;stroke-width:0.8000000000000002;"/><line style="stroke:#181818;stroke-width:0.8000000000000002;stroke-dasharray:2.0,2.0;" x1="544" x2="686.4" y1="899.5422" y2="899.5422"/><text fill="#000000" font-family="sans-serif" font-size="10.4" font-weight="bold" lengthAdjust="spacing" textLength="11.2" x="553.6" y="895.332">27</text><text fill="#000000" font-family="sans-serif" font-size="10.4" lengthAdjust="spacing" textLength="53.6" x="568" y="895.332">repositories</text><polygon fill="#181818" points="759.2,921.375,767.2,924.575,759.2,927.775,762.4,924.575" style="stroke:#181818;stroke-width:0.8000000000000002;"/><line style="stroke:#181818;stroke-width:0.8000000000000002;" x1="540" x2="764" y1="924.575" y2="924.575"/><text fill="#000000" font-family="sans-serif" font-size="10.4" font-weight="bold" lengthAdjust="spacing" textLength="11.2" x="545.6" y="920.3648">28</text><text fill="#000000" font-family="sans-serif" font-size="10.4" lengthAdjust="spacing" textLength="125.6" x="560" y="920.3648">getCollaboratorRepository()</text><polygon fill="#181818" points="548.8,946.4078,540.8,949.6078,548.8,952.8078,545.6,949.6078" style="stroke:#181818;stroke-width:0.8000000000000002;"/><line style="stroke:#181818;stroke-width:0.8000000000000002;stroke-dasharray:2.0,2.0;" x1="544" x2="772" y1="949.6078" y2="949.6078"/><text fill="#000000" font-family="sans-serif" font-size="10.4" font-weight="bold" lengthAdjust="spacing" textLength="11.2" x="553.6" y="945.3977">29</text><text fill="#000000" font-family="sans-serif" font-size="10.4" lengthAdjust="spacing" textLength="103.2" x="568" y="945.3977">collaboratorRepository</text><polygon fill="#181818" points="962.4,1040.6047,970.4,1043.8047,962.4,1047.0047,965.6,1043.8047" style="stroke:#181818;stroke-width:0.8000000000000002;"/><line style="stroke:#181818;stroke-width:0.8000000000000002;" x1="540" x2="967.2" y1="1043.8047" y2="1043.8047"/><text fill="#000000" font-family="sans-serif" font-size="10.4" font-weight="bold" lengthAdjust="spacing" textLength="11.2" x="545.6" y="1005.0125">30</text><text fill="#000000" font-family="sans-serif" font-size="10.4" lengthAdjust="spacing" textLength="121.6" x="560" y="970.4305">registerCollaborator(name,</text><text fill="#000000" font-family="sans-serif" font-size="10.4" lengthAdjust="spacing" textLength="118.4" x="560" y="984.2633">birthdate, admissionDate,</text><text fill="#000000" font-family="sans-serif" font-size="10.4" lengthAdjust="spacing" textLength="110.4" x="560" y="998.0961">address, phoneNumber,</text><text fill="#000000" font-family="sans-serif" font-size="10.4" lengthAdjust="spacing" textLength="110.4" x="560" y="1011.9289">email, taxpayerNumber,</text><text fill="#000000" font-family="sans-serif" font-size="10.4" lengthAdjust="spacing" textLength="130.4" x="560" y="1025.7617">identificationDocumentType,</text><text fill="#000000" font-family="sans-serif" font-size="10.4" lengthAdjust="spacing" textLength="164" x="560" y="1039.5945">identificationDocumentNumber, job)</text><polygon fill="#181818" points="1168,1134.8016,1176,1138.0016,1168,1141.2016,1171.2,1138.0016" style="stroke:#181818;stroke-width:0.8000000000000002;"/><line style="stroke:#181818;stroke-width:0.8000000000000002;" x1="980" x2="1172.8" y1="1138.0016" y2="1138.0016"/><text fill="#000000" font-family="sans-serif" font-size="10.4" font-weight="bold" lengthAdjust="spacing" textLength="11.2" x="985.6" y="1099.2094">31</text><text fill="#000000" font-family="sans-serif" font-size="10.4" lengthAdjust="spacing" textLength="60.8" x="1000" y="1064.6273">create(name,</text><text fill="#000000" font-family="sans-serif" font-size="10.4" lengthAdjust="spacing" textLength="118.4" x="1000" y="1078.4602">birthdate, admissionDate,</text><text fill="#000000" font-family="sans-serif" font-size="10.4" lengthAdjust="spacing" textLength="110.4" x="1000" y="1092.293">address, phoneNumber,</text><text fill="#000000" font-family="sans-serif" font-size="10.4" lengthAdjust="spacing" textLength="110.4" x="1000" y="1106.1258">email, taxpayerNumber,</text><text fill="#000000" font-family="sans-serif" font-size="10.4" lengthAdjust="spacing" textLength="130.4" x="1000" y="1119.9586">identificationDocumentType,</text><text fill="#000000" font-family="sans-serif" font-size="10.4" lengthAdjust="spacing" textLength="164" x="1000" y="1133.7914">identificationDocumentNumber, job)</text><rect fill="#E3E3E3" height="40.9938" rx="2" ry="2" style="stroke:#181818;stroke-width:0.4000000000000001;" width="76.8" x="1177.6" y="1094.6078"/><text fill="#000000" font-family="sans-serif" font-size="11.2" lengthAdjust="spacing" textLength="60" x="1186" y="1112.2938">collaborator</text><text fill="#000000" font-family="sans-serif" font-size="11.2" lengthAdjust="spacing" textLength="65.6" x="1183.2" y="1127.1906">:Collaborator</text><line style="stroke:#181818;stroke-width:0.8000000000000002;" x1="980" x2="1017.6" y1="1159.0344" y2="1159.0344"/><line style="stroke:#181818;stroke-width:0.8000000000000002;" x1="1017.6" x2="1017.6" y1="1159.0344" y2="1169.4344"/><line style="stroke:#181818;stroke-width:0.8000000000000002;" x1="984.8" x2="1017.6" y1="1169.4344" y2="1169.4344"/><polygon fill="#181818" points="992.8,1166.2344,984.8,1169.4344,992.8,1172.6344,989.6,1169.4344" style="stroke:#181818;stroke-width:0.8000000000000002;"/><text fill="#000000" font-family="sans-serif" font-size="10.4" font-weight="bold" lengthAdjust="spacing" textLength="11.2" x="989.6" y="1154.8242">32</text><text fill="#000000" font-family="sans-serif" font-size="10.4" lengthAdjust="spacing" textLength="132" x="1004" y="1154.8242">addCollaborator(collaborator)</text><line style="stroke:#181818;stroke-width:0.8000000000000002;" x1="984" x2="1021.6" y1="1194.4672" y2="1194.4672"/><line style="stroke:#181818;stroke-width:0.8000000000000002;" x1="1021.6" x2="1021.6" y1="1194.4672" y2="1204.8672"/><line style="stroke:#181818;stroke-width:0.8000000000000002;" x1="988.8" x2="1021.6" y1="1204.8672" y2="1204.8672"/><polygon fill="#181818" points="996.8,1201.6672,988.8,1204.8672,996.8,1208.0672,993.6,1204.8672" style="stroke:#181818;stroke-width:0.8000000000000002;"/><text fill="#000000" font-family="sans-serif" font-size="10.4" font-weight="bold" lengthAdjust="spacing" textLength="11.2" x="993.6" y="1190.257">33</text><text fill="#000000" font-family="sans-serif" font-size="10.4" lengthAdjust="spacing" textLength="149.6" x="1008" y="1190.257">validateCollaborator(collaborator)</text><line style="stroke:#181818;stroke-width:0.8000000000000002;stroke-dasharray:2.0,2.0;" x1="988" x2="1021.6" y1="1237.9" y2="1237.9"/><line style="stroke:#181818;stroke-width:0.8000000000000002;stroke-dasharray:2.0,2.0;" x1="1021.6" x2="1021.6" y1="1237.9" y2="1248.3"/><line style="stroke:#181818;stroke-width:0.8000000000000002;stroke-dasharray:2.0,2.0;" x1="984" x2="1021.6" y1="1248.3" y2="1248.3"/><polygon fill="#181818" points="992,1245.1,984,1248.3,992,1251.5,988.8,1248.3" style="stroke:#181818;stroke-width:0.8000000000000002;"/><text fill="#000000" font-family="sans-serif" font-size="10.4" font-weight="bold" lengthAdjust="spacing" textLength="11.2" x="993.6" y="1233.6898">34</text><text fill="#000000" font-family="sans-serif" font-size="10.4" lengthAdjust="spacing" textLength="3.2" x="1008" y="1233.6898">&#160;</text><line style="stroke:#181818;stroke-width:0.8000000000000002;stroke-dasharray:2.0,2.0;" x1="984" x2="1017.6" y1="1273.3328" y2="1273.3328"/><line style="stroke:#181818;stroke-width:0.8000000000000002;stroke-dasharray:2.0,2.0;" x1="1017.6" x2="1017.6" y1="1273.3328" y2="1283.7328"/><line style="stroke:#181818;stroke-width:0.8000000000000002;stroke-dasharray:2.0,2.0;" x1="980" x2="1017.6" y1="1283.7328" y2="1283.7328"/><polygon fill="#181818" points="988,1280.5328,980,1283.7328,988,1286.9328,984.8,1283.7328" style="stroke:#181818;stroke-width:0.8000000000000002;"/><text fill="#000000" font-family="sans-serif" font-size="10.4" font-weight="bold" lengthAdjust="spacing" textLength="11.2" x="989.6" y="1269.1227">35</text><text fill="#000000" font-family="sans-serif" font-size="10.4" lengthAdjust="spacing" textLength="3.2" x="1004" y="1269.1227">&#160;</text><polygon fill="#181818" points="548.8,1301.5656,540.8,1304.7656,548.8,1307.9656,545.6,1304.7656" style="stroke:#181818;stroke-width:0.8000000000000002;"/><line style="stroke:#181818;stroke-width:0.8000000000000002;stroke-dasharray:2.0,2.0;" x1="544" x2="975.2" y1="1304.7656" y2="1304.7656"/><text fill="#000000" font-family="sans-serif" font-size="10.4" font-weight="bold" lengthAdjust="spacing" textLength="11.2" x="553.6" y="1300.5555">36</text><text fill="#000000" font-family="sans-serif" font-size="10.4" lengthAdjust="spacing" textLength="53.6" x="568" y="1300.5555">collaborator</text><polygon fill="#181818" points="367.2,1326.5984,359.2,1329.7984,367.2,1332.9984,364,1329.7984" style="stroke:#181818;stroke-width:0.8000000000000002;"/><line style="stroke:#181818;stroke-width:0.8000000000000002;stroke-dasharray:2.0,2.0;" x1="362.4" x2="535.2" y1="1329.7984" y2="1329.7984"/><text fill="#000000" font-family="sans-serif" font-size="10.4" font-weight="bold" lengthAdjust="spacing" textLength="11.2" x="372" y="1325.5883">37</text><text fill="#000000" font-family="sans-serif" font-size="10.4" lengthAdjust="spacing" textLength="53.6" x="386.4" y="1325.5883">collaborator</text><polygon fill="#181818" points="85.6,1351.6313,77.6,1354.8313,85.6,1358.0313,82.4,1354.8313" style="stroke:#181818;stroke-width:0.8000000000000002;"/><line style="stroke:#181818;stroke-width:0.8000000000000002;stroke-dasharray:2.0,2.0;" x1="80.8" x2="353.6" y1="1354.8313" y2="1354.8313"/><text fill="#000000" font-family="sans-serif" font-size="10.4" font-weight="bold" lengthAdjust="spacing" textLength="11.2" x="90.4" y="1350.6211">38</text><text fill="#000000" font-family="sans-serif" font-size="10.4" lengthAdjust="spacing" textLength="126.4" x="104.8" y="1350.6211">displays operation success</text><!--SRC=[xLV1Kjim4BthAtQub33X1tBe3AG7w0JQ2N3BHR6NHCMMN4a6ylTTox4Z9R9nCp33JEkRfTstks-Vrh9v4hBWckUGAwcIjLOvWjKbCjFk53nvuYkyiviCGMDYkLnble5PyrIz2Bc2HvuPP8oNLiaoNw9cxCjQf0YFIjcbUcKyiKh3oLMPSmbpDAhK2HguuP8Yw1FW1gxcDunmhKX4mQM5ayaSLy9Or5ELPNofD2UCXsjd_70zm7QgfDNqlWqmlP_F3hmAPGIP2ZJEfbtOt8cgMgedTD6Unq8U0loSNTo77h_KSeSwMSZl_hlp2LP2vyGh9q2PHZVgEgDRtRXKXkzIO_oOpIukMTKtySmjkkums3xq0kTVgGam8UCd0rQHGEe600U9B-07s3csSDI_Th5w28e0gmwTdH5eef6ikap8O8MMM3Edey2aXNUj3hQgn_aIHgJ9DUIrD2Jo1FTW0-YOGWwigoSMvNnRmGHy7Hsuf_XtuPh2Al6rvEmy-yfnUetcxy1s2GSoxiiuZjYa62JMsSWWnV1uH7CDKSztEg6iPoJBldpVWAyJRzGUm_Em3dLNgPQSgnCpeO6fNao50Hc109TfUtmCPZHXGKba4TpckFW7h_OmTDu8a7MUhY01ZRzBDEIKSilPW21sKz2OthfXwlpWLF8Snx0Ksgvf0SSBoTDS62D8ucu1U9fgD6OCnPfAMiZwgp06pBd8nc3vQy4tD2oswmj97mjfnQD8k7KeAYbpMd49EA88hi0gLTmwZGRMN9DUiqKLLEpNU7vDGxWmvJ8NFdUTiLlvwSXNgMPl8NVqGSlUjuPDdxtRXgCzycxZt7tRKdTFp7Lkjhv4notbCs83PcXpXeCPVBcf_4yFSFxFum-Pn_va-xXvtDVKzvpDm-To3BaTpHs0lOFv7n9V_49ud0hthmNn2oeRhCLsfiGlkfz-WbQYwnfwSMeE6nQrSwIuM_ZPMNCX_jo5lr5BHuCfuQ2tlg16Z7LhTFgsyexFwfbdeYAu9xLOe6EIwqkmCyCeaZ_l1chlVO8V4RWlQ3tDut-GHuJpRl1xg7qVY_WbVWAfC4N6DmPKWRg-h9eoIUZCnUwGtglxW_u3]--></g></svg>