<?xml version="1.0" encoding="us-ascii" standalone="no"?><svg xmlns="http://www.w3.org/2000/svg" xmlns:xlink="http://www.w3.org/1999/xlink" contentStyleType="text/css" height="1300px" preserveAspectRatio="none" style="width:1187px;height:1300px;background:#FFFFFF;" version="1.1" viewBox="0 0 1187 1300" width="1187px" zoomAndPan="magnify"><defs/><g><rect fill="#FFFFFF" height="1106.1934" style="stroke:#181818;stroke-width:1.0;" width="10" x="91" y="93.6211"/><rect fill="#FFFFFF" height="201.707" style="stroke:#181818;stroke-width:1.0;" width="10" x="431" y="116.9121"/><rect fill="#FFFFFF" height="31.291" style="stroke:#181818;stroke-width:1.0;" width="10" x="431" y="349.9102"/><rect fill="#FFFFFF" height="31.291" style="stroke:#181818;stroke-width:1.0;" width="10" x="431" y="464.3652"/><rect fill="#FFFFFF" height="672.8672" style="stroke:#181818;stroke-width:1.0;" width="10" x="431" y="526.9473"/><rect fill="#FFFFFF" height="95.5039" style="stroke:#181818;stroke-width:1.0;" width="10" x="658" y="191.8242"/><rect fill="#FFFFFF" height="506.5391" style="stroke:#181818;stroke-width:1.0;" width="10" x="658" y="661.9844"/><rect fill="#FFFFFF" height="106.5039" style="stroke:#181818;stroke-width:1.0;" width="10" x="663" y="701.2754"/><rect fill="#FFFFFF" height="31.291" style="stroke:#181818;stroke-width:1.0;" width="10" x="847" y="846.0703"/><rect fill="#FFFFFF" height="31.291" style="stroke:#181818;stroke-width:1.0;" width="10" x="954" y="908.6523"/><rect fill="#FFFFFF" height="79.543" style="stroke:#181818;stroke-width:1.0;" width="10" x="1093" y="1057.6895"/><line style="stroke:#181818;stroke-width:0.5;stroke-dasharray:5.0,5.0;" x1="96" x2="96" y1="83.6211" y2="1217.8145"/><line style="stroke:#181818;stroke-width:0.5;stroke-dasharray:5.0,5.0;" x1="435.5" x2="435.5" y1="83.6211" y2="1217.8145"/><line style="stroke:#181818;stroke-width:0.5;stroke-dasharray:5.0,5.0;" x1="662.5" x2="662.5" y1="156.7227" y2="1217.8145"/><line style="stroke:#181818;stroke-width:0.5;stroke-dasharray:5.0,5.0;" x1="851.5" x2="851.5" y1="83.6211" y2="1217.8145"/><line style="stroke:#181818;stroke-width:0.5;stroke-dasharray:5.0,5.0;" x1="958.5" x2="958.5" y1="83.6211" y2="1217.8145"/><line style="stroke:#181818;stroke-width:0.5;stroke-dasharray:5.0,5.0;" x1="1097.5" x2="1097.5" y1="83.6211" y2="1217.8145"/><text fill="#000000" font-family="sans-serif" font-size="14" lengthAdjust="spacing" textLength="176" x="5" y="80.1074">Human Resources Manager</text><ellipse cx="96" cy="13.5" fill="#E3E3E3" rx="8" ry="8" style="stroke:#181818;stroke-width:0.5;"/><path d="M96,21.5 L96,48.5 M83,29.5 L109,29.5 M96,48.5 L83,63.5 M96,48.5 L109,63.5 " fill="none" style="stroke:#181818;stroke-width:0.5;"/><text fill="#000000" font-family="sans-serif" font-size="14" lengthAdjust="spacing" textLength="176" x="5" y="1231.9219">Human Resources Manager</text><ellipse cx="96" cy="1243.9355" fill="#E3E3E3" rx="8" ry="8" style="stroke:#181818;stroke-width:0.5;"/><path d="M96,1251.9355 L96,1278.9355 M83,1259.9355 L109,1259.9355 M96,1278.9355 L83,1293.9355 M96,1278.9355 L109,1293.9355 " fill="none" style="stroke:#181818;stroke-width:0.5;"/><rect fill="#E3E3E3" height="32.6211" rx="2.5" ry="2.5" style="stroke:#181818;stroke-width:0.5;" width="161" x="355.5" y="50"/><text fill="#000000" font-family="sans-serif" font-size="14" lengthAdjust="spacing" textLength="147" x="362.5" y="72.1074">:RegisterCollaboratorUI</text><rect fill="#E3E3E3" height="32.6211" rx="2.5" ry="2.5" style="stroke:#181818;stroke-width:0.5;" width="161" x="355.5" y="1216.8145"/><text fill="#000000" font-family="sans-serif" font-size="14" lengthAdjust="spacing" textLength="147" x="362.5" y="1238.9219">:RegisterCollaboratorUI</text><rect fill="#E3E3E3" height="32.6211" rx="2.5" ry="2.5" style="stroke:#181818;stroke-width:0.5;" width="211" x="557.5" y="1216.8145"/><text fill="#000000" font-family="sans-serif" font-size="14" lengthAdjust="spacing" textLength="197" x="564.5" y="1238.9219">:RegisterCollaboratorController</text><rect fill="#E3E3E3" height="32.6211" rx="2.5" ry="2.5" style="stroke:#181818;stroke-width:0.5;" width="97" x="803.5" y="50"/><text fill="#000000" font-family="sans-serif" font-size="14" lengthAdjust="spacing" textLength="83" x="810.5" y="72.1074">:Repositories</text><rect fill="#E3E3E3" height="32.6211" rx="2.5" ry="2.5" style="stroke:#181818;stroke-width:0.5;" width="97" x="803.5" y="1216.8145"/><text fill="#000000" font-family="sans-serif" font-size="14" lengthAdjust="spacing" textLength="83" x="810.5" y="1238.9219">:Repositories</text><rect fill="#E3E3E3" height="51.2422" rx="2.5" ry="2.5" style="stroke:#181818;stroke-width:0.5;" width="97" x="910.5" y="31.3789"/><text fill="#000000" font-family="sans-serif" font-size="14" lengthAdjust="spacing" textLength="74" x="922" y="53.4863">repositories</text><text fill="#000000" font-family="sans-serif" font-size="14" lengthAdjust="spacing" textLength="83" x="917.5" y="72.1074">:Repositories</text><rect fill="#E3E3E3" height="51.2422" rx="2.5" ry="2.5" style="stroke:#181818;stroke-width:0.5;" width="97" x="910.5" y="1216.8145"/><text fill="#000000" font-family="sans-serif" font-size="14" lengthAdjust="spacing" textLength="74" x="922" y="1238.9219">repositories</text><text fill="#000000" font-family="sans-serif" font-size="14" lengthAdjust="spacing" textLength="83" x="917.5" y="1257.543">:Repositories</text><rect fill="#E3E3E3" height="51.2422" rx="2.5" ry="2.5" style="stroke:#181818;stroke-width:0.5;" width="161" x="1017.5" y="31.3789"/><text fill="#000000" font-family="sans-serif" font-size="14" lengthAdjust="spacing" textLength="147" x="1024.5" y="53.4863">collaboratorRepository:</text><text fill="#000000" font-family="sans-serif" font-size="14" lengthAdjust="spacing" textLength="146" x="1025" y="72.1074">CollaboratorRepository</text><rect fill="#E3E3E3" height="51.2422" rx="2.5" ry="2.5" style="stroke:#181818;stroke-width:0.5;" width="161" x="1017.5" y="1216.8145"/><text fill="#000000" font-family="sans-serif" font-size="14" lengthAdjust="spacing" textLength="147" x="1024.5" y="1238.9219">collaboratorRepository:</text><text fill="#000000" font-family="sans-serif" font-size="14" lengthAdjust="spacing" textLength="146" x="1025" y="1257.543">CollaboratorRepository</text><rect fill="#FFFFFF" height="1106.1934" style="stroke:#181818;stroke-width:1.0;" width="10" x="91" y="93.6211"/><rect fill="#FFFFFF" height="201.707" style="stroke:#181818;stroke-width:1.0;" width="10" x="431" y="116.9121"/><rect fill="#FFFFFF" height="31.291" style="stroke:#181818;stroke-width:1.0;" width="10" x="431" y="349.9102"/><rect fill="#FFFFFF" height="31.291" style="stroke:#181818;stroke-width:1.0;" width="10" x="431" y="464.3652"/><rect fill="#FFFFFF" height="672.8672" style="stroke:#181818;stroke-width:1.0;" width="10" x="431" y="526.9473"/><rect fill="#FFFFFF" height="95.5039" style="stroke:#181818;stroke-width:1.0;" width="10" x="658" y="191.8242"/><rect fill="#FFFFFF" height="506.5391" style="stroke:#181818;stroke-width:1.0;" width="10" x="658" y="661.9844"/><rect fill="#FFFFFF" height="106.5039" style="stroke:#181818;stroke-width:1.0;" width="10" x="663" y="701.2754"/><rect fill="#FFFFFF" height="31.291" style="stroke:#181818;stroke-width:1.0;" width="10" x="847" y="846.0703"/><rect fill="#FFFFFF" height="31.291" style="stroke:#181818;stroke-width:1.0;" width="10" x="954" y="908.6523"/><rect fill="#FFFFFF" height="79.543" style="stroke:#181818;stroke-width:1.0;" width="10" x="1093" y="1057.6895"/><polygon fill="#181818" points="419,112.9121,429,116.9121,419,120.9121,423,116.9121" style="stroke:#181818;stroke-width:1.0;"/><line style="stroke:#181818;stroke-width:1.0;" x1="101" x2="425" y1="116.9121" y2="116.9121"/><text fill="#000000" font-family="sans-serif" font-size="13" font-weight="bold" lengthAdjust="spacing" textLength="7" x="108" y="111.6494">1</text><text fill="#000000" font-family="sans-serif" font-size="13" lengthAdjust="spacing" textLength="199" x="119" y="111.6494">asks to register a new collaborator</text><polygon fill="#181818" points="545.5,144.2031,555.5,148.2031,545.5,152.2031,549.5,148.2031" style="stroke:#181818;stroke-width:1.0;"/><line style="stroke:#181818;stroke-width:1.0;" x1="441" x2="551.5" y1="148.2031" y2="148.2031"/><text fill="#000000" font-family="sans-serif" font-size="13" font-weight="bold" lengthAdjust="spacing" textLength="7" x="448" y="142.9404">2</text><text fill="#000000" font-family="sans-serif" font-size="13" lengthAdjust="spacing" textLength="36" x="459" y="142.9404">create</text><rect fill="#E3E3E3" height="32.6211" rx="2.5" ry="2.5" style="stroke:#181818;stroke-width:0.5;" width="211" x="557.5" y="124.9121"/><text fill="#000000" font-family="sans-serif" font-size="14" lengthAdjust="spacing" textLength="197" x="564.5" y="147.0195">:RegisterCollaboratorController</text><polygon fill="#181818" points="646,187.8242,656,191.8242,646,195.8242,650,191.8242" style="stroke:#181818;stroke-width:1.0;"/><line style="stroke:#181818;stroke-width:1.0;" x1="441" x2="652" y1="191.8242" y2="191.8242"/><text fill="#000000" font-family="sans-serif" font-size="13" font-weight="bold" lengthAdjust="spacing" textLength="7" x="448" y="186.5615">3</text><text fill="#000000" font-family="sans-serif" font-size="13" lengthAdjust="spacing" textLength="53" x="459" y="186.5615">getJobs()</text><rect fill="none" height="59.2129" style="stroke:#000000;stroke-width:1.5;" width="217" x="554.5" y="199.8242"/><path d="M554.5,199.8242 L616.5,199.8242 L616.5,208.8242 L606.5,218.8242 L554.5,218.8242 L554.5,199.8242 " fill="#EEEEEE" style="stroke:#000000;stroke-width:2.0;"/><text fill="#000000" font-family="sans-serif" font-size="13" font-weight="bold" lengthAdjust="spacing" textLength="17" x="567.5" y="215.8525">ref</text><text fill="#000000" font-family="sans-serif" font-size="12" lengthAdjust="spacing" textLength="65" x="630.5" y="235.7734">Get Job List</text><text fill="#000000" font-family="sans-serif" font-size="12" lengthAdjust="spacing" textLength="3" x="661.5" y="251.7344">&#160;</text><polygon fill="#181818" points="452,283.3281,442,287.3281,452,291.3281,448,287.3281" style="stroke:#181818;stroke-width:1.0;"/><line style="stroke:#181818;stroke-width:1.0;stroke-dasharray:2.0,2.0;" x1="446" x2="662" y1="287.3281" y2="287.3281"/><text fill="#000000" font-family="sans-serif" font-size="13" font-weight="bold" lengthAdjust="spacing" textLength="7" x="458" y="282.0654">4</text><text fill="#000000" font-family="sans-serif" font-size="13" lengthAdjust="spacing" textLength="38" x="469" y="282.0654">jobList</text><polygon fill="#181818" points="112,314.6191,102,318.6191,112,322.6191,108,318.6191" style="stroke:#181818;stroke-width:1.0;"/><line style="stroke:#181818;stroke-width:1.0;stroke-dasharray:2.0,2.0;" x1="106" x2="435" y1="318.6191" y2="318.6191"/><text fill="#000000" font-family="sans-serif" font-size="13" font-weight="bold" lengthAdjust="spacing" textLength="7" x="118" y="313.3564">5</text><text fill="#000000" font-family="sans-serif" font-size="13" lengthAdjust="spacing" textLength="215" x="129" y="313.3564">shows job list and asks to select one</text><polygon fill="#181818" points="419,345.9102,429,349.9102,419,353.9102,423,349.9102" style="stroke:#181818;stroke-width:1.0;"/><line style="stroke:#181818;stroke-width:1.0;" x1="101" x2="425" y1="349.9102" y2="349.9102"/><text fill="#000000" font-family="sans-serif" font-size="13" font-weight="bold" lengthAdjust="spacing" textLength="7" x="108" y="344.6475">6</text><text fill="#000000" font-family="sans-serif" font-size="13" lengthAdjust="spacing" textLength="74" x="119" y="344.6475">selects a job</text><polygon fill="#181818" points="112,377.2012,102,381.2012,112,385.2012,108,381.2012" style="stroke:#181818;stroke-width:1.0;"/><line style="stroke:#181818;stroke-width:1.0;stroke-dasharray:2.0,2.0;" x1="106" x2="435" y1="381.2012" y2="381.2012"/><text fill="#000000" font-family="sans-serif" font-size="13" font-weight="bold" lengthAdjust="spacing" textLength="7" x="118" y="375.9385">7</text><text fill="#000000" font-family="sans-serif" font-size="13" lengthAdjust="spacing" textLength="79" x="129" y="375.9385">requests data</text><polygon fill="#181818" points="419,460.3652,429,464.3652,419,468.3652,423,464.3652" style="stroke:#181818;stroke-width:1.0;"/><line style="stroke:#181818;stroke-width:1.0;" x1="101" x2="425" y1="464.3652" y2="464.3652"/><text fill="#000000" font-family="sans-serif" font-size="13" font-weight="bold" lengthAdjust="spacing" textLength="7" x="108" y="433.166">8</text><text fill="#000000" font-family="sans-serif" font-size="13" lengthAdjust="spacing" textLength="246" x="119" y="407.2295">types requested data (i.e. name, birthdate,</text><text fill="#000000" font-family="sans-serif" font-size="13" lengthAdjust="spacing" textLength="185" x="119" y="424.5205">admission date, address, phone</text><text fill="#000000" font-family="sans-serif" font-size="13" lengthAdjust="spacing" textLength="191" x="119" y="441.8115">number, email, taxpayer number,</text><text fill="#000000" font-family="sans-serif" font-size="13" lengthAdjust="spacing" textLength="300" x="119" y="459.1025">identification document type and respective number)</text><polygon fill="#181818" points="112,491.6563,102,495.6563,112,499.6563,108,495.6563" style="stroke:#181818;stroke-width:1.0;"/><line style="stroke:#181818;stroke-width:1.0;stroke-dasharray:2.0,2.0;" x1="106" x2="435" y1="495.6563" y2="495.6563"/><text fill="#000000" font-family="sans-serif" font-size="13" font-weight="bold" lengthAdjust="spacing" textLength="7" x="118" y="490.3936">9</text><text fill="#000000" font-family="sans-serif" font-size="13" lengthAdjust="spacing" textLength="226" x="129" y="490.3936">shows selected job and requested data</text><polygon fill="#181818" points="419,522.9473,429,526.9473,419,530.9473,423,526.9473" style="stroke:#181818;stroke-width:1.0;"/><line style="stroke:#181818;stroke-width:1.0;" x1="101" x2="425" y1="526.9473" y2="526.9473"/><text fill="#000000" font-family="sans-serif" font-size="13" font-weight="bold" lengthAdjust="spacing" textLength="14" x="108" y="521.6846">10</text><text fill="#000000" font-family="sans-serif" font-size="13" lengthAdjust="spacing" textLength="75" x="126" y="521.6846">submits data</text><polygon fill="#181818" points="646,657.9844,656,661.9844,646,665.9844,650,661.9844" style="stroke:#181818;stroke-width:1.0;"/><line style="stroke:#181818;stroke-width:1.0;" x1="441" x2="652" y1="661.9844" y2="661.9844"/><text fill="#000000" font-family="sans-serif" font-size="13" font-weight="bold" lengthAdjust="spacing" textLength="14" x="448" y="604.8486">11</text><text fill="#000000" font-family="sans-serif" font-size="13" lengthAdjust="spacing" textLength="152" x="466" y="552.9756">registerCollaborator(name,</text><text fill="#000000" font-family="sans-serif" font-size="13" lengthAdjust="spacing" textLength="148" x="466" y="570.2666">birthdate, admissionDate,</text><text fill="#000000" font-family="sans-serif" font-size="13" lengthAdjust="spacing" textLength="138" x="466" y="587.5576">address, phoneNumber,</text><text fill="#000000" font-family="sans-serif" font-size="13" lengthAdjust="spacing" textLength="138" x="466" y="604.8486">email, taxpayerNumber,</text><text fill="#000000" font-family="sans-serif" font-size="13" lengthAdjust="spacing" textLength="163" x="466" y="622.1396">identificationDocumentType,</text><text fill="#000000" font-family="sans-serif" font-size="13" lengthAdjust="spacing" textLength="180" x="466" y="639.4307">identificationDocumentNumber,</text><text fill="#000000" font-family="sans-serif" font-size="13" lengthAdjust="spacing" textLength="55" x="466" y="656.7217">jobName)</text><line style="stroke:#181818;stroke-width:1.0;" x1="668" x2="715" y1="688.2754" y2="688.2754"/><line style="stroke:#181818;stroke-width:1.0;" x1="715" x2="715" y1="688.2754" y2="701.2754"/><line style="stroke:#181818;stroke-width:1.0;" x1="674" x2="715" y1="701.2754" y2="701.2754"/><polygon fill="#181818" points="684,697.2754,674,701.2754,684,705.2754,680,701.2754" style="stroke:#181818;stroke-width:1.0;"/><text fill="#000000" font-family="sans-serif" font-size="13" font-weight="bold" lengthAdjust="spacing" textLength="14" x="680" y="683.0127">12</text><text fill="#000000" font-family="sans-serif" font-size="13" lengthAdjust="spacing" textLength="147" x="698" y="683.0127">getJobByName(jobName)</text><rect fill="none" height="59.2129" style="stroke:#000000;stroke-width:1.5;" width="217" x="554.5" y="714.2754"/><path d="M554.5,714.2754 L616.5,714.2754 L616.5,723.2754 L606.5,733.2754 L554.5,733.2754 L554.5,714.2754 " fill="#EEEEEE" style="stroke:#000000;stroke-width:2.0;"/><text fill="#000000" font-family="sans-serif" font-size="13" font-weight="bold" lengthAdjust="spacing" textLength="17" x="567.5" y="730.3037">ref</text><text fill="#000000" font-family="sans-serif" font-size="12" lengthAdjust="spacing" textLength="80" x="623" y="750.2246">Get Job Object</text><text fill="#000000" font-family="sans-serif" font-size="12" lengthAdjust="spacing" textLength="3" x="661.5" y="766.1855">&#160;</text><line style="stroke:#181818;stroke-width:1.0;stroke-dasharray:2.0,2.0;" x1="673" x2="715" y1="806.7793" y2="806.7793"/><line style="stroke:#181818;stroke-width:1.0;stroke-dasharray:2.0,2.0;" x1="715" x2="715" y1="806.7793" y2="819.7793"/><line style="stroke:#181818;stroke-width:1.0;stroke-dasharray:2.0,2.0;" x1="668" x2="715" y1="819.7793" y2="819.7793"/><polygon fill="#181818" points="678,815.7793,668,819.7793,678,823.7793,674,819.7793" style="stroke:#181818;stroke-width:1.0;"/><text fill="#000000" font-family="sans-serif" font-size="13" font-weight="bold" lengthAdjust="spacing" textLength="14" x="680" y="801.5166">13</text><text fill="#000000" font-family="sans-serif" font-size="13" lengthAdjust="spacing" textLength="17" x="698" y="801.5166">job</text><polygon fill="#181818" points="835,842.0703,845,846.0703,835,850.0703,839,846.0703" style="stroke:#181818;stroke-width:1.0;"/><line style="stroke:#181818;stroke-width:1.0;" x1="668" x2="841" y1="846.0703" y2="846.0703"/><text fill="#000000" font-family="sans-serif" font-size="13" font-weight="bold" lengthAdjust="spacing" textLength="14" x="675" y="840.8076">14</text><text fill="#000000" font-family="sans-serif" font-size="13" lengthAdjust="spacing" textLength="75" x="693" y="840.8076">getInstance()</text><polygon fill="#181818" points="679,873.3613,669,877.3613,679,881.3613,675,877.3613" style="stroke:#181818;stroke-width:1.0;"/><line style="stroke:#181818;stroke-width:1.0;stroke-dasharray:2.0,2.0;" x1="673" x2="851" y1="877.3613" y2="877.3613"/><text fill="#000000" font-family="sans-serif" font-size="13" font-weight="bold" lengthAdjust="spacing" textLength="14" x="685" y="872.0986">15</text><text fill="#000000" font-family="sans-serif" font-size="13" lengthAdjust="spacing" textLength="67" x="703" y="872.0986">repositories</text><polygon fill="#181818" points="942,904.6523,952,908.6523,942,912.6523,946,908.6523" style="stroke:#181818;stroke-width:1.0;"/><line style="stroke:#181818;stroke-width:1.0;" x1="668" x2="948" y1="908.6523" y2="908.6523"/><text fill="#000000" font-family="sans-serif" font-size="13" font-weight="bold" lengthAdjust="spacing" textLength="14" x="675" y="903.3896">16</text><text fill="#000000" font-family="sans-serif" font-size="13" lengthAdjust="spacing" textLength="157" x="693" y="903.3896">getCollaboratorRepository()</text><polygon fill="#181818" points="679,935.9434,669,939.9434,679,943.9434,675,939.9434" style="stroke:#181818;stroke-width:1.0;"/><line style="stroke:#181818;stroke-width:1.0;stroke-dasharray:2.0,2.0;" x1="673" x2="958" y1="939.9434" y2="939.9434"/><text fill="#000000" font-family="sans-serif" font-size="13" font-weight="bold" lengthAdjust="spacing" textLength="14" x="685" y="934.6807">17</text><text fill="#000000" font-family="sans-serif" font-size="13" lengthAdjust="spacing" textLength="129" x="703" y="934.6807">collaboratorRepository</text><polygon fill="#181818" points="1081,1053.6895,1091,1057.6895,1081,1061.6895,1085,1057.6895" style="stroke:#181818;stroke-width:1.0;"/><line style="stroke:#181818;stroke-width:1.0;" x1="668" x2="1087" y1="1057.6895" y2="1057.6895"/><text fill="#000000" font-family="sans-serif" font-size="13" font-weight="bold" lengthAdjust="spacing" textLength="14" x="675" y="1009.1992">18</text><text fill="#000000" font-family="sans-serif" font-size="13" lengthAdjust="spacing" textLength="152" x="693" y="965.9717">registerCollaborator(name,</text><text fill="#000000" font-family="sans-serif" font-size="13" lengthAdjust="spacing" textLength="148" x="693" y="983.2627">birthdate, admissionDate,</text><text fill="#000000" font-family="sans-serif" font-size="13" lengthAdjust="spacing" textLength="138" x="693" y="1000.5537">address, phoneNumber,</text><text fill="#000000" font-family="sans-serif" font-size="13" lengthAdjust="spacing" textLength="138" x="693" y="1017.8447">email, taxpayerNumber,</text><text fill="#000000" font-family="sans-serif" font-size="13" lengthAdjust="spacing" textLength="163" x="693" y="1035.1357">identificationDocumentType,</text><text fill="#000000" font-family="sans-serif" font-size="13" lengthAdjust="spacing" textLength="205" x="693" y="1052.4268">identificationDocumentNumber, job)</text><rect fill="none" height="43.252" style="stroke:#000000;stroke-width:1.5;" width="167" x="1014.5" y="1065.6895"/><path d="M1014.5,1065.6895 L1076.5,1065.6895 L1076.5,1074.6895 L1066.5,1084.6895 L1014.5,1084.6895 L1014.5,1065.6895 " fill="#EEEEEE" style="stroke:#000000;stroke-width:2.0;"/><text fill="#000000" font-family="sans-serif" font-size="13" font-weight="bold" lengthAdjust="spacing" textLength="17" x="1027.5" y="1081.7178">ref</text><text fill="#000000" font-family="sans-serif" font-size="12" lengthAdjust="spacing" textLength="118" x="1039" y="1101.6387">Register Collaborator</text><polygon fill="#181818" points="679,1133.2324,669,1137.2324,679,1141.2324,675,1137.2324" style="stroke:#181818;stroke-width:1.0;"/><line style="stroke:#181818;stroke-width:1.0;stroke-dasharray:2.0,2.0;" x1="673" x2="1097" y1="1137.2324" y2="1137.2324"/><text fill="#000000" font-family="sans-serif" font-size="13" font-weight="bold" lengthAdjust="spacing" textLength="14" x="685" y="1131.9697">19</text><text fill="#000000" font-family="sans-serif" font-size="13" lengthAdjust="spacing" textLength="67" x="703" y="1131.9697">collaborator</text><polygon fill="#181818" points="452,1164.5234,442,1168.5234,452,1172.5234,448,1168.5234" style="stroke:#181818;stroke-width:1.0;"/><line style="stroke:#181818;stroke-width:1.0;stroke-dasharray:2.0,2.0;" x1="446" x2="662" y1="1168.5234" y2="1168.5234"/><text fill="#000000" font-family="sans-serif" font-size="13" font-weight="bold" lengthAdjust="spacing" textLength="14" x="458" y="1163.2607">20</text><text fill="#000000" font-family="sans-serif" font-size="13" lengthAdjust="spacing" textLength="67" x="476" y="1163.2607">collaborator</text><polygon fill="#181818" points="107,1195.8145,97,1199.8145,107,1203.8145,103,1199.8145" style="stroke:#181818;stroke-width:1.0;"/><line style="stroke:#181818;stroke-width:1.0;stroke-dasharray:2.0,2.0;" x1="101" x2="435" y1="1199.8145" y2="1199.8145"/><text fill="#000000" font-family="sans-serif" font-size="13" font-weight="bold" lengthAdjust="spacing" textLength="14" x="113" y="1194.5518">21</text><text fill="#000000" font-family="sans-serif" font-size="13" lengthAdjust="spacing" textLength="158" x="131" y="1194.5518">displays operation success</text><!--SRC=[pLPDKzim4BtxL-nmQM02Fo27phHXfgG3j1FWbilQtYG2Mt8b6SY_xrh-Y1pBgO_rJTA-fzqdFQtDcv05QimXLr8bUwro0gjBYaotKc3oXZjwieUCG5DYKUuoFy3iCLKVGkvWYvcXACBIAbdcCUae-h8NAS5MAHkhpmWJgpHSt9KvIbYJKQLEoC03Ijv1Nm0Qk5i_HCnhHI8Ab1Ok5clQ2MD9BrMMOQmqCiVBoWM_h2R4BfMqciVD1ildzVq0LIWZE5IGSJ7TnE59LDLoFNs8zX0REIJuVV_jkOz8l8oEz8kDN0ONwbI3Ir4betX7Iqwi29gF1t3zbJM11OFV35Z5vrNh0GYIFi1FuWZiw5ZERhBwc8e9Ay6khfWqqSHHOo4Si2FxKyLcTjaBqRG5zSuvEENXvFj15XW4zvnddvfaMc7xarskZcp0vXAvRbLuLR6ZzIDIEaDHLSFWIia5tslrOIeEo9W4aDDfPJMKiH50IOe2lAsC_e7K2CFdm8JHgEgz13JzASamA4MBqOHDxA5WDpKmIXqEPkA6Ra1YJdE8XRPxdgNvHcAQ2sE4ak0c0DDKap5pAFPSrqRM3fu3vIYoELZyBF30fzZCRoGRMrgn5GbQnwAICkSPbuLJY-aAglAb1dGviV1Q-LeoBgCwWfhFBsoA8AQCS-4BEBftTuTru0MPEVKsyYWVTEhTjchwwZss6fs8znZMxhQHxfcL6rtii2p78-Tp6KtmHEs74uD-FrJusO1dWh_EUzdtyw_ubKzloD2vEeZk_Diat9fbadlROWElTrtxIXhkNWcTF52zkaDFVp3Lq2vjvjKrEdQ40TohOj9sRM5LLwah2NU6StMvZXGifAOzfXxkL6F7CEJjxbouu_tt3giktPWfHXhok4t-hUNnFZMjsiUCssTmHu8x-LuAD_zJLqseq6ko9wpdh1hkimj8XIaoF1XG1UcwbPWouTz24thXlQ7x-VaB]--></g></svg>