<?xml version="1.0" encoding="us-ascii" standalone="no"?><svg xmlns="http://www.w3.org/2000/svg" xmlns:xlink="http://www.w3.org/1999/xlink" contentStyleType="text/css" height="1794px" preserveAspectRatio="none" style="width:1574px;height:1794px;background:#FFFFFF;" version="1.1" viewBox="0 0 1574 1794" width="1574px" zoomAndPan="magnify"><defs/><g><rect fill="#FFFFFF" height="1599.918" style="stroke:#181818;stroke-width:1.0;" width="10" x="91" y="93.6211"/><rect fill="#FFFFFF" height="325.2402" style="stroke:#181818;stroke-width:1.0;" width="10" x="438" y="116.9121"/><rect fill="#FFFFFF" height="31.291" style="stroke:#181818;stroke-width:1.0;" width="10" x="438" y="473.4434"/><rect fill="#FFFFFF" height="31.291" style="stroke:#181818;stroke-width:1.0;" width="10" x="438" y="587.8984"/><rect fill="#FFFFFF" height="1043.0586" style="stroke:#181818;stroke-width:1.0;" width="10" x="438" y="650.4805"/><rect fill="#FFFFFF" height="219.0371" style="stroke:#181818;stroke-width:1.0;" width="10" x="665" y="191.8242"/><rect fill="#FFFFFF" height="876.7305" style="stroke:#181818;stroke-width:1.0;" width="10" x="665" y="785.5176"/><rect fill="#FFFFFF" height="230.0371" style="stroke:#181818;stroke-width:1.0;" width="10" x="670" y="824.8086"/><rect fill="#FFFFFF" height="31.291" style="stroke:#181818;stroke-width:1.0;" width="10" x="854" y="223.1152"/><rect fill="#FFFFFF" height="31.291" style="stroke:#181818;stroke-width:1.0;" width="10" x="854" y="861.0996"/><rect fill="#FFFFFF" height="31.291" style="stroke:#181818;stroke-width:1.0;" width="10" x="854" y="1093.1367"/><rect fill="#FFFFFF" height="31.291" style="stroke:#181818;stroke-width:1.0;" width="10" x="961" y="285.6973"/><rect fill="#FFFFFF" height="31.291" style="stroke:#181818;stroke-width:1.0;" width="10" x="961" y="923.6816"/><rect fill="#FFFFFF" height="31.291" style="stroke:#181818;stroke-width:1.0;" width="10" x="961" y="1155.7188"/><rect fill="#FFFFFF" height="31.291" style="stroke:#181818;stroke-width:1.0;" width="10" x="1072" y="348.2793"/><rect fill="#FFFFFF" height="31.291" style="stroke:#181818;stroke-width:1.0;" width="10" x="1072" y="986.2637"/><rect fill="#FFFFFF" height="326.2012" style="stroke:#181818;stroke-width:1.0;" width="10" x="1215" y="1304.7559"/><rect fill="#FFFFFF" height="130.873" style="stroke:#181818;stroke-width:1.0;" width="10" x="1220" y="1461.793"/><rect fill="#FFFFFF" height="42.291" style="stroke:#181818;stroke-width:1.0;" width="10" x="1225" y="1506.084"/><line style="stroke:#181818;stroke-width:0.5;stroke-dasharray:5.0,5.0;" x1="96" x2="96" y1="83.6211" y2="1711.5391"/><line style="stroke:#181818;stroke-width:0.5;stroke-dasharray:5.0,5.0;" x1="442.5" x2="442.5" y1="83.6211" y2="1711.5391"/><line style="stroke:#181818;stroke-width:0.5;stroke-dasharray:5.0,5.0;" x1="669.5" x2="669.5" y1="156.7227" y2="1711.5391"/><line style="stroke:#181818;stroke-width:0.5;stroke-dasharray:5.0,5.0;" x1="858.5" x2="858.5" y1="83.6211" y2="1711.5391"/><line style="stroke:#181818;stroke-width:0.5;stroke-dasharray:5.0,5.0;" x1="965.5" x2="965.5" y1="83.6211" y2="1711.5391"/><line style="stroke:#181818;stroke-width:0.5;stroke-dasharray:5.0,5.0;" x1="1076.5" x2="1076.5" y1="83.6211" y2="1711.5391"/><line style="stroke:#181818;stroke-width:0.5;stroke-dasharray:5.0,5.0;" x1="1219.5" x2="1219.5" y1="83.6211" y2="1711.5391"/><line style="stroke:#181818;stroke-width:0.5;stroke-dasharray:5.0,5.0;" x1="1520" x2="1520" y1="1381.6289" y2="1711.5391"/><text fill="#000000" font-family="sans-serif" font-size="14" lengthAdjust="spacing" textLength="176" x="5" y="80.1074">Human Resources Manager</text><ellipse cx="96" cy="13.5" fill="#E3E3E3" rx="8" ry="8" style="stroke:#181818;stroke-width:0.5;"/><path d="M96,21.5 L96,48.5 M83,29.5 L109,29.5 M96,48.5 L83,63.5 M96,48.5 L109,63.5 " fill="none" style="stroke:#181818;stroke-width:0.5;"/><text fill="#000000" font-family="sans-serif" font-size="14" lengthAdjust="spacing" textLength="176" x="5" y="1725.6465">Human Resources Manager</text><ellipse cx="96" cy="1737.6602" fill="#E3E3E3" rx="8" ry="8" style="stroke:#181818;stroke-width:0.5;"/><path d="M96,1745.6602 L96,1772.6602 M83,1753.6602 L109,1753.6602 M96,1772.6602 L83,1787.6602 M96,1772.6602 L109,1787.6602 " fill="none" style="stroke:#181818;stroke-width:0.5;"/><rect fill="#E3E3E3" height="32.6211" rx="2.5" ry="2.5" style="stroke:#181818;stroke-width:0.5;" width="161" x="362.5" y="50"/><text fill="#000000" font-family="sans-serif" font-size="14" lengthAdjust="spacing" textLength="147" x="369.5" y="72.1074">:RegisterCollaboratorUI</text><rect fill="#E3E3E3" height="32.6211" rx="2.5" ry="2.5" style="stroke:#181818;stroke-width:0.5;" width="161" x="362.5" y="1710.5391"/><text fill="#000000" font-family="sans-serif" font-size="14" lengthAdjust="spacing" textLength="147" x="369.5" y="1732.6465">:RegisterCollaboratorUI</text><rect fill="#E3E3E3" height="32.6211" rx="2.5" ry="2.5" style="stroke:#181818;stroke-width:0.5;" width="211" x="564.5" y="1710.5391"/><text fill="#000000" font-family="sans-serif" font-size="14" lengthAdjust="spacing" textLength="197" x="571.5" y="1732.6465">:RegisterCollaboratorController</text><rect fill="#E3E3E3" height="32.6211" rx="2.5" ry="2.5" style="stroke:#181818;stroke-width:0.5;" width="97" x="810.5" y="50"/><text fill="#000000" font-family="sans-serif" font-size="14" lengthAdjust="spacing" textLength="83" x="817.5" y="72.1074">:Repositories</text><rect fill="#E3E3E3" height="32.6211" rx="2.5" ry="2.5" style="stroke:#181818;stroke-width:0.5;" width="97" x="810.5" y="1710.5391"/><text fill="#000000" font-family="sans-serif" font-size="14" lengthAdjust="spacing" textLength="83" x="817.5" y="1732.6465">:Repositories</text><rect fill="#E3E3E3" height="51.2422" rx="2.5" ry="2.5" style="stroke:#181818;stroke-width:0.5;" width="97" x="917.5" y="31.3789"/><text fill="#000000" font-family="sans-serif" font-size="14" lengthAdjust="spacing" textLength="74" x="929" y="53.4863">repositories</text><text fill="#000000" font-family="sans-serif" font-size="14" lengthAdjust="spacing" textLength="83" x="924.5" y="72.1074">:Repositories</text><rect fill="#E3E3E3" height="51.2422" rx="2.5" ry="2.5" style="stroke:#181818;stroke-width:0.5;" width="97" x="917.5" y="1710.5391"/><text fill="#000000" font-family="sans-serif" font-size="14" lengthAdjust="spacing" textLength="74" x="929" y="1732.6465">repositories</text><text fill="#000000" font-family="sans-serif" font-size="14" lengthAdjust="spacing" textLength="83" x="924.5" y="1751.2676">:Repositories</text><rect fill="#E3E3E3" height="51.2422" rx="2.5" ry="2.5" style="stroke:#181818;stroke-width:0.5;" width="105" x="1024.5" y="31.3789"/><text fill="#000000" font-family="sans-serif" font-size="14" lengthAdjust="spacing" textLength="91" x="1031.5" y="53.4863">jobRepository:</text><text fill="#000000" font-family="sans-serif" font-size="14" lengthAdjust="spacing" textLength="90" x="1032" y="72.1074">JobRepository</text><rect fill="#E3E3E3" height="51.2422" rx="2.5" ry="2.5" style="stroke:#181818;stroke-width:0.5;" width="105" x="1024.5" y="1710.5391"/><text fill="#000000" font-family="sans-serif" font-size="14" lengthAdjust="spacing" textLength="91" x="1031.5" y="1732.6465">jobRepository:</text><text fill="#000000" font-family="sans-serif" font-size="14" lengthAdjust="spacing" textLength="90" x="1032" y="1751.2676">JobRepository</text><rect fill="#E3E3E3" height="51.2422" rx="2.5" ry="2.5" style="stroke:#181818;stroke-width:0.5;" width="161" x="1139.5" y="31.3789"/><text fill="#000000" font-family="sans-serif" font-size="14" lengthAdjust="spacing" textLength="147" x="1146.5" y="53.4863">collaboratorRepository:</text><text fill="#000000" font-family="sans-serif" font-size="14" lengthAdjust="spacing" textLength="146" x="1147" y="72.1074">CollaboratorRepository</text><rect fill="#E3E3E3" height="51.2422" rx="2.5" ry="2.5" style="stroke:#181818;stroke-width:0.5;" width="161" x="1139.5" y="1710.5391"/><text fill="#000000" font-family="sans-serif" font-size="14" lengthAdjust="spacing" textLength="147" x="1146.5" y="1732.6465">collaboratorRepository:</text><text fill="#000000" font-family="sans-serif" font-size="14" lengthAdjust="spacing" textLength="146" x="1147" y="1751.2676">CollaboratorRepository</text><rect fill="#E3E3E3" height="51.2422" rx="2.5" ry="2.5" style="stroke:#181818;stroke-width:0.5;" width="96" x="1472" y="1710.5391"/><text fill="#000000" font-family="sans-serif" font-size="14" lengthAdjust="spacing" textLength="75" x="1482.5" y="1732.6465">collaborator</text><text fill="#000000" font-family="sans-serif" font-size="14" lengthAdjust="spacing" textLength="82" x="1479" y="1751.2676">:Collaborator</text><rect fill="#FFFFFF" height="1599.918" style="stroke:#181818;stroke-width:1.0;" width="10" x="91" y="93.6211"/><rect fill="#FFFFFF" height="325.2402" style="stroke:#181818;stroke-width:1.0;" width="10" x="438" y="116.9121"/><rect fill="#FFFFFF" height="31.291" style="stroke:#181818;stroke-width:1.0;" width="10" x="438" y="473.4434"/><rect fill="#FFFFFF" height="31.291" style="stroke:#181818;stroke-width:1.0;" width="10" x="438" y="587.8984"/><rect fill="#FFFFFF" height="1043.0586" style="stroke:#181818;stroke-width:1.0;" width="10" x="438" y="650.4805"/><rect fill="#FFFFFF" height="219.0371" style="stroke:#181818;stroke-width:1.0;" width="10" x="665" y="191.8242"/><rect fill="#FFFFFF" height="876.7305" style="stroke:#181818;stroke-width:1.0;" width="10" x="665" y="785.5176"/><rect fill="#FFFFFF" height="230.0371" style="stroke:#181818;stroke-width:1.0;" width="10" x="670" y="824.8086"/><rect fill="#FFFFFF" height="31.291" style="stroke:#181818;stroke-width:1.0;" width="10" x="854" y="223.1152"/><rect fill="#FFFFFF" height="31.291" style="stroke:#181818;stroke-width:1.0;" width="10" x="854" y="861.0996"/><rect fill="#FFFFFF" height="31.291" style="stroke:#181818;stroke-width:1.0;" width="10" x="854" y="1093.1367"/><rect fill="#FFFFFF" height="31.291" style="stroke:#181818;stroke-width:1.0;" width="10" x="961" y="285.6973"/><rect fill="#FFFFFF" height="31.291" style="stroke:#181818;stroke-width:1.0;" width="10" x="961" y="923.6816"/><rect fill="#FFFFFF" height="31.291" style="stroke:#181818;stroke-width:1.0;" width="10" x="961" y="1155.7188"/><rect fill="#FFFFFF" height="31.291" style="stroke:#181818;stroke-width:1.0;" width="10" x="1072" y="348.2793"/><rect fill="#FFFFFF" height="31.291" style="stroke:#181818;stroke-width:1.0;" width="10" x="1072" y="986.2637"/><rect fill="#FFFFFF" height="326.2012" style="stroke:#181818;stroke-width:1.0;" width="10" x="1215" y="1304.7559"/><rect fill="#FFFFFF" height="130.873" style="stroke:#181818;stroke-width:1.0;" width="10" x="1220" y="1461.793"/><rect fill="#FFFFFF" height="42.291" style="stroke:#181818;stroke-width:1.0;" width="10" x="1225" y="1506.084"/><polygon fill="#181818" points="426,112.9121,436,116.9121,426,120.9121,430,116.9121" style="stroke:#181818;stroke-width:1.0;"/><line style="stroke:#181818;stroke-width:1.0;" x1="101" x2="432" y1="116.9121" y2="116.9121"/><text fill="#000000" font-family="sans-serif" font-size="13" font-weight="bold" lengthAdjust="spacing" textLength="7" x="108" y="111.6494">1</text><text fill="#000000" font-family="sans-serif" font-size="13" lengthAdjust="spacing" textLength="199" x="119" y="111.6494">asks to register a new collaborator</text><polygon fill="#181818" points="552.5,144.2031,562.5,148.2031,552.5,152.2031,556.5,148.2031" style="stroke:#181818;stroke-width:1.0;"/><line style="stroke:#181818;stroke-width:1.0;" x1="448" x2="558.5" y1="148.2031" y2="148.2031"/><text fill="#000000" font-family="sans-serif" font-size="13" font-weight="bold" lengthAdjust="spacing" textLength="7" x="455" y="142.9404">2</text><text fill="#000000" font-family="sans-serif" font-size="13" lengthAdjust="spacing" textLength="36" x="466" y="142.9404">create</text><rect fill="#E3E3E3" height="32.6211" rx="2.5" ry="2.5" style="stroke:#181818;stroke-width:0.5;" width="211" x="564.5" y="124.9121"/><text fill="#000000" font-family="sans-serif" font-size="14" lengthAdjust="spacing" textLength="197" x="571.5" y="147.0195">:RegisterCollaboratorController</text><polygon fill="#181818" points="653,187.8242,663,191.8242,653,195.8242,657,191.8242" style="stroke:#181818;stroke-width:1.0;"/><line style="stroke:#181818;stroke-width:1.0;" x1="448" x2="659" y1="191.8242" y2="191.8242"/><text fill="#000000" font-family="sans-serif" font-size="13" font-weight="bold" lengthAdjust="spacing" textLength="7" x="455" y="186.5615">3</text><text fill="#000000" font-family="sans-serif" font-size="13" lengthAdjust="spacing" textLength="53" x="466" y="186.5615">getJobs()</text><polygon fill="#181818" points="842,219.1152,852,223.1152,842,227.1152,846,223.1152" style="stroke:#181818;stroke-width:1.0;"/><line style="stroke:#181818;stroke-width:1.0;" x1="675" x2="848" y1="223.1152" y2="223.1152"/><text fill="#000000" font-family="sans-serif" font-size="13" font-weight="bold" lengthAdjust="spacing" textLength="7" x="682" y="217.8525">4</text><text fill="#000000" font-family="sans-serif" font-size="13" lengthAdjust="spacing" textLength="75" x="693" y="217.8525">getInstance()</text><polygon fill="#181818" points="686,250.4063,676,254.4063,686,258.4063,682,254.4063" style="stroke:#181818;stroke-width:1.0;"/><line style="stroke:#181818;stroke-width:1.0;stroke-dasharray:2.0,2.0;" x1="680" x2="858" y1="254.4063" y2="254.4063"/><text fill="#000000" font-family="sans-serif" font-size="13" font-weight="bold" lengthAdjust="spacing" textLength="7" x="692" y="249.1436">5</text><text fill="#000000" font-family="sans-serif" font-size="13" lengthAdjust="spacing" textLength="67" x="703" y="249.1436">repositories</text><polygon fill="#181818" points="949,281.6973,959,285.6973,949,289.6973,953,285.6973" style="stroke:#181818;stroke-width:1.0;"/><line style="stroke:#181818;stroke-width:1.0;" x1="675" x2="955" y1="285.6973" y2="285.6973"/><text fill="#000000" font-family="sans-serif" font-size="13" font-weight="bold" lengthAdjust="spacing" textLength="7" x="682" y="280.4346">6</text><text fill="#000000" font-family="sans-serif" font-size="13" lengthAdjust="spacing" textLength="108" x="693" y="280.4346">getJobRepository()</text><polygon fill="#181818" points="686,312.9883,676,316.9883,686,320.9883,682,316.9883" style="stroke:#181818;stroke-width:1.0;"/><line style="stroke:#181818;stroke-width:1.0;stroke-dasharray:2.0,2.0;" x1="680" x2="965" y1="316.9883" y2="316.9883"/><text fill="#000000" font-family="sans-serif" font-size="13" font-weight="bold" lengthAdjust="spacing" textLength="7" x="692" y="311.7256">7</text><text fill="#000000" font-family="sans-serif" font-size="13" lengthAdjust="spacing" textLength="79" x="703" y="311.7256">jobRepository</text><polygon fill="#181818" points="1060,344.2793,1070,348.2793,1060,352.2793,1064,348.2793" style="stroke:#181818;stroke-width:1.0;"/><line style="stroke:#181818;stroke-width:1.0;" x1="675" x2="1066" y1="348.2793" y2="348.2793"/><text fill="#000000" font-family="sans-serif" font-size="13" font-weight="bold" lengthAdjust="spacing" textLength="7" x="682" y="343.0166">8</text><text fill="#000000" font-family="sans-serif" font-size="13" lengthAdjust="spacing" textLength="53" x="693" y="343.0166">getJobs()</text><polygon fill="#181818" points="686,375.5703,676,379.5703,686,383.5703,682,379.5703" style="stroke:#181818;stroke-width:1.0;"/><line style="stroke:#181818;stroke-width:1.0;stroke-dasharray:2.0,2.0;" x1="680" x2="1076" y1="379.5703" y2="379.5703"/><text fill="#000000" font-family="sans-serif" font-size="13" font-weight="bold" lengthAdjust="spacing" textLength="7" x="692" y="374.3076">9</text><text fill="#000000" font-family="sans-serif" font-size="13" lengthAdjust="spacing" textLength="38" x="703" y="374.3076">jobList</text><polygon fill="#181818" points="459,406.8613,449,410.8613,459,414.8613,455,410.8613" style="stroke:#181818;stroke-width:1.0;"/><line style="stroke:#181818;stroke-width:1.0;stroke-dasharray:2.0,2.0;" x1="453" x2="669" y1="410.8613" y2="410.8613"/><text fill="#000000" font-family="sans-serif" font-size="13" font-weight="bold" lengthAdjust="spacing" textLength="14" x="465" y="405.5986">10</text><text fill="#000000" font-family="sans-serif" font-size="13" lengthAdjust="spacing" textLength="38" x="483" y="405.5986">jobList</text><polygon fill="#181818" points="112,438.1523,102,442.1523,112,446.1523,108,442.1523" style="stroke:#181818;stroke-width:1.0;"/><line style="stroke:#181818;stroke-width:1.0;stroke-dasharray:2.0,2.0;" x1="106" x2="442" y1="442.1523" y2="442.1523"/><text fill="#000000" font-family="sans-serif" font-size="13" font-weight="bold" lengthAdjust="spacing" textLength="14" x="118" y="436.8896">11</text><text fill="#000000" font-family="sans-serif" font-size="13" lengthAdjust="spacing" textLength="215" x="136" y="436.8896">shows job list and asks to select one</text><polygon fill="#181818" points="426,469.4434,436,473.4434,426,477.4434,430,473.4434" style="stroke:#181818;stroke-width:1.0;"/><line style="stroke:#181818;stroke-width:1.0;" x1="101" x2="432" y1="473.4434" y2="473.4434"/><text fill="#000000" font-family="sans-serif" font-size="13" font-weight="bold" lengthAdjust="spacing" textLength="14" x="108" y="468.1807">12</text><text fill="#000000" font-family="sans-serif" font-size="13" lengthAdjust="spacing" textLength="74" x="126" y="468.1807">selects a job</text><polygon fill="#181818" points="112,500.7344,102,504.7344,112,508.7344,108,504.7344" style="stroke:#181818;stroke-width:1.0;"/><line style="stroke:#181818;stroke-width:1.0;stroke-dasharray:2.0,2.0;" x1="106" x2="442" y1="504.7344" y2="504.7344"/><text fill="#000000" font-family="sans-serif" font-size="13" font-weight="bold" lengthAdjust="spacing" textLength="14" x="118" y="499.4717">13</text><text fill="#000000" font-family="sans-serif" font-size="13" lengthAdjust="spacing" textLength="79" x="136" y="499.4717">requests data</text><polygon fill="#181818" points="426,583.8984,436,587.8984,426,591.8984,430,587.8984" style="stroke:#181818;stroke-width:1.0;"/><line style="stroke:#181818;stroke-width:1.0;" x1="101" x2="432" y1="587.8984" y2="587.8984"/><text fill="#000000" font-family="sans-serif" font-size="13" font-weight="bold" lengthAdjust="spacing" textLength="14" x="108" y="556.6992">14</text><text fill="#000000" font-family="sans-serif" font-size="13" lengthAdjust="spacing" textLength="246" x="126" y="530.7627">types requested data (i.e. name, birthdate,</text><text fill="#000000" font-family="sans-serif" font-size="13" lengthAdjust="spacing" textLength="185" x="126" y="548.0537">admission date, address, phone</text><text fill="#000000" font-family="sans-serif" font-size="13" lengthAdjust="spacing" textLength="191" x="126" y="565.3447">number, email, taxpayer number,</text><text fill="#000000" font-family="sans-serif" font-size="13" lengthAdjust="spacing" textLength="300" x="126" y="582.6357">identification document type and respective number)</text><polygon fill="#181818" points="112,615.1895,102,619.1895,112,623.1895,108,619.1895" style="stroke:#181818;stroke-width:1.0;"/><line style="stroke:#181818;stroke-width:1.0;stroke-dasharray:2.0,2.0;" x1="106" x2="442" y1="619.1895" y2="619.1895"/><text fill="#000000" font-family="sans-serif" font-size="13" font-weight="bold" lengthAdjust="spacing" textLength="14" x="118" y="613.9268">15</text><text fill="#000000" font-family="sans-serif" font-size="13" lengthAdjust="spacing" textLength="226" x="136" y="613.9268">shows selected job and requested data</text><polygon fill="#181818" points="426,646.4805,436,650.4805,426,654.4805,430,650.4805" style="stroke:#181818;stroke-width:1.0;"/><line style="stroke:#181818;stroke-width:1.0;" x1="101" x2="432" y1="650.4805" y2="650.4805"/><text fill="#000000" font-family="sans-serif" font-size="13" font-weight="bold" lengthAdjust="spacing" textLength="14" x="108" y="645.2178">16</text><text fill="#000000" font-family="sans-serif" font-size="13" lengthAdjust="spacing" textLength="75" x="126" y="645.2178">submits data</text><polygon fill="#181818" points="653,781.5176,663,785.5176,653,789.5176,657,785.5176" style="stroke:#181818;stroke-width:1.0;"/><line style="stroke:#181818;stroke-width:1.0;" x1="448" x2="659" y1="785.5176" y2="785.5176"/><text fill="#000000" font-family="sans-serif" font-size="13" font-weight="bold" lengthAdjust="spacing" textLength="14" x="455" y="728.3818">17</text><text fill="#000000" font-family="sans-serif" font-size="13" lengthAdjust="spacing" textLength="152" x="473" y="676.5088">registerCollaborator(name,</text><text fill="#000000" font-family="sans-serif" font-size="13" lengthAdjust="spacing" textLength="148" x="473" y="693.7998">birthdate, admissionDate,</text><text fill="#000000" font-family="sans-serif" font-size="13" lengthAdjust="spacing" textLength="138" x="473" y="711.0908">address, phoneNumber,</text><text fill="#000000" font-family="sans-serif" font-size="13" lengthAdjust="spacing" textLength="138" x="473" y="728.3818">email, taxpayerNumber,</text><text fill="#000000" font-family="sans-serif" font-size="13" lengthAdjust="spacing" textLength="163" x="473" y="745.6729">identificationDocumentType,</text><text fill="#000000" font-family="sans-serif" font-size="13" lengthAdjust="spacing" textLength="180" x="473" y="762.9639">identificationDocumentNumber,</text><text fill="#000000" font-family="sans-serif" font-size="13" lengthAdjust="spacing" textLength="55" x="473" y="780.2549">jobName)</text><line style="stroke:#181818;stroke-width:1.0;" x1="675" x2="722" y1="811.8086" y2="811.8086"/><line style="stroke:#181818;stroke-width:1.0;" x1="722" x2="722" y1="811.8086" y2="824.8086"/><line style="stroke:#181818;stroke-width:1.0;" x1="681" x2="722" y1="824.8086" y2="824.8086"/><polygon fill="#181818" points="691,820.8086,681,824.8086,691,828.8086,687,824.8086" style="stroke:#181818;stroke-width:1.0;"/><text fill="#000000" font-family="sans-serif" font-size="13" font-weight="bold" lengthAdjust="spacing" textLength="14" x="687" y="806.5459">18</text><text fill="#000000" font-family="sans-serif" font-size="13" lengthAdjust="spacing" textLength="147" x="705" y="806.5459">getJobByName(jobName)</text><polygon fill="#181818" points="842,857.0996,852,861.0996,842,865.0996,846,861.0996" style="stroke:#181818;stroke-width:1.0;"/><line style="stroke:#181818;stroke-width:1.0;" x1="680" x2="848" y1="861.0996" y2="861.0996"/><text fill="#000000" font-family="sans-serif" font-size="13" font-weight="bold" lengthAdjust="spacing" textLength="14" x="687" y="855.8369">19</text><text fill="#000000" font-family="sans-serif" font-size="13" lengthAdjust="spacing" textLength="75" x="705" y="855.8369">getInstance()</text><polygon fill="#181818" points="691,888.3906,681,892.3906,691,896.3906,687,892.3906" style="stroke:#181818;stroke-width:1.0;"/><line style="stroke:#181818;stroke-width:1.0;stroke-dasharray:2.0,2.0;" x1="685" x2="858" y1="892.3906" y2="892.3906"/><text fill="#000000" font-family="sans-serif" font-size="13" font-weight="bold" lengthAdjust="spacing" textLength="14" x="697" y="887.1279">20</text><text fill="#000000" font-family="sans-serif" font-size="13" lengthAdjust="spacing" textLength="67" x="715" y="887.1279">repositories</text><polygon fill="#181818" points="949,919.6816,959,923.6816,949,927.6816,953,923.6816" style="stroke:#181818;stroke-width:1.0;"/><line style="stroke:#181818;stroke-width:1.0;" x1="680" x2="955" y1="923.6816" y2="923.6816"/><text fill="#000000" font-family="sans-serif" font-size="13" font-weight="bold" lengthAdjust="spacing" textLength="14" x="687" y="918.4189">21</text><text fill="#000000" font-family="sans-serif" font-size="13" lengthAdjust="spacing" textLength="108" x="705" y="918.4189">getJobRepository()</text><polygon fill="#181818" points="691,950.9727,681,954.9727,691,958.9727,687,954.9727" style="stroke:#181818;stroke-width:1.0;"/><line style="stroke:#181818;stroke-width:1.0;" x1="685" x2="965" y1="954.9727" y2="954.9727"/><text fill="#000000" font-family="sans-serif" font-size="13" font-weight="bold" lengthAdjust="spacing" textLength="14" x="697" y="949.71">22</text><text fill="#000000" font-family="sans-serif" font-size="13" lengthAdjust="spacing" textLength="79" x="715" y="949.71">jobRepository</text><polygon fill="#181818" points="1060,982.2637,1070,986.2637,1060,990.2637,1064,986.2637" style="stroke:#181818;stroke-width:1.0;"/><line style="stroke:#181818;stroke-width:1.0;" x1="680" x2="1066" y1="986.2637" y2="986.2637"/><text fill="#000000" font-family="sans-serif" font-size="13" font-weight="bold" lengthAdjust="spacing" textLength="14" x="687" y="981.001">23</text><text fill="#000000" font-family="sans-serif" font-size="13" lengthAdjust="spacing" textLength="147" x="705" y="981.001">getJobByName(jobName)</text><polygon fill="#181818" points="691,1013.5547,681,1017.5547,691,1021.5547,687,1017.5547" style="stroke:#181818;stroke-width:1.0;"/><line style="stroke:#181818;stroke-width:1.0;stroke-dasharray:2.0,2.0;" x1="685" x2="1076" y1="1017.5547" y2="1017.5547"/><text fill="#000000" font-family="sans-serif" font-size="13" font-weight="bold" lengthAdjust="spacing" textLength="14" x="697" y="1012.292">24</text><text fill="#000000" font-family="sans-serif" font-size="13" lengthAdjust="spacing" textLength="17" x="715" y="1012.292">job</text><line style="stroke:#181818;stroke-width:1.0;stroke-dasharray:2.0,2.0;" x1="680" x2="722" y1="1053.8457" y2="1053.8457"/><line style="stroke:#181818;stroke-width:1.0;stroke-dasharray:2.0,2.0;" x1="722" x2="722" y1="1053.8457" y2="1066.8457"/><line style="stroke:#181818;stroke-width:1.0;stroke-dasharray:2.0,2.0;" x1="675" x2="722" y1="1066.8457" y2="1066.8457"/><polygon fill="#181818" points="685,1062.8457,675,1066.8457,685,1070.8457,681,1066.8457" style="stroke:#181818;stroke-width:1.0;"/><text fill="#000000" font-family="sans-serif" font-size="13" font-weight="bold" lengthAdjust="spacing" textLength="14" x="687" y="1048.583">25</text><text fill="#000000" font-family="sans-serif" font-size="13" lengthAdjust="spacing" textLength="17" x="705" y="1048.583">job</text><polygon fill="#181818" points="842,1089.1367,852,1093.1367,842,1097.1367,846,1093.1367" style="stroke:#181818;stroke-width:1.0;"/><line style="stroke:#181818;stroke-width:1.0;" x1="675" x2="848" y1="1093.1367" y2="1093.1367"/><text fill="#000000" font-family="sans-serif" font-size="13" font-weight="bold" lengthAdjust="spacing" textLength="14" x="682" y="1087.874">26</text><text fill="#000000" font-family="sans-serif" font-size="13" lengthAdjust="spacing" textLength="75" x="700" y="1087.874">getInstance()</text><polygon fill="#181818" points="686,1120.4277,676,1124.4277,686,1128.4277,682,1124.4277" style="stroke:#181818;stroke-width:1.0;"/><line style="stroke:#181818;stroke-width:1.0;stroke-dasharray:2.0,2.0;" x1="680" x2="858" y1="1124.4277" y2="1124.4277"/><text fill="#000000" font-family="sans-serif" font-size="13" font-weight="bold" lengthAdjust="spacing" textLength="14" x="692" y="1119.165">27</text><text fill="#000000" font-family="sans-serif" font-size="13" lengthAdjust="spacing" textLength="67" x="710" y="1119.165">repositories</text><polygon fill="#181818" points="949,1151.7188,959,1155.7188,949,1159.7188,953,1155.7188" style="stroke:#181818;stroke-width:1.0;"/><line style="stroke:#181818;stroke-width:1.0;" x1="675" x2="955" y1="1155.7188" y2="1155.7188"/><text fill="#000000" font-family="sans-serif" font-size="13" font-weight="bold" lengthAdjust="spacing" textLength="14" x="682" y="1150.4561">28</text><text fill="#000000" font-family="sans-serif" font-size="13" lengthAdjust="spacing" textLength="157" x="700" y="1150.4561">getCollaboratorRepository()</text><polygon fill="#181818" points="686,1183.0098,676,1187.0098,686,1191.0098,682,1187.0098" style="stroke:#181818;stroke-width:1.0;"/><line style="stroke:#181818;stroke-width:1.0;stroke-dasharray:2.0,2.0;" x1="680" x2="965" y1="1187.0098" y2="1187.0098"/><text fill="#000000" font-family="sans-serif" font-size="13" font-weight="bold" lengthAdjust="spacing" textLength="14" x="692" y="1181.7471">29</text><text fill="#000000" font-family="sans-serif" font-size="13" lengthAdjust="spacing" textLength="129" x="710" y="1181.7471">collaboratorRepository</text><polygon fill="#181818" points="1203,1300.7559,1213,1304.7559,1203,1308.7559,1207,1304.7559" style="stroke:#181818;stroke-width:1.0;"/><line style="stroke:#181818;stroke-width:1.0;" x1="675" x2="1209" y1="1304.7559" y2="1304.7559"/><text fill="#000000" font-family="sans-serif" font-size="13" font-weight="bold" lengthAdjust="spacing" textLength="14" x="682" y="1256.2656">30</text><text fill="#000000" font-family="sans-serif" font-size="13" lengthAdjust="spacing" textLength="152" x="700" y="1213.0381">registerCollaborator(name,</text><text fill="#000000" font-family="sans-serif" font-size="13" lengthAdjust="spacing" textLength="148" x="700" y="1230.3291">birthdate, admissionDate,</text><text fill="#000000" font-family="sans-serif" font-size="13" lengthAdjust="spacing" textLength="138" x="700" y="1247.6201">address, phoneNumber,</text><text fill="#000000" font-family="sans-serif" font-size="13" lengthAdjust="spacing" textLength="138" x="700" y="1264.9111">email, taxpayerNumber,</text><text fill="#000000" font-family="sans-serif" font-size="13" lengthAdjust="spacing" textLength="163" x="700" y="1282.2021">identificationDocumentType,</text><text fill="#000000" font-family="sans-serif" font-size="13" lengthAdjust="spacing" textLength="205" x="700" y="1299.4932">identificationDocumentNumber, job)</text><polygon fill="#181818" points="1460,1418.502,1470,1422.502,1460,1426.502,1464,1422.502" style="stroke:#181818;stroke-width:1.0;"/><line style="stroke:#181818;stroke-width:1.0;" x1="1225" x2="1466" y1="1422.502" y2="1422.502"/><text fill="#000000" font-family="sans-serif" font-size="13" font-weight="bold" lengthAdjust="spacing" textLength="14" x="1232" y="1374.0117">31</text><text fill="#000000" font-family="sans-serif" font-size="13" lengthAdjust="spacing" textLength="76" x="1250" y="1330.7842">create(name,</text><text fill="#000000" font-family="sans-serif" font-size="13" lengthAdjust="spacing" textLength="148" x="1250" y="1348.0752">birthdate, admissionDate,</text><text fill="#000000" font-family="sans-serif" font-size="13" lengthAdjust="spacing" textLength="138" x="1250" y="1365.3662">address, phoneNumber,</text><text fill="#000000" font-family="sans-serif" font-size="13" lengthAdjust="spacing" textLength="138" x="1250" y="1382.6572">email, taxpayerNumber,</text><text fill="#000000" font-family="sans-serif" font-size="13" lengthAdjust="spacing" textLength="163" x="1250" y="1399.9482">identificationDocumentType,</text><text fill="#000000" font-family="sans-serif" font-size="13" lengthAdjust="spacing" textLength="205" x="1250" y="1417.2393">identificationDocumentNumber, job)</text><rect fill="#E3E3E3" height="51.2422" rx="2.5" ry="2.5" style="stroke:#181818;stroke-width:0.5;" width="96" x="1472" y="1368.2598"/><text fill="#000000" font-family="sans-serif" font-size="14" lengthAdjust="spacing" textLength="75" x="1482.5" y="1390.3672">collaborator</text><text fill="#000000" font-family="sans-serif" font-size="14" lengthAdjust="spacing" textLength="82" x="1479" y="1408.9883">:Collaborator</text><line style="stroke:#181818;stroke-width:1.0;" x1="1225" x2="1272" y1="1448.793" y2="1448.793"/><line style="stroke:#181818;stroke-width:1.0;" x1="1272" x2="1272" y1="1448.793" y2="1461.793"/><line style="stroke:#181818;stroke-width:1.0;" x1="1231" x2="1272" y1="1461.793" y2="1461.793"/><polygon fill="#181818" points="1241,1457.793,1231,1461.793,1241,1465.793,1237,1461.793" style="stroke:#181818;stroke-width:1.0;"/><text fill="#000000" font-family="sans-serif" font-size="13" font-weight="bold" lengthAdjust="spacing" textLength="14" x="1237" y="1443.5303">32</text><text fill="#000000" font-family="sans-serif" font-size="13" lengthAdjust="spacing" textLength="165" x="1255" y="1443.5303">addCollaborator(collaborator)</text><line style="stroke:#181818;stroke-width:1.0;" x1="1230" x2="1277" y1="1493.084" y2="1493.084"/><line style="stroke:#181818;stroke-width:1.0;" x1="1277" x2="1277" y1="1493.084" y2="1506.084"/><line style="stroke:#181818;stroke-width:1.0;" x1="1236" x2="1277" y1="1506.084" y2="1506.084"/><polygon fill="#181818" points="1246,1502.084,1236,1506.084,1246,1510.084,1242,1506.084" style="stroke:#181818;stroke-width:1.0;"/><text fill="#000000" font-family="sans-serif" font-size="13" font-weight="bold" lengthAdjust="spacing" textLength="14" x="1242" y="1487.8213">33</text><text fill="#000000" font-family="sans-serif" font-size="13" lengthAdjust="spacing" textLength="187" x="1260" y="1487.8213">validateCollaborator(collaborator)</text><line style="stroke:#181818;stroke-width:1.0;stroke-dasharray:2.0,2.0;" x1="1235" x2="1277" y1="1547.375" y2="1547.375"/><line style="stroke:#181818;stroke-width:1.0;stroke-dasharray:2.0,2.0;" x1="1277" x2="1277" y1="1547.375" y2="1560.375"/><line style="stroke:#181818;stroke-width:1.0;stroke-dasharray:2.0,2.0;" x1="1230" x2="1277" y1="1560.375" y2="1560.375"/><polygon fill="#181818" points="1240,1556.375,1230,1560.375,1240,1564.375,1236,1560.375" style="stroke:#181818;stroke-width:1.0;"/><text fill="#000000" font-family="sans-serif" font-size="13" font-weight="bold" lengthAdjust="spacing" textLength="14" x="1242" y="1542.1123">34</text><text fill="#000000" font-family="sans-serif" font-size="13" lengthAdjust="spacing" textLength="4" x="1260" y="1542.1123">&#160;</text><line style="stroke:#181818;stroke-width:1.0;stroke-dasharray:2.0,2.0;" x1="1230" x2="1272" y1="1591.666" y2="1591.666"/><line style="stroke:#181818;stroke-width:1.0;stroke-dasharray:2.0,2.0;" x1="1272" x2="1272" y1="1591.666" y2="1604.666"/><line style="stroke:#181818;stroke-width:1.0;stroke-dasharray:2.0,2.0;" x1="1225" x2="1272" y1="1604.666" y2="1604.666"/><polygon fill="#181818" points="1235,1600.666,1225,1604.666,1235,1608.666,1231,1604.666" style="stroke:#181818;stroke-width:1.0;"/><text fill="#000000" font-family="sans-serif" font-size="13" font-weight="bold" lengthAdjust="spacing" textLength="14" x="1237" y="1586.4033">35</text><text fill="#000000" font-family="sans-serif" font-size="13" lengthAdjust="spacing" textLength="4" x="1255" y="1586.4033">&#160;</text><polygon fill="#181818" points="686,1626.957,676,1630.957,686,1634.957,682,1630.957" style="stroke:#181818;stroke-width:1.0;"/><line style="stroke:#181818;stroke-width:1.0;stroke-dasharray:2.0,2.0;" x1="680" x2="1219" y1="1630.957" y2="1630.957"/><text fill="#000000" font-family="sans-serif" font-size="13" font-weight="bold" lengthAdjust="spacing" textLength="14" x="692" y="1625.6943">36</text><text fill="#000000" font-family="sans-serif" font-size="13" lengthAdjust="spacing" textLength="67" x="710" y="1625.6943">collaborator</text><polygon fill="#181818" points="459,1658.248,449,1662.248,459,1666.248,455,1662.248" style="stroke:#181818;stroke-width:1.0;"/><line style="stroke:#181818;stroke-width:1.0;stroke-dasharray:2.0,2.0;" x1="453" x2="669" y1="1662.248" y2="1662.248"/><text fill="#000000" font-family="sans-serif" font-size="13" font-weight="bold" lengthAdjust="spacing" textLength="14" x="465" y="1656.9854">37</text><text fill="#000000" font-family="sans-serif" font-size="13" lengthAdjust="spacing" textLength="67" x="483" y="1656.9854">collaborator</text><polygon fill="#181818" points="107,1689.5391,97,1693.5391,107,1697.5391,103,1693.5391" style="stroke:#181818;stroke-width:1.0;"/><line style="stroke:#181818;stroke-width:1.0;stroke-dasharray:2.0,2.0;" x1="101" x2="442" y1="1693.5391" y2="1693.5391"/><text fill="#000000" font-family="sans-serif" font-size="13" font-weight="bold" lengthAdjust="spacing" textLength="14" x="113" y="1688.2764">38</text><text fill="#000000" font-family="sans-serif" font-size="13" lengthAdjust="spacing" textLength="158" x="131" y="1688.2764">displays operation success</text><!--SRC=[xLV1Kjim4BthAtQuD6427v13PsWuG2VGJe1RBegz92gsv4eoaB_lMeuTAP5Dce4PPbhVBEs-tNtxj9RDav05rpo7N4cLhBJA4QmkaPbsf-394r_YdLrd21eJo-KoymtCYgVgHSWbFFBC86Eyj4gM-G8rOrzM8aLuLCekr2lZYLKQJgxAd4kOeL6bJj303PSKGPy0Dt0rks64QqKY2Yujd8ndk1J6efweBECBfJbXF5mxuuVh0smdIbfDxvi0a_lPTC-hK4QGgK3ZRDg5zPseggLwGXVjUSpbFi3FwSLzwF5BBRQeuxdyxhyxds0bT4wySWAKINIZhZEwrOrBPVWkDSQFwVJY6wlw9fwvHTST1fk7Nk3iApK1ncJyPC0g4aZT0E0WyGNy05l75exwrovM3q4HODMXqrC2JJIILPS96IpH4cjcC0nCMdZNwc2hUfmlOKIQN4DUIqCYJt07De2EAMJFkdfYKSus5Op1rz6UUuf_5wufh19VIyxMiwySfzTe_Wvict0WuxwCuuXDYa5YdOqCKWoFHpJN4FLignFAUagoxClt3VWwyKRjCJmFQrztbMh9kJenOngOwiLK690H272PjiV7O4OJ5fH45i5jZej_y6eFG-UD05ddwGeIqFYxH4DEARUS7H34hWiQqnitJ9qV3CGvdeFaEOvW8RHTqIgEvfAdkJ16aCxT0l0qrMZC28eLrJMNzQTX19XpaOt0yjU2hsbYRDRdahuOqef7aN3hK5HIvhJYid1i4Lo1LRwuSHeUM7ZDV4qPbL6reCRp2pk445CkSk4Js1cxrQ2EV9e6ZhsvtD87BNkN3Pi-UxSDHplatSQvkznGTq_CTMwslaJ7BUKpP0SCqkOW1uFusxho7-pX_1_A7pAK_V7sSKEvhwdlEQ0F7yunv7O-Tm3sJkT_I7pnM-5nAjoz6yHlgUnWBROp9NxR_VGJj19Trz2BKxFViAYT8yLTnKzFcrlnvoxyZLew6am91xtr1JLah5kZaxULTtnMppmJ5S4zgSK27PDSNuAT6KQH_7bteFRU9_WHWVk2rjCy_XjvH3Zl6h-3slUnYD_anv0AKsHyRK0LgElBgYcJXCvSx0xflRhVw3y0]--></g></svg>