<?xml version="1.0" encoding="us-ascii" standalone="no"?><svg xmlns="http://www.w3.org/2000/svg" xmlns:xlink="http://www.w3.org/1999/xlink" contentStyleType="text/css" height="650px" preserveAspectRatio="none" style="width:624px;height:650px;background:#FFFFFF;" version="1.1" viewBox="0 0 624 650" width="624.5px" zoomAndPan="magnify"><defs/><g><rect fill="#FFFFFF" height="553.0967" style="stroke:#181818;stroke-width:0.5;" width="5" x="45.5" y="46.8105"/><rect fill="#FFFFFF" height="100.8535" style="stroke:#181818;stroke-width:0.5;" width="5" x="215.5" y="58.4561"/><rect fill="#FFFFFF" height="15.6455" style="stroke:#181818;stroke-width:0.5;" width="5" x="215.5" y="174.9551"/><rect fill="#FFFFFF" height="15.6455" style="stroke:#181818;stroke-width:0.5;" width="5" x="215.5" y="232.1826"/><rect fill="#FFFFFF" height="336.4336" style="stroke:#181818;stroke-width:0.5;" width="5" x="215.5" y="263.4736"/><rect fill="#FFFFFF" height="47.752" style="stroke:#181818;stroke-width:0.5;" width="5" x="329" y="95.9121"/><rect fill="#FFFFFF" height="253.2695" style="stroke:#181818;stroke-width:0.5;" width="5" x="329" y="330.9922"/><rect fill="#FFFFFF" height="53.252" style="stroke:#181818;stroke-width:0.5;" width="5" x="331.5" y="350.6377"/><rect fill="#FFFFFF" height="15.6455" style="stroke:#181818;stroke-width:0.5;" width="5" x="454.5" y="423.0352"/><rect fill="#FFFFFF" height="15.6455" style="stroke:#181818;stroke-width:0.5;" width="5" x="508" y="454.3262"/><rect fill="#FFFFFF" height="39.7715" style="stroke:#181818;stroke-width:0.5;" width="5" x="577.5" y="528.8447"/><line style="stroke:#181818;stroke-width:0.25;stroke-dasharray:5.0,5.0;" x1="48" x2="48" y1="41.8105" y2="608.9072"/><line style="stroke:#181818;stroke-width:0.25;stroke-dasharray:5.0,5.0;" x1="217.75" x2="217.75" y1="41.8105" y2="608.9072"/><line style="stroke:#181818;stroke-width:0.25;stroke-dasharray:5.0,5.0;" x1="331.25" x2="331.25" y1="78.3613" y2="608.9072"/><line style="stroke:#181818;stroke-width:0.25;stroke-dasharray:5.0,5.0;" x1="456.75" x2="456.75" y1="41.8105" y2="608.9072"/><line style="stroke:#181818;stroke-width:0.25;stroke-dasharray:5.0,5.0;" x1="510.25" x2="510.25" y1="41.8105" y2="608.9072"/><line style="stroke:#181818;stroke-width:0.25;stroke-dasharray:5.0,5.0;" x1="579.75" x2="579.75" y1="41.8105" y2="608.9072"/><text fill="#000000" font-family="sans-serif" font-size="7" lengthAdjust="spacing" textLength="88" x="2.5" y="40.0537">Human Resources Manager</text><ellipse cx="48" cy="6.75" fill="#E3E3E3" rx="4" ry="4" style="stroke:#181818;stroke-width:0.25;"/><path d="M48,10.75 L48,24.25 M41.5,14.75 L54.5,14.75 M48,24.25 L41.5,31.75 M48,24.25 L54.5,31.75 " fill="none" style="stroke:#181818;stroke-width:0.25;"/><text fill="#000000" font-family="sans-serif" font-size="7" lengthAdjust="spacing" textLength="88" x="2.5" y="615.9609">Human Resources Manager</text><ellipse cx="48" cy="621.9678" fill="#E3E3E3" rx="4" ry="4" style="stroke:#181818;stroke-width:0.25;"/><path d="M48,625.9678 L48,639.4678 M41.5,629.9678 L54.5,629.9678 M48,639.4678 L41.5,646.9678 M48,639.4678 L54.5,646.9678 " fill="none" style="stroke:#181818;stroke-width:0.25;"/><rect fill="#E3E3E3" height="16.3105" rx="1.25" ry="1.25" style="stroke:#181818;stroke-width:0.25;" width="80.5" x="177.75" y="25"/><text fill="#000000" font-family="sans-serif" font-size="7" lengthAdjust="spacing" textLength="73.5" x="181.25" y="36.0537">:RegisterCollaboratorUI</text><rect fill="#E3E3E3" height="16.3105" rx="1.25" ry="1.25" style="stroke:#181818;stroke-width:0.25;" width="80.5" x="177.75" y="608.4072"/><text fill="#000000" font-family="sans-serif" font-size="7" lengthAdjust="spacing" textLength="73.5" x="181.25" y="619.4609">:RegisterCollaboratorUI</text><rect fill="#E3E3E3" height="16.3105" rx="1.25" ry="1.25" style="stroke:#181818;stroke-width:0.25;" width="105.5" x="278.75" y="608.4072"/><text fill="#000000" font-family="sans-serif" font-size="7" lengthAdjust="spacing" textLength="98.5" x="282.25" y="619.4609">:RegisterCollaboratorController</text><rect fill="#E3E3E3" height="16.3105" rx="1.25" ry="1.25" style="stroke:#181818;stroke-width:0.25;" width="48.5" x="432.75" y="25"/><text fill="#000000" font-family="sans-serif" font-size="7" lengthAdjust="spacing" textLength="41.5" x="436.25" y="36.0537">:Repositories</text><rect fill="#E3E3E3" height="16.3105" rx="1.25" ry="1.25" style="stroke:#181818;stroke-width:0.25;" width="48.5" x="432.75" y="608.4072"/><text fill="#000000" font-family="sans-serif" font-size="7" lengthAdjust="spacing" textLength="41.5" x="436.25" y="619.4609">:Repositories</text><rect fill="#E3E3E3" height="25.6211" rx="1.25" ry="1.25" style="stroke:#181818;stroke-width:0.25;" width="48.5" x="486.25" y="15.6895"/><text fill="#000000" font-family="sans-serif" font-size="7" lengthAdjust="spacing" textLength="37" x="492" y="26.7432">repositories</text><text fill="#000000" font-family="sans-serif" font-size="7" lengthAdjust="spacing" textLength="41.5" x="489.75" y="36.0537">:Repositories</text><rect fill="#E3E3E3" height="25.6211" rx="1.25" ry="1.25" style="stroke:#181818;stroke-width:0.25;" width="48.5" x="486.25" y="608.4072"/><text fill="#000000" font-family="sans-serif" font-size="7" lengthAdjust="spacing" textLength="37" x="492" y="619.4609">repositories</text><text fill="#000000" font-family="sans-serif" font-size="7" lengthAdjust="spacing" textLength="41.5" x="489.75" y="628.7715">:Repositories</text><rect fill="#E3E3E3" height="25.6211" rx="1.25" ry="1.25" style="stroke:#181818;stroke-width:0.25;" width="80.5" x="539.75" y="15.6895"/><text fill="#000000" font-family="sans-serif" font-size="7" lengthAdjust="spacing" textLength="73.5" x="543.25" y="26.7432">collaboratorRepository:</text><text fill="#000000" font-family="sans-serif" font-size="7" lengthAdjust="spacing" textLength="73" x="543.5" y="36.0537">CollaboratorRepository</text><rect fill="#E3E3E3" height="25.6211" rx="1.25" ry="1.25" style="stroke:#181818;stroke-width:0.25;" width="80.5" x="539.75" y="608.4072"/><text fill="#000000" font-family="sans-serif" font-size="7" lengthAdjust="spacing" textLength="73.5" x="543.25" y="619.4609">collaboratorRepository:</text><text fill="#000000" font-family="sans-serif" font-size="7" lengthAdjust="spacing" textLength="73" x="543.5" y="628.7715">CollaboratorRepository</text><rect fill="#FFFFFF" height="553.0967" style="stroke:#181818;stroke-width:0.5;" width="5" x="45.5" y="46.8105"/><rect fill="#FFFFFF" height="100.8535" style="stroke:#181818;stroke-width:0.5;" width="5" x="215.5" y="58.4561"/><rect fill="#FFFFFF" height="15.6455" style="stroke:#181818;stroke-width:0.5;" width="5" x="215.5" y="174.9551"/><rect fill="#FFFFFF" height="15.6455" style="stroke:#181818;stroke-width:0.5;" width="5" x="215.5" y="232.1826"/><rect fill="#FFFFFF" height="336.4336" style="stroke:#181818;stroke-width:0.5;" width="5" x="215.5" y="263.4736"/><rect fill="#FFFFFF" height="47.752" style="stroke:#181818;stroke-width:0.5;" width="5" x="329" y="95.9121"/><rect fill="#FFFFFF" height="253.2695" style="stroke:#181818;stroke-width:0.5;" width="5" x="329" y="330.9922"/><rect fill="#FFFFFF" height="53.252" style="stroke:#181818;stroke-width:0.5;" width="5" x="331.5" y="350.6377"/><rect fill="#FFFFFF" height="15.6455" style="stroke:#181818;stroke-width:0.5;" width="5" x="454.5" y="423.0352"/><rect fill="#FFFFFF" height="15.6455" style="stroke:#181818;stroke-width:0.5;" width="5" x="508" y="454.3262"/><rect fill="#FFFFFF" height="39.7715" style="stroke:#181818;stroke-width:0.5;" width="5" x="577.5" y="528.8447"/><polygon fill="#181818" points="209.5,56.4561,214.5,58.4561,209.5,60.4561,211.5,58.4561" style="stroke:#181818;stroke-width:0.5;"/><line style="stroke:#181818;stroke-width:0.5;" x1="50.5" x2="212.5" y1="58.4561" y2="58.4561"/><text fill="#000000" font-family="sans-serif" font-size="6.5" font-weight="bold" lengthAdjust="spacing" textLength="3.5" x="54" y="55.8247">1</text><text fill="#000000" font-family="sans-serif" font-size="6.5" lengthAdjust="spacing" textLength="99.5" x="59.5" y="55.8247">asks to register a new collaborator</text><polygon fill="#181818" points="272.75,72.1016,277.75,74.1016,272.75,76.1016,274.75,74.1016" style="stroke:#181818;stroke-width:0.5;"/><line style="stroke:#181818;stroke-width:0.5;" x1="220.5" x2="275.75" y1="74.1016" y2="74.1016"/><text fill="#000000" font-family="sans-serif" font-size="6.5" font-weight="bold" lengthAdjust="spacing" textLength="3.5" x="224" y="71.4702">2</text><text fill="#000000" font-family="sans-serif" font-size="6.5" lengthAdjust="spacing" textLength="18" x="229.5" y="71.4702">create</text><rect fill="#E3E3E3" height="16.3105" rx="1.25" ry="1.25" style="stroke:#181818;stroke-width:0.25;" width="105.5" x="278.75" y="62.4561"/><text fill="#000000" font-family="sans-serif" font-size="7" lengthAdjust="spacing" textLength="98.5" x="282.25" y="73.5098">:RegisterCollaboratorController</text><polygon fill="#181818" points="323,93.9121,328,95.9121,323,97.9121,325,95.9121" style="stroke:#181818;stroke-width:0.5;"/><line style="stroke:#181818;stroke-width:0.5;" x1="220.5" x2="326" y1="95.9121" y2="95.9121"/><text fill="#000000" font-family="sans-serif" font-size="6.5" font-weight="bold" lengthAdjust="spacing" textLength="3.5" x="224" y="93.2808">3</text><text fill="#000000" font-family="sans-serif" font-size="6.5" lengthAdjust="spacing" textLength="26.5" x="229.5" y="93.2808">getJobs()</text><rect fill="none" height="29.6064" style="stroke:#000000;stroke-width:0.75;" width="108.5" x="277.25" y="99.9121"/><path d="M277.25,99.9121 L308.25,99.9121 L308.25,104.4121 L303.25,109.4121 L277.25,109.4121 L277.25,99.9121 " fill="#EEEEEE" style="stroke:#000000;stroke-width:1.0;"/><text fill="#000000" font-family="sans-serif" font-size="6.5" font-weight="bold" lengthAdjust="spacing" textLength="8.5" x="283.75" y="107.9263">ref</text><text fill="#000000" font-family="sans-serif" font-size="6" lengthAdjust="spacing" textLength="32.5" x="315.25" y="117.8867">Get Job List</text><text fill="#000000" font-family="sans-serif" font-size="6" lengthAdjust="spacing" textLength="1.5" x="330.75" y="125.8672">&#160;</text><polygon fill="#181818" points="226,141.6641,221,143.6641,226,145.6641,224,143.6641" style="stroke:#181818;stroke-width:0.5;"/><line style="stroke:#181818;stroke-width:0.5;stroke-dasharray:2.0,2.0;" x1="223" x2="331" y1="143.6641" y2="143.6641"/><text fill="#000000" font-family="sans-serif" font-size="6.5" font-weight="bold" lengthAdjust="spacing" textLength="3.5" x="229" y="141.0327">4</text><text fill="#000000" font-family="sans-serif" font-size="6.5" lengthAdjust="spacing" textLength="19" x="234.5" y="141.0327">jobList</text><polygon fill="#181818" points="56,157.3096,51,159.3096,56,161.3096,54,159.3096" style="stroke:#181818;stroke-width:0.5;"/><line style="stroke:#181818;stroke-width:0.5;stroke-dasharray:2.0,2.0;" x1="53" x2="217.5" y1="159.3096" y2="159.3096"/><text fill="#000000" font-family="sans-serif" font-size="6.5" font-weight="bold" lengthAdjust="spacing" textLength="3.5" x="59" y="156.6782">5</text><text fill="#000000" font-family="sans-serif" font-size="6.5" lengthAdjust="spacing" textLength="107.5" x="64.5" y="156.6782">shows job list and asks to select one</text><polygon fill="#181818" points="209.5,172.9551,214.5,174.9551,209.5,176.9551,211.5,174.9551" style="stroke:#181818;stroke-width:0.5;"/><line style="stroke:#181818;stroke-width:0.5;" x1="50.5" x2="212.5" y1="174.9551" y2="174.9551"/><text fill="#000000" font-family="sans-serif" font-size="6.5" font-weight="bold" lengthAdjust="spacing" textLength="3.5" x="54" y="172.3237">6</text><text fill="#000000" font-family="sans-serif" font-size="6.5" lengthAdjust="spacing" textLength="37" x="59.5" y="172.3237">selects a job</text><polygon fill="#181818" points="56,188.6006,51,190.6006,56,192.6006,54,190.6006" style="stroke:#181818;stroke-width:0.5;"/><line style="stroke:#181818;stroke-width:0.5;stroke-dasharray:2.0,2.0;" x1="53" x2="217.5" y1="190.6006" y2="190.6006"/><text fill="#000000" font-family="sans-serif" font-size="6.5" font-weight="bold" lengthAdjust="spacing" textLength="3.5" x="59" y="187.9692">7</text><text fill="#000000" font-family="sans-serif" font-size="6.5" lengthAdjust="spacing" textLength="39.5" x="64.5" y="187.9692">requests data</text><polygon fill="#181818" points="209.5,230.1826,214.5,232.1826,209.5,234.1826,211.5,232.1826" style="stroke:#181818;stroke-width:0.5;"/><line style="stroke:#181818;stroke-width:0.5;" x1="50.5" x2="212.5" y1="232.1826" y2="232.1826"/><text fill="#000000" font-family="sans-serif" font-size="6.5" font-weight="bold" lengthAdjust="spacing" textLength="3.5" x="54" y="216.583">8</text><text fill="#000000" font-family="sans-serif" font-size="6.5" lengthAdjust="spacing" textLength="123" x="59.5" y="203.6147">types requested data (i.e. name, birthdate,</text><text fill="#000000" font-family="sans-serif" font-size="6.5" lengthAdjust="spacing" textLength="92.5" x="59.5" y="212.2603">admission date, address, phone</text><text fill="#000000" font-family="sans-serif" font-size="6.5" lengthAdjust="spacing" textLength="95.5" x="59.5" y="220.9058">number, email, taxpayer number,</text><text fill="#000000" font-family="sans-serif" font-size="6.5" lengthAdjust="spacing" textLength="150" x="59.5" y="229.5513">identification document type and respective number)</text><polygon fill="#181818" points="56,245.8281,51,247.8281,56,249.8281,54,247.8281" style="stroke:#181818;stroke-width:0.5;"/><line style="stroke:#181818;stroke-width:0.5;stroke-dasharray:2.0,2.0;" x1="53" x2="217.5" y1="247.8281" y2="247.8281"/><text fill="#000000" font-family="sans-serif" font-size="6.5" font-weight="bold" lengthAdjust="spacing" textLength="3.5" x="59" y="245.1968">9</text><text fill="#000000" font-family="sans-serif" font-size="6.5" lengthAdjust="spacing" textLength="113" x="64.5" y="245.1968">shows selected job and requested data</text><polygon fill="#181818" points="209.5,261.4736,214.5,263.4736,209.5,265.4736,211.5,263.4736" style="stroke:#181818;stroke-width:0.5;"/><line style="stroke:#181818;stroke-width:0.5;" x1="50.5" x2="212.5" y1="263.4736" y2="263.4736"/><text fill="#000000" font-family="sans-serif" font-size="6.5" font-weight="bold" lengthAdjust="spacing" textLength="7" x="54" y="260.8423">10</text><text fill="#000000" font-family="sans-serif" font-size="6.5" lengthAdjust="spacing" textLength="37.5" x="63" y="260.8423">submits data</text><polygon fill="#181818" points="323,328.9922,328,330.9922,323,332.9922,325,330.9922" style="stroke:#181818;stroke-width:0.5;"/><line style="stroke:#181818;stroke-width:0.5;" x1="220.5" x2="326" y1="330.9922" y2="330.9922"/><text fill="#000000" font-family="sans-serif" font-size="6.5" font-weight="bold" lengthAdjust="spacing" textLength="7" x="224" y="302.4243">11</text><text fill="#000000" font-family="sans-serif" font-size="6.5" lengthAdjust="spacing" textLength="76" x="233" y="276.4878">registerCollaborator(name,</text><text fill="#000000" font-family="sans-serif" font-size="6.5" lengthAdjust="spacing" textLength="74" x="233" y="285.1333">birthdate, admissionDate,</text><text fill="#000000" font-family="sans-serif" font-size="6.5" lengthAdjust="spacing" textLength="69" x="233" y="293.7788">address, phoneNumber,</text><text fill="#000000" font-family="sans-serif" font-size="6.5" lengthAdjust="spacing" textLength="69" x="233" y="302.4243">email, taxpayerNumber,</text><text fill="#000000" font-family="sans-serif" font-size="6.5" lengthAdjust="spacing" textLength="81.5" x="233" y="311.0698">identificationDocumentType,</text><text fill="#000000" font-family="sans-serif" font-size="6.5" lengthAdjust="spacing" textLength="90" x="233" y="319.7153">identificationDocumentNumber,</text><text fill="#000000" font-family="sans-serif" font-size="6.5" lengthAdjust="spacing" textLength="43" x="233" y="328.3608">jobDescription)</text><line style="stroke:#181818;stroke-width:0.5;" x1="334" x2="357.5" y1="344.1377" y2="344.1377"/><line style="stroke:#181818;stroke-width:0.5;" x1="357.5" x2="357.5" y1="344.1377" y2="350.6377"/><line style="stroke:#181818;stroke-width:0.5;" x1="337" x2="357.5" y1="350.6377" y2="350.6377"/><polygon fill="#181818" points="342,348.6377,337,350.6377,342,352.6377,340,350.6377" style="stroke:#181818;stroke-width:0.5;"/><text fill="#000000" font-family="sans-serif" font-size="6.5" font-weight="bold" lengthAdjust="spacing" textLength="7" x="340" y="341.5063">12</text><text fill="#000000" font-family="sans-serif" font-size="6.5" lengthAdjust="spacing" textLength="104.5" x="349" y="341.5063">getJobByDescription(jobDescription)</text><rect fill="none" height="29.6064" style="stroke:#000000;stroke-width:0.75;" width="108.5" x="277.25" y="357.1377"/><path d="M277.25,357.1377 L308.25,357.1377 L308.25,361.6377 L303.25,366.6377 L277.25,366.6377 L277.25,357.1377 " fill="#EEEEEE" style="stroke:#000000;stroke-width:1.0;"/><text fill="#000000" font-family="sans-serif" font-size="6.5" font-weight="bold" lengthAdjust="spacing" textLength="8.5" x="283.75" y="365.1519">ref</text><text fill="#000000" font-family="sans-serif" font-size="6" lengthAdjust="spacing" textLength="40" x="311.5" y="375.1123">Get Job Object</text><text fill="#000000" font-family="sans-serif" font-size="6" lengthAdjust="spacing" textLength="1.5" x="330.75" y="383.0928">&#160;</text><line style="stroke:#181818;stroke-width:0.5;stroke-dasharray:2.0,2.0;" x1="336.5" x2="357.5" y1="403.3896" y2="403.3896"/><line style="stroke:#181818;stroke-width:0.5;stroke-dasharray:2.0,2.0;" x1="357.5" x2="357.5" y1="403.3896" y2="409.8896"/><line style="stroke:#181818;stroke-width:0.5;stroke-dasharray:2.0,2.0;" x1="334" x2="357.5" y1="409.8896" y2="409.8896"/><polygon fill="#181818" points="339,407.8896,334,409.8896,339,411.8896,337,409.8896" style="stroke:#181818;stroke-width:0.5;"/><text fill="#000000" font-family="sans-serif" font-size="6.5" font-weight="bold" lengthAdjust="spacing" textLength="7" x="340" y="400.7583">13</text><text fill="#000000" font-family="sans-serif" font-size="6.5" lengthAdjust="spacing" textLength="8.5" x="349" y="400.7583">job</text><polygon fill="#181818" points="448.5,421.0352,453.5,423.0352,448.5,425.0352,450.5,423.0352" style="stroke:#181818;stroke-width:0.5;"/><line style="stroke:#181818;stroke-width:0.5;" x1="334" x2="451.5" y1="423.0352" y2="423.0352"/><text fill="#000000" font-family="sans-serif" font-size="6.5" font-weight="bold" lengthAdjust="spacing" textLength="7" x="337.5" y="420.4038">14</text><text fill="#000000" font-family="sans-serif" font-size="6.5" lengthAdjust="spacing" textLength="37.5" x="346.5" y="420.4038">getInstance()</text><polygon fill="#181818" points="339.5,436.6807,334.5,438.6807,339.5,440.6807,337.5,438.6807" style="stroke:#181818;stroke-width:0.5;"/><line style="stroke:#181818;stroke-width:0.5;stroke-dasharray:2.0,2.0;" x1="336.5" x2="456.5" y1="438.6807" y2="438.6807"/><text fill="#000000" font-family="sans-serif" font-size="6.5" font-weight="bold" lengthAdjust="spacing" textLength="7" x="342.5" y="436.0493">15</text><text fill="#000000" font-family="sans-serif" font-size="6.5" lengthAdjust="spacing" textLength="33.5" x="351.5" y="436.0493">repositories</text><polygon fill="#181818" points="502,452.3262,507,454.3262,502,456.3262,504,454.3262" style="stroke:#181818;stroke-width:0.5;"/><line style="stroke:#181818;stroke-width:0.5;" x1="334" x2="505" y1="454.3262" y2="454.3262"/><text fill="#000000" font-family="sans-serif" font-size="6.5" font-weight="bold" lengthAdjust="spacing" textLength="7" x="337.5" y="451.6948">16</text><text fill="#000000" font-family="sans-serif" font-size="6.5" lengthAdjust="spacing" textLength="78.5" x="346.5" y="451.6948">getCollaboratorRepository()</text><polygon fill="#181818" points="339.5,467.9717,334.5,469.9717,339.5,471.9717,337.5,469.9717" style="stroke:#181818;stroke-width:0.5;"/><line style="stroke:#181818;stroke-width:0.5;stroke-dasharray:2.0,2.0;" x1="336.5" x2="510" y1="469.9717" y2="469.9717"/><text fill="#000000" font-family="sans-serif" font-size="6.5" font-weight="bold" lengthAdjust="spacing" textLength="7" x="342.5" y="467.3403">17</text><text fill="#000000" font-family="sans-serif" font-size="6.5" lengthAdjust="spacing" textLength="64.5" x="351.5" y="467.3403">collaboratorRepository</text><polygon fill="#181818" points="571.5,526.8447,576.5,528.8447,571.5,530.8447,573.5,528.8447" style="stroke:#181818;stroke-width:0.5;"/><line style="stroke:#181818;stroke-width:0.5;" x1="334" x2="574.5" y1="528.8447" y2="528.8447"/><text fill="#000000" font-family="sans-serif" font-size="6.5" font-weight="bold" lengthAdjust="spacing" textLength="7" x="337.5" y="504.5996">18</text><text fill="#000000" font-family="sans-serif" font-size="6.5" lengthAdjust="spacing" textLength="76" x="346.5" y="482.9858">registerCollaborator(name,</text><text fill="#000000" font-family="sans-serif" font-size="6.5" lengthAdjust="spacing" textLength="74" x="346.5" y="491.6313">birthdate, admissionDate,</text><text fill="#000000" font-family="sans-serif" font-size="6.5" lengthAdjust="spacing" textLength="69" x="346.5" y="500.2769">address, phoneNumber,</text><text fill="#000000" font-family="sans-serif" font-size="6.5" lengthAdjust="spacing" textLength="69" x="346.5" y="508.9224">email, taxpayerNumber,</text><text fill="#000000" font-family="sans-serif" font-size="6.5" lengthAdjust="spacing" textLength="81.5" x="346.5" y="517.5679">identificationDocumentType,</text><text fill="#000000" font-family="sans-serif" font-size="6.5" lengthAdjust="spacing" textLength="102.5" x="346.5" y="526.2134">identificationDocumentNumber, job)</text><rect fill="none" height="21.626" style="stroke:#000000;stroke-width:0.75;" width="83.5" x="538.25" y="532.8447"/><path d="M538.25,532.8447 L569.25,532.8447 L569.25,537.3447 L564.25,542.3447 L538.25,542.3447 L538.25,532.8447 " fill="#EEEEEE" style="stroke:#000000;stroke-width:1.0;"/><text fill="#000000" font-family="sans-serif" font-size="6.5" font-weight="bold" lengthAdjust="spacing" textLength="8.5" x="544.75" y="540.8589">ref</text><text fill="#000000" font-family="sans-serif" font-size="6" lengthAdjust="spacing" textLength="59" x="550.5" y="550.8193">Register Collaborator</text><polygon fill="#181818" points="339.5,566.6162,334.5,568.6162,339.5,570.6162,337.5,568.6162" style="stroke:#181818;stroke-width:0.5;"/><line style="stroke:#181818;stroke-width:0.5;stroke-dasharray:2.0,2.0;" x1="336.5" x2="579.5" y1="568.6162" y2="568.6162"/><text fill="#000000" font-family="sans-serif" font-size="6.5" font-weight="bold" lengthAdjust="spacing" textLength="7" x="342.5" y="565.9849">19</text><text fill="#000000" font-family="sans-serif" font-size="6.5" lengthAdjust="spacing" textLength="33.5" x="351.5" y="565.9849">collaborator</text><polygon fill="#181818" points="226,582.2617,221,584.2617,226,586.2617,224,584.2617" style="stroke:#181818;stroke-width:0.5;"/><line style="stroke:#181818;stroke-width:0.5;stroke-dasharray:2.0,2.0;" x1="223" x2="331" y1="584.2617" y2="584.2617"/><text fill="#000000" font-family="sans-serif" font-size="6.5" font-weight="bold" lengthAdjust="spacing" textLength="7" x="229" y="581.6304">20</text><text fill="#000000" font-family="sans-serif" font-size="6.5" lengthAdjust="spacing" textLength="33.5" x="238" y="581.6304">collaborator</text><polygon fill="#181818" points="53.5,597.9072,48.5,599.9072,53.5,601.9072,51.5,599.9072" style="stroke:#181818;stroke-width:0.5;"/><line style="stroke:#181818;stroke-width:0.5;stroke-dasharray:2.0,2.0;" x1="50.5" x2="217.5" y1="599.9072" y2="599.9072"/><text fill="#000000" font-family="sans-serif" font-size="6.5" font-weight="bold" lengthAdjust="spacing" textLength="7" x="56.5" y="597.2759">21</text><text fill="#000000" font-family="sans-serif" font-size="6.5" lengthAdjust="spacing" textLength="79" x="65.5" y="597.2759">displays operation success</text><!--SRC=[pLPDKzim4BtxL-nmQM02Fo27phJ9JA43j1FWbilQtYG2Mt8b6SY_xrh-Y1pBgO_rpTA-fzqdFQtCcv05QimXLr8bUwro0gjBYamtKs3oXZjwieUCG5DYKUuoFy3iCLKVGkvWYvcXACBIAbdcCUae-h8NAS5MAHkhpmWJgpHSt9OvIbYJKQLEoC03Ibv1Nm0Qk5q_HCnhHI8Ab1Ok5clQ2MD9BrMMOQmqCiVBdGj-kPiGkrJIQlvl5bW-h-y7g48PmQ62Z8lf1WvFeggMw-b3j8VOo271x_jlptr4ucLqf5ziv38uKQSQd8eg6SKxMd9YHT1y_0FNNraJM33upO1Ll5-r7e0WwGFy98x0Zexbx0QhZwcOi1Biwef94qqSDHR20JkoFrLiPfUz44rRKE-SWrCUJhuVP851SCzvzgb9fXMsFzZbwiW6R2wHwrQ5LnKxMZyYfJCKLJKChfHSyBbM7wRYW8n903cTLbP36Hi1bAGemDlAw6z8ZJ2y3qmOZQhUIq3Jdv8CWrAq64rOn1uATbC3ezJXO2Pkw0OavZI7M6Yxvr6QRoIckJ16A0bk031DDHapXsBFTMraxU0vK8uYcuF5pm8Fl8lD-4QoiQKLMv6WTImgANCUSLaujPYke2fVQa2N4mklbQybupAgBQZv_CAc26BAE1U-WADhTsTO1swGcLDl8u_oGQVUgbNJL- -nrUX4lCUmTgj6kcTMRdIomx8SApA95aKrVHbDi4PjYnEVVZzuDBCnrWccEszmt-I_ubVUqY53P_KWkZDratxhe4cMRaiFNEcr4dVIS4jBwEJMwjKTwWV1L4Ehj9bNP-lO9WPmhuf9oxM5LQschYJSBixLvTfKi92QzfXwk7sDRSEGjpk1uJRutzkkEdHZfXZfqkCs-RUMn_FKz6yVCswVmHa9hkHxAVmYE7NLX0gzpdl2UiwguUQxW5IO8iE30LMGhlkBAHD-AvhGjU_zkXVHNm00]--></g></svg>