<?xml version="1.0" encoding="us-ascii" standalone="no"?><svg xmlns="http://www.w3.org/2000/svg" xmlns:xlink="http://www.w3.org/1999/xlink" contentStyleType="text/css" height="610px" preserveAspectRatio="none" style="width:622px;height:610px;background:#FFFFFF;" version="1.1" viewBox="0 0 622 610" width="622px" zoomAndPan="magnify"><defs/><g><rect fill="#FFFFFF" height="359.4922" style="stroke:#181818;stroke-width:1.0;" width="10" x="242" y="176.9883"/><rect fill="#FFFFFF" height="130.873" style="stroke:#181818;stroke-width:1.0;" width="10" x="247" y="360.3164"/><rect fill="#FFFFFF" height="42.291" style="stroke:#181818;stroke-width:1.0;" width="10" x="252" y="404.6074"/><rect fill="none" height="314.2012" style="stroke:#000000;stroke-width:1.5;" width="459.5" x="156.5" y="191.9883"/><line style="stroke:#181818;stroke-width:0.5;stroke-dasharray:5.0,5.0;" x1="246.5" x2="246.5" y1="57.2422" y2="554.4805"/><line style="stroke:#181818;stroke-width:0.5;stroke-dasharray:5.0,5.0;" x1="558" x2="558" y1="280.1523" y2="554.4805"/><rect fill="#E3E3E3" height="51.2422" rx="2.5" ry="2.5" style="stroke:#181818;stroke-width:0.5;" width="161" x="166.5" y="5"/><text fill="#000000" font-family="sans-serif" font-size="14" lengthAdjust="spacing" textLength="147" x="173.5" y="27.1074">collaboratorRepository:</text><text fill="#000000" font-family="sans-serif" font-size="14" lengthAdjust="spacing" textLength="146" x="174" y="45.7285">CollaboratorRepository</text><rect fill="#E3E3E3" height="51.2422" rx="2.5" ry="2.5" style="stroke:#181818;stroke-width:0.5;" width="161" x="166.5" y="553.4805"/><text fill="#000000" font-family="sans-serif" font-size="14" lengthAdjust="spacing" textLength="147" x="173.5" y="575.5879">collaboratorRepository:</text><text fill="#000000" font-family="sans-serif" font-size="14" lengthAdjust="spacing" textLength="146" x="174" y="594.209">CollaboratorRepository</text><rect fill="#E3E3E3" height="51.2422" rx="2.5" ry="2.5" style="stroke:#181818;stroke-width:0.5;" width="96" x="510" y="553.4805"/><text fill="#000000" font-family="sans-serif" font-size="14" lengthAdjust="spacing" textLength="75" x="520.5" y="575.5879">collaborator</text><text fill="#000000" font-family="sans-serif" font-size="14" lengthAdjust="spacing" textLength="82" x="517" y="594.209">:Collaborator</text><rect fill="#FFFFFF" height="359.4922" style="stroke:#181818;stroke-width:1.0;" width="10" x="242" y="176.9883"/><rect fill="#FFFFFF" height="130.873" style="stroke:#181818;stroke-width:1.0;" width="10" x="247" y="360.3164"/><rect fill="#FFFFFF" height="42.291" style="stroke:#181818;stroke-width:1.0;" width="10" x="252" y="404.6074"/><polygon fill="#181818" points="230,172.9883,240,176.9883,230,180.9883,234,176.9883" style="stroke:#181818;stroke-width:1.0;"/><line style="stroke:#181818;stroke-width:1.0;" x1="0" x2="236" y1="176.9883" y2="176.9883"/><text fill="#000000" font-family="sans-serif" font-size="13" font-weight="bold" lengthAdjust="spacing" textLength="14" x="7" y="128.498">18</text><text fill="#000000" font-family="sans-serif" font-size="13" lengthAdjust="spacing" textLength="152" x="25" y="85.2705">registerCollaborator(name,</text><text fill="#000000" font-family="sans-serif" font-size="13" lengthAdjust="spacing" textLength="148" x="25" y="102.5615">birthdate, admissionDate,</text><text fill="#000000" font-family="sans-serif" font-size="13" lengthAdjust="spacing" textLength="138" x="25" y="119.8525">address, phoneNumber,</text><text fill="#000000" font-family="sans-serif" font-size="13" lengthAdjust="spacing" textLength="138" x="25" y="137.1436">email, taxpayerNumber,</text><text fill="#000000" font-family="sans-serif" font-size="13" lengthAdjust="spacing" textLength="163" x="25" y="154.4346">identificationDocumentType,</text><text fill="#000000" font-family="sans-serif" font-size="13" lengthAdjust="spacing" textLength="205" x="25" y="171.7256">identificationDocumentNumber, job)</text><path d="M156.5,191.9883 L336.5,191.9883 L336.5,201.2793 L326.5,211.2793 L156.5,211.2793 L156.5,191.9883 " fill="#EEEEEE" style="stroke:#000000;stroke-width:1.5;"/><rect fill="none" height="314.2012" style="stroke:#000000;stroke-width:1.5;" width="459.5" x="156.5" y="191.9883"/><text fill="#000000" font-family="sans-serif" font-size="13" font-weight="bold" lengthAdjust="spacing" textLength="135" x="171.5" y="207.0166">Register Collaborator</text><polygon fill="#181818" points="498,317.0254,508,321.0254,498,325.0254,502,321.0254" style="stroke:#181818;stroke-width:1.0;"/><line style="stroke:#181818;stroke-width:1.0;" x1="252" x2="504" y1="321.0254" y2="321.0254"/><text fill="#000000" font-family="sans-serif" font-size="13" font-weight="bold" lengthAdjust="spacing" textLength="25" x="259" y="272.5352">18.1</text><text fill="#000000" font-family="sans-serif" font-size="13" lengthAdjust="spacing" textLength="83" x="288" y="229.3076">register(name,</text><text fill="#000000" font-family="sans-serif" font-size="13" lengthAdjust="spacing" textLength="148" x="288" y="246.5986">birthdate, admissionDate,</text><text fill="#000000" font-family="sans-serif" font-size="13" lengthAdjust="spacing" textLength="138" x="288" y="263.8896">address, phoneNumber,</text><text fill="#000000" font-family="sans-serif" font-size="13" lengthAdjust="spacing" textLength="138" x="288" y="281.1807">email, taxpayerNumber,</text><text fill="#000000" font-family="sans-serif" font-size="13" lengthAdjust="spacing" textLength="163" x="288" y="298.4717">identificationDocumentType,</text><text fill="#000000" font-family="sans-serif" font-size="13" lengthAdjust="spacing" textLength="205" x="288" y="315.7627">identificationDocumentNumber, job)</text><rect fill="#E3E3E3" height="51.2422" rx="2.5" ry="2.5" style="stroke:#181818;stroke-width:0.5;" width="96" x="510" y="266.7832"/><text fill="#000000" font-family="sans-serif" font-size="14" lengthAdjust="spacing" textLength="75" x="520.5" y="288.8906">collaborator</text><text fill="#000000" font-family="sans-serif" font-size="14" lengthAdjust="spacing" textLength="82" x="517" y="307.5117">:Collaborator</text><line style="stroke:#181818;stroke-width:1.0;" x1="252" x2="299" y1="347.3164" y2="347.3164"/><line style="stroke:#181818;stroke-width:1.0;" x1="299" x2="299" y1="347.3164" y2="360.3164"/><line style="stroke:#181818;stroke-width:1.0;" x1="258" x2="299" y1="360.3164" y2="360.3164"/><polygon fill="#181818" points="268,356.3164,258,360.3164,268,364.3164,264,360.3164" style="stroke:#181818;stroke-width:1.0;"/><text fill="#000000" font-family="sans-serif" font-size="13" font-weight="bold" lengthAdjust="spacing" textLength="25" x="264" y="342.0537">18.2</text><text fill="#000000" font-family="sans-serif" font-size="13" lengthAdjust="spacing" textLength="165" x="293" y="342.0537">addCollaborator(collaborator)</text><line style="stroke:#181818;stroke-width:1.0;" x1="257" x2="304" y1="391.6074" y2="391.6074"/><line style="stroke:#181818;stroke-width:1.0;" x1="304" x2="304" y1="391.6074" y2="404.6074"/><line style="stroke:#181818;stroke-width:1.0;" x1="263" x2="304" y1="404.6074" y2="404.6074"/><polygon fill="#181818" points="273,400.6074,263,404.6074,273,408.6074,269,404.6074" style="stroke:#181818;stroke-width:1.0;"/><text fill="#000000" font-family="sans-serif" font-size="13" font-weight="bold" lengthAdjust="spacing" textLength="25" x="269" y="386.3447">18.3</text><text fill="#000000" font-family="sans-serif" font-size="13" lengthAdjust="spacing" textLength="187" x="298" y="386.3447">validateCollaborator(collaborator)</text><line style="stroke:#181818;stroke-width:1.0;stroke-dasharray:2.0,2.0;" x1="262" x2="304" y1="445.8984" y2="445.8984"/><line style="stroke:#181818;stroke-width:1.0;stroke-dasharray:2.0,2.0;" x1="304" x2="304" y1="445.8984" y2="458.8984"/><line style="stroke:#181818;stroke-width:1.0;stroke-dasharray:2.0,2.0;" x1="257" x2="304" y1="458.8984" y2="458.8984"/><polygon fill="#181818" points="267,454.8984,257,458.8984,267,462.8984,263,458.8984" style="stroke:#181818;stroke-width:1.0;"/><text fill="#000000" font-family="sans-serif" font-size="13" font-weight="bold" lengthAdjust="spacing" textLength="25" x="269" y="440.6357">18.4</text><text fill="#000000" font-family="sans-serif" font-size="13" lengthAdjust="spacing" textLength="4" x="298" y="440.6357">&#160;</text><line style="stroke:#181818;stroke-width:1.0;stroke-dasharray:2.0,2.0;" x1="257" x2="299" y1="490.1895" y2="490.1895"/><line style="stroke:#181818;stroke-width:1.0;stroke-dasharray:2.0,2.0;" x1="299" x2="299" y1="490.1895" y2="503.1895"/><line style="stroke:#181818;stroke-width:1.0;stroke-dasharray:2.0,2.0;" x1="252" x2="299" y1="503.1895" y2="503.1895"/><polygon fill="#181818" points="262,499.1895,252,503.1895,262,507.1895,258,503.1895" style="stroke:#181818;stroke-width:1.0;"/><text fill="#000000" font-family="sans-serif" font-size="13" font-weight="bold" lengthAdjust="spacing" textLength="25" x="264" y="484.9268">18.5</text><text fill="#000000" font-family="sans-serif" font-size="13" lengthAdjust="spacing" textLength="4" x="293" y="484.9268">&#160;</text><polygon fill="#181818" points="11,532.4805,1,536.4805,11,540.4805,7,536.4805" style="stroke:#181818;stroke-width:1.0;"/><line style="stroke:#181818;stroke-width:1.0;stroke-dasharray:2.0,2.0;" x1="5" x2="246" y1="536.4805" y2="536.4805"/><text fill="#000000" font-family="sans-serif" font-size="13" font-weight="bold" lengthAdjust="spacing" textLength="14" x="17" y="531.2178">19</text><text fill="#000000" font-family="sans-serif" font-size="13" lengthAdjust="spacing" textLength="67" x="35" y="531.2178">collaborator</text><!--SRC=[pLDDJyCm3BtdLqHSO5E7j1jK28cFumJIuDYBctXjM1jNIJhMVq_QZT6gxIOc8P5Jw-VuFR_OTgrq0GPodfCcaHhAaJjJ8hC7f02nXWJVN9KXDoWSw2Hh9zWK97qgdV0LP1OPkqoLHBuYSZ5j6VDPJWbLW7RyGb2MGKm679ab5cIL_wZ2I3yD0XSSB1-6nkj6EcnVsTLuNImU7Xc3qf4kynWDdzymnlsPtOymXBxTH5c7ferVQSWnY7IiZ4ibE0muo5nPgqW_rx-H1YaDMXlm8YMDBmsT3sCEAWkuWsq15Pf3tBkbdLef0QwkGQBCVU2zAd0KtD_b7nHFcYQ-3mYdDbx5c6cTtBONr_CELf_4K5dmvTw3JaNMInxcQynjh9zEV-pytnQUw6PaLBpWpfIq1tB2-dxzvg7ELxM1JDK67v4sH7IEk6C2HnKELf9uYf_z3VaPnAZbRa_w3zpQhjiUUZURZGaEkHZTj9CAlm00]--></g></svg>