<?xml version="1.0" encoding="us-ascii" standalone="no"?><svg xmlns="http://www.w3.org/2000/svg" xmlns:xlink="http://www.w3.org/1999/xlink" contentStyleType="text/css" height="996px" preserveAspectRatio="none" style="width:1490px;height:996px;background:#FFFFFF;" version="1.1" viewBox="0 0 1490 996" width="1490px" zoomAndPan="magnify"><defs/><g><rect fill="#FFFFFF" height="850.8301" style="stroke:#181818;stroke-width:1.0;" width="10" x="236" y="84.2871"/><rect fill="#FFFFFF" height="29.3105" style="stroke:#181818;stroke-width:1.0;" width="10" x="387.5" y="137.9082"/><rect fill="#FFFFFF" height="29.3105" style="stroke:#181818;stroke-width:1.0;" width="10" x="500.5" y="196.5293"/><rect fill="#FFFFFF" height="634.6563" style="stroke:#181818;stroke-width:1.0;" width="10" x="626.5" y="255.1504"/><rect fill="#FFFFFF" height="29.3105" style="stroke:#181818;stroke-width:1.0;" width="10" x="865.5" y="366.748"/><rect fill="#FFFFFF" height="30" style="stroke:#181818;stroke-width:1.0;" width="10" x="954" y="449.6797"/><rect fill="#FFFFFF" height="30" style="stroke:#181818;stroke-width:1.0;" width="10" x="954" y="634.5879"/><rect fill="#FFFFFF" height="337.5059" style="stroke:#181818;stroke-width:1.0;" width="10" x="1096" y="522.9902"/><rect fill="#FFFFFF" height="34.3105" style="stroke:#181818;stroke-width:1.0;" width="10" x="1101" y="701.8984"/><rect fill="#FFFFFF" height="30" style="stroke:#181818;stroke-width:1.0;" width="10" x="1298" y="794.1855"/><rect fill="none" height="798.5195" style="stroke:#000000;stroke-width:1.5;" width="1343.5" x="141" y="99.2871"/><rect fill="none" height="166.5527" style="stroke:#000000;stroke-width:1.5;" width="482.5" x="547" y="328.127"/><rect fill="none" height="76.6211" style="stroke:#000000;stroke-width:1.5;" width="462.5" x="557" y="411.0586"/><rect fill="none" height="236.2188" style="stroke:#000000;stroke-width:1.5;" width="576" x="898.5" y="595.9668"/><line style="stroke:#181818;stroke-width:0.5;stroke-dasharray:5.0,5.0;" x1="241" x2="241" y1="52.9766" y2="944.1172"/><line style="stroke:#181818;stroke-width:0.5;stroke-dasharray:5.0,5.0;" x1="392" x2="392" y1="52.9766" y2="944.1172"/><line style="stroke:#181818;stroke-width:0.5;stroke-dasharray:5.0,5.0;" x1="505" x2="505" y1="52.9766" y2="944.1172"/><line style="stroke:#181818;stroke-width:0.5;stroke-dasharray:5.0,5.0;" x1="631" x2="631" y1="52.9766" y2="944.1172"/><line style="stroke:#181818;stroke-width:0.5;stroke-dasharray:5.0,5.0;" x1="870.5" x2="870.5" y1="52.9766" y2="944.1172"/><line style="stroke:#181818;stroke-width:0.5;stroke-dasharray:5.0,5.0;" x1="958.5" x2="958.5" y1="302.1387" y2="944.1172"/><line style="stroke:#181818;stroke-width:0.5;stroke-dasharray:5.0,5.0;" x1="1101" x2="1101" y1="52.9766" y2="944.1172"/><line style="stroke:#181818;stroke-width:0.5;stroke-dasharray:5.0,5.0;" x1="1302.5" x2="1302.5" y1="569.9785" y2="944.1172"/><line style="stroke:#181818;stroke-width:0.5;stroke-dasharray:5.0,5.0;" x1="1421.5" x2="1421.5" y1="753.8867" y2="944.1172"/><rect fill="#E3E3E3" height="30.4883" rx="2.5" ry="2.5" style="stroke:#181818;stroke-width:0.5;" width="180" x="151" y="21.4883"/><text fill="#000000" font-family="sans-serif" font-size="14" lengthAdjust="spacing" textLength="166" x="158" y="42.0234">:ConsultTasksController</text><rect fill="#E3E3E3" height="30.4883" rx="2.5" ry="2.5" style="stroke:#181818;stroke-width:0.5;" width="180" x="151" y="943.1172"/><text fill="#000000" font-family="sans-serif" font-size="14" lengthAdjust="spacing" textLength="166" x="158" y="963.6523">:ConsultTasksController</text><rect fill="#E3E3E3" height="30.4883" rx="2.5" ry="2.5" style="stroke:#181818;stroke-width:0.5;" width="103" x="341" y="21.4883"/><text fill="#000000" font-family="sans-serif" font-size="14" lengthAdjust="spacing" textLength="89" x="348" y="42.0234">:Repositories</text><rect fill="#E3E3E3" height="30.4883" rx="2.5" ry="2.5" style="stroke:#181818;stroke-width:0.5;" width="103" x="341" y="943.1172"/><text fill="#000000" font-family="sans-serif" font-size="14" lengthAdjust="spacing" textLength="89" x="348" y="963.6523">:Repositories</text><rect fill="#E3E3E3" height="46.9766" rx="2.5" ry="2.5" style="stroke:#181818;stroke-width:0.5;" width="103" x="454" y="5"/><text fill="#000000" font-family="sans-serif" font-size="14" lengthAdjust="spacing" textLength="82" x="464.5" y="25.5352">repositories</text><text fill="#000000" font-family="sans-serif" font-size="14" lengthAdjust="spacing" textLength="89" x="461" y="42.0234">:Repositories</text><rect fill="#E3E3E3" height="46.9766" rx="2.5" ry="2.5" style="stroke:#181818;stroke-width:0.5;" width="103" x="454" y="943.1172"/><text fill="#000000" font-family="sans-serif" font-size="14" lengthAdjust="spacing" textLength="82" x="464.5" y="963.6523">repositories</text><text fill="#000000" font-family="sans-serif" font-size="14" lengthAdjust="spacing" textLength="89" x="461" y="980.1406">:Repositories</text><rect fill="#E3E3E3" height="46.9766" rx="2.5" ry="2.5" style="stroke:#181818;stroke-width:0.5;" width="129" x="567" y="5"/><text fill="#000000" font-family="sans-serif" font-size="14" lengthAdjust="spacing" textLength="107" x="578" y="25.5352">teamRepository</text><text fill="#000000" font-family="sans-serif" font-size="14" lengthAdjust="spacing" textLength="115" x="574" y="42.0234">:TeamRepository</text><rect fill="#E3E3E3" height="46.9766" rx="2.5" ry="2.5" style="stroke:#181818;stroke-width:0.5;" width="129" x="567" y="943.1172"/><text fill="#000000" font-family="sans-serif" font-size="14" lengthAdjust="spacing" textLength="107" x="578" y="963.6523">teamRepository</text><text fill="#000000" font-family="sans-serif" font-size="14" lengthAdjust="spacing" textLength="115" x="574" y="980.1406">:TeamRepository</text><rect fill="#E3E3E3" height="46.9766" rx="2.5" ry="2.5" style="stroke:#181818;stroke-width:0.5;" width="56" x="842.5" y="5"/><text fill="#000000" font-family="sans-serif" font-size="14" lengthAdjust="spacing" textLength="34" x="853.5" y="25.5352">team</text><text fill="#000000" font-family="sans-serif" font-size="14" lengthAdjust="spacing" textLength="42" x="849.5" y="42.0234">:Team</text><rect fill="#E3E3E3" height="46.9766" rx="2.5" ry="2.5" style="stroke:#181818;stroke-width:0.5;" width="56" x="842.5" y="943.1172"/><text fill="#000000" font-family="sans-serif" font-size="14" lengthAdjust="spacing" textLength="34" x="853.5" y="963.6523">team</text><text fill="#000000" font-family="sans-serif" font-size="14" lengthAdjust="spacing" textLength="42" x="849.5" y="980.1406">:Team</text><rect fill="#E3E3E3" height="46.9766" rx="2.5" ry="2.5" style="stroke:#181818;stroke-width:0.5;" width="101" x="908.5" y="943.1172"/><text fill="#000000" font-family="sans-serif" font-size="14" lengthAdjust="spacing" textLength="64" x="927" y="963.6523">teamsList</text><text fill="#000000" font-family="sans-serif" font-size="14" lengthAdjust="spacing" textLength="87" x="915.5" y="980.1406">:List&lt;Team&gt;</text><rect fill="#E3E3E3" height="46.9766" rx="2.5" ry="2.5" style="stroke:#181818;stroke-width:0.5;" width="108" x="1047" y="5"/><text fill="#000000" font-family="sans-serif" font-size="14" lengthAdjust="spacing" textLength="86" x="1058" y="25.5352">teamMapper</text><text fill="#000000" font-family="sans-serif" font-size="14" lengthAdjust="spacing" textLength="94" x="1054" y="42.0234">:TeamMapper</text><rect fill="#E3E3E3" height="46.9766" rx="2.5" ry="2.5" style="stroke:#181818;stroke-width:0.5;" width="108" x="1047" y="943.1172"/><text fill="#000000" font-family="sans-serif" font-size="14" lengthAdjust="spacing" textLength="86" x="1058" y="963.6523">teamMapper</text><text fill="#000000" font-family="sans-serif" font-size="14" lengthAdjust="spacing" textLength="94" x="1054" y="980.1406">:TeamMapper</text><rect fill="#E3E3E3" height="46.9766" rx="2.5" ry="2.5" style="stroke:#181818;stroke-width:0.5;" width="131" x="1237.5" y="943.1172"/><text fill="#000000" font-family="sans-serif" font-size="14" lengthAdjust="spacing" textLength="64" x="1271" y="963.6523">teamsList</text><text fill="#000000" font-family="sans-serif" font-size="14" lengthAdjust="spacing" textLength="117" x="1244.5" y="980.1406">:List&lt;TeamDTO&gt;</text><rect fill="#E3E3E3" height="46.9766" rx="2.5" ry="2.5" style="stroke:#181818;stroke-width:0.5;" width="86" x="1378.5" y="943.1172"/><text fill="#000000" font-family="sans-serif" font-size="14" lengthAdjust="spacing" textLength="64" x="1389.5" y="963.6523">teamDTO</text><text fill="#000000" font-family="sans-serif" font-size="14" lengthAdjust="spacing" textLength="72" x="1385.5" y="980.1406">:TeamDTO</text><rect fill="#FFFFFF" height="850.8301" style="stroke:#181818;stroke-width:1.0;" width="10" x="236" y="84.2871"/><rect fill="#FFFFFF" height="29.3105" style="stroke:#181818;stroke-width:1.0;" width="10" x="387.5" y="137.9082"/><rect fill="#FFFFFF" height="29.3105" style="stroke:#181818;stroke-width:1.0;" width="10" x="500.5" y="196.5293"/><rect fill="#FFFFFF" height="634.6563" style="stroke:#181818;stroke-width:1.0;" width="10" x="626.5" y="255.1504"/><rect fill="#FFFFFF" height="29.3105" style="stroke:#181818;stroke-width:1.0;" width="10" x="865.5" y="366.748"/><rect fill="#FFFFFF" height="30" style="stroke:#181818;stroke-width:1.0;" width="10" x="954" y="449.6797"/><rect fill="#FFFFFF" height="30" style="stroke:#181818;stroke-width:1.0;" width="10" x="954" y="634.5879"/><rect fill="#FFFFFF" height="337.5059" style="stroke:#181818;stroke-width:1.0;" width="10" x="1096" y="522.9902"/><rect fill="#FFFFFF" height="34.3105" style="stroke:#181818;stroke-width:1.0;" width="10" x="1101" y="701.8984"/><rect fill="#FFFFFF" height="30" style="stroke:#181818;stroke-width:1.0;" width="10" x="1298" y="794.1855"/><polygon fill="#181818" points="224,80.2871,234,84.2871,224,88.2871,228,84.2871" style="stroke:#181818;stroke-width:1.0;"/><line style="stroke:#181818;stroke-width:1.0;" x1="0" x2="230" y1="84.2871" y2="84.2871"/><text fill="#000000" font-family="sans-serif" font-size="13" font-weight="bold" lengthAdjust="spacing" textLength="18" x="7" y="79.5449">15</text><text fill="#000000" font-family="sans-serif" font-size="13" lengthAdjust="spacing" textLength="195" x="29" y="79.5449">getTeamsByCollaborator(email)</text><path d="M141,99.2871 L365,99.2871 L365,106.5977 L355,116.5977 L141,116.5977 L141,99.2871 " fill="#EEEEEE" style="stroke:#000000;stroke-width:1.5;"/><rect fill="none" height="798.5195" style="stroke:#000000;stroke-width:1.5;" width="1343.5" x="141" y="99.2871"/><text fill="#000000" font-family="sans-serif" font-size="13" font-weight="bold" lengthAdjust="spacing" textLength="179" x="156" y="112.8555">Get Teams By Collaborator</text><polygon fill="#181818" points="375.5,133.9082,385.5,137.9082,375.5,141.9082,379.5,137.9082" style="stroke:#181818;stroke-width:1.0;"/><line style="stroke:#181818;stroke-width:1.0;" x1="246" x2="381.5" y1="137.9082" y2="137.9082"/><text fill="#000000" font-family="sans-serif" font-size="13" font-weight="bold" lengthAdjust="spacing" textLength="30" x="253" y="133.166">15.1</text><text fill="#000000" font-family="sans-serif" font-size="13" lengthAdjust="spacing" textLength="81" x="287" y="133.166">getInstance()</text><polygon fill="#181818" points="257,163.2188,247,167.2188,257,171.2188,253,167.2188" style="stroke:#181818;stroke-width:1.0;"/><line style="stroke:#181818;stroke-width:1.0;stroke-dasharray:2.0,2.0;" x1="251" x2="391.5" y1="167.2188" y2="167.2188"/><text fill="#000000" font-family="sans-serif" font-size="13" font-weight="bold" lengthAdjust="spacing" textLength="30" x="263" y="162.4766">15.2</text><text fill="#000000" font-family="sans-serif" font-size="13" lengthAdjust="spacing" textLength="75" x="297" y="162.4766">repositories</text><polygon fill="#181818" points="488.5,192.5293,498.5,196.5293,488.5,200.5293,492.5,196.5293" style="stroke:#181818;stroke-width:1.0;"/><line style="stroke:#181818;stroke-width:1.0;" x1="246" x2="494.5" y1="196.5293" y2="196.5293"/><text fill="#000000" font-family="sans-serif" font-size="13" font-weight="bold" lengthAdjust="spacing" textLength="30" x="253" y="191.7871">15.3</text><text fill="#000000" font-family="sans-serif" font-size="13" lengthAdjust="spacing" textLength="125" x="287" y="191.7871">getTaskRepository()</text><polygon fill="#181818" points="257,221.8398,247,225.8398,257,229.8398,253,225.8398" style="stroke:#181818;stroke-width:1.0;"/><line style="stroke:#181818;stroke-width:1.0;stroke-dasharray:2.0,2.0;" x1="251" x2="504.5" y1="225.8398" y2="225.8398"/><text fill="#000000" font-family="sans-serif" font-size="13" font-weight="bold" lengthAdjust="spacing" textLength="30" x="263" y="221.0977">15.4</text><text fill="#000000" font-family="sans-serif" font-size="13" lengthAdjust="spacing" textLength="94" x="297" y="221.0977">taskRepository</text><polygon fill="#181818" points="614.5,251.1504,624.5,255.1504,614.5,259.1504,618.5,255.1504" style="stroke:#181818;stroke-width:1.0;"/><line style="stroke:#181818;stroke-width:1.0;" x1="246" x2="620.5" y1="255.1504" y2="255.1504"/><text fill="#000000" font-family="sans-serif" font-size="13" font-weight="bold" lengthAdjust="spacing" textLength="30" x="253" y="250.4082">15.5</text><text fill="#000000" font-family="sans-serif" font-size="13" lengthAdjust="spacing" textLength="195" x="287" y="250.4082">getTeamsByCollaborator(email)</text><polygon fill="#181818" points="896.5,280.4609,906.5,284.4609,896.5,288.4609,900.5,284.4609" style="stroke:#181818;stroke-width:1.0;"/><line style="stroke:#181818;stroke-width:1.0;" x1="636.5" x2="902.5" y1="284.4609" y2="284.4609"/><text fill="#000000" font-family="sans-serif" font-size="13" font-weight="bold" lengthAdjust="spacing" textLength="30" x="643.5" y="279.7188">15.6</text><text fill="#000000" font-family="sans-serif" font-size="13" lengthAdjust="spacing" textLength="46" x="677.5" y="279.7188">create()</text><rect fill="#E3E3E3" height="46.9766" rx="2.5" ry="2.5" style="stroke:#181818;stroke-width:0.5;" width="101" x="908.5" y="263.1504"/><text fill="#000000" font-family="sans-serif" font-size="14" lengthAdjust="spacing" textLength="64" x="927" y="283.6855">teamsList</text><text fill="#000000" font-family="sans-serif" font-size="14" lengthAdjust="spacing" textLength="87" x="915.5" y="300.1738">:List&lt;Team&gt;</text><path d="M547,328.127 L621,328.127 L621,335.4375 L611,345.4375 L547,345.4375 L547,328.127 " fill="#EEEEEE" style="stroke:#000000;stroke-width:1.5;"/><rect fill="none" height="166.5527" style="stroke:#000000;stroke-width:1.5;" width="482.5" x="547" y="328.127"/><text fill="#000000" font-family="sans-serif" font-size="13" font-weight="bold" lengthAdjust="spacing" textLength="29" x="562" y="341.6953">loop</text><text fill="#000000" font-family="sans-serif" font-size="11" font-weight="bold" lengthAdjust="spacing" textLength="81" x="636" y="340.7617">[for each task]</text><polygon fill="#181818" points="853.5,362.748,863.5,366.748,853.5,370.748,857.5,366.748" style="stroke:#181818;stroke-width:1.0;"/><line style="stroke:#181818;stroke-width:1.0;" x1="636.5" x2="859.5" y1="366.748" y2="366.748"/><text fill="#000000" font-family="sans-serif" font-size="13" font-weight="bold" lengthAdjust="spacing" textLength="30" x="643.5" y="362.0059">15.7</text><text fill="#000000" font-family="sans-serif" font-size="13" lengthAdjust="spacing" textLength="176" x="677.5" y="362.0059">hasCollaboratorEmail(email)</text><polygon fill="#181818" points="647.5,392.0586,637.5,396.0586,647.5,400.0586,643.5,396.0586" style="stroke:#181818;stroke-width:1.0;"/><line style="stroke:#181818;stroke-width:1.0;stroke-dasharray:2.0,2.0;" x1="641.5" x2="869.5" y1="396.0586" y2="396.0586"/><text fill="#000000" font-family="sans-serif" font-size="13" font-weight="bold" lengthAdjust="spacing" textLength="30" x="653.5" y="391.3164">15.8</text><text fill="#000000" font-family="sans-serif" font-size="13" lengthAdjust="spacing" textLength="62" x="687.5" y="391.3164">true/false</text><path d="M557,411.0586 L624,411.0586 L624,418.3691 L614,428.3691 L557,428.3691 L557,411.0586 " fill="#EEEEEE" style="stroke:#000000;stroke-width:1.5;"/><rect fill="none" height="76.6211" style="stroke:#000000;stroke-width:1.5;" width="462.5" x="557" y="411.0586"/><text fill="#000000" font-family="sans-serif" font-size="13" font-weight="bold" lengthAdjust="spacing" textLength="22" x="572" y="424.627">opt</text><text fill="#000000" font-family="sans-serif" font-size="11" font-weight="bold" lengthAdjust="spacing" textLength="177" x="639" y="423.6934">[hasCollaboratorEmail == true]</text><polygon fill="#181818" points="942,445.6797,952,449.6797,942,453.6797,946,449.6797" style="stroke:#181818;stroke-width:1.0;"/><line style="stroke:#181818;stroke-width:1.0;" x1="636.5" x2="948" y1="449.6797" y2="449.6797"/><text fill="#000000" font-family="sans-serif" font-size="13" font-weight="bold" lengthAdjust="spacing" textLength="30" x="643.5" y="444.9375">15.9</text><text fill="#000000" font-family="sans-serif" font-size="13" lengthAdjust="spacing" textLength="62" x="677.5" y="444.9375">add(team)</text><polygon fill="#181818" points="1084,518.9902,1094,522.9902,1084,526.9902,1088,522.9902" style="stroke:#181818;stroke-width:1.0;"/><line style="stroke:#181818;stroke-width:1.0;" x1="636.5" x2="1090" y1="522.9902" y2="522.9902"/><text fill="#000000" font-family="sans-serif" font-size="13" font-weight="bold" lengthAdjust="spacing" textLength="39" x="643.5" y="518.248">15.10</text><text fill="#000000" font-family="sans-serif" font-size="13" lengthAdjust="spacing" textLength="87" x="686.5" y="518.248">toDTO(teams)</text><polygon fill="#181818" points="1225.5,548.3008,1235.5,552.3008,1225.5,556.3008,1229.5,552.3008" style="stroke:#181818;stroke-width:1.0;"/><line style="stroke:#181818;stroke-width:1.0;" x1="1106" x2="1231.5" y1="552.3008" y2="552.3008"/><text fill="#000000" font-family="sans-serif" font-size="13" font-weight="bold" lengthAdjust="spacing" textLength="39" x="1113" y="547.5586">15.11</text><text fill="#000000" font-family="sans-serif" font-size="13" lengthAdjust="spacing" textLength="46" x="1156" y="547.5586">create()</text><rect fill="#E3E3E3" height="46.9766" rx="2.5" ry="2.5" style="stroke:#181818;stroke-width:0.5;" width="131" x="1237.5" y="530.9902"/><text fill="#000000" font-family="sans-serif" font-size="14" lengthAdjust="spacing" textLength="64" x="1271" y="551.5254">teamsList</text><text fill="#000000" font-family="sans-serif" font-size="14" lengthAdjust="spacing" textLength="117" x="1244.5" y="568.0137">:List&lt;TeamDTO&gt;</text><path d="M898.5,595.9668 L972.5,595.9668 L972.5,603.2773 L962.5,613.2773 L898.5,613.2773 L898.5,595.9668 " fill="#EEEEEE" style="stroke:#000000;stroke-width:1.5;"/><rect fill="none" height="236.2188" style="stroke:#000000;stroke-width:1.5;" width="576" x="898.5" y="595.9668"/><text fill="#000000" font-family="sans-serif" font-size="13" font-weight="bold" lengthAdjust="spacing" textLength="29" x="913.5" y="609.5352">loop</text><text fill="#000000" font-family="sans-serif" font-size="11" font-weight="bold" lengthAdjust="spacing" textLength="155" x="987.5" y="608.6016">[for each team in TeamList]</text><polygon fill="#181818" points="975,630.5879,965,634.5879,975,638.5879,971,634.5879" style="stroke:#181818;stroke-width:1.0;"/><line style="stroke:#181818;stroke-width:1.0;" x1="969" x2="1095" y1="634.5879" y2="634.5879"/><text fill="#000000" font-family="sans-serif" font-size="13" font-weight="bold" lengthAdjust="spacing" textLength="39" x="981" y="629.8457">15.12</text><text fill="#000000" font-family="sans-serif" font-size="13" lengthAdjust="spacing" textLength="70" x="1024" y="629.8457">obj = get(i)</text><line style="stroke:#181818;stroke-width:1.0;" x1="1106" x2="1153" y1="688.8984" y2="688.8984"/><line style="stroke:#181818;stroke-width:1.0;" x1="1153" x2="1153" y1="688.8984" y2="701.8984"/><line style="stroke:#181818;stroke-width:1.0;" x1="1112" x2="1153" y1="701.8984" y2="701.8984"/><polygon fill="#181818" points="1122,697.8984,1112,701.8984,1122,705.8984,1118,701.8984" style="stroke:#181818;stroke-width:1.0;"/><text fill="#000000" font-family="sans-serif" font-size="13" font-weight="bold" lengthAdjust="spacing" textLength="39" x="1118" y="684.1563">15.13</text><text fill="#000000" font-family="sans-serif" font-size="13" lengthAdjust="spacing" textLength="135" x="1161" y="684.1563">objDTO = toDTO(obj)</text><polygon fill="#181818" points="1366.5,732.209,1376.5,736.209,1366.5,740.209,1370.5,736.209" style="stroke:#181818;stroke-width:1.0;"/><line style="stroke:#181818;stroke-width:1.0;" x1="1106" x2="1372.5" y1="736.209" y2="736.209"/><text fill="#000000" font-family="sans-serif" font-size="13" font-weight="bold" lengthAdjust="spacing" textLength="39" x="1113" y="731.4668">15.14</text><text fill="#000000" font-family="sans-serif" font-size="13" lengthAdjust="spacing" textLength="58" x="1156" y="731.4668">create(...)</text><rect fill="#E3E3E3" height="46.9766" rx="2.5" ry="2.5" style="stroke:#181818;stroke-width:0.5;" width="86" x="1378.5" y="714.8984"/><text fill="#000000" font-family="sans-serif" font-size="14" lengthAdjust="spacing" textLength="64" x="1389.5" y="735.4336">teamDTO</text><text fill="#000000" font-family="sans-serif" font-size="14" lengthAdjust="spacing" textLength="72" x="1385.5" y="751.9219">:TeamDTO</text><polygon fill="#181818" points="1286,790.1855,1296,794.1855,1286,798.1855,1290,794.1855" style="stroke:#181818;stroke-width:1.0;"/><line style="stroke:#181818;stroke-width:1.0;" x1="1106" x2="1292" y1="794.1855" y2="794.1855"/><text fill="#000000" font-family="sans-serif" font-size="13" font-weight="bold" lengthAdjust="spacing" textLength="39" x="1113" y="789.4434">15.15</text><text fill="#000000" font-family="sans-serif" font-size="13" lengthAdjust="spacing" textLength="79" x="1156" y="789.4434">add(objDTO)</text><polygon fill="#181818" points="647.5,856.4961,637.5,860.4961,647.5,864.4961,643.5,860.4961" style="stroke:#181818;stroke-width:1.0;"/><line style="stroke:#181818;stroke-width:1.0;stroke-dasharray:2.0,2.0;" x1="641.5" x2="1100" y1="860.4961" y2="860.4961"/><text fill="#000000" font-family="sans-serif" font-size="13" font-weight="bold" lengthAdjust="spacing" textLength="39" x="653.5" y="855.7539">15.16</text><text fill="#000000" font-family="sans-serif" font-size="13" lengthAdjust="spacing" textLength="66" x="696.5" y="855.7539">teamsDTO</text><polygon fill="#181818" points="257,885.8066,247,889.8066,257,893.8066,253,889.8066" style="stroke:#181818;stroke-width:1.0;"/><line style="stroke:#181818;stroke-width:1.0;stroke-dasharray:2.0,2.0;" x1="251" x2="630.5" y1="889.8066" y2="889.8066"/><text fill="#000000" font-family="sans-serif" font-size="13" font-weight="bold" lengthAdjust="spacing" textLength="39" x="263" y="885.0645">15.17</text><text fill="#000000" font-family="sans-serif" font-size="13" lengthAdjust="spacing" textLength="66" x="306" y="885.0645">teamsDTO</text><polygon fill="#181818" points="11,922.1172,1,926.1172,11,930.1172,7,926.1172" style="stroke:#181818;stroke-width:1.0;"/><line style="stroke:#181818;stroke-width:1.0;stroke-dasharray:2.0,2.0;" x1="5" x2="235" y1="926.1172" y2="926.1172"/><text fill="#000000" font-family="sans-serif" font-size="13" font-weight="bold" lengthAdjust="spacing" textLength="18" x="17" y="921.375">33</text><text fill="#000000" font-family="sans-serif" font-size="13" lengthAdjust="spacing" textLength="66" x="39" y="921.375">teamsDTO</text><!--SRC=[hLLDRzim3BtxLn0zEGMIeIXs2Pe2QpOC0p9iQ7tSHN5KHuij6PAy8Vz-r4STsL8I5vWkYIM-H_AHejI1yPP8qa0Zk2ZtKZGKjEneflgJbfG7Kj4NVQmfI5fgmgiwD51xiXD_6Q_WbTIAPXbkQrQobd0DDykruAghTK7KGU5_BKLTKta3HC6wUDwCh9zfAnJJGZAgh4s_SNnXnh4MV0YH0U8NZmb-RZuLGuIcf3dH8gOOR5ZKS2l6UrHl6rke3LCQpSpFWp5vx8tjKOpuJjgMIi_iFdg8-vpWvNFnO-G8Ts8SRdf7-A-tDwOPwL3ZhjbI2NSVi_cZBHCieQBQSZuTrrX2iXMIe3OvRGYhPoFOuWutIit-44rTcG5N9KNNmbUgNN3mT8IGojhuPNsYxqJvNIZVkC9EB6a-2s6zprJRX8OfthdFTGbXJuMe7Ptiu2q1qtvUFBm19zIPk6stXYSMVufC3qZEn1QHl0KpxEghDONXwlb7bsDiD_BY_TfUXDjRz5fAYZHvvA0MeeLN8G5JsTjKfr4ZvPweC8Cl9e4fQII3jtf7Mfcv-C6Dk14ca3x9ALgT311MApTj8LwNH5m2sUroSurdAUWW63Th4bQZe9DsbEzCy5bgtnHhS92Es0qk8v_0wMA3LfTBuaTTgZ2UB1G3IT_LLAQyZ5jyAkCpNf1VR7_3oboOd5sEFwbaKkthpdlrqBl9TELbnC__9E9OlyLYCRiI_FiBv1hMvJ11FFCCJT3FlbPJEdCSNV9s6zRhZY_a7lR-wTMSo1kEKvE3VIh3D_N-FdkOpoFMVm00]--></g></svg>