<?xml version="1.0" encoding="us-ascii" standalone="no"?><svg xmlns="http://www.w3.org/2000/svg" xmlns:xlink="http://www.w3.org/1999/xlink" contentStyleType="text/css" height="1200px" preserveAspectRatio="none" style="width:1096px;height:1200px;background:#FFFFFF;" version="1.1" viewBox="0 0 1096 1200" width="1096px" zoomAndPan="magnify"><defs/><g><text fill="#000000" font-family="sans-serif" font-size="14" font-weight="bold" lengthAdjust="spacing" textLength="386" x="356.5" y="28.5352">US028 - Consult the tasks assigned to a collaborator</text><rect fill="#FFFFFF" height="972.0703" style="stroke:#181818;stroke-width:1.0;" width="10" x="61.5" y="128.9766"/><rect fill="#FFFFFF" height="70.7988" style="stroke:#181818;stroke-width:1.0;" width="10" x="478.5" y="150.2871"/><rect fill="#FFFFFF" height="29.3105" style="stroke:#181818;stroke-width:1.0;" width="10" x="478.5" y="250.3965"/><rect fill="#FFFFFF" height="235.4395" style="stroke:#181818;stroke-width:1.0;" width="10" x="478.5" y="309.0176"/><rect fill="#FFFFFF" height="170.8633" style="stroke:#181818;stroke-width:1.0;" width="10" x="478.5" y="573.7676"/><rect fill="#FFFFFF" height="327.1055" style="stroke:#181818;stroke-width:1.0;" width="10" x="478.5" y="773.9414"/><rect fill="#FFFFFF" height="73.7539" style="stroke:#181818;stroke-width:1.0;" width="10" x="783.5" y="338.3281"/><rect fill="#FFFFFF" height="73.7539" style="stroke:#181818;stroke-width:1.0;" width="10" x="783.5" y="441.3926"/><rect fill="#FFFFFF" height="87.9316" style="stroke:#181818;stroke-width:1.0;" width="10" x="783.5" y="627.3887"/><rect fill="#FFFFFF" height="113.9316" style="stroke:#181818;stroke-width:1.0;" width="10" x="783.5" y="803.252"/><rect fill="#FFFFFF" height="71.6211" style="stroke:#181818;stroke-width:1.0;" width="10" x="783.5" y="977.8047"/><rect fill="#FFFFFF" height="29.3105" style="stroke:#181818;stroke-width:1.0;" width="10" x="1013.5" y="656.6992"/><rect fill="none" height="336.416" style="stroke:#000000;stroke-width:1.5;" width="1080" x="10" y="588.7676"/><rect fill="none" height="118.2422" style="stroke:#000000;stroke-width:1.5;" width="606" x="411.5" y="939.1836"/><line style="stroke:#181818;stroke-width:0.5;stroke-dasharray:5.0,5.0;" x1="66" x2="66" y1="118.9766" y2="1119.0469"/><line style="stroke:#181818;stroke-width:0.5;stroke-dasharray:5.0,5.0;" x1="483.5" x2="483.5" y1="118.9766" y2="1119.0469"/><line style="stroke:#181818;stroke-width:0.5;stroke-dasharray:5.0,5.0;" x1="788.5" x2="788.5" y1="189.0313" y2="1119.0469"/><line style="stroke:#181818;stroke-width:0.5;stroke-dasharray:5.0,5.0;" x1="1018" x2="1018" y1="118.9766" y2="1119.0469"/><text fill="#000000" font-family="sans-serif" font-size="14" lengthAdjust="spacing" textLength="87" x="20" y="116.0234">Collaborator</text><ellipse cx="66.5" cy="50.9883" fill="#E3E3E3" rx="8" ry="8" style="stroke:#181818;stroke-width:0.5;"/><path d="M66.5,58.9883 L66.5,85.9883 M53.5,66.9883 L79.5,66.9883 M66.5,85.9883 L53.5,100.9883 M66.5,85.9883 L79.5,100.9883 " fill="none" style="stroke:#181818;stroke-width:0.5;"/><text fill="#000000" font-family="sans-serif" font-size="14" lengthAdjust="spacing" textLength="87" x="20" y="1131.582">Collaborator</text><ellipse cx="66.5" cy="1143.0352" fill="#E3E3E3" rx="8" ry="8" style="stroke:#181818;stroke-width:0.5;"/><path d="M66.5,1151.0352 L66.5,1178.0352 M53.5,1159.0352 L79.5,1159.0352 M66.5,1178.0352 L53.5,1193.0352 M66.5,1178.0352 L79.5,1193.0352 " fill="none" style="stroke:#181818;stroke-width:0.5;"/><rect fill="#E3E3E3" height="30.4883" rx="2.5" ry="2.5" style="stroke:#181818;stroke-width:0.5;" width="124" x="421.5" y="87.4883"/><text fill="#000000" font-family="sans-serif" font-size="14" lengthAdjust="spacing" textLength="110" x="428.5" y="108.0234">:ConsultTasksUI</text><rect fill="#E3E3E3" height="30.4883" rx="2.5" ry="2.5" style="stroke:#181818;stroke-width:0.5;" width="124" x="421.5" y="1118.0469"/><text fill="#000000" font-family="sans-serif" font-size="14" lengthAdjust="spacing" textLength="110" x="428.5" y="1138.582">:ConsultTasksUI</text><rect fill="#E3E3E3" height="30.4883" rx="2.5" ry="2.5" style="stroke:#181818;stroke-width:0.5;" width="180" x="698.5" y="1118.0469"/><text fill="#000000" font-family="sans-serif" font-size="14" lengthAdjust="spacing" textLength="166" x="705.5" y="1138.582">:ConsultTasksController</text><rect fill="#E3E3E3" height="46.9766" rx="2.5" ry="2.5" style="stroke:#181818;stroke-width:0.5;" width="123" x="957" y="71"/><text fill="#000000" font-family="sans-serif" font-size="14" lengthAdjust="spacing" textLength="101" x="968" y="91.5352">taskRepository</text><text fill="#000000" font-family="sans-serif" font-size="14" lengthAdjust="spacing" textLength="109" x="964" y="108.0234">:TaskRepository</text><rect fill="#E3E3E3" height="46.9766" rx="2.5" ry="2.5" style="stroke:#181818;stroke-width:0.5;" width="123" x="957" y="1118.0469"/><text fill="#000000" font-family="sans-serif" font-size="14" lengthAdjust="spacing" textLength="101" x="968" y="1138.582">taskRepository</text><text fill="#000000" font-family="sans-serif" font-size="14" lengthAdjust="spacing" textLength="109" x="964" y="1155.0703">:TaskRepository</text><rect fill="#FFFFFF" height="972.0703" style="stroke:#181818;stroke-width:1.0;" width="10" x="61.5" y="128.9766"/><rect fill="#FFFFFF" height="70.7988" style="stroke:#181818;stroke-width:1.0;" width="10" x="478.5" y="150.2871"/><rect fill="#FFFFFF" height="29.3105" style="stroke:#181818;stroke-width:1.0;" width="10" x="478.5" y="250.3965"/><rect fill="#FFFFFF" height="235.4395" style="stroke:#181818;stroke-width:1.0;" width="10" x="478.5" y="309.0176"/><rect fill="#FFFFFF" height="170.8633" style="stroke:#181818;stroke-width:1.0;" width="10" x="478.5" y="573.7676"/><rect fill="#FFFFFF" height="327.1055" style="stroke:#181818;stroke-width:1.0;" width="10" x="478.5" y="773.9414"/><rect fill="#FFFFFF" height="73.7539" style="stroke:#181818;stroke-width:1.0;" width="10" x="783.5" y="338.3281"/><rect fill="#FFFFFF" height="73.7539" style="stroke:#181818;stroke-width:1.0;" width="10" x="783.5" y="441.3926"/><rect fill="#FFFFFF" height="87.9316" style="stroke:#181818;stroke-width:1.0;" width="10" x="783.5" y="627.3887"/><rect fill="#FFFFFF" height="113.9316" style="stroke:#181818;stroke-width:1.0;" width="10" x="783.5" y="803.252"/><rect fill="#FFFFFF" height="71.6211" style="stroke:#181818;stroke-width:1.0;" width="10" x="783.5" y="977.8047"/><rect fill="#FFFFFF" height="29.3105" style="stroke:#181818;stroke-width:1.0;" width="10" x="1013.5" y="656.6992"/><polygon fill="#181818" points="466.5,146.2871,476.5,150.2871,466.5,154.2871,470.5,150.2871" style="stroke:#181818;stroke-width:1.0;"/><line style="stroke:#181818;stroke-width:1.0;" x1="71.5" x2="472.5" y1="150.2871" y2="150.2871"/><text fill="#000000" font-family="sans-serif" font-size="13" font-weight="bold" lengthAdjust="spacing" textLength="9" x="78.5" y="145.5449">1</text><text fill="#000000" font-family="sans-serif" font-size="13" lengthAdjust="spacing" textLength="316" x="91.5" y="145.5449">asks to consult the tasks assigned to collaborator</text><polygon fill="#181818" points="686.5,175.5977,696.5,179.5977,686.5,183.5977,690.5,179.5977" style="stroke:#181818;stroke-width:1.0;"/><line style="stroke:#181818;stroke-width:1.0;" x1="488.5" x2="692.5" y1="179.5977" y2="179.5977"/><text fill="#000000" font-family="sans-serif" font-size="13" font-weight="bold" lengthAdjust="spacing" textLength="9" x="495.5" y="174.8555">2</text><text fill="#000000" font-family="sans-serif" font-size="13" lengthAdjust="spacing" textLength="38" x="508.5" y="174.8555">create</text><rect fill="#E3E3E3" height="30.4883" rx="2.5" ry="2.5" style="stroke:#181818;stroke-width:0.5;" width="180" x="698.5" y="158.2871"/><text fill="#000000" font-family="sans-serif" font-size="14" lengthAdjust="spacing" textLength="166" x="705.5" y="178.8223">:ConsultTasksController</text><polygon fill="#181818" points="82.5,217.0859,72.5,221.0859,82.5,225.0859,78.5,221.0859" style="stroke:#181818;stroke-width:1.0;"/><line style="stroke:#181818;stroke-width:1.0;stroke-dasharray:2.0,2.0;" x1="76.5" x2="482.5" y1="221.0859" y2="221.0859"/><text fill="#000000" font-family="sans-serif" font-size="13" font-weight="bold" lengthAdjust="spacing" textLength="9" x="88.5" y="216.3438">3</text><text fill="#000000" font-family="sans-serif" font-size="13" lengthAdjust="spacing" textLength="115" x="101.5" y="216.3438">requests first date</text><polygon fill="#181818" points="466.5,246.3965,476.5,250.3965,466.5,254.3965,470.5,250.3965" style="stroke:#181818;stroke-width:1.0;"/><line style="stroke:#181818;stroke-width:1.0;" x1="71.5" x2="472.5" y1="250.3965" y2="250.3965"/><text fill="#000000" font-family="sans-serif" font-size="13" font-weight="bold" lengthAdjust="spacing" textLength="9" x="78.5" y="245.6543">4</text><text fill="#000000" font-family="sans-serif" font-size="13" lengthAdjust="spacing" textLength="95" x="91.5" y="245.6543">types first date</text><polygon fill="#181818" points="82.5,275.707,72.5,279.707,82.5,283.707,78.5,279.707" style="stroke:#181818;stroke-width:1.0;"/><line style="stroke:#181818;stroke-width:1.0;stroke-dasharray:2.0,2.0;" x1="76.5" x2="482.5" y1="279.707" y2="279.707"/><text fill="#000000" font-family="sans-serif" font-size="13" font-weight="bold" lengthAdjust="spacing" textLength="9" x="88.5" y="274.9648">5</text><text fill="#000000" font-family="sans-serif" font-size="13" lengthAdjust="spacing" textLength="134" x="101.5" y="274.9648">requests second date</text><polygon fill="#181818" points="466.5,305.0176,476.5,309.0176,466.5,313.0176,470.5,309.0176" style="stroke:#181818;stroke-width:1.0;"/><line style="stroke:#181818;stroke-width:1.0;" x1="71.5" x2="472.5" y1="309.0176" y2="309.0176"/><text fill="#000000" font-family="sans-serif" font-size="13" font-weight="bold" lengthAdjust="spacing" textLength="9" x="78.5" y="304.2754">6</text><text fill="#000000" font-family="sans-serif" font-size="13" lengthAdjust="spacing" textLength="114" x="91.5" y="304.2754">types second date</text><polygon fill="#181818" points="771.5,334.3281,781.5,338.3281,771.5,342.3281,775.5,338.3281" style="stroke:#181818;stroke-width:1.0;"/><line style="stroke:#181818;stroke-width:1.0;" x1="488.5" x2="777.5" y1="338.3281" y2="338.3281"/><text fill="#000000" font-family="sans-serif" font-size="13" font-weight="bold" lengthAdjust="spacing" textLength="9" x="495.5" y="333.5859">7</text><text fill="#000000" font-family="sans-serif" font-size="13" lengthAdjust="spacing" textLength="140" x="508.5" y="333.5859">getEmailCollaborator()</text><rect fill="none" height="39.4434" style="stroke:#000000;stroke-width:1.5;" width="186" x="695.5" y="346.3281"/><path d="M695.5,346.3281 L759.5,346.3281 L759.5,353.3281 L749.5,363.3281 L695.5,363.3281 L695.5,346.3281 " fill="#EEEEEE" style="stroke:#000000;stroke-width:2.0;"/><text fill="#000000" font-family="sans-serif" font-size="13" font-weight="bold" lengthAdjust="spacing" textLength="19" x="708.5" y="360.8965">ref</text><text fill="#000000" font-family="sans-serif" font-size="12" lengthAdjust="spacing" textLength="139" x="719" y="378.9297">Get Collaborator's Email</text><polygon fill="#181818" points="499.5,408.082,489.5,412.082,499.5,416.082,495.5,412.082" style="stroke:#181818;stroke-width:1.0;"/><line style="stroke:#181818;stroke-width:1.0;stroke-dasharray:2.0,2.0;" x1="493.5" x2="787.5" y1="412.082" y2="412.082"/><text fill="#000000" font-family="sans-serif" font-size="13" font-weight="bold" lengthAdjust="spacing" textLength="9" x="505.5" y="407.3398">8</text><text fill="#000000" font-family="sans-serif" font-size="13" lengthAdjust="spacing" textLength="34" x="518.5" y="407.3398">email</text><polygon fill="#181818" points="771.5,437.3926,781.5,441.3926,771.5,445.3926,775.5,441.3926" style="stroke:#181818;stroke-width:1.0;"/><line style="stroke:#181818;stroke-width:1.0;" x1="488.5" x2="777.5" y1="441.3926" y2="441.3926"/><text fill="#000000" font-family="sans-serif" font-size="13" font-weight="bold" lengthAdjust="spacing" textLength="9" x="495.5" y="436.6504">9</text><text fill="#000000" font-family="sans-serif" font-size="13" lengthAdjust="spacing" textLength="225" x="508.5" y="436.6504">getTasks(email, startDate, endDate)</text><rect fill="none" height="39.4434" style="stroke:#000000;stroke-width:1.5;" width="279" x="695.5" y="449.3926"/><path d="M695.5,449.3926 L759.5,449.3926 L759.5,456.3926 L749.5,466.3926 L695.5,466.3926 L695.5,449.3926 " fill="#EEEEEE" style="stroke:#000000;stroke-width:2.0;"/><text fill="#000000" font-family="sans-serif" font-size="13" font-weight="bold" lengthAdjust="spacing" textLength="19" x="708.5" y="463.9609">ref</text><text fill="#000000" font-family="sans-serif" font-size="12" lengthAdjust="spacing" textLength="271" x="699.5" y="481.9941">Get Tasks List by Collaborator and Date Range</text><polygon fill="#181818" points="499.5,511.1465,489.5,515.1465,499.5,519.1465,495.5,515.1465" style="stroke:#181818;stroke-width:1.0;"/><line style="stroke:#181818;stroke-width:1.0;stroke-dasharray:2.0,2.0;" x1="493.5" x2="787.5" y1="515.1465" y2="515.1465"/><text fill="#000000" font-family="sans-serif" font-size="13" font-weight="bold" lengthAdjust="spacing" textLength="18" x="505.5" y="510.4043">10</text><text fill="#000000" font-family="sans-serif" font-size="13" lengthAdjust="spacing" textLength="62" x="527.5" y="510.4043">tasksDTO</text><polygon fill="#181818" points="82.5,540.457,72.5,544.457,82.5,548.457,78.5,544.457" style="stroke:#181818;stroke-width:1.0;"/><line style="stroke:#181818;stroke-width:1.0;stroke-dasharray:2.0,2.0;" x1="76.5" x2="482.5" y1="544.457" y2="544.457"/><text fill="#000000" font-family="sans-serif" font-size="13" font-weight="bold" lengthAdjust="spacing" textLength="18" x="88.5" y="539.7148">11</text><text fill="#000000" font-family="sans-serif" font-size="13" lengthAdjust="spacing" textLength="361" x="110.5" y="539.7148">asks if collaborator wants to view tasks filtered by status</text><polygon fill="#181818" points="466.5,569.7676,476.5,573.7676,466.5,577.7676,470.5,573.7676" style="stroke:#181818;stroke-width:1.0;"/><line style="stroke:#181818;stroke-width:1.0;" x1="71.5" x2="472.5" y1="573.7676" y2="573.7676"/><text fill="#000000" font-family="sans-serif" font-size="13" font-weight="bold" lengthAdjust="spacing" textLength="18" x="78.5" y="569.0254">12</text><text fill="#000000" font-family="sans-serif" font-size="13" lengthAdjust="spacing" textLength="113" x="100.5" y="569.0254">answers yes or no</text><path d="M10,588.7676 L77,588.7676 L77,596.0781 L67,606.0781 L10,606.0781 L10,588.7676 " fill="#EEEEEE" style="stroke:#000000;stroke-width:1.5;"/><rect fill="none" height="336.416" style="stroke:#000000;stroke-width:1.5;" width="1080" x="10" y="588.7676"/><text fill="#000000" font-family="sans-serif" font-size="13" font-weight="bold" lengthAdjust="spacing" textLength="22" x="25" y="602.3359">opt</text><text fill="#000000" font-family="sans-serif" font-size="11" font-weight="bold" lengthAdjust="spacing" textLength="83" x="92" y="601.4023">[answer is yes]</text><polygon fill="#181818" points="771.5,623.3887,781.5,627.3887,771.5,631.3887,775.5,627.3887" style="stroke:#181818;stroke-width:1.0;"/><line style="stroke:#181818;stroke-width:1.0;" x1="488.5" x2="777.5" y1="627.3887" y2="627.3887"/><text fill="#000000" font-family="sans-serif" font-size="13" font-weight="bold" lengthAdjust="spacing" textLength="18" x="495.5" y="622.6465">13</text><text fill="#000000" font-family="sans-serif" font-size="13" lengthAdjust="spacing" textLength="90" x="517.5" y="622.6465">getStatusList()</text><polygon fill="#181818" points="1001.5,652.6992,1011.5,656.6992,1001.5,660.6992,1005.5,656.6992" style="stroke:#181818;stroke-width:1.0;"/><line style="stroke:#181818;stroke-width:1.0;" x1="793.5" x2="1007.5" y1="656.6992" y2="656.6992"/><text fill="#000000" font-family="sans-serif" font-size="13" font-weight="bold" lengthAdjust="spacing" textLength="18" x="800.5" y="651.957">14</text><text fill="#000000" font-family="sans-serif" font-size="13" lengthAdjust="spacing" textLength="90" x="822.5" y="651.957">getStatusList()</text><polygon fill="#181818" points="804.5,682.0098,794.5,686.0098,804.5,690.0098,800.5,686.0098" style="stroke:#181818;stroke-width:1.0;"/><line style="stroke:#181818;stroke-width:1.0;stroke-dasharray:2.0,2.0;" x1="798.5" x2="1017.5" y1="686.0098" y2="686.0098"/><text fill="#000000" font-family="sans-serif" font-size="13" font-weight="bold" lengthAdjust="spacing" textLength="18" x="810.5" y="681.2676">15</text><text fill="#000000" font-family="sans-serif" font-size="13" lengthAdjust="spacing" textLength="62" x="832.5" y="681.2676">statusList</text><polygon fill="#181818" points="499.5,711.3203,489.5,715.3203,499.5,719.3203,495.5,715.3203" style="stroke:#181818;stroke-width:1.0;"/><line style="stroke:#181818;stroke-width:1.0;stroke-dasharray:2.0,2.0;" x1="493.5" x2="787.5" y1="715.3203" y2="715.3203"/><text fill="#000000" font-family="sans-serif" font-size="13" font-weight="bold" lengthAdjust="spacing" textLength="18" x="505.5" y="710.5781">16</text><text fill="#000000" font-family="sans-serif" font-size="13" lengthAdjust="spacing" textLength="62" x="527.5" y="710.5781">statusList</text><polygon fill="#181818" points="82.5,740.6309,72.5,744.6309,82.5,748.6309,78.5,744.6309" style="stroke:#181818;stroke-width:1.0;"/><line style="stroke:#181818;stroke-width:1.0;stroke-dasharray:2.0,2.0;" x1="76.5" x2="482.5" y1="744.6309" y2="744.6309"/><text fill="#000000" font-family="sans-serif" font-size="13" font-weight="bold" lengthAdjust="spacing" textLength="18" x="88.5" y="739.8887">17</text><text fill="#000000" font-family="sans-serif" font-size="13" lengthAdjust="spacing" textLength="308" x="110.5" y="739.8887">shows status list and requests one to filter tasks</text><polygon fill="#181818" points="466.5,769.9414,476.5,773.9414,466.5,777.9414,470.5,773.9414" style="stroke:#181818;stroke-width:1.0;"/><line style="stroke:#181818;stroke-width:1.0;" x1="71.5" x2="472.5" y1="773.9414" y2="773.9414"/><text fill="#000000" font-family="sans-serif" font-size="13" font-weight="bold" lengthAdjust="spacing" textLength="18" x="78.5" y="769.1992">18</text><text fill="#000000" font-family="sans-serif" font-size="13" lengthAdjust="spacing" textLength="114" x="100.5" y="769.1992">selects one status</text><polygon fill="#181818" points="771.5,799.252,781.5,803.252,771.5,807.252,775.5,803.252" style="stroke:#181818;stroke-width:1.0;"/><line style="stroke:#181818;stroke-width:1.0;" x1="488.5" x2="777.5" y1="803.252" y2="803.252"/><text fill="#000000" font-family="sans-serif" font-size="13" font-weight="bold" lengthAdjust="spacing" textLength="18" x="495.5" y="798.5098">19</text><text fill="#000000" font-family="sans-serif" font-size="13" lengthAdjust="spacing" textLength="254" x="517.5" y="798.5098">consultTasksByStatus(tasksDTO, status)</text><line style="stroke:#181818;stroke-width:1.0;stroke-dasharray:2.0,2.0;" x1="793.5" x2="835.5" y1="832.5625" y2="832.5625"/><line style="stroke:#181818;stroke-width:1.0;stroke-dasharray:2.0,2.0;" x1="835.5" x2="835.5" y1="832.5625" y2="845.5625"/><line style="stroke:#181818;stroke-width:1.0;stroke-dasharray:2.0,2.0;" x1="794.5" x2="835.5" y1="845.5625" y2="845.5625"/><polygon fill="#181818" points="804.5,841.5625,794.5,845.5625,804.5,849.5625,800.5,845.5625" style="stroke:#181818;stroke-width:1.0;"/><text fill="#000000" font-family="sans-serif" font-size="13" font-weight="bold" lengthAdjust="spacing" textLength="18" x="800.5" y="827.8203">20</text><text fill="#000000" font-family="sans-serif" font-size="13" lengthAdjust="spacing" textLength="184" x="822.5" y="827.8203">filterTasks(tasksDTO, status)</text><line style="stroke:#181818;stroke-width:1.0;stroke-dasharray:2.0,2.0;" x1="793.5" x2="835.5" y1="874.873" y2="874.873"/><line style="stroke:#181818;stroke-width:1.0;stroke-dasharray:2.0,2.0;" x1="835.5" x2="835.5" y1="874.873" y2="887.873"/><line style="stroke:#181818;stroke-width:1.0;stroke-dasharray:2.0,2.0;" x1="794.5" x2="835.5" y1="887.873" y2="887.873"/><polygon fill="#181818" points="804.5,883.873,794.5,887.873,804.5,891.873,800.5,887.873" style="stroke:#181818;stroke-width:1.0;"/><text fill="#000000" font-family="sans-serif" font-size="13" font-weight="bold" lengthAdjust="spacing" textLength="18" x="800.5" y="870.1309">21</text><text fill="#000000" font-family="sans-serif" font-size="13" lengthAdjust="spacing" textLength="183" x="822.5" y="870.1309">orderTasksByDate(tasksDTO)</text><polygon fill="#181818" points="499.5,913.1836,489.5,917.1836,499.5,921.1836,495.5,917.1836" style="stroke:#181818;stroke-width:1.0;"/><line style="stroke:#181818;stroke-width:1.0;stroke-dasharray:2.0,2.0;" x1="493.5" x2="787.5" y1="917.1836" y2="917.1836"/><text fill="#000000" font-family="sans-serif" font-size="13" font-weight="bold" lengthAdjust="spacing" textLength="18" x="505.5" y="912.4414">22</text><text fill="#000000" font-family="sans-serif" font-size="13" lengthAdjust="spacing" textLength="62" x="527.5" y="912.4414">tasksDTO</text><path d="M411.5,939.1836 L478.5,939.1836 L478.5,946.4941 L468.5,956.4941 L411.5,956.4941 L411.5,939.1836 " fill="#EEEEEE" style="stroke:#000000;stroke-width:1.5;"/><rect fill="none" height="118.2422" style="stroke:#000000;stroke-width:1.5;" width="606" x="411.5" y="939.1836"/><text fill="#000000" font-family="sans-serif" font-size="13" font-weight="bold" lengthAdjust="spacing" textLength="22" x="426.5" y="952.752">opt</text><text fill="#000000" font-family="sans-serif" font-size="11" font-weight="bold" lengthAdjust="spacing" textLength="79" x="493.5" y="951.8184">[answer is no]</text><polygon fill="#181818" points="771.5,973.8047,781.5,977.8047,771.5,981.8047,775.5,977.8047" style="stroke:#181818;stroke-width:1.0;"/><line style="stroke:#181818;stroke-width:1.0;" x1="488.5" x2="777.5" y1="977.8047" y2="977.8047"/><text fill="#000000" font-family="sans-serif" font-size="13" font-weight="bold" lengthAdjust="spacing" textLength="18" x="495.5" y="973.0625">23</text><text fill="#000000" font-family="sans-serif" font-size="13" lengthAdjust="spacing" textLength="154" x="517.5" y="973.0625">consultTasks(tasksDTO)</text><line style="stroke:#181818;stroke-width:1.0;stroke-dasharray:2.0,2.0;" x1="793.5" x2="835.5" y1="1007.1152" y2="1007.1152"/><line style="stroke:#181818;stroke-width:1.0;stroke-dasharray:2.0,2.0;" x1="835.5" x2="835.5" y1="1007.1152" y2="1020.1152"/><line style="stroke:#181818;stroke-width:1.0;stroke-dasharray:2.0,2.0;" x1="794.5" x2="835.5" y1="1020.1152" y2="1020.1152"/><polygon fill="#181818" points="804.5,1016.1152,794.5,1020.1152,804.5,1024.1152,800.5,1020.1152" style="stroke:#181818;stroke-width:1.0;"/><text fill="#000000" font-family="sans-serif" font-size="13" font-weight="bold" lengthAdjust="spacing" textLength="18" x="800.5" y="1002.373">24</text><text fill="#000000" font-family="sans-serif" font-size="13" lengthAdjust="spacing" textLength="183" x="822.5" y="1002.373">orderTasksByDate(tasksDTO)</text><polygon fill="#181818" points="499.5,1045.4258,489.5,1049.4258,499.5,1053.4258,495.5,1049.4258" style="stroke:#181818;stroke-width:1.0;"/><line style="stroke:#181818;stroke-width:1.0;stroke-dasharray:2.0,2.0;" x1="493.5" x2="787.5" y1="1049.4258" y2="1049.4258"/><text fill="#000000" font-family="sans-serif" font-size="13" font-weight="bold" lengthAdjust="spacing" textLength="18" x="505.5" y="1044.6836">25</text><text fill="#000000" font-family="sans-serif" font-size="13" lengthAdjust="spacing" textLength="62" x="527.5" y="1044.6836">tasksDTO</text><polygon fill="#181818" points="77.5,1097.0469,67.5,1101.0469,77.5,1105.0469,73.5,1101.0469" style="stroke:#181818;stroke-width:1.0;"/><line style="stroke:#181818;stroke-width:1.0;stroke-dasharray:2.0,2.0;" x1="71.5" x2="482.5" y1="1101.0469" y2="1101.0469"/><text fill="#000000" font-family="sans-serif" font-size="13" font-weight="bold" lengthAdjust="spacing" textLength="18" x="83.5" y="1088.6494">26</text><text fill="#000000" font-family="sans-serif" font-size="13" lengthAdjust="spacing" textLength="235" x="105.5" y="1080.9941">shows tasks assigned to collaborator</text><text fill="#000000" font-family="sans-serif" font-size="13" lengthAdjust="spacing" textLength="183" x="105.5" y="1096.3047">between two dates requested</text><!--SRC=[lLLDRzim3BtxLn2vB2qIODXfoA67fiLGeC20VDnwKMmc4U98daJ7yByV9NyxZflrC9zicNnyv7kqxKcgH1XnXhDMEZmQVKOWas9WwpU924_YW6lAOmI38GbrYDi1zYWYdKbrWBs8BGO1IUBGxVhxZvymXwLMDeq9wCZGmfui26lbGM44f450gEDOxBGHf4qGY9IqIiyxTFSX7y5asGgOS3AydfDOvuW1roSPoaGeWicYBBHnDRPlFdBxDXB3zsGO6mlKvMRrtersR5UOQ2kvSlwX5flEWS_g7ddEyY886v81y5KzmVo9IS42_22u_t1qEftPE9mQdZlp1mp6a8xxuoF3XWRvRVEAtzMb5wpUdnGjMTXBOmaY5-eY8xp2lI9CUO9NYODqRjIqoBr6NodQpnmP0kSSa5xFGiPjsqmVkebUQtzaS0_wWgOuWlBwXGJj_6_ET8pf0v2vS5gHxulEAxvO1xMwQuhrUNeRJdtI32onzruuOUOgk9ilaFQ8y2vPf5tUQG44qtQeiE85niywyLvysVmURwOhjQyjzntNGiQhv9r-aPYL5j_BcD2mnPaZjqsflTiHGjaCZOMSVS7eIWyxGYTKXeBqmVMK-XgiVNqtiT8aDsRUZEYfj_JtuFG_4rL03sdUKBCrNXtSciyjlAw8unZTtgxbj4UTsH83OcSfuVrIxhDMw6Gjj2o47QfIAJAefiMOVoW5Lii8Wv9UYHUslkNFUJ7_QUNRMObtfwODQj5FiPctmVfPsaHbqdFkbgnEVRYbJMV1XfIf5fIjFEJfqlcZKscn-CSf_8z-RZbk_3S87sg7b24ge4pxduAjJ8dHq7UazLZL-Wi0]--></g></svg>