<?xml version="1.0" encoding="us-ascii" standalone="no"?><svg xmlns="http://www.w3.org/2000/svg" xmlns:xlink="http://www.w3.org/1999/xlink" contentStyleType="text/css" height="1303px" preserveAspectRatio="none" style="width:1073px;height:1303px;background:#FFFFFF;" version="1.1" viewBox="0 0 1073 1303" width="1073px" zoomAndPan="magnify"><defs/><g><text fill="#000000" font-family="sans-serif" font-size="14" font-weight="bold" lengthAdjust="spacing" textLength="386" x="345" y="28.5352">US028 - Consult the tasks assigned to a collaborator</text><rect fill="#FFFFFF" height="1075.1348" style="stroke:#181818;stroke-width:1.0;" width="10" x="61.5" y="128.9766"/><rect fill="#FFFFFF" height="70.7988" style="stroke:#181818;stroke-width:1.0;" width="10" x="478.5" y="150.2871"/><rect fill="#FFFFFF" height="29.3105" style="stroke:#181818;stroke-width:1.0;" width="10" x="478.5" y="250.3965"/><rect fill="#FFFFFF" height="338.5039" style="stroke:#181818;stroke-width:1.0;" width="10" x="478.5" y="309.0176"/><rect fill="#FFFFFF" height="170.8633" style="stroke:#181818;stroke-width:1.0;" width="10" x="478.5" y="676.832"/><rect fill="#FFFFFF" height="327.1055" style="stroke:#181818;stroke-width:1.0;" width="10" x="478.5" y="877.0059"/><rect fill="#FFFFFF" height="73.7539" style="stroke:#181818;stroke-width:1.0;" width="10" x="786.5" y="338.3281"/><rect fill="#FFFFFF" height="73.7539" style="stroke:#181818;stroke-width:1.0;" width="10" x="786.5" y="441.3926"/><rect fill="#FFFFFF" height="73.7539" style="stroke:#181818;stroke-width:1.0;" width="10" x="786.5" y="544.457"/><rect fill="#FFFFFF" height="87.9316" style="stroke:#181818;stroke-width:1.0;" width="10" x="786.5" y="730.4531"/><rect fill="#FFFFFF" height="113.9316" style="stroke:#181818;stroke-width:1.0;" width="10" x="786.5" y="906.3164"/><rect fill="#FFFFFF" height="71.6211" style="stroke:#181818;stroke-width:1.0;" width="10" x="786.5" y="1080.8691"/><rect fill="#FFFFFF" height="29.3105" style="stroke:#181818;stroke-width:1.0;" width="10" x="1016.5" y="759.7637"/><rect fill="none" height="336.416" style="stroke:#000000;stroke-width:1.5;" width="1057" x="10" y="691.832"/><rect fill="none" height="118.2422" style="stroke:#000000;stroke-width:1.5;" width="609" x="411.5" y="1042.248"/><line style="stroke:#181818;stroke-width:0.5;stroke-dasharray:5.0,5.0;" x1="66" x2="66" y1="118.9766" y2="1222.1113"/><line style="stroke:#181818;stroke-width:0.5;stroke-dasharray:5.0,5.0;" x1="483.5" x2="483.5" y1="118.9766" y2="1222.1113"/><line style="stroke:#181818;stroke-width:0.5;stroke-dasharray:5.0,5.0;" x1="791.5" x2="791.5" y1="189.0313" y2="1222.1113"/><line style="stroke:#181818;stroke-width:0.5;stroke-dasharray:5.0,5.0;" x1="1021" x2="1021" y1="118.9766" y2="1222.1113"/><text fill="#000000" font-family="sans-serif" font-size="14" lengthAdjust="spacing" textLength="87" x="20" y="116.0234">Collaborator</text><ellipse cx="66.5" cy="50.9883" fill="#E3E3E3" rx="8" ry="8" style="stroke:#181818;stroke-width:0.5;"/><path d="M66.5,58.9883 L66.5,85.9883 M53.5,66.9883 L79.5,66.9883 M66.5,85.9883 L53.5,100.9883 M66.5,85.9883 L79.5,100.9883 " fill="none" style="stroke:#181818;stroke-width:0.5;"/><text fill="#000000" font-family="sans-serif" font-size="14" lengthAdjust="spacing" textLength="87" x="20" y="1234.6465">Collaborator</text><ellipse cx="66.5" cy="1246.0996" fill="#E3E3E3" rx="8" ry="8" style="stroke:#181818;stroke-width:0.5;"/><path d="M66.5,1254.0996 L66.5,1281.0996 M53.5,1262.0996 L79.5,1262.0996 M66.5,1281.0996 L53.5,1296.0996 M66.5,1281.0996 L79.5,1296.0996 " fill="none" style="stroke:#181818;stroke-width:0.5;"/><rect fill="#E3E3E3" height="30.4883" rx="2.5" ry="2.5" style="stroke:#181818;stroke-width:0.5;" width="124" x="421.5" y="87.4883"/><text fill="#000000" font-family="sans-serif" font-size="14" lengthAdjust="spacing" textLength="110" x="428.5" y="108.0234">:ConsultTasksUI</text><rect fill="#E3E3E3" height="30.4883" rx="2.5" ry="2.5" style="stroke:#181818;stroke-width:0.5;" width="124" x="421.5" y="1221.1113"/><text fill="#000000" font-family="sans-serif" font-size="14" lengthAdjust="spacing" textLength="110" x="428.5" y="1241.6465">:ConsultTasksUI</text><rect fill="#E3E3E3" height="30.4883" rx="2.5" ry="2.5" style="stroke:#181818;stroke-width:0.5;" width="180" x="701.5" y="1221.1113"/><text fill="#000000" font-family="sans-serif" font-size="14" lengthAdjust="spacing" textLength="166" x="708.5" y="1241.6465">:ConsultTasksController</text><rect fill="#E3E3E3" height="46.9766" rx="2.5" ry="2.5" style="stroke:#181818;stroke-width:0.5;" width="71" x="986" y="71"/><text fill="#000000" font-family="sans-serif" font-size="14" lengthAdjust="spacing" textLength="51" x="996" y="91.5352">agenda</text><text fill="#000000" font-family="sans-serif" font-size="14" lengthAdjust="spacing" textLength="57" x="993" y="108.0234">:Agenda</text><rect fill="#E3E3E3" height="46.9766" rx="2.5" ry="2.5" style="stroke:#181818;stroke-width:0.5;" width="71" x="986" y="1221.1113"/><text fill="#000000" font-family="sans-serif" font-size="14" lengthAdjust="spacing" textLength="51" x="996" y="1241.6465">agenda</text><text fill="#000000" font-family="sans-serif" font-size="14" lengthAdjust="spacing" textLength="57" x="993" y="1258.1348">:Agenda</text><rect fill="#FFFFFF" height="1075.1348" style="stroke:#181818;stroke-width:1.0;" width="10" x="61.5" y="128.9766"/><rect fill="#FFFFFF" height="70.7988" style="stroke:#181818;stroke-width:1.0;" width="10" x="478.5" y="150.2871"/><rect fill="#FFFFFF" height="29.3105" style="stroke:#181818;stroke-width:1.0;" width="10" x="478.5" y="250.3965"/><rect fill="#FFFFFF" height="338.5039" style="stroke:#181818;stroke-width:1.0;" width="10" x="478.5" y="309.0176"/><rect fill="#FFFFFF" height="170.8633" style="stroke:#181818;stroke-width:1.0;" width="10" x="478.5" y="676.832"/><rect fill="#FFFFFF" height="327.1055" style="stroke:#181818;stroke-width:1.0;" width="10" x="478.5" y="877.0059"/><rect fill="#FFFFFF" height="73.7539" style="stroke:#181818;stroke-width:1.0;" width="10" x="786.5" y="338.3281"/><rect fill="#FFFFFF" height="73.7539" style="stroke:#181818;stroke-width:1.0;" width="10" x="786.5" y="441.3926"/><rect fill="#FFFFFF" height="73.7539" style="stroke:#181818;stroke-width:1.0;" width="10" x="786.5" y="544.457"/><rect fill="#FFFFFF" height="87.9316" style="stroke:#181818;stroke-width:1.0;" width="10" x="786.5" y="730.4531"/><rect fill="#FFFFFF" height="113.9316" style="stroke:#181818;stroke-width:1.0;" width="10" x="786.5" y="906.3164"/><rect fill="#FFFFFF" height="71.6211" style="stroke:#181818;stroke-width:1.0;" width="10" x="786.5" y="1080.8691"/><rect fill="#FFFFFF" height="29.3105" style="stroke:#181818;stroke-width:1.0;" width="10" x="1016.5" y="759.7637"/><polygon fill="#181818" points="466.5,146.2871,476.5,150.2871,466.5,154.2871,470.5,150.2871" style="stroke:#181818;stroke-width:1.0;"/><line style="stroke:#181818;stroke-width:1.0;" x1="71.5" x2="472.5" y1="150.2871" y2="150.2871"/><text fill="#000000" font-family="sans-serif" font-size="13" font-weight="bold" lengthAdjust="spacing" textLength="9" x="78.5" y="145.5449">1</text><text fill="#000000" font-family="sans-serif" font-size="13" lengthAdjust="spacing" textLength="316" x="91.5" y="145.5449">asks to consult the tasks assigned to collaborator</text><polygon fill="#181818" points="689.5,175.5977,699.5,179.5977,689.5,183.5977,693.5,179.5977" style="stroke:#181818;stroke-width:1.0;"/><line style="stroke:#181818;stroke-width:1.0;" x1="488.5" x2="695.5" y1="179.5977" y2="179.5977"/><text fill="#000000" font-family="sans-serif" font-size="13" font-weight="bold" lengthAdjust="spacing" textLength="9" x="495.5" y="174.8555">2</text><text fill="#000000" font-family="sans-serif" font-size="13" lengthAdjust="spacing" textLength="38" x="508.5" y="174.8555">create</text><rect fill="#E3E3E3" height="30.4883" rx="2.5" ry="2.5" style="stroke:#181818;stroke-width:0.5;" width="180" x="701.5" y="158.2871"/><text fill="#000000" font-family="sans-serif" font-size="14" lengthAdjust="spacing" textLength="166" x="708.5" y="178.8223">:ConsultTasksController</text><polygon fill="#181818" points="82.5,217.0859,72.5,221.0859,82.5,225.0859,78.5,221.0859" style="stroke:#181818;stroke-width:1.0;"/><line style="stroke:#181818;stroke-width:1.0;stroke-dasharray:2.0,2.0;" x1="76.5" x2="482.5" y1="221.0859" y2="221.0859"/><text fill="#000000" font-family="sans-serif" font-size="13" font-weight="bold" lengthAdjust="spacing" textLength="9" x="88.5" y="216.3438">3</text><text fill="#000000" font-family="sans-serif" font-size="13" lengthAdjust="spacing" textLength="115" x="101.5" y="216.3438">requests first date</text><polygon fill="#181818" points="466.5,246.3965,476.5,250.3965,466.5,254.3965,470.5,250.3965" style="stroke:#181818;stroke-width:1.0;"/><line style="stroke:#181818;stroke-width:1.0;" x1="71.5" x2="472.5" y1="250.3965" y2="250.3965"/><text fill="#000000" font-family="sans-serif" font-size="13" font-weight="bold" lengthAdjust="spacing" textLength="9" x="78.5" y="245.6543">4</text><text fill="#000000" font-family="sans-serif" font-size="13" lengthAdjust="spacing" textLength="95" x="91.5" y="245.6543">types first date</text><polygon fill="#181818" points="82.5,275.707,72.5,279.707,82.5,283.707,78.5,279.707" style="stroke:#181818;stroke-width:1.0;"/><line style="stroke:#181818;stroke-width:1.0;stroke-dasharray:2.0,2.0;" x1="76.5" x2="482.5" y1="279.707" y2="279.707"/><text fill="#000000" font-family="sans-serif" font-size="13" font-weight="bold" lengthAdjust="spacing" textLength="9" x="88.5" y="274.9648">5</text><text fill="#000000" font-family="sans-serif" font-size="13" lengthAdjust="spacing" textLength="134" x="101.5" y="274.9648">requests second date</text><polygon fill="#181818" points="466.5,305.0176,476.5,309.0176,466.5,313.0176,470.5,309.0176" style="stroke:#181818;stroke-width:1.0;"/><line style="stroke:#181818;stroke-width:1.0;" x1="71.5" x2="472.5" y1="309.0176" y2="309.0176"/><text fill="#000000" font-family="sans-serif" font-size="13" font-weight="bold" lengthAdjust="spacing" textLength="9" x="78.5" y="304.2754">6</text><text fill="#000000" font-family="sans-serif" font-size="13" lengthAdjust="spacing" textLength="114" x="91.5" y="304.2754">types second date</text><polygon fill="#181818" points="774.5,334.3281,784.5,338.3281,774.5,342.3281,778.5,338.3281" style="stroke:#181818;stroke-width:1.0;"/><line style="stroke:#181818;stroke-width:1.0;" x1="488.5" x2="780.5" y1="338.3281" y2="338.3281"/><text fill="#000000" font-family="sans-serif" font-size="13" font-weight="bold" lengthAdjust="spacing" textLength="9" x="495.5" y="333.5859">7</text><text fill="#000000" font-family="sans-serif" font-size="13" lengthAdjust="spacing" textLength="140" x="508.5" y="333.5859">getEmailCollaborator()</text><rect fill="none" height="39.4434" style="stroke:#000000;stroke-width:1.5;" width="186" x="698.5" y="346.3281"/><path d="M698.5,346.3281 L762.5,346.3281 L762.5,353.3281 L752.5,363.3281 L698.5,363.3281 L698.5,346.3281 " fill="#EEEEEE" style="stroke:#000000;stroke-width:2.0;"/><text fill="#000000" font-family="sans-serif" font-size="13" font-weight="bold" lengthAdjust="spacing" textLength="19" x="711.5" y="360.8965">ref</text><text fill="#000000" font-family="sans-serif" font-size="12" lengthAdjust="spacing" textLength="139" x="722" y="378.9297">Get Collaborator's Email</text><polygon fill="#181818" points="499.5,408.082,489.5,412.082,499.5,416.082,495.5,412.082" style="stroke:#181818;stroke-width:1.0;"/><line style="stroke:#181818;stroke-width:1.0;stroke-dasharray:2.0,2.0;" x1="493.5" x2="790.5" y1="412.082" y2="412.082"/><text fill="#000000" font-family="sans-serif" font-size="13" font-weight="bold" lengthAdjust="spacing" textLength="9" x="505.5" y="407.3398">8</text><text fill="#000000" font-family="sans-serif" font-size="13" lengthAdjust="spacing" textLength="34" x="518.5" y="407.3398">email</text><polygon fill="#181818" points="774.5,437.3926,784.5,441.3926,774.5,445.3926,778.5,441.3926" style="stroke:#181818;stroke-width:1.0;"/><line style="stroke:#181818;stroke-width:1.0;" x1="488.5" x2="780.5" y1="441.3926" y2="441.3926"/><text fill="#000000" font-family="sans-serif" font-size="13" font-weight="bold" lengthAdjust="spacing" textLength="9" x="495.5" y="436.6504">9</text><text fill="#000000" font-family="sans-serif" font-size="13" lengthAdjust="spacing" textLength="195" x="508.5" y="436.6504">getTeamsByCollaborator(email)</text><rect fill="none" height="39.4434" style="stroke:#000000;stroke-width:1.5;" width="186" x="698.5" y="449.3926"/><path d="M698.5,449.3926 L762.5,449.3926 L762.5,456.3926 L752.5,466.3926 L698.5,466.3926 L698.5,449.3926 " fill="#EEEEEE" style="stroke:#000000;stroke-width:2.0;"/><text fill="#000000" font-family="sans-serif" font-size="13" font-weight="bold" lengthAdjust="spacing" textLength="19" x="711.5" y="463.9609">ref</text><text fill="#000000" font-family="sans-serif" font-size="12" lengthAdjust="spacing" textLength="155" x="714" y="481.9941">Get Teams By Collaborator</text><polygon fill="#181818" points="499.5,511.1465,489.5,515.1465,499.5,519.1465,495.5,515.1465" style="stroke:#181818;stroke-width:1.0;"/><line style="stroke:#181818;stroke-width:1.0;stroke-dasharray:2.0,2.0;" x1="493.5" x2="790.5" y1="515.1465" y2="515.1465"/><text fill="#000000" font-family="sans-serif" font-size="13" font-weight="bold" lengthAdjust="spacing" textLength="18" x="505.5" y="510.4043">10</text><text fill="#000000" font-family="sans-serif" font-size="13" lengthAdjust="spacing" textLength="66" x="527.5" y="510.4043">teamsDTO</text><polygon fill="#181818" points="774.5,540.457,784.5,544.457,774.5,548.457,778.5,544.457" style="stroke:#181818;stroke-width:1.0;"/><line style="stroke:#181818;stroke-width:1.0;" x1="488.5" x2="780.5" y1="544.457" y2="544.457"/><text fill="#000000" font-family="sans-serif" font-size="13" font-weight="bold" lengthAdjust="spacing" textLength="18" x="495.5" y="539.7148">11</text><text fill="#000000" font-family="sans-serif" font-size="13" lengthAdjust="spacing" textLength="257" x="517.5" y="539.7148">getTasks(teamsDTO, startDate, endDate)</text><rect fill="none" height="39.4434" style="stroke:#000000;stroke-width:1.5;" width="186" x="698.5" y="552.457"/><path d="M698.5,552.457 L762.5,552.457 L762.5,559.457 L752.5,569.457 L698.5,569.457 L698.5,552.457 " fill="#EEEEEE" style="stroke:#000000;stroke-width:2.0;"/><text fill="#000000" font-family="sans-serif" font-size="13" font-weight="bold" lengthAdjust="spacing" textLength="19" x="711.5" y="567.0254">ref</text><text fill="#000000" font-family="sans-serif" font-size="12" lengthAdjust="spacing" textLength="58" x="762.5" y="585.0586">Get Tasks</text><polygon fill="#181818" points="499.5,614.2109,489.5,618.2109,499.5,622.2109,495.5,618.2109" style="stroke:#181818;stroke-width:1.0;"/><line style="stroke:#181818;stroke-width:1.0;stroke-dasharray:2.0,2.0;" x1="493.5" x2="790.5" y1="618.2109" y2="618.2109"/><text fill="#000000" font-family="sans-serif" font-size="13" font-weight="bold" lengthAdjust="spacing" textLength="18" x="505.5" y="613.4688">12</text><text fill="#000000" font-family="sans-serif" font-size="13" lengthAdjust="spacing" textLength="62" x="527.5" y="613.4688">tasksDTO</text><polygon fill="#181818" points="82.5,643.5215,72.5,647.5215,82.5,651.5215,78.5,647.5215" style="stroke:#181818;stroke-width:1.0;"/><line style="stroke:#181818;stroke-width:1.0;stroke-dasharray:2.0,2.0;" x1="76.5" x2="482.5" y1="647.5215" y2="647.5215"/><text fill="#000000" font-family="sans-serif" font-size="13" font-weight="bold" lengthAdjust="spacing" textLength="18" x="88.5" y="642.7793">13</text><text fill="#000000" font-family="sans-serif" font-size="13" lengthAdjust="spacing" textLength="361" x="110.5" y="642.7793">asks if collaborator wants to view tasks filtered by status</text><polygon fill="#181818" points="466.5,672.832,476.5,676.832,466.5,680.832,470.5,676.832" style="stroke:#181818;stroke-width:1.0;"/><line style="stroke:#181818;stroke-width:1.0;" x1="71.5" x2="472.5" y1="676.832" y2="676.832"/><text fill="#000000" font-family="sans-serif" font-size="13" font-weight="bold" lengthAdjust="spacing" textLength="18" x="78.5" y="672.0898">14</text><text fill="#000000" font-family="sans-serif" font-size="13" lengthAdjust="spacing" textLength="113" x="100.5" y="672.0898">answers yes or no</text><path d="M10,691.832 L77,691.832 L77,699.1426 L67,709.1426 L10,709.1426 L10,691.832 " fill="#EEEEEE" style="stroke:#000000;stroke-width:1.5;"/><rect fill="none" height="336.416" style="stroke:#000000;stroke-width:1.5;" width="1057" x="10" y="691.832"/><text fill="#000000" font-family="sans-serif" font-size="13" font-weight="bold" lengthAdjust="spacing" textLength="22" x="25" y="705.4004">opt</text><text fill="#000000" font-family="sans-serif" font-size="11" font-weight="bold" lengthAdjust="spacing" textLength="83" x="92" y="704.4668">[answer is yes]</text><polygon fill="#181818" points="774.5,726.4531,784.5,730.4531,774.5,734.4531,778.5,730.4531" style="stroke:#181818;stroke-width:1.0;"/><line style="stroke:#181818;stroke-width:1.0;" x1="488.5" x2="780.5" y1="730.4531" y2="730.4531"/><text fill="#000000" font-family="sans-serif" font-size="13" font-weight="bold" lengthAdjust="spacing" textLength="18" x="495.5" y="725.7109">15</text><text fill="#000000" font-family="sans-serif" font-size="13" lengthAdjust="spacing" textLength="90" x="517.5" y="725.7109">getStatusList()</text><polygon fill="#181818" points="1004.5,755.7637,1014.5,759.7637,1004.5,763.7637,1008.5,759.7637" style="stroke:#181818;stroke-width:1.0;"/><line style="stroke:#181818;stroke-width:1.0;" x1="796.5" x2="1010.5" y1="759.7637" y2="759.7637"/><text fill="#000000" font-family="sans-serif" font-size="13" font-weight="bold" lengthAdjust="spacing" textLength="18" x="803.5" y="755.0215">16</text><text fill="#000000" font-family="sans-serif" font-size="13" lengthAdjust="spacing" textLength="90" x="825.5" y="755.0215">getStatusList()</text><polygon fill="#181818" points="807.5,785.0742,797.5,789.0742,807.5,793.0742,803.5,789.0742" style="stroke:#181818;stroke-width:1.0;"/><line style="stroke:#181818;stroke-width:1.0;stroke-dasharray:2.0,2.0;" x1="801.5" x2="1020.5" y1="789.0742" y2="789.0742"/><text fill="#000000" font-family="sans-serif" font-size="13" font-weight="bold" lengthAdjust="spacing" textLength="18" x="813.5" y="784.332">17</text><text fill="#000000" font-family="sans-serif" font-size="13" lengthAdjust="spacing" textLength="62" x="835.5" y="784.332">statusList</text><polygon fill="#181818" points="499.5,814.3848,489.5,818.3848,499.5,822.3848,495.5,818.3848" style="stroke:#181818;stroke-width:1.0;"/><line style="stroke:#181818;stroke-width:1.0;stroke-dasharray:2.0,2.0;" x1="493.5" x2="790.5" y1="818.3848" y2="818.3848"/><text fill="#000000" font-family="sans-serif" font-size="13" font-weight="bold" lengthAdjust="spacing" textLength="18" x="505.5" y="813.6426">18</text><text fill="#000000" font-family="sans-serif" font-size="13" lengthAdjust="spacing" textLength="62" x="527.5" y="813.6426">statusList</text><polygon fill="#181818" points="82.5,843.6953,72.5,847.6953,82.5,851.6953,78.5,847.6953" style="stroke:#181818;stroke-width:1.0;"/><line style="stroke:#181818;stroke-width:1.0;stroke-dasharray:2.0,2.0;" x1="76.5" x2="482.5" y1="847.6953" y2="847.6953"/><text fill="#000000" font-family="sans-serif" font-size="13" font-weight="bold" lengthAdjust="spacing" textLength="18" x="88.5" y="842.9531">19</text><text fill="#000000" font-family="sans-serif" font-size="13" lengthAdjust="spacing" textLength="308" x="110.5" y="842.9531">shows status list and requests one to filter tasks</text><polygon fill="#181818" points="466.5,873.0059,476.5,877.0059,466.5,881.0059,470.5,877.0059" style="stroke:#181818;stroke-width:1.0;"/><line style="stroke:#181818;stroke-width:1.0;" x1="71.5" x2="472.5" y1="877.0059" y2="877.0059"/><text fill="#000000" font-family="sans-serif" font-size="13" font-weight="bold" lengthAdjust="spacing" textLength="18" x="78.5" y="872.2637">20</text><text fill="#000000" font-family="sans-serif" font-size="13" lengthAdjust="spacing" textLength="114" x="100.5" y="872.2637">selects one status</text><polygon fill="#181818" points="774.5,902.3164,784.5,906.3164,774.5,910.3164,778.5,906.3164" style="stroke:#181818;stroke-width:1.0;"/><line style="stroke:#181818;stroke-width:1.0;" x1="488.5" x2="780.5" y1="906.3164" y2="906.3164"/><text fill="#000000" font-family="sans-serif" font-size="13" font-weight="bold" lengthAdjust="spacing" textLength="18" x="495.5" y="901.5742">21</text><text fill="#000000" font-family="sans-serif" font-size="13" lengthAdjust="spacing" textLength="254" x="517.5" y="901.5742">consultTasksByStatus(tasksDTO, status)</text><line style="stroke:#181818;stroke-width:1.0;stroke-dasharray:2.0,2.0;" x1="796.5" x2="838.5" y1="935.627" y2="935.627"/><line style="stroke:#181818;stroke-width:1.0;stroke-dasharray:2.0,2.0;" x1="838.5" x2="838.5" y1="935.627" y2="948.627"/><line style="stroke:#181818;stroke-width:1.0;stroke-dasharray:2.0,2.0;" x1="797.5" x2="838.5" y1="948.627" y2="948.627"/><polygon fill="#181818" points="807.5,944.627,797.5,948.627,807.5,952.627,803.5,948.627" style="stroke:#181818;stroke-width:1.0;"/><text fill="#000000" font-family="sans-serif" font-size="13" font-weight="bold" lengthAdjust="spacing" textLength="18" x="803.5" y="930.8848">22</text><text fill="#000000" font-family="sans-serif" font-size="13" lengthAdjust="spacing" textLength="184" x="825.5" y="930.8848">filterTasks(tasksDTO, status)</text><line style="stroke:#181818;stroke-width:1.0;stroke-dasharray:2.0,2.0;" x1="796.5" x2="838.5" y1="977.9375" y2="977.9375"/><line style="stroke:#181818;stroke-width:1.0;stroke-dasharray:2.0,2.0;" x1="838.5" x2="838.5" y1="977.9375" y2="990.9375"/><line style="stroke:#181818;stroke-width:1.0;stroke-dasharray:2.0,2.0;" x1="797.5" x2="838.5" y1="990.9375" y2="990.9375"/><polygon fill="#181818" points="807.5,986.9375,797.5,990.9375,807.5,994.9375,803.5,990.9375" style="stroke:#181818;stroke-width:1.0;"/><text fill="#000000" font-family="sans-serif" font-size="13" font-weight="bold" lengthAdjust="spacing" textLength="18" x="803.5" y="973.1953">23</text><text fill="#000000" font-family="sans-serif" font-size="13" lengthAdjust="spacing" textLength="183" x="825.5" y="973.1953">orderTasksByDate(tasksDTO)</text><polygon fill="#181818" points="499.5,1016.248,489.5,1020.248,499.5,1024.248,495.5,1020.248" style="stroke:#181818;stroke-width:1.0;"/><line style="stroke:#181818;stroke-width:1.0;stroke-dasharray:2.0,2.0;" x1="493.5" x2="790.5" y1="1020.248" y2="1020.248"/><text fill="#000000" font-family="sans-serif" font-size="13" font-weight="bold" lengthAdjust="spacing" textLength="18" x="505.5" y="1015.5059">24</text><text fill="#000000" font-family="sans-serif" font-size="13" lengthAdjust="spacing" textLength="62" x="527.5" y="1015.5059">tasksDTO</text><path d="M411.5,1042.248 L478.5,1042.248 L478.5,1049.5586 L468.5,1059.5586 L411.5,1059.5586 L411.5,1042.248 " fill="#EEEEEE" style="stroke:#000000;stroke-width:1.5;"/><rect fill="none" height="118.2422" style="stroke:#000000;stroke-width:1.5;" width="609" x="411.5" y="1042.248"/><text fill="#000000" font-family="sans-serif" font-size="13" font-weight="bold" lengthAdjust="spacing" textLength="22" x="426.5" y="1055.8164">opt</text><text fill="#000000" font-family="sans-serif" font-size="11" font-weight="bold" lengthAdjust="spacing" textLength="79" x="493.5" y="1054.8828">[answer is no]</text><polygon fill="#181818" points="774.5,1076.8691,784.5,1080.8691,774.5,1084.8691,778.5,1080.8691" style="stroke:#181818;stroke-width:1.0;"/><line style="stroke:#181818;stroke-width:1.0;" x1="488.5" x2="780.5" y1="1080.8691" y2="1080.8691"/><text fill="#000000" font-family="sans-serif" font-size="13" font-weight="bold" lengthAdjust="spacing" textLength="18" x="495.5" y="1076.127">25</text><text fill="#000000" font-family="sans-serif" font-size="13" lengthAdjust="spacing" textLength="154" x="517.5" y="1076.127">consultTasks(tasksDTO)</text><line style="stroke:#181818;stroke-width:1.0;stroke-dasharray:2.0,2.0;" x1="796.5" x2="838.5" y1="1110.1797" y2="1110.1797"/><line style="stroke:#181818;stroke-width:1.0;stroke-dasharray:2.0,2.0;" x1="838.5" x2="838.5" y1="1110.1797" y2="1123.1797"/><line style="stroke:#181818;stroke-width:1.0;stroke-dasharray:2.0,2.0;" x1="797.5" x2="838.5" y1="1123.1797" y2="1123.1797"/><polygon fill="#181818" points="807.5,1119.1797,797.5,1123.1797,807.5,1127.1797,803.5,1123.1797" style="stroke:#181818;stroke-width:1.0;"/><text fill="#000000" font-family="sans-serif" font-size="13" font-weight="bold" lengthAdjust="spacing" textLength="18" x="803.5" y="1105.4375">26</text><text fill="#000000" font-family="sans-serif" font-size="13" lengthAdjust="spacing" textLength="183" x="825.5" y="1105.4375">orderTasksByDate(tasksDTO)</text><polygon fill="#181818" points="499.5,1148.4902,489.5,1152.4902,499.5,1156.4902,495.5,1152.4902" style="stroke:#181818;stroke-width:1.0;"/><line style="stroke:#181818;stroke-width:1.0;stroke-dasharray:2.0,2.0;" x1="493.5" x2="790.5" y1="1152.4902" y2="1152.4902"/><text fill="#000000" font-family="sans-serif" font-size="13" font-weight="bold" lengthAdjust="spacing" textLength="18" x="505.5" y="1147.748">27</text><text fill="#000000" font-family="sans-serif" font-size="13" lengthAdjust="spacing" textLength="62" x="527.5" y="1147.748">tasksDTO</text><polygon fill="#181818" points="77.5,1200.1113,67.5,1204.1113,77.5,1208.1113,73.5,1204.1113" style="stroke:#181818;stroke-width:1.0;"/><line style="stroke:#181818;stroke-width:1.0;stroke-dasharray:2.0,2.0;" x1="71.5" x2="482.5" y1="1204.1113" y2="1204.1113"/><text fill="#000000" font-family="sans-serif" font-size="13" font-weight="bold" lengthAdjust="spacing" textLength="18" x="83.5" y="1191.7139">28</text><text fill="#000000" font-family="sans-serif" font-size="13" lengthAdjust="spacing" textLength="235" x="105.5" y="1184.0586">shows tasks assigned to collaborator</text><text fill="#000000" font-family="sans-serif" font-size="13" lengthAdjust="spacing" textLength="183" x="105.5" y="1199.3691">between two dates requested</text><!--SRC=[lLLDZzem4BtdLuou55OWLJrL75OgxAfQQQLA1MvxCSa05ecTsXEY_FkEdMz84Dr3StBiUM_UVDdsB5KgZ4WWqKg79wCJ138P1hOvIKLu5aVSK14Z60n9g6FSDR0d4UbSgYCSH6mn24WIc-usNxzzXmMijR9PJ40dfXRsR45OAuyA8o0D0a8TnsAlZI1jWa1af5MMxD6jGzw2oRfZC64ml2Pfh0l4WFsJ36Kg5C5aMJdQEX-xDs-vUxjZmsiop8qbwthx-xrlpL6hI7oevG-_y5RbqckJ5q7OYWc0l_eF5i_i79RW0-OumxjPwEN0yJJq787VO3AcT1gVdfWsDCYdxH6VDQwNNAK_6LgoS9364aJEr5b6UCDx8vYA56-0Wt96V5haMAFFEBr6taa2Ouv8hucGSRSzfhC-qDVKRnayWBwWARUW-duYGHV_nJKNSte3BhI3bNZlT57hnSQe4rthx5hd5aLYLqLFgQSObJikkPRjEM5LzFGtLZtjj_h9WL-slvhZmJ06Gt6zEwtnSx344_F2kBdpwHQpdjJFnUQS3CTo5OSphECOBKM_KVtmoKDlvY3dWVTpUf6OLmDwa36XuG7T5ovCokp3_IoKpT5OABYhcLtfuNxMALMc8BtnQDettl-xj3HjypkIsp95pzLLzGY-ljJgWmgvQ2NO1Z_KCjVuVf7kOs_RhLykUzAvhJWWPXBEMDJUDbgXArjPgx9mGrxgZ0zMosBCprh9rIdqOCbkYXDsNfHLKUPvMlVblE9xi6OjQnbFDMoZPDSeRQ8Aj2hSA3RGsUX5q1sWeShK0yYjEjIpLMVVpKf7nJzcuN_4CzPnznzf-51xf1nH0UNQFrcsRagCXkw9pc_jwoy0]--></g></svg>