<?xml version="1.0" encoding="us-ascii" standalone="no"?><svg xmlns="http://www.w3.org/2000/svg" xmlns:xlink="http://www.w3.org/1999/xlink" contentStyleType="text/css" height="390px" preserveAspectRatio="none" style="width:725px;height:390px;background:#FFFFFF;" version="1.1" viewBox="0 0 725 390" width="725px" zoomAndPan="magnify"><defs/><g><rect fill="#FFFFFF" height="245.4844" style="stroke:#181818;stroke-width:1.0;" width="10" x="172" y="84.2871"/><rect fill="#FFFFFF" height="29.3105" style="stroke:#181818;stroke-width:1.0;" width="10" x="346" y="137.9082"/><rect fill="#FFFFFF" height="29.3105" style="stroke:#181818;stroke-width:1.0;" width="10" x="504" y="196.5293"/><rect fill="#FFFFFF" height="29.3105" style="stroke:#181818;stroke-width:1.0;" width="10" x="646" y="255.1504"/><rect fill="none" height="193.1738" style="stroke:#000000;stroke-width:1.5;" width="642" x="77" y="99.2871"/><line style="stroke:#181818;stroke-width:0.5;stroke-dasharray:5.0,5.0;" x1="177" x2="177" y1="52.9766" y2="338.7715"/><line style="stroke:#181818;stroke-width:0.5;stroke-dasharray:5.0,5.0;" x1="351" x2="351" y1="52.9766" y2="338.7715"/><line style="stroke:#181818;stroke-width:0.5;stroke-dasharray:5.0,5.0;" x1="509" x2="509" y1="52.9766" y2="338.7715"/><line style="stroke:#181818;stroke-width:0.5;stroke-dasharray:5.0,5.0;" x1="651" x2="651" y1="52.9766" y2="338.7715"/><rect fill="#E3E3E3" height="30.4883" rx="2.5" ry="2.5" style="stroke:#181818;stroke-width:0.5;" width="180" x="87" y="21.4883"/><text fill="#000000" font-family="sans-serif" font-size="14" lengthAdjust="spacing" textLength="166" x="94" y="42.0234">:ConsultTasksController</text><rect fill="#E3E3E3" height="30.4883" rx="2.5" ry="2.5" style="stroke:#181818;stroke-width:0.5;" width="180" x="87" y="337.7715"/><text fill="#000000" font-family="sans-serif" font-size="14" lengthAdjust="spacing" textLength="166" x="94" y="358.3066">:ConsultTasksController</text><rect fill="#E3E3E3" height="30.4883" rx="2.5" ry="2.5" style="stroke:#181818;stroke-width:0.5;" width="148" x="277" y="21.4883"/><text fill="#000000" font-family="sans-serif" font-size="14" lengthAdjust="spacing" textLength="134" x="284" y="42.0234">:ApplicationSession</text><rect fill="#E3E3E3" height="30.4883" rx="2.5" ry="2.5" style="stroke:#181818;stroke-width:0.5;" width="148" x="277" y="337.7715"/><text fill="#000000" font-family="sans-serif" font-size="14" lengthAdjust="spacing" textLength="134" x="284" y="358.3066">:ApplicationSession</text><rect fill="#E3E3E3" height="46.9766" rx="2.5" ry="2.5" style="stroke:#181818;stroke-width:0.5;" width="148" x="435" y="5"/><text fill="#000000" font-family="sans-serif" font-size="14" lengthAdjust="spacing" textLength="78" x="470" y="25.5352">appSession</text><text fill="#000000" font-family="sans-serif" font-size="14" lengthAdjust="spacing" textLength="134" x="442" y="42.0234">:ApplicationSession</text><rect fill="#E3E3E3" height="46.9766" rx="2.5" ry="2.5" style="stroke:#181818;stroke-width:0.5;" width="148" x="435" y="337.7715"/><text fill="#000000" font-family="sans-serif" font-size="14" lengthAdjust="spacing" textLength="78" x="470" y="358.3066">appSession</text><text fill="#000000" font-family="sans-serif" font-size="14" lengthAdjust="spacing" textLength="134" x="442" y="374.7949">:ApplicationSession</text><rect fill="#E3E3E3" height="46.9766" rx="2.5" ry="2.5" style="stroke:#181818;stroke-width:0.5;" width="116" x="593" y="5"/><text fill="#000000" font-family="sans-serif" font-size="14" lengthAdjust="spacing" textLength="102" x="600" y="25.5352">currentSession</text><text fill="#000000" font-family="sans-serif" font-size="14" lengthAdjust="spacing" textLength="87" x="607.5" y="42.0234">:UserSession</text><rect fill="#E3E3E3" height="46.9766" rx="2.5" ry="2.5" style="stroke:#181818;stroke-width:0.5;" width="116" x="593" y="337.7715"/><text fill="#000000" font-family="sans-serif" font-size="14" lengthAdjust="spacing" textLength="102" x="600" y="358.3066">currentSession</text><text fill="#000000" font-family="sans-serif" font-size="14" lengthAdjust="spacing" textLength="87" x="607.5" y="374.7949">:UserSession</text><rect fill="#FFFFFF" height="245.4844" style="stroke:#181818;stroke-width:1.0;" width="10" x="172" y="84.2871"/><rect fill="#FFFFFF" height="29.3105" style="stroke:#181818;stroke-width:1.0;" width="10" x="346" y="137.9082"/><rect fill="#FFFFFF" height="29.3105" style="stroke:#181818;stroke-width:1.0;" width="10" x="504" y="196.5293"/><rect fill="#FFFFFF" height="29.3105" style="stroke:#181818;stroke-width:1.0;" width="10" x="646" y="255.1504"/><polygon fill="#181818" points="160,80.2871,170,84.2871,160,88.2871,164,84.2871" style="stroke:#181818;stroke-width:1.0;"/><line style="stroke:#181818;stroke-width:1.0;" x1="0" x2="166" y1="84.2871" y2="84.2871"/><text fill="#000000" font-family="sans-serif" font-size="13" font-weight="bold" lengthAdjust="spacing" textLength="9" x="7" y="79.5449">9</text><text fill="#000000" font-family="sans-serif" font-size="13" lengthAdjust="spacing" textLength="140" x="20" y="79.5449">getEmailCollaborator()</text><path d="M77,99.2871 L290,99.2871 L290,106.5977 L280,116.5977 L77,116.5977 L77,99.2871 " fill="#EEEEEE" style="stroke:#000000;stroke-width:1.5;"/><rect fill="none" height="193.1738" style="stroke:#000000;stroke-width:1.5;" width="642" x="77" y="99.2871"/><text fill="#000000" font-family="sans-serif" font-size="13" font-weight="bold" lengthAdjust="spacing" textLength="168" x="92" y="112.8555">Get Email of Collaborator</text><polygon fill="#181818" points="334,133.9082,344,137.9082,334,141.9082,338,137.9082" style="stroke:#181818;stroke-width:1.0;"/><line style="stroke:#181818;stroke-width:1.0;" x1="182" x2="340" y1="137.9082" y2="137.9082"/><text fill="#000000" font-family="sans-serif" font-size="13" font-weight="bold" lengthAdjust="spacing" textLength="21" x="189" y="133.166">9.1</text><text fill="#000000" font-family="sans-serif" font-size="13" lengthAdjust="spacing" textLength="81" x="214" y="133.166">getInstance()</text><polygon fill="#181818" points="193,163.2188,183,167.2188,193,171.2188,189,167.2188" style="stroke:#181818;stroke-width:1.0;"/><line style="stroke:#181818;stroke-width:1.0;stroke-dasharray:2.0,2.0;" x1="187" x2="350" y1="167.2188" y2="167.2188"/><text fill="#000000" font-family="sans-serif" font-size="13" font-weight="bold" lengthAdjust="spacing" textLength="21" x="199" y="162.4766">9.2</text><text fill="#000000" font-family="sans-serif" font-size="13" lengthAdjust="spacing" textLength="71" x="224" y="162.4766">appSession</text><polygon fill="#181818" points="492,192.5293,502,196.5293,492,200.5293,496,196.5293" style="stroke:#181818;stroke-width:1.0;"/><line style="stroke:#181818;stroke-width:1.0;" x1="182" x2="498" y1="196.5293" y2="196.5293"/><text fill="#000000" font-family="sans-serif" font-size="13" font-weight="bold" lengthAdjust="spacing" textLength="21" x="189" y="191.7871">9.3</text><text fill="#000000" font-family="sans-serif" font-size="13" lengthAdjust="spacing" textLength="123" x="214" y="191.7871">getCurrentSession()</text><polygon fill="#181818" points="193,221.8398,183,225.8398,193,229.8398,189,225.8398" style="stroke:#181818;stroke-width:1.0;"/><line style="stroke:#181818;stroke-width:1.0;stroke-dasharray:2.0,2.0;" x1="187" x2="508" y1="225.8398" y2="225.8398"/><text fill="#000000" font-family="sans-serif" font-size="13" font-weight="bold" lengthAdjust="spacing" textLength="21" x="199" y="221.0977">9.4</text><text fill="#000000" font-family="sans-serif" font-size="13" lengthAdjust="spacing" textLength="93" x="224" y="221.0977">currentSession</text><polygon fill="#181818" points="634,251.1504,644,255.1504,634,259.1504,638,255.1504" style="stroke:#181818;stroke-width:1.0;"/><line style="stroke:#181818;stroke-width:1.0;" x1="182" x2="640" y1="255.1504" y2="255.1504"/><text fill="#000000" font-family="sans-serif" font-size="13" font-weight="bold" lengthAdjust="spacing" textLength="21" x="189" y="250.4082">9.5</text><text fill="#000000" font-family="sans-serif" font-size="13" lengthAdjust="spacing" textLength="142" x="214" y="250.4082">email = getUser(email)</text><polygon fill="#181818" points="193,280.4609,183,284.4609,193,288.4609,189,284.4609" style="stroke:#181818;stroke-width:1.0;"/><line style="stroke:#181818;stroke-width:1.0;stroke-dasharray:2.0,2.0;" x1="187" x2="650" y1="284.4609" y2="284.4609"/><text fill="#000000" font-family="sans-serif" font-size="13" font-weight="bold" lengthAdjust="spacing" textLength="21" x="199" y="279.7188">9.6</text><text fill="#000000" font-family="sans-serif" font-size="13" lengthAdjust="spacing" textLength="34" x="224" y="279.7188">email</text><polygon fill="#181818" points="11,316.7715,1,320.7715,11,324.7715,7,320.7715" style="stroke:#181818;stroke-width:1.0;"/><line style="stroke:#181818;stroke-width:1.0;stroke-dasharray:2.0,2.0;" x1="5" x2="171" y1="320.7715" y2="320.7715"/><text fill="#000000" font-family="sans-serif" font-size="13" font-weight="bold" lengthAdjust="spacing" textLength="18" x="17" y="316.0293">16</text><text fill="#000000" font-family="sans-serif" font-size="13" lengthAdjust="spacing" textLength="34" x="39" y="316.0293">email</text><!--SRC=[TP71IWCn48RlUOgXftfOeHV1ee8iHGgYnQqtGQRfT1kQJK8og_ZsfccxpLOtbzra_lddcvcmKyQXnmOQQwpSUjiGi6z9X2xYKEwmfef_D84doMXgdGl25jVsMvaQDgW32H6VMKdbq32CfgKreTMynB0ByP-zrPhy2310kNnxlb0_EgULH5RML1H2_2Jbv-DYqLUYSqV1XndA-fCaM-_9y3dnFP3FCwfPLSrVNuJ0bgrfcnLvk1N5GqA5ATJ4imQLBcCJkB8UsVhnLLz-FObtoUeBcGujGZorjws39s981c0ta9iapV6aMh7clkb3pRa9SUoIOgbCrnL9qyaZARCuOv-7bQlMDEnmOkWGojxe1a0kNIum-kCVG1aYEQucsb0QuFsUQh-_SRh_3zJjCmkUZ3Amv330qrcGMH-sc6zxSYFkYgBlymi0]--></g></svg>