<?xml version="1.0" encoding="us-ascii" standalone="no"?><svg xmlns="http://www.w3.org/2000/svg" xmlns:xlink="http://www.w3.org/1999/xlink" contentStyleType="text/css" height="910px" preserveAspectRatio="none" style="width:1410px;height:910px;background:#FFFFFF;" version="1.1" viewBox="0 0 1410 910" width="1410px" zoomAndPan="magnify"><defs/><g><rect fill="#FFFFFF" height="764.8984" style="stroke:#181818;stroke-width:1.0;" width="10" x="298" y="84.2871"/><rect fill="#FFFFFF" height="665.9668" style="stroke:#181818;stroke-width:1.0;" width="10" x="685.5" y="137.9082"/><rect fill="#FFFFFF" height="337.5059" style="stroke:#181818;stroke-width:1.0;" width="10" x="831.5" y="437.0586"/><rect fill="#FFFFFF" height="34.3105" style="stroke:#181818;stroke-width:1.0;" width="10" x="836.5" y="615.9668"/><rect fill="#FFFFFF" height="29.3105" style="stroke:#181818;stroke-width:1.0;" width="10" x="1024.5" y="273.8164"/><rect fill="#FFFFFF" height="30" style="stroke:#181818;stroke-width:1.0;" width="10" x="1107" y="356.748"/><rect fill="#FFFFFF" height="30" style="stroke:#181818;stroke-width:1.0;" width="10" x="1107" y="548.6563"/><rect fill="#FFFFFF" height="30" style="stroke:#181818;stroke-width:1.0;" width="10" x="1227" y="708.2539"/><rect fill="none" height="712.5879" style="stroke:#000000;stroke-width:1.5;" width="1201.5" x="203" y="99.2871"/><rect fill="none" height="197.8633" style="stroke:#000000;stroke-width:1.5;" width="590.5" x="599" y="210.8848"/><rect fill="none" height="166.5527" style="stroke:#000000;stroke-width:1.5;" width="570.5" x="609" y="235.1953"/><rect fill="none" height="76.6211" style="stroke:#000000;stroke-width:1.5;" width="550.5" x="619" y="318.127"/><rect fill="none" height="236.2188" style="stroke:#000000;stroke-width:1.5;" width="619" x="775.5" y="510.0352"/><line style="stroke:#181818;stroke-width:0.5;stroke-dasharray:5.0,5.0;" x1="303" x2="303" y1="52.9766" y2="858.1855"/><line style="stroke:#181818;stroke-width:0.5;stroke-dasharray:5.0,5.0;" x1="454" x2="454" y1="52.9766" y2="858.1855"/><line style="stroke:#181818;stroke-width:0.5;stroke-dasharray:5.0,5.0;" x1="567" x2="567" y1="52.9766" y2="858.1855"/><line style="stroke:#181818;stroke-width:0.5;stroke-dasharray:5.0,5.0;" x1="690" x2="690" y1="52.9766" y2="858.1855"/><line style="stroke:#181818;stroke-width:0.5;stroke-dasharray:5.0,5.0;" x1="836.5" x2="836.5" y1="52.9766" y2="858.1855"/><line style="stroke:#181818;stroke-width:0.5;stroke-dasharray:5.0,5.0;" x1="1029.5" x2="1029.5" y1="52.9766" y2="858.1855"/><line style="stroke:#181818;stroke-width:0.5;stroke-dasharray:5.0,5.0;" x1="1111.5" x2="1111.5" y1="184.8965" y2="858.1855"/><line style="stroke:#181818;stroke-width:0.5;stroke-dasharray:5.0,5.0;" x1="1231.5" x2="1231.5" y1="484.0469" y2="858.1855"/><line style="stroke:#181818;stroke-width:0.5;stroke-dasharray:5.0,5.0;" x1="1344.5" x2="1344.5" y1="667.9551" y2="858.1855"/><rect fill="#E3E3E3" height="30.4883" rx="2.5" ry="2.5" style="stroke:#181818;stroke-width:0.5;" width="180" x="213" y="21.4883"/><text fill="#000000" font-family="sans-serif" font-size="14" lengthAdjust="spacing" textLength="166" x="220" y="42.0234">:ConsultTasksController</text><rect fill="#E3E3E3" height="30.4883" rx="2.5" ry="2.5" style="stroke:#181818;stroke-width:0.5;" width="180" x="213" y="857.1855"/><text fill="#000000" font-family="sans-serif" font-size="14" lengthAdjust="spacing" textLength="166" x="220" y="877.7207">:ConsultTasksController</text><rect fill="#E3E3E3" height="30.4883" rx="2.5" ry="2.5" style="stroke:#181818;stroke-width:0.5;" width="103" x="403" y="21.4883"/><text fill="#000000" font-family="sans-serif" font-size="14" lengthAdjust="spacing" textLength="89" x="410" y="42.0234">:Repositories</text><rect fill="#E3E3E3" height="30.4883" rx="2.5" ry="2.5" style="stroke:#181818;stroke-width:0.5;" width="103" x="403" y="857.1855"/><text fill="#000000" font-family="sans-serif" font-size="14" lengthAdjust="spacing" textLength="89" x="410" y="877.7207">:Repositories</text><rect fill="#E3E3E3" height="46.9766" rx="2.5" ry="2.5" style="stroke:#181818;stroke-width:0.5;" width="103" x="516" y="5"/><text fill="#000000" font-family="sans-serif" font-size="14" lengthAdjust="spacing" textLength="82" x="526.5" y="25.5352">repositories</text><text fill="#000000" font-family="sans-serif" font-size="14" lengthAdjust="spacing" textLength="89" x="523" y="42.0234">:Repositories</text><rect fill="#E3E3E3" height="46.9766" rx="2.5" ry="2.5" style="stroke:#181818;stroke-width:0.5;" width="103" x="516" y="857.1855"/><text fill="#000000" font-family="sans-serif" font-size="14" lengthAdjust="spacing" textLength="82" x="526.5" y="877.7207">repositories</text><text fill="#000000" font-family="sans-serif" font-size="14" lengthAdjust="spacing" textLength="89" x="523" y="894.209">:Repositories</text><rect fill="#E3E3E3" height="46.9766" rx="2.5" ry="2.5" style="stroke:#181818;stroke-width:0.5;" width="123" x="629" y="5"/><text fill="#000000" font-family="sans-serif" font-size="14" lengthAdjust="spacing" textLength="101" x="640" y="25.5352">taskRepository</text><text fill="#000000" font-family="sans-serif" font-size="14" lengthAdjust="spacing" textLength="109" x="636" y="42.0234">:TaskRepository</text><rect fill="#E3E3E3" height="46.9766" rx="2.5" ry="2.5" style="stroke:#181818;stroke-width:0.5;" width="123" x="629" y="857.1855"/><text fill="#000000" font-family="sans-serif" font-size="14" lengthAdjust="spacing" textLength="101" x="640" y="877.7207">taskRepository</text><text fill="#000000" font-family="sans-serif" font-size="14" lengthAdjust="spacing" textLength="109" x="636" y="894.209">:TaskRepository</text><rect fill="#E3E3E3" height="46.9766" rx="2.5" ry="2.5" style="stroke:#181818;stroke-width:0.5;" width="102" x="785.5" y="5"/><text fill="#000000" font-family="sans-serif" font-size="14" lengthAdjust="spacing" textLength="80" x="796.5" y="25.5352">taskMapper</text><text fill="#000000" font-family="sans-serif" font-size="14" lengthAdjust="spacing" textLength="88" x="792.5" y="42.0234">:TaskMapper</text><rect fill="#E3E3E3" height="46.9766" rx="2.5" ry="2.5" style="stroke:#181818;stroke-width:0.5;" width="102" x="785.5" y="857.1855"/><text fill="#000000" font-family="sans-serif" font-size="14" lengthAdjust="spacing" textLength="80" x="796.5" y="877.7207">taskMapper</text><text fill="#000000" font-family="sans-serif" font-size="14" lengthAdjust="spacing" textLength="88" x="792.5" y="894.209">:TaskMapper</text><rect fill="#E3E3E3" height="46.9766" rx="2.5" ry="2.5" style="stroke:#181818;stroke-width:0.5;" width="50" x="1004.5" y="5"/><text fill="#000000" font-family="sans-serif" font-size="14" lengthAdjust="spacing" textLength="28" x="1015.5" y="25.5352">task</text><text fill="#000000" font-family="sans-serif" font-size="14" lengthAdjust="spacing" textLength="36" x="1011.5" y="42.0234">:Task</text><rect fill="#E3E3E3" height="46.9766" rx="2.5" ry="2.5" style="stroke:#181818;stroke-width:0.5;" width="50" x="1004.5" y="857.1855"/><text fill="#000000" font-family="sans-serif" font-size="14" lengthAdjust="spacing" textLength="28" x="1015.5" y="877.7207">task</text><text fill="#000000" font-family="sans-serif" font-size="14" lengthAdjust="spacing" textLength="36" x="1011.5" y="894.209">:Task</text><rect fill="#E3E3E3" height="46.9766" rx="2.5" ry="2.5" style="stroke:#181818;stroke-width:0.5;" width="95" x="1064.5" y="857.1855"/><text fill="#000000" font-family="sans-serif" font-size="14" lengthAdjust="spacing" textLength="58" x="1083" y="877.7207">tasksList</text><text fill="#000000" font-family="sans-serif" font-size="14" lengthAdjust="spacing" textLength="81" x="1071.5" y="894.209">:List&lt;Task&gt;</text><rect fill="#E3E3E3" height="46.9766" rx="2.5" ry="2.5" style="stroke:#181818;stroke-width:0.5;" width="125" x="1169.5" y="857.1855"/><text fill="#000000" font-family="sans-serif" font-size="14" lengthAdjust="spacing" textLength="58" x="1203" y="877.7207">tasksList</text><text fill="#000000" font-family="sans-serif" font-size="14" lengthAdjust="spacing" textLength="111" x="1176.5" y="894.209">:List&lt;TaskDTO&gt;</text><rect fill="#E3E3E3" height="46.9766" rx="2.5" ry="2.5" style="stroke:#181818;stroke-width:0.5;" width="80" x="1304.5" y="857.1855"/><text fill="#000000" font-family="sans-serif" font-size="14" lengthAdjust="spacing" textLength="58" x="1315.5" y="877.7207">taskDTO</text><text fill="#000000" font-family="sans-serif" font-size="14" lengthAdjust="spacing" textLength="66" x="1311.5" y="894.209">:TaskDTO</text><rect fill="#FFFFFF" height="764.8984" style="stroke:#181818;stroke-width:1.0;" width="10" x="298" y="84.2871"/><rect fill="#FFFFFF" height="665.9668" style="stroke:#181818;stroke-width:1.0;" width="10" x="685.5" y="137.9082"/><rect fill="#FFFFFF" height="337.5059" style="stroke:#181818;stroke-width:1.0;" width="10" x="831.5" y="437.0586"/><rect fill="#FFFFFF" height="34.3105" style="stroke:#181818;stroke-width:1.0;" width="10" x="836.5" y="615.9668"/><rect fill="#FFFFFF" height="29.3105" style="stroke:#181818;stroke-width:1.0;" width="10" x="1024.5" y="273.8164"/><rect fill="#FFFFFF" height="30" style="stroke:#181818;stroke-width:1.0;" width="10" x="1107" y="356.748"/><rect fill="#FFFFFF" height="30" style="stroke:#181818;stroke-width:1.0;" width="10" x="1107" y="548.6563"/><rect fill="#FFFFFF" height="30" style="stroke:#181818;stroke-width:1.0;" width="10" x="1227" y="708.2539"/><polygon fill="#181818" points="286,80.2871,296,84.2871,286,88.2871,290,84.2871" style="stroke:#181818;stroke-width:1.0;"/><line style="stroke:#181818;stroke-width:1.0;" x1="0" x2="292" y1="84.2871" y2="84.2871"/><text fill="#000000" font-family="sans-serif" font-size="13" font-weight="bold" lengthAdjust="spacing" textLength="18" x="7" y="79.5449">34</text><text fill="#000000" font-family="sans-serif" font-size="13" lengthAdjust="spacing" textLength="257" x="29" y="79.5449">getTasks(teamsDTO, startDate, endDate)</text><path d="M203,99.2871 L416,99.2871 L416,106.5977 L406,116.5977 L203,116.5977 L203,99.2871 " fill="#EEEEEE" style="stroke:#000000;stroke-width:1.5;"/><rect fill="none" height="712.5879" style="stroke:#000000;stroke-width:1.5;" width="1201.5" x="203" y="99.2871"/><text fill="#000000" font-family="sans-serif" font-size="13" font-weight="bold" lengthAdjust="spacing" textLength="168" x="218" y="112.8555">Get Tasks By Date Range</text><polygon fill="#181818" points="673.5,133.9082,683.5,137.9082,673.5,141.9082,677.5,137.9082" style="stroke:#181818;stroke-width:1.0;"/><line style="stroke:#181818;stroke-width:1.0;" x1="308" x2="679.5" y1="137.9082" y2="137.9082"/><text fill="#000000" font-family="sans-serif" font-size="13" font-weight="bold" lengthAdjust="spacing" textLength="30" x="315" y="133.166">34.1</text><text fill="#000000" font-family="sans-serif" font-size="13" lengthAdjust="spacing" textLength="257" x="349" y="133.166">getTasks(teamsDTO, startDate, endDate)</text><polygon fill="#181818" points="1052.5,163.2188,1062.5,167.2188,1052.5,171.2188,1056.5,167.2188" style="stroke:#181818;stroke-width:1.0;"/><line style="stroke:#181818;stroke-width:1.0;" x1="695.5" x2="1058.5" y1="167.2188" y2="167.2188"/><text fill="#000000" font-family="sans-serif" font-size="13" font-weight="bold" lengthAdjust="spacing" textLength="30" x="702.5" y="162.4766">34.2</text><text fill="#000000" font-family="sans-serif" font-size="13" lengthAdjust="spacing" textLength="46" x="736.5" y="162.4766">create()</text><rect fill="#E3E3E3" height="46.9766" rx="2.5" ry="2.5" style="stroke:#181818;stroke-width:0.5;" width="95" x="1064.5" y="145.9082"/><text fill="#000000" font-family="sans-serif" font-size="14" lengthAdjust="spacing" textLength="58" x="1083" y="166.4434">tasksList</text><text fill="#000000" font-family="sans-serif" font-size="14" lengthAdjust="spacing" textLength="81" x="1071.5" y="182.9316">:List&lt;Task&gt;</text><path d="M599,210.8848 L673,210.8848 L673,218.1953 L663,228.1953 L599,228.1953 L599,210.8848 " fill="#EEEEEE" style="stroke:#000000;stroke-width:1.5;"/><rect fill="none" height="197.8633" style="stroke:#000000;stroke-width:1.5;" width="590.5" x="599" y="210.8848"/><text fill="#000000" font-family="sans-serif" font-size="13" font-weight="bold" lengthAdjust="spacing" textLength="29" x="614" y="224.4531">loop</text><text fill="#000000" font-family="sans-serif" font-size="11" font-weight="bold" lengthAdjust="spacing" textLength="81" x="688" y="223.5195">[for each task]</text><path d="M609,235.1953 L676,235.1953 L676,242.5059 L666,252.5059 L609,252.5059 L609,235.1953 " fill="#EEEEEE" style="stroke:#000000;stroke-width:1.5;"/><rect fill="none" height="166.5527" style="stroke:#000000;stroke-width:1.5;" width="570.5" x="609" y="235.1953"/><text fill="#000000" font-family="sans-serif" font-size="13" font-weight="bold" lengthAdjust="spacing" textLength="22" x="624" y="248.7637">opt</text><text fill="#000000" font-family="sans-serif" font-size="11" font-weight="bold" lengthAdjust="spacing" textLength="202" x="691" y="247.8301">[assignedTeam exists in teamsDTO]</text><polygon fill="#181818" points="1012.5,269.8164,1022.5,273.8164,1012.5,277.8164,1016.5,273.8164" style="stroke:#181818;stroke-width:1.0;"/><line style="stroke:#181818;stroke-width:1.0;" x1="695.5" x2="1018.5" y1="273.8164" y2="273.8164"/><text fill="#000000" font-family="sans-serif" font-size="13" font-weight="bold" lengthAdjust="spacing" textLength="30" x="702.5" y="269.0742">34.3</text><text fill="#000000" font-family="sans-serif" font-size="13" lengthAdjust="spacing" textLength="214" x="736.5" y="269.0742">betweenDates(startDate, endDate)</text><polygon fill="#181818" points="706.5,299.127,696.5,303.127,706.5,307.127,702.5,303.127" style="stroke:#181818;stroke-width:1.0;"/><line style="stroke:#181818;stroke-width:1.0;stroke-dasharray:2.0,2.0;" x1="700.5" x2="1028.5" y1="303.127" y2="303.127"/><text fill="#000000" font-family="sans-serif" font-size="13" font-weight="bold" lengthAdjust="spacing" textLength="30" x="712.5" y="298.3848">34.4</text><text fill="#000000" font-family="sans-serif" font-size="13" lengthAdjust="spacing" textLength="62" x="746.5" y="298.3848">true/false</text><path d="M619,318.127 L686,318.127 L686,325.4375 L676,335.4375 L619,335.4375 L619,318.127 " fill="#EEEEEE" style="stroke:#000000;stroke-width:1.5;"/><rect fill="none" height="76.6211" style="stroke:#000000;stroke-width:1.5;" width="550.5" x="619" y="318.127"/><text fill="#000000" font-family="sans-serif" font-size="13" font-weight="bold" lengthAdjust="spacing" textLength="22" x="634" y="331.6953">opt</text><text fill="#000000" font-family="sans-serif" font-size="11" font-weight="bold" lengthAdjust="spacing" textLength="132" x="701" y="330.7617">[betweenDates == true]</text><polygon fill="#181818" points="1095,352.748,1105,356.748,1095,360.748,1099,356.748" style="stroke:#181818;stroke-width:1.0;"/><line style="stroke:#181818;stroke-width:1.0;" x1="695.5" x2="1101" y1="356.748" y2="356.748"/><text fill="#000000" font-family="sans-serif" font-size="13" font-weight="bold" lengthAdjust="spacing" textLength="30" x="702.5" y="352.0059">34.5</text><text fill="#000000" font-family="sans-serif" font-size="13" lengthAdjust="spacing" textLength="58" x="736.5" y="352.0059">add(task)</text><polygon fill="#181818" points="819.5,433.0586,829.5,437.0586,819.5,441.0586,823.5,437.0586" style="stroke:#181818;stroke-width:1.0;"/><line style="stroke:#181818;stroke-width:1.0;" x1="695.5" x2="825.5" y1="437.0586" y2="437.0586"/><text fill="#000000" font-family="sans-serif" font-size="13" font-weight="bold" lengthAdjust="spacing" textLength="30" x="702.5" y="432.3164">34.6</text><text fill="#000000" font-family="sans-serif" font-size="13" lengthAdjust="spacing" textLength="83" x="736.5" y="432.3164">toDTO(tasks)</text><polygon fill="#181818" points="1157.5,462.3691,1167.5,466.3691,1157.5,470.3691,1161.5,466.3691" style="stroke:#181818;stroke-width:1.0;"/><line style="stroke:#181818;stroke-width:1.0;" x1="841.5" x2="1163.5" y1="466.3691" y2="466.3691"/><text fill="#000000" font-family="sans-serif" font-size="13" font-weight="bold" lengthAdjust="spacing" textLength="30" x="848.5" y="461.627">34.7</text><text fill="#000000" font-family="sans-serif" font-size="13" lengthAdjust="spacing" textLength="46" x="882.5" y="461.627">create()</text><rect fill="#E3E3E3" height="46.9766" rx="2.5" ry="2.5" style="stroke:#181818;stroke-width:0.5;" width="125" x="1169.5" y="445.0586"/><text fill="#000000" font-family="sans-serif" font-size="14" lengthAdjust="spacing" textLength="58" x="1203" y="465.5938">tasksList</text><text fill="#000000" font-family="sans-serif" font-size="14" lengthAdjust="spacing" textLength="111" x="1176.5" y="482.082">:List&lt;TaskDTO&gt;</text><path d="M775.5,510.0352 L849.5,510.0352 L849.5,517.3457 L839.5,527.3457 L775.5,527.3457 L775.5,510.0352 " fill="#EEEEEE" style="stroke:#000000;stroke-width:1.5;"/><rect fill="none" height="236.2188" style="stroke:#000000;stroke-width:1.5;" width="619" x="775.5" y="510.0352"/><text fill="#000000" font-family="sans-serif" font-size="13" font-weight="bold" lengthAdjust="spacing" textLength="29" x="790.5" y="523.6035">loop</text><text fill="#000000" font-family="sans-serif" font-size="11" font-weight="bold" lengthAdjust="spacing" textLength="147" x="864.5" y="522.6699">[for each task in TaskList]</text><polygon fill="#181818" points="1095,544.6563,1105,548.6563,1095,552.6563,1099,548.6563" style="stroke:#181818;stroke-width:1.0;"/><line style="stroke:#181818;stroke-width:1.0;" x1="841.5" x2="1101" y1="548.6563" y2="548.6563"/><text fill="#000000" font-family="sans-serif" font-size="13" font-weight="bold" lengthAdjust="spacing" textLength="30" x="848.5" y="543.9141">34.8</text><text fill="#000000" font-family="sans-serif" font-size="13" lengthAdjust="spacing" textLength="70" x="882.5" y="543.9141">obj = get(i)</text><line style="stroke:#181818;stroke-width:1.0;" x1="841.5" x2="888.5" y1="602.9668" y2="602.9668"/><line style="stroke:#181818;stroke-width:1.0;" x1="888.5" x2="888.5" y1="602.9668" y2="615.9668"/><line style="stroke:#181818;stroke-width:1.0;" x1="847.5" x2="888.5" y1="615.9668" y2="615.9668"/><polygon fill="#181818" points="857.5,611.9668,847.5,615.9668,857.5,619.9668,853.5,615.9668" style="stroke:#181818;stroke-width:1.0;"/><text fill="#000000" font-family="sans-serif" font-size="13" font-weight="bold" lengthAdjust="spacing" textLength="30" x="853.5" y="598.2246">34.9</text><text fill="#000000" font-family="sans-serif" font-size="13" lengthAdjust="spacing" textLength="135" x="887.5" y="598.2246">objDTO = toDTO(obj)</text><polygon fill="#181818" points="1292.5,646.2773,1302.5,650.2773,1292.5,654.2773,1296.5,650.2773" style="stroke:#181818;stroke-width:1.0;"/><line style="stroke:#181818;stroke-width:1.0;" x1="841.5" x2="1298.5" y1="650.2773" y2="650.2773"/><text fill="#000000" font-family="sans-serif" font-size="13" font-weight="bold" lengthAdjust="spacing" textLength="39" x="848.5" y="645.5352">34.10</text><text fill="#000000" font-family="sans-serif" font-size="13" lengthAdjust="spacing" textLength="58" x="891.5" y="645.5352">create(...)</text><rect fill="#E3E3E3" height="46.9766" rx="2.5" ry="2.5" style="stroke:#181818;stroke-width:0.5;" width="80" x="1304.5" y="628.9668"/><text fill="#000000" font-family="sans-serif" font-size="14" lengthAdjust="spacing" textLength="58" x="1315.5" y="649.502">taskDTO</text><text fill="#000000" font-family="sans-serif" font-size="14" lengthAdjust="spacing" textLength="66" x="1311.5" y="665.9902">:TaskDTO</text><polygon fill="#181818" points="1215,704.2539,1225,708.2539,1215,712.2539,1219,708.2539" style="stroke:#181818;stroke-width:1.0;"/><line style="stroke:#181818;stroke-width:1.0;" x1="841.5" x2="1221" y1="708.2539" y2="708.2539"/><text fill="#000000" font-family="sans-serif" font-size="13" font-weight="bold" lengthAdjust="spacing" textLength="39" x="848.5" y="703.5117">34.11</text><text fill="#000000" font-family="sans-serif" font-size="13" lengthAdjust="spacing" textLength="79" x="891.5" y="703.5117">add(objDTO)</text><polygon fill="#181818" points="706.5,770.5645,696.5,774.5645,706.5,778.5645,702.5,774.5645" style="stroke:#181818;stroke-width:1.0;"/><line style="stroke:#181818;stroke-width:1.0;stroke-dasharray:2.0,2.0;" x1="700.5" x2="835.5" y1="774.5645" y2="774.5645"/><text fill="#000000" font-family="sans-serif" font-size="13" font-weight="bold" lengthAdjust="spacing" textLength="39" x="712.5" y="769.8223">34.12</text><text fill="#000000" font-family="sans-serif" font-size="13" lengthAdjust="spacing" textLength="62" x="755.5" y="769.8223">tasksDTO</text><polygon fill="#181818" points="319,799.875,309,803.875,319,807.875,315,803.875" style="stroke:#181818;stroke-width:1.0;"/><line style="stroke:#181818;stroke-width:1.0;stroke-dasharray:2.0,2.0;" x1="313" x2="689.5" y1="803.875" y2="803.875"/><text fill="#000000" font-family="sans-serif" font-size="13" font-weight="bold" lengthAdjust="spacing" textLength="39" x="325" y="799.1328">34.13</text><text fill="#000000" font-family="sans-serif" font-size="13" lengthAdjust="spacing" textLength="62" x="368" y="799.1328">tasksDTO</text><polygon fill="#181818" points="11,836.1855,1,840.1855,11,844.1855,7,840.1855" style="stroke:#181818;stroke-width:1.0;"/><line style="stroke:#181818;stroke-width:1.0;stroke-dasharray:2.0,2.0;" x1="5" x2="297" y1="840.1855" y2="840.1855"/><text fill="#000000" font-family="sans-serif" font-size="13" font-weight="bold" lengthAdjust="spacing" textLength="18" x="17" y="835.4434">48</text><text fill="#000000" font-family="sans-serif" font-size="13" lengthAdjust="spacing" textLength="62" x="39" y="835.4434">tasksDTO</text><!--SRC=[dLJ1Rjim3BtxAuYUagB9CAo78MWAh2smIuODgO-xA3Rhg74aGrBMvUz7Mguhst8Ip9V4z7launD5kvEg4aRiOQ-LphP6xn6SEM1Yso-Lo7QYm6TtB14CPaweeWm1TYjo_IPL0I-Yj9Wa57OoavLG3guMZrhPG-bIONUM_ZkZonBD5GWBZ-bwrKEliT9MEcqasXhJ1exFaWixhReK4p1-gs62NwjlQPVXICf7MkAadK3DweQ6_1-Ygj0qNF_IylphaDEWMzmGOLVIEeBnpnr3xbjm_Ua2nbFwiqUYo917mKOE_Mln34t4WJm-x3TeuCjjChklZmaMKA0_n8b3iRS4lG7hAE-JS7W3g7B-C-tnvvyfa3dvXxxvymPw2gCF5Nn7vrN2mn6O36kQBQmHpLEN9WdTuxXSJ92gLT4xsX3JAzCKhbs4wsigcnca59DEubBh2bwq0HJP5jZSy2i_kdBai9M5mZmblO1_AQC5gU1TVfyohePKRD2z8IfkqKxEj1rjFnah1xEOsRmHFldB7U7bU3utEn2gXkNIxnc8FwSEOW4YpoViytICtX7aRyu8iYT-54lMSXE3vc9nZl5GjC5uDtvDiBsQ1g1koBOTTLGr2oLCrv13OoX9V4Y70ygJnxomsv6ib4zlNc79DsuYu_ewhaKT7I_Ika1Lk8DbOmUz_gSPVH_cy_bqHDpbnlgXynfFc13Sv9WFzNuzDINlrQEtaBEC5uZq4ixSnnu_aoTSZQontjNXKh_zcjpDPeDi_m00]--></g></svg>