<?xml version="1.0" encoding="us-ascii" standalone="no"?><svg xmlns="http://www.w3.org/2000/svg" xmlns:xlink="http://www.w3.org/1999/xlink" contentStyleType="text/css" height="565px" preserveAspectRatio="none" style="width:939px;height:565px;background:#FFFFFF;" version="1.1" viewBox="0 0 939 565" width="939px" zoomAndPan="magnify"><defs/><g><rect fill="#FFFFFF" height="420.0371" style="stroke:#181818;stroke-width:1.0;" width="10" x="232" y="84.2871"/><rect fill="#FFFFFF" height="29.3105" style="stroke:#181818;stroke-width:1.0;" width="10" x="383.5" y="137.9082"/><rect fill="#FFFFFF" height="29.3105" style="stroke:#181818;stroke-width:1.0;" width="10" x="496.5" y="196.5293"/><rect fill="#FFFFFF" height="203.8633" style="stroke:#181818;stroke-width:1.0;" width="10" x="619.5" y="255.1504"/><rect fill="#FFFFFF" height="130.2422" style="stroke:#181818;stroke-width:1.0;" width="10" x="624.5" y="292.4609"/><rect fill="#FFFFFF" height="29.3105" style="stroke:#181818;stroke-width:1.0;" width="10" x="868.5" y="351.082"/><rect fill="none" height="367.7266" style="stroke:#000000;stroke-width:1.5;" width="796.5" x="137" y="99.2871"/><rect fill="none" height="75.9316" style="stroke:#000000;stroke-width:1.5;" width="370.5" x="553" y="312.4609"/><line style="stroke:#181818;stroke-width:0.5;stroke-dasharray:5.0,5.0;" x1="237" x2="237" y1="52.9766" y2="513.3242"/><line style="stroke:#181818;stroke-width:0.5;stroke-dasharray:5.0,5.0;" x1="388" x2="388" y1="52.9766" y2="513.3242"/><line style="stroke:#181818;stroke-width:0.5;stroke-dasharray:5.0,5.0;" x1="501" x2="501" y1="52.9766" y2="513.3242"/><line style="stroke:#181818;stroke-width:0.5;stroke-dasharray:5.0,5.0;" x1="624" x2="624" y1="52.9766" y2="513.3242"/><line style="stroke:#181818;stroke-width:0.5;stroke-dasharray:5.0,5.0;" x1="873.5" x2="873.5" y1="52.9766" y2="513.3242"/><rect fill="#E3E3E3" height="30.4883" rx="2.5" ry="2.5" style="stroke:#181818;stroke-width:0.5;" width="180" x="147" y="21.4883"/><text fill="#000000" font-family="sans-serif" font-size="14" lengthAdjust="spacing" textLength="166" x="154" y="42.0234">:ConsultTasksController</text><rect fill="#E3E3E3" height="30.4883" rx="2.5" ry="2.5" style="stroke:#181818;stroke-width:0.5;" width="180" x="147" y="512.3242"/><text fill="#000000" font-family="sans-serif" font-size="14" lengthAdjust="spacing" textLength="166" x="154" y="532.8594">:ConsultTasksController</text><rect fill="#E3E3E3" height="30.4883" rx="2.5" ry="2.5" style="stroke:#181818;stroke-width:0.5;" width="103" x="337" y="21.4883"/><text fill="#000000" font-family="sans-serif" font-size="14" lengthAdjust="spacing" textLength="89" x="344" y="42.0234">:Repositories</text><rect fill="#E3E3E3" height="30.4883" rx="2.5" ry="2.5" style="stroke:#181818;stroke-width:0.5;" width="103" x="337" y="512.3242"/><text fill="#000000" font-family="sans-serif" font-size="14" lengthAdjust="spacing" textLength="89" x="344" y="532.8594">:Repositories</text><rect fill="#E3E3E3" height="46.9766" rx="2.5" ry="2.5" style="stroke:#181818;stroke-width:0.5;" width="103" x="450" y="5"/><text fill="#000000" font-family="sans-serif" font-size="14" lengthAdjust="spacing" textLength="82" x="460.5" y="25.5352">repositories</text><text fill="#000000" font-family="sans-serif" font-size="14" lengthAdjust="spacing" textLength="89" x="457" y="42.0234">:Repositories</text><rect fill="#E3E3E3" height="46.9766" rx="2.5" ry="2.5" style="stroke:#181818;stroke-width:0.5;" width="103" x="450" y="512.3242"/><text fill="#000000" font-family="sans-serif" font-size="14" lengthAdjust="spacing" textLength="82" x="460.5" y="532.8594">repositories</text><text fill="#000000" font-family="sans-serif" font-size="14" lengthAdjust="spacing" textLength="89" x="457" y="549.3477">:Repositories</text><rect fill="#E3E3E3" height="46.9766" rx="2.5" ry="2.5" style="stroke:#181818;stroke-width:0.5;" width="123" x="563" y="5"/><text fill="#000000" font-family="sans-serif" font-size="14" lengthAdjust="spacing" textLength="101" x="574" y="25.5352">taskRepository</text><text fill="#000000" font-family="sans-serif" font-size="14" lengthAdjust="spacing" textLength="109" x="570" y="42.0234">:TaskRepository</text><rect fill="#E3E3E3" height="46.9766" rx="2.5" ry="2.5" style="stroke:#181818;stroke-width:0.5;" width="123" x="563" y="512.3242"/><text fill="#000000" font-family="sans-serif" font-size="14" lengthAdjust="spacing" textLength="101" x="574" y="532.8594">taskRepository</text><text fill="#000000" font-family="sans-serif" font-size="14" lengthAdjust="spacing" textLength="109" x="570" y="549.3477">:TaskRepository</text><rect fill="#E3E3E3" height="46.9766" rx="2.5" ry="2.5" style="stroke:#181818;stroke-width:0.5;" width="80" x="833.5" y="5"/><text fill="#000000" font-family="sans-serif" font-size="14" lengthAdjust="spacing" textLength="58" x="844.5" y="25.5352">taskDTO</text><text fill="#000000" font-family="sans-serif" font-size="14" lengthAdjust="spacing" textLength="66" x="840.5" y="42.0234">:TaskDTO</text><rect fill="#E3E3E3" height="46.9766" rx="2.5" ry="2.5" style="stroke:#181818;stroke-width:0.5;" width="80" x="833.5" y="512.3242"/><text fill="#000000" font-family="sans-serif" font-size="14" lengthAdjust="spacing" textLength="58" x="844.5" y="532.8594">taskDTO</text><text fill="#000000" font-family="sans-serif" font-size="14" lengthAdjust="spacing" textLength="66" x="840.5" y="549.3477">:TaskDTO</text><rect fill="#FFFFFF" height="420.0371" style="stroke:#181818;stroke-width:1.0;" width="10" x="232" y="84.2871"/><rect fill="#FFFFFF" height="29.3105" style="stroke:#181818;stroke-width:1.0;" width="10" x="383.5" y="137.9082"/><rect fill="#FFFFFF" height="29.3105" style="stroke:#181818;stroke-width:1.0;" width="10" x="496.5" y="196.5293"/><rect fill="#FFFFFF" height="203.8633" style="stroke:#181818;stroke-width:1.0;" width="10" x="619.5" y="255.1504"/><rect fill="#FFFFFF" height="130.2422" style="stroke:#181818;stroke-width:1.0;" width="10" x="624.5" y="292.4609"/><rect fill="#FFFFFF" height="29.3105" style="stroke:#181818;stroke-width:1.0;" width="10" x="868.5" y="351.082"/><polygon fill="#181818" points="220,80.2871,230,84.2871,220,88.2871,224,84.2871" style="stroke:#181818;stroke-width:1.0;"/><line style="stroke:#181818;stroke-width:1.0;" x1="0" x2="226" y1="84.2871" y2="84.2871"/><text fill="#000000" font-family="sans-serif" font-size="13" font-weight="bold" lengthAdjust="spacing" textLength="18" x="7" y="79.5449">11</text><text fill="#000000" font-family="sans-serif" font-size="13" lengthAdjust="spacing" textLength="191" x="29" y="79.5449">getTasksByCollaborator(email)</text><path d="M137,99.2871 L356,99.2871 L356,106.5977 L346,116.5977 L137,116.5977 L137,99.2871 " fill="#EEEEEE" style="stroke:#000000;stroke-width:1.5;"/><rect fill="none" height="367.7266" style="stroke:#000000;stroke-width:1.5;" width="796.5" x="137" y="99.2871"/><text fill="#000000" font-family="sans-serif" font-size="13" font-weight="bold" lengthAdjust="spacing" textLength="174" x="152" y="112.8555">Get Tasks by Collaborator</text><polygon fill="#181818" points="371.5,133.9082,381.5,137.9082,371.5,141.9082,375.5,137.9082" style="stroke:#181818;stroke-width:1.0;"/><line style="stroke:#181818;stroke-width:1.0;" x1="242" x2="377.5" y1="137.9082" y2="137.9082"/><text fill="#000000" font-family="sans-serif" font-size="13" font-weight="bold" lengthAdjust="spacing" textLength="30" x="249" y="133.166">11.1</text><text fill="#000000" font-family="sans-serif" font-size="13" lengthAdjust="spacing" textLength="81" x="283" y="133.166">getInstance()</text><polygon fill="#181818" points="253,163.2188,243,167.2188,253,171.2188,249,167.2188" style="stroke:#181818;stroke-width:1.0;"/><line style="stroke:#181818;stroke-width:1.0;stroke-dasharray:2.0,2.0;" x1="247" x2="387.5" y1="167.2188" y2="167.2188"/><text fill="#000000" font-family="sans-serif" font-size="13" font-weight="bold" lengthAdjust="spacing" textLength="30" x="259" y="162.4766">11.2</text><text fill="#000000" font-family="sans-serif" font-size="13" lengthAdjust="spacing" textLength="75" x="293" y="162.4766">repositories</text><polygon fill="#181818" points="484.5,192.5293,494.5,196.5293,484.5,200.5293,488.5,196.5293" style="stroke:#181818;stroke-width:1.0;"/><line style="stroke:#181818;stroke-width:1.0;" x1="242" x2="490.5" y1="196.5293" y2="196.5293"/><text fill="#000000" font-family="sans-serif" font-size="13" font-weight="bold" lengthAdjust="spacing" textLength="30" x="249" y="191.7871">11.3</text><text fill="#000000" font-family="sans-serif" font-size="13" lengthAdjust="spacing" textLength="125" x="283" y="191.7871">getTaskRepository()</text><polygon fill="#181818" points="253,221.8398,243,225.8398,253,229.8398,249,225.8398" style="stroke:#181818;stroke-width:1.0;"/><line style="stroke:#181818;stroke-width:1.0;stroke-dasharray:2.0,2.0;" x1="247" x2="500.5" y1="225.8398" y2="225.8398"/><text fill="#000000" font-family="sans-serif" font-size="13" font-weight="bold" lengthAdjust="spacing" textLength="30" x="259" y="221.0977">11.4</text><text fill="#000000" font-family="sans-serif" font-size="13" lengthAdjust="spacing" textLength="94" x="293" y="221.0977">taskRepository</text><polygon fill="#181818" points="607.5,251.1504,617.5,255.1504,607.5,259.1504,611.5,255.1504" style="stroke:#181818;stroke-width:1.0;"/><line style="stroke:#181818;stroke-width:1.0;" x1="242" x2="613.5" y1="255.1504" y2="255.1504"/><text fill="#000000" font-family="sans-serif" font-size="13" font-weight="bold" lengthAdjust="spacing" textLength="30" x="249" y="250.4082">11.5</text><text fill="#000000" font-family="sans-serif" font-size="13" lengthAdjust="spacing" textLength="191" x="283" y="250.4082">getTasksByCollaborator(email)</text><line style="stroke:#181818;stroke-width:1.0;" x1="629.5" x2="676.5" y1="279.4609" y2="279.4609"/><line style="stroke:#181818;stroke-width:1.0;" x1="676.5" x2="676.5" y1="279.4609" y2="292.4609"/><line style="stroke:#181818;stroke-width:1.0;" x1="635.5" x2="676.5" y1="292.4609" y2="292.4609"/><polygon fill="#181818" points="645.5,288.4609,635.5,292.4609,645.5,296.4609,641.5,292.4609" style="stroke:#181818;stroke-width:1.0;"/><text fill="#000000" font-family="sans-serif" font-size="13" font-weight="bold" lengthAdjust="spacing" textLength="30" x="641.5" y="274.7188">11.6</text><text fill="#000000" font-family="sans-serif" font-size="13" lengthAdjust="spacing" textLength="191" x="675.5" y="274.7188">getTasksByCollaborator(email)</text><path d="M553,312.4609 L627,312.4609 L627,319.7715 L617,329.7715 L553,329.7715 L553,312.4609 " fill="#EEEEEE" style="stroke:#000000;stroke-width:1.5;"/><rect fill="none" height="75.9316" style="stroke:#000000;stroke-width:1.5;" width="370.5" x="553" y="312.4609"/><text fill="#000000" font-family="sans-serif" font-size="13" font-weight="bold" lengthAdjust="spacing" textLength="29" x="568" y="326.0293">loop</text><text fill="#000000" font-family="sans-serif" font-size="11" font-weight="bold" lengthAdjust="spacing" textLength="81" x="642" y="325.0957">[for each task]</text><polygon fill="#181818" points="856.5,347.082,866.5,351.082,856.5,355.082,860.5,351.082" style="stroke:#181818;stroke-width:1.0;"/><line style="stroke:#181818;stroke-width:1.0;" x1="634.5" x2="862.5" y1="351.082" y2="351.082"/><text fill="#000000" font-family="sans-serif" font-size="13" font-weight="bold" lengthAdjust="spacing" textLength="30" x="641.5" y="346.3398">11.7</text><text fill="#000000" font-family="sans-serif" font-size="13" lengthAdjust="spacing" textLength="176" x="675.5" y="346.3398">hasCollaboratorEmail(email)</text><polygon fill="#181818" points="645.5,376.3926,635.5,380.3926,645.5,384.3926,641.5,380.3926" style="stroke:#181818;stroke-width:1.0;"/><line style="stroke:#181818;stroke-width:1.0;stroke-dasharray:2.0,2.0;" x1="639.5" x2="872.5" y1="380.3926" y2="380.3926"/><text fill="#000000" font-family="sans-serif" font-size="13" font-weight="bold" lengthAdjust="spacing" textLength="30" x="651.5" y="375.6504">11.8</text><text fill="#000000" font-family="sans-serif" font-size="13" lengthAdjust="spacing" textLength="62" x="685.5" y="375.6504">true/false</text><line style="stroke:#181818;stroke-width:1.0;stroke-dasharray:2.0,2.0;" x1="634.5" x2="676.5" y1="421.7031" y2="421.7031"/><line style="stroke:#181818;stroke-width:1.0;stroke-dasharray:2.0,2.0;" x1="676.5" x2="676.5" y1="421.7031" y2="434.7031"/><line style="stroke:#181818;stroke-width:1.0;stroke-dasharray:2.0,2.0;" x1="629.5" x2="676.5" y1="434.7031" y2="434.7031"/><polygon fill="#181818" points="639.5,430.7031,629.5,434.7031,639.5,438.7031,635.5,434.7031" style="stroke:#181818;stroke-width:1.0;"/><text fill="#000000" font-family="sans-serif" font-size="13" font-weight="bold" lengthAdjust="spacing" textLength="30" x="641.5" y="416.9609">11.9</text><text fill="#000000" font-family="sans-serif" font-size="13" lengthAdjust="spacing" textLength="126" x="675.5" y="416.9609">tasksByCollaborator</text><polygon fill="#181818" points="253,455.0137,243,459.0137,253,463.0137,249,459.0137" style="stroke:#181818;stroke-width:1.0;"/><line style="stroke:#181818;stroke-width:1.0;stroke-dasharray:2.0,2.0;" x1="247" x2="623.5" y1="459.0137" y2="459.0137"/><text fill="#000000" font-family="sans-serif" font-size="13" font-weight="bold" lengthAdjust="spacing" textLength="39" x="259" y="454.2715">11.10</text><text fill="#000000" font-family="sans-serif" font-size="13" lengthAdjust="spacing" textLength="126" x="302" y="454.2715">tasksByCollaborator</text><polygon fill="#181818" points="11,491.3242,1,495.3242,11,499.3242,7,495.3242" style="stroke:#181818;stroke-width:1.0;"/><line style="stroke:#181818;stroke-width:1.0;stroke-dasharray:2.0,2.0;" x1="5" x2="231" y1="495.3242" y2="495.3242"/><text fill="#000000" font-family="sans-serif" font-size="13" font-weight="bold" lengthAdjust="spacing" textLength="18" x="17" y="490.582">22</text><text fill="#000000" font-family="sans-serif" font-size="13" lengthAdjust="spacing" textLength="34" x="39" y="490.582">email</text><!--SRC=[jLJDIyCm5B_dhtXusWvLjkCGGQU8C52s7hratLiNrYObIPN-zxwctPf-R1N1daBoVX_lzvgOev0Prpo5L4aL7RHA4QpEaPdpISQZ8uznOui4GMDakOmJly0S-4vz2nd3dYS66QDjAoAHSMdXPh5KqkI93Rav6bfRhP84zGrm0yjmlUfKhp5JHbYb1HfNSzueDg8Kjags8Tf3VCe-mSVgCMmZB5bfQ0aJjZOSghtLnp-7xpMGLcS4hHdZENdCqorgcCrOyE3QX0N4M8NmL2mf0hvLcXFt15Ckaca7TZkZZSYABswnYWdeYxNACtX5wyGCR0lmgLnD_JbDqXw8hxBo9WrDCiB9r8UTDOTYzmk7U8EwrmNuC_5HE_ormAc1SdnDU0tgWcytRV_4uHjdxTbVyDOZEPbfMnYTwP31yAA13lb_ooLAPR1N6gZlWyjbt0pzt-JYm8ql_rAgZtaeRqQ7lYGBXhei7w2xwYqPdiy08ShTDVk3Clqah-Xv8R8HfVg-_vsVcgdkklyepEViFWXEv2vkzWC0]--></g></svg>