<?xml version="1.0" encoding="us-ascii" standalone="no"?><svg xmlns="http://www.w3.org/2000/svg" xmlns:xlink="http://www.w3.org/1999/xlink" contentStyleType="text/css" height="1042.4px" preserveAspectRatio="none" style="width:879px;height:1042px;background:#FFFFFF;" version="1.1" viewBox="0 0 879 1042" width="879.2px" zoomAndPan="magnify"><defs/><g><text fill="#000000" font-family="sans-serif" font-size="11.2" font-weight="bold" lengthAdjust="spacing" textLength="308.8" x="286.4" y="22.8281">US028 - Consult the tasks assigned to a collaborator</text><rect fill="#FFFFFF" height="860.1078" style="stroke:#181818;stroke-width:0.8000000000000002;" width="8" x="49.2" y="103.1813"/><rect fill="#FFFFFF" height="56.6391" style="stroke:#181818;stroke-width:0.8000000000000002;" width="8" x="382.8" y="120.2297"/><rect fill="#FFFFFF" height="23.4484" style="stroke:#181818;stroke-width:0.8000000000000002;" width="8" x="382.8" y="200.3172"/><rect fill="#FFFFFF" height="270.8031" style="stroke:#181818;stroke-width:0.8000000000000002;" width="8" x="382.8" y="247.2141"/><rect fill="#FFFFFF" height="136.6906" style="stroke:#181818;stroke-width:0.8000000000000002;" width="8" x="382.8" y="541.4656"/><rect fill="#FFFFFF" height="261.6844" style="stroke:#181818;stroke-width:0.8000000000000002;" width="8" x="382.8" y="701.6047"/><rect fill="#FFFFFF" height="59.0031" style="stroke:#181818;stroke-width:0.8000000000000002;" width="8" x="629.2" y="270.6625"/><rect fill="#FFFFFF" height="59.0031" style="stroke:#181818;stroke-width:0.8000000000000002;" width="8" x="629.2" y="353.1141"/><rect fill="#FFFFFF" height="59.0031" style="stroke:#181818;stroke-width:0.8000000000000002;" width="8" x="629.2" y="435.5656"/><rect fill="#FFFFFF" height="70.3453" style="stroke:#181818;stroke-width:0.8000000000000002;" width="8" x="629.2" y="584.3625"/><rect fill="#FFFFFF" height="91.1453" style="stroke:#181818;stroke-width:0.8000000000000002;" width="8" x="629.2" y="725.0531"/><rect fill="#FFFFFF" height="57.2969" style="stroke:#181818;stroke-width:0.8000000000000002;" width="8" x="629.2" y="864.6953"/><rect fill="#FFFFFF" height="23.4484" style="stroke:#181818;stroke-width:0.8000000000000002;" width="8" x="813.2" y="607.8109"/><rect fill="none" height="269.1328" style="stroke:#000000;stroke-width:1.2000000000000002;" width="866.4" x="8" y="553.4656"/><rect fill="none" height="94.5938" style="stroke:#000000;stroke-width:1.2000000000000002;" width="487.2" x="329.2" y="833.7984"/><line style="stroke:#181818;stroke-width:0.4000000000000001;stroke-dasharray:5.0,5.0;" x1="52.8" x2="52.8" y1="95.1813" y2="977.6891"/><line style="stroke:#181818;stroke-width:0.4000000000000001;stroke-dasharray:5.0,5.0;" x1="386.8" x2="386.8" y1="95.1813" y2="977.6891"/><line style="stroke:#181818;stroke-width:0.4000000000000001;stroke-dasharray:5.0,5.0;" x1="633.2" x2="633.2" y1="151.225" y2="977.6891"/><line style="stroke:#181818;stroke-width:0.4000000000000001;stroke-dasharray:5.0,5.0;" x1="816.8" x2="816.8" y1="95.1813" y2="977.6891"/><text fill="#000000" font-family="sans-serif" font-size="11.2" lengthAdjust="spacing" textLength="69.6" x="16" y="92.8188">Collaborator</text><ellipse cx="53.2" cy="40.7906" fill="#E3E3E3" rx="6.4" ry="6.4" style="stroke:#181818;stroke-width:0.4000000000000001;"/><path d="M53.2,47.1906 L53.2,68.7906 M42.8,53.5906 L63.6,53.5906 M53.2,68.7906 L42.8,80.7906 M53.2,68.7906 L63.6,80.7906 " fill="none" style="stroke:#181818;stroke-width:0.4000000000000001;"/><text fill="#000000" font-family="sans-serif" font-size="11.2" lengthAdjust="spacing" textLength="69.6" x="16" y="987.7172">Collaborator</text><ellipse cx="53.2" cy="996.8797" fill="#E3E3E3" rx="6.4" ry="6.4" style="stroke:#181818;stroke-width:0.4000000000000001;"/><path d="M53.2,1003.2797 L53.2,1024.8797 M42.8,1009.6797 L63.6,1009.6797 M53.2,1024.8797 L42.8,1036.8797 M53.2,1024.8797 L63.6,1036.8797 " fill="none" style="stroke:#181818;stroke-width:0.4000000000000001;"/><rect fill="#E3E3E3" height="24.3906" rx="2" ry="2" style="stroke:#181818;stroke-width:0.4000000000000001;" width="99.2" x="337.2" y="69.9906"/><text fill="#000000" font-family="sans-serif" font-size="11.2" lengthAdjust="spacing" textLength="88" x="342.8" y="86.4188">:ConsultTasksUI</text><rect fill="#E3E3E3" height="24.3906" rx="2" ry="2" style="stroke:#181818;stroke-width:0.4000000000000001;" width="99.2" x="337.2" y="976.8891"/><text fill="#000000" font-family="sans-serif" font-size="11.2" lengthAdjust="spacing" textLength="88" x="342.8" y="993.3172">:ConsultTasksUI</text><rect fill="#E3E3E3" height="24.3906" rx="2" ry="2" style="stroke:#181818;stroke-width:0.4000000000000001;" width="144" x="561.2" y="976.8891"/><text fill="#000000" font-family="sans-serif" font-size="11.2" lengthAdjust="spacing" textLength="132.8" x="566.8" y="993.3172">:ConsultTasksController</text><rect fill="#E3E3E3" height="37.5813" rx="2" ry="2" style="stroke:#181818;stroke-width:0.4000000000000001;" width="98.4" x="768" y="56.8"/><text fill="#000000" font-family="sans-serif" font-size="11.2" lengthAdjust="spacing" textLength="80.8" x="776.8" y="73.2281">taskRepository</text><text fill="#000000" font-family="sans-serif" font-size="11.2" lengthAdjust="spacing" textLength="87.2" x="773.6" y="86.4188">:TaskRepository</text><rect fill="#E3E3E3" height="37.5813" rx="2" ry="2" style="stroke:#181818;stroke-width:0.4000000000000001;" width="98.4" x="768" y="976.8891"/><text fill="#000000" font-family="sans-serif" font-size="11.2" lengthAdjust="spacing" textLength="80.8" x="776.8" y="993.3172">taskRepository</text><text fill="#000000" font-family="sans-serif" font-size="11.2" lengthAdjust="spacing" textLength="87.2" x="773.6" y="1006.5078">:TaskRepository</text><rect fill="#FFFFFF" height="860.1078" style="stroke:#181818;stroke-width:0.8000000000000002;" width="8" x="49.2" y="103.1813"/><rect fill="#FFFFFF" height="56.6391" style="stroke:#181818;stroke-width:0.8000000000000002;" width="8" x="382.8" y="120.2297"/><rect fill="#FFFFFF" height="23.4484" style="stroke:#181818;stroke-width:0.8000000000000002;" width="8" x="382.8" y="200.3172"/><rect fill="#FFFFFF" height="270.8031" style="stroke:#181818;stroke-width:0.8000000000000002;" width="8" x="382.8" y="247.2141"/><rect fill="#FFFFFF" height="136.6906" style="stroke:#181818;stroke-width:0.8000000000000002;" width="8" x="382.8" y="541.4656"/><rect fill="#FFFFFF" height="261.6844" style="stroke:#181818;stroke-width:0.8000000000000002;" width="8" x="382.8" y="701.6047"/><rect fill="#FFFFFF" height="59.0031" style="stroke:#181818;stroke-width:0.8000000000000002;" width="8" x="629.2" y="270.6625"/><rect fill="#FFFFFF" height="59.0031" style="stroke:#181818;stroke-width:0.8000000000000002;" width="8" x="629.2" y="353.1141"/><rect fill="#FFFFFF" height="59.0031" style="stroke:#181818;stroke-width:0.8000000000000002;" width="8" x="629.2" y="435.5656"/><rect fill="#FFFFFF" height="70.3453" style="stroke:#181818;stroke-width:0.8000000000000002;" width="8" x="629.2" y="584.3625"/><rect fill="#FFFFFF" height="91.1453" style="stroke:#181818;stroke-width:0.8000000000000002;" width="8" x="629.2" y="725.0531"/><rect fill="#FFFFFF" height="57.2969" style="stroke:#181818;stroke-width:0.8000000000000002;" width="8" x="629.2" y="864.6953"/><rect fill="#FFFFFF" height="23.4484" style="stroke:#181818;stroke-width:0.8000000000000002;" width="8" x="813.2" y="607.8109"/><polygon fill="#181818" points="373.2,117.0297,381.2,120.2297,373.2,123.4297,376.4,120.2297" style="stroke:#181818;stroke-width:0.8000000000000002;"/><line style="stroke:#181818;stroke-width:0.8000000000000002;" x1="57.2" x2="378" y1="120.2297" y2="120.2297"/><text fill="#000000" font-family="sans-serif" font-size="10.4" font-weight="bold" lengthAdjust="spacing" textLength="7.2" x="62.8" y="116.4359">1</text><text fill="#000000" font-family="sans-serif" font-size="10.4" lengthAdjust="spacing" textLength="252.8" x="73.2" y="116.4359">asks to consult the tasks assigned to collaborator</text><polygon fill="#181818" points="551.6,140.4781,559.6,143.6781,551.6,146.8781,554.8,143.6781" style="stroke:#181818;stroke-width:0.8000000000000002;"/><line style="stroke:#181818;stroke-width:0.8000000000000002;" x1="390.8" x2="556.4" y1="143.6781" y2="143.6781"/><text fill="#000000" font-family="sans-serif" font-size="10.4" font-weight="bold" lengthAdjust="spacing" textLength="7.2" x="396.4" y="139.8844">2</text><text fill="#000000" font-family="sans-serif" font-size="10.4" lengthAdjust="spacing" textLength="30.4" x="406.8" y="139.8844">create</text><rect fill="#E3E3E3" height="24.3906" rx="2" ry="2" style="stroke:#181818;stroke-width:0.4000000000000001;" width="144" x="561.2" y="126.6297"/><text fill="#000000" font-family="sans-serif" font-size="11.2" lengthAdjust="spacing" textLength="132.8" x="566.8" y="143.0578">:ConsultTasksController</text><polygon fill="#181818" points="66,173.6688,58,176.8688,66,180.0688,62.8,176.8688" style="stroke:#181818;stroke-width:0.8000000000000002;"/><line style="stroke:#181818;stroke-width:0.8000000000000002;stroke-dasharray:2.0,2.0;" x1="61.2" x2="386" y1="176.8688" y2="176.8688"/><text fill="#000000" font-family="sans-serif" font-size="10.4" font-weight="bold" lengthAdjust="spacing" textLength="7.2" x="70.8" y="173.075">3</text><text fill="#000000" font-family="sans-serif" font-size="10.4" lengthAdjust="spacing" textLength="92" x="81.2" y="173.075">requests first date</text><polygon fill="#181818" points="373.2,197.1172,381.2,200.3172,373.2,203.5172,376.4,200.3172" style="stroke:#181818;stroke-width:0.8000000000000002;"/><line style="stroke:#181818;stroke-width:0.8000000000000002;" x1="57.2" x2="378" y1="200.3172" y2="200.3172"/><text fill="#000000" font-family="sans-serif" font-size="10.4" font-weight="bold" lengthAdjust="spacing" textLength="7.2" x="62.8" y="196.5234">4</text><text fill="#000000" font-family="sans-serif" font-size="10.4" lengthAdjust="spacing" textLength="76" x="73.2" y="196.5234">types first date</text><polygon fill="#181818" points="66,220.5656,58,223.7656,66,226.9656,62.8,223.7656" style="stroke:#181818;stroke-width:0.8000000000000002;"/><line style="stroke:#181818;stroke-width:0.8000000000000002;stroke-dasharray:2.0,2.0;" x1="61.2" x2="386" y1="223.7656" y2="223.7656"/><text fill="#000000" font-family="sans-serif" font-size="10.4" font-weight="bold" lengthAdjust="spacing" textLength="7.2" x="70.8" y="219.9719">5</text><text fill="#000000" font-family="sans-serif" font-size="10.4" lengthAdjust="spacing" textLength="107.2" x="81.2" y="219.9719">requests second date</text><polygon fill="#181818" points="373.2,244.0141,381.2,247.2141,373.2,250.4141,376.4,247.2141" style="stroke:#181818;stroke-width:0.8000000000000002;"/><line style="stroke:#181818;stroke-width:0.8000000000000002;" x1="57.2" x2="378" y1="247.2141" y2="247.2141"/><text fill="#000000" font-family="sans-serif" font-size="10.4" font-weight="bold" lengthAdjust="spacing" textLength="7.2" x="62.8" y="243.4203">6</text><text fill="#000000" font-family="sans-serif" font-size="10.4" lengthAdjust="spacing" textLength="91.2" x="73.2" y="243.4203">types second date</text><polygon fill="#181818" points="619.6,267.4625,627.6,270.6625,619.6,273.8625,622.8,270.6625" style="stroke:#181818;stroke-width:0.8000000000000002;"/><line style="stroke:#181818;stroke-width:0.8000000000000002;" x1="390.8" x2="624.4" y1="270.6625" y2="270.6625"/><text fill="#000000" font-family="sans-serif" font-size="10.4" font-weight="bold" lengthAdjust="spacing" textLength="7.2" x="396.4" y="266.8688">7</text><text fill="#000000" font-family="sans-serif" font-size="10.4" lengthAdjust="spacing" textLength="112" x="406.8" y="266.8688">getEmailCollaborator()</text><rect fill="none" height="31.5547" style="stroke:#000000;stroke-width:1.2000000000000002;" width="148.8" x="558.8" y="277.0625"/><path d="M558.8,277.0625 L610,277.0625 L610,282.6625 L602,290.6625 L558.8,290.6625 L558.8,277.0625 " fill="#EEEEEE" style="stroke:#000000;stroke-width:1.6000000000000003;"/><text fill="#000000" font-family="sans-serif" font-size="10.4" font-weight="bold" lengthAdjust="spacing" textLength="15.2" x="569.2" y="288.7172">ref</text><text fill="#000000" font-family="sans-serif" font-size="9.6" lengthAdjust="spacing" textLength="111.2" x="577.6" y="303.1438">Get Collaborator's Email</text><polygon fill="#181818" points="399.6,326.4656,391.6,329.6656,399.6,332.8656,396.4,329.6656" style="stroke:#181818;stroke-width:0.8000000000000002;"/><line style="stroke:#181818;stroke-width:0.8000000000000002;stroke-dasharray:2.0,2.0;" x1="394.8" x2="632.4" y1="329.6656" y2="329.6656"/><text fill="#000000" font-family="sans-serif" font-size="10.4" font-weight="bold" lengthAdjust="spacing" textLength="7.2" x="404.4" y="325.8719">8</text><text fill="#000000" font-family="sans-serif" font-size="10.4" lengthAdjust="spacing" textLength="27.2" x="414.8" y="325.8719">email</text><polygon fill="#181818" points="619.6,349.9141,627.6,353.1141,619.6,356.3141,622.8,353.1141" style="stroke:#181818;stroke-width:0.8000000000000002;"/><line style="stroke:#181818;stroke-width:0.8000000000000002;" x1="390.8" x2="624.4" y1="353.1141" y2="353.1141"/><text fill="#000000" font-family="sans-serif" font-size="10.4" font-weight="bold" lengthAdjust="spacing" textLength="7.2" x="396.4" y="349.3203">9</text><text fill="#000000" font-family="sans-serif" font-size="10.4" lengthAdjust="spacing" textLength="156" x="406.8" y="349.3203">getTeamsByCollaborator(email)</text><rect fill="none" height="31.5547" style="stroke:#000000;stroke-width:1.2000000000000002;" width="148.8" x="558.8" y="359.5141"/><path d="M558.8,359.5141 L610,359.5141 L610,365.1141 L602,373.1141 L558.8,373.1141 L558.8,359.5141 " fill="#EEEEEE" style="stroke:#000000;stroke-width:1.6000000000000003;"/><text fill="#000000" font-family="sans-serif" font-size="10.4" font-weight="bold" lengthAdjust="spacing" textLength="15.2" x="569.2" y="371.1688">ref</text><text fill="#000000" font-family="sans-serif" font-size="9.6" lengthAdjust="spacing" textLength="124" x="571.2" y="385.5953">Get Teams By Collaborator</text><polygon fill="#181818" points="399.6,408.9172,391.6,412.1172,399.6,415.3172,396.4,412.1172" style="stroke:#181818;stroke-width:0.8000000000000002;"/><line style="stroke:#181818;stroke-width:0.8000000000000002;stroke-dasharray:2.0,2.0;" x1="394.8" x2="632.4" y1="412.1172" y2="412.1172"/><text fill="#000000" font-family="sans-serif" font-size="10.4" font-weight="bold" lengthAdjust="spacing" textLength="14.4" x="404.4" y="408.3234">10</text><text fill="#000000" font-family="sans-serif" font-size="10.4" lengthAdjust="spacing" textLength="52.8" x="422" y="408.3234">teamsDTO</text><polygon fill="#181818" points="619.6,432.3656,627.6,435.5656,619.6,438.7656,622.8,435.5656" style="stroke:#181818;stroke-width:0.8000000000000002;"/><line style="stroke:#181818;stroke-width:0.8000000000000002;" x1="390.8" x2="624.4" y1="435.5656" y2="435.5656"/><text fill="#000000" font-family="sans-serif" font-size="10.4" font-weight="bold" lengthAdjust="spacing" textLength="14.4" x="396.4" y="431.7719">11</text><text fill="#000000" font-family="sans-serif" font-size="10.4" lengthAdjust="spacing" textLength="205.6" x="414" y="431.7719">getTasks(teamsDTO, startDate, endDate)</text><rect fill="none" height="31.5547" style="stroke:#000000;stroke-width:1.2000000000000002;" width="148.8" x="558.8" y="441.9656"/><path d="M558.8,441.9656 L610,441.9656 L610,447.5656 L602,455.5656 L558.8,455.5656 L558.8,441.9656 " fill="#EEEEEE" style="stroke:#000000;stroke-width:1.6000000000000003;"/><text fill="#000000" font-family="sans-serif" font-size="10.4" font-weight="bold" lengthAdjust="spacing" textLength="15.2" x="569.2" y="453.6203">ref</text><text fill="#000000" font-family="sans-serif" font-size="9.6" lengthAdjust="spacing" textLength="46.4" x="610" y="468.0469">Get Tasks</text><polygon fill="#181818" points="399.6,491.3688,391.6,494.5688,399.6,497.7688,396.4,494.5688" style="stroke:#181818;stroke-width:0.8000000000000002;"/><line style="stroke:#181818;stroke-width:0.8000000000000002;stroke-dasharray:2.0,2.0;" x1="394.8" x2="632.4" y1="494.5688" y2="494.5688"/><text fill="#000000" font-family="sans-serif" font-size="10.4" font-weight="bold" lengthAdjust="spacing" textLength="14.4" x="404.4" y="490.775">12</text><text fill="#000000" font-family="sans-serif" font-size="10.4" lengthAdjust="spacing" textLength="49.6" x="422" y="490.775">tasksDTO</text><polygon fill="#181818" points="66,514.8172,58,518.0172,66,521.2172,62.8,518.0172" style="stroke:#181818;stroke-width:0.8000000000000002;"/><line style="stroke:#181818;stroke-width:0.8000000000000002;stroke-dasharray:2.0,2.0;" x1="61.2" x2="386" y1="518.0172" y2="518.0172"/><text fill="#000000" font-family="sans-serif" font-size="10.4" font-weight="bold" lengthAdjust="spacing" textLength="14.4" x="70.8" y="514.2234">13</text><text fill="#000000" font-family="sans-serif" font-size="10.4" lengthAdjust="spacing" textLength="288.8" x="88.4" y="514.2234">asks if collaborator wants to view tasks filtered by status</text><polygon fill="#181818" points="373.2,538.2656,381.2,541.4656,373.2,544.6656,376.4,541.4656" style="stroke:#181818;stroke-width:0.8000000000000002;"/><line style="stroke:#181818;stroke-width:0.8000000000000002;" x1="57.2" x2="378" y1="541.4656" y2="541.4656"/><text fill="#000000" font-family="sans-serif" font-size="10.4" font-weight="bold" lengthAdjust="spacing" textLength="14.4" x="62.8" y="537.6719">14</text><text fill="#000000" font-family="sans-serif" font-size="10.4" lengthAdjust="spacing" textLength="90.4" x="80.4" y="537.6719">answers yes or no</text><path d="M8,553.4656 L61.6,553.4656 L61.6,559.3141 L53.6,567.3141 L8,567.3141 L8,553.4656 " fill="#EEEEEE" style="stroke:#000000;stroke-width:1.2000000000000002;"/><rect fill="none" height="269.1328" style="stroke:#000000;stroke-width:1.2000000000000002;" width="866.4" x="8" y="553.4656"/><text fill="#000000" font-family="sans-serif" font-size="10.4" font-weight="bold" lengthAdjust="spacing" textLength="17.6" x="20" y="564.3203">opt</text><text fill="#000000" font-family="sans-serif" font-size="8.8" font-weight="bold" lengthAdjust="spacing" textLength="66.4" x="73.6" y="563.5734">[answer is yes]</text><polygon fill="#181818" points="619.6,581.1625,627.6,584.3625,619.6,587.5625,622.8,584.3625" style="stroke:#181818;stroke-width:0.8000000000000002;"/><line style="stroke:#181818;stroke-width:0.8000000000000002;" x1="390.8" x2="624.4" y1="584.3625" y2="584.3625"/><text fill="#000000" font-family="sans-serif" font-size="10.4" font-weight="bold" lengthAdjust="spacing" textLength="14.4" x="396.4" y="580.5688">15</text><text fill="#000000" font-family="sans-serif" font-size="10.4" lengthAdjust="spacing" textLength="72" x="414" y="580.5688">getStatusList()</text><polygon fill="#181818" points="803.6,604.6109,811.6,607.8109,803.6,611.0109,806.8,607.8109" style="stroke:#181818;stroke-width:0.8000000000000002;"/><line style="stroke:#181818;stroke-width:0.8000000000000002;" x1="637.2" x2="808.4" y1="607.8109" y2="607.8109"/><text fill="#000000" font-family="sans-serif" font-size="10.4" font-weight="bold" lengthAdjust="spacing" textLength="14.4" x="642.8" y="604.0172">16</text><text fill="#000000" font-family="sans-serif" font-size="10.4" lengthAdjust="spacing" textLength="72" x="660.4" y="604.0172">getStatusList()</text><polygon fill="#181818" points="646,628.0594,638,631.2594,646,634.4594,642.8,631.2594" style="stroke:#181818;stroke-width:0.8000000000000002;"/><line style="stroke:#181818;stroke-width:0.8000000000000002;stroke-dasharray:2.0,2.0;" x1="641.2" x2="816.4" y1="631.2594" y2="631.2594"/><text fill="#000000" font-family="sans-serif" font-size="10.4" font-weight="bold" lengthAdjust="spacing" textLength="14.4" x="650.8" y="627.4656">17</text><text fill="#000000" font-family="sans-serif" font-size="10.4" lengthAdjust="spacing" textLength="49.6" x="668.4" y="627.4656">statusList</text><polygon fill="#181818" points="399.6,651.5078,391.6,654.7078,399.6,657.9078,396.4,654.7078" style="stroke:#181818;stroke-width:0.8000000000000002;"/><line style="stroke:#181818;stroke-width:0.8000000000000002;stroke-dasharray:2.0,2.0;" x1="394.8" x2="632.4" y1="654.7078" y2="654.7078"/><text fill="#000000" font-family="sans-serif" font-size="10.4" font-weight="bold" lengthAdjust="spacing" textLength="14.4" x="404.4" y="650.9141">18</text><text fill="#000000" font-family="sans-serif" font-size="10.4" lengthAdjust="spacing" textLength="49.6" x="422" y="650.9141">statusList</text><polygon fill="#181818" points="66,674.9563,58,678.1563,66,681.3563,62.8,678.1563" style="stroke:#181818;stroke-width:0.8000000000000002;"/><line style="stroke:#181818;stroke-width:0.8000000000000002;stroke-dasharray:2.0,2.0;" x1="61.2" x2="386" y1="678.1563" y2="678.1563"/><text fill="#000000" font-family="sans-serif" font-size="10.4" font-weight="bold" lengthAdjust="spacing" textLength="14.4" x="70.8" y="674.3625">19</text><text fill="#000000" font-family="sans-serif" font-size="10.4" lengthAdjust="spacing" textLength="246.4" x="88.4" y="674.3625">shows status list and requests one to filter tasks</text><polygon fill="#181818" points="373.2,698.4047,381.2,701.6047,373.2,704.8047,376.4,701.6047" style="stroke:#181818;stroke-width:0.8000000000000002;"/><line style="stroke:#181818;stroke-width:0.8000000000000002;" x1="57.2" x2="378" y1="701.6047" y2="701.6047"/><text fill="#000000" font-family="sans-serif" font-size="10.4" font-weight="bold" lengthAdjust="spacing" textLength="14.4" x="62.8" y="697.8109">20</text><text fill="#000000" font-family="sans-serif" font-size="10.4" lengthAdjust="spacing" textLength="91.2" x="80.4" y="697.8109">selects one status</text><polygon fill="#181818" points="619.6,721.8531,627.6,725.0531,619.6,728.2531,622.8,725.0531" style="stroke:#181818;stroke-width:0.8000000000000002;"/><line style="stroke:#181818;stroke-width:0.8000000000000002;" x1="390.8" x2="624.4" y1="725.0531" y2="725.0531"/><text fill="#000000" font-family="sans-serif" font-size="10.4" font-weight="bold" lengthAdjust="spacing" textLength="14.4" x="396.4" y="721.2594">21</text><text fill="#000000" font-family="sans-serif" font-size="10.4" lengthAdjust="spacing" textLength="203.2" x="414" y="721.2594">consultTasksByStatus(tasksDTO, status)</text><line style="stroke:#181818;stroke-width:0.8000000000000002;stroke-dasharray:2.0,2.0;" x1="637.2" x2="670.8" y1="748.5016" y2="748.5016"/><line style="stroke:#181818;stroke-width:0.8000000000000002;stroke-dasharray:2.0,2.0;" x1="670.8" x2="670.8" y1="748.5016" y2="758.9016"/><line style="stroke:#181818;stroke-width:0.8000000000000002;stroke-dasharray:2.0,2.0;" x1="638" x2="670.8" y1="758.9016" y2="758.9016"/><polygon fill="#181818" points="646,755.7016,638,758.9016,646,762.1016,642.8,758.9016" style="stroke:#181818;stroke-width:0.8000000000000002;"/><text fill="#000000" font-family="sans-serif" font-size="10.4" font-weight="bold" lengthAdjust="spacing" textLength="14.4" x="642.8" y="744.7078">22</text><text fill="#000000" font-family="sans-serif" font-size="10.4" lengthAdjust="spacing" textLength="147.2" x="660.4" y="744.7078">filterTasks(tasksDTO, status)</text><line style="stroke:#181818;stroke-width:0.8000000000000002;stroke-dasharray:2.0,2.0;" x1="637.2" x2="670.8" y1="782.35" y2="782.35"/><line style="stroke:#181818;stroke-width:0.8000000000000002;stroke-dasharray:2.0,2.0;" x1="670.8" x2="670.8" y1="782.35" y2="792.75"/><line style="stroke:#181818;stroke-width:0.8000000000000002;stroke-dasharray:2.0,2.0;" x1="638" x2="670.8" y1="792.75" y2="792.75"/><polygon fill="#181818" points="646,789.55,638,792.75,646,795.95,642.8,792.75" style="stroke:#181818;stroke-width:0.8000000000000002;"/><text fill="#000000" font-family="sans-serif" font-size="10.4" font-weight="bold" lengthAdjust="spacing" textLength="14.4" x="642.8" y="778.5563">23</text><text fill="#000000" font-family="sans-serif" font-size="10.4" lengthAdjust="spacing" textLength="146.4" x="660.4" y="778.5563">orderTasksByDate(tasksDTO)</text><polygon fill="#181818" points="399.6,812.9984,391.6,816.1984,399.6,819.3984,396.4,816.1984" style="stroke:#181818;stroke-width:0.8000000000000002;"/><line style="stroke:#181818;stroke-width:0.8000000000000002;stroke-dasharray:2.0,2.0;" x1="394.8" x2="632.4" y1="816.1984" y2="816.1984"/><text fill="#000000" font-family="sans-serif" font-size="10.4" font-weight="bold" lengthAdjust="spacing" textLength="14.4" x="404.4" y="812.4047">24</text><text fill="#000000" font-family="sans-serif" font-size="10.4" lengthAdjust="spacing" textLength="49.6" x="422" y="812.4047">tasksDTO</text><path d="M329.2,833.7984 L382.8,833.7984 L382.8,839.6469 L374.8,847.6469 L329.2,847.6469 L329.2,833.7984 " fill="#EEEEEE" style="stroke:#000000;stroke-width:1.2000000000000002;"/><rect fill="none" height="94.5938" style="stroke:#000000;stroke-width:1.2000000000000002;" width="487.2" x="329.2" y="833.7984"/><text fill="#000000" font-family="sans-serif" font-size="10.4" font-weight="bold" lengthAdjust="spacing" textLength="17.6" x="341.2" y="844.6531">opt</text><text fill="#000000" font-family="sans-serif" font-size="8.8" font-weight="bold" lengthAdjust="spacing" textLength="63.2" x="394.8" y="843.9063">[answer is no]</text><polygon fill="#181818" points="619.6,861.4953,627.6,864.6953,619.6,867.8953,622.8,864.6953" style="stroke:#181818;stroke-width:0.8000000000000002;"/><line style="stroke:#181818;stroke-width:0.8000000000000002;" x1="390.8" x2="624.4" y1="864.6953" y2="864.6953"/><text fill="#000000" font-family="sans-serif" font-size="10.4" font-weight="bold" lengthAdjust="spacing" textLength="14.4" x="396.4" y="860.9016">25</text><text fill="#000000" font-family="sans-serif" font-size="10.4" lengthAdjust="spacing" textLength="123.2" x="414" y="860.9016">consultTasks(tasksDTO)</text><line style="stroke:#181818;stroke-width:0.8000000000000002;stroke-dasharray:2.0,2.0;" x1="637.2" x2="670.8" y1="888.1438" y2="888.1438"/><line style="stroke:#181818;stroke-width:0.8000000000000002;stroke-dasharray:2.0,2.0;" x1="670.8" x2="670.8" y1="888.1438" y2="898.5438"/><line style="stroke:#181818;stroke-width:0.8000000000000002;stroke-dasharray:2.0,2.0;" x1="638" x2="670.8" y1="898.5438" y2="898.5438"/><polygon fill="#181818" points="646,895.3438,638,898.5438,646,901.7438,642.8,898.5438" style="stroke:#181818;stroke-width:0.8000000000000002;"/><text fill="#000000" font-family="sans-serif" font-size="10.4" font-weight="bold" lengthAdjust="spacing" textLength="14.4" x="642.8" y="884.35">26</text><text fill="#000000" font-family="sans-serif" font-size="10.4" lengthAdjust="spacing" textLength="146.4" x="660.4" y="884.35">orderTasksByDate(tasksDTO)</text><polygon fill="#181818" points="399.6,918.7922,391.6,921.9922,399.6,925.1922,396.4,921.9922" style="stroke:#181818;stroke-width:0.8000000000000002;"/><line style="stroke:#181818;stroke-width:0.8000000000000002;stroke-dasharray:2.0,2.0;" x1="394.8" x2="632.4" y1="921.9922" y2="921.9922"/><text fill="#000000" font-family="sans-serif" font-size="10.4" font-weight="bold" lengthAdjust="spacing" textLength="14.4" x="404.4" y="918.1984">27</text><text fill="#000000" font-family="sans-serif" font-size="10.4" lengthAdjust="spacing" textLength="49.6" x="422" y="918.1984">tasksDTO</text><polygon fill="#181818" points="62,960.0891,54,963.2891,62,966.4891,58.8,963.2891" style="stroke:#181818;stroke-width:0.8000000000000002;"/><line style="stroke:#181818;stroke-width:0.8000000000000002;stroke-dasharray:2.0,2.0;" x1="57.2" x2="386" y1="963.2891" y2="963.2891"/><text fill="#000000" font-family="sans-serif" font-size="10.4" font-weight="bold" lengthAdjust="spacing" textLength="14.4" x="66.8" y="953.3711">28</text><text fill="#000000" font-family="sans-serif" font-size="10.4" lengthAdjust="spacing" textLength="188" x="84.4" y="947.2469">shows tasks assigned to collaborator</text><text fill="#000000" font-family="sans-serif" font-size="10.4" lengthAdjust="spacing" textLength="146.4" x="84.4" y="959.4953">between two dates requested</text><!--SRC=[lLLDRzim3BtxLn2vB2aQODXfoA67jCLGeC209hdrejXC8jIMF8cfuNy_IlwKOmTP3_D9biZ7H_9HiXzIvSA833AjT7moEaCWSyR8jYUvY3_44JTKfWW6OnBgcFODx4aakf3g20UHMemYaiIckytt7pzX2OzQsNDAG2U65lR3Wh1M7XKcG1e4n3fDnLuRGTf4aJYJLkTiZsuTynRC7di6CtQ6vonFTOaOSNoIiSo58fYjwa1R5sFtuYrtBrTiU4s6iR52VTo-lORMZkqRvjfAZbo-gzKssF1UuPRdB3y5OKSo0lwQFrW-C2bOWIy4vnzVhKvG6uVJmdDcVeF16D9nlxjZsDWWdtP7VDQ6Nd7t_fpHaeM3D9OWSQRECi4Bt0l2LEPuuJXAPoAcHSur-KhGeUUL8h3F4Uav4pBjosQ-21rzh_sMmGFeJpJL5jJVBoJe-tzpecDCRu3CXTqgVnzqsV35rgYNNHTio7EB8hFhCc3g8IRfJbDkQ7jCM9S1_zOgu7x9dvppq_PtUpoQncWgJhlpnlyUBF4aFR7VlOlf5ek0wjToSq76SndauGoRF2PR4GhL3vyy13C71Ly4Vau_9HRrW1vaIcXuGFUbIvFEzcOz2sKBD1PALZMZApskPvrJRGhI6q-MVUFZlqfByww-4xMjIlGmkB9kmHbUSet106dPKRCjtfYKfl329bx7k9HZs4vxqeMjCI1b4Aveqjr6Mg5hQzNBgh5ZKPgEZ7RJOihFOONL4y9eIo-Q5_TUedLPrN_UwFQ-nhknfnrgbKyzZ9DWGozjajffNRfHRLqNanT5Vy36EjCCA4jvJDErygzMfSVY7wlmF_APKjprHnpUrHwfG5H0XVPFccr4YSdOFTBxRMBz1G00]--></g></svg>