<?xml version="1.0" encoding="us-ascii" standalone="no"?><svg xmlns="http://www.w3.org/2000/svg" xmlns:xlink="http://www.w3.org/1999/xlink" contentStyleType="text/css" height="1053.6px" preserveAspectRatio="none" style="width:1067px;height:1053px;background:#FFFFFF;" version="1.1" viewBox="0 0 1067 1053" width="1067.2px" zoomAndPan="magnify"><defs/><g><text fill="#000000" font-family="sans-serif" font-size="11.2" font-weight="bold" lengthAdjust="spacing" textLength="308.8" x="380.6" y="22.8281">US028 - Consult the tasks assigned to a collaborator</text><rect fill="#FFFFFF" height="871.45" style="stroke:#181818;stroke-width:0.8000000000000002;" width="8" x="49.2" y="103.1813"/><rect fill="#FFFFFF" height="56.6391" style="stroke:#181818;stroke-width:0.8000000000000002;" width="8" x="382.8" y="120.2297"/><rect fill="#FFFFFF" height="23.4484" style="stroke:#181818;stroke-width:0.8000000000000002;" width="8" x="382.8" y="200.3172"/><rect fill="#FFFFFF" height="188.3516" style="stroke:#181818;stroke-width:0.8000000000000002;" width="8" x="382.8" y="247.2141"/><rect fill="#FFFFFF" height="42.8969" style="stroke:#181818;stroke-width:0.8000000000000002;" width="8" x="382.8" y="459.0141"/><rect fill="#FFFFFF" height="449.2719" style="stroke:#181818;stroke-width:0.8000000000000002;" width="8" x="382.8" y="525.3594"/><rect fill="#FFFFFF" height="59.0031" style="stroke:#181818;stroke-width:0.8000000000000002;" width="8" x="596.4" y="270.6625"/><rect fill="#FFFFFF" height="59.0031" style="stroke:#181818;stroke-width:0.8000000000000002;" width="8" x="596.4" y="353.1141"/><rect fill="#FFFFFF" height="70.3453" style="stroke:#181818;stroke-width:0.8000000000000002;" width="8" x="596.4" y="548.8078"/><rect fill="#FFFFFF" height="138.0422" style="stroke:#181818;stroke-width:0.8000000000000002;" width="8" x="596.4" y="642.6016"/><rect fill="#FFFFFF" height="104.1938" style="stroke:#181818;stroke-width:0.8000000000000002;" width="8" x="596.4" y="829.1406"/><rect fill="#FFFFFF" height="23.4484" style="stroke:#181818;stroke-width:0.8000000000000002;" width="8" x="840.4" y="572.2563"/><rect fill="#FFFFFF" height="91.1453" style="stroke:#181818;stroke-width:0.8000000000000002;" width="8" x="840.4" y="666.05"/><rect fill="#FFFFFF" height="57.2969" style="stroke:#181818;stroke-width:0.8000000000000002;" width="8" x="840.4" y="852.5891"/><rect fill="none" height="316.0297" style="stroke:#000000;stroke-width:1.2000000000000002;" width="1054.8" x="8" y="471.0141"/><rect fill="none" height="141.4906" style="stroke:#000000;stroke-width:1.2000000000000002;" width="648.8" x="329.2" y="798.2438"/><line style="stroke:#181818;stroke-width:0.4000000000000001;stroke-dasharray:5.0,5.0;" x1="52.8" x2="52.8" y1="95.1813" y2="989.0313"/><line style="stroke:#181818;stroke-width:0.4000000000000001;stroke-dasharray:5.0,5.0;" x1="386.8" x2="386.8" y1="95.1813" y2="989.0313"/><line style="stroke:#181818;stroke-width:0.4000000000000001;stroke-dasharray:5.0,5.0;" x1="600.4" x2="600.4" y1="151.225" y2="989.0313"/><line style="stroke:#181818;stroke-width:0.4000000000000001;stroke-dasharray:5.0,5.0;" x1="844" x2="844" y1="95.1813" y2="989.0313"/><text fill="#000000" font-family="sans-serif" font-size="11.2" lengthAdjust="spacing" textLength="69.6" x="16" y="92.8188">Collaborator</text><ellipse cx="53.2" cy="40.7906" fill="#E3E3E3" rx="6.4" ry="6.4" style="stroke:#181818;stroke-width:0.4000000000000001;"/><path d="M53.2,47.1906 L53.2,68.7906 M42.8,53.5906 L63.6,53.5906 M53.2,68.7906 L42.8,80.7906 M53.2,68.7906 L63.6,80.7906 " fill="none" style="stroke:#181818;stroke-width:0.4000000000000001;"/><text fill="#000000" font-family="sans-serif" font-size="11.2" lengthAdjust="spacing" textLength="69.6" x="16" y="999.0594">Collaborator</text><ellipse cx="53.2" cy="1008.2219" fill="#E3E3E3" rx="6.4" ry="6.4" style="stroke:#181818;stroke-width:0.4000000000000001;"/><path d="M53.2,1014.6219 L53.2,1036.2219 M42.8,1021.0219 L63.6,1021.0219 M53.2,1036.2219 L42.8,1048.2219 M53.2,1036.2219 L63.6,1048.2219 " fill="none" style="stroke:#181818;stroke-width:0.4000000000000001;"/><rect fill="#E3E3E3" height="24.3906" rx="2" ry="2" style="stroke:#181818;stroke-width:0.4000000000000001;" width="99.2" x="337.2" y="69.9906"/><text fill="#000000" font-family="sans-serif" font-size="11.2" lengthAdjust="spacing" textLength="88" x="342.8" y="86.4188">:ConsultTasksUI</text><rect fill="#E3E3E3" height="24.3906" rx="2" ry="2" style="stroke:#181818;stroke-width:0.4000000000000001;" width="99.2" x="337.2" y="988.2313"/><text fill="#000000" font-family="sans-serif" font-size="11.2" lengthAdjust="spacing" textLength="88" x="342.8" y="1004.6594">:ConsultTasksUI</text><rect fill="#E3E3E3" height="24.3906" rx="2" ry="2" style="stroke:#181818;stroke-width:0.4000000000000001;" width="144" x="528.4" y="988.2313"/><text fill="#000000" font-family="sans-serif" font-size="11.2" lengthAdjust="spacing" textLength="132.8" x="534" y="1004.6594">:ConsultTasksController</text><rect fill="#E3E3E3" height="37.5813" rx="2" ry="2" style="stroke:#181818;stroke-width:0.4000000000000001;" width="98.4" x="795.2" y="56.8"/><text fill="#000000" font-family="sans-serif" font-size="11.2" lengthAdjust="spacing" textLength="80.8" x="804" y="73.2281">taskRepository</text><text fill="#000000" font-family="sans-serif" font-size="11.2" lengthAdjust="spacing" textLength="87.2" x="800.8" y="86.4188">:TaskRepository</text><rect fill="#E3E3E3" height="37.5813" rx="2" ry="2" style="stroke:#181818;stroke-width:0.4000000000000001;" width="98.4" x="795.2" y="988.2313"/><text fill="#000000" font-family="sans-serif" font-size="11.2" lengthAdjust="spacing" textLength="80.8" x="804" y="1004.6594">taskRepository</text><text fill="#000000" font-family="sans-serif" font-size="11.2" lengthAdjust="spacing" textLength="87.2" x="800.8" y="1017.85">:TaskRepository</text><rect fill="#FFFFFF" height="871.45" style="stroke:#181818;stroke-width:0.8000000000000002;" width="8" x="49.2" y="103.1813"/><rect fill="#FFFFFF" height="56.6391" style="stroke:#181818;stroke-width:0.8000000000000002;" width="8" x="382.8" y="120.2297"/><rect fill="#FFFFFF" height="23.4484" style="stroke:#181818;stroke-width:0.8000000000000002;" width="8" x="382.8" y="200.3172"/><rect fill="#FFFFFF" height="188.3516" style="stroke:#181818;stroke-width:0.8000000000000002;" width="8" x="382.8" y="247.2141"/><rect fill="#FFFFFF" height="42.8969" style="stroke:#181818;stroke-width:0.8000000000000002;" width="8" x="382.8" y="459.0141"/><rect fill="#FFFFFF" height="449.2719" style="stroke:#181818;stroke-width:0.8000000000000002;" width="8" x="382.8" y="525.3594"/><rect fill="#FFFFFF" height="59.0031" style="stroke:#181818;stroke-width:0.8000000000000002;" width="8" x="596.4" y="270.6625"/><rect fill="#FFFFFF" height="59.0031" style="stroke:#181818;stroke-width:0.8000000000000002;" width="8" x="596.4" y="353.1141"/><rect fill="#FFFFFF" height="70.3453" style="stroke:#181818;stroke-width:0.8000000000000002;" width="8" x="596.4" y="548.8078"/><rect fill="#FFFFFF" height="138.0422" style="stroke:#181818;stroke-width:0.8000000000000002;" width="8" x="596.4" y="642.6016"/><rect fill="#FFFFFF" height="104.1938" style="stroke:#181818;stroke-width:0.8000000000000002;" width="8" x="596.4" y="829.1406"/><rect fill="#FFFFFF" height="23.4484" style="stroke:#181818;stroke-width:0.8000000000000002;" width="8" x="840.4" y="572.2563"/><rect fill="#FFFFFF" height="91.1453" style="stroke:#181818;stroke-width:0.8000000000000002;" width="8" x="840.4" y="666.05"/><rect fill="#FFFFFF" height="57.2969" style="stroke:#181818;stroke-width:0.8000000000000002;" width="8" x="840.4" y="852.5891"/><polygon fill="#181818" points="373.2,117.0297,381.2,120.2297,373.2,123.4297,376.4,120.2297" style="stroke:#181818;stroke-width:0.8000000000000002;"/><line style="stroke:#181818;stroke-width:0.8000000000000002;" x1="57.2" x2="378" y1="120.2297" y2="120.2297"/><text fill="#000000" font-family="sans-serif" font-size="10.4" font-weight="bold" lengthAdjust="spacing" textLength="7.2" x="62.8" y="116.4359">1</text><text fill="#000000" font-family="sans-serif" font-size="10.4" lengthAdjust="spacing" textLength="252.8" x="73.2" y="116.4359">asks to consult the tasks assigned to collaborator</text><polygon fill="#181818" points="518.8,140.4781,526.8,143.6781,518.8,146.8781,522,143.6781" style="stroke:#181818;stroke-width:0.8000000000000002;"/><line style="stroke:#181818;stroke-width:0.8000000000000002;" x1="390.8" x2="523.6" y1="143.6781" y2="143.6781"/><text fill="#000000" font-family="sans-serif" font-size="10.4" font-weight="bold" lengthAdjust="spacing" textLength="7.2" x="396.4" y="139.8844">2</text><text fill="#000000" font-family="sans-serif" font-size="10.4" lengthAdjust="spacing" textLength="30.4" x="406.8" y="139.8844">create</text><rect fill="#E3E3E3" height="24.3906" rx="2" ry="2" style="stroke:#181818;stroke-width:0.4000000000000001;" width="144" x="528.4" y="126.6297"/><text fill="#000000" font-family="sans-serif" font-size="11.2" lengthAdjust="spacing" textLength="132.8" x="534" y="143.0578">:ConsultTasksController</text><polygon fill="#181818" points="66,173.6688,58,176.8688,66,180.0688,62.8,176.8688" style="stroke:#181818;stroke-width:0.8000000000000002;"/><line style="stroke:#181818;stroke-width:0.8000000000000002;stroke-dasharray:2.0,2.0;" x1="61.2" x2="386" y1="176.8688" y2="176.8688"/><text fill="#000000" font-family="sans-serif" font-size="10.4" font-weight="bold" lengthAdjust="spacing" textLength="7.2" x="70.8" y="173.075">3</text><text fill="#000000" font-family="sans-serif" font-size="10.4" lengthAdjust="spacing" textLength="92" x="81.2" y="173.075">requests first date</text><polygon fill="#181818" points="373.2,197.1172,381.2,200.3172,373.2,203.5172,376.4,200.3172" style="stroke:#181818;stroke-width:0.8000000000000002;"/><line style="stroke:#181818;stroke-width:0.8000000000000002;" x1="57.2" x2="378" y1="200.3172" y2="200.3172"/><text fill="#000000" font-family="sans-serif" font-size="10.4" font-weight="bold" lengthAdjust="spacing" textLength="7.2" x="62.8" y="196.5234">4</text><text fill="#000000" font-family="sans-serif" font-size="10.4" lengthAdjust="spacing" textLength="76" x="73.2" y="196.5234">types first date</text><polygon fill="#181818" points="66,220.5656,58,223.7656,66,226.9656,62.8,223.7656" style="stroke:#181818;stroke-width:0.8000000000000002;"/><line style="stroke:#181818;stroke-width:0.8000000000000002;stroke-dasharray:2.0,2.0;" x1="61.2" x2="386" y1="223.7656" y2="223.7656"/><text fill="#000000" font-family="sans-serif" font-size="10.4" font-weight="bold" lengthAdjust="spacing" textLength="7.2" x="70.8" y="219.9719">5</text><text fill="#000000" font-family="sans-serif" font-size="10.4" lengthAdjust="spacing" textLength="107.2" x="81.2" y="219.9719">requests second date</text><polygon fill="#181818" points="373.2,244.0141,381.2,247.2141,373.2,250.4141,376.4,247.2141" style="stroke:#181818;stroke-width:0.8000000000000002;"/><line style="stroke:#181818;stroke-width:0.8000000000000002;" x1="57.2" x2="378" y1="247.2141" y2="247.2141"/><text fill="#000000" font-family="sans-serif" font-size="10.4" font-weight="bold" lengthAdjust="spacing" textLength="7.2" x="62.8" y="243.4203">6</text><text fill="#000000" font-family="sans-serif" font-size="10.4" lengthAdjust="spacing" textLength="91.2" x="73.2" y="243.4203">types second date</text><polygon fill="#181818" points="586.8,267.4625,594.8,270.6625,586.8,273.8625,590,270.6625" style="stroke:#181818;stroke-width:0.8000000000000002;"/><line style="stroke:#181818;stroke-width:0.8000000000000002;" x1="390.8" x2="591.6" y1="270.6625" y2="270.6625"/><text fill="#000000" font-family="sans-serif" font-size="10.4" font-weight="bold" lengthAdjust="spacing" textLength="7.2" x="396.4" y="266.8688">7</text><text fill="#000000" font-family="sans-serif" font-size="10.4" lengthAdjust="spacing" textLength="112" x="406.8" y="266.8688">getEmailCollaborator()</text><rect fill="none" height="31.5547" style="stroke:#000000;stroke-width:1.2000000000000002;" width="148.8" x="526" y="277.0625"/><path d="M526,277.0625 L577.2,277.0625 L577.2,282.6625 L569.2,290.6625 L526,290.6625 L526,277.0625 " fill="#EEEEEE" style="stroke:#000000;stroke-width:1.6000000000000003;"/><text fill="#000000" font-family="sans-serif" font-size="10.4" font-weight="bold" lengthAdjust="spacing" textLength="15.2" x="536.4" y="288.7172">ref</text><text fill="#000000" font-family="sans-serif" font-size="9.6" lengthAdjust="spacing" textLength="111.2" x="544.8" y="303.1438">Get Collaborator's Email</text><polygon fill="#181818" points="399.6,326.4656,391.6,329.6656,399.6,332.8656,396.4,329.6656" style="stroke:#181818;stroke-width:0.8000000000000002;"/><line style="stroke:#181818;stroke-width:0.8000000000000002;stroke-dasharray:2.0,2.0;" x1="394.8" x2="599.6" y1="329.6656" y2="329.6656"/><text fill="#000000" font-family="sans-serif" font-size="10.4" font-weight="bold" lengthAdjust="spacing" textLength="7.2" x="404.4" y="325.8719">8</text><text fill="#000000" font-family="sans-serif" font-size="10.4" lengthAdjust="spacing" textLength="27.2" x="414.8" y="325.8719">email</text><polygon fill="#181818" points="586.8,349.9141,594.8,353.1141,586.8,356.3141,590,353.1141" style="stroke:#181818;stroke-width:0.8000000000000002;"/><line style="stroke:#181818;stroke-width:0.8000000000000002;" x1="390.8" x2="591.6" y1="353.1141" y2="353.1141"/><text fill="#000000" font-family="sans-serif" font-size="10.4" font-weight="bold" lengthAdjust="spacing" textLength="7.2" x="396.4" y="349.3203">9</text><text fill="#000000" font-family="sans-serif" font-size="10.4" lengthAdjust="spacing" textLength="180" x="406.8" y="349.3203">getTasks(email, startDate, endDate)</text><rect fill="none" height="31.5547" style="stroke:#000000;stroke-width:1.2000000000000002;" width="223.2" x="526" y="359.5141"/><path d="M526,359.5141 L577.2,359.5141 L577.2,365.1141 L569.2,373.1141 L526,373.1141 L526,359.5141 " fill="#EEEEEE" style="stroke:#000000;stroke-width:1.6000000000000003;"/><text fill="#000000" font-family="sans-serif" font-size="10.4" font-weight="bold" lengthAdjust="spacing" textLength="15.2" x="536.4" y="371.1688">ref</text><text fill="#000000" font-family="sans-serif" font-size="9.6" lengthAdjust="spacing" textLength="216.8" x="529.2" y="385.5953">Get Tasks List by Collaborator and Date Range</text><polygon fill="#181818" points="399.6,408.9172,391.6,412.1172,399.6,415.3172,396.4,412.1172" style="stroke:#181818;stroke-width:0.8000000000000002;"/><line style="stroke:#181818;stroke-width:0.8000000000000002;stroke-dasharray:2.0,2.0;" x1="394.8" x2="599.6" y1="412.1172" y2="412.1172"/><text fill="#000000" font-family="sans-serif" font-size="10.4" font-weight="bold" lengthAdjust="spacing" textLength="14.4" x="404.4" y="408.3234">10</text><text fill="#000000" font-family="sans-serif" font-size="10.4" lengthAdjust="spacing" textLength="49.6" x="422" y="408.3234">tasksDTO</text><polygon fill="#181818" points="66,432.3656,58,435.5656,66,438.7656,62.8,435.5656" style="stroke:#181818;stroke-width:0.8000000000000002;"/><line style="stroke:#181818;stroke-width:0.8000000000000002;stroke-dasharray:2.0,2.0;" x1="61.2" x2="386" y1="435.5656" y2="435.5656"/><text fill="#000000" font-family="sans-serif" font-size="10.4" font-weight="bold" lengthAdjust="spacing" textLength="14.4" x="70.8" y="431.7719">11</text><text fill="#000000" font-family="sans-serif" font-size="10.4" lengthAdjust="spacing" textLength="288.8" x="88.4" y="431.7719">asks if collaborator wants to view tasks filtered by status</text><polygon fill="#181818" points="373.2,455.8141,381.2,459.0141,373.2,462.2141,376.4,459.0141" style="stroke:#181818;stroke-width:0.8000000000000002;"/><line style="stroke:#181818;stroke-width:0.8000000000000002;" x1="57.2" x2="378" y1="459.0141" y2="459.0141"/><text fill="#000000" font-family="sans-serif" font-size="10.4" font-weight="bold" lengthAdjust="spacing" textLength="14.4" x="62.8" y="455.2203">12</text><text fill="#000000" font-family="sans-serif" font-size="10.4" lengthAdjust="spacing" textLength="90.4" x="80.4" y="455.2203">answers yes or no</text><path d="M8,471.0141 L61.6,471.0141 L61.6,476.8625 L53.6,484.8625 L8,484.8625 L8,471.0141 " fill="#EEEEEE" style="stroke:#000000;stroke-width:1.2000000000000002;"/><rect fill="none" height="316.0297" style="stroke:#000000;stroke-width:1.2000000000000002;" width="1054.8" x="8" y="471.0141"/><text fill="#000000" font-family="sans-serif" font-size="10.4" font-weight="bold" lengthAdjust="spacing" textLength="17.6" x="20" y="481.8688">opt</text><text fill="#000000" font-family="sans-serif" font-size="8.8" font-weight="bold" lengthAdjust="spacing" textLength="66.4" x="73.6" y="481.1219">[answer is yes]</text><polygon fill="#181818" points="66,498.7109,58,501.9109,66,505.1109,62.8,501.9109" style="stroke:#181818;stroke-width:0.8000000000000002;"/><line style="stroke:#181818;stroke-width:0.8000000000000002;stroke-dasharray:2.0,2.0;" x1="61.2" x2="386" y1="501.9109" y2="501.9109"/><text fill="#000000" font-family="sans-serif" font-size="10.4" font-weight="bold" lengthAdjust="spacing" textLength="14.4" x="70.8" y="498.1172">13</text><text fill="#000000" font-family="sans-serif" font-size="10.4" lengthAdjust="spacing" textLength="246.4" x="88.4" y="498.1172">shows status list and requests one to filter tasks</text><polygon fill="#181818" points="373.2,522.1594,381.2,525.3594,373.2,528.5594,376.4,525.3594" style="stroke:#181818;stroke-width:0.8000000000000002;"/><line style="stroke:#181818;stroke-width:0.8000000000000002;" x1="57.2" x2="378" y1="525.3594" y2="525.3594"/><text fill="#000000" font-family="sans-serif" font-size="10.4" font-weight="bold" lengthAdjust="spacing" textLength="14.4" x="62.8" y="521.5656">14</text><text fill="#000000" font-family="sans-serif" font-size="10.4" lengthAdjust="spacing" textLength="91.2" x="80.4" y="521.5656">selects one status</text><polygon fill="#181818" points="586.8,545.6078,594.8,548.8078,586.8,552.0078,590,548.8078" style="stroke:#181818;stroke-width:0.8000000000000002;"/><line style="stroke:#181818;stroke-width:0.8000000000000002;" x1="390.8" x2="591.6" y1="548.8078" y2="548.8078"/><text fill="#000000" font-family="sans-serif" font-size="10.4" font-weight="bold" lengthAdjust="spacing" textLength="14.4" x="396.4" y="545.0141">15</text><text fill="#000000" font-family="sans-serif" font-size="10.4" lengthAdjust="spacing" textLength="72" x="414" y="545.0141">getStatusList()</text><polygon fill="#181818" points="830.8,569.0563,838.8,572.2563,830.8,575.4563,834,572.2563" style="stroke:#181818;stroke-width:0.8000000000000002;"/><line style="stroke:#181818;stroke-width:0.8000000000000002;" x1="604.4" x2="835.6" y1="572.2563" y2="572.2563"/><text fill="#000000" font-family="sans-serif" font-size="10.4" font-weight="bold" lengthAdjust="spacing" textLength="14.4" x="610" y="568.4625">16</text><text fill="#000000" font-family="sans-serif" font-size="10.4" lengthAdjust="spacing" textLength="72" x="627.6" y="568.4625">getStatusList()</text><polygon fill="#181818" points="613.2,592.5047,605.2,595.7047,613.2,598.9047,610,595.7047" style="stroke:#181818;stroke-width:0.8000000000000002;"/><line style="stroke:#181818;stroke-width:0.8000000000000002;stroke-dasharray:2.0,2.0;" x1="608.4" x2="843.6" y1="595.7047" y2="595.7047"/><text fill="#000000" font-family="sans-serif" font-size="10.4" font-weight="bold" lengthAdjust="spacing" textLength="14.4" x="618" y="591.9109">17</text><text fill="#000000" font-family="sans-serif" font-size="10.4" lengthAdjust="spacing" textLength="49.6" x="635.6" y="591.9109">statusList</text><polygon fill="#181818" points="399.6,615.9531,391.6,619.1531,399.6,622.3531,396.4,619.1531" style="stroke:#181818;stroke-width:0.8000000000000002;"/><line style="stroke:#181818;stroke-width:0.8000000000000002;stroke-dasharray:2.0,2.0;" x1="394.8" x2="599.6" y1="619.1531" y2="619.1531"/><text fill="#000000" font-family="sans-serif" font-size="10.4" font-weight="bold" lengthAdjust="spacing" textLength="14.4" x="404.4" y="615.3594">18</text><text fill="#000000" font-family="sans-serif" font-size="10.4" lengthAdjust="spacing" textLength="49.6" x="422" y="615.3594">statusList</text><polygon fill="#181818" points="586.8,639.4016,594.8,642.6016,586.8,645.8016,590,642.6016" style="stroke:#181818;stroke-width:0.8000000000000002;"/><line style="stroke:#181818;stroke-width:0.8000000000000002;" x1="390.8" x2="591.6" y1="642.6016" y2="642.6016"/><text fill="#000000" font-family="sans-serif" font-size="10.4" font-weight="bold" lengthAdjust="spacing" textLength="14.4" x="396.4" y="638.8078">19</text><text fill="#000000" font-family="sans-serif" font-size="10.4" lengthAdjust="spacing" textLength="165.6" x="414" y="638.8078">consultTasksByStatus(tasksDTO)</text><polygon fill="#181818" points="830.8,662.85,838.8,666.05,830.8,669.25,834,666.05" style="stroke:#181818;stroke-width:0.8000000000000002;"/><line style="stroke:#181818;stroke-width:0.8000000000000002;" x1="604.4" x2="835.6" y1="666.05" y2="666.05"/><text fill="#000000" font-family="sans-serif" font-size="10.4" font-weight="bold" lengthAdjust="spacing" textLength="14.4" x="610" y="662.2563">20</text><text fill="#000000" font-family="sans-serif" font-size="10.4" lengthAdjust="spacing" textLength="203.2" x="627.6" y="662.2563">consultTasksByStatus(tasksDTO, status)</text><line style="stroke:#181818;stroke-width:0.8000000000000002;stroke-dasharray:2.0,2.0;" x1="848.4" x2="882" y1="689.4984" y2="689.4984"/><line style="stroke:#181818;stroke-width:0.8000000000000002;stroke-dasharray:2.0,2.0;" x1="882" x2="882" y1="689.4984" y2="699.8984"/><line style="stroke:#181818;stroke-width:0.8000000000000002;stroke-dasharray:2.0,2.0;" x1="849.2" x2="882" y1="699.8984" y2="699.8984"/><polygon fill="#181818" points="857.2,696.6984,849.2,699.8984,857.2,703.0984,854,699.8984" style="stroke:#181818;stroke-width:0.8000000000000002;"/><text fill="#000000" font-family="sans-serif" font-size="10.4" font-weight="bold" lengthAdjust="spacing" textLength="14.4" x="854" y="685.7047">21</text><text fill="#000000" font-family="sans-serif" font-size="10.4" lengthAdjust="spacing" textLength="181.6" x="871.6" y="685.7047">getTasksByStatus(tasksDTO, status)</text><line style="stroke:#181818;stroke-width:0.8000000000000002;stroke-dasharray:2.0,2.0;" x1="848.4" x2="882" y1="723.3469" y2="723.3469"/><line style="stroke:#181818;stroke-width:0.8000000000000002;stroke-dasharray:2.0,2.0;" x1="882" x2="882" y1="723.3469" y2="733.7469"/><line style="stroke:#181818;stroke-width:0.8000000000000002;stroke-dasharray:2.0,2.0;" x1="849.2" x2="882" y1="733.7469" y2="733.7469"/><polygon fill="#181818" points="857.2,730.5469,849.2,733.7469,857.2,736.9469,854,733.7469" style="stroke:#181818;stroke-width:0.8000000000000002;"/><text fill="#000000" font-family="sans-serif" font-size="10.4" font-weight="bold" lengthAdjust="spacing" textLength="14.4" x="854" y="719.5531">22</text><text fill="#000000" font-family="sans-serif" font-size="10.4" lengthAdjust="spacing" textLength="96.8" x="871.6" y="719.5531">orderTasksByDate()</text><polygon fill="#181818" points="613.2,753.9953,605.2,757.1953,613.2,760.3953,610,757.1953" style="stroke:#181818;stroke-width:0.8000000000000002;"/><line style="stroke:#181818;stroke-width:0.8000000000000002;stroke-dasharray:2.0,2.0;" x1="608.4" x2="843.6" y1="757.1953" y2="757.1953"/><text fill="#000000" font-family="sans-serif" font-size="10.4" font-weight="bold" lengthAdjust="spacing" textLength="14.4" x="618" y="753.4016">23</text><text fill="#000000" font-family="sans-serif" font-size="10.4" lengthAdjust="spacing" textLength="49.6" x="635.6" y="753.4016">tasksDTO</text><polygon fill="#181818" points="399.6,777.4438,391.6,780.6438,399.6,783.8438,396.4,780.6438" style="stroke:#181818;stroke-width:0.8000000000000002;"/><line style="stroke:#181818;stroke-width:0.8000000000000002;stroke-dasharray:2.0,2.0;" x1="394.8" x2="599.6" y1="780.6438" y2="780.6438"/><text fill="#000000" font-family="sans-serif" font-size="10.4" font-weight="bold" lengthAdjust="spacing" textLength="14.4" x="404.4" y="776.85">24</text><text fill="#000000" font-family="sans-serif" font-size="10.4" lengthAdjust="spacing" textLength="49.6" x="422" y="776.85">tasksDTO</text><path d="M329.2,798.2438 L382.8,798.2438 L382.8,804.0922 L374.8,812.0922 L329.2,812.0922 L329.2,798.2438 " fill="#EEEEEE" style="stroke:#000000;stroke-width:1.2000000000000002;"/><rect fill="none" height="141.4906" style="stroke:#000000;stroke-width:1.2000000000000002;" width="648.8" x="329.2" y="798.2438"/><text fill="#000000" font-family="sans-serif" font-size="10.4" font-weight="bold" lengthAdjust="spacing" textLength="17.6" x="341.2" y="809.0984">opt</text><text fill="#000000" font-family="sans-serif" font-size="8.8" font-weight="bold" lengthAdjust="spacing" textLength="63.2" x="394.8" y="808.3516">[answer is no]</text><polygon fill="#181818" points="586.8,825.9406,594.8,829.1406,586.8,832.3406,590,829.1406" style="stroke:#181818;stroke-width:0.8000000000000002;"/><line style="stroke:#181818;stroke-width:0.8000000000000002;" x1="390.8" x2="591.6" y1="829.1406" y2="829.1406"/><text fill="#000000" font-family="sans-serif" font-size="10.4" font-weight="bold" lengthAdjust="spacing" textLength="14.4" x="396.4" y="825.3469">25</text><text fill="#000000" font-family="sans-serif" font-size="10.4" lengthAdjust="spacing" textLength="123.2" x="414" y="825.3469">consultTasks(tasksDTO)</text><polygon fill="#181818" points="830.8,849.3891,838.8,852.5891,830.8,855.7891,834,852.5891" style="stroke:#181818;stroke-width:0.8000000000000002;"/><line style="stroke:#181818;stroke-width:0.8000000000000002;" x1="604.4" x2="835.6" y1="852.5891" y2="852.5891"/><text fill="#000000" font-family="sans-serif" font-size="10.4" font-weight="bold" lengthAdjust="spacing" textLength="14.4" x="610" y="848.7953">26</text><text fill="#000000" font-family="sans-serif" font-size="10.4" lengthAdjust="spacing" textLength="123.2" x="627.6" y="848.7953">consultTasks(tasksDTO)</text><line style="stroke:#181818;stroke-width:0.8000000000000002;stroke-dasharray:2.0,2.0;" x1="848.4" x2="882" y1="876.0375" y2="876.0375"/><line style="stroke:#181818;stroke-width:0.8000000000000002;stroke-dasharray:2.0,2.0;" x1="882" x2="882" y1="876.0375" y2="886.4375"/><line style="stroke:#181818;stroke-width:0.8000000000000002;stroke-dasharray:2.0,2.0;" x1="849.2" x2="882" y1="886.4375" y2="886.4375"/><polygon fill="#181818" points="857.2,883.2375,849.2,886.4375,857.2,889.6375,854,886.4375" style="stroke:#181818;stroke-width:0.8000000000000002;"/><text fill="#000000" font-family="sans-serif" font-size="10.4" font-weight="bold" lengthAdjust="spacing" textLength="14.4" x="854" y="872.2438">27</text><text fill="#000000" font-family="sans-serif" font-size="10.4" lengthAdjust="spacing" textLength="96.8" x="871.6" y="872.2438">orderTasksByDate()</text><polygon fill="#181818" points="613.2,906.6859,605.2,909.8859,613.2,913.0859,610,909.8859" style="stroke:#181818;stroke-width:0.8000000000000002;"/><line style="stroke:#181818;stroke-width:0.8000000000000002;stroke-dasharray:2.0,2.0;" x1="608.4" x2="843.6" y1="909.8859" y2="909.8859"/><text fill="#000000" font-family="sans-serif" font-size="10.4" font-weight="bold" lengthAdjust="spacing" textLength="14.4" x="618" y="906.0922">28</text><text fill="#000000" font-family="sans-serif" font-size="10.4" lengthAdjust="spacing" textLength="49.6" x="635.6" y="906.0922">tasksDTO</text><polygon fill="#181818" points="399.6,930.1344,391.6,933.3344,399.6,936.5344,396.4,933.3344" style="stroke:#181818;stroke-width:0.8000000000000002;"/><line style="stroke:#181818;stroke-width:0.8000000000000002;stroke-dasharray:2.0,2.0;" x1="394.8" x2="599.6" y1="933.3344" y2="933.3344"/><text fill="#000000" font-family="sans-serif" font-size="10.4" font-weight="bold" lengthAdjust="spacing" textLength="14.4" x="404.4" y="929.5406">29</text><text fill="#000000" font-family="sans-serif" font-size="10.4" lengthAdjust="spacing" textLength="49.6" x="422" y="929.5406">tasksDTO</text><polygon fill="#181818" points="62,971.4313,54,974.6313,62,977.8313,58.8,974.6313" style="stroke:#181818;stroke-width:0.8000000000000002;"/><line style="stroke:#181818;stroke-width:0.8000000000000002;stroke-dasharray:2.0,2.0;" x1="57.2" x2="386" y1="974.6313" y2="974.6313"/><text fill="#000000" font-family="sans-serif" font-size="10.4" font-weight="bold" lengthAdjust="spacing" textLength="14.4" x="66.8" y="964.7133">30</text><text fill="#000000" font-family="sans-serif" font-size="10.4" lengthAdjust="spacing" textLength="188" x="84.4" y="958.5891">shows tasks assigned to collaborator</text><text fill="#000000" font-family="sans-serif" font-size="10.4" lengthAdjust="spacing" textLength="146.4" x="84.4" y="970.8375">between two dates requested</text><!--SRC=[jLPDR-903BtdLrXSbbOWhVQquj33qcfLgT9AVDnw6H838vAPx8n3b7-_dia72OGKqMvEoOpz_6m_6-n1gbGOaK2YbGxtHYS8P38CR7EJYl0WThYa8aOm699GkxXjOFSYqhbKEzYAs68Ga2GsNI-___W9KvXhPREOWFOCBUp1Wh1MxXH6G1e4X3gEnKORGTe4WSX8gopPe7iF-GX6yvR1Y9tX9KbZNI0679zaA5EX24QpAj3AnLY_Uilrwu0DlvDXR2nHvwl5MzVQiLrWggtaoCMxcgqw1zwhU-GvowCWF94CW9_w2wPFJ0fcu0l1-OU3rUdKnk4qy9oPFs0mXdJS7nyPDZJ8jwShlcj2pxXxVpEqP64hZIM8dAcpZF02zu8m5IbUEFRIkHBJ8kSQtHFqt7EW2EopGtf9X8pRiXa_T1rzh_sHmIte8vho2AhdDnAq_RyvqJ6cDq3cmcwblmywhVbYOzJAxXJidAUNuTWxJS0IQ- -P7IOkWdkvWxH7X3V9JTeKdHH0C6s72WiUOFme4w_5vzMVuMIwhVQnvRQZMiXvbBpIZnBpIk9R6HCQbZXpvBGfipShGYYRex5Gi2uONUb-HUYKAbEGthYfqYLjkzUvhNX0x4edV5qgtMg5Zdx9kKoW0UjXtClQOioBiyHg9TnBlKyeI-_Zsbef-OemJdryEjjCj-2SxxBQu0nfUg9c6xo-abp3wofj6AERMwSkOMkN_ohArCQrRkylqo3ifABxkUhrjURMUBV0QHEXgG3To8yVRkXbP-BlwkGGGhEftCxXwUmRqsgO1nlznGqUWljCG_zt1xwg0TUsuV1V4NXN6wGSKG7bslymstfXOjItorkVTQn_]--></g></svg>