<?xml version="1.0" encoding="us-ascii" standalone="no"?><svg xmlns="http://www.w3.org/2000/svg" xmlns:xlink="http://www.w3.org/1999/xlink" contentStyleType="text/css" height="1117px" preserveAspectRatio="none" style="width:501px;height:1117px;background:#FFFFFF;" version="1.1" viewBox="0 0 501 1117" width="501px" zoomAndPan="magnify"><defs/><g><text fill="#000000" font-family="sans-serif" font-size="14" font-weight="bold" lengthAdjust="spacing" textLength="389" x="49.25" y="23.5352">US028 - Consult the tasks assigned to a Collaborator</text><!--class ConsultTasksUI--><g id="elem_ConsultTasksUI"><rect codeLine="5" fill="#F1F1F1" height="48" id="ConsultTasksUI" rx="2.5" ry="2.5" style="stroke:#181818;stroke-width:0.5;" width="138" x="228" y="44.4883"/><ellipse cx="243" cy="60.4883" fill="#ADD1B2" rx="11" ry="11" style="stroke:#181818;stroke-width:1.0;"/><path d="M245.9731,66.1313 Q245.3921,66.4302 244.7529,66.5796 Q244.1138,66.729 243.4082,66.729 Q240.9014,66.729 239.5815,65.0771 Q238.2617,63.4253 238.2617,60.3042 Q238.2617,57.1748 239.5815,55.5229 Q240.9014,53.8711 243.4082,53.8711 Q244.1138,53.8711 244.7612,54.0205 Q245.4087,54.1699 245.9731,54.4688 L245.9731,57.1914 Q245.3423,56.6104 244.7488,56.3406 Q244.1553,56.0708 243.5244,56.0708 Q242.1797,56.0708 241.4949,57.1375 Q240.8101,58.2041 240.8101,60.3042 Q240.8101,62.396 241.4949,63.4626 Q242.1797,64.5293 243.5244,64.5293 Q244.1553,64.5293 244.7488,64.2595 Q245.3423,63.9897 245.9731,63.4087 Z " fill="#000000"/><text fill="#000000" font-family="sans-serif" font-size="14" lengthAdjust="spacing" textLength="106" x="257" y="65.7793">ConsultTasksUI</text><line style="stroke:#181818;stroke-width:0.5;" x1="229" x2="365" y1="76.4883" y2="76.4883"/><line style="stroke:#181818;stroke-width:0.5;" x1="229" x2="365" y1="84.4883" y2="84.4883"/></g><!--class ConsultTasksController--><g id="elem_ConsultTasksController"><rect codeLine="9" fill="#F1F1F1" height="130.4414" id="ConsultTasksController" rx="2.5" ry="2.5" style="stroke:#181818;stroke-width:0.5;" width="395" x="99.5" y="153.4883"/><ellipse cx="211.75" cy="169.4883" fill="#ADD1B2" rx="11" ry="11" style="stroke:#181818;stroke-width:1.0;"/><path d="M214.7231,175.1313 Q214.1421,175.4302 213.5029,175.5796 Q212.8638,175.729 212.1582,175.729 Q209.6514,175.729 208.3315,174.0771 Q207.0117,172.4253 207.0117,169.3042 Q207.0117,166.1748 208.3315,164.5229 Q209.6514,162.8711 212.1582,162.8711 Q212.8638,162.8711 213.5112,163.0205 Q214.1587,163.1699 214.7231,163.4688 L214.7231,166.1914 Q214.0923,165.6104 213.4988,165.3406 Q212.9053,165.0708 212.2744,165.0708 Q210.9297,165.0708 210.2449,166.1375 Q209.5601,167.2041 209.5601,169.3042 Q209.5601,171.396 210.2449,172.4626 Q210.9297,173.5293 212.2744,173.5293 Q212.9053,173.5293 213.4988,173.2595 Q214.0923,172.9897 214.7231,172.4087 Z " fill="#000000"/><text fill="#000000" font-family="sans-serif" font-size="14" lengthAdjust="spacing" textLength="162" x="232.25" y="174.7793">ConsultTasksController</text><line style="stroke:#181818;stroke-width:0.5;" x1="100.5" x2="493.5" y1="185.4883" y2="185.4883"/><line style="stroke:#181818;stroke-width:0.5;" x1="100.5" x2="493.5" y1="193.4883" y2="193.4883"/><text fill="#000000" font-family="sans-serif" font-size="14" lengthAdjust="spacing" textLength="281" x="105.5" y="211.0234">+consultTasksController(taskRepository)</text><text fill="#000000" font-family="sans-serif" font-size="14" lengthAdjust="spacing" textLength="167" x="105.5" y="227.5117">+getEmailCollaborator()</text><text fill="#000000" font-family="sans-serif" font-size="14" lengthAdjust="spacing" textLength="383" x="105.5" y="244">+List&lt;GSTaskDTO&gt; getTasks(email, startDate, endDate)</text><text fill="#000000" font-family="sans-serif" font-size="14" lengthAdjust="spacing" textLength="108" x="105.5" y="260.4883">+getStatusList()</text><text fill="#000000" font-family="sans-serif" font-size="14" lengthAdjust="spacing" textLength="232" x="105.5" y="276.9766">+consultTasksByStatus(tasksDTO)</text></g><!--class Repositories--><g id="elem_Repositories"><rect codeLine="17" fill="#F1F1F1" height="113.9531" id="Repositories" rx="2.5" ry="2.5" style="stroke:#181818;stroke-width:0.5;" width="209" x="113.5" y="360.9283"/><ellipse cx="171.25" cy="376.9283" fill="#ADD1B2" rx="11" ry="11" style="stroke:#181818;stroke-width:1.0;"/><path d="M174.2231,382.5713 Q173.6421,382.8702 173.0029,383.0196 Q172.3638,383.169 171.6582,383.169 Q169.1514,383.169 167.8315,381.5171 Q166.5117,379.8653 166.5117,376.7442 Q166.5117,373.6148 167.8315,371.9629 Q169.1514,370.3111 171.6582,370.3111 Q172.3638,370.3111 173.0112,370.4605 Q173.6587,370.6099 174.2231,370.9088 L174.2231,373.6314 Q173.5923,373.0504 172.9988,372.7806 Q172.4053,372.5108 171.7744,372.5108 Q170.4297,372.5108 169.7449,373.5775 Q169.0601,374.6441 169.0601,376.7442 Q169.0601,378.836 169.7449,379.9026 Q170.4297,380.9693 171.7744,380.9693 Q172.4053,380.9693 172.9988,380.6995 Q173.5923,380.4297 174.2231,379.8487 Z " fill="#000000"/><text fill="#000000" font-family="sans-serif" font-size="14" lengthAdjust="spacing" textLength="85" x="191.75" y="382.2193">Repositories</text><line style="stroke:#181818;stroke-width:0.5;" x1="114.5" x2="321.5" y1="392.9283" y2="392.9283"/><line style="stroke:#181818;stroke-width:0.5;" x1="114.5" x2="321.5" y1="400.9283" y2="400.9283"/><text fill="#000000" font-family="sans-serif" font-size="14" lengthAdjust="spacing" textLength="103" x="119.5" y="418.4634">-Repositories()</text><text fill="#000000" font-family="sans-serif" font-size="14" lengthAdjust="spacing" textLength="197" x="119.5" y="434.9517">+getInstance() : Repositories</text><text fill="#000000" font-family="sans-serif" font-size="14" lengthAdjust="spacing" textLength="197" x="119.5" y="451.44">+getGreenSpaceRepository()</text><text fill="#000000" font-family="sans-serif" font-size="14" lengthAdjust="spacing" textLength="148" x="119.5" y="467.9283">+getTaskRepository()</text></g><!--class Agenda--><g id="elem_Agenda"><rect codeLine="24" fill="#F1F1F1" height="130.4414" id="Agenda" rx="2.5" ry="2.5" style="stroke:#181818;stroke-width:0.5;" width="293" x="150.5" y="629.8783"/><ellipse cx="266.25" cy="645.8783" fill="#ADD1B2" rx="11" ry="11" style="stroke:#181818;stroke-width:1.0;"/><path d="M269.2231,651.5213 Q268.6421,651.8202 268.0029,651.9696 Q267.3638,652.119 266.6582,652.119 Q264.1514,652.119 262.8315,650.4671 Q261.5117,648.8153 261.5117,645.6942 Q261.5117,642.5648 262.8315,640.9129 Q264.1514,639.2611 266.6582,639.2611 Q267.3638,639.2611 268.0112,639.4105 Q268.6587,639.5599 269.2231,639.8588 L269.2231,642.5814 Q268.5923,642.0004 267.9988,641.7306 Q267.4053,641.4608 266.7744,641.4608 Q265.4297,641.4608 264.7449,642.5275 Q264.0601,643.5941 264.0601,645.6942 Q264.0601,647.786 264.7449,648.8526 Q265.4297,649.9193 266.7744,649.9193 Q267.4053,649.9193 267.9988,649.6495 Q268.5923,649.3797 269.2231,648.7987 Z " fill="#000000"/><text fill="#000000" font-family="sans-serif" font-size="14" lengthAdjust="spacing" textLength="53" x="286.75" y="651.1693">Agenda</text><line style="stroke:#181818;stroke-width:0.5;" x1="151.5" x2="442.5" y1="661.8783" y2="661.8783"/><line style="stroke:#181818;stroke-width:0.5;" x1="151.5" x2="442.5" y1="669.8783" y2="669.8783"/><text fill="#000000" font-family="sans-serif" font-size="14" lengthAdjust="spacing" textLength="221" x="156.5" y="687.4134">+getTasksByCollaborator(email)</text><text fill="#000000" font-family="sans-serif" font-size="14" lengthAdjust="spacing" textLength="108" x="156.5" y="703.9017">+getStatusList()</text><text fill="#000000" font-family="sans-serif" font-size="14" lengthAdjust="spacing" textLength="100" x="156.5" y="720.39">+toDTO(tasks)</text><text fill="#000000" font-family="sans-serif" font-size="14" lengthAdjust="spacing" textLength="281" x="156.5" y="736.8783">+consultTasksByStatus(tasksDTO, status)</text><text fill="#000000" font-family="sans-serif" font-size="14" lengthAdjust="spacing" textLength="175" x="156.5" y="753.3666">+consultTasks(tasksDTO)</text></g><!--class GSTaskMapper--><g id="elem_GSTaskMapper"><rect codeLine="32" fill="#F1F1F1" height="80.9766" id="GSTaskMapper" rx="2.5" ry="2.5" style="stroke:#181818;stroke-width:0.5;" width="340" x="7" y="821.3183"/><ellipse cx="121.75" cy="837.3183" fill="#ADD1B2" rx="11" ry="11" style="stroke:#181818;stroke-width:1.0;"/><path d="M124.7231,842.9613 Q124.1421,843.2602 123.5029,843.4096 Q122.8638,843.559 122.1582,843.559 Q119.6514,843.559 118.3315,841.9071 Q117.0117,840.2553 117.0117,837.1342 Q117.0117,834.0048 118.3315,832.3529 Q119.6514,830.7011 122.1582,830.7011 Q122.8638,830.7011 123.5112,830.8505 Q124.1587,830.9999 124.7231,831.2987 L124.7231,834.0214 Q124.0923,833.4404 123.4988,833.1706 Q122.9053,832.9008 122.2744,832.9008 Q120.9297,832.9008 120.2449,833.9675 Q119.5601,835.0341 119.5601,837.1342 Q119.5601,839.226 120.2449,840.2926 Q120.9297,841.3593 122.2744,841.3593 Q122.9053,841.3593 123.4988,841.0895 Q124.0923,840.8197 124.7231,840.2387 Z " fill="#000000"/><text fill="#000000" font-family="sans-serif" font-size="14" lengthAdjust="spacing" textLength="102" x="142.25" y="842.6093">GSTaskMapper</text><line style="stroke:#181818;stroke-width:0.5;" x1="8" x2="346" y1="853.3183" y2="853.3183"/><line style="stroke:#181818;stroke-width:0.5;" x1="8" x2="346" y1="861.3183" y2="861.3183"/><text fill="#000000" font-family="sans-serif" font-size="14" lengthAdjust="spacing" textLength="328" x="13" y="878.8534">+List&lt;TGSaskDTO&gt; toDTO(List&lt;GSTask&gt; tasks)</text><text fill="#000000" font-family="sans-serif" font-size="14" lengthAdjust="spacing" textLength="231" x="13" y="895.3417">+GSTaskDTO toDTO(GSTask task)</text></g><!--class GSTaskDTO--><g id="elem_GSTaskDTO"><rect codeLine="37" fill="#F1F1F1" height="146.9297" id="GSTaskDTO" rx="2.5" ry="2.5" style="stroke:#181818;stroke-width:0.5;" width="135" x="109.5" y="963.2983"/><ellipse cx="134.85" cy="979.2983" fill="#ADD1B2" rx="11" ry="11" style="stroke:#181818;stroke-width:1.0;"/><path d="M137.8231,984.9413 Q137.2421,985.2402 136.6029,985.3896 Q135.9638,985.539 135.2582,985.539 Q132.7514,985.539 131.4315,983.8871 Q130.1117,982.2353 130.1117,979.1142 Q130.1117,975.9848 131.4315,974.3329 Q132.7514,972.6811 135.2582,972.6811 Q135.9638,972.6811 136.6112,972.8305 Q137.2587,972.9799 137.8231,973.2788 L137.8231,976.0014 Q137.1923,975.4204 136.5988,975.1506 Q136.0053,974.8808 135.3744,974.8808 Q134.0297,974.8808 133.3449,975.9475 Q132.6601,977.0141 132.6601,979.1142 Q132.6601,981.206 133.3449,982.2726 Q134.0297,983.3393 135.3744,983.3393 Q136.0053,983.3393 136.5988,983.0695 Q137.1923,982.7997 137.8231,982.2187 Z " fill="#000000"/><text fill="#000000" font-family="sans-serif" font-size="14" lengthAdjust="spacing" textLength="80" x="151.15" y="984.5893">GSTaskDTO</text><line style="stroke:#181818;stroke-width:0.5;" x1="110.5" x2="243.5" y1="995.2983" y2="995.2983"/><text fill="#000000" font-family="sans-serif" font-size="14" lengthAdjust="spacing" textLength="26" x="115.5" y="1012.8334">title</text><text fill="#000000" font-family="sans-serif" font-size="14" lengthAdjust="spacing" textLength="77" x="115.5" y="1029.3217">description</text><text fill="#000000" font-family="sans-serif" font-size="14" lengthAdjust="spacing" textLength="120" x="115.5" y="1045.81">degreeOfUrgency</text><text fill="#000000" font-family="sans-serif" font-size="14" lengthAdjust="spacing" textLength="123" x="115.5" y="1062.2983">expectedDuration</text><text fill="#000000" font-family="sans-serif" font-size="14" lengthAdjust="spacing" textLength="41" x="115.5" y="1078.7866">status</text><text fill="#000000" font-family="sans-serif" font-size="14" lengthAdjust="spacing" textLength="84" x="115.5" y="1095.2748">startingDate</text><line style="stroke:#181818;stroke-width:0.5;" x1="110.5" x2="243.5" y1="1102.228" y2="1102.228"/></g><!--class GSTask--><g id="elem_GSTask"><rect codeLine="46" fill="#F1F1F1" height="146.9297" id="GSTask" rx="2.5" ry="2.5" style="stroke:#181818;stroke-width:0.5;" width="135" x="314.5" y="963.2983"/><ellipse cx="353.35" cy="979.2983" fill="#ADD1B2" rx="11" ry="11" style="stroke:#181818;stroke-width:1.0;"/><path d="M356.3231,984.9413 Q355.7421,985.2402 355.1029,985.3896 Q354.4638,985.539 353.7582,985.539 Q351.2514,985.539 349.9315,983.8871 Q348.6117,982.2353 348.6117,979.1142 Q348.6117,975.9848 349.9315,974.3329 Q351.2514,972.6811 353.7582,972.6811 Q354.4638,972.6811 355.1112,972.8305 Q355.7587,972.9799 356.3231,973.2788 L356.3231,976.0014 Q355.6923,975.4204 355.0988,975.1506 Q354.5053,974.8808 353.8744,974.8808 Q352.5297,974.8808 351.8449,975.9475 Q351.1601,977.0141 351.1601,979.1142 Q351.1601,981.206 351.8449,982.2726 Q352.5297,983.3393 353.8744,983.3393 Q354.5053,983.3393 355.0988,983.0695 Q355.6923,982.7997 356.3231,982.2187 Z " fill="#000000"/><text fill="#000000" font-family="sans-serif" font-size="14" lengthAdjust="spacing" textLength="50" x="372.65" y="984.5893">GSTask</text><line style="stroke:#181818;stroke-width:0.5;" x1="315.5" x2="448.5" y1="995.2983" y2="995.2983"/><text fill="#000000" font-family="sans-serif" font-size="14" lengthAdjust="spacing" textLength="26" x="320.5" y="1012.8334">title</text><text fill="#000000" font-family="sans-serif" font-size="14" lengthAdjust="spacing" textLength="77" x="320.5" y="1029.3217">description</text><text fill="#000000" font-family="sans-serif" font-size="14" lengthAdjust="spacing" textLength="120" x="320.5" y="1045.81">degreeOfUrgency</text><text fill="#000000" font-family="sans-serif" font-size="14" lengthAdjust="spacing" textLength="123" x="320.5" y="1062.2983">expectedDuration</text><text fill="#000000" font-family="sans-serif" font-size="14" lengthAdjust="spacing" textLength="41" x="320.5" y="1078.7866">status</text><text fill="#000000" font-family="sans-serif" font-size="14" lengthAdjust="spacing" textLength="84" x="320.5" y="1095.2748">startingDate</text><line style="stroke:#181818;stroke-width:0.5;" x1="315.5" x2="448.5" y1="1102.228" y2="1102.228"/></g><!--link ConsultTasksUI to ConsultTasksController--><g id="link_ConsultTasksUI_ConsultTasksController"><path codeLine="55" d="M297,92.9683 C297,109.2183 297,125.6783 297,147.0683 " fill="none" id="ConsultTasksUI-to-ConsultTasksController" style="stroke:#181818;stroke-width:1.0;stroke-dasharray:7.0,7.0;"/><polygon fill="#181818" points="297,153.0683,301,144.0683,297,148.0683,293,144.0683,297,153.0683" style="stroke:#181818;stroke-width:1.0;"/></g><!--link ConsultTasksController to Repositories--><g id="link_ConsultTasksController_Repositories"><path codeLine="56" d="M271.13,284.2783 C261.28,308.8783 252.362,331.1289 242.832,354.9089 " fill="none" id="ConsultTasksController-to-Repositories" style="stroke:#181818;stroke-width:1.0;stroke-dasharray:7.0,7.0;"/><polygon fill="#181818" points="240.6,360.4783,247.6609,353.6122,242.46,355.8371,240.235,350.6362,240.6,360.4783" style="stroke:#181818;stroke-width:1.0;"/><text fill="#000000" font-family="sans-serif" font-size="13" lengthAdjust="spacing" textLength="75" x="259" y="327.4966">repositories</text></g><!--link ConsultTasksController to Agenda--><g id="link_ConsultTasksController_Agenda"><path codeLine="57" d="M332.74,284.2883 C336.86,293.9883 340.48,304.0483 343,313.9283 C371.08,423.8183 378.04,458.0383 354,568.8783 C349.54,589.4183 343.9298,605.1884 335.1798,624.1884 " fill="none" id="ConsultTasksController-to-Agenda" style="stroke:#181818;stroke-width:1.0;stroke-dasharray:7.0,7.0;"/><polygon fill="#181818" points="332.67,629.6383,340.0679,623.1367,334.7615,625.0967,332.8015,619.7903,332.67,629.6383" style="stroke:#181818;stroke-width:1.0;"/><text fill="#000000" font-family="sans-serif" font-size="13" lengthAdjust="spacing" textLength="94" x="366" y="518.4466">taskRepository</text></g><!--link Repositories to Agenda--><g id="link_Repositories_Agenda"><path codeLine="58" d="M230.16,475.1483 C236.62,503.4383 245.06,538.1583 254,568.8783 C259.78,588.7483 264.8513,604.447 271.5413,623.817 " fill="none" id="Repositories-to-Agenda" style="stroke:#181818;stroke-width:1.0;"/><polygon fill="#181818" points="273.5,629.4883,274.3427,619.6755,271.8677,624.7622,266.781,622.2872,273.5,629.4883" style="stroke:#181818;stroke-width:1.0;"/><text fill="#000000" font-family="sans-serif" font-size="13" lengthAdjust="spacing" textLength="94" x="255" y="565.4466">taskRepository</text><text fill="#000000" font-family="sans-serif" font-size="13" lengthAdjust="spacing" textLength="8" x="262.4922" y="619.0771">1</text></g><!--link Agenda to GSTask--><g id="link_Agenda_GSTask"><path codeLine="59" d="M337.92,760.5483 C348.12,779.4583 357.88,800.6383 364,821.3183 C377.56,867.1783 381.902,914.7904 383.012,956.9404 " fill="none" id="Agenda-to-GSTask" style="stroke:#181818;stroke-width:1.0;"/><polygon fill="#181818" points="383.17,962.9383,386.9317,953.8361,383.0384,957.94,378.9345,954.0467,383.17,962.9383" style="stroke:#181818;stroke-width:1.0;"/><text fill="#000000" font-family="sans-serif" font-size="13" lengthAdjust="spacing" textLength="34" x="380" y="866.8766">tasks</text></g><!--link Agenda to GSTaskMapper--><g id="link_Agenda_GSTaskMapper"><path codeLine="61" d="M249.92,760.7283 C235.08,781.0983 222.6619,798.128 209.4819,816.228 " fill="none" id="Agenda-to-GSTaskMapper" style="stroke:#181818;stroke-width:1.0;stroke-dasharray:7.0,7.0;"/><polygon fill="#181818" points="205.95,821.0783,214.4814,816.1574,208.8932,817.0363,208.0143,811.4482,205.95,821.0783" style="stroke:#181818;stroke-width:1.0;"/></g><!--link GSTaskMapper to GSTaskDTO--><g id="link_GSTaskMapper_GSTaskDTO"><path codeLine="62" d="M177,902.4883 C177,920.4383 177,936.2383 177,956.9683 " fill="none" id="GSTaskMapper-to-GSTaskDTO" style="stroke:#181818;stroke-width:1.0;stroke-dasharray:7.0,7.0;"/><polygon fill="#181818" points="177,962.9683,181,953.9683,177,957.9683,173,953.9683,177,962.9683" style="stroke:#181818;stroke-width:1.0;"/></g><!--link GSTaskMapper to GSTask--><g id="link_GSTaskMapper_GSTask"><path codeLine="63" d="M224.29,902.7083 C251.01,925.2483 280.2841,949.9493 309.7741,974.8293 " fill="none" id="GSTaskMapper-to-GSTask" style="stroke:#181818;stroke-width:1.0;stroke-dasharray:7.0,7.0;"/><polygon fill="#181818" points="314.36,978.6983,310.0605,969.8375,310.5384,975.4741,304.9018,975.952,314.36,978.6983" style="stroke:#181818;stroke-width:1.0;"/></g><!--SRC=[lLFRRi8m37tFLrXxAXf5R4yJcf1WJ0Xf4z8A7v0LhuieQPKOQMpQlo-N5f9nqPxM9pS-FhQFRRqMikQARo0lkTOZ8YLUjuIpl9AP-4JeCqQ2IeHbrh-zWnGUAgct9G6z8n3NQmqcJXGILq0LSEClI_vQAKwLOionjZ4B2r_Eu8knxrCkOvCouQWC1Cnt3Vb9Ts8Jls1TQM6ox3eDk41wt71HXYKahVD9QBgVPfPfifWFBTYn9cX3kg29AvfmmYwWN5aZeCs8qrPRYZrVMDbuvm6kBcteEuS6zsKAr4rRQVIO17bcqfGXSqmwC8X01yXK8SgivZaU10Wf5f4qIL39g32DyRsqhG3ZNQINa-DowrIP5dslVrB3YMiUJe5FIUQdzCphEjW4Dx_5D6ldvui8fZg4gABzg1ka_tUOerGMvVEuNNVM2dMkH4sYair_OPIVlosLaJ7VkJVyg34dN4ssHhiMw7jjJKL25dQRVkVybuI_3g_N6vuvE7Rc3cr4jC43KE5QNWXhrcq0yR6oY2vDqo5StLmrw2DmGs9HNZQFqAprs4pXlh1eUGvUC-9phXy0]--></g></svg>