<?xml version="1.0" encoding="us-ascii" standalone="no"?><svg xmlns="http://www.w3.org/2000/svg" xmlns:xlink="http://www.w3.org/1999/xlink" contentStyleType="text/css" height="728px" preserveAspectRatio="none" style="width:1116px;height:728px;background:#FFFFFF;" version="1.1" viewBox="0 0 1116 728" width="1116.8px" zoomAndPan="magnify"><defs/><g><rect fill="#FFFFFF" height="611.9188" style="stroke:#181818;stroke-width:0.8000000000000002;" width="8" x="238.4" y="67.4297"/><rect fill="#FFFFFF" height="239.3203" style="stroke:#181818;stroke-width:0.8000000000000002;" width="8" x="548.4" y="110.3266"/><rect fill="#FFFFFF" height="270.0047" style="stroke:#181818;stroke-width:0.8000000000000002;" width="8" x="646.4" y="373.0953"/><rect fill="#FFFFFF" height="27.4484" style="stroke:#181818;stroke-width:0.8000000000000002;" width="8" x="650.4" y="516.2219"/><rect fill="#FFFFFF" height="23.4484" style="stroke:#181818;stroke-width:0.8000000000000002;" width="8" x="808" y="219.0531"/><rect fill="#FFFFFF" height="24" style="stroke:#181818;stroke-width:0.8000000000000002;" width="8" x="874" y="285.3984"/><rect fill="#FFFFFF" height="24" style="stroke:#181818;stroke-width:0.8000000000000002;" width="8" x="874" y="462.3734"/><rect fill="#FFFFFF" height="24" style="stroke:#181818;stroke-width:0.8000000000000002;" width="8" x="970" y="590.0516"/><rect fill="none" height="570.0703" style="stroke:#000000;stroke-width:1.2000000000000002;" width="949.6" x="162.4" y="79.4297"/><rect fill="none" height="158.2906" style="stroke:#000000;stroke-width:1.2000000000000002;" width="460.8" x="479.2" y="168.7078"/><rect fill="none" height="133.2422" style="stroke:#000000;stroke-width:1.2000000000000002;" width="444.8" x="487.2" y="188.1563"/><rect fill="none" height="61.2969" style="stroke:#000000;stroke-width:1.2000000000000002;" width="428.8" x="495.2" y="254.5016"/><rect fill="none" height="188.975" style="stroke:#000000;stroke-width:1.2000000000000002;" width="502.4" x="601.6" y="431.4766"/><line style="stroke:#181818;stroke-width:0.4000000000000001;stroke-dasharray:5.0,5.0;" x1="242.4" x2="242.4" y1="42.3813" y2="686.5484"/><line style="stroke:#181818;stroke-width:0.4000000000000001;stroke-dasharray:5.0,5.0;" x1="363.2" x2="363.2" y1="42.3813" y2="686.5484"/><line style="stroke:#181818;stroke-width:0.4000000000000001;stroke-dasharray:5.0,5.0;" x1="453.6" x2="453.6" y1="42.3813" y2="686.5484"/><line style="stroke:#181818;stroke-width:0.4000000000000001;stroke-dasharray:5.0,5.0;" x1="552" x2="552" y1="42.3813" y2="686.5484"/><line style="stroke:#181818;stroke-width:0.4000000000000001;stroke-dasharray:5.0,5.0;" x1="650.4" x2="650.4" y1="42.3813" y2="686.5484"/><line style="stroke:#181818;stroke-width:0.4000000000000001;stroke-dasharray:5.0,5.0;" x1="812" x2="812" y1="42.3813" y2="686.5484"/><line style="stroke:#181818;stroke-width:0.4000000000000001;stroke-dasharray:5.0,5.0;" x1="877.6" x2="877.6" y1="147.9172" y2="686.5484"/><line style="stroke:#181818;stroke-width:0.4000000000000001;stroke-dasharray:5.0,5.0;" x1="973.6" x2="973.6" y1="410.6859" y2="686.5484"/><line style="stroke:#181818;stroke-width:0.4000000000000001;stroke-dasharray:5.0,5.0;" x1="1064" x2="1064" y1="557.8125" y2="686.5484"/><rect fill="#E3E3E3" height="24.3906" rx="2" ry="2" style="stroke:#181818;stroke-width:0.4000000000000001;" width="144" x="170.4" y="17.1906"/><text fill="#000000" font-family="sans-serif" font-size="11.2" lengthAdjust="spacing" textLength="132.8" x="176" y="33.6188">:ConsultTasksController</text><rect fill="#E3E3E3" height="24.3906" rx="2" ry="2" style="stroke:#181818;stroke-width:0.4000000000000001;" width="144" x="170.4" y="685.7484"/><text fill="#000000" font-family="sans-serif" font-size="11.2" lengthAdjust="spacing" textLength="132.8" x="176" y="702.1766">:ConsultTasksController</text><rect fill="#E3E3E3" height="24.3906" rx="2" ry="2" style="stroke:#181818;stroke-width:0.4000000000000001;" width="82.4" x="322.4" y="17.1906"/><text fill="#000000" font-family="sans-serif" font-size="11.2" lengthAdjust="spacing" textLength="71.2" x="328" y="33.6188">:Repositories</text><rect fill="#E3E3E3" height="24.3906" rx="2" ry="2" style="stroke:#181818;stroke-width:0.4000000000000001;" width="82.4" x="322.4" y="685.7484"/><text fill="#000000" font-family="sans-serif" font-size="11.2" lengthAdjust="spacing" textLength="71.2" x="328" y="702.1766">:Repositories</text><rect fill="#E3E3E3" height="37.5813" rx="2" ry="2" style="stroke:#181818;stroke-width:0.4000000000000001;" width="82.4" x="412.8" y="4"/><text fill="#000000" font-family="sans-serif" font-size="11.2" lengthAdjust="spacing" textLength="65.6" x="421.2" y="20.4281">repositories</text><text fill="#000000" font-family="sans-serif" font-size="11.2" lengthAdjust="spacing" textLength="71.2" x="418.4" y="33.6188">:Repositories</text><rect fill="#E3E3E3" height="37.5813" rx="2" ry="2" style="stroke:#181818;stroke-width:0.4000000000000001;" width="82.4" x="412.8" y="685.7484"/><text fill="#000000" font-family="sans-serif" font-size="11.2" lengthAdjust="spacing" textLength="65.6" x="421.2" y="702.1766">repositories</text><text fill="#000000" font-family="sans-serif" font-size="11.2" lengthAdjust="spacing" textLength="71.2" x="418.4" y="715.3672">:Repositories</text><rect fill="#E3E3E3" height="37.5813" rx="2" ry="2" style="stroke:#181818;stroke-width:0.4000000000000001;" width="98.4" x="503.2" y="4"/><text fill="#000000" font-family="sans-serif" font-size="11.2" lengthAdjust="spacing" textLength="80.8" x="512" y="20.4281">taskRepository</text><text fill="#000000" font-family="sans-serif" font-size="11.2" lengthAdjust="spacing" textLength="87.2" x="508.8" y="33.6188">:TaskRepository</text><rect fill="#E3E3E3" height="37.5813" rx="2" ry="2" style="stroke:#181818;stroke-width:0.4000000000000001;" width="98.4" x="503.2" y="685.7484"/><text fill="#000000" font-family="sans-serif" font-size="11.2" lengthAdjust="spacing" textLength="80.8" x="512" y="702.1766">taskRepository</text><text fill="#000000" font-family="sans-serif" font-size="11.2" lengthAdjust="spacing" textLength="87.2" x="508.8" y="715.3672">:TaskRepository</text><rect fill="#E3E3E3" height="37.5813" rx="2" ry="2" style="stroke:#181818;stroke-width:0.4000000000000001;" width="81.6" x="609.6" y="4"/><text fill="#000000" font-family="sans-serif" font-size="11.2" lengthAdjust="spacing" textLength="64" x="618.4" y="20.4281">taskMapper</text><text fill="#000000" font-family="sans-serif" font-size="11.2" lengthAdjust="spacing" textLength="70.4" x="615.2" y="33.6188">:TaskMapper</text><rect fill="#E3E3E3" height="37.5813" rx="2" ry="2" style="stroke:#181818;stroke-width:0.4000000000000001;" width="81.6" x="609.6" y="685.7484"/><text fill="#000000" font-family="sans-serif" font-size="11.2" lengthAdjust="spacing" textLength="64" x="618.4" y="702.1766">taskMapper</text><text fill="#000000" font-family="sans-serif" font-size="11.2" lengthAdjust="spacing" textLength="70.4" x="615.2" y="715.3672">:TaskMapper</text><rect fill="#E3E3E3" height="37.5813" rx="2" ry="2" style="stroke:#181818;stroke-width:0.4000000000000001;" width="40" x="792" y="4"/><text fill="#000000" font-family="sans-serif" font-size="11.2" lengthAdjust="spacing" textLength="22.4" x="800.8" y="20.4281">task</text><text fill="#000000" font-family="sans-serif" font-size="11.2" lengthAdjust="spacing" textLength="28.8" x="797.6" y="33.6188">:Task</text><rect fill="#E3E3E3" height="37.5813" rx="2" ry="2" style="stroke:#181818;stroke-width:0.4000000000000001;" width="40" x="792" y="685.7484"/><text fill="#000000" font-family="sans-serif" font-size="11.2" lengthAdjust="spacing" textLength="22.4" x="800.8" y="702.1766">task</text><text fill="#000000" font-family="sans-serif" font-size="11.2" lengthAdjust="spacing" textLength="28.8" x="797.6" y="715.3672">:Task</text><rect fill="#E3E3E3" height="37.5813" rx="2" ry="2" style="stroke:#181818;stroke-width:0.4000000000000001;" width="76" x="840" y="685.7484"/><text fill="#000000" font-family="sans-serif" font-size="11.2" lengthAdjust="spacing" textLength="46.4" x="854.8" y="702.1766">tasksList</text><text fill="#000000" font-family="sans-serif" font-size="11.2" lengthAdjust="spacing" textLength="64.8" x="845.6" y="715.3672">:List&lt;Task&gt;</text><rect fill="#E3E3E3" height="37.5813" rx="2" ry="2" style="stroke:#181818;stroke-width:0.4000000000000001;" width="100" x="924" y="685.7484"/><text fill="#000000" font-family="sans-serif" font-size="11.2" lengthAdjust="spacing" textLength="46.4" x="950.8" y="702.1766">tasksList</text><text fill="#000000" font-family="sans-serif" font-size="11.2" lengthAdjust="spacing" textLength="88.8" x="929.6" y="715.3672">:List&lt;TaskDTO&gt;</text><rect fill="#E3E3E3" height="37.5813" rx="2" ry="2" style="stroke:#181818;stroke-width:0.4000000000000001;" width="64" x="1032" y="685.7484"/><text fill="#000000" font-family="sans-serif" font-size="11.2" lengthAdjust="spacing" textLength="46.4" x="1040.8" y="702.1766">taskDTO</text><text fill="#000000" font-family="sans-serif" font-size="11.2" lengthAdjust="spacing" textLength="52.8" x="1037.6" y="715.3672">:TaskDTO</text><rect fill="#FFFFFF" height="611.9188" style="stroke:#181818;stroke-width:0.8000000000000002;" width="8" x="238.4" y="67.4297"/><rect fill="#FFFFFF" height="239.3203" style="stroke:#181818;stroke-width:0.8000000000000002;" width="8" x="548.4" y="110.3266"/><rect fill="#FFFFFF" height="270.0047" style="stroke:#181818;stroke-width:0.8000000000000002;" width="8" x="646.4" y="373.0953"/><rect fill="#FFFFFF" height="27.4484" style="stroke:#181818;stroke-width:0.8000000000000002;" width="8" x="650.4" y="516.2219"/><rect fill="#FFFFFF" height="23.4484" style="stroke:#181818;stroke-width:0.8000000000000002;" width="8" x="808" y="219.0531"/><rect fill="#FFFFFF" height="24" style="stroke:#181818;stroke-width:0.8000000000000002;" width="8" x="874" y="285.3984"/><rect fill="#FFFFFF" height="24" style="stroke:#181818;stroke-width:0.8000000000000002;" width="8" x="874" y="462.3734"/><rect fill="#FFFFFF" height="24" style="stroke:#181818;stroke-width:0.8000000000000002;" width="8" x="970" y="590.0516"/><polygon fill="#181818" points="228.8,64.2297,236.8,67.4297,228.8,70.6297,232,67.4297" style="stroke:#181818;stroke-width:0.8000000000000002;"/><line style="stroke:#181818;stroke-width:0.8000000000000002;" x1="0" x2="233.6" y1="67.4297" y2="67.4297"/><text fill="#000000" font-family="sans-serif" font-size="10.4" font-weight="bold" lengthAdjust="spacing" textLength="14.4" x="5.6" y="63.6359">34</text><text fill="#000000" font-family="sans-serif" font-size="10.4" lengthAdjust="spacing" textLength="205.6" x="23.2" y="63.6359">getTasks(teamsDTO, startDate, endDate)</text><path d="M162.4,79.4297 L332.8,79.4297 L332.8,85.2781 L324.8,93.2781 L162.4,93.2781 L162.4,79.4297 " fill="#EEEEEE" style="stroke:#000000;stroke-width:1.2000000000000002;"/><rect fill="none" height="570.0703" style="stroke:#000000;stroke-width:1.2000000000000002;" width="949.6" x="162.4" y="79.4297"/><text fill="#000000" font-family="sans-serif" font-size="10.4" font-weight="bold" lengthAdjust="spacing" textLength="134.4" x="174.4" y="90.2844">Get Tasks By Date Range</text><polygon fill="#181818" points="538.8,107.1266,546.8,110.3266,538.8,113.5266,542,110.3266" style="stroke:#181818;stroke-width:0.8000000000000002;"/><line style="stroke:#181818;stroke-width:0.8000000000000002;" x1="246.4" x2="543.6" y1="110.3266" y2="110.3266"/><text fill="#000000" font-family="sans-serif" font-size="10.4" font-weight="bold" lengthAdjust="spacing" textLength="24" x="252" y="106.5328">34.1</text><text fill="#000000" font-family="sans-serif" font-size="10.4" lengthAdjust="spacing" textLength="205.6" x="279.2" y="106.5328">getTasks(teamsDTO, startDate, endDate)</text><polygon fill="#181818" points="830.4,130.575,838.4,133.775,830.4,136.975,833.6,133.775" style="stroke:#181818;stroke-width:0.8000000000000002;"/><line style="stroke:#181818;stroke-width:0.8000000000000002;" x1="556.4" x2="835.2" y1="133.775" y2="133.775"/><text fill="#000000" font-family="sans-serif" font-size="10.4" font-weight="bold" lengthAdjust="spacing" textLength="24" x="562" y="129.9813">34.2</text><text fill="#000000" font-family="sans-serif" font-size="10.4" lengthAdjust="spacing" textLength="36.8" x="589.2" y="129.9813">create()</text><rect fill="#E3E3E3" height="37.5813" rx="2" ry="2" style="stroke:#181818;stroke-width:0.4000000000000001;" width="76" x="840" y="116.7266"/><text fill="#000000" font-family="sans-serif" font-size="11.2" lengthAdjust="spacing" textLength="46.4" x="854.8" y="133.1547">tasksList</text><text fill="#000000" font-family="sans-serif" font-size="11.2" lengthAdjust="spacing" textLength="64.8" x="845.6" y="146.3453">:List&lt;Task&gt;</text><path d="M479.2,168.7078 L538.4,168.7078 L538.4,174.5563 L530.4,182.5563 L479.2,182.5563 L479.2,168.7078 " fill="#EEEEEE" style="stroke:#000000;stroke-width:1.2000000000000002;"/><rect fill="none" height="158.2906" style="stroke:#000000;stroke-width:1.2000000000000002;" width="460.8" x="479.2" y="168.7078"/><text fill="#000000" font-family="sans-serif" font-size="10.4" font-weight="bold" lengthAdjust="spacing" textLength="23.2" x="491.2" y="179.5625">loop</text><text fill="#000000" font-family="sans-serif" font-size="8.8" font-weight="bold" lengthAdjust="spacing" textLength="64.8" x="550.4" y="178.8156">[for each task]</text><path d="M487.2,188.1563 L540.8,188.1563 L540.8,194.0047 L532.8,202.0047 L487.2,202.0047 L487.2,188.1563 " fill="#EEEEEE" style="stroke:#000000;stroke-width:1.2000000000000002;"/><rect fill="none" height="133.2422" style="stroke:#000000;stroke-width:1.2000000000000002;" width="444.8" x="487.2" y="188.1563"/><text fill="#000000" font-family="sans-serif" font-size="10.4" font-weight="bold" lengthAdjust="spacing" textLength="17.6" x="499.2" y="199.0109">opt</text><text fill="#000000" font-family="sans-serif" font-size="8.8" font-weight="bold" lengthAdjust="spacing" textLength="161.6" x="552.8" y="198.2641">[assignedTeam exists in teamsDTO]</text><polygon fill="#181818" points="798.4,215.8531,806.4,219.0531,798.4,222.2531,801.6,219.0531" style="stroke:#181818;stroke-width:0.8000000000000002;"/><line style="stroke:#181818;stroke-width:0.8000000000000002;" x1="556.4" x2="803.2" y1="219.0531" y2="219.0531"/><text fill="#000000" font-family="sans-serif" font-size="10.4" font-weight="bold" lengthAdjust="spacing" textLength="24" x="562" y="215.2594">34.3</text><text fill="#000000" font-family="sans-serif" font-size="10.4" lengthAdjust="spacing" textLength="171.2" x="589.2" y="215.2594">betweenDates(startDate, endDate)</text><polygon fill="#181818" points="565.2,239.3016,557.2,242.5016,565.2,245.7016,562,242.5016" style="stroke:#181818;stroke-width:0.8000000000000002;"/><line style="stroke:#181818;stroke-width:0.8000000000000002;stroke-dasharray:2.0,2.0;" x1="560.4" x2="811.2" y1="242.5016" y2="242.5016"/><text fill="#000000" font-family="sans-serif" font-size="10.4" font-weight="bold" lengthAdjust="spacing" textLength="24" x="570" y="238.7078">34.4</text><text fill="#000000" font-family="sans-serif" font-size="10.4" lengthAdjust="spacing" textLength="49.6" x="597.2" y="238.7078">true/false</text><path d="M495.2,254.5016 L548.8,254.5016 L548.8,260.35 L540.8,268.35 L495.2,268.35 L495.2,254.5016 " fill="#EEEEEE" style="stroke:#000000;stroke-width:1.2000000000000002;"/><rect fill="none" height="61.2969" style="stroke:#000000;stroke-width:1.2000000000000002;" width="428.8" x="495.2" y="254.5016"/><text fill="#000000" font-family="sans-serif" font-size="10.4" font-weight="bold" lengthAdjust="spacing" textLength="17.6" x="507.2" y="265.3563">opt</text><text fill="#000000" font-family="sans-serif" font-size="8.8" font-weight="bold" lengthAdjust="spacing" textLength="105.6" x="560.8" y="264.6094">[betweenDates == true]</text><polygon fill="#181818" points="864.4,282.1984,872.4,285.3984,864.4,288.5984,867.6,285.3984" style="stroke:#181818;stroke-width:0.8000000000000002;"/><line style="stroke:#181818;stroke-width:0.8000000000000002;" x1="556.4" x2="869.2" y1="285.3984" y2="285.3984"/><text fill="#000000" font-family="sans-serif" font-size="10.4" font-weight="bold" lengthAdjust="spacing" textLength="24" x="562" y="281.6047">34.5</text><text fill="#000000" font-family="sans-serif" font-size="10.4" lengthAdjust="spacing" textLength="46.4" x="589.2" y="281.6047">add(task)</text><polygon fill="#181818" points="255.2,346.4469,247.2,349.6469,255.2,352.8469,252,349.6469" style="stroke:#181818;stroke-width:0.8000000000000002;"/><line style="stroke:#181818;stroke-width:0.8000000000000002;stroke-dasharray:2.0,2.0;" x1="250.4" x2="551.6" y1="349.6469" y2="349.6469"/><text fill="#000000" font-family="sans-serif" font-size="10.4" font-weight="bold" lengthAdjust="spacing" textLength="24" x="260" y="345.8531">34.6</text><text fill="#000000" font-family="sans-serif" font-size="10.4" lengthAdjust="spacing" textLength="27.2" x="287.2" y="345.8531">tasks</text><polygon fill="#181818" points="636.8,369.8953,644.8,373.0953,636.8,376.2953,640,373.0953" style="stroke:#181818;stroke-width:0.8000000000000002;"/><line style="stroke:#181818;stroke-width:0.8000000000000002;" x1="246.4" x2="641.6" y1="373.0953" y2="373.0953"/><text fill="#000000" font-family="sans-serif" font-size="10.4" font-weight="bold" lengthAdjust="spacing" textLength="24" x="252" y="369.3016">34.7</text><text fill="#000000" font-family="sans-serif" font-size="10.4" lengthAdjust="spacing" textLength="66.4" x="279.2" y="369.3016">toDTO(tasks)</text><polygon fill="#181818" points="914.4,393.3438,922.4,396.5438,914.4,399.7438,917.6,396.5438" style="stroke:#181818;stroke-width:0.8000000000000002;"/><line style="stroke:#181818;stroke-width:0.8000000000000002;" x1="654.4" x2="919.2" y1="396.5438" y2="396.5438"/><text fill="#000000" font-family="sans-serif" font-size="10.4" font-weight="bold" lengthAdjust="spacing" textLength="24" x="660" y="392.75">34.8</text><text fill="#000000" font-family="sans-serif" font-size="10.4" lengthAdjust="spacing" textLength="36.8" x="687.2" y="392.75">create()</text><rect fill="#E3E3E3" height="37.5813" rx="2" ry="2" style="stroke:#181818;stroke-width:0.4000000000000001;" width="100" x="924" y="379.4953"/><text fill="#000000" font-family="sans-serif" font-size="11.2" lengthAdjust="spacing" textLength="46.4" x="950.8" y="395.9234">tasksList</text><text fill="#000000" font-family="sans-serif" font-size="11.2" lengthAdjust="spacing" textLength="88.8" x="929.6" y="409.1141">:List&lt;TaskDTO&gt;</text><path d="M601.6,431.4766 L660.8,431.4766 L660.8,437.325 L652.8,445.325 L601.6,445.325 L601.6,431.4766 " fill="#EEEEEE" style="stroke:#000000;stroke-width:1.2000000000000002;"/><rect fill="none" height="188.975" style="stroke:#000000;stroke-width:1.2000000000000002;" width="502.4" x="601.6" y="431.4766"/><text fill="#000000" font-family="sans-serif" font-size="10.4" font-weight="bold" lengthAdjust="spacing" textLength="23.2" x="613.6" y="442.3313">loop</text><text fill="#000000" font-family="sans-serif" font-size="8.8" font-weight="bold" lengthAdjust="spacing" textLength="117.6" x="672.8" y="441.5844">[for each task in TaskList]</text><polygon fill="#181818" points="864.4,459.1734,872.4,462.3734,864.4,465.5734,867.6,462.3734" style="stroke:#181818;stroke-width:0.8000000000000002;"/><line style="stroke:#181818;stroke-width:0.8000000000000002;" x1="654.4" x2="869.2" y1="462.3734" y2="462.3734"/><text fill="#000000" font-family="sans-serif" font-size="10.4" font-weight="bold" lengthAdjust="spacing" textLength="24" x="660" y="458.5797">34.9</text><text fill="#000000" font-family="sans-serif" font-size="10.4" lengthAdjust="spacing" textLength="56" x="687.2" y="458.5797">obj = get(i)</text><line style="stroke:#181818;stroke-width:0.8000000000000002;" x1="654.4" x2="692" y1="505.8219" y2="505.8219"/><line style="stroke:#181818;stroke-width:0.8000000000000002;" x1="692" x2="692" y1="505.8219" y2="516.2219"/><line style="stroke:#181818;stroke-width:0.8000000000000002;" x1="659.2" x2="692" y1="516.2219" y2="516.2219"/><polygon fill="#181818" points="667.2,513.0219,659.2,516.2219,667.2,519.4219,664,516.2219" style="stroke:#181818;stroke-width:0.8000000000000002;"/><text fill="#000000" font-family="sans-serif" font-size="10.4" font-weight="bold" lengthAdjust="spacing" textLength="31.2" x="664" y="502.0281">34.10</text><text fill="#000000" font-family="sans-serif" font-size="10.4" lengthAdjust="spacing" textLength="108" x="698.4" y="502.0281">objDTO = toDTO(obj)</text><polygon fill="#181818" points="1022.4,540.4703,1030.4,543.6703,1022.4,546.8703,1025.6,543.6703" style="stroke:#181818;stroke-width:0.8000000000000002;"/><line style="stroke:#181818;stroke-width:0.8000000000000002;" x1="654.4" x2="1027.2" y1="543.6703" y2="543.6703"/><text fill="#000000" font-family="sans-serif" font-size="10.4" font-weight="bold" lengthAdjust="spacing" textLength="31.2" x="660" y="539.8766">34.11</text><text fill="#000000" font-family="sans-serif" font-size="10.4" lengthAdjust="spacing" textLength="46.4" x="694.4" y="539.8766">create(...)</text><rect fill="#E3E3E3" height="37.5813" rx="2" ry="2" style="stroke:#181818;stroke-width:0.4000000000000001;" width="64" x="1032" y="526.6219"/><text fill="#000000" font-family="sans-serif" font-size="11.2" lengthAdjust="spacing" textLength="46.4" x="1040.8" y="543.05">taskDTO</text><text fill="#000000" font-family="sans-serif" font-size="11.2" lengthAdjust="spacing" textLength="52.8" x="1037.6" y="556.2406">:TaskDTO</text><polygon fill="#181818" points="960.4,586.8516,968.4,590.0516,960.4,593.2516,963.6,590.0516" style="stroke:#181818;stroke-width:0.8000000000000002;"/><line style="stroke:#181818;stroke-width:0.8000000000000002;" x1="654.4" x2="965.2" y1="590.0516" y2="590.0516"/><text fill="#000000" font-family="sans-serif" font-size="10.4" font-weight="bold" lengthAdjust="spacing" textLength="31.2" x="660" y="586.2578">34.12</text><text fill="#000000" font-family="sans-serif" font-size="10.4" lengthAdjust="spacing" textLength="63.2" x="694.4" y="586.2578">add(objDTO)</text><polygon fill="#181818" points="255.2,639.9,247.2,643.1,255.2,646.3,252,643.1" style="stroke:#181818;stroke-width:0.8000000000000002;"/><line style="stroke:#181818;stroke-width:0.8000000000000002;stroke-dasharray:2.0,2.0;" x1="250.4" x2="649.6" y1="643.1" y2="643.1"/><text fill="#000000" font-family="sans-serif" font-size="10.4" font-weight="bold" lengthAdjust="spacing" textLength="31.2" x="260" y="639.3063">34.13</text><text fill="#000000" font-family="sans-serif" font-size="10.4" lengthAdjust="spacing" textLength="49.6" x="294.4" y="639.3063">tasksDTO</text><polygon fill="#181818" points="8.8,668.9484,0.8,672.1484,8.8,675.3484,5.6,672.1484" style="stroke:#181818;stroke-width:0.8000000000000002;"/><line style="stroke:#181818;stroke-width:0.8000000000000002;stroke-dasharray:2.0,2.0;" x1="4" x2="237.6" y1="672.1484" y2="672.1484"/><text fill="#000000" font-family="sans-serif" font-size="10.4" font-weight="bold" lengthAdjust="spacing" textLength="14.4" x="13.6" y="668.3547">48</text><text fill="#000000" font-family="sans-serif" font-size="10.4" lengthAdjust="spacing" textLength="49.6" x="31.2" y="668.3547">tasksDTO</text><!--SRC=[dLHDRzim3BtxLn0zEKMJOLWFGz0Ks5fWbmmRKXztKMpMqM9BXYIloxyV9Rck_A4qc2wsQRx7foUA-iX5mnIhePP2vWSbQmIZManq_wTX-P6L-6HE5OB2t31HLc62Fh12ld1HmZEhD2O9XGtFUSE4WQlrWnIwhKp6z57Jkr6ogb1T0TFmaEsse-mTDb9p8nL7xNBwmEc9sy96YY541OXVOahmS_ib6o8CINcZ9Kms23ZKC3J5VsTDWwh3-eyUvp-dc2wxpvjcw2tNXjBiuywctFV9xjS5YCVinmX4aIcEWfqSUklpRMh2MlAuhVUeuDDjihntnmHhAD4VOcgGrPfIRq0Rudra1cy0HM5V5YFywYC5SiF_q3z_ta2hLB9ju1iQhnA-di22OKUzXIwZMwuqIHWUn-LY0gfUnUXemvnHcQwmSn6khwbihf0eqW5n9MK3pr81ilm0rjpmhrsoCUImvgN08YEzW7-9KGCNy2f_38ch8HLxD2-8mcvHf-ziUtRxIQmSBEVCjXFXWx_SCxW2t-Us3eIgORFnSmRcrxc3M0ChYjJwl8Z11uBypObaZiH7SybQkud9vkRYDcQRucnhlTqhTusJkAQPNWslXPysbaTI7pbVT6_CWAYRIqcWg0E7_XB9VAzF-zmsiCM5faLOYK_kVyF6NjoKp-iRc3zxCF4YlGjKnUvWqzb1d_zfnjY7rMgrY8Yxt5ZVkrxZ6HE2WJ3dWnlJiMOBgu-QB4xxkWFBvePpECLlFoTto-M4wHy0]--></g></svg>