<?xml version="1.0" encoding="us-ascii" standalone="no"?><svg xmlns="http://www.w3.org/2000/svg" xmlns:xlink="http://www.w3.org/1999/xlink" contentStyleType="text/css" height="1117px" preserveAspectRatio="none" style="width:465px;height:1117px;background:#FFFFFF;" version="1.1" viewBox="0 0 465 1117" width="465px" zoomAndPan="magnify"><defs/><g><text fill="#000000" font-family="sans-serif" font-size="14" font-weight="bold" lengthAdjust="spacing" textLength="389" x="31.25" y="23.5352">US028 - Consult the tasks assigned to a Collaborator</text><!--class ConsultTasksUI--><g id="elem_ConsultTasksUI"><rect codeLine="5" fill="#F1F1F1" height="48" id="ConsultTasksUI" rx="2.5" ry="2.5" style="stroke:#181818;stroke-width:0.5;" width="138" x="201" y="44.4883"/><ellipse cx="216" cy="60.4883" fill="#ADD1B2" rx="11" ry="11" style="stroke:#181818;stroke-width:1.0;"/><path d="M218.9731,66.1313 Q218.3921,66.4302 217.7529,66.5796 Q217.1138,66.729 216.4082,66.729 Q213.9014,66.729 212.5815,65.0771 Q211.2617,63.4253 211.2617,60.3042 Q211.2617,57.1748 212.5815,55.5229 Q213.9014,53.8711 216.4082,53.8711 Q217.1138,53.8711 217.7612,54.0205 Q218.4087,54.1699 218.9731,54.4688 L218.9731,57.1914 Q218.3423,56.6104 217.7488,56.3406 Q217.1553,56.0708 216.5244,56.0708 Q215.1797,56.0708 214.4949,57.1375 Q213.8101,58.2041 213.8101,60.3042 Q213.8101,62.396 214.4949,63.4626 Q215.1797,64.5293 216.5244,64.5293 Q217.1553,64.5293 217.7488,64.2595 Q218.3423,63.9897 218.9731,63.4087 Z " fill="#000000"/><text fill="#000000" font-family="sans-serif" font-size="14" lengthAdjust="spacing" textLength="106" x="230" y="65.7793">ConsultTasksUI</text><line style="stroke:#181818;stroke-width:0.5;" x1="202" x2="338" y1="76.4883" y2="76.4883"/><line style="stroke:#181818;stroke-width:0.5;" x1="202" x2="338" y1="84.4883" y2="84.4883"/></g><!--class ConsultTasksController--><g id="elem_ConsultTasksController"><rect codeLine="9" fill="#F1F1F1" height="130.4414" id="ConsultTasksController" rx="2.5" ry="2.5" style="stroke:#181818;stroke-width:0.5;" width="377" x="81.5" y="153.4883"/><ellipse cx="184.75" cy="169.4883" fill="#ADD1B2" rx="11" ry="11" style="stroke:#181818;stroke-width:1.0;"/><path d="M187.7231,175.1313 Q187.1421,175.4302 186.5029,175.5796 Q185.8638,175.729 185.1582,175.729 Q182.6514,175.729 181.3315,174.0771 Q180.0117,172.4253 180.0117,169.3042 Q180.0117,166.1748 181.3315,164.5229 Q182.6514,162.8711 185.1582,162.8711 Q185.8638,162.8711 186.5112,163.0205 Q187.1587,163.1699 187.7231,163.4688 L187.7231,166.1914 Q187.0923,165.6104 186.4988,165.3406 Q185.9053,165.0708 185.2744,165.0708 Q183.9297,165.0708 183.2449,166.1375 Q182.5601,167.2041 182.5601,169.3042 Q182.5601,171.396 183.2449,172.4626 Q183.9297,173.5293 185.2744,173.5293 Q185.9053,173.5293 186.4988,173.2595 Q187.0923,172.9897 187.7231,172.4087 Z " fill="#000000"/><text fill="#000000" font-family="sans-serif" font-size="14" lengthAdjust="spacing" textLength="162" x="205.25" y="174.7793">ConsultTasksController</text><line style="stroke:#181818;stroke-width:0.5;" x1="82.5" x2="457.5" y1="185.4883" y2="185.4883"/><line style="stroke:#181818;stroke-width:0.5;" x1="82.5" x2="457.5" y1="193.4883" y2="193.4883"/><text fill="#000000" font-family="sans-serif" font-size="14" lengthAdjust="spacing" textLength="281" x="87.5" y="211.0234">+consultTasksController(taskRepository)</text><text fill="#000000" font-family="sans-serif" font-size="14" lengthAdjust="spacing" textLength="167" x="87.5" y="227.5117">+getEmailCollaborator()</text><text fill="#000000" font-family="sans-serif" font-size="14" lengthAdjust="spacing" textLength="365" x="87.5" y="244">+List&lt;TaskDTO&gt; getTasks(email, startDate, endDate)</text><text fill="#000000" font-family="sans-serif" font-size="14" lengthAdjust="spacing" textLength="108" x="87.5" y="260.4883">+getStatusList()</text><text fill="#000000" font-family="sans-serif" font-size="14" lengthAdjust="spacing" textLength="232" x="87.5" y="276.9766">+consultTasksByStatus(tasksDTO)</text></g><!--class Repositories--><g id="elem_Repositories"><rect codeLine="17" fill="#F1F1F1" height="113.9531" id="Repositories" rx="2.5" ry="2.5" style="stroke:#181818;stroke-width:0.5;" width="209" x="86.5" y="360.9283"/><ellipse cx="144.25" cy="376.9283" fill="#ADD1B2" rx="11" ry="11" style="stroke:#181818;stroke-width:1.0;"/><path d="M147.2231,382.5713 Q146.6421,382.8702 146.0029,383.0196 Q145.3638,383.169 144.6582,383.169 Q142.1514,383.169 140.8315,381.5171 Q139.5117,379.8653 139.5117,376.7442 Q139.5117,373.6148 140.8315,371.9629 Q142.1514,370.3111 144.6582,370.3111 Q145.3638,370.3111 146.0112,370.4605 Q146.6587,370.6099 147.2231,370.9088 L147.2231,373.6314 Q146.5923,373.0504 145.9988,372.7806 Q145.4053,372.5108 144.7744,372.5108 Q143.4297,372.5108 142.7449,373.5775 Q142.0601,374.6441 142.0601,376.7442 Q142.0601,378.836 142.7449,379.9026 Q143.4297,380.9693 144.7744,380.9693 Q145.4053,380.9693 145.9988,380.6995 Q146.5923,380.4297 147.2231,379.8487 Z " fill="#000000"/><text fill="#000000" font-family="sans-serif" font-size="14" lengthAdjust="spacing" textLength="85" x="164.75" y="382.2193">Repositories</text><line style="stroke:#181818;stroke-width:0.5;" x1="87.5" x2="294.5" y1="392.9283" y2="392.9283"/><line style="stroke:#181818;stroke-width:0.5;" x1="87.5" x2="294.5" y1="400.9283" y2="400.9283"/><text fill="#000000" font-family="sans-serif" font-size="14" lengthAdjust="spacing" textLength="103" x="92.5" y="418.4634">-Repositories()</text><text fill="#000000" font-family="sans-serif" font-size="14" lengthAdjust="spacing" textLength="197" x="92.5" y="434.9517">+getInstance() : Repositories</text><text fill="#000000" font-family="sans-serif" font-size="14" lengthAdjust="spacing" textLength="197" x="92.5" y="451.44">+getGreenSpaceRepository()</text><text fill="#000000" font-family="sans-serif" font-size="14" lengthAdjust="spacing" textLength="148" x="92.5" y="467.9283">+getTaskRepository()</text></g><!--class TaskRepository--><g id="elem_TaskRepository"><rect codeLine="24" fill="#F1F1F1" height="130.4414" id="TaskRepository" rx="2.5" ry="2.5" style="stroke:#181818;stroke-width:0.5;" width="293" x="123.5" y="629.8783"/><ellipse cx="213.25" cy="645.8783" fill="#ADD1B2" rx="11" ry="11" style="stroke:#181818;stroke-width:1.0;"/><path d="M216.2231,651.5213 Q215.6421,651.8202 215.0029,651.9696 Q214.3638,652.119 213.6582,652.119 Q211.1514,652.119 209.8315,650.4671 Q208.5117,648.8153 208.5117,645.6942 Q208.5117,642.5648 209.8315,640.9129 Q211.1514,639.2611 213.6582,639.2611 Q214.3638,639.2611 215.0112,639.4105 Q215.6587,639.5599 216.2231,639.8588 L216.2231,642.5814 Q215.5923,642.0004 214.9988,641.7306 Q214.4053,641.4608 213.7744,641.4608 Q212.4297,641.4608 211.7449,642.5275 Q211.0601,643.5941 211.0601,645.6942 Q211.0601,647.786 211.7449,648.8526 Q212.4297,649.9193 213.7744,649.9193 Q214.4053,649.9193 214.9988,649.6495 Q215.5923,649.3797 216.2231,648.7987 Z " fill="#000000"/><text fill="#000000" font-family="sans-serif" font-size="14" lengthAdjust="spacing" textLength="105" x="233.75" y="651.1693">TaskRepository</text><line style="stroke:#181818;stroke-width:0.5;" x1="124.5" x2="415.5" y1="661.8783" y2="661.8783"/><line style="stroke:#181818;stroke-width:0.5;" x1="124.5" x2="415.5" y1="669.8783" y2="669.8783"/><text fill="#000000" font-family="sans-serif" font-size="14" lengthAdjust="spacing" textLength="221" x="129.5" y="687.4134">+getTasksByCollaborator(email)</text><text fill="#000000" font-family="sans-serif" font-size="14" lengthAdjust="spacing" textLength="108" x="129.5" y="703.9017">+getStatusList()</text><text fill="#000000" font-family="sans-serif" font-size="14" lengthAdjust="spacing" textLength="100" x="129.5" y="720.39">+toDTO(tasks)</text><text fill="#000000" font-family="sans-serif" font-size="14" lengthAdjust="spacing" textLength="281" x="129.5" y="736.8783">+consultTasksByStatus(tasksDTO, status)</text><text fill="#000000" font-family="sans-serif" font-size="14" lengthAdjust="spacing" textLength="175" x="129.5" y="753.3666">+consultTasks(tasksDTO)</text></g><!--class TaskMapper--><g id="elem_TaskMapper"><rect codeLine="32" fill="#F1F1F1" height="80.9766" id="TaskMapper" rx="2.5" ry="2.5" style="stroke:#181818;stroke-width:0.5;" width="304" x="7" y="821.3183"/><ellipse cx="112.75" cy="837.3183" fill="#ADD1B2" rx="11" ry="11" style="stroke:#181818;stroke-width:1.0;"/><path d="M115.7231,842.9613 Q115.1421,843.2602 114.5029,843.4096 Q113.8638,843.559 113.1582,843.559 Q110.6514,843.559 109.3315,841.9071 Q108.0117,840.2553 108.0117,837.1342 Q108.0117,834.0048 109.3315,832.3529 Q110.6514,830.7011 113.1582,830.7011 Q113.8638,830.7011 114.5112,830.8505 Q115.1587,830.9999 115.7231,831.2987 L115.7231,834.0214 Q115.0923,833.4404 114.4988,833.1706 Q113.9053,832.9008 113.2744,832.9008 Q111.9297,832.9008 111.2449,833.9675 Q110.5601,835.0341 110.5601,837.1342 Q110.5601,839.226 111.2449,840.2926 Q111.9297,841.3593 113.2744,841.3593 Q113.9053,841.3593 114.4988,841.0895 Q115.0923,840.8197 115.7231,840.2387 Z " fill="#000000"/><text fill="#000000" font-family="sans-serif" font-size="14" lengthAdjust="spacing" textLength="84" x="133.25" y="842.6093">TaskMapper</text><line style="stroke:#181818;stroke-width:0.5;" x1="8" x2="310" y1="853.3183" y2="853.3183"/><line style="stroke:#181818;stroke-width:0.5;" x1="8" x2="310" y1="861.3183" y2="861.3183"/><text fill="#000000" font-family="sans-serif" font-size="14" lengthAdjust="spacing" textLength="292" x="13" y="878.8534">+List&lt;TaskDTO&gt; toDTO(List&lt;Task&gt; tasks)</text><text fill="#000000" font-family="sans-serif" font-size="14" lengthAdjust="spacing" textLength="195" x="13" y="895.3417">+TaskDTO toDTO(Task task)</text></g><!--class TaskDTO--><g id="elem_TaskDTO"><rect codeLine="37" fill="#F1F1F1" height="146.9297" id="TaskDTO" rx="2.5" ry="2.5" style="stroke:#181818;stroke-width:0.5;" width="135" x="91.5" y="963.2983"/><ellipse cx="124.95" cy="979.2983" fill="#ADD1B2" rx="11" ry="11" style="stroke:#181818;stroke-width:1.0;"/><path d="M127.9231,984.9413 Q127.3421,985.2402 126.7029,985.3896 Q126.0638,985.539 125.3582,985.539 Q122.8514,985.539 121.5315,983.8871 Q120.2117,982.2353 120.2117,979.1142 Q120.2117,975.9848 121.5315,974.3329 Q122.8514,972.6811 125.3582,972.6811 Q126.0638,972.6811 126.7112,972.8305 Q127.3587,972.9799 127.9231,973.2788 L127.9231,976.0014 Q127.2923,975.4204 126.6988,975.1506 Q126.1053,974.8808 125.4744,974.8808 Q124.1297,974.8808 123.4449,975.9475 Q122.7601,977.0141 122.7601,979.1142 Q122.7601,981.206 123.4449,982.2726 Q124.1297,983.3393 125.4744,983.3393 Q126.1053,983.3393 126.6988,983.0695 Q127.2923,982.7997 127.9231,982.2187 Z " fill="#000000"/><text fill="#000000" font-family="sans-serif" font-size="14" lengthAdjust="spacing" textLength="62" x="143.05" y="984.5893">TaskDTO</text><line style="stroke:#181818;stroke-width:0.5;" x1="92.5" x2="225.5" y1="995.2983" y2="995.2983"/><text fill="#000000" font-family="sans-serif" font-size="14" lengthAdjust="spacing" textLength="26" x="97.5" y="1012.8334">title</text><text fill="#000000" font-family="sans-serif" font-size="14" lengthAdjust="spacing" textLength="77" x="97.5" y="1029.3217">description</text><text fill="#000000" font-family="sans-serif" font-size="14" lengthAdjust="spacing" textLength="120" x="97.5" y="1045.81">degreeOfUrgency</text><text fill="#000000" font-family="sans-serif" font-size="14" lengthAdjust="spacing" textLength="123" x="97.5" y="1062.2983">expectedDuration</text><text fill="#000000" font-family="sans-serif" font-size="14" lengthAdjust="spacing" textLength="41" x="97.5" y="1078.7866">status</text><text fill="#000000" font-family="sans-serif" font-size="14" lengthAdjust="spacing" textLength="84" x="97.5" y="1095.2748">startingDate</text><line style="stroke:#181818;stroke-width:0.5;" x1="92.5" x2="225.5" y1="1102.228" y2="1102.228"/></g><!--class Task--><g id="elem_Task"><rect codeLine="46" fill="#F1F1F1" height="146.9297" id="Task" rx="2.5" ry="2.5" style="stroke:#181818;stroke-width:0.5;" width="135" x="287.5" y="963.2983"/><ellipse cx="334.75" cy="979.2983" fill="#ADD1B2" rx="11" ry="11" style="stroke:#181818;stroke-width:1.0;"/><path d="M337.7231,984.9413 Q337.1421,985.2402 336.5029,985.3896 Q335.8638,985.539 335.1582,985.539 Q332.6514,985.539 331.3315,983.8871 Q330.0117,982.2353 330.0117,979.1142 Q330.0117,975.9848 331.3315,974.3329 Q332.6514,972.6811 335.1582,972.6811 Q335.8638,972.6811 336.5112,972.8305 Q337.1587,972.9799 337.7231,973.2788 L337.7231,976.0014 Q337.0923,975.4204 336.4988,975.1506 Q335.9053,974.8808 335.2744,974.8808 Q333.9297,974.8808 333.2449,975.9475 Q332.5601,977.0141 332.5601,979.1142 Q332.5601,981.206 333.2449,982.2726 Q333.9297,983.3393 335.2744,983.3393 Q335.9053,983.3393 336.4988,983.0695 Q337.0923,982.7997 337.7231,982.2187 Z " fill="#000000"/><text fill="#000000" font-family="sans-serif" font-size="14" lengthAdjust="spacing" textLength="32" x="355.25" y="984.5893">Task</text><line style="stroke:#181818;stroke-width:0.5;" x1="288.5" x2="421.5" y1="995.2983" y2="995.2983"/><text fill="#000000" font-family="sans-serif" font-size="14" lengthAdjust="spacing" textLength="26" x="293.5" y="1012.8334">title</text><text fill="#000000" font-family="sans-serif" font-size="14" lengthAdjust="spacing" textLength="77" x="293.5" y="1029.3217">description</text><text fill="#000000" font-family="sans-serif" font-size="14" lengthAdjust="spacing" textLength="120" x="293.5" y="1045.81">degreeOfUrgency</text><text fill="#000000" font-family="sans-serif" font-size="14" lengthAdjust="spacing" textLength="123" x="293.5" y="1062.2983">expectedDuration</text><text fill="#000000" font-family="sans-serif" font-size="14" lengthAdjust="spacing" textLength="41" x="293.5" y="1078.7866">status</text><text fill="#000000" font-family="sans-serif" font-size="14" lengthAdjust="spacing" textLength="84" x="293.5" y="1095.2748">startingDate</text><line style="stroke:#181818;stroke-width:0.5;" x1="288.5" x2="421.5" y1="1102.228" y2="1102.228"/></g><!--link ConsultTasksUI to ConsultTasksController--><g id="link_ConsultTasksUI_ConsultTasksController"><path codeLine="55" d="M270,92.9683 C270,109.2183 270,125.6783 270,147.0683 " fill="none" id="ConsultTasksUI-to-ConsultTasksController" style="stroke:#181818;stroke-width:1.0;stroke-dasharray:7.0,7.0;"/><polygon fill="#181818" points="270,153.0683,274,144.0683,270,148.0683,266,144.0683,270,153.0683" style="stroke:#181818;stroke-width:1.0;"/></g><!--link ConsultTasksController to Repositories--><g id="link_ConsultTasksController_Repositories"><path codeLine="56" d="M244.13,284.2783 C234.28,308.8783 225.362,331.1289 215.832,354.9089 " fill="none" id="ConsultTasksController-to-Repositories" style="stroke:#181818;stroke-width:1.0;stroke-dasharray:7.0,7.0;"/><polygon fill="#181818" points="213.6,360.4783,220.6609,353.6122,215.46,355.8371,213.235,350.6362,213.6,360.4783" style="stroke:#181818;stroke-width:1.0;"/><text fill="#000000" font-family="sans-serif" font-size="13" lengthAdjust="spacing" textLength="75" x="232" y="327.4966">repositories</text></g><!--link ConsultTasksController to TaskRepository--><g id="link_ConsultTasksController_TaskRepository"><path codeLine="57" d="M305.74,284.2883 C309.86,293.9883 313.48,304.0483 316,313.9283 C344.08,423.8183 351.04,458.0383 327,568.8783 C322.54,589.4183 316.9298,605.1884 308.1798,624.1884 " fill="none" id="ConsultTasksController-to-TaskRepository" style="stroke:#181818;stroke-width:1.0;stroke-dasharray:7.0,7.0;"/><polygon fill="#181818" points="305.67,629.6383,313.0679,623.1367,307.7615,625.0967,305.8015,619.7903,305.67,629.6383" style="stroke:#181818;stroke-width:1.0;"/><text fill="#000000" font-family="sans-serif" font-size="13" lengthAdjust="spacing" textLength="94" x="339" y="518.4466">taskRepository</text></g><!--link Repositories to TaskRepository--><g id="link_Repositories_TaskRepository"><path codeLine="58" d="M203.16,475.1483 C209.62,503.4383 218.06,538.1583 227,568.8783 C232.78,588.7483 237.8513,604.447 244.5413,623.817 " fill="none" id="Repositories-to-TaskRepository" style="stroke:#181818;stroke-width:1.0;"/><polygon fill="#181818" points="246.5,629.4883,247.3427,619.6755,244.8677,624.7622,239.781,622.2872,246.5,629.4883" style="stroke:#181818;stroke-width:1.0;"/><text fill="#000000" font-family="sans-serif" font-size="13" lengthAdjust="spacing" textLength="94" x="228" y="565.4466">taskRepository</text><text fill="#000000" font-family="sans-serif" font-size="13" lengthAdjust="spacing" textLength="8" x="235.4922" y="619.0771">1</text></g><!--link TaskRepository to Task--><g id="link_TaskRepository_Task"><path codeLine="59" d="M304.49,760.5983 C313.41,779.6883 322.15,800.9383 328,821.3183 C341.25,867.4883 347.511,915.1182 350.951,957.1882 " fill="none" id="TaskRepository-to-Task" style="stroke:#181818;stroke-width:1.0;"/><polygon fill="#181818" points="351.44,963.1683,354.6932,953.8722,351.0325,958.1849,346.7198,954.5242,351.44,963.1683" style="stroke:#181818;stroke-width:1.0;"/><text fill="#000000" font-family="sans-serif" font-size="13" lengthAdjust="spacing" textLength="34" x="345" y="866.8766">tasks</text></g><!--link TaskRepository to TaskMapper--><g id="link_TaskRepository_TaskMapper"><path codeLine="61" d="M226.45,760.7283 C212.72,781.0983 201.3216,798.0017 189.1316,816.1017 " fill="none" id="TaskRepository-to-TaskMapper" style="stroke:#181818;stroke-width:1.0;stroke-dasharray:7.0,7.0;"/><polygon fill="#181818" points="185.78,821.0783,194.1252,815.8478,188.573,816.9311,187.4897,811.379,185.78,821.0783" style="stroke:#181818;stroke-width:1.0;"/></g><!--link TaskMapper to TaskDTO--><g id="link_TaskMapper_TaskDTO"><path codeLine="62" d="M159,902.4883 C159,920.4383 159,936.2383 159,956.9683 " fill="none" id="TaskMapper-to-TaskDTO" style="stroke:#181818;stroke-width:1.0;stroke-dasharray:7.0,7.0;"/><polygon fill="#181818" points="159,962.9683,163,953.9683,159,957.9683,155,953.9683,159,962.9683" style="stroke:#181818;stroke-width:1.0;"/></g><!--link TaskMapper to Task--><g id="link_TaskMapper_Task"><path codeLine="63" d="M203.97,902.4883 C228.6,924.2283 255.1416,947.6478 282.6616,971.9378 " fill="none" id="TaskMapper-to-Task" style="stroke:#181818;stroke-width:1.0;stroke-dasharray:7.0,7.0;"/><polygon fill="#181818" points="287.16,975.9083,283.0593,966.9537,283.4113,972.5996,277.7654,972.9516,287.16,975.9083" style="stroke:#181818;stroke-width:1.0;"/></g><!--SRC=[lLDHJy8m47xlhxZmD28Zw9CXPec8CIGQ4e4VKCOv6qQtj4SY6l-xRRT1EmVnoJrrTzzzzztNgzuAMNB5Tv3cNEjx8YNMUy9PMiY5-4GOCKQ2SeJLOdHp2p4y55BlSm9wHo2kjnfCdSWaRe0Au2QVvtnTA4w5OionDZLB2r_Du8knxwwKEPCovQWC1Cnt1MbdEhADNx4ij31T3lqQd24zxhZ8VGbHatmMckuiptGvJopKSKPe2mQWYIkQSi81eDpOWqUw84vxRGcERBwkoQ42E5NQqFTFunr52jJrK74GZBm-Csbao1IZFem3q0dof13bekGfdiRtAPQ1CP6d9CmS3MwCc1m2rvmjbosWmenQpVmdLvp99j05xhBE9bvuMNhR4DvX9U0OIo3GKiDgbFrp-LO3YwZOtPQxqmPrgaH9ef3rVsPSdx-jL8OoFRWOVfIO4cwcU-DN0wpcQuwAXCpi9eKT_wLTwy4DXycPXyREl3zR4Upk69I_a1VAMeisXl2nie0sZkC4UjUzLjMleXQfhRAX2gTPEz_egFQ7UQlKPCp5TuL_0000]--></g></svg>