<?xml version="1.0" encoding="us-ascii" standalone="no"?><svg xmlns="http://www.w3.org/2000/svg" xmlns:xlink="http://www.w3.org/1999/xlink" contentStyleType="text/css" height="1054px" preserveAspectRatio="none" style="width:1330px;height:1054px;background:#FFFFFF;" version="1.1" viewBox="0 0 1330 1054" width="1330px" zoomAndPan="magnify"><defs/><g><rect fill="#FFFFFF" height="909.4512" style="stroke:#181818;stroke-width:1.0;" width="10" x="232" y="84.2871"/><rect fill="#FFFFFF" height="29.3105" style="stroke:#181818;stroke-width:1.0;" width="10" x="383.5" y="137.9082"/><rect fill="#FFFFFF" height="29.3105" style="stroke:#181818;stroke-width:1.0;" width="10" x="496.5" y="196.5293"/><rect fill="#FFFFFF" height="326.4609" style="stroke:#181818;stroke-width:1.0;" width="10" x="619.5" y="255.1504"/><rect fill="#FFFFFF" height="337.5059" style="stroke:#181818;stroke-width:1.0;" width="10" x="742" y="610.9219"/><rect fill="#FFFFFF" height="34.3105" style="stroke:#181818;stroke-width:1.0;" width="10" x="747" y="789.8301"/><rect fill="#FFFFFF" height="29.3105" style="stroke:#181818;stroke-width:1.0;" width="10" x="944" y="366.748"/><rect fill="#FFFFFF" height="29.3105" style="stroke:#181818;stroke-width:1.0;" width="10" x="944" y="425.3691"/><rect fill="#FFFFFF" height="30" style="stroke:#181818;stroke-width:1.0;" width="10" x="1026.5" y="508.3008"/><rect fill="#FFFFFF" height="30" style="stroke:#181818;stroke-width:1.0;" width="10" x="1026.5" y="722.5195"/><rect fill="#FFFFFF" height="30" style="stroke:#181818;stroke-width:1.0;" width="10" x="1146.5" y="882.1172"/><rect fill="none" height="857.1406" style="stroke:#000000;stroke-width:1.5;" width="1187" x="137" y="99.2871"/><rect fill="none" height="225.1738" style="stroke:#000000;stroke-width:1.5;" width="556" x="543" y="328.127"/><rect fill="none" height="76.6211" style="stroke:#000000;stroke-width:1.5;" width="536" x="553" y="469.6797"/><rect fill="none" height="236.2188" style="stroke:#000000;stroke-width:1.5;" width="628" x="686" y="683.8984"/><line style="stroke:#181818;stroke-width:0.5;stroke-dasharray:5.0,5.0;" x1="237" x2="237" y1="52.9766" y2="1002.7383"/><line style="stroke:#181818;stroke-width:0.5;stroke-dasharray:5.0,5.0;" x1="388" x2="388" y1="52.9766" y2="1002.7383"/><line style="stroke:#181818;stroke-width:0.5;stroke-dasharray:5.0,5.0;" x1="501" x2="501" y1="52.9766" y2="1002.7383"/><line style="stroke:#181818;stroke-width:0.5;stroke-dasharray:5.0,5.0;" x1="624" x2="624" y1="52.9766" y2="1002.7383"/><line style="stroke:#181818;stroke-width:0.5;stroke-dasharray:5.0,5.0;" x1="747" x2="747" y1="52.9766" y2="1002.7383"/><line style="stroke:#181818;stroke-width:0.5;stroke-dasharray:5.0,5.0;" x1="949" x2="949" y1="52.9766" y2="1002.7383"/><line style="stroke:#181818;stroke-width:0.5;stroke-dasharray:5.0,5.0;" x1="1031" x2="1031" y1="302.1387" y2="1002.7383"/><line style="stroke:#181818;stroke-width:0.5;stroke-dasharray:5.0,5.0;" x1="1151" x2="1151" y1="657.9102" y2="1002.7383"/><line style="stroke:#181818;stroke-width:0.5;stroke-dasharray:5.0,5.0;" x1="1264" x2="1264" y1="841.8184" y2="1002.7383"/><rect fill="#E3E3E3" height="30.4883" rx="2.5" ry="2.5" style="stroke:#181818;stroke-width:0.5;" width="180" x="147" y="21.4883"/><text fill="#000000" font-family="sans-serif" font-size="14" lengthAdjust="spacing" textLength="166" x="154" y="42.0234">:ConsultTasksController</text><rect fill="#E3E3E3" height="30.4883" rx="2.5" ry="2.5" style="stroke:#181818;stroke-width:0.5;" width="180" x="147" y="1001.7383"/><text fill="#000000" font-family="sans-serif" font-size="14" lengthAdjust="spacing" textLength="166" x="154" y="1022.2734">:ConsultTasksController</text><rect fill="#E3E3E3" height="30.4883" rx="2.5" ry="2.5" style="stroke:#181818;stroke-width:0.5;" width="103" x="337" y="21.4883"/><text fill="#000000" font-family="sans-serif" font-size="14" lengthAdjust="spacing" textLength="89" x="344" y="42.0234">:Repositories</text><rect fill="#E3E3E3" height="30.4883" rx="2.5" ry="2.5" style="stroke:#181818;stroke-width:0.5;" width="103" x="337" y="1001.7383"/><text fill="#000000" font-family="sans-serif" font-size="14" lengthAdjust="spacing" textLength="89" x="344" y="1022.2734">:Repositories</text><rect fill="#E3E3E3" height="46.9766" rx="2.5" ry="2.5" style="stroke:#181818;stroke-width:0.5;" width="103" x="450" y="5"/><text fill="#000000" font-family="sans-serif" font-size="14" lengthAdjust="spacing" textLength="82" x="460.5" y="25.5352">repositories</text><text fill="#000000" font-family="sans-serif" font-size="14" lengthAdjust="spacing" textLength="89" x="457" y="42.0234">:Repositories</text><rect fill="#E3E3E3" height="46.9766" rx="2.5" ry="2.5" style="stroke:#181818;stroke-width:0.5;" width="103" x="450" y="1001.7383"/><text fill="#000000" font-family="sans-serif" font-size="14" lengthAdjust="spacing" textLength="82" x="460.5" y="1022.2734">repositories</text><text fill="#000000" font-family="sans-serif" font-size="14" lengthAdjust="spacing" textLength="89" x="457" y="1038.7617">:Repositories</text><rect fill="#E3E3E3" height="46.9766" rx="2.5" ry="2.5" style="stroke:#181818;stroke-width:0.5;" width="123" x="563" y="5"/><text fill="#000000" font-family="sans-serif" font-size="14" lengthAdjust="spacing" textLength="101" x="574" y="25.5352">taskRepository</text><text fill="#000000" font-family="sans-serif" font-size="14" lengthAdjust="spacing" textLength="109" x="570" y="42.0234">:TaskRepository</text><rect fill="#E3E3E3" height="46.9766" rx="2.5" ry="2.5" style="stroke:#181818;stroke-width:0.5;" width="123" x="563" y="1001.7383"/><text fill="#000000" font-family="sans-serif" font-size="14" lengthAdjust="spacing" textLength="101" x="574" y="1022.2734">taskRepository</text><text fill="#000000" font-family="sans-serif" font-size="14" lengthAdjust="spacing" textLength="109" x="570" y="1038.7617">:TaskRepository</text><rect fill="#E3E3E3" height="46.9766" rx="2.5" ry="2.5" style="stroke:#181818;stroke-width:0.5;" width="102" x="696" y="5"/><text fill="#000000" font-family="sans-serif" font-size="14" lengthAdjust="spacing" textLength="80" x="707" y="25.5352">taskMapper</text><text fill="#000000" font-family="sans-serif" font-size="14" lengthAdjust="spacing" textLength="88" x="703" y="42.0234">:TaskMapper</text><rect fill="#E3E3E3" height="46.9766" rx="2.5" ry="2.5" style="stroke:#181818;stroke-width:0.5;" width="102" x="696" y="1001.7383"/><text fill="#000000" font-family="sans-serif" font-size="14" lengthAdjust="spacing" textLength="80" x="707" y="1022.2734">taskMapper</text><text fill="#000000" font-family="sans-serif" font-size="14" lengthAdjust="spacing" textLength="88" x="703" y="1038.7617">:TaskMapper</text><rect fill="#E3E3E3" height="46.9766" rx="2.5" ry="2.5" style="stroke:#181818;stroke-width:0.5;" width="50" x="924" y="5"/><text fill="#000000" font-family="sans-serif" font-size="14" lengthAdjust="spacing" textLength="28" x="935" y="25.5352">task</text><text fill="#000000" font-family="sans-serif" font-size="14" lengthAdjust="spacing" textLength="36" x="931" y="42.0234">:Task</text><rect fill="#E3E3E3" height="46.9766" rx="2.5" ry="2.5" style="stroke:#181818;stroke-width:0.5;" width="50" x="924" y="1001.7383"/><text fill="#000000" font-family="sans-serif" font-size="14" lengthAdjust="spacing" textLength="28" x="935" y="1022.2734">task</text><text fill="#000000" font-family="sans-serif" font-size="14" lengthAdjust="spacing" textLength="36" x="931" y="1038.7617">:Task</text><rect fill="#E3E3E3" height="46.9766" rx="2.5" ry="2.5" style="stroke:#181818;stroke-width:0.5;" width="95" x="984" y="1001.7383"/><text fill="#000000" font-family="sans-serif" font-size="14" lengthAdjust="spacing" textLength="58" x="1002.5" y="1022.2734">tasksList</text><text fill="#000000" font-family="sans-serif" font-size="14" lengthAdjust="spacing" textLength="81" x="991" y="1038.7617">:List&lt;Task&gt;</text><rect fill="#E3E3E3" height="46.9766" rx="2.5" ry="2.5" style="stroke:#181818;stroke-width:0.5;" width="125" x="1089" y="1001.7383"/><text fill="#000000" font-family="sans-serif" font-size="14" lengthAdjust="spacing" textLength="58" x="1122.5" y="1022.2734">tasksList</text><text fill="#000000" font-family="sans-serif" font-size="14" lengthAdjust="spacing" textLength="111" x="1096" y="1038.7617">:List&lt;TaskDTO&gt;</text><rect fill="#E3E3E3" height="46.9766" rx="2.5" ry="2.5" style="stroke:#181818;stroke-width:0.5;" width="80" x="1224" y="1001.7383"/><text fill="#000000" font-family="sans-serif" font-size="14" lengthAdjust="spacing" textLength="58" x="1235" y="1022.2734">taskDTO</text><text fill="#000000" font-family="sans-serif" font-size="14" lengthAdjust="spacing" textLength="66" x="1231" y="1038.7617">:TaskDTO</text><rect fill="#FFFFFF" height="909.4512" style="stroke:#181818;stroke-width:1.0;" width="10" x="232" y="84.2871"/><rect fill="#FFFFFF" height="29.3105" style="stroke:#181818;stroke-width:1.0;" width="10" x="383.5" y="137.9082"/><rect fill="#FFFFFF" height="29.3105" style="stroke:#181818;stroke-width:1.0;" width="10" x="496.5" y="196.5293"/><rect fill="#FFFFFF" height="326.4609" style="stroke:#181818;stroke-width:1.0;" width="10" x="619.5" y="255.1504"/><rect fill="#FFFFFF" height="337.5059" style="stroke:#181818;stroke-width:1.0;" width="10" x="742" y="610.9219"/><rect fill="#FFFFFF" height="34.3105" style="stroke:#181818;stroke-width:1.0;" width="10" x="747" y="789.8301"/><rect fill="#FFFFFF" height="29.3105" style="stroke:#181818;stroke-width:1.0;" width="10" x="944" y="366.748"/><rect fill="#FFFFFF" height="29.3105" style="stroke:#181818;stroke-width:1.0;" width="10" x="944" y="425.3691"/><rect fill="#FFFFFF" height="30" style="stroke:#181818;stroke-width:1.0;" width="10" x="1026.5" y="508.3008"/><rect fill="#FFFFFF" height="30" style="stroke:#181818;stroke-width:1.0;" width="10" x="1026.5" y="722.5195"/><rect fill="#FFFFFF" height="30" style="stroke:#181818;stroke-width:1.0;" width="10" x="1146.5" y="882.1172"/><polygon fill="#181818" points="220,80.2871,230,84.2871,220,88.2871,224,84.2871" style="stroke:#181818;stroke-width:1.0;"/><line style="stroke:#181818;stroke-width:1.0;" x1="0" x2="226" y1="84.2871" y2="84.2871"/><text fill="#000000" font-family="sans-serif" font-size="13" font-weight="bold" lengthAdjust="spacing" textLength="18" x="7" y="79.5449">11</text><text fill="#000000" font-family="sans-serif" font-size="13" lengthAdjust="spacing" textLength="191" x="29" y="79.5449">getTasksByCollaborator(email)</text><path d="M137,99.2871 L467,99.2871 L467,106.5977 L457,116.5977 L137,116.5977 L137,99.2871 " fill="#EEEEEE" style="stroke:#000000;stroke-width:1.5;"/><rect fill="none" height="857.1406" style="stroke:#000000;stroke-width:1.5;" width="1187" x="137" y="99.2871"/><text fill="#000000" font-family="sans-serif" font-size="13" font-weight="bold" lengthAdjust="spacing" textLength="285" x="152" y="112.8555">Get Tasks By Collaborator and Date Range</text><polygon fill="#181818" points="371.5,133.9082,381.5,137.9082,371.5,141.9082,375.5,137.9082" style="stroke:#181818;stroke-width:1.0;"/><line style="stroke:#181818;stroke-width:1.0;" x1="242" x2="377.5" y1="137.9082" y2="137.9082"/><text fill="#000000" font-family="sans-serif" font-size="13" font-weight="bold" lengthAdjust="spacing" textLength="30" x="249" y="133.166">11.1</text><text fill="#000000" font-family="sans-serif" font-size="13" lengthAdjust="spacing" textLength="81" x="283" y="133.166">getInstance()</text><polygon fill="#181818" points="253,163.2188,243,167.2188,253,171.2188,249,167.2188" style="stroke:#181818;stroke-width:1.0;"/><line style="stroke:#181818;stroke-width:1.0;stroke-dasharray:2.0,2.0;" x1="247" x2="387.5" y1="167.2188" y2="167.2188"/><text fill="#000000" font-family="sans-serif" font-size="13" font-weight="bold" lengthAdjust="spacing" textLength="30" x="259" y="162.4766">11.2</text><text fill="#000000" font-family="sans-serif" font-size="13" lengthAdjust="spacing" textLength="75" x="293" y="162.4766">repositories</text><polygon fill="#181818" points="484.5,192.5293,494.5,196.5293,484.5,200.5293,488.5,196.5293" style="stroke:#181818;stroke-width:1.0;"/><line style="stroke:#181818;stroke-width:1.0;" x1="242" x2="490.5" y1="196.5293" y2="196.5293"/><text fill="#000000" font-family="sans-serif" font-size="13" font-weight="bold" lengthAdjust="spacing" textLength="30" x="249" y="191.7871">11.3</text><text fill="#000000" font-family="sans-serif" font-size="13" lengthAdjust="spacing" textLength="125" x="283" y="191.7871">getTaskRepository()</text><polygon fill="#181818" points="253,221.8398,243,225.8398,253,229.8398,249,225.8398" style="stroke:#181818;stroke-width:1.0;"/><line style="stroke:#181818;stroke-width:1.0;stroke-dasharray:2.0,2.0;" x1="247" x2="500.5" y1="225.8398" y2="225.8398"/><text fill="#000000" font-family="sans-serif" font-size="13" font-weight="bold" lengthAdjust="spacing" textLength="30" x="259" y="221.0977">11.4</text><text fill="#000000" font-family="sans-serif" font-size="13" lengthAdjust="spacing" textLength="94" x="293" y="221.0977">taskRepository</text><polygon fill="#181818" points="607.5,251.1504,617.5,255.1504,607.5,259.1504,611.5,255.1504" style="stroke:#181818;stroke-width:1.0;"/><line style="stroke:#181818;stroke-width:1.0;" x1="242" x2="613.5" y1="255.1504" y2="255.1504"/><text fill="#000000" font-family="sans-serif" font-size="13" font-weight="bold" lengthAdjust="spacing" textLength="30" x="249" y="250.4082">11.5</text><text fill="#000000" font-family="sans-serif" font-size="13" lengthAdjust="spacing" textLength="191" x="283" y="250.4082">getTasksByCollaborator(email)</text><polygon fill="#181818" points="972,280.4609,982,284.4609,972,288.4609,976,284.4609" style="stroke:#181818;stroke-width:1.0;"/><line style="stroke:#181818;stroke-width:1.0;" x1="629.5" x2="978" y1="284.4609" y2="284.4609"/><text fill="#000000" font-family="sans-serif" font-size="13" font-weight="bold" lengthAdjust="spacing" textLength="30" x="636.5" y="279.7188">11.6</text><text fill="#000000" font-family="sans-serif" font-size="13" lengthAdjust="spacing" textLength="46" x="670.5" y="279.7188">create()</text><rect fill="#E3E3E3" height="46.9766" rx="2.5" ry="2.5" style="stroke:#181818;stroke-width:0.5;" width="95" x="984" y="263.1504"/><text fill="#000000" font-family="sans-serif" font-size="14" lengthAdjust="spacing" textLength="58" x="1002.5" y="283.6855">tasksList</text><text fill="#000000" font-family="sans-serif" font-size="14" lengthAdjust="spacing" textLength="81" x="991" y="300.1738">:List&lt;Task&gt;</text><path d="M543,328.127 L617,328.127 L617,335.4375 L607,345.4375 L543,345.4375 L543,328.127 " fill="#EEEEEE" style="stroke:#000000;stroke-width:1.5;"/><rect fill="none" height="225.1738" style="stroke:#000000;stroke-width:1.5;" width="556" x="543" y="328.127"/><text fill="#000000" font-family="sans-serif" font-size="13" font-weight="bold" lengthAdjust="spacing" textLength="29" x="558" y="341.6953">loop</text><text fill="#000000" font-family="sans-serif" font-size="11" font-weight="bold" lengthAdjust="spacing" textLength="81" x="632" y="340.7617">[for each task]</text><polygon fill="#181818" points="932,362.748,942,366.748,932,370.748,936,366.748" style="stroke:#181818;stroke-width:1.0;"/><line style="stroke:#181818;stroke-width:1.0;" x1="629.5" x2="938" y1="366.748" y2="366.748"/><text fill="#000000" font-family="sans-serif" font-size="13" font-weight="bold" lengthAdjust="spacing" textLength="30" x="636.5" y="362.0059">11.7</text><text fill="#000000" font-family="sans-serif" font-size="13" lengthAdjust="spacing" textLength="176" x="670.5" y="362.0059">hasCollaboratorEmail(email)</text><polygon fill="#181818" points="640.5,392.0586,630.5,396.0586,640.5,400.0586,636.5,396.0586" style="stroke:#181818;stroke-width:1.0;"/><line style="stroke:#181818;stroke-width:1.0;stroke-dasharray:2.0,2.0;" x1="634.5" x2="948" y1="396.0586" y2="396.0586"/><text fill="#000000" font-family="sans-serif" font-size="13" font-weight="bold" lengthAdjust="spacing" textLength="30" x="646.5" y="391.3164">11.8</text><text fill="#000000" font-family="sans-serif" font-size="13" lengthAdjust="spacing" textLength="62" x="680.5" y="391.3164">true/false</text><polygon fill="#181818" points="932,421.3691,942,425.3691,932,429.3691,936,425.3691" style="stroke:#181818;stroke-width:1.0;"/><line style="stroke:#181818;stroke-width:1.0;" x1="629.5" x2="938" y1="425.3691" y2="425.3691"/><text fill="#000000" font-family="sans-serif" font-size="13" font-weight="bold" lengthAdjust="spacing" textLength="30" x="636.5" y="420.627">11.9</text><text fill="#000000" font-family="sans-serif" font-size="13" lengthAdjust="spacing" textLength="214" x="670.5" y="420.627">betweenDates(startDate, endDate)</text><polygon fill="#181818" points="640.5,450.6797,630.5,454.6797,640.5,458.6797,636.5,454.6797" style="stroke:#181818;stroke-width:1.0;"/><line style="stroke:#181818;stroke-width:1.0;stroke-dasharray:2.0,2.0;" x1="634.5" x2="948" y1="454.6797" y2="454.6797"/><text fill="#000000" font-family="sans-serif" font-size="13" font-weight="bold" lengthAdjust="spacing" textLength="39" x="646.5" y="449.9375">11.10</text><text fill="#000000" font-family="sans-serif" font-size="13" lengthAdjust="spacing" textLength="62" x="689.5" y="449.9375">true/false</text><path d="M553,469.6797 L620,469.6797 L620,476.9902 L610,486.9902 L553,486.9902 L553,469.6797 " fill="#EEEEEE" style="stroke:#000000;stroke-width:1.5;"/><rect fill="none" height="76.6211" style="stroke:#000000;stroke-width:1.5;" width="536" x="553" y="469.6797"/><text fill="#000000" font-family="sans-serif" font-size="13" font-weight="bold" lengthAdjust="spacing" textLength="22" x="568" y="483.248">opt</text><text fill="#000000" font-family="sans-serif" font-size="11" font-weight="bold" lengthAdjust="spacing" textLength="325" x="635" y="482.3145">[hasCollaboratorEmail == true &amp;&amp; betweenDates == true]</text><polygon fill="#181818" points="1014.5,504.3008,1024.5,508.3008,1014.5,512.3008,1018.5,508.3008" style="stroke:#181818;stroke-width:1.0;"/><line style="stroke:#181818;stroke-width:1.0;" x1="629.5" x2="1020.5" y1="508.3008" y2="508.3008"/><text fill="#000000" font-family="sans-serif" font-size="13" font-weight="bold" lengthAdjust="spacing" textLength="39" x="636.5" y="503.5586">11.11</text><text fill="#000000" font-family="sans-serif" font-size="13" lengthAdjust="spacing" textLength="58" x="679.5" y="503.5586">add(task)</text><polygon fill="#181818" points="253,577.6113,243,581.6113,253,585.6113,249,581.6113" style="stroke:#181818;stroke-width:1.0;"/><line style="stroke:#181818;stroke-width:1.0;stroke-dasharray:2.0,2.0;" x1="247" x2="623.5" y1="581.6113" y2="581.6113"/><text fill="#000000" font-family="sans-serif" font-size="13" font-weight="bold" lengthAdjust="spacing" textLength="39" x="259" y="576.8691">11.12</text><text fill="#000000" font-family="sans-serif" font-size="13" lengthAdjust="spacing" textLength="34" x="302" y="576.8691">tasks</text><polygon fill="#181818" points="730,606.9219,740,610.9219,730,614.9219,734,610.9219" style="stroke:#181818;stroke-width:1.0;"/><line style="stroke:#181818;stroke-width:1.0;" x1="242" x2="736" y1="610.9219" y2="610.9219"/><text fill="#000000" font-family="sans-serif" font-size="13" font-weight="bold" lengthAdjust="spacing" textLength="39" x="249" y="606.1797">11.13</text><text fill="#000000" font-family="sans-serif" font-size="13" lengthAdjust="spacing" textLength="83" x="292" y="606.1797">toDTO(tasks)</text><polygon fill="#181818" points="1077,636.2324,1087,640.2324,1077,644.2324,1081,640.2324" style="stroke:#181818;stroke-width:1.0;"/><line style="stroke:#181818;stroke-width:1.0;" x1="752" x2="1083" y1="640.2324" y2="640.2324"/><text fill="#000000" font-family="sans-serif" font-size="13" font-weight="bold" lengthAdjust="spacing" textLength="39" x="759" y="635.4902">11.14</text><text fill="#000000" font-family="sans-serif" font-size="13" lengthAdjust="spacing" textLength="46" x="802" y="635.4902">create()</text><rect fill="#E3E3E3" height="46.9766" rx="2.5" ry="2.5" style="stroke:#181818;stroke-width:0.5;" width="125" x="1089" y="618.9219"/><text fill="#000000" font-family="sans-serif" font-size="14" lengthAdjust="spacing" textLength="58" x="1122.5" y="639.457">tasksList</text><text fill="#000000" font-family="sans-serif" font-size="14" lengthAdjust="spacing" textLength="111" x="1096" y="655.9453">:List&lt;TaskDTO&gt;</text><path d="M686,683.8984 L760,683.8984 L760,691.209 L750,701.209 L686,701.209 L686,683.8984 " fill="#EEEEEE" style="stroke:#000000;stroke-width:1.5;"/><rect fill="none" height="236.2188" style="stroke:#000000;stroke-width:1.5;" width="628" x="686" y="683.8984"/><text fill="#000000" font-family="sans-serif" font-size="13" font-weight="bold" lengthAdjust="spacing" textLength="29" x="701" y="697.4668">loop</text><text fill="#000000" font-family="sans-serif" font-size="11" font-weight="bold" lengthAdjust="spacing" textLength="147" x="775" y="696.5332">[for each task in TaskList]</text><polygon fill="#181818" points="1014.5,718.5195,1024.5,722.5195,1014.5,726.5195,1018.5,722.5195" style="stroke:#181818;stroke-width:1.0;"/><line style="stroke:#181818;stroke-width:1.0;" x1="752" x2="1020.5" y1="722.5195" y2="722.5195"/><text fill="#000000" font-family="sans-serif" font-size="13" font-weight="bold" lengthAdjust="spacing" textLength="39" x="759" y="717.7773">11.15</text><text fill="#000000" font-family="sans-serif" font-size="13" lengthAdjust="spacing" textLength="70" x="802" y="717.7773">obj = get(i)</text><line style="stroke:#181818;stroke-width:1.0;" x1="752" x2="799" y1="776.8301" y2="776.8301"/><line style="stroke:#181818;stroke-width:1.0;" x1="799" x2="799" y1="776.8301" y2="789.8301"/><line style="stroke:#181818;stroke-width:1.0;" x1="758" x2="799" y1="789.8301" y2="789.8301"/><polygon fill="#181818" points="768,785.8301,758,789.8301,768,793.8301,764,789.8301" style="stroke:#181818;stroke-width:1.0;"/><text fill="#000000" font-family="sans-serif" font-size="13" font-weight="bold" lengthAdjust="spacing" textLength="39" x="764" y="772.0879">11.16</text><text fill="#000000" font-family="sans-serif" font-size="13" lengthAdjust="spacing" textLength="135" x="807" y="772.0879">objDTO = toDTO(obj)</text><polygon fill="#181818" points="1212,820.1406,1222,824.1406,1212,828.1406,1216,824.1406" style="stroke:#181818;stroke-width:1.0;"/><line style="stroke:#181818;stroke-width:1.0;" x1="752" x2="1218" y1="824.1406" y2="824.1406"/><text fill="#000000" font-family="sans-serif" font-size="13" font-weight="bold" lengthAdjust="spacing" textLength="39" x="759" y="819.3984">11.17</text><text fill="#000000" font-family="sans-serif" font-size="13" lengthAdjust="spacing" textLength="58" x="802" y="819.3984">create(...)</text><rect fill="#E3E3E3" height="46.9766" rx="2.5" ry="2.5" style="stroke:#181818;stroke-width:0.5;" width="80" x="1224" y="802.8301"/><text fill="#000000" font-family="sans-serif" font-size="14" lengthAdjust="spacing" textLength="58" x="1235" y="823.3652">taskDTO</text><text fill="#000000" font-family="sans-serif" font-size="14" lengthAdjust="spacing" textLength="66" x="1231" y="839.8535">:TaskDTO</text><polygon fill="#181818" points="1134.5,878.1172,1144.5,882.1172,1134.5,886.1172,1138.5,882.1172" style="stroke:#181818;stroke-width:1.0;"/><line style="stroke:#181818;stroke-width:1.0;" x1="752" x2="1140.5" y1="882.1172" y2="882.1172"/><text fill="#000000" font-family="sans-serif" font-size="13" font-weight="bold" lengthAdjust="spacing" textLength="39" x="759" y="877.375">11.18</text><text fill="#000000" font-family="sans-serif" font-size="13" lengthAdjust="spacing" textLength="79" x="802" y="877.375">add(objDTO)</text><polygon fill="#181818" points="253,944.4277,243,948.4277,253,952.4277,249,948.4277" style="stroke:#181818;stroke-width:1.0;"/><line style="stroke:#181818;stroke-width:1.0;stroke-dasharray:2.0,2.0;" x1="247" x2="746" y1="948.4277" y2="948.4277"/><text fill="#000000" font-family="sans-serif" font-size="13" font-weight="bold" lengthAdjust="spacing" textLength="39" x="259" y="943.6855">11.19</text><text fill="#000000" font-family="sans-serif" font-size="13" lengthAdjust="spacing" textLength="62" x="302" y="943.6855">tasksDTO</text><polygon fill="#181818" points="11,980.7383,1,984.7383,11,988.7383,7,984.7383" style="stroke:#181818;stroke-width:1.0;"/><line style="stroke:#181818;stroke-width:1.0;stroke-dasharray:2.0,2.0;" x1="5" x2="231" y1="984.7383" y2="984.7383"/><text fill="#000000" font-family="sans-serif" font-size="13" font-weight="bold" lengthAdjust="spacing" textLength="18" x="17" y="979.9961">22</text><text fill="#000000" font-family="sans-serif" font-size="13" lengthAdjust="spacing" textLength="62" x="39" y="979.9961">tasksDTO</text><!--SRC=[nLN1Zjem4BtdAqPxMC6gKB57jApKPQkg4bKhbkDUJ38BBi6ERDCLVz-n7OBZ98HL3-L2Cfdt_ERDsDOxBWgcs1xsKiXqg-GUmQW39hhwKh1qnpRuOeuvWiBKCB79mmIzPPbyvs83RopNc2GKDZpb1HC6RgPpAVGXDokcTvgUZP9vZke6c8RvQhc8ifTOICsDL1orowa2nnTk5pPIr24gGBoA9i6lnPTL7M58ofcMCAjQmA7geIR-1oiAL2NMlrGu_zh4bDbLNZD3BxWsb6R_7cpAOvNiFbs1U5xzZ40KQU8eMCgXfohVfYRiG1uVzcjKC9aaeqVN9fZ21dqJduvpQY5RIyN8cm7k6S-74MmyeK1g-1zcqBSPwBTHyb30DpHU73mT8QG29Z9ujeWbpHWwIFbp4aXAopHuPT-5fi5CSJ0COPM4jYaA4zjuHsNfKmX7B4HbUFK2fmBiD9wzFACwTBlX3Ryu_5bPVPGxj3L8JcBg4dfRt2OmsYTXJiHUhkT64kxkQBLK8L7KAy-bBE2DPe7aRrrv_PH4jMKwLFpL2kwJtH3hV6ruOe_3p_vaQxUtbQjLvHhDEwAm8wu7DA_AsCTFW2Ap3_z1gYnCgtSmcpaskBsjgJx5Guw-Na-1PTd0jd8Omsh2_0aNPKJY6pbadIqYYMDsZYusvNokkMFqWc4Tunrk8d_YMov9HwYhLNTtixmVOdKbIUWTaNragm0N3XkRrC5El7Bz6sPssmzujzw6wQrDkRnWvH2jQAkQbLRHwpyQ5Niq7e-75yH-p7m_krvpZq7sxkpno5slrmpgIKqqf9UNE5LcMTrD6rx9z_V9msZKOFiB]--></g></svg>