<?xml version="1.0" encoding="us-ascii" standalone="no"?><svg xmlns="http://www.w3.org/2000/svg" xmlns:xlink="http://www.w3.org/1999/xlink" contentStyleType="text/css" height="796.8px" preserveAspectRatio="none" style="width:1192px;height:796px;background:#FFFFFF;" version="1.1" viewBox="0 0 1192 796" width="1192px" zoomAndPan="magnify"><defs/><g><rect fill="#FFFFFF" height="680.6641" style="stroke:#181818;stroke-width:0.8000000000000002;" width="8" x="188.8" y="67.4297"/><rect fill="#FFFFFF" height="23.4484" style="stroke:#181818;stroke-width:0.8000000000000002;" width="8" x="310" y="110.3266"/><rect fill="#FFFFFF" height="23.4484" style="stroke:#181818;stroke-width:0.8000000000000002;" width="8" x="400.4" y="157.2234"/><rect fill="#FFFFFF" height="214.2719" style="stroke:#181818;stroke-width:0.8000000000000002;" width="8" x="501.2" y="204.1203"/><rect fill="#FFFFFF" height="23.4484" style="stroke:#181818;stroke-width:0.8000000000000002;" width="8" x="692.4" y="293.3984"/><rect fill="#FFFFFF" height="24" style="stroke:#181818;stroke-width:0.8000000000000002;" width="8" x="763.2" y="359.7438"/><rect fill="#FFFFFF" height="24" style="stroke:#181818;stroke-width:0.8000000000000002;" width="8" x="763.2" y="531.1188"/><rect fill="#FFFFFF" height="270.0047" style="stroke:#181818;stroke-width:0.8000000000000002;" width="8" x="876.8" y="441.8406"/><rect fill="#FFFFFF" height="27.4484" style="stroke:#181818;stroke-width:0.8000000000000002;" width="8" x="880.8" y="584.9672"/><rect fill="#FFFFFF" height="24" style="stroke:#181818;stroke-width:0.8000000000000002;" width="8" x="1038.4" y="658.7969"/><rect fill="none" height="638.8156" style="stroke:#000000;stroke-width:1.2000000000000002;" width="1074.8" x="112.8" y="79.4297"/><rect fill="none" height="133.2422" style="stroke:#000000;stroke-width:1.2000000000000002;" width="386" x="437.6" y="262.5016"/><rect fill="none" height="61.2969" style="stroke:#000000;stroke-width:1.2000000000000002;" width="370" x="445.6" y="328.8469"/><rect fill="none" height="188.975" style="stroke:#000000;stroke-width:1.2000000000000002;" width="460.8" x="718.8" y="500.2219"/><line style="stroke:#181818;stroke-width:0.4000000000000001;stroke-dasharray:5.0,5.0;" x1="192.8" x2="192.8" y1="42.3813" y2="755.2938"/><line style="stroke:#181818;stroke-width:0.4000000000000001;stroke-dasharray:5.0,5.0;" x1="313.6" x2="313.6" y1="42.3813" y2="755.2938"/><line style="stroke:#181818;stroke-width:0.4000000000000001;stroke-dasharray:5.0,5.0;" x1="404" x2="404" y1="42.3813" y2="755.2938"/><line style="stroke:#181818;stroke-width:0.4000000000000001;stroke-dasharray:5.0,5.0;" x1="504.8" x2="504.8" y1="42.3813" y2="755.2938"/><line style="stroke:#181818;stroke-width:0.4000000000000001;stroke-dasharray:5.0,5.0;" x1="696.4" x2="696.4" y1="42.3813" y2="755.2938"/><line style="stroke:#181818;stroke-width:0.4000000000000001;stroke-dasharray:5.0,5.0;" x1="766.8" x2="766.8" y1="241.7109" y2="755.2938"/><line style="stroke:#181818;stroke-width:0.4000000000000001;stroke-dasharray:5.0,5.0;" x1="880.8" x2="880.8" y1="42.3813" y2="755.2938"/><line style="stroke:#181818;stroke-width:0.4000000000000001;stroke-dasharray:5.0,5.0;" x1="1042" x2="1042" y1="479.4313" y2="755.2938"/><line style="stroke:#181818;stroke-width:0.4000000000000001;stroke-dasharray:5.0,5.0;" x1="1137.2" x2="1137.2" y1="626.5578" y2="755.2938"/><rect fill="#E3E3E3" height="24.3906" rx="2" ry="2" style="stroke:#181818;stroke-width:0.4000000000000001;" width="144" x="120.8" y="17.1906"/><text fill="#000000" font-family="sans-serif" font-size="11.2" lengthAdjust="spacing" textLength="132.8" x="126.4" y="33.6188">:ConsultTasksController</text><rect fill="#E3E3E3" height="24.3906" rx="2" ry="2" style="stroke:#181818;stroke-width:0.4000000000000001;" width="144" x="120.8" y="754.4938"/><text fill="#000000" font-family="sans-serif" font-size="11.2" lengthAdjust="spacing" textLength="132.8" x="126.4" y="770.9219">:ConsultTasksController</text><rect fill="#E3E3E3" height="24.3906" rx="2" ry="2" style="stroke:#181818;stroke-width:0.4000000000000001;" width="82.4" x="272.8" y="17.1906"/><text fill="#000000" font-family="sans-serif" font-size="11.2" lengthAdjust="spacing" textLength="71.2" x="278.4" y="33.6188">:Repositories</text><rect fill="#E3E3E3" height="24.3906" rx="2" ry="2" style="stroke:#181818;stroke-width:0.4000000000000001;" width="82.4" x="272.8" y="754.4938"/><text fill="#000000" font-family="sans-serif" font-size="11.2" lengthAdjust="spacing" textLength="71.2" x="278.4" y="770.9219">:Repositories</text><rect fill="#E3E3E3" height="37.5813" rx="2" ry="2" style="stroke:#181818;stroke-width:0.4000000000000001;" width="82.4" x="363.2" y="4"/><text fill="#000000" font-family="sans-serif" font-size="11.2" lengthAdjust="spacing" textLength="65.6" x="371.6" y="20.4281">repositories</text><text fill="#000000" font-family="sans-serif" font-size="11.2" lengthAdjust="spacing" textLength="71.2" x="368.8" y="33.6188">:Repositories</text><rect fill="#E3E3E3" height="37.5813" rx="2" ry="2" style="stroke:#181818;stroke-width:0.4000000000000001;" width="82.4" x="363.2" y="754.4938"/><text fill="#000000" font-family="sans-serif" font-size="11.2" lengthAdjust="spacing" textLength="65.6" x="371.6" y="770.9219">repositories</text><text fill="#000000" font-family="sans-serif" font-size="11.2" lengthAdjust="spacing" textLength="71.2" x="368.8" y="784.1125">:Repositories</text><rect fill="#E3E3E3" height="37.5813" rx="2" ry="2" style="stroke:#181818;stroke-width:0.4000000000000001;" width="103.2" x="453.6" y="4"/><text fill="#000000" font-family="sans-serif" font-size="11.2" lengthAdjust="spacing" textLength="85.6" x="462.4" y="20.4281">teamRepository</text><text fill="#000000" font-family="sans-serif" font-size="11.2" lengthAdjust="spacing" textLength="92" x="459.2" y="33.6188">:TeamRepository</text><rect fill="#E3E3E3" height="37.5813" rx="2" ry="2" style="stroke:#181818;stroke-width:0.4000000000000001;" width="103.2" x="453.6" y="754.4938"/><text fill="#000000" font-family="sans-serif" font-size="11.2" lengthAdjust="spacing" textLength="85.6" x="462.4" y="770.9219">teamRepository</text><text fill="#000000" font-family="sans-serif" font-size="11.2" lengthAdjust="spacing" textLength="92" x="459.2" y="784.1125">:TeamRepository</text><rect fill="#E3E3E3" height="37.5813" rx="2" ry="2" style="stroke:#181818;stroke-width:0.4000000000000001;" width="44.8" x="674" y="4"/><text fill="#000000" font-family="sans-serif" font-size="11.2" lengthAdjust="spacing" textLength="27.2" x="682.8" y="20.4281">team</text><text fill="#000000" font-family="sans-serif" font-size="11.2" lengthAdjust="spacing" textLength="33.6" x="679.6" y="33.6188">:Team</text><rect fill="#E3E3E3" height="37.5813" rx="2" ry="2" style="stroke:#181818;stroke-width:0.4000000000000001;" width="44.8" x="674" y="754.4938"/><text fill="#000000" font-family="sans-serif" font-size="11.2" lengthAdjust="spacing" textLength="27.2" x="682.8" y="770.9219">team</text><text fill="#000000" font-family="sans-serif" font-size="11.2" lengthAdjust="spacing" textLength="33.6" x="679.6" y="784.1125">:Team</text><rect fill="#E3E3E3" height="37.5813" rx="2" ry="2" style="stroke:#181818;stroke-width:0.4000000000000001;" width="80.8" x="726.8" y="754.4938"/><text fill="#000000" font-family="sans-serif" font-size="11.2" lengthAdjust="spacing" textLength="51.2" x="741.6" y="770.9219">teamsList</text><text fill="#000000" font-family="sans-serif" font-size="11.2" lengthAdjust="spacing" textLength="69.6" x="732.4" y="784.1125">:List&lt;Team&gt;</text><rect fill="#E3E3E3" height="37.5813" rx="2" ry="2" style="stroke:#181818;stroke-width:0.4000000000000001;" width="86.4" x="837.6" y="4"/><text fill="#000000" font-family="sans-serif" font-size="11.2" lengthAdjust="spacing" textLength="68.8" x="846.4" y="20.4281">teamMapper</text><text fill="#000000" font-family="sans-serif" font-size="11.2" lengthAdjust="spacing" textLength="75.2" x="843.2" y="33.6188">:TeamMapper</text><rect fill="#E3E3E3" height="37.5813" rx="2" ry="2" style="stroke:#181818;stroke-width:0.4000000000000001;" width="86.4" x="837.6" y="754.4938"/><text fill="#000000" font-family="sans-serif" font-size="11.2" lengthAdjust="spacing" textLength="68.8" x="846.4" y="770.9219">teamMapper</text><text fill="#000000" font-family="sans-serif" font-size="11.2" lengthAdjust="spacing" textLength="75.2" x="843.2" y="784.1125">:TeamMapper</text><rect fill="#E3E3E3" height="37.5813" rx="2" ry="2" style="stroke:#181818;stroke-width:0.4000000000000001;" width="104.8" x="990" y="754.4938"/><text fill="#000000" font-family="sans-serif" font-size="11.2" lengthAdjust="spacing" textLength="51.2" x="1016.8" y="770.9219">teamsList</text><text fill="#000000" font-family="sans-serif" font-size="11.2" lengthAdjust="spacing" textLength="93.6" x="995.6" y="784.1125">:List&lt;TeamDTO&gt;</text><rect fill="#E3E3E3" height="37.5813" rx="2" ry="2" style="stroke:#181818;stroke-width:0.4000000000000001;" width="68.8" x="1102.8" y="754.4938"/><text fill="#000000" font-family="sans-serif" font-size="11.2" lengthAdjust="spacing" textLength="51.2" x="1111.6" y="770.9219">teamDTO</text><text fill="#000000" font-family="sans-serif" font-size="11.2" lengthAdjust="spacing" textLength="57.6" x="1108.4" y="784.1125">:TeamDTO</text><rect fill="#FFFFFF" height="680.6641" style="stroke:#181818;stroke-width:0.8000000000000002;" width="8" x="188.8" y="67.4297"/><rect fill="#FFFFFF" height="23.4484" style="stroke:#181818;stroke-width:0.8000000000000002;" width="8" x="310" y="110.3266"/><rect fill="#FFFFFF" height="23.4484" style="stroke:#181818;stroke-width:0.8000000000000002;" width="8" x="400.4" y="157.2234"/><rect fill="#FFFFFF" height="214.2719" style="stroke:#181818;stroke-width:0.8000000000000002;" width="8" x="501.2" y="204.1203"/><rect fill="#FFFFFF" height="23.4484" style="stroke:#181818;stroke-width:0.8000000000000002;" width="8" x="692.4" y="293.3984"/><rect fill="#FFFFFF" height="24" style="stroke:#181818;stroke-width:0.8000000000000002;" width="8" x="763.2" y="359.7438"/><rect fill="#FFFFFF" height="24" style="stroke:#181818;stroke-width:0.8000000000000002;" width="8" x="763.2" y="531.1188"/><rect fill="#FFFFFF" height="270.0047" style="stroke:#181818;stroke-width:0.8000000000000002;" width="8" x="876.8" y="441.8406"/><rect fill="#FFFFFF" height="27.4484" style="stroke:#181818;stroke-width:0.8000000000000002;" width="8" x="880.8" y="584.9672"/><rect fill="#FFFFFF" height="24" style="stroke:#181818;stroke-width:0.8000000000000002;" width="8" x="1038.4" y="658.7969"/><polygon fill="#181818" points="179.2,64.2297,187.2,67.4297,179.2,70.6297,182.4,67.4297" style="stroke:#181818;stroke-width:0.8000000000000002;"/><line style="stroke:#181818;stroke-width:0.8000000000000002;" x1="0" x2="184" y1="67.4297" y2="67.4297"/><text fill="#000000" font-family="sans-serif" font-size="10.4" font-weight="bold" lengthAdjust="spacing" textLength="14.4" x="5.6" y="63.6359">15</text><text fill="#000000" font-family="sans-serif" font-size="10.4" lengthAdjust="spacing" textLength="156" x="23.2" y="63.6359">getTeamsByCollaborator(email)</text><path d="M112.8,79.4297 L292,79.4297 L292,85.2781 L284,93.2781 L112.8,93.2781 L112.8,79.4297 " fill="#EEEEEE" style="stroke:#000000;stroke-width:1.2000000000000002;"/><rect fill="none" height="638.8156" style="stroke:#000000;stroke-width:1.2000000000000002;" width="1074.8" x="112.8" y="79.4297"/><text fill="#000000" font-family="sans-serif" font-size="10.4" font-weight="bold" lengthAdjust="spacing" textLength="143.2" x="124.8" y="90.2844">Get Teams By Collaborator</text><polygon fill="#181818" points="300.4,107.1266,308.4,110.3266,300.4,113.5266,303.6,110.3266" style="stroke:#181818;stroke-width:0.8000000000000002;"/><line style="stroke:#181818;stroke-width:0.8000000000000002;" x1="196.8" x2="305.2" y1="110.3266" y2="110.3266"/><text fill="#000000" font-family="sans-serif" font-size="10.4" font-weight="bold" lengthAdjust="spacing" textLength="24" x="202.4" y="106.5328">15.1</text><text fill="#000000" font-family="sans-serif" font-size="10.4" lengthAdjust="spacing" textLength="64.8" x="229.6" y="106.5328">getInstance()</text><polygon fill="#181818" points="205.6,130.575,197.6,133.775,205.6,136.975,202.4,133.775" style="stroke:#181818;stroke-width:0.8000000000000002;"/><line style="stroke:#181818;stroke-width:0.8000000000000002;stroke-dasharray:2.0,2.0;" x1="200.8" x2="313.2" y1="133.775" y2="133.775"/><text fill="#000000" font-family="sans-serif" font-size="10.4" font-weight="bold" lengthAdjust="spacing" textLength="24" x="210.4" y="129.9813">15.2</text><text fill="#000000" font-family="sans-serif" font-size="10.4" lengthAdjust="spacing" textLength="60" x="237.6" y="129.9813">repositories</text><polygon fill="#181818" points="390.8,154.0234,398.8,157.2234,390.8,160.4234,394,157.2234" style="stroke:#181818;stroke-width:0.8000000000000002;"/><line style="stroke:#181818;stroke-width:0.8000000000000002;" x1="196.8" x2="395.6" y1="157.2234" y2="157.2234"/><text fill="#000000" font-family="sans-serif" font-size="10.4" font-weight="bold" lengthAdjust="spacing" textLength="24" x="202.4" y="153.4297">15.3</text><text fill="#000000" font-family="sans-serif" font-size="10.4" lengthAdjust="spacing" textLength="100" x="229.6" y="153.4297">getTaskRepository()</text><polygon fill="#181818" points="205.6,177.4719,197.6,180.6719,205.6,183.8719,202.4,180.6719" style="stroke:#181818;stroke-width:0.8000000000000002;"/><line style="stroke:#181818;stroke-width:0.8000000000000002;stroke-dasharray:2.0,2.0;" x1="200.8" x2="403.6" y1="180.6719" y2="180.6719"/><text fill="#000000" font-family="sans-serif" font-size="10.4" font-weight="bold" lengthAdjust="spacing" textLength="24" x="210.4" y="176.8781">15.4</text><text fill="#000000" font-family="sans-serif" font-size="10.4" lengthAdjust="spacing" textLength="75.2" x="237.6" y="176.8781">taskRepository</text><polygon fill="#181818" points="491.6,200.9203,499.6,204.1203,491.6,207.3203,494.8,204.1203" style="stroke:#181818;stroke-width:0.8000000000000002;"/><line style="stroke:#181818;stroke-width:0.8000000000000002;" x1="196.8" x2="496.4" y1="204.1203" y2="204.1203"/><text fill="#000000" font-family="sans-serif" font-size="10.4" font-weight="bold" lengthAdjust="spacing" textLength="24" x="202.4" y="200.3266">15.5</text><text fill="#000000" font-family="sans-serif" font-size="10.4" lengthAdjust="spacing" textLength="156" x="229.6" y="200.3266">getTeamsByCollaborator(email)</text><polygon fill="#181818" points="717.2,224.3688,725.2,227.5688,717.2,230.7688,720.4,227.5688" style="stroke:#181818;stroke-width:0.8000000000000002;"/><line style="stroke:#181818;stroke-width:0.8000000000000002;" x1="509.2" x2="722" y1="227.5688" y2="227.5688"/><text fill="#000000" font-family="sans-serif" font-size="10.4" font-weight="bold" lengthAdjust="spacing" textLength="24" x="514.8" y="223.775">15.6</text><text fill="#000000" font-family="sans-serif" font-size="10.4" lengthAdjust="spacing" textLength="36.8" x="542" y="223.775">create()</text><rect fill="#E3E3E3" height="37.5813" rx="2" ry="2" style="stroke:#181818;stroke-width:0.4000000000000001;" width="80.8" x="726.8" y="210.5203"/><text fill="#000000" font-family="sans-serif" font-size="11.2" lengthAdjust="spacing" textLength="51.2" x="741.6" y="226.9484">teamsList</text><text fill="#000000" font-family="sans-serif" font-size="11.2" lengthAdjust="spacing" textLength="69.6" x="732.4" y="240.1391">:List&lt;Team&gt;</text><path d="M437.6,262.5016 L496.8,262.5016 L496.8,268.35 L488.8,276.35 L437.6,276.35 L437.6,262.5016 " fill="#EEEEEE" style="stroke:#000000;stroke-width:1.2000000000000002;"/><rect fill="none" height="133.2422" style="stroke:#000000;stroke-width:1.2000000000000002;" width="386" x="437.6" y="262.5016"/><text fill="#000000" font-family="sans-serif" font-size="10.4" font-weight="bold" lengthAdjust="spacing" textLength="23.2" x="449.6" y="273.3563">loop</text><text fill="#000000" font-family="sans-serif" font-size="8.8" font-weight="bold" lengthAdjust="spacing" textLength="64.8" x="508.8" y="272.6094">[for each task]</text><polygon fill="#181818" points="682.8,290.1984,690.8,293.3984,682.8,296.5984,686,293.3984" style="stroke:#181818;stroke-width:0.8000000000000002;"/><line style="stroke:#181818;stroke-width:0.8000000000000002;" x1="509.2" x2="687.6" y1="293.3984" y2="293.3984"/><text fill="#000000" font-family="sans-serif" font-size="10.4" font-weight="bold" lengthAdjust="spacing" textLength="24" x="514.8" y="289.6047">15.7</text><text fill="#000000" font-family="sans-serif" font-size="10.4" lengthAdjust="spacing" textLength="140.8" x="542" y="289.6047">hasCollaboratorEmail(email)</text><polygon fill="#181818" points="518,313.6469,510,316.8469,518,320.0469,514.8,316.8469" style="stroke:#181818;stroke-width:0.8000000000000002;"/><line style="stroke:#181818;stroke-width:0.8000000000000002;stroke-dasharray:2.0,2.0;" x1="513.2" x2="695.6" y1="316.8469" y2="316.8469"/><text fill="#000000" font-family="sans-serif" font-size="10.4" font-weight="bold" lengthAdjust="spacing" textLength="24" x="522.8" y="313.0531">15.8</text><text fill="#000000" font-family="sans-serif" font-size="10.4" lengthAdjust="spacing" textLength="49.6" x="550" y="313.0531">true/false</text><path d="M445.6,328.8469 L499.2,328.8469 L499.2,334.6953 L491.2,342.6953 L445.6,342.6953 L445.6,328.8469 " fill="#EEEEEE" style="stroke:#000000;stroke-width:1.2000000000000002;"/><rect fill="none" height="61.2969" style="stroke:#000000;stroke-width:1.2000000000000002;" width="370" x="445.6" y="328.8469"/><text fill="#000000" font-family="sans-serif" font-size="10.4" font-weight="bold" lengthAdjust="spacing" textLength="17.6" x="457.6" y="339.7016">opt</text><text fill="#000000" font-family="sans-serif" font-size="8.8" font-weight="bold" lengthAdjust="spacing" textLength="141.6" x="511.2" y="338.9547">[hasCollaboratorEmail == true]</text><polygon fill="#181818" points="753.6,356.5438,761.6,359.7438,753.6,362.9438,756.8,359.7438" style="stroke:#181818;stroke-width:0.8000000000000002;"/><line style="stroke:#181818;stroke-width:0.8000000000000002;" x1="509.2" x2="758.4" y1="359.7438" y2="359.7438"/><text fill="#000000" font-family="sans-serif" font-size="10.4" font-weight="bold" lengthAdjust="spacing" textLength="24" x="514.8" y="355.95">15.9</text><text fill="#000000" font-family="sans-serif" font-size="10.4" lengthAdjust="spacing" textLength="49.6" x="542" y="355.95">add(team)</text><polygon fill="#181818" points="205.6,415.1922,197.6,418.3922,205.6,421.5922,202.4,418.3922" style="stroke:#181818;stroke-width:0.8000000000000002;"/><line style="stroke:#181818;stroke-width:0.8000000000000002;stroke-dasharray:2.0,2.0;" x1="200.8" x2="504.4" y1="418.3922" y2="418.3922"/><text fill="#000000" font-family="sans-serif" font-size="10.4" font-weight="bold" lengthAdjust="spacing" textLength="31.2" x="210.4" y="414.5984">15.10</text><text fill="#000000" font-family="sans-serif" font-size="10.4" lengthAdjust="spacing" textLength="30.4" x="244.8" y="414.5984">teams</text><polygon fill="#181818" points="867.2,438.6406,875.2,441.8406,867.2,445.0406,870.4,441.8406" style="stroke:#181818;stroke-width:0.8000000000000002;"/><line style="stroke:#181818;stroke-width:0.8000000000000002;" x1="196.8" x2="872" y1="441.8406" y2="441.8406"/><text fill="#000000" font-family="sans-serif" font-size="10.4" font-weight="bold" lengthAdjust="spacing" textLength="31.2" x="202.4" y="438.0469">15.11</text><text fill="#000000" font-family="sans-serif" font-size="10.4" lengthAdjust="spacing" textLength="69.6" x="236.8" y="438.0469">toDTO(teams)</text><polygon fill="#181818" points="980.4,462.0891,988.4,465.2891,980.4,468.4891,983.6,465.2891" style="stroke:#181818;stroke-width:0.8000000000000002;"/><line style="stroke:#181818;stroke-width:0.8000000000000002;" x1="884.8" x2="985.2" y1="465.2891" y2="465.2891"/><text fill="#000000" font-family="sans-serif" font-size="10.4" font-weight="bold" lengthAdjust="spacing" textLength="31.2" x="890.4" y="461.4953">15.12</text><text fill="#000000" font-family="sans-serif" font-size="10.4" lengthAdjust="spacing" textLength="36.8" x="924.8" y="461.4953">create()</text><rect fill="#E3E3E3" height="37.5813" rx="2" ry="2" style="stroke:#181818;stroke-width:0.4000000000000001;" width="104.8" x="990" y="448.2406"/><text fill="#000000" font-family="sans-serif" font-size="11.2" lengthAdjust="spacing" textLength="51.2" x="1016.8" y="464.6688">teamsList</text><text fill="#000000" font-family="sans-serif" font-size="11.2" lengthAdjust="spacing" textLength="93.6" x="995.6" y="477.8594">:List&lt;TeamDTO&gt;</text><path d="M718.8,500.2219 L778,500.2219 L778,506.0703 L770,514.0703 L718.8,514.0703 L718.8,500.2219 " fill="#EEEEEE" style="stroke:#000000;stroke-width:1.2000000000000002;"/><rect fill="none" height="188.975" style="stroke:#000000;stroke-width:1.2000000000000002;" width="460.8" x="718.8" y="500.2219"/><text fill="#000000" font-family="sans-serif" font-size="10.4" font-weight="bold" lengthAdjust="spacing" textLength="23.2" x="730.8" y="511.0766">loop</text><text fill="#000000" font-family="sans-serif" font-size="8.8" font-weight="bold" lengthAdjust="spacing" textLength="124" x="790" y="510.3297">[for each team in TeamList]</text><polygon fill="#181818" points="780,527.9188,772,531.1188,780,534.3188,776.8,531.1188" style="stroke:#181818;stroke-width:0.8000000000000002;"/><line style="stroke:#181818;stroke-width:0.8000000000000002;" x1="775.2" x2="876" y1="531.1188" y2="531.1188"/><text fill="#000000" font-family="sans-serif" font-size="10.4" font-weight="bold" lengthAdjust="spacing" textLength="31.2" x="784.8" y="527.325">15.13</text><text fill="#000000" font-family="sans-serif" font-size="10.4" lengthAdjust="spacing" textLength="56" x="819.2" y="527.325">obj = get(i)</text><line style="stroke:#181818;stroke-width:0.8000000000000002;" x1="884.8" x2="922.4" y1="574.5672" y2="574.5672"/><line style="stroke:#181818;stroke-width:0.8000000000000002;" x1="922.4" x2="922.4" y1="574.5672" y2="584.9672"/><line style="stroke:#181818;stroke-width:0.8000000000000002;" x1="889.6" x2="922.4" y1="584.9672" y2="584.9672"/><polygon fill="#181818" points="897.6,581.7672,889.6,584.9672,897.6,588.1672,894.4,584.9672" style="stroke:#181818;stroke-width:0.8000000000000002;"/><text fill="#000000" font-family="sans-serif" font-size="10.4" font-weight="bold" lengthAdjust="spacing" textLength="31.2" x="894.4" y="570.7734">15.14</text><text fill="#000000" font-family="sans-serif" font-size="10.4" lengthAdjust="spacing" textLength="108" x="928.8" y="570.7734">objDTO = toDTO(obj)</text><polygon fill="#181818" points="1093.2,609.2156,1101.2,612.4156,1093.2,615.6156,1096.4,612.4156" style="stroke:#181818;stroke-width:0.8000000000000002;"/><line style="stroke:#181818;stroke-width:0.8000000000000002;" x1="884.8" x2="1098" y1="612.4156" y2="612.4156"/><text fill="#000000" font-family="sans-serif" font-size="10.4" font-weight="bold" lengthAdjust="spacing" textLength="31.2" x="890.4" y="608.6219">15.15</text><text fill="#000000" font-family="sans-serif" font-size="10.4" lengthAdjust="spacing" textLength="46.4" x="924.8" y="608.6219">create(...)</text><rect fill="#E3E3E3" height="37.5813" rx="2" ry="2" style="stroke:#181818;stroke-width:0.4000000000000001;" width="68.8" x="1102.8" y="595.3672"/><text fill="#000000" font-family="sans-serif" font-size="11.2" lengthAdjust="spacing" textLength="51.2" x="1111.6" y="611.7953">teamDTO</text><text fill="#000000" font-family="sans-serif" font-size="11.2" lengthAdjust="spacing" textLength="57.6" x="1108.4" y="624.9859">:TeamDTO</text><polygon fill="#181818" points="1028.8,655.5969,1036.8,658.7969,1028.8,661.9969,1032,658.7969" style="stroke:#181818;stroke-width:0.8000000000000002;"/><line style="stroke:#181818;stroke-width:0.8000000000000002;" x1="884.8" x2="1033.6" y1="658.7969" y2="658.7969"/><text fill="#000000" font-family="sans-serif" font-size="10.4" font-weight="bold" lengthAdjust="spacing" textLength="31.2" x="890.4" y="655.0031">15.16</text><text fill="#000000" font-family="sans-serif" font-size="10.4" lengthAdjust="spacing" textLength="63.2" x="924.8" y="655.0031">add(objDTO)</text><polygon fill="#181818" points="205.6,708.6453,197.6,711.8453,205.6,715.0453,202.4,711.8453" style="stroke:#181818;stroke-width:0.8000000000000002;"/><line style="stroke:#181818;stroke-width:0.8000000000000002;stroke-dasharray:2.0,2.0;" x1="200.8" x2="880" y1="711.8453" y2="711.8453"/><text fill="#000000" font-family="sans-serif" font-size="10.4" font-weight="bold" lengthAdjust="spacing" textLength="31.2" x="210.4" y="708.0516">15.17</text><text fill="#000000" font-family="sans-serif" font-size="10.4" lengthAdjust="spacing" textLength="52.8" x="244.8" y="708.0516">teamsDTO</text><polygon fill="#181818" points="8.8,737.6938,0.8,740.8938,8.8,744.0938,5.6,740.8938" style="stroke:#181818;stroke-width:0.8000000000000002;"/><line style="stroke:#181818;stroke-width:0.8000000000000002;stroke-dasharray:2.0,2.0;" x1="4" x2="188" y1="740.8938" y2="740.8938"/><text fill="#000000" font-family="sans-serif" font-size="10.4" font-weight="bold" lengthAdjust="spacing" textLength="14.4" x="13.6" y="737.1">33</text><text fill="#000000" font-family="sans-serif" font-size="10.4" lengthAdjust="spacing" textLength="52.8" x="31.2" y="737.1">teamsDTO</text><!--SRC=[hLN1Rjim3BtxAuYUaWB9K1Ix14s1DHk60Hasj3xkejYgeyMM34dUaByV9JcER2cn0yoNn3JV8_b8KUh0U4qagQ0IN6HxAIeAMZOqKTsNccG7Kj0tVImfI9ffmelITr1xaek_Z1VmJaf5amJDccMi9bp3tMeZk6fAdH9rKFXVIr6MLDu1KR19NxS3xrTQ2yMqa8mgwzCPZc_C1DQ2zo7IG_pY8S7FxQUqZz2KL6TQnAGzWqNrJI6-HNM-eOVQCgNHpVmy6PVdpjb-2X7VILrJsJAxbmxYNYT4-Pp-60H2IuX3Oni8_tN-nZKX3MhSL3iguU5ZidYsRO8L55HRpfVZ1bj8Ta8Ir6P6AyBA-G2sV413fjaVegbhC-1JID7Ky9Lgbnoy7C6diZxjOsDYx4ZxNIhVkC99pEXixiEwcB6nyHrZl8ksrXNuC-MZSZevmAa0CtwjU7W2pgWBUTjfzRzO_3aptIEva5j0SagcFzMZFON-q_4F3iVGRn2bZMjd4UxlCMecATBCWW2b43My2mbOojwMEeqQAVT4-HLyCGLCAIEQlDKxqChinGzknGqmdlHHJb7hQ8AmNhjj2-5pJSGLa3oVcMCyZq5xoRXT4_4Q91trepmtoISnksdMQElFsyCkgn7XBioKFxrk3ne-WSlAQg2kTxZTdB5CMp9VMoIzQKRDj31kyJ41BqH1Vh7x3Mjp_cRiUlxHnaIRDnwyKm-ZcqhNhOpu-fz47EgtN2xd8ydVtY0t_ww62UAPMss2VlRoksNGJzaDXdmytAbYmsxlHF_oV7nCdXQBWF4V]--></g></svg>