<?xml version="1.0" encoding="us-ascii" standalone="no"?><svg xmlns="http://www.w3.org/2000/svg" xmlns:xlink="http://www.w3.org/1999/xlink" contentStyleType="text/css" height="1262.4px" preserveAspectRatio="none" style="width:1632px;height:1262px;background:#FFFFFF;" version="1.1" viewBox="0 0 1632 1262" width="1632.8px" zoomAndPan="magnify"><defs/><g><text fill="#000000" font-family="sans-serif" font-size="11.2" font-weight="bold" lengthAdjust="spacing" textLength="308.8" x="663.2" y="22.8281">US028 - Consult the tasks assigned to a collaborator</text><rect fill="#FFFFFF" height="1080.6734" style="stroke:#181818;stroke-width:0.8000000000000002;" width="8" x="37.2" y="103.1813"/><rect fill="#FFFFFF" height="56.6391" style="stroke:#181818;stroke-width:0.8000000000000002;" width="8" x="363.6" y="120.2297"/><rect fill="#FFFFFF" height="23.4484" style="stroke:#181818;stroke-width:0.8000000000000002;" width="8" x="363.6" y="200.3172"/><rect fill="#FFFFFF" height="23.4484" style="stroke:#181818;stroke-width:0.8000000000000002;" width="8" x="363.6" y="247.2141"/><rect fill="#FFFFFF" height="889.7438" style="stroke:#181818;stroke-width:0.8000000000000002;" width="8" x="363.6" y="294.1109"/><rect fill="#FFFFFF" height="164.1391" style="stroke:#181818;stroke-width:0.8000000000000002;" width="8" x="654.8" y="317.5594"/><rect fill="#FFFFFF" height="303.7813" style="stroke:#181818;stroke-width:0.8000000000000002;" width="8" x="654.8" y="505.1469"/><rect fill="#FFFFFF" height="138.0422" style="stroke:#181818;stroke-width:0.8000000000000002;" width="8" x="654.8" y="851.825"/><rect fill="#FFFFFF" height="152.6906" style="stroke:#181818;stroke-width:0.8000000000000002;" width="8" x="654.8" y="1038.3641"/><rect fill="#FFFFFF" height="23.4484" style="stroke:#181818;stroke-width:0.8000000000000002;" width="8" x="794" y="341.0078"/><rect fill="#FFFFFF" height="23.4484" style="stroke:#181818;stroke-width:0.8000000000000002;" width="8" x="920.4" y="387.9047"/><rect fill="#FFFFFF" height="23.4484" style="stroke:#181818;stroke-width:0.8000000000000002;" width="8" x="1034" y="434.8016"/><rect fill="#FFFFFF" height="23.4484" style="stroke:#181818;stroke-width:0.8000000000000002;" width="8" x="1129.6" y="528.5953"/><rect fill="#FFFFFF" height="23.4484" style="stroke:#181818;stroke-width:0.8000000000000002;" width="8" x="1220" y="575.4922"/><rect fill="#FFFFFF" height="163.0906" style="stroke:#181818;stroke-width:0.8000000000000002;" width="8" x="1318.4" y="622.3891"/><rect fill="#FFFFFF" height="104.1938" style="stroke:#181818;stroke-width:0.8000000000000002;" width="8" x="1322.4" y="652.2375"/><rect fill="#FFFFFF" height="91.1453" style="stroke:#181818;stroke-width:0.8000000000000002;" width="8" x="1318.4" y="875.2734"/><rect fill="#FFFFFF" height="57.2969" style="stroke:#181818;stroke-width:0.8000000000000002;" width="8" x="1318.4" y="1061.8125"/><rect fill="#FFFFFF" height="23.4484" style="stroke:#181818;stroke-width:0.8000000000000002;" width="8" x="1584" y="699.1344"/><rect fill="none" height="60.7453" style="stroke:#000000;stroke-width:1.2000000000000002;" width="362.8" x="1265.2" y="668.2375"/><rect fill="none" height="175.3391" style="stroke:#000000;stroke-width:1.2000000000000002;" width="1278" x="310" y="820.9281"/><rect fill="none" height="141.4906" style="stroke:#000000;stroke-width:1.2000000000000002;" width="1146" x="310" y="1007.4672"/><line style="stroke:#181818;stroke-width:0.4000000000000001;stroke-dasharray:5.0,5.0;" x1="40.8" x2="40.8" y1="95.1813" y2="1198.2547"/><line style="stroke:#181818;stroke-width:0.4000000000000001;stroke-dasharray:5.0,5.0;" x1="367.6" x2="367.6" y1="95.1813" y2="1198.2547"/><line style="stroke:#181818;stroke-width:0.4000000000000001;stroke-dasharray:5.0,5.0;" x1="658.8" x2="658.8" y1="151.225" y2="1198.2547"/><line style="stroke:#181818;stroke-width:0.4000000000000001;stroke-dasharray:5.0,5.0;" x1="798" x2="798" y1="95.1813" y2="1198.2547"/><line style="stroke:#181818;stroke-width:0.4000000000000001;stroke-dasharray:5.0,5.0;" x1="924.4" x2="924.4" y1="95.1813" y2="1198.2547"/><line style="stroke:#181818;stroke-width:0.4000000000000001;stroke-dasharray:5.0,5.0;" x1="1038" x2="1038" y1="95.1813" y2="1198.2547"/><line style="stroke:#181818;stroke-width:0.4000000000000001;stroke-dasharray:5.0,5.0;" x1="1133.2" x2="1133.2" y1="95.1813" y2="1198.2547"/><line style="stroke:#181818;stroke-width:0.4000000000000001;stroke-dasharray:5.0,5.0;" x1="1223.6" x2="1223.6" y1="95.1813" y2="1198.2547"/><line style="stroke:#181818;stroke-width:0.4000000000000001;stroke-dasharray:5.0,5.0;" x1="1322" x2="1322" y1="95.1813" y2="1198.2547"/><line style="stroke:#181818;stroke-width:0.4000000000000001;stroke-dasharray:5.0,5.0;" x1="1588" x2="1588" y1="95.1813" y2="1198.2547"/><text fill="#000000" font-family="sans-serif" font-size="11.2" lengthAdjust="spacing" textLength="69.6" x="4" y="92.8188">Collaborator</text><ellipse cx="41.2" cy="40.7906" fill="#E3E3E3" rx="6.4" ry="6.4" style="stroke:#181818;stroke-width:0.4000000000000001;"/><path d="M41.2,47.1906 L41.2,68.7906 M30.8,53.5906 L51.6,53.5906 M41.2,68.7906 L30.8,80.7906 M41.2,68.7906 L51.6,80.7906 " fill="none" style="stroke:#181818;stroke-width:0.4000000000000001;"/><text fill="#000000" font-family="sans-serif" font-size="11.2" lengthAdjust="spacing" textLength="69.6" x="4" y="1208.2828">Collaborator</text><ellipse cx="41.2" cy="1217.4453" fill="#E3E3E3" rx="6.4" ry="6.4" style="stroke:#181818;stroke-width:0.4000000000000001;"/><path d="M41.2,1223.8453 L41.2,1245.4453 M30.8,1230.2453 L51.6,1230.2453 M41.2,1245.4453 L30.8,1257.4453 M41.2,1245.4453 L51.6,1257.4453 " fill="none" style="stroke:#181818;stroke-width:0.4000000000000001;"/><rect fill="#E3E3E3" height="24.3906" rx="2" ry="2" style="stroke:#181818;stroke-width:0.4000000000000001;" width="99.2" x="318" y="69.9906"/><text fill="#000000" font-family="sans-serif" font-size="11.2" lengthAdjust="spacing" textLength="88" x="323.6" y="86.4188">:ConsultTasksUI</text><rect fill="#E3E3E3" height="24.3906" rx="2" ry="2" style="stroke:#181818;stroke-width:0.4000000000000001;" width="99.2" x="318" y="1197.4547"/><text fill="#000000" font-family="sans-serif" font-size="11.2" lengthAdjust="spacing" textLength="88" x="323.6" y="1213.8828">:ConsultTasksUI</text><rect fill="#E3E3E3" height="24.3906" rx="2" ry="2" style="stroke:#181818;stroke-width:0.4000000000000001;" width="144" x="586.8" y="1197.4547"/><text fill="#000000" font-family="sans-serif" font-size="11.2" lengthAdjust="spacing" textLength="132.8" x="592.4" y="1213.8828">:ConsultTasksController</text><rect fill="#E3E3E3" height="24.3906" rx="2" ry="2" style="stroke:#181818;stroke-width:0.4000000000000001;" width="118.4" x="738.8" y="69.9906"/><text fill="#000000" font-family="sans-serif" font-size="11.2" lengthAdjust="spacing" textLength="107.2" x="744.4" y="86.4188">:ApplicationSession</text><rect fill="#E3E3E3" height="24.3906" rx="2" ry="2" style="stroke:#181818;stroke-width:0.4000000000000001;" width="118.4" x="738.8" y="1197.4547"/><text fill="#000000" font-family="sans-serif" font-size="11.2" lengthAdjust="spacing" textLength="107.2" x="744.4" y="1213.8828">:ApplicationSession</text><rect fill="#E3E3E3" height="37.5813" rx="2" ry="2" style="stroke:#181818;stroke-width:0.4000000000000001;" width="118.4" x="865.2" y="56.8"/><text fill="#000000" font-family="sans-serif" font-size="11.2" lengthAdjust="spacing" textLength="62.4" x="893.2" y="73.2281">appSession</text><text fill="#000000" font-family="sans-serif" font-size="11.2" lengthAdjust="spacing" textLength="107.2" x="870.8" y="86.4188">:ApplicationSession</text><rect fill="#E3E3E3" height="37.5813" rx="2" ry="2" style="stroke:#181818;stroke-width:0.4000000000000001;" width="118.4" x="865.2" y="1197.4547"/><text fill="#000000" font-family="sans-serif" font-size="11.2" lengthAdjust="spacing" textLength="62.4" x="893.2" y="1213.8828">appSession</text><text fill="#000000" font-family="sans-serif" font-size="11.2" lengthAdjust="spacing" textLength="107.2" x="870.8" y="1227.0734">:ApplicationSession</text><rect fill="#E3E3E3" height="37.5813" rx="2" ry="2" style="stroke:#181818;stroke-width:0.4000000000000001;" width="92.8" x="991.6" y="56.8"/><text fill="#000000" font-family="sans-serif" font-size="11.2" lengthAdjust="spacing" textLength="81.6" x="997.2" y="73.2281">currentSession</text><text fill="#000000" font-family="sans-serif" font-size="11.2" lengthAdjust="spacing" textLength="69.6" x="1003.2" y="86.4188">:UserSession</text><rect fill="#E3E3E3" height="37.5813" rx="2" ry="2" style="stroke:#181818;stroke-width:0.4000000000000001;" width="92.8" x="991.6" y="1197.4547"/><text fill="#000000" font-family="sans-serif" font-size="11.2" lengthAdjust="spacing" textLength="81.6" x="997.2" y="1213.8828">currentSession</text><text fill="#000000" font-family="sans-serif" font-size="11.2" lengthAdjust="spacing" textLength="69.6" x="1003.2" y="1227.0734">:UserSession</text><rect fill="#E3E3E3" height="24.3906" rx="2" ry="2" style="stroke:#181818;stroke-width:0.4000000000000001;" width="82.4" x="1092.4" y="69.9906"/><text fill="#000000" font-family="sans-serif" font-size="11.2" lengthAdjust="spacing" textLength="71.2" x="1098" y="86.4188">:Repositories</text><rect fill="#E3E3E3" height="24.3906" rx="2" ry="2" style="stroke:#181818;stroke-width:0.4000000000000001;" width="82.4" x="1092.4" y="1197.4547"/><text fill="#000000" font-family="sans-serif" font-size="11.2" lengthAdjust="spacing" textLength="71.2" x="1098" y="1213.8828">:Repositories</text><rect fill="#E3E3E3" height="37.5813" rx="2" ry="2" style="stroke:#181818;stroke-width:0.4000000000000001;" width="82.4" x="1182.8" y="56.8"/><text fill="#000000" font-family="sans-serif" font-size="11.2" lengthAdjust="spacing" textLength="65.6" x="1191.2" y="73.2281">repositories</text><text fill="#000000" font-family="sans-serif" font-size="11.2" lengthAdjust="spacing" textLength="71.2" x="1188.4" y="86.4188">:Repositories</text><rect fill="#E3E3E3" height="37.5813" rx="2" ry="2" style="stroke:#181818;stroke-width:0.4000000000000001;" width="82.4" x="1182.8" y="1197.4547"/><text fill="#000000" font-family="sans-serif" font-size="11.2" lengthAdjust="spacing" textLength="65.6" x="1191.2" y="1213.8828">repositories</text><text fill="#000000" font-family="sans-serif" font-size="11.2" lengthAdjust="spacing" textLength="71.2" x="1188.4" y="1227.0734">:Repositories</text><rect fill="#E3E3E3" height="37.5813" rx="2" ry="2" style="stroke:#181818;stroke-width:0.4000000000000001;" width="98.4" x="1273.2" y="56.8"/><text fill="#000000" font-family="sans-serif" font-size="11.2" lengthAdjust="spacing" textLength="80.8" x="1282" y="73.2281">taskRepository</text><text fill="#000000" font-family="sans-serif" font-size="11.2" lengthAdjust="spacing" textLength="87.2" x="1278.8" y="86.4188">:TaskRepository</text><rect fill="#E3E3E3" height="37.5813" rx="2" ry="2" style="stroke:#181818;stroke-width:0.4000000000000001;" width="98.4" x="1273.2" y="1197.4547"/><text fill="#000000" font-family="sans-serif" font-size="11.2" lengthAdjust="spacing" textLength="80.8" x="1282" y="1213.8828">taskRepository</text><text fill="#000000" font-family="sans-serif" font-size="11.2" lengthAdjust="spacing" textLength="87.2" x="1278.8" y="1227.0734">:TaskRepository</text><rect fill="#E3E3E3" height="37.5813" rx="2" ry="2" style="stroke:#181818;stroke-width:0.4000000000000001;" width="64" x="1556" y="56.8"/><text fill="#000000" font-family="sans-serif" font-size="11.2" lengthAdjust="spacing" textLength="46.4" x="1564.8" y="73.2281">taskDTO</text><text fill="#000000" font-family="sans-serif" font-size="11.2" lengthAdjust="spacing" textLength="52.8" x="1561.6" y="86.4188">:TaskDTO</text><rect fill="#E3E3E3" height="37.5813" rx="2" ry="2" style="stroke:#181818;stroke-width:0.4000000000000001;" width="64" x="1556" y="1197.4547"/><text fill="#000000" font-family="sans-serif" font-size="11.2" lengthAdjust="spacing" textLength="46.4" x="1564.8" y="1213.8828">taskDTO</text><text fill="#000000" font-family="sans-serif" font-size="11.2" lengthAdjust="spacing" textLength="52.8" x="1561.6" y="1227.0734">:TaskDTO</text><rect fill="#FFFFFF" height="1080.6734" style="stroke:#181818;stroke-width:0.8000000000000002;" width="8" x="37.2" y="103.1813"/><rect fill="#FFFFFF" height="56.6391" style="stroke:#181818;stroke-width:0.8000000000000002;" width="8" x="363.6" y="120.2297"/><rect fill="#FFFFFF" height="23.4484" style="stroke:#181818;stroke-width:0.8000000000000002;" width="8" x="363.6" y="200.3172"/><rect fill="#FFFFFF" height="23.4484" style="stroke:#181818;stroke-width:0.8000000000000002;" width="8" x="363.6" y="247.2141"/><rect fill="#FFFFFF" height="889.7438" style="stroke:#181818;stroke-width:0.8000000000000002;" width="8" x="363.6" y="294.1109"/><rect fill="#FFFFFF" height="164.1391" style="stroke:#181818;stroke-width:0.8000000000000002;" width="8" x="654.8" y="317.5594"/><rect fill="#FFFFFF" height="303.7813" style="stroke:#181818;stroke-width:0.8000000000000002;" width="8" x="654.8" y="505.1469"/><rect fill="#FFFFFF" height="138.0422" style="stroke:#181818;stroke-width:0.8000000000000002;" width="8" x="654.8" y="851.825"/><rect fill="#FFFFFF" height="152.6906" style="stroke:#181818;stroke-width:0.8000000000000002;" width="8" x="654.8" y="1038.3641"/><rect fill="#FFFFFF" height="23.4484" style="stroke:#181818;stroke-width:0.8000000000000002;" width="8" x="794" y="341.0078"/><rect fill="#FFFFFF" height="23.4484" style="stroke:#181818;stroke-width:0.8000000000000002;" width="8" x="920.4" y="387.9047"/><rect fill="#FFFFFF" height="23.4484" style="stroke:#181818;stroke-width:0.8000000000000002;" width="8" x="1034" y="434.8016"/><rect fill="#FFFFFF" height="23.4484" style="stroke:#181818;stroke-width:0.8000000000000002;" width="8" x="1129.6" y="528.5953"/><rect fill="#FFFFFF" height="23.4484" style="stroke:#181818;stroke-width:0.8000000000000002;" width="8" x="1220" y="575.4922"/><rect fill="#FFFFFF" height="163.0906" style="stroke:#181818;stroke-width:0.8000000000000002;" width="8" x="1318.4" y="622.3891"/><rect fill="#FFFFFF" height="104.1938" style="stroke:#181818;stroke-width:0.8000000000000002;" width="8" x="1322.4" y="652.2375"/><rect fill="#FFFFFF" height="91.1453" style="stroke:#181818;stroke-width:0.8000000000000002;" width="8" x="1318.4" y="875.2734"/><rect fill="#FFFFFF" height="57.2969" style="stroke:#181818;stroke-width:0.8000000000000002;" width="8" x="1318.4" y="1061.8125"/><rect fill="#FFFFFF" height="23.4484" style="stroke:#181818;stroke-width:0.8000000000000002;" width="8" x="1584" y="699.1344"/><polygon fill="#181818" points="354,117.0297,362,120.2297,354,123.4297,357.2,120.2297" style="stroke:#181818;stroke-width:0.8000000000000002;"/><line style="stroke:#181818;stroke-width:0.8000000000000002;" x1="45.2" x2="358.8" y1="120.2297" y2="120.2297"/><text fill="#000000" font-family="sans-serif" font-size="10.4" font-weight="bold" lengthAdjust="spacing" textLength="7.2" x="50.8" y="116.4359">1</text><text fill="#000000" font-family="sans-serif" font-size="10.4" lengthAdjust="spacing" textLength="252.8" x="61.2" y="116.4359">asks to consult the tasks assigned to collaborator</text><polygon fill="#181818" points="577.2,140.4781,585.2,143.6781,577.2,146.8781,580.4,143.6781" style="stroke:#181818;stroke-width:0.8000000000000002;"/><line style="stroke:#181818;stroke-width:0.8000000000000002;" x1="371.6" x2="582" y1="143.6781" y2="143.6781"/><text fill="#000000" font-family="sans-serif" font-size="10.4" font-weight="bold" lengthAdjust="spacing" textLength="7.2" x="377.2" y="139.8844">2</text><text fill="#000000" font-family="sans-serif" font-size="10.4" lengthAdjust="spacing" textLength="30.4" x="387.6" y="139.8844">create</text><rect fill="#E3E3E3" height="24.3906" rx="2" ry="2" style="stroke:#181818;stroke-width:0.4000000000000001;" width="144" x="586.8" y="126.6297"/><text fill="#000000" font-family="sans-serif" font-size="11.2" lengthAdjust="spacing" textLength="132.8" x="592.4" y="143.0578">:ConsultTasksController</text><polygon fill="#181818" points="54,173.6688,46,176.8688,54,180.0688,50.8,176.8688" style="stroke:#181818;stroke-width:0.8000000000000002;"/><line style="stroke:#181818;stroke-width:0.8000000000000002;stroke-dasharray:2.0,2.0;" x1="49.2" x2="366.8" y1="176.8688" y2="176.8688"/><text fill="#000000" font-family="sans-serif" font-size="10.4" font-weight="bold" lengthAdjust="spacing" textLength="7.2" x="58.8" y="173.075">3</text><text fill="#000000" font-family="sans-serif" font-size="10.4" lengthAdjust="spacing" textLength="92" x="69.2" y="173.075">requests first date</text><polygon fill="#181818" points="354,197.1172,362,200.3172,354,203.5172,357.2,200.3172" style="stroke:#181818;stroke-width:0.8000000000000002;"/><line style="stroke:#181818;stroke-width:0.8000000000000002;" x1="45.2" x2="358.8" y1="200.3172" y2="200.3172"/><text fill="#000000" font-family="sans-serif" font-size="10.4" font-weight="bold" lengthAdjust="spacing" textLength="7.2" x="50.8" y="196.5234">4</text><text fill="#000000" font-family="sans-serif" font-size="10.4" lengthAdjust="spacing" textLength="76" x="61.2" y="196.5234">types first date</text><polygon fill="#181818" points="54,220.5656,46,223.7656,54,226.9656,50.8,223.7656" style="stroke:#181818;stroke-width:0.8000000000000002;"/><line style="stroke:#181818;stroke-width:0.8000000000000002;stroke-dasharray:2.0,2.0;" x1="49.2" x2="366.8" y1="223.7656" y2="223.7656"/><text fill="#000000" font-family="sans-serif" font-size="10.4" font-weight="bold" lengthAdjust="spacing" textLength="7.2" x="58.8" y="219.9719">5</text><text fill="#000000" font-family="sans-serif" font-size="10.4" lengthAdjust="spacing" textLength="107.2" x="69.2" y="219.9719">requests second date</text><polygon fill="#181818" points="354,244.0141,362,247.2141,354,250.4141,357.2,247.2141" style="stroke:#181818;stroke-width:0.8000000000000002;"/><line style="stroke:#181818;stroke-width:0.8000000000000002;" x1="45.2" x2="358.8" y1="247.2141" y2="247.2141"/><text fill="#000000" font-family="sans-serif" font-size="10.4" font-weight="bold" lengthAdjust="spacing" textLength="7.2" x="50.8" y="243.4203">6</text><text fill="#000000" font-family="sans-serif" font-size="10.4" lengthAdjust="spacing" textLength="91.2" x="61.2" y="243.4203">types second date</text><polygon fill="#181818" points="54,267.4625,46,270.6625,54,273.8625,50.8,270.6625" style="stroke:#181818;stroke-width:0.8000000000000002;"/><line style="stroke:#181818;stroke-width:0.8000000000000002;stroke-dasharray:2.0,2.0;" x1="49.2" x2="366.8" y1="270.6625" y2="270.6625"/><text fill="#000000" font-family="sans-serif" font-size="10.4" font-weight="bold" lengthAdjust="spacing" textLength="7.2" x="58.8" y="266.8688">7</text><text fill="#000000" font-family="sans-serif" font-size="10.4" lengthAdjust="spacing" textLength="288.8" x="69.2" y="266.8688">asks if collaborator wants to view tasks filtered by status</text><polygon fill="#181818" points="354,290.9109,362,294.1109,354,297.3109,357.2,294.1109" style="stroke:#181818;stroke-width:0.8000000000000002;"/><line style="stroke:#181818;stroke-width:0.8000000000000002;" x1="45.2" x2="358.8" y1="294.1109" y2="294.1109"/><text fill="#000000" font-family="sans-serif" font-size="10.4" font-weight="bold" lengthAdjust="spacing" textLength="7.2" x="50.8" y="290.3172">8</text><text fill="#000000" font-family="sans-serif" font-size="10.4" lengthAdjust="spacing" textLength="90.4" x="61.2" y="290.3172">answers yes or no</text><polygon fill="#181818" points="645.2,314.3594,653.2,317.5594,645.2,320.7594,648.4,317.5594" style="stroke:#181818;stroke-width:0.8000000000000002;"/><line style="stroke:#181818;stroke-width:0.8000000000000002;" x1="371.6" x2="650" y1="317.5594" y2="317.5594"/><text fill="#000000" font-family="sans-serif" font-size="10.4" font-weight="bold" lengthAdjust="spacing" textLength="7.2" x="377.2" y="313.7656">9</text><text fill="#000000" font-family="sans-serif" font-size="10.4" lengthAdjust="spacing" textLength="112" x="387.6" y="313.7656">getEmailCollaborator()</text><polygon fill="#181818" points="784.4,337.8078,792.4,341.0078,784.4,344.2078,787.6,341.0078" style="stroke:#181818;stroke-width:0.8000000000000002;"/><line style="stroke:#181818;stroke-width:0.8000000000000002;" x1="662.8" x2="789.2" y1="341.0078" y2="341.0078"/><text fill="#000000" font-family="sans-serif" font-size="10.4" font-weight="bold" lengthAdjust="spacing" textLength="14.4" x="668.4" y="337.2141">10</text><text fill="#000000" font-family="sans-serif" font-size="10.4" lengthAdjust="spacing" textLength="64.8" x="686" y="337.2141">getInstance()</text><polygon fill="#181818" points="671.6,361.2563,663.6,364.4563,671.6,367.6563,668.4,364.4563" style="stroke:#181818;stroke-width:0.8000000000000002;"/><line style="stroke:#181818;stroke-width:0.8000000000000002;stroke-dasharray:2.0,2.0;" x1="666.8" x2="797.2" y1="364.4563" y2="364.4563"/><text fill="#000000" font-family="sans-serif" font-size="10.4" font-weight="bold" lengthAdjust="spacing" textLength="14.4" x="676.4" y="360.6625">11</text><text fill="#000000" font-family="sans-serif" font-size="10.4" lengthAdjust="spacing" textLength="56.8" x="694" y="360.6625">appSession</text><polygon fill="#181818" points="910.8,384.7047,918.8,387.9047,910.8,391.1047,914,387.9047" style="stroke:#181818;stroke-width:0.8000000000000002;"/><line style="stroke:#181818;stroke-width:0.8000000000000002;" x1="662.8" x2="915.6" y1="387.9047" y2="387.9047"/><text fill="#000000" font-family="sans-serif" font-size="10.4" font-weight="bold" lengthAdjust="spacing" textLength="14.4" x="668.4" y="384.1109">12</text><text fill="#000000" font-family="sans-serif" font-size="10.4" lengthAdjust="spacing" textLength="98.4" x="686" y="384.1109">getCurrentSession()</text><polygon fill="#181818" points="671.6,408.1531,663.6,411.3531,671.6,414.5531,668.4,411.3531" style="stroke:#181818;stroke-width:0.8000000000000002;"/><line style="stroke:#181818;stroke-width:0.8000000000000002;stroke-dasharray:2.0,2.0;" x1="666.8" x2="923.6" y1="411.3531" y2="411.3531"/><text fill="#000000" font-family="sans-serif" font-size="10.4" font-weight="bold" lengthAdjust="spacing" textLength="14.4" x="676.4" y="407.5594">13</text><text fill="#000000" font-family="sans-serif" font-size="10.4" lengthAdjust="spacing" textLength="74.4" x="694" y="407.5594">currentSession</text><polygon fill="#181818" points="1024.4,431.6016,1032.4,434.8016,1024.4,438.0016,1027.6,434.8016" style="stroke:#181818;stroke-width:0.8000000000000002;"/><line style="stroke:#181818;stroke-width:0.8000000000000002;" x1="662.8" x2="1029.2" y1="434.8016" y2="434.8016"/><text fill="#000000" font-family="sans-serif" font-size="10.4" font-weight="bold" lengthAdjust="spacing" textLength="14.4" x="668.4" y="431.0078">14</text><text fill="#000000" font-family="sans-serif" font-size="10.4" lengthAdjust="spacing" textLength="113.6" x="686" y="431.0078">email = getUser(email)</text><polygon fill="#181818" points="671.6,455.05,663.6,458.25,671.6,461.45,668.4,458.25" style="stroke:#181818;stroke-width:0.8000000000000002;"/><line style="stroke:#181818;stroke-width:0.8000000000000002;stroke-dasharray:2.0,2.0;" x1="666.8" x2="1037.2" y1="458.25" y2="458.25"/><text fill="#000000" font-family="sans-serif" font-size="10.4" font-weight="bold" lengthAdjust="spacing" textLength="14.4" x="676.4" y="454.4563">15</text><text fill="#000000" font-family="sans-serif" font-size="10.4" lengthAdjust="spacing" textLength="27.2" x="694" y="454.4563">email</text><polygon fill="#181818" points="380.4,478.4984,372.4,481.6984,380.4,484.8984,377.2,481.6984" style="stroke:#181818;stroke-width:0.8000000000000002;"/><line style="stroke:#181818;stroke-width:0.8000000000000002;stroke-dasharray:2.0,2.0;" x1="375.6" x2="658" y1="481.6984" y2="481.6984"/><text fill="#000000" font-family="sans-serif" font-size="10.4" font-weight="bold" lengthAdjust="spacing" textLength="14.4" x="385.2" y="477.9047">16</text><text fill="#000000" font-family="sans-serif" font-size="10.4" lengthAdjust="spacing" textLength="27.2" x="402.8" y="477.9047">email</text><polygon fill="#181818" points="645.2,501.9469,653.2,505.1469,645.2,508.3469,648.4,505.1469" style="stroke:#181818;stroke-width:0.8000000000000002;"/><line style="stroke:#181818;stroke-width:0.8000000000000002;" x1="371.6" x2="650" y1="505.1469" y2="505.1469"/><text fill="#000000" font-family="sans-serif" font-size="10.4" font-weight="bold" lengthAdjust="spacing" textLength="14.4" x="377.2" y="501.3531">17</text><text fill="#000000" font-family="sans-serif" font-size="10.4" lengthAdjust="spacing" textLength="152.8" x="394.8" y="501.3531">getTasksByCollaborator(email)</text><polygon fill="#181818" points="1120,525.3953,1128,528.5953,1120,531.7953,1123.2,528.5953" style="stroke:#181818;stroke-width:0.8000000000000002;"/><line style="stroke:#181818;stroke-width:0.8000000000000002;" x1="662.8" x2="1124.8" y1="528.5953" y2="528.5953"/><text fill="#000000" font-family="sans-serif" font-size="10.4" font-weight="bold" lengthAdjust="spacing" textLength="14.4" x="668.4" y="524.8016">18</text><text fill="#000000" font-family="sans-serif" font-size="10.4" lengthAdjust="spacing" textLength="64.8" x="686" y="524.8016">getInstance()</text><polygon fill="#181818" points="671.6,548.8438,663.6,552.0438,671.6,555.2438,668.4,552.0438" style="stroke:#181818;stroke-width:0.8000000000000002;"/><line style="stroke:#181818;stroke-width:0.8000000000000002;stroke-dasharray:2.0,2.0;" x1="666.8" x2="1132.8" y1="552.0438" y2="552.0438"/><text fill="#000000" font-family="sans-serif" font-size="10.4" font-weight="bold" lengthAdjust="spacing" textLength="14.4" x="676.4" y="548.25">19</text><text fill="#000000" font-family="sans-serif" font-size="10.4" lengthAdjust="spacing" textLength="60" x="694" y="548.25">repositories</text><polygon fill="#181818" points="1210.4,572.2922,1218.4,575.4922,1210.4,578.6922,1213.6,575.4922" style="stroke:#181818;stroke-width:0.8000000000000002;"/><line style="stroke:#181818;stroke-width:0.8000000000000002;" x1="662.8" x2="1215.2" y1="575.4922" y2="575.4922"/><text fill="#000000" font-family="sans-serif" font-size="10.4" font-weight="bold" lengthAdjust="spacing" textLength="14.4" x="668.4" y="571.6984">20</text><text fill="#000000" font-family="sans-serif" font-size="10.4" lengthAdjust="spacing" textLength="100" x="686" y="571.6984">getTaskRepository()</text><polygon fill="#181818" points="671.6,595.7406,663.6,598.9406,671.6,602.1406,668.4,598.9406" style="stroke:#181818;stroke-width:0.8000000000000002;"/><line style="stroke:#181818;stroke-width:0.8000000000000002;stroke-dasharray:2.0,2.0;" x1="666.8" x2="1223.2" y1="598.9406" y2="598.9406"/><text fill="#000000" font-family="sans-serif" font-size="10.4" font-weight="bold" lengthAdjust="spacing" textLength="14.4" x="676.4" y="595.1469">21</text><text fill="#000000" font-family="sans-serif" font-size="10.4" lengthAdjust="spacing" textLength="75.2" x="694" y="595.1469">taskRepository</text><polygon fill="#181818" points="1308.8,619.1891,1316.8,622.3891,1308.8,625.5891,1312,622.3891" style="stroke:#181818;stroke-width:0.8000000000000002;"/><line style="stroke:#181818;stroke-width:0.8000000000000002;" x1="662.8" x2="1313.6" y1="622.3891" y2="622.3891"/><text fill="#000000" font-family="sans-serif" font-size="10.4" font-weight="bold" lengthAdjust="spacing" textLength="14.4" x="668.4" y="618.5953">22</text><text fill="#000000" font-family="sans-serif" font-size="10.4" lengthAdjust="spacing" textLength="152.8" x="686" y="618.5953">getTasksByCollaborator(email)</text><line style="stroke:#181818;stroke-width:0.8000000000000002;" x1="1326.4" x2="1364" y1="641.8375" y2="641.8375"/><line style="stroke:#181818;stroke-width:0.8000000000000002;" x1="1364" x2="1364" y1="641.8375" y2="652.2375"/><line style="stroke:#181818;stroke-width:0.8000000000000002;" x1="1331.2" x2="1364" y1="652.2375" y2="652.2375"/><polygon fill="#181818" points="1339.2,649.0375,1331.2,652.2375,1339.2,655.4375,1336,652.2375" style="stroke:#181818;stroke-width:0.8000000000000002;"/><text fill="#000000" font-family="sans-serif" font-size="10.4" font-weight="bold" lengthAdjust="spacing" textLength="14.4" x="1336" y="638.0438">23</text><text fill="#000000" font-family="sans-serif" font-size="10.4" lengthAdjust="spacing" textLength="152.8" x="1353.6" y="638.0438">getTasksByCollaborator(email)</text><path d="M1265.2,668.2375 L1324.4,668.2375 L1324.4,674.0859 L1316.4,682.0859 L1265.2,682.0859 L1265.2,668.2375 " fill="#EEEEEE" style="stroke:#000000;stroke-width:1.2000000000000002;"/><rect fill="none" height="60.7453" style="stroke:#000000;stroke-width:1.2000000000000002;" width="362.8" x="1265.2" y="668.2375"/><text fill="#000000" font-family="sans-serif" font-size="10.4" font-weight="bold" lengthAdjust="spacing" textLength="23.2" x="1277.2" y="679.0922">loop</text><text fill="#000000" font-family="sans-serif" font-size="8.8" font-weight="bold" lengthAdjust="spacing" textLength="64.8" x="1336.4" y="678.3453">[for each task]</text><polygon fill="#181818" points="1574.4,695.9344,1582.4,699.1344,1574.4,702.3344,1577.6,699.1344" style="stroke:#181818;stroke-width:0.8000000000000002;"/><line style="stroke:#181818;stroke-width:0.8000000000000002;" x1="1330.4" x2="1579.2" y1="699.1344" y2="699.1344"/><text fill="#000000" font-family="sans-serif" font-size="10.4" font-weight="bold" lengthAdjust="spacing" textLength="14.4" x="1336" y="695.3406">24</text><text fill="#000000" font-family="sans-serif" font-size="10.4" lengthAdjust="spacing" textLength="140.8" x="1353.6" y="695.3406">hasCollaboratorEmail(email)</text><polygon fill="#181818" points="1339.2,719.3828,1331.2,722.5828,1339.2,725.7828,1336,722.5828" style="stroke:#181818;stroke-width:0.8000000000000002;"/><line style="stroke:#181818;stroke-width:0.8000000000000002;stroke-dasharray:2.0,2.0;" x1="1334.4" x2="1587.2" y1="722.5828" y2="722.5828"/><text fill="#000000" font-family="sans-serif" font-size="10.4" font-weight="bold" lengthAdjust="spacing" textLength="14.4" x="1344" y="718.7891">25</text><text fill="#000000" font-family="sans-serif" font-size="10.4" lengthAdjust="spacing" textLength="49.6" x="1361.6" y="718.7891">true/false</text><line style="stroke:#181818;stroke-width:0.8000000000000002;stroke-dasharray:2.0,2.0;" x1="1330.4" x2="1364" y1="755.6313" y2="755.6313"/><line style="stroke:#181818;stroke-width:0.8000000000000002;stroke-dasharray:2.0,2.0;" x1="1364" x2="1364" y1="755.6313" y2="766.0313"/><line style="stroke:#181818;stroke-width:0.8000000000000002;stroke-dasharray:2.0,2.0;" x1="1326.4" x2="1364" y1="766.0313" y2="766.0313"/><polygon fill="#181818" points="1334.4,762.8313,1326.4,766.0313,1334.4,769.2313,1331.2,766.0313" style="stroke:#181818;stroke-width:0.8000000000000002;"/><text fill="#000000" font-family="sans-serif" font-size="10.4" font-weight="bold" lengthAdjust="spacing" textLength="14.4" x="1336" y="751.8375">26</text><text fill="#000000" font-family="sans-serif" font-size="10.4" lengthAdjust="spacing" textLength="100.8" x="1353.6" y="751.8375">tasksByCollaborator</text><polygon fill="#181818" points="671.6,782.2797,663.6,785.4797,671.6,788.6797,668.4,785.4797" style="stroke:#181818;stroke-width:0.8000000000000002;"/><line style="stroke:#181818;stroke-width:0.8000000000000002;stroke-dasharray:2.0,2.0;" x1="666.8" x2="1321.6" y1="785.4797" y2="785.4797"/><text fill="#000000" font-family="sans-serif" font-size="10.4" font-weight="bold" lengthAdjust="spacing" textLength="14.4" x="676.4" y="781.6859">27</text><text fill="#000000" font-family="sans-serif" font-size="10.4" lengthAdjust="spacing" textLength="100.8" x="694" y="781.6859">tasksByCollaborator</text><polygon fill="#181818" points="380.4,805.7281,372.4,808.9281,380.4,812.1281,377.2,808.9281" style="stroke:#181818;stroke-width:0.8000000000000002;"/><line style="stroke:#181818;stroke-width:0.8000000000000002;stroke-dasharray:2.0,2.0;" x1="375.6" x2="658" y1="808.9281" y2="808.9281"/><text fill="#000000" font-family="sans-serif" font-size="10.4" font-weight="bold" lengthAdjust="spacing" textLength="14.4" x="385.2" y="805.1344">28</text><text fill="#000000" font-family="sans-serif" font-size="10.4" lengthAdjust="spacing" textLength="100.8" x="402.8" y="805.1344">tasksByCollaborator</text><path d="M310,820.9281 L359.6,820.9281 L359.6,826.7766 L351.6,834.7766 L310,834.7766 L310,820.9281 " fill="#EEEEEE" style="stroke:#000000;stroke-width:1.2000000000000002;"/><rect fill="none" height="175.3391" style="stroke:#000000;stroke-width:1.2000000000000002;" width="1278" x="310" y="820.9281"/><text fill="#000000" font-family="sans-serif" font-size="10.4" font-weight="bold" lengthAdjust="spacing" textLength="13.6" x="322" y="831.7828">alt</text><text fill="#000000" font-family="sans-serif" font-size="8.8" font-weight="bold" lengthAdjust="spacing" textLength="66.4" x="371.6" y="831.0359">[answer is yes]</text><polygon fill="#181818" points="645.2,848.625,653.2,851.825,645.2,855.025,648.4,851.825" style="stroke:#181818;stroke-width:0.8000000000000002;"/><line style="stroke:#181818;stroke-width:0.8000000000000002;" x1="371.6" x2="650" y1="851.825" y2="851.825"/><text fill="#000000" font-family="sans-serif" font-size="10.4" font-weight="bold" lengthAdjust="spacing" textLength="14.4" x="377.2" y="848.0313">29</text><text fill="#000000" font-family="sans-serif" font-size="10.4" lengthAdjust="spacing" textLength="250.4" x="394.8" y="848.0313">consultTasksByStatus(email, tasksByCollaborator)</text><polygon fill="#181818" points="1308.8,872.0734,1316.8,875.2734,1308.8,878.4734,1312,875.2734" style="stroke:#181818;stroke-width:0.8000000000000002;"/><line style="stroke:#181818;stroke-width:0.8000000000000002;" x1="662.8" x2="1313.6" y1="875.2734" y2="875.2734"/><text fill="#000000" font-family="sans-serif" font-size="10.4" font-weight="bold" lengthAdjust="spacing" textLength="14.4" x="668.4" y="871.4797">30</text><text fill="#000000" font-family="sans-serif" font-size="10.4" lengthAdjust="spacing" textLength="250.4" x="686" y="871.4797">consultTasksByStatus(email, tasksByCollaborator)</text><line style="stroke:#181818;stroke-width:0.8000000000000002;stroke-dasharray:2.0,2.0;" x1="1326.4" x2="1360" y1="898.7219" y2="898.7219"/><line style="stroke:#181818;stroke-width:0.8000000000000002;stroke-dasharray:2.0,2.0;" x1="1360" x2="1360" y1="898.7219" y2="909.1219"/><line style="stroke:#181818;stroke-width:0.8000000000000002;stroke-dasharray:2.0,2.0;" x1="1327.2" x2="1360" y1="909.1219" y2="909.1219"/><polygon fill="#181818" points="1335.2,905.9219,1327.2,909.1219,1335.2,912.3219,1332,909.1219" style="stroke:#181818;stroke-width:0.8000000000000002;"/><text fill="#000000" font-family="sans-serif" font-size="10.4" font-weight="bold" lengthAdjust="spacing" textLength="14.4" x="1332" y="894.9281">31</text><text fill="#000000" font-family="sans-serif" font-size="10.4" lengthAdjust="spacing" textLength="228.8" x="1349.6" y="894.9281">getTasksByStatus(email, tasksByCollaborator)</text><line style="stroke:#181818;stroke-width:0.8000000000000002;stroke-dasharray:2.0,2.0;" x1="1326.4" x2="1360" y1="932.5703" y2="932.5703"/><line style="stroke:#181818;stroke-width:0.8000000000000002;stroke-dasharray:2.0,2.0;" x1="1360" x2="1360" y1="932.5703" y2="942.9703"/><line style="stroke:#181818;stroke-width:0.8000000000000002;stroke-dasharray:2.0,2.0;" x1="1327.2" x2="1360" y1="942.9703" y2="942.9703"/><polygon fill="#181818" points="1335.2,939.7703,1327.2,942.9703,1335.2,946.1703,1332,942.9703" style="stroke:#181818;stroke-width:0.8000000000000002;"/><text fill="#000000" font-family="sans-serif" font-size="10.4" font-weight="bold" lengthAdjust="spacing" textLength="14.4" x="1332" y="928.7766">32</text><text fill="#000000" font-family="sans-serif" font-size="10.4" lengthAdjust="spacing" textLength="96.8" x="1349.6" y="928.7766">orderTasksByDate()</text><polygon fill="#181818" points="671.6,963.2188,663.6,966.4188,671.6,969.6188,668.4,966.4188" style="stroke:#181818;stroke-width:0.8000000000000002;"/><line style="stroke:#181818;stroke-width:0.8000000000000002;stroke-dasharray:2.0,2.0;" x1="666.8" x2="1321.6" y1="966.4188" y2="966.4188"/><text fill="#000000" font-family="sans-serif" font-size="10.4" font-weight="bold" lengthAdjust="spacing" textLength="14.4" x="676.4" y="962.625">33</text><text fill="#000000" font-family="sans-serif" font-size="10.4" lengthAdjust="spacing" textLength="27.2" x="694" y="962.625">tasks</text><polygon fill="#181818" points="380.4,986.6672,372.4,989.8672,380.4,993.0672,377.2,989.8672" style="stroke:#181818;stroke-width:0.8000000000000002;"/><line style="stroke:#181818;stroke-width:0.8000000000000002;stroke-dasharray:2.0,2.0;" x1="375.6" x2="658" y1="989.8672" y2="989.8672"/><text fill="#000000" font-family="sans-serif" font-size="10.4" font-weight="bold" lengthAdjust="spacing" textLength="14.4" x="385.2" y="986.0734">34</text><text fill="#000000" font-family="sans-serif" font-size="10.4" lengthAdjust="spacing" textLength="27.2" x="402.8" y="986.0734">tasks</text><path d="M310,1007.4672 L359.6,1007.4672 L359.6,1013.3156 L351.6,1021.3156 L310,1021.3156 L310,1007.4672 " fill="#EEEEEE" style="stroke:#000000;stroke-width:1.2000000000000002;"/><rect fill="none" height="141.4906" style="stroke:#000000;stroke-width:1.2000000000000002;" width="1146" x="310" y="1007.4672"/><text fill="#000000" font-family="sans-serif" font-size="10.4" font-weight="bold" lengthAdjust="spacing" textLength="13.6" x="322" y="1018.3219">alt</text><text fill="#000000" font-family="sans-serif" font-size="8.8" font-weight="bold" lengthAdjust="spacing" textLength="63.2" x="371.6" y="1017.575">[answer is no]</text><polygon fill="#181818" points="645.2,1035.1641,653.2,1038.3641,645.2,1041.5641,648.4,1038.3641" style="stroke:#181818;stroke-width:0.8000000000000002;"/><line style="stroke:#181818;stroke-width:0.8000000000000002;" x1="371.6" x2="650" y1="1038.3641" y2="1038.3641"/><text fill="#000000" font-family="sans-serif" font-size="10.4" font-weight="bold" lengthAdjust="spacing" textLength="14.4" x="377.2" y="1034.5703">35</text><text fill="#000000" font-family="sans-serif" font-size="10.4" lengthAdjust="spacing" textLength="208" x="394.8" y="1034.5703">consultTasks(email, tasksByCollaborator)</text><polygon fill="#181818" points="1308.8,1058.6125,1316.8,1061.8125,1308.8,1065.0125,1312,1061.8125" style="stroke:#181818;stroke-width:0.8000000000000002;"/><line style="stroke:#181818;stroke-width:0.8000000000000002;" x1="662.8" x2="1313.6" y1="1061.8125" y2="1061.8125"/><text fill="#000000" font-family="sans-serif" font-size="10.4" font-weight="bold" lengthAdjust="spacing" textLength="14.4" x="668.4" y="1058.0188">36</text><text fill="#000000" font-family="sans-serif" font-size="10.4" lengthAdjust="spacing" textLength="208" x="686" y="1058.0188">consultTasks(email, tasksByCollaborator)</text><line style="stroke:#181818;stroke-width:0.8000000000000002;stroke-dasharray:2.0,2.0;" x1="1326.4" x2="1360" y1="1085.2609" y2="1085.2609"/><line style="stroke:#181818;stroke-width:0.8000000000000002;stroke-dasharray:2.0,2.0;" x1="1360" x2="1360" y1="1085.2609" y2="1095.6609"/><line style="stroke:#181818;stroke-width:0.8000000000000002;stroke-dasharray:2.0,2.0;" x1="1327.2" x2="1360" y1="1095.6609" y2="1095.6609"/><polygon fill="#181818" points="1335.2,1092.4609,1327.2,1095.6609,1335.2,1098.8609,1332,1095.6609" style="stroke:#181818;stroke-width:0.8000000000000002;"/><text fill="#000000" font-family="sans-serif" font-size="10.4" font-weight="bold" lengthAdjust="spacing" textLength="14.4" x="1332" y="1081.4672">37</text><text fill="#000000" font-family="sans-serif" font-size="10.4" lengthAdjust="spacing" textLength="96.8" x="1349.6" y="1081.4672">orderTasksByDate()</text><polygon fill="#181818" points="671.6,1115.9094,663.6,1119.1094,671.6,1122.3094,668.4,1119.1094" style="stroke:#181818;stroke-width:0.8000000000000002;"/><line style="stroke:#181818;stroke-width:0.8000000000000002;stroke-dasharray:2.0,2.0;" x1="666.8" x2="1321.6" y1="1119.1094" y2="1119.1094"/><text fill="#000000" font-family="sans-serif" font-size="10.4" font-weight="bold" lengthAdjust="spacing" textLength="14.4" x="676.4" y="1115.3156">38</text><text fill="#000000" font-family="sans-serif" font-size="10.4" lengthAdjust="spacing" textLength="27.2" x="694" y="1115.3156">tasks</text><polygon fill="#181818" points="380.4,1139.3578,372.4,1142.5578,380.4,1145.7578,377.2,1142.5578" style="stroke:#181818;stroke-width:0.8000000000000002;"/><line style="stroke:#181818;stroke-width:0.8000000000000002;stroke-dasharray:2.0,2.0;" x1="375.6" x2="654" y1="1142.5578" y2="1142.5578"/><text fill="#000000" font-family="sans-serif" font-size="10.4" font-weight="bold" lengthAdjust="spacing" textLength="14.4" x="385.2" y="1138.7641">39</text><text fill="#000000" font-family="sans-serif" font-size="10.4" lengthAdjust="spacing" textLength="27.2" x="402.8" y="1138.7641">tasks</text><polygon fill="#181818" points="50,1180.6547,42,1183.8547,50,1187.0547,46.8,1183.8547" style="stroke:#181818;stroke-width:0.8000000000000002;"/><line style="stroke:#181818;stroke-width:0.8000000000000002;stroke-dasharray:2.0,2.0;" x1="45.2" x2="366.8" y1="1183.8547" y2="1183.8547"/><text fill="#000000" font-family="sans-serif" font-size="10.4" font-weight="bold" lengthAdjust="spacing" textLength="14.4" x="54.8" y="1173.9367">40</text><text fill="#000000" font-family="sans-serif" font-size="10.4" lengthAdjust="spacing" textLength="188" x="72.4" y="1167.8125">shows tasks assigned to collaborator</text><text fill="#000000" font-family="sans-serif" font-size="10.4" lengthAdjust="spacing" textLength="146.4" x="72.4" y="1180.0609">between two dates requested</text><!--SRC=[nLR9Rjim4BthAuYSag16YvwA02tWE3aO29eWicy12beQsqHaKYNf6Fhx3aSxHJbEklaaZ-QzDvnDDCz2vbpp7TifgPAjLZjWLkyXCisRd2VFV0EnBJ9W6XBBvIRhEfWjJzL1o0rRyyn055bXqNKPV_hyXKtOJ4cppoopMwJcvjamRepOI4YPLOopH6KPNodDhT9HnFTMoVrk1UuvGHCxctKSpX3CRdTvfWg02FMjI4JEfMLdLvNGmcaiv-Ivd1_nmMUhaHjArjdYySxpdkPv9X9kXP8nOD1AakUFwSD3tvFdUUNm9CTG0r2orngaRO5B0xgBY6_ZU7x_tGlg4N9b1EP2W26tnb34mfK64zY7w0u2PGO43tVJHH_XwjJI8cRHCn2gRnhYRnRt5H2V6WG-Ks752xVGLZ9Y-Al_iSath1oxOjGjs2J9qHRgDP3ZQUYn_6H0CgHq1RwyHDf40xvjN-6xHleAM_pd7emrR2sqiInrhiupXG7l861Rv3001iCPqJI0PqtV8-eZJr2bJ8frBu7iW0MafBy8E5JPNelCWiPihmfcBBTxSt9mN9e3QCCA317PfNgjGeZPWBtTSP5r1__yeW-aQIKJWH3ifh84poK6AHFmCJItP2BVIQlOpgz_i1PJwpGoizxy-c8DpfFgJxqlDr2hTW02mQM4VNNARb6SqtzFjDuOPAsX7N72-9ezKAbRLo_etwRUhngjrUkYLxTGcCFY1NROyLg6bXvvX9Zg3BX1QtUVVwvHoZf8joVRWxRkVcoqJyb4Y5QzlrPz_HPM2_PbtfRZnL3Be_lp0fbIELlZcEEXjdJQ8xhu9K31BJTT9PhxKJdtyQW97NmIEeAxldmiRo9UWhiK8DDWR476OKP2r9raH6FSrQoyWt4ud2UGb8DM9XA_d-KoPeBMCLa7KvnqBaZNHKpBlgp7Xv3WHSCI6EwZhVpxGg4CdLhIji_Ve7mAiT8fw8hw1gCyFmhljaFZzqeJZ3H224wbgBizq0NLr_Xe4_prul-xel_Vsb0DHcvYPgiEvfMhBNkIAx070CdiGT55pzGNHqX35xBEtrhh5m00]--></g></svg>