<?xml version="1.0" encoding="us-ascii" standalone="no"?><svg xmlns="http://www.w3.org/2000/svg" xmlns:xlink="http://www.w3.org/1999/xlink" contentStyleType="text/css" height="1141px" preserveAspectRatio="none" style="width:1525px;height:1141px;background:#FFFFFF;" version="1.1" viewBox="0 0 1525 1141" width="1525px" zoomAndPan="magnify"><defs/><g><text fill="#000000" font-family="sans-serif" font-size="14" font-weight="bold" lengthAdjust="spacing" textLength="386" x="571.25" y="28.5352">US028 - Consult the tasks assigned to a collaborator</text><rect fill="#FFFFFF" height="913.4492" style="stroke:#181818;stroke-width:1.0;" width="10" x="46.5" y="128.9766"/><rect fill="#FFFFFF" height="70.7988" style="stroke:#181818;stroke-width:1.0;" width="10" x="454.5" y="150.2871"/><rect fill="#FFFFFF" height="29.3105" style="stroke:#181818;stroke-width:1.0;" width="10" x="454.5" y="250.3965"/><rect fill="#FFFFFF" height="29.3105" style="stroke:#181818;stroke-width:1.0;" width="10" x="454.5" y="309.0176"/><rect fill="#FFFFFF" height="674.7871" style="stroke:#181818;stroke-width:1.0;" width="10" x="454.5" y="367.6387"/><rect fill="#FFFFFF" height="73.7539" style="stroke:#181818;stroke-width:1.0;" width="10" x="818.5" y="396.9492"/><rect fill="#FFFFFF" height="73.7539" style="stroke:#181818;stroke-width:1.0;" width="10" x="818.5" y="500.0137"/><rect fill="#FFFFFF" height="172.5527" style="stroke:#181818;stroke-width:1.0;" width="10" x="818.5" y="627.3887"/><rect fill="#FFFFFF" height="190.8633" style="stroke:#181818;stroke-width:1.0;" width="10" x="818.5" y="860.5625"/><rect fill="#FFFFFF" height="113.9316" style="stroke:#181818;stroke-width:1.0;" width="10" x="1182.5" y="656.6992"/><rect fill="#FFFFFF" height="71.6211" style="stroke:#181818;stroke-width:1.0;" width="10" x="1182.5" y="889.873"/><rect fill="none" height="219.1738" style="stroke:#000000;stroke-width:1.5;" width="1132" x="387.5" y="588.7676"/><rect fill="none" height="176.8633" style="stroke:#000000;stroke-width:1.5;" width="967" x="387.5" y="821.9414"/><line style="stroke:#181818;stroke-width:0.5;stroke-dasharray:5.0,5.0;" x1="51" x2="51" y1="118.9766" y2="1060.4258"/><line style="stroke:#181818;stroke-width:0.5;stroke-dasharray:5.0,5.0;" x1="459.5" x2="459.5" y1="118.9766" y2="1060.4258"/><line style="stroke:#181818;stroke-width:0.5;stroke-dasharray:5.0,5.0;" x1="823.5" x2="823.5" y1="189.0313" y2="1060.4258"/><line style="stroke:#181818;stroke-width:0.5;stroke-dasharray:5.0,5.0;" x1="1187" x2="1187" y1="118.9766" y2="1060.4258"/><text fill="#000000" font-family="sans-serif" font-size="14" lengthAdjust="spacing" textLength="87" x="5" y="116.0234">Collaborator</text><ellipse cx="51.5" cy="50.9883" fill="#E3E3E3" rx="8" ry="8" style="stroke:#181818;stroke-width:0.5;"/><path d="M51.5,58.9883 L51.5,85.9883 M38.5,66.9883 L64.5,66.9883 M51.5,85.9883 L38.5,100.9883 M51.5,85.9883 L64.5,100.9883 " fill="none" style="stroke:#181818;stroke-width:0.5;"/><text fill="#000000" font-family="sans-serif" font-size="14" lengthAdjust="spacing" textLength="87" x="5" y="1072.9609">Collaborator</text><ellipse cx="51.5" cy="1084.4141" fill="#E3E3E3" rx="8" ry="8" style="stroke:#181818;stroke-width:0.5;"/><path d="M51.5,1092.4141 L51.5,1119.4141 M38.5,1100.4141 L64.5,1100.4141 M51.5,1119.4141 L38.5,1134.4141 M51.5,1119.4141 L64.5,1134.4141 " fill="none" style="stroke:#181818;stroke-width:0.5;"/><rect fill="#E3E3E3" height="30.4883" rx="2.5" ry="2.5" style="stroke:#181818;stroke-width:0.5;" width="124" x="397.5" y="87.4883"/><text fill="#000000" font-family="sans-serif" font-size="14" lengthAdjust="spacing" textLength="110" x="404.5" y="108.0234">:ConsultTasksUI</text><rect fill="#E3E3E3" height="30.4883" rx="2.5" ry="2.5" style="stroke:#181818;stroke-width:0.5;" width="124" x="397.5" y="1059.4258"/><text fill="#000000" font-family="sans-serif" font-size="14" lengthAdjust="spacing" textLength="110" x="404.5" y="1079.9609">:ConsultTasksUI</text><rect fill="#E3E3E3" height="30.4883" rx="2.5" ry="2.5" style="stroke:#181818;stroke-width:0.5;" width="180" x="733.5" y="1059.4258"/><text fill="#000000" font-family="sans-serif" font-size="14" lengthAdjust="spacing" textLength="166" x="740.5" y="1079.9609">:ConsultTasksController</text><rect fill="#E3E3E3" height="46.9766" rx="2.5" ry="2.5" style="stroke:#181818;stroke-width:0.5;" width="123" x="1126" y="71"/><text fill="#000000" font-family="sans-serif" font-size="14" lengthAdjust="spacing" textLength="101" x="1137" y="91.5352">taskRepository</text><text fill="#000000" font-family="sans-serif" font-size="14" lengthAdjust="spacing" textLength="109" x="1133" y="108.0234">:TaskRepository</text><rect fill="#E3E3E3" height="46.9766" rx="2.5" ry="2.5" style="stroke:#181818;stroke-width:0.5;" width="123" x="1126" y="1059.4258"/><text fill="#000000" font-family="sans-serif" font-size="14" lengthAdjust="spacing" textLength="101" x="1137" y="1079.9609">taskRepository</text><text fill="#000000" font-family="sans-serif" font-size="14" lengthAdjust="spacing" textLength="109" x="1133" y="1096.4492">:TaskRepository</text><rect fill="#FFFFFF" height="913.4492" style="stroke:#181818;stroke-width:1.0;" width="10" x="46.5" y="128.9766"/><rect fill="#FFFFFF" height="70.7988" style="stroke:#181818;stroke-width:1.0;" width="10" x="454.5" y="150.2871"/><rect fill="#FFFFFF" height="29.3105" style="stroke:#181818;stroke-width:1.0;" width="10" x="454.5" y="250.3965"/><rect fill="#FFFFFF" height="29.3105" style="stroke:#181818;stroke-width:1.0;" width="10" x="454.5" y="309.0176"/><rect fill="#FFFFFF" height="674.7871" style="stroke:#181818;stroke-width:1.0;" width="10" x="454.5" y="367.6387"/><rect fill="#FFFFFF" height="73.7539" style="stroke:#181818;stroke-width:1.0;" width="10" x="818.5" y="396.9492"/><rect fill="#FFFFFF" height="73.7539" style="stroke:#181818;stroke-width:1.0;" width="10" x="818.5" y="500.0137"/><rect fill="#FFFFFF" height="172.5527" style="stroke:#181818;stroke-width:1.0;" width="10" x="818.5" y="627.3887"/><rect fill="#FFFFFF" height="190.8633" style="stroke:#181818;stroke-width:1.0;" width="10" x="818.5" y="860.5625"/><rect fill="#FFFFFF" height="113.9316" style="stroke:#181818;stroke-width:1.0;" width="10" x="1182.5" y="656.6992"/><rect fill="#FFFFFF" height="71.6211" style="stroke:#181818;stroke-width:1.0;" width="10" x="1182.5" y="889.873"/><polygon fill="#181818" points="442.5,146.2871,452.5,150.2871,442.5,154.2871,446.5,150.2871" style="stroke:#181818;stroke-width:1.0;"/><line style="stroke:#181818;stroke-width:1.0;" x1="56.5" x2="448.5" y1="150.2871" y2="150.2871"/><text fill="#000000" font-family="sans-serif" font-size="13" font-weight="bold" lengthAdjust="spacing" textLength="9" x="63.5" y="145.5449">1</text><text fill="#000000" font-family="sans-serif" font-size="13" lengthAdjust="spacing" textLength="316" x="76.5" y="145.5449">asks to consult the tasks assigned to collaborator</text><polygon fill="#181818" points="721.5,175.5977,731.5,179.5977,721.5,183.5977,725.5,179.5977" style="stroke:#181818;stroke-width:1.0;"/><line style="stroke:#181818;stroke-width:1.0;" x1="464.5" x2="727.5" y1="179.5977" y2="179.5977"/><text fill="#000000" font-family="sans-serif" font-size="13" font-weight="bold" lengthAdjust="spacing" textLength="9" x="471.5" y="174.8555">2</text><text fill="#000000" font-family="sans-serif" font-size="13" lengthAdjust="spacing" textLength="38" x="484.5" y="174.8555">create</text><rect fill="#E3E3E3" height="30.4883" rx="2.5" ry="2.5" style="stroke:#181818;stroke-width:0.5;" width="180" x="733.5" y="158.2871"/><text fill="#000000" font-family="sans-serif" font-size="14" lengthAdjust="spacing" textLength="166" x="740.5" y="178.8223">:ConsultTasksController</text><polygon fill="#181818" points="67.5,217.0859,57.5,221.0859,67.5,225.0859,63.5,221.0859" style="stroke:#181818;stroke-width:1.0;"/><line style="stroke:#181818;stroke-width:1.0;stroke-dasharray:2.0,2.0;" x1="61.5" x2="458.5" y1="221.0859" y2="221.0859"/><text fill="#000000" font-family="sans-serif" font-size="13" font-weight="bold" lengthAdjust="spacing" textLength="9" x="73.5" y="216.3438">3</text><text fill="#000000" font-family="sans-serif" font-size="13" lengthAdjust="spacing" textLength="115" x="86.5" y="216.3438">requests first date</text><polygon fill="#181818" points="442.5,246.3965,452.5,250.3965,442.5,254.3965,446.5,250.3965" style="stroke:#181818;stroke-width:1.0;"/><line style="stroke:#181818;stroke-width:1.0;" x1="56.5" x2="448.5" y1="250.3965" y2="250.3965"/><text fill="#000000" font-family="sans-serif" font-size="13" font-weight="bold" lengthAdjust="spacing" textLength="9" x="63.5" y="245.6543">4</text><text fill="#000000" font-family="sans-serif" font-size="13" lengthAdjust="spacing" textLength="95" x="76.5" y="245.6543">types first date</text><polygon fill="#181818" points="67.5,275.707,57.5,279.707,67.5,283.707,63.5,279.707" style="stroke:#181818;stroke-width:1.0;"/><line style="stroke:#181818;stroke-width:1.0;stroke-dasharray:2.0,2.0;" x1="61.5" x2="458.5" y1="279.707" y2="279.707"/><text fill="#000000" font-family="sans-serif" font-size="13" font-weight="bold" lengthAdjust="spacing" textLength="9" x="73.5" y="274.9648">5</text><text fill="#000000" font-family="sans-serif" font-size="13" lengthAdjust="spacing" textLength="134" x="86.5" y="274.9648">requests second date</text><polygon fill="#181818" points="442.5,305.0176,452.5,309.0176,442.5,313.0176,446.5,309.0176" style="stroke:#181818;stroke-width:1.0;"/><line style="stroke:#181818;stroke-width:1.0;" x1="56.5" x2="448.5" y1="309.0176" y2="309.0176"/><text fill="#000000" font-family="sans-serif" font-size="13" font-weight="bold" lengthAdjust="spacing" textLength="9" x="63.5" y="304.2754">6</text><text fill="#000000" font-family="sans-serif" font-size="13" lengthAdjust="spacing" textLength="114" x="76.5" y="304.2754">types second date</text><polygon fill="#181818" points="67.5,334.3281,57.5,338.3281,67.5,342.3281,63.5,338.3281" style="stroke:#181818;stroke-width:1.0;"/><line style="stroke:#181818;stroke-width:1.0;stroke-dasharray:2.0,2.0;" x1="61.5" x2="458.5" y1="338.3281" y2="338.3281"/><text fill="#000000" font-family="sans-serif" font-size="13" font-weight="bold" lengthAdjust="spacing" textLength="9" x="73.5" y="333.5859">7</text><text fill="#000000" font-family="sans-serif" font-size="13" lengthAdjust="spacing" textLength="361" x="86.5" y="333.5859">asks if collaborator wants to view tasks filtered by status</text><polygon fill="#181818" points="442.5,363.6387,452.5,367.6387,442.5,371.6387,446.5,367.6387" style="stroke:#181818;stroke-width:1.0;"/><line style="stroke:#181818;stroke-width:1.0;" x1="56.5" x2="448.5" y1="367.6387" y2="367.6387"/><text fill="#000000" font-family="sans-serif" font-size="13" font-weight="bold" lengthAdjust="spacing" textLength="9" x="63.5" y="362.8965">8</text><text fill="#000000" font-family="sans-serif" font-size="13" lengthAdjust="spacing" textLength="113" x="76.5" y="362.8965">answers yes or no</text><polygon fill="#181818" points="806.5,392.9492,816.5,396.9492,806.5,400.9492,810.5,396.9492" style="stroke:#181818;stroke-width:1.0;"/><line style="stroke:#181818;stroke-width:1.0;" x1="464.5" x2="812.5" y1="396.9492" y2="396.9492"/><text fill="#000000" font-family="sans-serif" font-size="13" font-weight="bold" lengthAdjust="spacing" textLength="9" x="471.5" y="392.207">9</text><text fill="#000000" font-family="sans-serif" font-size="13" lengthAdjust="spacing" textLength="140" x="484.5" y="392.207">getEmailCollaborator()</text><rect fill="none" height="39.4434" style="stroke:#000000;stroke-width:1.5;" width="186" x="730.5" y="404.9492"/><path d="M730.5,404.9492 L794.5,404.9492 L794.5,411.9492 L784.5,421.9492 L730.5,421.9492 L730.5,404.9492 " fill="#EEEEEE" style="stroke:#000000;stroke-width:2.0;"/><text fill="#000000" font-family="sans-serif" font-size="13" font-weight="bold" lengthAdjust="spacing" textLength="19" x="743.5" y="419.5176">ref</text><text fill="#000000" font-family="sans-serif" font-size="12" lengthAdjust="spacing" textLength="55" x="796" y="437.5508">Get Email</text><polygon fill="#181818" points="475.5,466.7031,465.5,470.7031,475.5,474.7031,471.5,470.7031" style="stroke:#181818;stroke-width:1.0;"/><line style="stroke:#181818;stroke-width:1.0;stroke-dasharray:2.0,2.0;" x1="469.5" x2="822.5" y1="470.7031" y2="470.7031"/><text fill="#000000" font-family="sans-serif" font-size="13" font-weight="bold" lengthAdjust="spacing" textLength="18" x="481.5" y="465.9609">10</text><text fill="#000000" font-family="sans-serif" font-size="13" lengthAdjust="spacing" textLength="34" x="503.5" y="465.9609">email</text><polygon fill="#181818" points="806.5,496.0137,816.5,500.0137,806.5,504.0137,810.5,500.0137" style="stroke:#181818;stroke-width:1.0;"/><line style="stroke:#181818;stroke-width:1.0;" x1="464.5" x2="812.5" y1="500.0137" y2="500.0137"/><text fill="#000000" font-family="sans-serif" font-size="13" font-weight="bold" lengthAdjust="spacing" textLength="18" x="471.5" y="495.2715">11</text><text fill="#000000" font-family="sans-serif" font-size="13" lengthAdjust="spacing" textLength="191" x="493.5" y="495.2715">getTasksByCollaborator(email)</text><rect fill="none" height="39.4434" style="stroke:#000000;stroke-width:1.5;" width="186" x="730.5" y="508.0137"/><path d="M730.5,508.0137 L794.5,508.0137 L794.5,515.0137 L784.5,525.0137 L730.5,525.0137 L730.5,508.0137 " fill="#EEEEEE" style="stroke:#000000;stroke-width:2.0;"/><text fill="#000000" font-family="sans-serif" font-size="13" font-weight="bold" lengthAdjust="spacing" textLength="19" x="743.5" y="522.582">ref</text><text fill="#000000" font-family="sans-serif" font-size="12" lengthAdjust="spacing" textLength="151" x="748" y="540.6152">Get Tasks by Collaborator</text><polygon fill="#181818" points="475.5,569.7676,465.5,573.7676,475.5,577.7676,471.5,573.7676" style="stroke:#181818;stroke-width:1.0;"/><line style="stroke:#181818;stroke-width:1.0;stroke-dasharray:2.0,2.0;" x1="469.5" x2="822.5" y1="573.7676" y2="573.7676"/><text fill="#000000" font-family="sans-serif" font-size="13" font-weight="bold" lengthAdjust="spacing" textLength="18" x="481.5" y="569.0254">12</text><text fill="#000000" font-family="sans-serif" font-size="13" lengthAdjust="spacing" textLength="126" x="503.5" y="569.0254">tasksByCollaborator</text><path d="M387.5,588.7676 L449.5,588.7676 L449.5,596.0781 L439.5,606.0781 L387.5,606.0781 L387.5,588.7676 " fill="#EEEEEE" style="stroke:#000000;stroke-width:1.5;"/><rect fill="none" height="219.1738" style="stroke:#000000;stroke-width:1.5;" width="1132" x="387.5" y="588.7676"/><text fill="#000000" font-family="sans-serif" font-size="13" font-weight="bold" lengthAdjust="spacing" textLength="17" x="402.5" y="602.3359">alt</text><text fill="#000000" font-family="sans-serif" font-size="11" font-weight="bold" lengthAdjust="spacing" textLength="83" x="464.5" y="601.4023">[answer is yes]</text><polygon fill="#181818" points="806.5,623.3887,816.5,627.3887,806.5,631.3887,810.5,627.3887" style="stroke:#181818;stroke-width:1.0;"/><line style="stroke:#181818;stroke-width:1.0;" x1="464.5" x2="812.5" y1="627.3887" y2="627.3887"/><text fill="#000000" font-family="sans-serif" font-size="13" font-weight="bold" lengthAdjust="spacing" textLength="18" x="471.5" y="622.6465">13</text><text fill="#000000" font-family="sans-serif" font-size="13" lengthAdjust="spacing" textLength="313" x="493.5" y="622.6465">consultTasksByStatus(email, tasksByCollaborator)</text><polygon fill="#181818" points="1170.5,652.6992,1180.5,656.6992,1170.5,660.6992,1174.5,656.6992" style="stroke:#181818;stroke-width:1.0;"/><line style="stroke:#181818;stroke-width:1.0;" x1="828.5" x2="1176.5" y1="656.6992" y2="656.6992"/><text fill="#000000" font-family="sans-serif" font-size="13" font-weight="bold" lengthAdjust="spacing" textLength="18" x="835.5" y="651.957">14</text><text fill="#000000" font-family="sans-serif" font-size="13" lengthAdjust="spacing" textLength="313" x="857.5" y="651.957">consultTasksByStatus(email, tasksByCollaborator)</text><line style="stroke:#181818;stroke-width:1.0;stroke-dasharray:2.0,2.0;" x1="1192.5" x2="1234.5" y1="686.0098" y2="686.0098"/><line style="stroke:#181818;stroke-width:1.0;stroke-dasharray:2.0,2.0;" x1="1234.5" x2="1234.5" y1="686.0098" y2="699.0098"/><line style="stroke:#181818;stroke-width:1.0;stroke-dasharray:2.0,2.0;" x1="1193.5" x2="1234.5" y1="699.0098" y2="699.0098"/><polygon fill="#181818" points="1203.5,695.0098,1193.5,699.0098,1203.5,703.0098,1199.5,699.0098" style="stroke:#181818;stroke-width:1.0;"/><text fill="#000000" font-family="sans-serif" font-size="13" font-weight="bold" lengthAdjust="spacing" textLength="18" x="1199.5" y="681.2676">15</text><text fill="#000000" font-family="sans-serif" font-size="13" lengthAdjust="spacing" textLength="286" x="1221.5" y="681.2676">getTasksByStatus(email, tasksByCollaborator)</text><line style="stroke:#181818;stroke-width:1.0;stroke-dasharray:2.0,2.0;" x1="1192.5" x2="1234.5" y1="728.3203" y2="728.3203"/><line style="stroke:#181818;stroke-width:1.0;stroke-dasharray:2.0,2.0;" x1="1234.5" x2="1234.5" y1="728.3203" y2="741.3203"/><line style="stroke:#181818;stroke-width:1.0;stroke-dasharray:2.0,2.0;" x1="1193.5" x2="1234.5" y1="741.3203" y2="741.3203"/><polygon fill="#181818" points="1203.5,737.3203,1193.5,741.3203,1203.5,745.3203,1199.5,741.3203" style="stroke:#181818;stroke-width:1.0;"/><text fill="#000000" font-family="sans-serif" font-size="13" font-weight="bold" lengthAdjust="spacing" textLength="18" x="1199.5" y="723.5781">16</text><text fill="#000000" font-family="sans-serif" font-size="13" lengthAdjust="spacing" textLength="121" x="1221.5" y="723.5781">orderTasksByDate()</text><polygon fill="#181818" points="839.5,766.6309,829.5,770.6309,839.5,774.6309,835.5,770.6309" style="stroke:#181818;stroke-width:1.0;"/><line style="stroke:#181818;stroke-width:1.0;stroke-dasharray:2.0,2.0;" x1="833.5" x2="1186.5" y1="770.6309" y2="770.6309"/><text fill="#000000" font-family="sans-serif" font-size="13" font-weight="bold" lengthAdjust="spacing" textLength="18" x="845.5" y="765.8887">17</text><text fill="#000000" font-family="sans-serif" font-size="13" lengthAdjust="spacing" textLength="34" x="867.5" y="765.8887">tasks</text><polygon fill="#181818" points="475.5,795.9414,465.5,799.9414,475.5,803.9414,471.5,799.9414" style="stroke:#181818;stroke-width:1.0;"/><line style="stroke:#181818;stroke-width:1.0;stroke-dasharray:2.0,2.0;" x1="469.5" x2="822.5" y1="799.9414" y2="799.9414"/><text fill="#000000" font-family="sans-serif" font-size="13" font-weight="bold" lengthAdjust="spacing" textLength="18" x="481.5" y="795.1992">18</text><text fill="#000000" font-family="sans-serif" font-size="13" lengthAdjust="spacing" textLength="34" x="503.5" y="795.1992">tasks</text><path d="M387.5,821.9414 L449.5,821.9414 L449.5,829.252 L439.5,839.252 L387.5,839.252 L387.5,821.9414 " fill="#EEEEEE" style="stroke:#000000;stroke-width:1.5;"/><rect fill="none" height="176.8633" style="stroke:#000000;stroke-width:1.5;" width="967" x="387.5" y="821.9414"/><text fill="#000000" font-family="sans-serif" font-size="13" font-weight="bold" lengthAdjust="spacing" textLength="17" x="402.5" y="835.5098">alt</text><text fill="#000000" font-family="sans-serif" font-size="11" font-weight="bold" lengthAdjust="spacing" textLength="79" x="464.5" y="834.5762">[answer is no]</text><polygon fill="#181818" points="806.5,856.5625,816.5,860.5625,806.5,864.5625,810.5,860.5625" style="stroke:#181818;stroke-width:1.0;"/><line style="stroke:#181818;stroke-width:1.0;" x1="464.5" x2="812.5" y1="860.5625" y2="860.5625"/><text fill="#000000" font-family="sans-serif" font-size="13" font-weight="bold" lengthAdjust="spacing" textLength="18" x="471.5" y="855.8203">19</text><text fill="#000000" font-family="sans-serif" font-size="13" lengthAdjust="spacing" textLength="260" x="493.5" y="855.8203">consultTasks(email, tasksByCollaborator)</text><polygon fill="#181818" points="1170.5,885.873,1180.5,889.873,1170.5,893.873,1174.5,889.873" style="stroke:#181818;stroke-width:1.0;"/><line style="stroke:#181818;stroke-width:1.0;" x1="828.5" x2="1176.5" y1="889.873" y2="889.873"/><text fill="#000000" font-family="sans-serif" font-size="13" font-weight="bold" lengthAdjust="spacing" textLength="18" x="835.5" y="885.1309">20</text><text fill="#000000" font-family="sans-serif" font-size="13" lengthAdjust="spacing" textLength="260" x="857.5" y="885.1309">consultTasks(email, tasksByCollaborator)</text><line style="stroke:#181818;stroke-width:1.0;stroke-dasharray:2.0,2.0;" x1="1192.5" x2="1234.5" y1="919.1836" y2="919.1836"/><line style="stroke:#181818;stroke-width:1.0;stroke-dasharray:2.0,2.0;" x1="1234.5" x2="1234.5" y1="919.1836" y2="932.1836"/><line style="stroke:#181818;stroke-width:1.0;stroke-dasharray:2.0,2.0;" x1="1193.5" x2="1234.5" y1="932.1836" y2="932.1836"/><polygon fill="#181818" points="1203.5,928.1836,1193.5,932.1836,1203.5,936.1836,1199.5,932.1836" style="stroke:#181818;stroke-width:1.0;"/><text fill="#000000" font-family="sans-serif" font-size="13" font-weight="bold" lengthAdjust="spacing" textLength="18" x="1199.5" y="914.4414">21</text><text fill="#000000" font-family="sans-serif" font-size="13" lengthAdjust="spacing" textLength="121" x="1221.5" y="914.4414">orderTasksByDate()</text><polygon fill="#181818" points="839.5,957.4941,829.5,961.4941,839.5,965.4941,835.5,961.4941" style="stroke:#181818;stroke-width:1.0;"/><line style="stroke:#181818;stroke-width:1.0;stroke-dasharray:2.0,2.0;" x1="833.5" x2="1186.5" y1="961.4941" y2="961.4941"/><text fill="#000000" font-family="sans-serif" font-size="13" font-weight="bold" lengthAdjust="spacing" textLength="18" x="845.5" y="956.752">22</text><text fill="#000000" font-family="sans-serif" font-size="13" lengthAdjust="spacing" textLength="34" x="867.5" y="956.752">tasks</text><polygon fill="#181818" points="475.5,986.8047,465.5,990.8047,475.5,994.8047,471.5,990.8047" style="stroke:#181818;stroke-width:1.0;"/><line style="stroke:#181818;stroke-width:1.0;stroke-dasharray:2.0,2.0;" x1="469.5" x2="817.5" y1="990.8047" y2="990.8047"/><text fill="#000000" font-family="sans-serif" font-size="13" font-weight="bold" lengthAdjust="spacing" textLength="18" x="481.5" y="986.0625">23</text><text fill="#000000" font-family="sans-serif" font-size="13" lengthAdjust="spacing" textLength="34" x="503.5" y="986.0625">tasks</text><polygon fill="#181818" points="62.5,1038.4258,52.5,1042.4258,62.5,1046.4258,58.5,1042.4258" style="stroke:#181818;stroke-width:1.0;"/><line style="stroke:#181818;stroke-width:1.0;stroke-dasharray:2.0,2.0;" x1="56.5" x2="458.5" y1="1042.4258" y2="1042.4258"/><text fill="#000000" font-family="sans-serif" font-size="13" font-weight="bold" lengthAdjust="spacing" textLength="18" x="68.5" y="1030.0283">24</text><text fill="#000000" font-family="sans-serif" font-size="13" lengthAdjust="spacing" textLength="235" x="90.5" y="1022.373">shows tasks assigned to collaborator</text><text fill="#000000" font-family="sans-serif" font-size="13" lengthAdjust="spacing" textLength="183" x="90.5" y="1037.6836">between two dates requested</text><!--SRC=[nLLDRvj04BtpAqO-9L4jLJrLFkGGDweYzHJRjrpMCE2LOPVk34Ry-muBne2nurJzu0IpC- -z-LfehqskdCeWiyQ6EsSp17O51jITv2hSgmHNNAK83aDM9adx3hHJaIsrII1MAM4Gi6PntQm-V_aASrXQGqNAm3k1LhGdK4GwCHW1Mr0GsZHLM-iKMnS4gc1hYcoBzNie9fWjUmup2ORdB4zjXHW8F-jGvyemp1OjqRhcsBnupytB5HzvPoVOsA0krwy_XjwrsbVCBMbXhjxCOZqm-AYXoMlM1yLu4Xc0FCSlc3-AA5Y0BuJa7rwjpg0sDKu7BvbvWu09PAtzuK5WGuToUZgIiuvw8TtxMI0nGQmTCKIrQ-qPuHdkcM2kSZmBd9HpWPDGSer-XtGSUGEhhwIE1mM4KhhgYtxGMBRLZdNAwAJQsmg85HTqipXbg4H7K8b4GJVslGv9J8Byd2cTzcVwxduOw0VHcnp6O0_e6XEqptTay23UWYPgd3t3_2WEEuTUAYVaiIY_44_LG9Q7-A0sByw3rGLTZiVtWbW-Pv-MteYHTMbg3zfNlsCVP1NsLlsfMldUDZbzcYAyxr0caZr9VXnj_1yX6byYHuSHrNoA_TIy3p3V0cnTXAw5_YOgxww6jqNth9rVht-NKfmOXAdmRiYw2HfEGRjyLuVWhpV_tpNz__R6z-32nKixMz8xVp9uCrla4j40bzRVwtJyJs0qTV_sFezSlm00]--></g></svg>