<?xml version="1.0" encoding="us-ascii" standalone="no"?><svg xmlns="http://www.w3.org/2000/svg" xmlns:xlink="http://www.w3.org/1999/xlink" contentStyleType="text/css" height="544px" preserveAspectRatio="none" style="width:491px;height:544px;background:#FFFFFF;" version="1.1" viewBox="0 0 491 544" width="491px" zoomAndPan="magnify"><defs/><g><text fill="#000000" font-family="sans-serif" font-size="14" font-weight="bold" lengthAdjust="spacing" textLength="376" x="59.25" y="28.5352">US004 - Assign one or more skills to a collaborator</text><rect fill="#FFFFFF" height="316.416" style="stroke:#181818;stroke-width:1.0;" width="10" x="33.5" y="128.9766"/><rect fill="#FFFFFF" height="29.3105" style="stroke:#181818;stroke-width:1.0;" width="10" x="437.5" y="150.2871"/><rect fill="#FFFFFF" height="53.6211" style="stroke:#181818;stroke-width:1.0;" width="10" x="437.5" y="208.9082"/><rect fill="#FFFFFF" height="29.3105" style="stroke:#181818;stroke-width:1.0;" width="10" x="437.5" y="291.8398"/><rect fill="#FFFFFF" height="36.3105" style="stroke:#181818;stroke-width:1.0;" width="10" x="437.5" y="350.4609"/><rect fill="#FFFFFF" height="29.3105" style="stroke:#181818;stroke-width:1.0;" width="10" x="437.5" y="416.082"/><rect fill="none" height="134.5527" style="stroke:#000000;stroke-width:1.5;" width="475.5" x="10" y="223.9082"/><line style="stroke:#181818;stroke-width:0.5;stroke-dasharray:5.0,5.0;" x1="38" x2="38" y1="118.9766" y2="463.3926"/><line style="stroke:#181818;stroke-width:0.5;stroke-dasharray:5.0,5.0;" x1="442.5" x2="442.5" y1="118.9766" y2="463.3926"/><text fill="#000000" font-family="sans-serif" font-size="14" lengthAdjust="spacing" textLength="31" x="20" y="116.0234">HRM</text><ellipse cx="38.5" cy="50.9883" fill="#E3E3E3" rx="8" ry="8" style="stroke:#181818;stroke-width:0.5;"/><path d="M38.5,58.9883 L38.5,85.9883 M25.5,66.9883 L51.5,66.9883 M38.5,85.9883 L25.5,100.9883 M38.5,85.9883 L51.5,100.9883 " fill="none" style="stroke:#181818;stroke-width:0.5;"/><text fill="#000000" font-family="sans-serif" font-size="14" lengthAdjust="spacing" textLength="31" x="20" y="475.9277">HRM</text><ellipse cx="38.5" cy="487.3809" fill="#E3E3E3" rx="8" ry="8" style="stroke:#181818;stroke-width:0.5;"/><path d="M38.5,495.3809 L38.5,522.3809 M25.5,503.3809 L51.5,503.3809 M38.5,522.3809 L25.5,537.3809 M38.5,522.3809 L51.5,537.3809 " fill="none" style="stroke:#181818;stroke-width:0.5;"/><rect fill="#E3E3E3" height="30.4883" rx="2.5" ry="2.5" style="stroke:#181818;stroke-width:0.5;" width="66" x="409.5" y="87.4883"/><text fill="#000000" font-family="sans-serif" font-size="14" lengthAdjust="spacing" textLength="52" x="416.5" y="108.0234">:System</text><rect fill="#E3E3E3" height="30.4883" rx="2.5" ry="2.5" style="stroke:#181818;stroke-width:0.5;" width="66" x="409.5" y="462.3926"/><text fill="#000000" font-family="sans-serif" font-size="14" lengthAdjust="spacing" textLength="52" x="416.5" y="482.9277">:System</text><rect fill="#FFFFFF" height="316.416" style="stroke:#181818;stroke-width:1.0;" width="10" x="33.5" y="128.9766"/><rect fill="#FFFFFF" height="29.3105" style="stroke:#181818;stroke-width:1.0;" width="10" x="437.5" y="150.2871"/><rect fill="#FFFFFF" height="53.6211" style="stroke:#181818;stroke-width:1.0;" width="10" x="437.5" y="208.9082"/><rect fill="#FFFFFF" height="29.3105" style="stroke:#181818;stroke-width:1.0;" width="10" x="437.5" y="291.8398"/><rect fill="#FFFFFF" height="36.3105" style="stroke:#181818;stroke-width:1.0;" width="10" x="437.5" y="350.4609"/><rect fill="#FFFFFF" height="29.3105" style="stroke:#181818;stroke-width:1.0;" width="10" x="437.5" y="416.082"/><polygon fill="#181818" points="425.5,146.2871,435.5,150.2871,425.5,154.2871,429.5,150.2871" style="stroke:#181818;stroke-width:1.0;"/><line style="stroke:#181818;stroke-width:1.0;" x1="43.5" x2="431.5" y1="150.2871" y2="150.2871"/><text fill="#000000" font-family="sans-serif" font-size="13" font-weight="bold" lengthAdjust="spacing" textLength="9" x="50.5" y="145.5449">1</text><text fill="#000000" font-family="sans-serif" font-size="13" lengthAdjust="spacing" textLength="257" x="63.5" y="145.5449">asks to assign one skill to a collaborator</text><polygon fill="#181818" points="54.5,175.5977,44.5,179.5977,54.5,183.5977,50.5,179.5977" style="stroke:#181818;stroke-width:1.0;"/><line style="stroke:#181818;stroke-width:1.0;stroke-dasharray:2.0,2.0;" x1="48.5" x2="441.5" y1="179.5977" y2="179.5977"/><text fill="#000000" font-family="sans-serif" font-size="13" font-weight="bold" lengthAdjust="spacing" textLength="9" x="60.5" y="174.8555">2</text><text fill="#000000" font-family="sans-serif" font-size="13" lengthAdjust="spacing" textLength="184" x="73.5" y="174.8555">requests the collaborator's id</text><polygon fill="#181818" points="425.5,204.9082,435.5,208.9082,425.5,212.9082,429.5,208.9082" style="stroke:#181818;stroke-width:1.0;"/><line style="stroke:#181818;stroke-width:1.0;" x1="43.5" x2="431.5" y1="208.9082" y2="208.9082"/><text fill="#000000" font-family="sans-serif" font-size="13" font-weight="bold" lengthAdjust="spacing" textLength="9" x="50.5" y="204.166">3</text><text fill="#000000" font-family="sans-serif" font-size="13" lengthAdjust="spacing" textLength="140" x="63.5" y="204.166">types collaborator's id</text><path d="M10,223.9082 L84,223.9082 L84,231.2188 L74,241.2188 L10,241.2188 L10,223.9082 " fill="#EEEEEE" style="stroke:#000000;stroke-width:1.5;"/><rect fill="none" height="134.5527" style="stroke:#000000;stroke-width:1.5;" width="475.5" x="10" y="223.9082"/><text fill="#000000" font-family="sans-serif" font-size="13" font-weight="bold" lengthAdjust="spacing" textLength="29" x="25" y="237.4766">loop</text><text fill="#000000" font-family="sans-serif" font-size="11" font-weight="bold" lengthAdjust="spacing" textLength="172" x="99" y="236.543">[while HRM wants to continue]</text><polygon fill="#181818" points="54.5,258.5293,44.5,262.5293,54.5,266.5293,50.5,262.5293" style="stroke:#181818;stroke-width:1.0;"/><line style="stroke:#181818;stroke-width:1.0;stroke-dasharray:2.0,2.0;" x1="48.5" x2="441.5" y1="262.5293" y2="262.5293"/><text fill="#000000" font-family="sans-serif" font-size="13" font-weight="bold" lengthAdjust="spacing" textLength="9" x="60.5" y="257.7871">4</text><text fill="#000000" font-family="sans-serif" font-size="13" lengthAdjust="spacing" textLength="272" x="73.5" y="257.7871">shows skills list and requests to select one</text><polygon fill="#181818" points="425.5,287.8398,435.5,291.8398,425.5,295.8398,429.5,291.8398" style="stroke:#181818;stroke-width:1.0;"/><line style="stroke:#181818;stroke-width:1.0;" x1="43.5" x2="431.5" y1="291.8398" y2="291.8398"/><text fill="#000000" font-family="sans-serif" font-size="13" font-weight="bold" lengthAdjust="spacing" textLength="9" x="50.5" y="287.0977">5</text><text fill="#000000" font-family="sans-serif" font-size="13" lengthAdjust="spacing" textLength="102" x="63.5" y="287.0977">selects one skill</text><polygon fill="#181818" points="54.5,317.1504,44.5,321.1504,54.5,325.1504,50.5,321.1504" style="stroke:#181818;stroke-width:1.0;"/><line style="stroke:#181818;stroke-width:1.0;stroke-dasharray:2.0,2.0;" x1="48.5" x2="441.5" y1="321.1504" y2="321.1504"/><text fill="#000000" font-family="sans-serif" font-size="13" font-weight="bold" lengthAdjust="spacing" textLength="9" x="60.5" y="316.4082">6</text><text fill="#000000" font-family="sans-serif" font-size="13" lengthAdjust="spacing" textLength="105" x="73.5" y="316.4082">asks to continue</text><polygon fill="#181818" points="425.5,346.4609,435.5,350.4609,425.5,354.4609,429.5,350.4609" style="stroke:#181818;stroke-width:1.0;"/><line style="stroke:#181818;stroke-width:1.0;" x1="43.5" x2="431.5" y1="350.4609" y2="350.4609"/><text fill="#000000" font-family="sans-serif" font-size="13" font-weight="bold" lengthAdjust="spacing" textLength="9" x="50.5" y="345.7188">7</text><text fill="#000000" font-family="sans-serif" font-size="13" lengthAdjust="spacing" textLength="120" x="63.5" y="345.7188">responds yes or no</text><polygon fill="#181818" points="54.5,382.7715,44.5,386.7715,54.5,390.7715,50.5,386.7715" style="stroke:#181818;stroke-width:1.0;"/><line style="stroke:#181818;stroke-width:1.0;stroke-dasharray:2.0,2.0;" x1="48.5" x2="441.5" y1="386.7715" y2="386.7715"/><text fill="#000000" font-family="sans-serif" font-size="13" font-weight="bold" lengthAdjust="spacing" textLength="9" x="60.5" y="382.0293">8</text><text fill="#000000" font-family="sans-serif" font-size="13" lengthAdjust="spacing" textLength="357" x="73.5" y="382.0293">shows all collaborator's skills and requests confirmation</text><polygon fill="#181818" points="425.5,412.082,435.5,416.082,425.5,420.082,429.5,416.082" style="stroke:#181818;stroke-width:1.0;"/><line style="stroke:#181818;stroke-width:1.0;" x1="43.5" x2="431.5" y1="416.082" y2="416.082"/><text fill="#000000" font-family="sans-serif" font-size="13" font-weight="bold" lengthAdjust="spacing" textLength="9" x="50.5" y="411.3398">9</text><text fill="#000000" font-family="sans-serif" font-size="13" lengthAdjust="spacing" textLength="87" x="63.5" y="411.3398">confirms data</text><polygon fill="#181818" points="49.5,441.3926,39.5,445.3926,49.5,449.3926,45.5,445.3926" style="stroke:#181818;stroke-width:1.0;"/><line style="stroke:#181818;stroke-width:1.0;stroke-dasharray:2.0,2.0;" x1="43.5" x2="441.5" y1="445.3926" y2="445.3926"/><text fill="#000000" font-family="sans-serif" font-size="13" font-weight="bold" lengthAdjust="spacing" textLength="18" x="55.5" y="440.6504">10</text><text fill="#000000" font-family="sans-serif" font-size="13" lengthAdjust="spacing" textLength="170" x="77.5" y="440.6504">displays operation success</text><!--SRC=[bLAxRiCm3Dpz5KIMJW4oTCfGe4E1BbqQz0COcOc5oA8gqZNyzwKTEu_2GM5D4iKx7e-Kauy9CzPGSsHNPQu9D3TKoEKdeJlXaNRQ1O9CJZ4Umss2L5Xow-CH3XY4YaAzMkhNRhDvXZMyYlXZ18u4dArE9Z1i20BAWE0u1DnpHkLS5DWenwRUKtzt5eBL- -V72b3WhKw1EwB2ggftFc5KM6rtdIZLGyRvEW3z3ofT8GNOcLwmVXbJOMkmqrd8LUMWRaPSpt6XdchrmP5iRRoN6bkpwhiXKMElw8xeIS2N0x2aMRvPeTebaWSyioo1EK5RUHk5MGYjsJLqwZYgZpRYnzAbubQcAGKl2XZBcuOOX89jGc_NuaREKBbQlTJOQMHtZInHa4aInrAWCqTjnIBFIkXZ5Cj_VKBRbZzp6QsxSyta7dokKJt7nP97i429YaiDAxsaW9trcYWFzK4QvqZaaOwRqCJp2m00]--></g></svg>