<?xml version="1.0" encoding="us-ascii" standalone="no"?><svg xmlns="http://www.w3.org/2000/svg" xmlns:xlink="http://www.w3.org/1999/xlink" contentStyleType="text/css" height="603px" preserveAspectRatio="none" style="width:455px;height:603px;background:#FFFFFF;" version="1.1" viewBox="0 0 455 603" width="455px" zoomAndPan="magnify"><defs/><g><text fill="#000000" font-family="sans-serif" font-size="14" font-weight="bold" lengthAdjust="spacing" textLength="376" x="41.25" y="28.5352">US004 - Assign one or more skills to a collaborator</text><rect fill="#FFFFFF" height="375.0371" style="stroke:#181818;stroke-width:1.0;" width="10" x="33.5" y="128.9766"/><rect fill="#FFFFFF" height="29.3105" style="stroke:#181818;stroke-width:1.0;" width="10" x="401.5" y="150.2871"/><rect fill="#FFFFFF" height="29.3105" style="stroke:#181818;stroke-width:1.0;" width="10" x="401.5" y="208.9082"/><rect fill="#FFFFFF" height="53.6211" style="stroke:#181818;stroke-width:1.0;" width="10" x="401.5" y="267.5293"/><rect fill="#FFFFFF" height="29.3105" style="stroke:#181818;stroke-width:1.0;" width="10" x="401.5" y="350.4609"/><rect fill="#FFFFFF" height="36.3105" style="stroke:#181818;stroke-width:1.0;" width="10" x="401.5" y="409.082"/><rect fill="#FFFFFF" height="29.3105" style="stroke:#181818;stroke-width:1.0;" width="10" x="401.5" y="474.7031"/><rect fill="none" height="134.5527" style="stroke:#000000;stroke-width:1.5;" width="439.5" x="10" y="282.5293"/><line style="stroke:#181818;stroke-width:0.5;stroke-dasharray:5.0,5.0;" x1="38" x2="38" y1="118.9766" y2="522.0137"/><line style="stroke:#181818;stroke-width:0.5;stroke-dasharray:5.0,5.0;" x1="406.5" x2="406.5" y1="118.9766" y2="522.0137"/><text fill="#000000" font-family="sans-serif" font-size="14" lengthAdjust="spacing" textLength="31" x="20" y="116.0234">HRM</text><ellipse cx="38.5" cy="50.9883" fill="#E3E3E3" rx="8" ry="8" style="stroke:#181818;stroke-width:0.5;"/><path d="M38.5,58.9883 L38.5,85.9883 M25.5,66.9883 L51.5,66.9883 M38.5,85.9883 L25.5,100.9883 M38.5,85.9883 L51.5,100.9883 " fill="none" style="stroke:#181818;stroke-width:0.5;"/><text fill="#000000" font-family="sans-serif" font-size="14" lengthAdjust="spacing" textLength="31" x="20" y="534.5488">HRM</text><ellipse cx="38.5" cy="546.002" fill="#E3E3E3" rx="8" ry="8" style="stroke:#181818;stroke-width:0.5;"/><path d="M38.5,554.002 L38.5,581.002 M25.5,562.002 L51.5,562.002 M38.5,581.002 L25.5,596.002 M38.5,581.002 L51.5,596.002 " fill="none" style="stroke:#181818;stroke-width:0.5;"/><rect fill="#E3E3E3" height="30.4883" rx="2.5" ry="2.5" style="stroke:#181818;stroke-width:0.5;" width="66" x="373.5" y="87.4883"/><text fill="#000000" font-family="sans-serif" font-size="14" lengthAdjust="spacing" textLength="52" x="380.5" y="108.0234">:System</text><rect fill="#E3E3E3" height="30.4883" rx="2.5" ry="2.5" style="stroke:#181818;stroke-width:0.5;" width="66" x="373.5" y="521.0137"/><text fill="#000000" font-family="sans-serif" font-size="14" lengthAdjust="spacing" textLength="52" x="380.5" y="541.5488">:System</text><rect fill="#FFFFFF" height="375.0371" style="stroke:#181818;stroke-width:1.0;" width="10" x="33.5" y="128.9766"/><rect fill="#FFFFFF" height="29.3105" style="stroke:#181818;stroke-width:1.0;" width="10" x="401.5" y="150.2871"/><rect fill="#FFFFFF" height="29.3105" style="stroke:#181818;stroke-width:1.0;" width="10" x="401.5" y="208.9082"/><rect fill="#FFFFFF" height="53.6211" style="stroke:#181818;stroke-width:1.0;" width="10" x="401.5" y="267.5293"/><rect fill="#FFFFFF" height="29.3105" style="stroke:#181818;stroke-width:1.0;" width="10" x="401.5" y="350.4609"/><rect fill="#FFFFFF" height="36.3105" style="stroke:#181818;stroke-width:1.0;" width="10" x="401.5" y="409.082"/><rect fill="#FFFFFF" height="29.3105" style="stroke:#181818;stroke-width:1.0;" width="10" x="401.5" y="474.7031"/><polygon fill="#181818" points="389.5,146.2871,399.5,150.2871,389.5,154.2871,393.5,150.2871" style="stroke:#181818;stroke-width:1.0;"/><line style="stroke:#181818;stroke-width:1.0;" x1="43.5" x2="395.5" y1="150.2871" y2="150.2871"/><text fill="#000000" font-family="sans-serif" font-size="13" font-weight="bold" lengthAdjust="spacing" textLength="9" x="50.5" y="145.5449">1</text><text fill="#000000" font-family="sans-serif" font-size="13" lengthAdjust="spacing" textLength="245" x="63.5" y="145.5449">asks to assign skill(s) to a collaborator</text><polygon fill="#181818" points="54.5,175.5977,44.5,179.5977,54.5,183.5977,50.5,179.5977" style="stroke:#181818;stroke-width:1.0;"/><line style="stroke:#181818;stroke-width:1.0;stroke-dasharray:2.0,2.0;" x1="48.5" x2="405.5" y1="179.5977" y2="179.5977"/><text fill="#000000" font-family="sans-serif" font-size="13" font-weight="bold" lengthAdjust="spacing" textLength="9" x="60.5" y="174.8555">2</text><text fill="#000000" font-family="sans-serif" font-size="13" lengthAdjust="spacing" textLength="184" x="73.5" y="174.8555">requests the collaborator's id</text><polygon fill="#181818" points="389.5,204.9082,399.5,208.9082,389.5,212.9082,393.5,208.9082" style="stroke:#181818;stroke-width:1.0;"/><line style="stroke:#181818;stroke-width:1.0;" x1="43.5" x2="395.5" y1="208.9082" y2="208.9082"/><text fill="#000000" font-family="sans-serif" font-size="13" font-weight="bold" lengthAdjust="spacing" textLength="9" x="50.5" y="204.166">3</text><text fill="#000000" font-family="sans-serif" font-size="13" lengthAdjust="spacing" textLength="140" x="63.5" y="204.166">types collaborator's id</text><polygon fill="#181818" points="54.5,234.2188,44.5,238.2188,54.5,242.2188,50.5,238.2188" style="stroke:#181818;stroke-width:1.0;"/><line style="stroke:#181818;stroke-width:1.0;stroke-dasharray:2.0,2.0;" x1="48.5" x2="405.5" y1="238.2188" y2="238.2188"/><text fill="#000000" font-family="sans-serif" font-size="13" font-weight="bold" lengthAdjust="spacing" textLength="9" x="60.5" y="233.4766">4</text><text fill="#000000" font-family="sans-serif" font-size="13" lengthAdjust="spacing" textLength="230" x="73.5" y="233.4766">requests to confirm collaborator's id</text><polygon fill="#181818" points="389.5,263.5293,399.5,267.5293,389.5,271.5293,393.5,267.5293" style="stroke:#181818;stroke-width:1.0;"/><line style="stroke:#181818;stroke-width:1.0;" x1="43.5" x2="395.5" y1="267.5293" y2="267.5293"/><text fill="#000000" font-family="sans-serif" font-size="13" font-weight="bold" lengthAdjust="spacing" textLength="9" x="50.5" y="262.7871">5</text><text fill="#000000" font-family="sans-serif" font-size="13" lengthAdjust="spacing" textLength="162" x="63.5" y="262.7871">confirms collaborator's id</text><path d="M10,282.5293 L84,282.5293 L84,289.8398 L74,299.8398 L10,299.8398 L10,282.5293 " fill="#EEEEEE" style="stroke:#000000;stroke-width:1.5;"/><rect fill="none" height="134.5527" style="stroke:#000000;stroke-width:1.5;" width="439.5" x="10" y="282.5293"/><text fill="#000000" font-family="sans-serif" font-size="13" font-weight="bold" lengthAdjust="spacing" textLength="29" x="25" y="296.0977">loop</text><text fill="#000000" font-family="sans-serif" font-size="11" font-weight="bold" lengthAdjust="spacing" textLength="172" x="99" y="295.1641">[while HRM wants to continue]</text><polygon fill="#181818" points="54.5,317.1504,44.5,321.1504,54.5,325.1504,50.5,321.1504" style="stroke:#181818;stroke-width:1.0;"/><line style="stroke:#181818;stroke-width:1.0;stroke-dasharray:2.0,2.0;" x1="48.5" x2="405.5" y1="321.1504" y2="321.1504"/><text fill="#000000" font-family="sans-serif" font-size="13" font-weight="bold" lengthAdjust="spacing" textLength="9" x="60.5" y="316.4082">6</text><text fill="#000000" font-family="sans-serif" font-size="13" lengthAdjust="spacing" textLength="272" x="73.5" y="316.4082">shows skills list and requests to select one</text><polygon fill="#181818" points="389.5,346.4609,399.5,350.4609,389.5,354.4609,393.5,350.4609" style="stroke:#181818;stroke-width:1.0;"/><line style="stroke:#181818;stroke-width:1.0;" x1="43.5" x2="395.5" y1="350.4609" y2="350.4609"/><text fill="#000000" font-family="sans-serif" font-size="13" font-weight="bold" lengthAdjust="spacing" textLength="9" x="50.5" y="345.7188">7</text><text fill="#000000" font-family="sans-serif" font-size="13" lengthAdjust="spacing" textLength="102" x="63.5" y="345.7188">selects one skill</text><polygon fill="#181818" points="54.5,375.7715,44.5,379.7715,54.5,383.7715,50.5,379.7715" style="stroke:#181818;stroke-width:1.0;"/><line style="stroke:#181818;stroke-width:1.0;stroke-dasharray:2.0,2.0;" x1="48.5" x2="405.5" y1="379.7715" y2="379.7715"/><text fill="#000000" font-family="sans-serif" font-size="13" font-weight="bold" lengthAdjust="spacing" textLength="9" x="60.5" y="375.0293">8</text><text fill="#000000" font-family="sans-serif" font-size="13" lengthAdjust="spacing" textLength="105" x="73.5" y="375.0293">asks to continue</text><polygon fill="#181818" points="389.5,405.082,399.5,409.082,389.5,413.082,393.5,409.082" style="stroke:#181818;stroke-width:1.0;"/><line style="stroke:#181818;stroke-width:1.0;" x1="43.5" x2="395.5" y1="409.082" y2="409.082"/><text fill="#000000" font-family="sans-serif" font-size="13" font-weight="bold" lengthAdjust="spacing" textLength="9" x="50.5" y="404.3398">9</text><text fill="#000000" font-family="sans-serif" font-size="13" lengthAdjust="spacing" textLength="120" x="63.5" y="404.3398">responds yes or no</text><polygon fill="#181818" points="54.5,441.3926,44.5,445.3926,54.5,449.3926,50.5,445.3926" style="stroke:#181818;stroke-width:1.0;"/><line style="stroke:#181818;stroke-width:1.0;stroke-dasharray:2.0,2.0;" x1="48.5" x2="405.5" y1="445.3926" y2="445.3926"/><text fill="#000000" font-family="sans-serif" font-size="13" font-weight="bold" lengthAdjust="spacing" textLength="18" x="60.5" y="440.6504">10</text><text fill="#000000" font-family="sans-serif" font-size="13" lengthAdjust="spacing" textLength="312" x="82.5" y="440.6504">shows skill(s) selected and requests confirmation</text><polygon fill="#181818" points="389.5,470.7031,399.5,474.7031,389.5,478.7031,393.5,474.7031" style="stroke:#181818;stroke-width:1.0;"/><line style="stroke:#181818;stroke-width:1.0;" x1="43.5" x2="395.5" y1="474.7031" y2="474.7031"/><text fill="#000000" font-family="sans-serif" font-size="13" font-weight="bold" lengthAdjust="spacing" textLength="18" x="50.5" y="469.9609">11</text><text fill="#000000" font-family="sans-serif" font-size="13" lengthAdjust="spacing" textLength="87" x="72.5" y="469.9609">confirms data</text><polygon fill="#181818" points="49.5,500.0137,39.5,504.0137,49.5,508.0137,45.5,504.0137" style="stroke:#181818;stroke-width:1.0;"/><line style="stroke:#181818;stroke-width:1.0;stroke-dasharray:2.0,2.0;" x1="43.5" x2="405.5" y1="504.0137" y2="504.0137"/><text fill="#000000" font-family="sans-serif" font-size="13" font-weight="bold" lengthAdjust="spacing" textLength="18" x="55.5" y="499.2715">12</text><text fill="#000000" font-family="sans-serif" font-size="13" lengthAdjust="spacing" textLength="170" x="77.5" y="499.2715">displays operation success</text><!--SRC=[hLEnJiD03Dtp5LONOAZKWQa34WCI2miL7-3ctERKo_auErJvUvoaAOtKIWIHwUApttkstyd1nuGPQwWvSbbbhWaqDrJ8-IPXUS0zRRGD19bAnRWFbmbIeUEZZtlOOH0g2lLggH-RrUeHbl0iulSHE19mDfvCOBKX22W3GiaXu9OpAkUYm4OvDlMMkdDf8LYylhyj00LUwXIu9IgCLNtf4qQ5nNhJYbBTPmp7lj1_eT9FIG7sZN-mV3gbmjhA3eEGGMMlx5uUhcZh8Cx88rKNF64j3VPCiRP9VJOaQk0LJO3k1Bph2nrTnRkgKzj4SWFdJwhOmEBEv_eVn9sGPkaBp0cEbJUds8RXQDiSLQcFvi3RJKZ5HnbD5BmeO7IJreI26RNptEnUXbBf_TfJp1tnwAX98tCKP9B4qGcqjd5x0P6lIkXY5DtlvjHPUkYCt7HQfzsXUev_Nxn3nRc3SbvImDPwJ9HxVf2cB4dabewBq8Zp3G00]--></g></svg>