<?xml version="1.0" encoding="us-ascii" standalone="no"?><svg xmlns="http://www.w3.org/2000/svg" xmlns:xlink="http://www.w3.org/1999/xlink" contentStyleType="text/css" height="870px" preserveAspectRatio="none" style="width:1277px;height:870px;background:#FFFFFF;" version="1.1" viewBox="0 0 1277 870" width="1277px" zoomAndPan="magnify"><defs/><g><!--class AddEntryAgendaUI--><g id="elem_AddEntryAgendaUI"><rect codeLine="11" fill="#F1F1F1" height="48" id="AddEntryAgendaUI" rx="2.5" ry="2.5" style="stroke:#181818;stroke-width:0.5;" width="151" x="343" y="44"/><ellipse cx="358" cy="60" fill="#ADD1B2" rx="11" ry="11" style="stroke:#181818;stroke-width:1.0;"/><path d="M360.7656,55.875 Q360.9219,55.6563 361.1094,55.5469 Q361.2969,55.4375 361.5156,55.4375 Q361.8906,55.4375 362.125,55.7031 Q362.3594,55.9531 362.3594,56.5625 L362.3594,58.0156 Q362.3594,58.625 362.125,58.8906 Q361.8906,59.1563 361.5156,59.1563 Q361.1719,59.1563 360.9688,58.9531 Q360.7656,58.7656 360.6563,58.25 Q360.6094,57.8906 360.4219,57.7031 Q360.0938,57.3281 359.4844,57.1094 Q358.875,56.8906 358.25,56.8906 Q357.4844,56.8906 356.8438,57.2188 Q356.2188,57.5469 355.7188,58.2969 Q355.2344,59.0469 355.2344,60.0781 L355.2344,61.1719 Q355.2344,62.4063 356.125,63.2344 Q357.0156,64.0469 358.6094,64.0469 Q359.5469,64.0469 360.2031,63.7969 Q360.5938,63.6406 361.0156,63.2031 Q361.2813,62.9375 361.4219,62.8594 Q361.5781,62.7813 361.7813,62.7813 Q362.1094,62.7813 362.3594,63.0469 Q362.625,63.2969 362.625,63.6406 Q362.625,63.9844 362.2813,64.3906 Q361.7813,64.9688 360.9844,65.2969 Q359.9063,65.75 358.6094,65.75 Q357.0938,65.75 355.8906,65.125 Q354.9063,64.625 354.2188,63.5625 Q353.5313,62.4844 353.5313,61.2031 L353.5313,60.0469 Q353.5313,58.7188 354.1406,57.5781 Q354.7656,56.4219 355.8594,55.8125 Q356.9531,55.1875 358.1875,55.1875 Q358.9219,55.1875 359.5625,55.3594 Q360.2188,55.5156 360.7656,55.875 Z " fill="#000000"/><text fill="#000000" font-family="sans-serif" font-size="14" lengthAdjust="spacing" textLength="119" x="372" y="65.7969">AddEntryAgendaUI</text><line style="stroke:#181818;stroke-width:0.5;" x1="344" x2="493" y1="76" y2="76"/><line style="stroke:#181818;stroke-width:0.5;" x1="344" x2="493" y1="84" y2="84"/></g><!--class AddEntryAgendaController--><g id="elem_AddEntryAgendaController"><rect codeLine="16" fill="#F1F1F1" height="122.4844" id="AddEntryAgendaController" rx="2.5" ry="2.5" style="stroke:#181818;stroke-width:0.5;" width="201" x="529" y="7"/><ellipse cx="544" cy="23" fill="#ADD1B2" rx="11" ry="11" style="stroke:#181818;stroke-width:1.0;"/><path d="M546.7656,18.875 Q546.9219,18.6563 547.1094,18.5469 Q547.2969,18.4375 547.5156,18.4375 Q547.8906,18.4375 548.125,18.7031 Q548.3594,18.9531 548.3594,19.5625 L548.3594,21.0156 Q548.3594,21.625 548.125,21.8906 Q547.8906,22.1563 547.5156,22.1563 Q547.1719,22.1563 546.9688,21.9531 Q546.7656,21.7656 546.6563,21.25 Q546.6094,20.8906 546.4219,20.7031 Q546.0938,20.3281 545.4844,20.1094 Q544.875,19.8906 544.25,19.8906 Q543.4844,19.8906 542.8438,20.2188 Q542.2188,20.5469 541.7188,21.2969 Q541.2344,22.0469 541.2344,23.0781 L541.2344,24.1719 Q541.2344,25.4063 542.125,26.2344 Q543.0156,27.0469 544.6094,27.0469 Q545.5469,27.0469 546.2031,26.7969 Q546.5938,26.6406 547.0156,26.2031 Q547.2813,25.9375 547.4219,25.8594 Q547.5781,25.7813 547.7813,25.7813 Q548.1094,25.7813 548.3594,26.0469 Q548.625,26.2969 548.625,26.6406 Q548.625,26.9844 548.2813,27.3906 Q547.7813,27.9688 546.9844,28.2969 Q545.9063,28.75 544.6094,28.75 Q543.0938,28.75 541.8906,28.125 Q540.9063,27.625 540.2188,26.5625 Q539.5313,25.4844 539.5313,24.2031 L539.5313,23.0469 Q539.5313,21.7188 540.1406,20.5781 Q540.7656,19.4219 541.8594,18.8125 Q542.9531,18.1875 544.1875,18.1875 Q544.9219,18.1875 545.5625,18.3594 Q546.2188,18.5156 546.7656,18.875 Z " fill="#000000"/><text fill="#000000" font-family="sans-serif" font-size="14" lengthAdjust="spacing" textLength="169" x="558" y="28.7969">AddEntryAgendaController</text><line style="stroke:#181818;stroke-width:0.5;" x1="530" x2="729" y1="39" y2="39"/><line style="stroke:#181818;stroke-width:0.5;" x1="530" x2="729" y1="47" y2="47"/><text fill="#000000" font-family="sans-serif" font-size="14" lengthAdjust="spacing" textLength="187" x="535" y="66.1074">+AddEntryAgendaController()</text><text fill="#000000" font-family="sans-serif" font-size="14" lengthAdjust="spacing" textLength="139" x="535" y="84.7285">+getToDoListEntries()</text><text fill="#000000" font-family="sans-serif" font-size="14" lengthAdjust="spacing" textLength="127" x="535" y="103.3496">+getSelectedTask(i)</text><text fill="#000000" font-family="sans-serif" font-size="14" lengthAdjust="spacing" textLength="152" x="535" y="121.9707">+addEntry(startingDate)</text></g><!--class ApplicationSession--><g id="elem_ApplicationSession"><rect codeLine="24" fill="#F1F1F1" height="85.2422" id="ApplicationSession" rx="2.5" ry="2.5" style="stroke:#181818;stroke-width:0.5;" width="151" x="7" y="226.5"/><ellipse cx="22" cy="242.5" fill="#ADD1B2" rx="11" ry="11" style="stroke:#181818;stroke-width:1.0;"/><path d="M24.7656,238.375 Q24.9219,238.1563 25.1094,238.0469 Q25.2969,237.9375 25.5156,237.9375 Q25.8906,237.9375 26.125,238.2031 Q26.3594,238.4531 26.3594,239.0625 L26.3594,240.5156 Q26.3594,241.125 26.125,241.3906 Q25.8906,241.6563 25.5156,241.6563 Q25.1719,241.6563 24.9688,241.4531 Q24.7656,241.2656 24.6563,240.75 Q24.6094,240.3906 24.4219,240.2031 Q24.0938,239.8281 23.4844,239.6094 Q22.875,239.3906 22.25,239.3906 Q21.4844,239.3906 20.8438,239.7188 Q20.2188,240.0469 19.7188,240.7969 Q19.2344,241.5469 19.2344,242.5781 L19.2344,243.6719 Q19.2344,244.9063 20.125,245.7344 Q21.0156,246.5469 22.6094,246.5469 Q23.5469,246.5469 24.2031,246.2969 Q24.5938,246.1406 25.0156,245.7031 Q25.2813,245.4375 25.4219,245.3594 Q25.5781,245.2813 25.7813,245.2813 Q26.1094,245.2813 26.3594,245.5469 Q26.625,245.7969 26.625,246.1406 Q26.625,246.4844 26.2813,246.8906 Q25.7813,247.4688 24.9844,247.7969 Q23.9063,248.25 22.6094,248.25 Q21.0938,248.25 19.8906,247.625 Q18.9063,247.125 18.2188,246.0625 Q17.5313,244.9844 17.5313,243.7031 L17.5313,242.5469 Q17.5313,241.2188 18.1406,240.0781 Q18.7656,238.9219 19.8594,238.3125 Q20.9531,237.6875 22.1875,237.6875 Q22.9219,237.6875 23.5625,237.8594 Q24.2188,238.0156 24.7656,238.375 Z " fill="#000000"/><text fill="#000000" font-family="sans-serif" font-size="14" lengthAdjust="spacing" textLength="119" x="36" y="248.2969">ApplicationSession</text><line style="stroke:#181818;stroke-width:0.5;" x1="8" x2="157" y1="258.5" y2="258.5"/><line style="stroke:#181818;stroke-width:0.5;" x1="8" x2="157" y1="266.5" y2="266.5"/><text fill="#000000" font-family="sans-serif" font-size="14" lengthAdjust="spacing" textLength="128" x="13" y="285.6074">+static getInstance()</text><text fill="#000000" font-family="sans-serif" font-size="14" lengthAdjust="spacing" textLength="136" x="13" y="304.2285">+getCurrentSession()</text></g><!--class Repositories--><g id="elem_Repositories"><rect codeLine="30" fill="#F1F1F1" height="122.4844" id="Repositories" rx="2.5" ry="2.5" style="stroke:#181818;stroke-width:0.5;" width="194" x="833.5" y="7"/><ellipse cx="886.75" cy="23" fill="#ADD1B2" rx="11" ry="11" style="stroke:#181818;stroke-width:1.0;"/><path d="M889.5156,18.875 Q889.6719,18.6563 889.8594,18.5469 Q890.0469,18.4375 890.2656,18.4375 Q890.6406,18.4375 890.875,18.7031 Q891.1094,18.9531 891.1094,19.5625 L891.1094,21.0156 Q891.1094,21.625 890.875,21.8906 Q890.6406,22.1563 890.2656,22.1563 Q889.9219,22.1563 889.7188,21.9531 Q889.5156,21.7656 889.4063,21.25 Q889.3594,20.8906 889.1719,20.7031 Q888.8438,20.3281 888.2344,20.1094 Q887.625,19.8906 887,19.8906 Q886.2344,19.8906 885.5938,20.2188 Q884.9688,20.5469 884.4688,21.2969 Q883.9844,22.0469 883.9844,23.0781 L883.9844,24.1719 Q883.9844,25.4063 884.875,26.2344 Q885.7656,27.0469 887.3594,27.0469 Q888.2969,27.0469 888.9531,26.7969 Q889.3438,26.6406 889.7656,26.2031 Q890.0313,25.9375 890.1719,25.8594 Q890.3281,25.7813 890.5313,25.7813 Q890.8594,25.7813 891.1094,26.0469 Q891.375,26.2969 891.375,26.6406 Q891.375,26.9844 891.0313,27.3906 Q890.5313,27.9688 889.7344,28.2969 Q888.6563,28.75 887.3594,28.75 Q885.8438,28.75 884.6406,28.125 Q883.6563,27.625 882.9688,26.5625 Q882.2813,25.4844 882.2813,24.2031 L882.2813,23.0469 Q882.2813,21.7188 882.8906,20.5781 Q883.5156,19.4219 884.6094,18.8125 Q885.7031,18.1875 886.9375,18.1875 Q887.6719,18.1875 888.3125,18.3594 Q888.9688,18.5156 889.5156,18.875 Z " fill="#000000"/><text fill="#000000" font-family="sans-serif" font-size="14" lengthAdjust="spacing" textLength="79" x="907.25" y="28.7969">Repositories</text><line style="stroke:#181818;stroke-width:0.5;" x1="834.5" x2="1026.5" y1="39" y2="39"/><line style="stroke:#181818;stroke-width:0.5;" x1="834.5" x2="1026.5" y1="47" y2="47"/><text fill="#000000" font-family="sans-serif" font-size="14" lengthAdjust="spacing" textLength="94" x="839.5" y="66.1074">-Repositories()</text><text fill="#000000" font-family="sans-serif" font-size="14" lengthAdjust="spacing" textLength="182" x="839.5" y="84.7285">+getInstance() : Repositories</text><text fill="#000000" font-family="sans-serif" font-size="14" lengthAdjust="spacing" textLength="95" x="839.5" y="103.3496">+getToDoList()</text><text fill="#000000" font-family="sans-serif" font-size="14" lengthAdjust="spacing" textLength="87" x="839.5" y="121.9707">+getAgenda()</text></g><!--class UserSession--><g id="elem_UserSession"><rect codeLine="38" fill="#F1F1F1" height="66.6211" id="UserSession" rx="2.5" ry="2.5" style="stroke:#181818;stroke-width:0.5;" width="113" x="16" y="492.5"/><ellipse cx="31.9" cy="508.5" fill="#ADD1B2" rx="11" ry="11" style="stroke:#181818;stroke-width:1.0;"/><path d="M34.6656,504.375 Q34.8219,504.1563 35.0094,504.0469 Q35.1969,503.9375 35.4156,503.9375 Q35.7906,503.9375 36.025,504.2031 Q36.2594,504.4531 36.2594,505.0625 L36.2594,506.5156 Q36.2594,507.125 36.025,507.3906 Q35.7906,507.6563 35.4156,507.6563 Q35.0719,507.6563 34.8688,507.4531 Q34.6656,507.2656 34.5563,506.75 Q34.5094,506.3906 34.3219,506.2031 Q33.9938,505.8281 33.3844,505.6094 Q32.775,505.3906 32.15,505.3906 Q31.3844,505.3906 30.7438,505.7188 Q30.1188,506.0469 29.6188,506.7969 Q29.1344,507.5469 29.1344,508.5781 L29.1344,509.6719 Q29.1344,510.9063 30.025,511.7344 Q30.9156,512.5469 32.5094,512.5469 Q33.4469,512.5469 34.1031,512.2969 Q34.4938,512.1406 34.9156,511.7031 Q35.1813,511.4375 35.3219,511.3594 Q35.4781,511.2813 35.6813,511.2813 Q36.0094,511.2813 36.2594,511.5469 Q36.525,511.7969 36.525,512.1406 Q36.525,512.4844 36.1813,512.8906 Q35.6813,513.4688 34.8844,513.7969 Q33.8063,514.25 32.5094,514.25 Q30.9938,514.25 29.7906,513.625 Q28.8063,513.125 28.1188,512.0625 Q27.4313,510.9844 27.4313,509.7031 L27.4313,508.5469 Q27.4313,507.2188 28.0406,506.0781 Q28.6656,504.9219 29.7594,504.3125 Q30.8531,503.6875 32.0875,503.6875 Q32.8219,503.6875 33.4625,503.8594 Q34.1188,504.0156 34.6656,504.375 Z " fill="#000000"/><text fill="#000000" font-family="sans-serif" font-size="14" lengthAdjust="spacing" textLength="79" x="46.1" y="514.2969">UserSession</text><line style="stroke:#181818;stroke-width:0.5;" x1="17" x2="128" y1="524.5" y2="524.5"/><line style="stroke:#181818;stroke-width:0.5;" x1="17" x2="128" y1="532.5" y2="532.5"/><text fill="#000000" font-family="sans-serif" font-size="14" lengthAdjust="spacing" textLength="101" x="22" y="551.6074">+getUserEmail()</text></g><!--class ToDoList--><g id="elem_ToDoList"><rect codeLine="43" fill="#F1F1F1" height="122.4844" id="ToDoList" rx="2.5" ry="2.5" style="stroke:#181818;stroke-width:0.5;" width="259" x="1011" y="208"/><ellipse cx="1107.75" cy="224" fill="#ADD1B2" rx="11" ry="11" style="stroke:#181818;stroke-width:1.0;"/><path d="M1110.5156,219.875 Q1110.6719,219.6563 1110.8594,219.5469 Q1111.0469,219.4375 1111.2656,219.4375 Q1111.6406,219.4375 1111.875,219.7031 Q1112.1094,219.9531 1112.1094,220.5625 L1112.1094,222.0156 Q1112.1094,222.625 1111.875,222.8906 Q1111.6406,223.1563 1111.2656,223.1563 Q1110.9219,223.1563 1110.7188,222.9531 Q1110.5156,222.7656 1110.4063,222.25 Q1110.3594,221.8906 1110.1719,221.7031 Q1109.8438,221.3281 1109.2344,221.1094 Q1108.625,220.8906 1108,220.8906 Q1107.2344,220.8906 1106.5938,221.2188 Q1105.9688,221.5469 1105.4688,222.2969 Q1104.9844,223.0469 1104.9844,224.0781 L1104.9844,225.1719 Q1104.9844,226.4063 1105.875,227.2344 Q1106.7656,228.0469 1108.3594,228.0469 Q1109.2969,228.0469 1109.9531,227.7969 Q1110.3438,227.6406 1110.7656,227.2031 Q1111.0313,226.9375 1111.1719,226.8594 Q1111.3281,226.7813 1111.5313,226.7813 Q1111.8594,226.7813 1112.1094,227.0469 Q1112.375,227.2969 1112.375,227.6406 Q1112.375,227.9844 1112.0313,228.3906 Q1111.5313,228.9688 1110.7344,229.2969 Q1109.6563,229.75 1108.3594,229.75 Q1106.8438,229.75 1105.6406,229.125 Q1104.6563,228.625 1103.9688,227.5625 Q1103.2813,226.4844 1103.2813,225.2031 L1103.2813,224.0469 Q1103.2813,222.7188 1103.8906,221.5781 Q1104.5156,220.4219 1105.6094,219.8125 Q1106.7031,219.1875 1107.9375,219.1875 Q1108.6719,219.1875 1109.3125,219.3594 Q1109.9688,219.5156 1110.5156,219.875 Z " fill="#000000"/><text fill="#000000" font-family="sans-serif" font-size="14" lengthAdjust="spacing" textLength="57" x="1128.25" y="229.7969">ToDoList</text><line style="stroke:#181818;stroke-width:0.5;" x1="1012" x2="1269" y1="240" y2="240"/><text fill="#000000" font-family="sans-serif" font-size="14" lengthAdjust="spacing" textLength="143" x="1017" y="259.1074">-List&lt;Task&gt; entriesList</text><text fill="#000000" font-family="sans-serif" font-size="14" lengthAdjust="spacing" textLength="247" x="1017" y="277.7285">-List&lt;Task&gt; associatedToDoEntriesList</text><line style="stroke:#181818;stroke-width:0.5;" x1="1012" x2="1269" y1="285.2422" y2="285.2422"/><text fill="#000000" font-family="sans-serif" font-size="14" lengthAdjust="spacing" textLength="172" x="1017" y="304.3496">+getToDoListEntries(email)</text><text fill="#000000" font-family="sans-serif" font-size="14" lengthAdjust="spacing" textLength="127" x="1017" y="322.9707">+getSelectedTask(i)</text></g><!--class GreenSpace--><g id="elem_GreenSpace"><rect codeLine="51" fill="#F1F1F1" height="159.7266" id="GreenSpace" rx="2.5" ry="2.5" style="stroke:#181818;stroke-width:0.5;" width="149" x="580" y="704"/><ellipse cx="611.65" cy="720" fill="#ADD1B2" rx="11" ry="11" style="stroke:#181818;stroke-width:1.0;"/><path d="M614.4156,715.875 Q614.5719,715.6563 614.7594,715.5469 Q614.9469,715.4375 615.1656,715.4375 Q615.5406,715.4375 615.775,715.7031 Q616.0094,715.9531 616.0094,716.5625 L616.0094,718.0156 Q616.0094,718.625 615.775,718.8906 Q615.5406,719.1563 615.1656,719.1563 Q614.8219,719.1563 614.6188,718.9531 Q614.4156,718.7656 614.3063,718.25 Q614.2594,717.8906 614.0719,717.7031 Q613.7438,717.3281 613.1344,717.1094 Q612.525,716.8906 611.9,716.8906 Q611.1344,716.8906 610.4938,717.2188 Q609.8688,717.5469 609.3688,718.2969 Q608.8844,719.0469 608.8844,720.0781 L608.8844,721.1719 Q608.8844,722.4063 609.775,723.2344 Q610.6656,724.0469 612.2594,724.0469 Q613.1969,724.0469 613.8531,723.7969 Q614.2438,723.6406 614.6656,723.2031 Q614.9313,722.9375 615.0719,722.8594 Q615.2281,722.7813 615.4313,722.7813 Q615.7594,722.7813 616.0094,723.0469 Q616.275,723.2969 616.275,723.6406 Q616.275,723.9844 615.9313,724.3906 Q615.4313,724.9688 614.6344,725.2969 Q613.5563,725.75 612.2594,725.75 Q610.7438,725.75 609.5406,725.125 Q608.5563,724.625 607.8688,723.5625 Q607.1813,722.4844 607.1813,721.2031 L607.1813,720.0469 Q607.1813,718.7188 607.7906,717.5781 Q608.4156,716.4219 609.5094,715.8125 Q610.6031,715.1875 611.8375,715.1875 Q612.5719,715.1875 613.2125,715.3594 Q613.8688,715.5156 614.4156,715.875 Z " fill="#000000"/><text fill="#000000" font-family="sans-serif" font-size="14" lengthAdjust="spacing" textLength="80" x="629.35" y="725.7969">GreenSpace</text><line style="stroke:#181818;stroke-width:0.5;" x1="581" x2="728" y1="736" y2="736"/><text fill="#000000" font-family="sans-serif" font-size="14" lengthAdjust="spacing" textLength="81" x="586" y="755.1074">-String name</text><text fill="#000000" font-family="sans-serif" font-size="14" lengthAdjust="spacing" textLength="73" x="586" y="773.7285">-String type</text><text fill="#000000" font-family="sans-serif" font-size="14" lengthAdjust="spacing" textLength="53" x="586" y="792.3496">-int area</text><text fill="#000000" font-family="sans-serif" font-size="14" lengthAdjust="spacing" textLength="97" x="586" y="810.9707">-String address</text><text fill="#000000" font-family="sans-serif" font-size="14" lengthAdjust="spacing" textLength="106" x="586" y="829.5918">-String gsmEmail</text><line style="stroke:#181818;stroke-width:0.5;" x1="581" x2="728" y1="837.1055" y2="837.1055"/><text fill="#000000" font-family="sans-serif" font-size="14" lengthAdjust="spacing" textLength="137" x="586" y="856.2129">+hasUserEmail(email)</text></g><!--class TaskMapper--><g id="elem_TaskMapper"><rect codeLine="61" fill="#F1F1F1" height="103.8633" id="TaskMapper" rx="2.5" ry="2.5" style="stroke:#181818;stroke-width:0.5;" width="303" x="273" y="217"/><ellipse cx="380.75" cy="233" fill="#ADD1B2" rx="11" ry="11" style="stroke:#181818;stroke-width:1.0;"/><path d="M383.5156,228.875 Q383.6719,228.6563 383.8594,228.5469 Q384.0469,228.4375 384.2656,228.4375 Q384.6406,228.4375 384.875,228.7031 Q385.1094,228.9531 385.1094,229.5625 L385.1094,231.0156 Q385.1094,231.625 384.875,231.8906 Q384.6406,232.1563 384.2656,232.1563 Q383.9219,232.1563 383.7188,231.9531 Q383.5156,231.7656 383.4063,231.25 Q383.3594,230.8906 383.1719,230.7031 Q382.8438,230.3281 382.2344,230.1094 Q381.625,229.8906 381,229.8906 Q380.2344,229.8906 379.5938,230.2188 Q378.9688,230.5469 378.4688,231.2969 Q377.9844,232.0469 377.9844,233.0781 L377.9844,234.1719 Q377.9844,235.4063 378.875,236.2344 Q379.7656,237.0469 381.3594,237.0469 Q382.2969,237.0469 382.9531,236.7969 Q383.3438,236.6406 383.7656,236.2031 Q384.0313,235.9375 384.1719,235.8594 Q384.3281,235.7813 384.5313,235.7813 Q384.8594,235.7813 385.1094,236.0469 Q385.375,236.2969 385.375,236.6406 Q385.375,236.9844 385.0313,237.3906 Q384.5313,237.9688 383.7344,238.2969 Q382.6563,238.75 381.3594,238.75 Q379.8438,238.75 378.6406,238.125 Q377.6563,237.625 376.9688,236.5625 Q376.2813,235.4844 376.2813,234.2031 L376.2813,233.0469 Q376.2813,231.7188 376.8906,230.5781 Q377.5156,229.4219 378.6094,228.8125 Q379.7031,228.1875 380.9375,228.1875 Q381.6719,228.1875 382.3125,228.3594 Q382.9688,228.5156 383.5156,228.875 Z " fill="#000000"/><text fill="#000000" font-family="sans-serif" font-size="14" lengthAdjust="spacing" textLength="79" x="401.25" y="238.7969">TaskMapper</text><line style="stroke:#181818;stroke-width:0.5;" x1="274" x2="575" y1="249" y2="249"/><text fill="#000000" font-family="sans-serif" font-size="14" lengthAdjust="spacing" textLength="291" x="279" y="268.1074">-List&lt;TaskDto&gt; associatedToDoEntriesListDto</text><line style="stroke:#181818;stroke-width:0.5;" x1="274" x2="575" y1="275.6211" y2="275.6211"/><text fill="#000000" font-family="sans-serif" font-size="14" lengthAdjust="spacing" textLength="229" x="279" y="294.7285">+toDTO(associatedToDoEntriesList)</text><text fill="#000000" font-family="sans-serif" font-size="14" lengthAdjust="spacing" textLength="76" x="279" y="313.3496">-toDTO(obj)</text></g><!--class TaskDto--><g id="elem_TaskDto"><rect codeLine="68" fill="#F1F1F1" height="141.1055" id="TaskDto" rx="2.5" ry="2.5" style="stroke:#181818;stroke-width:0.5;" width="562" x="164.5" y="455.5"/><ellipse cx="414.75" cy="471.5" fill="#ADD1B2" rx="11" ry="11" style="stroke:#181818;stroke-width:1.0;"/><path d="M417.5156,467.375 Q417.6719,467.1563 417.8594,467.0469 Q418.0469,466.9375 418.2656,466.9375 Q418.6406,466.9375 418.875,467.2031 Q419.1094,467.4531 419.1094,468.0625 L419.1094,469.5156 Q419.1094,470.125 418.875,470.3906 Q418.6406,470.6563 418.2656,470.6563 Q417.9219,470.6563 417.7188,470.4531 Q417.5156,470.2656 417.4063,469.75 Q417.3594,469.3906 417.1719,469.2031 Q416.8438,468.8281 416.2344,468.6094 Q415.625,468.3906 415,468.3906 Q414.2344,468.3906 413.5938,468.7188 Q412.9688,469.0469 412.4688,469.7969 Q411.9844,470.5469 411.9844,471.5781 L411.9844,472.6719 Q411.9844,473.9063 412.875,474.7344 Q413.7656,475.5469 415.3594,475.5469 Q416.2969,475.5469 416.9531,475.2969 Q417.3438,475.1406 417.7656,474.7031 Q418.0313,474.4375 418.1719,474.3594 Q418.3281,474.2813 418.5313,474.2813 Q418.8594,474.2813 419.1094,474.5469 Q419.375,474.7969 419.375,475.1406 Q419.375,475.4844 419.0313,475.8906 Q418.5313,476.4688 417.7344,476.7969 Q416.6563,477.25 415.3594,477.25 Q413.8438,477.25 412.6406,476.625 Q411.6563,476.125 410.9688,475.0625 Q410.2813,473.9844 410.2813,472.7031 L410.2813,471.5469 Q410.2813,470.2188 410.8906,469.0781 Q411.5156,467.9219 412.6094,467.3125 Q413.7031,466.6875 414.9375,466.6875 Q415.6719,466.6875 416.3125,466.8594 Q416.9688,467.0156 417.5156,467.375 Z " fill="#000000"/><text fill="#000000" font-family="sans-serif" font-size="14" lengthAdjust="spacing" textLength="53" x="435.25" y="477.2969">TaskDto</text><line style="stroke:#181818;stroke-width:0.5;" x1="165.5" x2="725.5" y1="487.5" y2="487.5"/><text fill="#000000" font-family="sans-serif" font-size="14" lengthAdjust="spacing" textLength="68" x="170.5" y="506.6074">-String title</text><text fill="#000000" font-family="sans-serif" font-size="14" lengthAdjust="spacing" textLength="115" x="170.5" y="525.2285">-String description</text><text fill="#000000" font-family="sans-serif" font-size="14" lengthAdjust="spacing" textLength="158" x="170.5" y="543.8496">-String degreeOfUrgency</text><text fill="#000000" font-family="sans-serif" font-size="14" lengthAdjust="spacing" textLength="135" x="170.5" y="562.4707">-int expectedDuration</text><line style="stroke:#181818;stroke-width:0.5;" x1="165.5" x2="725.5" y1="569.9844" y2="569.9844"/><text fill="#000000" font-family="sans-serif" font-size="14" lengthAdjust="spacing" textLength="550" x="170.5" y="589.0918">+TaskDto(title, description, degreeOfUrgency, expectedDuration, selectedGreenSpace)</text></g><!--class Task--><g id="elem_Task"><rect codeLine="77" fill="#F1F1F1" height="234.2109" id="Task" rx="2.5" ry="2.5" style="stroke:#181818;stroke-width:0.5;" width="205" x="762" y="409"/><ellipse cx="844.75" cy="425" fill="#ADD1B2" rx="11" ry="11" style="stroke:#181818;stroke-width:1.0;"/><path d="M847.5156,420.875 Q847.6719,420.6563 847.8594,420.5469 Q848.0469,420.4375 848.2656,420.4375 Q848.6406,420.4375 848.875,420.7031 Q849.1094,420.9531 849.1094,421.5625 L849.1094,423.0156 Q849.1094,423.625 848.875,423.8906 Q848.6406,424.1563 848.2656,424.1563 Q847.9219,424.1563 847.7188,423.9531 Q847.5156,423.7656 847.4063,423.25 Q847.3594,422.8906 847.1719,422.7031 Q846.8438,422.3281 846.2344,422.1094 Q845.625,421.8906 845,421.8906 Q844.2344,421.8906 843.5938,422.2188 Q842.9688,422.5469 842.4688,423.2969 Q841.9844,424.0469 841.9844,425.0781 L841.9844,426.1719 Q841.9844,427.4063 842.875,428.2344 Q843.7656,429.0469 845.3594,429.0469 Q846.2969,429.0469 846.9531,428.7969 Q847.3438,428.6406 847.7656,428.2031 Q848.0313,427.9375 848.1719,427.8594 Q848.3281,427.7813 848.5313,427.7813 Q848.8594,427.7813 849.1094,428.0469 Q849.375,428.2969 849.375,428.6406 Q849.375,428.9844 849.0313,429.3906 Q848.5313,429.9688 847.7344,430.2969 Q846.6563,430.75 845.3594,430.75 Q843.8438,430.75 842.6406,430.125 Q841.6563,429.625 840.9688,428.5625 Q840.2813,427.4844 840.2813,426.2031 L840.2813,425.0469 Q840.2813,423.7188 840.8906,422.5781 Q841.5156,421.4219 842.6094,420.8125 Q843.7031,420.1875 844.9375,420.1875 Q845.6719,420.1875 846.3125,420.3594 Q846.9688,420.5156 847.5156,420.875 Z " fill="#000000"/><text fill="#000000" font-family="sans-serif" font-size="14" lengthAdjust="spacing" textLength="31" x="865.25" y="430.7969">Task</text><line style="stroke:#181818;stroke-width:0.5;" x1="763" x2="966" y1="441" y2="441"/><text fill="#000000" font-family="sans-serif" font-size="14" lengthAdjust="spacing" textLength="68" x="768" y="460.1074">-String title</text><text fill="#000000" font-family="sans-serif" font-size="14" lengthAdjust="spacing" textLength="115" x="768" y="478.7285">-String description</text><text fill="#000000" font-family="sans-serif" font-size="14" lengthAdjust="spacing" textLength="158" x="768" y="497.3496">-String degreeOfUrgency</text><text fill="#000000" font-family="sans-serif" font-size="14" lengthAdjust="spacing" textLength="135" x="768" y="515.9707">-int expectedDuration</text><text fill="#000000" font-family="sans-serif" font-size="14" lengthAdjust="spacing" textLength="84" x="768" y="534.5918">-String status</text><text fill="#000000" font-family="sans-serif" font-size="14" lengthAdjust="spacing" textLength="144" x="768" y="553.2129">-Calendar startingDate</text><line style="stroke:#181818;stroke-width:0.5;" x1="763" x2="966" y1="560.7266" y2="560.7266"/><text fill="#000000" font-family="sans-serif" font-size="14" lengthAdjust="spacing" textLength="80" x="768" y="579.834">+isPending()</text><text fill="#000000" font-family="sans-serif" font-size="14" lengthAdjust="spacing" textLength="137" x="768" y="598.4551">+hasUserEmail(email)</text><text fill="#000000" font-family="sans-serif" font-size="14" lengthAdjust="spacing" textLength="136" x="768" y="617.0762">+clone(selectedTask)</text><text fill="#000000" font-family="sans-serif" font-size="14" lengthAdjust="spacing" textLength="193" x="768" y="635.6973">+setStartingDate(startingDate)</text></g><!--class Agenda--><g id="elem_Agenda"><rect codeLine="91" fill="#F1F1F1" height="85.2422" id="Agenda" rx="2.5" ry="2.5" style="stroke:#181818;stroke-width:0.5;" width="293" x="683" y="226.5"/><ellipse cx="800.75" cy="242.5" fill="#ADD1B2" rx="11" ry="11" style="stroke:#181818;stroke-width:1.0;"/><path d="M803.5156,238.375 Q803.6719,238.1563 803.8594,238.0469 Q804.0469,237.9375 804.2656,237.9375 Q804.6406,237.9375 804.875,238.2031 Q805.1094,238.4531 805.1094,239.0625 L805.1094,240.5156 Q805.1094,241.125 804.875,241.3906 Q804.6406,241.6563 804.2656,241.6563 Q803.9219,241.6563 803.7188,241.4531 Q803.5156,241.2656 803.4063,240.75 Q803.3594,240.3906 803.1719,240.2031 Q802.8438,239.8281 802.2344,239.6094 Q801.625,239.3906 801,239.3906 Q800.2344,239.3906 799.5938,239.7188 Q798.9688,240.0469 798.4688,240.7969 Q797.9844,241.5469 797.9844,242.5781 L797.9844,243.6719 Q797.9844,244.9063 798.875,245.7344 Q799.7656,246.5469 801.3594,246.5469 Q802.2969,246.5469 802.9531,246.2969 Q803.3438,246.1406 803.7656,245.7031 Q804.0313,245.4375 804.1719,245.3594 Q804.3281,245.2813 804.5313,245.2813 Q804.8594,245.2813 805.1094,245.5469 Q805.375,245.7969 805.375,246.1406 Q805.375,246.4844 805.0313,246.8906 Q804.5313,247.4688 803.7344,247.7969 Q802.6563,248.25 801.3594,248.25 Q799.8438,248.25 798.6406,247.625 Q797.6563,247.125 796.9688,246.0625 Q796.2813,244.9844 796.2813,243.7031 L796.2813,242.5469 Q796.2813,241.2188 796.8906,240.0781 Q797.5156,238.9219 798.6094,238.3125 Q799.7031,237.6875 800.9375,237.6875 Q801.6719,237.6875 802.3125,237.8594 Q802.9688,238.0156 803.5156,238.375 Z " fill="#000000"/><text fill="#000000" font-family="sans-serif" font-size="14" lengthAdjust="spacing" textLength="49" x="821.25" y="248.2969">Agenda</text><line style="stroke:#181818;stroke-width:0.5;" x1="684" x2="975" y1="258.5" y2="258.5"/><line style="stroke:#181818;stroke-width:0.5;" x1="684" x2="975" y1="266.5" y2="266.5"/><text fill="#000000" font-family="sans-serif" font-size="14" lengthAdjust="spacing" textLength="281" x="689" y="285.6074">+addEntry(startingDate, selectedTaskClone)</text><text fill="#000000" font-family="sans-serif" font-size="14" lengthAdjust="spacing" textLength="160" x="689" y="304.2285">-add(selectedTaskClone)</text></g><!--link Repositories to Repositories--><g id="link_Repositories_Repositories"><path codeLine="97" d="M1027.78,49.91 C1047.98,51.81 1062.5,57.84 1062.5,68 C1062.5,78.16 1053.9536,83.6281 1033.7536,85.5281 " fill="none" id="Repositories-to-Repositories" style="stroke:#181818;stroke-width:1.0;"/><polygon fill="#181818" points="1027.78,86.09,1037.115,89.2296,1032.758,85.6218,1036.3659,81.2648,1027.78,86.09" style="stroke:#181818;stroke-width:1.0;"/><text fill="#000000" font-family="sans-serif" font-size="13" lengthAdjust="spacing" textLength="49" x="1068.5" y="73.5283">instance</text></g><!--link ApplicationSession to ApplicationSession--><g id="link_ApplicationSession_ApplicationSession"><path codeLine="98" d="M158.16,250.43 C178,251.53 193,257.72 193,269 C193,280.28 183.9908,286.1378 164.1508,287.2378 " fill="none" id="ApplicationSession-to-ApplicationSession" style="stroke:#181818;stroke-width:1.0;"/><polygon fill="#181818" points="158.16,287.57,167.3676,291.0656,163.1523,287.2932,166.9248,283.0779,158.16,287.57" style="stroke:#181818;stroke-width:1.0;"/><text fill="#000000" font-family="sans-serif" font-size="13" lengthAdjust="spacing" textLength="49" x="199" y="274.5283">instance</text></g><!--link AddEntryAgendaUI to AddEntryAgendaController--><g id="link_AddEntryAgendaUI_AddEntryAgendaController"><path codeLine="100" d="M494.35,68 C501.87,68 509.88,68 522.96,68 " fill="none" id="AddEntryAgendaUI-to-AddEntryAgendaController" style="stroke:#181818;stroke-width:1.0;stroke-dasharray:7.0,7.0;"/><polygon fill="#181818" points="528.96,68,519.96,64,523.96,68,519.96,72,528.96,68" style="stroke:#181818;stroke-width:1.0;"/></g><!--link AddEntryAgendaController to Repositories--><g id="link_AddEntryAgendaController_Repositories"><path codeLine="102" d="M730.15,68 C763.39,68 794.29,68 827.27,68 " fill="none" id="AddEntryAgendaController-to-Repositories" style="stroke:#181818;stroke-width:1.0;stroke-dasharray:7.0,7.0;"/><polygon fill="#181818" points="833.27,68,824.27,64,828.27,68,824.27,72,833.27,68" style="stroke:#181818;stroke-width:1.0;"/><text fill="#000000" font-family="sans-serif" font-size="13" lengthAdjust="spacing" textLength="67" x="748.25" y="61.0283">repositories</text></g><!--link Repositories to Agenda--><g id="link_Repositories_Agenda"><path codeLine="104" d="M902.87,129.24 C891.3,154.45 880.5,178 880.5,178 C880.5,178 869.3777,197.6197 856.0177,221.1997 " fill="none" id="Repositories-to-Agenda" style="stroke:#181818;stroke-width:1.0;"/><polygon fill="#181818" points="853.06,226.42,860.9768,220.5613,855.5248,222.0697,854.0164,216.6177,853.06,226.42" style="stroke:#181818;stroke-width:1.0;"/><text fill="#000000" font-family="sans-serif" font-size="13" lengthAdjust="spacing" textLength="7" x="849.2571" y="215.3113">1</text></g><!--link Repositories to ToDoList--><g id="link_Repositories_ToDoList"><path codeLine="105" d="M994.08,129.25 C1020.39,154.18 1046.4954,178.9123 1072.7854,203.8323 " fill="none" id="Repositories-to-ToDoList" style="stroke:#181818;stroke-width:1.0;"/><polygon fill="#181818" points="1077.14,207.96,1073.3599,198.8655,1073.5112,204.5203,1067.8563,204.6716,1077.14,207.96" style="stroke:#181818;stroke-width:1.0;"/><text fill="#000000" font-family="sans-serif" font-size="13" lengthAdjust="spacing" textLength="7" x="1062.4093" y="196.9366">1</text></g><!--link AddEntryAgendaController to ApplicationSession--><g id="link_AddEntryAgendaController_ApplicationSession"><path codeLine="107" d="M528.91,120.15 C518.42,125.48 511.5,129 511.5,129 C511.5,129 255.5,208 255.5,208 C255.5,208 210.3489,223.6645 163.7989,239.8045 " fill="none" id="AddEntryAgendaController-to-ApplicationSession" style="stroke:#181818;stroke-width:1.0;stroke-dasharray:7.0,7.0;"/><polygon fill="#181818" points="158.13,241.77,167.9437,242.601,162.8541,240.132,165.323,235.0424,158.13,241.77" style="stroke:#181818;stroke-width:1.0;"/></g><!--link AddEntryAgendaController to UserSession--><g id="link_AddEntryAgendaController_UserSession"><path codeLine="108" d="M621.2,129.21 C610.56,206.29 593.5,330 593.5,330 C593.5,330 146.5,409 146.5,409 C146.5,409 118.4272,453.0118 96.5372,487.3218 " fill="none" id="AddEntryAgendaController-to-UserSession" style="stroke:#181818;stroke-width:1.0;stroke-dasharray:7.0,7.0;"/><polygon fill="#181818" points="93.31,492.38,101.5229,486.9441,95.9993,488.1648,94.7786,482.6413,93.31,492.38" style="stroke:#181818;stroke-width:1.0;"/></g><!--link AddEntryAgendaController to ToDoList--><g id="link_AddEntryAgendaController_ToDoList"><path codeLine="109" d="M730.41,107.53 C838.13,148.67 993.5,208 993.5,208 C993.5,208 994.7355,208.5012 1005.3855,212.8512 " fill="none" id="AddEntryAgendaController-to-ToDoList" style="stroke:#181818;stroke-width:1.0;stroke-dasharray:7.0,7.0;"/><polygon fill="#181818" points="1010.94,215.12,1004.1207,208.0139,1006.3112,213.2294,1001.0957,215.4199,1010.94,215.12" style="stroke:#181818;stroke-width:1.0;"/><text fill="#000000" font-family="sans-serif" font-size="13" lengthAdjust="spacing" textLength="48" x="915.5" y="174.0283">toDoList</text></g><!--link AddEntryAgendaController to Agenda--><g id="link_AddEntryAgendaController_Agenda"><path codeLine="110" d="M688.08,129.24 C712.6,154.45 735.5,178 735.5,178 C735.5,178 757.116,198.6907 781.746,222.2707 " fill="none" id="AddEntryAgendaController-to-Agenda" style="stroke:#181818;stroke-width:1.0;stroke-dasharray:7.0,7.0;"/><polygon fill="#181818" points="786.08,226.42,782.3451,217.3068,782.4683,222.9623,776.8128,223.0855,786.08,226.42" style="stroke:#181818;stroke-width:1.0;"/><text fill="#000000" font-family="sans-serif" font-size="13" lengthAdjust="spacing" textLength="42" x="736.5" y="174.0283">agenda</text></g><!--link AddEntryAgendaController to TaskMapper--><g id="link_AddEntryAgendaController_TaskMapper"><path codeLine="111" d="M567.44,129.25 C538.68,157.16 509.1748,185.8004 481.6648,212.5104 " fill="none" id="AddEntryAgendaController-to-TaskMapper" style="stroke:#181818;stroke-width:1.0;stroke-dasharray:7.0,7.0;"/><polygon fill="#181818" points="477.36,216.69,486.6035,213.2905,480.9473,213.207,481.0308,207.5508,477.36,216.69" style="stroke:#181818;stroke-width:1.0;"/></g><!--link ToDoList to Task--><g id="link_ToDoList_Task"><path codeLine="113" d="M1075.44,330.11 C1043.17,359.93 1007.837,392.5684 971.577,426.0684 " fill="none" id="ToDoList-to-Task" style="stroke:#181818;stroke-width:1.0;"/><polygon fill="#181818" points="967.17,430.14,976.495,426.9706,970.8425,426.747,971.0662,421.0946,967.17,430.14" style="stroke:#181818;stroke-width:1.0;"/><text fill="#000000" font-family="sans-serif" font-size="13" lengthAdjust="spacing" textLength="7" x="1060.0843" y="352.6103">1</text><text fill="#000000" font-family="sans-serif" font-size="13" lengthAdjust="spacing" textLength="5" x="974.8934" y="419.5073">*</text></g><!--link Agenda to Task--><g id="link_Agenda_Task"><path codeLine="114" d="M835.2,311.54 C838.85,338.14 842.9752,368.1456 847.7452,402.9456 " fill="none" id="Agenda-to-Task" style="stroke:#181818;stroke-width:1.0;"/><polygon fill="#181818" points="848.56,408.89,851.3008,399.4302,847.881,403.9363,843.3749,400.5166,848.56,408.89" style="stroke:#181818;stroke-width:1.0;"/><text fill="#000000" font-family="sans-serif" font-size="13" lengthAdjust="spacing" textLength="7" x="828.5506" y="333.7067">1</text><text fill="#000000" font-family="sans-serif" font-size="13" lengthAdjust="spacing" textLength="5" x="842.3787" y="397.874">*</text></g><!--link Task to GreenSpace--><g id="link_Task_GreenSpace"><path codeLine="116" d="M769.33,643.02 C752.51,663.52 739.1553,679.8011 723.4053,699.0011 " fill="none" id="Task-to-GreenSpace" style="stroke:#181818;stroke-width:1.0;"/><polygon fill="#181818" points="719.6,703.64,728.4006,699.2186,722.7711,699.7743,722.2154,694.1448,719.6,703.64" style="stroke:#181818;stroke-width:1.0;"/><text fill="#000000" font-family="sans-serif" font-size="13" lengthAdjust="spacing" textLength="5" x="758.073" y="665.092">*</text><text fill="#000000" font-family="sans-serif" font-size="13" lengthAdjust="spacing" textLength="7" x="718.0863" y="692.7794">1</text></g><!--link TaskDto to GreenSpace--><g id="link_TaskDto_GreenSpace"><path codeLine="117" d="M502.33,596.61 C529.41,629.78 558.1256,664.9522 586.1356,699.2622 " fill="none" id="TaskDto-to-GreenSpace" style="stroke:#181818;stroke-width:1.0;"/><polygon fill="#181818" points="589.93,703.91,587.337,694.4086,586.768,700.0368,581.1398,699.4678,589.93,703.91" style="stroke:#181818;stroke-width:1.0;"/><text fill="#000000" font-family="sans-serif" font-size="13" lengthAdjust="spacing" textLength="5" x="502.9328" y="618.8061">*</text><text fill="#000000" font-family="sans-serif" font-size="13" lengthAdjust="spacing" textLength="7" x="576.6548" y="692.7974">1</text></g><!--link TaskMapper to TaskDto--><g id="link_TaskMapper_TaskDto"><path codeLine="119" d="M428.72,321.3 C431.9,359.84 435.7876,407.0702 439.2776,449.4502 " fill="none" id="TaskMapper-to-TaskDto" style="stroke:#181818;stroke-width:1.0;stroke-dasharray:7.0,7.0;"/><polygon fill="#181818" points="439.77,455.43,443.0179,446.1321,439.3596,450.4469,435.0448,446.7887,439.77,455.43" style="stroke:#181818;stroke-width:1.0;"/></g><!--link TaskMapper to Task--><g id="link_TaskMapper_Task"><path codeLine="120" d="M541.92,321.17 C632.88,360.8 743.5,409 743.5,409 C743.5,409 746.4982,411.8785 757.5482,422.4685 " fill="none" id="TaskMapper-to-Task" style="stroke:#181818;stroke-width:1.0;stroke-dasharray:7.0,7.0;"/><polygon fill="#181818" points="761.88,426.62,758.1499,417.5048,758.2701,423.1604,752.6146,423.2806,761.88,426.62" style="stroke:#181818;stroke-width:1.0;"/></g><!--link ApplicationSession to UserSession--><g id="link_ApplicationSession_UserSession"><path codeLine="122" d="M80.87,311.54 C78.89,362.06 75.8254,440.2946 74.0154,486.3946 " fill="none" id="ApplicationSession-to-UserSession" style="stroke:#181818;stroke-width:1.0;"/><polygon fill="#181818" points="73.78,492.39,78.13,483.5539,73.9762,487.3938,70.1362,483.24,73.78,492.39" style="stroke:#181818;stroke-width:1.0;"/><text fill="#000000" font-family="sans-serif" font-size="13" lengthAdjust="spacing" textLength="72" x="80.5" y="375.0283">userSession</text><text fill="#000000" font-family="sans-serif" font-size="13" lengthAdjust="spacing" textLength="7" x="66.3429" y="481.1939">1</text></g><!--SRC=[lLHHZzem37xFhuZkXRA3q_OwJKW8q8IqwQO1Fo3Ncf8HaYfnjR5f_trEcxQXb3xk7axKd_tP_c9xuivI5yAA2xyORTAJDHVWQ4jW7LA8z2nosE5L0RUGej2vYXtSIMJcfzGvFmhbOaH93NWjW1T6NVq7cmo0ng9XKLIgX7DBH2lVIeHjQlHE_WR-dh69WYDoDDpA_8GyaxuSQJHZLGnVPjb6exqkSz2PE6pP7yR-3eChGx-DKc39YTFVyqE7P1eSSi2zMPilqg5tbE1YQ0UAge5iBzmvaGqW0cdYK5WaaTO2OHfLLHHAfi9tiGFdV3DDFHI1ClNKMqs_TGfnkbLfBMWCGKb4-HqAuoGQNs0WczyOOvgEcd-yZRphEGwhDOgp7XpOVWVawCsRYv0gzcqOs-hynoSlt893hMm5tu4KR58flCf4iUcv3huG-EGZpzGMzTa2w1rDExHbxOY2nbgB2znQ_Dm6YzJ8XGLnwq3FRacCMsFkBfKKePYJS9qweSnE8YhlgoYATZuZ7TPeHgGWD2H0izw_9WyTfu6tTZDlFthfFL5F2PIeUb9au58hYseDUq1EYhuU3vPc9Rr6Si6ledg2TMb56_VSv4og9BEOUDOdczrnpBWB3zkzOw-V_zXC6-Ttk6p6O2MKtnhBuriGcfVk6s5aQxTiQ3ng95L6G-AYGMuGH_CTSJyyEjNsjciwUACwGNs2bK_P30pv9mCWqSS7XCyNDmU5xeiCnuRTNptlFM2DObZ_klENnUEZpXuXFgfNbetFtbqFJn-U6i66eFQMZMHy6Ufjt3y-fwEEJNxg0vjInYkfZEGkwgR6sRipnDfClksvR__TKxrOWVBEplp_wdCUr8gER5ZtHp3hKhUL-8iqO6Q3ynGe8o6fvpAIzHy0]--></g></svg>