<?xml version="1.0" encoding="us-ascii" standalone="no"?><svg xmlns="http://www.w3.org/2000/svg" xmlns:xlink="http://www.w3.org/1999/xlink" contentStyleType="text/css" height="511.2px" preserveAspectRatio="none" style="width:765px;height:511px;background:#FFFFFF;" version="1.1" viewBox="0 0 765 511" width="765.6px" zoomAndPan="magnify"><defs/><g><!--class AddEntryAgendaUI--><g id="elem_AddEntryAgendaUI"><rect codeLine="11" fill="#F1F1F1" height="28.8" id="AddEntryAgendaUI" rx="1.5" ry="1.5" style="stroke:#181818;stroke-width:0.3;" width="90.6" x="125.4" y="26.4"/><ellipse cx="134.4" cy="36" fill="#ADD1B2" rx="6.6" ry="6.6" style="stroke:#181818;stroke-width:0.6;"/><path d="M136.0594,33.525 Q136.1531,33.3938 136.2656,33.3281 Q136.3781,33.2625 136.5094,33.2625 Q136.7344,33.2625 136.875,33.4219 Q137.0156,33.5719 137.0156,33.9375 L137.0156,34.8094 Q137.0156,35.175 136.875,35.3344 Q136.7344,35.4938 136.5094,35.4938 Q136.3031,35.4938 136.1813,35.3719 Q136.0594,35.2594 135.9938,34.95 Q135.9656,34.7344 135.8531,34.6219 Q135.6563,34.3969 135.2906,34.2656 Q134.925,34.1344 134.55,34.1344 Q134.0906,34.1344 133.7062,34.3313 Q133.3312,34.5281 133.0313,34.9781 Q132.7406,35.4281 132.7406,36.0469 L132.7406,36.7031 Q132.7406,37.4438 133.275,37.9406 Q133.8094,38.4281 134.7656,38.4281 Q135.3281,38.4281 135.7219,38.2781 Q135.9562,38.1844 136.2094,37.9219 Q136.3688,37.7625 136.4531,37.7156 Q136.5469,37.6687 136.6688,37.6687 Q136.8656,37.6687 137.0156,37.8281 Q137.175,37.9781 137.175,38.1844 Q137.175,38.3906 136.9688,38.6344 Q136.6688,38.9812 136.1906,39.1781 Q135.5438,39.45 134.7656,39.45 Q133.8563,39.45 133.1344,39.075 Q132.5438,38.775 132.1313,38.1375 Q131.7188,37.4906 131.7188,36.7219 L131.7188,36.0281 Q131.7188,35.2312 132.0844,34.5469 Q132.4594,33.8531 133.1156,33.4875 Q133.7719,33.1125 134.5125,33.1125 Q134.9531,33.1125 135.3375,33.2156 Q135.7313,33.3094 136.0594,33.525 Z " fill="#000000"/><text fill="#000000" font-family="sans-serif" font-size="8.4" lengthAdjust="spacing" textLength="71.4" x="142.8" y="39.4781">AddEntryAgendaUI</text><line style="stroke:#181818;stroke-width:0.3;" x1="126" x2="215.4" y1="45.6" y2="45.6"/><line style="stroke:#181818;stroke-width:0.3;" x1="126" x2="215.4" y1="50.4" y2="50.4"/></g><!--class AddEntryAgendaController--><g id="elem_AddEntryAgendaController"><rect codeLine="16" fill="#F1F1F1" height="73.4906" id="AddEntryAgendaController" rx="1.5" ry="1.5" style="stroke:#181818;stroke-width:0.3;" width="120.6" x="237" y="4.2"/><ellipse cx="246" cy="13.8" fill="#ADD1B2" rx="6.6" ry="6.6" style="stroke:#181818;stroke-width:0.6;"/><path d="M247.6594,11.325 Q247.7531,11.1938 247.8656,11.1281 Q247.9781,11.0625 248.1094,11.0625 Q248.3344,11.0625 248.475,11.2219 Q248.6156,11.3719 248.6156,11.7375 L248.6156,12.6094 Q248.6156,12.975 248.475,13.1344 Q248.3344,13.2938 248.1094,13.2938 Q247.9031,13.2938 247.7813,13.1719 Q247.6594,13.0594 247.5938,12.75 Q247.5656,12.5344 247.4531,12.4219 Q247.2563,12.1969 246.8906,12.0656 Q246.525,11.9344 246.15,11.9344 Q245.6906,11.9344 245.3062,12.1313 Q244.9312,12.3281 244.6313,12.7781 Q244.3406,13.2281 244.3406,13.8469 L244.3406,14.5031 Q244.3406,15.2437 244.875,15.7406 Q245.4094,16.2281 246.3656,16.2281 Q246.9281,16.2281 247.3219,16.0781 Q247.5562,15.9844 247.8094,15.7219 Q247.9688,15.5625 248.0531,15.5156 Q248.1469,15.4688 248.2687,15.4688 Q248.4656,15.4688 248.6156,15.6281 Q248.775,15.7781 248.775,15.9844 Q248.775,16.1906 248.5688,16.4344 Q248.2687,16.7813 247.7906,16.9781 Q247.1437,17.25 246.3656,17.25 Q245.4562,17.25 244.7344,16.875 Q244.1437,16.575 243.7313,15.9375 Q243.3188,15.2906 243.3188,14.5219 L243.3188,13.8281 Q243.3188,13.0313 243.6844,12.3469 Q244.0594,11.6531 244.7156,11.2875 Q245.3719,10.9125 246.1125,10.9125 Q246.5531,10.9125 246.9375,11.0156 Q247.3312,11.1094 247.6594,11.325 Z " fill="#000000"/><text fill="#000000" font-family="sans-serif" font-size="8.4" lengthAdjust="spacing" textLength="101.4" x="254.4" y="17.2781">AddEntryAgendaController</text><line style="stroke:#181818;stroke-width:0.3;" x1="237.6" x2="357" y1="23.4" y2="23.4"/><line style="stroke:#181818;stroke-width:0.3;" x1="237.6" x2="357" y1="28.2" y2="28.2"/><text fill="#000000" font-family="sans-serif" font-size="8.4" lengthAdjust="spacing" textLength="112.2" x="240.6" y="39.6645">+AddEntryAgendaController()</text><text fill="#000000" font-family="sans-serif" font-size="8.4" lengthAdjust="spacing" textLength="83.4" x="240.6" y="50.8371">+getToDoListEntries()</text><text fill="#000000" font-family="sans-serif" font-size="8.4" lengthAdjust="spacing" textLength="76.2" x="240.6" y="62.0098">+getSelectedTask(i)</text><text fill="#000000" font-family="sans-serif" font-size="8.4" lengthAdjust="spacing" textLength="91.2" x="240.6" y="73.1824">+addEntry(startingDate)</text></g><!--class ApplicationSession--><g id="elem_ApplicationSession"><rect codeLine="24" fill="#F1F1F1" height="51.1453" id="ApplicationSession" rx="1.5" ry="1.5" style="stroke:#181818;stroke-width:0.3;" width="90.6" x="4.2" y="135.9"/><ellipse cx="13.2" cy="145.5" fill="#ADD1B2" rx="6.6" ry="6.6" style="stroke:#181818;stroke-width:0.6;"/><path d="M14.8594,143.025 Q14.9531,142.8937 15.0656,142.8281 Q15.1781,142.7625 15.3094,142.7625 Q15.5344,142.7625 15.675,142.9219 Q15.8156,143.0719 15.8156,143.4375 L15.8156,144.3094 Q15.8156,144.675 15.675,144.8344 Q15.5344,144.9938 15.3094,144.9938 Q15.1031,144.9938 14.9813,144.8719 Q14.8594,144.7594 14.7938,144.45 Q14.7656,144.2344 14.6531,144.1219 Q14.4562,143.8969 14.0906,143.7656 Q13.725,143.6344 13.35,143.6344 Q12.8906,143.6344 12.5063,143.8312 Q12.1313,144.0281 11.8312,144.4781 Q11.5406,144.9281 11.5406,145.5469 L11.5406,146.2031 Q11.5406,146.9438 12.075,147.4406 Q12.6094,147.9281 13.5656,147.9281 Q14.1281,147.9281 14.5219,147.7781 Q14.7563,147.6844 15.0094,147.4219 Q15.1688,147.2625 15.2531,147.2156 Q15.3469,147.1688 15.4688,147.1688 Q15.6656,147.1688 15.8156,147.3281 Q15.975,147.4781 15.975,147.6844 Q15.975,147.8906 15.7687,148.1344 Q15.4688,148.4813 14.9906,148.6781 Q14.3438,148.95 13.5656,148.95 Q12.6563,148.95 11.9344,148.575 Q11.3438,148.275 10.9313,147.6375 Q10.5187,146.9906 10.5187,146.2219 L10.5187,145.5281 Q10.5187,144.7313 10.8844,144.0469 Q11.2594,143.3531 11.9156,142.9875 Q12.5719,142.6125 13.3125,142.6125 Q13.7531,142.6125 14.1375,142.7156 Q14.5313,142.8094 14.8594,143.025 Z " fill="#000000"/><text fill="#000000" font-family="sans-serif" font-size="8.4" lengthAdjust="spacing" textLength="71.4" x="21.6" y="148.9781">ApplicationSession</text><line style="stroke:#181818;stroke-width:0.3;" x1="4.8" x2="94.2" y1="155.1" y2="155.1"/><line style="stroke:#181818;stroke-width:0.3;" x1="4.8" x2="94.2" y1="159.9" y2="159.9"/><text fill="#000000" font-family="sans-serif" font-size="8.4" lengthAdjust="spacing" textLength="76.8" x="7.8" y="171.3645">+static getInstance()</text><text fill="#000000" font-family="sans-serif" font-size="8.4" lengthAdjust="spacing" textLength="81.6" x="7.8" y="182.5371">+getCurrentSession()</text></g><!--class Repositories--><g id="elem_Repositories"><rect codeLine="30" fill="#F1F1F1" height="73.4906" id="Repositories" rx="1.5" ry="1.5" style="stroke:#181818;stroke-width:0.3;" width="116.4" x="419.7" y="4.2"/><ellipse cx="451.65" cy="13.8" fill="#ADD1B2" rx="6.6" ry="6.6" style="stroke:#181818;stroke-width:0.6;"/><path d="M453.3094,11.325 Q453.4031,11.1938 453.5156,11.1281 Q453.6281,11.0625 453.7594,11.0625 Q453.9844,11.0625 454.125,11.2219 Q454.2656,11.3719 454.2656,11.7375 L454.2656,12.6094 Q454.2656,12.975 454.125,13.1344 Q453.9844,13.2938 453.7594,13.2938 Q453.5531,13.2938 453.4313,13.1719 Q453.3094,13.0594 453.2438,12.75 Q453.2156,12.5344 453.1031,12.4219 Q452.9063,12.1969 452.5406,12.0656 Q452.175,11.9344 451.8,11.9344 Q451.3406,11.9344 450.9563,12.1313 Q450.5813,12.3281 450.2813,12.7781 Q449.9906,13.2281 449.9906,13.8469 L449.9906,14.5031 Q449.9906,15.2437 450.525,15.7406 Q451.0594,16.2281 452.0156,16.2281 Q452.5781,16.2281 452.9719,16.0781 Q453.2063,15.9844 453.4594,15.7219 Q453.6188,15.5625 453.7031,15.5156 Q453.7969,15.4688 453.9188,15.4688 Q454.1156,15.4688 454.2656,15.6281 Q454.425,15.7781 454.425,15.9844 Q454.425,16.1906 454.2188,16.4344 Q453.9188,16.7813 453.4406,16.9781 Q452.7938,17.25 452.0156,17.25 Q451.1063,17.25 450.3844,16.875 Q449.7938,16.575 449.3812,15.9375 Q448.9688,15.2906 448.9688,14.5219 L448.9688,13.8281 Q448.9688,13.0313 449.3344,12.3469 Q449.7094,11.6531 450.3656,11.2875 Q451.0219,10.9125 451.7625,10.9125 Q452.2031,10.9125 452.5875,11.0156 Q452.9813,11.1094 453.3094,11.325 Z " fill="#000000"/><text fill="#000000" font-family="sans-serif" font-size="8.4" lengthAdjust="spacing" textLength="47.4" x="463.95" y="17.2781">Repositories</text><line style="stroke:#181818;stroke-width:0.3;" x1="420.3" x2="535.5" y1="23.4" y2="23.4"/><line style="stroke:#181818;stroke-width:0.3;" x1="420.3" x2="535.5" y1="28.2" y2="28.2"/><text fill="#000000" font-family="sans-serif" font-size="8.4" lengthAdjust="spacing" textLength="56.4" x="423.3" y="39.6645">-Repositories()</text><text fill="#000000" font-family="sans-serif" font-size="8.4" lengthAdjust="spacing" textLength="109.2" x="423.3" y="50.8371">+getInstance() : Repositories</text><text fill="#000000" font-family="sans-serif" font-size="8.4" lengthAdjust="spacing" textLength="57" x="423.3" y="62.0098">+getToDoList()</text><text fill="#000000" font-family="sans-serif" font-size="8.4" lengthAdjust="spacing" textLength="52.2" x="423.3" y="73.1824">+getAgenda()</text></g><!--class UserSession--><g id="elem_UserSession"><rect codeLine="38" fill="#F1F1F1" height="39.9727" id="UserSession" rx="1.5" ry="1.5" style="stroke:#181818;stroke-width:0.3;" width="67.8" x="33.6" y="295.5"/><ellipse cx="43.14" cy="305.1" fill="#ADD1B2" rx="6.6" ry="6.6" style="stroke:#181818;stroke-width:0.6;"/><path d="M44.7994,302.625 Q44.8931,302.4938 45.0056,302.4281 Q45.1181,302.3625 45.2494,302.3625 Q45.4744,302.3625 45.615,302.5219 Q45.7556,302.6719 45.7556,303.0375 L45.7556,303.9094 Q45.7556,304.275 45.615,304.4344 Q45.4744,304.5938 45.2494,304.5938 Q45.0431,304.5938 44.9213,304.4719 Q44.7994,304.3594 44.7338,304.05 Q44.7056,303.8344 44.5931,303.7219 Q44.3963,303.4969 44.0306,303.3656 Q43.665,303.2344 43.29,303.2344 Q42.8306,303.2344 42.4463,303.4313 Q42.0713,303.6281 41.7713,304.0781 Q41.4806,304.5281 41.4806,305.1469 L41.4806,305.8031 Q41.4806,306.5438 42.015,307.0406 Q42.5494,307.5281 43.5056,307.5281 Q44.0681,307.5281 44.4619,307.3781 Q44.6963,307.2844 44.9494,307.0219 Q45.1088,306.8625 45.1931,306.8156 Q45.2869,306.7688 45.4088,306.7688 Q45.6056,306.7688 45.7556,306.9281 Q45.915,307.0781 45.915,307.2844 Q45.915,307.4906 45.7088,307.7344 Q45.4088,308.0813 44.9306,308.2781 Q44.2838,308.55 43.5056,308.55 Q42.5963,308.55 41.8744,308.175 Q41.2838,307.875 40.8713,307.2375 Q40.4588,306.5906 40.4588,305.8219 L40.4588,305.1281 Q40.4588,304.3313 40.8244,303.6469 Q41.1994,302.9531 41.8556,302.5875 Q42.5119,302.2125 43.2525,302.2125 Q43.6931,302.2125 44.0775,302.3156 Q44.4713,302.4094 44.7994,302.625 Z " fill="#000000"/><text fill="#000000" font-family="sans-serif" font-size="8.4" lengthAdjust="spacing" textLength="47.4" x="51.66" y="308.5781">UserSession</text><line style="stroke:#181818;stroke-width:0.3;" x1="34.2" x2="100.8" y1="314.7" y2="314.7"/><line style="stroke:#181818;stroke-width:0.3;" x1="34.2" x2="100.8" y1="319.5" y2="319.5"/><text fill="#000000" font-family="sans-serif" font-size="8.4" lengthAdjust="spacing" textLength="60.6" x="37.2" y="330.9645">+getUserEmail()</text></g><!--class ToDoList--><g id="elem_ToDoList"><rect codeLine="43" fill="#F1F1F1" height="73.4906" id="ToDoList" rx="1.5" ry="1.5" style="stroke:#181818;stroke-width:0.3;" width="155.4" x="409.2" y="124.8"/><ellipse cx="467.25" cy="134.4" fill="#ADD1B2" rx="6.6" ry="6.6" style="stroke:#181818;stroke-width:0.6;"/><path d="M468.9094,131.925 Q469.0031,131.7938 469.1156,131.7281 Q469.2281,131.6625 469.3594,131.6625 Q469.5844,131.6625 469.725,131.8219 Q469.8656,131.9719 469.8656,132.3375 L469.8656,133.2094 Q469.8656,133.575 469.725,133.7344 Q469.5844,133.8937 469.3594,133.8937 Q469.1531,133.8937 469.0313,133.7719 Q468.9094,133.6594 468.8438,133.35 Q468.8156,133.1344 468.7031,133.0219 Q468.5062,132.7969 468.1406,132.6656 Q467.775,132.5344 467.4,132.5344 Q466.9406,132.5344 466.5563,132.7313 Q466.1813,132.9281 465.8812,133.3781 Q465.5906,133.8281 465.5906,134.4469 L465.5906,135.1031 Q465.5906,135.8438 466.125,136.3406 Q466.6594,136.8281 467.6156,136.8281 Q468.1781,136.8281 468.5719,136.6781 Q468.8063,136.5844 469.0594,136.3219 Q469.2188,136.1625 469.3031,136.1156 Q469.3969,136.0688 469.5187,136.0688 Q469.7156,136.0688 469.8656,136.2281 Q470.025,136.3781 470.025,136.5844 Q470.025,136.7906 469.8187,137.0344 Q469.5187,137.3813 469.0406,137.5781 Q468.3937,137.85 467.6156,137.85 Q466.7062,137.85 465.9844,137.475 Q465.3937,137.175 464.9813,136.5375 Q464.5687,135.8906 464.5687,135.1219 L464.5687,134.4281 Q464.5687,133.6313 464.9344,132.9469 Q465.3094,132.2531 465.9656,131.8875 Q466.6219,131.5125 467.3625,131.5125 Q467.8031,131.5125 468.1875,131.6156 Q468.5812,131.7094 468.9094,131.925 Z " fill="#000000"/><text fill="#000000" font-family="sans-serif" font-size="8.4" lengthAdjust="spacing" textLength="34.2" x="479.55" y="137.8781">ToDoList</text><line style="stroke:#181818;stroke-width:0.3;" x1="409.8" x2="564" y1="144" y2="144"/><text fill="#000000" font-family="sans-serif" font-size="8.4" lengthAdjust="spacing" textLength="85.8" x="412.8" y="155.4645">-List&lt;Task&gt; entriesList</text><text fill="#000000" font-family="sans-serif" font-size="8.4" lengthAdjust="spacing" textLength="148.2" x="412.8" y="166.6371">-List&lt;Task&gt; associatedToDoEntriesList</text><line style="stroke:#181818;stroke-width:0.3;" x1="409.8" x2="564" y1="171.1453" y2="171.1453"/><text fill="#000000" font-family="sans-serif" font-size="8.4" lengthAdjust="spacing" textLength="103.2" x="412.8" y="182.6098">+getToDoListEntries(email)</text><text fill="#000000" font-family="sans-serif" font-size="8.4" lengthAdjust="spacing" textLength="76.2" x="412.8" y="193.7824">+getSelectedTask(i)</text></g><!--class GreenSpace--><g id="elem_GreenSpace"><rect codeLine="51" fill="#F1F1F1" height="84.6633" id="GreenSpace" rx="1.5" ry="1.5" style="stroke:#181818;stroke-width:0.3;" width="89.4" x="501" y="422.4"/><ellipse cx="519.99" cy="432" fill="#ADD1B2" rx="6.6" ry="6.6" style="stroke:#181818;stroke-width:0.6;"/><path d="M521.6494,429.525 Q521.7431,429.3938 521.8556,429.3281 Q521.9681,429.2625 522.0994,429.2625 Q522.3244,429.2625 522.465,429.4219 Q522.6056,429.5719 522.6056,429.9375 L522.6056,430.8094 Q522.6056,431.175 522.465,431.3344 Q522.3244,431.4938 522.0994,431.4938 Q521.8931,431.4938 521.7713,431.3719 Q521.6494,431.2594 521.5838,430.95 Q521.5556,430.7344 521.4431,430.6219 Q521.2462,430.3969 520.8806,430.2656 Q520.515,430.1344 520.14,430.1344 Q519.6806,430.1344 519.2963,430.3313 Q518.9213,430.5281 518.6212,430.9781 Q518.3306,431.4281 518.3306,432.0469 L518.3306,432.7031 Q518.3306,433.4437 518.865,433.9406 Q519.3994,434.4281 520.3556,434.4281 Q520.9181,434.4281 521.3119,434.2781 Q521.5463,434.1844 521.7994,433.9219 Q521.9588,433.7625 522.0431,433.7156 Q522.1369,433.6688 522.2588,433.6688 Q522.4556,433.6688 522.6056,433.8281 Q522.765,433.9781 522.765,434.1844 Q522.765,434.3906 522.5587,434.6344 Q522.2588,434.9813 521.7806,435.1781 Q521.1338,435.45 520.3556,435.45 Q519.4463,435.45 518.7244,435.075 Q518.1338,434.775 517.7212,434.1375 Q517.3087,433.4906 517.3087,432.7219 L517.3087,432.0281 Q517.3087,431.2313 517.6744,430.5469 Q518.0494,429.8531 518.7056,429.4875 Q519.3619,429.1125 520.1025,429.1125 Q520.5431,429.1125 520.9275,429.2156 Q521.3213,429.3094 521.6494,429.525 Z " fill="#000000"/><text fill="#000000" font-family="sans-serif" font-size="8.4" lengthAdjust="spacing" textLength="48" x="530.61" y="435.4781">GreenSpace</text><line style="stroke:#181818;stroke-width:0.3;" x1="501.6" x2="589.8" y1="441.6" y2="441.6"/><text fill="#000000" font-family="sans-serif" font-size="8.4" lengthAdjust="spacing" textLength="48.6" x="504.6" y="453.0645">-String name</text><text fill="#000000" font-family="sans-serif" font-size="8.4" lengthAdjust="spacing" textLength="43.8" x="504.6" y="464.2371">-String type</text><text fill="#000000" font-family="sans-serif" font-size="8.4" lengthAdjust="spacing" textLength="31.8" x="504.6" y="475.4098">-int area</text><text fill="#000000" font-family="sans-serif" font-size="8.4" lengthAdjust="spacing" textLength="58.2" x="504.6" y="486.5824">-String address</text><line style="stroke:#181818;stroke-width:0.3;" x1="501.6" x2="589.8" y1="491.0906" y2="491.0906"/><text fill="#000000" font-family="sans-serif" font-size="8.4" lengthAdjust="spacing" textLength="82.2" x="504.6" y="502.5551">+hasUserEmail(email)</text></g><!--class TaskMapper--><g id="elem_TaskMapper"><rect codeLine="60" fill="#F1F1F1" height="62.318" id="TaskMapper" rx="1.5" ry="1.5" style="stroke:#181818;stroke-width:0.3;" width="181.8" x="206.4" y="130.2"/><ellipse cx="271.05" cy="139.8" fill="#ADD1B2" rx="6.6" ry="6.6" style="stroke:#181818;stroke-width:0.6;"/><path d="M272.7094,137.325 Q272.8031,137.1938 272.9156,137.1281 Q273.0281,137.0625 273.1594,137.0625 Q273.3844,137.0625 273.525,137.2219 Q273.6656,137.3719 273.6656,137.7375 L273.6656,138.6094 Q273.6656,138.975 273.525,139.1344 Q273.3844,139.2938 273.1594,139.2938 Q272.9531,139.2938 272.8313,139.1719 Q272.7094,139.0594 272.6438,138.75 Q272.6156,138.5344 272.5031,138.4219 Q272.3063,138.1969 271.9406,138.0656 Q271.575,137.9344 271.2,137.9344 Q270.7406,137.9344 270.3563,138.1313 Q269.9813,138.3281 269.6813,138.7781 Q269.3906,139.2281 269.3906,139.8469 L269.3906,140.5031 Q269.3906,141.2438 269.925,141.7406 Q270.4594,142.2281 271.4156,142.2281 Q271.9781,142.2281 272.3719,142.0781 Q272.6063,141.9844 272.8594,141.7219 Q273.0188,141.5625 273.1031,141.5156 Q273.1969,141.4688 273.3187,141.4688 Q273.5156,141.4688 273.6656,141.6281 Q273.825,141.7781 273.825,141.9844 Q273.825,142.1906 273.6188,142.4344 Q273.3187,142.7813 272.8406,142.9781 Q272.1937,143.25 271.4156,143.25 Q270.5062,143.25 269.7844,142.875 Q269.1937,142.575 268.7813,141.9375 Q268.3688,141.2906 268.3688,140.5219 L268.3688,139.8281 Q268.3688,139.0313 268.7344,138.3469 Q269.1094,137.6531 269.7656,137.2875 Q270.4219,136.9125 271.1625,136.9125 Q271.6031,136.9125 271.9875,137.0156 Q272.3812,137.1094 272.7094,137.325 Z " fill="#000000"/><text fill="#000000" font-family="sans-serif" font-size="8.4" lengthAdjust="spacing" textLength="47.4" x="283.35" y="143.2781">TaskMapper</text><line style="stroke:#181818;stroke-width:0.3;" x1="207" x2="387.6" y1="149.4" y2="149.4"/><text fill="#000000" font-family="sans-serif" font-size="8.4" lengthAdjust="spacing" textLength="174.6" x="210" y="160.8645">-List&lt;TaskDto&gt; associatedToDoEntriesListDto</text><line style="stroke:#181818;stroke-width:0.3;" x1="207" x2="387.6" y1="165.3727" y2="165.3727"/><text fill="#000000" font-family="sans-serif" font-size="8.4" lengthAdjust="spacing" textLength="137.4" x="210" y="176.8371">+toDTO(associatedToDoEntriesList)</text><text fill="#000000" font-family="sans-serif" font-size="8.4" lengthAdjust="spacing" textLength="45.6" x="210" y="188.0098">-toDTO(obj)</text></g><!--class TaskDto--><g id="elem_TaskDto"><rect codeLine="67" fill="#F1F1F1" height="84.6633" id="TaskDto" rx="1.5" ry="1.5" style="stroke:#181818;stroke-width:0.3;" width="337.2" x="125.7" y="273.3"/><ellipse cx="275.85" cy="282.9" fill="#ADD1B2" rx="6.6" ry="6.6" style="stroke:#181818;stroke-width:0.6;"/><path d="M277.5094,280.425 Q277.6031,280.2938 277.7156,280.2281 Q277.8281,280.1625 277.9594,280.1625 Q278.1844,280.1625 278.325,280.3219 Q278.4656,280.4719 278.4656,280.8375 L278.4656,281.7094 Q278.4656,282.075 278.325,282.2344 Q278.1844,282.3938 277.9594,282.3938 Q277.7531,282.3938 277.6312,282.2719 Q277.5094,282.1594 277.4437,281.85 Q277.4156,281.6344 277.3031,281.5219 Q277.1063,281.2969 276.7406,281.1656 Q276.375,281.0344 276,281.0344 Q275.5406,281.0344 275.1563,281.2313 Q274.7813,281.4281 274.4813,281.8781 Q274.1906,282.3281 274.1906,282.9469 L274.1906,283.6031 Q274.1906,284.3438 274.725,284.8406 Q275.2594,285.3281 276.2156,285.3281 Q276.7781,285.3281 277.1719,285.1781 Q277.4063,285.0844 277.6594,284.8219 Q277.8187,284.6625 277.9031,284.6156 Q277.9969,284.5687 278.1188,284.5687 Q278.3156,284.5687 278.4656,284.7281 Q278.625,284.8781 278.625,285.0844 Q278.625,285.2906 278.4188,285.5344 Q278.1188,285.8812 277.6406,286.0781 Q276.9938,286.35 276.2156,286.35 Q275.3063,286.35 274.5844,285.975 Q273.9938,285.675 273.5813,285.0375 Q273.1688,284.3906 273.1688,283.6219 L273.1688,282.9281 Q273.1688,282.1312 273.5344,281.4469 Q273.9094,280.7531 274.5656,280.3875 Q275.2219,280.0125 275.9625,280.0125 Q276.4031,280.0125 276.7875,280.1156 Q277.1813,280.2094 277.5094,280.425 Z " fill="#000000"/><text fill="#000000" font-family="sans-serif" font-size="8.4" lengthAdjust="spacing" textLength="31.8" x="288.15" y="286.3781">TaskDto</text><line style="stroke:#181818;stroke-width:0.3;" x1="126.3" x2="462.3" y1="292.5" y2="292.5"/><text fill="#000000" font-family="sans-serif" font-size="8.4" lengthAdjust="spacing" textLength="40.8" x="129.3" y="303.9645">-String title</text><text fill="#000000" font-family="sans-serif" font-size="8.4" lengthAdjust="spacing" textLength="69" x="129.3" y="315.1371">-String description</text><text fill="#000000" font-family="sans-serif" font-size="8.4" lengthAdjust="spacing" textLength="94.8" x="129.3" y="326.3098">-String degreeOfUrgency</text><text fill="#000000" font-family="sans-serif" font-size="8.4" lengthAdjust="spacing" textLength="81" x="129.3" y="337.4824">-int expectedDuration</text><line style="stroke:#181818;stroke-width:0.3;" x1="126.3" x2="462.3" y1="341.9906" y2="341.9906"/><text fill="#000000" font-family="sans-serif" font-size="8.4" lengthAdjust="spacing" textLength="330" x="129.3" y="353.4551">+TaskDto(title, description, degreeOfUrgency, expectedDuration, selectedGreenSpace)</text></g><!--class Task--><g id="elem_Task"><rect codeLine="76" fill="#F1F1F1" height="140.5266" id="Task" rx="1.5" ry="1.5" style="stroke:#181818;stroke-width:0.3;" width="123" x="484.2" y="245.4"/><ellipse cx="533.85" cy="255" fill="#ADD1B2" rx="6.6" ry="6.6" style="stroke:#181818;stroke-width:0.6;"/><path d="M535.5094,252.525 Q535.6031,252.3937 535.7156,252.3281 Q535.8281,252.2625 535.9594,252.2625 Q536.1844,252.2625 536.325,252.4219 Q536.4656,252.5719 536.4656,252.9375 L536.4656,253.8094 Q536.4656,254.175 536.325,254.3344 Q536.1844,254.4937 535.9594,254.4937 Q535.7531,254.4937 535.6313,254.3719 Q535.5094,254.2594 535.4438,253.95 Q535.4156,253.7344 535.3031,253.6219 Q535.1062,253.3969 534.7406,253.2656 Q534.375,253.1344 534,253.1344 Q533.5406,253.1344 533.1563,253.3312 Q532.7813,253.5281 532.4812,253.9781 Q532.1906,254.4281 532.1906,255.0469 L532.1906,255.7031 Q532.1906,256.4437 532.725,256.9406 Q533.2594,257.4281 534.2156,257.4281 Q534.7781,257.4281 535.1719,257.2781 Q535.4063,257.1844 535.6594,256.9219 Q535.8188,256.7625 535.9031,256.7156 Q535.9969,256.6688 536.1188,256.6688 Q536.3156,256.6688 536.4656,256.8281 Q536.625,256.9781 536.625,257.1844 Q536.625,257.3906 536.4187,257.6344 Q536.1188,257.9813 535.6406,258.1781 Q534.9938,258.45 534.2156,258.45 Q533.3063,258.45 532.5844,258.075 Q531.9938,257.775 531.5813,257.1375 Q531.1687,256.4906 531.1687,255.7219 L531.1687,255.0281 Q531.1687,254.2313 531.5344,253.5469 Q531.9094,252.8531 532.5656,252.4875 Q533.2219,252.1125 533.9625,252.1125 Q534.4031,252.1125 534.7875,252.2156 Q535.1813,252.3094 535.5094,252.525 Z " fill="#000000"/><text fill="#000000" font-family="sans-serif" font-size="8.4" lengthAdjust="spacing" textLength="18.6" x="546.15" y="258.4781">Task</text><line style="stroke:#181818;stroke-width:0.3;" x1="484.8" x2="606.6" y1="264.6" y2="264.6"/><text fill="#000000" font-family="sans-serif" font-size="8.4" lengthAdjust="spacing" textLength="40.8" x="487.8" y="276.0645">-String title</text><text fill="#000000" font-family="sans-serif" font-size="8.4" lengthAdjust="spacing" textLength="69" x="487.8" y="287.2371">-String description</text><text fill="#000000" font-family="sans-serif" font-size="8.4" lengthAdjust="spacing" textLength="94.8" x="487.8" y="298.4098">-String degreeOfUrgency</text><text fill="#000000" font-family="sans-serif" font-size="8.4" lengthAdjust="spacing" textLength="81" x="487.8" y="309.5824">-int expectedDuration</text><text fill="#000000" font-family="sans-serif" font-size="8.4" lengthAdjust="spacing" textLength="50.4" x="487.8" y="320.7551">-String status</text><text fill="#000000" font-family="sans-serif" font-size="8.4" lengthAdjust="spacing" textLength="86.4" x="487.8" y="331.9277">-Calendar startingDate</text><line style="stroke:#181818;stroke-width:0.3;" x1="484.8" x2="606.6" y1="336.4359" y2="336.4359"/><text fill="#000000" font-family="sans-serif" font-size="8.4" lengthAdjust="spacing" textLength="48" x="487.8" y="347.9004">+isPending()</text><text fill="#000000" font-family="sans-serif" font-size="8.4" lengthAdjust="spacing" textLength="82.2" x="487.8" y="359.073">+hasUserEmail(email)</text><text fill="#000000" font-family="sans-serif" font-size="8.4" lengthAdjust="spacing" textLength="81.6" x="487.8" y="370.2457">+clone(selectedTask)</text><text fill="#000000" font-family="sans-serif" font-size="8.4" lengthAdjust="spacing" textLength="115.8" x="487.8" y="381.4184">+setStartingDate(startingDate)</text></g><!--class Agenda--><g id="elem_Agenda"><rect codeLine="90" fill="#F1F1F1" height="51.1453" id="Agenda" rx="1.5" ry="1.5" style="stroke:#181818;stroke-width:0.3;" width="175.8" x="585.6" y="135.9"/><ellipse cx="656.25" cy="145.5" fill="#ADD1B2" rx="6.6" ry="6.6" style="stroke:#181818;stroke-width:0.6;"/><path d="M657.9094,143.025 Q658.0031,142.8937 658.1156,142.8281 Q658.2281,142.7625 658.3594,142.7625 Q658.5844,142.7625 658.725,142.9219 Q658.8656,143.0719 658.8656,143.4375 L658.8656,144.3094 Q658.8656,144.675 658.725,144.8344 Q658.5844,144.9938 658.3594,144.9938 Q658.1531,144.9938 658.0313,144.8719 Q657.9094,144.7594 657.8438,144.45 Q657.8156,144.2344 657.7031,144.1219 Q657.5063,143.8969 657.1406,143.7656 Q656.775,143.6344 656.4,143.6344 Q655.9406,143.6344 655.5563,143.8312 Q655.1813,144.0281 654.8813,144.4781 Q654.5906,144.9281 654.5906,145.5469 L654.5906,146.2031 Q654.5906,146.9438 655.125,147.4406 Q655.6594,147.9281 656.6156,147.9281 Q657.1781,147.9281 657.5719,147.7781 Q657.8063,147.6844 658.0594,147.4219 Q658.2188,147.2625 658.3031,147.2156 Q658.3969,147.1688 658.5188,147.1688 Q658.7156,147.1688 658.8656,147.3281 Q659.025,147.4781 659.025,147.6844 Q659.025,147.8906 658.8188,148.1344 Q658.5188,148.4813 658.0406,148.6781 Q657.3938,148.95 656.6156,148.95 Q655.7063,148.95 654.9844,148.575 Q654.3938,148.275 653.9812,147.6375 Q653.5688,146.9906 653.5688,146.2219 L653.5688,145.5281 Q653.5688,144.7313 653.9344,144.0469 Q654.3094,143.3531 654.9656,142.9875 Q655.6219,142.6125 656.3625,142.6125 Q656.8031,142.6125 657.1875,142.7156 Q657.5813,142.8094 657.9094,143.025 Z " fill="#000000"/><text fill="#000000" font-family="sans-serif" font-size="8.4" lengthAdjust="spacing" textLength="29.4" x="668.55" y="148.9781">Agenda</text><line style="stroke:#181818;stroke-width:0.3;" x1="586.2" x2="760.8" y1="155.1" y2="155.1"/><line style="stroke:#181818;stroke-width:0.3;" x1="586.2" x2="760.8" y1="159.9" y2="159.9"/><text fill="#000000" font-family="sans-serif" font-size="8.4" lengthAdjust="spacing" textLength="168.6" x="589.2" y="171.3645">+addEntry(startingDate, selectedTaskClone)</text><text fill="#000000" font-family="sans-serif" font-size="8.4" lengthAdjust="spacing" textLength="96" x="589.2" y="182.5371">-add(selectedTaskClone)</text></g><!--link Repositories to Repositories--><g id="link_Repositories_Repositories"><path codeLine="96" d="M536.268,29.946 C548.388,31.086 557.1,34.704 557.1,40.8 C557.1,46.896 551.9722,50.1769 539.8522,51.3169 " fill="none" id="Repositories-to-Repositories" style="stroke:#181818;stroke-width:0.6;"/><polygon fill="#181818" points="536.268,51.654,541.869,53.5378,539.2548,51.3731,541.4195,48.7589,536.268,51.654" style="stroke:#181818;stroke-width:0.6;"/><text fill="#000000" font-family="sans-serif" font-size="7.8" lengthAdjust="spacing" textLength="29.4" x="560.7" y="44.117">instance</text></g><!--link ApplicationSession to ApplicationSession--><g id="link_ApplicationSession_ApplicationSession"><path codeLine="97" d="M94.896,150.258 C106.8,150.918 115.8,154.632 115.8,161.4 C115.8,168.168 110.3945,171.6827 98.4905,172.3427 " fill="none" id="ApplicationSession-to-ApplicationSession" style="stroke:#181818;stroke-width:0.6;"/><polygon fill="#181818" points="94.896,172.542,100.4206,174.6394,97.8914,172.3759,100.1549,169.8467,94.896,172.542" style="stroke:#181818;stroke-width:0.6;"/><text fill="#000000" font-family="sans-serif" font-size="7.8" lengthAdjust="spacing" textLength="29.4" x="119.4" y="164.717">instance</text></g><!--link AddEntryAgendaUI to AddEntryAgendaController--><g id="link_AddEntryAgendaUI_AddEntryAgendaController"><path codeLine="99" d="M216.21,40.8 C220.722,40.8 225.528,40.8 233.376,40.8 " fill="none" id="AddEntryAgendaUI-to-AddEntryAgendaController" style="stroke:#181818;stroke-width:0.6;stroke-dasharray:7.0,7.0;"/><polygon fill="#181818" points="236.976,40.8,231.576,38.4,233.976,40.8,231.576,43.2,236.976,40.8" style="stroke:#181818;stroke-width:0.6;"/></g><!--link AddEntryAgendaController to Repositories--><g id="link_AddEntryAgendaController_Repositories"><path codeLine="101" d="M357.69,40.8 C377.634,40.8 396.174,40.8 415.962,40.8 " fill="none" id="AddEntryAgendaController-to-Repositories" style="stroke:#181818;stroke-width:0.6;stroke-dasharray:7.0,7.0;"/><polygon fill="#181818" points="419.562,40.8,414.162,38.4,416.562,40.8,414.162,43.2,419.562,40.8" style="stroke:#181818;stroke-width:0.6;"/><text fill="#000000" font-family="sans-serif" font-size="7.8" lengthAdjust="spacing" textLength="40.2" x="368.55" y="36.617">repositories</text></g><!--link AddEntryAgendaController to ApplicationSession--><g id="link_AddEntryAgendaController_ApplicationSession"><path codeLine="102" d="M236.946,72.09 C230.652,75.288 226.5,77.4 226.5,77.4 C226.5,77.4 158.7,95.4 158.7,95.4 C158.7,95.4 125.0445,115.5584 94.1865,134.0384 " fill="none" id="AddEntryAgendaController-to-ApplicationSession" style="stroke:#181818;stroke-width:0.6;stroke-dasharray:7.0,7.0;"/><polygon fill="#181818" points="91.098,135.888,96.9638,135.1726,93.6718,134.3466,94.4977,131.0546,91.098,135.888" style="stroke:#181818;stroke-width:0.6;"/></g><!--link AddEntryAgendaController to UserSession--><g id="link_AddEntryAgendaController_UserSession"><path codeLine="103" d="M253.416,77.496 C226.008,100.038 195.9,124.8 195.9,124.8 C195.9,124.8 152.7,198 152.7,198 C152.7,198 114.9,245.4 114.9,245.4 C114.9,245.4 96.874,271.8662 82.858,292.4522 " fill="none" id="AddEntryAgendaController-to-UserSession" style="stroke:#181818;stroke-width:0.6;stroke-dasharray:7.0,7.0;"/><polygon fill="#181818" points="80.832,295.428,85.8549,292.3151,82.5204,292.9482,81.8872,289.6137,80.832,295.428" style="stroke:#181818;stroke-width:0.6;"/></g><!--link AddEntryAgendaController to ToDoList--><g id="link_AddEntryAgendaController_ToDoList"><path codeLine="104" d="M354.702,77.55 C378.462,92.508 402.9078,107.9056 426.6498,122.8576 " fill="none" id="AddEntryAgendaController-to-ToDoList" style="stroke:#181818;stroke-width:0.6;stroke-dasharray:7.0,7.0;"/><polygon fill="#181818" points="429.696,124.776,426.4056,119.8675,427.1575,123.1773,423.8477,123.9292,429.696,124.776" style="stroke:#181818;stroke-width:0.6;"/><text fill="#000000" font-family="sans-serif" font-size="7.8" lengthAdjust="spacing" textLength="28.8" x="398.7" y="104.417">toDoList</text></g><!--link AddEntryAgendaController to Agenda--><g id="link_AddEntryAgendaController_Agenda"><path codeLine="105" d="M357.672,60.876 C383.97,69.36 408.9,77.4 408.9,77.4 C408.9,77.4 575.1,124.8 575.1,124.8 C575.1,124.8 585.129,128.4715 602.043,134.6575 " fill="none" id="AddEntryAgendaController-to-Agenda" style="stroke:#181818;stroke-width:0.6;stroke-dasharray:7.0,7.0;"/><polygon fill="#181818" points="605.424,135.894,601.1769,131.7852,602.6065,134.8636,599.5282,136.2932,605.424,135.894" style="stroke:#181818;stroke-width:0.6;"/><text fill="#000000" font-family="sans-serif" font-size="7.8" lengthAdjust="spacing" textLength="25.2" x="512.7" y="104.417">agenda</text></g><!--link AddEntryAgendaController to TaskMapper--><g id="link_AddEntryAgendaController_TaskMapper"><path codeLine="106" d="M297.3,77.55 C297.3,94.296 297.3,110.388 297.3,126.414 " fill="none" id="AddEntryAgendaController-to-TaskMapper" style="stroke:#181818;stroke-width:0.6;stroke-dasharray:7.0,7.0;"/><polygon fill="#181818" points="297.3,130.014,299.7,124.614,297.3,127.014,294.9,124.614,297.3,130.014" style="stroke:#181818;stroke-width:0.6;"/></g><!--link ToDoList to Task--><g id="link_ToDoList_Task"><path codeLine="108" d="M500.76,198.066 C506.208,212.244 511.3662,225.6658 517.6542,242.0218 " fill="none" id="ToDoList-to-Task" style="stroke:#181818;stroke-width:0.6;"/><polygon fill="#181818" points="518.946,245.382,519.2484,239.4804,517.8695,242.5818,514.7681,241.2029,518.946,245.382" style="stroke:#181818;stroke-width:0.6;"/><text fill="#000000" font-family="sans-serif" font-size="7.8" lengthAdjust="spacing" textLength="4.2" x="497.9933" y="211.5662">1</text><text fill="#000000" font-family="sans-serif" font-size="7.8" lengthAdjust="spacing" textLength="3" x="514.0477" y="238.5402">*</text></g><!--link Agenda to Task--><g id="link_Agenda_Task"><path codeLine="109" d="M652.68,186.924 C639.348,202.884 623.6444,221.6915 606.1964,242.5715 " fill="none" id="Agenda-to-Task" style="stroke:#181818;stroke-width:0.6;"/><polygon fill="#181818" points="603.888,245.334,609.1923,242.7292,605.8117,243.0319,605.509,239.6514,603.888,245.334" style="stroke:#181818;stroke-width:0.6;"/><text fill="#000000" font-family="sans-serif" font-size="7.8" lengthAdjust="spacing" textLength="4.2" x="644.8271" y="200.224">1</text><text fill="#000000" font-family="sans-serif" font-size="7.8" lengthAdjust="spacing" textLength="3" x="604.5196" y="238.7244">*</text></g><!--link Task to GreenSpace--><g id="link_Task_GreenSpace"><path codeLine="110" d="M545.7,385.818 C545.7,398.256 545.7,407.256 545.7,418.608 " fill="none" id="Task-to-GreenSpace" style="stroke:#181818;stroke-width:0.6;"/><polygon fill="#181818" points="545.7,422.208,548.1,416.808,545.7,419.208,543.3,416.808,545.7,422.208" style="stroke:#181818;stroke-width:0.6;"/><text fill="#000000" font-family="sans-serif" font-size="7.8" lengthAdjust="spacing" textLength="3" x="542.6039" y="399.0616">*</text><text fill="#000000" font-family="sans-serif" font-size="7.8" lengthAdjust="spacing" textLength="4.2" x="541.2834" y="415.5228">1</text></g><!--link TaskMapper to TaskDto--><g id="link_TaskMapper_TaskDto"><path codeLine="112" d="M296.694,192.78 C296.244,215.904 295.6913,244.2307 295.1873,269.6587 " fill="none" id="TaskMapper-to-TaskDto" style="stroke:#181818;stroke-width:0.6;stroke-dasharray:7.0,7.0;"/><polygon fill="#181818" points="295.116,273.258,297.6225,267.9066,295.1755,270.2586,292.8235,267.8115,295.116,273.258" style="stroke:#181818;stroke-width:0.6;"/></g><!--link TaskMapper to Task--><g id="link_TaskMapper_Task"><path codeLine="113" d="M362.01,192.702 C412.14,216.48 473.1,245.4 473.1,245.4 C473.1,245.4 474.8989,247.1271 481.5289,253.4811 " fill="none" id="TaskMapper-to-Task" style="stroke:#181818;stroke-width:0.6;stroke-dasharray:7.0,7.0;"/><polygon fill="#181818" points="484.128,255.972,481.8899,250.5029,481.9621,253.8962,478.5687,253.9684,484.128,255.972" style="stroke:#181818;stroke-width:0.6;"/></g><!--link ApplicationSession to UserSession--><g id="link_ApplicationSession_UserSession"><path codeLine="115" d="M52.434,186.924 C55.998,217.236 61.5236,264.1986 64.7756,291.8586 " fill="none" id="ApplicationSession-to-UserSession" style="stroke:#181818;stroke-width:0.6;"/><polygon fill="#181818" points="65.196,295.434,66.949,289.7907,64.8457,292.4545,62.1819,290.3512,65.196,295.434" style="stroke:#181818;stroke-width:0.6;"/><text fill="#000000" font-family="sans-serif" font-size="7.8" lengthAdjust="spacing" textLength="43.2" x="57.9" y="225.017">userSession</text><text fill="#000000" font-family="sans-serif" font-size="7.8" lengthAdjust="spacing" textLength="4.2" x="60.129" y="288.7163">1</text></g><!--SRC=[lLHDZzem4BtxLrXS25rOjTUgGaA0AgHMMnNs1tYJ8RWOEx8dQcdL_zvnuYGc91oxXnMPD_FcmpDlwivI5yAA2xyORTAJDHVWQ4jW7LA8z2nosEDL0RUGej2vYXtSIMJcfzGvFmhbOaH93NWjW1T6NVq7cmw0ng9XKLIgX7ChH2lVIeHTQlHU_WR-dh6fWYDoDDpA_8GyaxuSQJHZLGnVPTbMexskSj2PUDsnFupz7GRNXduRfS2I4wU_fr67P1OSSi23sPWlqg5tbE1YQ0-Age7i8DmvaGqW0cdYK5Ya8Mq4mYoggYYKJ8NlOW_E-MQQUYW2PUgfTvf-wnJYTElIMj0OWfA8yZiKnaaqli10jhWnnZGTDVzu6tdNSnnMpoZE-kh0zZiWHs_UNeHKiM_3s5RdFpxvmIqvr9Eju3kGWaqgXPyoKMnxheCl13xvWsTgY_fi0VIUjXtQilP4GMkjnGLkBNvlWqLgvCA2k7MWPxSqZ93s95mtXr1GDmmgvAieYdOJeuutQ1uqJMX8W6PpU4b67MU1jtOpRpzwwJrHhsUKg7fDP-1IAulgu7f0JhDxERvQsehq6Wq6VXNLi3Ub5MtSKvCpgPBCO-9vdsn-np7dBZnXzsAzVlvZCssSlzRI1TjQA7yVbiTN7vgNxXjXP6llQMWzQYHLHaFYefLj44UR776Foajrf-r13gfHDr2VOErJDWj3_ia0IFInLF35yaOwI4baa1Lshs_UUy0QnR2-ZlFdvRXyip74H_NAih70ZSSz3rNus3-MluUEZJvHDTZ8uEDAAYEvY_ej7xDtOiBQJ9CF4xwWgK_UJUhp29Htzed_Fwc-AplXaIgoZhpDvPLZmCm6tprGHgEYhifeSFy0]--></g></svg>