<?xml version="1.0" encoding="us-ascii" standalone="no"?><svg xmlns="http://www.w3.org/2000/svg" xmlns:xlink="http://www.w3.org/1999/xlink" contentStyleType="text/css" height="644.4px" preserveAspectRatio="none" style="width:1221px;height:644px;background:#FFFFFF;" version="1.1" viewBox="0 0 1221 644" width="1221.6px" zoomAndPan="magnify"><defs/><g><!--cluster UI--><g id="cluster_UI"><rect fill="none" height="60.6" rx="1.5" ry="1.5" style="stroke:#000000;stroke-width:0.8999999999999999;" width="110.4" x="1107.6" y="53.4"/><text fill="#000000" font-family="sans-serif" font-size="8.4" font-weight="bold" lengthAdjust="spacing" textLength="8.4" x="1158.6" y="63.6645">UI</text></g><!--cluster Core--><g id="cluster_Core"><rect fill="none" height="636.6" rx="1.5" ry="1.5" style="stroke:#000000;stroke-width:0.8999999999999999;" width="1089" x="4.2" y="4.2"/><text fill="#000000" font-family="sans-serif" font-size="8.4" font-weight="bold" lengthAdjust="spacing" textLength="20.4" x="538.5" y="14.4645">Core</text></g><!--cluster Controller--><g id="cluster_Controller"><rect fill="none" height="105" rx="1.5" ry="1.5" style="stroke:#000000;stroke-width:0.8999999999999999;" width="140.4" x="261" y="31.2"/><text fill="#000000" font-family="sans-serif" font-size="8.4" font-weight="bold" lengthAdjust="spacing" textLength="42.6" x="309.9" y="41.4645">Controller</text></g><!--cluster Domain--><g id="cluster_Domain"><rect fill="none" height="459.6" rx="1.5" ry="1.5" style="stroke:#000000;stroke-width:0.8999999999999999;" width="585.6" x="34.2" y="166.8"/><text fill="#000000" font-family="sans-serif" font-size="8.4" font-weight="bold" lengthAdjust="spacing" textLength="31.2" x="311.4" y="177.0645">Domain</text></g><!--cluster Repository--><g id="cluster_Repository"><rect fill="none" height="105" rx="1.5" ry="1.5" style="stroke:#000000;stroke-width:0.8999999999999999;" width="556.8" x="48.6" y="193.8"/><text fill="#000000" font-family="sans-serif" font-size="8.4" font-weight="bold" lengthAdjust="spacing" textLength="45.6" x="304.2" y="204.0645">Repository</text></g><!--cluster Model--><g id="cluster_Model"><rect fill="none" height="293.4" rx="1.5" ry="1.5" style="stroke:#000000;stroke-width:0.8999999999999999;" width="390" x="48.6" y="318.6"/><text fill="#000000" font-family="sans-serif" font-size="8.4" font-weight="bold" lengthAdjust="spacing" textLength="26.4" x="230.4" y="328.8645">Model</text></g><!--cluster Mapper--><g id="cluster_Mapper"><rect fill="none" height="421.5" rx="1.5" ry="1.5" style="stroke:#000000;stroke-width:0.8999999999999999;" width="444.6" x="634.2" y="199.2"/><text fill="#000000" font-family="sans-serif" font-size="8.4" font-weight="bold" lengthAdjust="spacing" textLength="32.4" x="840.3" y="209.4645">Mapper</text></g><!--cluster DTO--><g id="cluster_DTO"><rect fill="none" height="276.6" rx="1.5" ry="1.5" style="stroke:#000000;stroke-width:0.8999999999999999;" width="408" x="656.4" y="329.7"/><text fill="#000000" font-family="sans-serif" font-size="8.4" font-weight="bold" lengthAdjust="spacing" textLength="17.4" x="851.7" y="339.9645">DTO</text></g><!--class AddEntryAgendaUI--><g id="elem_AddEntryAgendaUI"><rect codeLine="12" fill="#F1F1F1" height="28.8" id="AddEntryAgendaUI" rx="1.5" ry="1.5" style="stroke:#181818;stroke-width:0.3;" width="90.6" x="1117.5" y="75.6"/><ellipse cx="1126.5" cy="85.2" fill="#ADD1B2" rx="6.6" ry="6.6" style="stroke:#181818;stroke-width:0.6;"/><path d="M1128.1594,82.725 Q1128.2531,82.5938 1128.3656,82.5281 Q1128.4781,82.4625 1128.6094,82.4625 Q1128.8344,82.4625 1128.975,82.6219 Q1129.1156,82.7719 1129.1156,83.1375 L1129.1156,84.0094 Q1129.1156,84.375 1128.975,84.5344 Q1128.8344,84.6938 1128.6094,84.6938 Q1128.4031,84.6938 1128.2813,84.5719 Q1128.1594,84.4594 1128.0938,84.15 Q1128.0656,83.9344 1127.9531,83.8219 Q1127.7563,83.5969 1127.3906,83.4656 Q1127.025,83.3344 1126.65,83.3344 Q1126.1906,83.3344 1125.8062,83.5313 Q1125.4312,83.7281 1125.1313,84.1781 Q1124.8406,84.6281 1124.8406,85.2469 L1124.8406,85.9031 Q1124.8406,86.6438 1125.375,87.1406 Q1125.9094,87.6281 1126.8656,87.6281 Q1127.4281,87.6281 1127.8219,87.4781 Q1128.0562,87.3844 1128.3094,87.1219 Q1128.4688,86.9625 1128.5531,86.9156 Q1128.6469,86.8687 1128.7688,86.8687 Q1128.9656,86.8687 1129.1156,87.0281 Q1129.275,87.1781 1129.275,87.3844 Q1129.275,87.5906 1129.0688,87.8344 Q1128.7688,88.1812 1128.2906,88.3781 Q1127.6438,88.65 1126.8656,88.65 Q1125.9563,88.65 1125.2344,88.275 Q1124.6438,87.975 1124.2313,87.3375 Q1123.8188,86.6906 1123.8188,85.9219 L1123.8188,85.2281 Q1123.8188,84.4312 1124.1844,83.7469 Q1124.5594,83.0531 1125.2156,82.6875 Q1125.8719,82.3125 1126.6125,82.3125 Q1127.0531,82.3125 1127.4375,82.4156 Q1127.8313,82.5094 1128.1594,82.725 Z " fill="#000000"/><text fill="#000000" font-family="sans-serif" font-size="8.4" lengthAdjust="spacing" textLength="71.4" x="1134.9" y="88.6781">AddEntryAgendaUI</text><line style="stroke:#181818;stroke-width:0.3;" x1="1118.1" x2="1207.5" y1="94.8" y2="94.8"/><line style="stroke:#181818;stroke-width:0.3;" x1="1118.1" x2="1207.5" y1="99.6" y2="99.6"/></g><!--class AddEntryAgendaController--><g id="elem_AddEntryAgendaController"><rect codeLine="20" fill="#F1F1F1" height="73.4906" id="AddEntryAgendaController" rx="1.5" ry="1.5" style="stroke:#181818;stroke-width:0.3;" width="120.6" x="270.9" y="53.4"/><ellipse cx="279.9" cy="63" fill="#ADD1B2" rx="6.6" ry="6.6" style="stroke:#181818;stroke-width:0.6;"/><path d="M281.5594,60.525 Q281.6531,60.3938 281.7656,60.3281 Q281.8781,60.2625 282.0094,60.2625 Q282.2344,60.2625 282.375,60.4219 Q282.5156,60.5719 282.5156,60.9375 L282.5156,61.8094 Q282.5156,62.175 282.375,62.3344 Q282.2344,62.4938 282.0094,62.4938 Q281.8031,62.4938 281.6813,62.3719 Q281.5594,62.2594 281.4938,61.95 Q281.4656,61.7344 281.3531,61.6219 Q281.1563,61.3969 280.7906,61.2656 Q280.425,61.1344 280.05,61.1344 Q279.5906,61.1344 279.2063,61.3313 Q278.8313,61.5281 278.5313,61.9781 Q278.2406,62.4281 278.2406,63.0469 L278.2406,63.7031 Q278.2406,64.4438 278.775,64.9406 Q279.3094,65.4281 280.2656,65.4281 Q280.8281,65.4281 281.2219,65.2781 Q281.4563,65.1844 281.7094,64.9219 Q281.8688,64.7625 281.9531,64.7156 Q282.0469,64.6688 282.1688,64.6688 Q282.3656,64.6688 282.5156,64.8281 Q282.675,64.9781 282.675,65.1844 Q282.675,65.3906 282.4688,65.6344 Q282.1688,65.9813 281.6906,66.1781 Q281.0438,66.45 280.2656,66.45 Q279.3563,66.45 278.6344,66.075 Q278.0438,65.775 277.6312,65.1375 Q277.2188,64.4906 277.2188,63.7219 L277.2188,63.0281 Q277.2188,62.2312 277.5844,61.5469 Q277.9594,60.8531 278.6156,60.4875 Q279.2719,60.1125 280.0125,60.1125 Q280.4531,60.1125 280.8375,60.2156 Q281.2313,60.3094 281.5594,60.525 Z " fill="#000000"/><text fill="#000000" font-family="sans-serif" font-size="8.4" lengthAdjust="spacing" textLength="101.4" x="288.3" y="66.4781">AddEntryAgendaController</text><line style="stroke:#181818;stroke-width:0.3;" x1="271.5" x2="390.9" y1="72.6" y2="72.6"/><line style="stroke:#181818;stroke-width:0.3;" x1="271.5" x2="390.9" y1="77.4" y2="77.4"/><text fill="#000000" font-family="sans-serif" font-size="8.4" lengthAdjust="spacing" textLength="112.2" x="274.5" y="88.8645">+AddEntryAgendaController()</text><text fill="#000000" font-family="sans-serif" font-size="8.4" lengthAdjust="spacing" textLength="83.4" x="274.5" y="100.0371">+getToDoListEntries()</text><text fill="#000000" font-family="sans-serif" font-size="8.4" lengthAdjust="spacing" textLength="76.2" x="274.5" y="111.2098">+getSelectedTask(i)</text><text fill="#000000" font-family="sans-serif" font-size="8.4" lengthAdjust="spacing" textLength="91.2" x="274.5" y="122.3824">+addEntry(startingDate)</text></g><!--class Repositories--><g id="elem_Repositories"><rect codeLine="31" fill="#F1F1F1" height="73.4906" id="Repositories" rx="1.5" ry="1.5" style="stroke:#181818;stroke-width:0.3;" width="116.4" x="58.2" y="216"/><ellipse cx="90.15" cy="225.6" fill="#ADD1B2" rx="6.6" ry="6.6" style="stroke:#181818;stroke-width:0.6;"/><path d="M91.8094,223.125 Q91.9031,222.9938 92.0156,222.9281 Q92.1281,222.8625 92.2594,222.8625 Q92.4844,222.8625 92.625,223.0219 Q92.7656,223.1719 92.7656,223.5375 L92.7656,224.4094 Q92.7656,224.775 92.625,224.9344 Q92.4844,225.0938 92.2594,225.0938 Q92.0531,225.0938 91.9312,224.9719 Q91.8094,224.8594 91.7437,224.55 Q91.7156,224.3344 91.6031,224.2219 Q91.4063,223.9969 91.0406,223.8656 Q90.675,223.7344 90.3,223.7344 Q89.8406,223.7344 89.4563,223.9313 Q89.0813,224.1281 88.7813,224.5781 Q88.4906,225.0281 88.4906,225.6469 L88.4906,226.3031 Q88.4906,227.0438 89.025,227.5406 Q89.5594,228.0281 90.5156,228.0281 Q91.0781,228.0281 91.4719,227.8781 Q91.7063,227.7844 91.9594,227.5219 Q92.1187,227.3625 92.2031,227.3156 Q92.2969,227.2687 92.4188,227.2687 Q92.6156,227.2687 92.7656,227.4281 Q92.925,227.5781 92.925,227.7844 Q92.925,227.9906 92.7188,228.2344 Q92.4188,228.5812 91.9406,228.7781 Q91.2938,229.05 90.5156,229.05 Q89.6063,229.05 88.8844,228.675 Q88.2938,228.375 87.8813,227.7375 Q87.4688,227.0906 87.4688,226.3219 L87.4688,225.6281 Q87.4688,224.8312 87.8344,224.1469 Q88.2094,223.4531 88.8656,223.0875 Q89.5219,222.7125 90.2625,222.7125 Q90.7031,222.7125 91.0875,222.8156 Q91.4813,222.9094 91.8094,223.125 Z " fill="#000000"/><text fill="#000000" font-family="sans-serif" font-size="8.4" lengthAdjust="spacing" textLength="47.4" x="102.45" y="229.0781">Repositories</text><line style="stroke:#181818;stroke-width:0.3;" x1="58.8" x2="174" y1="235.2" y2="235.2"/><line style="stroke:#181818;stroke-width:0.3;" x1="58.8" x2="174" y1="240" y2="240"/><text fill="#000000" font-family="sans-serif" font-size="8.4" lengthAdjust="spacing" textLength="56.4" x="61.8" y="251.4645">-Repositories()</text><text fill="#000000" font-family="sans-serif" font-size="8.4" lengthAdjust="spacing" textLength="109.2" x="61.8" y="262.6371">+getInstance() : Repositories</text><text fill="#000000" font-family="sans-serif" font-size="8.4" lengthAdjust="spacing" textLength="57" x="61.8" y="273.8098">+getToDoList()</text><text fill="#000000" font-family="sans-serif" font-size="8.4" lengthAdjust="spacing" textLength="52.2" x="61.8" y="284.9824">+getAgenda()</text></g><!--class ToDoList--><g id="elem_ToDoList"><rect codeLine="39" fill="#F1F1F1" height="73.4906" id="ToDoList" rx="1.5" ry="1.5" style="stroke:#181818;stroke-width:0.3;" width="155.4" x="440.1" y="216"/><ellipse cx="498.15" cy="225.6" fill="#ADD1B2" rx="6.6" ry="6.6" style="stroke:#181818;stroke-width:0.6;"/><path d="M499.8094,223.125 Q499.9031,222.9938 500.0156,222.9281 Q500.1281,222.8625 500.2594,222.8625 Q500.4844,222.8625 500.625,223.0219 Q500.7656,223.1719 500.7656,223.5375 L500.7656,224.4094 Q500.7656,224.775 500.625,224.9344 Q500.4844,225.0938 500.2594,225.0938 Q500.0531,225.0938 499.9313,224.9719 Q499.8094,224.8594 499.7438,224.55 Q499.7156,224.3344 499.6031,224.2219 Q499.4063,223.9969 499.0406,223.8656 Q498.675,223.7344 498.3,223.7344 Q497.8406,223.7344 497.4562,223.9313 Q497.0812,224.1281 496.7813,224.5781 Q496.4906,225.0281 496.4906,225.6469 L496.4906,226.3031 Q496.4906,227.0438 497.025,227.5406 Q497.5594,228.0281 498.5156,228.0281 Q499.0781,228.0281 499.4719,227.8781 Q499.7062,227.7844 499.9594,227.5219 Q500.1188,227.3625 500.2031,227.3156 Q500.2969,227.2687 500.4188,227.2687 Q500.6156,227.2687 500.7656,227.4281 Q500.925,227.5781 500.925,227.7844 Q500.925,227.9906 500.7188,228.2344 Q500.4188,228.5812 499.9406,228.7781 Q499.2938,229.05 498.5156,229.05 Q497.6063,229.05 496.8844,228.675 Q496.2938,228.375 495.8812,227.7375 Q495.4688,227.0906 495.4688,226.3219 L495.4688,225.6281 Q495.4688,224.8312 495.8344,224.1469 Q496.2094,223.4531 496.8656,223.0875 Q497.5219,222.7125 498.2625,222.7125 Q498.7031,222.7125 499.0875,222.8156 Q499.4813,222.9094 499.8094,223.125 Z " fill="#000000"/><text fill="#000000" font-family="sans-serif" font-size="8.4" lengthAdjust="spacing" textLength="34.2" x="510.45" y="229.0781">ToDoList</text><line style="stroke:#181818;stroke-width:0.3;" x1="440.7" x2="594.9" y1="235.2" y2="235.2"/><text fill="#000000" font-family="sans-serif" font-size="8.4" lengthAdjust="spacing" textLength="85.8" x="443.7" y="246.6645">-List&lt;Task&gt; entriesList</text><text fill="#000000" font-family="sans-serif" font-size="8.4" lengthAdjust="spacing" textLength="148.2" x="443.7" y="257.8371">-List&lt;Task&gt; associatedToDoEntriesList</text><line style="stroke:#181818;stroke-width:0.3;" x1="440.7" x2="594.9" y1="262.3453" y2="262.3453"/><text fill="#000000" font-family="sans-serif" font-size="8.4" lengthAdjust="spacing" textLength="103.2" x="443.7" y="273.8098">+getToDoListEntries(email)</text><text fill="#000000" font-family="sans-serif" font-size="8.4" lengthAdjust="spacing" textLength="76.2" x="443.7" y="284.9824">+getSelectedTask(i)</text></g><!--class Agenda--><g id="elem_Agenda"><rect codeLine="47" fill="#F1F1F1" height="51.1453" id="Agenda" rx="1.5" ry="1.5" style="stroke:#181818;stroke-width:0.3;" width="175.8" x="243.3" y="227.1"/><ellipse cx="313.95" cy="236.7" fill="#ADD1B2" rx="6.6" ry="6.6" style="stroke:#181818;stroke-width:0.6;"/><path d="M315.6094,234.225 Q315.7031,234.0938 315.8156,234.0281 Q315.9281,233.9625 316.0594,233.9625 Q316.2844,233.9625 316.425,234.1219 Q316.5656,234.2719 316.5656,234.6375 L316.5656,235.5094 Q316.5656,235.875 316.425,236.0344 Q316.2844,236.1938 316.0594,236.1938 Q315.8531,236.1938 315.7313,236.0719 Q315.6094,235.9594 315.5438,235.65 Q315.5156,235.4344 315.4031,235.3219 Q315.2063,235.0969 314.8406,234.9656 Q314.475,234.8344 314.1,234.8344 Q313.6406,234.8344 313.2562,235.0313 Q312.8812,235.2281 312.5813,235.6781 Q312.2906,236.1281 312.2906,236.7469 L312.2906,237.4031 Q312.2906,238.1437 312.825,238.6406 Q313.3594,239.1281 314.3156,239.1281 Q314.8781,239.1281 315.2719,238.9781 Q315.5062,238.8844 315.7594,238.6219 Q315.9188,238.4625 316.0031,238.4156 Q316.0969,238.3687 316.2188,238.3687 Q316.4156,238.3687 316.5656,238.5281 Q316.725,238.6781 316.725,238.8844 Q316.725,239.0906 316.5188,239.3344 Q316.2188,239.6812 315.7406,239.8781 Q315.0938,240.15 314.3156,240.15 Q313.4063,240.15 312.6844,239.775 Q312.0938,239.475 311.6813,238.8375 Q311.2688,238.1906 311.2688,237.4219 L311.2688,236.7281 Q311.2688,235.9312 311.6344,235.2469 Q312.0094,234.5531 312.6656,234.1875 Q313.3219,233.8125 314.0625,233.8125 Q314.5031,233.8125 314.8875,233.9156 Q315.2813,234.0094 315.6094,234.225 Z " fill="#000000"/><text fill="#000000" font-family="sans-serif" font-size="8.4" lengthAdjust="spacing" textLength="29.4" x="326.25" y="240.1781">Agenda</text><line style="stroke:#181818;stroke-width:0.3;" x1="243.9" x2="418.5" y1="246.3" y2="246.3"/><line style="stroke:#181818;stroke-width:0.3;" x1="243.9" x2="418.5" y1="251.1" y2="251.1"/><text fill="#000000" font-family="sans-serif" font-size="8.4" lengthAdjust="spacing" textLength="168.6" x="246.9" y="262.5645">+addEntry(startingDate, selectedTaskClone)</text><text fill="#000000" font-family="sans-serif" font-size="8.4" lengthAdjust="spacing" textLength="96" x="246.9" y="273.7371">-add(selectedTaskClone)</text></g><!--class ApplicationSession--><g id="elem_ApplicationSession"><rect codeLine="56" fill="#F1F1F1" height="51.1453" id="ApplicationSession" rx="1.5" ry="1.5" style="stroke:#181818;stroke-width:0.3;" width="90.6" x="58.5" y="374.4"/><ellipse cx="67.5" cy="384" fill="#ADD1B2" rx="6.6" ry="6.6" style="stroke:#181818;stroke-width:0.6;"/><path d="M69.1594,381.525 Q69.2531,381.3938 69.3656,381.3281 Q69.4781,381.2625 69.6094,381.2625 Q69.8344,381.2625 69.975,381.4219 Q70.1156,381.5719 70.1156,381.9375 L70.1156,382.8094 Q70.1156,383.175 69.975,383.3344 Q69.8344,383.4938 69.6094,383.4938 Q69.4031,383.4938 69.2813,383.3719 Q69.1594,383.2594 69.0938,382.95 Q69.0656,382.7344 68.9531,382.6219 Q68.7563,382.3969 68.3906,382.2656 Q68.025,382.1344 67.65,382.1344 Q67.1906,382.1344 66.8062,382.3313 Q66.4312,382.5281 66.1313,382.9781 Q65.8406,383.4281 65.8406,384.0469 L65.8406,384.7031 Q65.8406,385.4437 66.375,385.9406 Q66.9094,386.4281 67.8656,386.4281 Q68.4281,386.4281 68.8219,386.2781 Q69.0562,386.1844 69.3094,385.9219 Q69.4688,385.7625 69.5531,385.7156 Q69.6469,385.6688 69.7688,385.6688 Q69.9656,385.6688 70.1156,385.8281 Q70.275,385.9781 70.275,386.1844 Q70.275,386.3906 70.0688,386.6344 Q69.7688,386.9813 69.2906,387.1781 Q68.6438,387.45 67.8656,387.45 Q66.9563,387.45 66.2344,387.075 Q65.6438,386.775 65.2313,386.1375 Q64.8188,385.4906 64.8188,384.7219 L64.8188,384.0281 Q64.8188,383.2313 65.1844,382.5469 Q65.5594,381.8531 66.2156,381.4875 Q66.8719,381.1125 67.6125,381.1125 Q68.0531,381.1125 68.4375,381.2156 Q68.8313,381.3094 69.1594,381.525 Z " fill="#000000"/><text fill="#000000" font-family="sans-serif" font-size="8.4" lengthAdjust="spacing" textLength="71.4" x="75.9" y="387.4781">ApplicationSession</text><line style="stroke:#181818;stroke-width:0.3;" x1="59.1" x2="148.5" y1="393.6" y2="393.6"/><line style="stroke:#181818;stroke-width:0.3;" x1="59.1" x2="148.5" y1="398.4" y2="398.4"/><text fill="#000000" font-family="sans-serif" font-size="8.4" lengthAdjust="spacing" textLength="76.8" x="62.1" y="409.8645">+static getInstance()</text><text fill="#000000" font-family="sans-serif" font-size="8.4" lengthAdjust="spacing" textLength="81.6" x="62.1" y="421.0371">+getCurrentSession()</text></g><!--class UserSession--><g id="elem_UserSession"><rect codeLine="62" fill="#F1F1F1" height="39.9727" id="UserSession" rx="1.5" ry="1.5" style="stroke:#181818;stroke-width:0.3;" width="67.8" x="58.5" y="534.3"/><ellipse cx="68.04" cy="543.9" fill="#ADD1B2" rx="6.6" ry="6.6" style="stroke:#181818;stroke-width:0.6;"/><path d="M69.6994,541.425 Q69.7931,541.2937 69.9056,541.2281 Q70.0181,541.1625 70.1494,541.1625 Q70.3744,541.1625 70.515,541.3219 Q70.6556,541.4719 70.6556,541.8375 L70.6556,542.7094 Q70.6556,543.075 70.515,543.2344 Q70.3744,543.3938 70.1494,543.3938 Q69.9431,543.3938 69.8213,543.2719 Q69.6994,543.1594 69.6338,542.85 Q69.6056,542.6344 69.4931,542.5219 Q69.2963,542.2969 68.9306,542.1656 Q68.565,542.0344 68.19,542.0344 Q67.7306,542.0344 67.3463,542.2312 Q66.9713,542.4281 66.6713,542.8781 Q66.3806,543.3281 66.3806,543.9469 L66.3806,544.6031 Q66.3806,545.3438 66.915,545.8406 Q67.4494,546.3281 68.4056,546.3281 Q68.9681,546.3281 69.3619,546.1781 Q69.5963,546.0844 69.8494,545.8219 Q70.0088,545.6625 70.0931,545.6156 Q70.1869,545.5688 70.3088,545.5688 Q70.5056,545.5688 70.6556,545.7281 Q70.815,545.8781 70.815,546.0844 Q70.815,546.2906 70.6088,546.5344 Q70.3088,546.8813 69.8306,547.0781 Q69.1838,547.35 68.4056,547.35 Q67.4963,547.35 66.7744,546.975 Q66.1838,546.675 65.7713,546.0375 Q65.3588,545.3906 65.3588,544.6219 L65.3588,543.9281 Q65.3588,543.1313 65.7244,542.4469 Q66.0994,541.7531 66.7556,541.3875 Q67.4119,541.0125 68.1525,541.0125 Q68.5931,541.0125 68.9775,541.1156 Q69.3713,541.2094 69.6994,541.425 Z " fill="#000000"/><text fill="#000000" font-family="sans-serif" font-size="8.4" lengthAdjust="spacing" textLength="47.4" x="76.56" y="547.3781">UserSession</text><line style="stroke:#181818;stroke-width:0.3;" x1="59.1" x2="125.7" y1="553.5" y2="553.5"/><line style="stroke:#181818;stroke-width:0.3;" x1="59.1" x2="125.7" y1="558.3" y2="558.3"/><text fill="#000000" font-family="sans-serif" font-size="8.4" lengthAdjust="spacing" textLength="60.6" x="62.1" y="569.7645">+getUserEmail()</text></g><!--class GreenSpace--><g id="elem_GreenSpace"><rect codeLine="68" fill="#F1F1F1" height="95.8359" id="GreenSpace" rx="1.5" ry="1.5" style="stroke:#181818;stroke-width:0.3;" width="89.4" x="339.3" y="506.4"/><ellipse cx="358.29" cy="516" fill="#ADD1B2" rx="6.6" ry="6.6" style="stroke:#181818;stroke-width:0.6;"/><path d="M359.9494,513.525 Q360.0431,513.3938 360.1556,513.3281 Q360.2681,513.2625 360.3994,513.2625 Q360.6244,513.2625 360.765,513.4219 Q360.9056,513.5719 360.9056,513.9375 L360.9056,514.8094 Q360.9056,515.175 360.765,515.3344 Q360.6244,515.4938 360.3994,515.4938 Q360.1931,515.4938 360.0712,515.3719 Q359.9494,515.2594 359.8837,514.95 Q359.8556,514.7344 359.7431,514.6219 Q359.5463,514.3969 359.1806,514.2656 Q358.815,514.1344 358.44,514.1344 Q357.9806,514.1344 357.5963,514.3313 Q357.2213,514.5281 356.9213,514.9781 Q356.6306,515.4281 356.6306,516.0469 L356.6306,516.7031 Q356.6306,517.4438 357.165,517.9406 Q357.6994,518.4281 358.6556,518.4281 Q359.2181,518.4281 359.6119,518.2781 Q359.8463,518.1844 360.0994,517.9219 Q360.2587,517.7625 360.3431,517.7156 Q360.4369,517.6687 360.5588,517.6687 Q360.7556,517.6687 360.9056,517.8281 Q361.065,517.9781 361.065,518.1844 Q361.065,518.3906 360.8588,518.6344 Q360.5588,518.9812 360.0806,519.1781 Q359.4338,519.45 358.6556,519.45 Q357.7463,519.45 357.0244,519.075 Q356.4338,518.775 356.0212,518.1375 Q355.6088,517.4906 355.6088,516.7219 L355.6088,516.0281 Q355.6088,515.2312 355.9744,514.5469 Q356.3494,513.8531 357.0056,513.4875 Q357.6619,513.1125 358.4025,513.1125 Q358.8431,513.1125 359.2275,513.2156 Q359.6213,513.3094 359.9494,513.525 Z " fill="#000000"/><text fill="#000000" font-family="sans-serif" font-size="8.4" lengthAdjust="spacing" textLength="48" x="368.91" y="519.4781">GreenSpace</text><line style="stroke:#181818;stroke-width:0.3;" x1="339.9" x2="428.1" y1="525.6" y2="525.6"/><text fill="#000000" font-family="sans-serif" font-size="8.4" lengthAdjust="spacing" textLength="48.6" x="342.9" y="537.0645">-String name</text><text fill="#000000" font-family="sans-serif" font-size="8.4" lengthAdjust="spacing" textLength="43.8" x="342.9" y="548.2371">-String type</text><text fill="#000000" font-family="sans-serif" font-size="8.4" lengthAdjust="spacing" textLength="31.8" x="342.9" y="559.4098">-int area</text><text fill="#000000" font-family="sans-serif" font-size="8.4" lengthAdjust="spacing" textLength="58.2" x="342.9" y="570.5824">-String address</text><text fill="#000000" font-family="sans-serif" font-size="8.4" lengthAdjust="spacing" textLength="63.6" x="342.9" y="581.7551">-String gsmEmail</text><line style="stroke:#181818;stroke-width:0.3;" x1="339.9" x2="428.1" y1="586.2633" y2="586.2633"/><text fill="#000000" font-family="sans-serif" font-size="8.4" lengthAdjust="spacing" textLength="82.2" x="342.9" y="597.7277">+hasUserEmail(email)</text></g><!--class Task--><g id="elem_Task"><rect codeLine="78" fill="#F1F1F1" height="118.1812" id="Task" rx="1.5" ry="1.5" style="stroke:#181818;stroke-width:0.3;" width="123" x="287.7" y="340.8"/><ellipse cx="337.35" cy="350.4" fill="#ADD1B2" rx="6.6" ry="6.6" style="stroke:#181818;stroke-width:0.6;"/><path d="M339.0094,347.925 Q339.1031,347.7938 339.2156,347.7281 Q339.3281,347.6625 339.4594,347.6625 Q339.6844,347.6625 339.825,347.8219 Q339.9656,347.9719 339.9656,348.3375 L339.9656,349.2094 Q339.9656,349.575 339.825,349.7344 Q339.6844,349.8938 339.4594,349.8938 Q339.2531,349.8938 339.1312,349.7719 Q339.0094,349.6594 338.9437,349.35 Q338.9156,349.1344 338.8031,349.0219 Q338.6063,348.7969 338.2406,348.6656 Q337.875,348.5344 337.5,348.5344 Q337.0406,348.5344 336.6563,348.7313 Q336.2813,348.9281 335.9813,349.3781 Q335.6906,349.8281 335.6906,350.4469 L335.6906,351.1031 Q335.6906,351.8438 336.225,352.3406 Q336.7594,352.8281 337.7156,352.8281 Q338.2781,352.8281 338.6719,352.6781 Q338.9063,352.5844 339.1594,352.3219 Q339.3187,352.1625 339.4031,352.1156 Q339.4969,352.0687 339.6188,352.0687 Q339.8156,352.0687 339.9656,352.2281 Q340.125,352.3781 340.125,352.5844 Q340.125,352.7906 339.9188,353.0344 Q339.6188,353.3812 339.1406,353.5781 Q338.4938,353.85 337.7156,353.85 Q336.8063,353.85 336.0844,353.475 Q335.4938,353.175 335.0813,352.5375 Q334.6688,351.8906 334.6688,351.1219 L334.6688,350.4281 Q334.6688,349.6312 335.0344,348.9469 Q335.4094,348.2531 336.0656,347.8875 Q336.7219,347.5125 337.4625,347.5125 Q337.9031,347.5125 338.2875,347.6156 Q338.6813,347.7094 339.0094,347.925 Z " fill="#000000"/><text fill="#000000" font-family="sans-serif" font-size="8.4" lengthAdjust="spacing" textLength="18.6" x="349.65" y="353.8781">Task</text><line style="stroke:#181818;stroke-width:0.3;" x1="288.3" x2="410.1" y1="360" y2="360"/><text fill="#000000" font-family="sans-serif" font-size="8.4" lengthAdjust="spacing" textLength="40.8" x="291.3" y="371.4645">-String title</text><text fill="#000000" font-family="sans-serif" font-size="8.4" lengthAdjust="spacing" textLength="69" x="291.3" y="382.6371">-String description</text><text fill="#000000" font-family="sans-serif" font-size="8.4" lengthAdjust="spacing" textLength="81" x="291.3" y="393.8098">-int expectedDuration</text><text fill="#000000" font-family="sans-serif" font-size="8.4" lengthAdjust="spacing" textLength="86.4" x="291.3" y="404.9824">-Calendar startingDate</text><line style="stroke:#181818;stroke-width:0.3;" x1="288.3" x2="410.1" y1="409.4906" y2="409.4906"/><text fill="#000000" font-family="sans-serif" font-size="8.4" lengthAdjust="spacing" textLength="48" x="291.3" y="420.9551">+isPending()</text><text fill="#000000" font-family="sans-serif" font-size="8.4" lengthAdjust="spacing" textLength="82.2" x="291.3" y="432.1277">+hasUserEmail(email)</text><text fill="#000000" font-family="sans-serif" font-size="8.4" lengthAdjust="spacing" textLength="81.6" x="291.3" y="443.3004">+clone(selectedTask)</text><text fill="#000000" font-family="sans-serif" font-size="8.4" lengthAdjust="spacing" textLength="115.8" x="291.3" y="454.473">+setStartingDate(startingDate)</text></g><!--class DegreeOfUrgency--><g id="elem_DegreeOfUrgency"><rect codeLine="90" fill="#F1F1F1" height="62.318" id="DegreeOfUrgency" rx="1.5" ry="1.5" style="stroke:#181818;stroke-width:0.3;" width="87.6" x="147.6" y="523.2"/><ellipse cx="156.6" cy="532.8" fill="#EB937F" rx="6.6" ry="6.6" style="stroke:#181818;stroke-width:0.6;"/><path d="M155.9156,533.2781 L155.9156,534.7781 L158.5125,534.7781 L158.5125,534.225 Q158.5125,533.8594 158.6531,533.7 Q158.8031,533.5406 159.0281,533.5406 Q159.2531,533.5406 159.3937,533.7 Q159.5344,533.8594 159.5344,534.225 L159.5344,535.8 L154.7344,535.8 Q154.3594,535.8 154.2,535.6594 Q154.05,535.5188 154.05,535.2844 Q154.05,535.0594 154.2094,534.9187 Q154.3688,534.7781 154.7344,534.7781 L154.8937,534.7781 L154.8937,530.7844 L154.7344,530.7844 Q154.3594,530.7844 154.2,530.6438 Q154.05,530.5031 154.05,530.2688 Q154.05,530.0437 154.2,529.9031 Q154.3594,529.7625 154.7344,529.7625 L159.3094,529.7625 L159.3094,531.3188 Q159.3094,531.6844 159.1688,531.8438 Q159.0375,531.9938 158.8031,531.9938 Q158.5781,531.9938 158.4375,531.8438 Q158.2969,531.6844 158.2969,531.3188 L158.2969,530.7844 L155.9156,530.7844 L155.9156,532.2563 L156.8063,532.2563 Q156.8063,531.8625 156.8813,531.75 Q157.0406,531.5063 157.3219,531.5063 Q157.5469,531.5063 157.6875,531.6656 Q157.8281,531.8156 157.8281,532.1813 L157.8281,533.3625 Q157.8281,533.6906 157.7531,533.8031 Q157.5938,534.0375 157.3219,534.0375 Q157.0406,534.0375 156.8813,533.7937 Q156.8063,533.6813 156.8063,533.2781 L155.9156,533.2781 Z " fill="#000000"/><text fill="#000000" font-family="sans-serif" font-size="8.4" lengthAdjust="spacing" textLength="68.4" x="165" y="536.2781">DegreeOfUrgency</text><line style="stroke:#181818;stroke-width:0.3;" x1="148.2" x2="234.6" y1="542.4" y2="542.4"/><text fill="#000000" font-family="sans-serif" font-size="8.4" lengthAdjust="spacing" textLength="15" x="151.2" y="553.8645">Low</text><text fill="#000000" font-family="sans-serif" font-size="8.4" lengthAdjust="spacing" textLength="29.4" x="151.2" y="565.0371">Medium</text><text fill="#000000" font-family="sans-serif" font-size="8.4" lengthAdjust="spacing" textLength="16.8" x="151.2" y="576.2098">High</text><line style="stroke:#181818;stroke-width:0.3;" x1="148.2" x2="234.6" y1="580.718" y2="580.718"/></g><!--class TaskStatus--><g id="elem_TaskStatus"><rect codeLine="97" fill="#F1F1F1" height="95.8359" id="TaskStatus" rx="1.5" ry="1.5" style="stroke:#181818;stroke-width:0.3;" width="61.8" x="256.5" y="506.4"/><ellipse cx="265.5" cy="516" fill="#EB937F" rx="6.6" ry="6.6" style="stroke:#181818;stroke-width:0.6;"/><path d="M264.8156,516.4781 L264.8156,517.9781 L267.4125,517.9781 L267.4125,517.425 Q267.4125,517.0594 267.5531,516.9 Q267.7031,516.7406 267.9281,516.7406 Q268.1531,516.7406 268.2938,516.9 Q268.4344,517.0594 268.4344,517.425 L268.4344,519 L263.6344,519 Q263.2594,519 263.1,518.8594 Q262.95,518.7188 262.95,518.4844 Q262.95,518.2594 263.1094,518.1188 Q263.2688,517.9781 263.6344,517.9781 L263.7938,517.9781 L263.7938,513.9844 L263.6344,513.9844 Q263.2594,513.9844 263.1,513.8438 Q262.95,513.7031 262.95,513.4688 Q262.95,513.2438 263.1,513.1031 Q263.2594,512.9625 263.6344,512.9625 L268.2094,512.9625 L268.2094,514.5188 Q268.2094,514.8844 268.0687,515.0437 Q267.9375,515.1938 267.7031,515.1938 Q267.4781,515.1938 267.3375,515.0437 Q267.1969,514.8844 267.1969,514.5188 L267.1969,513.9844 L264.8156,513.9844 L264.8156,515.4563 L265.7063,515.4563 Q265.7063,515.0625 265.7813,514.95 Q265.9406,514.7063 266.2219,514.7063 Q266.4469,514.7063 266.5875,514.8656 Q266.7281,515.0156 266.7281,515.3813 L266.7281,516.5625 Q266.7281,516.8906 266.6531,517.0031 Q266.4938,517.2375 266.2219,517.2375 Q265.9406,517.2375 265.7813,516.9938 Q265.7063,516.8813 265.7063,516.4781 L264.8156,516.4781 Z " fill="#000000"/><text fill="#000000" font-family="sans-serif" font-size="8.4" lengthAdjust="spacing" textLength="42.6" x="273.9" y="519.4781">TaskStatus</text><line style="stroke:#181818;stroke-width:0.3;" x1="257.1" x2="317.7" y1="525.6" y2="525.6"/><text fill="#000000" font-family="sans-serif" font-size="8.4" lengthAdjust="spacing" textLength="31.2" x="260.1" y="537.0645">Pending</text><text fill="#000000" font-family="sans-serif" font-size="8.4" lengthAdjust="spacing" textLength="40.2" x="260.1" y="548.2371">Processed</text><text fill="#000000" font-family="sans-serif" font-size="8.4" lengthAdjust="spacing" textLength="31.2" x="260.1" y="559.4098">Planned</text><text fill="#000000" font-family="sans-serif" font-size="8.4" lengthAdjust="spacing" textLength="40.8" x="260.1" y="570.5824">Postponed</text><text fill="#000000" font-family="sans-serif" font-size="8.4" lengthAdjust="spacing" textLength="36" x="260.1" y="581.7551">Canceled</text><text fill="#000000" font-family="sans-serif" font-size="8.4" lengthAdjust="spacing" textLength="20.4" x="260.1" y="592.9277">Done</text><line style="stroke:#181818;stroke-width:0.3;" x1="257.1" x2="317.7" y1="597.4359" y2="597.4359"/></g><!--class TaskMapper--><g id="elem_TaskMapper"><rect codeLine="111" fill="#F1F1F1" height="62.318" id="TaskMapper" rx="1.5" ry="1.5" style="stroke:#181818;stroke-width:0.3;" width="181.8" x="644.1" y="221.4"/><ellipse cx="708.75" cy="231" fill="#ADD1B2" rx="6.6" ry="6.6" style="stroke:#181818;stroke-width:0.6;"/><path d="M710.4094,228.525 Q710.5031,228.3937 710.6156,228.3281 Q710.7281,228.2625 710.8594,228.2625 Q711.0844,228.2625 711.225,228.4219 Q711.3656,228.5719 711.3656,228.9375 L711.3656,229.8094 Q711.3656,230.175 711.225,230.3344 Q711.0844,230.4937 710.8594,230.4937 Q710.6531,230.4937 710.5313,230.3719 Q710.4094,230.2594 710.3438,229.95 Q710.3156,229.7344 710.2031,229.6219 Q710.0063,229.3969 709.6406,229.2656 Q709.275,229.1344 708.9,229.1344 Q708.4406,229.1344 708.0563,229.3312 Q707.6813,229.5281 707.3813,229.9781 Q707.0906,230.4281 707.0906,231.0469 L707.0906,231.7031 Q707.0906,232.4438 707.625,232.9406 Q708.1594,233.4281 709.1156,233.4281 Q709.6781,233.4281 710.0719,233.2781 Q710.3063,233.1844 710.5594,232.9219 Q710.7188,232.7625 710.8031,232.7156 Q710.8969,232.6688 711.0188,232.6688 Q711.2156,232.6688 711.3656,232.8281 Q711.525,232.9781 711.525,233.1844 Q711.525,233.3906 711.3188,233.6344 Q711.0188,233.9813 710.5406,234.1781 Q709.8938,234.45 709.1156,234.45 Q708.2063,234.45 707.4844,234.075 Q706.8938,233.775 706.4812,233.1375 Q706.0688,232.4906 706.0688,231.7219 L706.0688,231.0281 Q706.0688,230.2313 706.4344,229.5469 Q706.8094,228.8531 707.4656,228.4875 Q708.1219,228.1125 708.8625,228.1125 Q709.3031,228.1125 709.6875,228.2156 Q710.0813,228.3094 710.4094,228.525 Z " fill="#000000"/><text fill="#000000" font-family="sans-serif" font-size="8.4" lengthAdjust="spacing" textLength="47.4" x="721.05" y="234.4781">TaskMapper</text><line style="stroke:#181818;stroke-width:0.3;" x1="644.7" x2="825.3" y1="240.6" y2="240.6"/><text fill="#000000" font-family="sans-serif" font-size="8.4" lengthAdjust="spacing" textLength="174.6" x="647.7" y="252.0645">-List&lt;TaskDto&gt; associatedToDoEntriesListDto</text><line style="stroke:#181818;stroke-width:0.3;" x1="644.7" x2="825.3" y1="256.5727" y2="256.5727"/><text fill="#000000" font-family="sans-serif" font-size="8.4" lengthAdjust="spacing" textLength="137.4" x="647.7" y="268.0371">+toDTO(associatedToDoEntriesList)</text><text fill="#000000" font-family="sans-serif" font-size="8.4" lengthAdjust="spacing" textLength="45.6" x="647.7" y="279.2098">-toDTO(obj)</text></g><!--class GreenSpaceDto--><g id="elem_GreenSpaceDto"><rect codeLine="119" fill="#F1F1F1" height="84.6633" id="GreenSpaceDto" rx="1.5" ry="1.5" style="stroke:#181818;stroke-width:0.3;" width="178.8" x="718.2" y="512.1"/><ellipse cx="774.45" cy="521.7" fill="#ADD1B2" rx="6.6" ry="6.6" style="stroke:#181818;stroke-width:0.6;"/><path d="M776.1094,519.225 Q776.2031,519.0938 776.3156,519.0281 Q776.4281,518.9625 776.5594,518.9625 Q776.7844,518.9625 776.925,519.1219 Q777.0656,519.2719 777.0656,519.6375 L777.0656,520.5094 Q777.0656,520.875 776.925,521.0344 Q776.7844,521.1938 776.5594,521.1938 Q776.3531,521.1938 776.2312,521.0719 Q776.1094,520.9594 776.0437,520.65 Q776.0156,520.4344 775.9031,520.3219 Q775.7063,520.0969 775.3406,519.9656 Q774.975,519.8344 774.6,519.8344 Q774.1406,519.8344 773.7563,520.0313 Q773.3813,520.2281 773.0813,520.6781 Q772.7906,521.1281 772.7906,521.7469 L772.7906,522.4031 Q772.7906,523.1438 773.325,523.6406 Q773.8594,524.1281 774.8156,524.1281 Q775.3781,524.1281 775.7719,523.9781 Q776.0063,523.8844 776.2594,523.6219 Q776.4187,523.4625 776.5031,523.4156 Q776.5969,523.3688 776.7188,523.3688 Q776.9156,523.3688 777.0656,523.5281 Q777.225,523.6781 777.225,523.8844 Q777.225,524.0906 777.0188,524.3344 Q776.7188,524.6813 776.2406,524.8781 Q775.5938,525.15 774.8156,525.15 Q773.9063,525.15 773.1844,524.775 Q772.5938,524.475 772.1813,523.8375 Q771.7688,523.1906 771.7688,522.4219 L771.7688,521.7281 Q771.7688,520.9313 772.1344,520.2469 Q772.5094,519.5531 773.1656,519.1875 Q773.8219,518.8125 774.5625,518.8125 Q775.0031,518.8125 775.3875,518.9156 Q775.7813,519.0094 776.1094,519.225 Z " fill="#000000"/><text fill="#000000" font-family="sans-serif" font-size="8.4" lengthAdjust="spacing" textLength="61.2" x="786.75" y="525.1781">GreenSpaceDto</text><line style="stroke:#181818;stroke-width:0.3;" x1="718.8" x2="896.4" y1="531.3" y2="531.3"/><text fill="#000000" font-family="sans-serif" font-size="8.4" lengthAdjust="spacing" textLength="48.6" x="721.8" y="542.7645">-String name</text><text fill="#000000" font-family="sans-serif" font-size="8.4" lengthAdjust="spacing" textLength="43.8" x="721.8" y="553.9371">-String type</text><text fill="#000000" font-family="sans-serif" font-size="8.4" lengthAdjust="spacing" textLength="31.8" x="721.8" y="565.1098">-int area</text><text fill="#000000" font-family="sans-serif" font-size="8.4" lengthAdjust="spacing" textLength="58.2" x="721.8" y="576.2824">-String address</text><line style="stroke:#181818;stroke-width:0.3;" x1="718.8" x2="896.4" y1="580.7906" y2="580.7906"/><text fill="#000000" font-family="sans-serif" font-size="8.4" lengthAdjust="spacing" textLength="171.6" x="721.8" y="592.2551">+GreenSpaceDto(name, type, area, address)</text></g><!--class TaskDto--><g id="elem_TaskDto"><rect codeLine="128" fill="#F1F1F1" height="95.8359" id="TaskDto" rx="1.5" ry="1.5" style="stroke:#181818;stroke-width:0.3;" width="388.2" x="666.3" y="351.9"/><ellipse cx="841.95" cy="361.5" fill="#ADD1B2" rx="6.6" ry="6.6" style="stroke:#181818;stroke-width:0.6;"/><path d="M843.6094,359.025 Q843.7031,358.8938 843.8156,358.8281 Q843.9281,358.7625 844.0594,358.7625 Q844.2844,358.7625 844.425,358.9219 Q844.5656,359.0719 844.5656,359.4375 L844.5656,360.3094 Q844.5656,360.675 844.425,360.8344 Q844.2844,360.9938 844.0594,360.9938 Q843.8531,360.9938 843.7312,360.8719 Q843.6094,360.7594 843.5437,360.45 Q843.5156,360.2344 843.4031,360.1219 Q843.2063,359.8969 842.8406,359.7656 Q842.475,359.6344 842.1,359.6344 Q841.6406,359.6344 841.2563,359.8313 Q840.8813,360.0281 840.5813,360.4781 Q840.2906,360.9281 840.2906,361.5469 L840.2906,362.2031 Q840.2906,362.9437 840.825,363.4406 Q841.3594,363.9281 842.3156,363.9281 Q842.8781,363.9281 843.2719,363.7781 Q843.5063,363.6844 843.7594,363.4219 Q843.9187,363.2625 844.0031,363.2156 Q844.0969,363.1688 844.2188,363.1688 Q844.4156,363.1688 844.5656,363.3281 Q844.725,363.4781 844.725,363.6844 Q844.725,363.8906 844.5188,364.1344 Q844.2188,364.4813 843.7406,364.6781 Q843.0938,364.95 842.3156,364.95 Q841.4063,364.95 840.6844,364.575 Q840.0938,364.275 839.6813,363.6375 Q839.2688,362.9906 839.2688,362.2219 L839.2688,361.5281 Q839.2688,360.7313 839.6344,360.0469 Q840.0094,359.3531 840.6656,358.9875 Q841.3219,358.6125 842.0625,358.6125 Q842.5031,358.6125 842.8875,358.7156 Q843.2813,358.8094 843.6094,359.025 Z " fill="#000000"/><text fill="#000000" font-family="sans-serif" font-size="8.4" lengthAdjust="spacing" textLength="31.8" x="854.25" y="364.9781">TaskDto</text><line style="stroke:#181818;stroke-width:0.3;" x1="666.9" x2="1053.9" y1="371.1" y2="371.1"/><text fill="#000000" font-family="sans-serif" font-size="8.4" lengthAdjust="spacing" textLength="40.8" x="669.9" y="382.5645">-String title</text><text fill="#000000" font-family="sans-serif" font-size="8.4" lengthAdjust="spacing" textLength="69" x="669.9" y="393.7371">-String description</text><text fill="#000000" font-family="sans-serif" font-size="8.4" lengthAdjust="spacing" textLength="94.8" x="669.9" y="404.9098">-String degreeOfUrgency</text><text fill="#000000" font-family="sans-serif" font-size="8.4" lengthAdjust="spacing" textLength="81" x="669.9" y="416.0824">-int expectedDuration</text><text fill="#000000" font-family="sans-serif" font-size="8.4" lengthAdjust="spacing" textLength="86.4" x="669.9" y="427.2551">-Calendar startingDate</text><line style="stroke:#181818;stroke-width:0.3;" x1="666.9" x2="1053.9" y1="431.7633" y2="431.7633"/><text fill="#000000" font-family="sans-serif" font-size="8.4" lengthAdjust="spacing" textLength="381" x="669.9" y="443.2277">+TaskDto(title, description, degreeOfUrgency, expectedDuration, selectedGreenSpace, startingDate)</text></g><!--reverse link Task to DegreeOfUrgency--><g id="link_Task_DegreeOfUrgency"><path codeLine="141" d="M281.9831,465.8021 C259.5311,487.6061 241.848,504.792 222.99,523.11 " fill="none" id="Task-backto-DegreeOfUrgency" style="stroke:#181818;stroke-width:0.6;"/><ellipse cx="285.4266" cy="462.4581" fill="#FFFFFF" rx="4.8" ry="4.8" style="stroke:#181818;stroke-width:0.6;"/><line style="stroke:#181818;stroke-width:0.6;" x1="281.9831" x2="288.87" y1="465.8021" y2="459.114"/><line style="stroke:#181818;stroke-width:0.6;" x1="282.0825" x2="288.7706" y1="459.0146" y2="465.9015"/></g><!--reverse link Task to TaskStatus--><g id="link_Task_TaskStatus"><path codeLine="142" d="M321.9824,468.0176 C315.7124,483.5696 312.606,491.268 306.606,506.16 " fill="none" id="Task-backto-TaskStatus" style="stroke:#181818;stroke-width:0.6;"/><ellipse cx="323.7772" cy="463.5658" fill="#FFFFFF" rx="4.8" ry="4.8" style="stroke:#181818;stroke-width:0.6;"/><line style="stroke:#181818;stroke-width:0.6;" x1="321.9824" x2="325.572" y1="468.0176" y2="459.114"/><line style="stroke:#181818;stroke-width:0.6;" x1="319.3254" x2="328.229" y1="461.771" y2="465.3606"/></g><!--link Repositories to Repositories--><g id="link_Repositories_Repositories"><path codeLine="144" d="M174.768,242.616 C186.888,243.666 195.6,246.996 195.6,252.6 C195.6,258.204 190.4746,261.2233 178.3546,262.2733 " fill="none" id="Repositories-to-Repositories" style="stroke:#181818;stroke-width:0.6;"/><polygon fill="#181818" points="174.768,262.584,180.355,264.509,177.7568,262.3251,179.9407,259.7269,174.768,262.584" style="stroke:#181818;stroke-width:0.6;"/><text fill="#000000" font-family="sans-serif" font-size="7.8" lengthAdjust="spacing" textLength="29.4" x="199.2" y="255.917">instance</text></g><!--link ApplicationSession to ApplicationSession--><g id="link_ApplicationSession_ApplicationSession"><path codeLine="145" d="M149.196,384.522 C161.1,385.434 170.1,390.558 170.1,399.9 C170.1,409.242 164.6895,414.091 152.7855,415.003 " fill="none" id="ApplicationSession-to-ApplicationSession" style="stroke:#181818;stroke-width:0.6;"/><polygon fill="#181818" points="149.196,415.278,154.7636,417.2585,152.1872,415.0488,154.3969,412.4725,149.196,415.278" style="stroke:#181818;stroke-width:0.6;"/><text fill="#000000" font-family="sans-serif" font-size="7.8" lengthAdjust="spacing" textLength="29.4" x="173.7" y="403.217">instance</text></g><!--link AddEntryAgendaUI to AddEntryAgendaController--><g id="link_AddEntryAgendaUI_AddEntryAgendaController"><path codeLine="147" d="M1117.494,90 C1038.894,90 885.6,90 885.6,90 C885.6,90 608.4,90 608.4,90 C608.4,90 476.664,90 395.118,90 " fill="none" id="AddEntryAgendaUI-to-AddEntryAgendaController" style="stroke:#181818;stroke-width:0.6;stroke-dasharray:7.0,7.0;"/><polygon fill="#181818" points="391.518,90,396.918,92.4,394.518,90,396.918,87.6,391.518,90" style="stroke:#181818;stroke-width:0.6;"/></g><!--link AddEntryAgendaController to Repositories--><g id="link_AddEntryAgendaController_Repositories"><path codeLine="149" d="M281.424,126.72 C257.016,144.426 232.8,162 232.8,162 C232.8,162 198.304,188.6699 165.922,213.7079 " fill="none" id="AddEntryAgendaController-to-Repositories" style="stroke:#181818;stroke-width:0.6;stroke-dasharray:7.0,7.0;"/><polygon fill="#181818" points="163.074,215.91,168.814,214.5055,165.4473,214.0749,165.8779,210.7083,163.074,215.91" style="stroke:#181818;stroke-width:0.6;"/><text fill="#000000" font-family="sans-serif" font-size="7.8" lengthAdjust="spacing" textLength="40.2" x="254.4" y="154.817">repositories</text></g><!--link Repositories to Agenda--><g id="link_Repositories_Agenda"><path codeLine="151" d="M174.702,252.6 C182.568,252.6 187.998,252.6 187.998,252.6 C187.998,252.6 218.436,252.6 239.574,252.6 " fill="none" id="Repositories-to-Agenda" style="stroke:#181818;stroke-width:0.6;"/><polygon fill="#181818" points="243.174,252.6,237.774,250.2,240.174,252.6,237.774,255,243.174,252.6" style="stroke:#181818;stroke-width:0.6;"/><text fill="#000000" font-family="sans-serif" font-size="7.8" lengthAdjust="spacing" textLength="4.2" x="234.3269" y="250.5548">1</text></g><!--link Repositories to ToDoList--><g id="link_Repositories_ToDoList"><path codeLine="152" d="M162.396,215.958 C198.708,187.026 243.3,151.5 243.3,151.5 C243.3,151.5 419.1,151.5 419.1,151.5 C419.1,151.5 429.6,162 429.6,162 C429.6,162 454.9946,188.0887 479.4146,213.1687 " fill="none" id="Repositories-to-ToDoList" style="stroke:#181818;stroke-width:0.6;"/><polygon fill="#181818" points="481.926,215.748,479.8784,210.2048,479.8331,213.5986,476.4393,213.5533,481.926,215.748" style="stroke:#181818;stroke-width:0.6;"/><text fill="#000000" font-family="sans-serif" font-size="7.8" lengthAdjust="spacing" textLength="4.2" x="473.5726" y="209.3701">1</text></g><!--link AddEntryAgendaController to ApplicationSession--><g id="link_AddEntryAgendaController_ApplicationSession"><path codeLine="154" d="M270.75,105.876 C187.734,126.846 48.6,162 48.6,162 C48.6,162 48.6,303.6 48.6,303.6 C48.6,303.6 71.143,342.6857 87.499,371.0357 " fill="none" id="AddEntryAgendaController-to-ApplicationSession" style="stroke:#181818;stroke-width:0.6;stroke-dasharray:7.0,7.0;"/><polygon fill="#181818" points="89.298,374.154,88.6783,368.2773,87.7988,371.5555,84.5206,370.676,89.298,374.154" style="stroke:#181818;stroke-width:0.6;"/></g><!--link AddEntryAgendaController to UserSession--><g id="link_AddEntryAgendaController_UserSession"><path codeLine="155" d="M270.846,103.02 C191.754,119.298 63,145.8 63,145.8 C63,145.8 43.8,162 43.8,162 C43.8,162 43.8,303.6 43.8,303.6 C43.8,303.6 48,459 48,459 C48,459 68.6668,503.128 81.6748,530.896 " fill="none" id="AddEntryAgendaController-to-UserSession" style="stroke:#181818;stroke-width:0.6;stroke-dasharray:7.0,7.0;"/><polygon fill="#181818" points="83.202,534.156,83.0846,528.2479,81.9294,531.4393,78.7379,530.2841,83.202,534.156" style="stroke:#181818;stroke-width:0.6;"/></g><!--link AddEntryAgendaController to ToDoList--><g id="link_AddEntryAgendaController_ToDoList"><path codeLine="156" d="M380.976,126.72 C405.384,144.426 429.6,162 429.6,162 C429.6,162 455.3761,188.301 479.9161,213.339 " fill="none" id="AddEntryAgendaController-to-ToDoList" style="stroke:#181818;stroke-width:0.6;stroke-dasharray:7.0,7.0;"/><polygon fill="#181818" points="482.436,215.91,480.3702,210.3735,480.3361,213.7675,476.9422,213.7334,482.436,215.91" style="stroke:#181818;stroke-width:0.6;"/><text fill="#000000" font-family="sans-serif" font-size="7.8" lengthAdjust="spacing" textLength="28.8" x="423" y="154.817">toDoList</text></g><!--link AddEntryAgendaController to Agenda--><g id="link_AddEntryAgendaController_Agenda"><path codeLine="157" d="M331.2,126.618 C331.2,157.092 331.2,196.38 331.2,223.266 " fill="none" id="AddEntryAgendaController-to-Agenda" style="stroke:#181818;stroke-width:0.6;stroke-dasharray:7.0,7.0;"/><polygon fill="#181818" points="331.2,226.866,333.6,221.466,331.2,223.866,328.8,221.466,331.2,226.866" style="stroke:#181818;stroke-width:0.6;"/><text fill="#000000" font-family="sans-serif" font-size="7.8" lengthAdjust="spacing" textLength="25.2" x="331.8" y="154.817">agenda</text></g><!--link AddEntryAgendaController to TaskMapper--><g id="link_AddEntryAgendaController_TaskMapper"><path codeLine="158" d="M391.542,106.314 C472.278,127.338 605.4,162 605.4,162 C605.4,162 650.2633,193.1503 687.8053,219.2263 " fill="none" id="AddEntryAgendaController-to-TaskMapper" style="stroke:#181818;stroke-width:0.6;stroke-dasharray:7.0,7.0;"/><polygon fill="#181818" points="690.762,221.28,687.696,216.2283,688.298,219.5686,684.9578,220.1706,690.762,221.28" style="stroke:#181818;stroke-width:0.6;"/></g><!--link ToDoList to Task--><g id="link_ToDoList_Task"><path codeLine="160" d="M476.124,289.314 C456.426,306.384 435.2368,324.7447 413.4988,343.5787 " fill="none" id="ToDoList-to-Task" style="stroke:#181818;stroke-width:0.6;"/><polygon fill="#181818" points="410.778,345.936,416.4308,344.2139,413.0454,343.9715,413.2877,340.5861,410.778,345.936" style="stroke:#181818;stroke-width:0.6;"/><text fill="#000000" font-family="sans-serif" font-size="7.8" lengthAdjust="spacing" textLength="4.2" x="466.5888" y="302.82">1</text><text fill="#000000" font-family="sans-serif" font-size="7.8" lengthAdjust="spacing" textLength="3" x="415.4103" y="339.8226">*</text></g><!--link Agenda to Task--><g id="link_Agenda_Task"><path codeLine="161" d="M334.272,278.148 C336.39,295.344 338.8595,315.369 341.5475,337.173 " fill="none" id="Agenda-to-Task" style="stroke:#181818;stroke-width:0.6;"/><polygon fill="#181818" points="341.988,340.746,343.7093,335.0929,341.6209,337.7685,338.9453,335.6802,341.988,340.746" style="stroke:#181818;stroke-width:0.6;"/><text fill="#000000" font-family="sans-serif" font-size="7.8" lengthAdjust="spacing" textLength="4.2" x="330.2269" y="291.4519">1</text><text fill="#000000" font-family="sans-serif" font-size="7.8" lengthAdjust="spacing" textLength="3" x="338.321" y="334.0509">*</text></g><!--link Task to GreenSpace--><g id="link_Task_GreenSpace"><path codeLine="163" d="M362.508,459.114 C366.036,474.666 369.0063,487.7575 372.3903,502.6495 " fill="none" id="Task-to-GreenSpace" style="stroke:#181818;stroke-width:0.6;"/><polygon fill="#181818" points="373.188,506.16,374.3318,500.3624,372.5232,503.2346,369.6511,501.4261,373.188,506.16" style="stroke:#181818;stroke-width:0.6;"/><text fill="#000000" font-family="sans-serif" font-size="7.8" lengthAdjust="spacing" textLength="3" x="360.3751" y="472.2612">*</text><text fill="#000000" font-family="sans-serif" font-size="7.8" lengthAdjust="spacing" textLength="4.2" x="367.838" y="499.6415">1</text></g><!--link TaskDto to GreenSpaceDto--><g id="link_TaskDto_GreenSpaceDto"><path codeLine="164" d="M844.494,448.05 C837.57,468.762 831,488.4 831,488.4 C831,488.4 828.3484,495.8043 823.7644,508.6203 " fill="none" id="TaskDto-to-GreenSpaceDto" style="stroke:#181818;stroke-width:0.6;"/><polygon fill="#181818" points="822.552,512.01,826.6304,507.7337,823.5623,509.1853,822.1108,506.1172,822.552,512.01" style="stroke:#181818;stroke-width:0.6;"/><text fill="#000000" font-family="sans-serif" font-size="7.8" lengthAdjust="spacing" textLength="3" x="840.0526" y="460.8908">*</text><text fill="#000000" font-family="sans-serif" font-size="7.8" lengthAdjust="spacing" textLength="4.2" x="819.6774" y="505.3353">1</text></g><!--link TaskMapper to TaskDto--><g id="link_TaskMapper_TaskDto"><path codeLine="166" d="M761.286,283.83 C778.164,303.492 798.0853,326.6982 817.2373,349.0122 " fill="none" id="TaskMapper-to-TaskDto" style="stroke:#181818;stroke-width:0.6;stroke-dasharray:7.0,7.0;"/><polygon fill="#181818" points="819.582,351.744,817.8862,346.0832,817.6281,349.4675,814.2438,349.2095,819.582,351.744" style="stroke:#181818;stroke-width:0.6;"/></g><!--link TaskMapper to Task--><g id="link_TaskMapper_Task"><path codeLine="167" d="M656.25,283.824 C629.112,294.378 605.4,303.6 605.4,303.6 C605.4,303.6 489.9064,346.7403 414.1024,375.0543 " fill="none" id="TaskMapper-to-Task" style="stroke:#181818;stroke-width:0.6;stroke-dasharray:7.0,7.0;"/><polygon fill="#181818" points="410.73,376.314,416.6284,376.6728,413.5404,375.2643,414.9489,372.1762,410.73,376.314" style="stroke:#181818;stroke-width:0.6;"/></g><!--link TaskMapper to GreenSpaceDto--><g id="link_TaskMapper_GreenSpaceDto"><path codeLine="168" d="M694.938,283.854 C675.294,298.884 655.8,313.8 655.8,313.8 C655.8,313.8 655.8,459 655.8,459 C655.8,459 697.0206,484.7409 737.7426,510.1749 " fill="none" id="TaskMapper-to-GreenSpaceDto" style="stroke:#181818;stroke-width:0.6;stroke-dasharray:7.0,7.0;"/><polygon fill="#181818" points="740.796,512.082,737.4873,507.1858,738.2515,510.4928,734.9446,511.257,740.796,512.082" style="stroke:#181818;stroke-width:0.6;"/></g><!--link ApplicationSession to UserSession--><g id="link_ApplicationSession_UserSession"><path codeLine="170" d="M101.946,425.472 C99.684,455.844 96.1826,502.8939 94.1246,530.6079 " fill="none" id="ApplicationSession-to-UserSession" style="stroke:#181818;stroke-width:0.6;"/><polygon fill="#181818" points="93.858,534.198,96.6513,528.9906,94.0802,531.2062,91.8645,528.6351,93.858,534.198" style="stroke:#181818;stroke-width:0.6;"/><text fill="#000000" font-family="sans-serif" font-size="7.8" lengthAdjust="spacing" textLength="43.2" x="98.4" y="486.017">userSession</text><text fill="#000000" font-family="sans-serif" font-size="7.8" lengthAdjust="spacing" textLength="4.2" x="89.5316" y="527.4732">1</text></g><!--SRC=[hLLBRjim4Dtp54GsaHivQBT5OI2mWjP0WWIrVG16ciXiA58WAQIkqRjtA54IzR5He8qN4UVxvd66SstUk2oPPWKjb5JfGQi2gDKLa5vJilIDvR2rHm5KGsgPp4LeO0uiK-zSvlIL2HDg19TWZoNGKecZEv3h6QNILf70AnNCc3jhDN-fB6nI9RVy5z2FX5mBUBNKAgfvVh0qumuELvAGvmOatM_eYTG1w5sMtKkhZtSvo8pjD-H4o6_yTRPhfU4KdD1O2G5wFa2lnq0K_sxE6aGBRv23tQb4FN1ZdI474wgs810-P3jctYBUAfWF6XdBj4LM4sPXCKIUg89nsMF_3gKot2fzRB5t4ipfyIu7mX38Hc8kcKAqe9-7dfCoGhUcxCXXyrbRgowZEtnnzQqeD0JKweaIdLNAcIC3GzoFJ6U91AH0N62p0zN0x2vjbj-Oci1zBPI4XKU9zj6CSd0VZoe3SUeIbgNWANEDkGLZN7-soJ6dvUcGyxw4TQKrqkITGcBt1lGu5ZeuyRtZeR7rnbyrWDpYs49t3rla3ETJiWA64ZU0NiAbfKm36nfW-HeJ3uMvAUgq7ic1cHw9lvU-9v2pCGxBhHW1oS2acfVrDFTuu6TP4vzKcWMgDHFkJZKDxz23uUOPTIZhc9s3rsXITvU3ssqr1XigY3qPHWAoAcW2ENBzzBhNs6FfqPVveDxh_u-GyQgeFx_XUzLvkJmOt5RjP7h0pRTMAV8DMNCIJChsMnbRglQqTiqZ_251STsHOK-oidHlMN0DZMWwd8bL5qOGjPuKgvBTKtJMi9sOnaoz_5WCtgpTqsdIe2xs_-tHcs7qo8MBwn1nxHctrgCMdK7oLrtQAOQTy4yjxF54DO0uJ1gF4yMJ-FrJrXCHq-aogPl5PQ8to-Maapj5qAmaN0rqkHgi2jmSt3zfPFe0EkiPQU13nkkQtgxERs1oJkEyHh1qkD0cDLnzkcetn9ogssWNCjxErNRPFdpFBngs-R4EsqAvZAGMeZbhYheSlNyKI9V9bRrqvN-uQXvl7t8YRvh47PUUhM3p-1u-etRJHlhi7HWddn6FPQD0S_tcKmP48oTLGFiV]--></g></svg>