<?xml version="1.0" encoding="us-ascii" standalone="no"?><svg xmlns="http://www.w3.org/2000/svg" xmlns:xlink="http://www.w3.org/1999/xlink" contentStyleType="text/css" height="416.5px" preserveAspectRatio="none" style="width:728px;height:416px;background:#FFFFFF;" version="1.1" viewBox="0 0 728 416" width="728px" zoomAndPan="magnify"><defs/><g><!--class AddEntryAgendaUI--><g id="elem_AddEntryAgendaUI"><rect codeLine="11" fill="#F1F1F1" height="24" id="AddEntryAgendaUI" rx="1.25" ry="1.25" style="stroke:#181818;stroke-width:0.25;" width="75.5" x="89" y="22"/><ellipse cx="96.5" cy="30" fill="#ADD1B2" rx="5.5" ry="5.5" style="stroke:#181818;stroke-width:0.5;"/><path d="M97.8828,27.9375 Q97.9609,27.8281 98.0547,27.7734 Q98.1484,27.7188 98.2578,27.7188 Q98.4453,27.7188 98.5625,27.8516 Q98.6797,27.9766 98.6797,28.2813 L98.6797,29.0078 Q98.6797,29.3125 98.5625,29.4453 Q98.4453,29.5781 98.2578,29.5781 Q98.0859,29.5781 97.9844,29.4766 Q97.8828,29.3828 97.8281,29.125 Q97.8047,28.9453 97.7109,28.8516 Q97.5469,28.6641 97.2422,28.5547 Q96.9375,28.4453 96.625,28.4453 Q96.2422,28.4453 95.9219,28.6094 Q95.6094,28.7734 95.3594,29.1484 Q95.1172,29.5234 95.1172,30.0391 L95.1172,30.5859 Q95.1172,31.2031 95.5625,31.6172 Q96.0078,32.0234 96.8047,32.0234 Q97.2734,32.0234 97.6016,31.8984 Q97.7969,31.8203 98.0078,31.6016 Q98.1406,31.4688 98.2109,31.4297 Q98.2891,31.3906 98.3906,31.3906 Q98.5547,31.3906 98.6797,31.5234 Q98.8125,31.6484 98.8125,31.8203 Q98.8125,31.9922 98.6406,32.1953 Q98.3906,32.4844 97.9922,32.6484 Q97.4531,32.875 96.8047,32.875 Q96.0469,32.875 95.4453,32.5625 Q94.9531,32.3125 94.6094,31.7813 Q94.2656,31.2422 94.2656,30.6016 L94.2656,30.0234 Q94.2656,29.3594 94.5703,28.7891 Q94.8828,28.2109 95.4297,27.9063 Q95.9766,27.5938 96.5938,27.5938 Q96.9609,27.5938 97.2813,27.6797 Q97.6094,27.7578 97.8828,27.9375 Z " fill="#000000"/><text fill="#000000" font-family="sans-serif" font-size="7" lengthAdjust="spacing" textLength="59.5" x="103.5" y="32.8984">AddEntryAgendaUI</text><line style="stroke:#181818;stroke-width:0.25;" x1="89.5" x2="164" y1="38" y2="38"/><line style="stroke:#181818;stroke-width:0.25;" x1="89.5" x2="164" y1="42" y2="42"/></g><!--class AddEntryAgendaController--><g id="elem_AddEntryAgendaController"><rect codeLine="16" fill="#F1F1F1" height="61.2422" id="AddEntryAgendaController" rx="1.25" ry="1.25" style="stroke:#181818;stroke-width:0.25;" width="100.5" x="182" y="3.5"/><ellipse cx="189.5" cy="11.5" fill="#ADD1B2" rx="5.5" ry="5.5" style="stroke:#181818;stroke-width:0.5;"/><path d="M190.8828,9.4375 Q190.9609,9.3281 191.0547,9.2734 Q191.1484,9.2188 191.2578,9.2188 Q191.4453,9.2188 191.5625,9.3516 Q191.6797,9.4766 191.6797,9.7813 L191.6797,10.5078 Q191.6797,10.8125 191.5625,10.9453 Q191.4453,11.0781 191.2578,11.0781 Q191.0859,11.0781 190.9844,10.9766 Q190.8828,10.8828 190.8281,10.625 Q190.8047,10.4453 190.7109,10.3516 Q190.5469,10.1641 190.2422,10.0547 Q189.9375,9.9453 189.625,9.9453 Q189.2422,9.9453 188.9219,10.1094 Q188.6094,10.2734 188.3594,10.6484 Q188.1172,11.0234 188.1172,11.5391 L188.1172,12.0859 Q188.1172,12.7031 188.5625,13.1172 Q189.0078,13.5234 189.8047,13.5234 Q190.2734,13.5234 190.6016,13.3984 Q190.7969,13.3203 191.0078,13.1016 Q191.1406,12.9688 191.2109,12.9297 Q191.2891,12.8906 191.3906,12.8906 Q191.5547,12.8906 191.6797,13.0234 Q191.8125,13.1484 191.8125,13.3203 Q191.8125,13.4922 191.6406,13.6953 Q191.3906,13.9844 190.9922,14.1484 Q190.4531,14.375 189.8047,14.375 Q189.0469,14.375 188.4453,14.0625 Q187.9531,13.8125 187.6094,13.2813 Q187.2656,12.7422 187.2656,12.1016 L187.2656,11.5234 Q187.2656,10.8594 187.5703,10.2891 Q187.8828,9.7109 188.4297,9.4063 Q188.9766,9.0938 189.5938,9.0938 Q189.9609,9.0938 190.2813,9.1797 Q190.6094,9.2578 190.8828,9.4375 Z " fill="#000000"/><text fill="#000000" font-family="sans-serif" font-size="7" lengthAdjust="spacing" textLength="84.5" x="196.5" y="14.3984">AddEntryAgendaController</text><line style="stroke:#181818;stroke-width:0.25;" x1="182.5" x2="282" y1="19.5" y2="19.5"/><line style="stroke:#181818;stroke-width:0.25;" x1="182.5" x2="282" y1="23.5" y2="23.5"/><text fill="#000000" font-family="sans-serif" font-size="7" lengthAdjust="spacing" textLength="93.5" x="185" y="33.0537">+AddEntryAgendaController()</text><text fill="#000000" font-family="sans-serif" font-size="7" lengthAdjust="spacing" textLength="69.5" x="185" y="42.3643">+getToDoListEntries()</text><text fill="#000000" font-family="sans-serif" font-size="7" lengthAdjust="spacing" textLength="63.5" x="185" y="51.6748">+getSelectedTask(i)</text><text fill="#000000" font-family="sans-serif" font-size="7" lengthAdjust="spacing" textLength="76" x="185" y="60.9854">+addEntry(startingDate)</text></g><!--class ApplicationSession--><g id="elem_ApplicationSession"><rect codeLine="24" fill="#F1F1F1" height="42.6211" id="ApplicationSession" rx="1.25" ry="1.25" style="stroke:#181818;stroke-width:0.25;" width="75.5" x="35" y="113.25"/><ellipse cx="42.5" cy="121.25" fill="#ADD1B2" rx="5.5" ry="5.5" style="stroke:#181818;stroke-width:0.5;"/><path d="M43.8828,119.1875 Q43.9609,119.0781 44.0547,119.0234 Q44.1484,118.9688 44.2578,118.9688 Q44.4453,118.9688 44.5625,119.1016 Q44.6797,119.2266 44.6797,119.5313 L44.6797,120.2578 Q44.6797,120.5625 44.5625,120.6953 Q44.4453,120.8281 44.2578,120.8281 Q44.0859,120.8281 43.9844,120.7266 Q43.8828,120.6328 43.8281,120.375 Q43.8047,120.1953 43.7109,120.1016 Q43.5469,119.9141 43.2422,119.8047 Q42.9375,119.6953 42.625,119.6953 Q42.2422,119.6953 41.9219,119.8594 Q41.6094,120.0234 41.3594,120.3984 Q41.1172,120.7734 41.1172,121.2891 L41.1172,121.8359 Q41.1172,122.4531 41.5625,122.8672 Q42.0078,123.2734 42.8047,123.2734 Q43.2734,123.2734 43.6016,123.1484 Q43.7969,123.0703 44.0078,122.8516 Q44.1406,122.7188 44.2109,122.6797 Q44.2891,122.6406 44.3906,122.6406 Q44.5547,122.6406 44.6797,122.7734 Q44.8125,122.8984 44.8125,123.0703 Q44.8125,123.2422 44.6406,123.4453 Q44.3906,123.7344 43.9922,123.8984 Q43.4531,124.125 42.8047,124.125 Q42.0469,124.125 41.4453,123.8125 Q40.9531,123.5625 40.6094,123.0313 Q40.2656,122.4922 40.2656,121.8516 L40.2656,121.2734 Q40.2656,120.6094 40.5703,120.0391 Q40.8828,119.4609 41.4297,119.1563 Q41.9766,118.8438 42.5938,118.8438 Q42.9609,118.8438 43.2813,118.9297 Q43.6094,119.0078 43.8828,119.1875 Z " fill="#000000"/><text fill="#000000" font-family="sans-serif" font-size="7" lengthAdjust="spacing" textLength="59.5" x="49.5" y="124.1484">ApplicationSession</text><line style="stroke:#181818;stroke-width:0.25;" x1="35.5" x2="110" y1="129.25" y2="129.25"/><line style="stroke:#181818;stroke-width:0.25;" x1="35.5" x2="110" y1="133.25" y2="133.25"/><text fill="#000000" font-family="sans-serif" font-size="7" lengthAdjust="spacing" textLength="64" x="38" y="142.8037">+static getInstance()</text><text fill="#000000" font-family="sans-serif" font-size="7" lengthAdjust="spacing" textLength="68" x="38" y="152.1143">+getCurrentSession()</text></g><!--class Repositories--><g id="elem_Repositories"><rect codeLine="30" fill="#F1F1F1" height="61.2422" id="Repositories" rx="1.25" ry="1.25" style="stroke:#181818;stroke-width:0.25;" width="97" x="334.25" y="3.5"/><ellipse cx="360.875" cy="11.5" fill="#ADD1B2" rx="5.5" ry="5.5" style="stroke:#181818;stroke-width:0.5;"/><path d="M362.2578,9.4375 Q362.3359,9.3281 362.4297,9.2734 Q362.5234,9.2188 362.6328,9.2188 Q362.8203,9.2188 362.9375,9.3516 Q363.0547,9.4766 363.0547,9.7813 L363.0547,10.5078 Q363.0547,10.8125 362.9375,10.9453 Q362.8203,11.0781 362.6328,11.0781 Q362.4609,11.0781 362.3594,10.9766 Q362.2578,10.8828 362.2031,10.625 Q362.1797,10.4453 362.0859,10.3516 Q361.9219,10.1641 361.6172,10.0547 Q361.3125,9.9453 361,9.9453 Q360.6172,9.9453 360.2969,10.1094 Q359.9844,10.2734 359.7344,10.6484 Q359.4922,11.0234 359.4922,11.5391 L359.4922,12.0859 Q359.4922,12.7031 359.9375,13.1172 Q360.3828,13.5234 361.1797,13.5234 Q361.6484,13.5234 361.9766,13.3984 Q362.1719,13.3203 362.3828,13.1016 Q362.5156,12.9688 362.5859,12.9297 Q362.6641,12.8906 362.7656,12.8906 Q362.9297,12.8906 363.0547,13.0234 Q363.1875,13.1484 363.1875,13.3203 Q363.1875,13.4922 363.0156,13.6953 Q362.7656,13.9844 362.3672,14.1484 Q361.8281,14.375 361.1797,14.375 Q360.4219,14.375 359.8203,14.0625 Q359.3281,13.8125 358.9844,13.2813 Q358.6406,12.7422 358.6406,12.1016 L358.6406,11.5234 Q358.6406,10.8594 358.9453,10.2891 Q359.2578,9.7109 359.8047,9.4063 Q360.3516,9.0938 360.9688,9.0938 Q361.3359,9.0938 361.6563,9.1797 Q361.9844,9.2578 362.2578,9.4375 Z " fill="#000000"/><text fill="#000000" font-family="sans-serif" font-size="7" lengthAdjust="spacing" textLength="39.5" x="371.125" y="14.3984">Repositories</text><line style="stroke:#181818;stroke-width:0.25;" x1="334.75" x2="430.75" y1="19.5" y2="19.5"/><line style="stroke:#181818;stroke-width:0.25;" x1="334.75" x2="430.75" y1="23.5" y2="23.5"/><text fill="#000000" font-family="sans-serif" font-size="7" lengthAdjust="spacing" textLength="47" x="337.25" y="33.0537">-Repositories()</text><text fill="#000000" font-family="sans-serif" font-size="7" lengthAdjust="spacing" textLength="91" x="337.25" y="42.3643">+getInstance() : Repositories</text><text fill="#000000" font-family="sans-serif" font-size="7" lengthAdjust="spacing" textLength="47.5" x="337.25" y="51.6748">+getToDoList()</text><text fill="#000000" font-family="sans-serif" font-size="7" lengthAdjust="spacing" textLength="43.5" x="337.25" y="60.9854">+getAgenda()</text></g><!--class UserSession--><g id="elem_UserSession"><rect codeLine="38" fill="#F1F1F1" height="33.3105" id="UserSession" rx="1.25" ry="1.25" style="stroke:#181818;stroke-width:0.25;" width="56.5" x="3.5" y="237"/><ellipse cx="11.45" cy="245" fill="#ADD1B2" rx="5.5" ry="5.5" style="stroke:#181818;stroke-width:0.5;"/><path d="M12.8328,242.9375 Q12.9109,242.8281 13.0047,242.7734 Q13.0984,242.7188 13.2078,242.7188 Q13.3953,242.7188 13.5125,242.8516 Q13.6297,242.9766 13.6297,243.2813 L13.6297,244.0078 Q13.6297,244.3125 13.5125,244.4453 Q13.3953,244.5781 13.2078,244.5781 Q13.0359,244.5781 12.9344,244.4766 Q12.8328,244.3828 12.7781,244.125 Q12.7547,243.9453 12.6609,243.8516 Q12.4969,243.6641 12.1922,243.5547 Q11.8875,243.4453 11.575,243.4453 Q11.1922,243.4453 10.8719,243.6094 Q10.5594,243.7734 10.3094,244.1484 Q10.0672,244.5234 10.0672,245.0391 L10.0672,245.5859 Q10.0672,246.2031 10.5125,246.6172 Q10.9578,247.0234 11.7547,247.0234 Q12.2234,247.0234 12.5516,246.8984 Q12.7469,246.8203 12.9578,246.6016 Q13.0906,246.4688 13.1609,246.4297 Q13.2391,246.3906 13.3406,246.3906 Q13.5047,246.3906 13.6297,246.5234 Q13.7625,246.6484 13.7625,246.8203 Q13.7625,246.9922 13.5906,247.1953 Q13.3406,247.4844 12.9422,247.6484 Q12.4031,247.875 11.7547,247.875 Q10.9969,247.875 10.3953,247.5625 Q9.9031,247.3125 9.5594,246.7813 Q9.2156,246.2422 9.2156,245.6016 L9.2156,245.0234 Q9.2156,244.3594 9.5203,243.7891 Q9.8328,243.2109 10.3797,242.9063 Q10.9266,242.5938 11.5438,242.5938 Q11.9109,242.5938 12.2313,242.6797 Q12.5594,242.7578 12.8328,242.9375 Z " fill="#000000"/><text fill="#000000" font-family="sans-serif" font-size="7" lengthAdjust="spacing" textLength="39.5" x="18.55" y="247.8984">UserSession</text><line style="stroke:#181818;stroke-width:0.25;" x1="4" x2="59.5" y1="253" y2="253"/><line style="stroke:#181818;stroke-width:0.25;" x1="4" x2="59.5" y1="257" y2="257"/><text fill="#000000" font-family="sans-serif" font-size="7" lengthAdjust="spacing" textLength="50.5" x="6.5" y="266.5537">+getUserEmail()</text></g><!--class ToDoList--><g id="elem_ToDoList"><rect codeLine="43" fill="#F1F1F1" height="61.2422" id="ToDoList" rx="1.25" ry="1.25" style="stroke:#181818;stroke-width:0.25;" width="129.5" x="167.5" y="104"/><ellipse cx="215.875" cy="112" fill="#ADD1B2" rx="5.5" ry="5.5" style="stroke:#181818;stroke-width:0.5;"/><path d="M217.2578,109.9375 Q217.3359,109.8281 217.4297,109.7734 Q217.5234,109.7188 217.6328,109.7188 Q217.8203,109.7188 217.9375,109.8516 Q218.0547,109.9766 218.0547,110.2813 L218.0547,111.0078 Q218.0547,111.3125 217.9375,111.4453 Q217.8203,111.5781 217.6328,111.5781 Q217.4609,111.5781 217.3594,111.4766 Q217.2578,111.3828 217.2031,111.125 Q217.1797,110.9453 217.0859,110.8516 Q216.9219,110.6641 216.6172,110.5547 Q216.3125,110.4453 216,110.4453 Q215.6172,110.4453 215.2969,110.6094 Q214.9844,110.7734 214.7344,111.1484 Q214.4922,111.5234 214.4922,112.0391 L214.4922,112.5859 Q214.4922,113.2031 214.9375,113.6172 Q215.3828,114.0234 216.1797,114.0234 Q216.6484,114.0234 216.9766,113.8984 Q217.1719,113.8203 217.3828,113.6016 Q217.5156,113.4688 217.5859,113.4297 Q217.6641,113.3906 217.7656,113.3906 Q217.9297,113.3906 218.0547,113.5234 Q218.1875,113.6484 218.1875,113.8203 Q218.1875,113.9922 218.0156,114.1953 Q217.7656,114.4844 217.3672,114.6484 Q216.8281,114.875 216.1797,114.875 Q215.4219,114.875 214.8203,114.5625 Q214.3281,114.3125 213.9844,113.7813 Q213.6406,113.2422 213.6406,112.6016 L213.6406,112.0234 Q213.6406,111.3594 213.9453,110.7891 Q214.2578,110.2109 214.8047,109.9063 Q215.3516,109.5938 215.9688,109.5938 Q216.3359,109.5938 216.6563,109.6797 Q216.9844,109.7578 217.2578,109.9375 Z " fill="#000000"/><text fill="#000000" font-family="sans-serif" font-size="7" lengthAdjust="spacing" textLength="28.5" x="226.125" y="114.8984">ToDoList</text><line style="stroke:#181818;stroke-width:0.25;" x1="168" x2="296.5" y1="120" y2="120"/><text fill="#000000" font-family="sans-serif" font-size="7" lengthAdjust="spacing" textLength="71.5" x="170.5" y="129.5537">-List&lt;Task&gt; entriesList</text><text fill="#000000" font-family="sans-serif" font-size="7" lengthAdjust="spacing" textLength="123.5" x="170.5" y="138.8643">-List&lt;Task&gt; associatedToDoEntriesList</text><line style="stroke:#181818;stroke-width:0.25;" x1="168" x2="296.5" y1="142.6211" y2="142.6211"/><text fill="#000000" font-family="sans-serif" font-size="7" lengthAdjust="spacing" textLength="86" x="170.5" y="152.1748">+getToDoListEntries(email)</text><text fill="#000000" font-family="sans-serif" font-size="7" lengthAdjust="spacing" textLength="63.5" x="170.5" y="161.4854">+getSelectedTask(i)</text></g><!--class GreenSpace--><g id="elem_GreenSpace"><rect codeLine="51" fill="#F1F1F1" height="79.8633" id="GreenSpace" rx="1.25" ry="1.25" style="stroke:#181818;stroke-width:0.25;" width="74.5" x="195" y="333.5"/><ellipse cx="210.825" cy="341.5" fill="#ADD1B2" rx="5.5" ry="5.5" style="stroke:#181818;stroke-width:0.5;"/><path d="M212.2078,339.4375 Q212.2859,339.3281 212.3797,339.2734 Q212.4734,339.2188 212.5828,339.2188 Q212.7703,339.2188 212.8875,339.3516 Q213.0047,339.4766 213.0047,339.7813 L213.0047,340.5078 Q213.0047,340.8125 212.8875,340.9453 Q212.7703,341.0781 212.5828,341.0781 Q212.4109,341.0781 212.3094,340.9766 Q212.2078,340.8828 212.1531,340.625 Q212.1297,340.4453 212.0359,340.3516 Q211.8719,340.1641 211.5672,340.0547 Q211.2625,339.9453 210.95,339.9453 Q210.5672,339.9453 210.2469,340.1094 Q209.9344,340.2734 209.6844,340.6484 Q209.4422,341.0234 209.4422,341.5391 L209.4422,342.0859 Q209.4422,342.7031 209.8875,343.1172 Q210.3328,343.5234 211.1297,343.5234 Q211.5984,343.5234 211.9266,343.3984 Q212.1219,343.3203 212.3328,343.1016 Q212.4656,342.9688 212.5359,342.9297 Q212.6141,342.8906 212.7156,342.8906 Q212.8797,342.8906 213.0047,343.0234 Q213.1375,343.1484 213.1375,343.3203 Q213.1375,343.4922 212.9656,343.6953 Q212.7156,343.9844 212.3172,344.1484 Q211.7781,344.375 211.1297,344.375 Q210.3719,344.375 209.7703,344.0625 Q209.2781,343.8125 208.9344,343.2813 Q208.5906,342.7422 208.5906,342.1016 L208.5906,341.5234 Q208.5906,340.8594 208.8953,340.2891 Q209.2078,339.7109 209.7547,339.4063 Q210.3016,339.0938 210.9188,339.0938 Q211.2859,339.0938 211.6063,339.1797 Q211.9344,339.2578 212.2078,339.4375 Z " fill="#000000"/><text fill="#000000" font-family="sans-serif" font-size="7" lengthAdjust="spacing" textLength="40" x="219.675" y="344.3984">GreenSpace</text><line style="stroke:#181818;stroke-width:0.25;" x1="195.5" x2="269" y1="349.5" y2="349.5"/><text fill="#000000" font-family="sans-serif" font-size="7" lengthAdjust="spacing" textLength="40.5" x="198" y="359.0537">-String name</text><text fill="#000000" font-family="sans-serif" font-size="7" lengthAdjust="spacing" textLength="36.5" x="198" y="368.3643">-String type</text><text fill="#000000" font-family="sans-serif" font-size="7" lengthAdjust="spacing" textLength="26.5" x="198" y="377.6748">-int area</text><text fill="#000000" font-family="sans-serif" font-size="7" lengthAdjust="spacing" textLength="48.5" x="198" y="386.9854">-String address</text><text fill="#000000" font-family="sans-serif" font-size="7" lengthAdjust="spacing" textLength="53" x="198" y="396.2959">-String gsmEmail</text><line style="stroke:#181818;stroke-width:0.25;" x1="195.5" x2="269" y1="400.0527" y2="400.0527"/><text fill="#000000" font-family="sans-serif" font-size="7" lengthAdjust="spacing" textLength="68.5" x="198" y="409.6064">+hasUserEmail(email)</text></g><!--class GreenSpaceDto--><g id="elem_GreenSpaceDto"><rect codeLine="61" fill="#F1F1F1" height="70.5527" id="GreenSpaceDto" rx="1.25" ry="1.25" style="stroke:#181818;stroke-width:0.25;" width="149" x="574.25" y="338.25"/><ellipse cx="621.125" cy="346.25" fill="#ADD1B2" rx="5.5" ry="5.5" style="stroke:#181818;stroke-width:0.5;"/><path d="M622.5078,344.1875 Q622.5859,344.0781 622.6797,344.0234 Q622.7734,343.9688 622.8828,343.9688 Q623.0703,343.9688 623.1875,344.1016 Q623.3047,344.2266 623.3047,344.5313 L623.3047,345.2578 Q623.3047,345.5625 623.1875,345.6953 Q623.0703,345.8281 622.8828,345.8281 Q622.7109,345.8281 622.6094,345.7266 Q622.5078,345.6328 622.4531,345.375 Q622.4297,345.1953 622.3359,345.1016 Q622.1719,344.9141 621.8672,344.8047 Q621.5625,344.6953 621.25,344.6953 Q620.8672,344.6953 620.5469,344.8594 Q620.2344,345.0234 619.9844,345.3984 Q619.7422,345.7734 619.7422,346.2891 L619.7422,346.8359 Q619.7422,347.4531 620.1875,347.8672 Q620.6328,348.2734 621.4297,348.2734 Q621.8984,348.2734 622.2266,348.1484 Q622.4219,348.0703 622.6328,347.8516 Q622.7656,347.7188 622.8359,347.6797 Q622.9141,347.6406 623.0156,347.6406 Q623.1797,347.6406 623.3047,347.7734 Q623.4375,347.8984 623.4375,348.0703 Q623.4375,348.2422 623.2656,348.4453 Q623.0156,348.7344 622.6172,348.8984 Q622.0781,349.125 621.4297,349.125 Q620.6719,349.125 620.0703,348.8125 Q619.5781,348.5625 619.2344,348.0313 Q618.8906,347.4922 618.8906,346.8516 L618.8906,346.2734 Q618.8906,345.6094 619.1953,345.0391 Q619.5078,344.4609 620.0547,344.1563 Q620.6016,343.8438 621.2188,343.8438 Q621.5859,343.8438 621.9063,343.9297 Q622.2344,344.0078 622.5078,344.1875 Z " fill="#000000"/><text fill="#000000" font-family="sans-serif" font-size="7" lengthAdjust="spacing" textLength="51" x="631.375" y="349.1484">GreenSpaceDto</text><line style="stroke:#181818;stroke-width:0.25;" x1="574.75" x2="722.75" y1="354.25" y2="354.25"/><text fill="#000000" font-family="sans-serif" font-size="7" lengthAdjust="spacing" textLength="40.5" x="577.25" y="363.8037">-String name</text><text fill="#000000" font-family="sans-serif" font-size="7" lengthAdjust="spacing" textLength="36.5" x="577.25" y="373.1143">-String type</text><text fill="#000000" font-family="sans-serif" font-size="7" lengthAdjust="spacing" textLength="26.5" x="577.25" y="382.4248">-int area</text><text fill="#000000" font-family="sans-serif" font-size="7" lengthAdjust="spacing" textLength="48.5" x="577.25" y="391.7354">-String address</text><line style="stroke:#181818;stroke-width:0.25;" x1="574.75" x2="722.75" y1="395.4922" y2="395.4922"/><text fill="#000000" font-family="sans-serif" font-size="7" lengthAdjust="spacing" textLength="143" x="577.25" y="405.0459">+GreenSpaceDto(name, type, area, address)</text></g><!--class TaskMapper--><g id="elem_TaskMapper"><rect codeLine="70" fill="#F1F1F1" height="51.9316" id="TaskMapper" rx="1.25" ry="1.25" style="stroke:#181818;stroke-width:0.25;" width="151.5" x="478.5" y="108.5"/><ellipse cx="532.375" cy="116.5" fill="#ADD1B2" rx="5.5" ry="5.5" style="stroke:#181818;stroke-width:0.5;"/><path d="M533.7578,114.4375 Q533.8359,114.3281 533.9297,114.2734 Q534.0234,114.2188 534.1328,114.2188 Q534.3203,114.2188 534.4375,114.3516 Q534.5547,114.4766 534.5547,114.7813 L534.5547,115.5078 Q534.5547,115.8125 534.4375,115.9453 Q534.3203,116.0781 534.1328,116.0781 Q533.9609,116.0781 533.8594,115.9766 Q533.7578,115.8828 533.7031,115.625 Q533.6797,115.4453 533.5859,115.3516 Q533.4219,115.1641 533.1172,115.0547 Q532.8125,114.9453 532.5,114.9453 Q532.1172,114.9453 531.7969,115.1094 Q531.4844,115.2734 531.2344,115.6484 Q530.9922,116.0234 530.9922,116.5391 L530.9922,117.0859 Q530.9922,117.7031 531.4375,118.1172 Q531.8828,118.5234 532.6797,118.5234 Q533.1484,118.5234 533.4766,118.3984 Q533.6719,118.3203 533.8828,118.1016 Q534.0156,117.9688 534.0859,117.9297 Q534.1641,117.8906 534.2656,117.8906 Q534.4297,117.8906 534.5547,118.0234 Q534.6875,118.1484 534.6875,118.3203 Q534.6875,118.4922 534.5156,118.6953 Q534.2656,118.9844 533.8672,119.1484 Q533.3281,119.375 532.6797,119.375 Q531.9219,119.375 531.3203,119.0625 Q530.8281,118.8125 530.4844,118.2813 Q530.1406,117.7422 530.1406,117.1016 L530.1406,116.5234 Q530.1406,115.8594 530.4453,115.2891 Q530.7578,114.7109 531.3047,114.4063 Q531.8516,114.0938 532.4688,114.0938 Q532.8359,114.0938 533.1563,114.1797 Q533.4844,114.2578 533.7578,114.4375 Z " fill="#000000"/><text fill="#000000" font-family="sans-serif" font-size="7" lengthAdjust="spacing" textLength="39.5" x="542.625" y="119.3984">TaskMapper</text><line style="stroke:#181818;stroke-width:0.25;" x1="479" x2="629.5" y1="124.5" y2="124.5"/><text fill="#000000" font-family="sans-serif" font-size="7" lengthAdjust="spacing" textLength="145.5" x="481.5" y="134.0537">-List&lt;TaskDto&gt; associatedToDoEntriesListDto</text><line style="stroke:#181818;stroke-width:0.25;" x1="479" x2="629.5" y1="137.8105" y2="137.8105"/><text fill="#000000" font-family="sans-serif" font-size="7" lengthAdjust="spacing" textLength="114.5" x="481.5" y="147.3643">+toDTO(associatedToDoEntriesList)</text><text fill="#000000" font-family="sans-serif" font-size="7" lengthAdjust="spacing" textLength="38" x="481.5" y="156.6748">-toDTO(obj)</text></g><!--class TaskDto--><g id="elem_TaskDto"><rect codeLine="77" fill="#F1F1F1" height="79.8633" id="TaskDto" rx="1.25" ry="1.25" style="stroke:#181818;stroke-width:0.25;" width="323.5" x="392.5" y="213.75"/><ellipse cx="538.875" cy="221.75" fill="#ADD1B2" rx="5.5" ry="5.5" style="stroke:#181818;stroke-width:0.5;"/><path d="M540.2578,219.6875 Q540.3359,219.5781 540.4297,219.5234 Q540.5234,219.4688 540.6328,219.4688 Q540.8203,219.4688 540.9375,219.6016 Q541.0547,219.7266 541.0547,220.0313 L541.0547,220.7578 Q541.0547,221.0625 540.9375,221.1953 Q540.8203,221.3281 540.6328,221.3281 Q540.4609,221.3281 540.3594,221.2266 Q540.2578,221.1328 540.2031,220.875 Q540.1797,220.6953 540.0859,220.6016 Q539.9219,220.4141 539.6172,220.3047 Q539.3125,220.1953 539,220.1953 Q538.6172,220.1953 538.2969,220.3594 Q537.9844,220.5234 537.7344,220.8984 Q537.4922,221.2734 537.4922,221.7891 L537.4922,222.3359 Q537.4922,222.9531 537.9375,223.3672 Q538.3828,223.7734 539.1797,223.7734 Q539.6484,223.7734 539.9766,223.6484 Q540.1719,223.5703 540.3828,223.3516 Q540.5156,223.2188 540.5859,223.1797 Q540.6641,223.1406 540.7656,223.1406 Q540.9297,223.1406 541.0547,223.2734 Q541.1875,223.3984 541.1875,223.5703 Q541.1875,223.7422 541.0156,223.9453 Q540.7656,224.2344 540.3672,224.3984 Q539.8281,224.625 539.1797,224.625 Q538.4219,224.625 537.8203,224.3125 Q537.3281,224.0625 536.9844,223.5313 Q536.6406,222.9922 536.6406,222.3516 L536.6406,221.7734 Q536.6406,221.1094 536.9453,220.5391 Q537.2578,219.9609 537.8047,219.6563 Q538.3516,219.3438 538.9688,219.3438 Q539.3359,219.3438 539.6563,219.4297 Q539.9844,219.5078 540.2578,219.6875 Z " fill="#000000"/><text fill="#000000" font-family="sans-serif" font-size="7" lengthAdjust="spacing" textLength="26.5" x="549.125" y="224.6484">TaskDto</text><line style="stroke:#181818;stroke-width:0.25;" x1="393" x2="715.5" y1="229.75" y2="229.75"/><text fill="#000000" font-family="sans-serif" font-size="7" lengthAdjust="spacing" textLength="34" x="395.5" y="239.3037">-String title</text><text fill="#000000" font-family="sans-serif" font-size="7" lengthAdjust="spacing" textLength="57.5" x="395.5" y="248.6143">-String description</text><text fill="#000000" font-family="sans-serif" font-size="7" lengthAdjust="spacing" textLength="79" x="395.5" y="257.9248">-String degreeOfUrgency</text><text fill="#000000" font-family="sans-serif" font-size="7" lengthAdjust="spacing" textLength="67.5" x="395.5" y="267.2354">-int expectedDuration</text><text fill="#000000" font-family="sans-serif" font-size="7" lengthAdjust="spacing" textLength="72" x="395.5" y="276.5459">-Calendar startingDate</text><line style="stroke:#181818;stroke-width:0.25;" x1="393" x2="715.5" y1="280.3027" y2="280.3027"/><text fill="#000000" font-family="sans-serif" font-size="7" lengthAdjust="spacing" textLength="317.5" x="395.5" y="289.8564">+TaskDto(title, description, degreeOfUrgency, expectedDuration, selectedGreenSpace, startingDate)</text></g><!--class Task--><g id="elem_Task"><rect codeLine="87" fill="#F1F1F1" height="98.4844" id="Task" rx="1.25" ry="1.25" style="stroke:#181818;stroke-width:0.25;" width="102.5" x="272.5" y="204.5"/><ellipse cx="313.875" cy="212.5" fill="#ADD1B2" rx="5.5" ry="5.5" style="stroke:#181818;stroke-width:0.5;"/><path d="M315.2578,210.4375 Q315.3359,210.3281 315.4297,210.2734 Q315.5234,210.2188 315.6328,210.2188 Q315.8203,210.2188 315.9375,210.3516 Q316.0547,210.4766 316.0547,210.7813 L316.0547,211.5078 Q316.0547,211.8125 315.9375,211.9453 Q315.8203,212.0781 315.6328,212.0781 Q315.4609,212.0781 315.3594,211.9766 Q315.2578,211.8828 315.2031,211.625 Q315.1797,211.4453 315.0859,211.3516 Q314.9219,211.1641 314.6172,211.0547 Q314.3125,210.9453 314,210.9453 Q313.6172,210.9453 313.2969,211.1094 Q312.9844,211.2734 312.7344,211.6484 Q312.4922,212.0234 312.4922,212.5391 L312.4922,213.0859 Q312.4922,213.7031 312.9375,214.1172 Q313.3828,214.5234 314.1797,214.5234 Q314.6484,214.5234 314.9766,214.3984 Q315.1719,214.3203 315.3828,214.1016 Q315.5156,213.9688 315.5859,213.9297 Q315.6641,213.8906 315.7656,213.8906 Q315.9297,213.8906 316.0547,214.0234 Q316.1875,214.1484 316.1875,214.3203 Q316.1875,214.4922 316.0156,214.6953 Q315.7656,214.9844 315.3672,215.1484 Q314.8281,215.375 314.1797,215.375 Q313.4219,215.375 312.8203,215.0625 Q312.3281,214.8125 311.9844,214.2813 Q311.6406,213.7422 311.6406,213.1016 L311.6406,212.5234 Q311.6406,211.8594 311.9453,211.2891 Q312.2578,210.7109 312.8047,210.4063 Q313.3516,210.0938 313.9688,210.0938 Q314.3359,210.0938 314.6563,210.1797 Q314.9844,210.2578 315.2578,210.4375 Z " fill="#000000"/><text fill="#000000" font-family="sans-serif" font-size="7" lengthAdjust="spacing" textLength="15.5" x="324.125" y="215.3984">Task</text><line style="stroke:#181818;stroke-width:0.25;" x1="273" x2="374.5" y1="220.5" y2="220.5"/><text fill="#000000" font-family="sans-serif" font-size="7" lengthAdjust="spacing" textLength="34" x="275.5" y="230.0537">-String title</text><text fill="#000000" font-family="sans-serif" font-size="7" lengthAdjust="spacing" textLength="57.5" x="275.5" y="239.3643">-String description</text><text fill="#000000" font-family="sans-serif" font-size="7" lengthAdjust="spacing" textLength="67.5" x="275.5" y="248.6748">-int expectedDuration</text><text fill="#000000" font-family="sans-serif" font-size="7" lengthAdjust="spacing" textLength="72" x="275.5" y="257.9854">-Calendar startingDate</text><line style="stroke:#181818;stroke-width:0.25;" x1="273" x2="374.5" y1="261.7422" y2="261.7422"/><text fill="#000000" font-family="sans-serif" font-size="7" lengthAdjust="spacing" textLength="40" x="275.5" y="271.2959">+isPending()</text><text fill="#000000" font-family="sans-serif" font-size="7" lengthAdjust="spacing" textLength="68.5" x="275.5" y="280.6064">+hasUserEmail(email)</text><text fill="#000000" font-family="sans-serif" font-size="7" lengthAdjust="spacing" textLength="68" x="275.5" y="289.917">+clone(selectedTask)</text><text fill="#000000" font-family="sans-serif" font-size="7" lengthAdjust="spacing" textLength="96.5" x="275.5" y="299.2275">+setStartingDate(startingDate)</text></g><!--class DegreeOfUrgency--><g id="elem_DegreeOfUrgency"><rect codeLine="99" fill="#F1F1F1" height="51.9316" id="DegreeOfUrgency" rx="1.25" ry="1.25" style="stroke:#181818;stroke-width:0.25;" width="73" x="287.25" y="347.5"/><ellipse cx="294.75" cy="355.5" fill="#EB937F" rx="5.5" ry="5.5" style="stroke:#181818;stroke-width:0.5;"/><path d="M294.1797,355.8984 L294.1797,357.1484 L296.3438,357.1484 L296.3438,356.6875 Q296.3438,356.3828 296.4609,356.25 Q296.5859,356.1172 296.7734,356.1172 Q296.9609,356.1172 297.0781,356.25 Q297.1953,356.3828 297.1953,356.6875 L297.1953,358 L293.1953,358 Q292.8828,358 292.75,357.8828 Q292.625,357.7656 292.625,357.5703 Q292.625,357.3828 292.7578,357.2656 Q292.8906,357.1484 293.1953,357.1484 L293.3281,357.1484 L293.3281,353.8203 L293.1953,353.8203 Q292.8828,353.8203 292.75,353.7031 Q292.625,353.5859 292.625,353.3906 Q292.625,353.2031 292.75,353.0859 Q292.8828,352.9688 293.1953,352.9688 L297.0078,352.9688 L297.0078,354.2656 Q297.0078,354.5703 296.8906,354.7031 Q296.7813,354.8281 296.5859,354.8281 Q296.3984,354.8281 296.2813,354.7031 Q296.1641,354.5703 296.1641,354.2656 L296.1641,353.8203 L294.1797,353.8203 L294.1797,355.0469 L294.9219,355.0469 Q294.9219,354.7188 294.9844,354.625 Q295.1172,354.4219 295.3516,354.4219 Q295.5391,354.4219 295.6563,354.5547 Q295.7734,354.6797 295.7734,354.9844 L295.7734,355.9688 Q295.7734,356.2422 295.7109,356.3359 Q295.5781,356.5313 295.3516,356.5313 Q295.1172,356.5313 294.9844,356.3281 Q294.9219,356.2344 294.9219,355.8984 L294.1797,355.8984 Z " fill="#000000"/><text fill="#000000" font-family="sans-serif" font-size="7" lengthAdjust="spacing" textLength="57" x="301.75" y="358.3984">DegreeOfUrgency</text><line style="stroke:#181818;stroke-width:0.25;" x1="287.75" x2="359.75" y1="363.5" y2="363.5"/><text fill="#000000" font-family="sans-serif" font-size="7" lengthAdjust="spacing" textLength="12.5" x="290.25" y="373.0537">Low</text><text fill="#000000" font-family="sans-serif" font-size="7" lengthAdjust="spacing" textLength="24.5" x="290.25" y="382.3643">Medium</text><text fill="#000000" font-family="sans-serif" font-size="7" lengthAdjust="spacing" textLength="14" x="290.25" y="391.6748">High</text><line style="stroke:#181818;stroke-width:0.25;" x1="287.75" x2="359.75" y1="395.4316" y2="395.4316"/></g><!--class GSTaskStatus--><g id="elem_GSTaskStatus"><rect codeLine="106" fill="#F1F1F1" height="79.8633" id="GSTaskStatus" rx="1.25" ry="1.25" style="stroke:#181818;stroke-width:0.25;" width="61.5" x="378" y="333.5"/><ellipse cx="385.5" cy="341.5" fill="#EB937F" rx="5.5" ry="5.5" style="stroke:#181818;stroke-width:0.5;"/><path d="M384.9297,341.8984 L384.9297,343.1484 L387.0938,343.1484 L387.0938,342.6875 Q387.0938,342.3828 387.2109,342.25 Q387.3359,342.1172 387.5234,342.1172 Q387.7109,342.1172 387.8281,342.25 Q387.9453,342.3828 387.9453,342.6875 L387.9453,344 L383.9453,344 Q383.6328,344 383.5,343.8828 Q383.375,343.7656 383.375,343.5703 Q383.375,343.3828 383.5078,343.2656 Q383.6406,343.1484 383.9453,343.1484 L384.0781,343.1484 L384.0781,339.8203 L383.9453,339.8203 Q383.6328,339.8203 383.5,339.7031 Q383.375,339.5859 383.375,339.3906 Q383.375,339.2031 383.5,339.0859 Q383.6328,338.9688 383.9453,338.9688 L387.7578,338.9688 L387.7578,340.2656 Q387.7578,340.5703 387.6406,340.7031 Q387.5313,340.8281 387.3359,340.8281 Q387.1484,340.8281 387.0313,340.7031 Q386.9141,340.5703 386.9141,340.2656 L386.9141,339.8203 L384.9297,339.8203 L384.9297,341.0469 L385.6719,341.0469 Q385.6719,340.7188 385.7344,340.625 Q385.8672,340.4219 386.1016,340.4219 Q386.2891,340.4219 386.4063,340.5547 Q386.5234,340.6797 386.5234,340.9844 L386.5234,341.9688 Q386.5234,342.2422 386.4609,342.3359 Q386.3281,342.5313 386.1016,342.5313 Q385.8672,342.5313 385.7344,342.3281 Q385.6719,342.2344 385.6719,341.8984 L384.9297,341.8984 Z " fill="#000000"/><text fill="#000000" font-family="sans-serif" font-size="7" lengthAdjust="spacing" textLength="45.5" x="392.5" y="344.3984">GSTaskStatus</text><line style="stroke:#181818;stroke-width:0.25;" x1="378.5" x2="439" y1="349.5" y2="349.5"/><text fill="#000000" font-family="sans-serif" font-size="7" lengthAdjust="spacing" textLength="26" x="381" y="359.0537">Pending</text><text fill="#000000" font-family="sans-serif" font-size="7" lengthAdjust="spacing" textLength="33.5" x="381" y="368.3643">Processed</text><text fill="#000000" font-family="sans-serif" font-size="7" lengthAdjust="spacing" textLength="26" x="381" y="377.6748">Planned</text><text fill="#000000" font-family="sans-serif" font-size="7" lengthAdjust="spacing" textLength="34" x="381" y="386.9854">Postponed</text><text fill="#000000" font-family="sans-serif" font-size="7" lengthAdjust="spacing" textLength="30" x="381" y="396.2959">Canceled</text><text fill="#000000" font-family="sans-serif" font-size="7" lengthAdjust="spacing" textLength="17" x="381" y="405.6064">Done</text><line style="stroke:#181818;stroke-width:0.25;" x1="378.5" x2="439" y1="409.3633" y2="409.3633"/></g><!--class Agenda--><g id="elem_Agenda"><rect codeLine="116" fill="#F1F1F1" height="42.6211" id="Agenda" rx="1.25" ry="1.25" style="stroke:#181818;stroke-width:0.25;" width="146.5" x="314.5" y="113.25"/><ellipse cx="373.375" cy="121.25" fill="#ADD1B2" rx="5.5" ry="5.5" style="stroke:#181818;stroke-width:0.5;"/><path d="M374.7578,119.1875 Q374.8359,119.0781 374.9297,119.0234 Q375.0234,118.9688 375.1328,118.9688 Q375.3203,118.9688 375.4375,119.1016 Q375.5547,119.2266 375.5547,119.5313 L375.5547,120.2578 Q375.5547,120.5625 375.4375,120.6953 Q375.3203,120.8281 375.1328,120.8281 Q374.9609,120.8281 374.8594,120.7266 Q374.7578,120.6328 374.7031,120.375 Q374.6797,120.1953 374.5859,120.1016 Q374.4219,119.9141 374.1172,119.8047 Q373.8125,119.6953 373.5,119.6953 Q373.1172,119.6953 372.7969,119.8594 Q372.4844,120.0234 372.2344,120.3984 Q371.9922,120.7734 371.9922,121.2891 L371.9922,121.8359 Q371.9922,122.4531 372.4375,122.8672 Q372.8828,123.2734 373.6797,123.2734 Q374.1484,123.2734 374.4766,123.1484 Q374.6719,123.0703 374.8828,122.8516 Q375.0156,122.7188 375.0859,122.6797 Q375.1641,122.6406 375.2656,122.6406 Q375.4297,122.6406 375.5547,122.7734 Q375.6875,122.8984 375.6875,123.0703 Q375.6875,123.2422 375.5156,123.4453 Q375.2656,123.7344 374.8672,123.8984 Q374.3281,124.125 373.6797,124.125 Q372.9219,124.125 372.3203,123.8125 Q371.8281,123.5625 371.4844,123.0313 Q371.1406,122.4922 371.1406,121.8516 L371.1406,121.2734 Q371.1406,120.6094 371.4453,120.0391 Q371.7578,119.4609 372.3047,119.1563 Q372.8516,118.8438 373.4688,118.8438 Q373.8359,118.8438 374.1563,118.9297 Q374.4844,119.0078 374.7578,119.1875 Z " fill="#000000"/><text fill="#000000" font-family="sans-serif" font-size="7" lengthAdjust="spacing" textLength="24.5" x="383.625" y="124.1484">Agenda</text><line style="stroke:#181818;stroke-width:0.25;" x1="315" x2="460.5" y1="129.25" y2="129.25"/><line style="stroke:#181818;stroke-width:0.25;" x1="315" x2="460.5" y1="133.25" y2="133.25"/><text fill="#000000" font-family="sans-serif" font-size="7" lengthAdjust="spacing" textLength="140.5" x="317.5" y="142.8037">+addEntry(startingDate, selectedTaskClone)</text><text fill="#000000" font-family="sans-serif" font-size="7" lengthAdjust="spacing" textLength="80" x="317.5" y="152.1143">-add(selectedTaskClone)</text></g><!--reverse link Task to DegreeOfUrgency--><g id="link_Task_DegreeOfUrgency"><path codeLine="122" d="M323.75,311.065 C323.75,326.29 323.75,334.47 323.75,347.43 " fill="none" id="Task-backto-DegreeOfUrgency" style="stroke:#181818;stroke-width:0.5;"/><ellipse cx="323.75" cy="307.065" fill="#FFFFFF" rx="4" ry="4" style="stroke:#181818;stroke-width:0.5;"/><line style="stroke:#181818;stroke-width:0.5;" x1="323.75" x2="323.75" y1="311.065" y2="303.065"/><line style="stroke:#181818;stroke-width:0.5;" x1="319.75" x2="327.75" y1="307.065" y2="307.065"/></g><!--reverse link Task to GSTaskStatus--><g id="link_Task_GSTaskStatus"><path codeLine="123" d="M363.3472,309.5696 C370.5822,319.6746 373.46,323.7 380.425,333.43 " fill="none" id="Task-backto-GSTaskStatus" style="stroke:#181818;stroke-width:0.5;"/><ellipse cx="361.0186" cy="306.3173" fill="#FFFFFF" rx="4" ry="4" style="stroke:#181818;stroke-width:0.5;"/><line style="stroke:#181818;stroke-width:0.5;" x1="363.3472" x2="358.69" y1="309.5696" y2="303.065"/><line style="stroke:#181818;stroke-width:0.5;" x1="357.7663" x2="364.2709" y1="308.6459" y2="303.9887"/></g><!--link Repositories to Repositories--><g id="link_Repositories_Repositories"><path codeLine="125" d="M431.39,24.955 C441.49,25.905 448.75,28.92 448.75,34 C448.75,39.08 444.4768,41.8141 434.3768,42.7641 " fill="none" id="Repositories-to-Repositories" style="stroke:#181818;stroke-width:0.5;"/><polygon fill="#181818" points="431.39,43.045,436.0575,44.6148,433.879,42.8109,435.6829,40.6324,431.39,43.045" style="stroke:#181818;stroke-width:0.5;"/><text fill="#000000" font-family="sans-serif" font-size="6.5" lengthAdjust="spacing" textLength="24.5" x="451.75" y="36.7642">instance</text></g><!--link ApplicationSession to ApplicationSession--><g id="link_ApplicationSession_ApplicationSession"><path codeLine="126" d="M110.58,125.215 C120.5,125.765 128,128.86 128,134.5 C128,140.14 123.4954,143.0689 113.5754,143.6189 " fill="none" id="ApplicationSession-to-ApplicationSession" style="stroke:#181818;stroke-width:0.5;"/><polygon fill="#181818" points="110.58,143.785,115.1838,145.5328,113.0762,143.6466,114.9624,141.539,110.58,143.785" style="stroke:#181818;stroke-width:0.5;"/><text fill="#000000" font-family="sans-serif" font-size="6.5" lengthAdjust="spacing" textLength="24.5" x="131" y="137.2642">instance</text></g><!--link AddEntryAgendaUI to AddEntryAgendaController--><g id="link_AddEntryAgendaUI_AddEntryAgendaController"><path codeLine="128" d="M164.675,34 C168.435,34 172.44,34 178.98,34 " fill="none" id="AddEntryAgendaUI-to-AddEntryAgendaController" style="stroke:#181818;stroke-width:0.5;stroke-dasharray:7.0,7.0;"/><polygon fill="#181818" points="181.98,34,177.48,32,179.48,34,177.48,36,181.98,34" style="stroke:#181818;stroke-width:0.5;"/></g><!--link AddEntryAgendaController to Repositories--><g id="link_AddEntryAgendaController_Repositories"><path codeLine="130" d="M282.575,34 C299.195,34 314.645,34 331.135,34 " fill="none" id="AddEntryAgendaController-to-Repositories" style="stroke:#181818;stroke-width:0.5;stroke-dasharray:7.0,7.0;"/><polygon fill="#181818" points="334.135,34,329.635,32,331.635,34,329.635,36,334.135,34" style="stroke:#181818;stroke-width:0.5;"/><text fill="#000000" font-family="sans-serif" font-size="6.5" lengthAdjust="spacing" textLength="33.5" x="291.625" y="30.5142">repositories</text></g><!--link Repositories to Agenda--><g id="link_Repositories_Agenda"><path codeLine="132" d="M384.265,64.625 C385.05,80.295 385.8448,96.0688 386.5498,110.1288 " fill="none" id="Repositories-to-Agenda" style="stroke:#181818;stroke-width:0.5;"/><polygon fill="#181818" points="386.7,113.125,388.4721,108.5305,386.5748,110.6281,384.4772,108.7308,386.7,113.125" style="stroke:#181818;stroke-width:0.5;"/><text fill="#000000" font-family="sans-serif" font-size="6.5" lengthAdjust="spacing" textLength="3.5" x="382.7537" y="107.5571">1</text></g><!--link Repositories to ToDoList--><g id="link_Repositories_ToDoList"><path codeLine="133" d="M337.185,64.625 C318.325,77.09 299.0075,89.8654 280.1625,102.3254 " fill="none" id="Repositories-to-ToDoList" style="stroke:#181818;stroke-width:0.5;"/><polygon fill="#181818" points="277.66,103.98,282.5168,103.1664,279.7454,102.6012,280.3106,99.8298,277.66,103.98" style="stroke:#181818;stroke-width:0.5;"/><text fill="#000000" font-family="sans-serif" font-size="6.5" lengthAdjust="spacing" textLength="3.5" x="279.2082" y="98.4683">1</text></g><!--link AddEntryAgendaController to ApplicationSession--><g id="link_AddEntryAgendaController_ApplicationSession"><path codeLine="135" d="M183.96,64.625 C158.84,80.295 131.3004,97.4772 108.7604,111.5372 " fill="none" id="AddEntryAgendaController-to-ApplicationSession" style="stroke:#181818;stroke-width:0.5;stroke-dasharray:7.0,7.0;"/><polygon fill="#181818" points="106.215,113.125,111.0916,112.4403,108.3362,111.8019,108.9746,109.0464,106.215,113.125" style="stroke:#181818;stroke-width:0.5;"/></g><!--link AddEntryAgendaController to UserSession--><g id="link_AddEntryAgendaController_UserSession"><path codeLine="136" d="M181.955,60.075 C176.71,62.74 173.25,64.5 173.25,64.5 C173.25,64.5 26.25,104 26.25,104 C26.25,104 26.25,165 26.25,165 C26.25,165 28.9535,208.3408 30.5435,233.8658 " fill="none" id="AddEntryAgendaController-to-UserSession" style="stroke:#181818;stroke-width:0.5;stroke-dasharray:7.0,7.0;"/><polygon fill="#181818" points="30.73,236.86,32.4464,232.2444,30.5746,234.3648,28.4541,232.493,30.73,236.86" style="stroke:#181818;stroke-width:0.5;"/></g><!--link AddEntryAgendaController to ToDoList--><g id="link_AddEntryAgendaController_ToDoList"><path codeLine="137" d="M232.25,64.625 C232.25,77.09 232.25,88.52 232.25,100.98 " fill="none" id="AddEntryAgendaController-to-ToDoList" style="stroke:#181818;stroke-width:0.5;stroke-dasharray:7.0,7.0;"/><polygon fill="#181818" points="232.25,103.98,234.25,99.48,232.25,101.48,230.25,99.48,232.25,103.98" style="stroke:#181818;stroke-width:0.5;"/><text fill="#000000" font-family="sans-serif" font-size="6.5" lengthAdjust="spacing" textLength="24" x="232.75" y="87.0142">toDoList</text></g><!--link AddEntryAgendaController to Agenda--><g id="link_AddEntryAgendaController_Agenda"><path codeLine="138" d="M279.325,64.625 C303.82,80.295 330.623,97.4482 352.598,111.5082 " fill="none" id="AddEntryAgendaController-to-Agenda" style="stroke:#181818;stroke-width:0.5;stroke-dasharray:7.0,7.0;"/><polygon fill="#181818" points="355.125,113.125,352.4124,109.0151,353.0191,111.7776,350.2566,112.3844,355.125,113.125" style="stroke:#181818;stroke-width:0.5;"/><text fill="#000000" font-family="sans-serif" font-size="6.5" lengthAdjust="spacing" textLength="21" x="315.25" y="87.0142">agenda</text></g><!--link AddEntryAgendaController to TaskMapper--><g id="link_AddEntryAgendaController_TaskMapper"><path codeLine="139" d="M282.56,50.73 C304.475,57.8 325.25,64.5 325.25,64.5 C325.25,64.5 469.75,104 469.75,104 C469.75,104 471.9575,104.7875 479.5725,107.4875 " fill="none" id="AddEntryAgendaController-to-TaskMapper" style="stroke:#181818;stroke-width:0.5;stroke-dasharray:7.0,7.0;"/><polygon fill="#181818" points="482.4,108.49,478.8271,105.1012,480.0437,107.6546,477.4903,108.8712,482.4,108.49" style="stroke:#181818;stroke-width:0.5;"/></g><!--link ToDoList to Task--><g id="link_ToDoList_Task"><path codeLine="141" d="M255.575,165.145 C264.79,177.05 273.7792,188.6673 284.0542,201.9473 " fill="none" id="ToDoList-to-Task" style="stroke:#181818;stroke-width:0.5;"/><polygon fill="#181818" points="285.89,204.32,284.7181,199.537,284.3602,202.3427,281.5545,201.9848,285.89,204.32" style="stroke:#181818;stroke-width:0.5;"/><text fill="#000000" font-family="sans-serif" font-size="6.5" lengthAdjust="spacing" textLength="3.5" x="254.5696" y="176.1883">1</text><text fill="#000000" font-family="sans-serif" font-size="6.5" lengthAdjust="spacing" textLength="2.5" x="280.5179" y="198.898">*</text></g><!--link Agenda to Task--><g id="link_Agenda_Task"><path codeLine="142" d="M376.455,155.87 C369.155,169.36 360.7583,184.8718 351.5683,201.8468 " fill="none" id="Agenda-to-Task" style="stroke:#181818;stroke-width:0.5;"/><polygon fill="#181818" points="350.14,204.485,354.0412,201.4799,351.3302,202.2865,350.5236,199.5755,350.14,204.485" style="stroke:#181818;stroke-width:0.5;"/><text fill="#000000" font-family="sans-serif" font-size="6.5" lengthAdjust="spacing" textLength="3.5" x="370.9575" y="166.8091">1</text><text fill="#000000" font-family="sans-serif" font-size="6.5" lengthAdjust="spacing" textLength="2.5" x="349.5648" y="198.9081">*</text></g><!--link Task to GreenSpace--><g id="link_Task_GreenSpace"><path codeLine="144" d="M286.135,303.065 C278.35,313.17 272.0657,321.3234 264.5707,331.0534 " fill="none" id="Task-to-GreenSpace" style="stroke:#181818;stroke-width:0.5;"/><polygon fill="#181818" points="262.74,333.43,267.0705,331.0855,264.2656,331.4495,263.9017,328.6445,262.74,333.43" style="stroke:#181818;stroke-width:0.5;"/><text fill="#000000" font-family="sans-serif" font-size="6.5" lengthAdjust="spacing" textLength="2.5" x="280.7809" y="314.0188">*</text><text fill="#000000" font-family="sans-serif" font-size="6.5" lengthAdjust="spacing" textLength="3.5" x="261.8895" y="327.8714">1</text></g><!--link TaskDto to GreenSpaceDto--><g id="link_TaskDto_GreenSpaceDto"><path codeLine="145" d="M585.715,293.79 C597.155,308.165 608.117,321.9376 619.202,335.8676 " fill="none" id="TaskDto-to-GreenSpaceDto" style="stroke:#181818;stroke-width:0.5;"/><polygon fill="#181818" points="621.07,338.215,619.8329,333.4485,619.5133,336.2588,616.703,335.9392,621.07,338.215" style="stroke:#181818;stroke-width:0.5;"/><text fill="#000000" font-family="sans-serif" font-size="6.5" lengthAdjust="spacing" textLength="2.5" x="585.8116" y="304.6225">*</text><text fill="#000000" font-family="sans-serif" font-size="6.5" lengthAdjust="spacing" textLength="3.5" x="614.535" y="332.6569">1</text></g><!--link TaskMapper to TaskDto--><g id="link_TaskMapper_TaskDto"><path codeLine="147" d="M554.25,160.515 C554.25,175.995 554.25,193.075 554.25,210.595 " fill="none" id="TaskMapper-to-TaskDto" style="stroke:#181818;stroke-width:0.5;stroke-dasharray:7.0,7.0;"/><polygon fill="#181818" points="554.25,213.595,556.25,209.095,554.25,211.095,552.25,209.095,554.25,213.595" style="stroke:#181818;stroke-width:0.5;"/></g><!--link TaskMapper to Task--><g id="link_TaskMapper_Task"><path codeLine="148" d="M491.49,160.585 C442.875,180.4 383.75,204.5 383.75,204.5 C383.75,204.5 382.6131,205.4229 377.3531,209.6979 " fill="none" id="TaskMapper-to-Task" style="stroke:#181818;stroke-width:0.5;stroke-dasharray:7.0,7.0;"/><polygon fill="#181818" points="375.025,211.59,379.7785,210.3039,376.9651,210.0132,377.2557,207.1998,375.025,211.59" style="stroke:#181818;stroke-width:0.5;"/></g><!--link TaskMapper to GreenSpaceDto--><g id="link_TaskMapper_GreenSpaceDto"><path codeLine="149" d="M617.01,160.585 C665.625,180.4 724.75,204.5 724.75,204.5 C724.75,204.5 724.75,303 724.75,303 C724.75,303 707.8066,318.6025 688.7316,336.1725 " fill="none" id="TaskMapper-to-GreenSpaceDto" style="stroke:#181818;stroke-width:0.5;stroke-dasharray:7.0,7.0;"/><polygon fill="#181818" points="686.525,338.205,691.1899,336.6273,688.3638,336.5113,688.4799,333.6852,686.525,338.205" style="stroke:#181818;stroke-width:0.5;"/></g><!--link ApplicationSession to UserSession--><g id="link_ApplicationSession_UserSession"><path codeLine="151" d="M65.515,155.87 C57.49,179.01 45.7029,213.0156 38.3829,234.1256 " fill="none" id="ApplicationSession-to-UserSession" style="stroke:#181818;stroke-width:0.5;"/><polygon fill="#181818" points="37.4,236.96,40.7639,233.3636,38.219,234.598,36.9847,232.0531,37.4,236.96" style="stroke:#181818;stroke-width:0.5;"/><text fill="#000000" font-family="sans-serif" font-size="6.5" lengthAdjust="spacing" textLength="36" x="57.75" y="187.5142">userSession</text><text fill="#000000" font-family="sans-serif" font-size="6.5" lengthAdjust="spacing" textLength="3.5" x="34.6678" y="231.3649">1</text></g><!--SRC=[hLNRJjmm47ttLrYy44eMjQzLXOGsY2A1gBhm0IOPiYwE7TcEwBRgltScSRBEPVS1iIyRp-NCcOl7f-vLwbfOKV7AQ9DlhQc0Uzi0ssjgaR-A4ZP-fu1RoBtGfOeDt5OKvatgahy8vMADaXhyhWPU6xMZ0pjTK1hh3OkySYMSk_BUokV6msrkz4R-0VwPiLC5BvvxmwqijvuNakX8enbhVVXLKLnhRtTN9UX2FDsolupzMrQk3NuRfS2Y4SVV-K63v2mObE0VJMRkfFDaAC75gWqeP0F5et2lYUmL8e0cpWlhiKYPy70MiQfh9ND1MMp0EKgcvuCUNkO4VQlnM-SGXritreBsmIc987z2RPpqXWW6iDL86CFieVdNiUSivzYjgr4SzSc1dMQ0XYI-heHKiMsFEB2ZmpSgt2M7hhAjUgP4PvDBGLL6YEk9wMA7W88VQTD0wiO2w0rEEmoqDWY1Owr51MC9pMsGIEsvi2361jXsYyKO2qjNjQK8PBR2xQiJQ2wmoV1sV2oXyp5wGd1f2v6sdcbl7RSCotKlwdguBr5V4ED8QuX_5zMRxF4XEMXu5d0xC_FyQn9-eH1UUZMfH04kjx9kry94KMBM3ozF5cSttqNLWjzrEn9POqNajnQAXjpo-Eg6L0AVf2MGna7JQQ1qXfzo5uPmtuUK7rWG5EbTQRypC-b-e0vbmtLVcjDEaokZ8N7HZUer3YzQX3tVVg2RYcUJbdHftfctzlyU2jbKxUTttFU3rys68Y6yR_hz5YXttzRaEBjGT2SbjEw_ZVErwKzhMdig738KHqkvtMx36blSuVic4firLQ8VOBHF5fG8JoT-lbhDCXyKe-HOl93vwdAqe75Vox2ysVmL8Ui5QUJ3fgyblxWy_4YoGnhocj2oyJCoo-7aoqbVu2NLy3OSYNYnbDjn-_XvEchOnySyV4_bE9DMYEQYI-eu-dwDiY4IfRsYz3-TTDSzGCxatPZGSHMg5JrQOIKTKDFoPFle0ncIBuYdiWdGqho5a56XiIPDLFR_]--></g></svg>