<?xml version="1.0" encoding="us-ascii" standalone="no"?><svg xmlns="http://www.w3.org/2000/svg" xmlns:xlink="http://www.w3.org/1999/xlink" contentStyleType="text/css" height="603px" preserveAspectRatio="none" style="width:1074px;height:603px;background:#FFFFFF;" version="1.1" viewBox="0 0 1074 603" width="1074.6px" zoomAndPan="magnify"><defs/><g><!--cluster UI--><g id="cluster_UI"><rect fill="none" height="60.6" rx="1.5" ry="1.5" style="stroke:#000000;stroke-width:0.8999999999999999;" width="110.4" x="474.6" y="26.4"/><text fill="#000000" font-family="sans-serif" font-size="8.4" font-weight="bold" lengthAdjust="spacing" textLength="8.4" x="525.6" y="36.6645">UI</text></g><!--cluster Controller--><g id="cluster_Controller"><rect fill="none" height="105" rx="1.5" ry="1.5" style="stroke:#000000;stroke-width:0.8999999999999999;" width="140.4" x="319.8" y="4.2"/><text fill="#000000" font-family="sans-serif" font-size="8.4" font-weight="bold" lengthAdjust="spacing" textLength="42.6" x="368.7" y="14.4645">Controller</text></g><!--cluster Domain--><g id="cluster_Domain"><rect fill="none" height="459.6" rx="1.5" ry="1.5" style="stroke:#000000;stroke-width:0.8999999999999999;" width="585.6" x="4.2" y="139.8"/><text fill="#000000" font-family="sans-serif" font-size="8.4" font-weight="bold" lengthAdjust="spacing" textLength="31.2" x="281.4" y="150.0645">Domain</text></g><!--cluster Repository--><g id="cluster_Repository"><rect fill="none" height="105" rx="1.5" ry="1.5" style="stroke:#000000;stroke-width:0.8999999999999999;" width="556.8" x="18.6" y="166.8"/><text fill="#000000" font-family="sans-serif" font-size="8.4" font-weight="bold" lengthAdjust="spacing" textLength="45.6" x="274.2" y="177.0645">Repository</text></g><!--cluster Model--><g id="cluster_Model"><rect fill="none" height="293.4" rx="1.5" ry="1.5" style="stroke:#000000;stroke-width:0.8999999999999999;" width="389.4" x="186" y="291.6"/><text fill="#000000" font-family="sans-serif" font-size="8.4" font-weight="bold" lengthAdjust="spacing" textLength="26.4" x="367.5" y="301.8645">Model</text></g><!--cluster Mapper--><g id="cluster_Mapper"><rect fill="none" height="421.5" rx="1.5" ry="1.5" style="stroke:#000000;stroke-width:0.8999999999999999;" width="444.6" x="626.4" y="172.2"/><text fill="#000000" font-family="sans-serif" font-size="8.4" font-weight="bold" lengthAdjust="spacing" textLength="32.4" x="832.5" y="182.4645">Mapper</text></g><!--cluster DTO--><g id="cluster_DTO"><rect fill="none" height="276.6" rx="1.5" ry="1.5" style="stroke:#000000;stroke-width:0.8999999999999999;" width="408" x="648.6" y="302.7"/><text fill="#000000" font-family="sans-serif" font-size="8.4" font-weight="bold" lengthAdjust="spacing" textLength="17.4" x="843.9" y="312.9645">DTO</text></g><!--class AddEntryAgendaUI--><g id="elem_AddEntryAgendaUI"><rect codeLine="12" fill="#F1F1F1" height="28.8" id="AddEntryAgendaUI" rx="1.5" ry="1.5" style="stroke:#181818;stroke-width:0.3;" width="90.6" x="484.5" y="48.6"/><ellipse cx="493.5" cy="58.2" fill="#ADD1B2" rx="6.6" ry="6.6" style="stroke:#181818;stroke-width:0.6;"/><path d="M495.1594,55.725 Q495.2531,55.5938 495.3656,55.5281 Q495.4781,55.4625 495.6094,55.4625 Q495.8344,55.4625 495.975,55.6219 Q496.1156,55.7719 496.1156,56.1375 L496.1156,57.0094 Q496.1156,57.375 495.975,57.5344 Q495.8344,57.6937 495.6094,57.6937 Q495.4031,57.6937 495.2813,57.5719 Q495.1594,57.4594 495.0938,57.15 Q495.0656,56.9344 494.9531,56.8219 Q494.7562,56.5969 494.3906,56.4656 Q494.025,56.3344 493.65,56.3344 Q493.1906,56.3344 492.8063,56.5313 Q492.4313,56.7281 492.1312,57.1781 Q491.8406,57.6281 491.8406,58.2469 L491.8406,58.9031 Q491.8406,59.6438 492.375,60.1406 Q492.9094,60.6281 493.8656,60.6281 Q494.4281,60.6281 494.8219,60.4781 Q495.0563,60.3844 495.3094,60.1219 Q495.4688,59.9625 495.5531,59.9156 Q495.6469,59.8688 495.7687,59.8688 Q495.9656,59.8688 496.1156,60.0281 Q496.275,60.1781 496.275,60.3844 Q496.275,60.5906 496.0687,60.8344 Q495.7687,61.1813 495.2906,61.3781 Q494.6437,61.65 493.8656,61.65 Q492.9562,61.65 492.2344,61.275 Q491.6437,60.975 491.2313,60.3375 Q490.8187,59.6906 490.8187,58.9219 L490.8187,58.2281 Q490.8187,57.4313 491.1844,56.7469 Q491.5594,56.0531 492.2156,55.6875 Q492.8719,55.3125 493.6125,55.3125 Q494.0531,55.3125 494.4375,55.4156 Q494.8312,55.5094 495.1594,55.725 Z " fill="#000000"/><text fill="#000000" font-family="sans-serif" font-size="8.4" lengthAdjust="spacing" textLength="71.4" x="501.9" y="61.6781">AddEntryAgendaUI</text><line style="stroke:#181818;stroke-width:0.3;" x1="485.1" x2="574.5" y1="67.8" y2="67.8"/><line style="stroke:#181818;stroke-width:0.3;" x1="485.1" x2="574.5" y1="72.6" y2="72.6"/></g><!--class AddEntryAgendaController--><g id="elem_AddEntryAgendaController"><rect codeLine="19" fill="#F1F1F1" height="73.4906" id="AddEntryAgendaController" rx="1.5" ry="1.5" style="stroke:#181818;stroke-width:0.3;" width="120.6" x="329.7" y="26.4"/><ellipse cx="338.7" cy="36" fill="#ADD1B2" rx="6.6" ry="6.6" style="stroke:#181818;stroke-width:0.6;"/><path d="M340.3594,33.525 Q340.4531,33.3938 340.5656,33.3281 Q340.6781,33.2625 340.8094,33.2625 Q341.0344,33.2625 341.175,33.4219 Q341.3156,33.5719 341.3156,33.9375 L341.3156,34.8094 Q341.3156,35.175 341.175,35.3344 Q341.0344,35.4938 340.8094,35.4938 Q340.6031,35.4938 340.4813,35.3719 Q340.3594,35.2594 340.2938,34.95 Q340.2656,34.7344 340.1531,34.6219 Q339.9563,34.3969 339.5906,34.2656 Q339.225,34.1344 338.85,34.1344 Q338.3906,34.1344 338.0062,34.3313 Q337.6312,34.5281 337.3313,34.9781 Q337.0406,35.4281 337.0406,36.0469 L337.0406,36.7031 Q337.0406,37.4438 337.575,37.9406 Q338.1094,38.4281 339.0656,38.4281 Q339.6281,38.4281 340.0219,38.2781 Q340.2562,38.1844 340.5094,37.9219 Q340.6688,37.7625 340.7531,37.7156 Q340.8469,37.6687 340.9688,37.6687 Q341.1656,37.6687 341.3156,37.8281 Q341.475,37.9781 341.475,38.1844 Q341.475,38.3906 341.2688,38.6344 Q340.9688,38.9812 340.4906,39.1781 Q339.8438,39.45 339.0656,39.45 Q338.1563,39.45 337.4344,39.075 Q336.8438,38.775 336.4313,38.1375 Q336.0188,37.4906 336.0188,36.7219 L336.0188,36.0281 Q336.0188,35.2312 336.3844,34.5469 Q336.7594,33.8531 337.4156,33.4875 Q338.0719,33.1125 338.8125,33.1125 Q339.2531,33.1125 339.6375,33.2156 Q340.0313,33.3094 340.3594,33.525 Z " fill="#000000"/><text fill="#000000" font-family="sans-serif" font-size="8.4" lengthAdjust="spacing" textLength="101.4" x="347.1" y="39.4781">AddEntryAgendaController</text><line style="stroke:#181818;stroke-width:0.3;" x1="330.3" x2="449.7" y1="45.6" y2="45.6"/><line style="stroke:#181818;stroke-width:0.3;" x1="330.3" x2="449.7" y1="50.4" y2="50.4"/><text fill="#000000" font-family="sans-serif" font-size="8.4" lengthAdjust="spacing" textLength="112.2" x="333.3" y="61.8645">+AddEntryAgendaController()</text><text fill="#000000" font-family="sans-serif" font-size="8.4" lengthAdjust="spacing" textLength="83.4" x="333.3" y="73.0371">+getToDoListEntries()</text><text fill="#000000" font-family="sans-serif" font-size="8.4" lengthAdjust="spacing" textLength="76.2" x="333.3" y="84.2098">+getSelectedTask(i)</text><text fill="#000000" font-family="sans-serif" font-size="8.4" lengthAdjust="spacing" textLength="91.2" x="333.3" y="95.3824">+addEntry(startingDate)</text></g><!--class Repositories--><g id="elem_Repositories"><rect codeLine="30" fill="#F1F1F1" height="73.4906" id="Repositories" rx="1.5" ry="1.5" style="stroke:#181818;stroke-width:0.3;" width="116.4" x="28.2" y="189"/><ellipse cx="60.15" cy="198.6" fill="#ADD1B2" rx="6.6" ry="6.6" style="stroke:#181818;stroke-width:0.6;"/><path d="M61.8094,196.125 Q61.9031,195.9938 62.0156,195.9281 Q62.1281,195.8625 62.2594,195.8625 Q62.4844,195.8625 62.625,196.0219 Q62.7656,196.1719 62.7656,196.5375 L62.7656,197.4094 Q62.7656,197.775 62.625,197.9344 Q62.4844,198.0938 62.2594,198.0938 Q62.0531,198.0938 61.9313,197.9719 Q61.8094,197.8594 61.7438,197.55 Q61.7156,197.3344 61.6031,197.2219 Q61.4063,196.9969 61.0406,196.8656 Q60.675,196.7344 60.3,196.7344 Q59.8406,196.7344 59.4563,196.9313 Q59.0813,197.1281 58.7813,197.5781 Q58.4906,198.0281 58.4906,198.6469 L58.4906,199.3031 Q58.4906,200.0438 59.025,200.5406 Q59.5594,201.0281 60.5156,201.0281 Q61.0781,201.0281 61.4719,200.8781 Q61.7063,200.7844 61.9594,200.5219 Q62.1188,200.3625 62.2031,200.3156 Q62.2969,200.2687 62.4187,200.2687 Q62.6156,200.2687 62.7656,200.4281 Q62.925,200.5781 62.925,200.7844 Q62.925,200.9906 62.7188,201.2344 Q62.4187,201.5812 61.9406,201.7781 Q61.2937,202.05 60.5156,202.05 Q59.6062,202.05 58.8844,201.675 Q58.2937,201.375 57.8812,200.7375 Q57.4688,200.0906 57.4688,199.3219 L57.4688,198.6281 Q57.4688,197.8312 57.8344,197.1469 Q58.2094,196.4531 58.8656,196.0875 Q59.5219,195.7125 60.2625,195.7125 Q60.7031,195.7125 61.0875,195.8156 Q61.4812,195.9094 61.8094,196.125 Z " fill="#000000"/><text fill="#000000" font-family="sans-serif" font-size="8.4" lengthAdjust="spacing" textLength="47.4" x="72.45" y="202.0781">Repositories</text><line style="stroke:#181818;stroke-width:0.3;" x1="28.8" x2="144" y1="208.2" y2="208.2"/><line style="stroke:#181818;stroke-width:0.3;" x1="28.8" x2="144" y1="213" y2="213"/><text fill="#000000" font-family="sans-serif" font-size="8.4" lengthAdjust="spacing" textLength="56.4" x="31.8" y="224.4645">-Repositories()</text><text fill="#000000" font-family="sans-serif" font-size="8.4" lengthAdjust="spacing" textLength="109.2" x="31.8" y="235.6371">+getInstance() : Repositories</text><text fill="#000000" font-family="sans-serif" font-size="8.4" lengthAdjust="spacing" textLength="57" x="31.8" y="246.8098">+getToDoList()</text><text fill="#000000" font-family="sans-serif" font-size="8.4" lengthAdjust="spacing" textLength="52.2" x="31.8" y="257.9824">+getAgenda()</text></g><!--class ToDoList--><g id="elem_ToDoList"><rect codeLine="38" fill="#F1F1F1" height="73.4906" id="ToDoList" rx="1.5" ry="1.5" style="stroke:#181818;stroke-width:0.3;" width="155.4" x="410.1" y="189"/><ellipse cx="468.15" cy="198.6" fill="#ADD1B2" rx="6.6" ry="6.6" style="stroke:#181818;stroke-width:0.6;"/><path d="M469.8094,196.125 Q469.9031,195.9938 470.0156,195.9281 Q470.1281,195.8625 470.2594,195.8625 Q470.4844,195.8625 470.625,196.0219 Q470.7656,196.1719 470.7656,196.5375 L470.7656,197.4094 Q470.7656,197.775 470.625,197.9344 Q470.4844,198.0938 470.2594,198.0938 Q470.0531,198.0938 469.9313,197.9719 Q469.8094,197.8594 469.7438,197.55 Q469.7156,197.3344 469.6031,197.2219 Q469.4063,196.9969 469.0406,196.8656 Q468.675,196.7344 468.3,196.7344 Q467.8406,196.7344 467.4562,196.9313 Q467.0812,197.1281 466.7813,197.5781 Q466.4906,198.0281 466.4906,198.6469 L466.4906,199.3031 Q466.4906,200.0438 467.025,200.5406 Q467.5594,201.0281 468.5156,201.0281 Q469.0781,201.0281 469.4719,200.8781 Q469.7062,200.7844 469.9594,200.5219 Q470.1188,200.3625 470.2031,200.3156 Q470.2969,200.2687 470.4188,200.2687 Q470.6156,200.2687 470.7656,200.4281 Q470.925,200.5781 470.925,200.7844 Q470.925,200.9906 470.7188,201.2344 Q470.4188,201.5812 469.9406,201.7781 Q469.2938,202.05 468.5156,202.05 Q467.6063,202.05 466.8844,201.675 Q466.2938,201.375 465.8812,200.7375 Q465.4688,200.0906 465.4688,199.3219 L465.4688,198.6281 Q465.4688,197.8312 465.8344,197.1469 Q466.2094,196.4531 466.8656,196.0875 Q467.5219,195.7125 468.2625,195.7125 Q468.7031,195.7125 469.0875,195.8156 Q469.4813,195.9094 469.8094,196.125 Z " fill="#000000"/><text fill="#000000" font-family="sans-serif" font-size="8.4" lengthAdjust="spacing" textLength="34.2" x="480.45" y="202.0781">ToDoList</text><line style="stroke:#181818;stroke-width:0.3;" x1="410.7" x2="564.9" y1="208.2" y2="208.2"/><text fill="#000000" font-family="sans-serif" font-size="8.4" lengthAdjust="spacing" textLength="85.8" x="413.7" y="219.6645">-List&lt;Task&gt; entriesList</text><text fill="#000000" font-family="sans-serif" font-size="8.4" lengthAdjust="spacing" textLength="148.2" x="413.7" y="230.8371">-List&lt;Task&gt; associatedToDoEntriesList</text><line style="stroke:#181818;stroke-width:0.3;" x1="410.7" x2="564.9" y1="235.3453" y2="235.3453"/><text fill="#000000" font-family="sans-serif" font-size="8.4" lengthAdjust="spacing" textLength="103.2" x="413.7" y="246.8098">+getToDoListEntries(email)</text><text fill="#000000" font-family="sans-serif" font-size="8.4" lengthAdjust="spacing" textLength="76.2" x="413.7" y="257.9824">+getSelectedTask(i)</text></g><!--class Agenda--><g id="elem_Agenda"><rect codeLine="46" fill="#F1F1F1" height="51.1453" id="Agenda" rx="1.5" ry="1.5" style="stroke:#181818;stroke-width:0.3;" width="175.8" x="213.3" y="200.1"/><ellipse cx="283.95" cy="209.7" fill="#ADD1B2" rx="6.6" ry="6.6" style="stroke:#181818;stroke-width:0.6;"/><path d="M285.6094,207.225 Q285.7031,207.0938 285.8156,207.0281 Q285.9281,206.9625 286.0594,206.9625 Q286.2844,206.9625 286.425,207.1219 Q286.5656,207.2719 286.5656,207.6375 L286.5656,208.5094 Q286.5656,208.875 286.425,209.0344 Q286.2844,209.1938 286.0594,209.1938 Q285.8531,209.1938 285.7313,209.0719 Q285.6094,208.9594 285.5438,208.65 Q285.5156,208.4344 285.4031,208.3219 Q285.2063,208.0969 284.8406,207.9656 Q284.475,207.8344 284.1,207.8344 Q283.6406,207.8344 283.2562,208.0313 Q282.8812,208.2281 282.5813,208.6781 Q282.2906,209.1281 282.2906,209.7469 L282.2906,210.4031 Q282.2906,211.1437 282.825,211.6406 Q283.3594,212.1281 284.3156,212.1281 Q284.8781,212.1281 285.2719,211.9781 Q285.5062,211.8844 285.7594,211.6219 Q285.9188,211.4625 286.0031,211.4156 Q286.0969,211.3688 286.2188,211.3688 Q286.4156,211.3688 286.5656,211.5281 Q286.725,211.6781 286.725,211.8844 Q286.725,212.0906 286.5188,212.3344 Q286.2188,212.6813 285.7406,212.8781 Q285.0938,213.15 284.3156,213.15 Q283.4063,213.15 282.6844,212.775 Q282.0938,212.475 281.6813,211.8375 Q281.2688,211.1906 281.2688,210.4219 L281.2688,209.7281 Q281.2688,208.9313 281.6344,208.2469 Q282.0094,207.5531 282.6656,207.1875 Q283.3219,206.8125 284.0625,206.8125 Q284.5031,206.8125 284.8875,206.9156 Q285.2813,207.0094 285.6094,207.225 Z " fill="#000000"/><text fill="#000000" font-family="sans-serif" font-size="8.4" lengthAdjust="spacing" textLength="29.4" x="296.25" y="213.1781">Agenda</text><line style="stroke:#181818;stroke-width:0.3;" x1="213.9" x2="388.5" y1="219.3" y2="219.3"/><line style="stroke:#181818;stroke-width:0.3;" x1="213.9" x2="388.5" y1="224.1" y2="224.1"/><text fill="#000000" font-family="sans-serif" font-size="8.4" lengthAdjust="spacing" textLength="168.6" x="216.9" y="235.5645">+addEntry(startingDate, selectedTaskClone)</text><text fill="#000000" font-family="sans-serif" font-size="8.4" lengthAdjust="spacing" textLength="96" x="216.9" y="246.7371">-add(selectedTaskClone)</text></g><!--class ApplicationSession--><g id="elem_ApplicationSession"><rect codeLine="55" fill="#F1F1F1" height="51.1453" id="ApplicationSession" rx="1.5" ry="1.5" style="stroke:#181818;stroke-width:0.3;" width="90.6" x="229.5" y="347.4"/><ellipse cx="238.5" cy="357" fill="#ADD1B2" rx="6.6" ry="6.6" style="stroke:#181818;stroke-width:0.6;"/><path d="M240.1594,354.525 Q240.2531,354.3938 240.3656,354.3281 Q240.4781,354.2625 240.6094,354.2625 Q240.8344,354.2625 240.975,354.4219 Q241.1156,354.5719 241.1156,354.9375 L241.1156,355.8094 Q241.1156,356.175 240.975,356.3344 Q240.8344,356.4938 240.6094,356.4938 Q240.4031,356.4938 240.2813,356.3719 Q240.1594,356.2594 240.0938,355.95 Q240.0656,355.7344 239.9531,355.6219 Q239.7563,355.3969 239.3906,355.2656 Q239.025,355.1344 238.65,355.1344 Q238.1906,355.1344 237.8062,355.3313 Q237.4312,355.5281 237.1313,355.9781 Q236.8406,356.4281 236.8406,357.0469 L236.8406,357.7031 Q236.8406,358.4437 237.375,358.9406 Q237.9094,359.4281 238.8656,359.4281 Q239.4281,359.4281 239.8219,359.2781 Q240.0562,359.1844 240.3094,358.9219 Q240.4688,358.7625 240.5531,358.7156 Q240.6469,358.6688 240.7687,358.6688 Q240.9656,358.6688 241.1156,358.8281 Q241.275,358.9781 241.275,359.1844 Q241.275,359.3906 241.0688,359.6344 Q240.7687,359.9813 240.2906,360.1781 Q239.6437,360.45 238.8656,360.45 Q237.9562,360.45 237.2344,360.075 Q236.6437,359.775 236.2313,359.1375 Q235.8188,358.4906 235.8188,357.7219 L235.8188,357.0281 Q235.8188,356.2313 236.1844,355.5469 Q236.5594,354.8531 237.2156,354.4875 Q237.8719,354.1125 238.6125,354.1125 Q239.0531,354.1125 239.4375,354.2156 Q239.8312,354.3094 240.1594,354.525 Z " fill="#000000"/><text fill="#000000" font-family="sans-serif" font-size="8.4" lengthAdjust="spacing" textLength="71.4" x="246.9" y="360.4781">ApplicationSession</text><line style="stroke:#181818;stroke-width:0.3;" x1="230.1" x2="319.5" y1="366.6" y2="366.6"/><line style="stroke:#181818;stroke-width:0.3;" x1="230.1" x2="319.5" y1="371.4" y2="371.4"/><text fill="#000000" font-family="sans-serif" font-size="8.4" lengthAdjust="spacing" textLength="76.8" x="233.1" y="382.8645">+static getInstance()</text><text fill="#000000" font-family="sans-serif" font-size="8.4" lengthAdjust="spacing" textLength="81.6" x="233.1" y="394.0371">+getCurrentSession()</text></g><!--class UserSession--><g id="elem_UserSession"><rect codeLine="61" fill="#F1F1F1" height="39.9727" id="UserSession" rx="1.5" ry="1.5" style="stroke:#181818;stroke-width:0.3;" width="67.8" x="195.9" y="507.3"/><ellipse cx="205.44" cy="516.9" fill="#ADD1B2" rx="6.6" ry="6.6" style="stroke:#181818;stroke-width:0.6;"/><path d="M207.0994,514.425 Q207.1931,514.2937 207.3056,514.2281 Q207.4181,514.1625 207.5494,514.1625 Q207.7744,514.1625 207.915,514.3219 Q208.0556,514.4719 208.0556,514.8375 L208.0556,515.7094 Q208.0556,516.075 207.915,516.2344 Q207.7744,516.3938 207.5494,516.3938 Q207.3431,516.3938 207.2212,516.2719 Q207.0994,516.1594 207.0337,515.85 Q207.0056,515.6344 206.8931,515.5219 Q206.6963,515.2969 206.3306,515.1656 Q205.965,515.0344 205.59,515.0344 Q205.1306,515.0344 204.7462,515.2312 Q204.3712,515.4281 204.0713,515.8781 Q203.7806,516.3281 203.7806,516.9469 L203.7806,517.6031 Q203.7806,518.3438 204.315,518.8406 Q204.8494,519.3281 205.8056,519.3281 Q206.3681,519.3281 206.7619,519.1781 Q206.9962,519.0844 207.2494,518.8219 Q207.4087,518.6625 207.4931,518.6156 Q207.5869,518.5688 207.7087,518.5688 Q207.9056,518.5688 208.0556,518.7281 Q208.215,518.8781 208.215,519.0844 Q208.215,519.2906 208.0088,519.5344 Q207.7087,519.8813 207.2306,520.0781 Q206.5837,520.35 205.8056,520.35 Q204.8962,520.35 204.1744,519.975 Q203.5837,519.675 203.1713,519.0375 Q202.7588,518.3906 202.7588,517.6219 L202.7588,516.9281 Q202.7588,516.1313 203.1244,515.4469 Q203.4994,514.7531 204.1556,514.3875 Q204.8119,514.0125 205.5525,514.0125 Q205.9931,514.0125 206.3775,514.1156 Q206.7712,514.2094 207.0994,514.425 Z " fill="#000000"/><text fill="#000000" font-family="sans-serif" font-size="8.4" lengthAdjust="spacing" textLength="47.4" x="213.96" y="520.3781">UserSession</text><line style="stroke:#181818;stroke-width:0.3;" x1="196.5" x2="263.1" y1="526.5" y2="526.5"/><line style="stroke:#181818;stroke-width:0.3;" x1="196.5" x2="263.1" y1="531.3" y2="531.3"/><text fill="#000000" font-family="sans-serif" font-size="8.4" lengthAdjust="spacing" textLength="60.6" x="199.5" y="542.7645">+getUserEmail()</text></g><!--class GreenSpace--><g id="elem_GreenSpace"><rect codeLine="67" fill="#F1F1F1" height="95.8359" id="GreenSpace" rx="1.5" ry="1.5" style="stroke:#181818;stroke-width:0.3;" width="89.4" x="367.5" y="479.4"/><ellipse cx="386.49" cy="489" fill="#ADD1B2" rx="6.6" ry="6.6" style="stroke:#181818;stroke-width:0.6;"/><path d="M388.1494,486.525 Q388.2431,486.3937 388.3556,486.3281 Q388.4681,486.2625 388.5994,486.2625 Q388.8244,486.2625 388.965,486.4219 Q389.1056,486.5719 389.1056,486.9375 L389.1056,487.8094 Q389.1056,488.175 388.965,488.3344 Q388.8244,488.4938 388.5994,488.4938 Q388.3931,488.4938 388.2712,488.3719 Q388.1494,488.2594 388.0837,487.95 Q388.0556,487.7344 387.9431,487.6219 Q387.7463,487.3969 387.3806,487.2656 Q387.015,487.1344 386.64,487.1344 Q386.1806,487.1344 385.7963,487.3312 Q385.4213,487.5281 385.1213,487.9781 Q384.8306,488.4281 384.8306,489.0469 L384.8306,489.7031 Q384.8306,490.4437 385.365,490.9406 Q385.8994,491.4281 386.8556,491.4281 Q387.4181,491.4281 387.8119,491.2781 Q388.0463,491.1844 388.2994,490.9219 Q388.4587,490.7625 388.5431,490.7156 Q388.6369,490.6688 388.7587,490.6688 Q388.9556,490.6688 389.1056,490.8281 Q389.265,490.9781 389.265,491.1844 Q389.265,491.3906 389.0588,491.6344 Q388.7587,491.9813 388.2806,492.1781 Q387.6337,492.45 386.8556,492.45 Q385.9462,492.45 385.2244,492.075 Q384.6337,491.775 384.2213,491.1375 Q383.8088,490.4906 383.8088,489.7219 L383.8088,489.0281 Q383.8088,488.2313 384.1744,487.5469 Q384.5494,486.8531 385.2056,486.4875 Q385.8619,486.1125 386.6025,486.1125 Q387.0431,486.1125 387.4275,486.2156 Q387.8212,486.3094 388.1494,486.525 Z " fill="#000000"/><text fill="#000000" font-family="sans-serif" font-size="8.4" lengthAdjust="spacing" textLength="48" x="397.11" y="492.4781">GreenSpace</text><line style="stroke:#181818;stroke-width:0.3;" x1="368.1" x2="456.3" y1="498.6" y2="498.6"/><text fill="#000000" font-family="sans-serif" font-size="8.4" lengthAdjust="spacing" textLength="48.6" x="371.1" y="510.0645">-String name</text><text fill="#000000" font-family="sans-serif" font-size="8.4" lengthAdjust="spacing" textLength="43.8" x="371.1" y="521.2371">-String type</text><text fill="#000000" font-family="sans-serif" font-size="8.4" lengthAdjust="spacing" textLength="31.8" x="371.1" y="532.4098">-int area</text><text fill="#000000" font-family="sans-serif" font-size="8.4" lengthAdjust="spacing" textLength="58.2" x="371.1" y="543.5824">-String address</text><text fill="#000000" font-family="sans-serif" font-size="8.4" lengthAdjust="spacing" textLength="63.6" x="371.1" y="554.7551">-String gsmEmail</text><line style="stroke:#181818;stroke-width:0.3;" x1="368.1" x2="456.3" y1="559.2633" y2="559.2633"/><text fill="#000000" font-family="sans-serif" font-size="8.4" lengthAdjust="spacing" textLength="82.2" x="371.1" y="570.7277">+hasUserEmail(email)</text></g><!--class Task--><g id="elem_Task"><rect codeLine="77" fill="#F1F1F1" height="118.1812" id="Task" rx="1.5" ry="1.5" style="stroke:#181818;stroke-width:0.3;" width="123" x="388.5" y="313.8"/><ellipse cx="438.15" cy="323.4" fill="#ADD1B2" rx="6.6" ry="6.6" style="stroke:#181818;stroke-width:0.6;"/><path d="M439.8094,320.925 Q439.9031,320.7938 440.0156,320.7281 Q440.1281,320.6625 440.2594,320.6625 Q440.4844,320.6625 440.625,320.8219 Q440.7656,320.9719 440.7656,321.3375 L440.7656,322.2094 Q440.7656,322.575 440.625,322.7344 Q440.4844,322.8938 440.2594,322.8938 Q440.0531,322.8938 439.9313,322.7719 Q439.8094,322.6594 439.7438,322.35 Q439.7156,322.1344 439.6031,322.0219 Q439.4063,321.7969 439.0406,321.6656 Q438.675,321.5344 438.3,321.5344 Q437.8406,321.5344 437.4563,321.7313 Q437.0813,321.9281 436.7813,322.3781 Q436.4906,322.8281 436.4906,323.4469 L436.4906,324.1031 Q436.4906,324.8438 437.025,325.3406 Q437.5594,325.8281 438.5156,325.8281 Q439.0781,325.8281 439.4719,325.6781 Q439.7063,325.5844 439.9594,325.3219 Q440.1188,325.1625 440.2031,325.1156 Q440.2969,325.0687 440.4188,325.0687 Q440.6156,325.0687 440.7656,325.2281 Q440.925,325.3781 440.925,325.5844 Q440.925,325.7906 440.7188,326.0344 Q440.4188,326.3812 439.9406,326.5781 Q439.2938,326.85 438.5156,326.85 Q437.6063,326.85 436.8844,326.475 Q436.2938,326.175 435.8812,325.5375 Q435.4688,324.8906 435.4688,324.1219 L435.4688,323.4281 Q435.4688,322.6312 435.8344,321.9469 Q436.2094,321.2531 436.8656,320.8875 Q437.5219,320.5125 438.2625,320.5125 Q438.7031,320.5125 439.0875,320.6156 Q439.4813,320.7094 439.8094,320.925 Z " fill="#000000"/><text fill="#000000" font-family="sans-serif" font-size="8.4" lengthAdjust="spacing" textLength="18.6" x="450.45" y="326.8781">Task</text><line style="stroke:#181818;stroke-width:0.3;" x1="389.1" x2="510.9" y1="333" y2="333"/><text fill="#000000" font-family="sans-serif" font-size="8.4" lengthAdjust="spacing" textLength="40.8" x="392.1" y="344.4645">-String title</text><text fill="#000000" font-family="sans-serif" font-size="8.4" lengthAdjust="spacing" textLength="69" x="392.1" y="355.6371">-String description</text><text fill="#000000" font-family="sans-serif" font-size="8.4" lengthAdjust="spacing" textLength="81" x="392.1" y="366.8098">-int expectedDuration</text><text fill="#000000" font-family="sans-serif" font-size="8.4" lengthAdjust="spacing" textLength="86.4" x="392.1" y="377.9824">-Calendar startingDate</text><line style="stroke:#181818;stroke-width:0.3;" x1="389.1" x2="510.9" y1="382.4906" y2="382.4906"/><text fill="#000000" font-family="sans-serif" font-size="8.4" lengthAdjust="spacing" textLength="48" x="392.1" y="393.9551">+isPending()</text><text fill="#000000" font-family="sans-serif" font-size="8.4" lengthAdjust="spacing" textLength="82.2" x="392.1" y="405.1277">+hasUserEmail(email)</text><text fill="#000000" font-family="sans-serif" font-size="8.4" lengthAdjust="spacing" textLength="81.6" x="392.1" y="416.3004">+clone(selectedTask)</text><text fill="#000000" font-family="sans-serif" font-size="8.4" lengthAdjust="spacing" textLength="115.8" x="392.1" y="427.473">+setStartingDate(startingDate)</text></g><!--class DegreeOfUrgency--><g id="elem_DegreeOfUrgency"><rect codeLine="89" fill="#F1F1F1" height="62.318" id="DegreeOfUrgency" rx="1.5" ry="1.5" style="stroke:#181818;stroke-width:0.3;" width="87.6" x="478.2" y="496.2"/><ellipse cx="487.2" cy="505.8" fill="#EB937F" rx="6.6" ry="6.6" style="stroke:#181818;stroke-width:0.6;"/><path d="M486.5156,506.2781 L486.5156,507.7781 L489.1125,507.7781 L489.1125,507.225 Q489.1125,506.8594 489.2531,506.7 Q489.4031,506.5406 489.6281,506.5406 Q489.8531,506.5406 489.9938,506.7 Q490.1344,506.8594 490.1344,507.225 L490.1344,508.8 L485.3344,508.8 Q484.9594,508.8 484.8,508.6594 Q484.65,508.5187 484.65,508.2844 Q484.65,508.0594 484.8094,507.9188 Q484.9688,507.7781 485.3344,507.7781 L485.4938,507.7781 L485.4938,503.7844 L485.3344,503.7844 Q484.9594,503.7844 484.8,503.6437 Q484.65,503.5031 484.65,503.2687 Q484.65,503.0438 484.8,502.9031 Q484.9594,502.7625 485.3344,502.7625 L489.9094,502.7625 L489.9094,504.3187 Q489.9094,504.6844 489.7687,504.8438 Q489.6375,504.9938 489.4031,504.9938 Q489.1781,504.9938 489.0375,504.8438 Q488.8969,504.6844 488.8969,504.3187 L488.8969,503.7844 L486.5156,503.7844 L486.5156,505.2562 L487.4063,505.2562 Q487.4063,504.8625 487.4813,504.75 Q487.6406,504.5062 487.9219,504.5062 Q488.1469,504.5062 488.2875,504.6656 Q488.4281,504.8156 488.4281,505.1813 L488.4281,506.3625 Q488.4281,506.6906 488.3531,506.8031 Q488.1937,507.0375 487.9219,507.0375 Q487.6406,507.0375 487.4813,506.7938 Q487.4063,506.6813 487.4063,506.2781 L486.5156,506.2781 Z " fill="#000000"/><text fill="#000000" font-family="sans-serif" font-size="8.4" lengthAdjust="spacing" textLength="68.4" x="495.6" y="509.2781">DegreeOfUrgency</text><line style="stroke:#181818;stroke-width:0.3;" x1="478.8" x2="565.2" y1="515.4" y2="515.4"/><text fill="#000000" font-family="sans-serif" font-size="8.4" lengthAdjust="spacing" textLength="15" x="481.8" y="526.8645">Low</text><text fill="#000000" font-family="sans-serif" font-size="8.4" lengthAdjust="spacing" textLength="29.4" x="481.8" y="538.0371">Medium</text><text fill="#000000" font-family="sans-serif" font-size="8.4" lengthAdjust="spacing" textLength="16.8" x="481.8" y="549.2098">High</text><line style="stroke:#181818;stroke-width:0.3;" x1="478.8" x2="565.2" y1="553.718" y2="553.718"/></g><!--class TaskStatus--><g id="elem_TaskStatus"><rect codeLine="96" fill="#F1F1F1" height="95.8359" id="TaskStatus" rx="1.5" ry="1.5" style="stroke:#181818;stroke-width:0.3;" width="61.8" x="284.7" y="479.4"/><ellipse cx="293.7" cy="489" fill="#EB937F" rx="6.6" ry="6.6" style="stroke:#181818;stroke-width:0.6;"/><path d="M293.0156,489.4781 L293.0156,490.9781 L295.6125,490.9781 L295.6125,490.425 Q295.6125,490.0594 295.7531,489.9 Q295.9031,489.7406 296.1281,489.7406 Q296.3531,489.7406 296.4938,489.9 Q296.6344,490.0594 296.6344,490.425 L296.6344,492 L291.8344,492 Q291.4594,492 291.3,491.8594 Q291.15,491.7188 291.15,491.4844 Q291.15,491.2594 291.3094,491.1188 Q291.4688,490.9781 291.8344,490.9781 L291.9938,490.9781 L291.9938,486.9844 L291.8344,486.9844 Q291.4594,486.9844 291.3,486.8438 Q291.15,486.7031 291.15,486.4688 Q291.15,486.2438 291.3,486.1031 Q291.4594,485.9625 291.8344,485.9625 L296.4094,485.9625 L296.4094,487.5187 Q296.4094,487.8844 296.2688,488.0438 Q296.1375,488.1937 295.9031,488.1937 Q295.6781,488.1937 295.5375,488.0438 Q295.3969,487.8844 295.3969,487.5187 L295.3969,486.9844 L293.0156,486.9844 L293.0156,488.4562 L293.9063,488.4562 Q293.9063,488.0625 293.9813,487.95 Q294.1406,487.7062 294.4219,487.7062 Q294.6469,487.7062 294.7875,487.8656 Q294.9281,488.0156 294.9281,488.3812 L294.9281,489.5625 Q294.9281,489.8906 294.8531,490.0031 Q294.6937,490.2375 294.4219,490.2375 Q294.1406,490.2375 293.9813,489.9938 Q293.9063,489.8812 293.9063,489.4781 L293.0156,489.4781 Z " fill="#000000"/><text fill="#000000" font-family="sans-serif" font-size="8.4" lengthAdjust="spacing" textLength="42.6" x="302.1" y="492.4781">TaskStatus</text><line style="stroke:#181818;stroke-width:0.3;" x1="285.3" x2="345.9" y1="498.6" y2="498.6"/><text fill="#000000" font-family="sans-serif" font-size="8.4" lengthAdjust="spacing" textLength="31.2" x="288.3" y="510.0645">Pending</text><text fill="#000000" font-family="sans-serif" font-size="8.4" lengthAdjust="spacing" textLength="40.2" x="288.3" y="521.2371">Processed</text><text fill="#000000" font-family="sans-serif" font-size="8.4" lengthAdjust="spacing" textLength="31.2" x="288.3" y="532.4098">Planned</text><text fill="#000000" font-family="sans-serif" font-size="8.4" lengthAdjust="spacing" textLength="40.8" x="288.3" y="543.5824">Postponed</text><text fill="#000000" font-family="sans-serif" font-size="8.4" lengthAdjust="spacing" textLength="36" x="288.3" y="554.7551">Canceled</text><text fill="#000000" font-family="sans-serif" font-size="8.4" lengthAdjust="spacing" textLength="20.4" x="288.3" y="565.9277">Done</text><line style="stroke:#181818;stroke-width:0.3;" x1="285.3" x2="345.9" y1="570.4359" y2="570.4359"/></g><!--class TaskMapper--><g id="elem_TaskMapper"><rect codeLine="110" fill="#F1F1F1" height="62.318" id="TaskMapper" rx="1.5" ry="1.5" style="stroke:#181818;stroke-width:0.3;" width="181.8" x="636.3" y="194.4"/><ellipse cx="700.95" cy="204" fill="#ADD1B2" rx="6.6" ry="6.6" style="stroke:#181818;stroke-width:0.6;"/><path d="M702.6094,201.525 Q702.7031,201.3937 702.8156,201.3281 Q702.9281,201.2625 703.0594,201.2625 Q703.2844,201.2625 703.425,201.4219 Q703.5656,201.5719 703.5656,201.9375 L703.5656,202.8094 Q703.5656,203.175 703.425,203.3344 Q703.2844,203.4938 703.0594,203.4938 Q702.8531,203.4938 702.7312,203.3719 Q702.6094,203.2594 702.5437,202.95 Q702.5156,202.7344 702.4031,202.6219 Q702.2063,202.3969 701.8406,202.2656 Q701.475,202.1344 701.1,202.1344 Q700.6406,202.1344 700.2563,202.3312 Q699.8813,202.5281 699.5813,202.9781 Q699.2906,203.4281 699.2906,204.0469 L699.2906,204.7031 Q699.2906,205.4438 699.825,205.9406 Q700.3594,206.4281 701.3156,206.4281 Q701.8781,206.4281 702.2719,206.2781 Q702.5063,206.1844 702.7594,205.9219 Q702.9187,205.7625 703.0031,205.7156 Q703.0969,205.6688 703.2188,205.6688 Q703.4156,205.6688 703.5656,205.8281 Q703.725,205.9781 703.725,206.1844 Q703.725,206.3906 703.5188,206.6344 Q703.2188,206.9813 702.7406,207.1781 Q702.0938,207.45 701.3156,207.45 Q700.4063,207.45 699.6844,207.075 Q699.0938,206.775 698.6813,206.1375 Q698.2688,205.4906 698.2688,204.7219 L698.2688,204.0281 Q698.2688,203.2313 698.6344,202.5469 Q699.0094,201.8531 699.6656,201.4875 Q700.3219,201.1125 701.0625,201.1125 Q701.5031,201.1125 701.8875,201.2156 Q702.2813,201.3094 702.6094,201.525 Z " fill="#000000"/><text fill="#000000" font-family="sans-serif" font-size="8.4" lengthAdjust="spacing" textLength="47.4" x="713.25" y="207.4781">TaskMapper</text><line style="stroke:#181818;stroke-width:0.3;" x1="636.9" x2="817.5" y1="213.6" y2="213.6"/><text fill="#000000" font-family="sans-serif" font-size="8.4" lengthAdjust="spacing" textLength="174.6" x="639.9" y="225.0645">-List&lt;TaskDto&gt; associatedToDoEntriesListDto</text><line style="stroke:#181818;stroke-width:0.3;" x1="636.9" x2="817.5" y1="229.5727" y2="229.5727"/><text fill="#000000" font-family="sans-serif" font-size="8.4" lengthAdjust="spacing" textLength="137.4" x="639.9" y="241.0371">+toDTO(associatedToDoEntriesList)</text><text fill="#000000" font-family="sans-serif" font-size="8.4" lengthAdjust="spacing" textLength="45.6" x="639.9" y="252.2098">-toDTO(obj)</text></g><!--class GreenSpaceDto--><g id="elem_GreenSpaceDto"><rect codeLine="118" fill="#F1F1F1" height="84.6633" id="GreenSpaceDto" rx="1.5" ry="1.5" style="stroke:#181818;stroke-width:0.3;" width="178.8" x="710.4" y="485.1"/><ellipse cx="766.65" cy="494.7" fill="#ADD1B2" rx="6.6" ry="6.6" style="stroke:#181818;stroke-width:0.6;"/><path d="M768.3094,492.225 Q768.4031,492.0938 768.5156,492.0281 Q768.6281,491.9625 768.7594,491.9625 Q768.9844,491.9625 769.125,492.1219 Q769.2656,492.2719 769.2656,492.6375 L769.2656,493.5094 Q769.2656,493.875 769.125,494.0344 Q768.9844,494.1937 768.7594,494.1937 Q768.5531,494.1937 768.4313,494.0719 Q768.3094,493.9594 768.2438,493.65 Q768.2156,493.4344 768.1031,493.3219 Q767.9063,493.0969 767.5406,492.9656 Q767.175,492.8344 766.8,492.8344 Q766.3406,492.8344 765.9563,493.0313 Q765.5813,493.2281 765.2813,493.6781 Q764.9906,494.1281 764.9906,494.7469 L764.9906,495.4031 Q764.9906,496.1437 765.525,496.6406 Q766.0594,497.1281 767.0156,497.1281 Q767.5781,497.1281 767.9719,496.9781 Q768.2063,496.8844 768.4594,496.6219 Q768.6188,496.4625 768.7031,496.4156 Q768.7969,496.3688 768.9187,496.3688 Q769.1156,496.3688 769.2656,496.5281 Q769.425,496.6781 769.425,496.8844 Q769.425,497.0906 769.2188,497.3344 Q768.9187,497.6813 768.4406,497.8781 Q767.7937,498.15 767.0156,498.15 Q766.1062,498.15 765.3844,497.775 Q764.7937,497.475 764.3813,496.8375 Q763.9688,496.1906 763.9688,495.4219 L763.9688,494.7281 Q763.9688,493.9313 764.3344,493.2469 Q764.7094,492.5531 765.3656,492.1875 Q766.0219,491.8125 766.7625,491.8125 Q767.2031,491.8125 767.5875,491.9156 Q767.9812,492.0094 768.3094,492.225 Z " fill="#000000"/><text fill="#000000" font-family="sans-serif" font-size="8.4" lengthAdjust="spacing" textLength="61.2" x="778.95" y="498.1781">GreenSpaceDto</text><line style="stroke:#181818;stroke-width:0.3;" x1="711" x2="888.6" y1="504.3" y2="504.3"/><text fill="#000000" font-family="sans-serif" font-size="8.4" lengthAdjust="spacing" textLength="48.6" x="714" y="515.7645">-String name</text><text fill="#000000" font-family="sans-serif" font-size="8.4" lengthAdjust="spacing" textLength="43.8" x="714" y="526.9371">-String type</text><text fill="#000000" font-family="sans-serif" font-size="8.4" lengthAdjust="spacing" textLength="31.8" x="714" y="538.1098">-int area</text><text fill="#000000" font-family="sans-serif" font-size="8.4" lengthAdjust="spacing" textLength="58.2" x="714" y="549.2824">-String address</text><line style="stroke:#181818;stroke-width:0.3;" x1="711" x2="888.6" y1="553.7906" y2="553.7906"/><text fill="#000000" font-family="sans-serif" font-size="8.4" lengthAdjust="spacing" textLength="171.6" x="714" y="565.2551">+GreenSpaceDto(name, type, area, address)</text></g><!--class TaskDto--><g id="elem_TaskDto"><rect codeLine="127" fill="#F1F1F1" height="95.8359" id="TaskDto" rx="1.5" ry="1.5" style="stroke:#181818;stroke-width:0.3;" width="388.2" x="658.5" y="324.9"/><ellipse cx="834.15" cy="334.5" fill="#ADD1B2" rx="6.6" ry="6.6" style="stroke:#181818;stroke-width:0.6;"/><path d="M835.8094,332.025 Q835.9031,331.8938 836.0156,331.8281 Q836.1281,331.7625 836.2594,331.7625 Q836.4844,331.7625 836.625,331.9219 Q836.7656,332.0719 836.7656,332.4375 L836.7656,333.3094 Q836.7656,333.675 836.625,333.8344 Q836.4844,333.9938 836.2594,333.9938 Q836.0531,333.9938 835.9313,333.8719 Q835.8094,333.7594 835.7438,333.45 Q835.7156,333.2344 835.6031,333.1219 Q835.4063,332.8969 835.0406,332.7656 Q834.675,332.6344 834.3,332.6344 Q833.8406,332.6344 833.4563,332.8313 Q833.0813,333.0281 832.7813,333.4781 Q832.4906,333.9281 832.4906,334.5469 L832.4906,335.2031 Q832.4906,335.9437 833.025,336.4406 Q833.5594,336.9281 834.5156,336.9281 Q835.0781,336.9281 835.4719,336.7781 Q835.7063,336.6844 835.9594,336.4219 Q836.1188,336.2625 836.2031,336.2156 Q836.2969,336.1688 836.4187,336.1688 Q836.6156,336.1688 836.7656,336.3281 Q836.925,336.4781 836.925,336.6844 Q836.925,336.8906 836.7188,337.1344 Q836.4187,337.4813 835.9406,337.6781 Q835.2937,337.95 834.5156,337.95 Q833.6062,337.95 832.8844,337.575 Q832.2937,337.275 831.8813,336.6375 Q831.4688,335.9906 831.4688,335.2219 L831.4688,334.5281 Q831.4688,333.7313 831.8344,333.0469 Q832.2094,332.3531 832.8656,331.9875 Q833.5219,331.6125 834.2625,331.6125 Q834.7031,331.6125 835.0875,331.7156 Q835.4812,331.8094 835.8094,332.025 Z " fill="#000000"/><text fill="#000000" font-family="sans-serif" font-size="8.4" lengthAdjust="spacing" textLength="31.8" x="846.45" y="337.9781">TaskDto</text><line style="stroke:#181818;stroke-width:0.3;" x1="659.1" x2="1046.1" y1="344.1" y2="344.1"/><text fill="#000000" font-family="sans-serif" font-size="8.4" lengthAdjust="spacing" textLength="40.8" x="662.1" y="355.5645">-String title</text><text fill="#000000" font-family="sans-serif" font-size="8.4" lengthAdjust="spacing" textLength="69" x="662.1" y="366.7371">-String description</text><text fill="#000000" font-family="sans-serif" font-size="8.4" lengthAdjust="spacing" textLength="94.8" x="662.1" y="377.9098">-String degreeOfUrgency</text><text fill="#000000" font-family="sans-serif" font-size="8.4" lengthAdjust="spacing" textLength="81" x="662.1" y="389.0824">-int expectedDuration</text><text fill="#000000" font-family="sans-serif" font-size="8.4" lengthAdjust="spacing" textLength="86.4" x="662.1" y="400.2551">-Calendar startingDate</text><line style="stroke:#181818;stroke-width:0.3;" x1="659.1" x2="1046.1" y1="404.7633" y2="404.7633"/><text fill="#000000" font-family="sans-serif" font-size="8.4" lengthAdjust="spacing" textLength="381" x="662.1" y="416.2277">+TaskDto(title, description, degreeOfUrgency, expectedDuration, selectedGreenSpace, startingDate)</text></g><!--reverse link Task to DegreeOfUrgency--><g id="link_Task_DegreeOfUrgency"><path codeLine="139" d="M481.6095,440.8031 C491.8515,462.6071 498.984,477.792 507.588,496.11 " fill="none" id="Task-backto-DegreeOfUrgency" style="stroke:#181818;stroke-width:0.6;"/><ellipse cx="479.5688" cy="436.4586" fill="#FFFFFF" rx="4.8" ry="4.8" style="stroke:#181818;stroke-width:0.6;"/><line style="stroke:#181818;stroke-width:0.6;" x1="481.6095" x2="477.528" y1="440.8031" y2="432.114"/><line style="stroke:#181818;stroke-width:0.6;" x1="475.2242" x2="483.9133" y1="438.4993" y2="434.4178"/></g><!--reverse link Task to TaskStatus--><g id="link_Task_TaskStatus"><path codeLine="140" d="M392.2691,439.2371 C370.7591,463.7291 357,479.4 357,479.4 C357,479.4 352.542,484.506 346.554,491.364 " fill="none" id="Task-backto-TaskStatus" style="stroke:#181818;stroke-width:0.6;"/><ellipse cx="395.4366" cy="435.6306" fill="#FFFFFF" rx="4.8" ry="4.8" style="stroke:#181818;stroke-width:0.6;"/><line style="stroke:#181818;stroke-width:0.6;" x1="392.2691" x2="398.604" y1="439.2371" y2="432.024"/><line style="stroke:#181818;stroke-width:0.6;" x1="391.83" x2="399.0431" y1="432.4631" y2="438.798"/></g><!--link Repositories to Repositories--><g id="link_Repositories_Repositories"><path codeLine="142" d="M144.768,215.616 C156.888,216.666 165.6,219.996 165.6,225.6 C165.6,231.204 160.4746,234.2233 148.3546,235.2733 " fill="none" id="Repositories-to-Repositories" style="stroke:#181818;stroke-width:0.6;"/><polygon fill="#181818" points="144.768,235.584,150.355,237.509,147.7568,235.3251,149.9407,232.7269,144.768,235.584" style="stroke:#181818;stroke-width:0.6;"/><text fill="#000000" font-family="sans-serif" font-size="7.8" lengthAdjust="spacing" textLength="29.4" x="169.2" y="228.917">instance</text></g><!--link ApplicationSession to ApplicationSession--><g id="link_ApplicationSession_ApplicationSession"><path codeLine="143" d="M320.196,357.522 C332.1,358.434 341.1,363.558 341.1,372.9 C341.1,382.242 335.6895,387.091 323.7855,388.003 " fill="none" id="ApplicationSession-to-ApplicationSession" style="stroke:#181818;stroke-width:0.6;"/><polygon fill="#181818" points="320.196,388.278,325.7636,390.2585,323.1872,388.0488,325.3969,385.4725,320.196,388.278" style="stroke:#181818;stroke-width:0.6;"/><text fill="#000000" font-family="sans-serif" font-size="7.8" lengthAdjust="spacing" textLength="29.4" x="344.7" y="376.217">instance</text></g><!--link AddEntryAgendaUI to AddEntryAgendaController--><g id="link_AddEntryAgendaUI_AddEntryAgendaController"><path codeLine="145" d="M484.35,63 C483.612,63 483.198,63 483.198,63 C483.198,63 467.676,63 453.93,63 " fill="none" id="AddEntryAgendaUI-to-AddEntryAgendaController" style="stroke:#181818;stroke-width:0.6;stroke-dasharray:7.0,7.0;"/><polygon fill="#181818" points="450.33,63,455.73,65.4,453.33,63,455.73,60.6,450.33,63" style="stroke:#181818;stroke-width:0.6;"/></g><!--link AddEntryAgendaController to Repositories--><g id="link_AddEntryAgendaController_Repositories"><path codeLine="147" d="M329.478,86.682 C274.788,107.544 202.8,135 202.8,135 C202.8,135 168.304,161.6699 135.922,186.7079 " fill="none" id="AddEntryAgendaController-to-Repositories" style="stroke:#181818;stroke-width:0.6;stroke-dasharray:7.0,7.0;"/><polygon fill="#181818" points="133.074,188.91,138.814,187.5055,135.4473,187.0749,135.8779,183.7083,133.074,188.91" style="stroke:#181818;stroke-width:0.6;"/><text fill="#000000" font-family="sans-serif" font-size="7.8" lengthAdjust="spacing" textLength="40.2" x="243.6" y="127.817">repositories</text></g><!--link Repositories to Agenda--><g id="link_Repositories_Agenda"><path codeLine="149" d="M144.702,225.6 C152.568,225.6 157.998,225.6 157.998,225.6 C157.998,225.6 188.436,225.6 209.574,225.6 " fill="none" id="Repositories-to-Agenda" style="stroke:#181818;stroke-width:0.6;"/><polygon fill="#181818" points="213.174,225.6,207.774,223.2,210.174,225.6,207.774,228,213.174,225.6" style="stroke:#181818;stroke-width:0.6;"/><text fill="#000000" font-family="sans-serif" font-size="7.8" lengthAdjust="spacing" textLength="4.2" x="204.3269" y="223.5548">1</text></g><!--link Repositories to ToDoList--><g id="link_Repositories_ToDoList"><path codeLine="150" d="M132.396,188.958 C168.708,160.026 213.3,124.5 213.3,124.5 C213.3,124.5 389.1,124.5 389.1,124.5 C389.1,124.5 399.6,135 399.6,135 C399.6,135 424.9946,161.0887 449.4146,186.1687 " fill="none" id="Repositories-to-ToDoList" style="stroke:#181818;stroke-width:0.6;"/><polygon fill="#181818" points="451.926,188.748,449.8784,183.2048,449.8331,186.5986,446.4393,186.5533,451.926,188.748" style="stroke:#181818;stroke-width:0.6;"/><text fill="#000000" font-family="sans-serif" font-size="7.8" lengthAdjust="spacing" textLength="4.2" x="443.5726" y="182.3701">1</text></g><!--link AddEntryAgendaController to ApplicationSession--><g id="link_AddEntryAgendaController_ApplicationSession"><path codeLine="152" d="M450.36,99.558 C464.028,107.7 474.6,114 474.6,114 C474.6,114 575.4,135 575.4,135 C575.4,135 575.4,276.6 575.4,276.6 C575.4,276.6 378,286.8 378,286.8 C378,286.8 338.1603,319.8073 307.6983,345.0433 " fill="none" id="AddEntryAgendaController-to-ApplicationSession" style="stroke:#181818;stroke-width:0.6;stroke-dasharray:7.0,7.0;"/><polygon fill="#181818" points="304.926,347.34,310.6155,345.7432,307.2362,345.4261,307.5533,342.0469,304.926,347.34" style="stroke:#181818;stroke-width:0.6;"/></g><!--link AddEntryAgendaController to UserSession--><g id="link_AddEntryAgendaController_UserSession"><path codeLine="153" d="M329.502,75.228 C224.262,95.46 18.6,135 18.6,135 C18.6,135 18.6,276.6 18.6,276.6 C18.6,276.6 161.118,445.431 210.906,504.417 " fill="none" id="AddEntryAgendaController-to-UserSession" style="stroke:#181818;stroke-width:0.6;stroke-dasharray:7.0,7.0;"/><polygon fill="#181818" points="213.228,507.168,211.579,501.4934,211.293,504.8755,207.9109,504.5895,213.228,507.168" style="stroke:#181818;stroke-width:0.6;"/></g><!--link AddEntryAgendaController to ToDoList--><g id="link_AddEntryAgendaController_ToDoList"><path codeLine="154" d="M411.828,99.618 C427.926,126.192 447.8826,159.119 464.0046,185.729 " fill="none" id="AddEntryAgendaController-to-ToDoList" style="stroke:#181818;stroke-width:0.6;stroke-dasharray:7.0,7.0;"/><polygon fill="#181818" points="465.87,188.808,465.1245,182.9459,464.3155,186.2422,461.0192,185.4332,465.87,188.808" style="stroke:#181818;stroke-width:0.6;"/><text fill="#000000" font-family="sans-serif" font-size="7.8" lengthAdjust="spacing" textLength="28.8" x="430.2" y="127.817">toDoList</text></g><!--link AddEntryAgendaController to Agenda--><g id="link_AddEntryAgendaController_Agenda"><path codeLine="155" d="M370.182,99.618 C353.418,130.092 331.5552,169.8258 316.7652,196.7118 " fill="none" id="AddEntryAgendaController-to-Agenda" style="stroke:#181818;stroke-width:0.6;stroke-dasharray:7.0,7.0;"/><polygon fill="#181818" points="315.03,199.866,319.7356,196.2914,316.476,197.2375,315.5299,193.9779,315.03,199.866" style="stroke:#181818;stroke-width:0.6;"/><text fill="#000000" font-family="sans-serif" font-size="7.8" lengthAdjust="spacing" textLength="25.2" x="358.8" y="127.817">agenda</text></g><!--link AddEntryAgendaController to TaskMapper--><g id="link_AddEntryAgendaController_TaskMapper"><path codeLine="156" d="M450.36,99.558 C464.028,107.7 474.6,114 474.6,114 C474.6,114 613.2,118.8 613.2,118.8 C613.2,118.8 657.9239,160.4641 691.5899,191.8261 " fill="none" id="AddEntryAgendaController-to-TaskMapper" style="stroke:#181818;stroke-width:0.6;stroke-dasharray:7.0,7.0;"/><polygon fill="#181818" points="694.224,194.28,691.9087,188.8431,692.0289,192.2351,688.6369,192.3553,694.224,194.28" style="stroke:#181818;stroke-width:0.6;"/></g><!--link ToDoList to Task--><g id="link_ToDoList_Task"><path codeLine="158" d="M478.458,262.314 C474.456,277.776 470.582,292.7528 466.094,310.0928 " fill="none" id="ToDoList-to-Task" style="stroke:#181818;stroke-width:0.6;"/><polygon fill="#181818" points="465.192,313.578,468.8685,308.9516,465.9437,310.6737,464.2216,307.7489,465.192,313.578" style="stroke:#181818;stroke-width:0.6;"/><text fill="#000000" font-family="sans-serif" font-size="7.8" lengthAdjust="spacing" textLength="4.2" x="472.8635" y="275.82">1</text><text fill="#000000" font-family="sans-serif" font-size="7.8" lengthAdjust="spacing" textLength="3" x="463.1975" y="307.0711">*</text></g><!--link Agenda to Task--><g id="link_Agenda_Task"><path codeLine="159" d="M332.88,251.196 C354.036,267.894 378,286.8 378,286.8 C378,286.8 385.7013,295.9441 398.2653,310.8661 " fill="none" id="Agenda-to-Task" style="stroke:#181818;stroke-width:0.6;"/><polygon fill="#181818" points="400.584,313.62,398.9419,307.9434,398.6518,311.3251,395.2701,311.035,400.584,313.62" style="stroke:#181818;stroke-width:0.6;"/><text fill="#000000" font-family="sans-serif" font-size="7.8" lengthAdjust="spacing" textLength="4.2" x="333.3943" y="264.5075">1</text><text fill="#000000" font-family="sans-serif" font-size="7.8" lengthAdjust="spacing" textLength="3" x="393.8449" y="307.1162">*</text></g><!--link Task to GreenSpace--><g id="link_Task_GreenSpace"><path codeLine="161" d="M435.546,432.114 C431.712,447.666 428.4819,460.7727 424.8099,475.6647 " fill="none" id="Task-to-GreenSpace" style="stroke:#181818;stroke-width:0.6;"/><polygon fill="#181818" points="423.948,479.16,427.571,474.4916,424.6662,476.2472,422.9106,473.3425,423.948,479.16" style="stroke:#181818;stroke-width:0.6;"/><text fill="#000000" font-family="sans-serif" font-size="7.8" lengthAdjust="spacing" textLength="3" x="431.3744" y="445.2612">*</text><text fill="#000000" font-family="sans-serif" font-size="7.8" lengthAdjust="spacing" textLength="4.2" x="420.6073" y="472.6415">1</text></g><!--link TaskDto to GreenSpaceDto--><g id="link_TaskDto_GreenSpaceDto"><path codeLine="162" d="M836.694,421.05 C829.77,441.762 823.2,461.4 823.2,461.4 C823.2,461.4 820.5484,468.8043 815.9644,481.6203 " fill="none" id="TaskDto-to-GreenSpaceDto" style="stroke:#181818;stroke-width:0.6;"/><polygon fill="#181818" points="814.752,485.01,818.8304,480.7337,815.7623,482.1853,814.3108,479.1172,814.752,485.01" style="stroke:#181818;stroke-width:0.6;"/><text fill="#000000" font-family="sans-serif" font-size="7.8" lengthAdjust="spacing" textLength="3" x="832.2526" y="433.8908">*</text><text fill="#000000" font-family="sans-serif" font-size="7.8" lengthAdjust="spacing" textLength="4.2" x="811.8774" y="478.3353">1</text></g><!--link TaskMapper to TaskDto--><g id="link_TaskMapper_TaskDto"><path codeLine="164" d="M753.486,256.83 C770.364,276.492 790.2853,299.6982 809.4373,322.0122 " fill="none" id="TaskMapper-to-TaskDto" style="stroke:#181818;stroke-width:0.6;stroke-dasharray:7.0,7.0;"/><polygon fill="#181818" points="811.782,324.744,810.0862,319.0832,809.8281,322.4675,806.4438,322.2095,811.782,324.744" style="stroke:#181818;stroke-width:0.6;"/></g><!--link TaskMapper to Task--><g id="link_TaskMapper_Task"><path codeLine="165" d="M669.09,256.83 C622.968,281.136 561.8387,313.3515 514.8227,338.1315 " fill="none" id="TaskMapper-to-Task" style="stroke:#181818;stroke-width:0.6;stroke-dasharray:7.0,7.0;"/><polygon fill="#181818" points="511.638,339.81,517.5341,339.4154,514.2919,338.4112,515.2961,335.169,511.638,339.81" style="stroke:#181818;stroke-width:0.6;"/></g><!--link TaskMapper to GreenSpaceDto--><g id="link_TaskMapper_GreenSpaceDto"><path codeLine="166" d="M687.138,256.854 C667.494,271.884 648,286.8 648,286.8 C648,286.8 648,432 648,432 C648,432 689.2206,457.7409 729.9426,483.1749 " fill="none" id="TaskMapper-to-GreenSpaceDto" style="stroke:#181818;stroke-width:0.6;stroke-dasharray:7.0,7.0;"/><polygon fill="#181818" points="732.996,485.082,729.6873,480.1858,730.4515,483.4928,727.1446,484.257,732.996,485.082" style="stroke:#181818;stroke-width:0.6;"/></g><!--link ApplicationSession to UserSession--><g id="link_ApplicationSession_UserSession"><path codeLine="168" d="M267.468,398.472 C258.552,428.844 244.7041,476.0298 236.5681,503.7438 " fill="none" id="ApplicationSession-to-UserSession" style="stroke:#181818;stroke-width:0.6;"/><polygon fill="#181818" points="235.554,507.198,239.3779,502.6927,236.399,504.3195,234.7723,501.3406,235.554,507.198" style="stroke:#181818;stroke-width:0.6;"/><text fill="#000000" font-family="sans-serif" font-size="7.8" lengthAdjust="spacing" textLength="43.2" x="252.6" y="459.017">userSession</text><text fill="#000000" font-family="sans-serif" font-size="7.8" lengthAdjust="spacing" textLength="4.2" x="232.0734" y="500.4732">1</text></g><!--SRC=[hLLBRjim4Dtp54GsaHivQBT5OI2mWjP0WWIrVG16ciXiA58WAQIkqRjtA54IzR5He8qN4UVxvd66SstUk2oPPWKjb5JfGQi2gDKLa5vJilIDvR2rHm5KGsgPp4LeO0uiK-zSvlIL2HDg19TWZoNGKecZEv3h6QNILf70AnNCc3jhDN-fB6nI9RVy5z2FX5mBUBNKAgfvVh0qumuELvAGvmOatM_eYTG1w5sMtKkhZtSvo8pjD-H4o6_yTRPhXMeb1EXvbrwFhXJ_RiuQH0jla8FTgKGzS6ET8GSJghOW431aEsRU8jugc0yQ6SkqHHuJPc4nn9geWd5vwixVeLI6MwMFBVPEWZaztkL060BPICmbKuWMzFFGSr96wDQK7JbiFcjhrMLqXo-klXM5Xe1QFL6YiqevSsHWYFkHwIoHW1I82snse1gOtQNDyXjJ4xYlXPAmy2ZHFffH3kxZKMKWJbt2iXGyPQuLjs2CwyWsEUQqF1rotfUmhhH6chnJIEpUW1x7GWSdldSyDBRU-Ai6a5iSLEZkOOkSuKHALi1GuaREIxYqb6bWGmCiNsFYeJ0tHPtM8pamqoFnzzBt178snc6v5ICW6PXKyxAUtnuF_2nhufDAiq2rPiBTgQRX7Nemt3oZ3cKTitFm6atgxd9mkwt6O4C5iIV3I41M1KqWHwwVNlSQUomz-Z8Vr7lz_n4oNXNrvpTyeJelbmU3swgTJ0-u-TOgHRuXQqw2ITb-AsDBrPxMhdc4FoGehZiox4bMbkuj2wwX4Ks7Cx7gmWYYrfDYLR9xYiuQjXFJcAcN7ul1cxLxEaqQrCN-lprwCumUkN1n7IAkFUFMUjIYCqZ-gaixnR0J_gc5FPwe1X27IUDnedWIlt_AUY9YEbqcMBtBGs-MoqaVTugWLKcu6EXoDLWKk3UuVz38zFbprZFIm8UCrpEzNPtVl-ISndcDOEbmdKrgkFfqrUw7ELMtpoval9shxR9z-9fVD6ppOnssXN8PIIr4SzOKTJbw_oIGBfChU-dA_t3LFDq-v4JUD8axBZrRmTxn7Nn6xMQDzDaxC4u-8nxBHe7c-isd38X6Jgg0zZy0]--></g></svg>