<?xml version="1.0" encoding="us-ascii" standalone="no"?><svg xmlns="http://www.w3.org/2000/svg" xmlns:xlink="http://www.w3.org/1999/xlink" contentStyleType="text/css" height="454px" preserveAspectRatio="none" style="width:401px;height:454px;background:#FFFFFF;" version="1.1" viewBox="0 0 401 454" width="401px" zoomAndPan="magnify"><defs/><g><text fill="#000000" font-family="sans-serif" font-size="14" font-weight="bold" lengthAdjust="spacing" textLength="300" x="49.5" y="28.5352">System Sequence Diagram (SSD) - US 026</text><rect fill="#FFFFFF" height="235.4844" style="stroke:#181818;stroke-width:1.0;" width="10" x="18" y="128.9766"/><rect fill="#FFFFFF" height="29.3105" style="stroke:#181818;stroke-width:1.0;" width="10" x="357" y="150.2871"/><rect fill="#FFFFFF" height="29.3105" style="stroke:#181818;stroke-width:1.0;" width="10" x="357" y="208.9082"/><rect fill="#FFFFFF" height="29.3105" style="stroke:#181818;stroke-width:1.0;" width="10" x="357" y="267.5293"/><rect fill="#FFFFFF" height="29.3105" style="stroke:#181818;stroke-width:1.0;" width="10" x="357" y="326.1504"/><line style="stroke:#181818;stroke-width:0.5;stroke-dasharray:5.0,5.0;" x1="23" x2="23" y1="118.9766" y2="373.4609"/><line style="stroke:#181818;stroke-width:0.5;stroke-dasharray:5.0,5.0;" x1="362" x2="362" y1="118.9766" y2="373.4609"/><text fill="#000000" font-family="sans-serif" font-size="14" lengthAdjust="spacing" textLength="30" x="5" y="116.0234">GSM</text><ellipse cx="23" cy="50.9883" fill="#E3E3E3" rx="8" ry="8" style="stroke:#181818;stroke-width:0.5;"/><path d="M23,58.9883 L23,85.9883 M10,66.9883 L36,66.9883 M23,85.9883 L10,100.9883 M23,85.9883 L36,100.9883 " fill="none" style="stroke:#181818;stroke-width:0.5;"/><text fill="#000000" font-family="sans-serif" font-size="14" lengthAdjust="spacing" textLength="30" x="5" y="385.9961">GSM</text><ellipse cx="23" cy="397.4492" fill="#E3E3E3" rx="8" ry="8" style="stroke:#181818;stroke-width:0.5;"/><path d="M23,405.4492 L23,432.4492 M10,413.4492 L36,413.4492 M23,432.4492 L10,447.4492 M23,432.4492 L36,447.4492 " fill="none" style="stroke:#181818;stroke-width:0.5;"/><rect fill="#E3E3E3" height="30.4883" rx="2.5" ry="2.5" style="stroke:#181818;stroke-width:0.5;" width="66" x="329" y="87.4883"/><text fill="#000000" font-family="sans-serif" font-size="14" lengthAdjust="spacing" textLength="52" x="336" y="108.0234">:System</text><rect fill="#E3E3E3" height="30.4883" rx="2.5" ry="2.5" style="stroke:#181818;stroke-width:0.5;" width="66" x="329" y="372.4609"/><text fill="#000000" font-family="sans-serif" font-size="14" lengthAdjust="spacing" textLength="52" x="336" y="392.9961">:System</text><rect fill="#FFFFFF" height="235.4844" style="stroke:#181818;stroke-width:1.0;" width="10" x="18" y="128.9766"/><rect fill="#FFFFFF" height="29.3105" style="stroke:#181818;stroke-width:1.0;" width="10" x="357" y="150.2871"/><rect fill="#FFFFFF" height="29.3105" style="stroke:#181818;stroke-width:1.0;" width="10" x="357" y="208.9082"/><rect fill="#FFFFFF" height="29.3105" style="stroke:#181818;stroke-width:1.0;" width="10" x="357" y="267.5293"/><rect fill="#FFFFFF" height="29.3105" style="stroke:#181818;stroke-width:1.0;" width="10" x="357" y="326.1504"/><polygon fill="#181818" points="345,146.2871,355,150.2871,345,154.2871,349,150.2871" style="stroke:#181818;stroke-width:1.0;"/><line style="stroke:#181818;stroke-width:1.0;" x1="28" x2="351" y1="150.2871" y2="150.2871"/><text fill="#000000" font-family="sans-serif" font-size="13" font-weight="bold" lengthAdjust="spacing" textLength="9" x="35" y="145.5449">1</text><text fill="#000000" font-family="sans-serif" font-size="13" lengthAdjust="spacing" textLength="297" x="48" y="145.5449">selects "Assign  vehicles to the Agenda" option</text><polygon fill="#181818" points="39,175.5977,29,179.5977,39,183.5977,35,179.5977" style="stroke:#181818;stroke-width:1.0;"/><line style="stroke:#181818;stroke-width:1.0;stroke-dasharray:2.0,2.0;" x1="33" x2="361" y1="179.5977" y2="179.5977"/><text fill="#000000" font-family="sans-serif" font-size="13" font-weight="bold" lengthAdjust="spacing" textLength="9" x="45" y="174.8555">2</text><text fill="#000000" font-family="sans-serif" font-size="13" lengthAdjust="spacing" textLength="130" x="58" y="174.8555">request vehicle plate</text><polygon fill="#181818" points="345,204.9082,355,208.9082,345,212.9082,349,208.9082" style="stroke:#181818;stroke-width:1.0;"/><line style="stroke:#181818;stroke-width:1.0;" x1="28" x2="351" y1="208.9082" y2="208.9082"/><text fill="#000000" font-family="sans-serif" font-size="13" font-weight="bold" lengthAdjust="spacing" textLength="9" x="35" y="204.166">3</text><text fill="#000000" font-family="sans-serif" font-size="13" lengthAdjust="spacing" textLength="122" x="48" y="204.166">enters vehicle plate</text><polygon fill="#181818" points="39,234.2188,29,238.2188,39,242.2188,35,238.2188" style="stroke:#181818;stroke-width:1.0;"/><line style="stroke:#181818;stroke-width:1.0;stroke-dasharray:2.0,2.0;" x1="33" x2="361" y1="238.2188" y2="238.2188"/><text fill="#000000" font-family="sans-serif" font-size="13" font-weight="bold" lengthAdjust="spacing" textLength="9" x="45" y="233.4766">4</text><text fill="#000000" font-family="sans-serif" font-size="13" lengthAdjust="spacing" textLength="82" x="58" y="233.4766">asks for date</text><polygon fill="#181818" points="345,263.5293,355,267.5293,345,271.5293,349,267.5293" style="stroke:#181818;stroke-width:1.0;"/><line style="stroke:#181818;stroke-width:1.0;" x1="28" x2="351" y1="267.5293" y2="267.5293"/><text fill="#000000" font-family="sans-serif" font-size="13" font-weight="bold" lengthAdjust="spacing" textLength="9" x="35" y="262.7871">5</text><text fill="#000000" font-family="sans-serif" font-size="13" lengthAdjust="spacing" textLength="70" x="48" y="262.7871">enters date</text><polygon fill="#181818" points="39,292.8398,29,296.8398,39,300.8398,35,296.8398" style="stroke:#181818;stroke-width:1.0;"/><line style="stroke:#181818;stroke-width:1.0;" x1="33" x2="361" y1="296.8398" y2="296.8398"/><text fill="#000000" font-family="sans-serif" font-size="13" font-weight="bold" lengthAdjust="spacing" textLength="9" x="45" y="292.0977">6</text><text fill="#000000" font-family="sans-serif" font-size="13" lengthAdjust="spacing" textLength="130" x="58" y="292.0977">asks to validate data</text><polygon fill="#181818" points="345,322.1504,355,326.1504,345,330.1504,349,326.1504" style="stroke:#181818;stroke-width:1.0;"/><line style="stroke:#181818;stroke-width:1.0;stroke-dasharray:2.0,2.0;" x1="28" x2="351" y1="326.1504" y2="326.1504"/><text fill="#000000" font-family="sans-serif" font-size="13" font-weight="bold" lengthAdjust="spacing" textLength="9" x="35" y="321.4082">7</text><text fill="#000000" font-family="sans-serif" font-size="13" lengthAdjust="spacing" textLength="87" x="48" y="321.4082">confirms data</text><polygon fill="#181818" points="39,351.4609,29,355.4609,39,359.4609,35,355.4609" style="stroke:#181818;stroke-width:1.0;"/><line style="stroke:#181818;stroke-width:1.0;" x1="33" x2="361" y1="355.4609" y2="355.4609"/><text fill="#000000" font-family="sans-serif" font-size="13" font-weight="bold" lengthAdjust="spacing" textLength="9" x="45" y="350.7188">8</text><text fill="#000000" font-family="sans-serif" font-size="13" lengthAdjust="spacing" textLength="158" x="58" y="350.7188">shows operation success</text><!--SRC=[jLF1QiCm3BtdAqHEsw4mTjYXXq6XiDDEPX-WEMfYwjYPfQJqxwUaJLUwfGsClai4bfxUUuvvwqA32MkeOuYsIh4caDHIngUJ1kqMIpAozmI9h60e_Na3LrZ4dGibRD0pPPauqLQpPw4Q37sr52p1sc7PjpyOitw41NmOU7f-oJ9i9OQs_gIajPMO87ypxpaWWtuptI7EkWQ3GBuya0w7XtAOSHqA3TqPABI0nUknOGbCNbKpv2jcLmQ0ZYfdFJ581Aa8LYM50dE8ZRWO1eeJwRW5HXnjBNI1xbbg8kgFPII5nklOJxkYe4iskC25O0f2YQymZhZ5Eo4PUSkmqQ2BddXgweh-coFp31PJlcPWflK_SpYFGN-13hthfVHwS9wtsrVw3mnXdQLbOzYuLFD17zm1TpGp7JzNSSVwvYXX_-o0Msk9-KxBVztODm00]--></g></svg>