<?xml version="1.0" encoding="us-ascii" standalone="no"?><svg xmlns="http://www.w3.org/2000/svg" xmlns:xlink="http://www.w3.org/1999/xlink" contentStyleType="text/css" height="461px" preserveAspectRatio="none" style="width:467px;height:461px;background:#FFFFFF;" version="1.1" viewBox="0 0 467 461" width="467px" zoomAndPan="magnify"><defs/><g><text fill="#000000" font-family="sans-serif" font-size="14" font-weight="bold" lengthAdjust="spacing" textLength="295" x="85" y="28.5352">System Sequence Diagram (SSD) - US026</text><rect fill="#FFFFFF" height="176.8633" style="stroke:#181818;stroke-width:1.0;" width="10" x="33" y="161.9531"/><rect fill="#FFFFFF" height="29.3105" style="stroke:#181818;stroke-width:1.0;" width="10" x="423" y="183.2637"/><rect fill="#FFFFFF" height="29.3105" style="stroke:#181818;stroke-width:1.0;" width="10" x="423" y="241.8848"/><rect fill="#FFFFFF" height="29.3105" style="stroke:#181818;stroke-width:1.0;" width="10" x="423" y="300.5059"/><line style="stroke:#181818;stroke-width:0.5;stroke-dasharray:5.0,5.0;" x1="38" x2="38" y1="151.9531" y2="347.8164"/><line style="stroke:#181818;stroke-width:0.5;stroke-dasharray:5.0,5.0;" x1="428" x2="428" y1="151.9531" y2="347.8164"/><text fill="#000000" font-family="sans-serif" font-size="14" lengthAdjust="spacing" textLength="41" x="14.5" y="116.0234">Green</text><text fill="#000000" font-family="sans-serif" font-size="14" lengthAdjust="spacing" textLength="47" x="11.5" y="132.5117">Spaces</text><text fill="#000000" font-family="sans-serif" font-size="14" lengthAdjust="spacing" textLength="60" x="5" y="149">Manager</text><ellipse cx="38" cy="50.9883" fill="#E3E3E3" rx="8" ry="8" style="stroke:#181818;stroke-width:0.5;"/><path d="M38,58.9883 L38,85.9883 M25,66.9883 L51,66.9883 M38,85.9883 L25,100.9883 M38,85.9883 L51,100.9883 " fill="none" style="stroke:#181818;stroke-width:0.5;"/><text fill="#000000" font-family="sans-serif" font-size="14" lengthAdjust="spacing" textLength="41" x="14.5" y="360.3516">Green</text><text fill="#000000" font-family="sans-serif" font-size="14" lengthAdjust="spacing" textLength="47" x="11.5" y="376.8398">Spaces</text><text fill="#000000" font-family="sans-serif" font-size="14" lengthAdjust="spacing" textLength="60" x="5" y="393.3281">Manager</text><ellipse cx="38" cy="404.7813" fill="#E3E3E3" rx="8" ry="8" style="stroke:#181818;stroke-width:0.5;"/><path d="M38,412.7813 L38,439.7813 M25,420.7813 L51,420.7813 M38,439.7813 L25,454.7813 M38,439.7813 L51,454.7813 " fill="none" style="stroke:#181818;stroke-width:0.5;"/><rect fill="#E3E3E3" height="30.4883" rx="2.5" ry="2.5" style="stroke:#181818;stroke-width:0.5;" width="66" x="395" y="120.4648"/><text fill="#000000" font-family="sans-serif" font-size="14" lengthAdjust="spacing" textLength="52" x="402" y="141">:System</text><rect fill="#E3E3E3" height="30.4883" rx="2.5" ry="2.5" style="stroke:#181818;stroke-width:0.5;" width="66" x="395" y="346.8164"/><text fill="#000000" font-family="sans-serif" font-size="14" lengthAdjust="spacing" textLength="52" x="402" y="367.3516">:System</text><rect fill="#FFFFFF" height="176.8633" style="stroke:#181818;stroke-width:1.0;" width="10" x="33" y="161.9531"/><rect fill="#FFFFFF" height="29.3105" style="stroke:#181818;stroke-width:1.0;" width="10" x="423" y="183.2637"/><rect fill="#FFFFFF" height="29.3105" style="stroke:#181818;stroke-width:1.0;" width="10" x="423" y="241.8848"/><rect fill="#FFFFFF" height="29.3105" style="stroke:#181818;stroke-width:1.0;" width="10" x="423" y="300.5059"/><polygon fill="#181818" points="411,179.2637,421,183.2637,411,187.2637,415,183.2637" style="stroke:#181818;stroke-width:1.0;"/><line style="stroke:#181818;stroke-width:1.0;" x1="43" x2="417" y1="183.2637" y2="183.2637"/><text fill="#000000" font-family="sans-serif" font-size="13" font-weight="bold" lengthAdjust="spacing" textLength="9" x="50" y="178.5215">1</text><text fill="#000000" font-family="sans-serif" font-size="13" lengthAdjust="spacing" textLength="317" x="63" y="178.5215">asks to assign vehicle(s) to an entry in the Agenda</text><polygon fill="#181818" points="54,208.5742,44,212.5742,54,216.5742,50,212.5742" style="stroke:#181818;stroke-width:1.0;"/><line style="stroke:#181818;stroke-width:1.0;stroke-dasharray:2.0,2.0;" x1="48" x2="427" y1="212.5742" y2="212.5742"/><text fill="#000000" font-family="sans-serif" font-size="13" font-weight="bold" lengthAdjust="spacing" textLength="9" x="60" y="207.832">2</text><text fill="#000000" font-family="sans-serif" font-size="13" lengthAdjust="spacing" textLength="341" x="73" y="207.832">shows entries from the Agenda and asks to select one</text><polygon fill="#181818" points="411,237.8848,421,241.8848,411,245.8848,415,241.8848" style="stroke:#181818;stroke-width:1.0;"/><line style="stroke:#181818;stroke-width:1.0;" x1="43" x2="417" y1="241.8848" y2="241.8848"/><text fill="#000000" font-family="sans-serif" font-size="13" font-weight="bold" lengthAdjust="spacing" textLength="9" x="50" y="237.1426">3</text><text fill="#000000" font-family="sans-serif" font-size="13" lengthAdjust="spacing" textLength="99" x="63" y="237.1426">selects an entry</text><polygon fill="#181818" points="54,267.1953,44,271.1953,54,275.1953,50,271.1953" style="stroke:#181818;stroke-width:1.0;"/><line style="stroke:#181818;stroke-width:1.0;stroke-dasharray:2.0,2.0;" x1="48" x2="427" y1="271.1953" y2="271.1953"/><text fill="#000000" font-family="sans-serif" font-size="13" font-weight="bold" lengthAdjust="spacing" textLength="9" x="60" y="266.4531">4</text><text fill="#000000" font-family="sans-serif" font-size="13" lengthAdjust="spacing" textLength="343" x="73" y="266.4531">shows Vehicles list and asks to select desired vehicles</text><polygon fill="#181818" points="411,296.5059,421,300.5059,411,304.5059,415,300.5059" style="stroke:#181818;stroke-width:1.0;"/><line style="stroke:#181818;stroke-width:1.0;" x1="43" x2="417" y1="300.5059" y2="300.5059"/><text fill="#000000" font-family="sans-serif" font-size="13" font-weight="bold" lengthAdjust="spacing" textLength="9" x="50" y="295.7637">5</text><text fill="#000000" font-family="sans-serif" font-size="13" lengthAdjust="spacing" textLength="107" x="63" y="295.7637">selects vehicle(s)</text><polygon fill="#181818" points="54,325.8164,44,329.8164,54,333.8164,50,329.8164" style="stroke:#181818;stroke-width:1.0;"/><line style="stroke:#181818;stroke-width:1.0;stroke-dasharray:2.0,2.0;" x1="48" x2="427" y1="329.8164" y2="329.8164"/><text fill="#000000" font-family="sans-serif" font-size="13" font-weight="bold" lengthAdjust="spacing" textLength="9" x="60" y="325.0742">6</text><text fill="#000000" font-family="sans-serif" font-size="13" lengthAdjust="spacing" textLength="170" x="73" y="325.0742">displays operation success</text><!--SRC=[dP8nRy8m48Lt_ueJ4mn8LOSE39Kg8J4nMUt4SdMEv4HoJdqNKFvzJG8fgkXGlDYodz_t_6GziBIOi84cIWnLYWs1fOwSJYSjXWEMvAsl2H85GodhMu5MMCGJImbxh9MSCxOizRqQDU3fgoC916l6yYoVUxzUm1BU_TFpYyFEedJD9oNdC5XCCDia8jc9ps3IdMnHCZxD01KsVkior3XmYs8mMusKuN1S3ZPyHAD1xI2Fl83bwpNHAeiF2XRph5mA7AdYKDDS5yEc08cb7bZ0AeAtagJ0mMTolgBWCYxEommvirQvatZImOT9OPzxlV7AY6BAe5JdJY4A3Mu5tONyVi5uIwUm3yNx6D-jKBFQlL05AISghWNf8mb_olrdneArhR5NY2qbD8u2seNy9VwAyGq0]--></g></svg>