<?xml version="1.0" encoding="us-ascii" standalone="no"?><svg xmlns="http://www.w3.org/2000/svg" xmlns:xlink="http://www.w3.org/1999/xlink" contentStyleType="text/css" height="1112px" preserveAspectRatio="none" style="width:1066px;height:1112px;background:#FFFFFF;" version="1.1" viewBox="0 0 1066 1112" width="1066px" zoomAndPan="magnify"><defs/><g><text fill="#000000" font-family="sans-serif" font-size="14" font-weight="bold" lengthAdjust="spacing" textLength="278" x="387" y="23.5352">US025 - Cancel an entry in the agenda</text><!--class CancelEntryUI--><g id="elem_CancelEntryUI"><rect codeLine="13" fill="#F1F1F1" height="48" id="CancelEntryUI" rx="2.5" ry="2.5" style="stroke:#181818;stroke-width:0.5;" width="127" x="422.5" y="44.4883"/><ellipse cx="437.5" cy="60.4883" fill="#ADD1B2" rx="11" ry="11" style="stroke:#181818;stroke-width:1.0;"/><path d="M440.4731,66.1313 Q439.8921,66.4302 439.2529,66.5796 Q438.6138,66.729 437.9082,66.729 Q435.4014,66.729 434.0815,65.0771 Q432.7617,63.4253 432.7617,60.3042 Q432.7617,57.1748 434.0815,55.5229 Q435.4014,53.8711 437.9082,53.8711 Q438.6138,53.8711 439.2612,54.0205 Q439.9087,54.1699 440.4731,54.4688 L440.4731,57.1914 Q439.8423,56.6104 439.2488,56.3406 Q438.6553,56.0708 438.0244,56.0708 Q436.6797,56.0708 435.9949,57.1375 Q435.3101,58.2041 435.3101,60.3042 Q435.3101,62.396 435.9949,63.4626 Q436.6797,64.5293 438.0244,64.5293 Q438.6553,64.5293 439.2488,64.2595 Q439.8423,63.9897 440.4731,63.4087 Z " fill="#000000"/><text fill="#000000" font-family="sans-serif" font-size="14" lengthAdjust="spacing" textLength="95" x="451.5" y="65.7793">CancelEntryUI</text><line style="stroke:#181818;stroke-width:0.5;" x1="423.5" x2="548.5" y1="76.4883" y2="76.4883"/><line style="stroke:#181818;stroke-width:0.5;" x1="423.5" x2="548.5" y1="84.4883" y2="84.4883"/></g><!--class CancelEntryController--><g id="elem_CancelEntryController"><rect codeLine="16" fill="#F1F1F1" height="113.9531" id="CancelEntryController" rx="2.5" ry="2.5" style="stroke:#181818;stroke-width:0.5;" width="443" x="264.5" y="152.4883"/><ellipse cx="406.25" cy="168.4883" fill="#ADD1B2" rx="11" ry="11" style="stroke:#181818;stroke-width:1.0;"/><path d="M409.2231,174.1313 Q408.6421,174.4302 408.0029,174.5796 Q407.3638,174.729 406.6582,174.729 Q404.1514,174.729 402.8315,173.0771 Q401.5117,171.4253 401.5117,168.3042 Q401.5117,165.1748 402.8315,163.5229 Q404.1514,161.8711 406.6582,161.8711 Q407.3638,161.8711 408.0112,162.0205 Q408.6587,162.1699 409.2231,162.4688 L409.2231,165.1914 Q408.5923,164.6104 407.9988,164.3406 Q407.4053,164.0708 406.7744,164.0708 Q405.4297,164.0708 404.7449,165.1375 Q404.0601,166.2041 404.0601,168.3042 Q404.0601,170.396 404.7449,171.4626 Q405.4297,172.5293 406.7744,172.5293 Q407.4053,172.5293 407.9988,172.2595 Q408.5923,171.9897 409.2231,171.4087 Z " fill="#000000"/><text fill="#000000" font-family="sans-serif" font-size="14" lengthAdjust="spacing" textLength="151" x="426.75" y="173.7793">CancelEntryController</text><line style="stroke:#181818;stroke-width:0.5;" x1="265.5" x2="706.5" y1="184.4883" y2="184.4883"/><line style="stroke:#181818;stroke-width:0.5;" x1="265.5" x2="706.5" y1="192.4883" y2="192.4883"/><text fill="#000000" font-family="sans-serif" font-size="14" lengthAdjust="spacing" textLength="431" x="270.5" y="210.0234">+cancelEntryController(taskRepository, greenSpaceRepository)</text><text fill="#000000" font-family="sans-serif" font-size="14" lengthAdjust="spacing" textLength="131" x="270.5" y="226.5117">+getGreenSpaces()</text><text fill="#000000" font-family="sans-serif" font-size="14" lengthAdjust="spacing" textLength="258" x="270.5" y="243">+getTasksByGreenSpace(greenSpace)</text><text fill="#000000" font-family="sans-serif" font-size="14" lengthAdjust="spacing" textLength="127" x="270.5" y="259.4883">+cancelEntry(task)</text></g><!--class Repositories--><g id="elem_Repositories"><rect codeLine="23" fill="#F1F1F1" height="113.9531" id="Repositories" rx="2.5" ry="2.5" style="stroke:#181818;stroke-width:0.5;" width="209" x="381.5" y="405.4483"/><ellipse cx="439.25" cy="421.4483" fill="#ADD1B2" rx="11" ry="11" style="stroke:#181818;stroke-width:1.0;"/><path d="M442.2231,427.0913 Q441.6421,427.3902 441.0029,427.5396 Q440.3638,427.689 439.6582,427.689 Q437.1514,427.689 435.8315,426.0371 Q434.5117,424.3853 434.5117,421.2642 Q434.5117,418.1348 435.8315,416.4829 Q437.1514,414.8311 439.6582,414.8311 Q440.3638,414.8311 441.0112,414.9805 Q441.6587,415.1299 442.2231,415.4287 L442.2231,418.1514 Q441.5923,417.5704 440.9988,417.3006 Q440.4053,417.0308 439.7744,417.0308 Q438.4297,417.0308 437.7449,418.0975 Q437.0601,419.1641 437.0601,421.2642 Q437.0601,423.356 437.7449,424.4226 Q438.4297,425.4893 439.7744,425.4893 Q440.4053,425.4893 440.9988,425.2195 Q441.5923,424.9497 442.2231,424.3687 Z " fill="#000000"/><text fill="#000000" font-family="sans-serif" font-size="14" lengthAdjust="spacing" textLength="85" x="459.75" y="426.7393">Repositories</text><line style="stroke:#181818;stroke-width:0.5;" x1="382.5" x2="589.5" y1="437.4483" y2="437.4483"/><line style="stroke:#181818;stroke-width:0.5;" x1="382.5" x2="589.5" y1="445.4483" y2="445.4483"/><text fill="#000000" font-family="sans-serif" font-size="14" lengthAdjust="spacing" textLength="103" x="387.5" y="462.9834">-Repositories()</text><text fill="#000000" font-family="sans-serif" font-size="14" lengthAdjust="spacing" textLength="197" x="387.5" y="479.4717">+getInstance() : Repositories</text><text fill="#000000" font-family="sans-serif" font-size="14" lengthAdjust="spacing" textLength="197" x="387.5" y="495.96">+getGreenSpaceRepository()</text><text fill="#000000" font-family="sans-serif" font-size="14" lengthAdjust="spacing" textLength="148" x="387.5" y="512.4483">+getTaskRepository()</text></g><!--class TaskRepository--><g id="elem_TaskRepository"><rect codeLine="30" fill="#F1F1F1" height="97.4648" id="TaskRepository" rx="2.5" ry="2.5" style="stroke:#181818;stroke-width:0.5;" width="270" x="182" y="658.3983"/><ellipse cx="260.25" cy="674.3983" fill="#ADD1B2" rx="11" ry="11" style="stroke:#181818;stroke-width:1.0;"/><path d="M263.2231,680.0413 Q262.6421,680.3402 262.0029,680.4896 Q261.3638,680.639 260.6582,680.639 Q258.1514,680.639 256.8315,678.9871 Q255.5117,677.3353 255.5117,674.2142 Q255.5117,671.0848 256.8315,669.4329 Q258.1514,667.7811 260.6582,667.7811 Q261.3638,667.7811 262.0112,667.9305 Q262.6587,668.0799 263.2231,668.3788 L263.2231,671.1014 Q262.5923,670.5204 261.9988,670.2506 Q261.4053,669.9808 260.7744,669.9808 Q259.4297,669.9808 258.7449,671.0475 Q258.0601,672.1141 258.0601,674.2142 Q258.0601,676.306 258.7449,677.3726 Q259.4297,678.4393 260.7744,678.4393 Q261.4053,678.4393 261.9988,678.1695 Q262.5923,677.8997 263.2231,677.3187 Z " fill="#000000"/><text fill="#000000" font-family="sans-serif" font-size="14" lengthAdjust="spacing" textLength="105" x="280.75" y="679.6893">TaskRepository</text><line style="stroke:#181818;stroke-width:0.5;" x1="183" x2="451" y1="690.3983" y2="690.3983"/><line style="stroke:#181818;stroke-width:0.5;" x1="183" x2="451" y1="698.3983" y2="698.3983"/><text fill="#000000" font-family="sans-serif" font-size="14" lengthAdjust="spacing" textLength="258" x="188" y="715.9334">+getTasksByGreenSpace(greenSpace)</text><text fill="#000000" font-family="sans-serif" font-size="14" lengthAdjust="spacing" textLength="100" x="188" y="732.4217">+toDTO(tasks)</text><text fill="#000000" font-family="sans-serif" font-size="14" lengthAdjust="spacing" textLength="127" x="188" y="748.91">+cancelEntry(task)</text></g><!--class GreenSpaceRepository--><g id="elem_GreenSpaceRepository"><rect codeLine="36" fill="#F1F1F1" height="80.9766" id="GreenSpaceRepository" rx="2.5" ry="2.5" style="stroke:#181818;stroke-width:0.5;" width="273" x="591.5" y="666.6383"/><ellipse cx="646.75" cy="682.6383" fill="#ADD1B2" rx="11" ry="11" style="stroke:#181818;stroke-width:1.0;"/><path d="M649.7231,688.2813 Q649.1421,688.5802 648.5029,688.7296 Q647.8638,688.879 647.1582,688.879 Q644.6514,688.879 643.3315,687.2271 Q642.0117,685.5753 642.0117,682.4542 Q642.0117,679.3248 643.3315,677.6729 Q644.6514,676.0211 647.1582,676.0211 Q647.8638,676.0211 648.5112,676.1705 Q649.1587,676.3199 649.7231,676.6188 L649.7231,679.3414 Q649.0923,678.7604 648.4988,678.4906 Q647.9053,678.2208 647.2744,678.2208 Q645.9297,678.2208 645.2449,679.2875 Q644.5601,680.3541 644.5601,682.4542 Q644.5601,684.546 645.2449,685.6126 Q645.9297,686.6793 647.2744,686.6793 Q647.9053,686.6793 648.4988,686.4095 Q649.0923,686.1397 649.7231,685.5587 Z " fill="#000000"/><text fill="#000000" font-family="sans-serif" font-size="14" lengthAdjust="spacing" textLength="154" x="667.25" y="687.9293">GreenSpaceRepository</text><line style="stroke:#181818;stroke-width:0.5;" x1="592.5" x2="863.5" y1="698.6383" y2="698.6383"/><line style="stroke:#181818;stroke-width:0.5;" x1="592.5" x2="863.5" y1="706.6383" y2="706.6383"/><text fill="#000000" font-family="sans-serif" font-size="14" lengthAdjust="spacing" textLength="261" x="597.5" y="724.1734">+List&lt;GreenSpace&gt; getGreenSpaces()</text><text fill="#000000" font-family="sans-serif" font-size="14" lengthAdjust="spacing" textLength="152" x="597.5" y="740.6617">+toDTO(greenSpaces)</text></g><!--class GreenSpaceMapper--><g id="elem_GreenSpaceMapper"><rect codeLine="42" fill="#F1F1F1" height="80.9766" id="GreenSpaceMapper" rx="2.5" ry="2.5" style="stroke:#181818;stroke-width:0.5;" width="454" x="484" y="816.8583"/><ellipse cx="640.25" cy="832.8583" fill="#ADD1B2" rx="11" ry="11" style="stroke:#181818;stroke-width:1.0;"/><path d="M643.2231,838.5013 Q642.6421,838.8002 642.0029,838.9496 Q641.3638,839.099 640.6582,839.099 Q638.1514,839.099 636.8315,837.4471 Q635.5117,835.7953 635.5117,832.6742 Q635.5117,829.5448 636.8315,827.8929 Q638.1514,826.2411 640.6582,826.2411 Q641.3638,826.2411 642.0112,826.3905 Q642.6587,826.5399 643.2231,826.8387 L643.2231,829.5614 Q642.5923,828.9804 641.9988,828.7106 Q641.4053,828.4408 640.7744,828.4408 Q639.4297,828.4408 638.7449,829.5075 Q638.0601,830.5741 638.0601,832.6742 Q638.0601,834.766 638.7449,835.8326 Q639.4297,836.8993 640.7744,836.8993 Q641.4053,836.8993 641.9988,836.6295 Q642.5923,836.3597 643.2231,835.7787 Z " fill="#000000"/><text fill="#000000" font-family="sans-serif" font-size="14" lengthAdjust="spacing" textLength="133" x="660.75" y="838.1493">GreenSpaceMapper</text><line style="stroke:#181818;stroke-width:0.5;" x1="485" x2="937" y1="848.8583" y2="848.8583"/><line style="stroke:#181818;stroke-width:0.5;" x1="485" x2="937" y1="856.8583" y2="856.8583"/><text fill="#000000" font-family="sans-serif" font-size="14" lengthAdjust="spacing" textLength="442" x="490" y="874.3934">+List&lt;GreenSpaceDTO&gt; toDTO(List&lt;GreenSpace&gt; greenSpaces)</text><text fill="#000000" font-family="sans-serif" font-size="14" lengthAdjust="spacing" textLength="345" x="490" y="890.8817">+GreenSpaceDTO toDTO(GreenSpace greenSpace)</text></g><!--class TaskMapper--><g id="elem_TaskMapper"><rect codeLine="47" fill="#F1F1F1" height="80.9766" id="TaskMapper" rx="2.5" ry="2.5" style="stroke:#181818;stroke-width:0.5;" width="304" x="7" y="816.8583"/><ellipse cx="112.75" cy="832.8583" fill="#ADD1B2" rx="11" ry="11" style="stroke:#181818;stroke-width:1.0;"/><path d="M115.7231,838.5013 Q115.1421,838.8002 114.5029,838.9496 Q113.8638,839.099 113.1582,839.099 Q110.6514,839.099 109.3315,837.4471 Q108.0117,835.7953 108.0117,832.6742 Q108.0117,829.5448 109.3315,827.8929 Q110.6514,826.2411 113.1582,826.2411 Q113.8638,826.2411 114.5112,826.3905 Q115.1587,826.5399 115.7231,826.8387 L115.7231,829.5614 Q115.0923,828.9804 114.4988,828.7106 Q113.9053,828.4408 113.2744,828.4408 Q111.9297,828.4408 111.2449,829.5075 Q110.5601,830.5741 110.5601,832.6742 Q110.5601,834.766 111.2449,835.8326 Q111.9297,836.8993 113.2744,836.8993 Q113.9053,836.8993 114.4988,836.6295 Q115.0923,836.3597 115.7231,835.7787 Z " fill="#000000"/><text fill="#000000" font-family="sans-serif" font-size="14" lengthAdjust="spacing" textLength="84" x="133.25" y="838.1493">TaskMapper</text><line style="stroke:#181818;stroke-width:0.5;" x1="8" x2="310" y1="848.8583" y2="848.8583"/><line style="stroke:#181818;stroke-width:0.5;" x1="8" x2="310" y1="856.8583" y2="856.8583"/><text fill="#000000" font-family="sans-serif" font-size="14" lengthAdjust="spacing" textLength="292" x="13" y="874.3934">+List&lt;TaskDTO&gt; toDTO(List&lt;Task&gt; tasks)</text><text fill="#000000" font-family="sans-serif" font-size="14" lengthAdjust="spacing" textLength="195" x="13" y="890.8817">+TaskDTO toDTO(Task task)</text></g><!--class GreenSpaceDTO--><g id="elem_GreenSpaceDTO"><rect codeLine="52" fill="#F1F1F1" height="113.9531" id="GreenSpaceDTO" rx="2.5" ry="2.5" style="stroke:#181818;stroke-width:0.5;" width="143" x="639.5" y="975.3283"/><ellipse cx="654.5" cy="991.3283" fill="#ADD1B2" rx="11" ry="11" style="stroke:#181818;stroke-width:1.0;"/><path d="M657.4731,996.9713 Q656.8921,997.2702 656.2529,997.4196 Q655.6138,997.569 654.9082,997.569 Q652.4014,997.569 651.0815,995.9171 Q649.7617,994.2653 649.7617,991.1442 Q649.7617,988.0148 651.0815,986.3629 Q652.4014,984.7111 654.9082,984.7111 Q655.6138,984.7111 656.2612,984.8605 Q656.9087,985.0099 657.4731,985.3087 L657.4731,988.0314 Q656.8423,987.4504 656.2488,987.1806 Q655.6553,986.9108 655.0244,986.9108 Q653.6797,986.9108 652.9949,987.9775 Q652.3101,989.0441 652.3101,991.1442 Q652.3101,993.236 652.9949,994.3026 Q653.6797,995.3693 655.0244,995.3693 Q655.6553,995.3693 656.2488,995.0995 Q656.8423,994.8297 657.4731,994.2487 Z " fill="#000000"/><text fill="#000000" font-family="sans-serif" font-size="14" lengthAdjust="spacing" textLength="111" x="668.5" y="996.6193">GreenSpaceDTO</text><line style="stroke:#181818;stroke-width:0.5;" x1="640.5" x2="781.5" y1="1007.3283" y2="1007.3283"/><text fill="#000000" font-family="sans-serif" font-size="14" lengthAdjust="spacing" textLength="38" x="645.5" y="1024.8634">name</text><text fill="#000000" font-family="sans-serif" font-size="14" lengthAdjust="spacing" textLength="30" x="645.5" y="1041.3517">area</text><text fill="#000000" font-family="sans-serif" font-size="14" lengthAdjust="spacing" textLength="29" x="645.5" y="1057.84">type</text><text fill="#000000" font-family="sans-serif" font-size="14" lengthAdjust="spacing" textLength="54" x="645.5" y="1074.3283">address</text><line style="stroke:#181818;stroke-width:0.5;" x1="640.5" x2="781.5" y1="1081.2814" y2="1081.2814"/></g><!--class TaskDTO--><g id="elem_TaskDTO"><rect codeLine="59" fill="#F1F1F1" height="146.9297" id="TaskDTO" rx="2.5" ry="2.5" style="stroke:#181818;stroke-width:0.5;" width="135" x="91.5" y="958.8383"/><ellipse cx="124.95" cy="974.8383" fill="#ADD1B2" rx="11" ry="11" style="stroke:#181818;stroke-width:1.0;"/><path d="M127.9231,980.4813 Q127.3421,980.7802 126.7029,980.9296 Q126.0638,981.079 125.3582,981.079 Q122.8514,981.079 121.5315,979.4271 Q120.2117,977.7753 120.2117,974.6542 Q120.2117,971.5248 121.5315,969.8729 Q122.8514,968.2211 125.3582,968.2211 Q126.0638,968.2211 126.7112,968.3705 Q127.3587,968.5199 127.9231,968.8187 L127.9231,971.5414 Q127.2923,970.9604 126.6988,970.6906 Q126.1053,970.4208 125.4744,970.4208 Q124.1297,970.4208 123.4449,971.4875 Q122.7601,972.5541 122.7601,974.6542 Q122.7601,976.746 123.4449,977.8126 Q124.1297,978.8793 125.4744,978.8793 Q126.1053,978.8793 126.6988,978.6095 Q127.2923,978.3397 127.9231,977.7587 Z " fill="#000000"/><text fill="#000000" font-family="sans-serif" font-size="14" lengthAdjust="spacing" textLength="62" x="143.05" y="980.1293">TaskDTO</text><line style="stroke:#181818;stroke-width:0.5;" x1="92.5" x2="225.5" y1="990.8383" y2="990.8383"/><text fill="#000000" font-family="sans-serif" font-size="14" lengthAdjust="spacing" textLength="26" x="97.5" y="1008.3734">title</text><text fill="#000000" font-family="sans-serif" font-size="14" lengthAdjust="spacing" textLength="77" x="97.5" y="1024.8617">description</text><text fill="#000000" font-family="sans-serif" font-size="14" lengthAdjust="spacing" textLength="120" x="97.5" y="1041.35">degreeOfUrgency</text><text fill="#000000" font-family="sans-serif" font-size="14" lengthAdjust="spacing" textLength="123" x="97.5" y="1057.8383">expectedDuration</text><text fill="#000000" font-family="sans-serif" font-size="14" lengthAdjust="spacing" textLength="41" x="97.5" y="1074.3266">status</text><text fill="#000000" font-family="sans-serif" font-size="14" lengthAdjust="spacing" textLength="84" x="97.5" y="1090.8148">startingDate</text><line style="stroke:#181818;stroke-width:0.5;" x1="92.5" x2="225.5" y1="1097.768" y2="1097.768"/></g><!--class Task--><g id="elem_Task"><rect codeLine="68" fill="#F1F1F1" height="146.9297" id="Task" rx="2.5" ry="2.5" style="stroke:#181818;stroke-width:0.5;" width="135" x="294.5" y="958.8383"/><ellipse cx="341.75" cy="974.8383" fill="#ADD1B2" rx="11" ry="11" style="stroke:#181818;stroke-width:1.0;"/><path d="M344.7231,980.4813 Q344.1421,980.7802 343.5029,980.9296 Q342.8638,981.079 342.1582,981.079 Q339.6514,981.079 338.3315,979.4271 Q337.0117,977.7753 337.0117,974.6542 Q337.0117,971.5248 338.3315,969.8729 Q339.6514,968.2211 342.1582,968.2211 Q342.8638,968.2211 343.5112,968.3705 Q344.1587,968.5199 344.7231,968.8187 L344.7231,971.5414 Q344.0923,970.9604 343.4988,970.6906 Q342.9053,970.4208 342.2744,970.4208 Q340.9297,970.4208 340.2449,971.4875 Q339.5601,972.5541 339.5601,974.6542 Q339.5601,976.746 340.2449,977.8126 Q340.9297,978.8793 342.2744,978.8793 Q342.9053,978.8793 343.4988,978.6095 Q344.0923,978.3397 344.7231,977.7587 Z " fill="#000000"/><text fill="#000000" font-family="sans-serif" font-size="14" lengthAdjust="spacing" textLength="32" x="362.25" y="980.1293">Task</text><line style="stroke:#181818;stroke-width:0.5;" x1="295.5" x2="428.5" y1="990.8383" y2="990.8383"/><text fill="#000000" font-family="sans-serif" font-size="14" lengthAdjust="spacing" textLength="26" x="300.5" y="1008.3734">title</text><text fill="#000000" font-family="sans-serif" font-size="14" lengthAdjust="spacing" textLength="77" x="300.5" y="1024.8617">description</text><text fill="#000000" font-family="sans-serif" font-size="14" lengthAdjust="spacing" textLength="120" x="300.5" y="1041.35">degreeOfUrgency</text><text fill="#000000" font-family="sans-serif" font-size="14" lengthAdjust="spacing" textLength="123" x="300.5" y="1057.8383">expectedDuration</text><text fill="#000000" font-family="sans-serif" font-size="14" lengthAdjust="spacing" textLength="41" x="300.5" y="1074.3266">status</text><text fill="#000000" font-family="sans-serif" font-size="14" lengthAdjust="spacing" textLength="84" x="300.5" y="1090.8148">startingDate</text><line style="stroke:#181818;stroke-width:0.5;" x1="295.5" x2="428.5" y1="1097.768" y2="1097.768"/></g><!--class GreenSpace--><g id="elem_GreenSpace"><rect codeLine="77" fill="#F1F1F1" height="113.9531" id="GreenSpace" rx="2.5" ry="2.5" style="stroke:#181818;stroke-width:0.5;" width="113" x="884.5" y="975.3283"/><ellipse cx="899.5" cy="991.3283" fill="#ADD1B2" rx="11" ry="11" style="stroke:#181818;stroke-width:1.0;"/><path d="M902.4731,996.9713 Q901.8921,997.2702 901.2529,997.4196 Q900.6138,997.569 899.9082,997.569 Q897.4014,997.569 896.0815,995.9171 Q894.7617,994.2653 894.7617,991.1442 Q894.7617,988.0148 896.0815,986.3629 Q897.4014,984.7111 899.9082,984.7111 Q900.6138,984.7111 901.2612,984.8605 Q901.9087,985.0099 902.4731,985.3087 L902.4731,988.0314 Q901.8423,987.4504 901.2488,987.1806 Q900.6553,986.9108 900.0244,986.9108 Q898.6797,986.9108 897.9949,987.9775 Q897.3101,989.0441 897.3101,991.1442 Q897.3101,993.236 897.9949,994.3026 Q898.6797,995.3693 900.0244,995.3693 Q900.6553,995.3693 901.2488,995.0995 Q901.8423,994.8297 902.4731,994.2487 Z " fill="#000000"/><text fill="#000000" font-family="sans-serif" font-size="14" lengthAdjust="spacing" textLength="81" x="913.5" y="996.6193">GreenSpace</text><line style="stroke:#181818;stroke-width:0.5;" x1="885.5" x2="996.5" y1="1007.3283" y2="1007.3283"/><text fill="#000000" font-family="sans-serif" font-size="14" lengthAdjust="spacing" textLength="38" x="890.5" y="1024.8634">name</text><text fill="#000000" font-family="sans-serif" font-size="14" lengthAdjust="spacing" textLength="30" x="890.5" y="1041.3517">area</text><text fill="#000000" font-family="sans-serif" font-size="14" lengthAdjust="spacing" textLength="29" x="890.5" y="1057.84">type</text><text fill="#000000" font-family="sans-serif" font-size="14" lengthAdjust="spacing" textLength="54" x="890.5" y="1074.3283">address</text><line style="stroke:#181818;stroke-width:0.5;" x1="885.5" x2="996.5" y1="1081.2814" y2="1081.2814"/></g><!--link CancelEntryUI to CancelEntryController--><g id="link_CancelEntryUI_CancelEntryController"><path codeLine="84" d="M486,92.7483 C486,108.9783 486,125.3583 486,146.1183 " fill="none" id="CancelEntryUI-to-CancelEntryController" style="stroke:#181818;stroke-width:1.0;stroke-dasharray:7.0,7.0;"/><polygon fill="#181818" points="486,152.1183,490,143.1183,486,147.1183,482,143.1183,486,152.1183" style="stroke:#181818;stroke-width:1.0;"/></g><!--link CancelEntryController to Repositories--><g id="link_CancelEntryController_Repositories"><path codeLine="85" d="M486,266.7883 C486,308.1183 486,358.0083 486,399.2883 " fill="none" id="CancelEntryController-to-Repositories" style="stroke:#181818;stroke-width:1.0;stroke-dasharray:7.0,7.0;"/><polygon fill="#181818" points="486,405.2883,490,396.2883,486,400.2883,482,396.2883,486,405.2883" style="stroke:#181818;stroke-width:1.0;"/><text fill="#000000" font-family="sans-serif" font-size="13" lengthAdjust="spacing" textLength="75" x="487" y="341.0166">repositories</text></g><!--link CancelEntryController to TaskRepository--><g id="link_CancelEntryController_TaskRepository"><path codeLine="86" d="M285.08,266.8883 C263.95,283.9383 250,306.1083 250,334.9483 C250,334.9483 250,334.9483 250,589.8983 C250,614.3583 257.9186,633.3215 271.2186,653.0715 " fill="none" id="CancelEntryController-to-TaskRepository" style="stroke:#181818;stroke-width:1.0;stroke-dasharray:7.0,7.0;"/><polygon fill="#181818" points="274.57,658.0483,272.8607,648.3489,271.7771,653.901,266.225,652.8175,274.57,658.0483" style="stroke:#181818;stroke-width:1.0;"/><text fill="#000000" font-family="sans-serif" font-size="13" lengthAdjust="spacing" textLength="94" x="251" y="467.4866">taskRepository</text></g><!--link CancelEntryController to GreenSpaceRepository--><g id="link_CancelEntryController_GreenSpaceRepository"><path codeLine="87" d="M707.85,264.9483 C729.71,282.2283 744,304.9783 744,334.9483 C744,334.9483 744,334.9483 744,589.8983 C744,615.4583 741.187,637.9886 737.267,660.3286 " fill="none" id="CancelEntryController-to-GreenSpaceRepository" style="stroke:#181818;stroke-width:1.0;stroke-dasharray:7.0,7.0;"/><polygon fill="#181818" points="736.23,666.2383,741.7253,658.065,737.0941,661.3135,733.8457,656.6824,736.23,666.2383" style="stroke:#181818;stroke-width:1.0;"/><text fill="#000000" font-family="sans-serif" font-size="13" lengthAdjust="spacing" textLength="138" x="745" y="467.4866">greenSpaceRepository</text></g><!--link Repositories to Repositories--><g id="link_Repositories_Repositories"><path codeLine="89" d="M590.94,446.7783 C611.17,448.6183 625.5,453.8383 625.5,462.4183 C625.5,471.0083 617.1451,475.6719 596.9151,477.5219 " fill="none" id="Repositories-to-Repositories" style="stroke:#181818;stroke-width:1.0;"/><polygon fill="#181818" points="590.94,478.0683,600.2669,481.232,595.9192,477.6129,599.5383,473.2653,590.94,478.0683" style="stroke:#181818;stroke-width:1.0;"/><text fill="#000000" font-family="sans-serif" font-size="13" lengthAdjust="spacing" textLength="53" x="631.5" y="467.4866">instance</text></g><!--link Repositories to TaskRepository--><g id="link_Repositories_TaskRepository"><path codeLine="90" d="M443.64,519.8283 C429.55,538.9083 413.91,560.4383 400,580.3983 C382.35,605.7183 366.6164,629.3818 351.2464,652.9618 " fill="none" id="Repositories-to-TaskRepository" style="stroke:#181818;stroke-width:1.0;"/><polygon fill="#181818" points="347.97,657.9883,356.2355,652.6328,350.7003,653.7996,349.5336,648.2643,347.97,657.9883" style="stroke:#181818;stroke-width:1.0;"/><text fill="#000000" font-family="sans-serif" font-size="13" lengthAdjust="spacing" textLength="94" x="401" y="593.9666">taskRepository</text><text fill="#000000" font-family="sans-serif" font-size="13" lengthAdjust="spacing" textLength="8" x="343.7627" y="647.6131">1</text></g><!--link Repositories to GreenSpaceRepository--><g id="link_Repositories_GreenSpaceRepository"><path codeLine="91" d="M518.58,519.7683 C534.67,545.0183 555.45,574.2683 578,597.3983 C603.26,623.3083 630.3094,644.0878 658.2794,662.9978 " fill="none" id="Repositories-to-GreenSpaceRepository" style="stroke:#181818;stroke-width:1.0;"/><polygon fill="#181818" points="663.25,666.3583,658.0345,658.0038,659.1078,663.5578,653.5538,664.6312,663.25,666.3583" style="stroke:#181818;stroke-width:1.0;"/><text fill="#000000" font-family="sans-serif" font-size="13" lengthAdjust="spacing" textLength="138" x="579" y="593.9666">greenSpaceRepository</text><text fill="#000000" font-family="sans-serif" font-size="13" lengthAdjust="spacing" textLength="8" x="643.8633" y="655.9579">1</text></g><!--link TaskRepository to Task--><g id="link_TaskRepository_Task"><path codeLine="93" d="M323.69,756.1583 C331.13,809.6183 342.4127,890.6456 351.0227,952.4956 " fill="none" id="TaskRepository-to-Task" style="stroke:#181818;stroke-width:1.0;"/><polygon fill="#181818" points="351.85,958.4383,354.5709,948.9727,351.1606,953.486,346.6473,950.0758,351.85,958.4383" style="stroke:#181818;stroke-width:1.0;"/><text fill="#000000" font-family="sans-serif" font-size="13" lengthAdjust="spacing" textLength="34" x="345" y="862.4166">tasks</text></g><!--link GreenSpaceRepository to GreenSpace--><g id="link_GreenSpaceRepository_GreenSpace"><path codeLine="94" d="M864.71,743.8883 C900.51,760.1383 934.94,783.4783 956,816.8583 C985.67,863.8883 977.4076,923.0605 963.9076,969.1205 " fill="none" id="GreenSpaceRepository-to-GreenSpace" style="stroke:#181818;stroke-width:1.0;"/><polygon fill="#181818" points="962.22,974.8783,968.5899,967.3667,963.6263,970.0801,960.9129,965.1166,962.22,974.8783" style="stroke:#181818;stroke-width:1.0;"/><text fill="#000000" font-family="sans-serif" font-size="13" lengthAdjust="spacing" textLength="82" x="976" y="862.4166">green spaces</text></g><!--link TaskRepository to TaskMapper--><g id="link_TaskRepository_TaskMapper"><path codeLine="96" d="M265.7,756.2483 C244.98,775.6983 225.7156,793.7629 205.9656,812.2929 " fill="none" id="TaskRepository-to-TaskMapper" style="stroke:#181818;stroke-width:1.0;stroke-dasharray:7.0,7.0;"/><polygon fill="#181818" points="201.59,816.3983,210.8903,813.1574,205.2364,812.9772,205.4166,807.3232,201.59,816.3983" style="stroke:#181818;stroke-width:1.0;"/></g><!--link TaskMapper to TaskDTO--><g id="link_TaskMapper_TaskDTO"><path codeLine="97" d="M159,898.0283 C159,915.9783 159,931.7783 159,952.5083 " fill="none" id="TaskMapper-to-TaskDTO" style="stroke:#181818;stroke-width:1.0;stroke-dasharray:7.0,7.0;"/><polygon fill="#181818" points="159,958.5083,163,949.5083,159,953.5083,155,949.5083,159,958.5083" style="stroke:#181818;stroke-width:1.0;"/></g><!--link TaskMapper to Task--><g id="link_TaskMapper_Task"><path codeLine="98" d="M205.83,898.2483 C232.06,920.5883 260.6625,944.9676 289.6825,969.6876 " fill="none" id="TaskMapper-to-Task" style="stroke:#181818;stroke-width:1.0;stroke-dasharray:7.0,7.0;"/><polygon fill="#181818" points="294.25,973.5783,289.9925,964.6972,290.4437,970.336,284.8049,970.7872,294.25,973.5783" style="stroke:#181818;stroke-width:1.0;"/></g><!--link GreenSpaceRepository to GreenSpaceMapper--><g id="link_GreenSpaceRepository_GreenSpaceMapper"><path codeLine="99" d="M723.44,747.8483 C721.01,769.1183 718.6935,789.2773 716.2535,810.5573 " fill="none" id="GreenSpaceRepository-to-GreenSpaceMapper" style="stroke:#181818;stroke-width:1.0;stroke-dasharray:7.0,7.0;"/><polygon fill="#181818" points="715.57,816.5183,720.5692,808.0325,716.1396,811.5508,712.6213,807.1212,715.57,816.5183" style="stroke:#181818;stroke-width:1.0;"/></g><!--link GreenSpaceMapper to GreenSpaceDTO--><g id="link_GreenSpaceMapper_GreenSpaceDTO"><path codeLine="100" d="M711,898.0283 C711,920.8683 711,943.9383 711,969.0983 " fill="none" id="GreenSpaceMapper-to-GreenSpaceDTO" style="stroke:#181818;stroke-width:1.0;stroke-dasharray:7.0,7.0;"/><polygon fill="#181818" points="711,975.0983,715,966.0983,711,970.0983,707,966.0983,711,975.0983" style="stroke:#181818;stroke-width:1.0;"/></g><!--link GreenSpaceMapper to GreenSpace--><g id="link_GreenSpaceMapper_GreenSpace"><path codeLine="101" d="M764.06,898.2483 C800.01,925.2783 842.6744,957.3724 879.3944,984.9824 " fill="none" id="GreenSpaceMapper-to-GreenSpace" style="stroke:#181818;stroke-width:1.0;stroke-dasharray:7.0,7.0;"/><polygon fill="#181818" points="884.19,988.5883,879.4005,979.9824,880.1937,985.5834,874.5927,986.3766,884.19,988.5883" style="stroke:#181818;stroke-width:1.0;"/></g><!--SRC=[nLJ1Rjim3BthAuXUcc1Bq0tO9HW2RCrG1DXGO4a-GBKPHuWZ6HA3pHlsxvDinPPifLrFyy6GoKU-HyhahJaAMN7DJt1IKcK7hKu8fC_8Ua_5ioClS4DrYQ0n8owBCWIO0y_L3o4BsFFIX9vIIAIwGgXKMRkFb4zfKYnmP2KtvXEH5azdmdMcv4RyGhXZxBR4FG4fqA8u4EJ2gH5ACaQ2hBZTvkxz1vZ1FPSPbi0be2HTWv101mHRXCmvOms11trnWDqQVhC_2SUziczLbgWj0Epp1hAKTqBS7BzZfOmWfUktK6X4kR6TmzuwzHaAf8VERIQ1UMkpcCzrxvtqUQPZ_ePrsWllg0GQhzSs8xHwifPjBGsvP9CfB29KW7b8r14bsKQ5EvULqruXnBwBed-irE98hRQFJP6ciutB3mXJQdlQhyBGnnwoJ5z4nziBiknfbc-yghfVOynWionziZ5tcDs7Hv4-iBT1rA6uoqaXpZ6Ku6pM4BNKuppCVS4pdNL8poFv2TiJryZRavjeRyjpZSOCfGRnpT2snnnDfaNL3BCtk78VzpjjXpQhMoF-hEp0OxuwQzv3xLzCPzETDTbDjEA4G-R_G1lStkjx5Y-e-NoPtapioiAQkuXmh1TsUOT3VYriEHZS1SJRxRd8r0GkajlG5XZjgrairguauVVJ43Ypq9jtDo-gJ4UzIk5WWxaSpjHosHOc5uv3zGwV6qmpw-ESbtwt8yp2SRwuxCWaxLVuutkuv1rjhHZMSBo0OUml]--></g></svg>