<?xml version="1.0" encoding="us-ascii" standalone="no"?><svg xmlns="http://www.w3.org/2000/svg" xmlns:xlink="http://www.w3.org/1999/xlink" contentStyleType="text/css" height="1231px" preserveAspectRatio="none" style="width:2144px;height:1231px;background:#FFFFFF;" version="1.1" viewBox="0 0 2144 1231" width="2144px" zoomAndPan="magnify"><defs/><g><rect fill="#FFFFFF" height="1086.6934" style="stroke:#181818;stroke-width:1.0;" width="10" x="193" y="84.2871"/><rect fill="#FFFFFF" height="29.3105" style="stroke:#181818;stroke-width:1.0;" width="10" x="361.5" y="137.9082"/><rect fill="#FFFFFF" height="29.3105" style="stroke:#181818;stroke-width:1.0;" width="10" x="519.5" y="196.5293"/><rect fill="#FFFFFF" height="29.3105" style="stroke:#181818;stroke-width:1.0;" width="10" x="661.5" y="255.1504"/><rect fill="#FFFFFF" height="29.3105" style="stroke:#181818;stroke-width:1.0;" width="10" x="781" y="313.7715"/><rect fill="#FFFFFF" height="29.3105" style="stroke:#181818;stroke-width:1.0;" width="10" x="894" y="372.3926"/><rect fill="#FFFFFF" height="327.8398" style="stroke:#181818;stroke-width:1.0;" width="10" x="1041.5" y="431.0137"/><rect fill="#FFFFFF" height="30" style="stroke:#181818;stroke-width:1.0;" width="10" x="1225.5" y="542.6113"/><rect fill="#FFFFFF" height="337.5059" style="stroke:#181818;stroke-width:1.0;" width="10" x="1383" y="788.1641"/><rect fill="#FFFFFF" height="34.3105" style="stroke:#181818;stroke-width:1.0;" width="10" x="1388" y="967.0723"/><rect fill="#FFFFFF" height="30" style="stroke:#181818;stroke-width:1.0;" width="10" x="1571" y="601.9219"/><rect fill="#FFFFFF" height="30" style="stroke:#181818;stroke-width:1.0;" width="10" x="1708" y="685.543"/><rect fill="#FFFFFF" height="30" style="stroke:#181818;stroke-width:1.0;" width="10" x="1708" y="899.7617"/><rect fill="#FFFFFF" height="30" style="stroke:#181818;stroke-width:1.0;" width="10" x="1885" y="1059.3594"/><rect fill="none" height="1034.3828" style="stroke:#000000;stroke-width:1.5;" width="2035" x="103.5" y="99.2871"/><rect fill="none" height="226.5527" style="stroke:#000000;stroke-width:1.5;" width="870" x="940.5" y="503.9902"/><rect fill="none" height="76.6211" style="stroke:#000000;stroke-width:1.5;" width="850" x="950.5" y="646.9219"/><rect fill="none" height="236.2188" style="stroke:#000000;stroke-width:1.5;" width="826" x="1302.5" y="861.1406"/><line style="stroke:#181818;stroke-width:0.5;stroke-dasharray:5.0,5.0;" x1="197.5" x2="197.5" y1="52.9766" y2="1179.9805"/><line style="stroke:#181818;stroke-width:0.5;stroke-dasharray:5.0,5.0;" x1="366.5" x2="366.5" y1="52.9766" y2="1179.9805"/><line style="stroke:#181818;stroke-width:0.5;stroke-dasharray:5.0,5.0;" x1="524.5" x2="524.5" y1="52.9766" y2="1179.9805"/><line style="stroke:#181818;stroke-width:0.5;stroke-dasharray:5.0,5.0;" x1="666.5" x2="666.5" y1="52.9766" y2="1179.9805"/><line style="stroke:#181818;stroke-width:0.5;stroke-dasharray:5.0,5.0;" x1="785.5" x2="785.5" y1="52.9766" y2="1179.9805"/><line style="stroke:#181818;stroke-width:0.5;stroke-dasharray:5.0,5.0;" x1="898.5" x2="898.5" y1="52.9766" y2="1179.9805"/><line style="stroke:#181818;stroke-width:0.5;stroke-dasharray:5.0,5.0;" x1="1046.5" x2="1046.5" y1="52.9766" y2="1179.9805"/><line style="stroke:#181818;stroke-width:0.5;stroke-dasharray:5.0,5.0;" x1="1230.5" x2="1230.5" y1="52.9766" y2="1179.9805"/><line style="stroke:#181818;stroke-width:0.5;stroke-dasharray:5.0,5.0;" x1="1387.5" x2="1387.5" y1="52.9766" y2="1179.9805"/><line style="stroke:#181818;stroke-width:0.5;stroke-dasharray:5.0,5.0;" x1="1575.5" x2="1575.5" y1="52.9766" y2="1179.9805"/><line style="stroke:#181818;stroke-width:0.5;stroke-dasharray:5.0,5.0;" x1="1712.5" x2="1712.5" y1="478.002" y2="1179.9805"/><line style="stroke:#181818;stroke-width:0.5;stroke-dasharray:5.0,5.0;" x1="1889.5" x2="1889.5" y1="835.1523" y2="1179.9805"/><line style="stroke:#181818;stroke-width:0.5;stroke-dasharray:5.0,5.0;" x1="2053.5" x2="2053.5" y1="1019.0605" y2="1179.9805"/><rect fill="#E3E3E3" height="30.4883" rx="2.5" ry="2.5" style="stroke:#181818;stroke-width:0.5;" width="169" x="113.5" y="21.4883"/><text fill="#000000" font-family="sans-serif" font-size="14" lengthAdjust="spacing" textLength="155" x="120.5" y="42.0234">:CancelEntryController</text><rect fill="#E3E3E3" height="30.4883" rx="2.5" ry="2.5" style="stroke:#181818;stroke-width:0.5;" width="169" x="113.5" y="1178.9805"/><text fill="#000000" font-family="sans-serif" font-size="14" lengthAdjust="spacing" textLength="155" x="120.5" y="1199.5156">:CancelEntryController</text><rect fill="#E3E3E3" height="30.4883" rx="2.5" ry="2.5" style="stroke:#181818;stroke-width:0.5;" width="148" x="292.5" y="21.4883"/><text fill="#000000" font-family="sans-serif" font-size="14" lengthAdjust="spacing" textLength="134" x="299.5" y="42.0234">:ApplicationSession</text><rect fill="#E3E3E3" height="30.4883" rx="2.5" ry="2.5" style="stroke:#181818;stroke-width:0.5;" width="148" x="292.5" y="1178.9805"/><text fill="#000000" font-family="sans-serif" font-size="14" lengthAdjust="spacing" textLength="134" x="299.5" y="1199.5156">:ApplicationSession</text><rect fill="#E3E3E3" height="46.9766" rx="2.5" ry="2.5" style="stroke:#181818;stroke-width:0.5;" width="148" x="450.5" y="5"/><text fill="#000000" font-family="sans-serif" font-size="14" lengthAdjust="spacing" textLength="78" x="485.5" y="25.5352">appSession</text><text fill="#000000" font-family="sans-serif" font-size="14" lengthAdjust="spacing" textLength="134" x="457.5" y="42.0234">:ApplicationSession</text><rect fill="#E3E3E3" height="46.9766" rx="2.5" ry="2.5" style="stroke:#181818;stroke-width:0.5;" width="148" x="450.5" y="1178.9805"/><text fill="#000000" font-family="sans-serif" font-size="14" lengthAdjust="spacing" textLength="78" x="485.5" y="1199.5156">appSession</text><text fill="#000000" font-family="sans-serif" font-size="14" lengthAdjust="spacing" textLength="134" x="457.5" y="1216.0039">:ApplicationSession</text><rect fill="#E3E3E3" height="46.9766" rx="2.5" ry="2.5" style="stroke:#181818;stroke-width:0.5;" width="116" x="608.5" y="5"/><text fill="#000000" font-family="sans-serif" font-size="14" lengthAdjust="spacing" textLength="102" x="615.5" y="25.5352">currentSession</text><text fill="#000000" font-family="sans-serif" font-size="14" lengthAdjust="spacing" textLength="87" x="623" y="42.0234">:UserSession</text><rect fill="#E3E3E3" height="46.9766" rx="2.5" ry="2.5" style="stroke:#181818;stroke-width:0.5;" width="116" x="608.5" y="1178.9805"/><text fill="#000000" font-family="sans-serif" font-size="14" lengthAdjust="spacing" textLength="102" x="615.5" y="1199.5156">currentSession</text><text fill="#000000" font-family="sans-serif" font-size="14" lengthAdjust="spacing" textLength="87" x="623" y="1216.0039">:UserSession</text><rect fill="#E3E3E3" height="30.4883" rx="2.5" ry="2.5" style="stroke:#181818;stroke-width:0.5;" width="103" x="734.5" y="21.4883"/><text fill="#000000" font-family="sans-serif" font-size="14" lengthAdjust="spacing" textLength="89" x="741.5" y="42.0234">:Repositories</text><rect fill="#E3E3E3" height="30.4883" rx="2.5" ry="2.5" style="stroke:#181818;stroke-width:0.5;" width="103" x="734.5" y="1178.9805"/><text fill="#000000" font-family="sans-serif" font-size="14" lengthAdjust="spacing" textLength="89" x="741.5" y="1199.5156">:Repositories</text><rect fill="#E3E3E3" height="46.9766" rx="2.5" ry="2.5" style="stroke:#181818;stroke-width:0.5;" width="103" x="847.5" y="5"/><text fill="#000000" font-family="sans-serif" font-size="14" lengthAdjust="spacing" textLength="82" x="858" y="25.5352">repositories</text><text fill="#000000" font-family="sans-serif" font-size="14" lengthAdjust="spacing" textLength="89" x="854.5" y="42.0234">:Repositories</text><rect fill="#E3E3E3" height="46.9766" rx="2.5" ry="2.5" style="stroke:#181818;stroke-width:0.5;" width="103" x="847.5" y="1178.9805"/><text fill="#000000" font-family="sans-serif" font-size="14" lengthAdjust="spacing" textLength="82" x="858" y="1199.5156">repositories</text><text fill="#000000" font-family="sans-serif" font-size="14" lengthAdjust="spacing" textLength="89" x="854.5" y="1216.0039">:Repositories</text><rect fill="#E3E3E3" height="46.9766" rx="2.5" ry="2.5" style="stroke:#181818;stroke-width:0.5;" width="172" x="960.5" y="5"/><text fill="#000000" font-family="sans-serif" font-size="14" lengthAdjust="spacing" textLength="153" x="970" y="25.5352">greenSpaceRepository</text><text fill="#000000" font-family="sans-serif" font-size="14" lengthAdjust="spacing" textLength="158" x="967.5" y="42.0234">:GreenSpaceRepository</text><rect fill="#E3E3E3" height="46.9766" rx="2.5" ry="2.5" style="stroke:#181818;stroke-width:0.5;" width="172" x="960.5" y="1178.9805"/><text fill="#000000" font-family="sans-serif" font-size="14" lengthAdjust="spacing" textLength="153" x="970" y="1199.5156">greenSpaceRepository</text><text fill="#000000" font-family="sans-serif" font-size="14" lengthAdjust="spacing" textLength="158" x="967.5" y="1216.0039">:GreenSpaceRepository</text><rect fill="#E3E3E3" height="46.9766" rx="2.5" ry="2.5" style="stroke:#181818;stroke-width:0.5;" width="144" x="1158.5" y="5"/><text fill="#000000" font-family="sans-serif" font-size="14" lengthAdjust="spacing" textLength="110" x="1175.5" y="25.5352">greenSpacesList</text><text fill="#000000" font-family="sans-serif" font-size="14" lengthAdjust="spacing" textLength="130" x="1165.5" y="42.0234">:List&lt;GreenSpace&gt;</text><rect fill="#E3E3E3" height="46.9766" rx="2.5" ry="2.5" style="stroke:#181818;stroke-width:0.5;" width="144" x="1158.5" y="1178.9805"/><text fill="#000000" font-family="sans-serif" font-size="14" lengthAdjust="spacing" textLength="110" x="1175.5" y="1199.5156">greenSpacesList</text><text fill="#000000" font-family="sans-serif" font-size="14" lengthAdjust="spacing" textLength="130" x="1165.5" y="1216.0039">:List&lt;GreenSpace&gt;</text><rect fill="#E3E3E3" height="46.9766" rx="2.5" ry="2.5" style="stroke:#181818;stroke-width:0.5;" width="151" x="1312.5" y="5"/><text fill="#000000" font-family="sans-serif" font-size="14" lengthAdjust="spacing" textLength="132" x="1322" y="25.5352">greenSpaceMapper</text><text fill="#000000" font-family="sans-serif" font-size="14" lengthAdjust="spacing" textLength="137" x="1319.5" y="42.0234">:GreenSpaceMapper</text><rect fill="#E3E3E3" height="46.9766" rx="2.5" ry="2.5" style="stroke:#181818;stroke-width:0.5;" width="151" x="1312.5" y="1178.9805"/><text fill="#000000" font-family="sans-serif" font-size="14" lengthAdjust="spacing" textLength="132" x="1322" y="1199.5156">greenSpaceMapper</text><text fill="#000000" font-family="sans-serif" font-size="14" lengthAdjust="spacing" textLength="137" x="1319.5" y="1216.0039">:GreenSpaceMapper</text><rect fill="#E3E3E3" height="46.9766" rx="2.5" ry="2.5" style="stroke:#181818;stroke-width:0.5;" width="99" x="1526.5" y="5"/><text fill="#000000" font-family="sans-serif" font-size="14" lengthAdjust="spacing" textLength="80" x="1536" y="25.5352">greenSpace</text><text fill="#000000" font-family="sans-serif" font-size="14" lengthAdjust="spacing" textLength="85" x="1533.5" y="42.0234">:GreenSpace</text><rect fill="#E3E3E3" height="46.9766" rx="2.5" ry="2.5" style="stroke:#181818;stroke-width:0.5;" width="99" x="1526.5" y="1178.9805"/><text fill="#000000" font-family="sans-serif" font-size="14" lengthAdjust="spacing" textLength="80" x="1536" y="1199.5156">greenSpace</text><text fill="#000000" font-family="sans-serif" font-size="14" lengthAdjust="spacing" textLength="85" x="1533.5" y="1216.0039">:GreenSpace</text><rect fill="#E3E3E3" height="46.9766" rx="2.5" ry="2.5" style="stroke:#181818;stroke-width:0.5;" width="155" x="1635.5" y="1178.9805"/><text fill="#000000" font-family="sans-serif" font-size="14" lengthAdjust="spacing" textLength="141" x="1642.5" y="1199.5156">GSMGreenSpacesList</text><text fill="#000000" font-family="sans-serif" font-size="14" lengthAdjust="spacing" textLength="130" x="1648" y="1216.0039">:List&lt;GreenSpace&gt;</text><rect fill="#E3E3E3" height="46.9766" rx="2.5" ry="2.5" style="stroke:#181818;stroke-width:0.5;" width="179" x="1800.5" y="1178.9805"/><text fill="#000000" font-family="sans-serif" font-size="14" lengthAdjust="spacing" textLength="165" x="1807.5" y="1199.5156">GSMGreenSpacesListDto</text><text fill="#000000" font-family="sans-serif" font-size="14" lengthAdjust="spacing" textLength="154" x="1813" y="1216.0039">:List&lt;GreenSpaceDto&gt;</text><rect fill="#E3E3E3" height="46.9766" rx="2.5" ry="2.5" style="stroke:#181818;stroke-width:0.5;" width="129" x="1989.5" y="1178.9805"/><text fill="#000000" font-family="sans-serif" font-size="14" lengthAdjust="spacing" textLength="110" x="1999" y="1199.5156">greenSpaceDTO</text><text fill="#000000" font-family="sans-serif" font-size="14" lengthAdjust="spacing" textLength="115" x="1996.5" y="1216.0039">:GreenSpaceDTO</text><rect fill="#FFFFFF" height="1086.6934" style="stroke:#181818;stroke-width:1.0;" width="10" x="193" y="84.2871"/><rect fill="#FFFFFF" height="29.3105" style="stroke:#181818;stroke-width:1.0;" width="10" x="361.5" y="137.9082"/><rect fill="#FFFFFF" height="29.3105" style="stroke:#181818;stroke-width:1.0;" width="10" x="519.5" y="196.5293"/><rect fill="#FFFFFF" height="29.3105" style="stroke:#181818;stroke-width:1.0;" width="10" x="661.5" y="255.1504"/><rect fill="#FFFFFF" height="29.3105" style="stroke:#181818;stroke-width:1.0;" width="10" x="781" y="313.7715"/><rect fill="#FFFFFF" height="29.3105" style="stroke:#181818;stroke-width:1.0;" width="10" x="894" y="372.3926"/><rect fill="#FFFFFF" height="327.8398" style="stroke:#181818;stroke-width:1.0;" width="10" x="1041.5" y="431.0137"/><rect fill="#FFFFFF" height="30" style="stroke:#181818;stroke-width:1.0;" width="10" x="1225.5" y="542.6113"/><rect fill="#FFFFFF" height="337.5059" style="stroke:#181818;stroke-width:1.0;" width="10" x="1383" y="788.1641"/><rect fill="#FFFFFF" height="34.3105" style="stroke:#181818;stroke-width:1.0;" width="10" x="1388" y="967.0723"/><rect fill="#FFFFFF" height="30" style="stroke:#181818;stroke-width:1.0;" width="10" x="1571" y="601.9219"/><rect fill="#FFFFFF" height="30" style="stroke:#181818;stroke-width:1.0;" width="10" x="1708" y="685.543"/><rect fill="#FFFFFF" height="30" style="stroke:#181818;stroke-width:1.0;" width="10" x="1708" y="899.7617"/><rect fill="#FFFFFF" height="30" style="stroke:#181818;stroke-width:1.0;" width="10" x="1885" y="1059.3594"/><polygon fill="#181818" points="181,80.2871,191,84.2871,181,88.2871,185,84.2871" style="stroke:#181818;stroke-width:1.0;"/><line style="stroke:#181818;stroke-width:1.0;" x1="0" x2="187" y1="84.2871" y2="84.2871"/><text fill="#000000" font-family="sans-serif" font-size="13" font-weight="bold" lengthAdjust="spacing" textLength="9" x="7" y="79.5449">3</text><text fill="#000000" font-family="sans-serif" font-size="13" lengthAdjust="spacing" textLength="107" x="20" y="79.5449">getGreenSpaces()</text><path d="M103.5,99.2871 L266.5,99.2871 L266.5,106.5977 L256.5,116.5977 L103.5,116.5977 L103.5,99.2871 " fill="#EEEEEE" style="stroke:#000000;stroke-width:1.5;"/><rect fill="none" height="1034.3828" style="stroke:#000000;stroke-width:1.5;" width="2035" x="103.5" y="99.2871"/><text fill="#000000" font-family="sans-serif" font-size="13" font-weight="bold" lengthAdjust="spacing" textLength="118" x="118.5" y="112.8555">Get Green Spaces</text><polygon fill="#181818" points="349.5,133.9082,359.5,137.9082,349.5,141.9082,353.5,137.9082" style="stroke:#181818;stroke-width:1.0;"/><line style="stroke:#181818;stroke-width:1.0;" x1="203" x2="355.5" y1="137.9082" y2="137.9082"/><text fill="#000000" font-family="sans-serif" font-size="13" font-weight="bold" lengthAdjust="spacing" textLength="21" x="210" y="133.166">3.1</text><text fill="#000000" font-family="sans-serif" font-size="13" lengthAdjust="spacing" textLength="81" x="235" y="133.166">getInstance()</text><polygon fill="#181818" points="214,163.2188,204,167.2188,214,171.2188,210,167.2188" style="stroke:#181818;stroke-width:1.0;"/><line style="stroke:#181818;stroke-width:1.0;" x1="208" x2="365.5" y1="167.2188" y2="167.2188"/><text fill="#000000" font-family="sans-serif" font-size="13" font-weight="bold" lengthAdjust="spacing" textLength="21" x="220" y="162.4766">3.2</text><text fill="#000000" font-family="sans-serif" font-size="13" lengthAdjust="spacing" textLength="71" x="245" y="162.4766">appSession</text><polygon fill="#181818" points="507.5,192.5293,517.5,196.5293,507.5,200.5293,511.5,196.5293" style="stroke:#181818;stroke-width:1.0;"/><line style="stroke:#181818;stroke-width:1.0;" x1="203" x2="513.5" y1="196.5293" y2="196.5293"/><text fill="#000000" font-family="sans-serif" font-size="13" font-weight="bold" lengthAdjust="spacing" textLength="21" x="210" y="191.7871">3.3</text><text fill="#000000" font-family="sans-serif" font-size="13" lengthAdjust="spacing" textLength="123" x="235" y="191.7871">getCurrentSession()</text><polygon fill="#181818" points="214,221.8398,204,225.8398,214,229.8398,210,225.8398" style="stroke:#181818;stroke-width:1.0;"/><line style="stroke:#181818;stroke-width:1.0;stroke-dasharray:2.0,2.0;" x1="208" x2="523.5" y1="225.8398" y2="225.8398"/><text fill="#000000" font-family="sans-serif" font-size="13" font-weight="bold" lengthAdjust="spacing" textLength="21" x="220" y="221.0977">3.4</text><text fill="#000000" font-family="sans-serif" font-size="13" lengthAdjust="spacing" textLength="93" x="245" y="221.0977">currentSession</text><polygon fill="#181818" points="649.5,251.1504,659.5,255.1504,649.5,259.1504,653.5,255.1504" style="stroke:#181818;stroke-width:1.0;"/><line style="stroke:#181818;stroke-width:1.0;" x1="203" x2="655.5" y1="255.1504" y2="255.1504"/><text fill="#000000" font-family="sans-serif" font-size="13" font-weight="bold" lengthAdjust="spacing" textLength="21" x="210" y="250.4082">3.5</text><text fill="#000000" font-family="sans-serif" font-size="13" lengthAdjust="spacing" textLength="142" x="235" y="250.4082">email = getUserEmail()</text><polygon fill="#181818" points="214,280.4609,204,284.4609,214,288.4609,210,284.4609" style="stroke:#181818;stroke-width:1.0;"/><line style="stroke:#181818;stroke-width:1.0;stroke-dasharray:2.0,2.0;" x1="208" x2="665.5" y1="284.4609" y2="284.4609"/><text fill="#000000" font-family="sans-serif" font-size="13" font-weight="bold" lengthAdjust="spacing" textLength="21" x="220" y="279.7188">3.6</text><text fill="#000000" font-family="sans-serif" font-size="13" lengthAdjust="spacing" textLength="34" x="245" y="279.7188">email</text><polygon fill="#181818" points="769,309.7715,779,313.7715,769,317.7715,773,313.7715" style="stroke:#181818;stroke-width:1.0;"/><line style="stroke:#181818;stroke-width:1.0;" x1="203" x2="775" y1="313.7715" y2="313.7715"/><text fill="#000000" font-family="sans-serif" font-size="13" font-weight="bold" lengthAdjust="spacing" textLength="21" x="210" y="309.0293">3.7</text><text fill="#000000" font-family="sans-serif" font-size="13" lengthAdjust="spacing" textLength="81" x="235" y="309.0293">getInstance()</text><polygon fill="#181818" points="214,339.082,204,343.082,214,347.082,210,343.082" style="stroke:#181818;stroke-width:1.0;"/><line style="stroke:#181818;stroke-width:1.0;stroke-dasharray:2.0,2.0;" x1="208" x2="785" y1="343.082" y2="343.082"/><text fill="#000000" font-family="sans-serif" font-size="13" font-weight="bold" lengthAdjust="spacing" textLength="21" x="220" y="338.3398">3.8</text><text fill="#000000" font-family="sans-serif" font-size="13" lengthAdjust="spacing" textLength="75" x="245" y="338.3398">repositories</text><polygon fill="#181818" points="882,368.3926,892,372.3926,882,376.3926,886,372.3926" style="stroke:#181818;stroke-width:1.0;"/><line style="stroke:#181818;stroke-width:1.0;" x1="203" x2="888" y1="372.3926" y2="372.3926"/><text fill="#000000" font-family="sans-serif" font-size="13" font-weight="bold" lengthAdjust="spacing" textLength="21" x="210" y="367.6504">3.9</text><text fill="#000000" font-family="sans-serif" font-size="13" lengthAdjust="spacing" textLength="167" x="235" y="367.6504">getGreenSpaceRepository()</text><polygon fill="#181818" points="214,397.7031,204,401.7031,214,405.7031,210,401.7031" style="stroke:#181818;stroke-width:1.0;"/><line style="stroke:#181818;stroke-width:1.0;stroke-dasharray:2.0,2.0;" x1="208" x2="898" y1="401.7031" y2="401.7031"/><text fill="#000000" font-family="sans-serif" font-size="13" font-weight="bold" lengthAdjust="spacing" textLength="30" x="220" y="396.9609">3.10</text><text fill="#000000" font-family="sans-serif" font-size="13" lengthAdjust="spacing" textLength="138" x="254" y="396.9609">greenSpaceRepository</text><polygon fill="#181818" points="1029.5,427.0137,1039.5,431.0137,1029.5,435.0137,1033.5,431.0137" style="stroke:#181818;stroke-width:1.0;"/><line style="stroke:#181818;stroke-width:1.0;" x1="203" x2="1035.5" y1="431.0137" y2="431.0137"/><text fill="#000000" font-family="sans-serif" font-size="13" font-weight="bold" lengthAdjust="spacing" textLength="30" x="210" y="426.2715">3.11</text><text fill="#000000" font-family="sans-serif" font-size="13" lengthAdjust="spacing" textLength="141" x="244" y="426.2715">getGreenSpaces(email)</text><polygon fill="#181818" points="1623.5,456.3242,1633.5,460.3242,1623.5,464.3242,1627.5,460.3242" style="stroke:#181818;stroke-width:1.0;"/><line style="stroke:#181818;stroke-width:1.0;stroke-dasharray:2.0,2.0;" x1="1051.5" x2="1629.5" y1="460.3242" y2="460.3242"/><text fill="#000000" font-family="sans-serif" font-size="13" font-weight="bold" lengthAdjust="spacing" textLength="30" x="1058.5" y="455.582">3.12</text><text fill="#000000" font-family="sans-serif" font-size="13" lengthAdjust="spacing" textLength="46" x="1092.5" y="455.582">create()</text><rect fill="#E3E3E3" height="46.9766" rx="2.5" ry="2.5" style="stroke:#181818;stroke-width:0.5;" width="155" x="1635.5" y="439.0137"/><text fill="#000000" font-family="sans-serif" font-size="14" lengthAdjust="spacing" textLength="141" x="1642.5" y="459.5488">GSMGreenSpacesList</text><text fill="#000000" font-family="sans-serif" font-size="14" lengthAdjust="spacing" textLength="130" x="1648" y="476.0371">:List&lt;GreenSpace&gt;</text><path d="M940.5,503.9902 L1014.5,503.9902 L1014.5,511.3008 L1004.5,521.3008 L940.5,521.3008 L940.5,503.9902 " fill="#EEEEEE" style="stroke:#000000;stroke-width:1.5;"/><rect fill="none" height="226.5527" style="stroke:#000000;stroke-width:1.5;" width="870" x="940.5" y="503.9902"/><text fill="#000000" font-family="sans-serif" font-size="13" font-weight="bold" lengthAdjust="spacing" textLength="29" x="955.5" y="517.5586">loop</text><text fill="#000000" font-family="sans-serif" font-size="11" font-weight="bold" lengthAdjust="spacing" textLength="166" x="1029.5" y="516.625">[for each known Green Space]</text><polygon fill="#181818" points="1213.5,538.6113,1223.5,542.6113,1213.5,546.6113,1217.5,542.6113" style="stroke:#181818;stroke-width:1.0;"/><line style="stroke:#181818;stroke-width:1.0;" x1="1051.5" x2="1219.5" y1="542.6113" y2="542.6113"/><text fill="#000000" font-family="sans-serif" font-size="13" font-weight="bold" lengthAdjust="spacing" textLength="30" x="1058.5" y="537.8691">3.13</text><text fill="#000000" font-family="sans-serif" font-size="13" lengthAdjust="spacing" textLength="121" x="1092.5" y="537.8691">greenSpace = get(i)</text><polygon fill="#181818" points="1559,597.9219,1569,601.9219,1559,605.9219,1563,601.9219" style="stroke:#181818;stroke-width:1.0;"/><line style="stroke:#181818;stroke-width:1.0;" x1="1051.5" x2="1565" y1="601.9219" y2="601.9219"/><text fill="#000000" font-family="sans-serif" font-size="13" font-weight="bold" lengthAdjust="spacing" textLength="30" x="1058.5" y="597.1797">3.14</text><text fill="#000000" font-family="sans-serif" font-size="13" lengthAdjust="spacing" textLength="171" x="1092.5" y="597.1797">GSM = hasUserEmail(email)</text><path d="M950.5,646.9219 L1017.5,646.9219 L1017.5,654.2324 L1007.5,664.2324 L950.5,664.2324 L950.5,646.9219 " fill="#EEEEEE" style="stroke:#000000;stroke-width:1.5;"/><rect fill="none" height="76.6211" style="stroke:#000000;stroke-width:1.5;" width="850" x="950.5" y="646.9219"/><text fill="#000000" font-family="sans-serif" font-size="13" font-weight="bold" lengthAdjust="spacing" textLength="22" x="965.5" y="660.4902">opt</text><text fill="#000000" font-family="sans-serif" font-size="11" font-weight="bold" lengthAdjust="spacing" textLength="84" x="1032.5" y="659.5566">[hasUserEmail]</text><polygon fill="#181818" points="1696,681.543,1706,685.543,1696,689.543,1700,685.543" style="stroke:#181818;stroke-width:1.0;"/><line style="stroke:#181818;stroke-width:1.0;" x1="1051.5" x2="1702" y1="685.543" y2="685.543"/><text fill="#000000" font-family="sans-serif" font-size="13" font-weight="bold" lengthAdjust="spacing" textLength="30" x="1058.5" y="680.8008">3.15</text><text fill="#000000" font-family="sans-serif" font-size="13" lengthAdjust="spacing" textLength="102" x="1092.5" y="680.8008">add(greenSpace)</text><polygon fill="#181818" points="214,754.8535,204,758.8535,214,762.8535,210,758.8535" style="stroke:#181818;stroke-width:1.0;"/><line style="stroke:#181818;stroke-width:1.0;stroke-dasharray:2.0,2.0;" x1="208" x2="1045.5" y1="758.8535" y2="758.8535"/><text fill="#000000" font-family="sans-serif" font-size="13" font-weight="bold" lengthAdjust="spacing" textLength="30" x="220" y="754.1113">3.16</text><text fill="#000000" font-family="sans-serif" font-size="13" lengthAdjust="spacing" textLength="129" x="254" y="754.1113">GSMGreenSpacesList</text><polygon fill="#181818" points="1371,784.1641,1381,788.1641,1371,792.1641,1375,788.1641" style="stroke:#181818;stroke-width:1.0;"/><line style="stroke:#181818;stroke-width:1.0;" x1="203" x2="1377" y1="788.1641" y2="788.1641"/><text fill="#000000" font-family="sans-serif" font-size="13" font-weight="bold" lengthAdjust="spacing" textLength="30" x="210" y="783.4219">3.17</text><text fill="#000000" font-family="sans-serif" font-size="13" lengthAdjust="spacing" textLength="178" x="244" y="783.4219">toDTO(GSMGreenSpacesList)</text><polygon fill="#181818" points="1788.5,813.4746,1798.5,817.4746,1788.5,821.4746,1792.5,817.4746" style="stroke:#181818;stroke-width:1.0;"/><line style="stroke:#181818;stroke-width:1.0;stroke-dasharray:2.0,2.0;" x1="1393" x2="1794.5" y1="817.4746" y2="817.4746"/><text fill="#000000" font-family="sans-serif" font-size="13" font-weight="bold" lengthAdjust="spacing" textLength="30" x="1400" y="812.7324">3.18</text><text fill="#000000" font-family="sans-serif" font-size="13" lengthAdjust="spacing" textLength="46" x="1434" y="812.7324">create()</text><rect fill="#E3E3E3" height="46.9766" rx="2.5" ry="2.5" style="stroke:#181818;stroke-width:0.5;" width="179" x="1800.5" y="796.1641"/><text fill="#000000" font-family="sans-serif" font-size="14" lengthAdjust="spacing" textLength="165" x="1807.5" y="816.6992">GSMGreenSpacesListDto</text><text fill="#000000" font-family="sans-serif" font-size="14" lengthAdjust="spacing" textLength="154" x="1813" y="833.1875">:List&lt;GreenSpaceDto&gt;</text><path d="M1302.5,861.1406 L1376.5,861.1406 L1376.5,868.4512 L1366.5,878.4512 L1302.5,878.4512 L1302.5,861.1406 " fill="#EEEEEE" style="stroke:#000000;stroke-width:1.5;"/><rect fill="none" height="236.2188" style="stroke:#000000;stroke-width:1.5;" width="826" x="1302.5" y="861.1406"/><text fill="#000000" font-family="sans-serif" font-size="13" font-weight="bold" lengthAdjust="spacing" textLength="29" x="1317.5" y="874.709">loop</text><text fill="#000000" font-family="sans-serif" font-size="11" font-weight="bold" lengthAdjust="spacing" textLength="224" x="1391.5" y="873.7754">[for each object in GSMGreenSpacesList]</text><polygon fill="#181818" points="1696,895.7617,1706,899.7617,1696,903.7617,1700,899.7617" style="stroke:#181818;stroke-width:1.0;"/><line style="stroke:#181818;stroke-width:1.0;" x1="1393" x2="1702" y1="899.7617" y2="899.7617"/><text fill="#000000" font-family="sans-serif" font-size="13" font-weight="bold" lengthAdjust="spacing" textLength="30" x="1400" y="895.0195">3.19</text><text fill="#000000" font-family="sans-serif" font-size="13" lengthAdjust="spacing" textLength="70" x="1434" y="895.0195">obj = get(i)</text><line style="stroke:#181818;stroke-width:1.0;" x1="1393" x2="1440" y1="954.0723" y2="954.0723"/><line style="stroke:#181818;stroke-width:1.0;" x1="1440" x2="1440" y1="954.0723" y2="967.0723"/><line style="stroke:#181818;stroke-width:1.0;" x1="1399" x2="1440" y1="967.0723" y2="967.0723"/><polygon fill="#181818" points="1409,963.0723,1399,967.0723,1409,971.0723,1405,967.0723" style="stroke:#181818;stroke-width:1.0;"/><text fill="#000000" font-family="sans-serif" font-size="13" font-weight="bold" lengthAdjust="spacing" textLength="30" x="1405" y="949.3301">3.20</text><text fill="#000000" font-family="sans-serif" font-size="13" lengthAdjust="spacing" textLength="130" x="1439" y="949.3301">objDto = toDTO(obj)</text><polygon fill="#181818" points="1977.5,997.3828,1987.5,1001.3828,1977.5,1005.3828,1981.5,1001.3828" style="stroke:#181818;stroke-width:1.0;"/><line style="stroke:#181818;stroke-width:1.0;" x1="1393" x2="1983.5" y1="1001.3828" y2="1001.3828"/><text fill="#000000" font-family="sans-serif" font-size="13" font-weight="bold" lengthAdjust="spacing" textLength="30" x="1400" y="996.6406">3.21</text><text fill="#000000" font-family="sans-serif" font-size="13" lengthAdjust="spacing" textLength="58" x="1434" y="996.6406">create(...)</text><rect fill="#E3E3E3" height="46.9766" rx="2.5" ry="2.5" style="stroke:#181818;stroke-width:0.5;" width="129" x="1989.5" y="980.0723"/><text fill="#000000" font-family="sans-serif" font-size="14" lengthAdjust="spacing" textLength="110" x="1999" y="1000.6074">greenSpaceDTO</text><text fill="#000000" font-family="sans-serif" font-size="14" lengthAdjust="spacing" textLength="115" x="1996.5" y="1017.0957">:GreenSpaceDTO</text><polygon fill="#181818" points="1873,1055.3594,1883,1059.3594,1873,1063.3594,1877,1059.3594" style="stroke:#181818;stroke-width:1.0;"/><line style="stroke:#181818;stroke-width:1.0;" x1="1393" x2="1879" y1="1059.3594" y2="1059.3594"/><text fill="#000000" font-family="sans-serif" font-size="13" font-weight="bold" lengthAdjust="spacing" textLength="30" x="1400" y="1054.6172">3.22</text><text fill="#000000" font-family="sans-serif" font-size="13" lengthAdjust="spacing" textLength="74" x="1434" y="1054.6172">add(objDto)</text><polygon fill="#181818" points="214,1121.6699,204,1125.6699,214,1129.6699,210,1125.6699" style="stroke:#181818;stroke-width:1.0;"/><line style="stroke:#181818;stroke-width:1.0;stroke-dasharray:2.0,2.0;" x1="208" x2="1387" y1="1125.6699" y2="1125.6699"/><text fill="#000000" font-family="sans-serif" font-size="13" font-weight="bold" lengthAdjust="spacing" textLength="30" x="220" y="1120.9277">3.23</text><text fill="#000000" font-family="sans-serif" font-size="13" lengthAdjust="spacing" textLength="152" x="254" y="1120.9277">GSMGreenSpacesListDto</text><polygon fill="#181818" points="11,1157.9805,1,1161.9805,11,1165.9805,7,1161.9805" style="stroke:#181818;stroke-width:1.0;"/><line style="stroke:#181818;stroke-width:1.0;stroke-dasharray:2.0,2.0;" x1="5" x2="192" y1="1161.9805" y2="1161.9805"/><text fill="#000000" font-family="sans-serif" font-size="13" font-weight="bold" lengthAdjust="spacing" textLength="18" x="17" y="1157.2383">27</text><text fill="#000000" font-family="sans-serif" font-size="13" lengthAdjust="spacing" textLength="152" x="39" y="1157.2383">GSMGreenSpacesListDto</text><!--SRC=[jLTHJzim47xFhx1uQf6ejErXKiMGK44LKXc8iBT9aqbDwpMr8ziTuj_lx2ID7TkbQO8VG77klllkVFVLaHlA2Ypm5cqvuzbQy2r1Ikn88lTl2fnjy8gawZqdI91CORRARGEvnal-HjaAlU9SaYI1RKKpMc2cqDbqXbb6ybkcnFkCmr-UvqIS8IpHxFbfqJA-BegSPbXHpb8Y9Vmpbd-k7nzTIrmKbS5l5lFodBAT48Ifnl6N9CBsI6_JzExXPulK4ocuf8eBIgGnss-yfrGNGt7ckWZB0y9u08-BwsVNOoK8OIdKcZJWu3aFR1k4q8iOebnGgG1C_xji7AyCKCiiXd4F1IV2OLHkjTYKcp4KnxyLtlMPf_VpunBmBJz2kb7S1uFD61wyYYLqy_pWv0JFhRHW9qdm3bfajtqX0drBBgvCvwCfMX5bXHgDNSF95tZE5Fs75Ibd1S5Q2Ruhq9oeikYez4qI0mdGUbGCyXsJIeyUm29hxH7DJA7Mqfke8ZX5pP0vXalYWZWlQnurZPapSp4o7enUXikUZ3kyCK9HFjLeJn7POfgZ7vgR7lzR_TYYvL2hDS6pg5vO50rqZ5cDWmAh9XaG5dJeC3so8MKAUkWLYjOaOsjO4CBAxUYmTQ9Q0Di3q81ybAMHpsXQ1hl98wIi7-Lp842TGOYtFzAc8yPHgj4CW_9-D8nUGNwwAhw-dPy3yKmG2Amrg4kKdFC2lNA1e7Phj67yZTcwr0ahplgg_Ik5x6CjPtb4nvsZxSlT_X7i2cIrJXlg4qe0sSCXGjfhB1i9wzXg1semJFhTC-U5SbBg372eV7xRGndnSZbg68zF2jZCh7yHEGNFAkO0Y8GjTLsx7OPsqfCzaE9KjvqUsTWrwQMCldgN5rQWfpXSrKO-oLxgNLs7JwnZnIsisd0h7Kou-SjV-B13b0tHSZx_oFH1r06qEy3u4-Pkc2huNGSrW8E4CfJj1uzzIj6hxmunTxvdTDjLNJUPJCQzgzsRzN4Tf-jSIdvPz45xJdyZ3jzs9w7sLMzBTQBAhOaDTjn9eYcR3rlx0_Zhz-Jouk8mX_y0]--></g></svg>