<?xml version="1.0" encoding="us-ascii" standalone="no"?><svg xmlns="http://www.w3.org/2000/svg" xmlns:xlink="http://www.w3.org/1999/xlink" contentStyleType="text/css" height="760px" preserveAspectRatio="none" style="width:952px;height:760px;background:#FFFFFF;" version="1.1" viewBox="0 0 952 760" width="952px" zoomAndPan="magnify"><defs/><g><text fill="#000000" font-family="sans-serif" font-size="14" font-weight="bold" lengthAdjust="spacing" textLength="278" x="336.25" y="28.5352">US025 - Cancel an entry in the agenda</text><rect fill="#FFFFFF" height="532.7227" style="stroke:#181818;stroke-width:1.0;" width="10" x="18" y="128.9766"/><rect fill="#FFFFFF" height="173.8633" style="stroke:#181818;stroke-width:1.0;" width="10" x="458" y="150.2871"/><rect fill="#FFFFFF" height="132.375" style="stroke:#181818;stroke-width:1.0;" width="10" x="458" y="353.4609"/><rect fill="#FFFFFF" height="146.5527" style="stroke:#181818;stroke-width:1.0;" width="10" x="458" y="515.1465"/><rect fill="#FFFFFF" height="73.7539" style="stroke:#181818;stroke-width:1.0;" width="10" x="722" y="221.0859"/><rect fill="#FFFFFF" height="73.7539" style="stroke:#181818;stroke-width:1.0;" width="10" x="722" y="382.7715"/><rect fill="#FFFFFF" height="87.9316" style="stroke:#181818;stroke-width:1.0;" width="10" x="722" y="544.457"/><rect fill="#FFFFFF" height="29.3105" style="stroke:#181818;stroke-width:1.0;" width="10" x="880" y="573.7676"/><line style="stroke:#181818;stroke-width:0.5;stroke-dasharray:5.0,5.0;" x1="23" x2="23" y1="118.9766" y2="679.6992"/><line style="stroke:#181818;stroke-width:0.5;stroke-dasharray:5.0,5.0;" x1="462.5" x2="462.5" y1="118.9766" y2="679.6992"/><line style="stroke:#181818;stroke-width:0.5;stroke-dasharray:5.0,5.0;" x1="726.5" x2="726.5" y1="189.0313" y2="679.6992"/><line style="stroke:#181818;stroke-width:0.5;stroke-dasharray:5.0,5.0;" x1="884.5" x2="884.5" y1="118.9766" y2="679.6992"/><text fill="#000000" font-family="sans-serif" font-size="14" lengthAdjust="spacing" textLength="30" x="5" y="116.0234">GSM</text><ellipse cx="23" cy="50.9883" fill="#E3E3E3" rx="8" ry="8" style="stroke:#181818;stroke-width:0.5;"/><path d="M23,58.9883 L23,85.9883 M10,66.9883 L36,66.9883 M23,85.9883 L10,100.9883 M23,85.9883 L36,100.9883 " fill="none" style="stroke:#181818;stroke-width:0.5;"/><text fill="#000000" font-family="sans-serif" font-size="14" lengthAdjust="spacing" textLength="30" x="5" y="692.2344">GSM</text><ellipse cx="23" cy="703.6875" fill="#E3E3E3" rx="8" ry="8" style="stroke:#181818;stroke-width:0.5;"/><path d="M23,711.6875 L23,738.6875 M10,719.6875 L36,719.6875 M23,738.6875 L10,753.6875 M23,738.6875 L36,753.6875 " fill="none" style="stroke:#181818;stroke-width:0.5;"/><rect fill="#E3E3E3" height="30.4883" rx="2.5" ry="2.5" style="stroke:#181818;stroke-width:0.5;" width="113" x="406.5" y="87.4883"/><text fill="#000000" font-family="sans-serif" font-size="14" lengthAdjust="spacing" textLength="99" x="413.5" y="108.0234">:CancelEntryUI</text><rect fill="#E3E3E3" height="30.4883" rx="2.5" ry="2.5" style="stroke:#181818;stroke-width:0.5;" width="113" x="406.5" y="678.6992"/><text fill="#000000" font-family="sans-serif" font-size="14" lengthAdjust="spacing" textLength="99" x="413.5" y="699.2344">:CancelEntryUI</text><rect fill="#E3E3E3" height="30.4883" rx="2.5" ry="2.5" style="stroke:#181818;stroke-width:0.5;" width="169" x="642.5" y="678.6992"/><text fill="#000000" font-family="sans-serif" font-size="14" lengthAdjust="spacing" textLength="155" x="649.5" y="699.2344">:CancelEntryController</text><rect fill="#E3E3E3" height="46.9766" rx="2.5" ry="2.5" style="stroke:#181818;stroke-width:0.5;" width="123" x="823.5" y="71"/><text fill="#000000" font-family="sans-serif" font-size="14" lengthAdjust="spacing" textLength="101" x="834.5" y="91.5352">taskRepository</text><text fill="#000000" font-family="sans-serif" font-size="14" lengthAdjust="spacing" textLength="109" x="830.5" y="108.0234">:TaskRepository</text><rect fill="#E3E3E3" height="46.9766" rx="2.5" ry="2.5" style="stroke:#181818;stroke-width:0.5;" width="123" x="823.5" y="678.6992"/><text fill="#000000" font-family="sans-serif" font-size="14" lengthAdjust="spacing" textLength="101" x="834.5" y="699.2344">taskRepository</text><text fill="#000000" font-family="sans-serif" font-size="14" lengthAdjust="spacing" textLength="109" x="830.5" y="715.7227">:TaskRepository</text><rect fill="#FFFFFF" height="532.7227" style="stroke:#181818;stroke-width:1.0;" width="10" x="18" y="128.9766"/><rect fill="#FFFFFF" height="173.8633" style="stroke:#181818;stroke-width:1.0;" width="10" x="458" y="150.2871"/><rect fill="#FFFFFF" height="132.375" style="stroke:#181818;stroke-width:1.0;" width="10" x="458" y="353.4609"/><rect fill="#FFFFFF" height="146.5527" style="stroke:#181818;stroke-width:1.0;" width="10" x="458" y="515.1465"/><rect fill="#FFFFFF" height="73.7539" style="stroke:#181818;stroke-width:1.0;" width="10" x="722" y="221.0859"/><rect fill="#FFFFFF" height="73.7539" style="stroke:#181818;stroke-width:1.0;" width="10" x="722" y="382.7715"/><rect fill="#FFFFFF" height="87.9316" style="stroke:#181818;stroke-width:1.0;" width="10" x="722" y="544.457"/><rect fill="#FFFFFF" height="29.3105" style="stroke:#181818;stroke-width:1.0;" width="10" x="880" y="573.7676"/><polygon fill="#181818" points="446,146.2871,456,150.2871,446,154.2871,450,150.2871" style="stroke:#181818;stroke-width:1.0;"/><line style="stroke:#181818;stroke-width:1.0;" x1="28" x2="452" y1="150.2871" y2="150.2871"/><text fill="#000000" font-family="sans-serif" font-size="13" font-weight="bold" lengthAdjust="spacing" textLength="9" x="35" y="145.5449">1</text><text fill="#000000" font-family="sans-serif" font-size="13" lengthAdjust="spacing" textLength="253" x="48" y="145.5449">asks to postpone an entry in the agenda</text><polygon fill="#181818" points="630.5,175.5977,640.5,179.5977,630.5,183.5977,634.5,179.5977" style="stroke:#181818;stroke-width:1.0;"/><line style="stroke:#181818;stroke-width:1.0;" x1="468" x2="636.5" y1="179.5977" y2="179.5977"/><text fill="#000000" font-family="sans-serif" font-size="13" font-weight="bold" lengthAdjust="spacing" textLength="9" x="475" y="174.8555">2</text><text fill="#000000" font-family="sans-serif" font-size="13" lengthAdjust="spacing" textLength="38" x="488" y="174.8555">create</text><rect fill="#E3E3E3" height="30.4883" rx="2.5" ry="2.5" style="stroke:#181818;stroke-width:0.5;" width="169" x="642.5" y="158.2871"/><text fill="#000000" font-family="sans-serif" font-size="14" lengthAdjust="spacing" textLength="155" x="649.5" y="178.8223">:CancelEntryController</text><polygon fill="#181818" points="710,217.0859,720,221.0859,710,225.0859,714,221.0859" style="stroke:#181818;stroke-width:1.0;"/><line style="stroke:#181818;stroke-width:1.0;" x1="468" x2="716" y1="221.0859" y2="221.0859"/><text fill="#000000" font-family="sans-serif" font-size="13" font-weight="bold" lengthAdjust="spacing" textLength="9" x="475" y="216.3438">3</text><text fill="#000000" font-family="sans-serif" font-size="13" lengthAdjust="spacing" textLength="107" x="488" y="216.3438">getGreenSpaces()</text><rect fill="none" height="39.4434" style="stroke:#000000;stroke-width:1.5;" width="175" x="639.5" y="229.0859"/><path d="M639.5,229.0859 L703.5,229.0859 L703.5,236.0859 L693.5,246.0859 L639.5,246.0859 L639.5,229.0859 " fill="#EEEEEE" style="stroke:#000000;stroke-width:2.0;"/><text fill="#000000" font-family="sans-serif" font-size="13" font-weight="bold" lengthAdjust="spacing" textLength="19" x="652.5" y="243.6543">ref</text><text fill="#000000" font-family="sans-serif" font-size="12" lengthAdjust="spacing" textLength="103" x="675.5" y="261.6875">Get Green Spaces</text><polygon fill="#181818" points="479,290.8398,469,294.8398,479,298.8398,475,294.8398" style="stroke:#181818;stroke-width:1.0;"/><line style="stroke:#181818;stroke-width:1.0;stroke-dasharray:2.0,2.0;" x1="473" x2="726" y1="294.8398" y2="294.8398"/><text fill="#000000" font-family="sans-serif" font-size="13" font-weight="bold" lengthAdjust="spacing" textLength="9" x="485" y="290.0977">4</text><text fill="#000000" font-family="sans-serif" font-size="13" lengthAdjust="spacing" textLength="78" x="498" y="290.0977">greenSpaces</text><polygon fill="#181818" points="39,320.1504,29,324.1504,39,328.1504,35,324.1504" style="stroke:#181818;stroke-width:1.0;"/><line style="stroke:#181818;stroke-width:1.0;stroke-dasharray:2.0,2.0;" x1="33" x2="462" y1="324.1504" y2="324.1504"/><text fill="#000000" font-family="sans-serif" font-size="13" font-weight="bold" lengthAdjust="spacing" textLength="9" x="45" y="319.4082">5</text><text fill="#000000" font-family="sans-serif" font-size="13" lengthAdjust="spacing" textLength="252" x="58" y="319.4082">shows list of green spaces to select one</text><polygon fill="#181818" points="446,349.4609,456,353.4609,446,357.4609,450,353.4609" style="stroke:#181818;stroke-width:1.0;"/><line style="stroke:#181818;stroke-width:1.0;" x1="28" x2="452" y1="353.4609" y2="353.4609"/><text fill="#000000" font-family="sans-serif" font-size="13" font-weight="bold" lengthAdjust="spacing" textLength="9" x="35" y="348.7188">6</text><text fill="#000000" font-family="sans-serif" font-size="13" lengthAdjust="spacing" textLength="147" x="48" y="348.7188">selects the green space</text><polygon fill="#181818" points="710,378.7715,720,382.7715,710,386.7715,714,382.7715" style="stroke:#181818;stroke-width:1.0;"/><line style="stroke:#181818;stroke-width:1.0;" x1="468" x2="716" y1="382.7715" y2="382.7715"/><text fill="#000000" font-family="sans-serif" font-size="13" font-weight="bold" lengthAdjust="spacing" textLength="9" x="475" y="378.0293">7</text><text fill="#000000" font-family="sans-serif" font-size="13" lengthAdjust="spacing" textLength="222" x="488" y="378.0293">getTasksByGreenSpace(greenSpace)</text><rect fill="none" height="39.4434" style="stroke:#000000;stroke-width:1.5;" width="175" x="639.5" y="390.7715"/><path d="M639.5,390.7715 L703.5,390.7715 L703.5,397.7715 L693.5,407.7715 L639.5,407.7715 L639.5,390.7715 " fill="#EEEEEE" style="stroke:#000000;stroke-width:2.0;"/><text fill="#000000" font-family="sans-serif" font-size="13" font-weight="bold" lengthAdjust="spacing" textLength="19" x="652.5" y="405.3398">ref</text><text fill="#000000" font-family="sans-serif" font-size="12" lengthAdjust="spacing" textLength="153" x="650.5" y="423.373">Get Tasks by Green Space</text><polygon fill="#181818" points="479,452.5254,469,456.5254,479,460.5254,475,456.5254" style="stroke:#181818;stroke-width:1.0;"/><line style="stroke:#181818;stroke-width:1.0;stroke-dasharray:2.0,2.0;" x1="473" x2="726" y1="456.5254" y2="456.5254"/><text fill="#000000" font-family="sans-serif" font-size="13" font-weight="bold" lengthAdjust="spacing" textLength="9" x="485" y="451.7832">8</text><text fill="#000000" font-family="sans-serif" font-size="13" lengthAdjust="spacing" textLength="120" x="498" y="451.7832">tasksByGreenSpace</text><polygon fill="#181818" points="39,481.8359,29,485.8359,39,489.8359,35,485.8359" style="stroke:#181818;stroke-width:1.0;"/><line style="stroke:#181818;stroke-width:1.0;stroke-dasharray:2.0,2.0;" x1="33" x2="462" y1="485.8359" y2="485.8359"/><text fill="#000000" font-family="sans-serif" font-size="13" font-weight="bold" lengthAdjust="spacing" textLength="9" x="45" y="481.0938">9</text><text fill="#000000" font-family="sans-serif" font-size="13" lengthAdjust="spacing" textLength="393" x="58" y="481.0938">shows list of entries in the agenda of the selected green space</text><polygon fill="#181818" points="446,511.1465,456,515.1465,446,519.1465,450,515.1465" style="stroke:#181818;stroke-width:1.0;"/><line style="stroke:#181818;stroke-width:1.0;" x1="28" x2="452" y1="515.1465" y2="515.1465"/><text fill="#000000" font-family="sans-serif" font-size="13" font-weight="bold" lengthAdjust="spacing" textLength="18" x="35" y="510.4043">10</text><text fill="#000000" font-family="sans-serif" font-size="13" lengthAdjust="spacing" textLength="168" x="57" y="510.4043">selects one entry to cancel</text><polygon fill="#181818" points="710,540.457,720,544.457,710,548.457,714,544.457" style="stroke:#181818;stroke-width:1.0;"/><line style="stroke:#181818;stroke-width:1.0;" x1="468" x2="716" y1="544.457" y2="544.457"/><text fill="#000000" font-family="sans-serif" font-size="13" font-weight="bold" lengthAdjust="spacing" textLength="18" x="475" y="539.7148">11</text><text fill="#000000" font-family="sans-serif" font-size="13" lengthAdjust="spacing" textLength="107" x="497" y="539.7148">cancelEntry(task)</text><polygon fill="#181818" points="868,569.7676,878,573.7676,868,577.7676,872,573.7676" style="stroke:#181818;stroke-width:1.0;"/><line style="stroke:#181818;stroke-width:1.0;" x1="732" x2="874" y1="573.7676" y2="573.7676"/><text fill="#000000" font-family="sans-serif" font-size="13" font-weight="bold" lengthAdjust="spacing" textLength="18" x="739" y="569.0254">12</text><text fill="#000000" font-family="sans-serif" font-size="13" lengthAdjust="spacing" textLength="107" x="761" y="569.0254">cancelEntry(task)</text><polygon fill="#181818" points="743,599.0781,733,603.0781,743,607.0781,739,603.0781" style="stroke:#181818;stroke-width:1.0;"/><line style="stroke:#181818;stroke-width:1.0;stroke-dasharray:2.0,2.0;" x1="737" x2="884" y1="603.0781" y2="603.0781"/><text fill="#000000" font-family="sans-serif" font-size="13" font-weight="bold" lengthAdjust="spacing" textLength="18" x="749" y="598.3359">13</text><text fill="#000000" font-family="sans-serif" font-size="13" lengthAdjust="spacing" textLength="32" x="771" y="598.3359">entry</text><polygon fill="#181818" points="479,628.3887,469,632.3887,479,636.3887,475,632.3887" style="stroke:#181818;stroke-width:1.0;"/><line style="stroke:#181818;stroke-width:1.0;stroke-dasharray:2.0,2.0;" x1="473" x2="726" y1="632.3887" y2="632.3887"/><text fill="#000000" font-family="sans-serif" font-size="13" font-weight="bold" lengthAdjust="spacing" textLength="18" x="485" y="627.6465">14</text><text fill="#000000" font-family="sans-serif" font-size="13" lengthAdjust="spacing" textLength="32" x="507" y="627.6465">entry</text><polygon fill="#181818" points="34,657.6992,24,661.6992,34,665.6992,30,661.6992" style="stroke:#181818;stroke-width:1.0;"/><line style="stroke:#181818;stroke-width:1.0;stroke-dasharray:2.0,2.0;" x1="28" x2="462" y1="661.6992" y2="661.6992"/><text fill="#000000" font-family="sans-serif" font-size="13" font-weight="bold" lengthAdjust="spacing" textLength="18" x="40" y="656.957">15</text><text fill="#000000" font-family="sans-serif" font-size="13" lengthAdjust="spacing" textLength="170" x="62" y="656.957">displays operation success</text><!--SRC=[fLHDYo8n4BtdLnIUd05XMDYBXpci32BiNdIyxIMJBjjWEccIqg7__LOIj3zrM2O7CSchLrNlfJgSjAsbbnLKpZfrzAv287z64MutjLGdMUAE6eFWKP6qfUa2mb4MxbFR4WxI11I2D35qltlvyHCMi99MeG5f0Itv1hG5EY8mfIsa4F9Cpfwh3_JyNv7pC5ll_in01dYhQkCQHC5vI2jTIqimMsR2jqYstoJWVdCVidBywun1dw2hz-tlFfXaE6snTa5pykQlNRxt3b9K_oWLgY-Ii2rH0A_h3XQlN1CiEVGKW1nm9DNEuZqLOl2Daxj91yp0FB7WvsVcKXxvDbzrLmjZK8cqzeXsnwvXc3-DqBSiIOZHTLmU3-0kw3C4xgmr4gHKa7DD0hcvwHoftCLLfh8jUOGkSABas3C7t_HUyYDqdm6C3WJka0aX9CQeVq333nVO0J7Wl8eziYw7XEHIXsxQgYaVufi9lvhMZddRPklB0pyU-X3bJndWe-dw81xAtvUTXXMARuaU7xPclNjFErx4NPOJYv6M_-D5dA0yFkofIZF-rUZ4mMa_1lFOyfEu8tnMvtKmxLyp3ByEyNB0iMZBIGqCMv-Yw9ir6VR8d4A7siY6LQlHIzAELJyh7eWmfNjdU-Nu1m00]--></g></svg>