<?xml version="1.0" encoding="us-ascii" standalone="no"?><svg xmlns="http://www.w3.org/2000/svg" xmlns:xlink="http://www.w3.org/1999/xlink" contentStyleType="text/css" height="1023px" preserveAspectRatio="none" style="width:1376px;height:1023px;background:#FFFFFF;" version="1.1" viewBox="0 0 1376 1023" width="1376px" zoomAndPan="magnify"><defs/><g><text fill="#000000" font-family="sans-serif" font-size="14" font-weight="bold" lengthAdjust="spacing" textLength="278" x="548.25" y="28.5352">US025 - Cancel an entry in the agenda</text><rect fill="#FFFFFF" height="795.5625" style="stroke:#181818;stroke-width:1.0;" width="10" x="18" y="128.9766"/><rect fill="#FFFFFF" height="305.2832" style="stroke:#181818;stroke-width:1.0;" width="10" x="467" y="150.2871"/><rect fill="#FFFFFF" height="263.7949" style="stroke:#181818;stroke-width:1.0;" width="10" x="467" y="484.8809"/><rect fill="#FFFFFF" height="146.5527" style="stroke:#181818;stroke-width:1.0;" width="10" x="467" y="777.9863"/><rect fill="#FFFFFF" height="205.1738" style="stroke:#181818;stroke-width:1.0;" width="10" x="740" y="221.0859"/><rect fill="#FFFFFF" height="205.1738" style="stroke:#181818;stroke-width:1.0;" width="10" x="740" y="514.1914"/><rect fill="#FFFFFF" height="87.9316" style="stroke:#181818;stroke-width:1.0;" width="10" x="740" y="807.2969"/><rect fill="#FFFFFF" height="29.3105" style="stroke:#181818;stroke-width:1.0;" width="10" x="886" y="250.3965"/><rect fill="#FFFFFF" height="29.3105" style="stroke:#181818;stroke-width:1.0;" width="10" x="886" y="543.502"/><rect fill="#FFFFFF" height="29.3105" style="stroke:#181818;stroke-width:1.0;" width="10" x="999" y="309.0176"/><rect fill="#FFFFFF" height="29.3105" style="stroke:#181818;stroke-width:1.0;" width="10" x="999" y="602.123"/><rect fill="#FFFFFF" height="29.3105" style="stroke:#181818;stroke-width:1.0;" width="10" x="1146.5" y="367.6387"/><rect fill="#FFFFFF" height="29.3105" style="stroke:#181818;stroke-width:1.0;" width="10" x="1304" y="660.7441"/><rect fill="#FFFFFF" height="29.3105" style="stroke:#181818;stroke-width:1.0;" width="10" x="1304" y="836.6074"/><line style="stroke:#181818;stroke-width:0.5;stroke-dasharray:5.0,5.0;" x1="23" x2="23" y1="118.9766" y2="942.5391"/><line style="stroke:#181818;stroke-width:0.5;stroke-dasharray:5.0,5.0;" x1="471.5" x2="471.5" y1="118.9766" y2="942.5391"/><line style="stroke:#181818;stroke-width:0.5;stroke-dasharray:5.0,5.0;" x1="744.5" x2="744.5" y1="189.0313" y2="942.5391"/><line style="stroke:#181818;stroke-width:0.5;stroke-dasharray:5.0,5.0;" x1="890.5" x2="890.5" y1="118.9766" y2="942.5391"/><line style="stroke:#181818;stroke-width:0.5;stroke-dasharray:5.0,5.0;" x1="1003.5" x2="1003.5" y1="118.9766" y2="942.5391"/><line style="stroke:#181818;stroke-width:0.5;stroke-dasharray:5.0,5.0;" x1="1151.5" x2="1151.5" y1="118.9766" y2="942.5391"/><line style="stroke:#181818;stroke-width:0.5;stroke-dasharray:5.0,5.0;" x1="1308.5" x2="1308.5" y1="118.9766" y2="942.5391"/><text fill="#000000" font-family="sans-serif" font-size="14" lengthAdjust="spacing" textLength="30" x="5" y="116.0234">GSM</text><ellipse cx="23" cy="50.9883" fill="#E3E3E3" rx="8" ry="8" style="stroke:#181818;stroke-width:0.5;"/><path d="M23,58.9883 L23,85.9883 M10,66.9883 L36,66.9883 M23,85.9883 L10,100.9883 M23,85.9883 L36,100.9883 " fill="none" style="stroke:#181818;stroke-width:0.5;"/><text fill="#000000" font-family="sans-serif" font-size="14" lengthAdjust="spacing" textLength="30" x="5" y="955.0742">GSM</text><ellipse cx="23" cy="966.5273" fill="#E3E3E3" rx="8" ry="8" style="stroke:#181818;stroke-width:0.5;"/><path d="M23,974.5273 L23,1001.5273 M10,982.5273 L36,982.5273 M23,1001.5273 L10,1016.5273 M23,1001.5273 L36,1016.5273 " fill="none" style="stroke:#181818;stroke-width:0.5;"/><rect fill="#E3E3E3" height="30.4883" rx="2.5" ry="2.5" style="stroke:#181818;stroke-width:0.5;" width="113" x="415.5" y="87.4883"/><text fill="#000000" font-family="sans-serif" font-size="14" lengthAdjust="spacing" textLength="99" x="422.5" y="108.0234">:CancelEntryUI</text><rect fill="#E3E3E3" height="30.4883" rx="2.5" ry="2.5" style="stroke:#181818;stroke-width:0.5;" width="113" x="415.5" y="941.5391"/><text fill="#000000" font-family="sans-serif" font-size="14" lengthAdjust="spacing" textLength="99" x="422.5" y="962.0742">:CancelEntryUI</text><rect fill="#E3E3E3" height="30.4883" rx="2.5" ry="2.5" style="stroke:#181818;stroke-width:0.5;" width="169" x="660.5" y="941.5391"/><text fill="#000000" font-family="sans-serif" font-size="14" lengthAdjust="spacing" textLength="155" x="667.5" y="962.0742">:CancelEntryController</text><rect fill="#E3E3E3" height="30.4883" rx="2.5" ry="2.5" style="stroke:#181818;stroke-width:0.5;" width="103" x="839.5" y="87.4883"/><text fill="#000000" font-family="sans-serif" font-size="14" lengthAdjust="spacing" textLength="89" x="846.5" y="108.0234">:Repositories</text><rect fill="#E3E3E3" height="30.4883" rx="2.5" ry="2.5" style="stroke:#181818;stroke-width:0.5;" width="103" x="839.5" y="941.5391"/><text fill="#000000" font-family="sans-serif" font-size="14" lengthAdjust="spacing" textLength="89" x="846.5" y="962.0742">:Repositories</text><rect fill="#E3E3E3" height="46.9766" rx="2.5" ry="2.5" style="stroke:#181818;stroke-width:0.5;" width="103" x="952.5" y="71"/><text fill="#000000" font-family="sans-serif" font-size="14" lengthAdjust="spacing" textLength="82" x="963" y="91.5352">repositories</text><text fill="#000000" font-family="sans-serif" font-size="14" lengthAdjust="spacing" textLength="89" x="959.5" y="108.0234">:Repositories</text><rect fill="#E3E3E3" height="46.9766" rx="2.5" ry="2.5" style="stroke:#181818;stroke-width:0.5;" width="103" x="952.5" y="941.5391"/><text fill="#000000" font-family="sans-serif" font-size="14" lengthAdjust="spacing" textLength="82" x="963" y="962.0742">repositories</text><text fill="#000000" font-family="sans-serif" font-size="14" lengthAdjust="spacing" textLength="89" x="959.5" y="978.5625">:Repositories</text><rect fill="#E3E3E3" height="46.9766" rx="2.5" ry="2.5" style="stroke:#181818;stroke-width:0.5;" width="172" x="1065.5" y="71"/><text fill="#000000" font-family="sans-serif" font-size="14" lengthAdjust="spacing" textLength="153" x="1075" y="91.5352">greenSpaceRepository</text><text fill="#000000" font-family="sans-serif" font-size="14" lengthAdjust="spacing" textLength="158" x="1072.5" y="108.0234">:GreenSpaceRepository</text><rect fill="#E3E3E3" height="46.9766" rx="2.5" ry="2.5" style="stroke:#181818;stroke-width:0.5;" width="172" x="1065.5" y="941.5391"/><text fill="#000000" font-family="sans-serif" font-size="14" lengthAdjust="spacing" textLength="153" x="1075" y="962.0742">greenSpaceRepository</text><text fill="#000000" font-family="sans-serif" font-size="14" lengthAdjust="spacing" textLength="158" x="1072.5" y="978.5625">:GreenSpaceRepository</text><rect fill="#E3E3E3" height="46.9766" rx="2.5" ry="2.5" style="stroke:#181818;stroke-width:0.5;" width="123" x="1247.5" y="71"/><text fill="#000000" font-family="sans-serif" font-size="14" lengthAdjust="spacing" textLength="101" x="1258.5" y="91.5352">taskRepository</text><text fill="#000000" font-family="sans-serif" font-size="14" lengthAdjust="spacing" textLength="109" x="1254.5" y="108.0234">:TaskRepository</text><rect fill="#E3E3E3" height="46.9766" rx="2.5" ry="2.5" style="stroke:#181818;stroke-width:0.5;" width="123" x="1247.5" y="941.5391"/><text fill="#000000" font-family="sans-serif" font-size="14" lengthAdjust="spacing" textLength="101" x="1258.5" y="962.0742">taskRepository</text><text fill="#000000" font-family="sans-serif" font-size="14" lengthAdjust="spacing" textLength="109" x="1254.5" y="978.5625">:TaskRepository</text><rect fill="#FFFFFF" height="795.5625" style="stroke:#181818;stroke-width:1.0;" width="10" x="18" y="128.9766"/><rect fill="#FFFFFF" height="305.2832" style="stroke:#181818;stroke-width:1.0;" width="10" x="467" y="150.2871"/><rect fill="#FFFFFF" height="263.7949" style="stroke:#181818;stroke-width:1.0;" width="10" x="467" y="484.8809"/><rect fill="#FFFFFF" height="146.5527" style="stroke:#181818;stroke-width:1.0;" width="10" x="467" y="777.9863"/><rect fill="#FFFFFF" height="205.1738" style="stroke:#181818;stroke-width:1.0;" width="10" x="740" y="221.0859"/><rect fill="#FFFFFF" height="205.1738" style="stroke:#181818;stroke-width:1.0;" width="10" x="740" y="514.1914"/><rect fill="#FFFFFF" height="87.9316" style="stroke:#181818;stroke-width:1.0;" width="10" x="740" y="807.2969"/><rect fill="#FFFFFF" height="29.3105" style="stroke:#181818;stroke-width:1.0;" width="10" x="886" y="250.3965"/><rect fill="#FFFFFF" height="29.3105" style="stroke:#181818;stroke-width:1.0;" width="10" x="886" y="543.502"/><rect fill="#FFFFFF" height="29.3105" style="stroke:#181818;stroke-width:1.0;" width="10" x="999" y="309.0176"/><rect fill="#FFFFFF" height="29.3105" style="stroke:#181818;stroke-width:1.0;" width="10" x="999" y="602.123"/><rect fill="#FFFFFF" height="29.3105" style="stroke:#181818;stroke-width:1.0;" width="10" x="1146.5" y="367.6387"/><rect fill="#FFFFFF" height="29.3105" style="stroke:#181818;stroke-width:1.0;" width="10" x="1304" y="660.7441"/><rect fill="#FFFFFF" height="29.3105" style="stroke:#181818;stroke-width:1.0;" width="10" x="1304" y="836.6074"/><polygon fill="#181818" points="455,146.2871,465,150.2871,455,154.2871,459,150.2871" style="stroke:#181818;stroke-width:1.0;"/><line style="stroke:#181818;stroke-width:1.0;" x1="28" x2="461" y1="150.2871" y2="150.2871"/><text fill="#000000" font-family="sans-serif" font-size="13" font-weight="bold" lengthAdjust="spacing" textLength="9" x="35" y="145.5449">1</text><text fill="#000000" font-family="sans-serif" font-size="13" lengthAdjust="spacing" textLength="234" x="48" y="145.5449">asks to cancel an entry in the agenda</text><polygon fill="#181818" points="648.5,175.5977,658.5,179.5977,648.5,183.5977,652.5,179.5977" style="stroke:#181818;stroke-width:1.0;"/><line style="stroke:#181818;stroke-width:1.0;" x1="477" x2="654.5" y1="179.5977" y2="179.5977"/><text fill="#000000" font-family="sans-serif" font-size="13" font-weight="bold" lengthAdjust="spacing" textLength="9" x="484" y="174.8555">2</text><text fill="#000000" font-family="sans-serif" font-size="13" lengthAdjust="spacing" textLength="38" x="497" y="174.8555">create</text><rect fill="#E3E3E3" height="30.4883" rx="2.5" ry="2.5" style="stroke:#181818;stroke-width:0.5;" width="169" x="660.5" y="158.2871"/><text fill="#000000" font-family="sans-serif" font-size="14" lengthAdjust="spacing" textLength="155" x="667.5" y="178.8223">:CancelEntryController</text><polygon fill="#181818" points="728,217.0859,738,221.0859,728,225.0859,732,221.0859" style="stroke:#181818;stroke-width:1.0;"/><line style="stroke:#181818;stroke-width:1.0;" x1="477" x2="734" y1="221.0859" y2="221.0859"/><text fill="#000000" font-family="sans-serif" font-size="13" font-weight="bold" lengthAdjust="spacing" textLength="9" x="484" y="216.3438">3</text><text fill="#000000" font-family="sans-serif" font-size="13" lengthAdjust="spacing" textLength="107" x="497" y="216.3438">getGreenSpaces()</text><polygon fill="#181818" points="874,246.3965,884,250.3965,874,254.3965,878,250.3965" style="stroke:#181818;stroke-width:1.0;"/><line style="stroke:#181818;stroke-width:1.0;" x1="750" x2="880" y1="250.3965" y2="250.3965"/><text fill="#000000" font-family="sans-serif" font-size="13" font-weight="bold" lengthAdjust="spacing" textLength="9" x="757" y="245.6543">4</text><text fill="#000000" font-family="sans-serif" font-size="13" lengthAdjust="spacing" textLength="81" x="770" y="245.6543">getInstance()</text><polygon fill="#181818" points="761,275.707,751,279.707,761,283.707,757,279.707" style="stroke:#181818;stroke-width:1.0;"/><line style="stroke:#181818;stroke-width:1.0;stroke-dasharray:2.0,2.0;" x1="755" x2="890" y1="279.707" y2="279.707"/><text fill="#000000" font-family="sans-serif" font-size="13" font-weight="bold" lengthAdjust="spacing" textLength="9" x="767" y="274.9648">5</text><text fill="#000000" font-family="sans-serif" font-size="13" lengthAdjust="spacing" textLength="75" x="780" y="274.9648">repositories</text><polygon fill="#181818" points="987,305.0176,997,309.0176,987,313.0176,991,309.0176" style="stroke:#181818;stroke-width:1.0;"/><line style="stroke:#181818;stroke-width:1.0;" x1="750" x2="993" y1="309.0176" y2="309.0176"/><text fill="#000000" font-family="sans-serif" font-size="13" font-weight="bold" lengthAdjust="spacing" textLength="9" x="757" y="304.2754">6</text><text fill="#000000" font-family="sans-serif" font-size="13" lengthAdjust="spacing" textLength="167" x="770" y="304.2754">getGreenSpaceRepository()</text><polygon fill="#181818" points="761,334.3281,751,338.3281,761,342.3281,757,338.3281" style="stroke:#181818;stroke-width:1.0;"/><line style="stroke:#181818;stroke-width:1.0;stroke-dasharray:2.0,2.0;" x1="755" x2="1003" y1="338.3281" y2="338.3281"/><text fill="#000000" font-family="sans-serif" font-size="13" font-weight="bold" lengthAdjust="spacing" textLength="9" x="767" y="333.5859">7</text><text fill="#000000" font-family="sans-serif" font-size="13" lengthAdjust="spacing" textLength="138" x="780" y="333.5859">greenSpaceRepository</text><polygon fill="#181818" points="1134.5,363.6387,1144.5,367.6387,1134.5,371.6387,1138.5,367.6387" style="stroke:#181818;stroke-width:1.0;"/><line style="stroke:#181818;stroke-width:1.0;" x1="750" x2="1140.5" y1="367.6387" y2="367.6387"/><text fill="#000000" font-family="sans-serif" font-size="13" font-weight="bold" lengthAdjust="spacing" textLength="9" x="757" y="362.8965">8</text><text fill="#000000" font-family="sans-serif" font-size="13" lengthAdjust="spacing" textLength="107" x="770" y="362.8965">getGreenSpaces()</text><polygon fill="#181818" points="761,392.9492,751,396.9492,761,400.9492,757,396.9492" style="stroke:#181818;stroke-width:1.0;"/><line style="stroke:#181818;stroke-width:1.0;stroke-dasharray:2.0,2.0;" x1="755" x2="1150.5" y1="396.9492" y2="396.9492"/><text fill="#000000" font-family="sans-serif" font-size="13" font-weight="bold" lengthAdjust="spacing" textLength="9" x="767" y="392.207">9</text><text fill="#000000" font-family="sans-serif" font-size="13" lengthAdjust="spacing" textLength="78" x="780" y="392.207">greenSpaces</text><polygon fill="#181818" points="488,422.2598,478,426.2598,488,430.2598,484,426.2598" style="stroke:#181818;stroke-width:1.0;"/><line style="stroke:#181818;stroke-width:1.0;stroke-dasharray:2.0,2.0;" x1="482" x2="744" y1="426.2598" y2="426.2598"/><text fill="#000000" font-family="sans-serif" font-size="13" font-weight="bold" lengthAdjust="spacing" textLength="18" x="494" y="421.5176">10</text><text fill="#000000" font-family="sans-serif" font-size="13" lengthAdjust="spacing" textLength="78" x="516" y="421.5176">greenSpaces</text><polygon fill="#181818" points="39,451.5703,29,455.5703,39,459.5703,35,455.5703" style="stroke:#181818;stroke-width:1.0;"/><line style="stroke:#181818;stroke-width:1.0;stroke-dasharray:2.0,2.0;" x1="33" x2="471" y1="455.5703" y2="455.5703"/><text fill="#000000" font-family="sans-serif" font-size="13" font-weight="bold" lengthAdjust="spacing" textLength="18" x="45" y="450.8281">11</text><text fill="#000000" font-family="sans-serif" font-size="13" lengthAdjust="spacing" textLength="252" x="67" y="450.8281">shows list of green spaces to select one</text><polygon fill="#181818" points="455,480.8809,465,484.8809,455,488.8809,459,484.8809" style="stroke:#181818;stroke-width:1.0;"/><line style="stroke:#181818;stroke-width:1.0;" x1="28" x2="461" y1="484.8809" y2="484.8809"/><text fill="#000000" font-family="sans-serif" font-size="13" font-weight="bold" lengthAdjust="spacing" textLength="18" x="35" y="480.1387">12</text><text fill="#000000" font-family="sans-serif" font-size="13" lengthAdjust="spacing" textLength="147" x="57" y="480.1387">selects the green space</text><polygon fill="#181818" points="728,510.1914,738,514.1914,728,518.1914,732,514.1914" style="stroke:#181818;stroke-width:1.0;"/><line style="stroke:#181818;stroke-width:1.0;" x1="477" x2="734" y1="514.1914" y2="514.1914"/><text fill="#000000" font-family="sans-serif" font-size="13" font-weight="bold" lengthAdjust="spacing" textLength="18" x="484" y="509.4492">13</text><text fill="#000000" font-family="sans-serif" font-size="13" lengthAdjust="spacing" textLength="222" x="506" y="509.4492">getTasksByGreenSpace(greenSpace)</text><polygon fill="#181818" points="874,539.502,884,543.502,874,547.502,878,543.502" style="stroke:#181818;stroke-width:1.0;"/><line style="stroke:#181818;stroke-width:1.0;" x1="750" x2="880" y1="543.502" y2="543.502"/><text fill="#000000" font-family="sans-serif" font-size="13" font-weight="bold" lengthAdjust="spacing" textLength="18" x="757" y="538.7598">14</text><text fill="#000000" font-family="sans-serif" font-size="13" lengthAdjust="spacing" textLength="81" x="779" y="538.7598">getInstance()</text><polygon fill="#181818" points="761,568.8125,751,572.8125,761,576.8125,757,572.8125" style="stroke:#181818;stroke-width:1.0;"/><line style="stroke:#181818;stroke-width:1.0;stroke-dasharray:2.0,2.0;" x1="755" x2="890" y1="572.8125" y2="572.8125"/><text fill="#000000" font-family="sans-serif" font-size="13" font-weight="bold" lengthAdjust="spacing" textLength="18" x="767" y="568.0703">15</text><text fill="#000000" font-family="sans-serif" font-size="13" lengthAdjust="spacing" textLength="75" x="789" y="568.0703">repositories</text><polygon fill="#181818" points="987,598.123,997,602.123,987,606.123,991,602.123" style="stroke:#181818;stroke-width:1.0;"/><line style="stroke:#181818;stroke-width:1.0;" x1="750" x2="993" y1="602.123" y2="602.123"/><text fill="#000000" font-family="sans-serif" font-size="13" font-weight="bold" lengthAdjust="spacing" textLength="18" x="757" y="597.3809">16</text><text fill="#000000" font-family="sans-serif" font-size="13" lengthAdjust="spacing" textLength="125" x="779" y="597.3809">getTaskRepository()</text><polygon fill="#181818" points="761,627.4336,751,631.4336,761,635.4336,757,631.4336" style="stroke:#181818;stroke-width:1.0;"/><line style="stroke:#181818;stroke-width:1.0;stroke-dasharray:2.0,2.0;" x1="755" x2="1003" y1="631.4336" y2="631.4336"/><text fill="#000000" font-family="sans-serif" font-size="13" font-weight="bold" lengthAdjust="spacing" textLength="18" x="767" y="626.6914">17</text><text fill="#000000" font-family="sans-serif" font-size="13" lengthAdjust="spacing" textLength="94" x="789" y="626.6914">taskRepository</text><polygon fill="#181818" points="1292,656.7441,1302,660.7441,1292,664.7441,1296,660.7441" style="stroke:#181818;stroke-width:1.0;"/><line style="stroke:#181818;stroke-width:1.0;" x1="750" x2="1298" y1="660.7441" y2="660.7441"/><text fill="#000000" font-family="sans-serif" font-size="13" font-weight="bold" lengthAdjust="spacing" textLength="18" x="757" y="656.002">18</text><text fill="#000000" font-family="sans-serif" font-size="13" lengthAdjust="spacing" textLength="222" x="779" y="656.002">getTasksByGreenSpace(greenSpace)</text><polygon fill="#181818" points="761,686.0547,751,690.0547,761,694.0547,757,690.0547" style="stroke:#181818;stroke-width:1.0;"/><line style="stroke:#181818;stroke-width:1.0;stroke-dasharray:2.0,2.0;" x1="755" x2="1308" y1="690.0547" y2="690.0547"/><text fill="#000000" font-family="sans-serif" font-size="13" font-weight="bold" lengthAdjust="spacing" textLength="18" x="767" y="685.3125">19</text><text fill="#000000" font-family="sans-serif" font-size="13" lengthAdjust="spacing" textLength="120" x="789" y="685.3125">tasksByGreenSpace</text><polygon fill="#181818" points="488,715.3652,478,719.3652,488,723.3652,484,719.3652" style="stroke:#181818;stroke-width:1.0;"/><line style="stroke:#181818;stroke-width:1.0;stroke-dasharray:2.0,2.0;" x1="482" x2="744" y1="719.3652" y2="719.3652"/><text fill="#000000" font-family="sans-serif" font-size="13" font-weight="bold" lengthAdjust="spacing" textLength="18" x="494" y="714.623">20</text><text fill="#000000" font-family="sans-serif" font-size="13" lengthAdjust="spacing" textLength="120" x="516" y="714.623">tasksByGreenSpace</text><polygon fill="#181818" points="39,744.6758,29,748.6758,39,752.6758,35,748.6758" style="stroke:#181818;stroke-width:1.0;"/><line style="stroke:#181818;stroke-width:1.0;stroke-dasharray:2.0,2.0;" x1="33" x2="471" y1="748.6758" y2="748.6758"/><text fill="#000000" font-family="sans-serif" font-size="13" font-weight="bold" lengthAdjust="spacing" textLength="18" x="45" y="743.9336">21</text><text fill="#000000" font-family="sans-serif" font-size="13" lengthAdjust="spacing" textLength="393" x="67" y="743.9336">shows list of entries in the agenda of the selected green space</text><polygon fill="#181818" points="455,773.9863,465,777.9863,455,781.9863,459,777.9863" style="stroke:#181818;stroke-width:1.0;"/><line style="stroke:#181818;stroke-width:1.0;" x1="28" x2="461" y1="777.9863" y2="777.9863"/><text fill="#000000" font-family="sans-serif" font-size="13" font-weight="bold" lengthAdjust="spacing" textLength="18" x="35" y="773.2441">22</text><text fill="#000000" font-family="sans-serif" font-size="13" lengthAdjust="spacing" textLength="168" x="57" y="773.2441">selects one entry to cancel</text><polygon fill="#181818" points="728,803.2969,738,807.2969,728,811.2969,732,807.2969" style="stroke:#181818;stroke-width:1.0;"/><line style="stroke:#181818;stroke-width:1.0;" x1="477" x2="734" y1="807.2969" y2="807.2969"/><text fill="#000000" font-family="sans-serif" font-size="13" font-weight="bold" lengthAdjust="spacing" textLength="18" x="484" y="802.5547">23</text><text fill="#000000" font-family="sans-serif" font-size="13" lengthAdjust="spacing" textLength="107" x="506" y="802.5547">cancelEntry(task)</text><polygon fill="#181818" points="1292,832.6074,1302,836.6074,1292,840.6074,1296,836.6074" style="stroke:#181818;stroke-width:1.0;"/><line style="stroke:#181818;stroke-width:1.0;" x1="750" x2="1298" y1="836.6074" y2="836.6074"/><text fill="#000000" font-family="sans-serif" font-size="13" font-weight="bold" lengthAdjust="spacing" textLength="18" x="757" y="831.8652">24</text><text fill="#000000" font-family="sans-serif" font-size="13" lengthAdjust="spacing" textLength="107" x="779" y="831.8652">cancelEntry(task)</text><polygon fill="#181818" points="761,861.918,751,865.918,761,869.918,757,865.918" style="stroke:#181818;stroke-width:1.0;"/><line style="stroke:#181818;stroke-width:1.0;stroke-dasharray:2.0,2.0;" x1="755" x2="1308" y1="865.918" y2="865.918"/><text fill="#000000" font-family="sans-serif" font-size="13" font-weight="bold" lengthAdjust="spacing" textLength="18" x="767" y="861.1758">25</text><text fill="#000000" font-family="sans-serif" font-size="13" lengthAdjust="spacing" textLength="32" x="789" y="861.1758">entry</text><polygon fill="#181818" points="488,891.2285,478,895.2285,488,899.2285,484,895.2285" style="stroke:#181818;stroke-width:1.0;"/><line style="stroke:#181818;stroke-width:1.0;stroke-dasharray:2.0,2.0;" x1="482" x2="744" y1="895.2285" y2="895.2285"/><text fill="#000000" font-family="sans-serif" font-size="13" font-weight="bold" lengthAdjust="spacing" textLength="18" x="494" y="890.4863">26</text><text fill="#000000" font-family="sans-serif" font-size="13" lengthAdjust="spacing" textLength="32" x="516" y="890.4863">entry</text><polygon fill="#181818" points="34,920.5391,24,924.5391,34,928.5391,30,924.5391" style="stroke:#181818;stroke-width:1.0;"/><line style="stroke:#181818;stroke-width:1.0;stroke-dasharray:2.0,2.0;" x1="28" x2="471" y1="924.5391" y2="924.5391"/><text fill="#000000" font-family="sans-serif" font-size="13" font-weight="bold" lengthAdjust="spacing" textLength="18" x="40" y="919.7969">27</text><text fill="#000000" font-family="sans-serif" font-size="13" lengthAdjust="spacing" textLength="170" x="62" y="919.7969">displays operation success</text><!--SRC=[dLR1QkCm4BthAuQSqa9WMTXB3WkxePH02wLERdlHEjD4n96Cf6pnt-z8hYtBbkCaEfHQcdapRqPF4tCKikIQd-2afCeFMfqGh3uZC-r9oVCZtsDcgm91Oswvt1TT0tFWE_Kfv1u-U66GCIiicMwpRzz_m09MNEPO09U0qkeAX0HxG218kUECyRDLydpwYvh-pwtIC7lENcV03JoToa9LY8pYM96BaaiBisKD-EJ0jcjlk5sFcwmK_LL5WTgRhZRlBptZTooL4HHPeF4sxKQL2SUL4enTTCVZZnm2lBtysiGUUuqeCoeb1d3oV4viUuJKGOnekJb6M9jemwF4Mxw-uX-t62hBW5Rp1OkVL4fOaklHW5MGNsoTSsqHgGL-W_m9nLNvyP6GSerqMXzrLp0ZeptQmDVC7mRMRHJVlS6nMnwA81EzgoEifR6EJW8-2f5gVjB3hLIqnHUn9NIlIH9YXxU7ROYwEzQlNG2POkblw2WjZnruf2xl59_n00s1LDhNN8Q8Hr8dexoI8HUTYnW2J_6xFd3Djv7MfH0T-73HdLB8kTNeajvRzMcW4CQ2-gW1mNX4frc31RtHe2Io7cOZqO7SQnVZjTs1ImiyfLxtpfZVLQZ9FD0C3RoWudlLUxryxbJgBGeTAZD-VyTo7qgbfx_ugMTNAwv9A4xZbfP5UVQdITUe5wAZATiFD9R_9VXOG-EGTod8pJRgUppTt87xghM1ku4mRX4MYV5hWhP3TMfwkjaPViJC7UK7DgAYqJvF8AGgFjv8Ju1TqRIuMKctIytP2LCMlAAgbQYv5IHKSyxfTJEfkdS-6up_]--></g></svg>