<?xml version="1.0" encoding="us-ascii" standalone="no"?><svg xmlns="http://www.w3.org/2000/svg" xmlns:xlink="http://www.w3.org/1999/xlink" contentStyleType="text/css" height="997px" preserveAspectRatio="none" style="width:1473px;height:997px;background:#FFFFFF;" version="1.1" viewBox="0 0 1473 997" width="1473px" zoomAndPan="magnify"><defs/><g><rect fill="#FFFFFF" height="852.209" style="stroke:#181818;stroke-width:1.0;" width="10" x="263" y="84.2871"/><rect fill="#FFFFFF" height="29.3105" style="stroke:#181818;stroke-width:1.0;" width="10" x="409" y="137.9082"/><rect fill="#FFFFFF" height="337.5059" style="stroke:#181818;stroke-width:1.0;" width="10" x="521.5" y="553.6797"/><rect fill="#FFFFFF" height="34.3105" style="stroke:#181818;stroke-width:1.0;" width="10" x="526.5" y="732.5879"/><rect fill="#FFFFFF" height="327.8398" style="stroke:#181818;stroke-width:1.0;" width="10" x="718.5" y="196.5293"/><rect fill="#FFFFFF" height="30" style="stroke:#181818;stroke-width:1.0;" width="10" x="858.5" y="308.127"/><rect fill="#FFFFFF" height="30" style="stroke:#181818;stroke-width:1.0;" width="10" x="1000" y="451.0586"/><rect fill="#FFFFFF" height="30" style="stroke:#181818;stroke-width:1.0;" width="10" x="1000" y="665.2773"/><rect fill="#FFFFFF" height="30" style="stroke:#181818;stroke-width:1.0;" width="10" x="1119" y="367.4375"/><rect fill="#FFFFFF" height="30" style="stroke:#181818;stroke-width:1.0;" width="10" x="1253" y="824.875"/><rect fill="none" height="799.8984" style="stroke:#000000;stroke-width:1.5;" width="1293.5" x="173.5" y="99.2871"/><rect fill="none" height="226.5527" style="stroke:#000000;stroke-width:1.5;" width="491" x="668" y="269.5059"/><rect fill="none" height="76.6211" style="stroke:#000000;stroke-width:1.5;" width="421" x="678" y="412.4375"/><rect fill="none" height="236.2188" style="stroke:#000000;stroke-width:1.5;" width="991.5" x="465.5" y="626.6563"/><line style="stroke:#181818;stroke-width:0.5;stroke-dasharray:5.0,5.0;" x1="267.5" x2="267.5" y1="52.9766" y2="945.4961"/><line style="stroke:#181818;stroke-width:0.5;stroke-dasharray:5.0,5.0;" x1="413.5" x2="413.5" y1="52.9766" y2="945.4961"/><line style="stroke:#181818;stroke-width:0.5;stroke-dasharray:5.0,5.0;" x1="526.5" x2="526.5" y1="52.9766" y2="945.4961"/><line style="stroke:#181818;stroke-width:0.5;stroke-dasharray:5.0,5.0;" x1="723" x2="723" y1="52.9766" y2="945.4961"/><line style="stroke:#181818;stroke-width:0.5;stroke-dasharray:5.0,5.0;" x1="863" x2="863" y1="52.9766" y2="945.4961"/><line style="stroke:#181818;stroke-width:0.5;stroke-dasharray:5.0,5.0;" x1="1005" x2="1005" y1="243.5176" y2="945.4961"/><line style="stroke:#181818;stroke-width:0.5;stroke-dasharray:5.0,5.0;" x1="1124" x2="1124" y1="52.9766" y2="945.4961"/><line style="stroke:#181818;stroke-width:0.5;stroke-dasharray:5.0,5.0;" x1="1258" x2="1258" y1="600.668" y2="945.4961"/><line style="stroke:#181818;stroke-width:0.5;stroke-dasharray:5.0,5.0;" x1="1407" x2="1407" y1="784.5762" y2="945.4961"/><rect fill="#E3E3E3" height="30.4883" rx="2.5" ry="2.5" style="stroke:#181818;stroke-width:0.5;" width="169" x="183.5" y="21.4883"/><text fill="#000000" font-family="sans-serif" font-size="14" lengthAdjust="spacing" textLength="155" x="190.5" y="42.0234">:CancelEntryController</text><rect fill="#E3E3E3" height="30.4883" rx="2.5" ry="2.5" style="stroke:#181818;stroke-width:0.5;" width="169" x="183.5" y="944.4961"/><text fill="#000000" font-family="sans-serif" font-size="14" lengthAdjust="spacing" textLength="155" x="190.5" y="965.0313">:CancelEntryController</text><rect fill="#E3E3E3" height="46.9766" rx="2.5" ry="2.5" style="stroke:#181818;stroke-width:0.5;" width="103" x="362.5" y="5"/><text fill="#000000" font-family="sans-serif" font-size="14" lengthAdjust="spacing" textLength="82" x="373" y="25.5352">repositories</text><text fill="#000000" font-family="sans-serif" font-size="14" lengthAdjust="spacing" textLength="89" x="369.5" y="42.0234">:Repositories</text><rect fill="#E3E3E3" height="46.9766" rx="2.5" ry="2.5" style="stroke:#181818;stroke-width:0.5;" width="103" x="362.5" y="944.4961"/><text fill="#000000" font-family="sans-serif" font-size="14" lengthAdjust="spacing" textLength="82" x="373" y="965.0313">repositories</text><text fill="#000000" font-family="sans-serif" font-size="14" lengthAdjust="spacing" textLength="89" x="369.5" y="981.5195">:Repositories</text><rect fill="#E3E3E3" height="46.9766" rx="2.5" ry="2.5" style="stroke:#181818;stroke-width:0.5;" width="102" x="475.5" y="5"/><text fill="#000000" font-family="sans-serif" font-size="14" lengthAdjust="spacing" textLength="80" x="486.5" y="25.5352">taskMapper</text><text fill="#000000" font-family="sans-serif" font-size="14" lengthAdjust="spacing" textLength="88" x="482.5" y="42.0234">:TaskMapper</text><rect fill="#E3E3E3" height="46.9766" rx="2.5" ry="2.5" style="stroke:#181818;stroke-width:0.5;" width="102" x="475.5" y="944.4961"/><text fill="#000000" font-family="sans-serif" font-size="14" lengthAdjust="spacing" textLength="80" x="486.5" y="965.0313">taskMapper</text><text fill="#000000" font-family="sans-serif" font-size="14" lengthAdjust="spacing" textLength="88" x="482.5" y="981.5195">:TaskMapper</text><rect fill="#E3E3E3" height="46.9766" rx="2.5" ry="2.5" style="stroke:#181818;stroke-width:0.5;" width="71" x="688" y="5"/><text fill="#000000" font-family="sans-serif" font-size="14" lengthAdjust="spacing" textLength="51" x="698" y="25.5352">agenda</text><text fill="#000000" font-family="sans-serif" font-size="14" lengthAdjust="spacing" textLength="57" x="695" y="42.0234">:Agenda</text><rect fill="#E3E3E3" height="46.9766" rx="2.5" ry="2.5" style="stroke:#181818;stroke-width:0.5;" width="71" x="688" y="944.4961"/><text fill="#000000" font-family="sans-serif" font-size="14" lengthAdjust="spacing" textLength="51" x="698" y="965.0313">agenda</text><text fill="#000000" font-family="sans-serif" font-size="14" lengthAdjust="spacing" textLength="57" x="695" y="981.5195">:Agenda</text><rect fill="#E3E3E3" height="46.9766" rx="2.5" ry="2.5" style="stroke:#181818;stroke-width:0.5;" width="95" x="816" y="5"/><text fill="#000000" font-family="sans-serif" font-size="14" lengthAdjust="spacing" textLength="70" x="828.5" y="25.5352">entriesList</text><text fill="#000000" font-family="sans-serif" font-size="14" lengthAdjust="spacing" textLength="81" x="823" y="42.0234">:List&lt;Task&gt;</text><rect fill="#E3E3E3" height="46.9766" rx="2.5" ry="2.5" style="stroke:#181818;stroke-width:0.5;" width="95" x="816" y="944.4961"/><text fill="#000000" font-family="sans-serif" font-size="14" lengthAdjust="spacing" textLength="70" x="828.5" y="965.0313">entriesList</text><text fill="#000000" font-family="sans-serif" font-size="14" lengthAdjust="spacing" textLength="81" x="823" y="981.5195">:List&lt;Task&gt;</text><rect fill="#E3E3E3" height="46.9766" rx="2.5" ry="2.5" style="stroke:#181818;stroke-width:0.5;" width="168" x="921" y="944.4961"/><text fill="#000000" font-family="sans-serif" font-size="14" lengthAdjust="spacing" textLength="154" x="928" y="965.0313">tasksListByGreenSpace</text><text fill="#000000" font-family="sans-serif" font-size="14" lengthAdjust="spacing" textLength="81" x="964.5" y="981.5195">:List&lt;Task&gt;</text><rect fill="#E3E3E3" height="46.9766" rx="2.5" ry="2.5" style="stroke:#181818;stroke-width:0.5;" width="50" x="1099" y="5"/><text fill="#000000" font-family="sans-serif" font-size="14" lengthAdjust="spacing" textLength="28" x="1110" y="25.5352">task</text><text fill="#000000" font-family="sans-serif" font-size="14" lengthAdjust="spacing" textLength="36" x="1106" y="42.0234">:Task</text><rect fill="#E3E3E3" height="46.9766" rx="2.5" ry="2.5" style="stroke:#181818;stroke-width:0.5;" width="50" x="1099" y="944.4961"/><text fill="#000000" font-family="sans-serif" font-size="14" lengthAdjust="spacing" textLength="28" x="1110" y="965.0313">task</text><text fill="#000000" font-family="sans-serif" font-size="14" lengthAdjust="spacing" textLength="36" x="1106" y="981.5195">:Task</text><rect fill="#E3E3E3" height="46.9766" rx="2.5" ry="2.5" style="stroke:#181818;stroke-width:0.5;" width="198" x="1159" y="944.4961"/><text fill="#000000" font-family="sans-serif" font-size="14" lengthAdjust="spacing" textLength="184" x="1166" y="965.0313">tasksListByGreenSpaceDTO</text><text fill="#000000" font-family="sans-serif" font-size="14" lengthAdjust="spacing" textLength="111" x="1202.5" y="981.5195">:List&lt;TaskDTO&gt;</text><rect fill="#E3E3E3" height="46.9766" rx="2.5" ry="2.5" style="stroke:#181818;stroke-width:0.5;" width="80" x="1367" y="944.4961"/><text fill="#000000" font-family="sans-serif" font-size="14" lengthAdjust="spacing" textLength="58" x="1378" y="965.0313">taskDTO</text><text fill="#000000" font-family="sans-serif" font-size="14" lengthAdjust="spacing" textLength="66" x="1374" y="981.5195">:TaskDTO</text><rect fill="#FFFFFF" height="852.209" style="stroke:#181818;stroke-width:1.0;" width="10" x="263" y="84.2871"/><rect fill="#FFFFFF" height="29.3105" style="stroke:#181818;stroke-width:1.0;" width="10" x="409" y="137.9082"/><rect fill="#FFFFFF" height="337.5059" style="stroke:#181818;stroke-width:1.0;" width="10" x="521.5" y="553.6797"/><rect fill="#FFFFFF" height="34.3105" style="stroke:#181818;stroke-width:1.0;" width="10" x="526.5" y="732.5879"/><rect fill="#FFFFFF" height="327.8398" style="stroke:#181818;stroke-width:1.0;" width="10" x="718.5" y="196.5293"/><rect fill="#FFFFFF" height="30" style="stroke:#181818;stroke-width:1.0;" width="10" x="858.5" y="308.127"/><rect fill="#FFFFFF" height="30" style="stroke:#181818;stroke-width:1.0;" width="10" x="1000" y="451.0586"/><rect fill="#FFFFFF" height="30" style="stroke:#181818;stroke-width:1.0;" width="10" x="1000" y="665.2773"/><rect fill="#FFFFFF" height="30" style="stroke:#181818;stroke-width:1.0;" width="10" x="1119" y="367.4375"/><rect fill="#FFFFFF" height="30" style="stroke:#181818;stroke-width:1.0;" width="10" x="1253" y="824.875"/><polygon fill="#181818" points="251,80.2871,261,84.2871,251,88.2871,255,84.2871" style="stroke:#181818;stroke-width:1.0;"/><line style="stroke:#181818;stroke-width:1.0;" x1="0" x2="257" y1="84.2871" y2="84.2871"/><text fill="#000000" font-family="sans-serif" font-size="13" font-weight="bold" lengthAdjust="spacing" textLength="18" x="7" y="79.5449">30</text><text fill="#000000" font-family="sans-serif" font-size="13" lengthAdjust="spacing" textLength="222" x="29" y="79.5449">getTasksByGreenSpace(greenSpace)</text><path d="M173.5,99.2871 L392.5,99.2871 L392.5,106.5977 L382.5,116.5977 L173.5,116.5977 L173.5,99.2871 " fill="#EEEEEE" style="stroke:#000000;stroke-width:1.5;"/><rect fill="none" height="799.8984" style="stroke:#000000;stroke-width:1.5;" width="1293.5" x="173.5" y="99.2871"/><text fill="#000000" font-family="sans-serif" font-size="13" font-weight="bold" lengthAdjust="spacing" textLength="174" x="188.5" y="112.8555">Get Tasks By Green Space</text><polygon fill="#181818" points="397,133.9082,407,137.9082,397,141.9082,401,137.9082" style="stroke:#181818;stroke-width:1.0;"/><line style="stroke:#181818;stroke-width:1.0;" x1="273" x2="403" y1="137.9082" y2="137.9082"/><text fill="#000000" font-family="sans-serif" font-size="13" font-weight="bold" lengthAdjust="spacing" textLength="30" x="280" y="133.166">30.1</text><text fill="#000000" font-family="sans-serif" font-size="13" lengthAdjust="spacing" textLength="75" x="314" y="133.166">getAgenda()</text><polygon fill="#181818" points="284,163.2188,274,167.2188,284,171.2188,280,167.2188" style="stroke:#181818;stroke-width:1.0;"/><line style="stroke:#181818;stroke-width:1.0;stroke-dasharray:2.0,2.0;" x1="278" x2="413" y1="167.2188" y2="167.2188"/><text fill="#000000" font-family="sans-serif" font-size="13" font-weight="bold" lengthAdjust="spacing" textLength="30" x="290" y="162.4766">30.2</text><text fill="#000000" font-family="sans-serif" font-size="13" lengthAdjust="spacing" textLength="45" x="324" y="162.4766">agenda</text><polygon fill="#181818" points="706.5,192.5293,716.5,196.5293,706.5,200.5293,710.5,196.5293" style="stroke:#181818;stroke-width:1.0;"/><line style="stroke:#181818;stroke-width:1.0;" x1="273" x2="712.5" y1="196.5293" y2="196.5293"/><text fill="#000000" font-family="sans-serif" font-size="13" font-weight="bold" lengthAdjust="spacing" textLength="30" x="280" y="191.7871">30.3</text><text fill="#000000" font-family="sans-serif" font-size="13" lengthAdjust="spacing" textLength="183" x="314" y="191.7871">getAgendaTasks(greenSpace)</text><polygon fill="#181818" points="909,221.8398,919,225.8398,909,229.8398,913,225.8398" style="stroke:#181818;stroke-width:1.0;"/><line style="stroke:#181818;stroke-width:1.0;stroke-dasharray:2.0,2.0;" x1="728.5" x2="915" y1="225.8398" y2="225.8398"/><text fill="#000000" font-family="sans-serif" font-size="13" font-weight="bold" lengthAdjust="spacing" textLength="30" x="735.5" y="221.0977">30.4</text><text fill="#000000" font-family="sans-serif" font-size="13" lengthAdjust="spacing" textLength="46" x="769.5" y="221.0977">create()</text><rect fill="#E3E3E3" height="46.9766" rx="2.5" ry="2.5" style="stroke:#181818;stroke-width:0.5;" width="168" x="921" y="204.5293"/><text fill="#000000" font-family="sans-serif" font-size="14" lengthAdjust="spacing" textLength="154" x="928" y="225.0645">tasksListByGreenSpace</text><text fill="#000000" font-family="sans-serif" font-size="14" lengthAdjust="spacing" textLength="81" x="964.5" y="241.5527">:List&lt;Task&gt;</text><path d="M668,269.5059 L742,269.5059 L742,276.8164 L732,286.8164 L668,286.8164 L668,269.5059 " fill="#EEEEEE" style="stroke:#000000;stroke-width:1.5;"/><rect fill="none" height="226.5527" style="stroke:#000000;stroke-width:1.5;" width="491" x="668" y="269.5059"/><text fill="#000000" font-family="sans-serif" font-size="13" font-weight="bold" lengthAdjust="spacing" textLength="29" x="683" y="283.0742">loop</text><text fill="#000000" font-family="sans-serif" font-size="11" font-weight="bold" lengthAdjust="spacing" textLength="122" x="757" y="282.1406">[for each known task]</text><polygon fill="#181818" points="846.5,304.127,856.5,308.127,846.5,312.127,850.5,308.127" style="stroke:#181818;stroke-width:1.0;"/><line style="stroke:#181818;stroke-width:1.0;" x1="728.5" x2="852.5" y1="308.127" y2="308.127"/><text fill="#000000" font-family="sans-serif" font-size="13" font-weight="bold" lengthAdjust="spacing" textLength="30" x="735.5" y="303.3848">30.5</text><text fill="#000000" font-family="sans-serif" font-size="13" lengthAdjust="spacing" textLength="77" x="769.5" y="303.3848">task = get(i)</text><polygon fill="#181818" points="1107,363.4375,1117,367.4375,1107,371.4375,1111,367.4375" style="stroke:#181818;stroke-width:1.0;"/><line style="stroke:#181818;stroke-width:1.0;" x1="728.5" x2="1113" y1="367.4375" y2="367.4375"/><text fill="#000000" font-family="sans-serif" font-size="13" font-weight="bold" lengthAdjust="spacing" textLength="30" x="735.5" y="362.6953">30.6</text><text fill="#000000" font-family="sans-serif" font-size="13" lengthAdjust="spacing" textLength="188" x="769.5" y="362.6953">taskGreenSpace = greenSpace</text><path d="M678,412.4375 L745,412.4375 L745,419.748 L735,429.748 L678,429.748 L678,412.4375 " fill="#EEEEEE" style="stroke:#000000;stroke-width:1.5;"/><rect fill="none" height="76.6211" style="stroke:#000000;stroke-width:1.5;" width="421" x="678" y="412.4375"/><text fill="#000000" font-family="sans-serif" font-size="13" font-weight="bold" lengthAdjust="spacing" textLength="22" x="693" y="426.0059">opt</text><text fill="#000000" font-family="sans-serif" font-size="11" font-weight="bold" lengthAdjust="spacing" textLength="118" x="760" y="425.0723">[greenSpace == true]</text><polygon fill="#181818" points="988,447.0586,998,451.0586,988,455.0586,992,451.0586" style="stroke:#181818;stroke-width:1.0;"/><line style="stroke:#181818;stroke-width:1.0;" x1="728.5" x2="994" y1="451.0586" y2="451.0586"/><text fill="#000000" font-family="sans-serif" font-size="13" font-weight="bold" lengthAdjust="spacing" textLength="30" x="735.5" y="446.3164">30.7</text><text fill="#000000" font-family="sans-serif" font-size="13" lengthAdjust="spacing" textLength="63" x="769.5" y="446.3164">add(entry)</text><polygon fill="#181818" points="284,520.3691,274,524.3691,284,528.3691,280,524.3691" style="stroke:#181818;stroke-width:1.0;"/><line style="stroke:#181818;stroke-width:1.0;stroke-dasharray:2.0,2.0;" x1="278" x2="722.5" y1="524.3691" y2="524.3691"/><text fill="#000000" font-family="sans-serif" font-size="13" font-weight="bold" lengthAdjust="spacing" textLength="30" x="290" y="519.627">30.8</text><text fill="#000000" font-family="sans-serif" font-size="13" lengthAdjust="spacing" textLength="143" x="324" y="519.627">tasksListByGreenSpace</text><polygon fill="#181818" points="509.5,549.6797,519.5,553.6797,509.5,557.6797,513.5,553.6797" style="stroke:#181818;stroke-width:1.0;"/><line style="stroke:#181818;stroke-width:1.0;" x1="273" x2="515.5" y1="553.6797" y2="553.6797"/><text fill="#000000" font-family="sans-serif" font-size="13" font-weight="bold" lengthAdjust="spacing" textLength="30" x="280" y="548.9375">30.9</text><text fill="#000000" font-family="sans-serif" font-size="13" lengthAdjust="spacing" textLength="115" x="314" y="548.9375">toDTO(entriesList)</text><polygon fill="#181818" points="1147,578.9902,1157,582.9902,1147,586.9902,1151,582.9902" style="stroke:#181818;stroke-width:1.0;"/><line style="stroke:#181818;stroke-width:1.0;stroke-dasharray:2.0,2.0;" x1="531.5" x2="1153" y1="582.9902" y2="582.9902"/><text fill="#000000" font-family="sans-serif" font-size="13" font-weight="bold" lengthAdjust="spacing" textLength="39" x="538.5" y="578.248">30.10</text><text fill="#000000" font-family="sans-serif" font-size="13" lengthAdjust="spacing" textLength="46" x="581.5" y="578.248">create()</text><rect fill="#E3E3E3" height="46.9766" rx="2.5" ry="2.5" style="stroke:#181818;stroke-width:0.5;" width="198" x="1159" y="561.6797"/><text fill="#000000" font-family="sans-serif" font-size="14" lengthAdjust="spacing" textLength="184" x="1166" y="582.2148">tasksListByGreenSpaceDTO</text><text fill="#000000" font-family="sans-serif" font-size="14" lengthAdjust="spacing" textLength="111" x="1202.5" y="598.7031">:List&lt;TaskDTO&gt;</text><path d="M465.5,626.6563 L539.5,626.6563 L539.5,633.9668 L529.5,643.9668 L465.5,643.9668 L465.5,626.6563 " fill="#EEEEEE" style="stroke:#000000;stroke-width:1.5;"/><rect fill="none" height="236.2188" style="stroke:#000000;stroke-width:1.5;" width="991.5" x="465.5" y="626.6563"/><text fill="#000000" font-family="sans-serif" font-size="13" font-weight="bold" lengthAdjust="spacing" textLength="29" x="480.5" y="640.2246">loop</text><text fill="#000000" font-family="sans-serif" font-size="11" font-weight="bold" lengthAdjust="spacing" textLength="225" x="554.5" y="639.291">[for each task in tasksListByGreenSpace]</text><polygon fill="#181818" points="988,661.2773,998,665.2773,988,669.2773,992,665.2773" style="stroke:#181818;stroke-width:1.0;"/><line style="stroke:#181818;stroke-width:1.0;" x1="531.5" x2="994" y1="665.2773" y2="665.2773"/><text fill="#000000" font-family="sans-serif" font-size="13" font-weight="bold" lengthAdjust="spacing" textLength="39" x="538.5" y="660.5352">30.11</text><text fill="#000000" font-family="sans-serif" font-size="13" lengthAdjust="spacing" textLength="70" x="581.5" y="660.5352">obj = get(i)</text><line style="stroke:#181818;stroke-width:1.0;" x1="531.5" x2="578.5" y1="719.5879" y2="719.5879"/><line style="stroke:#181818;stroke-width:1.0;" x1="578.5" x2="578.5" y1="719.5879" y2="732.5879"/><line style="stroke:#181818;stroke-width:1.0;" x1="537.5" x2="578.5" y1="732.5879" y2="732.5879"/><polygon fill="#181818" points="547.5,728.5879,537.5,732.5879,547.5,736.5879,543.5,732.5879" style="stroke:#181818;stroke-width:1.0;"/><text fill="#000000" font-family="sans-serif" font-size="13" font-weight="bold" lengthAdjust="spacing" textLength="39" x="543.5" y="714.8457">30.12</text><text fill="#000000" font-family="sans-serif" font-size="13" lengthAdjust="spacing" textLength="130" x="586.5" y="714.8457">objDto = toDTO(obj)</text><polygon fill="#181818" points="1355,762.8984,1365,766.8984,1355,770.8984,1359,766.8984" style="stroke:#181818;stroke-width:1.0;"/><line style="stroke:#181818;stroke-width:1.0;" x1="531.5" x2="1361" y1="766.8984" y2="766.8984"/><text fill="#000000" font-family="sans-serif" font-size="13" font-weight="bold" lengthAdjust="spacing" textLength="39" x="538.5" y="762.1563">30.13</text><text fill="#000000" font-family="sans-serif" font-size="13" lengthAdjust="spacing" textLength="58" x="581.5" y="762.1563">create(...)</text><rect fill="#E3E3E3" height="46.9766" rx="2.5" ry="2.5" style="stroke:#181818;stroke-width:0.5;" width="80" x="1367" y="745.5879"/><text fill="#000000" font-family="sans-serif" font-size="14" lengthAdjust="spacing" textLength="58" x="1378" y="766.123">taskDTO</text><text fill="#000000" font-family="sans-serif" font-size="14" lengthAdjust="spacing" textLength="66" x="1374" y="782.6113">:TaskDTO</text><polygon fill="#181818" points="1241,820.875,1251,824.875,1241,828.875,1245,824.875" style="stroke:#181818;stroke-width:1.0;"/><line style="stroke:#181818;stroke-width:1.0;" x1="531.5" x2="1247" y1="824.875" y2="824.875"/><text fill="#000000" font-family="sans-serif" font-size="13" font-weight="bold" lengthAdjust="spacing" textLength="39" x="538.5" y="820.1328">30.14</text><text fill="#000000" font-family="sans-serif" font-size="13" lengthAdjust="spacing" textLength="74" x="581.5" y="820.1328">add(objDto)</text><polygon fill="#181818" points="284,887.1855,274,891.1855,284,895.1855,280,891.1855" style="stroke:#181818;stroke-width:1.0;"/><line style="stroke:#181818;stroke-width:1.0;stroke-dasharray:2.0,2.0;" x1="278" x2="525.5" y1="891.1855" y2="891.1855"/><text fill="#000000" font-family="sans-serif" font-size="13" font-weight="bold" lengthAdjust="spacing" textLength="39" x="290" y="886.4434">30.15</text><text fill="#000000" font-family="sans-serif" font-size="13" lengthAdjust="spacing" textLength="171" x="333" y="886.4434">tasksListByGreenSpaceDTO</text><polygon fill="#181818" points="11,923.4961,1,927.4961,11,931.4961,7,927.4961" style="stroke:#181818;stroke-width:1.0;"/><line style="stroke:#181818;stroke-width:1.0;stroke-dasharray:2.0,2.0;" x1="5" x2="262" y1="927.4961" y2="927.4961"/><text fill="#000000" font-family="sans-serif" font-size="13" font-weight="bold" lengthAdjust="spacing" textLength="18" x="17" y="922.7539">46</text><text fill="#000000" font-family="sans-serif" font-size="13" lengthAdjust="spacing" textLength="171" x="39" y="922.7539">tasksListByGreenSpaceDTO</text><!--SRC=[fLN1Rk8m4BtdAqOzXKgWhNQr1rIGMhhgXTMkMevxSHCtf0GxiirM_FsExP1CY4sXcmF4yPjvRyRFjjwKecQARM4hXSpMIcuv6BNZYMvdQfPjMC6VpRxYe7Xcc2Wg2j1hbiltKXJmoYhDamG_cp8hQoOCN4qNJ6Iy-Y6CsYya_iggukeAc8R5wcdP1ojUIrqQgKgk_uZf4ncwYD_BkrK_mZ2z-SdgcYl4hzg1GtV3VWnM8tA6-3ltuh3-jO_Zg1QPbwKs2BP_jpRbt0MGoQ4Yz_b-_wWu5y_OG3wC3yA6cPggsf0pk1vMloWT3aymukmmfS_G1BUjjD24xOmKk-qBL_3rIpAUkqM4AHJSM8ockTEYVHqTHKvky4Dcoh_CSEy3mATGSbV38pUEJyFz7bmsyCs1xd6io6uDuTdz0gOZYcePd6_eZ8iRT_Az9IWYv_7e0xldfFnETw_ka9p6R7IkIMKb1TVf-XffCiKn76kaaPMKDRnA1IXu3HiXtuLtIYZzdFeMCreWpAp-j0nhfJuFjuSYmfoEnPDr5LdQplWXQbT5c7DGeAmDIGUpcJ_6ed863ROcoFFK5hCVHUKCTsnStqaiQh6Qa-DlTZLZncYyUecEWDCEvkrEHvjJukvEoKg6Mq1EL3fFKaKDZFdFzR2pIoaYXSQ8u-igNzvEU_p_LpOkgjTcLF9W98hn_SRXf_iyFvp9jAkJoMGKqNrMojZADPl3ox-WX_RAkA2DxeRvQ4CScUtKfeZJqsvO5dVpq2lgs_VaTZp-CFi_]--></g></svg>