<?xml version="1.0" encoding="us-ascii" standalone="no"?><svg xmlns="http://www.w3.org/2000/svg" xmlns:xlink="http://www.w3.org/1999/xlink" contentStyleType="text/css" height="560px" preserveAspectRatio="none" style="width:566px;height:560px;background:#FFFFFF;" version="1.1" viewBox="0 0 566 560" width="566px" zoomAndPan="magnify"><defs/><g><text fill="#000000" font-family="sans-serif" font-size="14" font-weight="bold" lengthAdjust="spacing" textLength="272" x="146.25" y="28.5352">US28 - Consult the tasks assigned to</text><text fill="#000000" font-family="sans-serif" font-size="14" font-weight="bold" lengthAdjust="spacing" textLength="241" x="166.75" y="45.0234">a collaborator between two dates</text><rect fill="#FFFFFF" height="325.416" style="stroke:#181818;stroke-width:1.0;" width="10" x="61.5" y="145.4648"/><rect fill="#FFFFFF" height="29.3105" style="stroke:#181818;stroke-width:1.0;" width="10" x="512.5" y="166.7754"/><rect fill="#FFFFFF" height="29.3105" style="stroke:#181818;stroke-width:1.0;" width="10" x="512.5" y="225.3965"/><rect fill="#FFFFFF" height="29.3105" style="stroke:#181818;stroke-width:1.0;" width="10" x="512.5" y="284.0176"/><rect fill="#FFFFFF" height="53.6211" style="stroke:#181818;stroke-width:1.0;" width="10" x="512.5" y="342.6387"/><rect fill="#FFFFFF" height="36.3105" style="stroke:#181818;stroke-width:1.0;" width="10" x="512.5" y="425.5703"/><rect fill="none" height="75.9316" style="stroke:#000000;stroke-width:1.5;" width="550.5" x="10" y="357.6387"/><line style="stroke:#181818;stroke-width:0.5;stroke-dasharray:5.0,5.0;" x1="66" x2="66" y1="135.4648" y2="479.8809"/><line style="stroke:#181818;stroke-width:0.5;stroke-dasharray:5.0,5.0;" x1="517.5" x2="517.5" y1="135.4648" y2="479.8809"/><text fill="#000000" font-family="sans-serif" font-size="14" lengthAdjust="spacing" textLength="87" x="20" y="132.5117">Collaborator</text><ellipse cx="66.5" cy="67.4766" fill="#E3E3E3" rx="8" ry="8" style="stroke:#181818;stroke-width:0.5;"/><path d="M66.5,75.4766 L66.5,102.4766 M53.5,83.4766 L79.5,83.4766 M66.5,102.4766 L53.5,117.4766 M66.5,102.4766 L79.5,117.4766 " fill="none" style="stroke:#181818;stroke-width:0.5;"/><text fill="#000000" font-family="sans-serif" font-size="14" lengthAdjust="spacing" textLength="87" x="20" y="492.416">Collaborator</text><ellipse cx="66.5" cy="503.8691" fill="#E3E3E3" rx="8" ry="8" style="stroke:#181818;stroke-width:0.5;"/><path d="M66.5,511.8691 L66.5,538.8691 M53.5,519.8691 L79.5,519.8691 M66.5,538.8691 L53.5,553.8691 M66.5,538.8691 L79.5,553.8691 " fill="none" style="stroke:#181818;stroke-width:0.5;"/><rect fill="#E3E3E3" height="30.4883" rx="2.5" ry="2.5" style="stroke:#181818;stroke-width:0.5;" width="66" x="484.5" y="103.9766"/><text fill="#000000" font-family="sans-serif" font-size="14" lengthAdjust="spacing" textLength="52" x="491.5" y="124.5117">:System</text><rect fill="#E3E3E3" height="30.4883" rx="2.5" ry="2.5" style="stroke:#181818;stroke-width:0.5;" width="66" x="484.5" y="478.8809"/><text fill="#000000" font-family="sans-serif" font-size="14" lengthAdjust="spacing" textLength="52" x="491.5" y="499.416">:System</text><rect fill="#FFFFFF" height="325.416" style="stroke:#181818;stroke-width:1.0;" width="10" x="61.5" y="145.4648"/><rect fill="#FFFFFF" height="29.3105" style="stroke:#181818;stroke-width:1.0;" width="10" x="512.5" y="166.7754"/><rect fill="#FFFFFF" height="29.3105" style="stroke:#181818;stroke-width:1.0;" width="10" x="512.5" y="225.3965"/><rect fill="#FFFFFF" height="29.3105" style="stroke:#181818;stroke-width:1.0;" width="10" x="512.5" y="284.0176"/><rect fill="#FFFFFF" height="53.6211" style="stroke:#181818;stroke-width:1.0;" width="10" x="512.5" y="342.6387"/><rect fill="#FFFFFF" height="36.3105" style="stroke:#181818;stroke-width:1.0;" width="10" x="512.5" y="425.5703"/><polygon fill="#181818" points="500.5,162.7754,510.5,166.7754,500.5,170.7754,504.5,166.7754" style="stroke:#181818;stroke-width:1.0;"/><line style="stroke:#181818;stroke-width:1.0;" x1="71.5" x2="506.5" y1="166.7754" y2="166.7754"/><text fill="#000000" font-family="sans-serif" font-size="13" font-weight="bold" lengthAdjust="spacing" textLength="9" x="78.5" y="162.0332">1</text><text fill="#000000" font-family="sans-serif" font-size="13" lengthAdjust="spacing" textLength="316" x="91.5" y="162.0332">asks to consult the tasks assigned to collaborator</text><polygon fill="#181818" points="82.5,192.0859,72.5,196.0859,82.5,200.0859,78.5,196.0859" style="stroke:#181818;stroke-width:1.0;"/><line style="stroke:#181818;stroke-width:1.0;stroke-dasharray:2.0,2.0;" x1="76.5" x2="516.5" y1="196.0859" y2="196.0859"/><text fill="#000000" font-family="sans-serif" font-size="13" font-weight="bold" lengthAdjust="spacing" textLength="9" x="88.5" y="191.3438">2</text><text fill="#000000" font-family="sans-serif" font-size="13" lengthAdjust="spacing" textLength="115" x="101.5" y="191.3438">requests first date</text><polygon fill="#181818" points="500.5,221.3965,510.5,225.3965,500.5,229.3965,504.5,225.3965" style="stroke:#181818;stroke-width:1.0;"/><line style="stroke:#181818;stroke-width:1.0;" x1="71.5" x2="506.5" y1="225.3965" y2="225.3965"/><text fill="#000000" font-family="sans-serif" font-size="13" font-weight="bold" lengthAdjust="spacing" textLength="9" x="78.5" y="220.6543">3</text><text fill="#000000" font-family="sans-serif" font-size="13" lengthAdjust="spacing" textLength="95" x="91.5" y="220.6543">types first date</text><polygon fill="#181818" points="82.5,250.707,72.5,254.707,82.5,258.707,78.5,254.707" style="stroke:#181818;stroke-width:1.0;"/><line style="stroke:#181818;stroke-width:1.0;stroke-dasharray:2.0,2.0;" x1="76.5" x2="516.5" y1="254.707" y2="254.707"/><text fill="#000000" font-family="sans-serif" font-size="13" font-weight="bold" lengthAdjust="spacing" textLength="9" x="88.5" y="249.9648">4</text><text fill="#000000" font-family="sans-serif" font-size="13" lengthAdjust="spacing" textLength="134" x="101.5" y="249.9648">requests second date</text><polygon fill="#181818" points="500.5,280.0176,510.5,284.0176,500.5,288.0176,504.5,284.0176" style="stroke:#181818;stroke-width:1.0;"/><line style="stroke:#181818;stroke-width:1.0;" x1="71.5" x2="506.5" y1="284.0176" y2="284.0176"/><text fill="#000000" font-family="sans-serif" font-size="13" font-weight="bold" lengthAdjust="spacing" textLength="9" x="78.5" y="279.2754">5</text><text fill="#000000" font-family="sans-serif" font-size="13" lengthAdjust="spacing" textLength="114" x="91.5" y="279.2754">types second date</text><polygon fill="#181818" points="82.5,309.3281,72.5,313.3281,82.5,317.3281,78.5,313.3281" style="stroke:#181818;stroke-width:1.0;"/><line style="stroke:#181818;stroke-width:1.0;stroke-dasharray:2.0,2.0;" x1="76.5" x2="516.5" y1="313.3281" y2="313.3281"/><text fill="#000000" font-family="sans-serif" font-size="13" font-weight="bold" lengthAdjust="spacing" textLength="9" x="88.5" y="308.5859">6</text><text fill="#000000" font-family="sans-serif" font-size="13" lengthAdjust="spacing" textLength="361" x="101.5" y="308.5859">asks if collaborator wants to view tasks filtered by status</text><polygon fill="#181818" points="500.5,338.6387,510.5,342.6387,500.5,346.6387,504.5,342.6387" style="stroke:#181818;stroke-width:1.0;"/><line style="stroke:#181818;stroke-width:1.0;" x1="71.5" x2="506.5" y1="342.6387" y2="342.6387"/><text fill="#000000" font-family="sans-serif" font-size="13" font-weight="bold" lengthAdjust="spacing" textLength="9" x="78.5" y="337.8965">7</text><text fill="#000000" font-family="sans-serif" font-size="13" lengthAdjust="spacing" textLength="113" x="91.5" y="337.8965">answers yes or no</text><path d="M10,357.6387 L77,357.6387 L77,364.9492 L67,374.9492 L10,374.9492 L10,357.6387 " fill="#EEEEEE" style="stroke:#000000;stroke-width:1.5;"/><rect fill="none" height="75.9316" style="stroke:#000000;stroke-width:1.5;" width="550.5" x="10" y="357.6387"/><text fill="#000000" font-family="sans-serif" font-size="13" font-weight="bold" lengthAdjust="spacing" textLength="22" x="25" y="371.207">opt</text><text fill="#000000" font-family="sans-serif" font-size="11" font-weight="bold" lengthAdjust="spacing" textLength="83" x="92" y="370.2734">[answer is yes]</text><polygon fill="#181818" points="82.5,392.2598,72.5,396.2598,82.5,400.2598,78.5,396.2598" style="stroke:#181818;stroke-width:1.0;"/><line style="stroke:#181818;stroke-width:1.0;stroke-dasharray:2.0,2.0;" x1="76.5" x2="516.5" y1="396.2598" y2="396.2598"/><text fill="#000000" font-family="sans-serif" font-size="13" font-weight="bold" lengthAdjust="spacing" textLength="9" x="88.5" y="391.5176">8</text><text fill="#000000" font-family="sans-serif" font-size="13" lengthAdjust="spacing" textLength="308" x="101.5" y="391.5176">shows status list and requests one to filter tasks</text><polygon fill="#181818" points="500.5,421.5703,510.5,425.5703,500.5,429.5703,504.5,425.5703" style="stroke:#181818;stroke-width:1.0;"/><line style="stroke:#181818;stroke-width:1.0;" x1="71.5" x2="506.5" y1="425.5703" y2="425.5703"/><text fill="#000000" font-family="sans-serif" font-size="13" font-weight="bold" lengthAdjust="spacing" textLength="9" x="78.5" y="420.8281">9</text><text fill="#000000" font-family="sans-serif" font-size="13" lengthAdjust="spacing" textLength="114" x="91.5" y="420.8281">selects one status</text><polygon fill="#181818" points="82.5,457.8809,72.5,461.8809,82.5,465.8809,78.5,461.8809" style="stroke:#181818;stroke-width:1.0;"/><line style="stroke:#181818;stroke-width:1.0;stroke-dasharray:2.0,2.0;" x1="76.5" x2="516.5" y1="461.8809" y2="461.8809"/><text fill="#000000" font-family="sans-serif" font-size="13" font-weight="bold" lengthAdjust="spacing" textLength="18" x="88.5" y="457.1387">10</text><text fill="#000000" font-family="sans-serif" font-size="13" lengthAdjust="spacing" textLength="395" x="110.5" y="457.1387">shows tasks assigned to collaborator between those two dates</text><!--SRC=[fPEnSeCm38PtdaANFKkdNeOkkJv1hbiN1GJuOYngYN2yVOKX2KtJzD8o6VFhr_VBM0ukj1YnWOO3vtNaXa1ZHvcSlxIO7x2YdGwU85Ak62g_54YD1VSkL52Y5yeoTMhIjztJCwnXoq4whw2rEQCS1534LO4AK8Rt00WvUuzxZgWSOK_Q4mNGdg509Saox9H3r-mfsZeVHQljecHbZl3Qj9u7eioOrEMknQ2mskm6KMgIObec1tSquqj91lQStc3zCajX0udNCFEx8PRyoUlSujHpt9nDr-P_xhMnWNvq92fGkYYQ4YTrGJTDRbBgqD8tWxym25dGuZyGrmuFKAInklBhtz3RCQOJE3hgvz6NpYj56_r-057KJXw6nI0zHO71aArBu9zXkTLP3YuLt8aWDVSoCu5tCbOMb_5oe37An3-5UPXSoDiLdBmMuQyDnZsotaQV_Gfy_u- -tCYQXHRtyZRw9m00]--></g></svg>