<?xml version="1.0" encoding="us-ascii" standalone="no"?><svg xmlns="http://www.w3.org/2000/svg" xmlns:xlink="http://www.w3.org/1999/xlink" contentStyleType="text/css" height="395px" preserveAspectRatio="none" style="width:532px;height:395px;background:#FFFFFF;" version="1.1" viewBox="0 0 532 395" width="532px" zoomAndPan="magnify"><defs/><g><text fill="#000000" font-family="sans-serif" font-size="14" font-weight="bold" lengthAdjust="spacing" textLength="440" x="45.25" y="28.5352">US28 - Consult the tasks assigned to me between two dates</text><rect fill="#FFFFFF" height="176.8633" style="stroke:#181818;stroke-width:1.0;" width="10" x="46.5" y="128.9766"/><rect fill="#FFFFFF" height="29.3105" style="stroke:#181818;stroke-width:1.0;" width="10" x="488.5" y="150.2871"/><rect fill="#FFFFFF" height="29.3105" style="stroke:#181818;stroke-width:1.0;" width="10" x="488.5" y="208.9082"/><rect fill="#FFFFFF" height="29.3105" style="stroke:#181818;stroke-width:1.0;" width="10" x="488.5" y="267.5293"/><line style="stroke:#181818;stroke-width:0.5;stroke-dasharray:5.0,5.0;" x1="51" x2="51" y1="118.9766" y2="314.8398"/><line style="stroke:#181818;stroke-width:0.5;stroke-dasharray:5.0,5.0;" x1="493.5" x2="493.5" y1="118.9766" y2="314.8398"/><text fill="#000000" font-family="sans-serif" font-size="14" lengthAdjust="spacing" textLength="87" x="5" y="116.0234">Collaborator</text><ellipse cx="51.5" cy="50.9883" fill="#E3E3E3" rx="8" ry="8" style="stroke:#181818;stroke-width:0.5;"/><path d="M51.5,58.9883 L51.5,85.9883 M38.5,66.9883 L64.5,66.9883 M51.5,85.9883 L38.5,100.9883 M51.5,85.9883 L64.5,100.9883 " fill="none" style="stroke:#181818;stroke-width:0.5;"/><text fill="#000000" font-family="sans-serif" font-size="14" lengthAdjust="spacing" textLength="87" x="5" y="327.375">Collaborator</text><ellipse cx="51.5" cy="338.8281" fill="#E3E3E3" rx="8" ry="8" style="stroke:#181818;stroke-width:0.5;"/><path d="M51.5,346.8281 L51.5,373.8281 M38.5,354.8281 L64.5,354.8281 M51.5,373.8281 L38.5,388.8281 M51.5,373.8281 L64.5,388.8281 " fill="none" style="stroke:#181818;stroke-width:0.5;"/><rect fill="#E3E3E3" height="30.4883" rx="2.5" ry="2.5" style="stroke:#181818;stroke-width:0.5;" width="66" x="460.5" y="87.4883"/><text fill="#000000" font-family="sans-serif" font-size="14" lengthAdjust="spacing" textLength="52" x="467.5" y="108.0234">:System</text><rect fill="#E3E3E3" height="30.4883" rx="2.5" ry="2.5" style="stroke:#181818;stroke-width:0.5;" width="66" x="460.5" y="313.8398"/><text fill="#000000" font-family="sans-serif" font-size="14" lengthAdjust="spacing" textLength="52" x="467.5" y="334.375">:System</text><rect fill="#FFFFFF" height="176.8633" style="stroke:#181818;stroke-width:1.0;" width="10" x="46.5" y="128.9766"/><rect fill="#FFFFFF" height="29.3105" style="stroke:#181818;stroke-width:1.0;" width="10" x="488.5" y="150.2871"/><rect fill="#FFFFFF" height="29.3105" style="stroke:#181818;stroke-width:1.0;" width="10" x="488.5" y="208.9082"/><rect fill="#FFFFFF" height="29.3105" style="stroke:#181818;stroke-width:1.0;" width="10" x="488.5" y="267.5293"/><polygon fill="#181818" points="476.5,146.2871,486.5,150.2871,476.5,154.2871,480.5,150.2871" style="stroke:#181818;stroke-width:1.0;"/><line style="stroke:#181818;stroke-width:1.0;" x1="56.5" x2="482.5" y1="150.2871" y2="150.2871"/><text fill="#000000" font-family="sans-serif" font-size="13" font-weight="bold" lengthAdjust="spacing" textLength="9" x="63.5" y="145.5449">1</text><text fill="#000000" font-family="sans-serif" font-size="13" lengthAdjust="spacing" textLength="316" x="76.5" y="145.5449">asks to consult the tasks assigned to collaborator</text><polygon fill="#181818" points="67.5,175.5977,57.5,179.5977,67.5,183.5977,63.5,179.5977" style="stroke:#181818;stroke-width:1.0;"/><line style="stroke:#181818;stroke-width:1.0;stroke-dasharray:2.0,2.0;" x1="61.5" x2="492.5" y1="179.5977" y2="179.5977"/><text fill="#000000" font-family="sans-serif" font-size="13" font-weight="bold" lengthAdjust="spacing" textLength="9" x="73.5" y="174.8555">2</text><text fill="#000000" font-family="sans-serif" font-size="13" lengthAdjust="spacing" textLength="115" x="86.5" y="174.8555">requests first date</text><polygon fill="#181818" points="476.5,204.9082,486.5,208.9082,476.5,212.9082,480.5,208.9082" style="stroke:#181818;stroke-width:1.0;"/><line style="stroke:#181818;stroke-width:1.0;" x1="56.5" x2="482.5" y1="208.9082" y2="208.9082"/><text fill="#000000" font-family="sans-serif" font-size="13" font-weight="bold" lengthAdjust="spacing" textLength="9" x="63.5" y="204.166">3</text><text fill="#000000" font-family="sans-serif" font-size="13" lengthAdjust="spacing" textLength="95" x="76.5" y="204.166">types first date</text><polygon fill="#181818" points="67.5,234.2188,57.5,238.2188,67.5,242.2188,63.5,238.2188" style="stroke:#181818;stroke-width:1.0;"/><line style="stroke:#181818;stroke-width:1.0;stroke-dasharray:2.0,2.0;" x1="61.5" x2="492.5" y1="238.2188" y2="238.2188"/><text fill="#000000" font-family="sans-serif" font-size="13" font-weight="bold" lengthAdjust="spacing" textLength="9" x="73.5" y="233.4766">4</text><text fill="#000000" font-family="sans-serif" font-size="13" lengthAdjust="spacing" textLength="134" x="86.5" y="233.4766">requests second date</text><polygon fill="#181818" points="476.5,263.5293,486.5,267.5293,476.5,271.5293,480.5,267.5293" style="stroke:#181818;stroke-width:1.0;"/><line style="stroke:#181818;stroke-width:1.0;" x1="56.5" x2="482.5" y1="267.5293" y2="267.5293"/><text fill="#000000" font-family="sans-serif" font-size="13" font-weight="bold" lengthAdjust="spacing" textLength="9" x="63.5" y="262.7871">5</text><text fill="#000000" font-family="sans-serif" font-size="13" lengthAdjust="spacing" textLength="114" x="76.5" y="262.7871">types second date</text><polygon fill="#181818" points="67.5,292.8398,57.5,296.8398,67.5,300.8398,63.5,296.8398" style="stroke:#181818;stroke-width:1.0;"/><line style="stroke:#181818;stroke-width:1.0;stroke-dasharray:2.0,2.0;" x1="61.5" x2="492.5" y1="296.8398" y2="296.8398"/><text fill="#000000" font-family="sans-serif" font-size="13" font-weight="bold" lengthAdjust="spacing" textLength="9" x="73.5" y="292.0977">6</text><text fill="#000000" font-family="sans-serif" font-size="13" lengthAdjust="spacing" textLength="395" x="86.5" y="292.0977">shows tasks assigned to collaborator between those two dates</text><!--SRC=[fP8zRiCm34PtdOBmxgLJuQ5Bq1C4FG0ZCxPWMNH5kePlNqRD7zAa1LfD4lNfyKcG325Dc764aHFxFlD8e7ac9-UT2Vs07MrrZGIPl6BgudL0Ucnv2Qc3FKOXvpIeHT-sJyzGmuQJp551UoEZ308e4hf4BIY3jTkHBaG9T65eKKcSmravpUEEiiszSePgmp7YZZFQgZ84l8vJv9N8cOG67oPC2bMpNKLfB8clQI643mDVZZYmSLf1_NACGWD5qBpyZzR-IgQmpYrEFG_58xGs_hbNOo_uFfEem3vaqNBZacxf5dAeFZRLTQ9laBzu2Dbbs_-At58UCkxRIC-B_FBIbv_Iiz3LVxbl_Ga0]--></g></svg>