<?xml version="1.0" encoding="us-ascii" standalone="no"?><svg xmlns="http://www.w3.org/2000/svg" xmlns:xlink="http://www.w3.org/1999/xlink" contentStyleType="text/css" height="1161px" preserveAspectRatio="none" style="width:728px;height:1161px;background:#FFFFFF;" version="1.1" viewBox="0 0 728 1161" width="728px" zoomAndPan="magnify"><defs/><g><!--class Vehicle--><g id="elem_Vehicle"><rect codeLine="11" fill="#F1F1F1" height="229.3711" id="Vehicle" rx="2.5" ry="2.5" style="stroke:#181818;stroke-width:0.5;" width="275" x="21" y="750.37"/><ellipse cx="129.75" cy="766.37" fill="#ADD1B2" rx="11" ry="11" style="stroke:#181818;stroke-width:1.0;"/><path d="M132.7231,772.0131 Q132.1421,772.3119 131.5029,772.4613 Q130.8638,772.6107 130.1582,772.6107 Q127.6514,772.6107 126.3315,770.9589 Q125.0117,769.307 125.0117,766.1859 Q125.0117,763.0565 126.3315,761.4047 Q127.6514,759.7528 130.1582,759.7528 Q130.8638,759.7528 131.5112,759.9022 Q132.1587,760.0516 132.7231,760.3505 L132.7231,763.0731 Q132.0923,762.4921 131.4988,762.2223 Q130.9053,761.9525 130.2744,761.9525 Q128.9297,761.9525 128.2449,763.0192 Q127.5601,764.0858 127.5601,766.1859 Q127.5601,768.2777 128.2449,769.3444 Q128.9297,770.411 130.2744,770.411 Q130.9053,770.411 131.4988,770.1412 Q132.0923,769.8715 132.7231,769.2904 Z " fill="#000000"/><text fill="#000000" font-family="sans-serif" font-size="14" lengthAdjust="spacing" textLength="49" x="150.25" y="771.661">Vehicle</text><line style="stroke:#181818;stroke-width:0.5;" x1="22" x2="295" y1="782.37" y2="782.37"/><text fill="#000000" font-family="sans-serif" font-size="14" lengthAdjust="spacing" textLength="133" x="27" y="799.9052">-String vehiclePlate</text><text fill="#000000" font-family="sans-serif" font-size="14" lengthAdjust="spacing" textLength="94" x="27" y="816.3934">-String brand</text><text fill="#000000" font-family="sans-serif" font-size="14" lengthAdjust="spacing" textLength="96" x="27" y="832.8817">-String model</text><text fill="#000000" font-family="sans-serif" font-size="14" lengthAdjust="spacing" textLength="82" x="27" y="849.37">-String type</text><text fill="#000000" font-family="sans-serif" font-size="14" lengthAdjust="spacing" textLength="88" x="27" y="865.8583">-Integer tare</text><text fill="#000000" font-family="sans-serif" font-size="14" lengthAdjust="spacing" textLength="146" x="27" y="882.3466">-Integer grossWeight</text><text fill="#000000" font-family="sans-serif" font-size="14" lengthAdjust="spacing" textLength="140" x="27" y="898.8348">-Integer currentKms</text><text fill="#000000" font-family="sans-serif" font-size="14" lengthAdjust="spacing" textLength="190" x="27" y="915.3231">-Integer checkUpFrequency</text><text fill="#000000" font-family="sans-serif" font-size="14" lengthAdjust="spacing" textLength="127" x="27" y="931.8114">-Date registerDate</text><text fill="#000000" font-family="sans-serif" font-size="14" lengthAdjust="spacing" textLength="149" x="27" y="948.2997">-Date acquisitionDate</text><line style="stroke:#181818;stroke-width:0.5;" x1="22" x2="295" y1="955.2528" y2="955.2528"/><text fill="#000000" font-family="sans-serif" font-size="14" lengthAdjust="spacing" textLength="263" x="27" y="972.788">+updateVehicleKms(vehiclePlate, kms)</text></g><!--class Maintenance--><g id="elem_Maintenance"><rect codeLine="25" fill="#F1F1F1" height="97.4648" id="Maintenance" rx="2.5" ry="2.5" style="stroke:#181818;stroke-width:0.5;" width="145" x="234" y="1056.75"/><ellipse cx="260.7" cy="1072.75" fill="#ADD1B2" rx="11" ry="11" style="stroke:#181818;stroke-width:1.0;"/><path d="M263.6731,1078.3931 Q263.0921,1078.6919 262.4529,1078.8413 Q261.8138,1078.9907 261.1082,1078.9907 Q258.6014,1078.9907 257.2815,1077.3389 Q255.9617,1075.687 255.9617,1072.5659 Q255.9617,1069.4365 257.2815,1067.7847 Q258.6014,1066.1328 261.1082,1066.1328 Q261.8138,1066.1328 262.4612,1066.2822 Q263.1087,1066.4316 263.6731,1066.7305 L263.6731,1069.4531 Q263.0423,1068.8721 262.4488,1068.6023 Q261.8553,1068.3325 261.2244,1068.3325 Q259.8797,1068.3325 259.1949,1069.3992 Q258.5101,1070.4658 258.5101,1072.5659 Q258.5101,1074.6577 259.1949,1075.7244 Q259.8797,1076.791 261.2244,1076.791 Q261.8553,1076.791 262.4488,1076.5212 Q263.0423,1076.2515 263.6731,1075.6704 Z " fill="#000000"/><text fill="#000000" font-family="sans-serif" font-size="14" lengthAdjust="spacing" textLength="87" x="277.3" y="1078.041">Maintenance</text><line style="stroke:#181818;stroke-width:0.5;" x1="235" x2="378" y1="1088.75" y2="1088.75"/><text fill="#000000" font-family="sans-serif" font-size="14" lengthAdjust="spacing" textLength="133" x="240" y="1106.2852">-String vehiclePlate</text><text fill="#000000" font-family="sans-serif" font-size="14" lengthAdjust="spacing" textLength="73" x="240" y="1122.7734">-Date date</text><text fill="#000000" font-family="sans-serif" font-size="14" lengthAdjust="spacing" textLength="89" x="240" y="1139.2617">-Integer kms</text><line style="stroke:#181818;stroke-width:0.5;" x1="235" x2="378" y1="1146.2148" y2="1146.2148"/></g><!--class ListVehiclesNeedingMaintenanceUI--><g id="elem_ListVehiclesNeedingMaintenanceUI"><rect codeLine="31" fill="#F1F1F1" height="48" id="ListVehiclesNeedingMaintenanceUI" rx="2.5" ry="2.5" style="stroke:#181818;stroke-width:0.5;" width="269" x="180" y="7"/><ellipse cx="195" cy="23" fill="#ADD1B2" rx="11" ry="11" style="stroke:#181818;stroke-width:1.0;"/><path d="M197.9731,28.6431 Q197.3921,28.9419 196.7529,29.0913 Q196.1138,29.2407 195.4082,29.2407 Q192.9014,29.2407 191.5815,27.5889 Q190.2617,25.937 190.2617,22.8159 Q190.2617,19.6865 191.5815,18.0347 Q192.9014,16.3828 195.4082,16.3828 Q196.1138,16.3828 196.7612,16.5322 Q197.4087,16.6816 197.9731,16.9805 L197.9731,19.7031 Q197.3423,19.1221 196.7488,18.8523 Q196.1553,18.5825 195.5244,18.5825 Q194.1797,18.5825 193.4949,19.6492 Q192.8101,20.7158 192.8101,22.8159 Q192.8101,24.9077 193.4949,25.9744 Q194.1797,27.041 195.5244,27.041 Q196.1553,27.041 196.7488,26.7712 Q197.3423,26.5015 197.9731,25.9204 Z " fill="#000000"/><text fill="#000000" font-family="sans-serif" font-size="14" lengthAdjust="spacing" textLength="237" x="209" y="28.291">ListVehiclesNeedingMaintenanceUI</text><line style="stroke:#181818;stroke-width:0.5;" x1="181" x2="448" y1="39" y2="39"/><line style="stroke:#181818;stroke-width:0.5;" x1="181" x2="448" y1="47" y2="47"/></g><!--class ListVehiclesNeedingMaintenanceController--><g id="elem_ListVehiclesNeedingMaintenanceController"><rect codeLine="34" fill="#F1F1F1" height="146.9297" id="ListVehiclesNeedingMaintenanceController" rx="2.5" ry="2.5" style="stroke:#181818;stroke-width:0.5;" width="615" x="7" y="116"/><ellipse cx="163.75" cy="132" fill="#ADD1B2" rx="11" ry="11" style="stroke:#181818;stroke-width:1.0;"/><path d="M166.7231,137.6431 Q166.1421,137.9419 165.5029,138.0913 Q164.8638,138.2407 164.1582,138.2407 Q161.6514,138.2407 160.3315,136.5889 Q159.0117,134.937 159.0117,131.8159 Q159.0117,128.6865 160.3315,127.0347 Q161.6514,125.3828 164.1582,125.3828 Q164.8638,125.3828 165.5112,125.5322 Q166.1587,125.6816 166.7231,125.9805 L166.7231,128.7031 Q166.0923,128.1221 165.4988,127.8523 Q164.9053,127.5825 164.2744,127.5825 Q162.9297,127.5825 162.2449,128.6492 Q161.5601,129.7158 161.5601,131.8159 Q161.5601,133.9077 162.2449,134.9744 Q162.9297,136.041 164.2744,136.041 Q164.9053,136.041 165.4988,135.7712 Q166.0923,135.5015 166.7231,134.9204 Z " fill="#000000"/><text fill="#000000" font-family="sans-serif" font-size="14" lengthAdjust="spacing" textLength="293" x="184.25" y="137.291">ListVehiclesNeedingMaintenanceController</text><line style="stroke:#181818;stroke-width:0.5;" x1="8" x2="621" y1="148" y2="148"/><line style="stroke:#181818;stroke-width:0.5;" x1="8" x2="621" y1="156" y2="156"/><text fill="#000000" font-family="sans-serif" font-size="14" lengthAdjust="spacing" textLength="603" x="13" y="173.5352">+ListVehiclesNeedingMaintenanceController(vehicleRepository, maintenanceRepository)</text><text fill="#000000" font-family="sans-serif" font-size="14" lengthAdjust="spacing" textLength="122" x="13" y="190.0234">+getVehiclesList()</text><text fill="#000000" font-family="sans-serif" font-size="14" lengthAdjust="spacing" textLength="263" x="13" y="206.5117">+updateVehicleKms(vehiclePlate, kms)</text><text fill="#000000" font-family="sans-serif" font-size="14" lengthAdjust="spacing" textLength="237" x="13" y="223">+getLastMaintenance(vehiclePlate)</text><text fill="#000000" font-family="sans-serif" font-size="14" lengthAdjust="spacing" textLength="366" x="13" y="239.4883">+calculateNextMaintenance(vehicle, lastMaintenance)</text><text fill="#000000" font-family="sans-serif" font-size="14" lengthAdjust="spacing" textLength="184" x="13" y="255.9766">+addVehicleToList(vehicle)</text></g><!--class Repositories--><g id="elem_Repositories"><rect codeLine="44" fill="#F1F1F1" height="97.4648" id="Repositories" rx="2.5" ry="2.5" style="stroke:#181818;stroke-width:0.5;" width="209" x="210" y="417.93"/><ellipse cx="267.75" cy="433.93" fill="#ADD1B2" rx="11" ry="11" style="stroke:#181818;stroke-width:1.0;"/><path d="M270.7231,439.5731 Q270.1421,439.8719 269.5029,440.0213 Q268.8638,440.1707 268.1582,440.1707 Q265.6514,440.1707 264.3315,438.5189 Q263.0117,436.867 263.0117,433.7459 Q263.0117,430.6165 264.3315,428.9647 Q265.6514,427.3128 268.1582,427.3128 Q268.8638,427.3128 269.5112,427.4622 Q270.1587,427.6116 270.7231,427.9105 L270.7231,430.6331 Q270.0923,430.0521 269.4988,429.7823 Q268.9053,429.5125 268.2744,429.5125 Q266.9297,429.5125 266.2449,430.5792 Q265.5601,431.6458 265.5601,433.7459 Q265.5601,435.8377 266.2449,436.9044 Q266.9297,437.971 268.2744,437.971 Q268.9053,437.971 269.4988,437.7012 Q270.0923,437.4315 270.7231,436.8504 Z " fill="#000000"/><text fill="#000000" font-family="sans-serif" font-size="14" lengthAdjust="spacing" textLength="85" x="288.25" y="439.221">Repositories</text><line style="stroke:#181818;stroke-width:0.5;" x1="211" x2="418" y1="449.93" y2="449.93"/><line style="stroke:#181818;stroke-width:0.5;" x1="211" x2="418" y1="457.93" y2="457.93"/><text fill="#000000" font-family="sans-serif" font-size="14" lengthAdjust="spacing" textLength="103" x="216" y="475.4652">-Repositories()</text><text fill="#000000" font-family="sans-serif" font-size="14" lengthAdjust="spacing" textLength="197" x="216" y="491.9534">+getInstance() : Repositories</text><text fill="#000000" font-family="sans-serif" font-size="14" lengthAdjust="spacing" textLength="165" x="216" y="508.4417">+getVehicleRepository()</text></g><!--class VehicleRepository--><g id="elem_VehicleRepository"><rect codeLine="50" fill="#F1F1F1" height="80.9766" id="VehicleRepository" rx="2.5" ry="2.5" style="stroke:#181818;stroke-width:0.5;" width="275" x="21" y="592.4"/><ellipse cx="93.25" cy="608.4" fill="#ADD1B2" rx="11" ry="11" style="stroke:#181818;stroke-width:1.0;"/><path d="M96.2231,614.0431 Q95.6421,614.3419 95.0029,614.4913 Q94.3638,614.6407 93.6582,614.6407 Q91.1514,614.6407 89.8315,612.9889 Q88.5117,611.337 88.5117,608.2159 Q88.5117,605.0865 89.8315,603.4347 Q91.1514,601.7828 93.6582,601.7828 Q94.3638,601.7828 95.0112,601.9322 Q95.6587,602.0816 96.2231,602.3805 L96.2231,605.1031 Q95.5923,604.5221 94.9988,604.2523 Q94.4053,603.9825 93.7744,603.9825 Q92.4297,603.9825 91.7449,605.0492 Q91.0601,606.1158 91.0601,608.2159 Q91.0601,610.3077 91.7449,611.3744 Q92.4297,612.441 93.7744,612.441 Q94.4053,612.441 94.9988,612.1712 Q95.5923,611.9015 96.2231,611.3204 Z " fill="#000000"/><text fill="#000000" font-family="sans-serif" font-size="14" lengthAdjust="spacing" textLength="122" x="113.75" y="613.691">VehicleRepository</text><line style="stroke:#181818;stroke-width:0.5;" x1="22" x2="295" y1="624.4" y2="624.4"/><line style="stroke:#181818;stroke-width:0.5;" x1="22" x2="295" y1="632.4" y2="632.4"/><text fill="#000000" font-family="sans-serif" font-size="14" lengthAdjust="spacing" textLength="122" x="27" y="649.9352">+getVehiclesList()</text><text fill="#000000" font-family="sans-serif" font-size="14" lengthAdjust="spacing" textLength="263" x="27" y="666.4234">+updateVehicleKms(vehiclePlate, kms)</text></g><!--class MaintenanceRepository--><g id="elem_MaintenanceRepository"><rect codeLine="55" fill="#F1F1F1" height="64.4883" id="MaintenanceRepository" rx="2.5" ry="2.5" style="stroke:#181818;stroke-width:0.5;" width="249" x="331" y="832.82"/><ellipse cx="371.65" cy="848.82" fill="#ADD1B2" rx="11" ry="11" style="stroke:#181818;stroke-width:1.0;"/><path d="M374.6231,854.4631 Q374.0421,854.7619 373.4029,854.9113 Q372.7638,855.0607 372.0582,855.0607 Q369.5514,855.0607 368.2315,853.4089 Q366.9117,851.757 366.9117,848.6359 Q366.9117,845.5065 368.2315,843.8547 Q369.5514,842.2028 372.0582,842.2028 Q372.7638,842.2028 373.4112,842.3522 Q374.0587,842.5016 374.6231,842.8005 L374.6231,845.5231 Q373.9923,844.9421 373.3988,844.6723 Q372.8053,844.4025 372.1744,844.4025 Q370.8297,844.4025 370.1449,845.4692 Q369.4601,846.5358 369.4601,848.6359 Q369.4601,850.7277 370.1449,851.7944 Q370.8297,852.861 372.1744,852.861 Q372.8053,852.861 373.3988,852.5912 Q373.9923,852.3215 374.6231,851.7404 Z " fill="#000000"/><text fill="#000000" font-family="sans-serif" font-size="14" lengthAdjust="spacing" textLength="160" x="391.35" y="854.111">MaintenanceRepository</text><line style="stroke:#181818;stroke-width:0.5;" x1="332" x2="579" y1="864.82" y2="864.82"/><line style="stroke:#181818;stroke-width:0.5;" x1="332" x2="579" y1="872.82" y2="872.82"/><text fill="#000000" font-family="sans-serif" font-size="14" lengthAdjust="spacing" textLength="237" x="337" y="890.3552">+getLastMaintenance(vehiclePlate)</text></g><!--link Repositories to Repositories--><g id="link_Repositories_Repositories"><path codeLine="60" d="M419.44,451.06 C439.67,452.9 454,458.1 454,466.67 C454,475.23 445.6453,479.8865 425.4153,481.7265 " fill="none" id="Repositories-to-Repositories" style="stroke:#181818;stroke-width:1.0;"/><polygon fill="#181818" points="419.44,482.27,428.7653,485.4383,424.4194,481.8171,428.0407,477.4712,419.44,482.27" style="stroke:#181818;stroke-width:1.0;"/><text fill="#000000" font-family="sans-serif" font-size="13" lengthAdjust="spacing" textLength="53" x="460" y="471.7384">instance</text></g><!--link Repositories to VehicleRepository--><g id="link_Repositories_VehicleRepository"><path codeLine="61" d="M262.12,515.57 C244.63,531.56 229.5,545.4 229.5,545.4 C229.5,545.4 213.7068,564.6323 195.1068,587.2923 " fill="none" id="Repositories-to-VehicleRepository" style="stroke:#181818;stroke-width:1.0;"/><polygon fill="#181818" points="191.3,591.93,200.102,587.5113,194.4723,588.0652,193.9184,582.4356,191.3,591.93" style="stroke:#181818;stroke-width:1.0;"/><text fill="#000000" font-family="sans-serif" font-size="13" lengthAdjust="spacing" textLength="111" x="230.5" y="558.9684">vehicleRepository</text><text fill="#000000" font-family="sans-serif" font-size="13" lengthAdjust="spacing" textLength="8" x="187.89" y="581.8001">1</text></g><!--link Repositories to MaintenanceRepository--><g id="link_Repositories_MaintenanceRepository"><path codeLine="62" d="M334.22,515.57 C340.8,531.56 346.5,545.4 346.5,545.4 C346.5,545.4 415.1381,746.0629 442.7081,826.6629 " fill="none" id="Repositories-to-MaintenanceRepository" style="stroke:#181818;stroke-width:1.0;"/><polygon fill="#181818" points="444.65,832.34,445.5219,822.5298,443.0318,827.6091,437.9525,825.119,444.65,832.34" style="stroke:#181818;stroke-width:1.0;"/><text fill="#000000" font-family="sans-serif" font-size="13" lengthAdjust="spacing" textLength="147" x="391.5" y="637.9584">maintenanceRepository</text><text fill="#000000" font-family="sans-serif" font-size="13" lengthAdjust="spacing" textLength="8" x="433.7264" y="822.0198">1</text></g><!--link ListVehiclesNeedingMaintenanceController to Repositories--><g id="link_ListVehiclesNeedingMaintenanceController_Repositories"><path codeLine="63" d="M314.5,263.13 C314.5,312.02 314.5,369.1 314.5,411.77 " fill="none" id="ListVehiclesNeedingMaintenanceController-to-Repositories" style="stroke:#181818;stroke-width:1.0;stroke-dasharray:7.0,7.0;"/><polygon fill="#181818" points="314.5,417.77,318.5,408.77,314.5,412.77,310.5,408.77,314.5,417.77" style="stroke:#181818;stroke-width:1.0;"/><text fill="#000000" font-family="sans-serif" font-size="13" lengthAdjust="spacing" textLength="75" x="315.5" y="337.4984">repositories</text></g><!--link ListVehiclesNeedingMaintenanceController to VehicleRepository--><g id="link_ListVehiclesNeedingMaintenanceController_VehicleRepository"><path codeLine="64" d="M265.63,263.35 C232.05,313.44 193.5,370.93 193.5,370.93 C193.5,370.93 174.458,512.9233 164.648,586.0233 " fill="none" id="ListVehiclesNeedingMaintenanceController-to-VehicleRepository" style="stroke:#181818;stroke-width:1.0;stroke-dasharray:7.0,7.0;"/><polygon fill="#181818" points="163.85,591.97,169.0115,583.582,164.515,587.0144,161.0826,582.5179,163.85,591.97" style="stroke:#181818;stroke-width:1.0;"/><text fill="#000000" font-family="sans-serif" font-size="13" lengthAdjust="spacing" textLength="111" x="194.5" y="384.4984">vehicleRepository</text></g><!--link ListVehiclesNeedingMaintenanceController to MaintenanceRepository--><g id="link_ListVehiclesNeedingMaintenanceController_MaintenanceRepository"><path codeLine="65" d="M448.03,263.43 C510.99,297.82 572.5,331.43 572.5,331.43 C572.5,331.43 572.5,331.43 572.5,633.89 C572.5,633.89 506.2892,764.1515 474.2392,827.1915 " fill="none" id="ListVehiclesNeedingMaintenanceController-to-MaintenanceRepository" style="stroke:#181818;stroke-width:1.0;stroke-dasharray:7.0,7.0;"/><polygon fill="#181818" points="471.52,832.54,479.1644,826.3301,473.786,828.083,472.0332,822.7045,471.52,832.54" style="stroke:#181818;stroke-width:1.0;"/><text fill="#000000" font-family="sans-serif" font-size="13" lengthAdjust="spacing" textLength="147" x="573.5" y="471.7384">maintenanceRepository</text></g><!--link ListVehiclesNeedingMaintenanceUI to ListVehiclesNeedingMaintenanceController--><g id="link_ListVehiclesNeedingMaintenanceUI_ListVehiclesNeedingMaintenanceController"><path codeLine="67" d="M314.5,55.43 C314.5,71.54 314.5,87.89 314.5,109.67 " fill="none" id="ListVehiclesNeedingMaintenanceUI-to-ListVehiclesNeedingMaintenanceController" style="stroke:#181818;stroke-width:1.0;stroke-dasharray:7.0,7.0;"/><polygon fill="#181818" points="314.5,115.67,318.5,106.67,314.5,110.67,310.5,106.67,314.5,115.67" style="stroke:#181818;stroke-width:1.0;"/></g><!--link Vehicle to Maintenance--><g id="link_Vehicle_Maintenance"><path codeLine="68" d="M229.25,980.03 C245.97,1006.97 259.7445,1029.163 273.4945,1051.303 " fill="none" id="Vehicle-to-Maintenance" style="stroke:#181818;stroke-width:1.0;"/><polygon fill="#181818" points="276.66,1056.4,275.3098,1046.6441,274.0221,1052.1525,268.5137,1050.8648,276.66,1056.4" style="stroke:#181818;stroke-width:1.0;"/><text fill="#000000" font-family="sans-serif" font-size="13" lengthAdjust="spacing" textLength="37" x="255.5" y="1023.3184">needs</text><text fill="#000000" font-family="sans-serif" font-size="13" lengthAdjust="spacing" textLength="8" x="225.5262" y="1000.4543">1</text><text fill="#000000" font-family="sans-serif" font-size="13" lengthAdjust="spacing" textLength="6" x="266.0419" y="1046.0333">*</text></g><!--link VehicleRepository to Vehicle--><g id="link_VehicleRepository_Vehicle"><path codeLine="70" d="M158.5,673.72 C158.5,695.08 158.5,716.59 158.5,744.03 " fill="none" id="VehicleRepository-to-Vehicle" style="stroke:#181818;stroke-width:1.0;"/><polygon fill="#181818" points="158.5,750.03,162.5,741.03,158.5,745.03,154.5,741.03,158.5,750.03" style="stroke:#181818;stroke-width:1.0;"/><text fill="#000000" font-family="sans-serif" font-size="13" lengthAdjust="spacing" textLength="51" x="159.5" y="716.9384">vehicles</text><text fill="#000000" font-family="sans-serif" font-size="13" lengthAdjust="spacing" textLength="8" x="149.8625" y="694.016">1</text><text fill="#000000" font-family="sans-serif" font-size="13" lengthAdjust="spacing" textLength="6" x="152.3078" y="739.759">*</text></g><!--link MaintenanceRepository to Maintenance--><g id="link_MaintenanceRepository_Maintenance"><path codeLine="71" d="M435.71,897.72 C410.3,938.38 369.1397,1004.2418 339.5997,1051.5118 " fill="none" id="MaintenanceRepository-to-Maintenance" style="stroke:#181818;stroke-width:1.0;"/><polygon fill="#181818" points="336.42,1056.6,344.5817,1051.0875,339.0698,1052.3599,337.7974,1046.8479,336.42,1056.6" style="stroke:#181818;stroke-width:1.0;"/><text fill="#000000" font-family="sans-serif" font-size="13" lengthAdjust="spacing" textLength="87" x="364.5" y="1023.3184">maintenances</text><text fill="#000000" font-family="sans-serif" font-size="13" lengthAdjust="spacing" textLength="8" x="423.175" y="917.9727">1</text><text fill="#000000" font-family="sans-serif" font-size="13" lengthAdjust="spacing" textLength="6" x="334.3739" y="1045.91">*</text></g><!--SRC=[fLJBRjim4BppAnQvs6uSextg421eKC1e6XHrqvuPQYCJfaY5fDggHV-zAraFCb8Q6RcP-vYPdLrhuGvI5zpo77AZZTXRaoDuMo8RCWKN1vxXpbSAmQBmN6SgB71xdfgVKcVmm9KBCqfgz5M1K1XLrG-sc4WQwmqBkeJYpbrvR-LzwN4hZDx9tmXl6LieVF3W3LYPxJsaifOZZMQiwO5lk9U2LFvX01Um8mGIzUCO_Aounp1-RxbEmq1kKbHXe5RNlBVQOuOMFBTn8BF6kUzOgudYehGMjV-OkpYyHt6uApvOV2nHYwf9NfCkyZMJpgEzxaGsKIuUI-baFMARE8UoIEbdEoaHBCFvrd38tOhzxGpvn2LHQwx5qPJdRUavq-7ToIRC0VA6TBRixXOn9Qo0vMvBF3DhtnljhL6A68xQpcStT4D_mSAGFyPMQyY7mY6yQe4px75hZcKNd-DcZt33dG_aHBLTcU1Ab7NW5dzD5Qz1nIXT8q_JLiPNqqXi6rPiyBEVIwBhzna6bu7QhNQ-OLv14XMDB1diMWQtCqhsMtgDcLEdEKtnVxS9XqLsN5p6zYGWMmEUr57XsRkpyNW9Z8xgQMVREYazcJv0Dli_iDbiuX4I-Ye4Mpi1w7BUTAT9Esbgzk9deeQSAu1r7_RQ_MOBRw8jqB8rjJl6naSRjdGmlHcEJP_Xypp1k4Jt3m00]--></g></svg>