<?xml version="1.0" encoding="us-ascii" standalone="no"?><svg xmlns="http://www.w3.org/2000/svg" xmlns:xlink="http://www.w3.org/1999/xlink" contentStyleType="text/css" height="505px" preserveAspectRatio="none" style="width:395px;height:505px;background:#FFFFFF;" version="1.1" viewBox="0 0 395 505" width="395px" zoomAndPan="magnify"><defs/><g><text fill="#000000" font-family="sans-serif" font-size="14" font-weight="bold" lengthAdjust="spacing" textLength="284" x="54.5" y="30.1074">System Sequence Diagram (SSD) - US021</text><rect fill="#FFFFFF" height="206.0371" style="stroke:#181818;stroke-width:1.0;" width="10" x="31" y="170.4844"/><rect fill="#FFFFFF" height="31.291" style="stroke:#181818;stroke-width:1.0;" width="10" x="352" y="193.7754"/><rect fill="#FFFFFF" height="48.582" style="stroke:#181818;stroke-width:1.0;" width="10" x="352" y="256.3574"/><rect fill="#FFFFFF" height="31.291" style="stroke:#181818;stroke-width:1.0;" width="10" x="352" y="336.2305"/><line style="stroke:#181818;stroke-width:0.5;stroke-dasharray:5.0,5.0;" x1="36" x2="36" y1="160.4844" y2="385.5215"/><line style="stroke:#181818;stroke-width:0.5;stroke-dasharray:5.0,5.0;" x1="357" x2="357" y1="160.4844" y2="385.5215"/><text fill="#000000" font-family="sans-serif" font-size="14" lengthAdjust="spacing" textLength="40" x="13" y="119.7285">Green</text><text fill="#000000" font-family="sans-serif" font-size="14" lengthAdjust="spacing" textLength="47" x="9.5" y="138.3496">Spaces</text><text fill="#000000" font-family="sans-serif" font-size="14" lengthAdjust="spacing" textLength="56" x="5" y="156.9707">Manager</text><ellipse cx="36" cy="53.1211" fill="#E3E3E3" rx="8" ry="8" style="stroke:#181818;stroke-width:0.5;"/><path d="M36,61.1211 L36,88.1211 M23,69.1211 L49,69.1211 M36,88.1211 L23,103.1211 M36,88.1211 L49,103.1211 " fill="none" style="stroke:#181818;stroke-width:0.5;"/><text fill="#000000" font-family="sans-serif" font-size="14" lengthAdjust="spacing" textLength="40" x="13" y="399.6289">Green</text><text fill="#000000" font-family="sans-serif" font-size="14" lengthAdjust="spacing" textLength="47" x="9.5" y="418.25">Spaces</text><text fill="#000000" font-family="sans-serif" font-size="14" lengthAdjust="spacing" textLength="56" x="5" y="436.8711">Manager</text><ellipse cx="36" cy="448.8848" fill="#E3E3E3" rx="8" ry="8" style="stroke:#181818;stroke-width:0.5;"/><path d="M36,456.8848 L36,483.8848 M23,464.8848 L49,464.8848 M36,483.8848 L23,498.8848 M36,483.8848 L49,498.8848 " fill="none" style="stroke:#181818;stroke-width:0.5;"/><rect fill="#E3E3E3" height="32.6211" rx="2.5" ry="2.5" style="stroke:#181818;stroke-width:0.5;" width="64" x="325" y="126.8633"/><text fill="#000000" font-family="sans-serif" font-size="14" lengthAdjust="spacing" textLength="50" x="332" y="148.9707">:System</text><rect fill="#E3E3E3" height="32.6211" rx="2.5" ry="2.5" style="stroke:#181818;stroke-width:0.5;" width="64" x="325" y="384.5215"/><text fill="#000000" font-family="sans-serif" font-size="14" lengthAdjust="spacing" textLength="50" x="332" y="406.6289">:System</text><rect fill="#FFFFFF" height="206.0371" style="stroke:#181818;stroke-width:1.0;" width="10" x="31" y="170.4844"/><rect fill="#FFFFFF" height="31.291" style="stroke:#181818;stroke-width:1.0;" width="10" x="352" y="193.7754"/><rect fill="#FFFFFF" height="48.582" style="stroke:#181818;stroke-width:1.0;" width="10" x="352" y="256.3574"/><rect fill="#FFFFFF" height="31.291" style="stroke:#181818;stroke-width:1.0;" width="10" x="352" y="336.2305"/><polygon fill="#181818" points="340,189.7754,350,193.7754,340,197.7754,344,193.7754" style="stroke:#181818;stroke-width:1.0;"/><line style="stroke:#181818;stroke-width:1.0;" x1="41" x2="346" y1="193.7754" y2="193.7754"/><text fill="#000000" font-family="sans-serif" font-size="13" font-weight="bold" lengthAdjust="spacing" textLength="7" x="48" y="188.5127">1</text><text fill="#000000" font-family="sans-serif" font-size="13" lengthAdjust="spacing" textLength="239" x="59" y="188.5127">asks to add a new entry to the To-Do List</text><polygon fill="#181818" points="52,221.0664,42,225.0664,52,229.0664,48,225.0664" style="stroke:#181818;stroke-width:1.0;"/><line style="stroke:#181818;stroke-width:1.0;stroke-dasharray:2.0,2.0;" x1="46" x2="356" y1="225.0664" y2="225.0664"/><text fill="#000000" font-family="sans-serif" font-size="13" font-weight="bold" lengthAdjust="spacing" textLength="7" x="58" y="219.8037">2</text><text fill="#000000" font-family="sans-serif" font-size="13" lengthAdjust="spacing" textLength="276" x="69" y="219.8037">shows green spaces list and asks to select one</text><polygon fill="#181818" points="340,252.3574,350,256.3574,340,260.3574,344,256.3574" style="stroke:#181818;stroke-width:1.0;"/><line style="stroke:#181818;stroke-width:1.0;" x1="41" x2="346" y1="256.3574" y2="256.3574"/><text fill="#000000" font-family="sans-serif" font-size="13" font-weight="bold" lengthAdjust="spacing" textLength="7" x="48" y="251.0947">3</text><text fill="#000000" font-family="sans-serif" font-size="13" lengthAdjust="spacing" textLength="128" x="59" y="251.0947">selects a green space</text><polygon fill="#181818" points="52,300.9395,42,304.9395,52,308.9395,48,304.9395" style="stroke:#181818;stroke-width:1.0;"/><line style="stroke:#181818;stroke-width:1.0;stroke-dasharray:2.0,2.0;" x1="46" x2="356" y1="304.9395" y2="304.9395"/><text fill="#000000" font-family="sans-serif" font-size="13" font-weight="bold" lengthAdjust="spacing" textLength="7" x="58" y="291.0313">4</text><text fill="#000000" font-family="sans-serif" font-size="13" lengthAdjust="spacing" textLength="251" x="69" y="282.3857">requests a title, a description, the degree of</text><text fill="#000000" font-family="sans-serif" font-size="13" lengthAdjust="spacing" textLength="196" x="69" y="299.6768">urgency and an expected duration</text><polygon fill="#181818" points="340,332.2305,350,336.2305,340,340.2305,344,336.2305" style="stroke:#181818;stroke-width:1.0;"/><line style="stroke:#181818;stroke-width:1.0;" x1="41" x2="346" y1="336.2305" y2="336.2305"/><text fill="#000000" font-family="sans-serif" font-size="13" font-weight="bold" lengthAdjust="spacing" textLength="7" x="48" y="330.9678">5</text><text fill="#000000" font-family="sans-serif" font-size="13" lengthAdjust="spacing" textLength="122" x="59" y="330.9678">types requested data</text><polygon fill="#181818" points="52,363.5215,42,367.5215,52,371.5215,48,367.5215" style="stroke:#181818;stroke-width:1.0;"/><line style="stroke:#181818;stroke-width:1.0;stroke-dasharray:2.0,2.0;" x1="46" x2="356" y1="367.5215" y2="367.5215"/><text fill="#000000" font-family="sans-serif" font-size="13" font-weight="bold" lengthAdjust="spacing" textLength="7" x="58" y="362.2588">6</text><text fill="#000000" font-family="sans-serif" font-size="13" lengthAdjust="spacing" textLength="158" x="69" y="362.2588">displays operation success</text><!--SRC=[bP4nJmCn38Nt-nLM9v1w4Z1sOAh4GgU3hOkvkDUeTqw8VPJxzpYvjgeG3Cra9S_lVR7bu3bYmW66mA7Tfp0GQ1gfaijBnFQ07JKwzGI9MaNk-ck1xD65e-SETjWBLPLwDMapYT803NsEn2t1scENvNTDixw76jwRXwV7gi9H0u_31oMhMmq95Y-9YBVSM3B9bZV8bfyMW08lpQQoLFMjZyWAYzKSKnxdijZuBrGgwWhiM07rynbfPUA3W0P0vm21wGZ4cgPyfNk2jr2l0xnwqT9zyJi7mEcS_6gppWah6qKu2dIP7wJWGsykWEmkcKAz3H42K_5nzAVzR-AvIupsolr6kfHN8SMah6XfXIDfau_g0o_Btntb00YxBO-fiyrDCpq3VKT380TkJ9WRRk7NATemJWJP0nLln7TUOe-JG8Wq0u2ChSrO_W7v0G00]--></g></svg>