<?xml version="1.0" encoding="us-ascii" standalone="no"?><svg xmlns="http://www.w3.org/2000/svg" xmlns:xlink="http://www.w3.org/1999/xlink" contentStyleType="text/css" height="451px" preserveAspectRatio="none" style="width:1061px;height:451px;background:#FFFFFF;" version="1.1" viewBox="0 0 1061 451" width="1061px" zoomAndPan="magnify"><defs/><g><!--class HRM--><g id="elem_HRM"><rect codeLine="17" fill="#F1F1F1" height="34.4883" id="HRM" rx="2.5" ry="2.5" style="stroke:#181818;stroke-width:0.5;" width="37" x="227.1389" y="7"/><text fill="#000000" font-family="sans-serif" font-size="14" lengthAdjust="spacing" textLength="31" x="230.1389" y="25.5352">HRM</text><line style="stroke:#181818;stroke-width:0.5;" x1="228.1389" x2="263.1389" y1="33.4883" y2="33.4883"/></g><!--class FM--><g id="elem_FM"><rect codeLine="20" fill="#F1F1F1" height="34.4883" id="FM" rx="2.5" ry="2.5" style="stroke:#181818;stroke-width:0.5;" width="26" x="897.6389" y="7"/><text fill="#000000" font-family="sans-serif" font-size="14" lengthAdjust="spacing" textLength="20" x="900.6389" y="25.5352">FM</text><line style="stroke:#181818;stroke-width:0.5;" x1="898.6389" x2="922.6389" y1="33.4883" y2="33.4883"/></g><!--class Skill--><g id="elem_Skill"><rect codeLine="23" fill="#F1F1F1" height="50.9766" id="Skill" rx="2.5" ry="2.5" style="stroke:#181818;stroke-width:0.5;" width="50" x="100.6389" y="394"/><text fill="#000000" font-family="sans-serif" font-size="14" lengthAdjust="spacing" textLength="28" x="111.6389" y="412.5352">Skill</text><line style="stroke:#181818;stroke-width:0.5;" x1="101.6389" x2="149.6389" y1="420.4883" y2="420.4883"/><text fill="#000000" font-family="sans-serif" font-size="14" lengthAdjust="spacing" textLength="38" x="106.6389" y="438.0234">name</text></g><!--class Job--><g id="elem_Job"><rect codeLine="27" fill="#F1F1F1" height="50.9766" id="Job" rx="2.5" ry="2.5" style="stroke:#181818;stroke-width:0.5;" width="50" x="637.6389" y="192"/><text fill="#000000" font-family="sans-serif" font-size="14" lengthAdjust="spacing" textLength="22" x="651.6389" y="210.5352">Job</text><line style="stroke:#181818;stroke-width:0.5;" x1="638.6389" x2="686.6389" y1="218.4883" y2="218.4883"/><text fill="#000000" font-family="sans-serif" font-size="14" lengthAdjust="spacing" textLength="38" x="643.6389" y="236.0234">name</text></g><!--class Collaborator--><g id="elem_Collaborator"><rect codeLine="31" fill="#F1F1F1" height="182.8828" id="Collaborator" rx="2.5" ry="2.5" style="stroke:#181818;stroke-width:0.5;" width="227" x="339.1389" y="126"/><text fill="#000000" font-family="sans-serif" font-size="14" lengthAdjust="spacing" textLength="87" x="409.1389" y="144.5352">Collaborator</text><line style="stroke:#181818;stroke-width:0.5;" x1="340.1389" x2="565.1389" y1="152.4883" y2="152.4883"/><text fill="#000000" font-family="sans-serif" font-size="14" lengthAdjust="spacing" textLength="38" x="345.1389" y="170.0234">name</text><text fill="#000000" font-family="sans-serif" font-size="14" lengthAdjust="spacing" textLength="63" x="345.1389" y="186.5117">birthdate</text><text fill="#000000" font-family="sans-serif" font-size="14" lengthAdjust="spacing" textLength="101" x="345.1389" y="203">admissionDate</text><text fill="#000000" font-family="sans-serif" font-size="14" lengthAdjust="spacing" textLength="54" x="345.1389" y="219.4883">address</text><text fill="#000000" font-family="sans-serif" font-size="14" lengthAdjust="spacing" textLength="99" x="345.1389" y="235.9766">phoneNumber</text><text fill="#000000" font-family="sans-serif" font-size="14" lengthAdjust="spacing" textLength="37" x="345.1389" y="252.4648">email</text><text fill="#000000" font-family="sans-serif" font-size="14" lengthAdjust="spacing" textLength="115" x="345.1389" y="268.9531">taxpayerNumber</text><text fill="#000000" font-family="sans-serif" font-size="14" lengthAdjust="spacing" textLength="193" x="345.1389" y="285.4414">identificationDocumentType</text><text fill="#000000" font-family="sans-serif" font-size="14" lengthAdjust="spacing" textLength="215" x="345.1389" y="301.9297">identificationDocumentNumber</text></g><!--class Team--><g id="elem_Team"><rect codeLine="43" fill="#F1F1F1" height="34.4883" id="Team" rx="2.5" ry="2.5" style="stroke:#181818;stroke-width:0.5;" width="44" x="223.6389" y="200.5"/><text fill="#000000" font-family="sans-serif" font-size="14" lengthAdjust="spacing" textLength="38" x="226.6389" y="219.0352">Team</text><line style="stroke:#181818;stroke-width:0.5;" x1="224.6389" x2="266.6389" y1="226.9883" y2="226.9883"/></g><!--class Vehicle--><g id="elem_Vehicle"><rect codeLine="46" fill="#F1F1F1" height="199.3711" id="Vehicle" rx="2.5" ry="2.5" style="stroke:#181818;stroke-width:0.5;" width="141" x="761.1389" y="118"/><text fill="#000000" font-family="sans-serif" font-size="14" lengthAdjust="spacing" textLength="49" x="807.1389" y="136.5352">Vehicle</text><line style="stroke:#181818;stroke-width:0.5;" x1="762.1389" x2="901.1389" y1="144.4883" y2="144.4883"/><text fill="#000000" font-family="sans-serif" font-size="14" lengthAdjust="spacing" textLength="80" x="767.1389" y="162.0234">vehiclePlate</text><text fill="#000000" font-family="sans-serif" font-size="14" lengthAdjust="spacing" textLength="41" x="767.1389" y="178.5117">brand</text><text fill="#000000" font-family="sans-serif" font-size="14" lengthAdjust="spacing" textLength="43" x="767.1389" y="195">model</text><text fill="#000000" font-family="sans-serif" font-size="14" lengthAdjust="spacing" textLength="29" x="767.1389" y="211.4883">type</text><text fill="#000000" font-family="sans-serif" font-size="14" lengthAdjust="spacing" textLength="27" x="767.1389" y="227.9766">tare</text><text fill="#000000" font-family="sans-serif" font-size="14" lengthAdjust="spacing" textLength="85" x="767.1389" y="244.4648">grossWeight</text><text fill="#000000" font-family="sans-serif" font-size="14" lengthAdjust="spacing" textLength="79" x="767.1389" y="260.9531">currentKms</text><text fill="#000000" font-family="sans-serif" font-size="14" lengthAdjust="spacing" textLength="84" x="767.1389" y="277.4414">registerDate</text><text fill="#000000" font-family="sans-serif" font-size="14" lengthAdjust="spacing" textLength="106" x="767.1389" y="293.9297">acquisitionDate</text><text fill="#000000" font-family="sans-serif" font-size="14" lengthAdjust="spacing" textLength="129" x="767.1389" y="310.418">checkUpFrequency</text></g><!--class Checkup--><g id="elem_Checkup"><rect codeLine="59" fill="#F1F1F1" height="67.4648" id="Checkup" rx="2.5" ry="2.5" style="stroke:#181818;stroke-width:0.5;" width="66" x="988.6389" y="184"/><text fill="#000000" font-family="sans-serif" font-size="14" lengthAdjust="spacing" textLength="60" x="991.6389" y="202.5352">Checkup</text><line style="stroke:#181818;stroke-width:0.5;" x1="989.6389" x2="1053.6389" y1="210.4883" y2="210.4883"/><text fill="#000000" font-family="sans-serif" font-size="14" lengthAdjust="spacing" textLength="30" x="994.6389" y="228.0234">date</text><text fill="#000000" font-family="sans-serif" font-size="14" lengthAdjust="spacing" textLength="28" x="994.6389" y="244.5117">kms</text></g><!--link HRM to Skill--><g id="link_HRM_Skill"><path codeLine="64" d="M226.8489,30.92 C187.4189,43.34 99.6389,71 99.6389,71 C99.6389,71 12.6389,118 12.6389,118 C12.6389,118 12.6389,317 12.6389,317 C12.6389,317 66.9589,365.8 100.2789,395.72 " fill="none" id="HRM-Skill" style="stroke:#181818;stroke-width:1.0;"/><polygon fill="#000000" points="16,222.379,21.7414,214.797,16.1883,212.8703,16,222.379" style="stroke:#000000;stroke-width:1.0;"/><text fill="#000000" font-family="sans-serif" font-size="13" lengthAdjust="spacing" textLength="55" x="26.6389" y="222.5684">registers</text><text fill="#000000" font-family="sans-serif" font-size="13" lengthAdjust="spacing" textLength="8" x="211.0149" y="28.2584">1</text><text fill="#000000" font-family="sans-serif" font-size="13" lengthAdjust="spacing" textLength="6" x="86.6572" y="384.9267">*</text></g><!--link HRM to Skill--><g id="link_HRM_Skill"><path codeLine="67" d="M227.6989,41.2 C198.1889,67.84 142.6389,118 142.6389,118 C142.6389,118 131.1189,321.66 127.0489,393.65 " fill="none" id="HRM-Skill-1" style="stroke:#181818;stroke-width:1.0;"/><polygon fill="#000000" points="146.266,222.4631,151.5757,214.5727,145.9237,212.9587,146.266,222.4631" style="stroke:#000000;stroke-width:1.0;"/><text fill="#000000" font-family="sans-serif" font-size="13" lengthAdjust="spacing" textLength="48" x="156.6389" y="222.5684">assigns</text><text fill="#000000" font-family="sans-serif" font-size="13" lengthAdjust="spacing" textLength="8" x="212.4313" y="61.9208">1</text><text fill="#000000" font-family="sans-serif" font-size="13" lengthAdjust="spacing" textLength="6" x="120.6614" y="383.13">*</text></g><!--link HRM to Job--><g id="link_HRM_Job"><path codeLine="65" d="M264.3689,29.92 C309.5089,41.79 420.6389,71 420.6389,71 C420.6389,71 583.6389,118 583.6389,118 C583.6389,118 619.2989,162.46 642.6989,191.64 " fill="none" id="HRM-Job" style="stroke:#181818;stroke-width:1.0;"/><polygon fill="#000000" points="488.2365,81.6205,481.0746,75.3629,478.7643,80.7677,488.2365,81.6205" style="stroke:#000000;stroke-width:1.0;"/><text fill="#000000" font-family="sans-serif" font-size="13" lengthAdjust="spacing" textLength="55" x="492.6389" y="84.5684">registers</text><text fill="#000000" font-family="sans-serif" font-size="13" lengthAdjust="spacing" textLength="8" x="272.1824" y="26.9147">1</text><text fill="#000000" font-family="sans-serif" font-size="13" lengthAdjust="spacing" textLength="6" x="631.1073" y="181.1176">*</text></g><!--link HRM to Collaborator--><g id="link_HRM_Collaborator"><path codeLine="66" d="M264.2789,35.21 C289.0289,48.76 329.6389,71 329.6389,71 C329.6389,71 350.9289,96.18 375.7889,125.59 " fill="none" id="HRM-Collaborator" style="stroke:#181818;stroke-width:1.0;"/><polygon fill="#000000" points="351.5233,82.8036,346.347,74.8251,342.6459,79.3914,351.5233,82.8036" style="stroke:#000000;stroke-width:1.0;"/><text fill="#000000" font-family="sans-serif" font-size="13" lengthAdjust="spacing" textLength="55" x="356.6389" y="84.5684">registers</text><text fill="#000000" font-family="sans-serif" font-size="13" lengthAdjust="spacing" textLength="8" x="272.0614" y="54.1794">1</text><text fill="#000000" font-family="sans-serif" font-size="13" lengthAdjust="spacing" textLength="6" x="363.4259" y="115.2537">*</text></g><!--link HRM to Team--><g id="link_HRM_Team"><path codeLine="68" d="M245.6389,41.33 C245.6389,77.51 245.6389,164.07 245.6389,200.21 " fill="none" id="HRM-Team" style="stroke:#181818;stroke-width:1.0;"/><polygon fill="#000000" points="250.6389,84.6553,253.5779,75.6102,247.7,75.6102,250.6389,84.6553" style="stroke:#000000;stroke-width:1.0;"/><text fill="#000000" font-family="sans-serif" font-size="13" lengthAdjust="spacing" textLength="61" x="259.6389" y="84.5684">generates</text><text fill="#000000" font-family="sans-serif" font-size="13" lengthAdjust="spacing" textLength="8" x="236.3139" y="62.0939">1</text><text fill="#000000" font-family="sans-serif" font-size="13" lengthAdjust="spacing" textLength="6" x="238.6827" y="189.8482">*</text></g><!--link Collaborator to Job--><g id="link_Collaborator_Job"><path codeLine="69" d="M566.5489,217.5 C593.1589,217.5 619.0089,217.5 637.1789,217.5 " fill="none" id="Collaborator-Job" style="stroke:#181818;stroke-width:1.0;"/><polygon fill="#000000" points="593.3889,206.1553,584.3439,203.2163,584.3439,209.0942,593.3889,206.1553" style="stroke:#000000;stroke-width:1.0;"/><text fill="#000000" font-family="sans-serif" font-size="13" lengthAdjust="spacing" textLength="22" x="597.3889" y="211.0684">has</text><text fill="#000000" font-family="sans-serif" font-size="13" lengthAdjust="spacing" textLength="6" x="574.0385" y="214.6016">*</text><text fill="#000000" font-family="sans-serif" font-size="13" lengthAdjust="spacing" textLength="8" x="621.6298" y="213.1893">1</text></g><!--link Collaborator to Skill--><g id="link_Collaborator_Skill"><path codeLine="70" d="M338.7289,288.17 C271.0789,329.54 190.9289,378.57 150.9589,403.02 " fill="none" id="Collaborator-Skill" style="stroke:#181818;stroke-width:1.0;"/><polygon fill="#000000" points="242.3736,358.2642,251.6232,356.0517,248.5562,351.0375,242.3736,358.2642" style="stroke:#000000;stroke-width:1.0;"/><text fill="#000000" font-family="sans-serif" font-size="13" lengthAdjust="spacing" textLength="22" x="255.6389" y="360.5684">has</text><text fill="#000000" font-family="sans-serif" font-size="13" lengthAdjust="spacing" textLength="8" x="323.1753" y="289.7989">1</text><text fill="#000000" font-family="sans-serif" font-size="13" lengthAdjust="spacing" textLength="6" x="158.5699" y="394.1886">*</text></g><!--link Team to Collaborator--><g id="link_Team_Collaborator"><path codeLine="71" d="M267.7889,217.5 C285.4189,217.5 311.5489,217.5 338.6489,217.5 " fill="none" id="Team-Collaborator" style="stroke:#181818;stroke-width:1.0;"/><polygon fill="#000000" points="294.8889,206.1553,285.8439,203.2163,285.8439,209.0942,294.8889,206.1553" style="stroke:#000000;stroke-width:1.0;"/><text fill="#000000" font-family="sans-serif" font-size="13" lengthAdjust="spacing" textLength="22" x="298.8889" y="211.0684">has</text><text fill="#000000" font-family="sans-serif" font-size="13" lengthAdjust="spacing" textLength="8" x="275.7974" y="212.7443">1</text><text fill="#000000" font-family="sans-serif" font-size="13" lengthAdjust="spacing" textLength="22" x="309.0324" y="230.5384">1..*</text></g><!--link FM to Vehicle--><g id="link_FM_Vehicle"><path codeLine="72" d="M897.2289,30.46 C867.2989,42.64 797.6389,71 797.6389,71 C797.6389,71 797.6389,88 797.6389,88 C797.6389,88 800.9589,100.55 805.5289,117.8 " fill="none" id="FM-Vehicle" style="stroke:#181818;stroke-width:1.0;"/><polygon fill="#000000" points="799.0184,83.1037,807.595,78.9936,803.5411,74.7373,799.0184,83.1037" style="stroke:#000000;stroke-width:1.0;"/><text fill="#000000" font-family="sans-serif" font-size="13" lengthAdjust="spacing" textLength="55" x="811.6389" y="84.5684">registers</text><text fill="#000000" font-family="sans-serif" font-size="13" lengthAdjust="spacing" textLength="8" x="881.6121" y="27.5345">1</text><text fill="#000000" font-family="sans-serif" font-size="13" lengthAdjust="spacing" textLength="6" x="797.3002" y="107.1585">*</text></g><!--link FM to Vehicle--><g id="link_FM_Vehicle"><path codeLine="73" d="M903.8989,41.33 C896.6989,58.78 884.6589,87.97 872.4489,117.56 " fill="none" id="FM-Vehicle-1" style="stroke:#181818;stroke-width:1.0;"/><polygon fill="#000000" points="894.732,84.2774,900.8985,77.0368,895.4649,74.7951,894.732,84.2774" style="stroke:#000000;stroke-width:1.0;"/><text fill="#000000" font-family="sans-serif" font-size="13" lengthAdjust="spacing" textLength="56" x="905.6389" y="84.5684">manages</text><text fill="#000000" font-family="sans-serif" font-size="13" lengthAdjust="spacing" textLength="8" x="892.3413" y="62.0939">1</text><text fill="#000000" font-family="sans-serif" font-size="13" lengthAdjust="spacing" textLength="6" x="869.2256" y="107.236">*</text></g><!--link Vehicle to Checkup--><g id="link_Vehicle_Checkup"><path codeLine="74" d="M902.3889,217.5 C931.8289,217.5 964.5889,217.5 988.3189,217.5 " fill="none" id="Vehicle-Checkup" style="stroke:#181818;stroke-width:1.0;"/><polygon fill="#000000" points="929.3889,206.1553,920.3439,203.2163,920.3439,209.0942,929.3889,206.1553" style="stroke:#000000;stroke-width:1.0;"/><text fill="#000000" font-family="sans-serif" font-size="13" lengthAdjust="spacing" textLength="37" x="933.3889" y="211.0684">needs</text><text fill="#000000" font-family="sans-serif" font-size="13" lengthAdjust="spacing" textLength="8" x="910.0975" y="214.2918">1</text><text fill="#000000" font-family="sans-serif" font-size="13" lengthAdjust="spacing" textLength="6" x="974.8279" y="213.5056">*</text></g><!--link FM to Checkup--><g id="link_FM_Checkup"><path codeLine="75" d="M923.9589,35.21 C941.6289,48.76 970.6389,71 970.6389,71 C970.6389,71 995.1589,140.95 1010.1889,183.85 " fill="none" id="FM-Checkup" style="stroke:#181818;stroke-width:1.0;"/><polygon fill="#000000" points="983.1479,83.9802,981.1512,74.6816,976.067,77.6311,983.1479,83.9802" style="stroke:#000000;stroke-width:1.0;"/><text fill="#000000" font-family="sans-serif" font-size="13" lengthAdjust="spacing" textLength="55" x="989.6389" y="84.5684">registers</text><text fill="#000000" font-family="sans-serif" font-size="13" lengthAdjust="spacing" textLength="8" x="931.5364" y="34.3626">1</text><text fill="#000000" font-family="sans-serif" font-size="13" lengthAdjust="spacing" textLength="6" x="1001.3441" y="173.3018">*</text></g><!--SRC=[VLHDRzim3BthLmYv11YGOhtcC61O46mhMWnBjvrfYR69wCEbv6tPiFy-INPifqdh4ydtH3u-0Wu7SYqmM6czywfXRr56xb244Mb17Q36NJmQb8mgWglDd10QqFuNkLhkmGGKomaov30UMvIUO-F55Q3rvfWJiJIuZp9woLGtKMhAeyYxsIDb88JtCJ9LNSHFohiT_K7vLZIaKIfYbNILs68QfuCGoqWnoTvu2-JalTTeKh4qabyCnBrdA_-AfPGhZK4njMNcyfyGFUdZr_k4Z-dsBDiTo9XKaEbpO752FllgQls3DmOgpn0zpmavg2YPf27s6MXB8IGncwcY6KCeSTjuXm-ThP1BZca_Kw88lriu8i_0v8YBj2S5URcDLvrDXSTa_olmy7vK_eXWvxj_nuQItyCIF_iiMpeim-1qYMmnlKWxJOp0VL2p3-47vekNN7NCQVQTxRTah2b4vCa2zTHHe3YtHJMe3j_QBUDJXquTPsPdf6i7YQEpXzGzSV9b5xSBkPABDulXbEjnP93ldZ7oIL_0UyBPRLzbdeObaLIxAuHYzbhMw32rmymuwvuvg_AWLzN09ULoNCyglOUrRczkBeNtjEsPeDErpzTwYMF1fJz6PfngausdewobGzINNIPyFady1m00]--></g></svg>