<?xml version="1.0" encoding="us-ascii" standalone="no"?><svg xmlns="http://www.w3.org/2000/svg" xmlns:xlink="http://www.w3.org/1999/xlink" contentStyleType="text/css" height="451px" preserveAspectRatio="none" style="width:1225px;height:451px;background:#FFFFFF;" version="1.1" viewBox="0 0 1225 451" width="1225px" zoomAndPan="magnify"><defs/><g><!--class HRM--><g id="elem_HRM"><rect codeLine="17" fill="#F1F1F1" height="34.4883" id="HRM" rx="2.5" ry="2.5" style="stroke:#181818;stroke-width:0.5;" width="37" x="190.3858" y="7"/><text fill="#000000" font-family="sans-serif" font-size="14" lengthAdjust="spacing" textLength="31" x="193.3858" y="25.5352">HRM</text><line style="stroke:#181818;stroke-width:0.5;" x1="191.3858" x2="226.3858" y1="33.4883" y2="33.4883"/></g><!--class FM--><g id="elem_FM"><rect codeLine="20" fill="#F1F1F1" height="34.4883" id="FM" rx="2.5" ry="2.5" style="stroke:#181818;stroke-width:0.5;" width="26" x="1049.8858" y="7"/><text fill="#000000" font-family="sans-serif" font-size="14" lengthAdjust="spacing" textLength="20" x="1052.8858" y="25.5352">FM</text><line style="stroke:#181818;stroke-width:0.5;" x1="1050.8858" x2="1074.8858" y1="33.4883" y2="33.4883"/></g><!--class Organization--><g id="elem_Organization"><rect codeLine="23" fill="#F1F1F1" height="34.4883" id="Organization" rx="2.5" ry="2.5" style="stroke:#181818;stroke-width:0.5;" width="96" x="676.8858" y="7"/><text fill="#000000" font-family="sans-serif" font-size="14" lengthAdjust="spacing" textLength="90" x="679.8858" y="25.5352">Organization</text><line style="stroke:#181818;stroke-width:0.5;" x1="677.8858" x2="771.8858" y1="33.4883" y2="33.4883"/></g><!--class Skill--><g id="elem_Skill"><rect codeLine="26" fill="#F1F1F1" height="50.9766" id="Skill" rx="2.5" ry="2.5" style="stroke:#181818;stroke-width:0.5;" width="50" x="100.8858" y="394"/><text fill="#000000" font-family="sans-serif" font-size="14" lengthAdjust="spacing" textLength="28" x="111.8858" y="412.5352">Skill</text><line style="stroke:#181818;stroke-width:0.5;" x1="101.8858" x2="149.8858" y1="420.4883" y2="420.4883"/><text fill="#000000" font-family="sans-serif" font-size="14" lengthAdjust="spacing" textLength="38" x="106.8858" y="438.0234">name</text></g><!--class Job--><g id="elem_Job"><rect codeLine="30" fill="#F1F1F1" height="50.9766" id="Job" rx="2.5" ry="2.5" style="stroke:#181818;stroke-width:0.5;" width="50" x="813.8858" y="192"/><text fill="#000000" font-family="sans-serif" font-size="14" lengthAdjust="spacing" textLength="22" x="827.8858" y="210.5352">Job</text><line style="stroke:#181818;stroke-width:0.5;" x1="814.8858" x2="862.8858" y1="218.4883" y2="218.4883"/><text fill="#000000" font-family="sans-serif" font-size="14" lengthAdjust="spacing" textLength="38" x="819.8858" y="236.0234">name</text></g><!--class Collaborator--><g id="elem_Collaborator"><rect codeLine="34" fill="#F1F1F1" height="182.8828" id="Collaborator" rx="2.5" ry="2.5" style="stroke:#181818;stroke-width:0.5;" width="227" x="515.3858" y="126"/><text fill="#000000" font-family="sans-serif" font-size="14" lengthAdjust="spacing" textLength="87" x="585.3858" y="144.5352">Collaborator</text><line style="stroke:#181818;stroke-width:0.5;" x1="516.3858" x2="741.3858" y1="152.4883" y2="152.4883"/><text fill="#000000" font-family="sans-serif" font-size="14" lengthAdjust="spacing" textLength="38" x="521.3858" y="170.0234">name</text><text fill="#000000" font-family="sans-serif" font-size="14" lengthAdjust="spacing" textLength="63" x="521.3858" y="186.5117">birthdate</text><text fill="#000000" font-family="sans-serif" font-size="14" lengthAdjust="spacing" textLength="101" x="521.3858" y="203">admissionDate</text><text fill="#000000" font-family="sans-serif" font-size="14" lengthAdjust="spacing" textLength="54" x="521.3858" y="219.4883">address</text><text fill="#000000" font-family="sans-serif" font-size="14" lengthAdjust="spacing" textLength="99" x="521.3858" y="235.9766">phoneNumber</text><text fill="#000000" font-family="sans-serif" font-size="14" lengthAdjust="spacing" textLength="37" x="521.3858" y="252.4648">email</text><text fill="#000000" font-family="sans-serif" font-size="14" lengthAdjust="spacing" textLength="115" x="521.3858" y="268.9531">taxpayerNumber</text><text fill="#000000" font-family="sans-serif" font-size="14" lengthAdjust="spacing" textLength="193" x="521.3858" y="285.4414">identificationDocumentType</text><text fill="#000000" font-family="sans-serif" font-size="14" lengthAdjust="spacing" textLength="215" x="521.3858" y="301.9297">identificationDocumentNumber</text></g><!--class Team--><g id="elem_Team"><rect codeLine="46" fill="#F1F1F1" height="34.4883" id="Team" rx="2.5" ry="2.5" style="stroke:#181818;stroke-width:0.5;" width="44" x="399.8858" y="200.5"/><text fill="#000000" font-family="sans-serif" font-size="14" lengthAdjust="spacing" textLength="38" x="402.8858" y="219.0352">Team</text><line style="stroke:#181818;stroke-width:0.5;" x1="400.8858" x2="442.8858" y1="226.9883" y2="226.9883"/></g><!--class Task--><g id="elem_Task"><rect codeLine="49" fill="#F1F1F1" height="34.4883" id="Task" rx="2.5" ry="2.5" style="stroke:#181818;stroke-width:0.5;" width="38" x="223.8858" y="200.5"/><text fill="#000000" font-family="sans-serif" font-size="14" lengthAdjust="spacing" textLength="32" x="226.8858" y="219.0352">Task</text><line style="stroke:#181818;stroke-width:0.5;" x1="224.8858" x2="260.8858" y1="226.9883" y2="226.9883"/></g><!--class Vehicle--><g id="elem_Vehicle"><rect codeLine="52" fill="#F1F1F1" height="199.3711" id="Vehicle" rx="2.5" ry="2.5" style="stroke:#181818;stroke-width:0.5;" width="141" x="899.3858" y="118"/><text fill="#000000" font-family="sans-serif" font-size="14" lengthAdjust="spacing" textLength="49" x="945.3858" y="136.5352">Vehicle</text><line style="stroke:#181818;stroke-width:0.5;" x1="900.3858" x2="1039.3858" y1="144.4883" y2="144.4883"/><text fill="#000000" font-family="sans-serif" font-size="14" lengthAdjust="spacing" textLength="80" x="905.3858" y="162.0234">vehiclePlate</text><text fill="#000000" font-family="sans-serif" font-size="14" lengthAdjust="spacing" textLength="41" x="905.3858" y="178.5117">brand</text><text fill="#000000" font-family="sans-serif" font-size="14" lengthAdjust="spacing" textLength="43" x="905.3858" y="195">model</text><text fill="#000000" font-family="sans-serif" font-size="14" lengthAdjust="spacing" textLength="29" x="905.3858" y="211.4883">type</text><text fill="#000000" font-family="sans-serif" font-size="14" lengthAdjust="spacing" textLength="27" x="905.3858" y="227.9766">tare</text><text fill="#000000" font-family="sans-serif" font-size="14" lengthAdjust="spacing" textLength="85" x="905.3858" y="244.4648">grossWeight</text><text fill="#000000" font-family="sans-serif" font-size="14" lengthAdjust="spacing" textLength="79" x="905.3858" y="260.9531">currentKms</text><text fill="#000000" font-family="sans-serif" font-size="14" lengthAdjust="spacing" textLength="84" x="905.3858" y="277.4414">registerDate</text><text fill="#000000" font-family="sans-serif" font-size="14" lengthAdjust="spacing" textLength="106" x="905.3858" y="293.9297">acquisitionDate</text><text fill="#000000" font-family="sans-serif" font-size="14" lengthAdjust="spacing" textLength="129" x="905.3858" y="310.418">checkUpFrequency</text></g><!--class Checkup--><g id="elem_Checkup"><rect codeLine="65" fill="#F1F1F1" height="83.9531" id="Checkup" rx="2.5" ry="2.5" style="stroke:#181818;stroke-width:0.5;" width="92" x="1126.8858" y="175.5"/><text fill="#000000" font-family="sans-serif" font-size="14" lengthAdjust="spacing" textLength="60" x="1142.8858" y="194.0352">Checkup</text><line style="stroke:#181818;stroke-width:0.5;" x1="1127.8858" x2="1217.8858" y1="201.9883" y2="201.9883"/><text fill="#000000" font-family="sans-serif" font-size="14" lengthAdjust="spacing" textLength="80" x="1132.8858" y="219.5234">vehiclePlate</text><text fill="#000000" font-family="sans-serif" font-size="14" lengthAdjust="spacing" textLength="30" x="1132.8858" y="236.0117">date</text><text fill="#000000" font-family="sans-serif" font-size="14" lengthAdjust="spacing" textLength="28" x="1132.8858" y="252.5">kms</text></g><!--link HRM to Skill--><g id="link_HRM_Skill"><path codeLine="71" d="M189.8958,33.01 C158.6658,46.19 99.8858,71 99.8858,71 C99.8858,71 12.8858,118 12.8858,118 C12.8858,118 12.8858,317 12.8858,317 C12.8858,317 67.2058,365.8 100.5258,395.72 " fill="none" id="HRM-Skill" style="stroke:#181818;stroke-width:1.0;"/><polygon fill="#000000" points="16.6896,222.5101,21.7072,214.4308,16,213.0245,16.6896,222.5101" style="stroke:#000000;stroke-width:1.0;"/><text fill="#000000" font-family="sans-serif" font-size="13" lengthAdjust="spacing" textLength="55" x="26.8858" y="222.5684">registers</text><text fill="#000000" font-family="sans-serif" font-size="13" lengthAdjust="spacing" textLength="8" x="174.2804" y="31.0491">1</text><text fill="#000000" font-family="sans-serif" font-size="13" lengthAdjust="spacing" textLength="6" x="86.9041" y="384.9267">*</text></g><!--link HRM to Skill--><g id="link_HRM_Skill"><path codeLine="74" d="M197.3858,41.2 C178.4758,67.84 142.8858,118 142.8858,118 C142.8858,118 131.3658,321.66 127.2958,393.65 " fill="none" id="HRM-Skill-1" style="stroke:#181818;stroke-width:1.0;"/><polygon fill="#000000" points="146.9106,222.5592,151.5573,214.2611,145.7923,213.1147,146.9106,222.5592" style="stroke:#000000;stroke-width:1.0;"/><text fill="#000000" font-family="sans-serif" font-size="13" lengthAdjust="spacing" textLength="48" x="156.8858" y="222.5684">assigns</text><text fill="#000000" font-family="sans-serif" font-size="13" lengthAdjust="spacing" textLength="8" x="184.2515" y="61.9208">1</text><text fill="#000000" font-family="sans-serif" font-size="13" lengthAdjust="spacing" textLength="6" x="120.9083" y="383.13">*</text></g><!--link HRM to Job--><g id="link_HRM_Job"><path codeLine="72" d="M227.8458,27.38 C302.9958,36.8 575.8858,71 575.8858,71 C575.8858,71 615.8858,88 615.8858,88 C615.8858,88 759.8858,118 759.8858,118 C759.8858,118 795.5458,162.46 818.9458,191.64 " fill="none" id="HRM-Job" style="stroke:#181818;stroke-width:1.0;"/><polygon fill="#000000" points="625.7033,80.994,617.7753,75.7406,616.2016,81.4039,625.7033,80.994" style="stroke:#000000;stroke-width:1.0;"/><text fill="#000000" font-family="sans-serif" font-size="13" lengthAdjust="spacing" textLength="55" x="629.8858" y="84.5684">registers</text><text fill="#000000" font-family="sans-serif" font-size="13" lengthAdjust="spacing" textLength="8" x="235.4513" y="23.5542">1</text><text fill="#000000" font-family="sans-serif" font-size="13" lengthAdjust="spacing" textLength="6" x="807.3542" y="181.1176">*</text></g><!--link HRM to Collaborator--><g id="link_HRM_Collaborator"><path codeLine="73" d="M227.7958,35.54 C259.9658,53.48 321.8858,88 321.8858,88 C321.8858,88 460.8858,118 460.8858,118 C460.8858,118 485.0058,132.14 514.9658,149.71 " fill="none" id="HRM-Collaborator" style="stroke:#181818;stroke-width:1.0;"/><polygon fill="#000000" points="331.5321,81.5025,324.2127,75.4298,322.0412,80.8919,331.5321,81.5025" style="stroke:#000000;stroke-width:1.0;"/><text fill="#000000" font-family="sans-serif" font-size="13" lengthAdjust="spacing" textLength="55" x="335.8858" y="84.5684">registers</text><text fill="#000000" font-family="sans-serif" font-size="13" lengthAdjust="spacing" textLength="8" x="235.3848" y="54.3859">1</text><text fill="#000000" font-family="sans-serif" font-size="13" lengthAdjust="spacing" textLength="6" x="501.4756" y="142.4688">*</text></g><!--link HRM to Team--><g id="link_HRM_Team"><path codeLine="75" d="M207.8158,41.35 C206.9558,54.57 205.8858,71 205.8858,71 C205.8858,71 205.8858,88 205.8858,88 C205.8858,88 278.8858,118 278.8858,118 C278.8858,118 359.3258,173.41 399.5458,201.11 " fill="none" id="HRM-Team" style="stroke:#181818;stroke-width:1.0;"/><polygon fill="#000000" points="214.7271,82.856,209.6595,74.808,205.8968,79.3236,214.7271,82.856" style="stroke:#000000;stroke-width:1.0;"/><text fill="#000000" font-family="sans-serif" font-size="13" lengthAdjust="spacing" textLength="61" x="219.8858" y="84.5684">generates</text><text fill="#000000" font-family="sans-serif" font-size="13" lengthAdjust="spacing" textLength="8" x="198.1364" y="62.1205">1</text><text fill="#000000" font-family="sans-serif" font-size="13" lengthAdjust="spacing" textLength="6" x="385.7855" y="191.3348">*</text></g><!--link Organization to Collaborator--><g id="link_Organization_Collaborator"><path codeLine="76" d="M716.7058,41.33 C707.1358,60.41 690.5358,93.52 674.3358,125.85 " fill="none" id="Organization-Collaborator" style="stroke:#181818;stroke-width:1.0;"/><polygon fill="#000000" points="704.6451,84.1251,711.3259,77.3562,706.0713,74.7221,704.6451,84.1251" style="stroke:#000000;stroke-width:1.0;"/><text fill="#000000" font-family="sans-serif" font-size="13" lengthAdjust="spacing" textLength="22" x="715.8858" y="84.5684">has</text><text fill="#000000" font-family="sans-serif" font-size="13" lengthAdjust="spacing" textLength="8" x="704.6712" y="62.0939">1</text><text fill="#000000" font-family="sans-serif" font-size="13" lengthAdjust="spacing" textLength="6" x="671.8512" y="115.2252">*</text></g><!--link Organization to Team--><g id="link_Organization_Team"><path codeLine="77" d="M676.4458,36.73 C620.1558,50.36 534.8858,71 534.8858,71 C534.8858,71 497.8858,118 497.8858,118 C497.8858,118 456.0258,172.26 434.4358,200.23 " fill="none" id="Organization-Team" style="stroke:#181818;stroke-width:1.0;"/><polygon fill="#000000" points="535.7427,82.4543,544.8829,79.8261,541.5924,74.9555,535.7427,82.4543" style="stroke:#000000;stroke-width:1.0;"/><text fill="#000000" font-family="sans-serif" font-size="13" lengthAdjust="spacing" textLength="22" x="548.8858" y="84.5684">has</text><text fill="#000000" font-family="sans-serif" font-size="13" lengthAdjust="spacing" textLength="8" x="660.7437" y="35.0535">1</text><text fill="#000000" font-family="sans-serif" font-size="13" lengthAdjust="spacing" textLength="6" x="431.4799" y="189.8746">*</text></g><!--link Collaborator to Job--><g id="link_Collaborator_Job"><path codeLine="78" d="M742.7958,217.5 C769.4058,217.5 795.2558,217.5 813.4258,217.5 " fill="none" id="Collaborator-Job" style="stroke:#181818;stroke-width:1.0;"/><polygon fill="#000000" points="769.6358,206.1553,760.5908,203.2163,760.5908,209.0942,769.6358,206.1553" style="stroke:#000000;stroke-width:1.0;"/><text fill="#000000" font-family="sans-serif" font-size="13" lengthAdjust="spacing" textLength="22" x="773.6358" y="211.0684">has</text><text fill="#000000" font-family="sans-serif" font-size="13" lengthAdjust="spacing" textLength="6" x="750.2854" y="214.6016">*</text><text fill="#000000" font-family="sans-serif" font-size="13" lengthAdjust="spacing" textLength="8" x="797.8767" y="213.1893">1</text></g><!--link Collaborator to Skill--><g id="link_Collaborator_Skill"><path codeLine="79" d="M514.9658,285.29 C485.0058,302.86 460.8858,317 460.8858,317 C460.8858,317 229.5158,387.1 151.3358,410.79 " fill="none" id="Collaborator-Skill" style="stroke:#181818;stroke-width:1.0;"/><polygon fill="#000000" points="353.1594,357.2865,362.6684,357.1137,360.7508,351.5575,353.1594,357.2865" style="stroke:#000000;stroke-width:1.0;"/><text fill="#000000" font-family="sans-serif" font-size="13" lengthAdjust="spacing" textLength="22" x="366.8858" y="360.5684">has</text><text fill="#000000" font-family="sans-serif" font-size="13" lengthAdjust="spacing" textLength="8" x="499.4116" y="286.7344">1</text><text fill="#000000" font-family="sans-serif" font-size="13" lengthAdjust="spacing" textLength="6" x="158.9818" y="404.0468">*</text></g><!--link Team to Collaborator--><g id="link_Team_Collaborator"><path codeLine="80" d="M444.0358,217.5 C461.6658,217.5 487.7958,217.5 514.8958,217.5 " fill="none" id="Team-Collaborator" style="stroke:#181818;stroke-width:1.0;"/><polygon fill="#000000" points="471.1358,206.1553,462.0908,203.2163,462.0908,209.0942,471.1358,206.1553" style="stroke:#000000;stroke-width:1.0;"/><text fill="#000000" font-family="sans-serif" font-size="13" lengthAdjust="spacing" textLength="22" x="475.1358" y="211.0684">has</text><text fill="#000000" font-family="sans-serif" font-size="13" lengthAdjust="spacing" textLength="8" x="452.0443" y="212.7443">1</text><text fill="#000000" font-family="sans-serif" font-size="13" lengthAdjust="spacing" textLength="22" x="485.2793" y="230.5384">1..*</text></g><!--link Task to Team--><g id="link_Task_Team"><path codeLine="81" d="M262.3858,217.5 C295.9058,217.5 364.2758,217.5 399.6258,217.5 " fill="none" id="Task-Team" style="stroke:#181818;stroke-width:1.0;"/><polygon fill="#000000" points="289.3858,206.1553,280.3408,203.2163,280.3408,209.0942,289.3858,206.1553" style="stroke:#000000;stroke-width:1.0;"/><text fill="#000000" font-family="sans-serif" font-size="13" lengthAdjust="spacing" textLength="88" x="293.3858" y="211.0684">is assigned to</text><text fill="#000000" font-family="sans-serif" font-size="13" lengthAdjust="spacing" textLength="6" x="269.839" y="212.5545">*</text><text fill="#000000" font-family="sans-serif" font-size="13" lengthAdjust="spacing" textLength="8" x="383.912" y="212.8391">1</text></g><!--link FM to Vehicle--><g id="link_FM_Vehicle"><path codeLine="82" d="M1054.9558,41.33 C1046.4758,58.78 1032.3058,87.97 1017.9358,117.56 " fill="none" id="FM-Vehicle" style="stroke:#181818;stroke-width:1.0;"/><polygon fill="#000000" points="1042.7016,84.153,1049.2966,77.3004,1044.0092,74.7327,1042.7016,84.153" style="stroke:#000000;stroke-width:1.0;"/><text fill="#000000" font-family="sans-serif" font-size="13" lengthAdjust="spacing" textLength="55" x="1053.8858" y="84.5684">registers</text><text fill="#000000" font-family="sans-serif" font-size="13" lengthAdjust="spacing" textLength="8" x="1043.004" y="62.0939">1</text><text fill="#000000" font-family="sans-serif" font-size="13" lengthAdjust="spacing" textLength="6" x="1015.2442" y="107.236">*</text></g><!--link FM to Vehicle--><g id="link_FM_Vehicle"><path codeLine="83" d="M1049.3958,30.64 C1020.0258,42.92 952.8858,71 952.8858,71 C952.8858,71 952.8858,88 952.8858,88 C952.8858,88 954.5458,100.55 956.8258,117.8 " fill="none" id="FM-Vehicle-1" style="stroke:#181818;stroke-width:1.0;"/><polygon fill="#000000" points="954.2455,83.0828,962.8456,79.022,958.8162,74.7426,954.2455,83.0828" style="stroke:#000000;stroke-width:1.0;"/><text fill="#000000" font-family="sans-serif" font-size="13" lengthAdjust="spacing" textLength="56" x="966.8858" y="84.5684">manages</text><text fill="#000000" font-family="sans-serif" font-size="13" lengthAdjust="spacing" textLength="8" x="1033.744" y="27.7932">1</text><text fill="#000000" font-family="sans-serif" font-size="13" lengthAdjust="spacing" textLength="6" x="949.5962" y="107.1585">*</text></g><!--link Vehicle to Checkup--><g id="link_Vehicle_Checkup"><path codeLine="84" d="M1040.8858,217.5 C1069.2358,217.5 1101.0958,217.5 1126.4058,217.5 " fill="none" id="Vehicle-Checkup" style="stroke:#181818;stroke-width:1.0;"/><polygon fill="#000000" points="1067.6358,206.1553,1058.5908,203.2163,1058.5908,209.0942,1067.6358,206.1553" style="stroke:#000000;stroke-width:1.0;"/><text fill="#000000" font-family="sans-serif" font-size="13" lengthAdjust="spacing" textLength="37" x="1071.6358" y="211.0684">needs</text><text fill="#000000" font-family="sans-serif" font-size="13" lengthAdjust="spacing" textLength="8" x="1048.2686" y="214.3271">1</text><text fill="#000000" font-family="sans-serif" font-size="13" lengthAdjust="spacing" textLength="6" x="1112.8292" y="213.9473">*</text></g><!--link Task to Vehicle--><g id="link_Task_Vehicle"><path codeLine="85" d="M262.1958,202.36 C304.2558,169.38 400.3858,94 400.3858,94 C400.3858,94 497.3858,94 497.3858,94 C497.3858,94 881.8858,118 881.8858,118 C881.8858,118 889.0458,126.09 899.2758,137.66 " fill="none" id="Task-Vehicle" style="stroke:#181818;stroke-width:1.0;"/><polygon fill="#000000" points="410.3602,79.1501,401.0645,77.1401,401.6584,82.9879,410.3602,79.1501" style="stroke:#000000;stroke-width:1.0;"/><text fill="#000000" font-family="sans-serif" font-size="13" lengthAdjust="spacing" textLength="82" x="414.3858" y="84.5684">has assigned</text><text fill="#000000" font-family="sans-serif" font-size="13" lengthAdjust="spacing" textLength="8" x="269.9173" y="192.3994">1</text><text fill="#000000" font-family="sans-serif" font-size="13" lengthAdjust="spacing" textLength="6" x="885.2247" y="125.6722">*</text></g><!--link FM to Checkup--><g id="link_FM_Checkup"><path codeLine="86" d="M1076.1958,36.14 C1092.4758,49.75 1117.8858,71 1117.8858,71 C1117.8858,71 1141.0158,132.18 1157.2758,175.19 " fill="none" id="FM-Checkup" style="stroke:#181818;stroke-width:1.0;"/><polygon fill="#000000" points="1130.4044,83.9746,1128.3871,74.6805,1123.3094,77.6413,1130.4044,83.9746" style="stroke:#000000;stroke-width:1.0;"/><text fill="#000000" font-family="sans-serif" font-size="13" lengthAdjust="spacing" textLength="55" x="1136.8858" y="84.5684">registers</text><text fill="#000000" font-family="sans-serif" font-size="13" lengthAdjust="spacing" textLength="8" x="1083.769" y="35.6995">1</text><text fill="#000000" font-family="sans-serif" font-size="13" lengthAdjust="spacing" textLength="6" x="1148.3099" y="164.8484">*</text></g><!--link Organization to Vehicle--><g id="link_Organization_Vehicle"><path codeLine="87" d="M752.5958,41.41 C797.6658,68.11 881.8858,118 881.8858,118 C881.8858,118 889.0458,126.01 899.2758,137.46 " fill="none" id="Organization-Vehicle" style="stroke:#181818;stroke-width:1.0;"/><polygon fill="#000000" points="840.0688,82.3944,834.1118,74.9806,830.8917,79.898,840.0688,82.3944" style="stroke:#000000;stroke-width:1.0;"/><text fill="#000000" font-family="sans-serif" font-size="13" lengthAdjust="spacing" textLength="22" x="844.8858" y="84.5684">has</text><text fill="#000000" font-family="sans-serif" font-size="13" lengthAdjust="spacing" textLength="8" x="752.4498" y="62.2004">1</text><text fill="#000000" font-family="sans-serif" font-size="13" lengthAdjust="spacing" textLength="6" x="885.2247" y="142.091">*</text></g><!--SRC=[VLHBZzD03BxFhnZrKWcfA_RQGoL4LIsW1KGBdDs9crYTHzOp0Rg8_yxC9CrZjsrEVdnZV_vinH_9ri1Wf77MgOgTGHcuGU7xJ0tg22LkmqcZP5G1RAd705z1uNwJBUK1j4Sn7rAQB8PJZT9ng9ouaAYTFYL7p3KUWWnECfLLa0MbLkJiw97IuFsx49ZsJS0FojajFQDyAoegK2fY5Nbbss1iLtWXve52fBrs1iZAHrUWZi5SI7xL40wEZVmhvb8k2lIAgSuzv_-4Q44FtnvZldSt4-yBbs3f6TARKNXx9AqZJiRFWi4Xyz7jByRVEwrXxnY2up4W6NkAsXKGMWyAGzx7VkiXKZ1wd-swSXO_DsQFd7sCO-ji1VXJmmbvb8n2sK07Kfd_sgd6nC0kRkL6kdlVCzyXcB4aE_37iVy3AufhwORwrNf9-Muu1bjao-JTPAfd1W6uDKfstl_4T1ZPLmrpvFB9j5CpbkG3yY29Uch8KnZBf2fKn-_rXl6fGQjE8_5JfgaZnLVqUjcFiLLyaAvXTZ-J2pbxC-lslEpxUxbwWKZxlf9l0PF5tqIUcqN6LDeBWBo9fIpHOYo72J6-pnjTAxW5xkgseCdBb5raQ3ld9SZh0LfKhje9TNztTurKFgUXJyU5V2S35kcFiHARYHBdcvlgUGrZmCRVMqASOyF-pgUnb1Qn60ZrWA5CujkJUjbjg3DcT4tnQT6L4Fy1]--></g></svg>